M48
; DRILL file KiCad 10.0.5+dfsg-1 date 2026-09-25T10:13:51
; FORMAT={-:-/ absolute / metric / decimal}
; #@! TF.CreationDate,2026-09-25T10:13:51+00:00
; #@! TF.GenerationSoftware,Kicad,Pcbnew,10.0.5+dfsg-1
; #@! TF.FileFunction,Plated,1,6,PTH
FMAT,2
METRIC
; #@! TA.AperFunction,Plated,PTH,ViaDrill
T1C0.200
; #@! TA.AperFunction,Plated,PTH,ViaDrill
T2C0.300
; #@! TA.AperFunction,Plated,PTH,ViaDrill
T3C0.400
; #@! TA.AperFunction,Plated,PTH,ComponentDrill
T4C0.600
; #@! TA.AperFunction,Plated,PTH,ComponentDrill
T5C0.800
; #@! TA.AperFunction,Plated,PTH,ComponentDrill
T6C1.000
; #@! TA.AperFunction,Plated,PTH,ComponentDrill
T7C3.200
%
G90
G05
T1
X118.2Y-96.7
X118.4Y-114.8
X118.4Y-117.5
X118.4Y-120.2
X118.4Y-122.9
X118.4Y-125.6
X119.0Y-116.2
X119.2Y-90.8
X119.2Y-93.5
X119.2Y-98.9
X119.2Y-101.6
X119.212Y-96.2
X119.7Y-124.3
X120.17Y-103.1
X120.4Y-113.9
X120.58Y-116.62
X120.788Y-98.9
X120.8Y-89.8
X120.8Y-95.3
X121.06Y-108.58
X121.1Y-108.05
X121.296Y-97.396
X121.3Y-92.5
X121.43Y-97.97
X121.45Y-104.65
X121.5Y-120.2
X121.5Y-122.9
X121.5Y-125.6
X121.505Y-100.045
X122.1Y-92.1
X122.1Y-101.04
X122.1Y-102.06
X122.4Y-94.9
X122.9Y-99.4
X123.167Y-120.93
X123.495Y-107.45
X123.5Y-108.45
X123.6Y-120.07
X123.615Y-91.25
X124.04Y-120.64
X124.16Y-95.15
X124.52Y-123.87
X124.715Y-91.99
X124.8Y-104.0
X125.04Y-108.84
X125.04Y-111.75
X125.05Y-106.45
X125.1Y-114.65
X125.11Y-123.58
X125.35Y-109.2
X125.4Y-102.01
X125.43Y-112.98
X125.5Y-106.2
X125.52Y-124.5
X125.6Y-105.25
X125.8Y-90.988
X125.89Y-102.01
X126.315Y-93.587
X126.362Y-120.55
X126.425Y-113.0
X126.425Y-114.5
X126.715Y-107.7
X126.715Y-108.7
X126.95Y-96.058
X126.96Y-98.04
X127.241Y-97.641
X127.38Y-105.2
X127.5Y-130.4
X127.5Y-98.8
X127.56Y-97.17
X127.685Y-108.7
X127.7Y-107.7
X127.887Y-106.4
X127.887Y-110.0
X127.93Y-120.83
X127.95Y-103.41
X127.96Y-100.95
X128.1Y-88.79
X128.1Y-89.81
X128.39Y-105.3
X128.4Y-104.8
X128.68Y-107.7
X128.69Y-111.96
X128.77Y-120.73
X128.82Y-118.04
X128.85Y-118.6
X128.87Y-96.57
X129.18Y-97.01
X129.34Y-122.69
X129.35Y-114.45
X129.37Y-115.41
X129.38Y-113.81
X129.4Y-107.91
X129.555Y-86.59
X129.58Y-105.3
X129.587Y-104.038
X129.8Y-96.69
X129.8Y-109.52
X130.1Y-126.72
X130.15Y-122.1
X130.17Y-102.16
X130.4Y-99.02
X130.41Y-113.86
X130.79Y-102.57
X130.8Y-101.7
X130.8Y-125.9
X130.84Y-105.552
X130.9Y-114.2
X131.05Y-86.55
X131.125Y-85.05
X131.2Y-99.6
X131.45Y-101.78
X131.45Y-119.4
X131.5Y-130.08
X131.55Y-102.89
X131.55Y-103.91
X131.765Y-85.05
X131.8Y-109.52
X131.9Y-115.45
X131.95Y-107.85
X132.125Y-83.55
X132.125Y-84.19
X132.25Y-122.1
X132.3Y-109.18
X132.5Y-107.0
X132.51Y-89.0
X132.51Y-89.48
X132.72Y-101.71
X132.76Y-122.61
X132.8Y-125.4
X133.08Y-98.85
X133.1Y-84.49
X133.5Y-84.09
X133.51Y-120.63
X133.66Y-85.65
X133.67Y-126.47
X133.71Y-95.462
X133.78Y-82.63
X134.0Y-84.51
X134.06Y-95.9
X134.08Y-86.14
X134.12Y-114.17
X134.15Y-85.35
X134.3Y-101.4
X134.334Y-125.369
X134.43Y-113.64
X134.55Y-107.2
X134.588Y-120.746
X134.62Y-108.49
X134.62Y-127.29
X134.63Y-119.02
X134.73Y-96.2
X134.832Y-97.276
X134.832Y-97.826
X134.91Y-89.95
X134.98Y-115.66
X135.015Y-111.745
X135.021Y-99.977
X135.03Y-105.322
X135.17Y-95.702
X135.17Y-102.87
X135.18Y-89.01
X135.28Y-97.03
X135.28Y-108.4
X135.37Y-131.0
X135.4Y-83.6
X135.4Y-134.1
X135.42Y-98.86
X135.45Y-126.34
X135.54Y-104.72
X135.54Y-113.46
X135.64Y-90.07
X135.72Y-109.31
X135.79Y-113.89
X135.82Y-99.29
X135.83Y-89.65
X135.87Y-102.64
X135.9Y-88.7
X136.09Y-126.34
X136.121Y-103.921
X136.16Y-111.1
X136.223Y-101.179
X136.264Y-94.99
X136.3Y-105.1
X136.39Y-83.89
X136.4Y-102.2
X136.41Y-110.51
X136.518Y-94.482
X136.528Y-100.1
X136.56Y-86.83
X136.69Y-129.93
X136.69Y-130.39
X136.7Y-130.9
X136.73Y-105.6
X136.772Y-91.18
X137.02Y-118.69
X137.05Y-121.31
X137.11Y-95.9
X137.11Y-89.96
X137.161Y-100.739
X137.28Y-103.67
X137.3Y-127.5
X137.38Y-126.49
X137.51Y-105.25
X137.6Y-96.12
X137.761Y-103.061
X137.91Y-104.25
X137.91Y-85.3
X137.991Y-120.594
X138.0Y-107.8
X138.02Y-127.29
X138.04Y-126.182
X138.13Y-117.88
X138.13Y-96.1
X138.35Y-105.09
X138.41Y-108.42
X138.42Y-89.97
X138.439Y-103.739
X138.5Y-107.8
X138.539Y-98.339
X138.56Y-95.572
X138.58Y-89.01
X138.77Y-105.39
X138.85Y-126.34
X139.1Y-99.5
X139.12Y-97.72
X139.13Y-103.18
X139.16Y-103.82
X139.18Y-104.39
X139.2Y-129.3
X139.25Y-89.65
X139.25Y-88.65
X139.31Y-105.55
X139.36Y-102.05
X139.4Y-99.1
X139.46Y-106.02
X139.477Y-130.06
X139.477Y-130.71
X139.49Y-126.34
X139.52Y-94.99
X139.675Y-97.725
X139.761Y-110.539
X139.8Y-95.71
X139.8Y-104.46
X139.83Y-103.14
X139.87Y-103.81
X139.92Y-102.39
X139.96Y-105.49
X140.0Y-100.78
X140.004Y-106.994
X140.11Y-96.11
X140.15Y-109.9
X140.29Y-115.39
X140.29Y-117.17
X140.43Y-134.48
X140.45Y-83.53
X140.48Y-120.58
X140.5Y-86.3
X140.51Y-95.9
X140.52Y-107.08
X140.53Y-84.87
X140.54Y-100.3
X140.6Y-116.03
X140.63Y-97.52
X140.77Y-126.48
X140.776Y-127.476
X140.87Y-107.46
X140.92Y-119.67
X140.98Y-110.92
X141.17Y-82.87
X141.2Y-102.27
X141.3Y-106.45
X141.3Y-103.1
X141.3Y-105.5
X141.37Y-104.38
X141.395Y-120.746
X141.4Y-87.0
X141.42Y-127.29
X141.44Y-125.38
X141.5Y-103.7
X141.5Y-107.42
X141.5Y-129.2
X141.535Y-96.1
X141.54Y-99.32
X141.55Y-101.4
X141.7Y-98.3
X141.7Y-102.27
X141.8Y-105.95
X141.9Y-101.0
X141.9Y-88.1
X141.95Y-107.31
X141.96Y-90.56
X141.96Y-95.572
X141.98Y-89.01
X142.0Y-130.81
X142.03Y-86.32
X142.139Y-99.961
X142.19Y-96.38
X142.2Y-103.7
X142.21Y-104.44
X142.25Y-88.41
X142.25Y-126.34
X142.3Y-101.4
X142.3Y-102.27
X142.3Y-103.0
X142.3Y-105.45
X142.55Y-109.3
X142.62Y-89.84
X142.64Y-106.32
X142.675Y-88.725
X142.89Y-126.34
X142.9Y-108.9
X142.95Y-86.32
X142.99Y-131.0
X143.0Y-132.3
X143.0Y-112.19
X143.25Y-111.8
X143.3Y-112.55
X143.31Y-98.9
X143.34Y-104.46
X143.345Y-98.445
X143.36Y-92.349
X143.38Y-102.23
X143.4Y-103.6
X143.5Y-103.0
X143.655Y-106.145
X143.7Y-105.5
X143.7Y-126.05
X143.81Y-122.82
X143.87Y-120.66
X143.88Y-121.32
X143.88Y-86.11
X143.884Y-94.533
X143.884Y-94.99
X143.89Y-96.29
X143.91Y-89.96
X143.935Y-91.231
X144.09Y-123.24
X144.1Y-127.55
X144.121Y-103.821
X144.13Y-104.77
X144.17Y-126.45
X144.2Y-103.0
X144.2Y-129.7
X144.3Y-82.7
X144.3Y-105.4
X144.4Y-132.55
X144.47Y-96.29
X144.5Y-129.2
X144.551Y-123.3
X144.6Y-130.3
X144.63Y-125.3
X144.731Y-109.659
X144.8Y-104.5
X144.81Y-127.92
X144.82Y-127.29
X144.9Y-120.543
X144.9Y-86.11
X144.935Y-96.3
X145.049Y-109.341
X145.24Y-89.96
X145.35Y-95.702
X145.38Y-89.01
X145.38Y-127.99
X145.38Y-133.6
X145.4Y-114.6
X145.44Y-111.36
X145.5Y-132.6
X145.54Y-115.48
X145.6Y-112.7
X145.61Y-88.4
X145.65Y-126.34
X145.759Y-111.01
X145.78Y-83.35
X145.79Y-119.67
X145.87Y-118.33
X145.93Y-107.76
X146.0Y-88.8
X146.02Y-89.84
X146.11Y-115.97
X146.29Y-126.34
X146.32Y-94.99
X146.32Y-118.33
X146.373Y-94.33
X146.53Y-130.26
X146.75Y-133.12
X146.75Y-134.08
X146.782Y-129.657
X146.81Y-85.92
X146.87Y-82.87
X146.92Y-117.91
X147.0Y-101.45
X147.0Y-107.45
X147.0Y-108.95
X147.0Y-110.45
X147.0Y-113.95
X147.0Y-114.45
X147.0Y-115.45
X147.135Y-91.434
X147.15Y-129.2
X147.29Y-121.31
X147.31Y-89.96
X147.31Y-96.1
X147.37Y-118.03
X147.58Y-126.46
X147.6Y-127.5
X147.65Y-111.95
X147.79Y-96.29
X148.0Y-113.0
X148.03Y-116.34
X148.04Y-108.7
X148.06Y-109.3
X148.07Y-112.55
X148.09Y-114.07
X148.1Y-102.9
X148.2Y-96.0
X148.2Y-120.0
X148.2Y-101.0
X148.2Y-101.0
X148.22Y-82.7
X148.22Y-127.29
X148.24Y-126.16
X148.253Y-120.594
X148.3Y-101.95
X148.3Y-104.7
X148.41Y-86.75
X148.69Y-130.14
X148.7Y-120.0
X148.76Y-89.98
X148.78Y-89.01
X148.8Y-133.76
X148.862Y-95.397
X148.87Y-86.99
X148.9Y-96.18
X148.95Y-109.4
X149.002Y-110.557
X149.03Y-85.48
X149.05Y-116.45
X149.05Y-126.34
X149.1Y-127.95
X149.111Y-111.729
X149.12Y-112.681
X149.16Y-86.64
X149.2Y-82.7
X149.25Y-105.03
X149.3Y-96.4
X149.3Y-109.05
X149.32Y-108.55
X149.32Y-133.76
X149.32Y-110.239
X149.38Y-107.91
X149.429Y-111.411
X149.43Y-89.85
X149.44Y-112.36
X149.48Y-116.15
X149.5Y-88.75
X149.53Y-106.7
X149.54Y-107.176
X149.69Y-126.34
X149.7Y-120.0
X149.72Y-94.99
X149.777Y-91.739
X149.777Y-94.381
X149.784Y-86.816
X149.8Y-86.3
X149.8Y-96.4
X150.3Y-96.45
X150.42Y-99.02
X150.5Y-103.45
X150.5Y-123.45
X150.6Y-104.95
X150.62Y-113.96
X150.65Y-129.98
X150.65Y-107.95
X150.66Y-109.45
X150.7Y-83.25
X150.7Y-102.95
X150.7Y-120.6
X150.71Y-89.96
X150.71Y-115.9
X150.76Y-96.3
X150.98Y-100.06
X150.98Y-126.46
X151.09Y-127.48
X151.1Y-117.0
X151.12Y-99.01
X151.265Y-127.915
X151.35Y-89.96
X151.504Y-129.179
X151.54Y-116.13
X151.57Y-129.98
X151.62Y-127.29
X151.64Y-125.74
X151.65Y-86.07
X151.656Y-120.898
X151.73Y-96.3
X151.89Y-103.11
X151.89Y-115.46
X152.04Y-95.93
X152.05Y-95.295
X152.06Y-116.25
X152.09Y-120.0
X152.15Y-84.7
X152.18Y-89.01
X152.25Y-111.3
X152.28Y-89.97
X152.31Y-96.29
X152.31Y-103.3
X152.35Y-106.75
X152.45Y-126.34
X152.824Y-88.824
X152.83Y-89.82
X153.1Y-120.0
X153.15Y-85.3
X153.2Y-129.4
X153.2Y-132.6
X153.31Y-108.0
X153.76Y-108.02
X153.76Y-103.81
X153.942Y-94.889
X153.993Y-94.432
X154.07Y-121.31
X154.095Y-91.282
X154.11Y-89.96
X154.11Y-96.29
X154.12Y-104.1
X154.123Y-85.59
X154.123Y-86.24
X154.3Y-115.3
X154.31Y-108.01
X154.35Y-127.65
X154.35Y-126.65
X154.62Y-96.2
X154.7Y-126.26
X154.857Y-120.898
X154.9Y-98.45
X154.99Y-115.4
X155.01Y-102.81
X155.02Y-127.29
X155.14Y-96.24
X155.24Y-103.25
X155.34Y-98.64
X155.35Y-100.52
X155.47Y-115.4
X155.5Y-120.0
X155.56Y-89.95
X155.56Y-95.702
X155.57Y-96.9
X155.58Y-89.01
X155.69Y-131.0
X155.7Y-85.65
X155.7Y-129.4
X155.85Y-126.34
X155.87Y-103.58
X155.89Y-100.04
X155.9Y-98.7
X155.91Y-101.01
X155.91Y-102.76
X155.92Y-96.57
X156.21Y-100.38
X156.22Y-89.81
X156.3Y-88.8
X156.48Y-107.97
X156.49Y-126.34
X156.5Y-120.0
X156.5Y-106.7
X156.52Y-94.99
X156.57Y-103.61
X156.58Y-102.88
X156.6Y-101.45
X156.61Y-109.34
X156.63Y-100.77
X156.705Y-99.935
X156.72Y-90.28
X156.79Y-105.58
X156.925Y-109.672
X156.95Y-108.95
X157.24Y-98.46
X157.244Y-94.584
X157.27Y-101.58
X157.27Y-105.6
X157.37Y-108.455
X157.37Y-121.32
X157.45Y-84.04
X157.51Y-89.96
X157.54Y-107.01
X157.66Y-101.27
X157.7Y-127.6
X157.77Y-126.65
X157.9Y-98.3
X157.91Y-84.46
X157.98Y-126.24
X158.05Y-96.25
X158.15Y-89.96
X158.2Y-96.68
X158.2Y-132.7
X158.275Y-106.21
X158.275Y-108.61
X158.275Y-114.21
X158.275Y-102.21
X158.275Y-105.41
X158.275Y-107.01
X158.275Y-107.81
X158.275Y-111.01
X158.38Y-98.19
X158.42Y-127.29
X158.464Y-120.594
X158.535Y-96.275
X158.6Y-117.9
X158.65Y-126.16
X158.68Y-115.99
X158.9Y-120.0
X158.98Y-89.01
X159.0Y-99.25
X159.075Y-111.01
X159.075Y-102.21
X159.075Y-107.01
X159.075Y-107.81
X159.075Y-111.81
X159.075Y-113.41
X159.075Y-104.61
X159.075Y-106.21
X159.075Y-108.61
X159.075Y-114.21
X159.09Y-98.19
X159.099Y-90.571
X159.124Y-94.635
X159.25Y-126.34
X159.25Y-130.4
X159.34Y-99.83
X159.39Y-90.22
X159.5Y-100.95
X159.58Y-102.59
X159.63Y-99.38
X159.8Y-120.0
X159.82Y-133.67
X159.85Y-129.34
X159.875Y-103.01
X159.875Y-108.61
X159.875Y-110.21
X159.875Y-111.81
X159.875Y-114.21
X159.875Y-102.21
X159.875Y-107.01
X159.875Y-107.81
X159.875Y-111.01
X159.92Y-94.99
X159.98Y-101.08
X160.01Y-83.54
X160.038Y-91.79
X160.038Y-93.1
X160.06Y-123.82
X160.1Y-132.21
X160.2Y-99.85
X160.23Y-108.09
X160.25Y-110.6
X160.36Y-122.93
X160.36Y-123.38
X160.445Y-100.934
X160.5Y-130.5
X160.5Y-131.81
X160.51Y-82.55
X160.675Y-102.21
X160.675Y-103.81
X160.675Y-105.41
X160.675Y-110.21
X160.675Y-111.01
X160.675Y-113.41
X160.675Y-103.01
X160.675Y-104.61
X160.675Y-108.61
X160.74Y-86.95
X160.78Y-133.67
X160.85Y-101.2
X160.92Y-91.54
X160.92Y-90.58
X160.96Y-98.52
X160.99Y-132.21
X161.01Y-108.21
X161.02Y-107.41
X161.05Y-111.45
X161.1Y-106.8
X161.15Y-99.562
X161.39Y-126.82
X161.44Y-130.47
X161.45Y-98.03
X161.45Y-132.54
X161.46Y-122.71
X161.461Y-93.619
X161.47Y-87.08
X161.475Y-103.01
X161.475Y-103.81
X161.475Y-111.01
X161.475Y-111.81
X161.475Y-112.61
X161.475Y-114.21
X161.475Y-104.61
X161.475Y-110.21
X161.49Y-89.14
X161.52Y-98.5
X161.52Y-99.84
X161.6Y-101.2
X161.87Y-86.86
X161.88Y-128.18
X161.88Y-130.77
X161.9Y-93.4
X161.9Y-129.47
X161.92Y-126.875
X162.1Y-90.71
X162.1Y-89.42
X162.11Y-88.13
X162.15Y-118.32
X162.16Y-97.81
X162.16Y-82.89
X162.24Y-99.78
X162.275Y-102.21
X162.275Y-103.01
X162.275Y-103.81
X162.275Y-105.41
X162.275Y-106.21
X162.275Y-107.01
X162.275Y-107.81
X162.275Y-108.61
X162.275Y-109.41
X162.275Y-110.21
X162.275Y-112.61
X162.275Y-114.21
X162.28Y-101.27
X162.3Y-84.78
X162.3Y-121.8
X162.53Y-98.31
X162.63Y-97.86
X162.8Y-90.075
X162.86Y-88.77
X162.86Y-99.68
X162.88Y-87.47
X162.97Y-86.16
X162.98Y-127.51
X162.99Y-128.82
X163.0Y-130.12
X163.075Y-103.01
X163.075Y-103.81
X163.075Y-105.41
X163.075Y-106.21
X163.075Y-107.01
X163.075Y-107.81
X163.075Y-108.61
X163.075Y-109.41
X163.075Y-110.21
X163.075Y-111.81
X163.075Y-112.61
X163.1Y-93.4
X163.21Y-100.11
X163.27Y-96.85
X163.4Y-90.39
X163.4Y-129.15
X163.4Y-130.46
X163.41Y-89.1
X163.41Y-87.79
X163.42Y-127.86
X163.42Y-86.49
X163.46Y-126.76
X163.47Y-120.29
X163.5Y-99.6
X163.535Y-97.785
X163.56Y-109.06
X163.65Y-94.3
X163.86Y-125.98
X163.875Y-104.61
X163.875Y-103.01
X163.875Y-106.21
X163.875Y-107.01
X163.875Y-108.61
X163.875Y-111.81
X163.875Y-112.61
X163.875Y-102.21
X163.875Y-107.81
X163.875Y-109.41
X163.875Y-113.41
X163.88Y-111.01
X164.1Y-115.5
X164.1Y-124.0
X164.12Y-120.12
X164.275Y-110.21
X164.41Y-99.53
X164.43Y-120.57
X164.44Y-100.15
X164.6Y-85.0
X164.6Y-94.0
X164.63Y-94.79
X164.675Y-103.81
X164.675Y-109.41
X164.675Y-111.01
X164.675Y-106.21
X164.675Y-107.01
X164.675Y-107.81
X164.675Y-103.01
X164.675Y-104.61
X164.675Y-108.61
X164.675Y-114.21
X164.75Y-83.7
X164.8Y-118.1
X164.82Y-98.67
X165.0Y-122.912
X165.0Y-128.71
X165.075Y-110.21
X165.11Y-100.15
X165.44Y-100.58
X165.475Y-106.21
X165.475Y-104.61
X165.475Y-108.61
X165.475Y-111.81
X165.475Y-112.61
X165.475Y-102.21
X165.475Y-107.01
X165.475Y-107.81
X165.475Y-113.41
X165.475Y-118.08
X165.475Y-103.81
X165.475Y-109.41
X165.53Y-130.63
X165.59Y-94.79
X165.6Y-93.388
X165.64Y-126.24
X165.67Y-118.5
X165.81Y-85.69
X165.84Y-98.67
X165.85Y-132.6
X165.87Y-105.25
X165.875Y-97.025
X165.9Y-130.95
X166.0Y-130.4
X166.06Y-121.5
X166.15Y-118.55
X166.2Y-117.85
X166.2Y-125.3
X166.274Y-106.21
X166.275Y-104.61
X166.275Y-107.01
X166.275Y-107.81
X166.275Y-109.41
X166.275Y-110.21
X166.275Y-112.61
X166.275Y-108.61
X166.28Y-100.91
X166.4Y-86.7
X166.59Y-99.56
X166.6Y-99.05
X166.64Y-105.04
X166.67Y-86.34
X166.74Y-109.77
X166.8Y-132.66
X166.85Y-118.55
X166.97Y-133.08
X167.0Y-85.995
X167.05Y-92.0
X167.05Y-115.2
X167.075Y-102.21
X167.075Y-103.01
X167.075Y-103.81
X167.075Y-108.61
X167.075Y-113.41
X167.075Y-114.21
X167.09Y-123.61
X167.11Y-91.42
X167.15Y-122.0
X167.19Y-126.55
X167.2Y-127.85
X167.2Y-133.49
X167.21Y-129.16
X167.28Y-101.42
X167.3Y-96.62
X167.3Y-97.58
X167.3Y-118.75
X167.34Y-107.52
X167.39Y-117.12
X167.45Y-104.9
X167.46Y-105.96
X167.46Y-106.92
X167.56Y-123.625
X167.57Y-116.27
X167.6Y-128.16
X167.61Y-125.57
X167.61Y-126.875
X167.62Y-129.46
X167.63Y-91.35
X167.83Y-116.9
X167.86Y-99.66
X167.875Y-103.01
X167.875Y-104.61
X167.875Y-105.41
X167.875Y-107.81
X167.875Y-108.61
X167.88Y-99.2
X167.94Y-97.31
X167.98Y-117.73
X168.0Y-100.1
X168.162Y-90.725
X168.162Y-130.775
X168.19Y-115.81
X168.25Y-104.185
X168.25Y-107.44
X168.3Y-116.8
X168.36Y-118.1
X168.57Y-122.02
X168.6Y-97.7
X168.67Y-110.21
X168.675Y-109.41
X168.675Y-106.21
X168.675Y-107.81
X168.675Y-108.61
X168.69Y-128.81
X168.71Y-126.22
X168.71Y-127.525
X168.72Y-130.11
X168.77Y-99.79
X168.8Y-116.85
X168.82Y-115.75
X168.85Y-94.64
X168.86Y-117.68
X169.1Y-83.53
X169.1Y-84.17
X169.1Y-125.9
X169.17Y-96.82
X169.18Y-93.64
X169.25Y-122.0
X169.28Y-118.54
X169.4Y-96.42
X169.42Y-87.02
X169.475Y-104.61
X169.475Y-108.61
X169.475Y-107.01
X169.475Y-111.81
X169.475Y-102.21
X169.475Y-107.81
X169.475Y-109.41
X169.475Y-111.01
X169.64Y-84.09
X169.64Y-96.82
X169.7Y-130.0
X169.71Y-117.68
X169.72Y-133.2
X169.82Y-82.63
X169.82Y-94.64
X169.89Y-118.53
X169.99Y-87.06
X170.08Y-119.07
X170.1Y-84.49
X170.13Y-95.43
X170.25Y-129.4
X170.275Y-107.81
X170.275Y-109.41
X170.275Y-113.41
X170.275Y-102.21
X170.275Y-106.21
X170.275Y-107.01
X170.275Y-111.81
X170.275Y-112.61
X170.275Y-108.61
X170.275Y-114.21
X170.3Y-96.3
X170.5Y-86.11
X170.5Y-84.09
X170.56Y-87.05
X170.61Y-118.49
X170.64Y-95.448
X170.68Y-133.2
X170.78Y-82.63
X170.8Y-105.8
X170.8Y-108.43
X170.81Y-121.3
X170.91Y-107.21
X170.935Y-111.22
X171.12Y-127.28
X171.13Y-126.7
X171.14Y-110.05
X171.22Y-118.64
X171.35Y-85.75
X171.35Y-89.96
X171.385Y-111.22
X171.418Y-125.623
X171.52Y-121.3
X171.56Y-129.4
X171.62Y-127.29
X171.74Y-117.68
X171.81Y-118.72
X171.81Y-105.8
X171.83Y-109.6
X171.95Y-102.3
X172.11Y-115.72
X172.12Y-105.46
X172.13Y-90.1
X172.17Y-96.3
X172.18Y-89.01
X172.22Y-109.34
X172.35Y-129.4
X172.39Y-111.04
X172.45Y-126.34
X172.63Y-115.71
X172.65Y-90.07
X172.67Y-83.55
X172.68Y-101.42
X172.73Y-105.26
X172.83Y-89.65
X173.03Y-106.44
X173.09Y-115.72
X173.09Y-126.34
X173.121Y-95.571
X173.17Y-83.56
X173.21Y-118.94
X173.238Y-111.055
X173.55Y-115.72
X173.88Y-114.7
X174.08Y-115.72
X174.08Y-120.727
X174.11Y-89.96
X174.11Y-95.462
X174.185Y-111.42
X174.3Y-127.5
X174.36Y-118.93
X174.38Y-126.49
X174.42Y-114.52
X174.7Y-105.49
X174.75Y-89.96
X174.9Y-86.9
X174.91Y-85.3
X175.02Y-127.29
X175.04Y-120.59
X175.04Y-126.182
X175.1Y-96.2
X175.275Y-113.21
X175.275Y-105.21
X175.275Y-106.21
X175.275Y-114.21
X175.41Y-115.88
X175.56Y-95.572
X175.58Y-89.01
X175.8Y-119.02
X175.85Y-126.34
X175.955Y-112.72
X175.96Y-129.48
X176.25Y-89.65
X176.275Y-110.21
X176.275Y-102.21
X176.477Y-130.06
X176.477Y-130.71
X176.49Y-126.34
X176.52Y-95.572
X176.58Y-133.73
X176.71Y-111.64
X176.74Y-113.37
X176.765Y-112.21
X177.08Y-133.96
X177.24Y-101.3
X177.275Y-110.21
X177.275Y-102.21
X177.4Y-83.7
X177.4Y-86.9
X177.48Y-120.57
X177.5Y-96.2
X177.5Y-134.29
X177.7Y-127.52
X177.76Y-111.59
X177.77Y-126.48
X177.93Y-130.73
X177.95Y-109.01
X177.96Y-96.29
X178.03Y-120.52
X178.15Y-89.96
X178.27Y-100.23
X178.275Y-104.21
X178.275Y-105.21
X178.275Y-112.21
X178.275Y-113.21
X178.4Y-109.24
X178.42Y-127.11
X178.44Y-125.623
X178.45Y-130.8
X178.5Y-129.95
X178.525Y-95.84
X178.775Y-101.3
X178.78Y-102.3
X178.96Y-91.155
X178.96Y-95.572
X178.98Y-89.01
X179.0Y-130.81
X179.03Y-86.32
X179.075Y-101.929
X179.25Y-126.34
X179.27Y-110.21
X179.275Y-113.21
X179.275Y-105.21
X179.47Y-81.88
X179.487Y-99.088
X179.62Y-89.84
X179.68Y-109.32
X179.7Y-101.1
X179.74Y-130.98
X179.83Y-115.48
X179.89Y-126.34
X179.9Y-95.73
X179.95Y-93.05
X179.95Y-86.32
X179.95Y-112.7
X179.98Y-98.44
X179.987Y-103.688
X180.0Y-132.3
X180.8Y-101.1
X180.801Y-112.349
X180.837Y-103.782
X180.88Y-121.32
X180.9Y-95.9
X180.91Y-89.96
X180.98Y-98.44
X181.06Y-127.38
X181.17Y-126.45
X181.27Y-120.73
X181.3Y-84.35
X181.3Y-131.7
X181.37Y-96.05
X181.39Y-127.77
X181.4Y-132.5
X181.499Y-111.688
X181.55Y-89.96
X181.628Y-125.623
X181.65Y-110.41
X181.67Y-99.06
X181.72Y-132.1
X181.82Y-127.29
X181.83Y-82.54
X181.91Y-86.1
X181.935Y-96.165
X182.33Y-89.97
X182.35Y-95.73
X182.38Y-89.01
X182.38Y-133.6
X182.42Y-99.43
X182.5Y-132.6
X182.5Y-108.2
X182.65Y-126.34
X182.687Y-101.282
X182.7Y-116.2
X182.92Y-115.77
X182.95Y-98.54
X183.01Y-118.172
X183.02Y-89.84
X183.22Y-116.13
X183.29Y-126.34
X183.32Y-95.572
X183.382Y-99.913
X183.45Y-130.45
X183.512Y-100.902
X183.59Y-123.57
X183.7Y-95.85
X183.73Y-132.47
X183.73Y-133.43
X183.81Y-85.92
X183.87Y-82.87
X183.87Y-83.83
X183.924Y-111.992
X183.963Y-105.513
X183.98Y-123.26
X184.0Y-129.4
X184.14Y-95.97
X184.28Y-120.727
X184.31Y-89.96
X184.58Y-126.46
X184.6Y-127.5
X184.78Y-120.61
X184.79Y-96.25
X184.8Y-101.7
X184.8Y-102.69
X184.85Y-129.45
X184.95Y-89.96
X185.09Y-118.552
X185.1Y-83.7
X185.22Y-82.7
X185.22Y-127.29
X185.24Y-126.182
X185.3Y-96.3
X185.32Y-114.19
X185.7Y-130.38
X185.76Y-89.9
X185.76Y-95.572
X185.78Y-89.01
X185.82Y-103.72
X185.85Y-133.77
X185.87Y-87.4
X185.96Y-85.55
X186.05Y-126.34
X186.09Y-98.58
X186.2Y-82.7
X186.23Y-104.5
X186.3Y-85.09
X186.3Y-100.225
X186.3Y-133.6
X186.38Y-102.05
X186.41Y-86.95
X186.43Y-89.85
X186.66Y-85.79
X186.69Y-126.34
X186.7Y-86.25
X186.72Y-95.572
X187.01Y-101.52
X187.05Y-95.93
X187.33Y-118.98
X187.35Y-123.35
X187.6Y-84.0
X187.61Y-85.3
X187.65Y-129.98
X187.71Y-89.96
X187.71Y-95.88
X187.72Y-96.42
X187.8Y-101.7
X187.8Y-102.48
X187.83Y-118.992
X187.925Y-127.575
X187.98Y-126.46
X188.25Y-96.8
X188.35Y-89.96
X188.36Y-120.61
X188.36Y-112.92
X188.38Y-103.0
X188.38Y-103.7
X188.38Y-104.4
X188.51Y-121.12
X188.57Y-129.98
X188.58Y-116.18
X188.588Y-125.623
X188.6Y-85.49
X188.62Y-127.29
X188.67Y-105.31
X188.7Y-86.65
X188.8Y-117.542
X188.81Y-115.5
X189.02Y-102.3
X189.02Y-104.4
X189.12Y-113.6
X189.16Y-91.155
X189.16Y-95.572
X189.18Y-89.01
X189.4Y-98.3
X189.43Y-90.07
X189.45Y-126.34
X189.46Y-96.45
X189.56Y-88.44
X189.6Y-111.0
X189.65Y-114.29
X189.65Y-118.78
X189.69Y-113.59
X189.7Y-111.55
X189.81Y-98.57
X189.824Y-88.824
X189.83Y-89.82
X190.1Y-114.3
X190.1Y-95.73
X190.11Y-118.95
X190.11Y-106.4
X190.2Y-129.4
X190.2Y-132.6
X190.25Y-96.76
X190.3Y-82.3
X190.35Y-102.4
X190.52Y-109.5
X190.56Y-109.99
X190.575Y-114.805
X190.65Y-81.86
X190.66Y-110.99
X190.68Y-111.95
X190.71Y-96.76
X190.81Y-108.24
X191.0Y-102.3
X191.03Y-108.795
X191.08Y-115.22
X191.11Y-89.96
X191.123Y-85.59
X191.123Y-86.24
X191.16Y-121.19
X191.245Y-113.675
X191.35Y-126.65
X191.35Y-127.65
X191.38Y-109.1
X191.4Y-87.0
X191.4Y-101.4
X191.54Y-120.88
X191.63Y-104.47
X191.64Y-110.98
X191.65Y-107.89
X191.68Y-107.35
X191.73Y-108.5
X191.75Y-89.96
X191.839Y-125.826
X192.0Y-106.46
X192.0Y-109.45
X192.0Y-109.95
X192.02Y-127.29
X192.11Y-102.6
X192.55Y-95.73
X192.56Y-89.92
X192.58Y-89.01
X192.58Y-103.07
X192.58Y-111.465
X192.63Y-114.85
X192.69Y-131.0
X192.7Y-129.4
X192.75Y-107.45
X192.8Y-105.95
X192.8Y-110.45
X192.82Y-100.0
X192.85Y-126.34
X193.02Y-88.53
X193.035Y-112.345
X193.06Y-113.52
X193.08Y-112.93
X193.22Y-89.81
X193.27Y-88.1
X193.49Y-126.34
X193.52Y-95.572
X193.89Y-81.9
X193.9Y-82.5
X193.96Y-101.71
X193.987Y-103.762
X194.14Y-133.74
X194.15Y-129.3
X194.15Y-133.16
X194.278Y-126.537
X194.43Y-121.16
X194.487Y-113.23
X194.49Y-113.79
X194.5Y-96.45
X194.51Y-89.96
X194.51Y-120.71
X194.58Y-118.36
X194.71Y-127.57
X194.83Y-116.55
X194.94Y-126.23
X194.97Y-96.41
X194.988Y-112.638
X195.15Y-84.7
X195.15Y-89.96
X195.392Y-132.503
X195.42Y-127.29
X195.43Y-118.45
X195.45Y-126.182
X195.5Y-96.25
X195.77Y-102.63
X195.96Y-95.572
X195.98Y-89.01
X195.987Y-112.637
X196.198Y-131.0
X196.21Y-100.78
X196.25Y-126.34
X196.25Y-130.0
X196.52Y-130.67
X196.59Y-89.17
X196.63Y-102.59
X196.67Y-86.65
X196.7Y-97.8
X196.74Y-112.637
X196.82Y-133.67
X196.92Y-95.572
X196.93Y-89.83
X196.941Y-86.271
X196.99Y-96.03
X196.99Y-98.23
X197.1Y-132.21
X197.13Y-100.78
X197.15Y-86.8
X197.25Y-84.7
X197.49Y-114.74
X197.49Y-113.78
X197.5Y-131.81
X197.78Y-133.67
X197.86Y-102.52
X197.89Y-99.15
X197.9Y-98.7
X197.94Y-103.03
X197.98Y-132.22
X197.987Y-112.637
X198.07Y-97.9
X198.1Y-127.3
X198.11Y-92.22
X198.22Y-88.6
X198.3Y-99.45
X198.3Y-95.28
X198.32Y-102.53
X198.39Y-103.05
X198.41Y-127.64
X198.5Y-113.8
X198.6Y-89.75
X198.6Y-91.85
X198.655Y-133.35
X198.97Y-101.71
X198.97Y-102.67
X198.98Y-112.637
X198.99Y-113.8
X199.0Y-98.7
X199.18Y-119.31
X199.295Y-133.35
X199.41Y-117.43
X199.55Y-115.93
X199.55Y-130.0
X199.59Y-115.42
X199.59Y-123.22
X199.85Y-120.0
X199.85Y-121.4
X199.88Y-116.24
X199.91Y-115.09
X200.073Y-118.2
X200.145Y-101.39
X200.28Y-102.6
X200.38Y-116.34
X200.42Y-96.39
X200.5Y-94.32
X200.5Y-94.8
X200.5Y-95.4
X200.8Y-112.08
X200.94Y-92.17
X201.15Y-124.35
X201.23Y-89.25
X201.23Y-91.38
X201.4Y-94.103
X201.4Y-132.81
X201.4Y-111.45
X201.415Y-103.585
X201.57Y-85.13
X201.57Y-86.15
X201.675Y-105.45
X201.72Y-90.93
X201.75Y-110.95
X201.81Y-132.52
X202.0Y-122.9
X202.0Y-128.61
X202.0Y-126.71
X202.2Y-103.0
X202.26Y-91.4
X202.42Y-109.48
X202.45Y-113.72
X202.51Y-107.95
X202.63Y-117.07
X202.84Y-101.3
X202.9Y-103.0
X202.91Y-103.89
X202.91Y-104.85
X202.98Y-117.39
X203.27Y-116.42
X203.35Y-100.43
X203.475Y-111.55
X203.84Y-105.74
X203.84Y-106.66
X203.9Y-109.0
X204.0Y-109.9
X204.0Y-110.4
X204.03Y-88.89
X204.32Y-109.49
X204.6Y-107.7
X204.61Y-107.24
X204.63Y-106.78
X204.8Y-126.987
X204.915Y-110.25
X204.915Y-109.23
X205.025Y-111.55
X205.15Y-102.26
X205.16Y-100.41
X205.35Y-123.877
X205.4Y-122.6
X205.4Y-126.2
X205.45Y-112.777
X205.45Y-96.75
X205.45Y-115.777
X205.45Y-117.277
X205.46Y-108.57
X205.55Y-120.15
X205.625Y-121.215
X205.7Y-95.95
X205.8Y-97.25
X205.89Y-90.54
X205.9Y-96.8
X206.0Y-125.8
X206.11Y-95.68
X206.44Y-113.71
X206.48Y-125.76
X206.5Y-125.3
X206.55Y-112.3
X206.67Y-113.23
X206.675Y-117.387
X206.85Y-104.1
X207.253Y-100.35
X207.59Y-100.94
X207.69Y-117.01
X207.73Y-102.78
X207.75Y-96.97
X207.75Y-118.16
X207.75Y-120.7
X207.75Y-95.7
X207.75Y-121.97
X207.77Y-103.24
X208.4Y-93.16
X208.65Y-101.28
X209.0Y-104.1
T2
X124.2Y-134.275
X125.1Y-112.5
X125.8Y-125.412
X126.5Y-130.4
X127.1Y-125.04
X127.975Y-113.0
X128.6Y-100.75
X128.8Y-134.275
X128.96Y-104.11
X129.0Y-111.4
X130.325Y-107.962
X136.9Y-108.2
X136.9Y-113.6
X137.6Y-118.3
X140.5Y-116.7
X149.4Y-101.3
X166.2Y-117.0
X166.2Y-124.27
X175.964Y-90.571
X194.12Y-110.69
X194.2Y-105.1
X195.8Y-105.1
X196.025Y-90.426
X198.5Y-119.8
X198.9Y-111.4
X199.9Y-116.9
X200.3Y-111.2
X200.4Y-106.0
X200.4Y-107.9
X200.4Y-109.5
X202.625Y-99.9
T3
X140.07Y-133.99
T5
X124.8Y-83.916
X126.3Y-82.066
X127.8Y-83.916
T6
X207.8Y-106.935
X207.8Y-109.475
T7
X119.8Y-85.2
X119.8Y-131.2
X205.8Y-85.2
X205.8Y-131.2
T4
G00X118.7Y-103.88
M15
G01X118.1Y-103.88
M16
G05
G00X118.7Y-112.52
M15
G01X118.1Y-112.52
M16
G05
G00X123.13Y-103.88
M15
G01X122.03Y-103.88
M16
G05
G00X123.13Y-112.52
M15
G01X122.03Y-112.52
M16
G05
M30
