G04 #@! TF.GenerationSoftware,KiCad,Pcbnew,10.0.5+dfsg-1*
G04 #@! TF.CreationDate,2026-09-25T10:13:48+00:00*
G04 #@! TF.ProjectId,glasgow,676c6173-676f-4772-9e6b-696361645f70,rev?*
G04 #@! TF.SameCoordinates,Original*
G04 #@! TF.FileFunction,Other,User*
%FSLAX46Y46*%
G04 Gerber Fmt 4.6, Leading zero omitted, Abs format (unit mm)*
G04 Created by KiCad (PCBNEW 10.0.5+dfsg-1) date 2026-09-25 10:13:48*
%MOMM*%
%LPD*%
G01*
G04 APERTURE LIST*
%ADD10C,0.050000*%
%ADD11C,0.120000*%
G04 #@! TA.AperFunction,Profile*
%ADD12C,0.050000*%
G04 #@! TD*
G04 APERTURE END LIST*
G04 #@! TO.C,D80*
D10*
X204070001Y-88720001D02*
X205530001Y-88720001D01*
X205530001Y-91680001D01*
X204070001Y-91680001D01*
X204070001Y-88720001D01*
G04 #@! TO.C,R23*
X130330000Y-109070000D02*
X131270000Y-109070000D01*
X131270000Y-110930000D01*
X130330000Y-110930000D01*
X130330000Y-109070000D01*
G04 #@! TO.C,R28*
X196812501Y-116835000D02*
X198672501Y-116835000D01*
X198672501Y-117775000D01*
X196812501Y-117775000D01*
X196812501Y-116835000D01*
G04 #@! TO.C,TP28*
X181675000Y-99450000D02*
G75*
G02*
X180675000Y-99450000I-500000J0D01*
G01*
X180675000Y-99450000D02*
G75*
G02*
X181675000Y-99450000I500000J0D01*
G01*
G04 #@! TO.C,C46*
X193499999Y-101280000D02*
X194419999Y-101280000D01*
X194419999Y-103100000D01*
X193499999Y-103100000D01*
X193499999Y-101280000D01*
G04 #@! TO.C,C16*
X129619999Y-107232500D02*
X132579999Y-107232500D01*
X132579999Y-108692500D01*
X129619999Y-108692500D01*
X129619999Y-107232500D01*
G04 #@! TO.C,FB1*
X125719999Y-110770001D02*
X128679999Y-110770001D01*
X128679999Y-112230001D01*
X125719999Y-112230001D01*
X125719999Y-110770001D01*
G04 #@! TO.C,U8*
X156275000Y-100210000D02*
X156275000Y-116210000D01*
X156275000Y-100210000D02*
X172275000Y-100210000D01*
X172275000Y-116210000D02*
X156275000Y-116210000D01*
X172275000Y-116210000D02*
X172275000Y-100210000D01*
G04 #@! TO.C,C18*
X125719999Y-113770000D02*
X128679999Y-113770000D01*
X128679999Y-115230000D01*
X125719999Y-115230000D01*
X125719999Y-113770000D01*
G04 #@! TO.C,C43*
X189680002Y-105940000D02*
X191500002Y-105940000D01*
X191500002Y-106860000D01*
X189680002Y-106860000D01*
X189680002Y-105940000D01*
G04 #@! TO.C,C37*
X196604000Y-100350000D02*
X197524000Y-100350000D01*
X197524000Y-102170000D01*
X196604000Y-102170000D01*
X196604000Y-100350000D01*
G04 #@! TO.C,Q1*
X206194001Y-99800000D02*
X207224001Y-99800000D01*
X206194001Y-100910000D02*
X206194001Y-99800000D01*
X206194001Y-101690000D02*
X207224001Y-101690000D01*
X206194001Y-102800000D02*
X206194001Y-101690000D01*
X207224001Y-99600000D02*
X209024001Y-99600000D01*
X207224001Y-99800000D02*
X207224001Y-99600000D01*
X207224001Y-100910000D02*
X206194001Y-100910000D01*
X207224001Y-101690000D02*
X207224001Y-100910000D01*
X207224001Y-102800000D02*
X206194001Y-102800000D01*
X207224001Y-103000000D02*
X207224001Y-102800000D01*
X209024001Y-99600000D02*
X209024001Y-100750000D01*
X209024001Y-100750000D02*
X210054001Y-100750000D01*
X209024001Y-101850000D02*
X209024001Y-103000000D01*
X209024001Y-103000000D02*
X207224001Y-103000000D01*
X210054001Y-100750000D02*
X210054001Y-101850000D01*
X210054001Y-101850000D02*
X209024001Y-101850000D01*
G04 #@! TO.C,U12*
X172275001Y-108210000D02*
X182275001Y-108210000D01*
X182275001Y-116210000D01*
X172275001Y-116210000D01*
X172275001Y-108210000D01*
G04 #@! TO.C,C13*
X125719999Y-112270001D02*
X128679999Y-112270001D01*
X128679999Y-113730001D01*
X125719999Y-113730001D01*
X125719999Y-112270001D01*
G04 #@! TO.C,D14*
X196197500Y-117910000D02*
X199157500Y-117910000D01*
X199157500Y-119370000D01*
X196197500Y-119370000D01*
X196197500Y-117910000D01*
G04 #@! TO.C,U11*
X172275000Y-100210000D02*
X182275000Y-100210000D01*
X182275000Y-108210000D01*
X172275000Y-108210000D01*
X172275000Y-100210000D01*
G04 #@! TO.C,C21*
X132339999Y-110690000D02*
X133259999Y-110690000D01*
X133259999Y-112510000D01*
X132339999Y-112510000D01*
X132339999Y-110690000D01*
G04 #@! TO.C,C29*
X191170000Y-104040000D02*
X192090000Y-104040000D01*
X192090000Y-105860000D01*
X191170000Y-105860000D01*
X191170000Y-104040000D01*
G04 #@! TO.C,SW1*
X123800000Y-81816000D02*
X128800000Y-81816000D01*
X123800000Y-85116000D02*
X123800000Y-81816000D01*
X128800000Y-81816000D02*
X128800000Y-85116000D01*
X128800000Y-85116000D02*
X123800000Y-85116000D01*
G04 #@! TO.C,D28*
X118520000Y-114070000D02*
X121480000Y-114070000D01*
X121480000Y-115530000D01*
X118520000Y-115530000D01*
X118520000Y-114070000D01*
G04 #@! TO.C,D1*
X118520000Y-100870000D02*
X121480000Y-100870000D01*
X121480000Y-102330000D01*
X118520000Y-102330000D01*
X118520000Y-100870000D01*
G04 #@! TO.C,R25*
X131430000Y-113670001D02*
X132370000Y-113670001D01*
X132370000Y-115530001D01*
X131430000Y-115530001D01*
X131430000Y-113670001D01*
G04 #@! TO.C,H1*
X123250000Y-85200000D02*
G75*
G02*
X116350000Y-85200000I-3450000J0D01*
G01*
X116350000Y-85200000D02*
G75*
G02*
X123250000Y-85200000I3450000J0D01*
G01*
G04 #@! TO.C,J3*
X206029999Y-105155000D02*
X209569999Y-105155000D01*
X209569999Y-111245000D01*
X206029999Y-111245000D01*
X206029999Y-105155000D01*
G04 #@! TO.C,D60*
X125070000Y-124720000D02*
X126530000Y-124720000D01*
X126530000Y-127680000D01*
X125070000Y-127680000D01*
X125070000Y-124720000D01*
G04 #@! TO.C,D5*
X118520000Y-90070000D02*
X121480000Y-90070000D01*
X121480000Y-91530000D01*
X118520000Y-91530000D01*
X118520000Y-90070000D01*
G04 #@! TO.C,D8*
X125937499Y-105699999D02*
X128437499Y-105699999D01*
X125937499Y-107099999D02*
X125937499Y-105699999D01*
X128437499Y-105699999D02*
X128437499Y-107099999D01*
X128437499Y-107099999D02*
X125937499Y-107099999D01*
G04 #@! TO.C,D31*
X199719999Y-98710001D02*
X201119999Y-98710001D01*
X201119999Y-99410001D01*
X199719999Y-99410001D01*
X199719999Y-98710001D01*
G04 #@! TO.C,H4*
X209250000Y-131200000D02*
G75*
G02*
X202350000Y-131200000I-3450000J0D01*
G01*
X202350000Y-131200000D02*
G75*
G02*
X209250000Y-131200000I3450000J0D01*
G01*
G04 #@! TO.C,R74*
X186740000Y-113192499D02*
X188600000Y-113192499D01*
X188600000Y-114132499D01*
X186740000Y-114132499D01*
X186740000Y-113192499D01*
G04 #@! TO.C,D23*
X206000000Y-111350000D02*
X206000000Y-113250000D01*
X206000000Y-111350000D02*
X209200000Y-111350000D01*
X206000000Y-113250000D02*
X209200000Y-113250000D01*
X209200000Y-111350000D02*
X209200000Y-113250000D01*
G04 #@! TO.C,U7*
X192137501Y-104070001D02*
X192487501Y-104070001D01*
X192137501Y-112330001D02*
X192137501Y-104070001D01*
X192487501Y-103450001D02*
X193107501Y-103450001D01*
X192487501Y-104070001D02*
X192487501Y-103450001D01*
X192487501Y-112330001D02*
X192137501Y-112330001D01*
X192487501Y-112950001D02*
X192487501Y-112330001D01*
X193107501Y-103100001D02*
X201367501Y-103100001D01*
X193107501Y-103450001D02*
X193107501Y-103100001D01*
X193107501Y-112950001D02*
X192487501Y-112950001D01*
X193107501Y-113300001D02*
X193107501Y-112950001D01*
X201367501Y-103100001D02*
X201367501Y-103450001D01*
X201367501Y-103450001D02*
X201987501Y-103450001D01*
X201367501Y-112950001D02*
X201367501Y-113300001D01*
X201367501Y-113300001D02*
X193107501Y-113300001D01*
X201987501Y-103450001D02*
X201987501Y-104070001D01*
X201987501Y-104070001D02*
X202337501Y-104070001D01*
X201987501Y-112330001D02*
X201987501Y-112950001D01*
X201987501Y-112950001D02*
X201367501Y-112950001D01*
X202337501Y-104070001D02*
X202337501Y-112330001D01*
X202337501Y-112330001D02*
X201987501Y-112330001D01*
G04 #@! TO.C,J11*
X183900000Y-99200000D02*
X183900000Y-104200000D01*
X183900000Y-104200000D02*
X188900000Y-104200000D01*
X188900000Y-99200000D02*
X183900000Y-99200000D01*
X188900000Y-104200000D02*
X188900000Y-99200000D01*
G04 #@! TO.C,R46*
X123930000Y-118470000D02*
X124870000Y-118470000D01*
X124870000Y-120330000D01*
X123930000Y-120330000D01*
X123930000Y-118470000D01*
G04 #@! TO.C,D27*
X118520000Y-116770000D02*
X121480000Y-116770000D01*
X121480000Y-118230000D01*
X118520000Y-118230000D01*
X118520000Y-116770000D01*
G04 #@! TO.C,C14*
X125989999Y-104740000D02*
X127809999Y-104740000D01*
X127809999Y-105660000D01*
X125989999Y-105660000D01*
X125989999Y-104740000D01*
G04 #@! TO.C,R12*
X201100000Y-84710001D02*
X202040000Y-84710001D01*
X202040000Y-86570001D01*
X201100000Y-86570001D01*
X201100000Y-84710001D01*
G04 #@! TO.C,C100*
X188340001Y-117112500D02*
X189260001Y-117112500D01*
X189260001Y-118932500D01*
X188340001Y-118932500D01*
X188340001Y-117112500D01*
G04 #@! TO.C,C31*
X190250001Y-110520000D02*
X192070001Y-110520000D01*
X192070001Y-111440000D01*
X190250001Y-111440000D01*
X190250001Y-110520000D01*
G04 #@! TO.C,R53*
X201630000Y-89070000D02*
X202570000Y-89070000D01*
X202570000Y-90930000D01*
X201630000Y-90930000D01*
X201630000Y-89070000D01*
G04 #@! TO.C,D24*
X118520000Y-124870000D02*
X121480000Y-124870000D01*
X121480000Y-126330000D01*
X118520000Y-126330000D01*
X118520000Y-124870000D01*
G04 #@! TO.C,R47*
X127900000Y-122220000D02*
X129760000Y-122220000D01*
X129760000Y-123160000D01*
X127900000Y-123160000D01*
X127900000Y-122220000D01*
G04 #@! TO.C,D13*
X200809999Y-122807501D02*
X201509999Y-122807501D01*
X201509999Y-124207501D01*
X200809999Y-124207501D01*
X200809999Y-122807501D01*
G04 #@! TO.C,R34*
X204199999Y-113350000D02*
X204199999Y-115650000D01*
X204199999Y-113350000D02*
X209199999Y-113350000D01*
X209199999Y-115650000D02*
X204199999Y-115650000D01*
X209199999Y-115650000D02*
X209199999Y-113350000D01*
G04 #@! TO.C,C25*
X202450000Y-103460001D02*
X203370000Y-103460001D01*
X203370000Y-105280001D01*
X202450000Y-105280001D01*
X202450000Y-103460001D01*
G04 #@! TO.C,C5*
X144778786Y-105129326D02*
X143491852Y-103842392D01*
X144142390Y-103191854D01*
X145429324Y-104478788D01*
X144778786Y-105129326D01*
G04 #@! TO.C,C45*
X190250001Y-111490001D02*
X192070001Y-111490001D01*
X192070001Y-112410001D01*
X190250001Y-112410001D01*
X190250001Y-111490001D01*
G04 #@! TO.C,C33*
X199764001Y-102120000D02*
X201584001Y-102120000D01*
X201584001Y-103040000D01*
X199764001Y-103040000D01*
X199764001Y-102120000D01*
G04 #@! TO.C,C42*
X194419999Y-101280000D02*
X195339999Y-101280000D01*
X195339999Y-103100000D01*
X194419999Y-103100000D01*
X194419999Y-101280000D01*
G04 #@! TO.C,R69*
X194039999Y-117949999D02*
X195899999Y-117949999D01*
X195899999Y-118889999D01*
X194039999Y-118889999D01*
X194039999Y-117949999D01*
G04 #@! TO.C,D33*
X199277488Y-96002462D02*
X198287539Y-95012513D01*
X198782514Y-94517538D01*
X199772463Y-95507487D01*
X199277488Y-96002462D01*
G04 #@! TO.C,C26*
X195340000Y-102170000D02*
X197160000Y-102170000D01*
X197160000Y-103090000D01*
X195340000Y-103090000D01*
X195340000Y-102170000D01*
G04 #@! TO.C,NT12*
X133620000Y-115330001D02*
X135480000Y-115330001D01*
X135480000Y-116270001D01*
X133620000Y-116270001D01*
X133620000Y-115330001D01*
G04 #@! TO.C,C24*
X198443999Y-101280000D02*
X199363999Y-101280000D01*
X199363999Y-103100000D01*
X198443999Y-103100000D01*
X198443999Y-101280000D01*
G04 #@! TO.C,C10*
X134321212Y-100770675D02*
X135608146Y-102057609D01*
X134957608Y-102708147D01*
X133670674Y-101421213D01*
X134321212Y-100770675D01*
G04 #@! TO.C,R126*
X127630000Y-124620000D02*
X128570000Y-124620000D01*
X128570000Y-126480000D01*
X127630000Y-126480000D01*
X127630000Y-124620000D01*
G04 #@! TO.C,TP11*
X175675000Y-99450000D02*
G75*
G02*
X174675000Y-99450000I-500000J0D01*
G01*
X174675000Y-99450000D02*
G75*
G02*
X175675000Y-99450000I500000J0D01*
G01*
G04 #@! TO.C,TP2*
X207850001Y-104100000D02*
G75*
G02*
X205850001Y-104100000I-1000000J0D01*
G01*
X205850001Y-104100000D02*
G75*
G02*
X207850001Y-104100000I1000000J0D01*
G01*
G04 #@! TO.C,R10*
X127630000Y-88370000D02*
X128570000Y-88370000D01*
X128570000Y-90230000D01*
X127630000Y-90230000D01*
X127630000Y-88370000D01*
G04 #@! TO.C,U10*
X125262499Y-120657500D02*
X125432499Y-120657500D01*
X125262499Y-122117500D02*
X125262499Y-120657500D01*
X125432499Y-119937500D02*
X127292499Y-119937500D01*
X125432499Y-120657500D02*
X125432499Y-119937500D01*
X125432499Y-122117500D02*
X125262499Y-122117500D01*
X125432499Y-122837500D02*
X125432499Y-122117500D01*
X127292499Y-119937500D02*
X127292499Y-120657500D01*
X127292499Y-120657500D02*
X127462499Y-120657500D01*
X127292499Y-122117500D02*
X127292499Y-122837500D01*
X127292499Y-122837500D02*
X125432499Y-122837500D01*
X127462499Y-120657500D02*
X127462499Y-122117500D01*
X127462499Y-122117500D02*
X127292499Y-122117500D01*
G04 #@! TO.C,U4*
X128487499Y-104419999D02*
X128837499Y-104419999D01*
X128487499Y-106179999D02*
X128487499Y-104419999D01*
X128837499Y-103799999D02*
X129207499Y-103799999D01*
X128837499Y-104419999D02*
X128837499Y-103799999D01*
X128837499Y-106179999D02*
X128487499Y-106179999D01*
X128837499Y-106799999D02*
X128837499Y-106179999D01*
X129207499Y-103449999D02*
X131467499Y-103449999D01*
X129207499Y-103799999D02*
X129207499Y-103449999D01*
X129207499Y-106799999D02*
X128837499Y-106799999D01*
X129207499Y-107149999D02*
X129207499Y-106799999D01*
X131467499Y-103449999D02*
X131467499Y-103799999D01*
X131467499Y-103799999D02*
X131837499Y-103799999D01*
X131467499Y-106799999D02*
X131467499Y-107149999D01*
X131467499Y-107149999D02*
X129207499Y-107149999D01*
X131837499Y-103799999D02*
X131837499Y-104419999D01*
X131837499Y-104419999D02*
X132187499Y-104419999D01*
X131837499Y-106179999D02*
X131837499Y-106799999D01*
X131837499Y-106799999D02*
X131467499Y-106799999D01*
X132187499Y-104419999D02*
X132187499Y-106179999D01*
X132187499Y-106179999D02*
X131837499Y-106179999D01*
G04 #@! TO.C,R11*
X126630000Y-124620000D02*
X127570000Y-124620000D01*
X127570000Y-126480000D01*
X126630000Y-126480000D01*
X126630000Y-124620000D01*
G04 #@! TO.C,C41*
X202449999Y-105279999D02*
X204269999Y-105279999D01*
X204269999Y-106199999D01*
X202449999Y-106199999D01*
X202449999Y-105279999D01*
G04 #@! TO.C,R49*
X199120000Y-97450001D02*
X200980000Y-97450001D01*
X200980000Y-98390001D01*
X199120000Y-98390001D01*
X199120000Y-97450001D01*
G04 #@! TO.C,TP1*
X209999999Y-104100000D02*
G75*
G02*
X207999999Y-104100000I-1000000J0D01*
G01*
X207999999Y-104100000D02*
G75*
G02*
X209999999Y-104100000I1000000J0D01*
G01*
G04 #@! TO.C,C36*
X190620000Y-114790000D02*
X191540000Y-114790000D01*
X191540000Y-116610000D01*
X190620000Y-116610000D01*
X190620000Y-114790000D01*
G04 #@! TO.C,C32*
X197029999Y-113350001D02*
X197949999Y-113350001D01*
X197949999Y-115170001D01*
X197029999Y-115170001D01*
X197029999Y-113350001D01*
G04 #@! TO.C,R83*
X165729999Y-121980000D02*
X166669999Y-121980000D01*
X166669999Y-123840000D01*
X165729999Y-123840000D01*
X165729999Y-121980000D01*
G04 #@! TO.C,TP9*
X178074999Y-99450000D02*
G75*
G02*
X177074999Y-99450000I-500000J0D01*
G01*
X177074999Y-99450000D02*
G75*
G02*
X178074999Y-99450000I500000J0D01*
G01*
G04 #@! TO.C,J8*
X129790000Y-122220000D02*
X129790000Y-132180000D01*
X129790000Y-132180000D02*
X134360000Y-132180000D01*
X134360000Y-120400000D02*
X134360000Y-122220000D01*
X134360000Y-122220000D02*
X129790000Y-122220000D01*
X134360000Y-132180000D02*
X134360000Y-134000000D01*
X134360000Y-134000000D02*
X159240000Y-134000000D01*
X159240000Y-120400000D02*
X134360000Y-120400000D01*
X159240000Y-122220000D02*
X159240000Y-120400000D01*
X159240000Y-132180000D02*
X163810000Y-132180000D01*
X159240000Y-134000000D02*
X159240000Y-132180000D01*
X163810000Y-122220000D02*
X159240000Y-122220000D01*
X163810000Y-132180000D02*
X163810000Y-122220000D01*
G04 #@! TO.C,D2*
X118520000Y-98170000D02*
X121480000Y-98170000D01*
X121480000Y-99630000D01*
X118520000Y-99630000D01*
X118520000Y-98170000D01*
G04 #@! TO.C,D6*
X126269999Y-107230001D02*
X128129999Y-107230001D01*
X128129999Y-108170001D01*
X126269999Y-108170001D01*
X126269999Y-107230001D01*
G04 #@! TO.C,R7*
X144030000Y-99770000D02*
X144970000Y-99770000D01*
X144970000Y-101630000D01*
X144030000Y-101630000D01*
X144030000Y-99770000D01*
G04 #@! TO.C,H5*
X189550000Y-108200000D02*
G75*
G02*
X183050000Y-108200000I-3250000J0D01*
G01*
X183050000Y-108200000D02*
G75*
G02*
X189550000Y-108200000I3250000J0D01*
G01*
G04 #@! TO.C,C121*
X165739999Y-123840000D02*
X166659999Y-123840000D01*
X166659999Y-125660000D01*
X165739999Y-125660000D01*
X165739999Y-123840000D01*
G04 #@! TO.C,C11*
X138568198Y-98968735D02*
X137281264Y-97681801D01*
X137931802Y-97031263D01*
X139218736Y-98318197D01*
X138568198Y-98968735D01*
G04 #@! TO.C,C70*
X127550000Y-120399999D02*
X128470000Y-120399999D01*
X128470000Y-122219999D01*
X127550000Y-122219999D01*
X127550000Y-120399999D01*
G04 #@! TO.C,J9*
X166790000Y-84120001D02*
X166790000Y-94080001D01*
X166790000Y-94080001D02*
X171360000Y-94080001D01*
X171360000Y-82300001D02*
X171360000Y-84120001D01*
X171360000Y-84120001D02*
X166790000Y-84120001D01*
X171360000Y-94080001D02*
X171360000Y-95900001D01*
X171360000Y-95900001D02*
X196240000Y-95900001D01*
X196240000Y-82300001D02*
X171360000Y-82300001D01*
X196240000Y-84120001D02*
X196240000Y-82300001D01*
X196240000Y-94080001D02*
X200810000Y-94080001D01*
X196240000Y-95900001D02*
X196240000Y-94080001D01*
X200810000Y-84120001D02*
X196240000Y-84120001D01*
X200810000Y-94080001D02*
X200810000Y-84120001D01*
G04 #@! TO.C,C2*
X139540000Y-99390001D02*
X140460000Y-99390001D01*
X140460000Y-101210001D01*
X139540000Y-101210001D01*
X139540000Y-99390001D01*
G04 #@! TO.C,H3*
X209250000Y-85200000D02*
G75*
G02*
X202350000Y-85200000I-3450000J0D01*
G01*
X202350000Y-85200000D02*
G75*
G02*
X209250000Y-85200000I3450000J0D01*
G01*
G04 #@! TO.C,R21*
X201530000Y-127170001D02*
X202470000Y-127170001D01*
X202470000Y-129030001D01*
X201530000Y-129030001D01*
X201530000Y-127170001D01*
G04 #@! TO.C,R72*
X134200000Y-116470000D02*
X135140000Y-116470000D01*
X135140000Y-118330000D01*
X134200000Y-118330000D01*
X134200000Y-116470000D01*
G04 #@! TO.C,C30*
X202770000Y-110820000D02*
X205730000Y-110820000D01*
X205730000Y-112280000D01*
X202770000Y-112280000D01*
X202770000Y-110820000D01*
G04 #@! TO.C,Q2*
X202334000Y-100750000D02*
X203364000Y-100750000D01*
X202334000Y-101850000D02*
X202334000Y-100750000D01*
X203364000Y-99600000D02*
X205164000Y-99600000D01*
X203364000Y-100750000D02*
X203364000Y-99600000D01*
X203364000Y-101850000D02*
X202334000Y-101850000D01*
X203364000Y-103000000D02*
X203364000Y-101850000D01*
X205164000Y-99600000D02*
X205164000Y-99800000D01*
X205164000Y-99800000D02*
X206194000Y-99800000D01*
X205164000Y-100910000D02*
X205164000Y-101690000D01*
X205164000Y-101690000D02*
X206194000Y-101690000D01*
X205164000Y-102800000D02*
X205164000Y-103000000D01*
X205164000Y-103000000D02*
X203364000Y-103000000D01*
X206194000Y-99800000D02*
X206194000Y-100910000D01*
X206194000Y-100910000D02*
X205164000Y-100910000D01*
X206194000Y-101690000D02*
X206194000Y-102800000D01*
X206194000Y-102800000D02*
X205164000Y-102800000D01*
G04 #@! TO.C,J12*
X173450000Y-116205000D02*
X175450000Y-116205000D01*
X175450000Y-119205000D01*
X173450000Y-119205000D01*
X173450000Y-116205000D01*
G04 #@! TO.C,U5*
D11*
X129699999Y-111099999D02*
X132099999Y-111099999D01*
X129699999Y-113499999D02*
X129699999Y-111099999D01*
X132099999Y-111099999D02*
X132099999Y-113499999D01*
X132099999Y-113499999D02*
X129699999Y-113499999D01*
G04 #@! TO.C,C35*
D10*
X197524000Y-100350001D02*
X198444000Y-100350001D01*
X198444000Y-102170001D01*
X197524000Y-102170001D01*
X197524000Y-100350001D01*
G04 #@! TO.C,H2*
X123250000Y-131200000D02*
G75*
G02*
X116350000Y-131200000I-3450000J0D01*
G01*
X116350000Y-131200000D02*
G75*
G02*
X123250000Y-131200000I3450000J0D01*
G01*
G04 #@! TO.C,C12*
X192390000Y-99540000D02*
X194210000Y-99540000D01*
X194210000Y-100460000D01*
X192390000Y-100460000D01*
X192390000Y-99540000D01*
G04 #@! TO.C,C17*
X132310000Y-103590000D02*
X133230000Y-103590000D01*
X133230000Y-105410000D01*
X132310000Y-105410000D01*
X132310000Y-103590000D01*
G04 #@! TO.C,R168*
X201100000Y-86710000D02*
X202040000Y-86710000D01*
X202040000Y-88570000D01*
X201100000Y-88570000D01*
X201100000Y-86710000D01*
G04 #@! TO.C,D7*
X126269999Y-108230001D02*
X128129999Y-108230001D01*
X128129999Y-109170001D01*
X126269999Y-109170001D01*
X126269999Y-108230001D01*
G04 #@! TO.C,D32*
X123440000Y-122900000D02*
X124840000Y-122900000D01*
X124840000Y-123600000D01*
X123440000Y-123600000D01*
X123440000Y-122900000D01*
G04 #@! TO.C,J5*
X201510000Y-92020000D02*
X210090000Y-92020000D01*
X210090000Y-99380000D01*
X201510000Y-99380000D01*
X201510000Y-92020000D01*
G04 #@! TO.C,J2*
X201509999Y-117019999D02*
X210089999Y-117019999D01*
X210089999Y-124379999D01*
X201509999Y-124379999D01*
X201509999Y-117019999D01*
G04 #@! TO.C,D30*
X199770000Y-96520000D02*
X201170000Y-96520000D01*
X201170000Y-97220000D01*
X199770000Y-97220000D01*
X199770000Y-96520000D01*
G04 #@! TO.C,C95*
X129077501Y-116452499D02*
X129997501Y-116452499D01*
X129997501Y-118272499D01*
X129077501Y-118272499D01*
X129077501Y-116452499D01*
G04 #@! TO.C,C51*
X204180000Y-112430000D02*
X206000000Y-112430000D01*
X206000000Y-113350000D01*
X204180000Y-113350000D01*
X204180000Y-112430000D01*
G04 #@! TO.C,D11*
X201070001Y-116240000D02*
X202470001Y-116240000D01*
X202470001Y-116940000D01*
X201070001Y-116940000D01*
X201070001Y-116240000D01*
G04 #@! TO.C,C22*
X133350000Y-107350000D02*
X135850000Y-107350000D01*
X133350000Y-113300000D02*
X133350000Y-107350000D01*
X134500000Y-114450000D02*
X133350000Y-113300000D01*
X134500000Y-114450000D02*
X135850000Y-114450000D01*
X135850000Y-106200000D02*
X137950000Y-106200000D01*
X135850000Y-107350000D02*
X135850000Y-106200000D01*
X135850000Y-114450000D02*
X135850000Y-115600000D01*
X135850000Y-115600000D02*
X137950000Y-115600000D01*
X137950000Y-106200000D02*
X137950000Y-107350000D01*
X137950000Y-107350000D02*
X140450000Y-107350000D01*
X137950000Y-114450000D02*
X139300000Y-114450000D01*
X137950000Y-115600000D02*
X137950000Y-114450000D01*
X139300000Y-114450000D02*
X140450000Y-113300000D01*
X140450000Y-113300000D02*
X140450000Y-107350000D01*
G04 #@! TO.C,C9*
X140519999Y-109520000D02*
X141439999Y-109520000D01*
X141439999Y-111340000D01*
X140519999Y-111340000D01*
X140519999Y-109520000D01*
G04 #@! TO.C,U20*
X130087500Y-116349999D02*
X131087500Y-116349999D01*
X130087500Y-119349999D02*
X130087500Y-116349999D01*
X131087500Y-116149999D02*
X133187500Y-116149999D01*
X131087500Y-116349999D02*
X131087500Y-116149999D01*
X131087500Y-119349999D02*
X130087500Y-119349999D01*
X131087500Y-119549999D02*
X131087500Y-119349999D01*
X133187500Y-116149999D02*
X133187500Y-116349999D01*
X133187500Y-116349999D02*
X134187500Y-116349999D01*
X133187500Y-119349999D02*
X133187500Y-119549999D01*
X133187500Y-119549999D02*
X131087500Y-119549999D01*
X134187500Y-116349999D02*
X134187500Y-119349999D01*
X134187500Y-119349999D02*
X133187500Y-119349999D01*
G04 #@! TO.C,J6*
X145699999Y-99100001D02*
X145699999Y-117300001D01*
X147499999Y-98400001D02*
X150099999Y-98400001D01*
X147499999Y-99100001D02*
X145699999Y-99100001D01*
X147499999Y-99100001D02*
X147499999Y-98400001D01*
X147499999Y-117300001D02*
X145699999Y-117300001D01*
X147499999Y-117300001D02*
X147499999Y-118000001D01*
X147499999Y-118000001D02*
X150099999Y-118000001D01*
X150099999Y-99100001D02*
X150099999Y-98400001D01*
X150099999Y-117300001D02*
X150099999Y-118000001D01*
X150099999Y-117300001D02*
X151899999Y-117300001D01*
X151899999Y-99100001D02*
X150099999Y-99100001D01*
X151899999Y-117300001D02*
X151899999Y-99100001D01*
G04 #@! TO.C,J1*
X115299999Y-102880001D02*
X115299999Y-113520001D01*
X124719999Y-102880001D02*
X115299999Y-102880001D01*
X124719999Y-102880001D02*
X124719999Y-113520001D01*
X124719999Y-113520001D02*
X115299999Y-113520001D01*
G04 #@! TO.C,J7*
X129790000Y-84120001D02*
X129790000Y-94080001D01*
X129790000Y-94080001D02*
X134360000Y-94080001D01*
X134360000Y-82300001D02*
X134360000Y-84120001D01*
X134360000Y-84120001D02*
X129790000Y-84120001D01*
X134360000Y-94080001D02*
X134360000Y-95900001D01*
X134360000Y-95900001D02*
X159240000Y-95900001D01*
X159240000Y-82300001D02*
X134360000Y-82300001D01*
X159240000Y-84120001D02*
X159240000Y-82300001D01*
X159240000Y-94080001D02*
X163810000Y-94080001D01*
X159240000Y-95900001D02*
X159240000Y-94080001D01*
X163810000Y-84120001D02*
X159240000Y-84120001D01*
X163810000Y-94080001D02*
X163810000Y-84120001D01*
G04 #@! TO.C,C15*
X128240001Y-107290001D02*
X129160001Y-107290001D01*
X129160001Y-109110001D01*
X128240001Y-109110001D01*
X128240001Y-107290001D01*
G04 #@! TO.C,C103*
X184660000Y-118092499D02*
X186480000Y-118092499D01*
X186480000Y-119012499D01*
X184660000Y-119012499D01*
X184660000Y-118092499D01*
G04 #@! TO.C,D9*
X125937501Y-109300000D02*
X128437501Y-109300000D01*
X125937501Y-110700000D02*
X125937501Y-109300000D01*
X128437501Y-109300000D02*
X128437501Y-110700000D01*
X128437501Y-110700000D02*
X125937501Y-110700000D01*
G04 #@! TO.C,R252*
X129520000Y-114730000D02*
X131380000Y-114730000D01*
X131380000Y-115670000D01*
X129520000Y-115670000D01*
X129520000Y-114730000D01*
G04 #@! TO.C,R50*
X123399999Y-121910000D02*
X125259999Y-121910000D01*
X125259999Y-122850000D01*
X123399999Y-122850000D01*
X123399999Y-121910000D01*
G04 #@! TO.C,R51*
X199320000Y-99720000D02*
X201180000Y-99720000D01*
X201180000Y-100660000D01*
X199320000Y-100660000D01*
X199320000Y-99720000D01*
G04 #@! TO.C,D40*
X125069999Y-88720001D02*
X126529999Y-88720001D01*
X126529999Y-91680001D01*
X125069999Y-91680001D01*
X125069999Y-88720001D01*
G04 #@! TO.C,C20*
X129339999Y-109090000D02*
X130259999Y-109090000D01*
X130259999Y-110910000D01*
X129339999Y-110910000D01*
X129339999Y-109090000D01*
G04 #@! TO.C,U3*
X192550000Y-97550001D02*
X192670000Y-97550001D01*
X192550000Y-99050001D02*
X192550000Y-97550001D01*
X192670000Y-97100001D02*
X194330000Y-97100001D01*
X192670000Y-97550001D02*
X192670000Y-97100001D01*
X192670000Y-99050001D02*
X192550000Y-99050001D01*
X192670000Y-99500001D02*
X192670000Y-99050001D01*
X194330000Y-97100001D02*
X194330000Y-97550001D01*
X194330000Y-97550001D02*
X194450000Y-97550001D01*
X194330000Y-99050001D02*
X194330000Y-99500001D01*
X194330000Y-99500001D02*
X192670000Y-99500001D01*
X194450000Y-97550001D02*
X194450000Y-99050001D01*
X194450000Y-99050001D02*
X194330000Y-99050001D01*
G04 #@! TO.C,Y1*
X139122361Y-99552514D02*
X136152513Y-102522362D01*
X133677639Y-100047488D01*
X136647487Y-97077640D01*
X139122361Y-99552514D01*
G04 #@! TO.C,TP7*
X180475000Y-99450000D02*
G75*
G02*
X179475000Y-99450000I-500000J0D01*
G01*
X179475000Y-99450000D02*
G75*
G02*
X180475000Y-99450000I500000J0D01*
G01*
G04 #@! TO.C,R84*
X126630000Y-88370000D02*
X127570000Y-88370000D01*
X127570000Y-90230000D01*
X126630000Y-90230000D01*
X126630000Y-88370000D01*
G04 #@! TO.C,U1*
X141149999Y-111350001D02*
X141469999Y-111350001D01*
X141149999Y-116250001D02*
X141149999Y-111350001D01*
X141469999Y-109950001D02*
X144329999Y-109950001D01*
X141469999Y-111350001D02*
X141469999Y-109950001D01*
X141469999Y-116250001D02*
X141149999Y-116250001D01*
X141469999Y-117650001D02*
X141469999Y-116250001D01*
X144329999Y-109950001D02*
X144329999Y-111350001D01*
X144329999Y-111350001D02*
X144649999Y-111350001D01*
X144329999Y-116250001D02*
X144329999Y-117650001D01*
X144329999Y-117650001D02*
X141469999Y-117650001D01*
X144649999Y-111350001D02*
X144649999Y-116250001D01*
X144649999Y-116250001D02*
X144329999Y-116250001D01*
G04 #@! TO.C,C3*
X136778787Y-105229324D02*
X135491853Y-103942390D01*
X136142391Y-103291852D01*
X137429325Y-104578786D01*
X136778787Y-105229324D01*
G04 #@! TO.C,TP8*
X179274999Y-99450000D02*
G75*
G02*
X178274999Y-99450000I-500000J0D01*
G01*
X178274999Y-99450000D02*
G75*
G02*
X179274999Y-99450000I500000J0D01*
G01*
G04 #@! TO.C,R76*
X200819999Y-90930001D02*
X202679999Y-90930001D01*
X202679999Y-91870001D01*
X200819999Y-91870001D01*
X200819999Y-90930001D01*
G04 #@! TO.C,D4*
X118520000Y-92770000D02*
X121480000Y-92770000D01*
X121480000Y-94230000D01*
X118520000Y-94230000D01*
X118520000Y-92770000D01*
G04 #@! TO.C,D29*
X203290000Y-89310000D02*
X203990000Y-89310000D01*
X203990000Y-90710000D01*
X203290000Y-90710000D01*
X203290000Y-89310000D01*
G04 #@! TO.C,C104*
X182580001Y-117712500D02*
X184400001Y-117712500D01*
X184400001Y-118632500D01*
X182580001Y-118632500D01*
X182580001Y-117712500D01*
G04 #@! TO.C,C58*
X166840000Y-96190000D02*
X167760000Y-96190000D01*
X167760000Y-98010000D01*
X166840000Y-98010000D01*
X166840000Y-96190000D01*
G04 #@! TO.C,R258*
X164129999Y-89170000D02*
X165069999Y-89170000D01*
X165069999Y-91030000D01*
X164129999Y-91030000D01*
X164129999Y-89170000D01*
G04 #@! TO.C,C19*
X131340001Y-109090000D02*
X132260001Y-109090000D01*
X132260001Y-110910000D01*
X131340001Y-110910000D01*
X131340001Y-109090000D01*
G04 #@! TO.C,D26*
X118520000Y-119470000D02*
X121480000Y-119470000D01*
X121480000Y-120930000D01*
X118520000Y-120930000D01*
X118520000Y-119470000D01*
G04 #@! TO.C,D3*
X118520000Y-95470000D02*
X121480000Y-95470000D01*
X121480000Y-96930000D01*
X118520000Y-96930000D01*
X118520000Y-95470000D01*
G04 #@! TO.C,J4*
X123100000Y-132870000D02*
X123500000Y-132870000D01*
X123100000Y-135680000D02*
X123100000Y-132870000D01*
X123500000Y-130220000D02*
X124700000Y-130220000D01*
X123500000Y-132870000D02*
X123500000Y-130220000D01*
X124700000Y-129120000D02*
X128300000Y-129120000D01*
X124700000Y-130220000D02*
X124700000Y-129120000D01*
X125310000Y-135480000D02*
X125310000Y-135680000D01*
X125310000Y-135680000D02*
X123100000Y-135680000D01*
X127690000Y-135480000D02*
X125310000Y-135480000D01*
X127690000Y-135680000D02*
X127690000Y-135480000D01*
X128300000Y-129120000D02*
X128300000Y-130220000D01*
X128300000Y-130220000D02*
X129500000Y-130220000D01*
X129500000Y-130220000D02*
X129500000Y-132870000D01*
X129500000Y-132870000D02*
X129900000Y-132870000D01*
X129900000Y-132870000D02*
X129900000Y-135680000D01*
X129900000Y-135680000D02*
X127690000Y-135680000D01*
G04 #@! TO.C,R73*
X187360000Y-117092500D02*
X188300000Y-117092500D01*
X188300000Y-118952500D01*
X187360000Y-118952500D01*
X187360000Y-117092500D01*
G04 #@! TO.C,C34*
X199374000Y-100660000D02*
X202334000Y-100660000D01*
X202334000Y-102120000D01*
X199374000Y-102120000D01*
X199374000Y-100660000D01*
G04 #@! TO.C,R24*
X132430000Y-113670000D02*
X133370000Y-113670000D01*
X133370000Y-115530000D01*
X132430000Y-115530000D01*
X132430000Y-113670000D01*
G04 #@! TO.C,R6*
X141370000Y-117730001D02*
X143230000Y-117730001D01*
X143230000Y-118670001D01*
X141370000Y-118670001D01*
X141370000Y-117730001D01*
G04 #@! TO.C,R210*
X201530000Y-125270000D02*
X202470000Y-125270000D01*
X202470000Y-127130000D01*
X201530000Y-127130000D01*
X201530000Y-125270000D01*
G04 #@! TO.C,C44*
X191680000Y-102140001D02*
X193500000Y-102140001D01*
X193500000Y-103060001D01*
X191680000Y-103060001D01*
X191680000Y-102140001D01*
G04 #@! TO.C,D25*
X118520000Y-122170000D02*
X121480000Y-122170000D01*
X121480000Y-123630000D01*
X118520000Y-123630000D01*
X118520000Y-122170000D01*
G04 #@! TO.C,R29*
X189660001Y-106930000D02*
X191520001Y-106930000D01*
X191520001Y-107870000D01*
X189660001Y-107870000D01*
X189660001Y-106930000D01*
G04 #@! TO.C,C28*
X201990000Y-112330000D02*
X202910000Y-112330000D01*
X202910000Y-114150000D01*
X201990000Y-114150000D01*
X201990000Y-112330000D01*
G04 #@! TO.C,D34*
X202570000Y-89310000D02*
X203270000Y-89310000D01*
X203270000Y-90710000D01*
X202570000Y-90710000D01*
X202570000Y-89310000D01*
G04 #@! TO.C,J10*
X166790000Y-122220000D02*
X166790000Y-132180000D01*
X166790000Y-132180000D02*
X171360000Y-132180000D01*
X171360000Y-120400000D02*
X171360000Y-122220000D01*
X171360000Y-122220000D02*
X166790000Y-122220000D01*
X171360000Y-132180000D02*
X171360000Y-134000000D01*
X171360000Y-134000000D02*
X196240000Y-134000000D01*
X196240000Y-120400000D02*
X171360000Y-120400000D01*
X196240000Y-122220000D02*
X196240000Y-120400000D01*
X196240000Y-132180000D02*
X200810000Y-132180000D01*
X196240000Y-134000000D02*
X196240000Y-132180000D01*
X200810000Y-122220000D02*
X196240000Y-122220000D01*
X200810000Y-132180000D02*
X200810000Y-122220000D01*
G04 #@! TO.C,Y2*
X191630000Y-113950000D02*
X195830000Y-113950000D01*
X195830000Y-117450000D01*
X191630000Y-117450000D01*
X191630000Y-113950000D01*
G04 #@! TO.C,R60*
X129520000Y-113790000D02*
X131380000Y-113790000D01*
X131380000Y-114730000D01*
X129520000Y-114730000D01*
X129520000Y-113790000D01*
G04 #@! TO.C,D12*
X199880001Y-117370000D02*
X201280001Y-117370000D01*
X201280001Y-118070000D01*
X199880001Y-118070000D01*
X199880001Y-117370000D01*
G04 #@! TO.C,C8*
X137781802Y-102431265D02*
X139068736Y-103718199D01*
X138418198Y-104368737D01*
X137131264Y-103081803D01*
X137781802Y-102431265D01*
G04 #@! TO.C,D100*
X204070001Y-124720000D02*
X205530001Y-124720000D01*
X205530001Y-127680000D01*
X204070001Y-127680000D01*
X204070001Y-124720000D01*
G04 #@! TO.C,C39*
X195684000Y-100350000D02*
X196604000Y-100350000D01*
X196604000Y-102170000D01*
X195684000Y-102170000D01*
X195684000Y-100350000D01*
G04 #@! TO.C,C38*
X195920000Y-114790000D02*
X196840000Y-114790000D01*
X196840000Y-116610000D01*
X195920000Y-116610000D01*
X195920000Y-114790000D01*
G04 #@! TO.C,R82*
X161669999Y-94530001D02*
X163529999Y-94530001D01*
X163529999Y-95470001D01*
X161669999Y-95470001D01*
X161669999Y-94530001D01*
G04 #@! TO.C,C1*
X142768735Y-99981803D02*
X141481801Y-101268737D01*
X140831263Y-100618199D01*
X142118197Y-99331265D01*
X142768735Y-99981803D01*
G04 #@! TO.C,TP10*
X176874999Y-99450000D02*
G75*
G02*
X175874999Y-99450000I-500000J0D01*
G01*
X175874999Y-99450000D02*
G75*
G02*
X176874999Y-99450000I500000J0D01*
G01*
G04 #@! TO.C,R8*
X142930000Y-99770000D02*
X143870000Y-99770000D01*
X143870000Y-101630000D01*
X142930000Y-101630000D01*
X142930000Y-99770000D01*
G04 #@! TO.C,R52*
X197719999Y-96230001D02*
X199579999Y-96230001D01*
X199579999Y-97170001D01*
X197719999Y-97170001D01*
X197719999Y-96230001D01*
G04 #@! TO.C,C40*
X202449999Y-106200000D02*
X204269999Y-106200000D01*
X204269999Y-107120000D01*
X202449999Y-107120000D01*
X202449999Y-106200000D01*
G04 #@! TO.C,U21*
X183440000Y-114790000D02*
X183820000Y-114790000D01*
X183440000Y-117050000D02*
X183440000Y-114790000D01*
X183820000Y-114170000D02*
X184440000Y-114170000D01*
X183820000Y-114790000D02*
X183820000Y-114170000D01*
X183820000Y-117050000D02*
X183440000Y-117050000D01*
X183820000Y-117670000D02*
X183820000Y-117050000D01*
X184440000Y-113790000D02*
X186700000Y-113790000D01*
X184440000Y-114170000D02*
X184440000Y-113790000D01*
X184440000Y-117670000D02*
X183820000Y-117670000D01*
X184440000Y-118050000D02*
X184440000Y-117670000D01*
X186700000Y-113790000D02*
X186700000Y-114170000D01*
X186700000Y-114170000D02*
X187320000Y-114170000D01*
X186700000Y-117670000D02*
X186700000Y-118050000D01*
X186700000Y-118050000D02*
X184440000Y-118050000D01*
X187320000Y-114170000D02*
X187320000Y-114790000D01*
X187320000Y-114790000D02*
X187700000Y-114790000D01*
X187320000Y-117050000D02*
X187320000Y-117670000D01*
X187320000Y-117670000D02*
X186700000Y-117670000D01*
X187700000Y-114790000D02*
X187700000Y-117050000D01*
X187700000Y-117050000D02*
X187320000Y-117050000D01*
G04 #@! TD*
D12*
X210299999Y-131200001D02*
X210299999Y-131200001D01*
G75*
G02*
X205799999Y-135700001I-4499999J1D01*
G01*
X119800000Y-135700001D01*
G75*
G02*
X115300000Y-131200001I0J4500001D01*
G01*
X115300000Y-85200001D01*
G75*
G02*
X119800000Y-80700001I4500000J1D01*
G01*
X205799999Y-80700001D01*
G75*
G02*
X210299999Y-85200001I1J-4499999D01*
G01*
X210299999Y-131200001D01*
M02*
