G04 #@! TF.GenerationSoftware,KiCad,Pcbnew,10.0.5+dfsg-1*
G04 #@! TF.CreationDate,2026-09-25T10:13:48+00:00*
G04 #@! TF.ProjectId,glasgow,676c6173-676f-4772-9e6b-696361645f70,rev?*
G04 #@! TF.SameCoordinates,Original*
G04 #@! TF.FileFunction,Soldermask,Top*
G04 #@! TF.FilePolarity,Negative*
%FSLAX46Y46*%
G04 Gerber Fmt 4.6, Leading zero omitted, Abs format (unit mm)*
G04 Created by KiCad (PCBNEW 10.0.5+dfsg-1) date 2026-09-25 10:13:48*
%MOMM*%
%LPD*%
G01*
G04 APERTURE LIST*
G04 Aperture macros list*
%AMRoundRect*
0 Rectangle with rounded corners*
0 $1 Rounding radius*
0 $2 $3 $4 $5 $6 $7 $8 $9 X,Y pos of 4 corners*
0 Add a 4 corners polygon primitive as box body*
4,1,4,$2,$3,$4,$5,$6,$7,$8,$9,$2,$3,0*
0 Add four circle primitives for the rounded corners*
1,1,$1+$1,$2,$3*
1,1,$1+$1,$4,$5*
1,1,$1+$1,$6,$7*
1,1,$1+$1,$8,$9*
0 Add four rect primitives between the rounded corners*
20,1,$1+$1,$2,$3,$4,$5,0*
20,1,$1+$1,$4,$5,$6,$7,0*
20,1,$1+$1,$6,$7,$8,$9,0*
20,1,$1+$1,$8,$9,$2,$3,0*%
%AMFreePoly0*
4,1,108,-1.922481,2.957613,-1.594493,2.882752,-1.276950,2.771639,-0.973843,2.625670,-0.688986,2.446683,-0.425960,2.236926,-0.188074,1.999040,0.021683,1.736014,0.200670,1.451157,0.346639,1.148050,0.457752,0.830507,0.532613,0.502519,0.570280,0.168211,0.570280,-0.168211,0.532613,-0.502519,0.457752,-0.830507,0.346639,-1.148050,0.200670,-1.451157,0.021683,-1.736014,-0.188074,-1.999040,
-0.425960,-2.236926,-0.688986,-2.446683,-0.973843,-2.625670,-1.276950,-2.771639,-1.594493,-2.882752,-1.922481,-2.957613,-2.256789,-2.995280,-2.593211,-2.995280,-2.927519,-2.957613,-3.255507,-2.882752,-3.573050,-2.771639,-3.876157,-2.625670,-4.161014,-2.446683,-4.424040,-2.236926,-4.661926,-1.999040,-4.871683,-1.736014,-5.050670,-1.451157,-5.196639,-1.148050,-5.307752,-0.830507,-5.382613,-0.502519,
-5.420280,-0.168211,-5.420280,0.121255,-4.275000,0.121255,-4.275000,-0.121255,-4.243346,-0.361691,-4.180579,-0.595939,-4.087774,-0.819990,-3.966519,-1.030010,-3.818888,-1.222407,-3.647407,-1.393888,-3.455010,-1.541519,-3.244990,-1.662774,-3.020939,-1.755579,-2.786691,-1.818346,-2.546255,-1.850000,-2.303745,-1.850000,-2.063309,-1.818346,-1.829061,-1.755579,-1.605010,-1.662774,-1.394990,-1.541519,
-1.202593,-1.393888,-1.031112,-1.222407,-0.883481,-1.030010,-0.762226,-0.819990,-0.669421,-0.595939,-0.606654,-0.361691,-0.575000,-0.121255,-0.575000,0.121255,-0.606654,0.361691,-0.669421,0.595939,-0.762226,0.819990,-0.883481,1.030010,-1.031112,1.222407,-1.202593,1.393888,-1.394990,1.541519,-1.605010,1.662774,-1.829061,1.755579,-2.063309,1.818346,-2.303745,1.850000,-2.546255,1.850000,
-2.786691,1.818346,-3.020939,1.755579,-3.244990,1.662774,-3.455010,1.541519,-3.647407,1.393888,-3.818888,1.222407,-3.966519,1.030010,-4.087774,0.819990,-4.180579,0.595939,-4.243346,0.361691,-4.275000,0.121255,-5.420280,0.121255,-5.420280,0.168211,-5.382613,0.502519,-5.307752,0.830507,-5.196639,1.148050,-5.050670,1.451157,-4.871683,1.736014,-4.661926,1.999040,-4.424040,2.236926,
-4.161014,2.446683,-3.876157,2.625670,-3.573050,2.771639,-3.255507,2.882752,-2.927519,2.957613,-2.593211,2.995280,-2.256789,2.995280,-1.922481,2.957613,-1.922481,2.957613,$1*%
G04 Aperture macros list end*
%ADD10RoundRect,0.218750X0.256250X-0.218750X0.256250X0.218750X-0.256250X0.218750X-0.256250X-0.218750X0*%
%ADD11RoundRect,0.135000X0.185000X-0.135000X0.185000X0.135000X-0.185000X0.135000X-0.185000X-0.135000X0*%
%ADD12RoundRect,0.135000X0.135000X0.185000X-0.135000X0.185000X-0.135000X-0.185000X0.135000X-0.185000X0*%
%ADD13C,0.500000*%
%ADD14RoundRect,0.140000X-0.170000X0.140000X-0.170000X-0.140000X0.170000X-0.140000X0.170000X0.140000X0*%
%ADD15RoundRect,0.225000X0.225000X0.250000X-0.225000X0.250000X-0.225000X-0.250000X0.225000X-0.250000X0*%
%ADD16RoundRect,0.218750X-0.218750X-0.256250X0.218750X-0.256250X0.218750X0.256250X-0.218750X0.256250X0*%
%ADD17C,0.470000*%
%ADD18RoundRect,0.225000X-0.225000X-0.250000X0.225000X-0.250000X0.225000X0.250000X-0.225000X0.250000X0*%
%ADD19RoundRect,0.140000X0.140000X0.170000X-0.140000X0.170000X-0.140000X-0.170000X0.140000X-0.170000X0*%
%ADD20RoundRect,0.150000X-0.587500X-0.150000X0.587500X-0.150000X0.587500X0.150000X-0.587500X0.150000X0*%
%ADD21C,0.320000*%
%ADD22RoundRect,0.218750X0.218750X0.256250X-0.218750X0.256250X-0.218750X-0.256250X0.218750X-0.256250X0*%
%ADD23RoundRect,0.140000X0.170000X-0.140000X0.170000X0.140000X-0.170000X0.140000X-0.170000X-0.140000X0*%
%ADD24C,1.200000*%
%ADD25RoundRect,0.135000X-0.185000X0.135000X-0.185000X-0.135000X0.185000X-0.135000X0.185000X0.135000X0*%
%ADD26C,6.400000*%
%ADD27R,1.700000X1.700000*%
%ADD28C,1.700000*%
%ADD29RoundRect,0.218750X-0.256250X0.218750X-0.256250X-0.218750X0.256250X-0.218750X0.256250X0.218750X0*%
%ADD30RoundRect,0.150000X0.150000X0.200000X-0.150000X0.200000X-0.150000X-0.200000X0.150000X-0.200000X0*%
%ADD31RoundRect,0.100000X0.130000X0.100000X-0.130000X0.100000X-0.130000X-0.100000X0.130000X-0.100000X0*%
%ADD32RoundRect,0.135000X-0.135000X-0.185000X0.135000X-0.185000X0.135000X0.185000X-0.135000X0.185000X0*%
%ADD33RoundRect,0.112500X-0.187500X-0.112500X0.187500X-0.112500X0.187500X0.112500X-0.187500X0.112500X0*%
%ADD34RoundRect,0.062500X0.350000X0.062500X-0.350000X0.062500X-0.350000X-0.062500X0.350000X-0.062500X0*%
%ADD35RoundRect,0.062500X0.062500X0.350000X-0.062500X0.350000X-0.062500X-0.350000X0.062500X-0.350000X0*%
%ADD36R,7.150000X7.150000*%
%ADD37RoundRect,0.100000X0.400000X-0.400000X0.400000X0.400000X-0.400000X0.400000X-0.400000X-0.400000X0*%
%ADD38RoundRect,0.105000X0.995000X-0.420000X0.995000X0.420000X-0.995000X0.420000X-0.995000X-0.420000X0*%
%ADD39RoundRect,0.140000X-0.140000X-0.170000X0.140000X-0.170000X0.140000X0.170000X-0.140000X0.170000X0*%
%ADD40RoundRect,0.100000X-0.100000X0.130000X-0.100000X-0.130000X0.100000X-0.130000X0.100000X0.130000X0*%
%ADD41RoundRect,0.250000X-0.500000X-0.650000X0.500000X-0.650000X0.500000X0.650000X-0.500000X0.650000X0*%
%ADD42RoundRect,0.140000X0.219203X0.021213X0.021213X0.219203X-0.219203X-0.021213X-0.021213X-0.219203X0*%
%ADD43RoundRect,0.100000X0.162635X-0.021213X-0.021213X0.162635X-0.162635X0.021213X0.021213X-0.162635X0*%
%ADD44RoundRect,0.140000X-0.219203X-0.021213X-0.021213X-0.219203X0.219203X0.021213X0.021213X0.219203X0*%
%ADD45C,1.000000*%
%ADD46RoundRect,0.087500X-0.087500X0.425000X-0.087500X-0.425000X0.087500X-0.425000X0.087500X0.425000X0*%
%ADD47RoundRect,0.062500X0.275000X0.062500X-0.275000X0.062500X-0.275000X-0.062500X0.275000X-0.062500X0*%
%ADD48RoundRect,0.062500X0.062500X0.275000X-0.062500X0.275000X-0.062500X-0.275000X0.062500X-0.275000X0*%
%ADD49R,1.450000X1.450000*%
%ADD50RoundRect,0.250000X-0.260000X2.250000X-0.260000X-2.250000X0.260000X-2.250000X0.260000X2.250000X0*%
%ADD51RoundRect,0.147500X-0.147500X-0.172500X0.147500X-0.172500X0.147500X0.172500X-0.147500X0.172500X0*%
%ADD52C,3.700000*%
%ADD53FreePoly0,180.000000*%
%ADD54RoundRect,0.250000X0.260000X-2.250000X0.260000X2.250000X-0.260000X2.250000X-0.260000X-2.250000X0*%
%ADD55RoundRect,0.150000X0.587500X0.150000X-0.587500X0.150000X-0.587500X-0.150000X0.587500X-0.150000X0*%
%ADD56RoundRect,0.048000X0.112000X-0.182000X0.112000X0.182000X-0.112000X0.182000X-0.112000X-0.182000X0*%
%ADD57RoundRect,0.027000X0.133000X-0.063000X0.133000X0.063000X-0.133000X0.063000X-0.133000X-0.063000X0*%
%ADD58RoundRect,0.045000X0.165000X-0.105000X0.165000X0.105000X-0.165000X0.105000X-0.165000X-0.105000X0*%
%ADD59RoundRect,0.050000X0.100000X-0.250000X0.100000X0.250000X-0.100000X0.250000X-0.100000X-0.250000X0*%
%ADD60RoundRect,0.050000X0.275000X-0.075000X0.275000X0.075000X-0.275000X0.075000X-0.275000X-0.075000X0*%
%ADD61RoundRect,0.050000X0.075000X-0.250000X0.075000X0.250000X-0.075000X0.250000X-0.075000X-0.250000X0*%
%ADD62RoundRect,0.042900X1.157100X-0.107100X1.157100X0.107100X-1.157100X0.107100X-1.157100X-0.107100X0*%
%ADD63RoundRect,0.100000X-0.130000X-0.100000X0.130000X-0.100000X0.130000X0.100000X-0.130000X0.100000X0*%
%ADD64R,2.400000X0.740000*%
%ADD65RoundRect,0.250000X0.550000X-1.500000X0.550000X1.500000X-0.550000X1.500000X-0.550000X-1.500000X0*%
%ADD66RoundRect,0.150000X-0.512500X-0.150000X0.512500X-0.150000X0.512500X0.150000X-0.512500X0.150000X0*%
%ADD67C,0.600000*%
%ADD68R,1.600000X0.300000*%
%ADD69RoundRect,0.120000X-0.780000X0.280000X-0.780000X-0.280000X0.780000X-0.280000X0.780000X0.280000X0*%
%ADD70C,0.650000*%
%ADD71RoundRect,0.150000X-0.575000X0.150000X-0.575000X-0.150000X0.575000X-0.150000X0.575000X0.150000X0*%
%ADD72RoundRect,0.075000X-0.650000X0.075000X-0.650000X-0.075000X0.650000X-0.075000X0.650000X0.075000X0*%
%ADD73O,2.100000X1.000000*%
%ADD74O,1.600000X1.000000*%
%ADD75RoundRect,0.087500X-0.087500X0.250000X-0.087500X-0.250000X0.087500X-0.250000X0.087500X0.250000X0*%
%ADD76RoundRect,0.250000X0.070711X0.565685X-0.565685X-0.070711X-0.070711X-0.565685X0.565685X0.070711X0*%
%ADD77RoundRect,0.100000X0.100000X-0.637500X0.100000X0.637500X-0.100000X0.637500X-0.100000X-0.637500X0*%
%ADD78RoundRect,0.100000X0.100000X-0.130000X0.100000X0.130000X-0.100000X0.130000X-0.100000X-0.130000X0*%
%ADD79RoundRect,0.150000X-0.150000X-0.625000X0.150000X-0.625000X0.150000X0.625000X-0.150000X0.625000X0*%
%ADD80RoundRect,0.250000X-0.350000X-0.650000X0.350000X-0.650000X0.350000X0.650000X-0.350000X0.650000X0*%
%ADD81RoundRect,0.250000X-0.450000X-0.350000X0.450000X-0.350000X0.450000X0.350000X-0.450000X0.350000X0*%
%ADD82RoundRect,0.140000X-0.021213X0.219203X-0.219203X0.021213X0.021213X-0.219203X0.219203X-0.021213X0*%
%ADD83RoundRect,0.062500X0.355000X0.062500X-0.355000X0.062500X-0.355000X-0.062500X0.355000X-0.062500X0*%
%ADD84RoundRect,0.062500X0.062500X0.355000X-0.062500X0.355000X-0.062500X-0.355000X0.062500X-0.355000X0*%
%ADD85R,1.680000X1.680000*%
G04 #@! TA.AperFunction,Profile*
%ADD86C,0.050000*%
G04 #@! TD*
G04 APERTURE END LIST*
D10*
G04 #@! TO.C,D80*
X204800001Y-90987501D03*
X204800001Y-89412501D03*
G04 #@! TD*
D11*
G04 #@! TO.C,R23*
X130800000Y-110510000D03*
X130800000Y-109490000D03*
G04 #@! TD*
D12*
G04 #@! TO.C,R28*
X198252501Y-117305000D03*
X197232501Y-117305000D03*
G04 #@! TD*
D13*
G04 #@! TO.C,TP28*
X181175000Y-99450000D03*
G04 #@! TD*
D14*
G04 #@! TO.C,C46*
X193959999Y-101710000D03*
X193959999Y-102670000D03*
G04 #@! TD*
D15*
G04 #@! TO.C,C16*
X131874999Y-107962500D03*
X130324999Y-107962500D03*
G04 #@! TD*
D16*
G04 #@! TO.C,FB1*
X126412499Y-111500001D03*
X127987499Y-111500001D03*
G04 #@! TD*
D17*
G04 #@! TO.C,U8*
X158275000Y-102210000D03*
X159075000Y-102210000D03*
X159875000Y-102210000D03*
X160675000Y-102210000D03*
X161475000Y-102210000D03*
X162275000Y-102210000D03*
X163075000Y-102210000D03*
X163875000Y-102210000D03*
X164675000Y-102210000D03*
X165475000Y-102210000D03*
X166275000Y-102210000D03*
X167075000Y-102210000D03*
X167875000Y-102210000D03*
X168675000Y-102210000D03*
X169475000Y-102210000D03*
X170275000Y-102210000D03*
X158275000Y-103010000D03*
X159075000Y-103010000D03*
X159875000Y-103010000D03*
X160675000Y-103010000D03*
X161475000Y-103010000D03*
X162275000Y-103010000D03*
X163075000Y-103010000D03*
X163875000Y-103010000D03*
X164675000Y-103010000D03*
X165475000Y-103010000D03*
X166275000Y-103010000D03*
X167075000Y-103010000D03*
X167875000Y-103010000D03*
X168675000Y-103010000D03*
X169475000Y-103010000D03*
X170275000Y-103010000D03*
X158275000Y-103810000D03*
X159075000Y-103810000D03*
X159875000Y-103810000D03*
X160675000Y-103810000D03*
X161475000Y-103810000D03*
X162275000Y-103810000D03*
X163075000Y-103810000D03*
X163875000Y-103810000D03*
X164675000Y-103810000D03*
X165475000Y-103810000D03*
X166275000Y-103810000D03*
X167075000Y-103810000D03*
X167875000Y-103810000D03*
X168675000Y-103810000D03*
X169475000Y-103810000D03*
X170275000Y-103810000D03*
X158275000Y-104610000D03*
X159075000Y-104610000D03*
X159875000Y-104610000D03*
X160675000Y-104610000D03*
X161475000Y-104610000D03*
X162275000Y-104610000D03*
X163075000Y-104610000D03*
X163875000Y-104610000D03*
X164675000Y-104610000D03*
X165475000Y-104610000D03*
X166275000Y-104610000D03*
X167075000Y-104610000D03*
X167875000Y-104610000D03*
X168675000Y-104610000D03*
X169475000Y-104610000D03*
X170275000Y-104610000D03*
X158275000Y-105410000D03*
X159075000Y-105410000D03*
X159875000Y-105410000D03*
X160675000Y-105410000D03*
X161475000Y-105410000D03*
X162275000Y-105410000D03*
X163075000Y-105410000D03*
X163875000Y-105410000D03*
X164675000Y-105410000D03*
X165475000Y-105410000D03*
X166275000Y-105410000D03*
X167075000Y-105410000D03*
X167875000Y-105410000D03*
X168675000Y-105410000D03*
X169475000Y-105410000D03*
X170275000Y-105410000D03*
X158275000Y-106210000D03*
X159075000Y-106210000D03*
X159875000Y-106210000D03*
X160675000Y-106210000D03*
X161475000Y-106210000D03*
X162275000Y-106210000D03*
X163075000Y-106210000D03*
X163875000Y-106210000D03*
X164675000Y-106210000D03*
X165475000Y-106210000D03*
X166275000Y-106210000D03*
X167075000Y-106210000D03*
X167875000Y-106210000D03*
X168675000Y-106210000D03*
X169475000Y-106210000D03*
X170275000Y-106210000D03*
X158275000Y-107010000D03*
X159075000Y-107010000D03*
X159875000Y-107010000D03*
X160675000Y-107010000D03*
X161475000Y-107010000D03*
X162275000Y-107010000D03*
X163075000Y-107010000D03*
X163875000Y-107010000D03*
X164675000Y-107010000D03*
X165475000Y-107010000D03*
X166275000Y-107010000D03*
X167075000Y-107010000D03*
X167875000Y-107010000D03*
X168675000Y-107010000D03*
X169475000Y-107010000D03*
X170275000Y-107010000D03*
X158275000Y-107810000D03*
X159075000Y-107810000D03*
X159875000Y-107810000D03*
X160675000Y-107810000D03*
X161475000Y-107810000D03*
X162275000Y-107810000D03*
X163075000Y-107810000D03*
X163875000Y-107810000D03*
X164675000Y-107810000D03*
X165475000Y-107810000D03*
X166275000Y-107810000D03*
X167075000Y-107810000D03*
X167875000Y-107810000D03*
X168675000Y-107810000D03*
X169475000Y-107810000D03*
X170275000Y-107810000D03*
X158275000Y-108610000D03*
X159075000Y-108610000D03*
X159875000Y-108610000D03*
X160675000Y-108610000D03*
X161475000Y-108610000D03*
X162275000Y-108610000D03*
X163075000Y-108610000D03*
X163875000Y-108610000D03*
X164675000Y-108610000D03*
X165475000Y-108610000D03*
X166275000Y-108610000D03*
X167075000Y-108610000D03*
X167875000Y-108610000D03*
X168675000Y-108610000D03*
X169475000Y-108610000D03*
X170275000Y-108610000D03*
X158275000Y-109410000D03*
X159075000Y-109410000D03*
X159875000Y-109410000D03*
X160675000Y-109410000D03*
X161475000Y-109410000D03*
X162275000Y-109410000D03*
X163075000Y-109410000D03*
X163875000Y-109410000D03*
X164675000Y-109410000D03*
X165475000Y-109410000D03*
X166275000Y-109410000D03*
X167075000Y-109410000D03*
X167875000Y-109410000D03*
X168675000Y-109410000D03*
X169475000Y-109410000D03*
X170275000Y-109410000D03*
X158275000Y-110210000D03*
X159075000Y-110210000D03*
X159875000Y-110210000D03*
X160675000Y-110210000D03*
X161475000Y-110210000D03*
X162275000Y-110210000D03*
X163075000Y-110210000D03*
X163875000Y-110210000D03*
X164675000Y-110210000D03*
X165475000Y-110210000D03*
X166275000Y-110210000D03*
X167075000Y-110210000D03*
X167875000Y-110210000D03*
X168675000Y-110210000D03*
X169475000Y-110210000D03*
X170275000Y-110210000D03*
X158275000Y-111010000D03*
X159075000Y-111010000D03*
X159875000Y-111010000D03*
X160675000Y-111010000D03*
X161475000Y-111010000D03*
X162275000Y-111010000D03*
X163075000Y-111010000D03*
X163875000Y-111010000D03*
X164675000Y-111010000D03*
X165475000Y-111010000D03*
X166275000Y-111010000D03*
X167075000Y-111010000D03*
X167875000Y-111010000D03*
X168675000Y-111010000D03*
X169475000Y-111010000D03*
X170275000Y-111010000D03*
X158275000Y-111810000D03*
X159075000Y-111810000D03*
X159875000Y-111810000D03*
X160675000Y-111810000D03*
X161475000Y-111810000D03*
X162275000Y-111810000D03*
X163075000Y-111810000D03*
X163875000Y-111810000D03*
X164675000Y-111810000D03*
X165475000Y-111810000D03*
X166275000Y-111810000D03*
X167075000Y-111810000D03*
X167875000Y-111810000D03*
X168675000Y-111810000D03*
X169475000Y-111810000D03*
X170275000Y-111810000D03*
X158275000Y-112610000D03*
X159075000Y-112610000D03*
X159875000Y-112610000D03*
X160675000Y-112610000D03*
X161475000Y-112610000D03*
X162275000Y-112610000D03*
X163075000Y-112610000D03*
X163875000Y-112610000D03*
X164675000Y-112610000D03*
X165475000Y-112610000D03*
X166275000Y-112610000D03*
X167075000Y-112610000D03*
X167875000Y-112610000D03*
X168675000Y-112610000D03*
X169475000Y-112610000D03*
X170275000Y-112610000D03*
X158275000Y-113410000D03*
X159075000Y-113410000D03*
X159875000Y-113410000D03*
X160675000Y-113410000D03*
X161475000Y-113410000D03*
X162275000Y-113410000D03*
X163075000Y-113410000D03*
X163875000Y-113410000D03*
X164675000Y-113410000D03*
X165475000Y-113410000D03*
X166275000Y-113410000D03*
X167075000Y-113410000D03*
X167875000Y-113410000D03*
X168675000Y-113410000D03*
X169475000Y-113410000D03*
X170275000Y-113410000D03*
X158275000Y-114210000D03*
X159075000Y-114210000D03*
X159875000Y-114210000D03*
X160675000Y-114210000D03*
X161475000Y-114210000D03*
X162275000Y-114210000D03*
X163075000Y-114210000D03*
X163875000Y-114210000D03*
X164675000Y-114210000D03*
X165475000Y-114210000D03*
X166275000Y-114210000D03*
X167075000Y-114210000D03*
X167875000Y-114210000D03*
X168675000Y-114210000D03*
X169475000Y-114210000D03*
X170275000Y-114210000D03*
G04 #@! TD*
D18*
G04 #@! TO.C,C18*
X126424999Y-114500000D03*
X127974999Y-114500000D03*
G04 #@! TD*
D19*
G04 #@! TO.C,C43*
X191070002Y-106400000D03*
X190110002Y-106400000D03*
G04 #@! TD*
D14*
G04 #@! TO.C,C37*
X197064000Y-100780000D03*
X197064000Y-101740000D03*
G04 #@! TD*
D20*
G04 #@! TO.C,Q1*
X207186501Y-100350000D03*
X207186501Y-102250000D03*
X209061501Y-101300000D03*
G04 #@! TD*
D21*
G04 #@! TO.C,U12*
X179275001Y-111210000D03*
X179275001Y-112210000D03*
X179275001Y-113210000D03*
X179275001Y-114210000D03*
X178275001Y-110210000D03*
X178275001Y-111210000D03*
X178275001Y-112210000D03*
X178275001Y-113210000D03*
X178275001Y-114210000D03*
X177275001Y-110210000D03*
X177275001Y-111210000D03*
X177275001Y-112210000D03*
X177275001Y-113210000D03*
X177275001Y-114210000D03*
X176275001Y-110210000D03*
X176275001Y-111210000D03*
X176275001Y-112210000D03*
X176275001Y-113210000D03*
X176275001Y-114210000D03*
X175275001Y-110210000D03*
X175275001Y-111210000D03*
X175275001Y-112210000D03*
X175275001Y-113210000D03*
X175275001Y-114210000D03*
G04 #@! TD*
D18*
G04 #@! TO.C,C13*
X126424999Y-113000001D03*
X127974999Y-113000001D03*
G04 #@! TD*
D22*
G04 #@! TO.C,D14*
X198465000Y-118640000D03*
X196890000Y-118640000D03*
G04 #@! TD*
D21*
G04 #@! TO.C,U11*
X179275000Y-103210000D03*
X179275000Y-104210000D03*
X179275000Y-105210000D03*
X179275000Y-106210000D03*
X178275000Y-102210000D03*
X178275000Y-103210000D03*
X178275000Y-104210000D03*
X178275000Y-105210000D03*
X178275000Y-106210000D03*
X177275000Y-102210000D03*
X177275000Y-103210000D03*
X177275000Y-104210000D03*
X177275000Y-105210000D03*
X177275000Y-106210000D03*
X176275000Y-102210000D03*
X176275000Y-103210000D03*
X176275000Y-104210000D03*
X176275000Y-105210000D03*
X176275000Y-106210000D03*
X175275000Y-102210000D03*
X175275000Y-103210000D03*
X175275000Y-104210000D03*
X175275000Y-105210000D03*
X175275000Y-106210000D03*
G04 #@! TD*
D23*
G04 #@! TO.C,C21*
X132799999Y-112080000D03*
X132799999Y-111120000D03*
G04 #@! TD*
G04 #@! TO.C,C29*
X191630000Y-105430000D03*
X191630000Y-104470000D03*
G04 #@! TD*
D24*
G04 #@! TO.C,SW1*
X124800000Y-83916000D03*
X127800000Y-83916000D03*
X126300000Y-82066000D03*
G04 #@! TD*
D16*
G04 #@! TO.C,D28*
X119212500Y-114800000D03*
X120787500Y-114800000D03*
G04 #@! TD*
G04 #@! TO.C,D1*
X119212500Y-101600000D03*
X120787500Y-101600000D03*
G04 #@! TD*
D25*
G04 #@! TO.C,R25*
X131900000Y-114090001D03*
X131900000Y-115110001D03*
G04 #@! TD*
D26*
G04 #@! TO.C,H1*
X119800000Y-85200000D03*
G04 #@! TD*
D27*
G04 #@! TO.C,J3*
X207799999Y-109475000D03*
D28*
X207799999Y-106935000D03*
G04 #@! TD*
D29*
G04 #@! TO.C,D60*
X125800000Y-125412500D03*
X125800000Y-126987500D03*
G04 #@! TD*
D16*
G04 #@! TO.C,D5*
X119212500Y-90800000D03*
X120787500Y-90800000D03*
G04 #@! TD*
D30*
G04 #@! TO.C,D8*
X126487499Y-106399999D03*
X127887499Y-106399999D03*
G04 #@! TD*
D31*
G04 #@! TO.C,D31*
X200739999Y-99060001D03*
X200099999Y-99060001D03*
G04 #@! TD*
D26*
G04 #@! TO.C,H4*
X205800000Y-131200000D03*
G04 #@! TD*
D32*
G04 #@! TO.C,R74*
X187160000Y-113662499D03*
X188180000Y-113662499D03*
G04 #@! TD*
D33*
G04 #@! TO.C,D23*
X206550000Y-112300000D03*
X208650000Y-112300000D03*
G04 #@! TD*
D34*
G04 #@! TO.C,U7*
X201675001Y-111950001D03*
X201675001Y-111450001D03*
X201675001Y-110950001D03*
X201675001Y-110450001D03*
X201675001Y-109950001D03*
X201675001Y-109450001D03*
X201675001Y-108950001D03*
X201675001Y-108450001D03*
X201675001Y-107950001D03*
X201675001Y-107450001D03*
X201675001Y-106950001D03*
X201675001Y-106450001D03*
X201675001Y-105950001D03*
X201675001Y-105450001D03*
X201675001Y-104950001D03*
X201675001Y-104450001D03*
D35*
X200987501Y-103762501D03*
X200487501Y-103762501D03*
X199987501Y-103762501D03*
X199487501Y-103762501D03*
X198987501Y-103762501D03*
X198487501Y-103762501D03*
X197987501Y-103762501D03*
X197487501Y-103762501D03*
X196987501Y-103762501D03*
X196487501Y-103762501D03*
X195987501Y-103762501D03*
X195487501Y-103762501D03*
X194987501Y-103762501D03*
X194487501Y-103762501D03*
X193987501Y-103762501D03*
X193487501Y-103762501D03*
D34*
X192800001Y-104450001D03*
X192800001Y-104950001D03*
X192800001Y-105450001D03*
X192800001Y-105950001D03*
X192800001Y-106450001D03*
X192800001Y-106950001D03*
X192800001Y-107450001D03*
X192800001Y-107950001D03*
X192800001Y-108450001D03*
X192800001Y-108950001D03*
X192800001Y-109450001D03*
X192800001Y-109950001D03*
X192800001Y-110450001D03*
X192800001Y-110950001D03*
X192800001Y-111450001D03*
X192800001Y-111950001D03*
D35*
X193487501Y-112637501D03*
X193987501Y-112637501D03*
X194487501Y-112637501D03*
X194987501Y-112637501D03*
X195487501Y-112637501D03*
X195987501Y-112637501D03*
X196487501Y-112637501D03*
X196987501Y-112637501D03*
X197487501Y-112637501D03*
X197987501Y-112637501D03*
X198487501Y-112637501D03*
X198987501Y-112637501D03*
X199487501Y-112637501D03*
X199987501Y-112637501D03*
X200487501Y-112637501D03*
X200987501Y-112637501D03*
D36*
X197237501Y-108200001D03*
G04 #@! TD*
D37*
G04 #@! TO.C,J11*
X184800000Y-101700000D03*
D38*
X186300000Y-100225000D03*
D37*
X187800000Y-101700000D03*
D38*
X186300000Y-103175000D03*
G04 #@! TD*
D11*
G04 #@! TO.C,R46*
X124400000Y-119910000D03*
X124400000Y-118890000D03*
G04 #@! TD*
D16*
G04 #@! TO.C,D27*
X119212500Y-117500000D03*
X120787500Y-117500000D03*
G04 #@! TD*
D39*
G04 #@! TO.C,C14*
X126419999Y-105200000D03*
X127379999Y-105200000D03*
G04 #@! TD*
D11*
G04 #@! TO.C,R12*
X201570000Y-86150001D03*
X201570000Y-85130001D03*
G04 #@! TD*
D14*
G04 #@! TO.C,C100*
X188800001Y-117542500D03*
X188800001Y-118502500D03*
G04 #@! TD*
D19*
G04 #@! TO.C,C31*
X191640001Y-110980000D03*
X190680001Y-110980000D03*
G04 #@! TD*
D25*
G04 #@! TO.C,R53*
X202100000Y-89490000D03*
X202100000Y-90510000D03*
G04 #@! TD*
D16*
G04 #@! TO.C,D24*
X119212500Y-125600000D03*
X120787500Y-125600000D03*
G04 #@! TD*
D32*
G04 #@! TO.C,R47*
X128320000Y-122690000D03*
X129340000Y-122690000D03*
G04 #@! TD*
D40*
G04 #@! TO.C,D13*
X201159999Y-123187501D03*
X201159999Y-123827501D03*
G04 #@! TD*
D41*
G04 #@! TO.C,R34*
X205199999Y-114500000D03*
X208199999Y-114500000D03*
G04 #@! TD*
D23*
G04 #@! TO.C,C25*
X202910000Y-104850001D03*
X202910000Y-103890001D03*
G04 #@! TD*
D42*
G04 #@! TO.C,C5*
X144799999Y-104500001D03*
X144121177Y-103821179D03*
G04 #@! TD*
D19*
G04 #@! TO.C,C45*
X191640001Y-111950001D03*
X190680001Y-111950001D03*
G04 #@! TD*
G04 #@! TO.C,C33*
X201154001Y-102580000D03*
X200194001Y-102580000D03*
G04 #@! TD*
D23*
G04 #@! TO.C,C42*
X194879999Y-102670000D03*
X194879999Y-101710000D03*
G04 #@! TD*
D32*
G04 #@! TO.C,R69*
X194459999Y-118419999D03*
X195479999Y-118419999D03*
G04 #@! TD*
D43*
G04 #@! TO.C,D33*
X199256275Y-95486274D03*
X198803727Y-95033726D03*
G04 #@! TD*
D19*
G04 #@! TO.C,C26*
X196730000Y-102630000D03*
X195770000Y-102630000D03*
G04 #@! TD*
D32*
G04 #@! TO.C,NT12*
X134040000Y-115800001D03*
X135060000Y-115800001D03*
G04 #@! TD*
D23*
G04 #@! TO.C,C24*
X198903999Y-102670000D03*
X198903999Y-101710000D03*
G04 #@! TD*
D44*
G04 #@! TO.C,C10*
X134299999Y-101400000D03*
X134978821Y-102078822D03*
G04 #@! TD*
D25*
G04 #@! TO.C,R126*
X128100000Y-125040000D03*
X128100000Y-126060000D03*
G04 #@! TD*
D13*
G04 #@! TO.C,TP11*
X175175000Y-99450000D03*
G04 #@! TD*
D45*
G04 #@! TO.C,TP2*
X206850001Y-104100000D03*
G04 #@! TD*
D25*
G04 #@! TO.C,R10*
X128100000Y-88790000D03*
X128100000Y-89810000D03*
G04 #@! TD*
D46*
G04 #@! TO.C,U10*
X127012499Y-120550000D03*
X126362499Y-120550000D03*
X125712499Y-120550000D03*
X125712499Y-122225000D03*
X126362499Y-122225000D03*
X127012499Y-122225000D03*
G04 #@! TD*
D47*
G04 #@! TO.C,U4*
X131599999Y-105799999D03*
X131599999Y-105299999D03*
X131599999Y-104799999D03*
D48*
X131087499Y-104037499D03*
X130587499Y-104037499D03*
X130087499Y-104037499D03*
X129587499Y-104037499D03*
D47*
X129074999Y-104799999D03*
X129074999Y-105299999D03*
X129074999Y-105799999D03*
D48*
X129587499Y-106562499D03*
X130087499Y-106562499D03*
X130587499Y-106562499D03*
X131087499Y-106562499D03*
D49*
X130337499Y-105299999D03*
G04 #@! TD*
D11*
G04 #@! TO.C,R11*
X127100000Y-126060000D03*
X127100000Y-125040000D03*
G04 #@! TD*
D39*
G04 #@! TO.C,C41*
X202879999Y-105739999D03*
X203839999Y-105739999D03*
G04 #@! TD*
D32*
G04 #@! TO.C,R49*
X199540000Y-97920001D03*
X200560000Y-97920001D03*
G04 #@! TD*
D45*
G04 #@! TO.C,TP1*
X208999999Y-104100000D03*
G04 #@! TD*
D23*
G04 #@! TO.C,C36*
X191080000Y-116180000D03*
X191080000Y-115220000D03*
G04 #@! TD*
D14*
G04 #@! TO.C,C32*
X197489999Y-113780001D03*
X197489999Y-114740001D03*
G04 #@! TD*
D11*
G04 #@! TO.C,R83*
X166199999Y-123420000D03*
X166199999Y-122400000D03*
G04 #@! TD*
D13*
G04 #@! TO.C,TP9*
X177574999Y-99450000D03*
G04 #@! TD*
D50*
G04 #@! TO.C,J8*
X158230000Y-123400000D03*
X158230000Y-131000000D03*
X155690000Y-123400000D03*
X155690000Y-131000000D03*
X153150000Y-123400000D03*
X153150000Y-131000000D03*
X150610000Y-123400000D03*
X150610000Y-131000000D03*
X148070000Y-123400000D03*
X148070000Y-131000000D03*
X145530000Y-123400000D03*
X145530000Y-131000000D03*
X142990000Y-123400000D03*
X142990000Y-131000000D03*
X140450000Y-123400000D03*
X140450000Y-131000000D03*
X137910000Y-123400000D03*
X137910000Y-131000000D03*
X135370000Y-123400000D03*
X135370000Y-131000000D03*
G04 #@! TD*
D16*
G04 #@! TO.C,D2*
X119212500Y-98900000D03*
X120787500Y-98900000D03*
G04 #@! TD*
D51*
G04 #@! TO.C,D6*
X126714999Y-107700001D03*
X127684999Y-107700001D03*
G04 #@! TD*
D25*
G04 #@! TO.C,R7*
X144500000Y-100190000D03*
X144500000Y-101210000D03*
G04 #@! TD*
D52*
G04 #@! TO.C,H5*
X186300000Y-108200000D03*
D53*
X183875000Y-108200000D03*
G04 #@! TD*
D14*
G04 #@! TO.C,C121*
X166199999Y-124270000D03*
X166199999Y-125230000D03*
G04 #@! TD*
D42*
G04 #@! TO.C,C11*
X138589411Y-98339410D03*
X137910589Y-97660588D03*
G04 #@! TD*
D14*
G04 #@! TO.C,C70*
X128010000Y-120829999D03*
X128010000Y-121789999D03*
G04 #@! TD*
D54*
G04 #@! TO.C,J9*
X172370000Y-92900001D03*
X172370000Y-85300001D03*
X174910000Y-92900001D03*
X174910000Y-85300001D03*
X177450000Y-92900001D03*
X177450000Y-85300001D03*
X179990000Y-92900001D03*
X179990000Y-85300001D03*
X182530000Y-92900001D03*
X182530000Y-85300001D03*
X185070000Y-92900001D03*
X185070000Y-85300001D03*
X187610000Y-92900001D03*
X187610000Y-85300001D03*
X190150000Y-92900001D03*
X190150000Y-85300001D03*
X192690000Y-92900001D03*
X192690000Y-85300001D03*
X195230000Y-92900001D03*
X195230000Y-85300001D03*
G04 #@! TD*
D14*
G04 #@! TO.C,C2*
X140000000Y-99820001D03*
X140000000Y-100780001D03*
G04 #@! TD*
D26*
G04 #@! TO.C,H3*
X205800000Y-85200000D03*
G04 #@! TD*
D25*
G04 #@! TO.C,R21*
X202000000Y-127590001D03*
X202000000Y-128610001D03*
G04 #@! TD*
D11*
G04 #@! TO.C,R72*
X134670000Y-117910000D03*
X134670000Y-116890000D03*
G04 #@! TD*
D18*
G04 #@! TO.C,C30*
X203475000Y-111550000D03*
X205025000Y-111550000D03*
G04 #@! TD*
D55*
G04 #@! TO.C,Q2*
X205201500Y-102250000D03*
X205201500Y-100350000D03*
X203326500Y-101300000D03*
G04 #@! TD*
D56*
G04 #@! TO.C,J12*
X173700000Y-118370000D03*
D57*
X173700000Y-117880000D03*
X173700000Y-117530000D03*
D56*
X173700000Y-117040000D03*
X175200000Y-118370000D03*
D57*
X175200000Y-117880000D03*
X175200000Y-117530000D03*
D56*
X175200000Y-117040000D03*
D58*
X173750000Y-118920000D03*
X175150000Y-118920000D03*
X173750000Y-116490000D03*
X175150000Y-116490000D03*
G04 #@! TD*
D59*
G04 #@! TO.C,U5*
X130199999Y-113199999D03*
D60*
X130024999Y-113024999D03*
D61*
X130674999Y-113199999D03*
X131124999Y-113199999D03*
D59*
X131599999Y-113199999D03*
D60*
X131774999Y-113024999D03*
D62*
X130899999Y-112549999D03*
X130899999Y-112049999D03*
D60*
X131774999Y-111574999D03*
D59*
X131599999Y-111399999D03*
D61*
X131124999Y-111399999D03*
X130674999Y-111399999D03*
D60*
X130024999Y-111574999D03*
D59*
X130199999Y-111399999D03*
G04 #@! TD*
D14*
G04 #@! TO.C,C35*
X197984000Y-100780001D03*
X197984000Y-101740001D03*
G04 #@! TD*
D26*
G04 #@! TO.C,H2*
X119800000Y-131200000D03*
G04 #@! TD*
D19*
G04 #@! TO.C,C12*
X193780000Y-100000000D03*
X192820000Y-100000000D03*
G04 #@! TD*
D14*
G04 #@! TO.C,C17*
X132770000Y-104020000D03*
X132770000Y-104980000D03*
G04 #@! TD*
D25*
G04 #@! TO.C,R168*
X201570000Y-87130000D03*
X201570000Y-88150000D03*
G04 #@! TD*
D51*
G04 #@! TO.C,D7*
X126714999Y-108700001D03*
X127684999Y-108700001D03*
G04 #@! TD*
D63*
G04 #@! TO.C,D32*
X123820000Y-123250000D03*
X124460000Y-123250000D03*
G04 #@! TD*
D64*
G04 #@! TO.C,J5*
X207750000Y-98240000D03*
X203850000Y-98240000D03*
X207750000Y-96970000D03*
X203850000Y-96970000D03*
X207750000Y-95700000D03*
X203850000Y-95700000D03*
X207750000Y-94430000D03*
X203850000Y-94430000D03*
X207750000Y-93160000D03*
X203850000Y-93160000D03*
G04 #@! TD*
G04 #@! TO.C,J2*
X207749999Y-123239999D03*
X203849999Y-123239999D03*
X207749999Y-121969999D03*
X203849999Y-121969999D03*
X207749999Y-120699999D03*
X203849999Y-120699999D03*
X207749999Y-119429999D03*
X203849999Y-119429999D03*
X207749999Y-118159999D03*
X203849999Y-118159999D03*
G04 #@! TD*
D31*
G04 #@! TO.C,D30*
X200790000Y-96870000D03*
X200150000Y-96870000D03*
G04 #@! TD*
D14*
G04 #@! TO.C,C95*
X129537501Y-116882499D03*
X129537501Y-117842499D03*
G04 #@! TD*
D39*
G04 #@! TO.C,C51*
X204610000Y-112890000D03*
X205570000Y-112890000D03*
G04 #@! TD*
D63*
G04 #@! TO.C,D11*
X201450001Y-116590000D03*
X202090001Y-116590000D03*
G04 #@! TD*
D65*
G04 #@! TO.C,C22*
X136900000Y-113600000D03*
X136900000Y-108200000D03*
G04 #@! TD*
D14*
G04 #@! TO.C,C9*
X140979999Y-109950000D03*
X140979999Y-110910000D03*
G04 #@! TD*
D66*
G04 #@! TO.C,U20*
X131000000Y-116899999D03*
X131000000Y-117849999D03*
X131000000Y-118799999D03*
X133275000Y-118799999D03*
X133275000Y-117849999D03*
X133275000Y-116899999D03*
G04 #@! TD*
D67*
G04 #@! TO.C,J6*
X147299999Y-99900001D03*
X147299999Y-116500001D03*
D68*
X146999999Y-100950001D03*
X146999999Y-101450001D03*
X146999999Y-101950001D03*
X146999999Y-102450001D03*
X146999999Y-102950001D03*
X146999999Y-103450001D03*
X146999999Y-103950001D03*
X146999999Y-104450001D03*
X146999999Y-104950001D03*
X146999999Y-105450001D03*
X146999999Y-105950001D03*
X146999999Y-106450001D03*
X146999999Y-106950001D03*
X146999999Y-107450001D03*
X146999999Y-107950001D03*
X146999999Y-108450001D03*
X146999999Y-108950001D03*
X146999999Y-109450001D03*
X146999999Y-109950001D03*
X146999999Y-110450001D03*
X146999999Y-110950001D03*
X146999999Y-111450001D03*
X146999999Y-111950001D03*
X146999999Y-112450001D03*
X146999999Y-112950001D03*
X146999999Y-113450001D03*
X146999999Y-113950001D03*
X146999999Y-114450001D03*
X146999999Y-114950001D03*
X146999999Y-115450001D03*
X150599999Y-100950001D03*
X150599999Y-101450001D03*
X150599999Y-101950001D03*
X150599999Y-102450001D03*
X150599999Y-102950001D03*
X150599999Y-103450001D03*
X150599999Y-103950001D03*
X150599999Y-104450001D03*
X150599999Y-104950001D03*
X150599999Y-105450001D03*
X150599999Y-105950001D03*
X150599999Y-106450001D03*
X150599999Y-106950001D03*
X150599999Y-107450001D03*
X150599999Y-107950001D03*
X150599999Y-108450001D03*
X150599999Y-108950001D03*
X150599999Y-109450001D03*
X150599999Y-109950001D03*
X150599999Y-110450001D03*
X150599999Y-110950001D03*
X150599999Y-111450001D03*
X150599999Y-111950001D03*
X150599999Y-112450001D03*
X150599999Y-112950001D03*
X150599999Y-113450001D03*
X150599999Y-113950001D03*
X150599999Y-114450001D03*
X150599999Y-114950001D03*
X150599999Y-115450001D03*
D69*
X148799999Y-99200001D03*
X148799999Y-117200001D03*
G04 #@! TD*
D70*
G04 #@! TO.C,J1*
X122049999Y-105310001D03*
X122049999Y-111090001D03*
D71*
X123494999Y-104950001D03*
X123494999Y-105750001D03*
D72*
X123494999Y-106950001D03*
X123494999Y-107950001D03*
X123494999Y-108450001D03*
X123494999Y-109450001D03*
D71*
X123494999Y-110650001D03*
X123494999Y-111450001D03*
X123494999Y-111450001D03*
X123494999Y-110650001D03*
D72*
X123494999Y-109950001D03*
X123494999Y-108950001D03*
X123494999Y-107450001D03*
X123494999Y-106450001D03*
D71*
X123494999Y-105750001D03*
X123494999Y-104950001D03*
D73*
X122579999Y-103880001D03*
D74*
X118399999Y-103880001D03*
D73*
X122579999Y-112520001D03*
D74*
X118399999Y-112520001D03*
G04 #@! TD*
D54*
G04 #@! TO.C,J7*
X135370000Y-92900001D03*
X135370000Y-85300001D03*
X137910000Y-92900001D03*
X137910000Y-85300001D03*
X140450000Y-92900001D03*
X140450000Y-85300001D03*
X142990000Y-92900001D03*
X142990000Y-85300001D03*
X145530000Y-92900001D03*
X145530000Y-85300001D03*
X148070000Y-92900001D03*
X148070000Y-85300001D03*
X150610000Y-92900001D03*
X150610000Y-85300001D03*
X153150000Y-92900001D03*
X153150000Y-85300001D03*
X155690000Y-92900001D03*
X155690000Y-85300001D03*
X158230000Y-92900001D03*
X158230000Y-85300001D03*
G04 #@! TD*
D23*
G04 #@! TO.C,C15*
X128700001Y-108680001D03*
X128700001Y-107720001D03*
G04 #@! TD*
D19*
G04 #@! TO.C,C103*
X186050000Y-118552499D03*
X185090000Y-118552499D03*
G04 #@! TD*
D30*
G04 #@! TO.C,D9*
X126487501Y-110000000D03*
X127887501Y-110000000D03*
G04 #@! TD*
D12*
G04 #@! TO.C,R252*
X130960000Y-115200000D03*
X129940000Y-115200000D03*
G04 #@! TD*
D32*
G04 #@! TO.C,R50*
X123819999Y-122380000D03*
X124839999Y-122380000D03*
G04 #@! TD*
G04 #@! TO.C,R51*
X199740000Y-100190000D03*
X200760000Y-100190000D03*
G04 #@! TD*
D10*
G04 #@! TO.C,D40*
X125799999Y-90987501D03*
X125799999Y-89412501D03*
G04 #@! TD*
D14*
G04 #@! TO.C,C20*
X129799999Y-109520000D03*
X129799999Y-110480000D03*
G04 #@! TD*
D75*
G04 #@! TO.C,U3*
X194000000Y-97587501D03*
X193500000Y-97587501D03*
X193000000Y-97587501D03*
X193000000Y-99012501D03*
X193500000Y-99012501D03*
X194000000Y-99012501D03*
G04 #@! TD*
D76*
G04 #@! TO.C,Y1*
X136576777Y-98421143D03*
X135021142Y-99976778D03*
X136223223Y-101178859D03*
X137778858Y-99623224D03*
G04 #@! TD*
D13*
G04 #@! TO.C,TP7*
X179975000Y-99450000D03*
G04 #@! TD*
D11*
G04 #@! TO.C,R84*
X127100000Y-89810000D03*
X127100000Y-88790000D03*
G04 #@! TD*
D77*
G04 #@! TO.C,U1*
X141924999Y-116662501D03*
X142574999Y-116662501D03*
X143224999Y-116662501D03*
X143874999Y-116662501D03*
X143874999Y-110937501D03*
X143224999Y-110937501D03*
X142574999Y-110937501D03*
X141924999Y-110937501D03*
G04 #@! TD*
D42*
G04 #@! TO.C,C3*
X136800000Y-104599999D03*
X136121178Y-103921177D03*
G04 #@! TD*
D13*
G04 #@! TO.C,TP8*
X178774999Y-99450000D03*
G04 #@! TD*
D32*
G04 #@! TO.C,R76*
X201239999Y-91400001D03*
X202259999Y-91400001D03*
G04 #@! TD*
D16*
G04 #@! TO.C,D4*
X119212500Y-93500000D03*
X120787500Y-93500000D03*
G04 #@! TD*
D78*
G04 #@! TO.C,D29*
X203640000Y-90330000D03*
X203640000Y-89690000D03*
G04 #@! TD*
D19*
G04 #@! TO.C,C104*
X183970001Y-118172500D03*
X183010001Y-118172500D03*
G04 #@! TD*
D23*
G04 #@! TO.C,C58*
X167300000Y-97580000D03*
X167300000Y-96620000D03*
G04 #@! TD*
D25*
G04 #@! TO.C,R258*
X164599999Y-89590000D03*
X164599999Y-90610000D03*
G04 #@! TD*
D14*
G04 #@! TO.C,C19*
X131800001Y-109520000D03*
X131800001Y-110480000D03*
G04 #@! TD*
D16*
G04 #@! TO.C,D26*
X119212500Y-120200000D03*
X120787500Y-120200000D03*
G04 #@! TD*
G04 #@! TO.C,D3*
X119212500Y-96200000D03*
X120787500Y-96200000D03*
G04 #@! TD*
D79*
G04 #@! TO.C,J4*
X125500000Y-130400000D03*
X126500000Y-130400000D03*
X127500000Y-130400000D03*
D80*
X124200000Y-134275000D03*
X128800000Y-134275000D03*
G04 #@! TD*
D11*
G04 #@! TO.C,R73*
X187830000Y-118532500D03*
X187830000Y-117512500D03*
G04 #@! TD*
D15*
G04 #@! TO.C,C34*
X201629000Y-101390000D03*
X200079000Y-101390000D03*
G04 #@! TD*
D11*
G04 #@! TO.C,R24*
X132900000Y-115110000D03*
X132900000Y-114090000D03*
G04 #@! TD*
D12*
G04 #@! TO.C,R6*
X142810000Y-118200001D03*
X141790000Y-118200001D03*
G04 #@! TD*
D11*
G04 #@! TO.C,R210*
X202000000Y-126710000D03*
X202000000Y-125690000D03*
G04 #@! TD*
D19*
G04 #@! TO.C,C44*
X193070000Y-102600001D03*
X192110000Y-102600001D03*
G04 #@! TD*
D16*
G04 #@! TO.C,D25*
X119212500Y-122900000D03*
X120787500Y-122900000D03*
G04 #@! TD*
D32*
G04 #@! TO.C,R29*
X190080001Y-107400000D03*
X191100001Y-107400000D03*
G04 #@! TD*
D14*
G04 #@! TO.C,C28*
X202450000Y-112760000D03*
X202450000Y-113720000D03*
G04 #@! TD*
D78*
G04 #@! TO.C,D34*
X202920000Y-90330000D03*
X202920000Y-89690000D03*
G04 #@! TD*
D50*
G04 #@! TO.C,J10*
X195230000Y-123400000D03*
X195230000Y-131000000D03*
X192690000Y-123400000D03*
X192690000Y-131000000D03*
X190150000Y-123400000D03*
X190150000Y-131000000D03*
X187610000Y-123400000D03*
X187610000Y-131000000D03*
X185070000Y-123400000D03*
X185070000Y-131000000D03*
X182530000Y-123400000D03*
X182530000Y-131000000D03*
X179990000Y-123400000D03*
X179990000Y-131000000D03*
X177450000Y-123400000D03*
X177450000Y-131000000D03*
X174910000Y-123400000D03*
X174910000Y-131000000D03*
X172370000Y-123400000D03*
X172370000Y-131000000D03*
G04 #@! TD*
D81*
G04 #@! TO.C,Y2*
X192630000Y-116550000D03*
X194830000Y-116550000D03*
X194830000Y-114850000D03*
X192630000Y-114850000D03*
G04 #@! TD*
D12*
G04 #@! TO.C,R60*
X130960000Y-114260000D03*
X129940000Y-114260000D03*
G04 #@! TD*
D31*
G04 #@! TO.C,D12*
X200900001Y-117720000D03*
X200260001Y-117720000D03*
G04 #@! TD*
D44*
G04 #@! TO.C,C8*
X137760589Y-103060590D03*
X138439411Y-103739412D03*
G04 #@! TD*
D10*
G04 #@! TO.C,D100*
X204800001Y-126987500D03*
X204800001Y-125412500D03*
G04 #@! TD*
D14*
G04 #@! TO.C,C39*
X196144000Y-100780000D03*
X196144000Y-101740000D03*
G04 #@! TD*
G04 #@! TO.C,C38*
X196380000Y-115220000D03*
X196380000Y-116180000D03*
G04 #@! TD*
D32*
G04 #@! TO.C,R82*
X162089999Y-95000001D03*
X163109999Y-95000001D03*
G04 #@! TD*
D82*
G04 #@! TO.C,C1*
X142139410Y-99960590D03*
X141460588Y-100639412D03*
G04 #@! TD*
D13*
G04 #@! TO.C,TP10*
X176374999Y-99450000D03*
G04 #@! TD*
D25*
G04 #@! TO.C,R8*
X143400000Y-100190000D03*
X143400000Y-101210000D03*
G04 #@! TD*
D32*
G04 #@! TO.C,R52*
X198139999Y-96700001D03*
X199159999Y-96700001D03*
G04 #@! TD*
D39*
G04 #@! TO.C,C40*
X202879999Y-106660000D03*
X203839999Y-106660000D03*
G04 #@! TD*
D83*
G04 #@! TO.C,U21*
X187027500Y-116670000D03*
X187027500Y-116170000D03*
X187027500Y-115670000D03*
X187027500Y-115170000D03*
D84*
X186320000Y-114462500D03*
X185820000Y-114462500D03*
X185320000Y-114462500D03*
X184820000Y-114462500D03*
D83*
X184112500Y-115170000D03*
X184112500Y-115670000D03*
X184112500Y-116170000D03*
X184112500Y-116670000D03*
D84*
X184820000Y-117377500D03*
X185320000Y-117377500D03*
X185820000Y-117377500D03*
X186320000Y-117377500D03*
D85*
X185570000Y-115920000D03*
G04 #@! TD*
D86*
X210299999Y-131200001D02*
X210299999Y-131200001D01*
G75*
G02*
X205799999Y-135700001I-4499999J1D01*
G01*
X119800000Y-135700001D01*
G75*
G02*
X115300000Y-131200001I0J4500001D01*
G01*
X115300000Y-85200001D01*
G75*
G02*
X119800000Y-80700001I4500000J1D01*
G01*
X205799999Y-80700001D01*
G75*
G02*
X210299999Y-85200001I1J-4499999D01*
G01*
X210299999Y-131200001D01*
M02*
