G04 #@! TF.GenerationSoftware,KiCad,Pcbnew,10.0.5+dfsg-1*
G04 #@! TF.CreationDate,2026-09-25T10:13:48+00:00*
G04 #@! TF.ProjectId,glasgow,676c6173-676f-4772-9e6b-696361645f70,rev?*
G04 #@! TF.SameCoordinates,Original*
G04 #@! TF.FileFunction,Legend,Top*
G04 #@! TF.FilePolarity,Positive*
%FSLAX46Y46*%
G04 Gerber Fmt 4.6, Leading zero omitted, Abs format (unit mm)*
G04 Created by KiCad (PCBNEW 10.0.5+dfsg-1) date 2026-09-25 10:13:48*
%MOMM*%
%LPD*%
G01*
G04 APERTURE LIST*
%ADD10C,0.100000*%
%ADD11C,0.120000*%
%ADD12C,0.150000*%
%ADD13C,0.160000*%
%ADD14C,0.200000*%
%ADD15C,0.250000*%
G04 #@! TA.AperFunction,Profile*
%ADD16C,0.050000*%
G04 #@! TD*
G04 APERTURE END LIST*
D10*
X115600000Y-92200000D02*
X121600000Y-92200000D01*
X117500000Y-94500000D02*
X115600000Y-94500000D01*
X117500000Y-97800000D02*
X115600000Y-97800000D01*
X117700000Y-94700000D02*
X117500000Y-94500000D01*
X117800000Y-97500000D02*
X117500000Y-97800000D01*
X117800000Y-97500000D02*
X121600000Y-97500000D01*
X121600000Y-94700000D02*
X117700000Y-94700000D01*
X121600000Y-100200000D02*
X115600000Y-100200000D01*
X137200000Y-81700000D02*
X145200000Y-81700000D01*
X137200000Y-82200000D02*
X137200000Y-81700000D01*
X137200000Y-134200000D02*
X137200000Y-134700000D01*
X137200000Y-134700000D02*
X145200000Y-134700000D01*
X156400000Y-81700000D02*
X148400000Y-81700000D01*
X156400000Y-81700000D02*
X156400000Y-82200000D01*
X156400000Y-134700000D02*
X148400000Y-134700000D01*
X156400000Y-134700000D02*
X156400000Y-134200000D01*
X174200000Y-81700000D02*
X182200000Y-81700000D01*
X174200000Y-82200000D02*
X174200000Y-81700000D01*
X174200000Y-134200000D02*
X174200000Y-134700000D01*
X174200000Y-134700000D02*
X182200000Y-134700000D01*
X193400000Y-81700000D02*
X185400000Y-81700000D01*
X193400000Y-81700000D02*
X193400000Y-82200000D01*
X193400000Y-134700000D02*
X185400000Y-134700000D01*
X193400000Y-134700000D02*
X193400000Y-134200000D01*
D11*
X153067145Y-114329624D02*
X153024288Y-114372481D01*
X153024288Y-114372481D02*
X152981431Y-114458195D01*
X152981431Y-114458195D02*
X152981431Y-114543910D01*
X152981431Y-114543910D02*
X153024288Y-114629624D01*
X153024288Y-114629624D02*
X153067145Y-114672481D01*
X153067145Y-114672481D02*
X153152860Y-114715338D01*
X153152860Y-114715338D02*
X153238574Y-114715338D01*
X153238574Y-114715338D02*
X153324288Y-114672481D01*
X153324288Y-114672481D02*
X153367145Y-114629624D01*
X153367145Y-114629624D02*
X153410002Y-114543910D01*
X153410002Y-114543910D02*
X153410002Y-114458195D01*
X153410002Y-114458195D02*
X153367145Y-114372481D01*
X153367145Y-114372481D02*
X153324288Y-114329624D01*
X152981431Y-114329624D02*
X153324288Y-114329624D01*
X153324288Y-114329624D02*
X153367145Y-114286767D01*
X153367145Y-114286767D02*
X153367145Y-114243910D01*
X153367145Y-114243910D02*
X153324288Y-114158195D01*
X153324288Y-114158195D02*
X153238574Y-114115338D01*
X153238574Y-114115338D02*
X153024288Y-114115338D01*
X153024288Y-114115338D02*
X152895717Y-114201053D01*
X152895717Y-114201053D02*
X152810002Y-114329624D01*
X152810002Y-114329624D02*
X152767145Y-114501053D01*
X152767145Y-114501053D02*
X152810002Y-114672481D01*
X152810002Y-114672481D02*
X152895717Y-114801053D01*
X152895717Y-114801053D02*
X153024288Y-114886767D01*
X153024288Y-114886767D02*
X153195717Y-114929624D01*
X153195717Y-114929624D02*
X153367145Y-114886767D01*
X153367145Y-114886767D02*
X153495717Y-114801053D01*
X153495717Y-114801053D02*
X153581431Y-114672481D01*
X153581431Y-114672481D02*
X153624288Y-114501053D01*
X153624288Y-114501053D02*
X153581431Y-114329624D01*
X153581431Y-114329624D02*
X153495717Y-114201053D01*
X152895717Y-113858195D02*
X152895717Y-113515338D01*
X152595717Y-113729624D02*
X153367145Y-113729624D01*
X153367145Y-113729624D02*
X153452860Y-113686767D01*
X153452860Y-113686767D02*
X153495717Y-113601052D01*
X153495717Y-113601052D02*
X153495717Y-113515338D01*
X153495717Y-112829624D02*
X153024288Y-112829624D01*
X153024288Y-112829624D02*
X152938574Y-112872481D01*
X152938574Y-112872481D02*
X152895717Y-112958195D01*
X152895717Y-112958195D02*
X152895717Y-113129624D01*
X152895717Y-113129624D02*
X152938574Y-113215338D01*
X153452860Y-112829624D02*
X153495717Y-112915338D01*
X153495717Y-112915338D02*
X153495717Y-113129624D01*
X153495717Y-113129624D02*
X153452860Y-113215338D01*
X153452860Y-113215338D02*
X153367145Y-113258195D01*
X153367145Y-113258195D02*
X153281431Y-113258195D01*
X153281431Y-113258195D02*
X153195717Y-113215338D01*
X153195717Y-113215338D02*
X153152860Y-113129624D01*
X153152860Y-113129624D02*
X153152860Y-112915338D01*
X153152860Y-112915338D02*
X153110002Y-112829624D01*
X153452860Y-112015338D02*
X153495717Y-112101052D01*
X153495717Y-112101052D02*
X153495717Y-112272480D01*
X153495717Y-112272480D02*
X153452860Y-112358195D01*
X153452860Y-112358195D02*
X153410002Y-112401052D01*
X153410002Y-112401052D02*
X153324288Y-112443909D01*
X153324288Y-112443909D02*
X153067145Y-112443909D01*
X153067145Y-112443909D02*
X152981431Y-112401052D01*
X152981431Y-112401052D02*
X152938574Y-112358195D01*
X152938574Y-112358195D02*
X152895717Y-112272480D01*
X152895717Y-112272480D02*
X152895717Y-112101052D01*
X152895717Y-112101052D02*
X152938574Y-112015338D01*
X153495717Y-111629623D02*
X152595717Y-111629623D01*
X153495717Y-111243909D02*
X153024288Y-111243909D01*
X153024288Y-111243909D02*
X152938574Y-111286766D01*
X152938574Y-111286766D02*
X152895717Y-111372480D01*
X152895717Y-111372480D02*
X152895717Y-111501051D01*
X152895717Y-111501051D02*
X152938574Y-111586766D01*
X152938574Y-111586766D02*
X152981431Y-111629623D01*
X153495717Y-110815337D02*
X152895717Y-110815337D01*
X152595717Y-110815337D02*
X152638574Y-110858194D01*
X152638574Y-110858194D02*
X152681431Y-110815337D01*
X152681431Y-110815337D02*
X152638574Y-110772480D01*
X152638574Y-110772480D02*
X152595717Y-110815337D01*
X152595717Y-110815337D02*
X152681431Y-110815337D01*
X152895717Y-110386766D02*
X153495717Y-110386766D01*
X152981431Y-110386766D02*
X152938574Y-110343909D01*
X152938574Y-110343909D02*
X152895717Y-110258194D01*
X152895717Y-110258194D02*
X152895717Y-110129623D01*
X152895717Y-110129623D02*
X152938574Y-110043909D01*
X152938574Y-110043909D02*
X153024288Y-110001052D01*
X153024288Y-110001052D02*
X153495717Y-110001052D01*
X153495717Y-109572480D02*
X152895717Y-109572480D01*
X152595717Y-109572480D02*
X152638574Y-109615337D01*
X152638574Y-109615337D02*
X152681431Y-109572480D01*
X152681431Y-109572480D02*
X152638574Y-109529623D01*
X152638574Y-109529623D02*
X152595717Y-109572480D01*
X152595717Y-109572480D02*
X152681431Y-109572480D01*
X153452860Y-108801052D02*
X153495717Y-108886766D01*
X153495717Y-108886766D02*
X153495717Y-109058195D01*
X153495717Y-109058195D02*
X153452860Y-109143909D01*
X153452860Y-109143909D02*
X153367145Y-109186766D01*
X153367145Y-109186766D02*
X153024288Y-109186766D01*
X153024288Y-109186766D02*
X152938574Y-109143909D01*
X152938574Y-109143909D02*
X152895717Y-109058195D01*
X152895717Y-109058195D02*
X152895717Y-108886766D01*
X152895717Y-108886766D02*
X152938574Y-108801052D01*
X152938574Y-108801052D02*
X153024288Y-108758195D01*
X153024288Y-108758195D02*
X153110002Y-108758195D01*
X153110002Y-108758195D02*
X153195717Y-109186766D01*
X153495717Y-108372480D02*
X152895717Y-108372480D01*
X153067145Y-108372480D02*
X152981431Y-108329623D01*
X152981431Y-108329623D02*
X152938574Y-108286766D01*
X152938574Y-108286766D02*
X152895717Y-108201051D01*
X152895717Y-108201051D02*
X152895717Y-108115337D01*
X153452860Y-107472480D02*
X153495717Y-107558194D01*
X153495717Y-107558194D02*
X153495717Y-107729623D01*
X153495717Y-107729623D02*
X153452860Y-107815337D01*
X153452860Y-107815337D02*
X153367145Y-107858194D01*
X153367145Y-107858194D02*
X153024288Y-107858194D01*
X153024288Y-107858194D02*
X152938574Y-107815337D01*
X152938574Y-107815337D02*
X152895717Y-107729623D01*
X152895717Y-107729623D02*
X152895717Y-107558194D01*
X152895717Y-107558194D02*
X152938574Y-107472480D01*
X152938574Y-107472480D02*
X153024288Y-107429623D01*
X153024288Y-107429623D02*
X153110002Y-107429623D01*
X153110002Y-107429623D02*
X153195717Y-107858194D01*
X153495717Y-107043908D02*
X152895717Y-107043908D01*
X153067145Y-107043908D02*
X152981431Y-107001051D01*
X152981431Y-107001051D02*
X152938574Y-106958194D01*
X152938574Y-106958194D02*
X152895717Y-106872479D01*
X152895717Y-106872479D02*
X152895717Y-106786765D01*
X153495717Y-106486765D02*
X152895717Y-106486765D01*
X152595717Y-106486765D02*
X152638574Y-106529622D01*
X152638574Y-106529622D02*
X152681431Y-106486765D01*
X152681431Y-106486765D02*
X152638574Y-106443908D01*
X152638574Y-106443908D02*
X152595717Y-106486765D01*
X152595717Y-106486765D02*
X152681431Y-106486765D01*
X152895717Y-106058194D02*
X153495717Y-106058194D01*
X152981431Y-106058194D02*
X152938574Y-106015337D01*
X152938574Y-106015337D02*
X152895717Y-105929622D01*
X152895717Y-105929622D02*
X152895717Y-105801051D01*
X152895717Y-105801051D02*
X152938574Y-105715337D01*
X152938574Y-105715337D02*
X153024288Y-105672480D01*
X153024288Y-105672480D02*
X153495717Y-105672480D01*
X154516095Y-114329624D02*
X154473238Y-114372481D01*
X154473238Y-114372481D02*
X154430381Y-114458195D01*
X154430381Y-114458195D02*
X154430381Y-114543910D01*
X154430381Y-114543910D02*
X154473238Y-114629624D01*
X154473238Y-114629624D02*
X154516095Y-114672481D01*
X154516095Y-114672481D02*
X154601810Y-114715338D01*
X154601810Y-114715338D02*
X154687524Y-114715338D01*
X154687524Y-114715338D02*
X154773238Y-114672481D01*
X154773238Y-114672481D02*
X154816095Y-114629624D01*
X154816095Y-114629624D02*
X154858952Y-114543910D01*
X154858952Y-114543910D02*
X154858952Y-114458195D01*
X154858952Y-114458195D02*
X154816095Y-114372481D01*
X154816095Y-114372481D02*
X154773238Y-114329624D01*
X154430381Y-114329624D02*
X154773238Y-114329624D01*
X154773238Y-114329624D02*
X154816095Y-114286767D01*
X154816095Y-114286767D02*
X154816095Y-114243910D01*
X154816095Y-114243910D02*
X154773238Y-114158195D01*
X154773238Y-114158195D02*
X154687524Y-114115338D01*
X154687524Y-114115338D02*
X154473238Y-114115338D01*
X154473238Y-114115338D02*
X154344667Y-114201053D01*
X154344667Y-114201053D02*
X154258952Y-114329624D01*
X154258952Y-114329624D02*
X154216095Y-114501053D01*
X154216095Y-114501053D02*
X154258952Y-114672481D01*
X154258952Y-114672481D02*
X154344667Y-114801053D01*
X154344667Y-114801053D02*
X154473238Y-114886767D01*
X154473238Y-114886767D02*
X154644667Y-114929624D01*
X154644667Y-114929624D02*
X154816095Y-114886767D01*
X154816095Y-114886767D02*
X154944667Y-114801053D01*
X154944667Y-114801053D02*
X155030381Y-114672481D01*
X155030381Y-114672481D02*
X155073238Y-114501053D01*
X155073238Y-114501053D02*
X155030381Y-114329624D01*
X155030381Y-114329624D02*
X154944667Y-114201053D01*
X154344667Y-113815338D02*
X154944667Y-113643910D01*
X154944667Y-113643910D02*
X154516095Y-113472481D01*
X154516095Y-113472481D02*
X154944667Y-113301052D01*
X154944667Y-113301052D02*
X154344667Y-113129624D01*
X154944667Y-112786767D02*
X154044667Y-112786767D01*
X154944667Y-112401053D02*
X154473238Y-112401053D01*
X154473238Y-112401053D02*
X154387524Y-112443910D01*
X154387524Y-112443910D02*
X154344667Y-112529624D01*
X154344667Y-112529624D02*
X154344667Y-112658195D01*
X154344667Y-112658195D02*
X154387524Y-112743910D01*
X154387524Y-112743910D02*
X154430381Y-112786767D01*
X154944667Y-111972481D02*
X154344667Y-111972481D01*
X154044667Y-111972481D02*
X154087524Y-112015338D01*
X154087524Y-112015338D02*
X154130381Y-111972481D01*
X154130381Y-111972481D02*
X154087524Y-111929624D01*
X154087524Y-111929624D02*
X154044667Y-111972481D01*
X154044667Y-111972481D02*
X154130381Y-111972481D01*
X154344667Y-111672481D02*
X154344667Y-111329624D01*
X154044667Y-111543910D02*
X154816095Y-111543910D01*
X154816095Y-111543910D02*
X154901810Y-111501053D01*
X154901810Y-111501053D02*
X154944667Y-111415338D01*
X154944667Y-111415338D02*
X154944667Y-111329624D01*
X154901810Y-110686767D02*
X154944667Y-110772481D01*
X154944667Y-110772481D02*
X154944667Y-110943910D01*
X154944667Y-110943910D02*
X154901810Y-111029624D01*
X154901810Y-111029624D02*
X154816095Y-111072481D01*
X154816095Y-111072481D02*
X154473238Y-111072481D01*
X154473238Y-111072481D02*
X154387524Y-111029624D01*
X154387524Y-111029624D02*
X154344667Y-110943910D01*
X154344667Y-110943910D02*
X154344667Y-110772481D01*
X154344667Y-110772481D02*
X154387524Y-110686767D01*
X154387524Y-110686767D02*
X154473238Y-110643910D01*
X154473238Y-110643910D02*
X154558952Y-110643910D01*
X154558952Y-110643910D02*
X154644667Y-111072481D01*
X154344667Y-109872481D02*
X155244667Y-109872481D01*
X154901810Y-109872481D02*
X154944667Y-109958195D01*
X154944667Y-109958195D02*
X154944667Y-110129623D01*
X154944667Y-110129623D02*
X154901810Y-110215338D01*
X154901810Y-110215338D02*
X154858952Y-110258195D01*
X154858952Y-110258195D02*
X154773238Y-110301052D01*
X154773238Y-110301052D02*
X154516095Y-110301052D01*
X154516095Y-110301052D02*
X154430381Y-110258195D01*
X154430381Y-110258195D02*
X154387524Y-110215338D01*
X154387524Y-110215338D02*
X154344667Y-110129623D01*
X154344667Y-110129623D02*
X154344667Y-109958195D01*
X154344667Y-109958195D02*
X154387524Y-109872481D01*
X154344667Y-109058195D02*
X154944667Y-109058195D01*
X154344667Y-109443909D02*
X154816095Y-109443909D01*
X154816095Y-109443909D02*
X154901810Y-109401052D01*
X154901810Y-109401052D02*
X154944667Y-109315337D01*
X154944667Y-109315337D02*
X154944667Y-109186766D01*
X154944667Y-109186766D02*
X154901810Y-109101052D01*
X154901810Y-109101052D02*
X154858952Y-109058195D01*
X154944667Y-108243909D02*
X154473238Y-108243909D01*
X154473238Y-108243909D02*
X154387524Y-108286766D01*
X154387524Y-108286766D02*
X154344667Y-108372480D01*
X154344667Y-108372480D02*
X154344667Y-108543909D01*
X154344667Y-108543909D02*
X154387524Y-108629623D01*
X154901810Y-108243909D02*
X154944667Y-108329623D01*
X154944667Y-108329623D02*
X154944667Y-108543909D01*
X154944667Y-108543909D02*
X154901810Y-108629623D01*
X154901810Y-108629623D02*
X154816095Y-108672480D01*
X154816095Y-108672480D02*
X154730381Y-108672480D01*
X154730381Y-108672480D02*
X154644667Y-108629623D01*
X154644667Y-108629623D02*
X154601810Y-108543909D01*
X154601810Y-108543909D02*
X154601810Y-108329623D01*
X154601810Y-108329623D02*
X154558952Y-108243909D01*
X154944667Y-107815337D02*
X154344667Y-107815337D01*
X154516095Y-107815337D02*
X154430381Y-107772480D01*
X154430381Y-107772480D02*
X154387524Y-107729623D01*
X154387524Y-107729623D02*
X154344667Y-107643908D01*
X154344667Y-107643908D02*
X154344667Y-107558194D01*
X154944667Y-107258194D02*
X154044667Y-107258194D01*
X154601810Y-107172480D02*
X154944667Y-106915337D01*
X154344667Y-106915337D02*
X154687524Y-107258194D01*
X155493617Y-115015338D02*
X155493617Y-114501053D01*
X156393617Y-114758195D02*
X155493617Y-114758195D01*
X156350760Y-113858196D02*
X156393617Y-113943910D01*
X156393617Y-113943910D02*
X156393617Y-114115339D01*
X156393617Y-114115339D02*
X156350760Y-114201053D01*
X156350760Y-114201053D02*
X156265045Y-114243910D01*
X156265045Y-114243910D02*
X155922188Y-114243910D01*
X155922188Y-114243910D02*
X155836474Y-114201053D01*
X155836474Y-114201053D02*
X155793617Y-114115339D01*
X155793617Y-114115339D02*
X155793617Y-113943910D01*
X155793617Y-113943910D02*
X155836474Y-113858196D01*
X155836474Y-113858196D02*
X155922188Y-113815339D01*
X155922188Y-113815339D02*
X156007902Y-113815339D01*
X156007902Y-113815339D02*
X156093617Y-114243910D01*
X156393617Y-113429624D02*
X155793617Y-113429624D01*
X155965045Y-113429624D02*
X155879331Y-113386767D01*
X155879331Y-113386767D02*
X155836474Y-113343910D01*
X155836474Y-113343910D02*
X155793617Y-113258195D01*
X155793617Y-113258195D02*
X155793617Y-113172481D01*
X156393617Y-112872481D02*
X155793617Y-112872481D01*
X155965045Y-112872481D02*
X155879331Y-112829624D01*
X155879331Y-112829624D02*
X155836474Y-112786767D01*
X155836474Y-112786767D02*
X155793617Y-112701052D01*
X155793617Y-112701052D02*
X155793617Y-112615338D01*
X156393617Y-111929624D02*
X155922188Y-111929624D01*
X155922188Y-111929624D02*
X155836474Y-111972481D01*
X155836474Y-111972481D02*
X155793617Y-112058195D01*
X155793617Y-112058195D02*
X155793617Y-112229624D01*
X155793617Y-112229624D02*
X155836474Y-112315338D01*
X156350760Y-111929624D02*
X156393617Y-112015338D01*
X156393617Y-112015338D02*
X156393617Y-112229624D01*
X156393617Y-112229624D02*
X156350760Y-112315338D01*
X156350760Y-112315338D02*
X156265045Y-112358195D01*
X156265045Y-112358195D02*
X156179331Y-112358195D01*
X156179331Y-112358195D02*
X156093617Y-112315338D01*
X156093617Y-112315338D02*
X156050760Y-112229624D01*
X156050760Y-112229624D02*
X156050760Y-112015338D01*
X156050760Y-112015338D02*
X156007902Y-111929624D01*
X156350760Y-111458195D02*
X156393617Y-111458195D01*
X156393617Y-111458195D02*
X156479331Y-111501052D01*
X156479331Y-111501052D02*
X156522188Y-111543909D01*
X156350760Y-110043910D02*
X156393617Y-110129624D01*
X156393617Y-110129624D02*
X156393617Y-110301053D01*
X156393617Y-110301053D02*
X156350760Y-110386767D01*
X156350760Y-110386767D02*
X156265045Y-110429624D01*
X156265045Y-110429624D02*
X155922188Y-110429624D01*
X155922188Y-110429624D02*
X155836474Y-110386767D01*
X155836474Y-110386767D02*
X155793617Y-110301053D01*
X155793617Y-110301053D02*
X155793617Y-110129624D01*
X155793617Y-110129624D02*
X155836474Y-110043910D01*
X155836474Y-110043910D02*
X155922188Y-110001053D01*
X155922188Y-110001053D02*
X156007902Y-110001053D01*
X156007902Y-110001053D02*
X156093617Y-110429624D01*
X155793617Y-109229624D02*
X156693617Y-109229624D01*
X156350760Y-109229624D02*
X156393617Y-109315338D01*
X156393617Y-109315338D02*
X156393617Y-109486766D01*
X156393617Y-109486766D02*
X156350760Y-109572481D01*
X156350760Y-109572481D02*
X156307902Y-109615338D01*
X156307902Y-109615338D02*
X156222188Y-109658195D01*
X156222188Y-109658195D02*
X155965045Y-109658195D01*
X155965045Y-109658195D02*
X155879331Y-109615338D01*
X155879331Y-109615338D02*
X155836474Y-109572481D01*
X155836474Y-109572481D02*
X155793617Y-109486766D01*
X155793617Y-109486766D02*
X155793617Y-109315338D01*
X155793617Y-109315338D02*
X155836474Y-109229624D01*
X156393617Y-107729624D02*
X155922188Y-107729624D01*
X155922188Y-107729624D02*
X155836474Y-107772481D01*
X155836474Y-107772481D02*
X155793617Y-107858195D01*
X155793617Y-107858195D02*
X155793617Y-108029624D01*
X155793617Y-108029624D02*
X155836474Y-108115338D01*
X156350760Y-107729624D02*
X156393617Y-107815338D01*
X156393617Y-107815338D02*
X156393617Y-108029624D01*
X156393617Y-108029624D02*
X156350760Y-108115338D01*
X156350760Y-108115338D02*
X156265045Y-108158195D01*
X156265045Y-108158195D02*
X156179331Y-108158195D01*
X156179331Y-108158195D02*
X156093617Y-108115338D01*
X156093617Y-108115338D02*
X156050760Y-108029624D01*
X156050760Y-108029624D02*
X156050760Y-107815338D01*
X156050760Y-107815338D02*
X156007902Y-107729624D01*
X155793617Y-107301052D02*
X156393617Y-107301052D01*
X155879331Y-107301052D02*
X155836474Y-107258195D01*
X155836474Y-107258195D02*
X155793617Y-107172480D01*
X155793617Y-107172480D02*
X155793617Y-107043909D01*
X155793617Y-107043909D02*
X155836474Y-106958195D01*
X155836474Y-106958195D02*
X155922188Y-106915338D01*
X155922188Y-106915338D02*
X156393617Y-106915338D01*
X156393617Y-106101052D02*
X155493617Y-106101052D01*
X156350760Y-106101052D02*
X156393617Y-106186766D01*
X156393617Y-106186766D02*
X156393617Y-106358194D01*
X156393617Y-106358194D02*
X156350760Y-106443909D01*
X156350760Y-106443909D02*
X156307902Y-106486766D01*
X156307902Y-106486766D02*
X156222188Y-106529623D01*
X156222188Y-106529623D02*
X155965045Y-106529623D01*
X155965045Y-106529623D02*
X155879331Y-106486766D01*
X155879331Y-106486766D02*
X155836474Y-106443909D01*
X155836474Y-106443909D02*
X155793617Y-106358194D01*
X155793617Y-106358194D02*
X155793617Y-106186766D01*
X155793617Y-106186766D02*
X155836474Y-106101052D01*
X156393617Y-104858194D02*
X156350760Y-104943909D01*
X156350760Y-104943909D02*
X156307902Y-104986766D01*
X156307902Y-104986766D02*
X156222188Y-105029623D01*
X156222188Y-105029623D02*
X155965045Y-105029623D01*
X155965045Y-105029623D02*
X155879331Y-104986766D01*
X155879331Y-104986766D02*
X155836474Y-104943909D01*
X155836474Y-104943909D02*
X155793617Y-104858194D01*
X155793617Y-104858194D02*
X155793617Y-104729623D01*
X155793617Y-104729623D02*
X155836474Y-104643909D01*
X155836474Y-104643909D02*
X155879331Y-104601052D01*
X155879331Y-104601052D02*
X155965045Y-104558194D01*
X155965045Y-104558194D02*
X156222188Y-104558194D01*
X156222188Y-104558194D02*
X156307902Y-104601052D01*
X156307902Y-104601052D02*
X156350760Y-104643909D01*
X156350760Y-104643909D02*
X156393617Y-104729623D01*
X156393617Y-104729623D02*
X156393617Y-104858194D01*
X155793617Y-104301051D02*
X155793617Y-103958194D01*
X155493617Y-104172480D02*
X156265045Y-104172480D01*
X156265045Y-104172480D02*
X156350760Y-104129623D01*
X156350760Y-104129623D02*
X156393617Y-104043908D01*
X156393617Y-104043908D02*
X156393617Y-103958194D01*
X156393617Y-103658194D02*
X155493617Y-103658194D01*
X156393617Y-103272480D02*
X155922188Y-103272480D01*
X155922188Y-103272480D02*
X155836474Y-103315337D01*
X155836474Y-103315337D02*
X155793617Y-103401051D01*
X155793617Y-103401051D02*
X155793617Y-103529622D01*
X155793617Y-103529622D02*
X155836474Y-103615337D01*
X155836474Y-103615337D02*
X155879331Y-103658194D01*
X156350760Y-102501051D02*
X156393617Y-102586765D01*
X156393617Y-102586765D02*
X156393617Y-102758194D01*
X156393617Y-102758194D02*
X156350760Y-102843908D01*
X156350760Y-102843908D02*
X156265045Y-102886765D01*
X156265045Y-102886765D02*
X155922188Y-102886765D01*
X155922188Y-102886765D02*
X155836474Y-102843908D01*
X155836474Y-102843908D02*
X155793617Y-102758194D01*
X155793617Y-102758194D02*
X155793617Y-102586765D01*
X155793617Y-102586765D02*
X155836474Y-102501051D01*
X155836474Y-102501051D02*
X155922188Y-102458194D01*
X155922188Y-102458194D02*
X156007902Y-102458194D01*
X156007902Y-102458194D02*
X156093617Y-102886765D01*
X156393617Y-102072479D02*
X155793617Y-102072479D01*
X155965045Y-102072479D02*
X155879331Y-102029622D01*
X155879331Y-102029622D02*
X155836474Y-101986765D01*
X155836474Y-101986765D02*
X155793617Y-101901050D01*
X155793617Y-101901050D02*
X155793617Y-101815336D01*
X156350760Y-101558193D02*
X156393617Y-101472479D01*
X156393617Y-101472479D02*
X156393617Y-101301050D01*
X156393617Y-101301050D02*
X156350760Y-101215336D01*
X156350760Y-101215336D02*
X156265045Y-101172479D01*
X156265045Y-101172479D02*
X156222188Y-101172479D01*
X156222188Y-101172479D02*
X156136474Y-101215336D01*
X156136474Y-101215336D02*
X156093617Y-101301050D01*
X156093617Y-101301050D02*
X156093617Y-101429622D01*
X156093617Y-101429622D02*
X156050760Y-101515336D01*
X156050760Y-101515336D02*
X155965045Y-101558193D01*
X155965045Y-101558193D02*
X155922188Y-101558193D01*
X155922188Y-101558193D02*
X155836474Y-101515336D01*
X155836474Y-101515336D02*
X155793617Y-101429622D01*
X155793617Y-101429622D02*
X155793617Y-101301050D01*
X155793617Y-101301050D02*
X155836474Y-101215336D01*
X155793617Y-99415337D02*
X156050760Y-100101051D01*
X156050760Y-100101051D02*
X156307902Y-99415337D01*
X155493617Y-99072479D02*
X155493617Y-98515336D01*
X155493617Y-98515336D02*
X155836474Y-98815336D01*
X155836474Y-98815336D02*
X155836474Y-98686765D01*
X155836474Y-98686765D02*
X155879331Y-98601051D01*
X155879331Y-98601051D02*
X155922188Y-98558193D01*
X155922188Y-98558193D02*
X156007902Y-98515336D01*
X156007902Y-98515336D02*
X156222188Y-98515336D01*
X156222188Y-98515336D02*
X156307902Y-98558193D01*
X156307902Y-98558193D02*
X156350760Y-98601051D01*
X156350760Y-98601051D02*
X156393617Y-98686765D01*
X156393617Y-98686765D02*
X156393617Y-98943908D01*
X156393617Y-98943908D02*
X156350760Y-99029622D01*
X156350760Y-99029622D02*
X156307902Y-99072479D01*
X167993909Y-115869239D02*
X168079623Y-115826381D01*
X168079623Y-115826381D02*
X168251052Y-115826381D01*
X168251052Y-115826381D02*
X168336766Y-115869239D01*
X168336766Y-115869239D02*
X168379623Y-115954953D01*
X168379623Y-115954953D02*
X168379623Y-116297810D01*
X168379623Y-116297810D02*
X168336766Y-116383524D01*
X168336766Y-116383524D02*
X168251052Y-116426381D01*
X168251052Y-116426381D02*
X168079623Y-116426381D01*
X168079623Y-116426381D02*
X167993909Y-116383524D01*
X167993909Y-116383524D02*
X167951052Y-116297810D01*
X167951052Y-116297810D02*
X167951052Y-116212096D01*
X167951052Y-116212096D02*
X168379623Y-116126381D01*
X167565337Y-116426381D02*
X167565337Y-115826381D01*
X167565337Y-116340667D02*
X167522480Y-116383524D01*
X167522480Y-116383524D02*
X167436765Y-116426381D01*
X167436765Y-116426381D02*
X167308194Y-116426381D01*
X167308194Y-116426381D02*
X167222480Y-116383524D01*
X167222480Y-116383524D02*
X167179623Y-116297810D01*
X167179623Y-116297810D02*
X167179623Y-115826381D01*
X166365337Y-116426381D02*
X166365337Y-115697810D01*
X166365337Y-115697810D02*
X166408194Y-115612096D01*
X166408194Y-115612096D02*
X166451051Y-115569239D01*
X166451051Y-115569239D02*
X166536765Y-115526381D01*
X166536765Y-115526381D02*
X166665337Y-115526381D01*
X166665337Y-115526381D02*
X166751051Y-115569239D01*
X166365337Y-115869239D02*
X166451051Y-115826381D01*
X166451051Y-115826381D02*
X166622479Y-115826381D01*
X166622479Y-115826381D02*
X166708194Y-115869239D01*
X166708194Y-115869239D02*
X166751051Y-115912096D01*
X166751051Y-115912096D02*
X166793908Y-115997810D01*
X166793908Y-115997810D02*
X166793908Y-116254953D01*
X166793908Y-116254953D02*
X166751051Y-116340667D01*
X166751051Y-116340667D02*
X166708194Y-116383524D01*
X166708194Y-116383524D02*
X166622479Y-116426381D01*
X166622479Y-116426381D02*
X166451051Y-116426381D01*
X166451051Y-116426381D02*
X166365337Y-116383524D01*
X165936765Y-115826381D02*
X165936765Y-116426381D01*
X165936765Y-116726381D02*
X165979622Y-116683524D01*
X165979622Y-116683524D02*
X165936765Y-116640667D01*
X165936765Y-116640667D02*
X165893908Y-116683524D01*
X165893908Y-116683524D02*
X165936765Y-116726381D01*
X165936765Y-116726381D02*
X165936765Y-116640667D01*
X165508194Y-116426381D02*
X165508194Y-115826381D01*
X165508194Y-116340667D02*
X165465337Y-116383524D01*
X165465337Y-116383524D02*
X165379622Y-116426381D01*
X165379622Y-116426381D02*
X165251051Y-116426381D01*
X165251051Y-116426381D02*
X165165337Y-116383524D01*
X165165337Y-116383524D02*
X165122480Y-116297810D01*
X165122480Y-116297810D02*
X165122480Y-115826381D01*
X164351051Y-115869239D02*
X164436765Y-115826381D01*
X164436765Y-115826381D02*
X164608194Y-115826381D01*
X164608194Y-115826381D02*
X164693908Y-115869239D01*
X164693908Y-115869239D02*
X164736765Y-115954953D01*
X164736765Y-115954953D02*
X164736765Y-116297810D01*
X164736765Y-116297810D02*
X164693908Y-116383524D01*
X164693908Y-116383524D02*
X164608194Y-116426381D01*
X164608194Y-116426381D02*
X164436765Y-116426381D01*
X164436765Y-116426381D02*
X164351051Y-116383524D01*
X164351051Y-116383524D02*
X164308194Y-116297810D01*
X164308194Y-116297810D02*
X164308194Y-116212096D01*
X164308194Y-116212096D02*
X164736765Y-116126381D01*
X163579622Y-115869239D02*
X163665336Y-115826381D01*
X163665336Y-115826381D02*
X163836765Y-115826381D01*
X163836765Y-115826381D02*
X163922479Y-115869239D01*
X163922479Y-115869239D02*
X163965336Y-115954953D01*
X163965336Y-115954953D02*
X163965336Y-116297810D01*
X163965336Y-116297810D02*
X163922479Y-116383524D01*
X163922479Y-116383524D02*
X163836765Y-116426381D01*
X163836765Y-116426381D02*
X163665336Y-116426381D01*
X163665336Y-116426381D02*
X163579622Y-116383524D01*
X163579622Y-116383524D02*
X163536765Y-116297810D01*
X163536765Y-116297810D02*
X163536765Y-116212096D01*
X163536765Y-116212096D02*
X163965336Y-116126381D01*
X163151050Y-115826381D02*
X163151050Y-116426381D01*
X163151050Y-116254953D02*
X163108193Y-116340667D01*
X163108193Y-116340667D02*
X163065336Y-116383524D01*
X163065336Y-116383524D02*
X162979621Y-116426381D01*
X162979621Y-116426381D02*
X162893907Y-116426381D01*
X162251050Y-115869239D02*
X162336764Y-115826381D01*
X162336764Y-115826381D02*
X162508193Y-115826381D01*
X162508193Y-115826381D02*
X162593907Y-115869239D01*
X162593907Y-115869239D02*
X162636764Y-115954953D01*
X162636764Y-115954953D02*
X162636764Y-116297810D01*
X162636764Y-116297810D02*
X162593907Y-116383524D01*
X162593907Y-116383524D02*
X162508193Y-116426381D01*
X162508193Y-116426381D02*
X162336764Y-116426381D01*
X162336764Y-116426381D02*
X162251050Y-116383524D01*
X162251050Y-116383524D02*
X162208193Y-116297810D01*
X162208193Y-116297810D02*
X162208193Y-116212096D01*
X162208193Y-116212096D02*
X162636764Y-116126381D01*
X161436764Y-115826381D02*
X161436764Y-116726381D01*
X161436764Y-115869239D02*
X161522478Y-115826381D01*
X161522478Y-115826381D02*
X161693906Y-115826381D01*
X161693906Y-115826381D02*
X161779621Y-115869239D01*
X161779621Y-115869239D02*
X161822478Y-115912096D01*
X161822478Y-115912096D02*
X161865335Y-115997810D01*
X161865335Y-115997810D02*
X161865335Y-116254953D01*
X161865335Y-116254953D02*
X161822478Y-116340667D01*
X161822478Y-116340667D02*
X161779621Y-116383524D01*
X161779621Y-116383524D02*
X161693906Y-116426381D01*
X161693906Y-116426381D02*
X161522478Y-116426381D01*
X161522478Y-116426381D02*
X161436764Y-116383524D01*
X160408192Y-116426381D02*
X160236764Y-115826381D01*
X160236764Y-115826381D02*
X160065335Y-116254953D01*
X160065335Y-116254953D02*
X159893906Y-115826381D01*
X159893906Y-115826381D02*
X159722478Y-116426381D01*
X159379621Y-115826381D02*
X159379621Y-116426381D01*
X159379621Y-116726381D02*
X159422478Y-116683524D01*
X159422478Y-116683524D02*
X159379621Y-116640667D01*
X159379621Y-116640667D02*
X159336764Y-116683524D01*
X159336764Y-116683524D02*
X159379621Y-116726381D01*
X159379621Y-116726381D02*
X159379621Y-116640667D01*
X159079621Y-116426381D02*
X158736764Y-116426381D01*
X158951050Y-116726381D02*
X158951050Y-115954953D01*
X158951050Y-115954953D02*
X158908193Y-115869239D01*
X158908193Y-115869239D02*
X158822478Y-115826381D01*
X158822478Y-115826381D02*
X158736764Y-115826381D01*
X158436764Y-115826381D02*
X158436764Y-116726381D01*
X158051050Y-115826381D02*
X158051050Y-116297810D01*
X158051050Y-116297810D02*
X158093907Y-116383524D01*
X158093907Y-116383524D02*
X158179621Y-116426381D01*
X158179621Y-116426381D02*
X158308192Y-116426381D01*
X158308192Y-116426381D02*
X158393907Y-116383524D01*
X158393907Y-116383524D02*
X158436764Y-116340667D01*
X156808192Y-115826381D02*
X156893907Y-115869239D01*
X156893907Y-115869239D02*
X156936764Y-115954953D01*
X156936764Y-115954953D02*
X156936764Y-116726381D01*
X156336763Y-115826381D02*
X156422478Y-115869239D01*
X156422478Y-115869239D02*
X156465335Y-115912096D01*
X156465335Y-115912096D02*
X156508192Y-115997810D01*
X156508192Y-115997810D02*
X156508192Y-116254953D01*
X156508192Y-116254953D02*
X156465335Y-116340667D01*
X156465335Y-116340667D02*
X156422478Y-116383524D01*
X156422478Y-116383524D02*
X156336763Y-116426381D01*
X156336763Y-116426381D02*
X156208192Y-116426381D01*
X156208192Y-116426381D02*
X156122478Y-116383524D01*
X156122478Y-116383524D02*
X156079621Y-116340667D01*
X156079621Y-116340667D02*
X156036763Y-116254953D01*
X156036763Y-116254953D02*
X156036763Y-115997810D01*
X156036763Y-115997810D02*
X156079621Y-115912096D01*
X156079621Y-115912096D02*
X156122478Y-115869239D01*
X156122478Y-115869239D02*
X156208192Y-115826381D01*
X156208192Y-115826381D02*
X156336763Y-115826381D01*
X155736763Y-116426381D02*
X155522477Y-115826381D01*
X155522477Y-115826381D02*
X155308192Y-116426381D01*
X154622478Y-115869239D02*
X154708192Y-115826381D01*
X154708192Y-115826381D02*
X154879621Y-115826381D01*
X154879621Y-115826381D02*
X154965335Y-115869239D01*
X154965335Y-115869239D02*
X155008192Y-115954953D01*
X155008192Y-115954953D02*
X155008192Y-116297810D01*
X155008192Y-116297810D02*
X154965335Y-116383524D01*
X154965335Y-116383524D02*
X154879621Y-116426381D01*
X154879621Y-116426381D02*
X154708192Y-116426381D01*
X154708192Y-116426381D02*
X154622478Y-116383524D01*
X154622478Y-116383524D02*
X154579621Y-116297810D01*
X154579621Y-116297810D02*
X154579621Y-116212096D01*
X154579621Y-116212096D02*
X155008192Y-116126381D01*
X153508192Y-115826381D02*
X153508192Y-116726381D01*
X153508192Y-116383524D02*
X153422478Y-116426381D01*
X153422478Y-116426381D02*
X153251049Y-116426381D01*
X153251049Y-116426381D02*
X153165335Y-116383524D01*
X153165335Y-116383524D02*
X153122478Y-116340667D01*
X153122478Y-116340667D02*
X153079620Y-116254953D01*
X153079620Y-116254953D02*
X153079620Y-115997810D01*
X153079620Y-115997810D02*
X153122478Y-115912096D01*
X153122478Y-115912096D02*
X153165335Y-115869239D01*
X153165335Y-115869239D02*
X153251049Y-115826381D01*
X153251049Y-115826381D02*
X153422478Y-115826381D01*
X153422478Y-115826381D02*
X153508192Y-115869239D01*
X152779620Y-116426381D02*
X152565334Y-115826381D01*
X152351049Y-116426381D02*
X152565334Y-115826381D01*
X152565334Y-115826381D02*
X152651049Y-115612096D01*
X152651049Y-115612096D02*
X152693906Y-115569239D01*
X152693906Y-115569239D02*
X152779620Y-115526381D01*
D10*
X197103884Y-119905752D02*
X197103884Y-120905752D01*
X197580074Y-120429561D02*
X197627693Y-120524800D01*
X197627693Y-120524800D02*
X197722931Y-120572419D01*
X197103884Y-120429561D02*
X197151503Y-120524800D01*
X197151503Y-120524800D02*
X197246741Y-120572419D01*
X197246741Y-120572419D02*
X197437217Y-120572419D01*
X197437217Y-120572419D02*
X197532455Y-120524800D01*
X197532455Y-120524800D02*
X197580074Y-120429561D01*
X197580074Y-120429561D02*
X197580074Y-119905752D01*
X198722931Y-120477180D02*
X198675312Y-120524800D01*
X198675312Y-120524800D02*
X198532455Y-120572419D01*
X198532455Y-120572419D02*
X198437217Y-120572419D01*
X198437217Y-120572419D02*
X198294360Y-120524800D01*
X198294360Y-120524800D02*
X198199122Y-120429561D01*
X198199122Y-120429561D02*
X198151503Y-120334323D01*
X198151503Y-120334323D02*
X198103884Y-120143847D01*
X198103884Y-120143847D02*
X198103884Y-120000990D01*
X198103884Y-120000990D02*
X198151503Y-119810514D01*
X198151503Y-119810514D02*
X198199122Y-119715276D01*
X198199122Y-119715276D02*
X198294360Y-119620038D01*
X198294360Y-119620038D02*
X198437217Y-119572419D01*
X198437217Y-119572419D02*
X198532455Y-119572419D01*
X198532455Y-119572419D02*
X198675312Y-119620038D01*
X198675312Y-119620038D02*
X198722931Y-119667657D01*
D12*
X115736779Y-90746009D02*
X116070112Y-90746009D01*
X116212969Y-91269819D02*
X115736779Y-91269819D01*
X115736779Y-91269819D02*
X115736779Y-90269819D01*
X115736779Y-90269819D02*
X116212969Y-90269819D01*
X117212969Y-91269819D02*
X116879636Y-90793628D01*
X116641541Y-91269819D02*
X116641541Y-90269819D01*
X116641541Y-90269819D02*
X117022493Y-90269819D01*
X117022493Y-90269819D02*
X117117731Y-90317438D01*
X117117731Y-90317438D02*
X117165350Y-90365057D01*
X117165350Y-90365057D02*
X117212969Y-90460295D01*
X117212969Y-90460295D02*
X117212969Y-90603152D01*
X117212969Y-90603152D02*
X117165350Y-90698390D01*
X117165350Y-90698390D02*
X117117731Y-90746009D01*
X117117731Y-90746009D02*
X117022493Y-90793628D01*
X117022493Y-90793628D02*
X116641541Y-90793628D01*
X118212969Y-91269819D02*
X117879636Y-90793628D01*
X117641541Y-91269819D02*
X117641541Y-90269819D01*
X117641541Y-90269819D02*
X118022493Y-90269819D01*
X118022493Y-90269819D02*
X118117731Y-90317438D01*
X118117731Y-90317438D02*
X118165350Y-90365057D01*
X118165350Y-90365057D02*
X118212969Y-90460295D01*
X118212969Y-90460295D02*
X118212969Y-90603152D01*
X118212969Y-90603152D02*
X118165350Y-90698390D01*
X118165350Y-90698390D02*
X118117731Y-90746009D01*
X118117731Y-90746009D02*
X118022493Y-90793628D01*
X118022493Y-90793628D02*
X117641541Y-90793628D01*
X115789160Y-93684104D02*
X116265350Y-93684104D01*
X115693922Y-93969819D02*
X116027255Y-92969819D01*
X116027255Y-92969819D02*
X116360588Y-93969819D01*
X117265350Y-93874580D02*
X117217731Y-93922200D01*
X117217731Y-93922200D02*
X117074874Y-93969819D01*
X117074874Y-93969819D02*
X116979636Y-93969819D01*
X116979636Y-93969819D02*
X116836779Y-93922200D01*
X116836779Y-93922200D02*
X116741541Y-93826961D01*
X116741541Y-93826961D02*
X116693922Y-93731723D01*
X116693922Y-93731723D02*
X116646303Y-93541247D01*
X116646303Y-93541247D02*
X116646303Y-93398390D01*
X116646303Y-93398390D02*
X116693922Y-93207914D01*
X116693922Y-93207914D02*
X116741541Y-93112676D01*
X116741541Y-93112676D02*
X116836779Y-93017438D01*
X116836779Y-93017438D02*
X116979636Y-92969819D01*
X116979636Y-92969819D02*
X117074874Y-92969819D01*
X117074874Y-92969819D02*
X117217731Y-93017438D01*
X117217731Y-93017438D02*
X117265350Y-93065057D01*
X117551065Y-92969819D02*
X118122493Y-92969819D01*
X117836779Y-93969819D02*
X117836779Y-92969819D01*
X115836779Y-95859875D02*
X115836779Y-94859875D01*
X115836779Y-94859875D02*
X116074874Y-94859875D01*
X116074874Y-94859875D02*
X116217731Y-94907494D01*
X116217731Y-94907494D02*
X116312969Y-95002732D01*
X116312969Y-95002732D02*
X116360588Y-95097970D01*
X116360588Y-95097970D02*
X116408207Y-95288446D01*
X116408207Y-95288446D02*
X116408207Y-95431303D01*
X116408207Y-95431303D02*
X116360588Y-95621779D01*
X116360588Y-95621779D02*
X116312969Y-95717017D01*
X116312969Y-95717017D02*
X116217731Y-95812256D01*
X116217731Y-95812256D02*
X116074874Y-95859875D01*
X116074874Y-95859875D02*
X115836779Y-95859875D01*
X117027255Y-94859875D02*
X117217731Y-94859875D01*
X117217731Y-94859875D02*
X117312969Y-94907494D01*
X117312969Y-94907494D02*
X117408207Y-95002732D01*
X117408207Y-95002732D02*
X117455826Y-95193208D01*
X117455826Y-95193208D02*
X117455826Y-95526541D01*
X117455826Y-95526541D02*
X117408207Y-95717017D01*
X117408207Y-95717017D02*
X117312969Y-95812256D01*
X117312969Y-95812256D02*
X117217731Y-95859875D01*
X117217731Y-95859875D02*
X117027255Y-95859875D01*
X117027255Y-95859875D02*
X116932017Y-95812256D01*
X116932017Y-95812256D02*
X116836779Y-95717017D01*
X116836779Y-95717017D02*
X116789160Y-95526541D01*
X116789160Y-95526541D02*
X116789160Y-95193208D01*
X116789160Y-95193208D02*
X116836779Y-95002732D01*
X116836779Y-95002732D02*
X116932017Y-94907494D01*
X116932017Y-94907494D02*
X117027255Y-94859875D01*
X115836779Y-97469819D02*
X115836779Y-96469819D01*
X115836779Y-96469819D02*
X116408207Y-97469819D01*
X116408207Y-97469819D02*
X116408207Y-96469819D01*
X116884398Y-96946009D02*
X117217731Y-96946009D01*
X117360588Y-97469819D02*
X116884398Y-97469819D01*
X116884398Y-97469819D02*
X116884398Y-96469819D01*
X116884398Y-96469819D02*
X117360588Y-96469819D01*
X116408207Y-99274580D02*
X116360588Y-99322200D01*
X116360588Y-99322200D02*
X116217731Y-99369819D01*
X116217731Y-99369819D02*
X116122493Y-99369819D01*
X116122493Y-99369819D02*
X115979636Y-99322200D01*
X115979636Y-99322200D02*
X115884398Y-99226961D01*
X115884398Y-99226961D02*
X115836779Y-99131723D01*
X115836779Y-99131723D02*
X115789160Y-98941247D01*
X115789160Y-98941247D02*
X115789160Y-98798390D01*
X115789160Y-98798390D02*
X115836779Y-98607914D01*
X115836779Y-98607914D02*
X115884398Y-98512676D01*
X115884398Y-98512676D02*
X115979636Y-98417438D01*
X115979636Y-98417438D02*
X116122493Y-98369819D01*
X116122493Y-98369819D02*
X116217731Y-98369819D01*
X116217731Y-98369819D02*
X116360588Y-98417438D01*
X116360588Y-98417438D02*
X116408207Y-98465057D01*
X117027255Y-98893628D02*
X117027255Y-99369819D01*
X116693922Y-98369819D02*
X117027255Y-98893628D01*
X117027255Y-98893628D02*
X117360588Y-98369819D01*
X116027255Y-101069819D02*
X116217731Y-101069819D01*
X116217731Y-101069819D02*
X116312969Y-101117438D01*
X116312969Y-101117438D02*
X116408207Y-101212676D01*
X116408207Y-101212676D02*
X116455826Y-101403152D01*
X116455826Y-101403152D02*
X116455826Y-101736485D01*
X116455826Y-101736485D02*
X116408207Y-101926961D01*
X116408207Y-101926961D02*
X116312969Y-102022200D01*
X116312969Y-102022200D02*
X116217731Y-102069819D01*
X116217731Y-102069819D02*
X116027255Y-102069819D01*
X116027255Y-102069819D02*
X115932017Y-102022200D01*
X115932017Y-102022200D02*
X115836779Y-101926961D01*
X115836779Y-101926961D02*
X115789160Y-101736485D01*
X115789160Y-101736485D02*
X115789160Y-101403152D01*
X115789160Y-101403152D02*
X115836779Y-101212676D01*
X115836779Y-101212676D02*
X115932017Y-101117438D01*
X115932017Y-101117438D02*
X116027255Y-101069819D01*
X116884398Y-102069819D02*
X116884398Y-101069819D01*
X116884398Y-101069819D02*
X117455826Y-102069819D01*
X117455826Y-102069819D02*
X117455826Y-101069819D01*
X115836779Y-114369819D02*
X115836779Y-115179342D01*
X115836779Y-115179342D02*
X115884398Y-115274580D01*
X115884398Y-115274580D02*
X115932017Y-115322200D01*
X115932017Y-115322200D02*
X116027255Y-115369819D01*
X116027255Y-115369819D02*
X116217731Y-115369819D01*
X116217731Y-115369819D02*
X116312969Y-115322200D01*
X116312969Y-115322200D02*
X116360588Y-115274580D01*
X116360588Y-115274580D02*
X116408207Y-115179342D01*
X116408207Y-115179342D02*
X116408207Y-114369819D01*
X117360588Y-114369819D02*
X116884398Y-114369819D01*
X116884398Y-114369819D02*
X116836779Y-114846009D01*
X116836779Y-114846009D02*
X116884398Y-114798390D01*
X116884398Y-114798390D02*
X116979636Y-114750771D01*
X116979636Y-114750771D02*
X117217731Y-114750771D01*
X117217731Y-114750771D02*
X117312969Y-114798390D01*
X117312969Y-114798390D02*
X117360588Y-114846009D01*
X117360588Y-114846009D02*
X117408207Y-114941247D01*
X117408207Y-114941247D02*
X117408207Y-115179342D01*
X117408207Y-115179342D02*
X117360588Y-115274580D01*
X117360588Y-115274580D02*
X117312969Y-115322200D01*
X117312969Y-115322200D02*
X117217731Y-115369819D01*
X117217731Y-115369819D02*
X116979636Y-115369819D01*
X116979636Y-115369819D02*
X116884398Y-115322200D01*
X116884398Y-115322200D02*
X116836779Y-115274580D01*
X115836779Y-117069819D02*
X115836779Y-117879342D01*
X115836779Y-117879342D02*
X115884398Y-117974580D01*
X115884398Y-117974580D02*
X115932017Y-118022200D01*
X115932017Y-118022200D02*
X116027255Y-118069819D01*
X116027255Y-118069819D02*
X116217731Y-118069819D01*
X116217731Y-118069819D02*
X116312969Y-118022200D01*
X116312969Y-118022200D02*
X116360588Y-117974580D01*
X116360588Y-117974580D02*
X116408207Y-117879342D01*
X116408207Y-117879342D02*
X116408207Y-117069819D01*
X117312969Y-117403152D02*
X117312969Y-118069819D01*
X117074874Y-117022200D02*
X116836779Y-117736485D01*
X116836779Y-117736485D02*
X117455826Y-117736485D01*
X115836779Y-119769819D02*
X115836779Y-120579342D01*
X115836779Y-120579342D02*
X115884398Y-120674580D01*
X115884398Y-120674580D02*
X115932017Y-120722200D01*
X115932017Y-120722200D02*
X116027255Y-120769819D01*
X116027255Y-120769819D02*
X116217731Y-120769819D01*
X116217731Y-120769819D02*
X116312969Y-120722200D01*
X116312969Y-120722200D02*
X116360588Y-120674580D01*
X116360588Y-120674580D02*
X116408207Y-120579342D01*
X116408207Y-120579342D02*
X116408207Y-119769819D01*
X116789160Y-119769819D02*
X117408207Y-119769819D01*
X117408207Y-119769819D02*
X117074874Y-120150771D01*
X117074874Y-120150771D02*
X117217731Y-120150771D01*
X117217731Y-120150771D02*
X117312969Y-120198390D01*
X117312969Y-120198390D02*
X117360588Y-120246009D01*
X117360588Y-120246009D02*
X117408207Y-120341247D01*
X117408207Y-120341247D02*
X117408207Y-120579342D01*
X117408207Y-120579342D02*
X117360588Y-120674580D01*
X117360588Y-120674580D02*
X117312969Y-120722200D01*
X117312969Y-120722200D02*
X117217731Y-120769819D01*
X117217731Y-120769819D02*
X116932017Y-120769819D01*
X116932017Y-120769819D02*
X116836779Y-120722200D01*
X116836779Y-120722200D02*
X116789160Y-120674580D01*
X115836779Y-122469819D02*
X115836779Y-123279342D01*
X115836779Y-123279342D02*
X115884398Y-123374580D01*
X115884398Y-123374580D02*
X115932017Y-123422200D01*
X115932017Y-123422200D02*
X116027255Y-123469819D01*
X116027255Y-123469819D02*
X116217731Y-123469819D01*
X116217731Y-123469819D02*
X116312969Y-123422200D01*
X116312969Y-123422200D02*
X116360588Y-123374580D01*
X116360588Y-123374580D02*
X116408207Y-123279342D01*
X116408207Y-123279342D02*
X116408207Y-122469819D01*
X116836779Y-122565057D02*
X116884398Y-122517438D01*
X116884398Y-122517438D02*
X116979636Y-122469819D01*
X116979636Y-122469819D02*
X117217731Y-122469819D01*
X117217731Y-122469819D02*
X117312969Y-122517438D01*
X117312969Y-122517438D02*
X117360588Y-122565057D01*
X117360588Y-122565057D02*
X117408207Y-122660295D01*
X117408207Y-122660295D02*
X117408207Y-122755533D01*
X117408207Y-122755533D02*
X117360588Y-122898390D01*
X117360588Y-122898390D02*
X116789160Y-123469819D01*
X116789160Y-123469819D02*
X117408207Y-123469819D01*
X115836779Y-125169819D02*
X115836779Y-125979342D01*
X115836779Y-125979342D02*
X115884398Y-126074580D01*
X115884398Y-126074580D02*
X115932017Y-126122200D01*
X115932017Y-126122200D02*
X116027255Y-126169819D01*
X116027255Y-126169819D02*
X116217731Y-126169819D01*
X116217731Y-126169819D02*
X116312969Y-126122200D01*
X116312969Y-126122200D02*
X116360588Y-126074580D01*
X116360588Y-126074580D02*
X116408207Y-125979342D01*
X116408207Y-125979342D02*
X116408207Y-125169819D01*
X117408207Y-126169819D02*
X116836779Y-126169819D01*
X117122493Y-126169819D02*
X117122493Y-125169819D01*
X117122493Y-125169819D02*
X117027255Y-125312676D01*
X117027255Y-125312676D02*
X116932017Y-125407914D01*
X116932017Y-125407914D02*
X116836779Y-125455533D01*
X204669160Y-116842200D02*
X204812017Y-116889819D01*
X204812017Y-116889819D02*
X205050112Y-116889819D01*
X205050112Y-116889819D02*
X205145350Y-116842200D01*
X205145350Y-116842200D02*
X205192969Y-116794580D01*
X205192969Y-116794580D02*
X205240588Y-116699342D01*
X205240588Y-116699342D02*
X205240588Y-116604104D01*
X205240588Y-116604104D02*
X205192969Y-116508866D01*
X205192969Y-116508866D02*
X205145350Y-116461247D01*
X205145350Y-116461247D02*
X205050112Y-116413628D01*
X205050112Y-116413628D02*
X204859636Y-116366009D01*
X204859636Y-116366009D02*
X204764398Y-116318390D01*
X204764398Y-116318390D02*
X204716779Y-116270771D01*
X204716779Y-116270771D02*
X204669160Y-116175533D01*
X204669160Y-116175533D02*
X204669160Y-116080295D01*
X204669160Y-116080295D02*
X204716779Y-115985057D01*
X204716779Y-115985057D02*
X204764398Y-115937438D01*
X204764398Y-115937438D02*
X204859636Y-115889819D01*
X204859636Y-115889819D02*
X205097731Y-115889819D01*
X205097731Y-115889819D02*
X205240588Y-115937438D01*
X205573922Y-115889819D02*
X205812017Y-116889819D01*
X205812017Y-116889819D02*
X206002493Y-116175533D01*
X206002493Y-116175533D02*
X206192969Y-116889819D01*
X206192969Y-116889819D02*
X206431065Y-115889819D01*
X206812017Y-116889819D02*
X206812017Y-115889819D01*
X206812017Y-115889819D02*
X207050112Y-115889819D01*
X207050112Y-115889819D02*
X207192969Y-115937438D01*
X207192969Y-115937438D02*
X207288207Y-116032676D01*
X207288207Y-116032676D02*
X207335826Y-116127914D01*
X207335826Y-116127914D02*
X207383445Y-116318390D01*
X207383445Y-116318390D02*
X207383445Y-116461247D01*
X207383445Y-116461247D02*
X207335826Y-116651723D01*
X207335826Y-116651723D02*
X207288207Y-116746961D01*
X207288207Y-116746961D02*
X207192969Y-116842200D01*
X207192969Y-116842200D02*
X207050112Y-116889819D01*
X207050112Y-116889819D02*
X206812017Y-116889819D01*
X206022493Y-91169819D02*
X206022493Y-91884104D01*
X206022493Y-91884104D02*
X205974874Y-92026961D01*
X205974874Y-92026961D02*
X205879636Y-92122200D01*
X205879636Y-92122200D02*
X205736779Y-92169819D01*
X205736779Y-92169819D02*
X205641541Y-92169819D01*
X206355827Y-91169819D02*
X206927255Y-91169819D01*
X206641541Y-92169819D02*
X206641541Y-91169819D01*
X207212970Y-91884104D02*
X207689160Y-91884104D01*
X207117732Y-92169819D02*
X207451065Y-91169819D01*
X207451065Y-91169819D02*
X207784398Y-92169819D01*
X208641541Y-91217438D02*
X208546303Y-91169819D01*
X208546303Y-91169819D02*
X208403446Y-91169819D01*
X208403446Y-91169819D02*
X208260589Y-91217438D01*
X208260589Y-91217438D02*
X208165351Y-91312676D01*
X208165351Y-91312676D02*
X208117732Y-91407914D01*
X208117732Y-91407914D02*
X208070113Y-91598390D01*
X208070113Y-91598390D02*
X208070113Y-91741247D01*
X208070113Y-91741247D02*
X208117732Y-91931723D01*
X208117732Y-91931723D02*
X208165351Y-92026961D01*
X208165351Y-92026961D02*
X208260589Y-92122200D01*
X208260589Y-92122200D02*
X208403446Y-92169819D01*
X208403446Y-92169819D02*
X208498684Y-92169819D01*
X208498684Y-92169819D02*
X208641541Y-92122200D01*
X208641541Y-92122200D02*
X208689160Y-92074580D01*
X208689160Y-92074580D02*
X208689160Y-91741247D01*
X208689160Y-91741247D02*
X208498684Y-91741247D01*
X124771905Y-128912200D02*
X124914762Y-128959819D01*
X124914762Y-128959819D02*
X125152857Y-128959819D01*
X125152857Y-128959819D02*
X125248095Y-128912200D01*
X125248095Y-128912200D02*
X125295714Y-128864580D01*
X125295714Y-128864580D02*
X125343333Y-128769342D01*
X125343333Y-128769342D02*
X125343333Y-128674104D01*
X125343333Y-128674104D02*
X125295714Y-128578866D01*
X125295714Y-128578866D02*
X125248095Y-128531247D01*
X125248095Y-128531247D02*
X125152857Y-128483628D01*
X125152857Y-128483628D02*
X124962381Y-128436009D01*
X124962381Y-128436009D02*
X124867143Y-128388390D01*
X124867143Y-128388390D02*
X124819524Y-128340771D01*
X124819524Y-128340771D02*
X124771905Y-128245533D01*
X124771905Y-128245533D02*
X124771905Y-128150295D01*
X124771905Y-128150295D02*
X124819524Y-128055057D01*
X124819524Y-128055057D02*
X124867143Y-128007438D01*
X124867143Y-128007438D02*
X124962381Y-127959819D01*
X124962381Y-127959819D02*
X125200476Y-127959819D01*
X125200476Y-127959819D02*
X125343333Y-128007438D01*
X125962381Y-128483628D02*
X125962381Y-128959819D01*
X125629048Y-127959819D02*
X125962381Y-128483628D01*
X125962381Y-128483628D02*
X126295714Y-127959819D01*
X126629048Y-128959819D02*
X126629048Y-127959819D01*
X126629048Y-127959819D02*
X127200476Y-128959819D01*
X127200476Y-128959819D02*
X127200476Y-127959819D01*
X128248095Y-128864580D02*
X128200476Y-128912200D01*
X128200476Y-128912200D02*
X128057619Y-128959819D01*
X128057619Y-128959819D02*
X127962381Y-128959819D01*
X127962381Y-128959819D02*
X127819524Y-128912200D01*
X127819524Y-128912200D02*
X127724286Y-128816961D01*
X127724286Y-128816961D02*
X127676667Y-128721723D01*
X127676667Y-128721723D02*
X127629048Y-128531247D01*
X127629048Y-128531247D02*
X127629048Y-128388390D01*
X127629048Y-128388390D02*
X127676667Y-128197914D01*
X127676667Y-128197914D02*
X127724286Y-128102676D01*
X127724286Y-128102676D02*
X127819524Y-128007438D01*
X127819524Y-128007438D02*
X127962381Y-127959819D01*
X127962381Y-127959819D02*
X128057619Y-127959819D01*
X128057619Y-127959819D02*
X128200476Y-128007438D01*
X128200476Y-128007438D02*
X128248095Y-128055057D01*
X135064286Y-97022200D02*
X135207143Y-97069819D01*
X135207143Y-97069819D02*
X135445238Y-97069819D01*
X135445238Y-97069819D02*
X135540476Y-97022200D01*
X135540476Y-97022200D02*
X135588095Y-96974580D01*
X135588095Y-96974580D02*
X135635714Y-96879342D01*
X135635714Y-96879342D02*
X135635714Y-96784104D01*
X135635714Y-96784104D02*
X135588095Y-96688866D01*
X135588095Y-96688866D02*
X135540476Y-96641247D01*
X135540476Y-96641247D02*
X135445238Y-96593628D01*
X135445238Y-96593628D02*
X135254762Y-96546009D01*
X135254762Y-96546009D02*
X135159524Y-96498390D01*
X135159524Y-96498390D02*
X135111905Y-96450771D01*
X135111905Y-96450771D02*
X135064286Y-96355533D01*
X135064286Y-96355533D02*
X135064286Y-96260295D01*
X135064286Y-96260295D02*
X135111905Y-96165057D01*
X135111905Y-96165057D02*
X135159524Y-96117438D01*
X135159524Y-96117438D02*
X135254762Y-96069819D01*
X135254762Y-96069819D02*
X135492857Y-96069819D01*
X135492857Y-96069819D02*
X135635714Y-96117438D01*
X134447619Y-81169819D02*
X134780952Y-82169819D01*
X134780952Y-82169819D02*
X135114285Y-81169819D01*
X135447619Y-81788866D02*
X136209524Y-81788866D01*
X135828571Y-82169819D02*
X135828571Y-81407914D01*
X134542857Y-119984104D02*
X135019047Y-119984104D01*
X134447619Y-120269819D02*
X134780952Y-119269819D01*
X134780952Y-119269819D02*
X135114285Y-120269819D01*
X135447619Y-119888866D02*
X136209524Y-119888866D01*
X135828571Y-120269819D02*
X135828571Y-119507914D01*
X134542857Y-134884104D02*
X135019047Y-134884104D01*
X134447619Y-135169819D02*
X134780952Y-134169819D01*
X134780952Y-134169819D02*
X135114285Y-135169819D01*
X135447619Y-134788866D02*
X136209524Y-134788866D01*
X137852381Y-96069819D02*
X137947619Y-96069819D01*
X137947619Y-96069819D02*
X138042857Y-96117438D01*
X138042857Y-96117438D02*
X138090476Y-96165057D01*
X138090476Y-96165057D02*
X138138095Y-96260295D01*
X138138095Y-96260295D02*
X138185714Y-96450771D01*
X138185714Y-96450771D02*
X138185714Y-96688866D01*
X138185714Y-96688866D02*
X138138095Y-96879342D01*
X138138095Y-96879342D02*
X138090476Y-96974580D01*
X138090476Y-96974580D02*
X138042857Y-97022200D01*
X138042857Y-97022200D02*
X137947619Y-97069819D01*
X137947619Y-97069819D02*
X137852381Y-97069819D01*
X137852381Y-97069819D02*
X137757143Y-97022200D01*
X137757143Y-97022200D02*
X137709524Y-96974580D01*
X137709524Y-96974580D02*
X137661905Y-96879342D01*
X137661905Y-96879342D02*
X137614286Y-96688866D01*
X137614286Y-96688866D02*
X137614286Y-96450771D01*
X137614286Y-96450771D02*
X137661905Y-96260295D01*
X137661905Y-96260295D02*
X137709524Y-96165057D01*
X137709524Y-96165057D02*
X137757143Y-96117438D01*
X137757143Y-96117438D02*
X137852381Y-96069819D01*
X137616667Y-119269819D02*
X138283333Y-119269819D01*
X138283333Y-119269819D02*
X137854762Y-120269819D01*
X140735714Y-97069819D02*
X140164286Y-97069819D01*
X140450000Y-97069819D02*
X140450000Y-96069819D01*
X140450000Y-96069819D02*
X140354762Y-96212676D01*
X140354762Y-96212676D02*
X140259524Y-96307914D01*
X140259524Y-96307914D02*
X140164286Y-96355533D01*
X140640476Y-119269819D02*
X140450000Y-119269819D01*
X140450000Y-119269819D02*
X140354762Y-119317438D01*
X140354762Y-119317438D02*
X140307143Y-119365057D01*
X140307143Y-119365057D02*
X140211905Y-119507914D01*
X140211905Y-119507914D02*
X140164286Y-119698390D01*
X140164286Y-119698390D02*
X140164286Y-120079342D01*
X140164286Y-120079342D02*
X140211905Y-120174580D01*
X140211905Y-120174580D02*
X140259524Y-120222200D01*
X140259524Y-120222200D02*
X140354762Y-120269819D01*
X140354762Y-120269819D02*
X140545238Y-120269819D01*
X140545238Y-120269819D02*
X140640476Y-120222200D01*
X140640476Y-120222200D02*
X140688095Y-120174580D01*
X140688095Y-120174580D02*
X140735714Y-120079342D01*
X140735714Y-120079342D02*
X140735714Y-119841247D01*
X140735714Y-119841247D02*
X140688095Y-119746009D01*
X140688095Y-119746009D02*
X140640476Y-119698390D01*
X140640476Y-119698390D02*
X140545238Y-119650771D01*
X140545238Y-119650771D02*
X140354762Y-119650771D01*
X140354762Y-119650771D02*
X140259524Y-119698390D01*
X140259524Y-119698390D02*
X140211905Y-119746009D01*
X140211905Y-119746009D02*
X140164286Y-119841247D01*
X142664286Y-96165057D02*
X142711905Y-96117438D01*
X142711905Y-96117438D02*
X142807143Y-96069819D01*
X142807143Y-96069819D02*
X143045238Y-96069819D01*
X143045238Y-96069819D02*
X143140476Y-96117438D01*
X143140476Y-96117438D02*
X143188095Y-96165057D01*
X143188095Y-96165057D02*
X143235714Y-96260295D01*
X143235714Y-96260295D02*
X143235714Y-96355533D01*
X143235714Y-96355533D02*
X143188095Y-96498390D01*
X143188095Y-96498390D02*
X142616667Y-97069819D01*
X142616667Y-97069819D02*
X143235714Y-97069819D01*
X143238095Y-119269819D02*
X142761905Y-119269819D01*
X142761905Y-119269819D02*
X142714286Y-119746009D01*
X142714286Y-119746009D02*
X142761905Y-119698390D01*
X142761905Y-119698390D02*
X142857143Y-119650771D01*
X142857143Y-119650771D02*
X143095238Y-119650771D01*
X143095238Y-119650771D02*
X143190476Y-119698390D01*
X143190476Y-119698390D02*
X143238095Y-119746009D01*
X143238095Y-119746009D02*
X143285714Y-119841247D01*
X143285714Y-119841247D02*
X143285714Y-120079342D01*
X143285714Y-120079342D02*
X143238095Y-120174580D01*
X143238095Y-120174580D02*
X143190476Y-120222200D01*
X143190476Y-120222200D02*
X143095238Y-120269819D01*
X143095238Y-120269819D02*
X142857143Y-120269819D01*
X142857143Y-120269819D02*
X142761905Y-120222200D01*
X142761905Y-120222200D02*
X142714286Y-120174580D01*
X145216667Y-96069819D02*
X145835714Y-96069819D01*
X145835714Y-96069819D02*
X145502381Y-96450771D01*
X145502381Y-96450771D02*
X145645238Y-96450771D01*
X145645238Y-96450771D02*
X145740476Y-96498390D01*
X145740476Y-96498390D02*
X145788095Y-96546009D01*
X145788095Y-96546009D02*
X145835714Y-96641247D01*
X145835714Y-96641247D02*
X145835714Y-96879342D01*
X145835714Y-96879342D02*
X145788095Y-96974580D01*
X145788095Y-96974580D02*
X145740476Y-97022200D01*
X145740476Y-97022200D02*
X145645238Y-97069819D01*
X145645238Y-97069819D02*
X145359524Y-97069819D01*
X145359524Y-97069819D02*
X145264286Y-97022200D01*
X145264286Y-97022200D02*
X145216667Y-96974580D01*
X145740476Y-119603152D02*
X145740476Y-120269819D01*
X145502381Y-119222200D02*
X145264286Y-119936485D01*
X145264286Y-119936485D02*
X145883333Y-119936485D01*
X146038095Y-81217438D02*
X145942857Y-81169819D01*
X145942857Y-81169819D02*
X145800000Y-81169819D01*
X145800000Y-81169819D02*
X145657143Y-81217438D01*
X145657143Y-81217438D02*
X145561905Y-81312676D01*
X145561905Y-81312676D02*
X145514286Y-81407914D01*
X145514286Y-81407914D02*
X145466667Y-81598390D01*
X145466667Y-81598390D02*
X145466667Y-81741247D01*
X145466667Y-81741247D02*
X145514286Y-81931723D01*
X145514286Y-81931723D02*
X145561905Y-82026961D01*
X145561905Y-82026961D02*
X145657143Y-82122200D01*
X145657143Y-82122200D02*
X145800000Y-82169819D01*
X145800000Y-82169819D02*
X145895238Y-82169819D01*
X145895238Y-82169819D02*
X146038095Y-82122200D01*
X146038095Y-82122200D02*
X146085714Y-82074580D01*
X146085714Y-82074580D02*
X146085714Y-81741247D01*
X146085714Y-81741247D02*
X145895238Y-81741247D01*
X146514286Y-82169819D02*
X146514286Y-81169819D01*
X146514286Y-81169819D02*
X147085714Y-82169819D01*
X147085714Y-82169819D02*
X147085714Y-81169819D01*
X147561905Y-82169819D02*
X147561905Y-81169819D01*
X147561905Y-81169819D02*
X147800000Y-81169819D01*
X147800000Y-81169819D02*
X147942857Y-81217438D01*
X147942857Y-81217438D02*
X148038095Y-81312676D01*
X148038095Y-81312676D02*
X148085714Y-81407914D01*
X148085714Y-81407914D02*
X148133333Y-81598390D01*
X148133333Y-81598390D02*
X148133333Y-81741247D01*
X148133333Y-81741247D02*
X148085714Y-81931723D01*
X148085714Y-81931723D02*
X148038095Y-82026961D01*
X148038095Y-82026961D02*
X147942857Y-82122200D01*
X147942857Y-82122200D02*
X147800000Y-82169819D01*
X147800000Y-82169819D02*
X147561905Y-82169819D01*
X146038095Y-134217438D02*
X145942857Y-134169819D01*
X145942857Y-134169819D02*
X145800000Y-134169819D01*
X145800000Y-134169819D02*
X145657143Y-134217438D01*
X145657143Y-134217438D02*
X145561905Y-134312676D01*
X145561905Y-134312676D02*
X145514286Y-134407914D01*
X145514286Y-134407914D02*
X145466667Y-134598390D01*
X145466667Y-134598390D02*
X145466667Y-134741247D01*
X145466667Y-134741247D02*
X145514286Y-134931723D01*
X145514286Y-134931723D02*
X145561905Y-135026961D01*
X145561905Y-135026961D02*
X145657143Y-135122200D01*
X145657143Y-135122200D02*
X145800000Y-135169819D01*
X145800000Y-135169819D02*
X145895238Y-135169819D01*
X145895238Y-135169819D02*
X146038095Y-135122200D01*
X146038095Y-135122200D02*
X146085714Y-135074580D01*
X146085714Y-135074580D02*
X146085714Y-134741247D01*
X146085714Y-134741247D02*
X145895238Y-134741247D01*
X146514286Y-135169819D02*
X146514286Y-134169819D01*
X146514286Y-134169819D02*
X147085714Y-135169819D01*
X147085714Y-135169819D02*
X147085714Y-134169819D01*
X147561905Y-135169819D02*
X147561905Y-134169819D01*
X147561905Y-134169819D02*
X147800000Y-134169819D01*
X147800000Y-134169819D02*
X147942857Y-134217438D01*
X147942857Y-134217438D02*
X148038095Y-134312676D01*
X148038095Y-134312676D02*
X148085714Y-134407914D01*
X148085714Y-134407914D02*
X148133333Y-134598390D01*
X148133333Y-134598390D02*
X148133333Y-134741247D01*
X148133333Y-134741247D02*
X148085714Y-134931723D01*
X148085714Y-134931723D02*
X148038095Y-135026961D01*
X148038095Y-135026961D02*
X147942857Y-135122200D01*
X147942857Y-135122200D02*
X147800000Y-135169819D01*
X147800000Y-135169819D02*
X147561905Y-135169819D01*
X148240476Y-96403152D02*
X148240476Y-97069819D01*
X148002381Y-96022200D02*
X147764286Y-96736485D01*
X147764286Y-96736485D02*
X148383333Y-96736485D01*
X147766667Y-119269819D02*
X148385714Y-119269819D01*
X148385714Y-119269819D02*
X148052381Y-119650771D01*
X148052381Y-119650771D02*
X148195238Y-119650771D01*
X148195238Y-119650771D02*
X148290476Y-119698390D01*
X148290476Y-119698390D02*
X148338095Y-119746009D01*
X148338095Y-119746009D02*
X148385714Y-119841247D01*
X148385714Y-119841247D02*
X148385714Y-120079342D01*
X148385714Y-120079342D02*
X148338095Y-120174580D01*
X148338095Y-120174580D02*
X148290476Y-120222200D01*
X148290476Y-120222200D02*
X148195238Y-120269819D01*
X148195238Y-120269819D02*
X147909524Y-120269819D01*
X147909524Y-120269819D02*
X147814286Y-120222200D01*
X147814286Y-120222200D02*
X147766667Y-120174580D01*
X150838095Y-96069819D02*
X150361905Y-96069819D01*
X150361905Y-96069819D02*
X150314286Y-96546009D01*
X150314286Y-96546009D02*
X150361905Y-96498390D01*
X150361905Y-96498390D02*
X150457143Y-96450771D01*
X150457143Y-96450771D02*
X150695238Y-96450771D01*
X150695238Y-96450771D02*
X150790476Y-96498390D01*
X150790476Y-96498390D02*
X150838095Y-96546009D01*
X150838095Y-96546009D02*
X150885714Y-96641247D01*
X150885714Y-96641247D02*
X150885714Y-96879342D01*
X150885714Y-96879342D02*
X150838095Y-96974580D01*
X150838095Y-96974580D02*
X150790476Y-97022200D01*
X150790476Y-97022200D02*
X150695238Y-97069819D01*
X150695238Y-97069819D02*
X150457143Y-97069819D01*
X150457143Y-97069819D02*
X150361905Y-97022200D01*
X150361905Y-97022200D02*
X150314286Y-96974580D01*
X150364286Y-119365057D02*
X150411905Y-119317438D01*
X150411905Y-119317438D02*
X150507143Y-119269819D01*
X150507143Y-119269819D02*
X150745238Y-119269819D01*
X150745238Y-119269819D02*
X150840476Y-119317438D01*
X150840476Y-119317438D02*
X150888095Y-119365057D01*
X150888095Y-119365057D02*
X150935714Y-119460295D01*
X150935714Y-119460295D02*
X150935714Y-119555533D01*
X150935714Y-119555533D02*
X150888095Y-119698390D01*
X150888095Y-119698390D02*
X150316667Y-120269819D01*
X150316667Y-120269819D02*
X150935714Y-120269819D01*
X153340476Y-96069819D02*
X153150000Y-96069819D01*
X153150000Y-96069819D02*
X153054762Y-96117438D01*
X153054762Y-96117438D02*
X153007143Y-96165057D01*
X153007143Y-96165057D02*
X152911905Y-96307914D01*
X152911905Y-96307914D02*
X152864286Y-96498390D01*
X152864286Y-96498390D02*
X152864286Y-96879342D01*
X152864286Y-96879342D02*
X152911905Y-96974580D01*
X152911905Y-96974580D02*
X152959524Y-97022200D01*
X152959524Y-97022200D02*
X153054762Y-97069819D01*
X153054762Y-97069819D02*
X153245238Y-97069819D01*
X153245238Y-97069819D02*
X153340476Y-97022200D01*
X153340476Y-97022200D02*
X153388095Y-96974580D01*
X153388095Y-96974580D02*
X153435714Y-96879342D01*
X153435714Y-96879342D02*
X153435714Y-96641247D01*
X153435714Y-96641247D02*
X153388095Y-96546009D01*
X153388095Y-96546009D02*
X153340476Y-96498390D01*
X153340476Y-96498390D02*
X153245238Y-96450771D01*
X153245238Y-96450771D02*
X153054762Y-96450771D01*
X153054762Y-96450771D02*
X152959524Y-96498390D01*
X152959524Y-96498390D02*
X152911905Y-96546009D01*
X152911905Y-96546009D02*
X152864286Y-96641247D01*
X153435714Y-120269819D02*
X152864286Y-120269819D01*
X153150000Y-120269819D02*
X153150000Y-119269819D01*
X153150000Y-119269819D02*
X153054762Y-119412676D01*
X153054762Y-119412676D02*
X152959524Y-119507914D01*
X152959524Y-119507914D02*
X152864286Y-119555533D01*
X155366667Y-96069819D02*
X156033333Y-96069819D01*
X156033333Y-96069819D02*
X155604762Y-97069819D01*
X155652381Y-119269819D02*
X155747619Y-119269819D01*
X155747619Y-119269819D02*
X155842857Y-119317438D01*
X155842857Y-119317438D02*
X155890476Y-119365057D01*
X155890476Y-119365057D02*
X155938095Y-119460295D01*
X155938095Y-119460295D02*
X155985714Y-119650771D01*
X155985714Y-119650771D02*
X155985714Y-119888866D01*
X155985714Y-119888866D02*
X155938095Y-120079342D01*
X155938095Y-120079342D02*
X155890476Y-120174580D01*
X155890476Y-120174580D02*
X155842857Y-120222200D01*
X155842857Y-120222200D02*
X155747619Y-120269819D01*
X155747619Y-120269819D02*
X155652381Y-120269819D01*
X155652381Y-120269819D02*
X155557143Y-120222200D01*
X155557143Y-120222200D02*
X155509524Y-120174580D01*
X155509524Y-120174580D02*
X155461905Y-120079342D01*
X155461905Y-120079342D02*
X155414286Y-119888866D01*
X155414286Y-119888866D02*
X155414286Y-119650771D01*
X155414286Y-119650771D02*
X155461905Y-119460295D01*
X155461905Y-119460295D02*
X155509524Y-119365057D01*
X155509524Y-119365057D02*
X155557143Y-119317438D01*
X155557143Y-119317438D02*
X155652381Y-119269819D01*
X157392857Y-81884104D02*
X157869047Y-81884104D01*
X157297619Y-82169819D02*
X157630952Y-81169819D01*
X157630952Y-81169819D02*
X157964285Y-82169819D01*
X158297619Y-81788866D02*
X159059524Y-81788866D01*
X157392857Y-96684104D02*
X157869047Y-96684104D01*
X157297619Y-96969819D02*
X157630952Y-95969819D01*
X157630952Y-95969819D02*
X157964285Y-96969819D01*
X158297619Y-96588866D02*
X159059524Y-96588866D01*
X158678571Y-96969819D02*
X158678571Y-96207914D01*
X157964286Y-120222200D02*
X158107143Y-120269819D01*
X158107143Y-120269819D02*
X158345238Y-120269819D01*
X158345238Y-120269819D02*
X158440476Y-120222200D01*
X158440476Y-120222200D02*
X158488095Y-120174580D01*
X158488095Y-120174580D02*
X158535714Y-120079342D01*
X158535714Y-120079342D02*
X158535714Y-119984104D01*
X158535714Y-119984104D02*
X158488095Y-119888866D01*
X158488095Y-119888866D02*
X158440476Y-119841247D01*
X158440476Y-119841247D02*
X158345238Y-119793628D01*
X158345238Y-119793628D02*
X158154762Y-119746009D01*
X158154762Y-119746009D02*
X158059524Y-119698390D01*
X158059524Y-119698390D02*
X158011905Y-119650771D01*
X158011905Y-119650771D02*
X157964286Y-119555533D01*
X157964286Y-119555533D02*
X157964286Y-119460295D01*
X157964286Y-119460295D02*
X158011905Y-119365057D01*
X158011905Y-119365057D02*
X158059524Y-119317438D01*
X158059524Y-119317438D02*
X158154762Y-119269819D01*
X158154762Y-119269819D02*
X158392857Y-119269819D01*
X158392857Y-119269819D02*
X158535714Y-119317438D01*
X157297619Y-134169819D02*
X157630952Y-135169819D01*
X157630952Y-135169819D02*
X157964285Y-134169819D01*
X158297619Y-134788866D02*
X159059524Y-134788866D01*
X158678571Y-135169819D02*
X158678571Y-134407914D01*
X172064286Y-97022200D02*
X172207143Y-97069819D01*
X172207143Y-97069819D02*
X172445238Y-97069819D01*
X172445238Y-97069819D02*
X172540476Y-97022200D01*
X172540476Y-97022200D02*
X172588095Y-96974580D01*
X172588095Y-96974580D02*
X172635714Y-96879342D01*
X172635714Y-96879342D02*
X172635714Y-96784104D01*
X172635714Y-96784104D02*
X172588095Y-96688866D01*
X172588095Y-96688866D02*
X172540476Y-96641247D01*
X172540476Y-96641247D02*
X172445238Y-96593628D01*
X172445238Y-96593628D02*
X172254762Y-96546009D01*
X172254762Y-96546009D02*
X172159524Y-96498390D01*
X172159524Y-96498390D02*
X172111905Y-96450771D01*
X172111905Y-96450771D02*
X172064286Y-96355533D01*
X172064286Y-96355533D02*
X172064286Y-96260295D01*
X172064286Y-96260295D02*
X172111905Y-96165057D01*
X172111905Y-96165057D02*
X172159524Y-96117438D01*
X172159524Y-96117438D02*
X172254762Y-96069819D01*
X172254762Y-96069819D02*
X172492857Y-96069819D01*
X172492857Y-96069819D02*
X172635714Y-96117438D01*
X171447619Y-81169819D02*
X171780952Y-82169819D01*
X171780952Y-82169819D02*
X172114285Y-81169819D01*
X172447619Y-81788866D02*
X173209524Y-81788866D01*
X172828571Y-82169819D02*
X172828571Y-81407914D01*
X171542857Y-119984104D02*
X172019047Y-119984104D01*
X171447619Y-120269819D02*
X171780952Y-119269819D01*
X171780952Y-119269819D02*
X172114285Y-120269819D01*
X172447619Y-119888866D02*
X173209524Y-119888866D01*
X172828571Y-120269819D02*
X172828571Y-119507914D01*
X171542857Y-134884104D02*
X172019047Y-134884104D01*
X171447619Y-135169819D02*
X171780952Y-134169819D01*
X171780952Y-134169819D02*
X172114285Y-135169819D01*
X172447619Y-134788866D02*
X173209524Y-134788866D01*
X174852381Y-96069819D02*
X174947619Y-96069819D01*
X174947619Y-96069819D02*
X175042857Y-96117438D01*
X175042857Y-96117438D02*
X175090476Y-96165057D01*
X175090476Y-96165057D02*
X175138095Y-96260295D01*
X175138095Y-96260295D02*
X175185714Y-96450771D01*
X175185714Y-96450771D02*
X175185714Y-96688866D01*
X175185714Y-96688866D02*
X175138095Y-96879342D01*
X175138095Y-96879342D02*
X175090476Y-96974580D01*
X175090476Y-96974580D02*
X175042857Y-97022200D01*
X175042857Y-97022200D02*
X174947619Y-97069819D01*
X174947619Y-97069819D02*
X174852381Y-97069819D01*
X174852381Y-97069819D02*
X174757143Y-97022200D01*
X174757143Y-97022200D02*
X174709524Y-96974580D01*
X174709524Y-96974580D02*
X174661905Y-96879342D01*
X174661905Y-96879342D02*
X174614286Y-96688866D01*
X174614286Y-96688866D02*
X174614286Y-96450771D01*
X174614286Y-96450771D02*
X174661905Y-96260295D01*
X174661905Y-96260295D02*
X174709524Y-96165057D01*
X174709524Y-96165057D02*
X174757143Y-96117438D01*
X174757143Y-96117438D02*
X174852381Y-96069819D01*
X174566667Y-119269819D02*
X175233333Y-119269819D01*
X175233333Y-119269819D02*
X174804762Y-120269819D01*
X177735714Y-97069819D02*
X177164286Y-97069819D01*
X177450000Y-97069819D02*
X177450000Y-96069819D01*
X177450000Y-96069819D02*
X177354762Y-96212676D01*
X177354762Y-96212676D02*
X177259524Y-96307914D01*
X177259524Y-96307914D02*
X177164286Y-96355533D01*
X177640476Y-119269819D02*
X177450000Y-119269819D01*
X177450000Y-119269819D02*
X177354762Y-119317438D01*
X177354762Y-119317438D02*
X177307143Y-119365057D01*
X177307143Y-119365057D02*
X177211905Y-119507914D01*
X177211905Y-119507914D02*
X177164286Y-119698390D01*
X177164286Y-119698390D02*
X177164286Y-120079342D01*
X177164286Y-120079342D02*
X177211905Y-120174580D01*
X177211905Y-120174580D02*
X177259524Y-120222200D01*
X177259524Y-120222200D02*
X177354762Y-120269819D01*
X177354762Y-120269819D02*
X177545238Y-120269819D01*
X177545238Y-120269819D02*
X177640476Y-120222200D01*
X177640476Y-120222200D02*
X177688095Y-120174580D01*
X177688095Y-120174580D02*
X177735714Y-120079342D01*
X177735714Y-120079342D02*
X177735714Y-119841247D01*
X177735714Y-119841247D02*
X177688095Y-119746009D01*
X177688095Y-119746009D02*
X177640476Y-119698390D01*
X177640476Y-119698390D02*
X177545238Y-119650771D01*
X177545238Y-119650771D02*
X177354762Y-119650771D01*
X177354762Y-119650771D02*
X177259524Y-119698390D01*
X177259524Y-119698390D02*
X177211905Y-119746009D01*
X177211905Y-119746009D02*
X177164286Y-119841247D01*
X179664286Y-96165057D02*
X179711905Y-96117438D01*
X179711905Y-96117438D02*
X179807143Y-96069819D01*
X179807143Y-96069819D02*
X180045238Y-96069819D01*
X180045238Y-96069819D02*
X180140476Y-96117438D01*
X180140476Y-96117438D02*
X180188095Y-96165057D01*
X180188095Y-96165057D02*
X180235714Y-96260295D01*
X180235714Y-96260295D02*
X180235714Y-96355533D01*
X180235714Y-96355533D02*
X180188095Y-96498390D01*
X180188095Y-96498390D02*
X179616667Y-97069819D01*
X179616667Y-97069819D02*
X180235714Y-97069819D01*
X180238095Y-119269819D02*
X179761905Y-119269819D01*
X179761905Y-119269819D02*
X179714286Y-119746009D01*
X179714286Y-119746009D02*
X179761905Y-119698390D01*
X179761905Y-119698390D02*
X179857143Y-119650771D01*
X179857143Y-119650771D02*
X180095238Y-119650771D01*
X180095238Y-119650771D02*
X180190476Y-119698390D01*
X180190476Y-119698390D02*
X180238095Y-119746009D01*
X180238095Y-119746009D02*
X180285714Y-119841247D01*
X180285714Y-119841247D02*
X180285714Y-120079342D01*
X180285714Y-120079342D02*
X180238095Y-120174580D01*
X180238095Y-120174580D02*
X180190476Y-120222200D01*
X180190476Y-120222200D02*
X180095238Y-120269819D01*
X180095238Y-120269819D02*
X179857143Y-120269819D01*
X179857143Y-120269819D02*
X179761905Y-120222200D01*
X179761905Y-120222200D02*
X179714286Y-120174580D01*
X182216667Y-96069819D02*
X182835714Y-96069819D01*
X182835714Y-96069819D02*
X182502381Y-96450771D01*
X182502381Y-96450771D02*
X182645238Y-96450771D01*
X182645238Y-96450771D02*
X182740476Y-96498390D01*
X182740476Y-96498390D02*
X182788095Y-96546009D01*
X182788095Y-96546009D02*
X182835714Y-96641247D01*
X182835714Y-96641247D02*
X182835714Y-96879342D01*
X182835714Y-96879342D02*
X182788095Y-96974580D01*
X182788095Y-96974580D02*
X182740476Y-97022200D01*
X182740476Y-97022200D02*
X182645238Y-97069819D01*
X182645238Y-97069819D02*
X182359524Y-97069819D01*
X182359524Y-97069819D02*
X182264286Y-97022200D01*
X182264286Y-97022200D02*
X182216667Y-96974580D01*
X182740476Y-119603152D02*
X182740476Y-120269819D01*
X182502381Y-119222200D02*
X182264286Y-119936485D01*
X182264286Y-119936485D02*
X182883333Y-119936485D01*
X183038095Y-81217438D02*
X182942857Y-81169819D01*
X182942857Y-81169819D02*
X182800000Y-81169819D01*
X182800000Y-81169819D02*
X182657143Y-81217438D01*
X182657143Y-81217438D02*
X182561905Y-81312676D01*
X182561905Y-81312676D02*
X182514286Y-81407914D01*
X182514286Y-81407914D02*
X182466667Y-81598390D01*
X182466667Y-81598390D02*
X182466667Y-81741247D01*
X182466667Y-81741247D02*
X182514286Y-81931723D01*
X182514286Y-81931723D02*
X182561905Y-82026961D01*
X182561905Y-82026961D02*
X182657143Y-82122200D01*
X182657143Y-82122200D02*
X182800000Y-82169819D01*
X182800000Y-82169819D02*
X182895238Y-82169819D01*
X182895238Y-82169819D02*
X183038095Y-82122200D01*
X183038095Y-82122200D02*
X183085714Y-82074580D01*
X183085714Y-82074580D02*
X183085714Y-81741247D01*
X183085714Y-81741247D02*
X182895238Y-81741247D01*
X183514286Y-82169819D02*
X183514286Y-81169819D01*
X183514286Y-81169819D02*
X184085714Y-82169819D01*
X184085714Y-82169819D02*
X184085714Y-81169819D01*
X184561905Y-82169819D02*
X184561905Y-81169819D01*
X184561905Y-81169819D02*
X184800000Y-81169819D01*
X184800000Y-81169819D02*
X184942857Y-81217438D01*
X184942857Y-81217438D02*
X185038095Y-81312676D01*
X185038095Y-81312676D02*
X185085714Y-81407914D01*
X185085714Y-81407914D02*
X185133333Y-81598390D01*
X185133333Y-81598390D02*
X185133333Y-81741247D01*
X185133333Y-81741247D02*
X185085714Y-81931723D01*
X185085714Y-81931723D02*
X185038095Y-82026961D01*
X185038095Y-82026961D02*
X184942857Y-82122200D01*
X184942857Y-82122200D02*
X184800000Y-82169819D01*
X184800000Y-82169819D02*
X184561905Y-82169819D01*
X183038095Y-134217438D02*
X182942857Y-134169819D01*
X182942857Y-134169819D02*
X182800000Y-134169819D01*
X182800000Y-134169819D02*
X182657143Y-134217438D01*
X182657143Y-134217438D02*
X182561905Y-134312676D01*
X182561905Y-134312676D02*
X182514286Y-134407914D01*
X182514286Y-134407914D02*
X182466667Y-134598390D01*
X182466667Y-134598390D02*
X182466667Y-134741247D01*
X182466667Y-134741247D02*
X182514286Y-134931723D01*
X182514286Y-134931723D02*
X182561905Y-135026961D01*
X182561905Y-135026961D02*
X182657143Y-135122200D01*
X182657143Y-135122200D02*
X182800000Y-135169819D01*
X182800000Y-135169819D02*
X182895238Y-135169819D01*
X182895238Y-135169819D02*
X183038095Y-135122200D01*
X183038095Y-135122200D02*
X183085714Y-135074580D01*
X183085714Y-135074580D02*
X183085714Y-134741247D01*
X183085714Y-134741247D02*
X182895238Y-134741247D01*
X183514286Y-135169819D02*
X183514286Y-134169819D01*
X183514286Y-134169819D02*
X184085714Y-135169819D01*
X184085714Y-135169819D02*
X184085714Y-134169819D01*
X184561905Y-135169819D02*
X184561905Y-134169819D01*
X184561905Y-134169819D02*
X184800000Y-134169819D01*
X184800000Y-134169819D02*
X184942857Y-134217438D01*
X184942857Y-134217438D02*
X185038095Y-134312676D01*
X185038095Y-134312676D02*
X185085714Y-134407914D01*
X185085714Y-134407914D02*
X185133333Y-134598390D01*
X185133333Y-134598390D02*
X185133333Y-134741247D01*
X185133333Y-134741247D02*
X185085714Y-134931723D01*
X185085714Y-134931723D02*
X185038095Y-135026961D01*
X185038095Y-135026961D02*
X184942857Y-135122200D01*
X184942857Y-135122200D02*
X184800000Y-135169819D01*
X184800000Y-135169819D02*
X184561905Y-135169819D01*
X185240476Y-96403152D02*
X185240476Y-97069819D01*
X185002381Y-96022200D02*
X184764286Y-96736485D01*
X184764286Y-96736485D02*
X185383333Y-96736485D01*
X184766667Y-119269819D02*
X185385714Y-119269819D01*
X185385714Y-119269819D02*
X185052381Y-119650771D01*
X185052381Y-119650771D02*
X185195238Y-119650771D01*
X185195238Y-119650771D02*
X185290476Y-119698390D01*
X185290476Y-119698390D02*
X185338095Y-119746009D01*
X185338095Y-119746009D02*
X185385714Y-119841247D01*
X185385714Y-119841247D02*
X185385714Y-120079342D01*
X185385714Y-120079342D02*
X185338095Y-120174580D01*
X185338095Y-120174580D02*
X185290476Y-120222200D01*
X185290476Y-120222200D02*
X185195238Y-120269819D01*
X185195238Y-120269819D02*
X184909524Y-120269819D01*
X184909524Y-120269819D02*
X184814286Y-120222200D01*
X184814286Y-120222200D02*
X184766667Y-120174580D01*
X187838095Y-96069819D02*
X187361905Y-96069819D01*
X187361905Y-96069819D02*
X187314286Y-96546009D01*
X187314286Y-96546009D02*
X187361905Y-96498390D01*
X187361905Y-96498390D02*
X187457143Y-96450771D01*
X187457143Y-96450771D02*
X187695238Y-96450771D01*
X187695238Y-96450771D02*
X187790476Y-96498390D01*
X187790476Y-96498390D02*
X187838095Y-96546009D01*
X187838095Y-96546009D02*
X187885714Y-96641247D01*
X187885714Y-96641247D02*
X187885714Y-96879342D01*
X187885714Y-96879342D02*
X187838095Y-96974580D01*
X187838095Y-96974580D02*
X187790476Y-97022200D01*
X187790476Y-97022200D02*
X187695238Y-97069819D01*
X187695238Y-97069819D02*
X187457143Y-97069819D01*
X187457143Y-97069819D02*
X187361905Y-97022200D01*
X187361905Y-97022200D02*
X187314286Y-96974580D01*
X187364286Y-119365057D02*
X187411905Y-119317438D01*
X187411905Y-119317438D02*
X187507143Y-119269819D01*
X187507143Y-119269819D02*
X187745238Y-119269819D01*
X187745238Y-119269819D02*
X187840476Y-119317438D01*
X187840476Y-119317438D02*
X187888095Y-119365057D01*
X187888095Y-119365057D02*
X187935714Y-119460295D01*
X187935714Y-119460295D02*
X187935714Y-119555533D01*
X187935714Y-119555533D02*
X187888095Y-119698390D01*
X187888095Y-119698390D02*
X187316667Y-120269819D01*
X187316667Y-120269819D02*
X187935714Y-120269819D01*
X190340476Y-96069819D02*
X190150000Y-96069819D01*
X190150000Y-96069819D02*
X190054762Y-96117438D01*
X190054762Y-96117438D02*
X190007143Y-96165057D01*
X190007143Y-96165057D02*
X189911905Y-96307914D01*
X189911905Y-96307914D02*
X189864286Y-96498390D01*
X189864286Y-96498390D02*
X189864286Y-96879342D01*
X189864286Y-96879342D02*
X189911905Y-96974580D01*
X189911905Y-96974580D02*
X189959524Y-97022200D01*
X189959524Y-97022200D02*
X190054762Y-97069819D01*
X190054762Y-97069819D02*
X190245238Y-97069819D01*
X190245238Y-97069819D02*
X190340476Y-97022200D01*
X190340476Y-97022200D02*
X190388095Y-96974580D01*
X190388095Y-96974580D02*
X190435714Y-96879342D01*
X190435714Y-96879342D02*
X190435714Y-96641247D01*
X190435714Y-96641247D02*
X190388095Y-96546009D01*
X190388095Y-96546009D02*
X190340476Y-96498390D01*
X190340476Y-96498390D02*
X190245238Y-96450771D01*
X190245238Y-96450771D02*
X190054762Y-96450771D01*
X190054762Y-96450771D02*
X189959524Y-96498390D01*
X189959524Y-96498390D02*
X189911905Y-96546009D01*
X189911905Y-96546009D02*
X189864286Y-96641247D01*
X190435714Y-120269819D02*
X189864286Y-120269819D01*
X190150000Y-120269819D02*
X190150000Y-119269819D01*
X190150000Y-119269819D02*
X190054762Y-119412676D01*
X190054762Y-119412676D02*
X189959524Y-119507914D01*
X189959524Y-119507914D02*
X189864286Y-119555533D01*
X192366667Y-96069819D02*
X193033333Y-96069819D01*
X193033333Y-96069819D02*
X192604762Y-97069819D01*
X192652381Y-119269819D02*
X192747619Y-119269819D01*
X192747619Y-119269819D02*
X192842857Y-119317438D01*
X192842857Y-119317438D02*
X192890476Y-119365057D01*
X192890476Y-119365057D02*
X192938095Y-119460295D01*
X192938095Y-119460295D02*
X192985714Y-119650771D01*
X192985714Y-119650771D02*
X192985714Y-119888866D01*
X192985714Y-119888866D02*
X192938095Y-120079342D01*
X192938095Y-120079342D02*
X192890476Y-120174580D01*
X192890476Y-120174580D02*
X192842857Y-120222200D01*
X192842857Y-120222200D02*
X192747619Y-120269819D01*
X192747619Y-120269819D02*
X192652381Y-120269819D01*
X192652381Y-120269819D02*
X192557143Y-120222200D01*
X192557143Y-120222200D02*
X192509524Y-120174580D01*
X192509524Y-120174580D02*
X192461905Y-120079342D01*
X192461905Y-120079342D02*
X192414286Y-119888866D01*
X192414286Y-119888866D02*
X192414286Y-119650771D01*
X192414286Y-119650771D02*
X192461905Y-119460295D01*
X192461905Y-119460295D02*
X192509524Y-119365057D01*
X192509524Y-119365057D02*
X192557143Y-119317438D01*
X192557143Y-119317438D02*
X192652381Y-119269819D01*
X194392857Y-81884104D02*
X194869047Y-81884104D01*
X194297619Y-82169819D02*
X194630952Y-81169819D01*
X194630952Y-81169819D02*
X194964285Y-82169819D01*
X195297619Y-81788866D02*
X196059524Y-81788866D01*
X194392857Y-96684104D02*
X194869047Y-96684104D01*
X194297619Y-96969819D02*
X194630952Y-95969819D01*
X194630952Y-95969819D02*
X194964285Y-96969819D01*
X195297619Y-96588866D02*
X196059524Y-96588866D01*
X195678571Y-96969819D02*
X195678571Y-96207914D01*
X194964286Y-120222200D02*
X195107143Y-120269819D01*
X195107143Y-120269819D02*
X195345238Y-120269819D01*
X195345238Y-120269819D02*
X195440476Y-120222200D01*
X195440476Y-120222200D02*
X195488095Y-120174580D01*
X195488095Y-120174580D02*
X195535714Y-120079342D01*
X195535714Y-120079342D02*
X195535714Y-119984104D01*
X195535714Y-119984104D02*
X195488095Y-119888866D01*
X195488095Y-119888866D02*
X195440476Y-119841247D01*
X195440476Y-119841247D02*
X195345238Y-119793628D01*
X195345238Y-119793628D02*
X195154762Y-119746009D01*
X195154762Y-119746009D02*
X195059524Y-119698390D01*
X195059524Y-119698390D02*
X195011905Y-119650771D01*
X195011905Y-119650771D02*
X194964286Y-119555533D01*
X194964286Y-119555533D02*
X194964286Y-119460295D01*
X194964286Y-119460295D02*
X195011905Y-119365057D01*
X195011905Y-119365057D02*
X195059524Y-119317438D01*
X195059524Y-119317438D02*
X195154762Y-119269819D01*
X195154762Y-119269819D02*
X195392857Y-119269819D01*
X195392857Y-119269819D02*
X195535714Y-119317438D01*
X194297619Y-134169819D02*
X194630952Y-135169819D01*
X194630952Y-135169819D02*
X194964285Y-134169819D01*
X195297619Y-134788866D02*
X196059524Y-134788866D01*
X195678571Y-135169819D02*
X195678571Y-134407914D01*
X203714285Y-109874580D02*
X203666666Y-109922200D01*
X203666666Y-109922200D02*
X203523809Y-109969819D01*
X203523809Y-109969819D02*
X203428571Y-109969819D01*
X203428571Y-109969819D02*
X203285714Y-109922200D01*
X203285714Y-109922200D02*
X203190476Y-109826961D01*
X203190476Y-109826961D02*
X203142857Y-109731723D01*
X203142857Y-109731723D02*
X203095238Y-109541247D01*
X203095238Y-109541247D02*
X203095238Y-109398390D01*
X203095238Y-109398390D02*
X203142857Y-109207914D01*
X203142857Y-109207914D02*
X203190476Y-109112676D01*
X203190476Y-109112676D02*
X203285714Y-109017438D01*
X203285714Y-109017438D02*
X203428571Y-108969819D01*
X203428571Y-108969819D02*
X203523809Y-108969819D01*
X203523809Y-108969819D02*
X203666666Y-109017438D01*
X203666666Y-109017438D02*
X203714285Y-109065057D01*
X204333333Y-108969819D02*
X204523809Y-108969819D01*
X204523809Y-108969819D02*
X204619047Y-109017438D01*
X204619047Y-109017438D02*
X204714285Y-109112676D01*
X204714285Y-109112676D02*
X204761904Y-109303152D01*
X204761904Y-109303152D02*
X204761904Y-109636485D01*
X204761904Y-109636485D02*
X204714285Y-109826961D01*
X204714285Y-109826961D02*
X204619047Y-109922200D01*
X204619047Y-109922200D02*
X204523809Y-109969819D01*
X204523809Y-109969819D02*
X204333333Y-109969819D01*
X204333333Y-109969819D02*
X204238095Y-109922200D01*
X204238095Y-109922200D02*
X204142857Y-109826961D01*
X204142857Y-109826961D02*
X204095238Y-109636485D01*
X204095238Y-109636485D02*
X204095238Y-109303152D01*
X204095238Y-109303152D02*
X204142857Y-109112676D01*
X204142857Y-109112676D02*
X204238095Y-109017438D01*
X204238095Y-109017438D02*
X204333333Y-108969819D01*
X205190476Y-109969819D02*
X205190476Y-108969819D01*
X205190476Y-108969819D02*
X205523809Y-109684104D01*
X205523809Y-109684104D02*
X205857142Y-108969819D01*
X205857142Y-108969819D02*
X205857142Y-109969819D01*
X204895438Y-107721904D02*
X204847819Y-107817142D01*
X204847819Y-107817142D02*
X204847819Y-107959999D01*
X204847819Y-107959999D02*
X204895438Y-108102856D01*
X204895438Y-108102856D02*
X204990676Y-108198094D01*
X204990676Y-108198094D02*
X205085914Y-108245713D01*
X205085914Y-108245713D02*
X205276390Y-108293332D01*
X205276390Y-108293332D02*
X205419247Y-108293332D01*
X205419247Y-108293332D02*
X205609723Y-108245713D01*
X205609723Y-108245713D02*
X205704961Y-108198094D01*
X205704961Y-108198094D02*
X205800200Y-108102856D01*
X205800200Y-108102856D02*
X205847819Y-107959999D01*
X205847819Y-107959999D02*
X205847819Y-107864761D01*
X205847819Y-107864761D02*
X205800200Y-107721904D01*
X205800200Y-107721904D02*
X205752580Y-107674285D01*
X205752580Y-107674285D02*
X205419247Y-107674285D01*
X205419247Y-107674285D02*
X205419247Y-107864761D01*
X205847819Y-107245713D02*
X204847819Y-107245713D01*
X204847819Y-107245713D02*
X205847819Y-106674285D01*
X205847819Y-106674285D02*
X204847819Y-106674285D01*
X205847819Y-106198094D02*
X204847819Y-106198094D01*
X204847819Y-106198094D02*
X204847819Y-105959999D01*
X204847819Y-105959999D02*
X204895438Y-105817142D01*
X204895438Y-105817142D02*
X204990676Y-105721904D01*
X204990676Y-105721904D02*
X205085914Y-105674285D01*
X205085914Y-105674285D02*
X205276390Y-105626666D01*
X205276390Y-105626666D02*
X205419247Y-105626666D01*
X205419247Y-105626666D02*
X205609723Y-105674285D01*
X205609723Y-105674285D02*
X205704961Y-105721904D01*
X205704961Y-105721904D02*
X205800200Y-105817142D01*
X205800200Y-105817142D02*
X205847819Y-105959999D01*
X205847819Y-105959999D02*
X205847819Y-106198094D01*
D13*
X124414786Y-86269299D02*
X124081453Y-85793108D01*
X123843358Y-86269299D02*
X123843358Y-85269299D01*
X123843358Y-85269299D02*
X124224310Y-85269299D01*
X124224310Y-85269299D02*
X124319548Y-85316918D01*
X124319548Y-85316918D02*
X124367167Y-85364537D01*
X124367167Y-85364537D02*
X124414786Y-85459775D01*
X124414786Y-85459775D02*
X124414786Y-85602632D01*
X124414786Y-85602632D02*
X124367167Y-85697870D01*
X124367167Y-85697870D02*
X124319548Y-85745489D01*
X124319548Y-85745489D02*
X124224310Y-85793108D01*
X124224310Y-85793108D02*
X123843358Y-85793108D01*
X124843358Y-85745489D02*
X125176691Y-85745489D01*
X125319548Y-86269299D02*
X124843358Y-86269299D01*
X124843358Y-86269299D02*
X124843358Y-85269299D01*
X124843358Y-85269299D02*
X125319548Y-85269299D01*
X125700501Y-86221680D02*
X125843358Y-86269299D01*
X125843358Y-86269299D02*
X126081453Y-86269299D01*
X126081453Y-86269299D02*
X126176691Y-86221680D01*
X126176691Y-86221680D02*
X126224310Y-86174060D01*
X126224310Y-86174060D02*
X126271929Y-86078822D01*
X126271929Y-86078822D02*
X126271929Y-85983584D01*
X126271929Y-85983584D02*
X126224310Y-85888346D01*
X126224310Y-85888346D02*
X126176691Y-85840727D01*
X126176691Y-85840727D02*
X126081453Y-85793108D01*
X126081453Y-85793108D02*
X125890977Y-85745489D01*
X125890977Y-85745489D02*
X125795739Y-85697870D01*
X125795739Y-85697870D02*
X125748120Y-85650251D01*
X125748120Y-85650251D02*
X125700501Y-85555013D01*
X125700501Y-85555013D02*
X125700501Y-85459775D01*
X125700501Y-85459775D02*
X125748120Y-85364537D01*
X125748120Y-85364537D02*
X125795739Y-85316918D01*
X125795739Y-85316918D02*
X125890977Y-85269299D01*
X125890977Y-85269299D02*
X126129072Y-85269299D01*
X126129072Y-85269299D02*
X126271929Y-85316918D01*
X126700501Y-85745489D02*
X127033834Y-85745489D01*
X127176691Y-86269299D02*
X126700501Y-86269299D01*
X126700501Y-86269299D02*
X126700501Y-85269299D01*
X126700501Y-85269299D02*
X127176691Y-85269299D01*
X127462406Y-85269299D02*
X128033834Y-85269299D01*
X127748120Y-86269299D02*
X127748120Y-85269299D01*
X125243358Y-92395489D02*
X125576691Y-92395489D01*
X125719548Y-92919299D02*
X125243358Y-92919299D01*
X125243358Y-92919299D02*
X125243358Y-91919299D01*
X125243358Y-91919299D02*
X125719548Y-91919299D01*
X126148120Y-92919299D02*
X126148120Y-91919299D01*
X126148120Y-91919299D02*
X126719548Y-92919299D01*
X126719548Y-92919299D02*
X126719548Y-91919299D01*
X127052882Y-91919299D02*
X127386215Y-92919299D01*
X127386215Y-92919299D02*
X127719548Y-91919299D01*
X128005263Y-92633584D02*
X128481453Y-92633584D01*
X127910025Y-92919299D02*
X128243358Y-91919299D01*
X128243358Y-91919299D02*
X128576691Y-92919299D01*
X125343358Y-123945489D02*
X125676691Y-123945489D01*
X125819548Y-124469299D02*
X125343358Y-124469299D01*
X125343358Y-124469299D02*
X125343358Y-123469299D01*
X125343358Y-123469299D02*
X125819548Y-123469299D01*
X126248120Y-124469299D02*
X126248120Y-123469299D01*
X126248120Y-123469299D02*
X126819548Y-124469299D01*
X126819548Y-124469299D02*
X126819548Y-123469299D01*
X127152882Y-123469299D02*
X127486215Y-124469299D01*
X127486215Y-124469299D02*
X127819548Y-123469299D01*
X128486215Y-123945489D02*
X128629072Y-123993108D01*
X128629072Y-123993108D02*
X128676691Y-124040727D01*
X128676691Y-124040727D02*
X128724310Y-124135965D01*
X128724310Y-124135965D02*
X128724310Y-124278822D01*
X128724310Y-124278822D02*
X128676691Y-124374060D01*
X128676691Y-124374060D02*
X128629072Y-124421680D01*
X128629072Y-124421680D02*
X128533834Y-124469299D01*
X128533834Y-124469299D02*
X128152882Y-124469299D01*
X128152882Y-124469299D02*
X128152882Y-123469299D01*
X128152882Y-123469299D02*
X128486215Y-123469299D01*
X128486215Y-123469299D02*
X128581453Y-123516918D01*
X128581453Y-123516918D02*
X128629072Y-123564537D01*
X128629072Y-123564537D02*
X128676691Y-123659775D01*
X128676691Y-123659775D02*
X128676691Y-123755013D01*
X128676691Y-123755013D02*
X128629072Y-123850251D01*
X128629072Y-123850251D02*
X128581453Y-123897870D01*
X128581453Y-123897870D02*
X128486215Y-123945489D01*
X128486215Y-123945489D02*
X128152882Y-123945489D01*
X205743358Y-90195489D02*
X206076691Y-90195489D01*
X206219548Y-90719299D02*
X205743358Y-90719299D01*
X205743358Y-90719299D02*
X205743358Y-89719299D01*
X205743358Y-89719299D02*
X206219548Y-89719299D01*
X206648120Y-90719299D02*
X206648120Y-89719299D01*
X206648120Y-89719299D02*
X207219548Y-90719299D01*
X207219548Y-90719299D02*
X207219548Y-89719299D01*
X207552882Y-89719299D02*
X207886215Y-90719299D01*
X207886215Y-90719299D02*
X208219548Y-89719299D01*
X209124310Y-90624060D02*
X209076691Y-90671680D01*
X209076691Y-90671680D02*
X208933834Y-90719299D01*
X208933834Y-90719299D02*
X208838596Y-90719299D01*
X208838596Y-90719299D02*
X208695739Y-90671680D01*
X208695739Y-90671680D02*
X208600501Y-90576441D01*
X208600501Y-90576441D02*
X208552882Y-90481203D01*
X208552882Y-90481203D02*
X208505263Y-90290727D01*
X208505263Y-90290727D02*
X208505263Y-90147870D01*
X208505263Y-90147870D02*
X208552882Y-89957394D01*
X208552882Y-89957394D02*
X208600501Y-89862156D01*
X208600501Y-89862156D02*
X208695739Y-89766918D01*
X208695739Y-89766918D02*
X208838596Y-89719299D01*
X208838596Y-89719299D02*
X208933834Y-89719299D01*
X208933834Y-89719299D02*
X209076691Y-89766918D01*
X209076691Y-89766918D02*
X209124310Y-89814537D01*
X205843358Y-126195489D02*
X206176691Y-126195489D01*
X206319548Y-126719299D02*
X205843358Y-126719299D01*
X205843358Y-126719299D02*
X205843358Y-125719299D01*
X205843358Y-125719299D02*
X206319548Y-125719299D01*
X206748120Y-126719299D02*
X206748120Y-125719299D01*
X206748120Y-125719299D02*
X207319548Y-126719299D01*
X207319548Y-126719299D02*
X207319548Y-125719299D01*
X207652882Y-125719299D02*
X207986215Y-126719299D01*
X207986215Y-126719299D02*
X208319548Y-125719299D01*
X208652882Y-126719299D02*
X208652882Y-125719299D01*
X208652882Y-125719299D02*
X208890977Y-125719299D01*
X208890977Y-125719299D02*
X209033834Y-125766918D01*
X209033834Y-125766918D02*
X209129072Y-125862156D01*
X209129072Y-125862156D02*
X209176691Y-125957394D01*
X209176691Y-125957394D02*
X209224310Y-126147870D01*
X209224310Y-126147870D02*
X209224310Y-126290727D01*
X209224310Y-126290727D02*
X209176691Y-126481203D01*
X209176691Y-126481203D02*
X209129072Y-126576441D01*
X209129072Y-126576441D02*
X209033834Y-126671680D01*
X209033834Y-126671680D02*
X208890977Y-126719299D01*
X208890977Y-126719299D02*
X208652882Y-126719299D01*
D14*
X130717292Y-82577457D02*
X131431578Y-82577457D01*
X130574435Y-83006028D02*
X131074435Y-81506028D01*
X131074435Y-81506028D02*
X131574435Y-83006028D01*
X131388720Y-133420314D02*
X131603006Y-133491742D01*
X131603006Y-133491742D02*
X131674435Y-133563171D01*
X131674435Y-133563171D02*
X131745863Y-133706028D01*
X131745863Y-133706028D02*
X131745863Y-133920314D01*
X131745863Y-133920314D02*
X131674435Y-134063171D01*
X131674435Y-134063171D02*
X131603006Y-134134600D01*
X131603006Y-134134600D02*
X131460149Y-134206028D01*
X131460149Y-134206028D02*
X130888720Y-134206028D01*
X130888720Y-134206028D02*
X130888720Y-132706028D01*
X130888720Y-132706028D02*
X131388720Y-132706028D01*
X131388720Y-132706028D02*
X131531578Y-132777457D01*
X131531578Y-132777457D02*
X131603006Y-132848885D01*
X131603006Y-132848885D02*
X131674435Y-132991742D01*
X131674435Y-132991742D02*
X131674435Y-133134600D01*
X131674435Y-133134600D02*
X131603006Y-133277457D01*
X131603006Y-133277457D02*
X131531578Y-133348885D01*
X131531578Y-133348885D02*
X131388720Y-133420314D01*
X131388720Y-133420314D02*
X130888720Y-133420314D01*
X198543087Y-134148789D02*
X198543087Y-132648789D01*
X198543087Y-132648789D02*
X198900230Y-132648789D01*
X198900230Y-132648789D02*
X199114516Y-132720218D01*
X199114516Y-132720218D02*
X199257373Y-132863075D01*
X199257373Y-132863075D02*
X199328802Y-133005932D01*
X199328802Y-133005932D02*
X199400230Y-133291646D01*
X199400230Y-133291646D02*
X199400230Y-133505932D01*
X199400230Y-133505932D02*
X199328802Y-133791646D01*
X199328802Y-133791646D02*
X199257373Y-133934503D01*
X199257373Y-133934503D02*
X199114516Y-134077361D01*
X199114516Y-134077361D02*
X198900230Y-134148789D01*
X198900230Y-134148789D02*
X198543087Y-134148789D01*
X199452186Y-83209923D02*
X199380758Y-83281352D01*
X199380758Y-83281352D02*
X199166472Y-83352780D01*
X199166472Y-83352780D02*
X199023615Y-83352780D01*
X199023615Y-83352780D02*
X198809329Y-83281352D01*
X198809329Y-83281352D02*
X198666472Y-83138494D01*
X198666472Y-83138494D02*
X198595043Y-82995637D01*
X198595043Y-82995637D02*
X198523615Y-82709923D01*
X198523615Y-82709923D02*
X198523615Y-82495637D01*
X198523615Y-82495637D02*
X198595043Y-82209923D01*
X198595043Y-82209923D02*
X198666472Y-82067066D01*
X198666472Y-82067066D02*
X198809329Y-81924209D01*
X198809329Y-81924209D02*
X199023615Y-81852780D01*
X199023615Y-81852780D02*
X199166472Y-81852780D01*
X199166472Y-81852780D02*
X199380758Y-81924209D01*
X199380758Y-81924209D02*
X199452186Y-81995637D01*
D15*
X158558519Y-98767380D02*
X158406138Y-98691190D01*
X158406138Y-98691190D02*
X158177567Y-98691190D01*
X158177567Y-98691190D02*
X157948995Y-98767380D01*
X157948995Y-98767380D02*
X157796614Y-98919761D01*
X157796614Y-98919761D02*
X157720424Y-99072142D01*
X157720424Y-99072142D02*
X157644233Y-99376904D01*
X157644233Y-99376904D02*
X157644233Y-99605476D01*
X157644233Y-99605476D02*
X157720424Y-99910238D01*
X157720424Y-99910238D02*
X157796614Y-100062619D01*
X157796614Y-100062619D02*
X157948995Y-100215000D01*
X157948995Y-100215000D02*
X158177567Y-100291190D01*
X158177567Y-100291190D02*
X158329948Y-100291190D01*
X158329948Y-100291190D02*
X158558519Y-100215000D01*
X158558519Y-100215000D02*
X158634710Y-100138809D01*
X158634710Y-100138809D02*
X158634710Y-99605476D01*
X158634710Y-99605476D02*
X158329948Y-99605476D01*
X159548995Y-100291190D02*
X159396614Y-100215000D01*
X159396614Y-100215000D02*
X159320424Y-100062619D01*
X159320424Y-100062619D02*
X159320424Y-98691190D01*
X160844233Y-100291190D02*
X160844233Y-99453095D01*
X160844233Y-99453095D02*
X160768043Y-99300714D01*
X160768043Y-99300714D02*
X160615662Y-99224523D01*
X160615662Y-99224523D02*
X160310900Y-99224523D01*
X160310900Y-99224523D02*
X160158519Y-99300714D01*
X160844233Y-100215000D02*
X160691852Y-100291190D01*
X160691852Y-100291190D02*
X160310900Y-100291190D01*
X160310900Y-100291190D02*
X160158519Y-100215000D01*
X160158519Y-100215000D02*
X160082328Y-100062619D01*
X160082328Y-100062619D02*
X160082328Y-99910238D01*
X160082328Y-99910238D02*
X160158519Y-99757857D01*
X160158519Y-99757857D02*
X160310900Y-99681666D01*
X160310900Y-99681666D02*
X160691852Y-99681666D01*
X160691852Y-99681666D02*
X160844233Y-99605476D01*
X161529947Y-100215000D02*
X161682328Y-100291190D01*
X161682328Y-100291190D02*
X161987090Y-100291190D01*
X161987090Y-100291190D02*
X162139471Y-100215000D01*
X162139471Y-100215000D02*
X162215662Y-100062619D01*
X162215662Y-100062619D02*
X162215662Y-99986428D01*
X162215662Y-99986428D02*
X162139471Y-99834047D01*
X162139471Y-99834047D02*
X161987090Y-99757857D01*
X161987090Y-99757857D02*
X161758519Y-99757857D01*
X161758519Y-99757857D02*
X161606138Y-99681666D01*
X161606138Y-99681666D02*
X161529947Y-99529285D01*
X161529947Y-99529285D02*
X161529947Y-99453095D01*
X161529947Y-99453095D02*
X161606138Y-99300714D01*
X161606138Y-99300714D02*
X161758519Y-99224523D01*
X161758519Y-99224523D02*
X161987090Y-99224523D01*
X161987090Y-99224523D02*
X162139471Y-99300714D01*
X163587090Y-99224523D02*
X163587090Y-100519761D01*
X163587090Y-100519761D02*
X163510900Y-100672142D01*
X163510900Y-100672142D02*
X163434709Y-100748333D01*
X163434709Y-100748333D02*
X163282328Y-100824523D01*
X163282328Y-100824523D02*
X163053757Y-100824523D01*
X163053757Y-100824523D02*
X162901376Y-100748333D01*
X163587090Y-100215000D02*
X163434709Y-100291190D01*
X163434709Y-100291190D02*
X163129947Y-100291190D01*
X163129947Y-100291190D02*
X162977566Y-100215000D01*
X162977566Y-100215000D02*
X162901376Y-100138809D01*
X162901376Y-100138809D02*
X162825185Y-99986428D01*
X162825185Y-99986428D02*
X162825185Y-99529285D01*
X162825185Y-99529285D02*
X162901376Y-99376904D01*
X162901376Y-99376904D02*
X162977566Y-99300714D01*
X162977566Y-99300714D02*
X163129947Y-99224523D01*
X163129947Y-99224523D02*
X163434709Y-99224523D01*
X163434709Y-99224523D02*
X163587090Y-99300714D01*
X164577566Y-100291190D02*
X164425185Y-100215000D01*
X164425185Y-100215000D02*
X164348995Y-100138809D01*
X164348995Y-100138809D02*
X164272804Y-99986428D01*
X164272804Y-99986428D02*
X164272804Y-99529285D01*
X164272804Y-99529285D02*
X164348995Y-99376904D01*
X164348995Y-99376904D02*
X164425185Y-99300714D01*
X164425185Y-99300714D02*
X164577566Y-99224523D01*
X164577566Y-99224523D02*
X164806138Y-99224523D01*
X164806138Y-99224523D02*
X164958519Y-99300714D01*
X164958519Y-99300714D02*
X165034709Y-99376904D01*
X165034709Y-99376904D02*
X165110900Y-99529285D01*
X165110900Y-99529285D02*
X165110900Y-99986428D01*
X165110900Y-99986428D02*
X165034709Y-100138809D01*
X165034709Y-100138809D02*
X164958519Y-100215000D01*
X164958519Y-100215000D02*
X164806138Y-100291190D01*
X164806138Y-100291190D02*
X164577566Y-100291190D01*
X165644233Y-99224523D02*
X165948995Y-100291190D01*
X165948995Y-100291190D02*
X166253757Y-99529285D01*
X166253757Y-99529285D02*
X166558519Y-100291190D01*
X166558519Y-100291190D02*
X166863281Y-99224523D01*
X168691852Y-100291190D02*
X168691852Y-99224523D01*
X168691852Y-99529285D02*
X168768042Y-99376904D01*
X168768042Y-99376904D02*
X168844233Y-99300714D01*
X168844233Y-99300714D02*
X168996614Y-99224523D01*
X168996614Y-99224523D02*
X169148995Y-99224523D01*
X170291852Y-100215000D02*
X170139471Y-100291190D01*
X170139471Y-100291190D02*
X169834709Y-100291190D01*
X169834709Y-100291190D02*
X169682328Y-100215000D01*
X169682328Y-100215000D02*
X169606137Y-100062619D01*
X169606137Y-100062619D02*
X169606137Y-99453095D01*
X169606137Y-99453095D02*
X169682328Y-99300714D01*
X169682328Y-99300714D02*
X169834709Y-99224523D01*
X169834709Y-99224523D02*
X170139471Y-99224523D01*
X170139471Y-99224523D02*
X170291852Y-99300714D01*
X170291852Y-99300714D02*
X170368042Y-99453095D01*
X170368042Y-99453095D02*
X170368042Y-99605476D01*
X170368042Y-99605476D02*
X169606137Y-99757857D01*
X170901376Y-99224523D02*
X171282328Y-100291190D01*
X171282328Y-100291190D02*
X171663281Y-99224523D01*
X172272805Y-100291190D02*
X172272805Y-98691190D01*
X172272805Y-98691190D02*
X172653757Y-98691190D01*
X172653757Y-98691190D02*
X172882329Y-98767380D01*
X172882329Y-98767380D02*
X173034710Y-98919761D01*
X173034710Y-98919761D02*
X173110900Y-99072142D01*
X173110900Y-99072142D02*
X173187091Y-99376904D01*
X173187091Y-99376904D02*
X173187091Y-99605476D01*
X173187091Y-99605476D02*
X173110900Y-99910238D01*
X173110900Y-99910238D02*
X173034710Y-100062619D01*
X173034710Y-100062619D02*
X172882329Y-100215000D01*
X172882329Y-100215000D02*
X172653757Y-100291190D01*
X172653757Y-100291190D02*
X172272805Y-100291190D01*
X174710900Y-100291190D02*
X173796614Y-100291190D01*
X174253757Y-100291190D02*
X174253757Y-98691190D01*
X174253757Y-98691190D02*
X174101376Y-98919761D01*
X174101376Y-98919761D02*
X173948995Y-99072142D01*
X173948995Y-99072142D02*
X173796614Y-99148333D01*
G04 #@! TO.C,D80*
D11*
X204065001Y-89400001D02*
X204065001Y-91685001D01*
X204065001Y-91685001D02*
X205535001Y-91685001D01*
X205535001Y-91685001D02*
X205535001Y-89400001D01*
G04 #@! TO.C,R23*
X130420000Y-110153641D02*
X130420000Y-109846359D01*
X131180000Y-110153641D02*
X131180000Y-109846359D01*
G04 #@! TO.C,R28*
X197896142Y-116925000D02*
X197588860Y-116925000D01*
X197896142Y-117685000D02*
X197588860Y-117685000D01*
G04 #@! TO.C,TP28*
X181575000Y-99450000D02*
G75*
G02*
X180775000Y-99450000I-400000J0D01*
G01*
X180775000Y-99450000D02*
G75*
G02*
X181575000Y-99450000I400000J0D01*
G01*
G04 #@! TO.C,C46*
X193599999Y-102082164D02*
X193599999Y-102297836D01*
X194319999Y-102082164D02*
X194319999Y-102297836D01*
G04 #@! TO.C,C16*
X131240579Y-107452500D02*
X130959419Y-107452500D01*
X131240579Y-108472500D02*
X130959419Y-108472500D01*
G04 #@! TO.C,FB1*
X127037220Y-110990001D02*
X127362778Y-110990001D01*
X127037220Y-112010001D02*
X127362778Y-112010001D01*
G04 #@! TO.C,U8*
X157175000Y-101430000D02*
X157175000Y-115310000D01*
X157175000Y-115310000D02*
X171375000Y-115310000D01*
X171375000Y-101110000D02*
X157495000Y-101110000D01*
X171375000Y-115310000D02*
X171375000Y-101110000D01*
X157175000Y-101110000D02*
X156675000Y-101110000D01*
X157175000Y-100610000D01*
X157175000Y-101110000D01*
G36*
X157175000Y-101110000D02*
G01*
X156675000Y-101110000D01*
X157175000Y-100610000D01*
X157175000Y-101110000D01*
G37*
G04 #@! TO.C,C18*
X127059419Y-113990000D02*
X127340579Y-113990000D01*
X127059419Y-115010000D02*
X127340579Y-115010000D01*
G04 #@! TO.C,C43*
X190697838Y-106040000D02*
X190482166Y-106040000D01*
X190697838Y-106760000D02*
X190482166Y-106760000D01*
G04 #@! TO.C,C37*
X196704000Y-101152164D02*
X196704000Y-101367836D01*
X197424000Y-101152164D02*
X197424000Y-101367836D01*
G04 #@! TO.C,Q1*
X207364001Y-99740000D02*
X208884001Y-99740000D01*
X207364001Y-99790000D02*
X207364001Y-99740000D01*
X207364001Y-101690000D02*
X207364001Y-100910000D01*
X207364001Y-102860000D02*
X207364001Y-102810000D01*
X208884001Y-99740000D02*
X208884001Y-100740000D01*
X208884001Y-101860000D02*
X208884001Y-102860000D01*
X208884001Y-102860000D02*
X207364001Y-102860000D01*
X206824001Y-100920000D02*
X207064001Y-101250000D01*
X206584001Y-101250000D01*
X206824001Y-100920000D01*
G36*
X207064001Y-101250000D02*
G01*
X206584001Y-101250000D01*
X206824001Y-100920000D01*
X207064001Y-101250000D01*
G37*
G04 #@! TO.C,U12*
X173165001Y-109100000D02*
X180385001Y-109100000D01*
X173165001Y-115320000D02*
X173165001Y-109100000D01*
X181385001Y-110100000D02*
X181385001Y-115320000D01*
X181385001Y-115320000D02*
X173165001Y-115320000D01*
X181385001Y-109100000D02*
X181385001Y-108600000D01*
X181885001Y-109100000D01*
X181385001Y-109100000D01*
G36*
X181885001Y-109100000D02*
G01*
X181385001Y-109100000D01*
X181385001Y-108600000D01*
X181885001Y-109100000D01*
G37*
G04 #@! TO.C,C13*
X127059419Y-112490001D02*
X127340579Y-112490001D01*
X127059419Y-113510001D02*
X127340579Y-113510001D01*
G04 #@! TO.C,D14*
X196877500Y-119375000D02*
X199162500Y-119375000D01*
X199162500Y-117905000D02*
X196877500Y-117905000D01*
X199162500Y-119375000D02*
X199162500Y-117905000D01*
G04 #@! TO.C,U11*
X173165000Y-101100000D02*
X180385000Y-101100000D01*
X173165000Y-107320000D02*
X173165000Y-101100000D01*
X181385000Y-102100000D02*
X181385000Y-107320000D01*
X181385000Y-107320000D02*
X173165000Y-107320000D01*
X181385000Y-101100000D02*
X181385000Y-100600000D01*
X181885000Y-101100000D01*
X181385000Y-101100000D01*
G36*
X181885000Y-101100000D02*
G01*
X181385000Y-101100000D01*
X181385000Y-100600000D01*
X181885000Y-101100000D01*
G37*
G04 #@! TO.C,C21*
X132439999Y-111707836D02*
X132439999Y-111492164D01*
X133159999Y-111707836D02*
X133159999Y-111492164D01*
G04 #@! TO.C,C29*
X191270000Y-105057836D02*
X191270000Y-104842164D01*
X191990000Y-105057836D02*
X191990000Y-104842164D01*
G04 #@! TO.C,SW1*
D12*
X124050000Y-82066000D02*
X124050000Y-84866000D01*
X124050000Y-82066000D02*
X125600000Y-82066000D01*
X127000000Y-82066000D02*
X128550000Y-82066000D01*
X128550000Y-82066000D02*
X128550000Y-84866000D01*
X128550000Y-84866000D02*
X124050000Y-84866000D01*
G04 #@! TO.C,D28*
D11*
X118515000Y-114065000D02*
X118515000Y-115535000D01*
X118515000Y-115535000D02*
X120800000Y-115535000D01*
X120800000Y-114065000D02*
X118515000Y-114065000D01*
G04 #@! TO.C,D1*
X118515000Y-100865000D02*
X118515000Y-102335000D01*
X118515000Y-102335000D02*
X120800000Y-102335000D01*
X120800000Y-100865000D02*
X118515000Y-100865000D01*
G04 #@! TO.C,R25*
X131520000Y-114446360D02*
X131520000Y-114753642D01*
X132280000Y-114446360D02*
X132280000Y-114753642D01*
G04 #@! TO.C,J3*
X206419999Y-108205000D02*
X206419999Y-105555000D01*
X209179999Y-105555000D02*
X206419999Y-105555000D01*
X209179999Y-108205000D02*
X206419999Y-108205000D01*
X209179999Y-108205000D02*
X209179999Y-105555000D01*
X209179999Y-109475000D02*
X209179999Y-110855000D01*
X209179999Y-110855000D02*
X207799999Y-110855000D01*
G04 #@! TO.C,D60*
X125065000Y-124715000D02*
X125065000Y-127000000D01*
X126535000Y-124715000D02*
X125065000Y-124715000D01*
X126535000Y-127000000D02*
X126535000Y-124715000D01*
G04 #@! TO.C,D5*
X118515000Y-90065000D02*
X118515000Y-91535000D01*
X118515000Y-91535000D02*
X120800000Y-91535000D01*
X120800000Y-90065000D02*
X118515000Y-90065000D01*
G04 #@! TO.C,D8*
X125927499Y-105799999D02*
X125927499Y-106999999D01*
X127887499Y-105799999D02*
X125927499Y-105799999D01*
X127887499Y-106999999D02*
X125927499Y-106999999D01*
G04 #@! TO.C,D31*
D10*
X201329999Y-99060001D02*
G75*
G02*
X201229999Y-99060001I-50000J0D01*
G01*
X201229999Y-99060001D02*
G75*
G02*
X201329999Y-99060001I50000J0D01*
G01*
G04 #@! TO.C,R74*
D11*
X187516359Y-113282499D02*
X187823641Y-113282499D01*
X187516359Y-114042499D02*
X187823641Y-114042499D01*
G04 #@! TO.C,D23*
X205990000Y-111450000D02*
X205990000Y-113150000D01*
X205990000Y-111450000D02*
X208650000Y-111450000D01*
X205990000Y-113150000D02*
X208650000Y-113150000D01*
G04 #@! TO.C,U7*
X192627501Y-103590001D02*
X193102501Y-103590001D01*
X192627501Y-104065001D02*
X192627501Y-103590001D01*
X192627501Y-112810001D02*
X192627501Y-112335001D01*
X193102501Y-112810001D02*
X192627501Y-112810001D01*
X201372501Y-103590001D02*
X201847501Y-103590001D01*
X201847501Y-103590001D02*
X201847501Y-104065001D01*
X201847501Y-112335001D02*
X201847501Y-112810001D01*
X201847501Y-112810001D02*
X201372501Y-112810001D01*
X202347501Y-111950001D02*
X202677501Y-111710001D01*
X202677501Y-112190001D01*
X202347501Y-111950001D01*
G36*
X202677501Y-112190001D02*
G01*
X202347501Y-111950001D01*
X202677501Y-111710001D01*
X202677501Y-112190001D01*
G37*
G04 #@! TO.C,J11*
X184800000Y-100200000D02*
X185000000Y-100200000D01*
X184800000Y-101000000D02*
X184800000Y-100200000D01*
X184800000Y-103200000D02*
X184800000Y-102400000D01*
X185000000Y-103200000D02*
X184800000Y-103200000D01*
X187600000Y-100200000D02*
X187800000Y-100200000D01*
X187800000Y-100200000D02*
X187800000Y-101000000D01*
X187800000Y-101000000D02*
X188300000Y-101000000D01*
X187800000Y-102400000D02*
X187800000Y-103000000D01*
X187800000Y-102400000D02*
X188300000Y-102400000D01*
X187800000Y-103000000D02*
X187600000Y-103200000D01*
G04 #@! TO.C,R46*
X124020000Y-119553641D02*
X124020000Y-119246359D01*
X124780000Y-119553641D02*
X124780000Y-119246359D01*
G04 #@! TO.C,D27*
X118515000Y-116765000D02*
X118515000Y-118235000D01*
X118515000Y-118235000D02*
X120800000Y-118235000D01*
X120800000Y-116765000D02*
X118515000Y-116765000D01*
G04 #@! TO.C,C14*
X126792163Y-104840000D02*
X127007835Y-104840000D01*
X126792163Y-105560000D02*
X127007835Y-105560000D01*
G04 #@! TO.C,R12*
X201190000Y-85793642D02*
X201190000Y-85486360D01*
X201950000Y-85793642D02*
X201950000Y-85486360D01*
G04 #@! TO.C,C100*
X188440001Y-117914664D02*
X188440001Y-118130336D01*
X189160001Y-117914664D02*
X189160001Y-118130336D01*
G04 #@! TO.C,C31*
X191267837Y-110620000D02*
X191052165Y-110620000D01*
X191267837Y-111340000D02*
X191052165Y-111340000D01*
G04 #@! TO.C,R53*
X201720000Y-89846359D02*
X201720000Y-90153641D01*
X202480000Y-89846359D02*
X202480000Y-90153641D01*
G04 #@! TO.C,D24*
X118515000Y-124865000D02*
X118515000Y-126335000D01*
X118515000Y-126335000D02*
X120800000Y-126335000D01*
X120800000Y-124865000D02*
X118515000Y-124865000D01*
G04 #@! TO.C,R47*
X128676359Y-122310000D02*
X128983641Y-122310000D01*
X128676359Y-123070000D02*
X128983641Y-123070000D01*
G04 #@! TO.C,D13*
D10*
X201209999Y-122647501D02*
G75*
G02*
X201109999Y-122647501I-50000J0D01*
G01*
X201109999Y-122647501D02*
G75*
G02*
X201209999Y-122647501I50000J0D01*
G01*
G04 #@! TO.C,R34*
D11*
X206099999Y-113650000D02*
X207299999Y-113650000D01*
X207299999Y-115350000D02*
X206099999Y-115350000D01*
G04 #@! TO.C,C25*
X202550000Y-104477837D02*
X202550000Y-104262165D01*
X203270000Y-104477837D02*
X203270000Y-104262165D01*
G04 #@! TO.C,C5*
X144282281Y-104491400D02*
X144129778Y-104338897D01*
X144791398Y-103982283D02*
X144638895Y-103829780D01*
G04 #@! TO.C,C45*
X191267837Y-111590001D02*
X191052165Y-111590001D01*
X191267837Y-112310001D02*
X191052165Y-112310001D01*
G04 #@! TO.C,C33*
X200781837Y-102220000D02*
X200566165Y-102220000D01*
X200781837Y-102940000D02*
X200566165Y-102940000D01*
G04 #@! TO.C,C42*
X194519999Y-102297836D02*
X194519999Y-102082164D01*
X195239999Y-102297836D02*
X195239999Y-102082164D01*
G04 #@! TO.C,R69*
X194816358Y-118039999D02*
X195123640Y-118039999D01*
X194816358Y-118799999D02*
X195123640Y-118799999D01*
G04 #@! TO.C,D33*
D10*
X199688114Y-95868112D02*
G75*
G02*
X199588112Y-95868112I-50001J0D01*
G01*
X199588112Y-95868112D02*
G75*
G02*
X199688114Y-95868112I50001J0D01*
G01*
G04 #@! TO.C,C26*
D11*
X196357836Y-102270000D02*
X196142164Y-102270000D01*
X196357836Y-102990000D02*
X196142164Y-102990000D01*
G04 #@! TO.C,NT12*
X134396359Y-115420001D02*
X134703641Y-115420001D01*
X134396359Y-116180001D02*
X134703641Y-116180001D01*
G04 #@! TO.C,C24*
X198543999Y-102297836D02*
X198543999Y-102082164D01*
X199263999Y-102297836D02*
X199263999Y-102082164D01*
G04 #@! TO.C,C10*
X134308600Y-101917718D02*
X134461103Y-102070221D01*
X134817717Y-101408601D02*
X134970220Y-101561104D01*
G04 #@! TO.C,R126*
X127720000Y-125396359D02*
X127720000Y-125703641D01*
X128480000Y-125396359D02*
X128480000Y-125703641D01*
G04 #@! TO.C,TP11*
X175575000Y-99450000D02*
G75*
G02*
X174775000Y-99450000I-400000J0D01*
G01*
X174775000Y-99450000D02*
G75*
G02*
X175575000Y-99450000I400000J0D01*
G01*
G04 #@! TO.C,TP2*
X207550001Y-104100000D02*
G75*
G02*
X206150001Y-104100000I-700000J0D01*
G01*
X206150001Y-104100000D02*
G75*
G02*
X207550001Y-104100000I700000J0D01*
G01*
G04 #@! TO.C,R10*
X127720000Y-89146359D02*
X127720000Y-89453641D01*
X128480000Y-89146359D02*
X128480000Y-89453641D01*
G04 #@! TO.C,U10*
X125252499Y-120652500D02*
X125277499Y-120652500D01*
X125252499Y-122122500D02*
X125252499Y-120652500D01*
X125277499Y-122122500D02*
X125252499Y-122122500D01*
X127447499Y-120652500D02*
X127472499Y-120652500D01*
X127472499Y-120652500D02*
X127472499Y-122122500D01*
X127472499Y-122122500D02*
X127447499Y-122122500D01*
X127452499Y-120207500D02*
X127642499Y-120067500D01*
X127642499Y-120347500D01*
X127452499Y-120207500D01*
G36*
X127642499Y-120347500D02*
G01*
X127452499Y-120207500D01*
X127642499Y-120067500D01*
X127642499Y-120347500D01*
G37*
G04 #@! TO.C,U4*
X128977499Y-103939999D02*
X129202499Y-103939999D01*
X128977499Y-104414999D02*
X128977499Y-103939999D01*
X128977499Y-106659999D02*
X128977499Y-106184999D01*
X129202499Y-106659999D02*
X128977499Y-106659999D01*
X131472499Y-103939999D02*
X131697499Y-103939999D01*
X131697499Y-103939999D02*
X131697499Y-104414999D01*
X131697499Y-106184999D02*
X131697499Y-106659999D01*
X131697499Y-106659999D02*
X131472499Y-106659999D01*
X132197499Y-105799999D02*
X132527499Y-105559999D01*
X132527499Y-106039999D01*
X132197499Y-105799999D01*
G36*
X132527499Y-106039999D02*
G01*
X132197499Y-105799999D01*
X132527499Y-105559999D01*
X132527499Y-106039999D01*
G37*
G04 #@! TO.C,R11*
X126720000Y-125703641D02*
X126720000Y-125396359D01*
X127480000Y-125703641D02*
X127480000Y-125396359D01*
G04 #@! TO.C,C41*
X203252163Y-105379999D02*
X203467835Y-105379999D01*
X203252163Y-106099999D02*
X203467835Y-106099999D01*
G04 #@! TO.C,R49*
X199896359Y-97540001D02*
X200203641Y-97540001D01*
X199896359Y-98300001D02*
X200203641Y-98300001D01*
G04 #@! TO.C,TP1*
X209699999Y-104100000D02*
G75*
G02*
X208299999Y-104100000I-700000J0D01*
G01*
X208299999Y-104100000D02*
G75*
G02*
X209699999Y-104100000I700000J0D01*
G01*
G04 #@! TO.C,C36*
X190720000Y-115807836D02*
X190720000Y-115592164D01*
X191440000Y-115807836D02*
X191440000Y-115592164D01*
G04 #@! TO.C,C32*
X197129999Y-114152165D02*
X197129999Y-114367837D01*
X197849999Y-114152165D02*
X197849999Y-114367837D01*
G04 #@! TO.C,R83*
X165819999Y-123063641D02*
X165819999Y-122756359D01*
X166579999Y-123063641D02*
X166579999Y-122756359D01*
G04 #@! TO.C,TP9*
X177974999Y-99450000D02*
G75*
G02*
X177174999Y-99450000I-400000J0D01*
G01*
X177174999Y-99450000D02*
G75*
G02*
X177974999Y-99450000I400000J0D01*
G01*
G04 #@! TO.C,J8*
X130180000Y-122615000D02*
X130180000Y-131785000D01*
X130180000Y-131785000D02*
X134360000Y-131785000D01*
X134360000Y-122615000D02*
X130180000Y-122615000D01*
X159240000Y-122615000D02*
X159240000Y-121115000D01*
X159240000Y-122615000D02*
X163420000Y-122615000D01*
X163420000Y-122615000D02*
X163420000Y-131785000D01*
X163420000Y-131785000D02*
X159240000Y-131785000D01*
G04 #@! TO.C,D2*
X118515000Y-98165000D02*
X118515000Y-99635000D01*
X118515000Y-99635000D02*
X120800000Y-99635000D01*
X120800000Y-98165000D02*
X118515000Y-98165000D01*
G04 #@! TO.C,D6*
D10*
X126159999Y-107700001D02*
G75*
G02*
X126059999Y-107700001I-50000J0D01*
G01*
X126059999Y-107700001D02*
G75*
G02*
X126159999Y-107700001I50000J0D01*
G01*
G04 #@! TO.C,R7*
D11*
X144120000Y-100546359D02*
X144120000Y-100853641D01*
X144880000Y-100546359D02*
X144880000Y-100853641D01*
G04 #@! TO.C,C121*
X165839999Y-124642164D02*
X165839999Y-124857836D01*
X166559999Y-124642164D02*
X166559999Y-124857836D01*
G04 #@! TO.C,C11*
X138071693Y-98330809D02*
X137919190Y-98178306D01*
X138580810Y-97821692D02*
X138428307Y-97669189D01*
G04 #@! TO.C,C70*
X127650000Y-121202163D02*
X127650000Y-121417835D01*
X128370000Y-121202163D02*
X128370000Y-121417835D01*
G04 #@! TO.C,J9*
X167180000Y-84515001D02*
X171360000Y-84515001D01*
X167180000Y-93685001D02*
X167180000Y-84515001D01*
X171360000Y-93685001D02*
X167180000Y-93685001D01*
X171360000Y-93685001D02*
X171360000Y-95185001D01*
X196240000Y-93685001D02*
X200420000Y-93685001D01*
X200420000Y-84515001D02*
X196240000Y-84515001D01*
X200420000Y-93685001D02*
X200420000Y-84515001D01*
G04 #@! TO.C,C2*
X139640000Y-100192165D02*
X139640000Y-100407837D01*
X140360000Y-100192165D02*
X140360000Y-100407837D01*
G04 #@! TO.C,R21*
X201620000Y-127946360D02*
X201620000Y-128253642D01*
X202380000Y-127946360D02*
X202380000Y-128253642D01*
G04 #@! TO.C,R72*
X134290000Y-117553641D02*
X134290000Y-117246359D01*
X135050000Y-117553641D02*
X135050000Y-117246359D01*
G04 #@! TO.C,C30*
X204109420Y-111040000D02*
X204390580Y-111040000D01*
X204109420Y-112060000D02*
X204390580Y-112060000D01*
G04 #@! TO.C,Q2*
X203504000Y-99740000D02*
X205024000Y-99740000D01*
X203504000Y-100740000D02*
X203504000Y-99740000D01*
X203504000Y-102860000D02*
X203504000Y-101860000D01*
X205024000Y-99740000D02*
X205024000Y-99790000D01*
X205024000Y-100910000D02*
X205024000Y-101690000D01*
X205024000Y-102810000D02*
X205024000Y-102860000D01*
X205024000Y-102860000D02*
X203504000Y-102860000D01*
X205564000Y-101680000D02*
X205324000Y-101350000D01*
X205804000Y-101350000D01*
X205564000Y-101680000D01*
G36*
X205564000Y-101680000D02*
G01*
X205324000Y-101350000D01*
X205804000Y-101350000D01*
X205564000Y-101680000D01*
G37*
G04 #@! TO.C,J12*
D10*
X173150000Y-119305000D02*
X173350000Y-119505000D01*
X173350000Y-119305000D02*
X173150000Y-119305000D01*
X173350000Y-119305000D02*
X173250000Y-119405000D01*
X173350000Y-119505000D02*
X173350000Y-119305000D01*
G04 #@! TO.C,U5*
D12*
X129574999Y-113624999D02*
X129574999Y-112924999D01*
X130274999Y-113624999D02*
X129574999Y-113624999D01*
X132224999Y-113499999D02*
X132224999Y-111099999D01*
G04 #@! TO.C,C35*
D11*
X197624000Y-101152165D02*
X197624000Y-101367837D01*
X198344000Y-101152165D02*
X198344000Y-101367837D01*
G04 #@! TO.C,C12*
X193407836Y-99640000D02*
X193192164Y-99640000D01*
X193407836Y-100360000D02*
X193192164Y-100360000D01*
G04 #@! TO.C,C17*
X132410000Y-104392164D02*
X132410000Y-104607836D01*
X133130000Y-104392164D02*
X133130000Y-104607836D01*
G04 #@! TO.C,R168*
X201190000Y-87486359D02*
X201190000Y-87793641D01*
X201950000Y-87486359D02*
X201950000Y-87793641D01*
G04 #@! TO.C,D7*
D10*
X126159999Y-108700001D02*
G75*
G02*
X126059999Y-108700001I-50000J0D01*
G01*
X126059999Y-108700001D02*
G75*
G02*
X126159999Y-108700001I50000J0D01*
G01*
G04 #@! TO.C,D32*
X123330000Y-123250000D02*
G75*
G02*
X123230000Y-123250000I-50000J0D01*
G01*
X123230000Y-123250000D02*
G75*
G02*
X123330000Y-123250000I50000J0D01*
G01*
G04 #@! TO.C,J5*
D11*
X203985000Y-92480000D02*
X203985000Y-92415000D01*
X203985000Y-98985000D02*
X203985000Y-98920000D01*
X207615000Y-92415000D02*
X203985000Y-92415000D01*
X207615000Y-92480000D02*
X207615000Y-92415000D01*
X207615000Y-98985000D02*
X203985000Y-98985000D01*
X207615000Y-98985000D02*
X207615000Y-98920000D01*
X208890000Y-98920000D02*
X207615000Y-98920000D01*
G04 #@! TO.C,J2*
X203984999Y-117479999D02*
X203984999Y-117414999D01*
X203984999Y-123984999D02*
X203984999Y-123919999D01*
X207614999Y-117414999D02*
X203984999Y-117414999D01*
X207614999Y-117479999D02*
X207614999Y-117414999D01*
X207614999Y-123984999D02*
X203984999Y-123984999D01*
X207614999Y-123984999D02*
X207614999Y-123919999D01*
X208889999Y-123919999D02*
X207614999Y-123919999D01*
G04 #@! TO.C,D30*
D10*
X201380000Y-96870000D02*
G75*
G02*
X201280000Y-96870000I-50000J0D01*
G01*
X201280000Y-96870000D02*
G75*
G02*
X201380000Y-96870000I50000J0D01*
G01*
G04 #@! TO.C,C95*
D11*
X129177501Y-117254663D02*
X129177501Y-117470335D01*
X129897501Y-117254663D02*
X129897501Y-117470335D01*
G04 #@! TO.C,C51*
X204982164Y-112530000D02*
X205197836Y-112530000D01*
X204982164Y-113250000D02*
X205197836Y-113250000D01*
G04 #@! TO.C,D11*
D10*
X200960001Y-116590000D02*
G75*
G02*
X200860001Y-116590000I-50000J0D01*
G01*
X200860001Y-116590000D02*
G75*
G02*
X200960001Y-116590000I50000J0D01*
G01*
G04 #@! TO.C,C22*
D11*
X133490000Y-107490000D02*
X135840000Y-107490000D01*
X133490000Y-113245563D02*
X133490000Y-107490000D01*
X134554437Y-114310000D02*
X133490000Y-113245563D01*
X134554437Y-114310000D02*
X135840000Y-114310000D01*
X134658750Y-114943750D02*
X135446250Y-114943750D01*
X135052500Y-115337500D02*
X135052500Y-114550000D01*
X139245563Y-114310000D02*
X137960000Y-114310000D01*
X139245563Y-114310000D02*
X140310000Y-113245563D01*
X140310000Y-107490000D02*
X137960000Y-107490000D01*
X140310000Y-113245563D02*
X140310000Y-107490000D01*
G04 #@! TO.C,C9*
X140619999Y-110322164D02*
X140619999Y-110537836D01*
X141339999Y-110322164D02*
X141339999Y-110537836D01*
G04 #@! TO.C,U20*
X131227500Y-116289999D02*
X133047500Y-116289999D01*
X131227500Y-116339999D02*
X131227500Y-116289999D01*
X131227500Y-119409999D02*
X131227500Y-119359999D01*
X133047500Y-116289999D02*
X133047500Y-116339999D01*
X133047500Y-119359999D02*
X133047500Y-119409999D01*
X133047500Y-119409999D02*
X131227500Y-119409999D01*
X130687500Y-116339999D02*
X130447500Y-116009999D01*
X130927500Y-116009999D01*
X130687500Y-116339999D01*
G36*
X130687500Y-116339999D02*
G01*
X130447500Y-116009999D01*
X130927500Y-116009999D01*
X130687500Y-116339999D01*
G37*
G04 #@! TO.C,J6*
X146366666Y-100540001D02*
X146789999Y-100540001D01*
X146789999Y-100540001D02*
X146789999Y-99490001D01*
X146789999Y-115860001D02*
X146789999Y-116910001D01*
X146789999Y-116910001D02*
X147699999Y-116910001D01*
X147699999Y-98600001D02*
X149899999Y-98600001D01*
X147699999Y-99490001D02*
X146789999Y-99490001D01*
X147699999Y-99490001D02*
X147699999Y-98600001D01*
X147699999Y-116910001D02*
X147699999Y-117800001D01*
X147699999Y-117800001D02*
X149899999Y-117800001D01*
X149899999Y-99500001D02*
X149899999Y-98600001D01*
X149899999Y-116900001D02*
X149899999Y-117800001D01*
X149899999Y-116900001D02*
X150799999Y-116900001D01*
X150809999Y-99500001D02*
X149899999Y-99500001D01*
X150809999Y-99500001D02*
X150809999Y-100540001D01*
X150809999Y-116900001D02*
X150809999Y-115860001D01*
G04 #@! TO.C,J1*
X115549999Y-103500001D02*
X115549999Y-112900001D01*
X117449999Y-103500001D02*
X115549999Y-103500001D01*
X117449999Y-112900001D02*
X115549999Y-112900001D01*
X121349999Y-103500001D02*
X119349999Y-103500001D01*
X121349999Y-112900001D02*
X119349999Y-112900001D01*
G04 #@! TO.C,J7*
X130180000Y-84515001D02*
X134360000Y-84515001D01*
X130180000Y-93685001D02*
X130180000Y-84515001D01*
X134360000Y-93685001D02*
X130180000Y-93685001D01*
X134360000Y-93685001D02*
X134360000Y-95185001D01*
X159240000Y-93685001D02*
X163420000Y-93685001D01*
X163420000Y-84515001D02*
X159240000Y-84515001D01*
X163420000Y-93685001D02*
X163420000Y-84515001D01*
G04 #@! TO.C,C15*
X128340001Y-108307837D02*
X128340001Y-108092165D01*
X129060001Y-108307837D02*
X129060001Y-108092165D01*
G04 #@! TO.C,C103*
X185677836Y-118192499D02*
X185462164Y-118192499D01*
X185677836Y-118912499D02*
X185462164Y-118912499D01*
G04 #@! TO.C,D9*
X125927501Y-109400000D02*
X125927501Y-110600000D01*
X127887501Y-109400000D02*
X125927501Y-109400000D01*
X127887501Y-110600000D02*
X125927501Y-110600000D01*
G04 #@! TO.C,R252*
X130603641Y-114820000D02*
X130296359Y-114820000D01*
X130603641Y-115580000D02*
X130296359Y-115580000D01*
G04 #@! TO.C,R50*
X124176358Y-122000000D02*
X124483640Y-122000000D01*
X124176358Y-122760000D02*
X124483640Y-122760000D01*
G04 #@! TO.C,R51*
X200096359Y-99810000D02*
X200403641Y-99810000D01*
X200096359Y-100570000D02*
X200403641Y-100570000D01*
G04 #@! TO.C,D40*
X125064999Y-89400001D02*
X125064999Y-91685001D01*
X125064999Y-91685001D02*
X126534999Y-91685001D01*
X126534999Y-91685001D02*
X126534999Y-89400001D01*
G04 #@! TO.C,C20*
X129439999Y-109892164D02*
X129439999Y-110107836D01*
X130159999Y-109892164D02*
X130159999Y-110107836D01*
G04 #@! TO.C,U3*
X192565000Y-99010001D02*
X192565000Y-97590001D01*
X194435000Y-97874433D02*
X194435000Y-99010001D01*
X194440000Y-97580001D02*
X194630000Y-97440001D01*
X194630000Y-97720001D01*
X194440000Y-97580001D01*
G36*
X194630000Y-97720001D02*
G01*
X194440000Y-97580001D01*
X194630000Y-97440001D01*
X194630000Y-97720001D01*
G37*
G04 #@! TO.C,Y1*
X136647487Y-97134208D02*
X133734207Y-100047488D01*
X139065793Y-99552514D02*
X136647487Y-97134208D01*
G04 #@! TO.C,TP7*
X180375000Y-99450000D02*
G75*
G02*
X179575000Y-99450000I-400000J0D01*
G01*
X179575000Y-99450000D02*
G75*
G02*
X180375000Y-99450000I400000J0D01*
G01*
G04 #@! TO.C,R84*
X126720000Y-89453641D02*
X126720000Y-89146359D01*
X127480000Y-89453641D02*
X127480000Y-89146359D01*
G04 #@! TO.C,U1*
X141289999Y-111490001D02*
X141464999Y-111490001D01*
X141289999Y-116110001D02*
X141289999Y-111490001D01*
X141464999Y-116110001D02*
X141289999Y-116110001D01*
X144334999Y-111490001D02*
X144509999Y-111490001D01*
X144509999Y-111490001D02*
X144509999Y-116110001D01*
X144509999Y-116110001D02*
X144334999Y-116110001D01*
X141459999Y-116670001D02*
X141129999Y-116910001D01*
X141129999Y-116430001D01*
X141459999Y-116670001D01*
G36*
X141459999Y-116670001D02*
G01*
X141129999Y-116910001D01*
X141129999Y-116430001D01*
X141459999Y-116670001D01*
G37*
G04 #@! TO.C,C3*
X136282282Y-104591398D02*
X136129779Y-104438895D01*
X136791399Y-104082281D02*
X136638896Y-103929778D01*
G04 #@! TO.C,TP8*
X179174999Y-99450000D02*
G75*
G02*
X178374999Y-99450000I-400000J0D01*
G01*
X178374999Y-99450000D02*
G75*
G02*
X179174999Y-99450000I400000J0D01*
G01*
G04 #@! TO.C,R76*
X201596358Y-91020001D02*
X201903640Y-91020001D01*
X201596358Y-91780001D02*
X201903640Y-91780001D01*
G04 #@! TO.C,D4*
X118515000Y-92765000D02*
X118515000Y-94235000D01*
X118515000Y-94235000D02*
X120800000Y-94235000D01*
X120800000Y-92765000D02*
X118515000Y-92765000D01*
G04 #@! TO.C,D29*
D10*
X203690000Y-90870000D02*
G75*
G02*
X203590000Y-90870000I-50000J0D01*
G01*
X203590000Y-90870000D02*
G75*
G02*
X203690000Y-90870000I50000J0D01*
G01*
G04 #@! TO.C,C104*
D11*
X183597837Y-117812500D02*
X183382165Y-117812500D01*
X183597837Y-118532500D02*
X183382165Y-118532500D01*
G04 #@! TO.C,C58*
X166940000Y-97207836D02*
X166940000Y-96992164D01*
X167660000Y-97207836D02*
X167660000Y-96992164D01*
G04 #@! TO.C,R258*
X164219999Y-89946359D02*
X164219999Y-90253641D01*
X164979999Y-89946359D02*
X164979999Y-90253641D01*
G04 #@! TO.C,C19*
X131440001Y-109892164D02*
X131440001Y-110107836D01*
X132160001Y-109892164D02*
X132160001Y-110107836D01*
G04 #@! TO.C,D26*
X118515000Y-119465000D02*
X118515000Y-120935000D01*
X118515000Y-120935000D02*
X120800000Y-120935000D01*
X120800000Y-119465000D02*
X118515000Y-119465000D01*
G04 #@! TO.C,D3*
X118515000Y-95465000D02*
X118515000Y-96935000D01*
X118515000Y-96935000D02*
X120800000Y-96935000D01*
X120800000Y-95465000D02*
X118515000Y-95465000D01*
G04 #@! TO.C,J4*
X123890000Y-130615000D02*
X124940000Y-130615000D01*
X123890000Y-133115000D02*
X123890000Y-130615000D01*
X124940000Y-130615000D02*
X124940000Y-129625000D01*
X125060000Y-135085000D02*
X127940000Y-135085000D01*
X129110000Y-130615000D02*
X128060000Y-130615000D01*
X129110000Y-133115000D02*
X129110000Y-130615000D01*
G04 #@! TO.C,R73*
X187450000Y-118176141D02*
X187450000Y-117868859D01*
X188210000Y-118176141D02*
X188210000Y-117868859D01*
G04 #@! TO.C,C34*
X200994580Y-100880000D02*
X200713420Y-100880000D01*
X200994580Y-101900000D02*
X200713420Y-101900000D01*
G04 #@! TO.C,R24*
X132520000Y-114753641D02*
X132520000Y-114446359D01*
X133280000Y-114753641D02*
X133280000Y-114446359D01*
G04 #@! TO.C,R6*
X142453641Y-117820001D02*
X142146359Y-117820001D01*
X142453641Y-118580001D02*
X142146359Y-118580001D01*
G04 #@! TO.C,R210*
X201620000Y-126353641D02*
X201620000Y-126046359D01*
X202380000Y-126353641D02*
X202380000Y-126046359D01*
G04 #@! TO.C,C44*
X192697836Y-102240001D02*
X192482164Y-102240001D01*
X192697836Y-102960001D02*
X192482164Y-102960001D01*
G04 #@! TO.C,D25*
X118515000Y-122165000D02*
X118515000Y-123635000D01*
X118515000Y-123635000D02*
X120800000Y-123635000D01*
X120800000Y-122165000D02*
X118515000Y-122165000D01*
G04 #@! TO.C,R29*
X190436360Y-107020000D02*
X190743642Y-107020000D01*
X190436360Y-107780000D02*
X190743642Y-107780000D01*
G04 #@! TO.C,C28*
X202090000Y-113132164D02*
X202090000Y-113347836D01*
X202810000Y-113132164D02*
X202810000Y-113347836D01*
G04 #@! TO.C,D34*
D10*
X202970000Y-90870000D02*
G75*
G02*
X202870000Y-90870000I-50000J0D01*
G01*
X202870000Y-90870000D02*
G75*
G02*
X202970000Y-90870000I50000J0D01*
G01*
G04 #@! TO.C,J10*
D11*
X167180000Y-122615000D02*
X167180000Y-131785000D01*
X167180000Y-131785000D02*
X171360000Y-131785000D01*
X171360000Y-122615000D02*
X167180000Y-122615000D01*
X196240000Y-122615000D02*
X196240000Y-121115000D01*
X196240000Y-122615000D02*
X200420000Y-122615000D01*
X200420000Y-122615000D02*
X200420000Y-131785000D01*
X200420000Y-131785000D02*
X196240000Y-131785000D01*
G04 #@! TO.C,Y2*
X191670000Y-113990000D02*
X191670000Y-117410000D01*
X191670000Y-117410000D02*
X195790000Y-117410000D01*
G04 #@! TO.C,R60*
X130603641Y-113880000D02*
X130296359Y-113880000D01*
X130603641Y-114640000D02*
X130296359Y-114640000D01*
G04 #@! TO.C,D12*
D10*
X201490001Y-117720000D02*
G75*
G02*
X201390001Y-117720000I-50000J0D01*
G01*
X201390001Y-117720000D02*
G75*
G02*
X201490001Y-117720000I50000J0D01*
G01*
G04 #@! TO.C,C8*
D11*
X137769190Y-103578308D02*
X137921693Y-103730811D01*
X138278307Y-103069191D02*
X138430810Y-103221694D01*
G04 #@! TO.C,D100*
X204065001Y-125400000D02*
X204065001Y-127685000D01*
X204065001Y-127685000D02*
X205535001Y-127685000D01*
X205535001Y-127685000D02*
X205535001Y-125400000D01*
G04 #@! TO.C,C39*
X195784000Y-101152164D02*
X195784000Y-101367836D01*
X196504000Y-101152164D02*
X196504000Y-101367836D01*
G04 #@! TO.C,C38*
X196020000Y-115592164D02*
X196020000Y-115807836D01*
X196740000Y-115592164D02*
X196740000Y-115807836D01*
G04 #@! TO.C,R82*
X162446358Y-94620001D02*
X162753640Y-94620001D01*
X162446358Y-95380001D02*
X162753640Y-95380001D01*
G04 #@! TO.C,C1*
X141621692Y-99969191D02*
X141469189Y-100121694D01*
X142130809Y-100478308D02*
X141978306Y-100630811D01*
G04 #@! TO.C,TP10*
X176774999Y-99450000D02*
G75*
G02*
X175974999Y-99450000I-400000J0D01*
G01*
X175974999Y-99450000D02*
G75*
G02*
X176774999Y-99450000I400000J0D01*
G01*
G04 #@! TO.C,R8*
X143020000Y-100546359D02*
X143020000Y-100853641D01*
X143780000Y-100546359D02*
X143780000Y-100853641D01*
G04 #@! TO.C,R52*
X198496358Y-96320001D02*
X198803640Y-96320001D01*
X198496358Y-97080001D02*
X198803640Y-97080001D01*
G04 #@! TO.C,C40*
X203252163Y-106300000D02*
X203467835Y-106300000D01*
X203252163Y-107020000D02*
X203467835Y-107020000D01*
G04 #@! TO.C,U21*
X183960000Y-114310000D02*
X184435000Y-114310000D01*
X183960000Y-114785000D02*
X183960000Y-114310000D01*
X183960000Y-117530000D02*
X183960000Y-117055000D01*
X184435000Y-117530000D02*
X183960000Y-117530000D01*
X186705000Y-114310000D02*
X187180000Y-114310000D01*
X187180000Y-114310000D02*
X187180000Y-114785000D01*
X187180000Y-117055000D02*
X187180000Y-117530000D01*
X187180000Y-117530000D02*
X186705000Y-117530000D01*
X187710000Y-116670000D02*
X188040000Y-116430000D01*
X188040000Y-116910000D01*
X187710000Y-116670000D01*
G36*
X188040000Y-116910000D02*
G01*
X187710000Y-116670000D01*
X188040000Y-116430000D01*
X188040000Y-116910000D01*
G37*
G04 #@! TD*
D16*
X210299999Y-131200001D02*
X210299999Y-131200001D01*
G75*
G02*
X205799999Y-135700001I-4499999J1D01*
G01*
X119800000Y-135700001D01*
G75*
G02*
X115300000Y-131200001I0J4500001D01*
G01*
X115300000Y-85200001D01*
G75*
G02*
X119800000Y-80700001I4500000J1D01*
G01*
X205799999Y-80700001D01*
G75*
G02*
X210299999Y-85200001I1J-4499999D01*
G01*
X210299999Y-131200001D01*
M02*
