G04 #@! TF.GenerationSoftware,KiCad,Pcbnew,10.0.5+dfsg-1*
G04 #@! TF.CreationDate,2026-09-25T10:13:48+00:00*
G04 #@! TF.ProjectId,glasgow,676c6173-676f-4772-9e6b-696361645f70,rev?*
G04 #@! TF.SameCoordinates,Original*
G04 #@! TF.FileFunction,Copper,L3,Inr*
G04 #@! TF.FilePolarity,Positive*
%FSLAX46Y46*%
G04 Gerber Fmt 4.6, Leading zero omitted, Abs format (unit mm)*
G04 Created by KiCad (PCBNEW 10.0.5+dfsg-1) date 2026-09-25 10:13:48*
%MOMM*%
%LPD*%
G01*
G04 APERTURE LIST*
G04 #@! TA.AperFunction,ComponentPad*
%ADD10C,1.200000*%
G04 #@! TD*
G04 #@! TA.AperFunction,ComponentPad*
%ADD11C,6.400000*%
G04 #@! TD*
G04 #@! TA.AperFunction,ComponentPad*
%ADD12R,1.700000X1.700000*%
G04 #@! TD*
G04 #@! TA.AperFunction,ComponentPad*
%ADD13C,1.700000*%
G04 #@! TD*
G04 #@! TA.AperFunction,ComponentPad*
%ADD14O,2.100000X1.000000*%
G04 #@! TD*
G04 #@! TA.AperFunction,ComponentPad*
%ADD15O,1.600000X1.000000*%
G04 #@! TD*
G04 #@! TA.AperFunction,ViaPad*
%ADD16C,0.300000*%
G04 #@! TD*
G04 #@! TA.AperFunction,ViaPad*
%ADD17C,0.450000*%
G04 #@! TD*
G04 #@! TA.AperFunction,ViaPad*
%ADD18C,0.400000*%
G04 #@! TD*
G04 #@! TA.AperFunction,ViaPad*
%ADD19C,0.600000*%
G04 #@! TD*
G04 #@! TA.AperFunction,Conductor*
%ADD20C,0.400000*%
G04 #@! TD*
G04 #@! TA.AperFunction,Conductor*
%ADD21C,0.250000*%
G04 #@! TD*
G04 #@! TA.AperFunction,Conductor*
%ADD22C,0.500000*%
G04 #@! TD*
G04 #@! TA.AperFunction,Conductor*
%ADD23C,0.200000*%
G04 #@! TD*
G04 #@! TA.AperFunction,Conductor*
%ADD24C,0.300000*%
G04 #@! TD*
G04 #@! TA.AperFunction,Conductor*
%ADD25C,0.600000*%
G04 #@! TD*
G04 #@! TA.AperFunction,Conductor*
%ADD26C,0.090000*%
G04 #@! TD*
G04 #@! TA.AperFunction,Conductor*
%ADD27C,0.120000*%
G04 #@! TD*
G04 #@! TA.AperFunction,Profile*
%ADD28C,0.050000*%
G04 #@! TD*
G04 APERTURE END LIST*
D10*
G04 #@! TO.N,GND*
G04 #@! TO.C,SW1*
X124800000Y-83916000D03*
G04 #@! TO.N,/PG_{VBUS}*
X127800000Y-83916000D03*
G04 #@! TO.N,unconnected-(SW1-B-PadSH)*
X126300000Y-82066000D03*
G04 #@! TD*
D11*
G04 #@! TO.N,GND*
G04 #@! TO.C,H1*
X119800000Y-85200000D03*
G04 #@! TD*
D12*
G04 #@! TO.N,/ADC/REMOTE_COM*
G04 #@! TO.C,J3*
X207799999Y-109475000D03*
D13*
G04 #@! TO.N,GND*
X207799999Y-106935000D03*
G04 #@! TD*
D11*
G04 #@! TO.N,GND*
G04 #@! TO.C,H4*
X205800000Y-131200000D03*
G04 #@! TD*
G04 #@! TO.N,GND*
G04 #@! TO.C,H3*
X205800000Y-85200000D03*
G04 #@! TD*
G04 #@! TO.N,GND*
G04 #@! TO.C,H2*
X119800000Y-131200000D03*
G04 #@! TD*
D14*
G04 #@! TO.N,GND*
G04 #@! TO.C,J1*
X122579999Y-103880001D03*
D15*
X118399999Y-103880001D03*
D14*
X122579999Y-112520001D03*
D15*
X118399999Y-112520001D03*
G04 #@! TD*
D16*
G04 #@! TO.N,GND*
X140520000Y-107080000D03*
X154856800Y-120898400D03*
X207750000Y-120700000D03*
X208399999Y-93160001D03*
X127949999Y-103410001D03*
X139120000Y-97720000D03*
X170680000Y-133200001D03*
X193080000Y-112930000D03*
X146750000Y-134080000D03*
X165600000Y-93387501D03*
X192850001Y-126340001D03*
X169475000Y-111810001D03*
X139920000Y-102390000D03*
X119200000Y-90800000D03*
X161475000Y-114210000D03*
X129580001Y-105300000D03*
X163410000Y-89100000D03*
X141960000Y-90560001D03*
X163075000Y-109410000D03*
X159980000Y-101080000D03*
X153200000Y-132600000D03*
X131800001Y-109520001D03*
X195770000Y-102630000D03*
X142030000Y-86320000D03*
X131500001Y-130080000D03*
X130150001Y-122100000D03*
X135540000Y-113460000D03*
X133780001Y-82630000D03*
X138560000Y-95572500D03*
X145600000Y-112700001D03*
X136409999Y-110510000D03*
X147370000Y-118030000D03*
X143700000Y-126050000D03*
X183924038Y-111992165D03*
X131050001Y-86550000D03*
X191400000Y-87000000D03*
X147135199Y-91434401D03*
X163875001Y-113410000D03*
X173210000Y-118940000D03*
X162275000Y-103810000D03*
X161519999Y-98500000D03*
X118400000Y-114800000D03*
X182499999Y-132600001D03*
X148200001Y-101000000D03*
X144470001Y-96290000D03*
X127929999Y-120830000D03*
X163075000Y-103010000D03*
X165475000Y-107010000D03*
X143400000Y-103600000D03*
X156630000Y-100770000D03*
X126425000Y-114500000D03*
X163410001Y-87790000D03*
X205450000Y-115777142D03*
X179987499Y-103687500D03*
X172169999Y-96300000D03*
X189160001Y-95572500D03*
X152280000Y-89970001D03*
X178780000Y-102300000D03*
X198980000Y-112637500D03*
X205449999Y-112777142D03*
X183382500Y-99912501D03*
X187610000Y-85300000D03*
X136730000Y-105600000D03*
X141440000Y-125380000D03*
X158275001Y-102210000D03*
X157540000Y-107010000D03*
X126425000Y-113000001D03*
X166970001Y-133080000D03*
X163875001Y-107810000D03*
X206479999Y-125760001D03*
D17*
X127100000Y-125040001D03*
D16*
X155340000Y-98640000D03*
X137510000Y-105250000D03*
X163875001Y-109410000D03*
X184779999Y-120610000D03*
X135400000Y-134100000D03*
X178149999Y-89959999D03*
X159075001Y-104610000D03*
X143310000Y-98900001D03*
X162860000Y-99680000D03*
X205900001Y-96800000D03*
X165670000Y-118500000D03*
X169989999Y-87060000D03*
X145349999Y-95701601D03*
X143500001Y-103000000D03*
X163269999Y-96850001D03*
X200072502Y-118200000D03*
X127887500Y-106400000D03*
X154989999Y-115400002D03*
X167200000Y-127850000D03*
X145650000Y-126340000D03*
X177400000Y-86900000D03*
X155700000Y-129400000D03*
X137160588Y-100739410D03*
X159075000Y-111810000D03*
X185219999Y-82700001D03*
X173170001Y-83560000D03*
X148200001Y-101000000D03*
X193019999Y-88530000D03*
X147000000Y-108950000D03*
X162630000Y-97860000D03*
X145870000Y-118330000D03*
X185239999Y-126181599D03*
X171120000Y-127280001D03*
X192699999Y-129400000D03*
X178439999Y-125622801D03*
X166199999Y-125300001D03*
X143809999Y-122820000D03*
X164410000Y-99530000D03*
X159579999Y-102590001D03*
X190250000Y-96760000D03*
X132300000Y-109180000D03*
X206549999Y-112299999D03*
X205399999Y-122600000D03*
X175275000Y-106210000D03*
X190110001Y-106400000D03*
X189450000Y-126340000D03*
X163075000Y-103810000D03*
X158275000Y-114210000D03*
X179740000Y-130980000D03*
X204799999Y-126987500D03*
D17*
X202624999Y-99900000D03*
D16*
X172680002Y-101419999D03*
D17*
X125800000Y-125412499D03*
D16*
X199295000Y-133350000D03*
X154699999Y-126259999D03*
X145380000Y-133600000D03*
X144810000Y-127920000D03*
X134429999Y-113639999D03*
X169889999Y-118530001D03*
X130840001Y-105552500D03*
X139477499Y-130710000D03*
X132720000Y-101710001D03*
X199000000Y-98700000D03*
X139799999Y-104460000D03*
X205349999Y-123877143D03*
X188569999Y-129980000D03*
X188350000Y-89960000D03*
X187600000Y-84000001D03*
X175040000Y-126181600D03*
X177400000Y-83700001D03*
X166590000Y-99560001D03*
X137991201Y-120593600D03*
D17*
X128800000Y-134275001D03*
D16*
X142210000Y-104440001D03*
X151539999Y-116129999D03*
X198970000Y-101710001D03*
X207750001Y-95700000D03*
X179950001Y-86320000D03*
X162275000Y-109410000D03*
X164674999Y-109410000D03*
X129400000Y-107910000D03*
X165475001Y-109410000D03*
X139960000Y-105490000D03*
X163420001Y-86490000D03*
X201674999Y-105449999D03*
X179950001Y-112700001D03*
X141960000Y-95572500D03*
X123167500Y-120930001D03*
X135169999Y-95701601D03*
X151656400Y-120898400D03*
X202910000Y-103890001D03*
X141550000Y-101400001D03*
X134120000Y-114170001D03*
X205450001Y-117277142D03*
X136390000Y-83890000D03*
X185850000Y-133770000D03*
X161049999Y-111450001D03*
X167109999Y-91420000D03*
X135449999Y-126339999D03*
X148760001Y-89980000D03*
X124039999Y-120639999D03*
X170130000Y-95430001D03*
X145540000Y-115480000D03*
X138409999Y-108420001D03*
X128100000Y-89809999D03*
X163419999Y-127859999D03*
X165000000Y-122912500D03*
X165810000Y-85690001D03*
X120170000Y-103100000D03*
X169100001Y-125900001D03*
X167300000Y-96620001D03*
X150620000Y-113960000D03*
X183962501Y-105512501D03*
X185090000Y-118552499D03*
X161460799Y-93618801D03*
X194140000Y-133740000D03*
X178959999Y-91154999D03*
X174699999Y-105490000D03*
X203270000Y-116420000D03*
X137910001Y-85300000D03*
X148090001Y-114070000D03*
X192580000Y-111465000D03*
X128390001Y-105300000D03*
X139799999Y-95709999D03*
X127379999Y-105200000D03*
X182650000Y-126340000D03*
X178030001Y-120520001D03*
X149050001Y-126340001D03*
X171220000Y-118640001D03*
X198110000Y-92220000D03*
X182349999Y-95730001D03*
X153150000Y-85299999D03*
X181549999Y-89959999D03*
X134059999Y-95900000D03*
X196990000Y-98230000D03*
X147000000Y-110450000D03*
X177500000Y-134290000D03*
X196250000Y-126340001D03*
X156720000Y-90280001D03*
X158200000Y-96680000D03*
X198410000Y-127640000D03*
X181909999Y-86100000D03*
X206110001Y-95680000D03*
X167459999Y-105959999D03*
X138420000Y-89970001D03*
X145240000Y-89960000D03*
X159090000Y-98190000D03*
X192689999Y-131000001D03*
X153759999Y-108019999D03*
X154094799Y-91281999D03*
X151350000Y-89960000D03*
X141300001Y-105500000D03*
X185700000Y-130380000D03*
X160739999Y-86950001D03*
X172630000Y-115710000D03*
X199850001Y-120000001D03*
X194509999Y-120710002D03*
X205025000Y-111550000D03*
D17*
X175964199Y-90570800D03*
D16*
X138850000Y-126340000D03*
X131450000Y-119400000D03*
X157240001Y-98460000D03*
X170800001Y-108430000D03*
X179029999Y-86320000D03*
X136121177Y-103921177D03*
X191729999Y-108500001D03*
X165870001Y-105250001D03*
X204319999Y-109490000D03*
X165474999Y-108609999D03*
X164750001Y-83700000D03*
X140429999Y-134480000D03*
X147650000Y-111950000D03*
X170275001Y-114210000D03*
X159819999Y-133670000D03*
X161100000Y-106800001D03*
X121060000Y-108580000D03*
X171417600Y-125622800D03*
X170274999Y-107809999D03*
X184949999Y-89959999D03*
X134910000Y-89950000D03*
X191750000Y-89960000D03*
X169100001Y-84170001D03*
X195987500Y-112637500D03*
X163875000Y-107010000D03*
X191079999Y-115220001D03*
X141700000Y-102270000D03*
X135819999Y-99290000D03*
X142190001Y-96380000D03*
X141799999Y-105950000D03*
X124160000Y-95150000D03*
X147000000Y-107450001D03*
X140979999Y-110919999D03*
X159250000Y-126340001D03*
X118400000Y-125600000D03*
X163875000Y-112610000D03*
X185819999Y-103720000D03*
X192560001Y-89920001D03*
X182920000Y-115770001D03*
X150710000Y-115900000D03*
X174080000Y-115720000D03*
X139460001Y-106020000D03*
X165475001Y-103810000D03*
X148240001Y-126160000D03*
X143000001Y-112190000D03*
X186050000Y-126340000D03*
X179250000Y-126340000D03*
X158150000Y-89960001D03*
X162300000Y-84780000D03*
X143934800Y-91231200D03*
X172389999Y-111040000D03*
X196819999Y-133670000D03*
X198320000Y-102530001D03*
X125040000Y-108840000D03*
X195150000Y-89960000D03*
X189649999Y-114289999D03*
X177275000Y-102210001D03*
X187650001Y-129980000D03*
X140290000Y-117170000D03*
X198300001Y-95280000D03*
X191122501Y-85590000D03*
X161475000Y-103810001D03*
X202510000Y-107950000D03*
D17*
X126500000Y-130399999D03*
D16*
X127559999Y-97170000D03*
X207589999Y-100939999D03*
X176580000Y-133730000D03*
X138439411Y-103739411D03*
X199550001Y-130000000D03*
X133660000Y-85650000D03*
X190110000Y-118950001D03*
X144900000Y-86110000D03*
X136559999Y-86830001D03*
X189160000Y-91155000D03*
X157244399Y-94584000D03*
X144630001Y-125300001D03*
X143000000Y-132300001D03*
X154122500Y-85590000D03*
X203840001Y-106660000D03*
X132499999Y-106999999D03*
X159124000Y-94634800D03*
X170499999Y-86110000D03*
D17*
X136900000Y-108200000D03*
D16*
X189700000Y-111550000D03*
X131900000Y-115450000D03*
X183700001Y-95850000D03*
X150659999Y-109450001D03*
X197129999Y-100780000D03*
X184789999Y-96250001D03*
X204610000Y-107240001D03*
X196520000Y-130670001D03*
X126949999Y-96057501D03*
X187050000Y-95930000D03*
X202629999Y-117070000D03*
X200940001Y-92170000D03*
X183010001Y-118172500D03*
X168669999Y-110210000D03*
X130100001Y-126720000D03*
X181628400Y-125622801D03*
X174910000Y-85300000D03*
X142990001Y-131000001D03*
X203840000Y-105740000D03*
X151119999Y-99010000D03*
X191839199Y-125826000D03*
X199410001Y-117430000D03*
X150700000Y-83250001D03*
X164675000Y-107810000D03*
X146809999Y-85919999D03*
X141200000Y-102269999D03*
X194487500Y-113230000D03*
X147789999Y-96290000D03*
X169820000Y-94640000D03*
X118400000Y-122900000D03*
X126362499Y-120550000D03*
X178959999Y-95572500D03*
X200380000Y-116340000D03*
X161490001Y-89140000D03*
X165475000Y-102210001D03*
X134587599Y-120746000D03*
X158275001Y-107810000D03*
X182330000Y-89970001D03*
X143339999Y-104460000D03*
X207750000Y-118160001D03*
X118400000Y-117500000D03*
X129180001Y-97010000D03*
X140450000Y-83530000D03*
X166059999Y-121500000D03*
X142950000Y-86320000D03*
X176739999Y-113370000D03*
X151569999Y-129980000D03*
X167829999Y-116900001D03*
X193960000Y-101710001D03*
X146373200Y-94330000D03*
X148300001Y-104700000D03*
X196669999Y-86649999D03*
X150649999Y-129980000D03*
X153760001Y-103810000D03*
X174749999Y-89959999D03*
X163460000Y-126760000D03*
X193889999Y-81900000D03*
X205460001Y-108570001D03*
X175560000Y-95572500D03*
X148040000Y-108700000D03*
X136690000Y-130390000D03*
X181370000Y-96050000D03*
X142249999Y-88409999D03*
X201999999Y-122900000D03*
X148219999Y-82700001D03*
X128689999Y-111960001D03*
X125520000Y-124500000D03*
X192000000Y-106460000D03*
X171560000Y-129400000D03*
X175410000Y-115880000D03*
X139130000Y-103180000D03*
X127500001Y-98800000D03*
X135280000Y-97030000D03*
X190200001Y-132600000D03*
X198069999Y-97900000D03*
X140000000Y-100780000D03*
X164120000Y-120120001D03*
X186300000Y-100224999D03*
X185319999Y-114190000D03*
X185760000Y-89900000D03*
X181829999Y-82540001D03*
X131949999Y-107850000D03*
X177760000Y-111590000D03*
X196739999Y-112637499D03*
X139100000Y-99500001D03*
X187799999Y-101699999D03*
X141300000Y-103100000D03*
X196990000Y-96030000D03*
X196209999Y-100780000D03*
X129339999Y-122690000D03*
X181670000Y-99060001D03*
X127700000Y-107700000D03*
X175850000Y-126340000D03*
X202450000Y-113720000D03*
X161460000Y-122710000D03*
X161470000Y-87080001D03*
X132760001Y-122610000D03*
X130170001Y-102160001D03*
X200419999Y-96390001D03*
X142899999Y-108900000D03*
X190200000Y-129400000D03*
X152250000Y-111300000D03*
X180837499Y-103782499D03*
X180799999Y-101100001D03*
X129380000Y-113810000D03*
X146782233Y-129657476D03*
X177929999Y-130729999D03*
X134333600Y-125368799D03*
X138539411Y-98339411D03*
X142300000Y-102270001D03*
X144899999Y-120542801D03*
X125040000Y-111750000D03*
X169179999Y-93639999D03*
X148862400Y-95396801D03*
X142300000Y-101400001D03*
X167449999Y-104900000D03*
X179999999Y-132300001D03*
X150499999Y-103449999D03*
X157659999Y-101270001D03*
X168770000Y-99790000D03*
X192110001Y-102600001D03*
X141899999Y-101000000D03*
X159098601Y-90570800D03*
X200279999Y-102600001D03*
X168850000Y-94640001D03*
X181390000Y-127770000D03*
X157450001Y-84040000D03*
X168189999Y-115810001D03*
X161440001Y-130470001D03*
X190650000Y-81860000D03*
X168600000Y-97700000D03*
X179699999Y-101099999D03*
X174899999Y-86900000D03*
X123615001Y-91250000D03*
X170779999Y-82630000D03*
X164675000Y-106210000D03*
X140600000Y-116030000D03*
X201570000Y-85130000D03*
X190559999Y-109990000D03*
X155689999Y-131000001D03*
X162275000Y-105410000D03*
X175959999Y-129479999D03*
X199850001Y-121400000D03*
X142250000Y-126340000D03*
X167210000Y-129160000D03*
X118400000Y-120200000D03*
X172129999Y-90100000D03*
X119200000Y-98900000D03*
X135280000Y-108400001D03*
X187330000Y-118980000D03*
X196589999Y-89170001D03*
X179269999Y-110210000D03*
D17*
X124200000Y-134275000D03*
D16*
X197490000Y-114740000D03*
X148252801Y-120593600D03*
X161150001Y-99562400D03*
X125799999Y-90987502D03*
X199590000Y-115420000D03*
X139830001Y-103140000D03*
X139870000Y-103810001D03*
X152349999Y-106750000D03*
X141370001Y-104380000D03*
X168250000Y-107440001D03*
X151650000Y-86070000D03*
X206675000Y-117387141D03*
X181719999Y-132100001D03*
X163875000Y-103010000D03*
X142200001Y-103700001D03*
X172220000Y-109340000D03*
X164630000Y-94790000D03*
X140629999Y-97520001D03*
X129800000Y-109520001D03*
X139760589Y-110539411D03*
X155850000Y-126340001D03*
X125400000Y-102010000D03*
X143883999Y-94533201D03*
X194969999Y-96410001D03*
X152310000Y-103300000D03*
X144200000Y-103000000D03*
X156210001Y-100380000D03*
X154619999Y-96200000D03*
X160674999Y-102209999D03*
X195450000Y-126181600D03*
X155560000Y-95701600D03*
X140530000Y-84870001D03*
X127960000Y-100950000D03*
X185100001Y-83700000D03*
X198219999Y-88600001D03*
X187720001Y-96420000D03*
X160920001Y-90580001D03*
X168570000Y-122020000D03*
X189810001Y-98570000D03*
X156950000Y-108950000D03*
X148410000Y-86750001D03*
X148100000Y-102900000D03*
X192819999Y-100000001D03*
X132510000Y-89480000D03*
X119200000Y-101600000D03*
X168162500Y-130775000D03*
X200145000Y-101390000D03*
X138129999Y-117880000D03*
X176477500Y-130710000D03*
X181498663Y-111688111D03*
X148900000Y-96180001D03*
X127887500Y-110000000D03*
X181270000Y-120730001D03*
X160038400Y-91790000D03*
X193987498Y-103762500D03*
X183590000Y-123570000D03*
X163649999Y-94300000D03*
X155560000Y-89950000D03*
X128679999Y-107700001D03*
X149776800Y-91739200D03*
X163875000Y-106210001D03*
X167150000Y-122000000D03*
X201809999Y-132519999D03*
X190679999Y-111949999D03*
X166739999Y-109770000D03*
X207750001Y-121970000D03*
X195960000Y-95572500D03*
X164675001Y-103010000D03*
X145779999Y-83350001D03*
X177274999Y-110210000D03*
X164675001Y-108610000D03*
X160010000Y-83540001D03*
X168162499Y-90725001D03*
X165849999Y-132600001D03*
X197987500Y-112637500D03*
X185760000Y-95572500D03*
X175799999Y-119019999D03*
X194580000Y-118360000D03*
X141950000Y-107310000D03*
X167090000Y-123610000D03*
X119200000Y-93500000D03*
X167075000Y-103810000D03*
X155700000Y-85650000D03*
X182500000Y-108200000D03*
X183870000Y-82870000D03*
X141299999Y-106450000D03*
X155350000Y-100520000D03*
X169400001Y-96420000D03*
X159630000Y-99380000D03*
X145499999Y-132600001D03*
X125429999Y-112980001D03*
X137909999Y-104250000D03*
X159850000Y-129340000D03*
X172450000Y-126340000D03*
X183512499Y-100902499D03*
X121449999Y-104649999D03*
X160060000Y-123820000D03*
X148690001Y-130140000D03*
X165530000Y-130630000D03*
X136772000Y-91180401D03*
X146870000Y-82870000D03*
X194830000Y-116550000D03*
X136400000Y-102200000D03*
X137019999Y-118690000D03*
X153993200Y-94431601D03*
X167980000Y-117730000D03*
X142300000Y-103000000D03*
X139180000Y-104390000D03*
X138039999Y-126181599D03*
X170275000Y-102210000D03*
X124520000Y-123870000D03*
X188510000Y-121120000D03*
X155240000Y-103250001D03*
X163399999Y-130460001D03*
X144121178Y-103821178D03*
X150300000Y-96450000D03*
X189560000Y-88440000D03*
X163399999Y-90390000D03*
X192629999Y-114850001D03*
X207770000Y-103240000D03*
X127685000Y-108700001D03*
X139200000Y-129300000D03*
X204030000Y-88890000D03*
X171350000Y-89960000D03*
X149160000Y-86640000D03*
X142300000Y-105450000D03*
X131125000Y-85050000D03*
X150599999Y-104949999D03*
X163875000Y-108610000D03*
X151089999Y-127480000D03*
X188588000Y-125622800D03*
X138350000Y-105090001D03*
X152049999Y-95295199D03*
X141499999Y-103700001D03*
X135021141Y-99976777D03*
X167859999Y-99660001D03*
X167075000Y-114210000D03*
X143869999Y-120660001D03*
X183810000Y-85920000D03*
X158463601Y-120593600D03*
X184850000Y-129450000D03*
X145610000Y-88400000D03*
X197249999Y-84700000D03*
X134300000Y-101400000D03*
D17*
X196024975Y-90426213D03*
D16*
X201399998Y-94102502D03*
X198600001Y-89750000D03*
X163399999Y-129150001D03*
X155919999Y-96570000D03*
X162160000Y-82890001D03*
X201999999Y-128609999D03*
X166670001Y-86340000D03*
X158650000Y-126160000D03*
X134550000Y-107200000D03*
X141394800Y-120746000D03*
X191540000Y-120880001D03*
X201150000Y-124350000D03*
X132125000Y-83550000D03*
X136518000Y-94482400D03*
X160850000Y-101200001D03*
X165475000Y-107810001D03*
X200499999Y-94319999D03*
X197890000Y-99150000D03*
X161390000Y-126820000D03*
X160250001Y-110600000D03*
X191630000Y-104470000D03*
X128819999Y-118040000D03*
X143380001Y-102230001D03*
X149050000Y-116450000D03*
X167190001Y-126550000D03*
X207750000Y-96970000D03*
X149776800Y-94380801D03*
X119212499Y-96200000D03*
X153200000Y-129400000D03*
X190660000Y-110990001D03*
X192550000Y-95730001D03*
X170250000Y-129400000D03*
X152450001Y-126340001D03*
X188800001Y-117542500D03*
X176710000Y-111640000D03*
X128850000Y-118600001D03*
X161450000Y-132540001D03*
X152039999Y-95930000D03*
X165000000Y-128709999D03*
X151640000Y-125740000D03*
X189430000Y-90070000D03*
X171520000Y-121300001D03*
X175040000Y-120590001D03*
X175275001Y-114210000D03*
X167300000Y-118750001D03*
X139160001Y-103820000D03*
X162275000Y-102210000D03*
X137599999Y-96120001D03*
X177960001Y-96290000D03*
X183730000Y-133430000D03*
X150650000Y-107950001D03*
X169474999Y-104610000D03*
X205890000Y-90540000D03*
X148799999Y-133759999D03*
X186660001Y-85790001D03*
X188580001Y-116180000D03*
X191649999Y-107889999D03*
X140500000Y-86300001D03*
X182380001Y-133600000D03*
X128400000Y-104800000D03*
X141170000Y-82870000D03*
X143700000Y-105500000D03*
X171810000Y-105800000D03*
X167075000Y-103010000D03*
X200800001Y-112080000D03*
G04 #@! TO.N,/IO Banks/Bank C/PG*
X181300000Y-84350000D03*
G04 #@! TO.N,+3V3*
X166274000Y-106210000D03*
X162275000Y-107810000D03*
X162275000Y-110210000D03*
X144399999Y-132550000D03*
X206670000Y-113230000D03*
X197490001Y-113780000D03*
X181650000Y-110410001D03*
X125890000Y-102010000D03*
X166800000Y-132660001D03*
X189600000Y-111000000D03*
X182949999Y-98540001D03*
X162275000Y-106210000D03*
X162300000Y-121800000D03*
X130790000Y-102570001D03*
X134980000Y-115660000D03*
X161899999Y-93400000D03*
X166274999Y-107809999D03*
X191639999Y-110979999D03*
D17*
X166199999Y-124270001D03*
D16*
X142139411Y-99960589D03*
X180801453Y-112348547D03*
X186200001Y-82700000D03*
X182687499Y-101282500D03*
X136160000Y-111100000D03*
X122100000Y-102059999D03*
X179470000Y-81880000D03*
X137760588Y-103060589D03*
X149200001Y-82700000D03*
X144800000Y-104500001D03*
X139400000Y-99100000D03*
X124715001Y-91990001D03*
X162149999Y-118320000D03*
X163075000Y-106210001D03*
X160919999Y-91540001D03*
X160510000Y-82550000D03*
X165474500Y-106210000D03*
X163075000Y-107810000D03*
X167300000Y-97580000D03*
X136300001Y-105100000D03*
X140150000Y-109900001D03*
X179487500Y-99087501D03*
X147000000Y-101450002D03*
X166275000Y-108610001D03*
X198299999Y-99450000D03*
X181400001Y-132500000D03*
D17*
G04 #@! TO.N,+5V*
X125099999Y-112500000D03*
D16*
X129800000Y-96690001D03*
X129554999Y-86589999D03*
D17*
X130324999Y-107962500D03*
X128960000Y-104110000D03*
X199900000Y-116900000D03*
X137600000Y-118300000D03*
X128600000Y-100750000D03*
X198500000Y-119800000D03*
X128999999Y-111400000D03*
X149399999Y-101300000D03*
D16*
X201229999Y-89250001D03*
D17*
X136900000Y-113600000D03*
D16*
G04 #@! TO.N,/USB/VBUS*
X129370000Y-115410000D03*
D18*
X127975000Y-113000001D03*
D16*
G04 #@! TO.N,/DRDY*
X188380000Y-103700001D03*
X159075000Y-102210000D03*
G04 #@! TO.N,/COPI*
X186380000Y-102050000D03*
X159875000Y-102210001D03*
G04 #@! TO.N,/FPGA/RAM + LVDS/DETECT*
X150700000Y-102950000D03*
X159499999Y-100949999D03*
G04 #@! TO.N,/SCLK*
X184800000Y-102690000D03*
X163875001Y-102210000D03*
G04 #@! TO.N,/FLAGC*
X160200000Y-99850001D03*
G04 #@! TO.N,/SCL*
X144500000Y-129200000D03*
X149784332Y-86815668D03*
X167629999Y-91350000D03*
X167000000Y-85995000D03*
X179074578Y-101929022D03*
X141700000Y-98300001D03*
X167075000Y-102210001D03*
X144551249Y-123299999D03*
X130400001Y-99020000D03*
X141499999Y-129199999D03*
X197150000Y-86800001D03*
X186699999Y-86250000D03*
X160360000Y-123380000D03*
X149300000Y-96400000D03*
X165999999Y-130400001D03*
X202200001Y-103000000D03*
X206850001Y-104100000D03*
X205550000Y-120150001D03*
X196700000Y-97800000D03*
X178500000Y-129950001D03*
X143250000Y-111800001D03*
G04 #@! TO.N,/FPGA/U3*
X121505000Y-100045000D03*
X166600000Y-99050000D03*
G04 #@! TO.N,/FPGA/U4*
X121430000Y-97970000D03*
X167880000Y-99200000D03*
G04 #@! TO.N,/NAFE_{~{RST}}*
X187799999Y-102480000D03*
X169475001Y-102210000D03*
G04 #@! TO.N,/IO Banks/A.DIR0*
X134729999Y-96200000D03*
G04 #@! TO.N,/IO Banks/A.Q0*
X133710001Y-95462500D03*
G04 #@! TO.N,/CIPO*
X188380000Y-103000000D03*
X159874999Y-103009999D03*
G04 #@! TO.N,/~{ALERT}*
X135539999Y-104719999D03*
X149030000Y-85480000D03*
X148869999Y-86990000D03*
X169700000Y-130000000D03*
X201415000Y-103585000D03*
X151503999Y-129178800D03*
X160675000Y-103010001D03*
X183449999Y-130450001D03*
X164600001Y-85000000D03*
X149250000Y-105030000D03*
X135169999Y-102869999D03*
X144130000Y-104770000D03*
X185870000Y-87400000D03*
X131549999Y-102890001D03*
X149099999Y-127950001D03*
X191400000Y-101400000D03*
X186300000Y-85090000D03*
X186090000Y-98580000D03*
G04 #@! TO.N,/OE*
X161475000Y-103010000D03*
G04 #@! TO.N,/FPGA/OEB*
X162280000Y-101270000D03*
X162275000Y-103010001D03*
X177240000Y-101300000D03*
G04 #@! TO.N,/FLAGA*
X164820001Y-98670000D03*
X158999999Y-99249999D03*
G04 #@! TO.N,/FPGA/SYNCBALL*
X167050001Y-115200000D03*
X167875000Y-103010000D03*
G04 #@! TO.N,/FPGA/U5*
X167999999Y-100100001D03*
X118200000Y-96700000D03*
G04 #@! TO.N,/IO Banks/C.DIR0*
X170300000Y-96300000D03*
G04 #@! TO.N,/IO Banks/C.Q0*
X170640400Y-95447600D03*
G04 #@! TO.N,/IO Banks/A.DIR2*
X156600000Y-101450000D03*
X141535001Y-96100000D03*
X156580001Y-102880001D03*
G04 #@! TO.N,/IO Banks/A.Q2*
X140510000Y-95900000D03*
X155890000Y-100040000D03*
X156570000Y-103610000D03*
G04 #@! TO.N,/IO Banks/A.DIR1*
X138130000Y-96100000D03*
G04 #@! TO.N,/INTB*
X160674999Y-103810000D03*
X187010001Y-101520000D03*
X160444799Y-100934000D03*
G04 #@! TO.N,/CLKREF*
X188360000Y-112920000D03*
X163560001Y-109060000D03*
X178400001Y-109240001D03*
X140539999Y-100299999D03*
X163210001Y-100110000D03*
G04 #@! TO.N,/NAFE_{~{CS}}*
X164674999Y-103810000D03*
X188380000Y-104400000D03*
G04 #@! TO.N,Net-(U10-DIR)*
X140919999Y-119669999D03*
X142639999Y-106320000D03*
X168250000Y-104185000D03*
G04 #@! TO.N,/IO Banks/C.Q1*
X174110001Y-95462500D03*
G04 #@! TO.N,/IO Banks/C.DIR2*
X178524999Y-95840000D03*
G04 #@! TO.N,/IO Banks/C.Q2*
X177499999Y-96200000D03*
G04 #@! TO.N,/IO Banks/A.DIR4*
X155900001Y-98700000D03*
X155870000Y-103580000D03*
X148200000Y-96000000D03*
G04 #@! TO.N,/IO Banks/A.Q1*
X155909999Y-101010000D03*
X155909999Y-102760001D03*
X137109999Y-95900001D03*
G04 #@! TO.N,/SYNC*
X186230000Y-104500001D03*
X160675000Y-104610000D03*
G04 #@! TO.N,/F_MCU_~{RST}*
X172730000Y-105260000D03*
X161475001Y-104610000D03*
G04 #@! TO.N,/A1*
X163874999Y-104610000D03*
G04 #@! TO.N,/A0*
X164675001Y-104610000D03*
G04 #@! TO.N,/WR*
X139359999Y-102049999D03*
X137280000Y-103670000D03*
X165474999Y-104610000D03*
X165440000Y-100580000D03*
G04 #@! TO.N,/SDA*
X166279999Y-100910001D03*
X131450000Y-101780001D03*
X166400000Y-86700000D03*
X208999999Y-104100000D03*
X143300000Y-112550001D03*
X202900000Y-103000000D03*
X139674999Y-97725001D03*
X167050001Y-92000000D03*
X165900000Y-130949999D03*
X160360000Y-122930000D03*
X196941446Y-86271206D03*
X178449999Y-130800000D03*
X144200000Y-129700000D03*
X129587499Y-104037501D03*
X188699999Y-86649999D03*
X143344999Y-98445001D03*
X178775000Y-101300000D03*
X197900000Y-98700000D03*
X149800000Y-96400001D03*
X149800000Y-86300000D03*
X207690000Y-117010000D03*
X144089999Y-123240001D03*
X166274999Y-104610000D03*
G04 #@! TO.N,/FPGA/U1*
X119700000Y-124300000D03*
X174420000Y-114520000D03*
X167875000Y-104610000D03*
X125100000Y-114650000D03*
G04 #@! TO.N,/IO Banks/C.DIR1*
X175100000Y-96200000D03*
G04 #@! TO.N,/IO Banks/C.Q4*
X184140001Y-95970000D03*
G04 #@! TO.N,/IO Banks/A.Q7*
X158275001Y-105410000D03*
X158050001Y-96250001D03*
G04 #@! TO.N,/IO Banks/A.Q4*
X154900000Y-98450000D03*
X155010000Y-102810000D03*
X147310000Y-96100001D03*
G04 #@! TO.N,/IO Banks/A.DIR3*
X157270000Y-101580000D03*
X157270000Y-105600001D03*
X144935000Y-96300000D03*
G04 #@! TO.N,/FLAGD*
X160674999Y-105410001D03*
G04 #@! TO.N,/BOOT0*
X165875000Y-97025000D03*
X161600000Y-101200000D03*
G04 #@! TO.N,/FPGA/CLK_3*
X180980001Y-98440000D03*
X172120000Y-105460000D03*
X163075000Y-105410000D03*
G04 #@! TO.N,/CLKIF*
X141540000Y-99320000D03*
X163499999Y-99600000D03*
G04 #@! TO.N,/RD*
X135870000Y-102640000D03*
X164439999Y-100149999D03*
G04 #@! TO.N,/FLAGB*
X159339999Y-99830000D03*
X165110000Y-100150001D03*
G04 #@! TO.N,/PKTEND*
X166639999Y-105040000D03*
G04 #@! TO.N,/FPGA/U2*
X167875000Y-105410000D03*
X173879999Y-114700001D03*
X119000000Y-116200000D03*
G04 #@! TO.N,/IO Banks/C.Q3*
X180899999Y-95900001D03*
G04 #@! TO.N,/IO Banks/C.DIR4*
X185300000Y-96300001D03*
G04 #@! TO.N,/IO Banks/C.DIR7*
X195500000Y-96250000D03*
G04 #@! TO.N,/IO Banks/B.DIR0*
X158275000Y-106210001D03*
X158900000Y-120000000D03*
G04 #@! TO.N,/IO Banks/A.DIR7*
X158534999Y-96275000D03*
X159075001Y-106210001D03*
G04 #@! TO.N,/IO Banks/A.Q3*
X156789999Y-105580000D03*
X143890001Y-96290000D03*
X156705000Y-99935000D03*
G04 #@! TO.N,/IO Banks/A.DIR5*
X151730000Y-96300000D03*
G04 #@! TO.N,/IO Banks/A.Q5*
X150760000Y-96300000D03*
G04 #@! TO.N,/IO Banks/C.DIR5*
X188249999Y-96800000D03*
G04 #@! TO.N,/IO Banks/C.Q5*
X187710000Y-95880000D03*
G04 #@! TO.N,/IO Banks/C.DIR3*
X181935001Y-96165000D03*
X171949999Y-102300001D03*
X168675000Y-106210001D03*
G04 #@! TO.N,/IO Banks/C.Q7*
X194500000Y-96450000D03*
G04 #@! TO.N,/IO Banks/D.Q0*
X170275000Y-106210000D03*
X173030000Y-106440000D03*
X173550000Y-115720001D03*
G04 #@! TO.N,/IO Banks/B.DIR4*
X158275001Y-107010001D03*
X146320001Y-118330000D03*
X145930000Y-107760000D03*
G04 #@! TO.N,/IO Banks/B.Q0*
X159075000Y-107010001D03*
X159800000Y-120000000D03*
G04 #@! TO.N,/IO Banks/B.DIR1*
X156500001Y-106700000D03*
X159875000Y-107010000D03*
X155500000Y-120000000D03*
G04 #@! TO.N,/IO Banks/A.Q6*
X154109999Y-96290000D03*
X154119999Y-104100000D03*
G04 #@! TO.N,/IO Banks/A.DIR6*
X155139999Y-96240001D03*
G04 #@! TO.N,+1V1*
X162275000Y-107010001D03*
X150420000Y-99020000D03*
X165075000Y-110210000D03*
X164275001Y-110210000D03*
X163075000Y-107010000D03*
X135420000Y-98860000D03*
X164675000Y-107010001D03*
X163535000Y-97785000D03*
G04 #@! TO.N,+2V5*
X166274999Y-107010001D03*
X128870000Y-96570000D03*
X125349999Y-109200000D03*
X163075000Y-110210000D03*
G04 #@! TO.N,/IO Banks/C.Q6*
X170800001Y-105800000D03*
X189460001Y-96450000D03*
X167460000Y-106920001D03*
G04 #@! TO.N,/IO Banks/C.DIR6*
X190710000Y-96760000D03*
G04 #@! TO.N,/IO Banks/D.Q1*
X170910000Y-107210000D03*
X172109999Y-115720001D03*
G04 #@! TO.N,/IO Banks/D.DIR0*
X173090001Y-115720001D03*
X169475000Y-107010000D03*
G04 #@! TO.N,/IO Banks/D.Q4*
X171740001Y-117680000D03*
X170275000Y-107010001D03*
G04 #@! TO.N,/IO Banks/B.Q4*
X148200000Y-120000001D03*
X159075000Y-107810000D03*
X149539999Y-107176423D03*
G04 #@! TO.N,/IO Banks/B.Q1*
X156480000Y-107970000D03*
X159875000Y-107810001D03*
X156500000Y-120000001D03*
G04 #@! TO.N,/IO Banks/B.Q2*
X154310000Y-108010000D03*
X153099999Y-120000001D03*
X160229999Y-108090000D03*
G04 #@! TO.N,/IO Banks/B.DIR2*
X153309999Y-108000000D03*
X152090000Y-120000000D03*
X161020000Y-107410000D03*
G04 #@! TO.N,/IO Banks/D.Q2*
X167340001Y-107520000D03*
X167570000Y-116270000D03*
G04 #@! TO.N,/IO Banks/D.DIR2*
X168799999Y-116850000D03*
X167875000Y-107810000D03*
G04 #@! TO.N,/IO Banks/D.DIR1*
X168675000Y-107810000D03*
X168820000Y-115750000D03*
G04 #@! TO.N,/IO Banks/D.DIR4*
X169475001Y-107810000D03*
X169710000Y-117680000D03*
G04 #@! TO.N,/IO Banks/B.DIR6*
X158275000Y-108610000D03*
G04 #@! TO.N,/IO Banks/B.Q6*
X159075001Y-108610000D03*
G04 #@! TO.N,/IO Banks/B.DIR5*
X148059999Y-109299999D03*
X159874999Y-108609999D03*
X148030000Y-116340000D03*
G04 #@! TO.N,/IO Banks/B.DIR3*
X149380000Y-107910001D03*
X148700000Y-120000000D03*
X160675000Y-108610001D03*
G04 #@! TO.N,/IO Banks/B.Q3*
X149699999Y-120000001D03*
X149530000Y-106700001D03*
X161010000Y-108210000D03*
G04 #@! TO.N,/FPGA/RAM + LVDS/VIO_{AUX}*
X163075000Y-108610000D03*
X162275000Y-108610000D03*
X147000000Y-115450000D03*
G04 #@! TO.N,/IO Banks/D.DIR3*
X167390000Y-117120000D03*
X167075000Y-108610000D03*
G04 #@! TO.N,/IO Banks/D.Q3*
X168300000Y-116800000D03*
X167875000Y-108610000D03*
G04 #@! TO.N,/IO Banks/D.Q5*
X168675000Y-108610000D03*
X168859999Y-117679999D03*
G04 #@! TO.N,/IO Banks/D.DIR6*
X169474999Y-108609999D03*
X170610000Y-118490001D03*
G04 #@! TO.N,/IO Banks/D.Q6*
X171809999Y-118719999D03*
X170275001Y-108610000D03*
G04 #@! TO.N,/IO Banks/B.DIR7*
X156610000Y-109340000D03*
G04 #@! TO.N,/IO Banks/B.Q7*
X156924972Y-109672478D03*
G04 #@! TO.N,/IO Banks/B.Q5*
X149319999Y-108550001D03*
X149480000Y-116150000D03*
X157369999Y-108455000D03*
G04 #@! TO.N,+1V8*
X148299999Y-101950000D03*
X151099999Y-117000000D03*
X175275000Y-105210000D03*
X166274999Y-110210000D03*
X166274999Y-109410000D03*
X175274999Y-113210001D03*
X176275000Y-102210000D03*
D17*
X140499999Y-116700000D03*
D16*
X174360000Y-118930000D03*
D17*
X166199999Y-117000000D03*
D16*
X176274999Y-110210000D03*
G04 #@! TO.N,/IO Banks/D.DIR5*
X168674999Y-109410000D03*
X168360000Y-118100000D03*
G04 #@! TO.N,/IO Banks/D.DIR7*
X169475001Y-109410000D03*
X169280001Y-118540000D03*
G04 #@! TO.N,/IO Banks/D.Q7*
X170274999Y-109410000D03*
X170080000Y-119070000D03*
G04 #@! TO.N,/FPGA/RAM + LVDS/Z13_P*
X145049098Y-109340900D03*
X159874999Y-110210000D03*
G04 #@! TO.N,/FPGA/RAM + LVDS/Z15_P*
X148949999Y-109400000D03*
X160674999Y-110210000D03*
G04 #@! TO.N,/FPGA/RAM + LVDS/Z15_N*
X149300000Y-109050000D03*
X161475001Y-110210000D03*
G04 #@! TO.N,/FPGA/RAM + LVDS/CLK0*
X179980000Y-98440000D03*
X171139999Y-110050001D03*
X179680000Y-109320000D03*
G04 #@! TO.N,/FPGA/RAM + LVDS/Z11_P*
X158275001Y-111010000D03*
X149002221Y-110556720D03*
G04 #@! TO.N,/FPGA/RAM + LVDS/Z11_N*
X149320419Y-110238522D03*
X159074999Y-111010001D03*
G04 #@! TO.N,/FPGA/RAM + LVDS/Z13_N*
X144730900Y-109659098D03*
X159875000Y-111010000D03*
G04 #@! TO.N,/FPGA/RAM + LVDS/Z9_P*
X145759099Y-111010000D03*
X160674999Y-111010001D03*
G04 #@! TO.N,/FPGA/RAM + LVDS/Z7_P*
X149110902Y-111729099D03*
X161475000Y-111010000D03*
G04 #@! TO.N,/D2*
X162159999Y-97810001D03*
X162240000Y-99780001D03*
G04 #@! TO.N,Net-(U8H-PB15B)*
X163880000Y-111010000D03*
X163469999Y-120289999D03*
X125110001Y-123580000D03*
G04 #@! TO.N,Net-(U74-DIR)*
X164429999Y-120570001D03*
X164674999Y-111010001D03*
X145789999Y-119669999D03*
X123600000Y-120070001D03*
G04 #@! TO.N,/FPGA/TDO*
X199550000Y-115930000D03*
X166199999Y-117849999D03*
X205700000Y-95950001D03*
G04 #@! TO.N,/FPGA/RAM + LVDS/CK1*
X174184999Y-111419999D03*
X170934999Y-111220001D03*
G04 #@! TO.N,/FPGA/RAM + LVDS/CLK1*
X169475001Y-111010000D03*
X177950000Y-109010001D03*
X178270000Y-100230001D03*
G04 #@! TO.N,/FPGA/RAM + LVDS/Z9_N*
X159874999Y-111810001D03*
X145440000Y-111360000D03*
G04 #@! TO.N,/FPGA/RAM + LVDS/Z7_N*
X161475000Y-111810001D03*
X149429100Y-111410901D03*
G04 #@! TO.N,/D3*
X162530000Y-98310001D03*
X163075000Y-111810001D03*
G04 #@! TO.N,/FPGA/CSSPIN*
X169640000Y-96820000D03*
X165840000Y-98670001D03*
X163875000Y-111810001D03*
G04 #@! TO.N,CFG0*
X165474999Y-111810001D03*
X191380001Y-109100000D03*
G04 #@! TO.N,/FPGA/RAM + LVDS/DQS0*
X170275000Y-111810000D03*
X171830000Y-109600000D03*
G04 #@! TO.N,/FPGA/RAM + LVDS/Z5_N*
X161475000Y-112610000D03*
X149440000Y-112360000D03*
G04 #@! TO.N,/FPGA/RAM + LVDS/Z5_P*
X162275000Y-112610001D03*
X149119788Y-112681134D03*
G04 #@! TO.N,/D4*
X163075000Y-112610000D03*
X161450000Y-98030001D03*
G04 #@! TO.N,/FPGA_DONE*
X158600000Y-117900000D03*
X143654999Y-106145001D03*
X121296009Y-97396009D03*
X121100000Y-108050001D03*
G04 #@! TO.N,Net-(U8I-CFG_1)*
X165474999Y-112609999D03*
G04 #@! TO.N,/FPGA/RAM + LVDS/CS#1*
X176764999Y-112210000D03*
X166274999Y-112610001D03*
G04 #@! TO.N,/FPGA/RAM + LVDS/CK0*
X170275000Y-112610001D03*
X171385000Y-111220001D03*
G04 #@! TO.N,/FPGA/RAM + LVDS/Z3_P*
X159075000Y-113410000D03*
X147999999Y-113000001D03*
G04 #@! TO.N,/FPGA/RAM + LVDS/Z1_P*
X160674999Y-113409999D03*
X147000000Y-114450000D03*
G04 #@! TO.N,/D6*
X160960000Y-98520001D03*
X157900000Y-98300000D03*
X161520000Y-99840000D03*
G04 #@! TO.N,/D5*
X158380000Y-98190000D03*
X158680000Y-115990001D03*
G04 #@! TO.N,/FPGA_~{RESET}*
X145400000Y-114600000D03*
X134630000Y-119020000D03*
X154299999Y-115300000D03*
X206440000Y-113710000D03*
X164100000Y-115500001D03*
X144300000Y-105400000D03*
G04 #@! TO.N,CFG2*
X191030000Y-108795001D03*
X165475000Y-113410001D03*
G04 #@! TO.N,/FPGA/TDI*
X199909999Y-115090000D03*
X201720000Y-90930001D03*
X166850000Y-118550000D03*
G04 #@! TO.N,/FPGA/RAM + LVDS/DQS1*
X167075000Y-113410001D03*
X175954999Y-112720000D03*
G04 #@! TO.N,/FPGA/RAM + LVDS/CS#0*
X173237657Y-111055038D03*
X170274999Y-113409999D03*
G04 #@! TO.N,/FPGA/RAM + LVDS/Z3_N*
X159075001Y-114210000D03*
X148070000Y-112550000D03*
G04 #@! TO.N,/FPGA/RAM + LVDS/Z1_N*
X159874999Y-114210000D03*
X147000000Y-113950001D03*
G04 #@! TO.N,/D7*
X162275000Y-114210000D03*
X150980000Y-100060000D03*
X151890000Y-115460000D03*
G04 #@! TO.N,/D1*
X155570000Y-96900000D03*
X169170001Y-96820000D03*
X155470001Y-115400000D03*
G04 #@! TO.N,/D0*
X167280000Y-101420000D03*
X152310000Y-96290000D03*
X152060001Y-116250000D03*
X151890000Y-103109999D03*
G04 #@! TO.N,/FPGA_INITn*
X164799999Y-118100000D03*
X190575000Y-114805000D03*
X164675001Y-114210000D03*
X193034999Y-112345001D03*
G04 #@! TO.N,/FPGA/TCK*
X165475000Y-118080000D03*
X205450000Y-96750000D03*
X199880000Y-116240001D03*
G04 #@! TO.N,/FPGA/TMS*
X205799999Y-97250000D03*
X166150001Y-118550000D03*
X202980000Y-117390001D03*
G04 #@! TO.N,/ADC/ADC_~{RST}*
X189020001Y-102300001D03*
X192800000Y-105950000D03*
X190349999Y-102400000D03*
G04 #@! TO.N,Net-(Q1-G)*
X189120001Y-113600000D03*
X205625000Y-121214642D03*
X195430001Y-118449999D03*
X129350000Y-114450000D03*
X207252501Y-100350000D03*
G04 #@! TO.N,/Power/IBBIN*
X201229999Y-91379999D03*
X207730001Y-102780000D03*
G04 #@! TO.N,Net-(Q1-D)*
X208650000Y-101280000D03*
G04 #@! TO.N,Net-(R261-Pad2)*
X179275000Y-113210001D03*
G04 #@! TO.N,Net-(R263-Pad1)*
X178275000Y-112210000D03*
G04 #@! TO.N,Net-(R262-Pad1)*
X178275000Y-113210000D03*
G04 #@! TO.N,/ADC/MCU_LED*
X193059999Y-113520001D03*
X199180001Y-119310000D03*
G04 #@! TO.N,Net-(R260-Pad2)*
X179275001Y-105210000D03*
G04 #@! TO.N,Net-(R265-Pad1)*
X178275000Y-104210000D03*
G04 #@! TO.N,Net-(R264-Pad1)*
X178275000Y-105210000D03*
G04 #@! TO.N,VDDA*
X187830001Y-118992499D03*
X190099999Y-114299999D03*
X189650000Y-118780000D03*
X191000000Y-102300001D03*
X196630000Y-102590000D03*
X198970001Y-102670001D03*
G04 #@! TO.N,/PG_{VBUS}*
X130900000Y-114200002D03*
G04 #@! TO.N,Net-(D28-A)*
X120400000Y-113900000D03*
G04 #@! TO.N,Net-(D1-A)*
X122100000Y-101040001D03*
G04 #@! TO.N,/IO Banks/Bank B/PG*
X149320000Y-133760001D03*
G04 #@! TO.N,Net-(D5-A)*
X120800000Y-89800000D03*
G04 #@! TO.N,/USB/CC1*
X124800001Y-104000001D03*
G04 #@! TO.N,+15V*
X202910000Y-104850000D03*
X203475000Y-111550000D03*
G04 #@! TO.N,/ADC/A1_P*
X200500001Y-95400000D03*
X201400001Y-111450001D03*
X165590000Y-94790000D03*
G04 #@! TO.N,/ADC/A1_N*
X201750000Y-110950000D03*
X164600001Y-94000000D03*
X200500000Y-94800000D03*
G04 #@! TO.N,/ADC/A2_P*
X205400000Y-126200000D03*
X130800000Y-125900001D03*
X204000000Y-110400000D03*
G04 #@! TO.N,/ADC/A2_N*
X206000000Y-125800000D03*
X204000000Y-109900001D03*
X132799999Y-125400000D03*
G04 #@! TO.N,/ADC/A3_P*
X202419999Y-109480000D03*
G04 #@! TO.N,/ADC/A3_N*
X203900000Y-109000001D03*
G04 #@! TO.N,Net-(U7-AICOM)*
X204915000Y-109230001D03*
G04 #@! TO.N,/ADC/A4_P*
X204600000Y-107700000D03*
X206500000Y-125300000D03*
X164100001Y-124000000D03*
G04 #@! TO.N,/ADC/A4_N*
X204630000Y-106780001D03*
X169720000Y-133200000D03*
X201400000Y-132810000D03*
D18*
G04 #@! TO.N,-15V*
X200300000Y-111200000D03*
X200400000Y-107900001D03*
D16*
X203350000Y-100430000D03*
D18*
X198899999Y-111400000D03*
X194200000Y-105100001D03*
X194120000Y-110690000D03*
X200400000Y-106000000D03*
X200400000Y-109500001D03*
X195800001Y-105100001D03*
D16*
G04 #@! TO.N,/ADC/INTB*
X198390000Y-103050000D03*
X192749999Y-107450001D03*
X192580000Y-103070000D03*
G04 #@! TO.N,/ADC/SYNC*
X188670000Y-105310001D03*
X191680000Y-107350000D03*
G04 #@! TO.N,/ADC/~{CS}*
X189020001Y-104400000D03*
X190810000Y-108240000D03*
G04 #@! TO.N,/ADC/SCLK*
X190520000Y-109500001D03*
G04 #@! TO.N,/ADC/COPI*
X192000000Y-109450000D03*
G04 #@! TO.N,/ADC/CIPO*
X192000000Y-109950001D03*
G04 #@! TO.N,/ADC/DRDY*
X192800000Y-110450000D03*
G04 #@! TO.N,Net-(U7-GPIO9)*
X194987501Y-112637501D03*
G04 #@! TO.N,/FPGA/RAM + LVDS/CLK2*
X182419999Y-99430001D03*
X184800000Y-101700001D03*
G04 #@! TO.N,Net-(D27-A)*
X120580000Y-116620000D03*
G04 #@! TO.N,/ENVC*
X201570000Y-86150000D03*
X141400000Y-87000000D03*
X140870000Y-107460001D03*
X185959999Y-85549999D03*
G04 #@! TO.N,Net-(D24-A)*
X121500000Y-125600000D03*
G04 #@! TO.N,/ADC/SWDIO*
X197860000Y-102520000D03*
X199590000Y-123220000D03*
G04 #@! TO.N,Net-(C51-Pad1)*
X204914999Y-110249999D03*
G04 #@! TO.N,/XTALOUT*
X136223224Y-101178858D03*
G04 #@! TO.N,/ENVB*
X144599999Y-130299999D03*
X136690000Y-129930000D03*
X138499999Y-107799999D03*
G04 #@! TO.N,/ENVA*
X128100000Y-88790001D03*
X141900001Y-88100000D03*
X141499999Y-107420000D03*
G04 #@! TO.N,LS_3V3*
X196919999Y-95572500D03*
X143880000Y-121320000D03*
X159920000Y-94990401D03*
X190100000Y-95730000D03*
X146319999Y-94990399D03*
X139519999Y-94990399D03*
X183319999Y-95572500D03*
X186719999Y-95572500D03*
X179900000Y-95730000D03*
X133510000Y-120630000D03*
X154070000Y-121310000D03*
X147290000Y-121310000D03*
X157369999Y-121320001D03*
X193519999Y-95572500D03*
X150700000Y-120600000D03*
X184280001Y-120727500D03*
X180880000Y-121320000D03*
X174080000Y-120727500D03*
X176519999Y-95572500D03*
X194430000Y-121160000D03*
X143883999Y-94990399D03*
X173121250Y-95571250D03*
X177479999Y-120569999D03*
X140480000Y-120580000D03*
X136264000Y-94990400D03*
X128770000Y-120730001D03*
X188359999Y-120610000D03*
X153942400Y-94888800D03*
X156520000Y-94990400D03*
X137050000Y-121310000D03*
X191159999Y-121190001D03*
X170810001Y-121300000D03*
X149720000Y-94990400D03*
G04 #@! TO.N,/LED_CY*
X140004264Y-106994264D03*
X125050001Y-106450000D03*
X140109999Y-96110001D03*
X122900000Y-99400000D03*
G04 #@! TO.N,Net-(U4-INT_N)*
X131549999Y-103910001D03*
G04 #@! TO.N,Net-(U25-~{INT})*
X167559999Y-123625001D03*
G04 #@! TO.N,/IO Banks/Bank B/V_{SENSE}*
X142000000Y-130810000D03*
G04 #@! TO.N,/IO Banks/Bank B/V_{IO_OUT}*
X160099999Y-132209999D03*
X160500000Y-130500000D03*
X158200001Y-132700000D03*
G04 #@! TO.N,/IO Banks/Bank B/Z0*
X157980000Y-126240000D03*
G04 #@! TO.N,/IO Banks/Bank B/Z1*
X156489999Y-126340001D03*
G04 #@! TO.N,/IO Banks/Bank B/Z2*
X150499999Y-123450001D03*
G04 #@! TO.N,/IO Banks/Bank B/Z3*
X149689999Y-126340001D03*
G04 #@! TO.N,/IO Banks/Bank B/Z4*
X146289999Y-126340001D03*
G04 #@! TO.N,/IO Banks/Bank B/Z5*
X142890000Y-126340001D03*
G04 #@! TO.N,/IO Banks/Bank B/Z6*
X139490000Y-126340001D03*
G04 #@! TO.N,/IO Banks/Bank B/Z7*
X136090000Y-126340001D03*
G04 #@! TO.N,/ADC/A2raw_P*
X132250000Y-122100000D03*
G04 #@! TO.N,/ADC/A2raw_N*
X135370000Y-131000001D03*
G04 #@! TO.N,Net-(D2-A)*
X120787501Y-98900000D03*
G04 #@! TO.N,/USB_P*
X126714999Y-107700001D03*
X126960000Y-98040000D03*
X134831754Y-97826128D03*
G04 #@! TO.N,/XTALIN*
X136528223Y-100100001D03*
G04 #@! TO.N,/IO Banks/Bank C/V_{SENSE}*
X188600000Y-85490001D03*
G04 #@! TO.N,/IO Banks/Bank C/V_{IO_OUT}*
X170500000Y-84090000D03*
X172670000Y-83550001D03*
X169099999Y-83530000D03*
G04 #@! TO.N,/IO Banks/Bank C/Z0*
X172650001Y-90070000D03*
G04 #@! TO.N,/IO Banks/Bank C/Z1*
X174110001Y-89960000D03*
G04 #@! TO.N,/IO Banks/Bank C/Z2*
X179950000Y-93050000D03*
G04 #@! TO.N,/IO Banks/Bank C/Z3*
X180910001Y-89960000D03*
G04 #@! TO.N,/IO Banks/Bank C/Z4*
X184310000Y-89960000D03*
G04 #@! TO.N,/IO Banks/Bank C/Z5*
X187710000Y-89960000D03*
G04 #@! TO.N,/IO Banks/Bank C/Z6*
X191110000Y-89960000D03*
G04 #@! TO.N,/IO Banks/Bank C/Z7*
X194509999Y-89959999D03*
G04 #@! TO.N,/ADC/A3raw_P*
X198600001Y-91850000D03*
G04 #@! TO.N,/ADC/A3raw_N*
X195150000Y-84700000D03*
G04 #@! TO.N,/ENVD*
X202000000Y-126710001D03*
X138000000Y-107800000D03*
X136700000Y-130900001D03*
X181300000Y-131700001D03*
G04 #@! TO.N,Net-(Q2-G)*
X205150001Y-102260000D03*
G04 #@! TO.N,/Power/INVBUBO_LOCALGND*
X205160001Y-100410000D03*
G04 #@! TO.N,/Power/EN*
X202259999Y-91400000D03*
X202840000Y-101300000D03*
G04 #@! TO.N,Net-(U5-EN)*
X130410000Y-113860001D03*
G04 #@! TO.N,/USB_N*
X134831754Y-97276128D03*
X126715001Y-108700000D03*
X123495000Y-107450001D03*
X127240901Y-97640901D03*
X123500000Y-108450000D03*
G04 #@! TO.N,/ADC/SWCLK*
X198499999Y-113800001D03*
X197940001Y-103030000D03*
G04 #@! TO.N,/ADC/STM32_NRST*
X198990000Y-113800000D03*
X189690000Y-113590001D03*
G04 #@! TO.N,/IO Banks/Bank A/V_{SENSE}*
X152149999Y-84700000D03*
G04 #@! TO.N,/IO Banks/Bank A/V_{IO_OUT}*
X135399999Y-83600000D03*
X132125000Y-84190000D03*
X133499998Y-84090001D03*
X134080000Y-86140000D03*
G04 #@! TO.N,/IO Banks/Bank A/Z0*
X135640000Y-90070000D03*
G04 #@! TO.N,/IO Banks/Bank A/Z1*
X137110001Y-89960000D03*
G04 #@! TO.N,/IO Banks/Bank A/Z2*
X143359999Y-92348801D03*
G04 #@! TO.N,/IO Banks/Bank A/Z3*
X143910000Y-89960000D03*
G04 #@! TO.N,/IO Banks/Bank A/Z4*
X147310000Y-89960000D03*
G04 #@! TO.N,/IO Banks/Bank A/Z5*
X150710000Y-89960000D03*
G04 #@! TO.N,/IO Banks/Bank A/Z6*
X154109999Y-89959999D03*
G04 #@! TO.N,/IO Banks/Bank A/Z7*
X157509999Y-89959999D03*
G04 #@! TO.N,/ADC/A1raw_P*
X160038400Y-93100000D03*
G04 #@! TO.N,/ADC/A1raw_N*
X157910000Y-84460001D03*
G04 #@! TO.N,/IO Banks/Bank A/PG*
X144299999Y-82700000D03*
G04 #@! TO.N,Net-(D4-A)*
X121300000Y-92500000D03*
G04 #@! TO.N,Net-(U24-~{INT})*
X163099999Y-93400000D03*
G04 #@! TO.N,Net-(D26-A)*
X121500000Y-120200000D03*
G04 #@! TO.N,Net-(D3-A)*
X120800000Y-95300000D03*
G04 #@! TO.N,Net-(D35-K)*
X127499999Y-130400001D03*
G04 #@! TO.N,/IO Banks/Bank D/PG*
X186300000Y-133600000D03*
G04 #@! TO.N,Net-(D25-A)*
X121500000Y-122900000D03*
G04 #@! TO.N,/IO Banks/Bank D/V_{SENSE}*
X179000000Y-130810000D03*
G04 #@! TO.N,/IO Banks/Bank D/V_{IO_OUT}*
X195392499Y-132502501D03*
X196250000Y-130000000D03*
X198654999Y-133350001D03*
X197099999Y-132209999D03*
G04 #@! TO.N,/IO Banks/Bank D/Z0*
X194940000Y-126230000D03*
G04 #@! TO.N,/IO Banks/Bank D/Z1*
X193489999Y-126340001D03*
G04 #@! TO.N,/IO Banks/Bank D/Z2*
X187350000Y-123350000D03*
G04 #@! TO.N,/IO Banks/Bank D/Z3*
X186690000Y-126340001D03*
G04 #@! TO.N,/IO Banks/Bank D/Z4*
X183290000Y-126340001D03*
G04 #@! TO.N,/IO Banks/Bank D/Z5*
X179890000Y-126340001D03*
G04 #@! TO.N,/IO Banks/Bank D/Z6*
X176490000Y-126340001D03*
G04 #@! TO.N,/IO Banks/Bank D/Z7*
X173090001Y-126340001D03*
G04 #@! TO.N,/ADC/A4raw_P*
X169249999Y-122000001D03*
G04 #@! TO.N,/ADC/A4raw_N*
X172349999Y-129400000D03*
G04 #@! TO.N,/IO Banks/V_{SET_D}*
X183980000Y-123260000D03*
X183999999Y-129400000D03*
G04 #@! TO.N,/IO Banks/V_{SET_C}*
X188810000Y-115500001D03*
X186409999Y-86950001D03*
G04 #@! TO.N,/IO Banks/V_{SET_B}*
X147150000Y-129200000D03*
X146920000Y-117910000D03*
X183220000Y-116130000D03*
G04 #@! TO.N,/IO Banks/V_{SET_A}*
X182700000Y-116200000D03*
X143880001Y-86110000D03*
X146109999Y-115970000D03*
G04 #@! TO.N,/IO Banks/Bank A/V_{CLAMP}*
X148780000Y-89010001D03*
X155579999Y-89010001D03*
X152180000Y-89010001D03*
X158979999Y-89010001D03*
X141980000Y-89010000D03*
X145380000Y-89010001D03*
X138580000Y-89010000D03*
X135180000Y-89010000D03*
G04 #@! TO.N,/IO Banks/Bank B/V_{IO}*
X144169999Y-126450000D03*
X140770000Y-126480000D03*
X157770000Y-126650000D03*
X137380000Y-126490000D03*
X154350001Y-126650000D03*
X160989999Y-132209999D03*
X159250000Y-130400000D03*
X147580000Y-126460000D03*
X150980000Y-126460000D03*
X139477499Y-130060000D03*
X160500000Y-131810000D03*
X133670000Y-126470000D03*
G04 #@! TO.N,/IO Banks/A.P1*
X135899999Y-88699999D03*
X161870001Y-86860000D03*
G04 #@! TO.N,/IO Banks/A.P5*
X162100001Y-89420000D03*
X149500001Y-88750000D03*
G04 #@! TO.N,/IO Banks/Bank C/V_{IO}*
X191122501Y-86240000D03*
X170100000Y-84490000D03*
X183020000Y-89840000D03*
X189830000Y-89820000D03*
X169640000Y-84090001D03*
X179620000Y-89840000D03*
X196930000Y-89830001D03*
X186430001Y-89850000D03*
X172830000Y-89650000D03*
X193220000Y-89810000D03*
X171350000Y-85750001D03*
X176249999Y-89650000D03*
G04 #@! TO.N,+5V5*
X160780001Y-133670000D03*
X163860001Y-125980000D03*
X177079999Y-133960000D03*
X169819999Y-82630001D03*
X146749999Y-133120001D03*
X183870000Y-83830000D03*
X183730000Y-132470000D03*
X190300000Y-82300001D03*
X194150001Y-133160000D03*
X167200000Y-133490000D03*
X197780001Y-133670000D03*
X165640000Y-126240000D03*
D19*
X140070000Y-133990001D03*
D16*
X193900000Y-82500000D03*
G04 #@! TO.N,/IO Banks/A.P4*
X162860000Y-88770000D03*
X145999999Y-88799999D03*
G04 #@! TO.N,/IO Banks/Bank D/V_{CLAMP}*
X185219999Y-127289999D03*
X192020000Y-127290000D03*
X171620001Y-127290000D03*
X178420000Y-127110000D03*
X195420000Y-127290000D03*
X181820000Y-127290000D03*
X175020000Y-127290000D03*
X188619999Y-127289999D03*
G04 #@! TO.N,/~{CY_RESET}*
X135720000Y-109310001D03*
X142549999Y-109300001D03*
X131199999Y-99600000D03*
X126314999Y-93587500D03*
G04 #@! TO.N,/IO Banks/Bank D/V_{IO}*
X194277600Y-126537201D03*
X176477500Y-130060000D03*
X177770000Y-126480000D03*
X196198213Y-131000001D03*
X184579999Y-126459999D03*
X197979999Y-132219999D03*
X191349999Y-126650000D03*
X187980000Y-126460000D03*
X194149999Y-129300000D03*
X197499999Y-131810001D03*
X171130000Y-126700001D03*
X174380000Y-126490001D03*
X181169999Y-126450000D03*
G04 #@! TO.N,/IO Banks/Bank A/V_{IO}*
X154122500Y-86240000D03*
X133100000Y-84490000D03*
X142620000Y-89840000D03*
X159390000Y-90220000D03*
X156220000Y-89810000D03*
X139249999Y-89650000D03*
X152830000Y-89820001D03*
X146020000Y-89840000D03*
X135829999Y-89650000D03*
X149430000Y-89850000D03*
X134150001Y-85350001D03*
G04 #@! TO.N,/IO Banks/B.P5*
X161900000Y-129470000D03*
X144099999Y-127550000D03*
G04 #@! TO.N,/Power/3V3OUT*
X135015000Y-111745000D03*
X135790000Y-113890000D03*
G04 #@! TO.N,/LED_ERR*
X125600001Y-105250001D03*
X122100000Y-92100000D03*
X138769999Y-105390001D03*
G04 #@! TO.N,/IO Banks/Bank B/VIO_EN*
X145380000Y-127990000D03*
X146529999Y-130260001D03*
G04 #@! TO.N,/IO Banks/B.P3*
X151264999Y-127915000D03*
X161880000Y-128180001D03*
G04 #@! TO.N,/LED_ACT*
X125499999Y-106199999D03*
X139310001Y-105550001D03*
X122400000Y-94900000D03*
G04 #@! TO.N,/IO Banks/Bank C/V_{CLAMP}*
X192580000Y-89010001D03*
X195980000Y-89010001D03*
X189180000Y-89010001D03*
X185780000Y-89010000D03*
X182380000Y-89010000D03*
X178980000Y-89010000D03*
X175579999Y-89009999D03*
X172179999Y-89009999D03*
G04 #@! TO.N,/IO Banks/D.P3*
X187925000Y-127575001D03*
X167599999Y-128160001D03*
G04 #@! TO.N,/IO Banks/B.P1*
X161919999Y-126875000D03*
X157700000Y-127600000D03*
G04 #@! TO.N,/IO Banks/Bank B/V_{CLAMP}*
X138020000Y-127290000D03*
X155020000Y-127290000D03*
X134620000Y-127290000D03*
X141420000Y-127289999D03*
X151620000Y-127290000D03*
X144819999Y-127289999D03*
X158420001Y-127290001D03*
X148220000Y-127290000D03*
G04 #@! TO.N,/IO Banks/D.P6*
X168709999Y-126220000D03*
X177699999Y-127520001D03*
G04 #@! TO.N,/IO Banks/A.P0*
X162970000Y-86160000D03*
X132509999Y-88999999D03*
G04 #@! TO.N,/IO Banks/A.P3*
X162110001Y-88130000D03*
X142675000Y-88724999D03*
G04 #@! TO.N,/IO Banks/D.P5*
X181060000Y-127380000D03*
X167610000Y-126875000D03*
G04 #@! TO.N,FLASH_~{HOLD}*
X189400000Y-98300000D03*
X167940000Y-97310000D03*
G04 #@! TO.N,/MCU_~{RST}*
X140290000Y-115390000D03*
X179830000Y-115480001D03*
G04 #@! TO.N,/IO Banks/A.P7*
X156300000Y-88800000D03*
X162100000Y-90710000D03*
G04 #@! TO.N,/IO Banks/A.P6*
X162800000Y-90075000D03*
X152824254Y-88824254D03*
G04 #@! TO.N,/IO Banks/A.P2*
X162879999Y-87470001D03*
X139250000Y-88650000D03*
G04 #@! TO.N,/IO Banks/C.P7*
X170559999Y-87050001D03*
X193269999Y-88100000D03*
G04 #@! TO.N,/IO Banks/C.P6*
X189824255Y-88824254D03*
X169420000Y-87020000D03*
G04 #@! TO.N,/Power/1V1OUT*
X130800000Y-101700001D03*
X133080000Y-98850002D03*
G04 #@! TO.N,/IO Banks/B.P7*
X137299999Y-127500001D03*
X161880001Y-130770001D03*
G04 #@! TO.N,/IO Banks/D.P7*
X174300000Y-127500001D03*
X167609999Y-125569999D03*
G04 #@! TO.N,/IO Banks/D.P4*
X184600000Y-127500000D03*
X168710000Y-127525000D03*
G04 #@! TO.N,/IO Banks/D.P2*
X168690000Y-128810000D03*
X191349999Y-127649999D03*
G04 #@! TO.N,/IO Banks/D.P1*
X194710000Y-127570001D03*
X167620001Y-129460000D03*
G04 #@! TO.N,/IO Banks/D.P0*
X198100000Y-127300001D03*
X168720000Y-130110000D03*
G04 #@! TO.N,/IO Banks/B.P6*
X140775745Y-127475746D03*
X163000000Y-130120000D03*
G04 #@! TO.N,/IO Banks/B.P4*
X162990001Y-128820000D03*
X147600000Y-127500001D03*
G04 #@! TO.N,/IO Banks/B.P2*
X154350000Y-127650000D03*
X162980000Y-127510001D03*
G04 #@! TO.N,/Power/1V8OUT*
X135029999Y-105322500D03*
X134620000Y-108490001D03*
G04 #@! TO.N,Net-(U33-Gate)*
X134000001Y-84510000D03*
X131764999Y-85050001D03*
G04 #@! TO.N,/NAFE_CLK_{OUT}*
X191245000Y-113675000D03*
X194490000Y-113790000D03*
G04 #@! TD*
G04 #@! TO.N,+3V3*
D20*
X161774999Y-108310000D02*
X161774999Y-109710000D01*
D21*
X160165001Y-82205000D02*
X149695001Y-82205000D01*
D22*
X149350001Y-82550000D02*
X149200001Y-82700000D01*
D21*
X162275000Y-106210000D02*
X161849999Y-106634999D01*
D20*
X166274000Y-106210000D02*
X166735001Y-106671000D01*
D21*
X149695001Y-82205000D02*
X149200001Y-82700000D01*
D20*
X162275000Y-107810000D02*
X161774999Y-108310000D01*
D21*
X163075000Y-107810000D02*
X163460000Y-107425000D01*
D20*
X165474500Y-106210000D02*
X166274000Y-106210000D01*
D21*
X181424473Y-98540000D02*
X180876973Y-99087500D01*
X163460000Y-107425000D02*
X165890000Y-107425000D01*
D23*
X181400001Y-132500000D02*
X181239999Y-132660001D01*
D21*
X161849999Y-106634999D02*
X161849999Y-107384999D01*
D23*
X165455000Y-131515000D02*
X160714117Y-131515000D01*
D22*
X185490000Y-81990000D02*
X186109999Y-82609999D01*
D21*
X182949999Y-98540001D02*
X181424473Y-98540000D01*
D20*
X161774999Y-107309999D02*
X162275000Y-107810000D01*
D21*
X186200001Y-82700000D02*
X186109999Y-82609999D01*
D20*
X166735001Y-106671000D02*
X166734999Y-107350000D01*
X166274999Y-107809999D02*
X166275000Y-108610001D01*
X166734999Y-107350000D02*
X166274999Y-107809999D01*
X161774999Y-106709999D02*
X161774999Y-107309999D01*
D22*
X161699999Y-82550000D02*
X162260000Y-81990000D01*
D23*
X160649116Y-131450000D02*
X160350882Y-131450000D01*
X159950882Y-131849999D02*
X145100000Y-131850000D01*
X145100000Y-131850000D02*
X144399999Y-132550000D01*
D21*
X165890000Y-107425000D02*
X166274999Y-107809999D01*
D22*
X160510000Y-82550000D02*
X161699999Y-82550000D01*
D23*
X181239999Y-132660001D02*
X166600000Y-132660000D01*
D20*
X161774999Y-109710000D02*
X162275000Y-110210000D01*
D21*
X160510000Y-82550000D02*
X160165001Y-82205000D01*
D23*
X160350882Y-131450000D02*
X159950882Y-131849999D01*
X160714117Y-131515000D02*
X160649116Y-131450000D01*
X205213518Y-114160000D02*
X197870001Y-114160000D01*
X197870001Y-114160000D02*
X197490001Y-113780000D01*
D20*
X162275000Y-107810000D02*
X163075000Y-107810000D01*
D24*
X130790000Y-102570001D02*
X126450000Y-102570000D01*
D21*
X180876973Y-99087500D02*
X179487500Y-99087501D01*
D22*
X162260000Y-81990000D02*
X185490000Y-81990000D01*
X160510000Y-82550000D02*
X149350001Y-82550000D01*
D23*
X166800000Y-132660001D02*
X166600000Y-132660000D01*
D20*
X163075000Y-106210001D02*
X162275000Y-106210000D01*
D23*
X166600000Y-132660000D02*
X165455000Y-131515000D01*
D24*
X126450000Y-102570000D02*
X125890000Y-102010000D01*
D21*
X161849999Y-107384999D02*
X162275000Y-107810000D01*
D20*
X162275000Y-106210000D02*
X161774999Y-106709999D01*
D23*
X206143518Y-113230000D02*
X205213518Y-114160000D01*
X206670000Y-113230000D02*
X206143518Y-113230000D01*
G04 #@! TO.N,+5V*
D20*
X128631142Y-100718858D02*
X136489497Y-100718858D01*
D25*
X166347500Y-120167500D02*
X165270000Y-119090000D01*
X129999999Y-112400001D02*
X135860001Y-112400001D01*
D20*
X148639999Y-100540000D02*
X149399999Y-101300000D01*
X148009462Y-100540000D02*
X148639999Y-100540000D01*
D25*
X175038039Y-119800000D02*
X174670540Y-120167501D01*
X126199999Y-111400000D02*
X125099999Y-112500000D01*
D20*
X128600000Y-100750000D02*
X128631142Y-100718858D01*
X147924462Y-100625000D02*
X148009462Y-100540000D01*
D25*
X136900000Y-113440001D02*
X136900000Y-113600000D01*
X128999999Y-111400000D02*
X129999999Y-112400001D01*
X165270000Y-119090000D02*
X138390000Y-119090000D01*
D20*
X141010001Y-101240000D02*
X141829412Y-100420589D01*
D25*
X198500000Y-119800000D02*
X175038039Y-119800000D01*
D20*
X142545284Y-100420589D02*
X142749695Y-100625000D01*
X137010639Y-101240001D02*
X141010001Y-101240000D01*
X142749695Y-100625000D02*
X147924462Y-100625000D01*
X136489497Y-100718858D02*
X137010639Y-101240001D01*
X141829412Y-100420589D02*
X142545284Y-100420589D01*
D25*
X174670540Y-120167501D02*
X166347500Y-120167500D01*
X138390000Y-119090000D02*
X137600000Y-118300000D01*
X135860001Y-112400001D02*
X136900000Y-113440001D01*
X128999999Y-111400000D02*
X126199999Y-111400000D01*
G04 #@! TO.N,/DRDY*
D26*
X159075000Y-102641337D02*
X159748664Y-103315001D01*
X187995000Y-103315000D02*
X188380000Y-103700001D01*
X159748664Y-103315001D02*
X187995000Y-103315000D01*
X159075000Y-102210000D02*
X159075000Y-102641337D01*
G04 #@! TO.N,/COPI*
X183021335Y-101380000D02*
X182777313Y-101624022D01*
X160295000Y-101790001D02*
X159875000Y-102210001D01*
X171238700Y-101800000D02*
X171153699Y-101714999D01*
X172907313Y-101624022D02*
X172731335Y-101800000D01*
X167341336Y-101790001D02*
X160295000Y-101790001D01*
X172731335Y-101800000D02*
X171238700Y-101800000D01*
X167416336Y-101715001D02*
X167341336Y-101790001D01*
X185710000Y-101380000D02*
X183021335Y-101380000D01*
X186380000Y-102050000D02*
X185710000Y-101380000D01*
X171153699Y-101714999D02*
X167416336Y-101715001D01*
X182777313Y-101624022D02*
X172907313Y-101624022D01*
G04 #@! TO.N,/FPGA/RAM + LVDS/DETECT*
X151400000Y-102250000D02*
X150700000Y-102950000D01*
X159499999Y-100949999D02*
X158834965Y-100949999D01*
X157534964Y-102250000D02*
X151400000Y-102250000D01*
X158834965Y-100949999D02*
X157534964Y-102250000D01*
G04 #@! TO.N,/SCLK*
X164180000Y-102515000D02*
X163875001Y-102210000D01*
X184645000Y-102845000D02*
X184800000Y-102690000D01*
X168692600Y-102845000D02*
X168362600Y-102515001D01*
X168692600Y-102845000D02*
X184645000Y-102845000D01*
X168362600Y-102515001D02*
X164180000Y-102515000D01*
G04 #@! TO.N,/SCL*
X180370001Y-86640000D02*
X178091337Y-86640001D01*
X179074578Y-101929022D02*
X179050556Y-101905000D01*
X151152047Y-123400000D02*
X160340000Y-123400000D01*
X177521337Y-87210000D02*
X171438700Y-87210000D01*
X150402955Y-123045000D02*
X150797046Y-123045000D01*
X176351162Y-130405001D02*
X178094999Y-130405001D01*
X179050556Y-101905000D02*
X172895037Y-101905001D01*
X134855035Y-98545002D02*
X135365625Y-98034412D01*
X197150000Y-86800001D02*
X197150000Y-86493988D01*
X175406163Y-131350000D02*
X176351162Y-130405001D01*
X130874999Y-98545002D02*
X134855035Y-98545002D01*
X165999999Y-130400001D02*
X166400000Y-130400001D01*
X166448663Y-86129999D02*
X166583664Y-85995000D01*
X170738702Y-86510000D02*
X167515000Y-86510000D01*
X167301274Y-102210001D02*
X167075000Y-102210001D01*
X178500000Y-130000000D02*
X178500000Y-129950001D01*
X166400000Y-130400001D02*
X167350000Y-131350001D01*
X186670000Y-86250000D02*
X186465000Y-86455001D01*
X197036578Y-85935001D02*
X187014999Y-85935001D01*
X171160000Y-101990000D02*
X171074999Y-101904999D01*
X166583664Y-85995000D02*
X167000000Y-85995000D01*
X167350000Y-131350001D02*
X175406163Y-131350000D01*
X161360001Y-85610000D02*
X164728664Y-85610000D01*
X197246445Y-86397542D02*
X197246446Y-86144870D01*
X172810036Y-101990001D02*
X171160000Y-101990000D01*
X197246446Y-86144870D02*
X197036578Y-85935001D01*
X187014999Y-85935001D02*
X186699999Y-86250000D01*
D27*
X141499999Y-129199999D02*
X144500000Y-129200000D01*
D26*
X172895037Y-101905001D02*
X172810036Y-101990001D01*
X197150000Y-86493988D02*
X197246445Y-86397542D01*
X165248664Y-86130000D02*
X166448663Y-86129999D01*
X160340000Y-123400000D02*
X160360000Y-123380000D01*
X130400001Y-99020000D02*
X130874999Y-98545002D01*
X186699999Y-86250000D02*
X186670000Y-86250000D01*
X167515000Y-86510000D02*
X167000000Y-85995000D01*
X178094999Y-130405001D02*
X178500000Y-130000000D01*
X164728664Y-85610000D02*
X165248664Y-86130000D01*
X149784332Y-86815668D02*
X160154333Y-86815668D01*
X171074999Y-101904999D02*
X167606274Y-101905001D01*
X160154333Y-86815668D02*
X161360001Y-85610000D01*
X150047955Y-123400000D02*
X150402955Y-123045000D01*
X150797046Y-123045000D02*
X151152047Y-123400000D01*
X167606274Y-101905001D02*
X167301274Y-102210001D01*
X180555000Y-86455001D02*
X180370001Y-86640000D01*
X171438700Y-87210000D02*
X170738702Y-86510000D01*
X144651251Y-123400000D02*
X150047955Y-123400000D01*
X135365625Y-98034412D02*
X141434410Y-98034412D01*
X178091337Y-86640001D02*
X177521337Y-87210000D01*
X186465000Y-86455001D02*
X180555000Y-86455001D01*
X144551249Y-123299999D02*
X144651251Y-123400000D01*
X141434410Y-98034412D02*
X141700000Y-98300001D01*
G04 #@! TO.N,/FPGA/U3*
X138973665Y-99805000D02*
X138828665Y-99660000D01*
X148563209Y-98900000D02*
X145530000Y-98900000D01*
X131571336Y-99660000D02*
X131291336Y-99940000D01*
X138828665Y-99660000D02*
X131571336Y-99660000D01*
X149018209Y-99355000D02*
X148563209Y-98900000D01*
X139226336Y-99805000D02*
X138973665Y-99805000D01*
X160195000Y-98755000D02*
X157395001Y-98755000D01*
X143050000Y-99900000D02*
X142165000Y-99015000D01*
X160490000Y-99050000D02*
X160195000Y-98755000D01*
X157395001Y-98755000D02*
X156795000Y-99355001D01*
X166600000Y-99050000D02*
X160490000Y-99050000D01*
X140016337Y-99015000D02*
X139226336Y-99805000D01*
X144530000Y-99900000D02*
X143050000Y-99900000D01*
X142165000Y-99015000D02*
X140016337Y-99015000D01*
X131291336Y-99940000D02*
X121610000Y-99940000D01*
X145530000Y-98900000D02*
X144530000Y-99900000D01*
X156795000Y-99355001D02*
X149018209Y-99355000D01*
G04 #@! TO.N,/FPGA/U4*
X167880000Y-99200000D02*
X166220000Y-97540000D01*
X134776299Y-98355001D02*
X121815001Y-98355001D01*
X121815001Y-98355001D02*
X121430000Y-97970000D01*
X163886335Y-97155001D02*
X155746336Y-97155000D01*
X155746336Y-97155000D02*
X155696336Y-97205001D01*
X135926300Y-97205000D02*
X134776299Y-98355001D01*
X164271335Y-97540000D02*
X163886335Y-97155001D01*
X155696336Y-97205001D02*
X135926300Y-97205000D01*
X166220000Y-97540000D02*
X164271335Y-97540000D01*
G04 #@! TO.N,/NAFE_{~{RST}}*
X179056336Y-102605000D02*
X179281336Y-102380001D01*
X187700000Y-102380001D02*
X187799999Y-102480000D01*
X179281336Y-102380001D02*
X187700000Y-102380001D01*
X169475001Y-102210000D02*
X169870000Y-102605000D01*
X169870000Y-102605000D02*
X179056336Y-102605000D01*
G04 #@! TO.N,/CIPO*
X168613900Y-103035000D02*
X188345000Y-103035001D01*
X159874999Y-103009999D02*
X160179999Y-102705000D01*
X160179999Y-102705000D02*
X168283900Y-102705000D01*
X188345000Y-103035001D02*
X188380000Y-103000000D01*
X168283900Y-102705000D02*
X168613900Y-103035000D01*
G04 #@! TO.N,/~{ALERT}*
X152898665Y-85480001D02*
X153353665Y-85935001D01*
X166910000Y-130430000D02*
X166569999Y-130090001D01*
X182068751Y-85220000D02*
X181683751Y-85605000D01*
X160024999Y-85955000D02*
X160860000Y-85120000D01*
X191400000Y-101400000D02*
X191689998Y-101400000D01*
X155573663Y-85955000D02*
X160024999Y-85955000D01*
X191689998Y-101400000D02*
X191694999Y-101405001D01*
X191694999Y-101405001D02*
X199516335Y-101405001D01*
X201415000Y-103303666D02*
X201415000Y-103585000D01*
X164480000Y-85120001D02*
X164600001Y-85000000D01*
D27*
X138502548Y-104789999D02*
X144110001Y-104790000D01*
D26*
X173939913Y-85000000D02*
X164600001Y-85000000D01*
X164465001Y-131080000D02*
X161511336Y-131080000D01*
X186300000Y-85090000D02*
X186170000Y-85220000D01*
X176325000Y-129645001D02*
X182644999Y-129645001D01*
X169700000Y-130000000D02*
X169270000Y-130430000D01*
D27*
X138432549Y-104720000D02*
X138502548Y-104789999D01*
D26*
X182644999Y-129645001D02*
X183449999Y-130450001D01*
D27*
X144110001Y-104790000D02*
X144130000Y-104770000D01*
D26*
X160136335Y-129704999D02*
X152030200Y-129705000D01*
X153353665Y-85935001D02*
X155553665Y-85935001D01*
X155553665Y-85935001D02*
X155573663Y-85955000D01*
X169700000Y-130000000D02*
X175970001Y-130000000D01*
X174544914Y-85605000D02*
X173939913Y-85000000D01*
X149030000Y-85480000D02*
X152898665Y-85480001D01*
X181683751Y-85605000D02*
X174544914Y-85605000D01*
X175970001Y-130000000D02*
X176325000Y-129645001D01*
X152030200Y-129705000D02*
X151503999Y-129178800D01*
X161511336Y-131080000D02*
X160136335Y-129704999D01*
X165455000Y-130090001D02*
X164465001Y-131080000D01*
X199516335Y-101405001D02*
X201415000Y-103303666D01*
D27*
X135150000Y-102890000D02*
X135169999Y-102869999D01*
X135539999Y-104719999D02*
X138432549Y-104720000D01*
D26*
X160860000Y-85120000D02*
X164480000Y-85120001D01*
X169270000Y-130430000D02*
X166910000Y-130430000D01*
D27*
X131549999Y-102890001D02*
X135150000Y-102890000D01*
D26*
X166569999Y-130090001D02*
X165455000Y-130090001D01*
X186170000Y-85220000D02*
X182068751Y-85220000D01*
G04 #@! TO.N,/FPGA/OEB*
X167153664Y-101115001D02*
X166998665Y-101270001D01*
X166998665Y-101270001D02*
X162280000Y-101270000D01*
X177240000Y-101300000D02*
X177220001Y-101320000D01*
X177220001Y-101320000D02*
X173011338Y-101320000D01*
X172806338Y-101115001D02*
X167153664Y-101115001D01*
X173011338Y-101320000D02*
X172806338Y-101115001D01*
G04 #@! TO.N,/FPGA/U5*
X165188664Y-95900001D02*
X156099999Y-95900001D01*
X167999999Y-100100001D02*
X168349999Y-99750000D01*
X168349999Y-99750000D02*
X168349999Y-99061336D01*
X127218837Y-96220000D02*
X126738837Y-96700000D01*
X137650001Y-96850001D02*
X137490000Y-96690000D01*
X126738837Y-96700000D02*
X118200000Y-96700000D01*
X137490000Y-96690000D02*
X134739999Y-96690000D01*
X168349999Y-99061336D02*
X165188664Y-95900001D01*
X134269999Y-96220000D02*
X127218837Y-96220000D01*
X134739999Y-96690000D02*
X134269999Y-96220000D01*
X155149999Y-96850001D02*
X137650001Y-96850001D01*
X156099999Y-95900001D02*
X155149999Y-96850001D01*
G04 #@! TO.N,/INTB*
X187010001Y-101520000D02*
X186039999Y-100550000D01*
X165901336Y-100550000D02*
X165566336Y-100885001D01*
X160493800Y-100885000D02*
X160444799Y-100934000D01*
X186039999Y-100550000D02*
X165901336Y-100550000D01*
X165566336Y-100885001D02*
X160493800Y-100885000D01*
G04 #@! TO.N,/CLKREF*
X142892600Y-100280001D02*
X142242599Y-99630001D01*
X163560001Y-109060000D02*
X163660000Y-108960000D01*
X177828665Y-109320000D02*
X178320001Y-109320000D01*
X156025000Y-99735001D02*
X148860807Y-99735000D01*
X163071000Y-100249001D02*
X156539000Y-100249000D01*
X178320001Y-109320000D02*
X178400001Y-109240001D01*
X148405809Y-99280000D02*
X146025489Y-99280000D01*
X146025489Y-99280000D02*
X145025490Y-100279999D01*
X177468665Y-108960000D02*
X177828665Y-109320000D01*
X145025490Y-100279999D02*
X142892600Y-100280001D01*
X142242599Y-99630001D02*
X141209999Y-99629999D01*
X163210001Y-100110000D02*
X163071000Y-100249001D01*
X141209999Y-99629999D02*
X140539999Y-100299999D01*
X156539000Y-100249000D02*
X156025000Y-99735001D01*
X148860807Y-99735000D02*
X148405809Y-99280000D01*
X163660000Y-108960000D02*
X177468665Y-108960000D01*
G04 #@! TO.N,/NAFE_{~{CS}}*
X164674999Y-103810000D02*
X164979999Y-103505000D01*
X179373665Y-103505000D02*
X179956164Y-104087500D01*
X179956164Y-104087500D02*
X187777500Y-104087501D01*
X188090000Y-104400000D02*
X188380000Y-104400000D01*
X187777500Y-104087501D02*
X188090000Y-104400000D01*
X164979999Y-103505000D02*
X179373665Y-103505000D01*
G04 #@! TO.N,Net-(U10-DIR)*
X151340000Y-105840001D02*
X152264999Y-104915000D01*
X160801335Y-104915000D02*
X161158665Y-104557671D01*
X151340000Y-105840001D02*
X143119999Y-105839999D01*
X152264999Y-104915000D02*
X160801335Y-104915000D01*
X161158665Y-104557671D02*
X161158665Y-104495000D01*
X161348664Y-104305000D02*
X168129999Y-104305001D01*
X161158665Y-104495000D02*
X161348664Y-104305000D01*
X168129999Y-104305001D02*
X168250000Y-104185000D01*
X143119999Y-105839999D02*
X142639999Y-106320000D01*
G04 #@! TO.N,/SYNC*
X185650000Y-104500001D02*
X185427499Y-104277500D01*
X185427499Y-104277500D02*
X179877462Y-104277500D01*
X161170000Y-104115001D02*
X160675000Y-104610000D01*
X186230000Y-104500001D02*
X185650000Y-104500001D01*
X179409963Y-103810000D02*
X167557637Y-103810000D01*
X167252636Y-104115001D02*
X161170000Y-104115001D01*
X167557637Y-103810000D02*
X167252636Y-104115001D01*
X179877462Y-104277500D02*
X179409963Y-103810000D01*
G04 #@! TO.N,/F_MCU_~{RST}*
X167831337Y-104950001D02*
X172420000Y-104950001D01*
X161475001Y-104610000D02*
X161779999Y-104915000D01*
X172420000Y-104950001D02*
X172730000Y-105260000D01*
X167436336Y-105345000D02*
X167831337Y-104950001D01*
X166083663Y-104915000D02*
X166513665Y-105345000D01*
X166513665Y-105345000D02*
X167436336Y-105345000D01*
X161779999Y-104915000D02*
X166083663Y-104915000D01*
G04 #@! TO.N,/WR*
X139359999Y-102049999D02*
X139509997Y-101900001D01*
X147918662Y-101900001D02*
X148173663Y-101645000D01*
X148173663Y-101645000D02*
X148695000Y-101645000D01*
X156481336Y-102000001D02*
X156965000Y-101516337D01*
X165391000Y-100629000D02*
X165440000Y-100580000D01*
X148695000Y-101645000D02*
X149050000Y-102000000D01*
X149050000Y-102000000D02*
X156481336Y-102000001D01*
X156965000Y-101516337D02*
X156965000Y-101453664D01*
X139509997Y-101900001D02*
X147918662Y-101900001D01*
X157789664Y-100629000D02*
X165391000Y-100629000D01*
X156965000Y-101453664D02*
X157789664Y-100629000D01*
G04 #@! TO.N,/SDA*
X190996165Y-86545002D02*
X191288835Y-86545002D01*
X186676335Y-86644999D02*
X180633699Y-86644999D01*
X170659999Y-86700000D02*
X166400000Y-86700000D01*
X160078701Y-87165001D02*
X161443702Y-85800000D01*
X149479332Y-86620669D02*
X149479332Y-86942004D01*
X150324253Y-122855000D02*
X150875746Y-122855001D01*
X177600037Y-87400001D02*
X171359999Y-87400001D01*
X142744410Y-97844412D02*
X139794411Y-97844412D01*
X164950000Y-86700000D02*
X166400000Y-86700000D01*
X149800000Y-86300000D02*
X149479332Y-86620669D01*
X190817501Y-86366338D02*
X190996165Y-86545002D01*
X165900000Y-130949999D02*
X166349999Y-130949999D01*
X149702329Y-87165000D02*
X150630000Y-87165000D01*
X171359999Y-87400001D02*
X170659999Y-86700000D01*
X144089999Y-123240001D02*
X144089999Y-123139999D01*
X166279999Y-100910001D02*
X178385001Y-100910000D01*
X196930239Y-86260000D02*
X196941446Y-86271206D01*
X191573836Y-86260000D02*
X196930239Y-86260000D01*
X139794411Y-97844412D02*
X139674999Y-97725001D01*
X178170037Y-86830001D02*
X177600037Y-87400001D01*
X178385001Y-100910000D02*
X178775000Y-101300000D01*
X166349999Y-130949999D02*
X167000000Y-131600000D01*
X150564999Y-87164999D02*
X160078701Y-87165001D01*
X150875746Y-122855001D02*
X150950747Y-122930001D01*
X167000000Y-131600000D02*
X177600000Y-131600000D01*
X150950747Y-122930001D02*
X160360000Y-122930000D01*
X186681335Y-86649999D02*
X186676335Y-86644999D01*
X161443702Y-85800000D02*
X164050000Y-85800000D01*
X143344999Y-98445001D02*
X142744410Y-97844412D01*
X178400001Y-130800000D02*
X178449999Y-130800000D01*
X177600000Y-131600000D02*
X178400001Y-130800000D01*
X149479332Y-86942004D02*
X149702329Y-87165000D01*
X164050000Y-85800000D02*
X164950000Y-86700000D01*
X180633699Y-86644999D02*
X180448700Y-86830000D01*
X144089999Y-123139999D02*
X144299999Y-122929999D01*
X144299999Y-122929999D02*
X150249253Y-122930000D01*
X189150001Y-86650000D02*
X189433664Y-86366337D01*
X191288835Y-86545002D02*
X191573836Y-86260000D01*
X188699999Y-86649999D02*
X186681335Y-86649999D01*
X180448700Y-86830000D02*
X178170037Y-86830001D01*
X150249253Y-122930000D02*
X150324253Y-122855000D01*
X189433664Y-86366337D02*
X190817501Y-86366338D01*
X188699999Y-86649999D02*
X189150001Y-86650000D01*
G04 #@! TO.N,/FPGA/U1*
X170805037Y-114380000D02*
X170480035Y-114705001D01*
X170480035Y-114705001D02*
X164545000Y-114705000D01*
X164545000Y-114705000D02*
X163745000Y-113905000D01*
X174030000Y-114380001D02*
X170805037Y-114380000D01*
X161601336Y-113905000D02*
X160801337Y-113105000D01*
X125255000Y-114805000D02*
X125100000Y-114650000D01*
X158148665Y-114515000D02*
X157963664Y-114330000D01*
X136794999Y-114804999D02*
X125255000Y-114805000D01*
X157963664Y-114330000D02*
X148960000Y-114330000D01*
X160548663Y-113105000D02*
X159391336Y-114262328D01*
X137955000Y-113644999D02*
X136794999Y-114804999D01*
X159391336Y-114515001D02*
X158148665Y-114515000D01*
X148036300Y-113735000D02*
X147946299Y-113645000D01*
X159391336Y-114262328D02*
X159391336Y-114515001D01*
X160801337Y-113105000D02*
X160548663Y-113105000D01*
X147946299Y-113645000D02*
X137955000Y-113644999D01*
X163745000Y-113905000D02*
X161601336Y-113905000D01*
X148960000Y-114330000D02*
X148365000Y-113735000D01*
X148365000Y-113735000D02*
X148036300Y-113735000D01*
X174420000Y-114520000D02*
X174170000Y-114520001D01*
X174170000Y-114520001D02*
X174030000Y-114380001D01*
G04 #@! TO.N,/FPGA/CLK_3*
X167551336Y-105555000D02*
X165743663Y-105555001D01*
X170453663Y-105715000D02*
X167711336Y-105715000D01*
X172120000Y-105460000D02*
X170708664Y-105460000D01*
X167711336Y-105715000D02*
X167551336Y-105555000D01*
X165598663Y-105410001D02*
X163075000Y-105410000D01*
X165743663Y-105555001D02*
X165598663Y-105410001D01*
X170708664Y-105460000D02*
X170453663Y-105715000D01*
G04 #@! TO.N,/CLKIF*
X148939508Y-99545000D02*
X148484509Y-99090000D01*
X148484509Y-99090000D02*
X145710000Y-99090000D01*
X163139999Y-99240000D02*
X160360000Y-99240000D01*
X160360000Y-99240000D02*
X160065000Y-98945000D01*
X160065000Y-98945000D02*
X157473701Y-98945000D01*
X144710000Y-100090000D02*
X142971300Y-100090000D01*
X145710000Y-99090000D02*
X144710000Y-100090000D01*
X163499999Y-99600000D02*
X163139999Y-99240000D01*
X157473701Y-98945000D02*
X156873700Y-99545001D01*
X142201299Y-99319999D02*
X141540000Y-99320000D01*
X156873700Y-99545001D02*
X148939508Y-99545000D01*
X142971300Y-100090000D02*
X142201299Y-99319999D01*
G04 #@! TO.N,/RD*
X144576300Y-101705000D02*
X137395000Y-101705000D01*
X149300000Y-101800000D02*
X148955000Y-101455000D01*
X155818664Y-101800000D02*
X149300000Y-101800000D01*
X145136298Y-101145002D02*
X144576300Y-101705000D01*
X156473664Y-101145000D02*
X155818664Y-101800000D01*
X136460000Y-102640000D02*
X135870000Y-102640000D01*
X147436334Y-101455000D02*
X147126336Y-101145002D01*
X137395000Y-101705000D02*
X136460000Y-102640000D01*
X156825000Y-101145000D02*
X156473664Y-101145000D01*
X157531000Y-100439000D02*
X156825000Y-101145000D01*
X148955000Y-101455000D02*
X147436334Y-101455000D01*
X164439999Y-100149999D02*
X164150998Y-100439000D01*
X147126336Y-101145002D02*
X145136298Y-101145002D01*
X164150998Y-100439000D02*
X157531000Y-100439000D01*
G04 #@! TO.N,/FPGA/U2*
X135670000Y-116529999D02*
X137904999Y-114294999D01*
X157078900Y-115085000D02*
X159627438Y-115085000D01*
X173685001Y-114895000D02*
X173879999Y-114700001D01*
X123180000Y-116530001D02*
X135670000Y-116529999D01*
X159627438Y-115085000D02*
X159817438Y-114895001D01*
X119000000Y-116200000D02*
X122849999Y-116200000D01*
X156893899Y-114900000D02*
X157078900Y-115085000D01*
X146131335Y-114900001D02*
X156893899Y-114900000D01*
X137904999Y-114294999D02*
X145526335Y-114295002D01*
X145526335Y-114295002D02*
X146131335Y-114900001D01*
X122849999Y-116200000D02*
X123180000Y-116530001D01*
X159817438Y-114895001D02*
X173685001Y-114895000D01*
G04 #@! TO.N,/IO Banks/B.DIR1*
X159875000Y-107010000D02*
X159513519Y-107010000D01*
X159513519Y-107010000D02*
X159203519Y-106700000D01*
X159203519Y-106700000D02*
X156500001Y-106700000D01*
G04 #@! TO.N,+1V1*
D21*
X145564999Y-97915000D02*
X144195000Y-99285001D01*
X138563294Y-98860000D02*
X135420000Y-98860000D01*
X163174999Y-97424999D02*
X158549472Y-97425001D01*
X158549472Y-97425001D02*
X158059474Y-97915000D01*
X163460000Y-106625000D02*
X164034474Y-106625000D01*
X144195000Y-99285001D02*
X142850001Y-99285001D01*
X138738295Y-98685001D02*
X138563294Y-98860000D01*
X142250000Y-98685000D02*
X138738295Y-98685001D01*
X158059474Y-97915000D02*
X150450000Y-97915000D01*
X164034474Y-106625000D02*
X164419473Y-107010000D01*
X150450000Y-97915000D02*
X149500000Y-97915000D01*
X149500000Y-97915000D02*
X145564999Y-97915000D01*
X142850001Y-99285001D02*
X142250000Y-98685000D01*
X164419473Y-107010000D02*
X164675000Y-107010001D01*
X150450000Y-98990000D02*
X150420000Y-99020000D01*
D20*
X163075000Y-107010000D02*
X162275000Y-107010001D01*
D21*
X150450000Y-97915000D02*
X150450000Y-98990000D01*
X163075000Y-107010000D02*
X163460000Y-106625000D01*
X163535000Y-97785000D02*
X163174999Y-97424999D01*
G04 #@! TO.N,+2V5*
D23*
X165694828Y-106650001D02*
X165704827Y-106660001D01*
X165040000Y-106650000D02*
X165310000Y-106649999D01*
X164235001Y-106325000D02*
X164560000Y-106650000D01*
X164235000Y-105985000D02*
X164450000Y-105770000D01*
X165040000Y-106650000D02*
X165040001Y-106380000D01*
X164235001Y-106210001D02*
X164235001Y-106325000D01*
X157932964Y-105770001D02*
X163939999Y-105770001D01*
D24*
X164844827Y-105800000D02*
X165046466Y-106001638D01*
X163939999Y-105770001D02*
X164450000Y-105770000D01*
D23*
X164710000Y-106650000D02*
X164760001Y-106650001D01*
X141459117Y-108850000D02*
X143969117Y-106340000D01*
D24*
X165924999Y-106660001D02*
X165704827Y-106660001D01*
D23*
X164710000Y-106650000D02*
X165040000Y-106650000D01*
X127694117Y-109200001D02*
X128074118Y-108820000D01*
X163939999Y-105770001D02*
X164019999Y-105850001D01*
X132449118Y-108820000D02*
X132479117Y-108849999D01*
X164024117Y-105850000D02*
X164235001Y-106060883D01*
X165046466Y-106001638D02*
X165046466Y-106363535D01*
X164760001Y-106650001D02*
X165035000Y-106375000D01*
D24*
X166274999Y-107010001D02*
X165924999Y-106660001D01*
X164744118Y-105770001D02*
X164774117Y-105800000D01*
D23*
X164235001Y-106060883D02*
X164235001Y-106210001D01*
X164019999Y-105850001D02*
X164024117Y-105850000D01*
X157362964Y-106340000D02*
X157932964Y-105770001D01*
X125349999Y-109200000D02*
X127694117Y-109200001D01*
X164560000Y-106650000D02*
X164710000Y-106650000D01*
X165310000Y-106649999D02*
X165035000Y-106375000D01*
X128074118Y-108820000D02*
X132449118Y-108820000D01*
X165046466Y-106363535D02*
X165035000Y-106375000D01*
X143969117Y-106340000D02*
X157362964Y-106340000D01*
D24*
X164774117Y-105800000D02*
X164844827Y-105800000D01*
D23*
X164235001Y-106210001D02*
X164235000Y-105985000D01*
X132479117Y-108849999D02*
X141459117Y-108850000D01*
X165310000Y-106649999D02*
X165694828Y-106650001D01*
D24*
X164450000Y-105770000D02*
X164744118Y-105770001D01*
D23*
X165035000Y-106375000D02*
X165040001Y-106380000D01*
G04 #@! TO.N,/IO Banks/B.Q1*
D26*
X156480000Y-107970000D02*
X156610000Y-107840000D01*
X158148664Y-108115000D02*
X159569999Y-108115001D01*
X156610000Y-107840000D02*
X157873664Y-107840000D01*
X159569999Y-108115001D02*
X159875000Y-107810001D01*
X157873664Y-107840000D02*
X158148664Y-108115000D01*
G04 #@! TO.N,/IO Banks/B.Q2*
X160001335Y-107504999D02*
X160229999Y-107733664D01*
X154815000Y-107505000D02*
X160001335Y-107504999D01*
X160229999Y-107733664D02*
X160229999Y-108090000D01*
X154310000Y-108010000D02*
X154815000Y-107505000D01*
G04 #@! TO.N,/IO Banks/B.DIR2*
X153309999Y-108000000D02*
X153995000Y-107315001D01*
X153995000Y-107315001D02*
X160925000Y-107315001D01*
X160925000Y-107315001D02*
X161020000Y-107410000D01*
G04 #@! TO.N,/IO Banks/B.DIR5*
X156851336Y-108030000D02*
X157794964Y-108030001D01*
X156476337Y-108405000D02*
X156851336Y-108030000D01*
X157794964Y-108030001D02*
X158069964Y-108305000D01*
X159569999Y-108305000D02*
X159874999Y-108609999D01*
X148059999Y-109299999D02*
X148070000Y-109300000D01*
X150201482Y-108405000D02*
X156476337Y-108405000D01*
X149140000Y-108230000D02*
X150026483Y-108230000D01*
X158069964Y-108305000D02*
X159569999Y-108305000D01*
X148070000Y-109300000D02*
X149140000Y-108230000D01*
X150026483Y-108230000D02*
X150201482Y-108405000D01*
G04 #@! TO.N,/FPGA/RAM + LVDS/VIO_{AUX}*
D20*
X163075000Y-108610000D02*
X162275000Y-108610000D01*
G04 #@! TO.N,/IO Banks/B.Q5*
D26*
X149820000Y-108990000D02*
X149380000Y-108550000D01*
X156350000Y-108990000D02*
X149820000Y-108990000D01*
X157369999Y-108455000D02*
X157364999Y-108459999D01*
X149380000Y-108550000D02*
X149319999Y-108550001D01*
X156880000Y-108460000D02*
X156350000Y-108990000D01*
X157364999Y-108459999D02*
X156880000Y-108460000D01*
G04 #@! TO.N,+1V8*
D20*
X176274999Y-110210000D02*
X172300759Y-110210000D01*
X172300759Y-110210000D02*
X171960760Y-110550000D01*
X171960760Y-110550000D02*
X168990538Y-110550001D01*
D22*
X146680000Y-117250000D02*
X150849999Y-117250000D01*
D20*
X166274999Y-109410000D02*
X166274999Y-110210000D01*
D22*
X140499999Y-116700000D02*
X146130000Y-116700000D01*
X151099999Y-117000000D02*
X166199999Y-117000000D01*
X150849999Y-117250000D02*
X151099999Y-117000000D01*
D20*
X168990538Y-110550001D02*
X168860540Y-110680000D01*
X168860540Y-110680000D02*
X166745001Y-110680000D01*
X166745001Y-110680000D02*
X166274999Y-110210000D01*
D22*
X146130000Y-116700000D02*
X146680000Y-117250000D01*
G04 #@! TO.N,/FPGA/RAM + LVDS/Z13_P*
D26*
X151888152Y-110085000D02*
X152811846Y-110085001D01*
X145049098Y-109524748D02*
X145264351Y-109740001D01*
X145264351Y-109740001D02*
X149637150Y-109740001D01*
X149637150Y-109740001D02*
X150334189Y-110437040D01*
X152811846Y-110085001D02*
X153163886Y-110437040D01*
X151536112Y-110437040D02*
X151888152Y-110085000D01*
X153163886Y-110437040D02*
X157876422Y-110437040D01*
X150334189Y-110437040D02*
X151536112Y-110437040D01*
X145049098Y-109340900D02*
X145049098Y-109524748D01*
X158103462Y-110210000D02*
X159874999Y-110210000D01*
X157876422Y-110437040D02*
X158103462Y-110210000D01*
G04 #@! TO.N,/FPGA/RAM + LVDS/Z15_P*
X157834760Y-110210000D02*
X153205547Y-110210000D01*
X160674999Y-110210000D02*
X160370000Y-109905000D01*
X158139761Y-109905000D02*
X157834760Y-110210000D01*
X160370000Y-109905000D02*
X158139761Y-109905000D01*
X151494452Y-110210000D02*
X150375851Y-110210000D01*
X151809451Y-109895001D02*
X151494452Y-110210000D01*
X152890546Y-109895001D02*
X151809451Y-109895001D01*
X149005000Y-109455001D02*
X148949999Y-109400000D01*
X149620851Y-109455001D02*
X149005000Y-109455001D01*
X153205547Y-110210000D02*
X152890546Y-109895001D01*
X150375851Y-110210000D02*
X149620851Y-109455001D01*
G04 #@! TO.N,/FPGA/RAM + LVDS/Z15_N*
X153282267Y-110018020D02*
X152969247Y-109705000D01*
X157755240Y-110018020D02*
X153282267Y-110018020D01*
X152969247Y-109705000D02*
X151730751Y-109705000D01*
X158060239Y-109713020D02*
X157755240Y-110018020D01*
X160978019Y-109713020D02*
X158060239Y-109713020D01*
X151417731Y-110018020D02*
X150455372Y-110018020D01*
X161475001Y-110210000D02*
X160978019Y-109713020D01*
X149524020Y-109264020D02*
X149299099Y-109039099D01*
X150455372Y-110018020D02*
X149701373Y-109264020D01*
X151730751Y-109705000D02*
X151417731Y-110018020D01*
X149701373Y-109264020D02*
X149524020Y-109264020D01*
G04 #@! TO.N,/FPGA/RAM + LVDS/CLK0*
X179440000Y-109560000D02*
X172431336Y-109560000D01*
X172431336Y-109560000D02*
X171941335Y-110050001D01*
X171941335Y-110050001D02*
X171139999Y-110050001D01*
X179680000Y-109320000D02*
X179440000Y-109560000D01*
G04 #@! TO.N,/FPGA/RAM + LVDS/Z11_P*
X152575746Y-110655000D02*
X152930745Y-111010000D01*
X149989733Y-111000001D02*
X149990426Y-111000001D01*
X151769255Y-111010000D02*
X152124254Y-110655000D01*
X149186066Y-110556720D02*
X149353267Y-110723921D01*
X149002221Y-110556720D02*
X149186066Y-110556720D01*
X152124254Y-110655000D02*
X152575746Y-110655000D01*
X149713654Y-110723921D02*
X149989733Y-111000001D01*
X152930745Y-111010000D02*
X158275001Y-111010000D01*
X149353267Y-110723921D02*
X149713654Y-110723921D01*
X150000426Y-111010001D02*
X151769255Y-111010000D01*
X149990426Y-111000001D02*
X150000426Y-111010001D01*
G04 #@! TO.N,/FPGA/RAM + LVDS/Z11_N*
X158401336Y-110705000D02*
X158516337Y-110820000D01*
X158516337Y-110820000D02*
X158885000Y-110820000D01*
X151690552Y-110819999D02*
X152045555Y-110465000D01*
X149792760Y-110532940D02*
X150068840Y-110809020D01*
X158148664Y-110705001D02*
X158401336Y-110705000D01*
X150079127Y-110820000D02*
X151690552Y-110819999D01*
X152045555Y-110465000D02*
X152654446Y-110465001D01*
X150068840Y-110809713D02*
X150079127Y-110820000D01*
X158885000Y-110820000D02*
X159074999Y-111010001D01*
X150068840Y-110809020D02*
X150068840Y-110809713D01*
X152654446Y-110465001D02*
X153009446Y-110820000D01*
X149432374Y-110532941D02*
X149792760Y-110532940D01*
X149320418Y-110420985D02*
X149432374Y-110532941D01*
X158033664Y-110820000D02*
X158148664Y-110705001D01*
X149320419Y-110238522D02*
X149320418Y-110420985D01*
X153009446Y-110820000D02*
X158033664Y-110820000D01*
G04 #@! TO.N,/FPGA/RAM + LVDS/Z13_N*
X145185649Y-109930000D02*
X144914748Y-109659099D01*
X153087166Y-110629020D02*
X152733147Y-110275000D01*
X158069964Y-110515000D02*
X157955944Y-110629020D01*
X151612833Y-110629021D02*
X150257470Y-110629020D01*
X152733147Y-110275000D02*
X151966854Y-110275000D01*
X157955944Y-110629020D02*
X153087166Y-110629020D01*
X159380001Y-110515000D02*
X158069964Y-110515000D01*
X149558451Y-109930000D02*
X145185649Y-109930000D01*
X150257470Y-110629020D02*
X149558451Y-109930000D01*
X151966854Y-110275000D02*
X151612833Y-110629021D01*
X144914748Y-109659099D02*
X144730900Y-109659098D01*
X159875000Y-111010000D02*
X159380001Y-110515000D01*
G04 #@! TO.N,/FPGA/RAM + LVDS/Z9_P*
X145759099Y-111010000D02*
X145759099Y-111171950D01*
X158195649Y-111315000D02*
X159201337Y-111315000D01*
X153152046Y-111500000D02*
X158010649Y-111499999D01*
X159201337Y-111315000D02*
X159416337Y-111100000D01*
X151547954Y-111500000D02*
X152202954Y-110845000D01*
X152202954Y-110845000D02*
X152497046Y-110845001D01*
X159748663Y-111315000D02*
X160370000Y-111315000D01*
X145887149Y-111300000D02*
X148837164Y-111300001D01*
X158010649Y-111499999D02*
X158195649Y-111315000D01*
X149223242Y-110913922D02*
X149634955Y-110913921D01*
X159533663Y-111100000D02*
X159748663Y-111315000D01*
X150221034Y-111500000D02*
X151547954Y-111500000D01*
X152497046Y-110845001D02*
X153152046Y-111500000D01*
X148837164Y-111300001D02*
X149223242Y-110913922D01*
X145759099Y-111171950D02*
X145887149Y-111300000D01*
X149634955Y-110913921D02*
X150221034Y-111500000D01*
X160370000Y-111315000D02*
X160674999Y-111010001D01*
X159416337Y-111100000D02*
X159533663Y-111100000D01*
G04 #@! TO.N,/FPGA/RAM + LVDS/Z7_P*
X161665000Y-112085000D02*
X161779999Y-111970000D01*
X149110902Y-111729099D02*
X149294748Y-111729099D01*
X149635648Y-112070000D02*
X152600650Y-112070000D01*
X161447806Y-112305001D02*
X161664999Y-112087807D01*
X161779999Y-111315000D02*
X161475000Y-111010000D01*
X152600650Y-112070000D02*
X152835649Y-112305002D01*
X149294748Y-111729099D02*
X149635648Y-112070000D01*
X161779999Y-111970000D02*
X161779999Y-111315000D01*
X152835649Y-112305002D02*
X161447806Y-112305001D01*
X161664999Y-112087807D02*
X161665000Y-112085000D01*
G04 #@! TO.N,Net-(U8H-PB15B)*
X143743664Y-121005001D02*
X149863663Y-121004999D01*
X125107501Y-122622500D02*
X127455001Y-120275000D01*
X125110001Y-123580000D02*
X125107501Y-123577500D01*
X149863663Y-121004999D02*
X150573664Y-120295000D01*
X125107501Y-123577500D02*
X125107501Y-122622500D01*
X151005000Y-120473664D02*
X156955000Y-120473665D01*
X156955000Y-120473665D02*
X157506337Y-121025001D01*
X150826336Y-120295000D02*
X151005000Y-120473664D01*
X143013664Y-120275001D02*
X143743664Y-121005001D01*
X162734999Y-121024999D02*
X163469999Y-120289999D01*
X157506337Y-121025001D02*
X162734999Y-121024999D01*
X150573664Y-120295000D02*
X150826336Y-120295000D01*
X127455001Y-120275000D02*
X143013664Y-120275001D01*
G04 #@! TO.N,Net-(U74-DIR)*
X145390000Y-120070000D02*
X145789999Y-119669999D01*
X123600000Y-120070001D02*
X145390000Y-120070000D01*
G04 #@! TO.N,/FPGA/TDO*
X173051334Y-116800000D02*
X171866335Y-117984999D01*
X194703664Y-116855000D02*
X194648664Y-116800000D01*
X199550000Y-115930000D02*
X198625000Y-116855000D01*
X167389999Y-117849999D02*
X166199999Y-117849999D01*
X194648664Y-116800000D02*
X173051334Y-116800000D01*
X171866335Y-117984999D02*
X169134964Y-117985000D01*
X167969999Y-118429999D02*
X167389999Y-117849999D01*
X198625000Y-116855000D02*
X194703664Y-116855000D01*
X169134964Y-117985000D02*
X168689964Y-118430000D01*
X168689964Y-118430000D02*
X167969999Y-118429999D01*
G04 #@! TO.N,/FPGA/RAM + LVDS/CK1*
X171239999Y-111525001D02*
X170934999Y-111220001D01*
X174080000Y-111525000D02*
X171239999Y-111525001D01*
X174184999Y-111419999D02*
X174080000Y-111525000D01*
G04 #@! TO.N,/FPGA/RAM + LVDS/Z9_N*
X159282836Y-111505000D02*
X159426417Y-111361419D01*
X158275170Y-111506981D02*
X158480856Y-111506981D01*
X145440000Y-111360000D02*
X145678449Y-111360000D01*
X158092150Y-111690000D02*
X158275170Y-111506981D01*
X148918663Y-111489999D02*
X149302762Y-111105900D01*
X159426417Y-111361419D02*
X159874999Y-111810001D01*
X145678449Y-111360000D02*
X145808448Y-111489999D01*
X158480856Y-111506981D02*
X158482835Y-111505001D01*
X145808448Y-111489999D02*
X148918663Y-111489999D01*
X158482835Y-111505001D02*
X159282836Y-111505000D01*
X149302762Y-111105900D02*
X149555435Y-111105901D01*
X150139533Y-111690000D02*
X158092150Y-111690000D01*
X149555435Y-111105901D02*
X150139533Y-111690000D01*
G04 #@! TO.N,/FPGA/RAM + LVDS/Z7_N*
X152679351Y-111880000D02*
X152914350Y-112115001D01*
X152914350Y-112115001D02*
X161369105Y-112115001D01*
X149429099Y-111594748D02*
X149714351Y-111880001D01*
X161475001Y-112009106D02*
X161475000Y-111810001D01*
X149714351Y-111880001D02*
X152679351Y-111880000D01*
X149429100Y-111410901D02*
X149429099Y-111594748D01*
X161369105Y-112115001D02*
X161475001Y-112009106D01*
G04 #@! TO.N,CFG0*
X165780000Y-111505001D02*
X165474999Y-111810001D01*
X170535000Y-111505001D02*
X165780000Y-111505001D01*
X174311337Y-111725000D02*
X170755000Y-111725001D01*
X174826337Y-111210000D02*
X174311337Y-111725000D01*
X191380001Y-109100000D02*
X190450000Y-109100000D01*
X188340000Y-111210000D02*
X174826337Y-111210000D01*
X170755000Y-111725001D02*
X170535000Y-111505001D01*
X190450000Y-109100000D02*
X188340000Y-111210000D01*
G04 #@! TO.N,/FPGA/RAM + LVDS/Z5_N*
X161112435Y-112610001D02*
X161037434Y-112534999D01*
X161475000Y-112610000D02*
X161112435Y-112610001D01*
X149437987Y-112523217D02*
X149437987Y-112362935D01*
X160312559Y-112534999D02*
X149449768Y-112534999D01*
X161037434Y-112534999D02*
X160312561Y-112535001D01*
X149449768Y-112534999D02*
X149437987Y-112523217D01*
X160312561Y-112535001D02*
X160312559Y-112534999D01*
G04 #@! TO.N,/FPGA/RAM + LVDS/Z5_P*
X160316262Y-112800000D02*
X149422504Y-112800000D01*
X161148736Y-112914999D02*
X160958734Y-112724998D01*
X149303636Y-112681132D02*
X149119788Y-112681134D01*
X160958734Y-112724998D02*
X160391262Y-112725002D01*
X160391262Y-112725002D02*
X160316262Y-112800000D01*
X161970000Y-112915001D02*
X161148736Y-112914999D01*
X149422504Y-112800000D02*
X149303636Y-112681132D01*
X162275000Y-112610001D02*
X161970000Y-112915001D01*
G04 #@! TO.N,/FPGA_DONE*
X134131336Y-108050001D02*
X134690667Y-107490669D01*
X134690667Y-107490669D02*
X138622004Y-107490668D01*
X138622004Y-107490668D02*
X138936336Y-107805000D01*
X121100000Y-108050001D02*
X121150000Y-108100001D01*
X132181335Y-108050001D02*
X134131336Y-108050001D01*
X141995000Y-107805000D02*
X143654999Y-106145001D01*
X131898836Y-108332500D02*
X132181335Y-108050001D01*
X123813835Y-108332500D02*
X131898836Y-108332500D01*
X138936336Y-107805000D02*
X141995000Y-107805000D01*
X121150000Y-108100001D02*
X123581337Y-108100000D01*
X123581337Y-108100000D02*
X123813835Y-108332500D01*
G04 #@! TO.N,/FPGA/RAM + LVDS/CS#1*
X166675001Y-112210000D02*
X176764999Y-112210000D01*
X166274999Y-112610001D02*
X166675001Y-112210000D01*
G04 #@! TO.N,/FPGA/RAM + LVDS/Z3_P*
X148040000Y-113000000D02*
X148395001Y-113355000D01*
X147999999Y-113000001D02*
X148040000Y-113000000D01*
X156244350Y-113714999D02*
X158770001Y-113714999D01*
X148395001Y-113355000D02*
X155884350Y-113355000D01*
X155884350Y-113355000D02*
X156244350Y-113714999D01*
X158770001Y-113714999D02*
X159075000Y-113410000D01*
G04 #@! TO.N,/FPGA/RAM + LVDS/Z1_P*
X160180001Y-113900000D02*
X160669999Y-113410002D01*
X147150000Y-114300000D02*
X147500000Y-114300000D01*
X147500000Y-114300000D02*
X147910000Y-114710000D01*
X159548737Y-114894999D02*
X159928737Y-114515001D01*
X160180001Y-114336336D02*
X160180001Y-113900000D01*
X156972600Y-114710000D02*
X157157600Y-114895000D01*
X147000000Y-114450000D02*
X147150000Y-114300000D01*
X157157600Y-114895000D02*
X159548737Y-114894999D01*
X159928737Y-114515001D02*
X160001337Y-114515000D01*
X160001337Y-114515000D02*
X160180001Y-114336336D01*
X147910000Y-114710000D02*
X156972600Y-114710000D01*
X160669999Y-113410002D02*
X160674999Y-113409999D01*
G04 #@! TO.N,/D6*
X158120000Y-98520000D02*
X157900000Y-98300000D01*
X160960000Y-98520001D02*
X158120000Y-98520000D01*
G04 #@! TO.N,/FPGA_~{RESET}*
X205710000Y-114440000D02*
X206440000Y-113710000D01*
X191206337Y-114915001D02*
X191446336Y-115155000D01*
X157225199Y-115500001D02*
X156820198Y-115095000D01*
X164100000Y-115500001D02*
X157225199Y-115500001D01*
X134630000Y-119020000D02*
X139050000Y-114600000D01*
X164105000Y-115505001D02*
X167304999Y-115505001D01*
X198690000Y-114440000D02*
X205710000Y-114440000D01*
X191446336Y-115155000D02*
X197975000Y-115155000D01*
X197975000Y-115155000D02*
X198690000Y-114440000D01*
X154504999Y-115095000D02*
X154299999Y-115300000D01*
X156820198Y-115095000D02*
X154504999Y-115095000D01*
X139050000Y-114600000D02*
X145400000Y-114600000D01*
X190701336Y-115110001D02*
X190896337Y-114915001D01*
X167700001Y-115110000D02*
X190701336Y-115110001D01*
X154299999Y-115300000D02*
X154100000Y-115100001D01*
X190896337Y-114915001D02*
X191206337Y-114915001D01*
X145900000Y-115100000D02*
X145400000Y-114600000D01*
X164100000Y-115500001D02*
X164105000Y-115505001D01*
X167304999Y-115505001D02*
X167700001Y-115110000D01*
X154100000Y-115100001D02*
X145900000Y-115100000D01*
G04 #@! TO.N,CFG2*
X172263664Y-110735000D02*
X172083664Y-110915000D01*
X165169999Y-111630000D02*
X165169999Y-113105000D01*
X165169999Y-113105000D02*
X165475000Y-113410001D01*
X191030000Y-108795001D02*
X190454999Y-108795001D01*
X165484999Y-111315000D02*
X165169999Y-111630000D01*
X170408663Y-111315000D02*
X165484999Y-111315000D01*
X188515000Y-110735000D02*
X172263664Y-110735000D01*
X170808663Y-110914999D02*
X170408663Y-111315000D01*
X172083664Y-110915000D02*
X170808663Y-110914999D01*
X190454999Y-108795001D02*
X188515000Y-110735000D01*
G04 #@! TO.N,/FPGA/TDI*
X173830000Y-117180000D02*
X171630000Y-119380000D01*
X199909999Y-115090000D02*
X200690000Y-115870001D01*
X200690000Y-116640000D02*
X199595000Y-117735000D01*
X199595000Y-117735000D02*
X195046263Y-117735000D01*
X171630000Y-119380000D02*
X168361336Y-119380000D01*
X194491263Y-117180000D02*
X173830000Y-117180000D01*
X168361336Y-119380000D02*
X167366337Y-118385001D01*
X195046263Y-117735000D02*
X194491263Y-117180000D01*
X167014999Y-118385000D02*
X166850000Y-118550000D01*
X167366337Y-118385001D02*
X167014999Y-118385000D01*
X200690000Y-115870001D02*
X200690000Y-116640000D01*
G04 #@! TO.N,/FPGA/RAM + LVDS/DQS1*
X174565001Y-112720000D02*
X175954999Y-112720000D01*
X174205000Y-113080000D02*
X174565001Y-112720000D01*
X167405001Y-113080000D02*
X174205000Y-113080000D01*
X167075000Y-113410001D02*
X167405001Y-113080000D01*
G04 #@! TO.N,/FPGA/RAM + LVDS/Z3_N*
X147694999Y-113126336D02*
X147873663Y-113305000D01*
X147873663Y-113305000D02*
X147874999Y-113305000D01*
X147694999Y-112855001D02*
X147694999Y-113126336D01*
X148070000Y-112550000D02*
X147999999Y-112550001D01*
X158770001Y-113905001D02*
X159075001Y-114210000D01*
X156165651Y-113905001D02*
X158770001Y-113905001D01*
X148115000Y-113545000D02*
X155805649Y-113545000D01*
X155805649Y-113545000D02*
X156165651Y-113905001D01*
X147999999Y-112550001D02*
X147694999Y-112855001D01*
X147874999Y-113305000D02*
X148115000Y-113545000D01*
G04 #@! TO.N,/FPGA/RAM + LVDS/Z1_N*
X147578699Y-114110000D02*
X147160000Y-114110000D01*
X159470036Y-114705001D02*
X157236300Y-114705000D01*
X147988700Y-114520000D02*
X147578699Y-114110000D01*
X159874999Y-114300038D02*
X159470036Y-114705001D01*
X147160000Y-114110000D02*
X147000000Y-113950001D01*
X159874999Y-114210000D02*
X159874999Y-114300038D01*
X157051301Y-114520000D02*
X147988700Y-114520000D01*
X157236300Y-114705000D02*
X157051301Y-114520000D01*
G04 #@! TO.N,/D0*
X167280000Y-101420000D02*
X167099999Y-101600000D01*
X167099999Y-101600000D02*
X158453664Y-101600000D01*
X158453664Y-101600000D02*
X157613664Y-102440000D01*
X157613664Y-102440000D02*
X152559999Y-102439999D01*
X152559999Y-102439999D02*
X151890000Y-103109999D01*
G04 #@! TO.N,/FPGA_INITn*
X170726336Y-114190000D02*
X170401336Y-114515000D01*
X170401336Y-114515000D02*
X164980001Y-114515000D01*
X174559999Y-114190000D02*
X170726336Y-114190000D01*
X190570001Y-114810000D02*
X188167462Y-114810000D01*
X188167462Y-114810000D02*
X187902462Y-114545000D01*
X187902462Y-114545000D02*
X174914999Y-114545001D01*
X174914999Y-114545001D02*
X174559999Y-114190000D01*
X164980001Y-114515000D02*
X164675001Y-114210000D01*
G04 #@! TO.N,/FPGA/TCK*
X173130037Y-116990000D02*
X171945037Y-118175000D01*
X199075001Y-117045000D02*
X194624964Y-117045000D01*
X169213664Y-118175000D02*
X168768663Y-118620000D01*
X165590000Y-118195000D02*
X165475000Y-118080000D01*
X167870035Y-118620000D02*
X167445036Y-118195001D01*
X171945037Y-118175000D02*
X169213664Y-118175000D01*
X167445036Y-118195001D02*
X165590000Y-118195000D01*
X194624964Y-117045000D02*
X194569963Y-116990000D01*
X199880000Y-116240001D02*
X199075001Y-117045000D01*
X194569963Y-116990000D02*
X173130037Y-116990000D01*
X168768663Y-118620000D02*
X167870035Y-118620000D01*
G04 #@! TO.N,/FPGA/TMS*
X174486215Y-119722501D02*
X167322500Y-119722500D01*
X202980000Y-117390001D02*
X201470001Y-118900000D01*
X167322500Y-119722500D02*
X166150001Y-118550000D01*
X190140000Y-118470000D02*
X186070000Y-118470000D01*
X186070000Y-118470000D02*
X185185000Y-119355000D01*
X174853714Y-119355000D02*
X174486215Y-119722501D01*
X185185000Y-119355000D02*
X174853714Y-119355000D01*
X201470001Y-118900000D02*
X190570001Y-118900000D01*
X190570001Y-118900000D02*
X190140000Y-118470000D01*
G04 #@! TO.N,Net-(Q1-G)*
X145761336Y-112430000D02*
X145726336Y-112395000D01*
X162151300Y-113100000D02*
X162053701Y-113100000D01*
X143123664Y-111495000D02*
X142373665Y-112245000D01*
X160469962Y-112914999D02*
X160394961Y-112990001D01*
X189120001Y-113600000D02*
X187661163Y-113600000D01*
X148814789Y-112494790D02*
X148565000Y-112245001D01*
X147943663Y-112245001D02*
X147758665Y-112430000D01*
X187661163Y-113600000D02*
X187443663Y-113817500D01*
X129405001Y-114505001D02*
X129350000Y-114450000D01*
X160880036Y-112915001D02*
X160469962Y-112914999D01*
X148814789Y-112807468D02*
X148814789Y-112494790D01*
X145726336Y-112395000D02*
X144314999Y-112395001D01*
X162766300Y-113715000D02*
X162151300Y-113100000D01*
X142373665Y-112245000D02*
X138884326Y-112245000D01*
X148997323Y-112990001D02*
X148814789Y-112807468D01*
X143414999Y-111495002D02*
X143123664Y-111495000D01*
X138884326Y-112245000D02*
X136519326Y-114610000D01*
X131026336Y-114505001D02*
X129405001Y-114505001D01*
X164333700Y-113715000D02*
X162766300Y-113715000D01*
X148565000Y-112245001D02*
X147943663Y-112245001D01*
X136519326Y-114610000D02*
X131131335Y-114610000D01*
X160394961Y-112990001D02*
X148997323Y-112990001D01*
X161070035Y-113104999D02*
X160880036Y-112915001D01*
X144314999Y-112395001D02*
X143414999Y-111495002D01*
X162053701Y-113100000D02*
X162048699Y-113104999D01*
X187443663Y-113817500D02*
X164436201Y-113817500D01*
X131131335Y-114610000D02*
X131026336Y-114505001D01*
X164436201Y-113817500D02*
X164333700Y-113715000D01*
X147758665Y-112430000D02*
X145761336Y-112430000D01*
X162048699Y-113104999D02*
X161070035Y-113104999D01*
G04 #@! TO.N,VDDA*
D21*
X196630000Y-102590000D02*
X196770000Y-102590000D01*
X196630000Y-102530001D02*
X196315000Y-102215000D01*
X198630000Y-102010001D02*
X198970000Y-102350000D01*
X196630000Y-102590000D02*
X196630000Y-102530001D01*
X198970000Y-102350000D02*
X198970001Y-102670001D01*
X191085001Y-102215000D02*
X191000000Y-102300001D01*
X196770000Y-102590000D02*
X197350000Y-102010001D01*
X197350000Y-102010001D02*
X198630000Y-102010001D01*
X189650000Y-118780000D02*
X189430000Y-119000000D01*
X187837502Y-119000000D02*
X187830001Y-118992499D01*
X196315000Y-102215000D02*
X191085001Y-102215000D01*
X189430000Y-119000000D02*
X187837502Y-119000000D01*
G04 #@! TO.N,/ADC/A1_P*
D26*
X165834999Y-95044999D02*
X173265662Y-95045001D01*
X165590000Y-94800000D02*
X165834999Y-95044999D01*
X173418162Y-94892501D02*
X173682980Y-94892501D01*
X174537021Y-94892500D02*
X199992500Y-94892500D01*
X199992500Y-94892500D02*
X200500001Y-95400000D01*
X174402022Y-94757500D02*
X174537021Y-94892500D01*
X173817980Y-94757500D02*
X174402022Y-94757500D01*
X173265662Y-95045001D02*
X173418162Y-94892501D01*
X173682980Y-94892501D02*
X173817980Y-94757500D01*
G04 #@! TO.N,/ADC/A1_N*
X173739277Y-94567499D02*
X173604279Y-94702500D01*
X167100001Y-94000000D02*
X164600001Y-94000000D01*
X167435000Y-94335000D02*
X167100001Y-94000000D01*
X200500000Y-94800000D02*
X200334350Y-94965651D01*
X170313836Y-94702500D02*
X169946335Y-94335001D01*
X173604279Y-94702500D02*
X170313836Y-94702500D01*
X174480720Y-94567501D02*
X173739277Y-94567499D01*
X169946335Y-94335001D02*
X167435000Y-94335000D01*
X200071199Y-94702500D02*
X174615721Y-94702500D01*
X200334350Y-94965651D02*
X200071199Y-94702500D01*
X174615721Y-94702500D02*
X174480720Y-94567501D01*
G04 #@! TO.N,/ADC/A2_P*
X169190000Y-124990000D02*
X169100000Y-124990000D01*
X169095000Y-124995000D02*
X133636336Y-124995001D01*
X132731337Y-125900001D02*
X130800000Y-125900001D01*
X195289999Y-125480000D02*
X189600001Y-125480000D01*
X169100000Y-124990000D02*
X169095000Y-124995000D01*
X188000000Y-125300001D02*
X169500000Y-125300000D01*
X169500000Y-125300000D02*
X169190000Y-124990000D01*
X133636336Y-124995001D02*
X132731337Y-125900001D01*
X205190001Y-125990000D02*
X195799999Y-125990000D01*
X189400000Y-125280000D02*
X188020000Y-125280002D01*
X195799999Y-125990000D02*
X195289999Y-125480000D01*
X189600001Y-125480000D02*
X189400000Y-125280000D01*
X205400000Y-126200000D02*
X205190001Y-125990000D01*
X188020000Y-125280002D02*
X188000000Y-125300001D01*
G04 #@! TO.N,/ADC/A2_N*
X164231336Y-124800000D02*
X169288665Y-124800000D01*
X169288665Y-124800000D02*
X169578665Y-125090001D01*
X205290000Y-125090000D02*
X206000000Y-125800000D01*
X169578665Y-125090001D02*
X205290000Y-125090000D01*
X164226336Y-124805000D02*
X164231336Y-124800000D01*
X132799999Y-125400000D02*
X133394999Y-124805001D01*
X133394999Y-124805001D02*
X164226336Y-124805000D01*
G04 #@! TO.N,/ADC/A4_P*
X164200000Y-123900001D02*
X164100001Y-124000000D01*
X169233664Y-124455000D02*
X169088664Y-124600000D01*
X206500000Y-125300000D02*
X206100001Y-124900000D01*
X169088664Y-124600000D02*
X167053260Y-124600000D01*
X170054999Y-124455000D02*
X169233664Y-124455000D01*
X206100001Y-124900000D02*
X170499999Y-124900000D01*
X170499999Y-124900000D02*
X170054999Y-124455000D01*
X167053260Y-124600000D02*
X166353260Y-123900000D01*
X166353260Y-123900000D02*
X164200000Y-123900001D01*
G04 #@! TO.N,/ADC/A4_N*
X201400000Y-132810000D02*
X197244999Y-132810001D01*
X170170000Y-133650000D02*
X169720000Y-133200000D01*
X181235000Y-133170000D02*
X175880001Y-133170000D01*
X182279999Y-132125000D02*
X181235000Y-133170000D01*
X193885001Y-132125000D02*
X182279999Y-132125000D01*
X194567500Y-132807500D02*
X193885001Y-132125000D01*
X175400000Y-133650000D02*
X170170000Y-133650000D01*
X197244999Y-132810001D02*
X197242499Y-132807500D01*
X175880001Y-133170000D02*
X175400000Y-133650000D01*
X197242499Y-132807500D02*
X194567500Y-132807500D01*
G04 #@! TO.N,/ADC/INTB*
X197813665Y-103335001D02*
X198105000Y-103335000D01*
X192580000Y-103070000D02*
X197548664Y-103070000D01*
X198105000Y-103335000D02*
X198390000Y-103050000D01*
X197548664Y-103070000D02*
X197813665Y-103335001D01*
G04 #@! TO.N,/ADC/SYNC*
X188670000Y-105760001D02*
X188670000Y-105310001D01*
X190259999Y-107350000D02*
X188670000Y-105760001D01*
X191680000Y-107350000D02*
X190259999Y-107350000D01*
G04 #@! TO.N,/ENVC*
D27*
X147570001Y-87000000D02*
X148675001Y-85895000D01*
X151360000Y-86560002D02*
X160049999Y-86560001D01*
X161205000Y-85405000D02*
X164954999Y-85405001D01*
X173959999Y-85309999D02*
X174459999Y-85810000D01*
X165050001Y-85310000D02*
X173959999Y-85309999D01*
X187477451Y-85619999D02*
X188017451Y-85619999D01*
X150695000Y-85895000D02*
X151360000Y-86560002D01*
X181768664Y-85810000D02*
X182028664Y-85550001D01*
X148675001Y-85895000D02*
X150695000Y-85895000D01*
X160049999Y-86560001D02*
X161205000Y-85405000D01*
X188467450Y-85169999D02*
X200590001Y-85170000D01*
X164954999Y-85405001D02*
X165050001Y-85310000D01*
X200590001Y-85170000D02*
X201570000Y-86150000D01*
X186039999Y-85469999D02*
X187327451Y-85469999D01*
X182028664Y-85550001D02*
X185959999Y-85549999D01*
X185959999Y-85549999D02*
X186039999Y-85469999D01*
X141400000Y-87000000D02*
X147570001Y-87000000D01*
X188017451Y-85619999D02*
X188467450Y-85169999D01*
X187327451Y-85469999D02*
X187477451Y-85619999D01*
X174459999Y-85810000D02*
X181768664Y-85810000D01*
G04 #@! TO.N,/ENVB*
D26*
X144535001Y-130364999D02*
X144599999Y-130299999D01*
X137125000Y-130364999D02*
X144535001Y-130364999D01*
X136690000Y-129930000D02*
X137125000Y-130364999D01*
G04 #@! TO.N,LS_3V3*
D21*
X159920000Y-94990401D02*
X159920000Y-95002552D01*
X183705000Y-95187501D02*
X186334999Y-95187501D01*
D24*
X128870000Y-120630000D02*
X128770000Y-120730001D01*
D21*
X183319999Y-95572500D02*
X183705000Y-95187501D01*
D24*
X134069999Y-121190001D02*
X136929999Y-121190000D01*
X133510000Y-120630000D02*
X134069999Y-121190001D01*
D21*
X174425184Y-95162500D02*
X176110000Y-95162500D01*
D24*
X165660172Y-121320001D02*
X165890171Y-121090001D01*
D21*
X169441192Y-95315000D02*
X170030994Y-95904800D01*
D24*
X182810001Y-121200000D02*
X183807501Y-121200000D01*
X174080000Y-120740000D02*
X174080000Y-120727500D01*
X194270000Y-121320000D02*
X191289999Y-121320001D01*
D21*
X187105000Y-95187501D02*
X189557500Y-95187500D01*
X179357499Y-95187500D02*
X179900000Y-95730000D01*
X193905000Y-95187500D02*
X196535000Y-95187501D01*
D24*
X187210000Y-121050000D02*
X184602500Y-121050000D01*
X137050000Y-121310000D02*
X137442500Y-121310000D01*
D21*
X153942400Y-94888800D02*
X156418400Y-94888800D01*
X190485000Y-95345000D02*
X193292500Y-95345002D01*
X150009501Y-94888800D02*
X149907901Y-94990400D01*
D24*
X157107500Y-121320000D02*
X165660172Y-121320001D01*
X147290000Y-121310000D02*
X144202499Y-121309999D01*
X154070000Y-121310000D02*
X157097499Y-121309999D01*
D21*
X136264000Y-94990400D02*
X139519999Y-94990399D01*
D24*
X147290000Y-121310000D02*
X149990000Y-121310001D01*
D21*
X193519999Y-95572500D02*
X193905000Y-95187500D01*
X176904999Y-95187501D02*
X179357499Y-95187500D01*
D24*
X177479999Y-120569999D02*
X176950000Y-121100000D01*
X151410000Y-121310000D02*
X154070000Y-121310000D01*
D21*
X159890600Y-95019800D02*
X158964526Y-95019800D01*
X170030994Y-95904800D02*
X172787700Y-95904800D01*
D24*
X157097499Y-121309999D02*
X157107500Y-121320000D01*
X177479999Y-120569999D02*
X178047500Y-121137500D01*
X174440000Y-121100000D02*
X174080000Y-120740000D01*
D21*
X190100000Y-95730000D02*
X190485000Y-95345000D01*
D24*
X150700000Y-120600000D02*
X151410000Y-121310000D01*
X143407501Y-121200000D02*
X143527499Y-121319999D01*
X194430000Y-121160000D02*
X194270000Y-121320000D01*
D21*
X172787700Y-95904800D02*
X173121250Y-95571250D01*
D24*
X190017501Y-120610000D02*
X188359999Y-120610000D01*
D21*
X180284999Y-95344999D02*
X183092500Y-95345000D01*
X174290184Y-95027500D02*
X174425184Y-95162500D01*
X173121250Y-95571250D02*
X173530001Y-95162500D01*
X186334999Y-95187501D02*
X186719999Y-95572500D01*
X193292500Y-95345002D02*
X193519999Y-95572500D01*
D24*
X180880000Y-121320000D02*
X182690000Y-121320001D01*
D21*
X158935126Y-94990399D02*
X156520000Y-94990400D01*
X159920000Y-95002552D02*
X160232448Y-95315000D01*
D24*
X178047500Y-121137500D02*
X180470000Y-121137501D01*
X180652501Y-121320001D02*
X180880000Y-121320000D01*
X183807501Y-121200000D02*
X184280001Y-120727500D01*
X133510000Y-120630000D02*
X128870000Y-120630000D01*
X191289999Y-121320001D02*
X191159999Y-121190001D01*
X143527499Y-121319999D02*
X143880000Y-121320000D01*
X188359999Y-120610000D02*
X187650000Y-120610000D01*
D21*
X156418400Y-94888800D02*
X156520000Y-94990400D01*
D24*
X144202499Y-121309999D02*
X144192499Y-121319999D01*
D21*
X160232448Y-95315000D02*
X169441192Y-95315000D01*
X153942400Y-94888800D02*
X150009501Y-94888800D01*
D24*
X137552499Y-121200000D02*
X139860000Y-121200000D01*
D21*
X149720000Y-94990400D02*
X146319999Y-94990399D01*
D24*
X140480000Y-120580000D02*
X141100000Y-121200000D01*
D21*
X149907901Y-94990400D02*
X149720000Y-94990400D01*
X186719999Y-95572500D02*
X187105000Y-95187501D01*
D24*
X182690000Y-121320001D02*
X182810001Y-121200000D01*
X144192499Y-121319999D02*
X143880000Y-121320000D01*
D21*
X196535000Y-95187501D02*
X196919999Y-95572500D01*
D24*
X137442500Y-121310000D02*
X137552499Y-121200000D01*
D21*
X176519999Y-95572500D02*
X176904999Y-95187501D01*
D24*
X187650000Y-120610000D02*
X187210000Y-121050000D01*
X191030000Y-121320000D02*
X190727500Y-121320000D01*
D21*
X179900000Y-95730000D02*
X180284999Y-95344999D01*
X143883999Y-94990399D02*
X139519999Y-94990399D01*
D24*
X176950000Y-121100000D02*
X174440000Y-121100000D01*
X136929999Y-121190000D02*
X137050000Y-121310000D01*
X149990000Y-121310001D02*
X150700000Y-120600000D01*
D21*
X158964526Y-95019800D02*
X158935126Y-94990399D01*
D24*
X191159999Y-121190001D02*
X191030000Y-121320000D01*
X184602500Y-121050000D02*
X184280001Y-120727500D01*
D21*
X189557500Y-95187500D02*
X190100000Y-95730000D01*
D24*
X171272499Y-120727500D02*
X174080000Y-120727500D01*
D21*
X176110000Y-95162500D02*
X176519999Y-95572500D01*
X159920000Y-94990401D02*
X159890600Y-95019800D01*
D24*
X139860000Y-121200000D02*
X140480000Y-120580000D01*
X180470000Y-121137501D02*
X180652501Y-121320001D01*
D21*
X173929816Y-95027501D02*
X174290184Y-95027500D01*
X143883999Y-94990399D02*
X146319999Y-94990399D01*
X183092500Y-95345000D02*
X183319999Y-95572500D01*
D24*
X170910000Y-121090000D02*
X171272499Y-120727500D01*
D21*
X173794817Y-95162501D02*
X173929816Y-95027501D01*
D24*
X165890171Y-121090001D02*
X170910000Y-121090000D01*
X141100000Y-121200000D02*
X143407501Y-121200000D01*
X190727500Y-121320000D02*
X190017501Y-120610000D01*
D21*
X173530001Y-95162500D02*
X173794817Y-95162501D01*
G04 #@! TO.N,/LED_CY*
D26*
X131802954Y-106805000D02*
X125144999Y-106805001D01*
X132647045Y-107354999D02*
X132352955Y-107355000D01*
X133197046Y-106805000D02*
X132647045Y-107354999D01*
X140004264Y-106994264D02*
X139815000Y-106805000D01*
X139815000Y-106805000D02*
X133197046Y-106805000D01*
X125144999Y-106805001D02*
X125050000Y-106710001D01*
X132352955Y-107355000D02*
X131802954Y-106805000D01*
X125050000Y-106710001D02*
X125050001Y-106450000D01*
G04 #@! TO.N,/IO Banks/Bank B/V_{IO_OUT}*
D24*
X158690000Y-132210001D02*
X158200001Y-132700000D01*
X160099999Y-132209999D02*
X158690000Y-132210001D01*
G04 #@! TO.N,/USB_P*
D26*
X134762587Y-97826128D02*
X134548715Y-98040000D01*
X134548715Y-98040000D02*
X126960000Y-98040000D01*
X134831754Y-97826128D02*
X134762587Y-97826128D01*
G04 #@! TO.N,/IO Banks/Bank C/V_{IO_OUT}*
D24*
X171910000Y-84090001D02*
X170500000Y-84090000D01*
X172670000Y-83550001D02*
X172450000Y-83550000D01*
X172450000Y-83550000D02*
X171910000Y-84090001D01*
G04 #@! TO.N,/ENVD*
D26*
X160815598Y-131270001D02*
X166401299Y-131270001D01*
X160249401Y-131205000D02*
X160750598Y-131205001D01*
X137404999Y-131605000D02*
X159849401Y-131605000D01*
X159849401Y-131605000D02*
X160249401Y-131205000D01*
X136700000Y-130900001D02*
X137404999Y-131605000D01*
X181210000Y-131790001D02*
X181300000Y-131700001D01*
X166401299Y-131270001D02*
X166921299Y-131790001D01*
X160750598Y-131205001D02*
X160815598Y-131270001D01*
X166921299Y-131790001D02*
X181210000Y-131790001D01*
G04 #@! TO.N,/USB_N*
X134831754Y-97276128D02*
X134407882Y-97700000D01*
X134407882Y-97700000D02*
X127300000Y-97700000D01*
X127300000Y-97700000D02*
X127240901Y-97640901D01*
G04 #@! TO.N,/ADC/STM32_NRST*
X197438663Y-113399999D02*
X198590001Y-113400000D01*
X189690000Y-113590001D02*
X189821336Y-113590000D01*
X196508662Y-114330000D02*
X197438663Y-113399999D01*
X190561336Y-114330000D02*
X196508662Y-114330000D01*
X198590001Y-113400000D02*
X198990000Y-113800000D01*
X189821336Y-113590000D02*
X190561336Y-114330000D01*
G04 #@! TO.N,/IO Banks/Bank D/V_{IO_OUT}*
D24*
X195685000Y-132210000D02*
X197099999Y-132209999D01*
X195392499Y-132502501D02*
X195685000Y-132210000D01*
G04 #@! TO.N,/IO Banks/V_{SET_B}*
D27*
X147170000Y-117660000D02*
X158387451Y-117660000D01*
X182791274Y-116561275D02*
X183220000Y-116132549D01*
X169748724Y-116561275D02*
X182791274Y-116561275D01*
X169050000Y-117260001D02*
X169748724Y-116561275D01*
X167580001Y-117529999D02*
X167850000Y-117260000D01*
X167850000Y-117260000D02*
X169050000Y-117260001D01*
X183220000Y-116132549D02*
X183220000Y-116130000D01*
X158387451Y-117660000D02*
X158517452Y-117529999D01*
X158517452Y-117529999D02*
X167580001Y-117529999D01*
X146920000Y-117910000D02*
X147170000Y-117660000D01*
G04 #@! TO.N,/IO Banks/V_{SET_A}*
X149207451Y-115970000D02*
X149347451Y-115830000D01*
X168067452Y-116580000D02*
X168447451Y-116200000D01*
X168447451Y-116200000D02*
X182700000Y-116200000D01*
X149347451Y-115830000D02*
X149977450Y-115830000D01*
X149977450Y-115830000D02*
X150737451Y-116590000D01*
X150737451Y-116590000D02*
X167687451Y-116590000D01*
X146109999Y-115970000D02*
X149207451Y-115970000D01*
X167687451Y-116590000D02*
X167697451Y-116580000D01*
X167697451Y-116580000D02*
X168067452Y-116580000D01*
G04 #@! TO.N,/IO Banks/Bank A/V_{CLAMP}*
D23*
X148969999Y-89200000D02*
X151990001Y-89200000D01*
X152180000Y-89010001D02*
X152369999Y-89200000D01*
X152369999Y-89200000D02*
X155390001Y-89200000D01*
X141790000Y-89200000D02*
X141980000Y-89010000D01*
X155579999Y-89010001D02*
X155769999Y-89200000D01*
X138769999Y-89200000D02*
X141790000Y-89200000D01*
X148590000Y-89200000D02*
X148780000Y-89010001D01*
X155390001Y-89200000D02*
X155579999Y-89010001D01*
X151990001Y-89200000D02*
X152180000Y-89010001D01*
X141980000Y-89010000D02*
X142169999Y-89200000D01*
X138580000Y-89010000D02*
X138769999Y-89200000D01*
X148780000Y-89010001D02*
X148969999Y-89200000D01*
X142169999Y-89200000D02*
X145190000Y-89200000D01*
X158790001Y-89200000D02*
X158979999Y-89010001D01*
X145569999Y-89200000D02*
X148590000Y-89200000D01*
X145190000Y-89200000D02*
X145380000Y-89010001D01*
X135370001Y-89200000D02*
X138390000Y-89200000D01*
X138390000Y-89200000D02*
X138580000Y-89010000D01*
X155769999Y-89200000D02*
X158790001Y-89200000D01*
X135180000Y-89010000D02*
X135370001Y-89200000D01*
X145380000Y-89010001D02*
X145569999Y-89200000D01*
G04 #@! TO.N,/IO Banks/Bank B/V_{IO}*
X137380000Y-126490000D02*
X137170000Y-126700000D01*
X147820000Y-126700001D02*
X147580000Y-126460000D01*
X154300000Y-126700001D02*
X151220000Y-126700001D01*
X150740000Y-126700000D02*
X147820000Y-126700001D01*
X137170000Y-126700000D02*
X133900000Y-126699999D01*
X140990000Y-126700000D02*
X140770000Y-126480000D01*
X140500000Y-126750000D02*
X137640000Y-126750000D01*
X157719999Y-126700001D02*
X154399999Y-126699999D01*
X147280000Y-126760000D02*
X144480000Y-126760000D01*
X147580000Y-126460000D02*
X147280000Y-126760000D01*
X154399999Y-126699999D02*
X154350001Y-126650000D01*
X144169999Y-126450000D02*
X143920000Y-126700000D01*
X143920000Y-126700000D02*
X140990000Y-126700000D01*
X133900000Y-126699999D02*
X133670000Y-126470000D01*
X150980000Y-126460000D02*
X150740000Y-126700000D01*
X157770000Y-126650000D02*
X157719999Y-126700001D01*
X154350001Y-126650000D02*
X154300000Y-126700001D01*
X140770000Y-126480000D02*
X140500000Y-126750000D01*
X137640000Y-126750000D02*
X137380000Y-126490000D01*
X151220000Y-126700001D02*
X150980000Y-126460000D01*
X144480000Y-126760000D02*
X144169999Y-126450000D01*
G04 #@! TO.N,/IO Banks/A.P1*
D26*
X137045000Y-87545000D02*
X135899999Y-88690000D01*
X161870001Y-86860000D02*
X161869999Y-87111336D01*
X135899999Y-88690000D02*
X135899999Y-88699999D01*
X161869999Y-87111336D02*
X161436336Y-87545000D01*
X161436336Y-87545000D02*
X137045000Y-87545000D01*
G04 #@! TO.N,/IO Banks/A.P5*
X161317501Y-88305000D02*
X149945000Y-88305000D01*
X162100001Y-89087500D02*
X161317501Y-88305000D01*
X149945000Y-88305000D02*
X149500001Y-88750000D01*
X162100001Y-89420000D02*
X162100001Y-89087500D01*
G04 #@! TO.N,/IO Banks/Bank C/V_{IO}*
D23*
X176249999Y-89650000D02*
X176299999Y-89599999D01*
X186680000Y-89600001D02*
X189610000Y-89600000D01*
X183020000Y-89840000D02*
X183320000Y-89540000D01*
X172830000Y-89650000D02*
X172880000Y-89600000D01*
X182780000Y-89600000D02*
X183020000Y-89840000D01*
X189610000Y-89600000D02*
X189830000Y-89820000D01*
X193220000Y-89810000D02*
X193430000Y-89600000D01*
X196700000Y-89600001D02*
X196930000Y-89830001D01*
X189830000Y-89820000D02*
X190100000Y-89550000D01*
X186120000Y-89540000D02*
X186430001Y-89850000D01*
X176200000Y-89600001D02*
X176249999Y-89650000D01*
X179860000Y-89600000D02*
X182780000Y-89600000D01*
X190100000Y-89550000D02*
X192960000Y-89550001D01*
X176299999Y-89599999D02*
X179380000Y-89600000D01*
X172880000Y-89600000D02*
X176200000Y-89600001D01*
X186430001Y-89850000D02*
X186680000Y-89600001D01*
X179380000Y-89600000D02*
X179620000Y-89840000D01*
X193430000Y-89600000D02*
X196700000Y-89600001D01*
X179620000Y-89840000D02*
X179860000Y-89600000D01*
X183320000Y-89540000D02*
X186120000Y-89540000D01*
X192960000Y-89550001D02*
X193220000Y-89810000D01*
G04 #@! TO.N,+5V5*
D20*
X146200000Y-133120000D02*
X146749999Y-133120001D01*
D22*
X185431960Y-84260000D02*
X184299999Y-84260000D01*
D20*
X194150001Y-133160000D02*
X194130000Y-133140000D01*
X184400000Y-133140000D02*
X183730000Y-132470000D01*
X167200000Y-133490000D02*
X168180000Y-134470000D01*
X183140000Y-133060000D02*
X183730000Y-132470000D01*
X167009999Y-133679999D02*
X160790000Y-133680000D01*
X194200000Y-133210000D02*
X197319999Y-133210000D01*
D26*
X164120000Y-126240000D02*
X165640000Y-126240000D01*
D20*
X158979461Y-134130001D02*
X160320001Y-134130000D01*
D22*
X171290000Y-82841249D02*
X170991250Y-83140000D01*
D20*
X194150001Y-133160000D02*
X194200000Y-133210000D01*
D26*
X163860001Y-125980000D02*
X164120000Y-126240000D01*
D20*
X160320001Y-134130000D02*
X160780001Y-133670000D01*
X167200000Y-133490000D02*
X167009999Y-133679999D01*
X141690000Y-133060000D02*
X146140000Y-133060000D01*
X194130000Y-133140000D02*
X184400000Y-133140000D01*
D25*
X190500000Y-82500000D02*
X190300000Y-82300001D01*
D20*
X140759999Y-133989999D02*
X141690000Y-133060000D01*
X181310000Y-133689999D02*
X181939999Y-133060001D01*
X176569999Y-134470000D02*
X177079999Y-133960000D01*
X146140000Y-133060000D02*
X146200000Y-133120000D01*
D22*
X170991250Y-83140000D02*
X170329999Y-83140001D01*
D20*
X147260000Y-133120000D02*
X147320000Y-133060000D01*
D25*
X193900000Y-82500000D02*
X190500000Y-82500000D01*
D22*
X180720000Y-82841249D02*
X171290000Y-82841249D01*
D20*
X146749999Y-133120001D02*
X147260000Y-133120000D01*
X181939999Y-133060001D02*
X183140000Y-133060000D01*
D22*
X187391960Y-82300001D02*
X185431960Y-84260000D01*
D20*
X168180000Y-134470000D02*
X176569999Y-134470000D01*
D22*
X184299999Y-84260000D02*
X183870000Y-83830000D01*
X181708750Y-83830000D02*
X180720000Y-82841249D01*
X190300000Y-82300001D02*
X187391960Y-82300001D01*
D20*
X157909460Y-133060001D02*
X158979461Y-134130001D01*
D22*
X183870000Y-83830000D02*
X181708750Y-83830000D01*
D20*
X177079999Y-133960000D02*
X177350000Y-133689999D01*
X160790000Y-133680000D02*
X160780001Y-133670000D01*
X177350000Y-133689999D02*
X181310000Y-133689999D01*
X197319999Y-133210000D02*
X197780001Y-133670000D01*
X140070000Y-133990001D02*
X140759999Y-133989999D01*
X147320000Y-133060000D02*
X157909460Y-133060001D01*
D22*
X170329999Y-83140001D02*
X169819999Y-82630001D01*
G04 #@! TO.N,/IO Banks/A.P4*
D26*
X146664999Y-88114999D02*
X145999999Y-88779999D01*
X162060000Y-88770000D02*
X161404999Y-88114999D01*
X162860000Y-88770000D02*
X162060000Y-88770000D01*
X145999999Y-88779999D02*
X145999999Y-88799999D01*
X161404999Y-88114999D02*
X146664999Y-88114999D01*
G04 #@! TO.N,/IO Banks/Bank D/V_{CLAMP}*
D23*
X192210000Y-127100000D02*
X192020000Y-127290000D01*
X175020000Y-127290000D02*
X174830000Y-127100000D01*
X188809999Y-127100000D02*
X188619999Y-127289999D01*
X195420000Y-127290000D02*
X195230000Y-127100000D01*
X178519999Y-127010001D02*
X181305736Y-127010001D01*
X174830000Y-127100000D02*
X171809999Y-127100000D01*
X185409999Y-127100000D02*
X185219999Y-127289999D01*
X185219999Y-127289999D02*
X185030001Y-127100000D01*
X192020000Y-127290000D02*
X191830000Y-127100000D01*
X181585737Y-127290001D02*
X181820000Y-127290000D01*
X181305736Y-127010001D02*
X181585737Y-127290001D01*
X191830000Y-127100000D02*
X188809999Y-127100000D01*
X185030001Y-127100000D02*
X182009999Y-127100000D01*
X175199999Y-127110000D02*
X175020000Y-127290000D01*
X182009999Y-127100000D02*
X181820000Y-127290000D01*
X178420000Y-127110000D02*
X178519999Y-127010001D01*
X178420000Y-127110000D02*
X175199999Y-127110000D01*
X188430001Y-127100000D02*
X185409999Y-127100000D01*
X171809999Y-127100000D02*
X171620001Y-127290000D01*
X195230000Y-127100000D02*
X192210000Y-127100000D01*
X188619999Y-127289999D02*
X188430001Y-127100000D01*
G04 #@! TO.N,/IO Banks/Bank D/V_{IO}*
X191400000Y-126700000D02*
X191349999Y-126650000D01*
X194277600Y-126537201D02*
X194114800Y-126700001D01*
D24*
X197909999Y-132220001D02*
X197979999Y-132219999D01*
D23*
X174640001Y-126750000D02*
X174380000Y-126490001D01*
D24*
X196678214Y-131480000D02*
X197169999Y-131480001D01*
D23*
X177990000Y-126700000D02*
X177770000Y-126480000D01*
X177499999Y-126749999D02*
X174640001Y-126750000D01*
X184820001Y-126700001D02*
X184579999Y-126459999D01*
X177770000Y-126480000D02*
X177499999Y-126749999D01*
X184579999Y-126459999D02*
X184279999Y-126759999D01*
X194114800Y-126700001D02*
X191400000Y-126700000D01*
X188220000Y-126700001D02*
X187980000Y-126460000D01*
X191349999Y-126650000D02*
X191300000Y-126700000D01*
X187740000Y-126700000D02*
X184820001Y-126700001D01*
X171130000Y-126700001D02*
X174170000Y-126700000D01*
X174170000Y-126700000D02*
X174380000Y-126490001D01*
X180920000Y-126700000D02*
X177990000Y-126700000D01*
X191300000Y-126700000D02*
X188220000Y-126700001D01*
X184279999Y-126759999D02*
X181479999Y-126759999D01*
X181169999Y-126450000D02*
X180920000Y-126700000D01*
D24*
X197499999Y-131810001D02*
X197909999Y-132220001D01*
D23*
X187980000Y-126460000D02*
X187740000Y-126700000D01*
D24*
X197169999Y-131480001D02*
X197499999Y-131810001D01*
D23*
X181479999Y-126759999D02*
X181169999Y-126450000D01*
D24*
X196198213Y-131000001D02*
X196678214Y-131480000D01*
G04 #@! TO.N,/IO Banks/Bank A/V_{IO}*
D23*
X159390000Y-90220000D02*
X158769999Y-89599999D01*
X158769999Y-89599999D02*
X156430000Y-89600000D01*
X149679999Y-89600001D02*
X152610000Y-89600001D01*
X139200000Y-89600001D02*
X139249999Y-89650000D01*
X142380000Y-89599999D02*
X142620000Y-89840000D01*
X152610000Y-89600001D02*
X152830000Y-89820001D01*
X135880000Y-89600000D02*
X139200000Y-89600001D01*
X139249999Y-89650000D02*
X139299999Y-89599999D01*
X146320000Y-89540000D02*
X149120000Y-89540000D01*
X145779999Y-89599999D02*
X146020000Y-89840000D01*
X142860000Y-89600000D02*
X145779999Y-89599999D01*
X142620000Y-89840000D02*
X142860000Y-89600000D01*
X139299999Y-89599999D02*
X142380000Y-89599999D01*
X146020000Y-89840000D02*
X146320000Y-89540000D01*
X153100001Y-89550001D02*
X155959999Y-89550001D01*
X156430000Y-89600000D02*
X156220000Y-89810000D01*
X152830000Y-89820001D02*
X153100001Y-89550001D01*
X155959999Y-89550001D02*
X156220000Y-89810000D01*
X149120000Y-89540000D02*
X149430000Y-89850000D01*
X135829999Y-89650000D02*
X135880000Y-89600000D01*
X149430000Y-89850000D02*
X149679999Y-89600001D01*
G04 #@! TO.N,/IO Banks/B.P5*
D26*
X144614999Y-128475001D02*
X144099999Y-127960001D01*
X161850000Y-129470000D02*
X160855001Y-128475000D01*
X161900000Y-129470000D02*
X161850000Y-129470000D01*
X160855001Y-128475000D02*
X144614999Y-128475001D01*
X144099999Y-127960001D02*
X144099999Y-127550000D01*
G04 #@! TO.N,/LED_ERR*
X137890000Y-105960001D02*
X128147537Y-105960000D01*
X128147537Y-105960000D02*
X128092536Y-105905001D01*
X138769999Y-105390001D02*
X138460000Y-105390001D01*
X125755001Y-105905000D02*
X125550000Y-105700000D01*
X138460000Y-105390001D02*
X137890000Y-105960001D01*
X125550000Y-105300001D02*
X125600001Y-105250001D01*
X128092536Y-105905001D02*
X125755001Y-105905000D01*
X125550000Y-105700000D02*
X125550000Y-105300001D01*
G04 #@! TO.N,/IO Banks/B.P3*
X161042399Y-128094999D02*
X161117399Y-128169999D01*
X161117399Y-128169999D02*
X161870000Y-128170001D01*
X151264999Y-127915000D02*
X151445000Y-128095001D01*
X161870000Y-128170001D02*
X161880000Y-128180001D01*
X151445000Y-128095001D02*
X161042399Y-128094999D01*
G04 #@! TO.N,/LED_ACT*
X127656164Y-106200000D02*
X125499999Y-106199999D01*
X127761164Y-106095000D02*
X127656164Y-106200000D01*
X139310001Y-105550001D02*
X138710001Y-106150000D01*
X128013835Y-106095000D02*
X127761164Y-106095000D01*
X138710001Y-106150000D02*
X128068836Y-106150000D01*
X128068836Y-106150000D02*
X128013835Y-106095000D01*
G04 #@! TO.N,/IO Banks/Bank C/V_{CLAMP}*
D23*
X189369999Y-89200000D02*
X192390000Y-89200000D01*
X185969999Y-89200000D02*
X188990000Y-89200000D01*
X172179999Y-89009999D02*
X172370000Y-89200000D01*
X175770000Y-89200000D02*
X178790000Y-89200000D01*
X175579999Y-89009999D02*
X175770000Y-89200000D01*
X178980000Y-89010000D02*
X179170001Y-89200000D01*
X178790000Y-89200000D02*
X178980000Y-89010000D01*
X182569999Y-89200000D02*
X185589999Y-89200000D01*
X182190000Y-89200000D02*
X182380000Y-89010000D01*
X182380000Y-89010000D02*
X182569999Y-89200000D01*
X185780000Y-89010000D02*
X185969999Y-89200000D01*
X192580000Y-89010001D02*
X192769999Y-89200000D01*
X179170001Y-89200000D02*
X182190000Y-89200000D01*
X189180000Y-89010001D02*
X189369999Y-89200000D01*
X185589999Y-89200000D02*
X185780000Y-89010000D01*
X195790001Y-89200000D02*
X195980000Y-89010001D01*
X192769999Y-89200000D02*
X195790001Y-89200000D01*
X192390000Y-89200000D02*
X192580000Y-89010001D01*
X172370000Y-89200000D02*
X175389999Y-89200000D01*
X188990000Y-89200000D02*
X189180000Y-89010001D01*
X175389999Y-89200000D02*
X175579999Y-89009999D01*
G04 #@! TO.N,/IO Banks/D.P3*
D26*
X187925000Y-127585001D02*
X187925000Y-127575001D01*
X167599999Y-128160001D02*
X167599999Y-128170001D01*
X187134999Y-128375001D02*
X187925000Y-127585001D01*
X167599999Y-128170001D02*
X167805000Y-128375001D01*
X167805000Y-128375001D02*
X187134999Y-128375001D01*
G04 #@! TO.N,/IO Banks/B.P1*
X157705000Y-127605000D02*
X157700000Y-127600000D01*
X161165000Y-127605000D02*
X157705000Y-127605000D01*
X161894999Y-126875000D02*
X161165000Y-127605000D01*
X161919999Y-126875000D02*
X161894999Y-126875000D01*
G04 #@! TO.N,/IO Banks/Bank B/V_{CLAMP}*
D23*
X141609999Y-127100000D02*
X141420000Y-127289999D01*
X148410000Y-127100000D02*
X148220000Y-127290000D01*
X144630001Y-127100000D02*
X141609999Y-127100000D01*
X155209999Y-127100000D02*
X155020000Y-127290000D01*
X134809999Y-127100000D02*
X134620000Y-127290000D01*
X151810000Y-127100000D02*
X151620000Y-127290000D01*
X158420001Y-127290001D02*
X158230001Y-127100000D01*
X138020000Y-127290000D02*
X137830000Y-127100000D01*
X148030000Y-127100000D02*
X145009999Y-127100000D01*
X151430000Y-127100000D02*
X148410000Y-127100000D01*
X155020000Y-127290000D02*
X154830000Y-127100000D01*
X138209999Y-127100000D02*
X138020000Y-127290000D01*
X137830000Y-127100000D02*
X134809999Y-127100000D01*
X141230001Y-127100000D02*
X138209999Y-127100000D01*
X145009999Y-127100000D02*
X144819999Y-127289999D01*
X144819999Y-127289999D02*
X144630001Y-127100000D01*
X151620000Y-127290000D02*
X151430000Y-127100000D01*
X154830000Y-127100000D02*
X151810000Y-127100000D01*
X148220000Y-127290000D02*
X148030000Y-127100000D01*
X158230001Y-127100000D02*
X155209999Y-127100000D01*
X141420000Y-127289999D02*
X141230001Y-127100000D01*
G04 #@! TO.N,/IO Banks/D.P6*
D26*
X169742500Y-127805000D02*
X168710000Y-126772500D01*
X177699999Y-127520001D02*
X177699999Y-127600000D01*
X168710000Y-126772500D02*
X168709999Y-126220000D01*
X177495000Y-127805000D02*
X169742500Y-127805000D01*
X177699999Y-127600000D02*
X177495000Y-127805000D01*
G04 #@! TO.N,/IO Banks/A.P0*
X161044999Y-86734999D02*
X161620000Y-86160000D01*
X161044999Y-87076335D02*
X161044999Y-86734999D01*
X160766335Y-87355000D02*
X161044999Y-87076335D01*
X132509999Y-88990000D02*
X134144999Y-87355000D01*
X132509999Y-88999999D02*
X132509999Y-88990000D01*
X161620000Y-86160000D02*
X162970000Y-86160000D01*
X134144999Y-87355000D02*
X160766335Y-87355000D01*
G04 #@! TO.N,/IO Banks/A.P3*
X162110001Y-88130000D02*
X161905000Y-87925000D01*
X161905000Y-87925000D02*
X143465000Y-87925000D01*
X142675000Y-88714999D02*
X142675000Y-88724999D01*
X143465000Y-87925000D02*
X142675000Y-88714999D01*
G04 #@! TO.N,/IO Banks/D.P5*
X181060000Y-127380000D02*
X181060000Y-127590000D01*
X169663800Y-127995000D02*
X168543800Y-126875000D01*
X180654999Y-127995000D02*
X169663800Y-127995000D01*
X181060000Y-127590000D02*
X180654999Y-127995000D01*
X168543800Y-126875000D02*
X167610000Y-126875000D01*
G04 #@! TO.N,FLASH_~{HOLD}*
X167940000Y-97310000D02*
X168641335Y-97310000D01*
X169420000Y-98100000D02*
X189199999Y-98100000D01*
X168905000Y-97573664D02*
X168905000Y-97585000D01*
X189199999Y-98100000D02*
X189400000Y-98300000D01*
X168641335Y-97310000D02*
X168905000Y-97573664D01*
X168905000Y-97585000D02*
X169420000Y-98100000D01*
G04 #@! TO.N,/MCU_~{RST}*
X146733664Y-115615000D02*
X145985000Y-115615000D01*
X174196336Y-115405001D02*
X167673700Y-115405000D01*
X166783700Y-116295000D02*
X158553664Y-116294999D01*
X151479999Y-115580001D02*
X147977537Y-115580001D01*
X147977537Y-115580001D02*
X147802538Y-115755000D01*
X179830000Y-115480001D02*
X179820000Y-115490001D01*
X158553664Y-116294999D02*
X158195001Y-115936336D01*
X147802538Y-115755000D02*
X146873663Y-115755000D01*
X167673700Y-115405000D02*
X166783700Y-116295000D01*
X158195001Y-115936336D02*
X151836335Y-115936336D01*
X145985000Y-115615000D02*
X145794999Y-115805001D01*
X145794999Y-115805001D02*
X145373664Y-115805000D01*
X179820000Y-115490001D02*
X174281335Y-115490001D01*
X145373664Y-115805000D02*
X144958664Y-115390000D01*
X151836335Y-115936336D02*
X151479999Y-115580001D01*
X174281335Y-115490001D02*
X174196336Y-115405001D01*
X144958664Y-115390000D02*
X140290000Y-115390000D01*
X146873663Y-115755000D02*
X146733664Y-115615000D01*
G04 #@! TO.N,/IO Banks/A.P7*
X156300000Y-88700000D02*
X156300000Y-88800000D01*
X162100000Y-90560000D02*
X160239999Y-88699999D01*
X160239999Y-88699999D02*
X156300000Y-88700000D01*
X162100000Y-90710000D02*
X162100000Y-90560000D01*
G04 #@! TO.N,/IO Banks/A.P6*
X152824254Y-88775746D02*
X152824254Y-88824254D01*
X153105000Y-88495000D02*
X152824254Y-88775746D01*
X160325000Y-88495000D02*
X153105000Y-88495000D01*
X161905000Y-90075000D02*
X160325000Y-88495000D01*
X162800000Y-90075000D02*
X161905000Y-90075000D01*
G04 #@! TO.N,/IO Banks/A.P2*
X140155000Y-87735000D02*
X139250000Y-88640000D01*
X162879999Y-87470001D02*
X162615001Y-87735000D01*
X162615001Y-87735000D02*
X140155000Y-87735000D01*
X139250000Y-88640000D02*
X139250000Y-88650000D01*
G04 #@! TO.N,/IO Banks/C.P7*
X170559999Y-87050001D02*
X170560000Y-87260000D01*
X171400001Y-88100000D02*
X193269999Y-88100000D01*
X170560000Y-87260000D02*
X171400001Y-88100000D01*
G04 #@! TO.N,/IO Banks/C.P6*
X188950000Y-88290000D02*
X189484254Y-88824254D01*
X170690000Y-88290000D02*
X188950000Y-88290000D01*
X169420000Y-87020000D02*
X170690000Y-88290000D01*
X189484254Y-88824254D02*
X189824255Y-88824254D01*
G04 #@! TO.N,/IO Banks/B.P7*
X161879999Y-130217501D02*
X160517499Y-128855001D01*
X138654999Y-128855001D02*
X137299999Y-127500001D01*
X161880001Y-130770001D02*
X161879999Y-130217501D01*
X160517499Y-128855001D02*
X138654999Y-128855001D01*
G04 #@! TO.N,/IO Banks/D.P7*
X169405000Y-125773665D02*
X169405001Y-125996336D01*
X174300000Y-127600000D02*
X174300000Y-127500001D01*
X171008664Y-127600000D02*
X174300000Y-127600000D01*
X169201336Y-125570001D02*
X169405000Y-125773665D01*
X169405001Y-125996336D02*
X171008664Y-127600000D01*
X167609999Y-125569999D02*
X169201336Y-125570001D01*
G04 #@! TO.N,/IO Banks/D.P4*
X168710000Y-127525000D02*
X168714999Y-127525001D01*
X168714999Y-127525001D02*
X169374999Y-128185001D01*
X169374999Y-128185001D02*
X183935001Y-128185001D01*
X184600000Y-127520001D02*
X184600000Y-127500000D01*
X183935001Y-128185001D02*
X184600000Y-127520001D01*
G04 #@! TO.N,/IO Banks/D.P2*
X168934999Y-128565000D02*
X190445000Y-128565000D01*
X168690000Y-128810000D02*
X168934999Y-128565000D01*
X191350000Y-127660000D02*
X191349999Y-127649999D01*
X190445000Y-128565000D02*
X191350000Y-127660000D01*
G04 #@! TO.N,/IO Banks/D.P1*
X169263800Y-128755000D02*
X168558799Y-129460000D01*
X194700001Y-127580001D02*
X194700001Y-127610000D01*
X194710000Y-127570001D02*
X194700001Y-127580001D01*
X193554999Y-128755001D02*
X169263800Y-128755000D01*
X168558799Y-129460000D02*
X167620001Y-129460000D01*
X194700001Y-127610000D02*
X193554999Y-128755001D01*
G04 #@! TO.N,/IO Banks/D.P0*
X169342499Y-128945000D02*
X196455001Y-128945000D01*
X168720000Y-130110000D02*
X168719999Y-129567500D01*
X196455001Y-128945000D02*
X198100000Y-127300001D01*
X168719999Y-129567500D02*
X169342499Y-128945000D01*
G04 #@! TO.N,/IO Banks/B.P6*
X163000000Y-130120000D02*
X162051200Y-130120000D01*
X141964999Y-128664999D02*
X140775745Y-127475746D01*
X160596199Y-128664999D02*
X141964999Y-128664999D01*
X162051200Y-130120000D02*
X160596199Y-128664999D01*
G04 #@! TO.N,/IO Banks/B.P4*
X161498700Y-128820001D02*
X160963699Y-128285000D01*
X160963699Y-128285000D02*
X148384999Y-128285000D01*
X162990001Y-128820000D02*
X161498700Y-128820001D01*
X148384999Y-128285000D02*
X147600000Y-127500001D01*
G04 #@! TO.N,/IO Banks/B.P2*
X162980000Y-127510001D02*
X161528699Y-127510001D01*
X154605000Y-127905000D02*
X154350000Y-127650000D01*
X161528699Y-127510001D02*
X161133701Y-127905000D01*
X161133701Y-127905000D02*
X154605000Y-127905000D01*
G04 #@! TO.N,/NAFE_CLK_{OUT}*
X191424999Y-113854999D02*
X191245000Y-113675000D01*
X194490000Y-113790000D02*
X194425001Y-113854999D01*
X194425001Y-113854999D02*
X191424999Y-113854999D01*
G04 #@! TD*
G04 #@! TA.AperFunction,Conductor*
G04 #@! TO.N,-15V*
G36*
X206243039Y-98619685D02*
G01*
X206288794Y-98672489D01*
X206300000Y-98724000D01*
X206300000Y-112078784D01*
X206283388Y-112140783D01*
X206260659Y-112180150D01*
X206260659Y-112180151D01*
X206239499Y-112259121D01*
X206239499Y-112340877D01*
X206260659Y-112419847D01*
X206283387Y-112459214D01*
X206300000Y-112521213D01*
X206300000Y-112845500D01*
X206280315Y-112912539D01*
X206227511Y-112958294D01*
X206176000Y-112969500D01*
X206091701Y-112969500D01*
X206091699Y-112969500D01*
X206091697Y-112969501D01*
X205995960Y-113009155D01*
X205901572Y-113103543D01*
X205901571Y-113103542D01*
X205776399Y-113228715D01*
X205141935Y-113863181D01*
X205080612Y-113896666D01*
X205054254Y-113899500D01*
X202883645Y-113899500D01*
X202816606Y-113879815D01*
X202770851Y-113827011D01*
X202762158Y-113769005D01*
X202760500Y-113769005D01*
X202760500Y-113679124D01*
X202760500Y-113679122D01*
X202739340Y-113600152D01*
X202711271Y-113551535D01*
X202698464Y-113529352D01*
X202698460Y-113529347D01*
X202640652Y-113471539D01*
X202640647Y-113471535D01*
X202569850Y-113430661D01*
X202569849Y-113430660D01*
X202569848Y-113430660D01*
X202490878Y-113409500D01*
X202409122Y-113409500D01*
X202330152Y-113430660D01*
X202330150Y-113430661D01*
X202330149Y-113430661D01*
X202259352Y-113471535D01*
X202259347Y-113471539D01*
X202201539Y-113529347D01*
X202201535Y-113529352D01*
X202160661Y-113600149D01*
X202160661Y-113600150D01*
X202160660Y-113600152D01*
X202139500Y-113679122D01*
X202139500Y-113679124D01*
X202139500Y-113769005D01*
X202137783Y-113769005D01*
X202128528Y-113828351D01*
X202082147Y-113880607D01*
X202016355Y-113899500D01*
X199424500Y-113899500D01*
X199357461Y-113879815D01*
X199311706Y-113827011D01*
X199300500Y-113775500D01*
X199300500Y-113759124D01*
X199300500Y-113759123D01*
X199300500Y-113759122D01*
X199279340Y-113680152D01*
X199250891Y-113630877D01*
X199238464Y-113609352D01*
X199238463Y-113609350D01*
X199238462Y-113609349D01*
X199180651Y-113551538D01*
X199180650Y-113551537D01*
X199180647Y-113551535D01*
X199109850Y-113510661D01*
X199109849Y-113510660D01*
X199109848Y-113510660D01*
X199030878Y-113489500D01*
X199030876Y-113489500D01*
X199021483Y-113489500D01*
X198954444Y-113469815D01*
X198933802Y-113453181D01*
X198830471Y-113349850D01*
X198706408Y-113225786D01*
X198706407Y-113225785D01*
X198706406Y-113225784D01*
X198684285Y-113216621D01*
X198662163Y-113207458D01*
X198630878Y-113194500D01*
X198630875Y-113194499D01*
X197479540Y-113194499D01*
X197397786Y-113194499D01*
X197397785Y-113194499D01*
X197384827Y-113199866D01*
X197366501Y-113207457D01*
X197350156Y-113214227D01*
X197322257Y-113225783D01*
X197322256Y-113225785D01*
X196459860Y-114088181D01*
X196398537Y-114121666D01*
X196372179Y-114124500D01*
X194870185Y-114124500D01*
X194803146Y-114104815D01*
X194757391Y-114052011D01*
X194747447Y-113982853D01*
X194762798Y-113938500D01*
X194774581Y-113918090D01*
X194779340Y-113909848D01*
X194800500Y-113830878D01*
X194800500Y-113749122D01*
X194779340Y-113670152D01*
X194744236Y-113609350D01*
X194738464Y-113599352D01*
X194738460Y-113599347D01*
X194735544Y-113596431D01*
X194733870Y-113593365D01*
X194733516Y-113592904D01*
X194733587Y-113592848D01*
X194702059Y-113535108D01*
X194707043Y-113465416D01*
X194731454Y-113427432D01*
X194731016Y-113427096D01*
X194735044Y-113421846D01*
X194735544Y-113421069D01*
X194735962Y-113420651D01*
X194776840Y-113349848D01*
X194798000Y-113270878D01*
X194798000Y-113189122D01*
X194776840Y-113110152D01*
X194776837Y-113110147D01*
X194776319Y-113108895D01*
X194776195Y-113107750D01*
X194774736Y-113102302D01*
X194775585Y-113102074D01*
X194768847Y-113039426D01*
X194800120Y-112976945D01*
X194860208Y-112941291D01*
X194922969Y-112941662D01*
X194946623Y-112948001D01*
X194946626Y-112948001D01*
X195028376Y-112948001D01*
X195028379Y-112948001D01*
X195107349Y-112926841D01*
X195178152Y-112885963D01*
X195235963Y-112828152D01*
X195276841Y-112757349D01*
X195298001Y-112678379D01*
X195298001Y-112596623D01*
X195298001Y-112596622D01*
X195677000Y-112596622D01*
X195677000Y-112678378D01*
X195698160Y-112757348D01*
X195698161Y-112757349D01*
X195698161Y-112757350D01*
X195739035Y-112828147D01*
X195739036Y-112828148D01*
X195739038Y-112828151D01*
X195796849Y-112885962D01*
X195796850Y-112885963D01*
X195796852Y-112885964D01*
X195832250Y-112906401D01*
X195867652Y-112926840D01*
X195946622Y-112948000D01*
X195946624Y-112948000D01*
X196028375Y-112948000D01*
X196028378Y-112948000D01*
X196107348Y-112926840D01*
X196178151Y-112885962D01*
X196235962Y-112828151D01*
X196256362Y-112792817D01*
X196306927Y-112744601D01*
X196375534Y-112731377D01*
X196440399Y-112757344D01*
X196471136Y-112792815D01*
X196491537Y-112828150D01*
X196549348Y-112885961D01*
X196549349Y-112885962D01*
X196549351Y-112885963D01*
X196568454Y-112896992D01*
X196620151Y-112926839D01*
X196699121Y-112947999D01*
X196699123Y-112947999D01*
X196780874Y-112947999D01*
X196780877Y-112947999D01*
X196859847Y-112926839D01*
X196930650Y-112885961D01*
X196988461Y-112828150D01*
X197029339Y-112757347D01*
X197050499Y-112678377D01*
X197050499Y-112596622D01*
X197677000Y-112596622D01*
X197677000Y-112678378D01*
X197698160Y-112757348D01*
X197698161Y-112757349D01*
X197698161Y-112757350D01*
X197739035Y-112828147D01*
X197739036Y-112828148D01*
X197739038Y-112828151D01*
X197796849Y-112885962D01*
X197796850Y-112885963D01*
X197796852Y-112885964D01*
X197832250Y-112906401D01*
X197867652Y-112926840D01*
X197946622Y-112948000D01*
X198028378Y-112948000D01*
X198107348Y-112926840D01*
X198178151Y-112885962D01*
X198235962Y-112828151D01*
X198276840Y-112757348D01*
X198298000Y-112678378D01*
X198298000Y-112596622D01*
X198669500Y-112596622D01*
X198669500Y-112678378D01*
X198690660Y-112757348D01*
X198690661Y-112757349D01*
X198690661Y-112757350D01*
X198731535Y-112828147D01*
X198731536Y-112828148D01*
X198731538Y-112828151D01*
X198789349Y-112885962D01*
X198789350Y-112885963D01*
X198789352Y-112885964D01*
X198824750Y-112906401D01*
X198860152Y-112926840D01*
X198939122Y-112948000D01*
X198939124Y-112948000D01*
X199020875Y-112948000D01*
X199020878Y-112948000D01*
X199099848Y-112926840D01*
X199170651Y-112885962D01*
X199228462Y-112828151D01*
X199269340Y-112757348D01*
X199274989Y-112736264D01*
X205139499Y-112736264D01*
X205139499Y-112818020D01*
X205160659Y-112896990D01*
X205160660Y-112896991D01*
X205160660Y-112896992D01*
X205201534Y-112967789D01*
X205201536Y-112967792D01*
X205201537Y-112967793D01*
X205259348Y-113025604D01*
X205259349Y-113025605D01*
X205259351Y-113025606D01*
X205294749Y-113046043D01*
X205330151Y-113066482D01*
X205409121Y-113087642D01*
X205409123Y-113087642D01*
X205490874Y-113087642D01*
X205490877Y-113087642D01*
X205569847Y-113066482D01*
X205640650Y-113025604D01*
X205698461Y-112967793D01*
X205739339Y-112896990D01*
X205760499Y-112818020D01*
X205760499Y-112736264D01*
X205739339Y-112657294D01*
X205702486Y-112593463D01*
X205698463Y-112586494D01*
X205698459Y-112586489D01*
X205640651Y-112528681D01*
X205640646Y-112528677D01*
X205569849Y-112487803D01*
X205569848Y-112487802D01*
X205569847Y-112487802D01*
X205490877Y-112466642D01*
X205409121Y-112466642D01*
X205330151Y-112487802D01*
X205330149Y-112487803D01*
X205330148Y-112487803D01*
X205259351Y-112528677D01*
X205259346Y-112528681D01*
X205201538Y-112586489D01*
X205201534Y-112586494D01*
X205160660Y-112657291D01*
X205160660Y-112657292D01*
X205160659Y-112657294D01*
X205139499Y-112736264D01*
X199274989Y-112736264D01*
X199290500Y-112678378D01*
X199290500Y-112596622D01*
X199269340Y-112517652D01*
X199248861Y-112482182D01*
X199228464Y-112446852D01*
X199228463Y-112446850D01*
X199228462Y-112446849D01*
X199170651Y-112389038D01*
X199170650Y-112389037D01*
X199170647Y-112389035D01*
X199099850Y-112348161D01*
X199099849Y-112348160D01*
X199099848Y-112348160D01*
X199020878Y-112327000D01*
X198939122Y-112327000D01*
X198860152Y-112348160D01*
X198860150Y-112348161D01*
X198860149Y-112348161D01*
X198789352Y-112389035D01*
X198789347Y-112389039D01*
X198731539Y-112446847D01*
X198731535Y-112446852D01*
X198690661Y-112517649D01*
X198690661Y-112517650D01*
X198690660Y-112517652D01*
X198669500Y-112596622D01*
X198298000Y-112596622D01*
X198276840Y-112517652D01*
X198256361Y-112482182D01*
X198235964Y-112446852D01*
X198235963Y-112446850D01*
X198235962Y-112446849D01*
X198178151Y-112389038D01*
X198178150Y-112389037D01*
X198178147Y-112389035D01*
X198107350Y-112348161D01*
X198107349Y-112348160D01*
X198107348Y-112348160D01*
X198028378Y-112327000D01*
X197946622Y-112327000D01*
X197867652Y-112348160D01*
X197867650Y-112348161D01*
X197867649Y-112348161D01*
X197796852Y-112389035D01*
X197796847Y-112389039D01*
X197739039Y-112446847D01*
X197739035Y-112446852D01*
X197698161Y-112517649D01*
X197698161Y-112517650D01*
X197698160Y-112517652D01*
X197677000Y-112596622D01*
X197050499Y-112596622D01*
X197050499Y-112596621D01*
X197029339Y-112517651D01*
X196998855Y-112464851D01*
X196988463Y-112446851D01*
X196988462Y-112446849D01*
X196988461Y-112446848D01*
X196930650Y-112389037D01*
X196930649Y-112389036D01*
X196930646Y-112389034D01*
X196859849Y-112348160D01*
X196859848Y-112348159D01*
X196859847Y-112348159D01*
X196780877Y-112326999D01*
X196699121Y-112326999D01*
X196620151Y-112348159D01*
X196620149Y-112348160D01*
X196620148Y-112348160D01*
X196549351Y-112389034D01*
X196549346Y-112389038D01*
X196491538Y-112446846D01*
X196491536Y-112446849D01*
X196471136Y-112482183D01*
X196420568Y-112530398D01*
X196351961Y-112543620D01*
X196287096Y-112517652D01*
X196256362Y-112482182D01*
X196235964Y-112446852D01*
X196235963Y-112446850D01*
X196235962Y-112446849D01*
X196178151Y-112389038D01*
X196178150Y-112389037D01*
X196178147Y-112389035D01*
X196107350Y-112348161D01*
X196107349Y-112348160D01*
X196107348Y-112348160D01*
X196028378Y-112327000D01*
X195946622Y-112327000D01*
X195867652Y-112348160D01*
X195867650Y-112348161D01*
X195867649Y-112348161D01*
X195796852Y-112389035D01*
X195796847Y-112389039D01*
X195739039Y-112446847D01*
X195739035Y-112446852D01*
X195698161Y-112517649D01*
X195698161Y-112517650D01*
X195698160Y-112517652D01*
X195677000Y-112596622D01*
X195298001Y-112596622D01*
X195276841Y-112517653D01*
X195235963Y-112446850D01*
X195178152Y-112389039D01*
X195178151Y-112389038D01*
X195178148Y-112389036D01*
X195107351Y-112348162D01*
X195107350Y-112348161D01*
X195107349Y-112348161D01*
X195028379Y-112327001D01*
X194946623Y-112327001D01*
X194867653Y-112348161D01*
X194867651Y-112348162D01*
X194867650Y-112348162D01*
X194796853Y-112389036D01*
X194796848Y-112389040D01*
X194739040Y-112446848D01*
X194739036Y-112446853D01*
X194698162Y-112517650D01*
X194698162Y-112517651D01*
X194698161Y-112517653D01*
X194677001Y-112596623D01*
X194677001Y-112678379D01*
X194691202Y-112731377D01*
X194698162Y-112757353D01*
X194698684Y-112758612D01*
X194698807Y-112759758D01*
X194700265Y-112765199D01*
X194699416Y-112765426D01*
X194706151Y-112828081D01*
X194674875Y-112890560D01*
X194614785Y-112926211D01*
X194552031Y-112925837D01*
X194528382Y-112919500D01*
X194528378Y-112919500D01*
X194446622Y-112919500D01*
X194367652Y-112940660D01*
X194367650Y-112940661D01*
X194367649Y-112940661D01*
X194296852Y-112981535D01*
X194296847Y-112981539D01*
X194239039Y-113039347D01*
X194239035Y-113039352D01*
X194198161Y-113110149D01*
X194198161Y-113110150D01*
X194198160Y-113110152D01*
X194177000Y-113189122D01*
X194177000Y-113270878D01*
X194198160Y-113349848D01*
X194198161Y-113349849D01*
X194198161Y-113349850D01*
X194239035Y-113420647D01*
X194239039Y-113420652D01*
X194241955Y-113423568D01*
X194243628Y-113426632D01*
X194243984Y-113427096D01*
X194243911Y-113427151D01*
X194275440Y-113484891D01*
X194270456Y-113554583D01*
X194246049Y-113592565D01*
X194246486Y-113592901D01*
X194242475Y-113598127D01*
X194241969Y-113598916D01*
X194241545Y-113599339D01*
X194240283Y-113600985D01*
X194238867Y-113602018D01*
X194235805Y-113605082D01*
X194235326Y-113604603D01*
X194183856Y-113642188D01*
X194141907Y-113649499D01*
X193494499Y-113649499D01*
X193427460Y-113629814D01*
X193381705Y-113577010D01*
X193370499Y-113525499D01*
X193370499Y-113479125D01*
X193370499Y-113479123D01*
X193349339Y-113400153D01*
X193320296Y-113349849D01*
X193308463Y-113329353D01*
X193308459Y-113329348D01*
X193301793Y-113322682D01*
X193268308Y-113261359D01*
X193273292Y-113191667D01*
X193301793Y-113147320D01*
X193328462Y-113120651D01*
X193369340Y-113049848D01*
X193390500Y-112970878D01*
X193390500Y-112889122D01*
X193369340Y-112810152D01*
X193343518Y-112765426D01*
X193328464Y-112739352D01*
X193328460Y-112739347D01*
X193291453Y-112702340D01*
X193257968Y-112641017D01*
X193262952Y-112571325D01*
X193280765Y-112539163D01*
X193283449Y-112535663D01*
X193283461Y-112535652D01*
X193324339Y-112464849D01*
X193345499Y-112385879D01*
X193345499Y-112304123D01*
X193324339Y-112225153D01*
X193283461Y-112154350D01*
X193225650Y-112096539D01*
X193225649Y-112096538D01*
X193225646Y-112096536D01*
X193154849Y-112055662D01*
X193154848Y-112055661D01*
X193154847Y-112055661D01*
X193093123Y-112039122D01*
X200489501Y-112039122D01*
X200489501Y-112120878D01*
X200510661Y-112199848D01*
X200510662Y-112199849D01*
X200510662Y-112199850D01*
X200551536Y-112270647D01*
X200551538Y-112270650D01*
X200551539Y-112270651D01*
X200609350Y-112328462D01*
X200609351Y-112328463D01*
X200609353Y-112328464D01*
X200644751Y-112348901D01*
X200680153Y-112369340D01*
X200759123Y-112390500D01*
X200759125Y-112390500D01*
X200840876Y-112390500D01*
X200840879Y-112390500D01*
X200919849Y-112369340D01*
X200990652Y-112328462D01*
X201048463Y-112270651D01*
X201089341Y-112199848D01*
X201110501Y-112120878D01*
X201110501Y-112039122D01*
X201089341Y-111960152D01*
X201048463Y-111889349D01*
X200990652Y-111831538D01*
X200990651Y-111831537D01*
X200990648Y-111831535D01*
X200919851Y-111790661D01*
X200919850Y-111790660D01*
X200919849Y-111790660D01*
X200840879Y-111769500D01*
X200759123Y-111769500D01*
X200680153Y-111790660D01*
X200680151Y-111790661D01*
X200680150Y-111790661D01*
X200609353Y-111831535D01*
X200609348Y-111831539D01*
X200551540Y-111889347D01*
X200551536Y-111889352D01*
X200510662Y-111960149D01*
X200510662Y-111960150D01*
X200510661Y-111960152D01*
X200489501Y-112039122D01*
X193093123Y-112039122D01*
X193075877Y-112034501D01*
X192994121Y-112034501D01*
X192915151Y-112055661D01*
X192915149Y-112055662D01*
X192915148Y-112055662D01*
X192844351Y-112096536D01*
X192844346Y-112096540D01*
X192786538Y-112154348D01*
X192786534Y-112154353D01*
X192745660Y-112225150D01*
X192745660Y-112225151D01*
X192745659Y-112225153D01*
X192724499Y-112304123D01*
X192724499Y-112385879D01*
X192745659Y-112464849D01*
X192745660Y-112464850D01*
X192745660Y-112464851D01*
X192786534Y-112535648D01*
X192786538Y-112535653D01*
X192823545Y-112572660D01*
X192857030Y-112633983D01*
X192852046Y-112703675D01*
X192834241Y-112735826D01*
X192831537Y-112739349D01*
X192790661Y-112810149D01*
X192790661Y-112810150D01*
X192790660Y-112810152D01*
X192769500Y-112889122D01*
X192769500Y-112970878D01*
X192790660Y-113049848D01*
X192790661Y-113049849D01*
X192790661Y-113049850D01*
X192831535Y-113120647D01*
X192831539Y-113120652D01*
X192838206Y-113127319D01*
X192871691Y-113188642D01*
X192866707Y-113258334D01*
X192838206Y-113302681D01*
X192811538Y-113329348D01*
X192811534Y-113329353D01*
X192770660Y-113400150D01*
X192770660Y-113400151D01*
X192770659Y-113400153D01*
X192749499Y-113479123D01*
X192749499Y-113479125D01*
X192749499Y-113525499D01*
X192729814Y-113592538D01*
X192677010Y-113638293D01*
X192625499Y-113649499D01*
X191654768Y-113649499D01*
X191587729Y-113629814D01*
X191541974Y-113577010D01*
X191534994Y-113557595D01*
X191534340Y-113555152D01*
X191493462Y-113484349D01*
X191435651Y-113426538D01*
X191435650Y-113426537D01*
X191435647Y-113426535D01*
X191362000Y-113384015D01*
X191313784Y-113333448D01*
X191300000Y-113276628D01*
X191300000Y-111424122D01*
X192269500Y-111424122D01*
X192269500Y-111505878D01*
X192290660Y-111584848D01*
X192290661Y-111584849D01*
X192290661Y-111584850D01*
X192331535Y-111655647D01*
X192331537Y-111655650D01*
X192331538Y-111655651D01*
X192389349Y-111713462D01*
X192460152Y-111754340D01*
X192539122Y-111775500D01*
X192539124Y-111775500D01*
X192620875Y-111775500D01*
X192620878Y-111775500D01*
X192699848Y-111754340D01*
X192770651Y-111713462D01*
X192828462Y-111655651D01*
X192869340Y-111584848D01*
X192890500Y-111505878D01*
X192890500Y-111424122D01*
X192886481Y-111409123D01*
X201089501Y-111409123D01*
X201089501Y-111490879D01*
X201110661Y-111569849D01*
X201110662Y-111569850D01*
X201110662Y-111569851D01*
X201151536Y-111640648D01*
X201151538Y-111640651D01*
X201151539Y-111640652D01*
X201209350Y-111698463D01*
X201209351Y-111698464D01*
X201209353Y-111698465D01*
X201244751Y-111718902D01*
X201280153Y-111739341D01*
X201359123Y-111760501D01*
X201359125Y-111760501D01*
X201440876Y-111760501D01*
X201440879Y-111760501D01*
X201519849Y-111739341D01*
X201590652Y-111698463D01*
X201648463Y-111640652D01*
X201689341Y-111569849D01*
X201705613Y-111509122D01*
X203164500Y-111509122D01*
X203164500Y-111590878D01*
X203185660Y-111669848D01*
X203185661Y-111669849D01*
X203185661Y-111669850D01*
X203226535Y-111740647D01*
X203226537Y-111740650D01*
X203226538Y-111740651D01*
X203284349Y-111798462D01*
X203355152Y-111839340D01*
X203434122Y-111860500D01*
X203434124Y-111860500D01*
X203515875Y-111860500D01*
X203515878Y-111860500D01*
X203594848Y-111839340D01*
X203665651Y-111798462D01*
X203723462Y-111740651D01*
X203764340Y-111669848D01*
X203785500Y-111590878D01*
X203785500Y-111509122D01*
X204714500Y-111509122D01*
X204714500Y-111590878D01*
X204735660Y-111669848D01*
X204735661Y-111669849D01*
X204735661Y-111669850D01*
X204776535Y-111740647D01*
X204776537Y-111740650D01*
X204776538Y-111740651D01*
X204834349Y-111798462D01*
X204905152Y-111839340D01*
X204984122Y-111860500D01*
X204984124Y-111860500D01*
X205065875Y-111860500D01*
X205065878Y-111860500D01*
X205144848Y-111839340D01*
X205215651Y-111798462D01*
X205273462Y-111740651D01*
X205314340Y-111669848D01*
X205335500Y-111590878D01*
X205335500Y-111509122D01*
X205314340Y-111430152D01*
X205287818Y-111384214D01*
X205273464Y-111359352D01*
X205273460Y-111359347D01*
X205215652Y-111301539D01*
X205215647Y-111301535D01*
X205144850Y-111260661D01*
X205144849Y-111260660D01*
X205144848Y-111260660D01*
X205065878Y-111239500D01*
X204984122Y-111239500D01*
X204905152Y-111260660D01*
X204905150Y-111260661D01*
X204905149Y-111260661D01*
X204834352Y-111301535D01*
X204834347Y-111301539D01*
X204776539Y-111359347D01*
X204776535Y-111359352D01*
X204735661Y-111430149D01*
X204735661Y-111430150D01*
X204735660Y-111430152D01*
X204714500Y-111509122D01*
X203785500Y-111509122D01*
X203764340Y-111430152D01*
X203737818Y-111384214D01*
X203723464Y-111359352D01*
X203723460Y-111359347D01*
X203665652Y-111301539D01*
X203665647Y-111301535D01*
X203594850Y-111260661D01*
X203594849Y-111260660D01*
X203594848Y-111260660D01*
X203515878Y-111239500D01*
X203434122Y-111239500D01*
X203355152Y-111260660D01*
X203355150Y-111260661D01*
X203355149Y-111260661D01*
X203284352Y-111301535D01*
X203284347Y-111301539D01*
X203226539Y-111359347D01*
X203226535Y-111359352D01*
X203185661Y-111430149D01*
X203185661Y-111430150D01*
X203185660Y-111430152D01*
X203164500Y-111509122D01*
X201705613Y-111509122D01*
X201710501Y-111490879D01*
X201710501Y-111409123D01*
X201707080Y-111396358D01*
X201706652Y-111381908D01*
X201711982Y-111361534D01*
X201712483Y-111340481D01*
X201720649Y-111328413D01*
X201724339Y-111314314D01*
X201739840Y-111300055D01*
X201751642Y-111282617D01*
X201767928Y-111274219D01*
X201775763Y-111267014D01*
X201785039Y-111265398D01*
X201798501Y-111258457D01*
X201869848Y-111239340D01*
X201940651Y-111198462D01*
X201998462Y-111140651D01*
X202039340Y-111069848D01*
X202060500Y-110990878D01*
X202060500Y-110909122D01*
X202039340Y-110830152D01*
X202015781Y-110789346D01*
X201998464Y-110759352D01*
X201998460Y-110759347D01*
X201940652Y-110701539D01*
X201940647Y-110701535D01*
X201869850Y-110660661D01*
X201869849Y-110660660D01*
X201869848Y-110660660D01*
X201790878Y-110639500D01*
X201709122Y-110639500D01*
X201630152Y-110660660D01*
X201630150Y-110660661D01*
X201630149Y-110660661D01*
X201559352Y-110701535D01*
X201559347Y-110701539D01*
X201501539Y-110759347D01*
X201501535Y-110759352D01*
X201460661Y-110830149D01*
X201460661Y-110830150D01*
X201460660Y-110830152D01*
X201439500Y-110909122D01*
X201439500Y-110909124D01*
X201439500Y-110990876D01*
X201440561Y-110998934D01*
X201438953Y-110999145D01*
X201437513Y-111059531D01*
X201398348Y-111117391D01*
X201351498Y-111141543D01*
X201280157Y-111160659D01*
X201280150Y-111160662D01*
X201209353Y-111201536D01*
X201209348Y-111201540D01*
X201151540Y-111259348D01*
X201151536Y-111259353D01*
X201110662Y-111330150D01*
X201110662Y-111330151D01*
X201110661Y-111330153D01*
X201089501Y-111409123D01*
X192886481Y-111409123D01*
X192869340Y-111345152D01*
X192828462Y-111274349D01*
X192770651Y-111216538D01*
X192770650Y-111216537D01*
X192770647Y-111216535D01*
X192699850Y-111175661D01*
X192699849Y-111175660D01*
X192699848Y-111175660D01*
X192620878Y-111154500D01*
X192539122Y-111154500D01*
X192460152Y-111175660D01*
X192460150Y-111175661D01*
X192460149Y-111175661D01*
X192389352Y-111216535D01*
X192389347Y-111216539D01*
X192331539Y-111274347D01*
X192331535Y-111274352D01*
X192290661Y-111345149D01*
X192290661Y-111345150D01*
X192290660Y-111345152D01*
X192269500Y-111424122D01*
X191300000Y-111424122D01*
X191300000Y-111357009D01*
X191319685Y-111289970D01*
X191372489Y-111244215D01*
X191441647Y-111234271D01*
X191486000Y-111249622D01*
X191520151Y-111269339D01*
X191599121Y-111290499D01*
X191599123Y-111290499D01*
X191680874Y-111290499D01*
X191680877Y-111290499D01*
X191759847Y-111269339D01*
X191830650Y-111228461D01*
X191888461Y-111170650D01*
X191929339Y-111099847D01*
X191950499Y-111020877D01*
X191950499Y-110939121D01*
X191929339Y-110860151D01*
X191888461Y-110789348D01*
X191830650Y-110731537D01*
X191830649Y-110731536D01*
X191830646Y-110731534D01*
X191759849Y-110690660D01*
X191759848Y-110690659D01*
X191759847Y-110690659D01*
X191680877Y-110669499D01*
X191599121Y-110669499D01*
X191520151Y-110690659D01*
X191520149Y-110690659D01*
X191520149Y-110690660D01*
X191520146Y-110690661D01*
X191485998Y-110710376D01*
X191418097Y-110726847D01*
X191352071Y-110703994D01*
X191308881Y-110649072D01*
X191300000Y-110602988D01*
X191300000Y-110409122D01*
X192489500Y-110409122D01*
X192489500Y-110490878D01*
X192510660Y-110569848D01*
X192510661Y-110569849D01*
X192510661Y-110569850D01*
X192551535Y-110640647D01*
X192551537Y-110640650D01*
X192551538Y-110640651D01*
X192609349Y-110698462D01*
X192609350Y-110698463D01*
X192609352Y-110698464D01*
X192629985Y-110710376D01*
X192680152Y-110739340D01*
X192759122Y-110760500D01*
X192759124Y-110760500D01*
X192840875Y-110760500D01*
X192840878Y-110760500D01*
X192919848Y-110739340D01*
X192990651Y-110698462D01*
X193048462Y-110640651D01*
X193089340Y-110569848D01*
X193110500Y-110490878D01*
X193110500Y-110409122D01*
X193089340Y-110330152D01*
X193060473Y-110280152D01*
X193048464Y-110259352D01*
X193048460Y-110259347D01*
X192990652Y-110201539D01*
X192990647Y-110201535D01*
X192919850Y-110160661D01*
X192919849Y-110160660D01*
X192919848Y-110160660D01*
X192840878Y-110139500D01*
X192759122Y-110139500D01*
X192680152Y-110160660D01*
X192680150Y-110160661D01*
X192680149Y-110160661D01*
X192609352Y-110201535D01*
X192609347Y-110201539D01*
X192551539Y-110259347D01*
X192551535Y-110259352D01*
X192510661Y-110330149D01*
X192510661Y-110330150D01*
X192510660Y-110330152D01*
X192489500Y-110409122D01*
X191300000Y-110409122D01*
X191300000Y-109534500D01*
X191319685Y-109467461D01*
X191372489Y-109421706D01*
X191412994Y-109412894D01*
X191412819Y-109411561D01*
X191420876Y-109410500D01*
X191420879Y-109410500D01*
X191499849Y-109389340D01*
X191503501Y-109387231D01*
X191506971Y-109386389D01*
X191507359Y-109386229D01*
X191507384Y-109386289D01*
X191571399Y-109370759D01*
X191637426Y-109393611D01*
X191680617Y-109448532D01*
X191687255Y-109482973D01*
X191688439Y-109482818D01*
X191689499Y-109490875D01*
X191689500Y-109490878D01*
X191710660Y-109569848D01*
X191710661Y-109569849D01*
X191710663Y-109569854D01*
X191750007Y-109638001D01*
X191766480Y-109705901D01*
X191750008Y-109761999D01*
X191710660Y-109830151D01*
X191707457Y-109842107D01*
X191689500Y-109909123D01*
X191689500Y-109990879D01*
X191710660Y-110069849D01*
X191710661Y-110069850D01*
X191710661Y-110069851D01*
X191751535Y-110140648D01*
X191751537Y-110140651D01*
X191751538Y-110140652D01*
X191809349Y-110198463D01*
X191809350Y-110198464D01*
X191809352Y-110198465D01*
X191828204Y-110209349D01*
X191880152Y-110239341D01*
X191959122Y-110260501D01*
X191959124Y-110260501D01*
X192040875Y-110260501D01*
X192040878Y-110260501D01*
X192119848Y-110239341D01*
X192190651Y-110198463D01*
X192248462Y-110140652D01*
X192289340Y-110069849D01*
X192310500Y-109990879D01*
X192310500Y-109909123D01*
X192289340Y-109830153D01*
X192249992Y-109762000D01*
X192233519Y-109694100D01*
X192249991Y-109638001D01*
X192289340Y-109569848D01*
X192310500Y-109490878D01*
X192310500Y-109439122D01*
X202109499Y-109439122D01*
X202109499Y-109520878D01*
X202130659Y-109599848D01*
X202130660Y-109599849D01*
X202130660Y-109599850D01*
X202171534Y-109670647D01*
X202171536Y-109670650D01*
X202171537Y-109670651D01*
X202229348Y-109728462D01*
X202229349Y-109728463D01*
X202229351Y-109728464D01*
X202246672Y-109738464D01*
X202300151Y-109769340D01*
X202379121Y-109790500D01*
X202379123Y-109790500D01*
X202460874Y-109790500D01*
X202460877Y-109790500D01*
X202539847Y-109769340D01*
X202610650Y-109728462D01*
X202668461Y-109670651D01*
X202709339Y-109599848D01*
X202730499Y-109520878D01*
X202730499Y-109439122D01*
X202709339Y-109360152D01*
X202677786Y-109305500D01*
X202668463Y-109289352D01*
X202668459Y-109289347D01*
X202610651Y-109231539D01*
X202610646Y-109231535D01*
X202539849Y-109190661D01*
X202539848Y-109190660D01*
X202539847Y-109190660D01*
X202460877Y-109169500D01*
X202379121Y-109169500D01*
X202300151Y-109190660D01*
X202300149Y-109190661D01*
X202300148Y-109190661D01*
X202229351Y-109231535D01*
X202229346Y-109231539D01*
X202171538Y-109289347D01*
X202171534Y-109289352D01*
X202130660Y-109360149D01*
X202130660Y-109360150D01*
X202130659Y-109360152D01*
X202109499Y-109439122D01*
X192310500Y-109439122D01*
X192310500Y-109409122D01*
X192289340Y-109330152D01*
X192248462Y-109259349D01*
X192190651Y-109201538D01*
X192190650Y-109201537D01*
X192190647Y-109201535D01*
X192119850Y-109160661D01*
X192119849Y-109160660D01*
X192119848Y-109160660D01*
X192040878Y-109139500D01*
X191959122Y-109139500D01*
X191880152Y-109160660D01*
X191880150Y-109160660D01*
X191880150Y-109160661D01*
X191880145Y-109160662D01*
X191876494Y-109162771D01*
X191873025Y-109163612D01*
X191872642Y-109163771D01*
X191872617Y-109163711D01*
X191808593Y-109179239D01*
X191742568Y-109156383D01*
X191699381Y-109101459D01*
X191693807Y-109083821D01*
X191690501Y-109069791D01*
X191690501Y-109059122D01*
X191669341Y-108980152D01*
X191669340Y-108980150D01*
X191667238Y-108972305D01*
X191668788Y-108971889D01*
X191667416Y-108959123D01*
X203589500Y-108959123D01*
X203589500Y-109040879D01*
X203610660Y-109119849D01*
X203610661Y-109119850D01*
X203610661Y-109119851D01*
X203651535Y-109190648D01*
X203651537Y-109190651D01*
X203651538Y-109190652D01*
X203709349Y-109248463D01*
X203709350Y-109248464D01*
X203709352Y-109248465D01*
X203728204Y-109259349D01*
X203780152Y-109289341D01*
X203859122Y-109310501D01*
X203859124Y-109310501D01*
X203886354Y-109310501D01*
X203953393Y-109330186D01*
X203999148Y-109382990D01*
X204007841Y-109440995D01*
X204009499Y-109440995D01*
X204009499Y-109480854D01*
X203989814Y-109547893D01*
X203937010Y-109593648D01*
X203917596Y-109600627D01*
X203903857Y-109604309D01*
X203880150Y-109610661D01*
X203880149Y-109610662D01*
X203809352Y-109651536D01*
X203809347Y-109651540D01*
X203751539Y-109709348D01*
X203751535Y-109709353D01*
X203710661Y-109780150D01*
X203710661Y-109780151D01*
X203710660Y-109780153D01*
X203689500Y-109859123D01*
X203689500Y-109940879D01*
X203705753Y-110001537D01*
X203710660Y-110019849D01*
X203750007Y-110088001D01*
X203766478Y-110155901D01*
X203750007Y-110211998D01*
X203710662Y-110280147D01*
X203710660Y-110280150D01*
X203710660Y-110280152D01*
X203689500Y-110359122D01*
X203689500Y-110440878D01*
X203710660Y-110519848D01*
X203710661Y-110519849D01*
X203710661Y-110519850D01*
X203751535Y-110590647D01*
X203751537Y-110590650D01*
X203751538Y-110590651D01*
X203809349Y-110648462D01*
X203809350Y-110648463D01*
X203809352Y-110648464D01*
X203830478Y-110660661D01*
X203880152Y-110689340D01*
X203959122Y-110710500D01*
X203959124Y-110710500D01*
X204040875Y-110710500D01*
X204040878Y-110710500D01*
X204119848Y-110689340D01*
X204190651Y-110648462D01*
X204248462Y-110590651D01*
X204289340Y-110519848D01*
X204310500Y-110440878D01*
X204310500Y-110359122D01*
X204289340Y-110280152D01*
X204249992Y-110211999D01*
X204249294Y-110209121D01*
X204604499Y-110209121D01*
X204604499Y-110290877D01*
X204625659Y-110369847D01*
X204625660Y-110369848D01*
X204625660Y-110369849D01*
X204666534Y-110440646D01*
X204666536Y-110440649D01*
X204666537Y-110440650D01*
X204724348Y-110498461D01*
X204795151Y-110539339D01*
X204874121Y-110560499D01*
X204874123Y-110560499D01*
X204955874Y-110560499D01*
X204955877Y-110560499D01*
X205034847Y-110539339D01*
X205105650Y-110498461D01*
X205163461Y-110440650D01*
X205204339Y-110369847D01*
X205225499Y-110290877D01*
X205225499Y-110209121D01*
X205204339Y-110130151D01*
X205169525Y-110069851D01*
X205163463Y-110059351D01*
X205163459Y-110059346D01*
X205105651Y-110001538D01*
X205105646Y-110001534D01*
X205034849Y-109960660D01*
X205034848Y-109960659D01*
X205034847Y-109960659D01*
X204955877Y-109939499D01*
X204874121Y-109939499D01*
X204795151Y-109960659D01*
X204795149Y-109960660D01*
X204795148Y-109960660D01*
X204724351Y-110001534D01*
X204724346Y-110001538D01*
X204666538Y-110059346D01*
X204666534Y-110059351D01*
X204625660Y-110130148D01*
X204625660Y-110130149D01*
X204625659Y-110130151D01*
X204604499Y-110209121D01*
X204249294Y-110209121D01*
X204233520Y-110144099D01*
X204249993Y-110088000D01*
X204260472Y-110069850D01*
X204289340Y-110019849D01*
X204310500Y-109940879D01*
X204310500Y-109909146D01*
X204330185Y-109842107D01*
X204382989Y-109796352D01*
X204402399Y-109789374D01*
X204439847Y-109779340D01*
X204510650Y-109738462D01*
X204568461Y-109680651D01*
X204609339Y-109609848D01*
X204613410Y-109594654D01*
X204649771Y-109534996D01*
X204712617Y-109504465D01*
X204781993Y-109512757D01*
X204795113Y-109519324D01*
X204795145Y-109519337D01*
X204795152Y-109519341D01*
X204874122Y-109540501D01*
X204874124Y-109540501D01*
X204955875Y-109540501D01*
X204955878Y-109540501D01*
X205034848Y-109519341D01*
X205105651Y-109478463D01*
X205163462Y-109420652D01*
X205204340Y-109349849D01*
X205225500Y-109270879D01*
X205225500Y-109189123D01*
X205204340Y-109110153D01*
X205187384Y-109080784D01*
X205164165Y-109040567D01*
X205164164Y-109040566D01*
X205163462Y-109039350D01*
X205105651Y-108981539D01*
X205054727Y-108952138D01*
X205034849Y-108940661D01*
X205008524Y-108933607D01*
X204955878Y-108919501D01*
X204874122Y-108919501D01*
X204795152Y-108940661D01*
X204795150Y-108940662D01*
X204795149Y-108940662D01*
X204724352Y-108981536D01*
X204724347Y-108981540D01*
X204666539Y-109039348D01*
X204666535Y-109039353D01*
X204625661Y-109110150D01*
X204625658Y-109110157D01*
X204621588Y-109125348D01*
X204585222Y-109185008D01*
X204522375Y-109215536D01*
X204453000Y-109207241D01*
X204439885Y-109200676D01*
X204439850Y-109200661D01*
X204439847Y-109200660D01*
X204360877Y-109179500D01*
X204333645Y-109179500D01*
X204266606Y-109159815D01*
X204220851Y-109107011D01*
X204212158Y-109049006D01*
X204210500Y-109049006D01*
X204210500Y-108959125D01*
X204210500Y-108959123D01*
X204189340Y-108880153D01*
X204153725Y-108818465D01*
X204148464Y-108809353D01*
X204148460Y-108809348D01*
X204090652Y-108751540D01*
X204090647Y-108751536D01*
X204019850Y-108710662D01*
X204019849Y-108710661D01*
X204019848Y-108710661D01*
X203940878Y-108689501D01*
X203859122Y-108689501D01*
X203780152Y-108710661D01*
X203780150Y-108710662D01*
X203780149Y-108710662D01*
X203709352Y-108751536D01*
X203709347Y-108751540D01*
X203651539Y-108809348D01*
X203651535Y-108809353D01*
X203610661Y-108880150D01*
X203610661Y-108880151D01*
X203610660Y-108880153D01*
X203589500Y-108959123D01*
X191667416Y-108959123D01*
X191662326Y-108911780D01*
X191693600Y-108849301D01*
X191753689Y-108813648D01*
X191768172Y-108810857D01*
X191770872Y-108810501D01*
X191770877Y-108810501D01*
X191849847Y-108789341D01*
X191920650Y-108748463D01*
X191978461Y-108690652D01*
X192019339Y-108619849D01*
X192040499Y-108540879D01*
X192040499Y-108529123D01*
X205149501Y-108529123D01*
X205149501Y-108610879D01*
X205170661Y-108689849D01*
X205170662Y-108689850D01*
X205170662Y-108689851D01*
X205210835Y-108759434D01*
X205210836Y-108759435D01*
X205211539Y-108760652D01*
X205269350Y-108818463D01*
X205340153Y-108859341D01*
X205419123Y-108880501D01*
X205419125Y-108880501D01*
X205500876Y-108880501D01*
X205500879Y-108880501D01*
X205579849Y-108859341D01*
X205650652Y-108818463D01*
X205708463Y-108760652D01*
X205749341Y-108689849D01*
X205770501Y-108610879D01*
X205770501Y-108529123D01*
X205749341Y-108450153D01*
X205708927Y-108380153D01*
X205708465Y-108379353D01*
X205708461Y-108379348D01*
X205650653Y-108321540D01*
X205650648Y-108321536D01*
X205579851Y-108280662D01*
X205579850Y-108280661D01*
X205579849Y-108280661D01*
X205500879Y-108259501D01*
X205419123Y-108259501D01*
X205340153Y-108280661D01*
X205340151Y-108280662D01*
X205340150Y-108280662D01*
X205269353Y-108321536D01*
X205269348Y-108321540D01*
X205211540Y-108379348D01*
X205211536Y-108379353D01*
X205170662Y-108450150D01*
X205170662Y-108450151D01*
X205170661Y-108450153D01*
X205149501Y-108529123D01*
X192040499Y-108529123D01*
X192040499Y-108459123D01*
X192019339Y-108380153D01*
X191978461Y-108309350D01*
X191920650Y-108251539D01*
X191914903Y-108245792D01*
X191916274Y-108244420D01*
X191881321Y-108196542D01*
X191877171Y-108126796D01*
X191895343Y-108088233D01*
X191894398Y-108087688D01*
X191908288Y-108063628D01*
X191939339Y-108009847D01*
X191960499Y-107930877D01*
X191960499Y-107909122D01*
X202199500Y-107909122D01*
X202199500Y-107990878D01*
X202220660Y-108069848D01*
X202220661Y-108069849D01*
X202220661Y-108069850D01*
X202261535Y-108140647D01*
X202261537Y-108140650D01*
X202261538Y-108140651D01*
X202319349Y-108198462D01*
X202390152Y-108239340D01*
X202469122Y-108260500D01*
X202469124Y-108260500D01*
X202550875Y-108260500D01*
X202550878Y-108260500D01*
X202629848Y-108239340D01*
X202700651Y-108198462D01*
X202758462Y-108140651D01*
X202799340Y-108069848D01*
X202820500Y-107990878D01*
X202820500Y-107909122D01*
X202799340Y-107830152D01*
X202764699Y-107770151D01*
X202758464Y-107759352D01*
X202758460Y-107759347D01*
X202700652Y-107701539D01*
X202700647Y-107701535D01*
X202629850Y-107660661D01*
X202629849Y-107660660D01*
X202629848Y-107660660D01*
X202550878Y-107639500D01*
X202469122Y-107639500D01*
X202390152Y-107660660D01*
X202390150Y-107660661D01*
X202390149Y-107660661D01*
X202319352Y-107701535D01*
X202319347Y-107701539D01*
X202261539Y-107759347D01*
X202261535Y-107759352D01*
X202220661Y-107830149D01*
X202220661Y-107830150D01*
X202220660Y-107830152D01*
X202199500Y-107909122D01*
X191960499Y-107909122D01*
X191960499Y-107849121D01*
X191939339Y-107770151D01*
X191899726Y-107701539D01*
X191898929Y-107700158D01*
X191882456Y-107632257D01*
X191905309Y-107566231D01*
X191918632Y-107550480D01*
X191928462Y-107540651D01*
X191969340Y-107469848D01*
X191985611Y-107409123D01*
X192439499Y-107409123D01*
X192439499Y-107490879D01*
X192460659Y-107569849D01*
X192460660Y-107569850D01*
X192460660Y-107569851D01*
X192501534Y-107640648D01*
X192501536Y-107640651D01*
X192501537Y-107640652D01*
X192559348Y-107698463D01*
X192559349Y-107698464D01*
X192559351Y-107698465D01*
X192594749Y-107718902D01*
X192630151Y-107739341D01*
X192709121Y-107760501D01*
X192709123Y-107760501D01*
X192790874Y-107760501D01*
X192790877Y-107760501D01*
X192869847Y-107739341D01*
X192940650Y-107698463D01*
X192998461Y-107640652D01*
X193039339Y-107569849D01*
X193060499Y-107490879D01*
X193060499Y-107409123D01*
X193039339Y-107330153D01*
X192998461Y-107259350D01*
X192940650Y-107201539D01*
X192940649Y-107201538D01*
X192940646Y-107201536D01*
X192869849Y-107160662D01*
X192869848Y-107160661D01*
X192869847Y-107160661D01*
X192790877Y-107139501D01*
X192709121Y-107139501D01*
X192630151Y-107160661D01*
X192630149Y-107160662D01*
X192630148Y-107160662D01*
X192559351Y-107201536D01*
X192559346Y-107201540D01*
X192501538Y-107259348D01*
X192501534Y-107259353D01*
X192460660Y-107330150D01*
X192460660Y-107330151D01*
X192460659Y-107330153D01*
X192439499Y-107409123D01*
X191985611Y-107409123D01*
X191990500Y-107390878D01*
X191990500Y-107309122D01*
X191969340Y-107230152D01*
X191929220Y-107160662D01*
X191928464Y-107159352D01*
X191928460Y-107159347D01*
X191870652Y-107101539D01*
X191870647Y-107101535D01*
X191799850Y-107060661D01*
X191799849Y-107060660D01*
X191799848Y-107060660D01*
X191720878Y-107039500D01*
X191639122Y-107039500D01*
X191586475Y-107053606D01*
X191560151Y-107060660D01*
X191485999Y-107103472D01*
X191418099Y-107119944D01*
X191352072Y-107097091D01*
X191308882Y-107042169D01*
X191300000Y-106996084D01*
X191300000Y-106419122D01*
X191689500Y-106419122D01*
X191689500Y-106500878D01*
X191710660Y-106579848D01*
X191710661Y-106579849D01*
X191710661Y-106579850D01*
X191751535Y-106650647D01*
X191751537Y-106650650D01*
X191751538Y-106650651D01*
X191809349Y-106708462D01*
X191880152Y-106749340D01*
X191959122Y-106770500D01*
X191959124Y-106770500D01*
X192040875Y-106770500D01*
X192040878Y-106770500D01*
X192119848Y-106749340D01*
X192190651Y-106708462D01*
X192248462Y-106650651D01*
X192266665Y-106619122D01*
X203529501Y-106619122D01*
X203529501Y-106700878D01*
X203550661Y-106779848D01*
X203550662Y-106779849D01*
X203550662Y-106779850D01*
X203591536Y-106850647D01*
X203591538Y-106850649D01*
X203591539Y-106850651D01*
X203649350Y-106908462D01*
X203720153Y-106949340D01*
X203799123Y-106970500D01*
X203799125Y-106970500D01*
X203880876Y-106970500D01*
X203880879Y-106970500D01*
X203959849Y-106949340D01*
X204030652Y-106908462D01*
X204088463Y-106850651D01*
X204102031Y-106827149D01*
X204152598Y-106778934D01*
X204221205Y-106765710D01*
X204286070Y-106791678D01*
X204326599Y-106848592D01*
X204329188Y-106857038D01*
X204340660Y-106899849D01*
X204340661Y-106899850D01*
X204340663Y-106899855D01*
X204358460Y-106930681D01*
X204374933Y-106998581D01*
X204358461Y-107054679D01*
X204320660Y-107120152D01*
X204320660Y-107120153D01*
X204299500Y-107199123D01*
X204299500Y-107280879D01*
X204320660Y-107359849D01*
X204320661Y-107359850D01*
X204320662Y-107359853D01*
X204343460Y-107399342D01*
X204359931Y-107467242D01*
X204343460Y-107523338D01*
X204310662Y-107580147D01*
X204310660Y-107580150D01*
X204310660Y-107580152D01*
X204289500Y-107659122D01*
X204289500Y-107740878D01*
X204310660Y-107819848D01*
X204310661Y-107819849D01*
X204310661Y-107819850D01*
X204351535Y-107890647D01*
X204351537Y-107890650D01*
X204351538Y-107890651D01*
X204409349Y-107948462D01*
X204480152Y-107989340D01*
X204559122Y-108010500D01*
X204559124Y-108010500D01*
X204640875Y-108010500D01*
X204640878Y-108010500D01*
X204719848Y-107989340D01*
X204790651Y-107948462D01*
X204848462Y-107890651D01*
X204889340Y-107819848D01*
X204910500Y-107740878D01*
X204910500Y-107659122D01*
X204889340Y-107580152D01*
X204866538Y-107540658D01*
X204850066Y-107472760D01*
X204866539Y-107416661D01*
X204899340Y-107359849D01*
X204920500Y-107280879D01*
X204920500Y-107199123D01*
X204899340Y-107120153D01*
X204881538Y-107089320D01*
X204865066Y-107021421D01*
X204881537Y-106965325D01*
X204919340Y-106899849D01*
X204940500Y-106820879D01*
X204940500Y-106739123D01*
X204919340Y-106660153D01*
X204879648Y-106591404D01*
X204878464Y-106589353D01*
X204878460Y-106589348D01*
X204820652Y-106531540D01*
X204820647Y-106531536D01*
X204749850Y-106490662D01*
X204749849Y-106490661D01*
X204749848Y-106490661D01*
X204670878Y-106469501D01*
X204589122Y-106469501D01*
X204510152Y-106490661D01*
X204510150Y-106490662D01*
X204510149Y-106490662D01*
X204439352Y-106531536D01*
X204439347Y-106531540D01*
X204381539Y-106589348D01*
X204381533Y-106589356D01*
X204367966Y-106612854D01*
X204317398Y-106661068D01*
X204248790Y-106674289D01*
X204183926Y-106648319D01*
X204143400Y-106591404D01*
X204140812Y-106582964D01*
X204129341Y-106540152D01*
X204106666Y-106500878D01*
X204088465Y-106469352D01*
X204088461Y-106469347D01*
X204030653Y-106411539D01*
X204030648Y-106411535D01*
X203959851Y-106370661D01*
X203959850Y-106370660D01*
X203959849Y-106370660D01*
X203880879Y-106349500D01*
X203799123Y-106349500D01*
X203720153Y-106370660D01*
X203720151Y-106370661D01*
X203720150Y-106370661D01*
X203649353Y-106411535D01*
X203649348Y-106411539D01*
X203591540Y-106469347D01*
X203591536Y-106469352D01*
X203550662Y-106540149D01*
X203550662Y-106540150D01*
X203550661Y-106540152D01*
X203529501Y-106619122D01*
X192266665Y-106619122D01*
X192289340Y-106579848D01*
X192310500Y-106500878D01*
X192310500Y-106419122D01*
X192289340Y-106340152D01*
X192248462Y-106269349D01*
X192190651Y-106211538D01*
X192190650Y-106211537D01*
X192190647Y-106211535D01*
X192119850Y-106170661D01*
X192119849Y-106170660D01*
X192119848Y-106170660D01*
X192040878Y-106149500D01*
X191959122Y-106149500D01*
X191880152Y-106170660D01*
X191880150Y-106170661D01*
X191880149Y-106170661D01*
X191809352Y-106211535D01*
X191809347Y-106211539D01*
X191751539Y-106269347D01*
X191751535Y-106269352D01*
X191710661Y-106340149D01*
X191710661Y-106340150D01*
X191710660Y-106340152D01*
X191689500Y-106419122D01*
X191300000Y-106419122D01*
X191300000Y-105909122D01*
X192489500Y-105909122D01*
X192489500Y-105990878D01*
X192510660Y-106069848D01*
X192510661Y-106069849D01*
X192510661Y-106069850D01*
X192551535Y-106140647D01*
X192551537Y-106140650D01*
X192551538Y-106140651D01*
X192609349Y-106198462D01*
X192680152Y-106239340D01*
X192759122Y-106260500D01*
X192759124Y-106260500D01*
X192840875Y-106260500D01*
X192840878Y-106260500D01*
X192919848Y-106239340D01*
X192990651Y-106198462D01*
X193048462Y-106140651D01*
X193089340Y-106069848D01*
X193110500Y-105990878D01*
X193110500Y-105909122D01*
X193089340Y-105830152D01*
X193048462Y-105759349D01*
X192990651Y-105701538D01*
X192990650Y-105701537D01*
X192990647Y-105701535D01*
X192919850Y-105660661D01*
X192919849Y-105660660D01*
X192919848Y-105660660D01*
X192840878Y-105639500D01*
X192759122Y-105639500D01*
X192680152Y-105660660D01*
X192680150Y-105660661D01*
X192680149Y-105660661D01*
X192609352Y-105701535D01*
X192609347Y-105701539D01*
X192551539Y-105759347D01*
X192551535Y-105759352D01*
X192510661Y-105830149D01*
X192510661Y-105830150D01*
X192510660Y-105830152D01*
X192489500Y-105909122D01*
X191300000Y-105909122D01*
X191300000Y-105409121D01*
X201364499Y-105409121D01*
X201364499Y-105490877D01*
X201385659Y-105569847D01*
X201385660Y-105569848D01*
X201385660Y-105569849D01*
X201426534Y-105640646D01*
X201426536Y-105640649D01*
X201426537Y-105640650D01*
X201484348Y-105698461D01*
X201484349Y-105698462D01*
X201484351Y-105698463D01*
X201489679Y-105701539D01*
X201555151Y-105739339D01*
X201634121Y-105760499D01*
X201634123Y-105760499D01*
X201715874Y-105760499D01*
X201715877Y-105760499D01*
X201794847Y-105739339D01*
X201864505Y-105699122D01*
X203529500Y-105699122D01*
X203529500Y-105780878D01*
X203550660Y-105859848D01*
X203550661Y-105859849D01*
X203550661Y-105859850D01*
X203591535Y-105930647D01*
X203591537Y-105930650D01*
X203591538Y-105930651D01*
X203649349Y-105988462D01*
X203649350Y-105988463D01*
X203649352Y-105988464D01*
X203684750Y-106008901D01*
X203720152Y-106029340D01*
X203799122Y-106050500D01*
X203799124Y-106050500D01*
X203880875Y-106050500D01*
X203880878Y-106050500D01*
X203959848Y-106029340D01*
X204030651Y-105988462D01*
X204088462Y-105930651D01*
X204129340Y-105859848D01*
X204150500Y-105780878D01*
X204150500Y-105699122D01*
X204129340Y-105620152D01*
X204100297Y-105569848D01*
X204088464Y-105549352D01*
X204088460Y-105549347D01*
X204030652Y-105491539D01*
X204030647Y-105491535D01*
X203959850Y-105450661D01*
X203959849Y-105450660D01*
X203959848Y-105450660D01*
X203880878Y-105429500D01*
X203799122Y-105429500D01*
X203720152Y-105450660D01*
X203720150Y-105450661D01*
X203720149Y-105450661D01*
X203649352Y-105491535D01*
X203649347Y-105491539D01*
X203591539Y-105549347D01*
X203591535Y-105549352D01*
X203550661Y-105620149D01*
X203550661Y-105620150D01*
X203550660Y-105620152D01*
X203529500Y-105699122D01*
X201864505Y-105699122D01*
X201865650Y-105698461D01*
X201923461Y-105640650D01*
X201964339Y-105569847D01*
X201985499Y-105490877D01*
X201985499Y-105409121D01*
X201964339Y-105330151D01*
X201923461Y-105259348D01*
X201865650Y-105201537D01*
X201865649Y-105201536D01*
X201865646Y-105201534D01*
X201794849Y-105160660D01*
X201794848Y-105160659D01*
X201794847Y-105160659D01*
X201715877Y-105139499D01*
X201634121Y-105139499D01*
X201555151Y-105160659D01*
X201555149Y-105160660D01*
X201555148Y-105160660D01*
X201484351Y-105201534D01*
X201484346Y-105201538D01*
X201426538Y-105259346D01*
X201426534Y-105259351D01*
X201385660Y-105330148D01*
X201385660Y-105330149D01*
X201385659Y-105330151D01*
X201364499Y-105409121D01*
X191300000Y-105409121D01*
X191300000Y-104852783D01*
X191312820Y-104809122D01*
X202599500Y-104809122D01*
X202599500Y-104890878D01*
X202620660Y-104969848D01*
X202620661Y-104969849D01*
X202620661Y-104969850D01*
X202661535Y-105040647D01*
X202661537Y-105040650D01*
X202661538Y-105040651D01*
X202719349Y-105098462D01*
X202790152Y-105139340D01*
X202869122Y-105160500D01*
X202869124Y-105160500D01*
X202950875Y-105160500D01*
X202950878Y-105160500D01*
X203029848Y-105139340D01*
X203100651Y-105098462D01*
X203158462Y-105040651D01*
X203199340Y-104969848D01*
X203220500Y-104890878D01*
X203220500Y-104809122D01*
X203199340Y-104730152D01*
X203178901Y-104694750D01*
X203158464Y-104659352D01*
X203158460Y-104659347D01*
X203100652Y-104601539D01*
X203100647Y-104601535D01*
X203029850Y-104560661D01*
X203029849Y-104560660D01*
X203029848Y-104560660D01*
X202950878Y-104539500D01*
X202869122Y-104539500D01*
X202790152Y-104560660D01*
X202790150Y-104560661D01*
X202790149Y-104560661D01*
X202719352Y-104601535D01*
X202719347Y-104601539D01*
X202661539Y-104659347D01*
X202661535Y-104659352D01*
X202620661Y-104730149D01*
X202620661Y-104730150D01*
X202620660Y-104730152D01*
X202599500Y-104809122D01*
X191312820Y-104809122D01*
X191319685Y-104785744D01*
X191372489Y-104739989D01*
X191441647Y-104730045D01*
X191486000Y-104745396D01*
X191510152Y-104759340D01*
X191589122Y-104780500D01*
X191589124Y-104780500D01*
X191670875Y-104780500D01*
X191670878Y-104780500D01*
X191749848Y-104759340D01*
X191820651Y-104718462D01*
X191878462Y-104660651D01*
X191919340Y-104589848D01*
X191940500Y-104510878D01*
X191940500Y-104429122D01*
X191919340Y-104350152D01*
X191878462Y-104279349D01*
X191820651Y-104221538D01*
X191820650Y-104221537D01*
X191820647Y-104221535D01*
X191749850Y-104180661D01*
X191749849Y-104180660D01*
X191749848Y-104180660D01*
X191670878Y-104159500D01*
X191589122Y-104159500D01*
X191510152Y-104180660D01*
X191510150Y-104180661D01*
X191510149Y-104180661D01*
X191485997Y-104194605D01*
X191418096Y-104211075D01*
X191352070Y-104188221D01*
X191308881Y-104133299D01*
X191300000Y-104087216D01*
X191300000Y-103787165D01*
X191309437Y-103739716D01*
X191334757Y-103678587D01*
X191361632Y-103638367D01*
X192053180Y-102946820D01*
X192114503Y-102913335D01*
X192140861Y-102910501D01*
X192145500Y-102910501D01*
X192212539Y-102930186D01*
X192258294Y-102982990D01*
X192269500Y-103034501D01*
X192269500Y-103110878D01*
X192290660Y-103189848D01*
X192290661Y-103189849D01*
X192290661Y-103189850D01*
X192331535Y-103260647D01*
X192331537Y-103260650D01*
X192331538Y-103260651D01*
X192389349Y-103318462D01*
X192389350Y-103318463D01*
X192389352Y-103318464D01*
X192424750Y-103338901D01*
X192460152Y-103359340D01*
X192539122Y-103380500D01*
X192539124Y-103380500D01*
X192620875Y-103380500D01*
X192620878Y-103380500D01*
X192699848Y-103359340D01*
X192770651Y-103318462D01*
X192777294Y-103311819D01*
X192838617Y-103278334D01*
X192864975Y-103275500D01*
X193747232Y-103275500D01*
X193814271Y-103295185D01*
X193860026Y-103347989D01*
X193869970Y-103417147D01*
X193840945Y-103480703D01*
X193809233Y-103506887D01*
X193796847Y-103514037D01*
X193739037Y-103571847D01*
X193739033Y-103571852D01*
X193698159Y-103642649D01*
X193698159Y-103642650D01*
X193698158Y-103642652D01*
X193676998Y-103721622D01*
X193676998Y-103803378D01*
X193698158Y-103882348D01*
X193698159Y-103882349D01*
X193698159Y-103882350D01*
X193739033Y-103953147D01*
X193739035Y-103953150D01*
X193739036Y-103953151D01*
X193796847Y-104010962D01*
X193867650Y-104051840D01*
X193946620Y-104073000D01*
X193946622Y-104073000D01*
X194028373Y-104073000D01*
X194028376Y-104073000D01*
X194107346Y-104051840D01*
X194178149Y-104010962D01*
X194235960Y-103953151D01*
X194276838Y-103882348D01*
X194297998Y-103803378D01*
X194297998Y-103721622D01*
X194276838Y-103642652D01*
X194235960Y-103571849D01*
X194178149Y-103514038D01*
X194178148Y-103514037D01*
X194165763Y-103506887D01*
X194117548Y-103456320D01*
X194104326Y-103387712D01*
X194130294Y-103322848D01*
X194187208Y-103282320D01*
X194227764Y-103275500D01*
X197412181Y-103275500D01*
X197479220Y-103295185D01*
X197499862Y-103311819D01*
X197632377Y-103444334D01*
X197632390Y-103444349D01*
X197661202Y-103473159D01*
X197661206Y-103473163D01*
X197697255Y-103509213D01*
X197697256Y-103509213D01*
X197697258Y-103509215D01*
X197772788Y-103540501D01*
X197772789Y-103540501D01*
X197905896Y-103540501D01*
X197905905Y-103540500D01*
X198145875Y-103540500D01*
X198145877Y-103540500D01*
X198221407Y-103509215D01*
X198257461Y-103473160D01*
X198333802Y-103396819D01*
X198395125Y-103363334D01*
X198421483Y-103360500D01*
X198430875Y-103360500D01*
X198430878Y-103360500D01*
X198509848Y-103339340D01*
X198580651Y-103298462D01*
X198638462Y-103240651D01*
X198679340Y-103169848D01*
X198700500Y-103090878D01*
X198700500Y-103080841D01*
X198720185Y-103013802D01*
X198772989Y-102968047D01*
X198842147Y-102958103D01*
X198856580Y-102961063D01*
X198929123Y-102980501D01*
X198929126Y-102980501D01*
X199010876Y-102980501D01*
X199010879Y-102980501D01*
X199089849Y-102959341D01*
X199160652Y-102918463D01*
X199218463Y-102860652D01*
X199259341Y-102789849D01*
X199280501Y-102710879D01*
X199280501Y-102629123D01*
X199259725Y-102551585D01*
X199255500Y-102519492D01*
X199255500Y-102312414D01*
X199255500Y-102312412D01*
X199236044Y-102239800D01*
X199207177Y-102189802D01*
X199198457Y-102174699D01*
X199198456Y-102174698D01*
X199198454Y-102174695D01*
X199159117Y-102135358D01*
X199125632Y-102074035D01*
X199130616Y-102004343D01*
X199159117Y-101959995D01*
X199160646Y-101958465D01*
X199160651Y-101958463D01*
X199218462Y-101900652D01*
X199259340Y-101829849D01*
X199280500Y-101750879D01*
X199280500Y-101750874D01*
X199281544Y-101742948D01*
X199309810Y-101679051D01*
X199368134Y-101640579D01*
X199437999Y-101639747D01*
X199492164Y-101671451D01*
X200043119Y-102222406D01*
X200076604Y-102283729D01*
X200071620Y-102353421D01*
X200043119Y-102397768D01*
X200031538Y-102409348D01*
X200031534Y-102409353D01*
X199990660Y-102480150D01*
X199990660Y-102480151D01*
X199990659Y-102480153D01*
X199969499Y-102559123D01*
X199969499Y-102640879D01*
X199990659Y-102719849D01*
X199990660Y-102719850D01*
X199990660Y-102719851D01*
X200031534Y-102790648D01*
X200031536Y-102790651D01*
X200031537Y-102790652D01*
X200089348Y-102848463D01*
X200089349Y-102848464D01*
X200089351Y-102848465D01*
X200107292Y-102858823D01*
X200160151Y-102889341D01*
X200239121Y-102910501D01*
X200239123Y-102910501D01*
X200320874Y-102910501D01*
X200320877Y-102910501D01*
X200399847Y-102889341D01*
X200470650Y-102848463D01*
X200482232Y-102836881D01*
X200543555Y-102803396D01*
X200613247Y-102808380D01*
X200657594Y-102836881D01*
X201117018Y-103296305D01*
X201150503Y-103357628D01*
X201145519Y-103427320D01*
X201136727Y-103445982D01*
X201125660Y-103465150D01*
X201123514Y-103473160D01*
X201104500Y-103544122D01*
X201104500Y-103625878D01*
X201125660Y-103704848D01*
X201125661Y-103704849D01*
X201125661Y-103704850D01*
X201166535Y-103775647D01*
X201166536Y-103775648D01*
X201166538Y-103775651D01*
X201224349Y-103833462D01*
X201295152Y-103874340D01*
X201374122Y-103895500D01*
X201374124Y-103895500D01*
X201455875Y-103895500D01*
X201455878Y-103895500D01*
X201534848Y-103874340D01*
X201578525Y-103849123D01*
X202599500Y-103849123D01*
X202599500Y-103930879D01*
X202620660Y-104009849D01*
X202620661Y-104009850D01*
X202620661Y-104009851D01*
X202661535Y-104080648D01*
X202661537Y-104080651D01*
X202661538Y-104080652D01*
X202719349Y-104138463D01*
X202790152Y-104179341D01*
X202869122Y-104200501D01*
X202869124Y-104200501D01*
X202950875Y-104200501D01*
X202950878Y-104200501D01*
X203029848Y-104179341D01*
X203100651Y-104138463D01*
X203158462Y-104080652D01*
X203199340Y-104009849D01*
X203220500Y-103930879D01*
X203220500Y-103849123D01*
X203199340Y-103770153D01*
X203171321Y-103721622D01*
X203158464Y-103699353D01*
X203158460Y-103699348D01*
X203100652Y-103641540D01*
X203100647Y-103641536D01*
X203029850Y-103600662D01*
X203029849Y-103600661D01*
X203029848Y-103600661D01*
X202950878Y-103579501D01*
X202869122Y-103579501D01*
X202790152Y-103600661D01*
X202790150Y-103600662D01*
X202790149Y-103600662D01*
X202719352Y-103641536D01*
X202719347Y-103641540D01*
X202661539Y-103699348D01*
X202661535Y-103699353D01*
X202620661Y-103770150D01*
X202620661Y-103770151D01*
X202620660Y-103770153D01*
X202599500Y-103849123D01*
X201578525Y-103849123D01*
X201605651Y-103833462D01*
X201663462Y-103775651D01*
X201704340Y-103704848D01*
X201725500Y-103625878D01*
X201725500Y-103544122D01*
X201704340Y-103465152D01*
X201663462Y-103394349D01*
X201656819Y-103387706D01*
X201623334Y-103326383D01*
X201620500Y-103300025D01*
X201620500Y-103262790D01*
X201620499Y-103262787D01*
X201619553Y-103260504D01*
X201619541Y-103260477D01*
X201603045Y-103220648D01*
X201603045Y-103220647D01*
X201590620Y-103190652D01*
X201589215Y-103187260D01*
X201531406Y-103129451D01*
X201361077Y-102959122D01*
X201889501Y-102959122D01*
X201889501Y-103040878D01*
X201910661Y-103119848D01*
X201910662Y-103119849D01*
X201910662Y-103119850D01*
X201951536Y-103190647D01*
X201951538Y-103190650D01*
X201951539Y-103190651D01*
X202009350Y-103248462D01*
X202009351Y-103248463D01*
X202009353Y-103248464D01*
X202030200Y-103260500D01*
X202080153Y-103289340D01*
X202159123Y-103310500D01*
X202159125Y-103310500D01*
X202240876Y-103310500D01*
X202240879Y-103310500D01*
X202319849Y-103289340D01*
X202390652Y-103248462D01*
X202448463Y-103190651D01*
X202448466Y-103190644D01*
X202451624Y-103186531D01*
X202508051Y-103145328D01*
X202577797Y-103141173D01*
X202638718Y-103175385D01*
X202648372Y-103186525D01*
X202651537Y-103190649D01*
X202651538Y-103190651D01*
X202709349Y-103248462D01*
X202709350Y-103248463D01*
X202709352Y-103248464D01*
X202730199Y-103260500D01*
X202780152Y-103289340D01*
X202859122Y-103310500D01*
X202859124Y-103310500D01*
X202940875Y-103310500D01*
X202940878Y-103310500D01*
X203019848Y-103289340D01*
X203090651Y-103248462D01*
X203148462Y-103190651D01*
X203189340Y-103119848D01*
X203210500Y-103040878D01*
X203210500Y-102959122D01*
X203189340Y-102880152D01*
X203154987Y-102820651D01*
X203148464Y-102809352D01*
X203148460Y-102809347D01*
X203090652Y-102751539D01*
X203090647Y-102751535D01*
X203019850Y-102710661D01*
X203019849Y-102710660D01*
X203019848Y-102710660D01*
X202940878Y-102689500D01*
X202859122Y-102689500D01*
X202780152Y-102710660D01*
X202780150Y-102710661D01*
X202780149Y-102710661D01*
X202709352Y-102751535D01*
X202709347Y-102751539D01*
X202651533Y-102809353D01*
X202648368Y-102813478D01*
X202591936Y-102854675D01*
X202522190Y-102858823D01*
X202461273Y-102824605D01*
X202451627Y-102813472D01*
X202448463Y-102809349D01*
X202390653Y-102751539D01*
X202390648Y-102751535D01*
X202319851Y-102710661D01*
X202319850Y-102710660D01*
X202319849Y-102710660D01*
X202240879Y-102689500D01*
X202159123Y-102689500D01*
X202080153Y-102710660D01*
X202080151Y-102710661D01*
X202080150Y-102710661D01*
X202009353Y-102751535D01*
X202009348Y-102751539D01*
X201951540Y-102809347D01*
X201951536Y-102809352D01*
X201910662Y-102880149D01*
X201910662Y-102880150D01*
X201910661Y-102880152D01*
X201889501Y-102959122D01*
X201361077Y-102959122D01*
X200621077Y-102219122D01*
X204839501Y-102219122D01*
X204839501Y-102300878D01*
X204860661Y-102379848D01*
X204860662Y-102379849D01*
X204860662Y-102379850D01*
X204901536Y-102450647D01*
X204901538Y-102450650D01*
X204901539Y-102450651D01*
X204959350Y-102508462D01*
X204959351Y-102508463D01*
X204959353Y-102508464D01*
X204979071Y-102519848D01*
X205030153Y-102549340D01*
X205109123Y-102570500D01*
X205109125Y-102570500D01*
X205190876Y-102570500D01*
X205190879Y-102570500D01*
X205269849Y-102549340D01*
X205340652Y-102508462D01*
X205398463Y-102450651D01*
X205439341Y-102379848D01*
X205460501Y-102300878D01*
X205460501Y-102219122D01*
X205439341Y-102140152D01*
X205410097Y-102089500D01*
X205398465Y-102069352D01*
X205398461Y-102069347D01*
X205340653Y-102011539D01*
X205340648Y-102011535D01*
X205269851Y-101970661D01*
X205269850Y-101970660D01*
X205269849Y-101970660D01*
X205190879Y-101949500D01*
X205109123Y-101949500D01*
X205030153Y-101970660D01*
X205030151Y-101970661D01*
X205030150Y-101970661D01*
X204959353Y-102011535D01*
X204959348Y-102011539D01*
X204901540Y-102069347D01*
X204901536Y-102069352D01*
X204860662Y-102140149D01*
X204860662Y-102140150D01*
X204860661Y-102140152D01*
X204839501Y-102219122D01*
X200621077Y-102219122D01*
X200262748Y-101860793D01*
X200229263Y-101799470D01*
X200234247Y-101729778D01*
X200276119Y-101673845D01*
X200288426Y-101665727D01*
X200335651Y-101638462D01*
X200393462Y-101580651D01*
X200434340Y-101509848D01*
X200455500Y-101430878D01*
X200455500Y-101349122D01*
X200434340Y-101270152D01*
X200427972Y-101259122D01*
X202529500Y-101259122D01*
X202529500Y-101340878D01*
X202550660Y-101419848D01*
X202550661Y-101419849D01*
X202550661Y-101419850D01*
X202591535Y-101490647D01*
X202591537Y-101490650D01*
X202591538Y-101490651D01*
X202649349Y-101548462D01*
X202720152Y-101589340D01*
X202799122Y-101610500D01*
X202799124Y-101610500D01*
X202880875Y-101610500D01*
X202880878Y-101610500D01*
X202959848Y-101589340D01*
X203030651Y-101548462D01*
X203088462Y-101490651D01*
X203129340Y-101419848D01*
X203150500Y-101340878D01*
X203150500Y-101259122D01*
X203129340Y-101180152D01*
X203088462Y-101109349D01*
X203030651Y-101051538D01*
X203030650Y-101051537D01*
X203030647Y-101051535D01*
X202959850Y-101010661D01*
X202959849Y-101010660D01*
X202959848Y-101010660D01*
X202880878Y-100989500D01*
X202799122Y-100989500D01*
X202720152Y-101010660D01*
X202720150Y-101010661D01*
X202720149Y-101010661D01*
X202649352Y-101051535D01*
X202649347Y-101051539D01*
X202591539Y-101109347D01*
X202591535Y-101109352D01*
X202550661Y-101180149D01*
X202550661Y-101180150D01*
X202550660Y-101180152D01*
X202529500Y-101259122D01*
X200427972Y-101259122D01*
X200399236Y-101209350D01*
X200393464Y-101199352D01*
X200393460Y-101199347D01*
X200335652Y-101141539D01*
X200335647Y-101141535D01*
X200264850Y-101100661D01*
X200264849Y-101100660D01*
X200264848Y-101100660D01*
X200185878Y-101079500D01*
X200104122Y-101079500D01*
X200025152Y-101100660D01*
X200025150Y-101100661D01*
X200025149Y-101100661D01*
X199954352Y-101141535D01*
X199954347Y-101141539D01*
X199896537Y-101199349D01*
X199869274Y-101246571D01*
X199818706Y-101294786D01*
X199750099Y-101308008D01*
X199685235Y-101282040D01*
X199674206Y-101272251D01*
X199632740Y-101230785D01*
X199606864Y-101220067D01*
X199580987Y-101209349D01*
X199580986Y-101209348D01*
X199557216Y-101199502D01*
X199557212Y-101199501D01*
X199557211Y-101199501D01*
X197448973Y-101199501D01*
X197381934Y-101179816D01*
X197336179Y-101127012D01*
X197326235Y-101057854D01*
X197355260Y-100994298D01*
X197361292Y-100987820D01*
X197378461Y-100970651D01*
X197419339Y-100899848D01*
X197440499Y-100820878D01*
X197440499Y-100739122D01*
X197419339Y-100660152D01*
X197384984Y-100600647D01*
X197378463Y-100589352D01*
X197378459Y-100589347D01*
X197320651Y-100531539D01*
X197320646Y-100531535D01*
X197249849Y-100490661D01*
X197249848Y-100490660D01*
X197249847Y-100490660D01*
X197170877Y-100469500D01*
X197089121Y-100469500D01*
X197010151Y-100490660D01*
X197010149Y-100490661D01*
X197010148Y-100490661D01*
X196939351Y-100531535D01*
X196939346Y-100531539D01*
X196881538Y-100589347D01*
X196881534Y-100589352D01*
X196840660Y-100660149D01*
X196840660Y-100660150D01*
X196840659Y-100660152D01*
X196819499Y-100739122D01*
X196819499Y-100820878D01*
X196840659Y-100899848D01*
X196840660Y-100899849D01*
X196840660Y-100899850D01*
X196881534Y-100970647D01*
X196881538Y-100970652D01*
X196898706Y-100987820D01*
X196932191Y-101049143D01*
X196927207Y-101118835D01*
X196885335Y-101174768D01*
X196819871Y-101199185D01*
X196811025Y-101199501D01*
X196528973Y-101199501D01*
X196461934Y-101179816D01*
X196416179Y-101127012D01*
X196406235Y-101057854D01*
X196435260Y-100994298D01*
X196441292Y-100987820D01*
X196458461Y-100970651D01*
X196499339Y-100899848D01*
X196520499Y-100820878D01*
X196520499Y-100739122D01*
X196499339Y-100660152D01*
X196464984Y-100600647D01*
X196458463Y-100589352D01*
X196458459Y-100589347D01*
X196400651Y-100531539D01*
X196400646Y-100531535D01*
X196329849Y-100490661D01*
X196329848Y-100490660D01*
X196329847Y-100490660D01*
X196250877Y-100469500D01*
X196169121Y-100469500D01*
X196090151Y-100490660D01*
X196090149Y-100490661D01*
X196090148Y-100490661D01*
X196019351Y-100531535D01*
X196019346Y-100531539D01*
X195961538Y-100589347D01*
X195961534Y-100589352D01*
X195920660Y-100660149D01*
X195920660Y-100660150D01*
X195920659Y-100660152D01*
X195899499Y-100739122D01*
X195899499Y-100820878D01*
X195920659Y-100899848D01*
X195920660Y-100899849D01*
X195920660Y-100899850D01*
X195961534Y-100970647D01*
X195961538Y-100970652D01*
X195978706Y-100987820D01*
X196012191Y-101049143D01*
X196007207Y-101118835D01*
X195965335Y-101174768D01*
X195899871Y-101199185D01*
X195891025Y-101199501D01*
X194532973Y-101199501D01*
X194465934Y-101179816D01*
X194420179Y-101127012D01*
X194410235Y-101057854D01*
X194439260Y-100994298D01*
X194479592Y-100963579D01*
X194579765Y-100915804D01*
X194633141Y-100903728D01*
X195300000Y-100903728D01*
X195300000Y-100650550D01*
X195319685Y-100583511D01*
X195370620Y-100538627D01*
X195726034Y-100369122D01*
X204849501Y-100369122D01*
X204849501Y-100450878D01*
X204870661Y-100529848D01*
X204870662Y-100529849D01*
X204870662Y-100529850D01*
X204911536Y-100600647D01*
X204911538Y-100600650D01*
X204911539Y-100600651D01*
X204969350Y-100658462D01*
X204969351Y-100658463D01*
X204969353Y-100658464D01*
X204972277Y-100660152D01*
X205040153Y-100699340D01*
X205119123Y-100720500D01*
X205119125Y-100720500D01*
X205200876Y-100720500D01*
X205200879Y-100720500D01*
X205279849Y-100699340D01*
X205350652Y-100658462D01*
X205408463Y-100600651D01*
X205449341Y-100529848D01*
X205470501Y-100450878D01*
X205470501Y-100369122D01*
X205449341Y-100290152D01*
X205408463Y-100219349D01*
X205350652Y-100161538D01*
X205350651Y-100161537D01*
X205350648Y-100161535D01*
X205279851Y-100120661D01*
X205279850Y-100120660D01*
X205279849Y-100120660D01*
X205200879Y-100099500D01*
X205119123Y-100099500D01*
X205040153Y-100120660D01*
X205040151Y-100120661D01*
X205040150Y-100120661D01*
X204969353Y-100161535D01*
X204969348Y-100161539D01*
X204911540Y-100219347D01*
X204911536Y-100219352D01*
X204870662Y-100290149D01*
X204870662Y-100290150D01*
X204870661Y-100290152D01*
X204849501Y-100369122D01*
X195726034Y-100369122D01*
X196816093Y-99849248D01*
X202239499Y-99849248D01*
X202239499Y-99950752D01*
X202265771Y-100048797D01*
X202316523Y-100136702D01*
X202388297Y-100208476D01*
X202476202Y-100259228D01*
X202574247Y-100285500D01*
X202574249Y-100285500D01*
X202675749Y-100285500D01*
X202675751Y-100285500D01*
X202773796Y-100259228D01*
X202861701Y-100208476D01*
X202933475Y-100136702D01*
X202984227Y-100048797D01*
X203010499Y-99950752D01*
X203010499Y-99849248D01*
X202984227Y-99751203D01*
X202933475Y-99663298D01*
X202861701Y-99591524D01*
X202773796Y-99540772D01*
X202675751Y-99514500D01*
X202574247Y-99514500D01*
X202508883Y-99532014D01*
X202476201Y-99540772D01*
X202388297Y-99591524D01*
X202388294Y-99591526D01*
X202316525Y-99663295D01*
X202316523Y-99663298D01*
X202265771Y-99751202D01*
X202265771Y-99751203D01*
X202239499Y-99849248D01*
X196816093Y-99849248D01*
X197669713Y-99442137D01*
X197738692Y-99431047D01*
X197762282Y-99437308D01*
X197762302Y-99437236D01*
X197770150Y-99439338D01*
X197770152Y-99439340D01*
X197849122Y-99460500D01*
X197849124Y-99460500D01*
X197886211Y-99460500D01*
X197953250Y-99480185D01*
X197999005Y-99532989D01*
X198005983Y-99552399D01*
X198009184Y-99564345D01*
X198010659Y-99569849D01*
X198010660Y-99569850D01*
X198051534Y-99640647D01*
X198051536Y-99640650D01*
X198051537Y-99640651D01*
X198109348Y-99698462D01*
X198180151Y-99739340D01*
X198259121Y-99760500D01*
X198259123Y-99760500D01*
X198340874Y-99760500D01*
X198340877Y-99760500D01*
X198419847Y-99739340D01*
X198490650Y-99698462D01*
X198548461Y-99640651D01*
X198589339Y-99569848D01*
X198610499Y-99490878D01*
X198610499Y-99409122D01*
X198589339Y-99330152D01*
X198548461Y-99259349D01*
X198512533Y-99223421D01*
X198479048Y-99162098D01*
X198484032Y-99092406D01*
X198525904Y-99036473D01*
X198546828Y-99023820D01*
X198703192Y-98949247D01*
X198772173Y-98938157D01*
X198818564Y-98953782D01*
X198880152Y-98989340D01*
X198959122Y-99010500D01*
X198959124Y-99010500D01*
X199040875Y-99010500D01*
X199040878Y-99010500D01*
X199119848Y-98989340D01*
X199190651Y-98948462D01*
X199248462Y-98890651D01*
X199289340Y-98819848D01*
X199310500Y-98740878D01*
X199310500Y-98740875D01*
X199311561Y-98732818D01*
X199312993Y-98733006D01*
X199330185Y-98674459D01*
X199382989Y-98628704D01*
X199407133Y-98620555D01*
X199484474Y-98603057D01*
X199511838Y-98600000D01*
X206176000Y-98600000D01*
X206243039Y-98619685D01*
G37*
G04 #@! TD.AperFunction*
G04 #@! TD*
D28*
X210299999Y-131200001D02*
X210299999Y-131200001D01*
G75*
G02*
X205799999Y-135700001I-4499999J1D01*
G01*
X119800000Y-135700001D01*
G75*
G02*
X115300000Y-131200001I0J4500001D01*
G01*
X115300000Y-85200001D01*
G75*
G02*
X119800000Y-80700001I4500000J1D01*
G01*
X205799999Y-80700001D01*
G75*
G02*
X210299999Y-85200001I1J-4499999D01*
G01*
X210299999Y-131200001D01*
M02*
