G04 #@! TF.GenerationSoftware,KiCad,Pcbnew,10.0.5+dfsg-1*
G04 #@! TF.CreationDate,2026-09-25T10:09:43+00:00*
G04 #@! TF.ProjectId,glasgow,676c6173-676f-4772-9e6b-696361645f70,rev?*
G04 #@! TF.SameCoordinates,Original*
G04 #@! TF.FileFunction,Copper,L3,Inr*
G04 #@! TF.FilePolarity,Positive*
%FSLAX46Y46*%
G04 Gerber Fmt 4.6, Leading zero omitted, Abs format (unit mm)*
G04 Created by KiCad (PCBNEW 10.0.5+dfsg-1) date 2026-09-25 10:09:43*
%MOMM*%
%LPD*%
G01*
G04 APERTURE LIST*
G04 #@! TA.AperFunction,ComponentPad*
%ADD10C,1.200000*%
G04 #@! TD*
G04 #@! TA.AperFunction,ComponentPad*
%ADD11C,6.400000*%
G04 #@! TD*
G04 #@! TA.AperFunction,ComponentPad*
%ADD12R,1.700000X1.700000*%
G04 #@! TD*
G04 #@! TA.AperFunction,ComponentPad*
%ADD13C,1.700000*%
G04 #@! TD*
G04 #@! TA.AperFunction,ComponentPad*
%ADD14O,2.100000X1.000000*%
G04 #@! TD*
G04 #@! TA.AperFunction,ComponentPad*
%ADD15O,1.600000X1.000000*%
G04 #@! TD*
G04 #@! TA.AperFunction,ViaPad*
%ADD16C,0.300000*%
G04 #@! TD*
G04 #@! TA.AperFunction,ViaPad*
%ADD17C,0.450000*%
G04 #@! TD*
G04 #@! TA.AperFunction,ViaPad*
%ADD18C,0.400000*%
G04 #@! TD*
G04 #@! TA.AperFunction,ViaPad*
%ADD19C,0.600000*%
G04 #@! TD*
G04 #@! TA.AperFunction,Conductor*
%ADD20C,0.200000*%
G04 #@! TD*
G04 #@! TA.AperFunction,Conductor*
%ADD21C,0.400000*%
G04 #@! TD*
G04 #@! TA.AperFunction,Conductor*
%ADD22C,0.250000*%
G04 #@! TD*
G04 #@! TA.AperFunction,Conductor*
%ADD23C,0.500000*%
G04 #@! TD*
G04 #@! TA.AperFunction,Conductor*
%ADD24C,0.300000*%
G04 #@! TD*
G04 #@! TA.AperFunction,Conductor*
%ADD25C,0.090000*%
G04 #@! TD*
G04 #@! TA.AperFunction,Conductor*
%ADD26C,0.600000*%
G04 #@! TD*
G04 #@! TA.AperFunction,Conductor*
%ADD27C,0.120000*%
G04 #@! TD*
G04 #@! TA.AperFunction,Profile*
%ADD28C,0.050000*%
G04 #@! TD*
G04 APERTURE END LIST*
D10*
G04 #@! TO.N,GND*
G04 #@! TO.C,SW1*
X236000000Y-113284000D03*
G04 #@! TO.N,/PG_{VBUS}*
X233000000Y-113284000D03*
G04 #@! TO.N,unconnected-(SW1-B-PadSH)*
X234500000Y-115134000D03*
G04 #@! TD*
D11*
G04 #@! TO.N,GND*
G04 #@! TO.C,H1*
X241000000Y-112000000D03*
G04 #@! TD*
D12*
G04 #@! TO.N,/ADC/REMOTE_COM*
G04 #@! TO.C,J3*
X153000000Y-87725000D03*
D13*
G04 #@! TO.N,GND*
X153000000Y-90265000D03*
G04 #@! TD*
D11*
G04 #@! TO.N,GND*
G04 #@! TO.C,H4*
X155000000Y-66000000D03*
G04 #@! TD*
G04 #@! TO.N,GND*
G04 #@! TO.C,H3*
X155000000Y-112000000D03*
G04 #@! TD*
G04 #@! TO.N,GND*
G04 #@! TO.C,H2*
X241000000Y-66000000D03*
G04 #@! TD*
D14*
G04 #@! TO.N,GND*
G04 #@! TO.C,J1*
X238220000Y-93320000D03*
D15*
X242400000Y-93320000D03*
D14*
X238220000Y-84680000D03*
D15*
X242400000Y-84680000D03*
G04 #@! TD*
D12*
G04 #@! TO.N,GND*
G04 #@! TO.C,J4*
X233000000Y-72000000D03*
D13*
G04 #@! TO.N,Net-(D35-K)*
X233000000Y-69460000D03*
G04 #@! TO.N,/FPGA/~{SYNC}*
X235540000Y-72000000D03*
G04 #@! TO.N,unconnected-(J4-Pin_4-Pad4)*
X235540000Y-69460000D03*
G04 #@! TD*
D16*
G04 #@! TO.N,GND*
X220280000Y-90120000D03*
X205943200Y-76301600D03*
X153050000Y-76500000D03*
X152400000Y-104040000D03*
X232850000Y-93790000D03*
X221680000Y-99480000D03*
X193720000Y-84590000D03*
X190120000Y-64000000D03*
X167720000Y-84270000D03*
X214050000Y-63120000D03*
X195200000Y-103812500D03*
X167950000Y-70860000D03*
X191325000Y-85390000D03*
X220900000Y-94900000D03*
X242387500Y-103200000D03*
X199325000Y-82990000D03*
X231220000Y-91900000D03*
X197390000Y-108100000D03*
X218840000Y-106640000D03*
X197725000Y-87790000D03*
X200820000Y-96120000D03*
X207600000Y-64600000D03*
X229000000Y-87680000D03*
X165030000Y-94570000D03*
X218770000Y-110880000D03*
X229300000Y-67120000D03*
X193500000Y-96460000D03*
X230650000Y-75100000D03*
X225260000Y-83740000D03*
X227020000Y-114570000D03*
X222240000Y-101627500D03*
X215200000Y-84500000D03*
X224390000Y-86690000D03*
X217100000Y-71150000D03*
X229750000Y-110650000D03*
X169400000Y-110200000D03*
X213664800Y-105765600D03*
X196925000Y-83790000D03*
X198525000Y-93390000D03*
X178300000Y-64600000D03*
X212600000Y-96200000D03*
X216330000Y-100910000D03*
X195325000Y-90190000D03*
X217400000Y-93600000D03*
X204170000Y-96430000D03*
X234375000Y-82700000D03*
X197390000Y-109410000D03*
X155350000Y-81422858D03*
X188630000Y-100900000D03*
X171639999Y-101627500D03*
X210920000Y-98200000D03*
X208520000Y-107230000D03*
X192900000Y-98600000D03*
X181800000Y-94970000D03*
X161820000Y-84562500D03*
X155350000Y-84422858D03*
X173190000Y-111900001D03*
X224070000Y-91600000D03*
X219360000Y-71820000D03*
X202525000Y-94990000D03*
X203260000Y-90190000D03*
X234375000Y-84200000D03*
X193830000Y-64120000D03*
X196925000Y-89390000D03*
X154320000Y-71440000D03*
X162470000Y-94540000D03*
X173150000Y-96850000D03*
X205460000Y-98560000D03*
X222470000Y-92280000D03*
X196925000Y-87790000D03*
X176020000Y-76590000D03*
X225400000Y-63100000D03*
X182650000Y-107240000D03*
X201725000Y-92590000D03*
X214480000Y-79630000D03*
X217490000Y-98300000D03*
X197790000Y-97510000D03*
X154900000Y-100400000D03*
X195130000Y-78700000D03*
X190810000Y-110140000D03*
X215450000Y-101498400D03*
X217300000Y-94200000D03*
X197450000Y-100150000D03*
X160727499Y-79000000D03*
X232912500Y-90800000D03*
X205660000Y-81390000D03*
X193600000Y-69350000D03*
X215150000Y-70860000D03*
X183400000Y-110300000D03*
X205100000Y-67800000D03*
X223639411Y-96460589D03*
X201725000Y-85390000D03*
X175580000Y-114500000D03*
X187630000Y-113640000D03*
X156880000Y-106650000D03*
X167780000Y-108670000D03*
X213800000Y-88250000D03*
X160590000Y-92840000D03*
X175560000Y-71018400D03*
X189680000Y-69920000D03*
X168100000Y-67800000D03*
X230010000Y-81830000D03*
X182360000Y-71577200D03*
X194600000Y-71900000D03*
X197725000Y-94190000D03*
X216990000Y-74380000D03*
X196390000Y-97670000D03*
X201220000Y-94610000D03*
X170550000Y-100440000D03*
X228500000Y-88020000D03*
X154250000Y-84900000D03*
X155400000Y-74600000D03*
X185525000Y-90990000D03*
X171350000Y-70860000D03*
X197725000Y-93390000D03*
X202525000Y-82990000D03*
X181060000Y-66220000D03*
X157480000Y-69792499D03*
D17*
X158175000Y-97300000D03*
D16*
X206100000Y-70940000D03*
X215420000Y-63600000D03*
X215990000Y-69280000D03*
X226370000Y-83560000D03*
X190910000Y-78670000D03*
X229960000Y-91647500D03*
X221322501Y-66490000D03*
X161800000Y-98500000D03*
X220800000Y-93100000D03*
X155450000Y-73322858D03*
X172230000Y-67220000D03*
X172450000Y-107240000D03*
X173200000Y-113200000D03*
X185760000Y-71018400D03*
X183400000Y-113500000D03*
X222808800Y-76606400D03*
X218600000Y-92600000D03*
X209120000Y-81270000D03*
X161830000Y-95490000D03*
X153050000Y-101500000D03*
X180850000Y-110880000D03*
X198525000Y-87790000D03*
X196125000Y-87790000D03*
X231400000Y-89290000D03*
X195325000Y-87790000D03*
X220840000Y-91710000D03*
X197380000Y-110710000D03*
X159125000Y-91750000D03*
X180850000Y-84500000D03*
X218840000Y-101627500D03*
X225630000Y-101498400D03*
X209143600Y-76301600D03*
X157890000Y-93310000D03*
X219250000Y-95800000D03*
X226680000Y-83030000D03*
X155350000Y-79922858D03*
X224410000Y-113310000D03*
X174100000Y-97720000D03*
X174950000Y-63430000D03*
X199750000Y-85750000D03*
X193690000Y-105780000D03*
X225350000Y-70860000D03*
X212040000Y-107220000D03*
X190670000Y-101770000D03*
X215300000Y-81700000D03*
X222390000Y-88780000D03*
X197380000Y-69340000D03*
X195800000Y-74287500D03*
X194990000Y-111510000D03*
X240630000Y-94100000D03*
X191700000Y-71300000D03*
X193500000Y-100580000D03*
X210200000Y-83250000D03*
X242700000Y-91670000D03*
X175710000Y-78187500D03*
X199339200Y-103581200D03*
X166660000Y-63460000D03*
X181840000Y-106045000D03*
X186100000Y-91710000D03*
X157530000Y-80780000D03*
X222890000Y-111900000D03*
X212710000Y-83130000D03*
X168220000Y-85735000D03*
X232410000Y-91900000D03*
X221000000Y-101490000D03*
X233420000Y-92000000D03*
X178150000Y-70860000D03*
X182770000Y-76680000D03*
X211750000Y-70860000D03*
X189580000Y-78560000D03*
X191720000Y-113100000D03*
X162690000Y-104980000D03*
X198525000Y-94190000D03*
X178450000Y-101470000D03*
X207650000Y-111900001D03*
X179250000Y-107240000D03*
X226740000Y-101300000D03*
X173230000Y-95700000D03*
X163810000Y-98970000D03*
X213800000Y-86750000D03*
X183300000Y-62910000D03*
X164550000Y-70860000D03*
X204080000Y-106920000D03*
X202600000Y-100520000D03*
X162390000Y-69560000D03*
X178890000Y-111100000D03*
X154690000Y-101520000D03*
X193340000Y-91240000D03*
X222380000Y-107230000D03*
X215560000Y-107240000D03*
X201710000Y-99010000D03*
X168110000Y-66200000D03*
X207040000Y-89180000D03*
X206705200Y-105918000D03*
X209450000Y-107240000D03*
X219500000Y-91700000D03*
X175100000Y-66820000D03*
X200060000Y-110250000D03*
X188170000Y-81490000D03*
X160949999Y-77200000D03*
X166290000Y-76490000D03*
X155775000Y-85650000D03*
D17*
X184835800Y-106629200D03*
D16*
X221950000Y-70860000D03*
X229350000Y-77800000D03*
X203560000Y-98740000D03*
X190000000Y-88770000D03*
X181770000Y-110880000D03*
X224678822Y-93278824D03*
X169070000Y-88700000D03*
X194930000Y-91950000D03*
X156480000Y-87710000D03*
X195325000Y-88590000D03*
X196050000Y-113500000D03*
X220370000Y-62720000D03*
X227710000Y-99310000D03*
X213150000Y-85250000D03*
X190525000Y-82990000D03*
X200980000Y-63530000D03*
X199700000Y-90400000D03*
X239740000Y-88620000D03*
X189382400Y-71577200D03*
X190525000Y-89390000D03*
X175850000Y-107240000D03*
X225890000Y-107250000D03*
X169050000Y-107240000D03*
X165210000Y-84562500D03*
X196925000Y-90190000D03*
X169720000Y-81980000D03*
X219100000Y-94930000D03*
X224980000Y-97910000D03*
X196125000Y-86190000D03*
X218610000Y-100820000D03*
X219000000Y-91250000D03*
X236640000Y-102050000D03*
X213800000Y-89750000D03*
X219820000Y-86280000D03*
X201550000Y-70860000D03*
X196925000Y-84590000D03*
X168240000Y-107280000D03*
X177880000Y-81430000D03*
X172050000Y-92850000D03*
X210200000Y-81200000D03*
X186610000Y-81430000D03*
X221340000Y-91180000D03*
X195325000Y-93390000D03*
X212560000Y-71040000D03*
X217800000Y-85010000D03*
X174750000Y-70860000D03*
X181550000Y-70860000D03*
X202650000Y-107240000D03*
X198500000Y-112420000D03*
X242387501Y-80500000D03*
X194530000Y-85390000D03*
X216865200Y-105968800D03*
X188410000Y-86160000D03*
X163980000Y-63530000D03*
X235760000Y-88360000D03*
X229160000Y-93430000D03*
X165650000Y-107240000D03*
X171180000Y-82790000D03*
X183525000Y-94990000D03*
X173150000Y-67220000D03*
X232210000Y-109370000D03*
X220280000Y-79970000D03*
X162500000Y-101920000D03*
X169677499Y-111610000D03*
X199325000Y-93390000D03*
X158290000Y-89250000D03*
X233240000Y-100030000D03*
X153210000Y-96260000D03*
X184220000Y-63470000D03*
X222360589Y-93460589D03*
X161250000Y-67200000D03*
X227140000Y-111550000D03*
X170690000Y-78250000D03*
X215900000Y-111090000D03*
X224240000Y-110370000D03*
X171640000Y-106045000D03*
X203555600Y-102616000D03*
X216170000Y-71900000D03*
X217800000Y-64900000D03*
X206677499Y-111610000D03*
X197725000Y-91790000D03*
X156960000Y-90540000D03*
X228300000Y-90200000D03*
X201676000Y-102565200D03*
X190300000Y-111090000D03*
D17*
X223900000Y-89000000D03*
D16*
X171100000Y-85650000D03*
X198760000Y-99250000D03*
X228900000Y-81750000D03*
X177100000Y-101350000D03*
X210200000Y-87750000D03*
X163670000Y-96420000D03*
X199510000Y-99230000D03*
X176010000Y-100950000D03*
X156190000Y-89960000D03*
X164280000Y-66530000D03*
X233850000Y-101142499D03*
X173750000Y-101270000D03*
X158170000Y-80130000D03*
X159860000Y-105030000D03*
X177790000Y-78567500D03*
X192130000Y-86990000D03*
X230700000Y-70480000D03*
X179171600Y-71577200D03*
X185890000Y-111900000D03*
X217810000Y-66199999D03*
X156960000Y-91460000D03*
X209680000Y-98190000D03*
X168960800Y-71374000D03*
X172620001Y-83077500D03*
X161390000Y-79770000D03*
X210100000Y-113950000D03*
X196125000Y-89390000D03*
X213990000Y-111280000D03*
X219600000Y-94930000D03*
X166310000Y-83650000D03*
X213010000Y-100910000D03*
X190980000Y-102560000D03*
X234437500Y-76650000D03*
X181840000Y-101627500D03*
X160420000Y-80860000D03*
X199310000Y-108060000D03*
X195325000Y-94990000D03*
X226212400Y-76454000D03*
X202525000Y-89390000D03*
X178470000Y-107230000D03*
X217400000Y-92700000D03*
X153050000Y-79040000D03*
X231620000Y-100190000D03*
X220350000Y-113670000D03*
X194740000Y-75700000D03*
X217850000Y-110880000D03*
X184060000Y-83830000D03*
X209230000Y-67220000D03*
X193110000Y-80470000D03*
X166840000Y-95490000D03*
X214426800Y-102870000D03*
X212500000Y-92500000D03*
X164130000Y-110550000D03*
X210150000Y-67220000D03*
X207040000Y-93390000D03*
X186050000Y-107240000D03*
X197340000Y-70440000D03*
X166910000Y-115300000D03*
X185240000Y-101627500D03*
X212760000Y-88500000D03*
X224110000Y-66810000D03*
X179410000Y-101000000D03*
X218550000Y-108790000D03*
X158800000Y-74300000D03*
X197725000Y-94990000D03*
X212580000Y-114500000D03*
X232110000Y-85240000D03*
X168800000Y-90740000D03*
X189240000Y-67800000D03*
X221900000Y-94300000D03*
X233300000Y-98400000D03*
X170600000Y-64600000D03*
X162730000Y-99300000D03*
X220800000Y-96420000D03*
X196680000Y-77080000D03*
X175480000Y-83010000D03*
X175040000Y-107300000D03*
X178970000Y-114660000D03*
X228850000Y-89350000D03*
X164060000Y-84562500D03*
X221700000Y-97700000D03*
X225750000Y-99550000D03*
X219500000Y-94100000D03*
X163810000Y-101170000D03*
X164590000Y-96420000D03*
X231477501Y-74250000D03*
X233100000Y-89500000D03*
X184950000Y-70860000D03*
X158350000Y-83480000D03*
X199340000Y-74490000D03*
X199330000Y-110120000D03*
X228040000Y-74590000D03*
X230540000Y-95090000D03*
X160380000Y-100810000D03*
X217900000Y-88300000D03*
X170600000Y-67800000D03*
X208550000Y-85900000D03*
X231420000Y-83390000D03*
X214017767Y-67542524D03*
X182870000Y-66470000D03*
X226466400Y-71831200D03*
X222260589Y-98860589D03*
X218500000Y-94930000D03*
X215900000Y-76657200D03*
X194525000Y-94990000D03*
X235760000Y-85450000D03*
X191620000Y-103560000D03*
X211937600Y-101803200D03*
X218500000Y-95800000D03*
X193350000Y-92300000D03*
X180800000Y-64900000D03*
X210300000Y-93750000D03*
X203140000Y-95930000D03*
X192030000Y-97410000D03*
X168690000Y-94600000D03*
X218900000Y-96200000D03*
X201701400Y-106629200D03*
X160520000Y-94600000D03*
X191950000Y-102560000D03*
X179410000Y-69430000D03*
X203350000Y-113160000D03*
X155550000Y-71530000D03*
X192610000Y-81390000D03*
X199360000Y-66730000D03*
X170150000Y-115340000D03*
X192200000Y-99500000D03*
X185900000Y-110300000D03*
X233800000Y-105950000D03*
X190020000Y-114570000D03*
X242387501Y-82400000D03*
X172080000Y-97230000D03*
X196125000Y-90990000D03*
X220200000Y-81170000D03*
X170240000Y-87210000D03*
X205110000Y-66200000D03*
X198525000Y-91790000D03*
X184840000Y-67720000D03*
X160949999Y-75800000D03*
X218550000Y-70860000D03*
X195200000Y-109609999D03*
X193590000Y-68040000D03*
X188670000Y-107100000D03*
X242387500Y-97500000D03*
X225520000Y-88800000D03*
X173600000Y-78040000D03*
X164210000Y-108030000D03*
X181530000Y-86990000D03*
X163310000Y-82460000D03*
X212547200Y-76606400D03*
X199650000Y-97637600D03*
X181870000Y-92440000D03*
X234910000Y-105870000D03*
X161210000Y-81780000D03*
X221400000Y-94600000D03*
X220900000Y-93700000D03*
X208450000Y-90450000D03*
X219500000Y-92800000D03*
X192550000Y-89760000D03*
X240550000Y-70910000D03*
X209150000Y-111130000D03*
X154125000Y-79812858D03*
X179080000Y-65100000D03*
X196925000Y-94190000D03*
X218600000Y-93500000D03*
X188580000Y-87860000D03*
X196170000Y-102410000D03*
X220170000Y-99680000D03*
X231000000Y-87680000D03*
X221039411Y-86660589D03*
X204950000Y-70860000D03*
X235400000Y-95190000D03*
X216916000Y-102666800D03*
X165830000Y-100790000D03*
X208490000Y-93900000D03*
X216600000Y-94200000D03*
X204590000Y-96820000D03*
X206180000Y-101000000D03*
X200125000Y-94990000D03*
X165350000Y-71018400D03*
X193880000Y-97820000D03*
X205240000Y-101498400D03*
X220270000Y-112330000D03*
X232840000Y-96250000D03*
X175700000Y-113500000D03*
X162580000Y-108600000D03*
X173080000Y-100780000D03*
X199880000Y-106620000D03*
X192230000Y-75180000D03*
X170990000Y-98630000D03*
X203850000Y-88250000D03*
X212390000Y-110450000D03*
X212700000Y-94300000D03*
X167980000Y-97200000D03*
X228290000Y-107720000D03*
X242387500Y-95600000D03*
X192637500Y-66425000D03*
X160655000Y-95810000D03*
X222670000Y-79320000D03*
X184322501Y-66490000D03*
X211900000Y-101020000D03*
X232912500Y-87200000D03*
X179530000Y-76470000D03*
X239210000Y-73510000D03*
X200761600Y-105410000D03*
X166812501Y-93437500D03*
X177210000Y-73630000D03*
X197150000Y-102900000D03*
X205240000Y-107250000D03*
X232120000Y-89500000D03*
X242387501Y-76700000D03*
X211023200Y-105460800D03*
X196925000Y-90990000D03*
X193650000Y-75200000D03*
X158990000Y-64680000D03*
X170120000Y-85250000D03*
X194060000Y-87430000D03*
X153050000Y-75230000D03*
X164840000Y-101627500D03*
X196125000Y-94190000D03*
X215020000Y-113850000D03*
X183525000Y-86990000D03*
X186850000Y-95450000D03*
X196125000Y-88590000D03*
X171210000Y-95150000D03*
X200790000Y-113660000D03*
X192637500Y-106475000D03*
X194950000Y-64600000D03*
X162812500Y-84562500D03*
X175040000Y-101627500D03*
X166220000Y-78840000D03*
X218850000Y-89890000D03*
X193710000Y-73590000D03*
X242387500Y-101300000D03*
X193725000Y-93390000D03*
X205100000Y-111550000D03*
X178300000Y-89000000D03*
X176930000Y-114330000D03*
X219500000Y-90750000D03*
X205450000Y-96680000D03*
X191400000Y-100780000D03*
X201170000Y-97820000D03*
X215300000Y-64600000D03*
X235370000Y-84220000D03*
X188350000Y-70860000D03*
X193725000Y-85390000D03*
X239350000Y-92550000D03*
X200740000Y-73380000D03*
X212110000Y-67060000D03*
X195270000Y-66570000D03*
X224028000Y-106019600D03*
X213930000Y-114330000D03*
X165970000Y-80650001D03*
X224400000Y-95000000D03*
X223780000Y-78510000D03*
X206806800Y-102768400D03*
X192820000Y-79470000D03*
X218500000Y-94200000D03*
X221200000Y-92500000D03*
X222760000Y-71018400D03*
X190525000Y-94990000D03*
X172290000Y-76080000D03*
X205560000Y-93950000D03*
X197400000Y-66740000D03*
X240800000Y-71390000D03*
X216678822Y-93378822D03*
X210500000Y-100750000D03*
X171240000Y-108760000D03*
X197400000Y-106810000D03*
X168170000Y-82350000D03*
X153030000Y-93960000D03*
X233115000Y-88500000D03*
X221600000Y-67900000D03*
X189450000Y-107240000D03*
X211640000Y-110560000D03*
X218500000Y-91750000D03*
X229675000Y-112150000D03*
X210200000Y-92250001D03*
X196925000Y-88590000D03*
X209710000Y-69720000D03*
X172212000Y-71577200D03*
X208750000Y-101904800D03*
X219300000Y-93500000D03*
X225778859Y-97223223D03*
X192990000Y-97620000D03*
X193725000Y-82990000D03*
X216930000Y-76540000D03*
X176990000Y-111280000D03*
X202336400Y-76606400D03*
X175950000Y-67750000D03*
X215190000Y-108800000D03*
X163550000Y-112500000D03*
X226500000Y-95800000D03*
D17*
X164775025Y-106773787D03*
D16*
X159400001Y-103097498D03*
X162199999Y-107450000D03*
X197400000Y-68050000D03*
X204880000Y-100630000D03*
X198640000Y-114310000D03*
X158800000Y-68590001D03*
X194130000Y-110860000D03*
X173200000Y-94600000D03*
X202150000Y-71040000D03*
X226250000Y-90000000D03*
X219405200Y-76454000D03*
X169260000Y-76320000D03*
X159650000Y-72850000D03*
X224282000Y-102717600D03*
X199950000Y-96000000D03*
X195325000Y-89390000D03*
X160300000Y-102880000D03*
X162910000Y-98050000D03*
X199410000Y-70380000D03*
X200550000Y-86600000D03*
X169170000Y-92730000D03*
X231980000Y-79160000D03*
X242387501Y-74800000D03*
X217420000Y-94970000D03*
X211750000Y-80750000D03*
X193610000Y-70650000D03*
X153050000Y-100230000D03*
X211023200Y-102819200D03*
X242387500Y-99400000D03*
X207600000Y-67800000D03*
X170140000Y-86210000D03*
X168250000Y-101470000D03*
X190550000Y-67800000D03*
X208350000Y-70860000D03*
X172000000Y-79197500D03*
X184090000Y-85560000D03*
X231950000Y-78600000D03*
X199350000Y-64660000D03*
X208760000Y-101270000D03*
X195800000Y-68490001D03*
X209160000Y-71460000D03*
X171370000Y-107130000D03*
X189280000Y-75900000D03*
X185760000Y-76610000D03*
X242387501Y-78600000D03*
X185525000Y-82990000D03*
X193500000Y-78450000D03*
X221500000Y-92900000D03*
X198525000Y-94990000D03*
X223200000Y-101080000D03*
X175400000Y-94050000D03*
X182840000Y-100910000D03*
X177070000Y-63770000D03*
X210200000Y-89250000D03*
X191325000Y-92590000D03*
X212000000Y-63440000D03*
X162750000Y-96420000D03*
X174140000Y-111410000D03*
X172220000Y-81020000D03*
X169150000Y-89310000D03*
X220300000Y-110900000D03*
X178420000Y-63600000D03*
X232400000Y-92400000D03*
X219630000Y-114330000D03*
X217100000Y-91700000D03*
X188990000Y-91400000D03*
X193725000Y-94190000D03*
X160000000Y-85120000D03*
G04 #@! TO.N,/IO Banks/Bank C/PG*
X179500000Y-114500000D03*
G04 #@! TO.N,+3V3*
X196850000Y-71150000D03*
X194526000Y-90990000D03*
X198525000Y-89390000D03*
X198525000Y-86990000D03*
X216400000Y-64650000D03*
X163310000Y-83420000D03*
X234910000Y-95190000D03*
X194000000Y-64540000D03*
X171200000Y-86200000D03*
X198525000Y-90990000D03*
X229700000Y-93850000D03*
X225820000Y-81540000D03*
X198900000Y-103800000D03*
X194525000Y-89390000D03*
X169160000Y-86220000D03*
D17*
X194600000Y-72930000D03*
D16*
X218660589Y-97239411D03*
X174600000Y-114500000D03*
X224640000Y-86100000D03*
X223039411Y-94139411D03*
X211600000Y-114500000D03*
X216000000Y-92700000D03*
X221400000Y-98100000D03*
X234900000Y-105209999D03*
X198650000Y-78850000D03*
X197725000Y-90990000D03*
X199880000Y-105660000D03*
X199100000Y-114650000D03*
X195325500Y-90990000D03*
X197725000Y-89390000D03*
X193500000Y-99620000D03*
X224500000Y-92100000D03*
X220650000Y-87300000D03*
X213800000Y-95749999D03*
X194525000Y-88590000D03*
X162500000Y-97750000D03*
X179400000Y-64700000D03*
G04 #@! TO.N,/LED_CY*
X220795736Y-90205736D03*
X235750000Y-90750000D03*
X220690000Y-101090000D03*
D17*
G04 #@! TO.N,+5V*
X235700000Y-84700000D03*
X230475000Y-89237500D03*
X232200000Y-93800000D03*
X160900000Y-80300000D03*
X223200000Y-78900000D03*
X232200000Y-96450000D03*
X162300000Y-77400000D03*
X231800000Y-85800000D03*
X211400000Y-95900000D03*
D16*
X159570000Y-107950000D03*
D17*
X223900000Y-83600000D03*
D16*
X231025000Y-100505000D03*
G04 #@! TO.N,/PG_{VBUS}*
X230650000Y-109850000D03*
X229900000Y-82999999D03*
G04 #@! TO.N,/USB/VUSB*
X230610000Y-82060000D03*
D18*
X232825000Y-84200000D03*
D16*
G04 #@! TO.N,/DRDY*
X201725000Y-94990000D03*
X172609999Y-93500000D03*
G04 #@! TO.N,/COPI*
X200925000Y-94990000D03*
X174600000Y-95200000D03*
G04 #@! TO.N,/FPGA/RAM + LVDS/DETECT*
X210100000Y-94250000D03*
X201300000Y-96250000D03*
G04 #@! TO.N,/SCLK*
X174609999Y-94050000D03*
X196925000Y-94990000D03*
G04 #@! TO.N,/FLAGC*
X200600000Y-97350000D03*
G04 #@! TO.N,/SCL*
X216300000Y-68000000D03*
X211015668Y-110384332D03*
X193170000Y-105850000D03*
X193800000Y-111205000D03*
X219100000Y-98900000D03*
X193725000Y-94990000D03*
X216248750Y-73900000D03*
X232850000Y-98450000D03*
X163650000Y-110400000D03*
X174100000Y-110950000D03*
X200440000Y-73820000D03*
X211500000Y-100800000D03*
X194800000Y-66800000D03*
X158600000Y-94200000D03*
X164100000Y-99400000D03*
X182300000Y-67250000D03*
X217550000Y-85400000D03*
G04 #@! TO.N,/FPGA/U3*
X240300000Y-94700000D03*
X193430000Y-97720000D03*
G04 #@! TO.N,/FPGA/U4*
X241000000Y-94555000D03*
X192800000Y-98160000D03*
G04 #@! TO.N,/NAFE_{~{RST}}*
X191325000Y-94990000D03*
X174609999Y-97400000D03*
X192786000Y-96520000D03*
G04 #@! TO.N,/IO Banks/A.DIR0*
X226070000Y-101000000D03*
G04 #@! TO.N,/IO Banks/A.Q0*
X227090000Y-101737500D03*
G04 #@! TO.N,/CIPO*
X172619998Y-94600000D03*
X200925000Y-94190000D03*
G04 #@! TO.N,/~{ALERT}*
X175200000Y-94500000D03*
X211930000Y-110210000D03*
X209296000Y-68021200D03*
X200125000Y-94190000D03*
X177350000Y-66750000D03*
X211550000Y-92170000D03*
X174930000Y-109800000D03*
X211700000Y-69250000D03*
G04 #@! TO.N,/OE*
X199325000Y-94190000D03*
G04 #@! TO.N,/FLAGA*
X201800000Y-97950000D03*
G04 #@! TO.N,/FPGA/SYNCBALL*
X193750000Y-82000000D03*
X192925000Y-94190000D03*
G04 #@! TO.N,/FPGA/U5*
X192800000Y-97100000D03*
X241100000Y-93800000D03*
G04 #@! TO.N,/IO Banks/C.DIR0*
X190500000Y-100900000D03*
G04 #@! TO.N,/IO Banks/C.Q0*
X190159600Y-101752400D03*
G04 #@! TO.N,/IO Banks/A.DIR2*
X204200000Y-95750000D03*
X219265000Y-101100000D03*
X204220000Y-94320000D03*
G04 #@! TO.N,/IO Banks/A.Q2*
X220290000Y-101300000D03*
X204910000Y-97160000D03*
X204230000Y-93590000D03*
G04 #@! TO.N,/IO Banks/A.DIR1*
X222670000Y-101100000D03*
G04 #@! TO.N,/INTB*
X172609999Y-96800000D03*
X200125000Y-93390000D03*
X200355200Y-96266000D03*
G04 #@! TO.N,/CLKREF*
X220260000Y-96900000D03*
X197590000Y-97090000D03*
G04 #@! TO.N,/NAFE_{~{CS}}*
X196125000Y-93390000D03*
X172609999Y-95700000D03*
G04 #@! TO.N,Net-(U10-DIR)*
X192550000Y-92150000D03*
X242570000Y-92150000D03*
G04 #@! TO.N,/IO Banks/C.Q1*
X186690000Y-101737500D03*
G04 #@! TO.N,/IO Banks/C.DIR2*
X182300000Y-101000000D03*
G04 #@! TO.N,/IO Banks/C.Q2*
X183300000Y-101000000D03*
G04 #@! TO.N,/IO Banks/A.DIR4*
X204900000Y-98500000D03*
X204930000Y-93620000D03*
X212600000Y-101200000D03*
G04 #@! TO.N,/IO Banks/A.Q1*
X204890000Y-96190000D03*
X204890000Y-94440000D03*
X223690000Y-101300000D03*
G04 #@! TO.N,/SYNC*
X174609999Y-96250000D03*
X200125000Y-92590000D03*
G04 #@! TO.N,/MCU_~{RST}*
X199325000Y-92590000D03*
X220880000Y-91060000D03*
X161810000Y-83400000D03*
G04 #@! TO.N,/A1*
X196925000Y-92590000D03*
G04 #@! TO.N,/A0*
X196125000Y-92590000D03*
G04 #@! TO.N,/WR*
X223520000Y-93530000D03*
X195325000Y-92590000D03*
X196550000Y-96450000D03*
G04 #@! TO.N,/SDA*
X194400000Y-110500000D03*
X217500000Y-84650000D03*
X157900000Y-94200000D03*
X221125000Y-99475000D03*
X193750000Y-105200000D03*
X194900000Y-66250000D03*
X200440000Y-74270000D03*
X163858554Y-110928794D03*
X182350000Y-66400000D03*
X216600000Y-67500000D03*
X172100000Y-110550000D03*
X217455000Y-98755000D03*
X162900000Y-98500000D03*
X211000000Y-100800000D03*
X211000000Y-110900000D03*
X216710000Y-73960000D03*
X194525000Y-92590000D03*
G04 #@! TO.N,/FPGA/U1*
X186070000Y-82090000D03*
X192925000Y-92590000D03*
X235700000Y-82550000D03*
G04 #@! TO.N,/IO Banks/C.DIR1*
X185700000Y-101000000D03*
G04 #@! TO.N,/IO Banks/C.Q4*
X176660000Y-101230000D03*
G04 #@! TO.N,/IO Banks/A.Q7*
X202525000Y-91790000D03*
X202750000Y-100950000D03*
G04 #@! TO.N,/IO Banks/A.Q4*
X205900000Y-98750000D03*
X205790000Y-94390000D03*
X213490000Y-101100000D03*
G04 #@! TO.N,/IO Banks/A.DIR3*
X203530000Y-95620000D03*
X203530000Y-91600000D03*
X215865000Y-100900000D03*
G04 #@! TO.N,/FLAGD*
X200125000Y-91790000D03*
G04 #@! TO.N,/BOOT0*
X194925000Y-100175000D03*
X199200000Y-96000000D03*
G04 #@! TO.N,/CLKIF*
X219260000Y-97880000D03*
X197250000Y-97680000D03*
G04 #@! TO.N,/RD*
X224930000Y-94560000D03*
X196400000Y-97200000D03*
X197450000Y-84200000D03*
G04 #@! TO.N,/FLAGB*
X201460000Y-97370000D03*
X195500000Y-96500000D03*
G04 #@! TO.N,/PKTEND*
X194160000Y-92160000D03*
G04 #@! TO.N,/FPGA/U2*
X192925000Y-91790000D03*
X186850000Y-82100000D03*
X238400000Y-81450000D03*
G04 #@! TO.N,/IO Banks/C.Q3*
X179900000Y-100950000D03*
G04 #@! TO.N,/IO Banks/C.DIR4*
X175500000Y-100900000D03*
G04 #@! TO.N,/IO Banks/C.DIR7*
X165300000Y-100950000D03*
G04 #@! TO.N,/IO Banks/B.DIR0*
X202525000Y-90990000D03*
X201900000Y-77200000D03*
G04 #@! TO.N,/IO Banks/A.DIR7*
X202265000Y-100925000D03*
X201725000Y-90990000D03*
G04 #@! TO.N,/IO Banks/A.Q3*
X204010000Y-91620000D03*
X216910000Y-100910000D03*
X204095000Y-97265000D03*
G04 #@! TO.N,/IO Banks/A.DIR5*
X209070000Y-100900000D03*
G04 #@! TO.N,/IO Banks/A.Q5*
X210040000Y-100900000D03*
G04 #@! TO.N,/IO Banks/C.DIR5*
X172550000Y-100400000D03*
G04 #@! TO.N,/IO Banks/C.Q5*
X173090000Y-101320000D03*
G04 #@! TO.N,/IO Banks/C.DIR3*
X178865000Y-101035000D03*
X188850000Y-94800000D03*
X192125000Y-90990000D03*
G04 #@! TO.N,/IO Banks/C.Q7*
X166300000Y-100750000D03*
G04 #@! TO.N,/IO Banks/D.Q0*
X190525000Y-90990000D03*
X187770000Y-90760000D03*
X187250000Y-81480000D03*
G04 #@! TO.N,/IO Banks/B.DIR4*
X202525000Y-90190000D03*
X215090000Y-79370000D03*
X214870000Y-89440000D03*
G04 #@! TO.N,/IO Banks/B.Q0*
X201725000Y-90190000D03*
X201000000Y-77200000D03*
G04 #@! TO.N,/IO Banks/B.DIR1*
X204300000Y-90500000D03*
X200925000Y-90190000D03*
X205300000Y-77200000D03*
G04 #@! TO.N,/IO Banks/A.Q6*
X206690000Y-100910000D03*
X206680000Y-93100000D03*
G04 #@! TO.N,/IO Banks/A.DIR6*
X205660000Y-100960000D03*
G04 #@! TO.N,+1V1*
X198525000Y-90190000D03*
X195725000Y-86990000D03*
X196525000Y-86990000D03*
X197725000Y-90190000D03*
X225380000Y-98340000D03*
X211480000Y-98180000D03*
X196125000Y-90190000D03*
X197920000Y-100540000D03*
G04 #@! TO.N,+2V5*
X194525000Y-90190000D03*
X231930000Y-100630000D03*
X235450000Y-88000000D03*
X197725000Y-86990000D03*
G04 #@! TO.N,/IO Banks/C.Q6*
X190000000Y-91400000D03*
X171340000Y-100750000D03*
X193340000Y-90280000D03*
G04 #@! TO.N,/IO Banks/C.DIR6*
X170090000Y-100440000D03*
G04 #@! TO.N,/IO Banks/D.Q1*
X189890000Y-89990000D03*
X188690000Y-81480000D03*
G04 #@! TO.N,/IO Banks/D.DIR0*
X187710000Y-81480000D03*
X191325000Y-90190000D03*
G04 #@! TO.N,/IO Banks/D.Q4*
X189060000Y-79520000D03*
X190525000Y-90190000D03*
G04 #@! TO.N,/IO Banks/B.Q4*
X213895000Y-79895000D03*
X201725000Y-89390000D03*
X211260000Y-90023576D03*
G04 #@! TO.N,/IO Banks/B.Q1*
X204320000Y-89230000D03*
X200925000Y-89390000D03*
X204300000Y-77200000D03*
G04 #@! TO.N,/IO Banks/B.Q2*
X206490000Y-89190000D03*
X207700000Y-77200000D03*
X200570000Y-89110000D03*
G04 #@! TO.N,/IO Banks/B.DIR2*
X207490000Y-89200000D03*
X208710000Y-77200000D03*
X199780000Y-89790000D03*
G04 #@! TO.N,/IO Banks/D.Q2*
X193460000Y-89680000D03*
X193230000Y-80930000D03*
G04 #@! TO.N,/IO Banks/D.DIR2*
X192000000Y-80350000D03*
X192925000Y-89390000D03*
G04 #@! TO.N,/IO Banks/D.DIR1*
X192125000Y-89390000D03*
X191980000Y-81450000D03*
G04 #@! TO.N,/IO Banks/D.DIR4*
X191325000Y-89390000D03*
X191090000Y-79520000D03*
G04 #@! TO.N,/IO Banks/B.DIR6*
X202525000Y-88590000D03*
G04 #@! TO.N,/IO Banks/B.Q6*
X201725000Y-88590000D03*
G04 #@! TO.N,/IO Banks/B.DIR5*
X212740000Y-87900000D03*
X200925000Y-88590000D03*
X213350000Y-81060000D03*
G04 #@! TO.N,/IO Banks/B.DIR3*
X211420000Y-89290000D03*
X212100000Y-77200000D03*
X200125000Y-88590000D03*
G04 #@! TO.N,/IO Banks/B.Q3*
X211100000Y-77200000D03*
X211270000Y-90500000D03*
X199790000Y-88990000D03*
G04 #@! TO.N,/FPGA/RAM + LVDS/VIO_{AUX}*
X197725000Y-88590000D03*
X198525000Y-88590000D03*
X213800000Y-81750000D03*
G04 #@! TO.N,/IO Banks/D.DIR3*
X193410000Y-80080000D03*
X193725000Y-88590000D03*
G04 #@! TO.N,/IO Banks/D.Q3*
X192500000Y-80400000D03*
X192925000Y-88590000D03*
G04 #@! TO.N,/IO Banks/D.Q5*
X192125000Y-88590000D03*
X191940000Y-79520000D03*
G04 #@! TO.N,/IO Banks/D.DIR6*
X191325000Y-88590000D03*
X190190000Y-78710000D03*
G04 #@! TO.N,/IO Banks/D.Q6*
X188990000Y-78480000D03*
X190525000Y-88590000D03*
G04 #@! TO.N,/IO Banks/B.DIR7*
X204190000Y-87860000D03*
G04 #@! TO.N,/IO Banks/B.Q7*
X203875027Y-87527523D03*
G04 #@! TO.N,/IO Banks/B.Q5*
X212170000Y-81051400D03*
X211480000Y-88650000D03*
X203430000Y-88745000D03*
G04 #@! TO.N,+1V8*
X212500000Y-95250000D03*
X209700000Y-80200000D03*
X185525000Y-91990000D03*
X194525000Y-86990000D03*
X194525000Y-87790000D03*
X185525000Y-83990000D03*
X184525000Y-94990000D03*
D17*
X220300000Y-80500000D03*
X194600000Y-80200000D03*
D16*
X184525000Y-86990000D03*
G04 #@! TO.N,/IO Banks/D.DIR5*
X192125000Y-87790000D03*
X192440000Y-79100000D03*
G04 #@! TO.N,/IO Banks/D.DIR7*
X191325000Y-87790000D03*
X191520000Y-78660000D03*
G04 #@! TO.N,/IO Banks/D.Q7*
X190525000Y-87790000D03*
X190720000Y-78130000D03*
G04 #@! TO.N,/FPGA/RAM + LVDS/Z13_P*
X215750901Y-87859099D03*
X200925000Y-86990000D03*
G04 #@! TO.N,/FPGA/RAM + LVDS/Z15_P*
X211850000Y-87800000D03*
X200125000Y-86990000D03*
G04 #@! TO.N,/FPGA/RAM + LVDS/Z15_N*
X211500000Y-88150000D03*
X199325000Y-86990000D03*
G04 #@! TO.N,/FPGA/RAM + LVDS/Z11_P*
X202525000Y-86190000D03*
X211797780Y-86643280D03*
G04 #@! TO.N,/FPGA/RAM + LVDS/Z11_N*
X211479582Y-86961478D03*
X201725000Y-86190000D03*
G04 #@! TO.N,/FPGA/RAM + LVDS/Z13_N*
X216069099Y-87540901D03*
X200925000Y-86190000D03*
G04 #@! TO.N,/FPGA/RAM + LVDS/Z9_P*
X215040901Y-86190000D03*
X200125000Y-86190000D03*
G04 #@! TO.N,/FPGA/RAM + LVDS/Z7_P*
X211689099Y-85470901D03*
X199325000Y-86190000D03*
G04 #@! TO.N,/D2*
X198440000Y-99669600D03*
X198560000Y-97420000D03*
G04 #@! TO.N,/FPGA/SYNSYN*
X196920000Y-86190000D03*
X241240000Y-71610000D03*
X197330000Y-76910000D03*
G04 #@! TO.N,/FPGA/TDO*
X161250000Y-81270000D03*
X194600000Y-79350000D03*
X155100000Y-101250000D03*
G04 #@! TO.N,/FPGA/RAM + LVDS/CK1*
X186615000Y-85780000D03*
X189865000Y-85980000D03*
G04 #@! TO.N,/FPGA/RAM + LVDS/Z9_N*
X200925000Y-85390000D03*
X215360000Y-85840000D03*
G04 #@! TO.N,/FPGA/RAM + LVDS/Z7_N*
X199325000Y-85390000D03*
X211370901Y-85789099D03*
G04 #@! TO.N,/D3*
X199990000Y-99360000D03*
X197725000Y-85390000D03*
G04 #@! TO.N,/FPGA/CSSPIN*
X191160000Y-100380000D03*
X194920000Y-98560000D03*
X196925000Y-85390000D03*
G04 #@! TO.N,CFG0*
X195325000Y-85390000D03*
X169420000Y-88100000D03*
G04 #@! TO.N,/FPGA/RAM + LVDS/DQS0*
X190525000Y-85390000D03*
X189035000Y-87570000D03*
G04 #@! TO.N,/FPGA/RAM + LVDS/Z5_N*
X199325000Y-84590000D03*
X211360000Y-84840000D03*
G04 #@! TO.N,/FPGA/RAM + LVDS/Z5_P*
X198525000Y-84590000D03*
X211680211Y-84518868D03*
G04 #@! TO.N,/D4*
X197725000Y-84590000D03*
X200640000Y-99320000D03*
G04 #@! TO.N,/FPGA_DONE*
X217145000Y-91055000D03*
X239700000Y-89150000D03*
G04 #@! TO.N,Net-(U8I-CFG_1)*
X195325000Y-84590000D03*
G04 #@! TO.N,/FPGA/RAM + LVDS/CS#1*
X184035000Y-84990000D03*
X194525000Y-84590000D03*
G04 #@! TO.N,/FPGA/RAM + LVDS/CK0*
X190525000Y-84590000D03*
X189415000Y-85980000D03*
G04 #@! TO.N,/FPGA/RAM + LVDS/Z3_P*
X201725000Y-83790000D03*
X212800000Y-84200000D03*
G04 #@! TO.N,/FPGA/RAM + LVDS/Z1_P*
X200125000Y-83790000D03*
X213800000Y-82750000D03*
G04 #@! TO.N,/D6*
X199050000Y-98870000D03*
X202900000Y-98900000D03*
X199280000Y-97360000D03*
G04 #@! TO.N,/D5*
X202420000Y-99010000D03*
X202120000Y-81210000D03*
G04 #@! TO.N,/~{FPGA_RESET}*
X215400000Y-82600000D03*
X153250000Y-80490000D03*
X226170000Y-78180000D03*
X196700000Y-82200000D03*
X216500000Y-91800000D03*
G04 #@! TO.N,CFG2*
X169770000Y-88405000D03*
X195325000Y-83790000D03*
G04 #@! TO.N,/FPGA/TDI*
X160890000Y-82110000D03*
X159080000Y-106270000D03*
X193950000Y-78650000D03*
G04 #@! TO.N,/FPGA/RAM + LVDS/DQS1*
X193725000Y-83790000D03*
X184845000Y-84480000D03*
G04 #@! TO.N,/FPGA/RAM + LVDS/CS#0*
X187562342Y-86144962D03*
X190525000Y-83790000D03*
G04 #@! TO.N,/FPGA/RAM + LVDS/Z3_N*
X201725000Y-82990000D03*
X212730000Y-84650000D03*
G04 #@! TO.N,/FPGA/RAM + LVDS/Z1_N*
X200925000Y-82990000D03*
X213800000Y-83250000D03*
G04 #@! TO.N,/D7*
X198525000Y-82990000D03*
X209230000Y-98200000D03*
X208910000Y-81740000D03*
G04 #@! TO.N,/D1*
X205230000Y-100300000D03*
X191630000Y-100380000D03*
X205330000Y-81800000D03*
G04 #@! TO.N,/D0*
X193520000Y-95780000D03*
X208490000Y-100910000D03*
X208740000Y-80950000D03*
X208910000Y-94090000D03*
G04 #@! TO.N,/FPGA_INITn*
X196125000Y-82990000D03*
X167765000Y-84855000D03*
G04 #@! TO.N,/FPGA/TCK*
X195325000Y-79120000D03*
X155350000Y-100450000D03*
X160920000Y-80960000D03*
G04 #@! TO.N,/FPGA/TMS*
X155000000Y-99950000D03*
X194650000Y-78650000D03*
X157820000Y-79810000D03*
G04 #@! TO.N,/ADC/ADC_~{RST}*
X173590001Y-97400000D03*
X168000000Y-91250000D03*
G04 #@! TO.N,/~{CY_RESET}*
X225080000Y-87890000D03*
X218250000Y-87900000D03*
X229600000Y-97600000D03*
G04 #@! TO.N,Net-(Q1-G)*
X171130000Y-82340000D03*
X155175000Y-75985358D03*
X236150000Y-102050000D03*
X165370000Y-78750001D03*
X231450000Y-82750000D03*
X153547500Y-96850000D03*
G04 #@! TO.N,/Power/IBBIN*
X159570000Y-105820000D03*
X153070000Y-94420000D03*
G04 #@! TO.N,Net-(Q1-D)*
X152150000Y-95920000D03*
G04 #@! TO.N,/LED_ERR*
X235200000Y-91950000D03*
X222030000Y-92120000D03*
G04 #@! TO.N,/ADC/MCU_LED*
X167740000Y-83680000D03*
X161620000Y-77890000D03*
G04 #@! TO.N,VDDA*
X172970000Y-78207501D03*
X170700000Y-82900000D03*
X171150000Y-78420000D03*
X169800000Y-94900000D03*
X164170000Y-94610000D03*
X161830000Y-94530000D03*
G04 #@! TO.N,/IO Banks/Bank B/PG*
X211480000Y-63440000D03*
G04 #@! TO.N,/LED_ACT*
X235300000Y-91000000D03*
X221490000Y-91650000D03*
G04 #@! TO.N,+15V*
X157325000Y-85650000D03*
G04 #@! TO.N,/ADC/A1_P*
X160300000Y-101800000D03*
X159400000Y-85750000D03*
X195210000Y-102410000D03*
G04 #@! TO.N,/ADC/A1_N*
X159050000Y-86250000D03*
X196200000Y-103200000D03*
X160300000Y-102400000D03*
G04 #@! TO.N,/ADC/A2_P*
X155400000Y-71000000D03*
X230000000Y-71300000D03*
X156800000Y-86800000D03*
G04 #@! TO.N,/ADC/A2_N*
X154800000Y-71400000D03*
X156800000Y-87300000D03*
X228000000Y-71800000D03*
G04 #@! TO.N,/ADC/A3_P*
X157710000Y-87680000D03*
G04 #@! TO.N,/ADC/A3_N*
X156900000Y-88200000D03*
G04 #@! TO.N,Net-(U7-AICOM)*
X155950000Y-86730000D03*
X156160000Y-88100000D03*
G04 #@! TO.N,/ADC/A4_P*
X156200000Y-89500000D03*
X154300000Y-71900000D03*
X196700000Y-73200000D03*
G04 #@! TO.N,/ADC/A4_N*
X156170000Y-90420000D03*
X191080000Y-64000000D03*
X159400000Y-64390000D03*
G04 #@! TO.N,-15V*
X157450000Y-96770000D03*
G04 #@! TO.N,/ADC/INTB*
X168930000Y-90300000D03*
X168050000Y-89750000D03*
X171590001Y-96800000D03*
G04 #@! TO.N,/ADC/SYNC*
X173590001Y-96250000D03*
X169120000Y-89850000D03*
G04 #@! TO.N,/ADC/~{CS}*
X168780000Y-89050000D03*
X171590001Y-95700000D03*
G04 #@! TO.N,/ADC/SCLK*
X170280000Y-87700000D03*
X173590001Y-94050000D03*
G04 #@! TO.N,/ADC/COPI*
X173590001Y-95150000D03*
X168800000Y-87750000D03*
G04 #@! TO.N,/ADC/CIPO*
X171600000Y-94600000D03*
X168800000Y-87250000D03*
G04 #@! TO.N,/ADC/DRDY*
X168000000Y-86750000D03*
X171590001Y-93500000D03*
G04 #@! TO.N,/ENVC*
X195500000Y-111450000D03*
X219400000Y-110200000D03*
X219930000Y-89740000D03*
X174700000Y-112450000D03*
G04 #@! TO.N,/ADC/SWDIO*
X164080000Y-83650000D03*
X162890000Y-94720000D03*
G04 #@! TO.N,/XTALOUT*
X224576776Y-96021142D03*
G04 #@! TO.N,/ENVB*
X216200000Y-66900000D03*
X199570000Y-70840000D03*
X224110000Y-67270000D03*
X222300000Y-89400000D03*
G04 #@! TO.N,/ENVA*
X232180000Y-108620000D03*
X218900000Y-109100000D03*
X219300000Y-89780000D03*
G04 #@! TO.N,LS_3V3*
X163880000Y-101627500D03*
X216920000Y-75880000D03*
X200880000Y-102209600D03*
X170700000Y-101470000D03*
X214480000Y-102209600D03*
X221280000Y-102209600D03*
X177480000Y-101627500D03*
X174080000Y-101627500D03*
X180900000Y-101470000D03*
X227150000Y-75880000D03*
X206730000Y-75890000D03*
X213510000Y-75890000D03*
X203430000Y-75880000D03*
X167280000Y-101627500D03*
X210100000Y-76600000D03*
X176520000Y-76472500D03*
X179920000Y-75880000D03*
X186720000Y-76472500D03*
X184280000Y-101627500D03*
X166370000Y-76040000D03*
X216916000Y-102209600D03*
X187678750Y-101628750D03*
X183320000Y-76630000D03*
X220320000Y-76620000D03*
X224536000Y-102209600D03*
X232595001Y-77064999D03*
X172440000Y-76590000D03*
X206857600Y-102311200D03*
X204280000Y-102209600D03*
X223750000Y-75890000D03*
X169640000Y-76010000D03*
X189990000Y-75900000D03*
X211080000Y-102209600D03*
G04 #@! TO.N,Net-(U25-~{INT})*
X193240000Y-73575000D03*
G04 #@! TO.N,/IO Banks/Bank B/V_{SENSE}*
X218800000Y-66390000D03*
G04 #@! TO.N,/IO Banks/Bank B/V_{IO_OUT}*
X200700000Y-64990000D03*
X200300000Y-66700000D03*
X202600000Y-64500000D03*
G04 #@! TO.N,/IO Banks/Bank B/Z0*
X202820000Y-70960000D03*
G04 #@! TO.N,/IO Banks/Bank B/Z1*
X204310000Y-70860000D03*
G04 #@! TO.N,/IO Banks/Bank B/Z2*
X210300000Y-73750000D03*
G04 #@! TO.N,/IO Banks/Bank B/Z3*
X211110000Y-70860000D03*
G04 #@! TO.N,/IO Banks/Bank B/Z4*
X214510000Y-70860000D03*
G04 #@! TO.N,/IO Banks/Bank B/Z5*
X217910000Y-70860000D03*
G04 #@! TO.N,/IO Banks/Bank B/Z6*
X221310000Y-70860000D03*
G04 #@! TO.N,/IO Banks/Bank B/Z7*
X224710000Y-70860000D03*
G04 #@! TO.N,/ADC/A2raw_P*
X228550000Y-75100000D03*
G04 #@! TO.N,/ADC/A2raw_N*
X225430000Y-66199999D03*
G04 #@! TO.N,/USB_P*
X226130000Y-99300000D03*
X234085000Y-89500000D03*
X233240901Y-99240901D03*
G04 #@! TO.N,/XTALIN*
X224271776Y-97100000D03*
G04 #@! TO.N,/IO Banks/Bank C/V_{SENSE}*
X172200000Y-111710000D03*
G04 #@! TO.N,/IO Banks/Bank C/V_{IO_OUT}*
X190300000Y-113110000D03*
X188130000Y-113650000D03*
X192750000Y-113500000D03*
G04 #@! TO.N,/IO Banks/Bank C/Z0*
X188150000Y-107130000D03*
G04 #@! TO.N,/IO Banks/Bank C/Z1*
X186690000Y-107240000D03*
G04 #@! TO.N,/IO Banks/Bank C/Z2*
X180850000Y-104150000D03*
G04 #@! TO.N,/IO Banks/Bank C/Z3*
X179890000Y-107240000D03*
G04 #@! TO.N,/IO Banks/Bank C/Z4*
X176490000Y-107240000D03*
G04 #@! TO.N,/IO Banks/Bank C/Z5*
X173090000Y-107240000D03*
G04 #@! TO.N,/IO Banks/Bank C/Z6*
X169690000Y-107240000D03*
G04 #@! TO.N,/IO Banks/Bank C/Z7*
X166290000Y-107240000D03*
G04 #@! TO.N,/ADC/A3raw_P*
X162199999Y-105350000D03*
G04 #@! TO.N,/ADC/A3raw_N*
X165650000Y-112500000D03*
G04 #@! TO.N,/ENVD*
X158800000Y-70490000D03*
X222800000Y-89400000D03*
X224100000Y-66300000D03*
X179500000Y-65500000D03*
G04 #@! TO.N,Net-(Q2-G)*
X155649999Y-94940000D03*
G04 #@! TO.N,/Power/INVBUBO_LOCALGND*
X155639999Y-96790000D03*
G04 #@! TO.N,/Power/EN*
X158540001Y-105800000D03*
X157960000Y-95900000D03*
G04 #@! TO.N,Net-(U5-EN)*
X230390000Y-83340000D03*
G04 #@! TO.N,/USB_N*
X234085000Y-88500000D03*
X237305000Y-89750000D03*
X225877757Y-99990000D03*
X233559099Y-99559099D03*
X237300000Y-88750000D03*
G04 #@! TO.N,/ADC/SWCLK*
X162300000Y-83400000D03*
X162570000Y-94070000D03*
G04 #@! TO.N,/IO Banks/Bank A/V_{SENSE}*
X208650000Y-112500000D03*
G04 #@! TO.N,/IO Banks/Bank A/V_{IO_OUT}*
X225400000Y-113600000D03*
X227300001Y-113110000D03*
X226720000Y-111060000D03*
G04 #@! TO.N,/IO Banks/Bank A/Z0*
X225160000Y-107130000D03*
G04 #@! TO.N,/IO Banks/Bank A/Z1*
X223690000Y-107240000D03*
G04 #@! TO.N,/IO Banks/Bank A/Z2*
X217440000Y-104851200D03*
G04 #@! TO.N,/IO Banks/Bank A/Z3*
X216890000Y-107240000D03*
G04 #@! TO.N,/IO Banks/Bank A/Z4*
X213490000Y-107240000D03*
G04 #@! TO.N,/IO Banks/Bank A/Z5*
X210090000Y-107240000D03*
G04 #@! TO.N,/IO Banks/Bank A/Z6*
X206690000Y-107240000D03*
G04 #@! TO.N,/IO Banks/Bank A/Z7*
X203290000Y-107240000D03*
G04 #@! TO.N,/ADC/A1raw_P*
X200761600Y-104100000D03*
G04 #@! TO.N,/ADC/A1raw_N*
X202890000Y-112740000D03*
G04 #@! TO.N,/IO Banks/Bank A/PG*
X216500000Y-114500000D03*
G04 #@! TO.N,/IO Banks/Bank D/PG*
X174500000Y-63600000D03*
G04 #@! TO.N,/IO Banks/Bank D/V_{SENSE}*
X181800000Y-66390000D03*
G04 #@! TO.N,/IO Banks/Bank D/V_{IO_OUT}*
X165407500Y-64697500D03*
X164550000Y-67200000D03*
X163700000Y-64990000D03*
G04 #@! TO.N,/IO Banks/Bank D/Z0*
X165860000Y-70970000D03*
G04 #@! TO.N,/IO Banks/Bank D/Z1*
X167310000Y-70860000D03*
G04 #@! TO.N,/IO Banks/Bank D/Z2*
X173450000Y-73850000D03*
G04 #@! TO.N,/IO Banks/Bank D/Z3*
X174110000Y-70860000D03*
G04 #@! TO.N,/IO Banks/Bank D/Z4*
X177510000Y-70860000D03*
G04 #@! TO.N,/IO Banks/Bank D/Z5*
X180910000Y-70860000D03*
G04 #@! TO.N,/IO Banks/Bank D/Z6*
X184310000Y-70860000D03*
G04 #@! TO.N,/IO Banks/Bank D/Z7*
X187710000Y-70860000D03*
G04 #@! TO.N,/ADC/A4raw_P*
X191550000Y-75200000D03*
G04 #@! TO.N,/ADC/A4raw_N*
X188450000Y-67800000D03*
G04 #@! TO.N,Net-(U24-~{INT})*
X197700000Y-103800000D03*
G04 #@! TO.N,/IO Banks/V_{SET_D}*
X176820000Y-73940000D03*
X176800000Y-67800000D03*
G04 #@! TO.N,/IO Banks/V_{SET_C}*
X172800000Y-81080000D03*
X174390000Y-110250000D03*
G04 #@! TO.N,/IO Banks/V_{SET_B}*
X213650000Y-68000000D03*
X213860000Y-78390000D03*
X177580000Y-81070000D03*
G04 #@! TO.N,/IO Banks/V_{SET_A}*
X178100000Y-81000000D03*
X216920000Y-111090000D03*
X214690000Y-81230000D03*
G04 #@! TO.N,/IO Banks/Bank A/V_{CLAMP}*
X212020000Y-108190000D03*
X205220000Y-108190000D03*
X208620000Y-108190000D03*
X201820000Y-108190000D03*
X218820000Y-108190000D03*
X215420000Y-108190000D03*
X222220000Y-108190000D03*
X225620000Y-108190000D03*
G04 #@! TO.N,/IO Banks/Bank B/V_{IO}*
X216630000Y-70750000D03*
X220030000Y-70720000D03*
X203030000Y-70550000D03*
X223420000Y-70710000D03*
X206450000Y-70550000D03*
X199810000Y-64990000D03*
X201550000Y-66800000D03*
X213220000Y-70740000D03*
X209820000Y-70740000D03*
X221322501Y-67140001D03*
X200300000Y-65390000D03*
X227130000Y-70730000D03*
G04 #@! TO.N,/IO Banks/A.P1*
X224900000Y-108500000D03*
X198930000Y-110340000D03*
G04 #@! TO.N,/IO Banks/A.P5*
X198700000Y-107780000D03*
X211300000Y-108450000D03*
G04 #@! TO.N,/IO Banks/Bank C/V_{IO}*
X169677499Y-110959999D03*
X190700000Y-112710000D03*
X177780000Y-107360000D03*
X170970000Y-107380000D03*
X191270000Y-113110000D03*
X181180000Y-107360000D03*
X163870000Y-107370000D03*
X174370000Y-107350000D03*
X187970000Y-107550000D03*
X167580000Y-107390000D03*
X189450000Y-111450000D03*
X184550000Y-107550000D03*
G04 #@! TO.N,+5V5*
X200020000Y-63530000D03*
X183720000Y-63240000D03*
X190980000Y-114570000D03*
X214050000Y-64080000D03*
X176930000Y-113370000D03*
X177070000Y-64730000D03*
X170500000Y-114900000D03*
X166650000Y-64040000D03*
X193600000Y-63710000D03*
X163020000Y-63530000D03*
D19*
X220730000Y-63210000D03*
D16*
X166900000Y-114700000D03*
G04 #@! TO.N,/IO Banks/A.P4*
X197940000Y-108430000D03*
X214800000Y-108400000D03*
G04 #@! TO.N,/IO Banks/Bank D/V_{CLAMP}*
X175580000Y-69910000D03*
X168780000Y-69910000D03*
X189180000Y-69910000D03*
X182380000Y-70090000D03*
X165380000Y-69910000D03*
X178980000Y-69910000D03*
X185780000Y-69910000D03*
X172180000Y-69910000D03*
G04 #@! TO.N,/IO Banks/Bank D/V_{IO}*
X166522400Y-70662800D03*
X184322501Y-67140001D03*
X183030000Y-70720000D03*
X164601786Y-66200000D03*
X176220000Y-70740000D03*
X162820000Y-64980000D03*
X169450000Y-70550000D03*
X172820000Y-70740000D03*
X166650000Y-67900000D03*
X163300000Y-65390000D03*
X189670000Y-70500000D03*
X186420000Y-70710000D03*
X179630000Y-70750000D03*
G04 #@! TO.N,/IO Banks/Bank A/V_{IO}*
X206677499Y-110959999D03*
X227700000Y-112710000D03*
X218180000Y-107360000D03*
X201410000Y-106980000D03*
X204580000Y-107390000D03*
X221550000Y-107550000D03*
X207970000Y-107380000D03*
X214780000Y-107360000D03*
X224970000Y-107550000D03*
X211370000Y-107350000D03*
X226650000Y-111850000D03*
G04 #@! TO.N,/IO Banks/B.P5*
X198900000Y-67730000D03*
X216700000Y-69650000D03*
G04 #@! TO.N,/Power/3V3OUT*
X225785000Y-85455000D03*
X225010000Y-83310000D03*
G04 #@! TO.N,/IO Banks/B.P3*
X209535000Y-69285000D03*
X198920000Y-69020000D03*
G04 #@! TO.N,/IO Banks/Bank C/V_{CLAMP}*
X168220000Y-108190000D03*
X164820000Y-108190000D03*
X171620000Y-108190000D03*
X175020000Y-108190000D03*
X178420000Y-108190000D03*
X181820000Y-108190000D03*
X185220000Y-108190000D03*
X188620000Y-108190000D03*
G04 #@! TO.N,/IO Banks/D.P3*
X172875000Y-69625000D03*
X193200000Y-69040000D03*
G04 #@! TO.N,/IO Banks/B.P1*
X198880000Y-70325000D03*
X203100000Y-69600000D03*
G04 #@! TO.N,/IO Banks/Bank B/V_{CLAMP}*
X222780000Y-69910000D03*
X205780000Y-69910000D03*
X226180000Y-69910000D03*
X219380000Y-69910000D03*
X209180000Y-69910000D03*
X215980000Y-69910000D03*
X202380000Y-69910000D03*
X212580000Y-69910000D03*
G04 #@! TO.N,/IO Banks/D.P6*
X192090000Y-70980000D03*
X183100000Y-69680000D03*
G04 #@! TO.N,/IO Banks/A.P0*
X197830000Y-111040000D03*
X228290000Y-108200000D03*
G04 #@! TO.N,/IO Banks/A.P3*
X198690000Y-109070000D03*
X218125000Y-108475000D03*
G04 #@! TO.N,/IO Banks/D.P5*
X179740000Y-69820000D03*
X193190000Y-70325000D03*
G04 #@! TO.N,FLASH_~{HOLD}*
X171400000Y-98900000D03*
X192600000Y-100250000D03*
G04 #@! TO.N,/IO Banks/A.P7*
X204500000Y-108400000D03*
X198700000Y-106490000D03*
G04 #@! TO.N,/IO Banks/A.P6*
X198000000Y-107125000D03*
X207975746Y-108375746D03*
G04 #@! TO.N,/IO Banks/A.P2*
X197920000Y-109730000D03*
X221550000Y-108550000D03*
G04 #@! TO.N,/IO Banks/C.P7*
X190240000Y-110150000D03*
X167530000Y-109100000D03*
G04 #@! TO.N,/IO Banks/C.P6*
X170975746Y-108375746D03*
X191380000Y-110180000D03*
G04 #@! TO.N,/Power/1V1OUT*
X230000000Y-95500000D03*
X227720000Y-98349998D03*
G04 #@! TO.N,/IO Banks/B.P7*
X223500000Y-69700000D03*
X198920000Y-66430000D03*
G04 #@! TO.N,/IO Banks/D.P7*
X186500000Y-69700000D03*
X193190000Y-71630000D03*
G04 #@! TO.N,/IO Banks/D.P4*
X176200000Y-69700000D03*
X192090000Y-69675000D03*
G04 #@! TO.N,/IO Banks/D.P2*
X192110000Y-68390000D03*
X169450000Y-69550000D03*
G04 #@! TO.N,/IO Banks/D.P1*
X166090000Y-69630000D03*
X193180000Y-67740000D03*
G04 #@! TO.N,/IO Banks/D.P0*
X162700000Y-69900000D03*
X192080000Y-67090000D03*
G04 #@! TO.N,/IO Banks/B.P6*
X220024254Y-69724254D03*
X197800000Y-67080000D03*
G04 #@! TO.N,/IO Banks/B.P4*
X197810000Y-68380000D03*
X213200000Y-69700000D03*
G04 #@! TO.N,/IO Banks/B.P2*
X206450000Y-69550000D03*
X197820000Y-69690000D03*
G04 #@! TO.N,/Power/1V8OUT*
X225770000Y-91877501D03*
X226180000Y-88710000D03*
G04 #@! TO.N,Net-(U33-Gate)*
X226800000Y-112690000D03*
X229035000Y-112150000D03*
G04 #@! TD*
G04 #@! TO.N,+3V3*
D20*
X200849117Y-65350000D02*
X215700000Y-65350000D01*
D21*
X199025000Y-88890000D02*
X199025000Y-87490000D01*
D20*
X199750883Y-65350000D02*
X200150883Y-65750000D01*
D22*
X198525000Y-90990000D02*
X198950000Y-90565000D01*
D21*
X194526000Y-90990000D02*
X194065000Y-90529000D01*
X198525000Y-89390000D02*
X199025000Y-88890000D01*
D22*
X197725000Y-89390000D02*
X197340000Y-89775000D01*
D21*
X195325500Y-90990000D02*
X194526000Y-90990000D01*
D22*
X197340000Y-89775000D02*
X194910000Y-89775000D01*
D20*
X215700000Y-65350000D02*
X216400000Y-64650000D01*
X179400000Y-64700000D02*
X179560000Y-64540000D01*
X194380883Y-64540000D02*
X195190883Y-65350000D01*
D22*
X198950000Y-90565000D02*
X198950000Y-89815000D01*
D21*
X199025000Y-89890000D02*
X198525000Y-89390000D01*
D23*
X174690000Y-114590000D02*
X175310000Y-115210000D01*
D20*
X200150883Y-65750000D02*
X200449117Y-65750000D01*
D22*
X174600000Y-114500000D02*
X174690000Y-114590000D01*
D21*
X194065000Y-90529000D02*
X194065000Y-89850000D01*
X194525000Y-89390000D02*
X194525000Y-88590000D01*
D24*
X230200000Y-94350000D02*
X234070000Y-94350000D01*
D20*
X195190883Y-65350000D02*
X199750883Y-65350000D01*
D21*
X194065000Y-89850000D02*
X194525000Y-89390000D01*
X199025000Y-90490000D02*
X199025000Y-89890000D01*
D22*
X194910000Y-89775000D02*
X194525000Y-89390000D01*
D20*
X179560000Y-64540000D02*
X194200000Y-64540000D01*
D21*
X199025000Y-87490000D02*
X198525000Y-86990000D01*
D23*
X198540000Y-115210000D02*
X199100000Y-114650000D01*
D22*
X199100000Y-114995000D02*
X211105000Y-114995000D01*
D23*
X175310000Y-115210000D02*
X198540000Y-115210000D01*
D21*
X198525000Y-89390000D02*
X197725000Y-89390000D01*
D24*
X229700000Y-93850000D02*
X230200000Y-94350000D01*
X234070000Y-94350000D02*
X234910000Y-95190000D01*
D20*
X194200000Y-64540000D02*
X194380883Y-64540000D01*
X194000000Y-64540000D02*
X194200000Y-64540000D01*
D21*
X197725000Y-90990000D02*
X198525000Y-90990000D01*
D20*
X200449117Y-65750000D02*
X200849117Y-65350000D01*
D22*
X198950000Y-89815000D02*
X198525000Y-89390000D01*
D21*
X198525000Y-90990000D02*
X199025000Y-90490000D01*
D22*
X211105000Y-114995000D02*
X211600000Y-114500000D01*
X199100000Y-114650000D02*
X199100000Y-114995000D01*
D23*
X199100000Y-114650000D02*
X211450000Y-114650000D01*
X211450000Y-114650000D02*
X211600000Y-114500000D01*
G04 #@! TO.N,/LED_CY*
D25*
X228997046Y-90395000D02*
X235655000Y-90395000D01*
X228152954Y-89845000D02*
X228447046Y-89845000D01*
X227602954Y-90395000D02*
X228152954Y-89845000D01*
X220795736Y-90205736D02*
X220985000Y-90395000D01*
X220985000Y-90395000D02*
X227602954Y-90395000D01*
X235655000Y-90395000D02*
X235750000Y-90490000D01*
X228447046Y-89845000D02*
X228997046Y-90395000D01*
X235750000Y-90490000D02*
X235750000Y-90750000D01*
G04 #@! TO.N,+5V*
D21*
X211400000Y-96437904D02*
X211400000Y-95900000D01*
D26*
X230800000Y-84800000D02*
X224940000Y-84800000D01*
X234600000Y-85800000D02*
X235700000Y-84700000D01*
X185761960Y-77400000D02*
X162300000Y-77400000D01*
D21*
X218970589Y-96779411D02*
X218254715Y-96779411D01*
D26*
X186021960Y-77140000D02*
X185761960Y-77400000D01*
D21*
X223789361Y-95960000D02*
X219790000Y-95960000D01*
X232168858Y-96481142D02*
X224310503Y-96481142D01*
D26*
X223900000Y-83760000D02*
X223900000Y-83600000D01*
D21*
X215631605Y-96575000D02*
X215011605Y-97195000D01*
D26*
X231800000Y-85800000D02*
X230800000Y-84800000D01*
D21*
X212157096Y-97195000D02*
X211400000Y-96437904D01*
X232200000Y-96450000D02*
X232168858Y-96481142D01*
X224310503Y-96481142D02*
X223789361Y-95960000D01*
D26*
X223200000Y-78900000D02*
X222060000Y-77760000D01*
X194560000Y-77140000D02*
X186021960Y-77140000D01*
X222060000Y-77760000D02*
X195180000Y-77760000D01*
D21*
X218050304Y-96575000D02*
X215631605Y-96575000D01*
X219790000Y-95960000D02*
X218970589Y-96779411D01*
D26*
X195180000Y-77760000D02*
X194560000Y-77140000D01*
X224940000Y-84800000D02*
X223900000Y-83760000D01*
D21*
X218254715Y-96779411D02*
X218050304Y-96575000D01*
X215011605Y-97195000D02*
X212157096Y-97195000D01*
D26*
X231800000Y-85800000D02*
X234600000Y-85800000D01*
G04 #@! TO.N,/DRDY*
D25*
X175745036Y-93695000D02*
X200861336Y-93695000D01*
X175550037Y-93500000D02*
X175745036Y-93695000D01*
X200861336Y-93695000D02*
X201725000Y-94558664D01*
X172609999Y-93500000D02*
X175550037Y-93500000D01*
X201725000Y-94558664D02*
X201725000Y-94990000D01*
G04 #@! TO.N,/COPI*
X174600000Y-95200000D02*
X175165000Y-95765000D01*
X175165000Y-95765000D02*
X190367298Y-95765000D01*
X190367298Y-95765000D02*
X190723298Y-95409000D01*
X200506000Y-95409000D02*
X200925000Y-94990000D01*
X190723298Y-95409000D02*
X200506000Y-95409000D01*
G04 #@! TO.N,/SCLK*
X192437400Y-94685000D02*
X196620000Y-94685000D01*
X174609999Y-94341335D02*
X175073664Y-94805000D01*
X176453800Y-94805000D02*
X176834800Y-94424000D01*
X174609999Y-94050000D02*
X174609999Y-94341335D01*
X196620000Y-94685000D02*
X196925000Y-94990000D01*
X175073664Y-94805000D02*
X176453800Y-94805000D01*
X176834800Y-94424000D02*
X192176400Y-94424000D01*
X192176400Y-94424000D02*
X192437400Y-94685000D01*
G04 #@! TO.N,/SCL*
X195551336Y-111070000D02*
X194351336Y-111070000D01*
X180430000Y-110560000D02*
X182708663Y-110560000D01*
X209647954Y-73800000D02*
X200460000Y-73800000D01*
X211015668Y-110384332D02*
X210856336Y-110225000D01*
X194351336Y-111070000D02*
X194211336Y-111210000D01*
X183278664Y-109990000D02*
X189361300Y-109990000D01*
X210397046Y-74155000D02*
X210002954Y-74155000D01*
X184448837Y-66795000D02*
X182705000Y-66795000D01*
X200800000Y-110225000D02*
X199434999Y-111590000D01*
X163650000Y-110400000D02*
X163650000Y-110706012D01*
X210856336Y-110225000D02*
X200800000Y-110225000D01*
X185393837Y-65850000D02*
X184448837Y-66795000D01*
X225434374Y-99165589D02*
X219365589Y-99165589D01*
X232850000Y-98400000D02*
X232800000Y-98350000D01*
X194800000Y-66800000D02*
X194400000Y-66800000D01*
X219365589Y-99165589D02*
X219100000Y-98900000D01*
X196071336Y-111590000D02*
X195551336Y-111070000D01*
X190061299Y-110690000D02*
X193285000Y-110690000D01*
X182300000Y-67200000D02*
X182300000Y-67250000D01*
X194400000Y-66800000D02*
X193450000Y-65850000D01*
X232850000Y-98450000D02*
X232850000Y-98400000D01*
X199434999Y-111590000D02*
X196071336Y-111590000D01*
X174130000Y-110950000D02*
X174335000Y-110745000D01*
X163763423Y-111264999D02*
X173785001Y-111264999D01*
X232800000Y-98350000D02*
X228900000Y-98350000D01*
X193450000Y-65850000D02*
X185393837Y-65850000D01*
X163553554Y-110802458D02*
X163553554Y-111055130D01*
X163553554Y-111055130D02*
X163763423Y-111264999D01*
X173785001Y-111264999D02*
X174100000Y-110950000D01*
X193805000Y-111210000D02*
X193800000Y-111205000D01*
X194211336Y-111210000D02*
X193805000Y-111210000D01*
X163650000Y-110706012D02*
X163553554Y-110802458D01*
X200460000Y-73800000D02*
X200440000Y-73820000D01*
X174100000Y-110950000D02*
X174130000Y-110950000D01*
X193285000Y-110690000D02*
X193800000Y-111205000D01*
X182705000Y-66795000D02*
X182300000Y-67200000D01*
X210752046Y-73800000D02*
X210397046Y-74155000D01*
X210002954Y-74155000D02*
X209647954Y-73800000D01*
X180245000Y-110745000D02*
X180430000Y-110560000D01*
X228900000Y-98350000D02*
X228595000Y-98655000D01*
X189361300Y-109990000D02*
X190061299Y-110690000D01*
X228595000Y-98655000D02*
X225944963Y-98655000D01*
X216148750Y-73800000D02*
X210752046Y-73800000D01*
X182708663Y-110560000D02*
X183278664Y-109990000D01*
X174335000Y-110745000D02*
X180245000Y-110745000D01*
X216248750Y-73900000D02*
X216148750Y-73800000D01*
X225944963Y-98655000D02*
X225434374Y-99165589D01*
G04 #@! TO.N,/FPGA/U3*
X216270000Y-97300000D02*
X217750000Y-97300000D01*
X193430000Y-97801336D02*
X193778664Y-98150000D01*
X219133664Y-98185000D02*
X220783664Y-98185000D01*
X215650000Y-97920000D02*
X216270000Y-97300000D01*
X217750000Y-97300000D02*
X218600000Y-98150000D01*
X239155000Y-97295000D02*
X240400000Y-96050000D01*
X204005000Y-97845000D02*
X211781791Y-97845000D01*
X229473664Y-97295000D02*
X239155000Y-97295000D01*
X193778664Y-98150000D02*
X200310000Y-98150000D01*
X193430000Y-97720000D02*
X193430000Y-97801336D01*
X240400000Y-94800000D02*
X240300000Y-94700000D01*
X219098664Y-98150000D02*
X219133664Y-98185000D01*
X202120036Y-98330000D02*
X203520000Y-98330000D01*
X229228664Y-97540000D02*
X229473664Y-97295000D01*
X221826336Y-97395000D02*
X221971336Y-97540000D01*
X200310000Y-98150000D02*
X200605000Y-98445000D01*
X221573664Y-97395000D02*
X221826336Y-97395000D01*
X200605000Y-98445000D02*
X202005037Y-98445000D01*
X211781791Y-97845000D02*
X211856793Y-97920001D01*
X203520000Y-98330000D02*
X204005000Y-97845000D01*
X211856793Y-97920001D02*
X215650000Y-97920000D01*
X218600000Y-98150000D02*
X219098664Y-98150000D01*
X220783664Y-98185000D02*
X221573664Y-97395000D01*
X202005037Y-98445000D02*
X202120036Y-98330000D01*
X240400000Y-96050000D02*
X240400000Y-94800000D01*
X221971336Y-97540000D02*
X229228664Y-97540000D01*
G04 #@! TO.N,/FPGA/U4*
X192773664Y-98905000D02*
X193026336Y-98905000D01*
X193633664Y-99315000D02*
X193759332Y-99440668D01*
X238395000Y-98755000D02*
X241000000Y-96150000D01*
X241000000Y-96150000D02*
X241000000Y-94555000D01*
X192495000Y-98626336D02*
X192773664Y-98905000D01*
X201600000Y-100950000D02*
X202555000Y-99995000D01*
X193436336Y-99315000D02*
X193633664Y-99315000D01*
X228528701Y-98990000D02*
X228763701Y-98755000D01*
X205571300Y-100160000D02*
X224708700Y-100160000D01*
X202555000Y-99995000D02*
X205406300Y-99995000D01*
X224708700Y-100160000D02*
X225878700Y-98990000D01*
X192495000Y-98465000D02*
X192495000Y-98626336D01*
X225878700Y-98990000D02*
X228528701Y-98990000D01*
X193705000Y-99386336D02*
X195268664Y-100950000D01*
X228763701Y-98755000D02*
X238395000Y-98755000D01*
X193026336Y-98905000D02*
X193436336Y-99315000D01*
X195268664Y-100950000D02*
X201600000Y-100950000D01*
X205406300Y-99995000D02*
X205571300Y-100160000D01*
X192800000Y-98160000D02*
X192495000Y-98465000D01*
G04 #@! TO.N,/NAFE_{~{RST}}*
X192561000Y-96745000D02*
X192786000Y-96520000D01*
X174609999Y-97400000D02*
X175074999Y-96935000D01*
X175392401Y-96745000D02*
X192561000Y-96745000D01*
X175074999Y-96935000D02*
X175202402Y-96935000D01*
X175202402Y-96935000D02*
X175392401Y-96745000D01*
G04 #@! TO.N,/CIPO*
X175526336Y-93745000D02*
X173154999Y-93745000D01*
X200620000Y-93885000D02*
X175666336Y-93885000D01*
X173154999Y-93745000D02*
X172619998Y-94280001D01*
X172619998Y-94280001D02*
X172619998Y-94600000D01*
X200925000Y-94190000D02*
X200620000Y-93885000D01*
X175666336Y-93885000D02*
X175526336Y-93745000D01*
G04 #@! TO.N,/~{ALERT}*
X193890000Y-66770000D02*
X194230000Y-67110000D01*
X175200000Y-94500000D02*
X176240000Y-94500000D01*
X177350000Y-66750000D02*
X177350000Y-67150000D01*
X191200000Y-66770000D02*
X193890000Y-66770000D01*
X177755000Y-67555000D02*
X184475000Y-67555000D01*
X176240000Y-94500000D02*
X176506000Y-94234000D01*
X199820000Y-94495000D02*
X200125000Y-94190000D01*
X195345000Y-67110000D02*
X196335000Y-66120000D01*
X192798664Y-94495000D02*
X199820000Y-94495000D01*
X199288664Y-66120000D02*
X200663664Y-67495000D01*
X194230000Y-67110000D02*
X195345000Y-67110000D01*
X208769800Y-67495000D02*
X209296000Y-68021200D01*
X184730000Y-67300000D02*
X190670000Y-67300000D01*
X190670000Y-67300000D02*
X191200000Y-66770000D01*
X176506000Y-94234000D02*
X192537664Y-94234000D01*
X177350000Y-67150000D02*
X177755000Y-67555000D01*
X184475000Y-67555000D02*
X184730000Y-67300000D01*
X200663664Y-67495000D02*
X208769800Y-67495000D01*
X196335000Y-66120000D02*
X199288664Y-66120000D01*
X192537664Y-94234000D02*
X192798664Y-94495000D01*
G04 #@! TO.N,/FPGA/U5*
X205650000Y-100350000D02*
X225900000Y-100350000D01*
X233723664Y-100837499D02*
X238762501Y-100837499D01*
X233581163Y-100980000D02*
X233723664Y-100837499D01*
X241350000Y-98150000D02*
X241350000Y-94050000D01*
X192800000Y-97100000D02*
X192305000Y-97595000D01*
X204700000Y-101300000D02*
X205650000Y-100350000D01*
X241350000Y-94050000D02*
X241100000Y-93800000D01*
X238762501Y-100837499D02*
X241400000Y-98200000D01*
X194748664Y-101300000D02*
X204700000Y-101300000D01*
X192305000Y-97595000D02*
X192305000Y-98856336D01*
X226530000Y-100980000D02*
X233581163Y-100980000D01*
X192305000Y-98856336D02*
X194748664Y-101300000D01*
X241400000Y-98200000D02*
X241350000Y-98150000D01*
X225900000Y-100350000D02*
X226530000Y-100980000D01*
G04 #@! TO.N,/INTB*
X175123701Y-96745000D02*
X175313701Y-96555000D01*
X191558898Y-96145000D02*
X196676336Y-96145000D01*
X200311200Y-96310000D02*
X200355200Y-96266000D01*
X175313701Y-96555000D02*
X191148898Y-96555000D01*
X196676336Y-96145000D02*
X196841336Y-96310000D01*
X173276336Y-97155000D02*
X173686336Y-96745000D01*
X172964999Y-97155000D02*
X173276336Y-97155000D01*
X173686336Y-96745000D02*
X175123701Y-96745000D01*
X172609999Y-96800000D02*
X172964999Y-97155000D01*
X196841336Y-96310000D02*
X200311200Y-96310000D01*
X191148898Y-96555000D02*
X191558898Y-96145000D01*
G04 #@! TO.N,/CLKREF*
X197590000Y-97090000D02*
X198710000Y-97090000D01*
X211939192Y-97465000D02*
X212014192Y-97540000D01*
X204775000Y-97465000D02*
X211939192Y-97465000D01*
X198710000Y-97090000D02*
X198849000Y-96951000D01*
X215154509Y-97540000D02*
X215774509Y-96920000D01*
X204261000Y-96951000D02*
X204775000Y-97465000D01*
X215774509Y-96920000D02*
X217907400Y-96920000D01*
X219942636Y-96900000D02*
X220260000Y-96900000D01*
X212014192Y-97540000D02*
X215154509Y-97540000D01*
X218557400Y-97570000D02*
X219272635Y-97570000D01*
X219272635Y-97570000D02*
X219942636Y-96900000D01*
X217907400Y-96920000D02*
X218557400Y-97570000D01*
X198849000Y-96951000D02*
X204261000Y-96951000D01*
G04 #@! TO.N,/NAFE_{~{CS}}*
X172609999Y-95700000D02*
X172609999Y-95021337D01*
X193598664Y-93085000D02*
X195275200Y-93085000D01*
X195275200Y-93085000D02*
X195820000Y-93085000D01*
X193383664Y-93300000D02*
X193598664Y-93085000D01*
X173000000Y-93300000D02*
X193383664Y-93300000D01*
X172304999Y-93373664D02*
X172483663Y-93195000D01*
X172895000Y-93195000D02*
X173000000Y-93300000D01*
X172304999Y-94716337D02*
X172304999Y-93373664D01*
X195820000Y-93085000D02*
X196125000Y-93390000D01*
X172483663Y-93195000D02*
X172895000Y-93195000D01*
X172609999Y-95021337D02*
X172304999Y-94716337D01*
G04 #@! TO.N,Net-(U10-DIR)*
X217041336Y-92100000D02*
X216091336Y-93050000D01*
X207061336Y-93050000D02*
X206561336Y-92550000D01*
X232811336Y-92420000D02*
X232526336Y-92705000D01*
X224407511Y-92623824D02*
X224357511Y-92673824D01*
X199451336Y-92895000D02*
X199198664Y-92895000D01*
X199641335Y-92705000D02*
X199451336Y-92895000D01*
X225031309Y-92705000D02*
X224950133Y-92623824D01*
X216091336Y-93050000D02*
X207061336Y-93050000D01*
X199115264Y-92811600D02*
X197577936Y-92811600D01*
X192996336Y-92150000D02*
X192550000Y-92150000D01*
X194286336Y-91855000D02*
X193291336Y-91855000D01*
X239239533Y-92150000D02*
X238969533Y-92420000D01*
X224357511Y-92673824D02*
X222044267Y-92673824D01*
X232526336Y-92705000D02*
X225031309Y-92705000D01*
X199998664Y-92285000D02*
X199641335Y-92642329D01*
X221470443Y-92100000D02*
X217041336Y-92100000D01*
X206561336Y-92550000D02*
X202116336Y-92550000D01*
X222044267Y-92673824D02*
X221470443Y-92100000D01*
X202116336Y-92550000D02*
X201851336Y-92285000D01*
X238969533Y-92420000D02*
X232811336Y-92420000D01*
X199198664Y-92895000D02*
X199115264Y-92811600D01*
X194686336Y-92255000D02*
X194286336Y-91855000D01*
X242570000Y-92150000D02*
X239239533Y-92150000D01*
X197577936Y-92811600D02*
X197021336Y-92255000D01*
X201851336Y-92285000D02*
X199998664Y-92285000D01*
X199641335Y-92642329D02*
X199641335Y-92705000D01*
X224950133Y-92623824D02*
X224407511Y-92623824D01*
X193291336Y-91855000D02*
X192996336Y-92150000D01*
X197021336Y-92255000D02*
X194686336Y-92255000D01*
G04 #@! TO.N,/SYNC*
X172404963Y-93005000D02*
X193409964Y-93005000D01*
X173403665Y-96005000D02*
X172483663Y-96005000D01*
X173716337Y-95945000D02*
X173463665Y-95945000D01*
X199630000Y-93085000D02*
X200125000Y-92590000D01*
X174609999Y-96250000D02*
X174364999Y-96005000D01*
X172304999Y-95073699D02*
X172114999Y-94883699D01*
X197392636Y-92895000D02*
X197499236Y-93001600D01*
X199119964Y-93085000D02*
X199630000Y-93085000D01*
X173776337Y-96005000D02*
X173716337Y-95945000D01*
X174364999Y-96005000D02*
X173776337Y-96005000D01*
X172114999Y-94883699D02*
X172114999Y-93294964D01*
X172304999Y-95826336D02*
X172304999Y-95073699D01*
X193409964Y-93005000D02*
X193519964Y-92895000D01*
X193519964Y-92895000D02*
X197392636Y-92895000D01*
X197499236Y-93001600D02*
X199036564Y-93001600D01*
X172114999Y-93294964D02*
X172404963Y-93005000D01*
X173463665Y-95945000D02*
X173403665Y-96005000D01*
X199036564Y-93001600D02*
X199119964Y-93085000D01*
X172483663Y-96005000D02*
X172304999Y-95826336D01*
G04 #@! TO.N,/MCU_~{RST}*
X190346336Y-91485000D02*
X189181336Y-92650000D01*
X199325000Y-92590000D02*
X199357600Y-92590000D01*
X199325000Y-92590000D02*
X197625036Y-92590000D01*
X182720000Y-91820000D02*
X167550000Y-91820000D01*
X195325000Y-92065000D02*
X195235000Y-91975000D01*
X217018664Y-91360000D02*
X217271336Y-91360000D01*
X199852600Y-92095000D02*
X204180000Y-92095000D01*
X216953664Y-91295000D02*
X217018664Y-91360000D01*
X195235000Y-91823664D02*
X195041336Y-91630000D01*
X219560000Y-90250000D02*
X220370000Y-91060000D01*
X204180000Y-92095000D02*
X204980000Y-91295000D01*
X220370000Y-91060000D02*
X220880000Y-91060000D01*
X197100034Y-92064998D02*
X195325000Y-92065000D01*
X189181336Y-92650000D02*
X183550000Y-92650000D01*
X199357600Y-92590000D02*
X199852600Y-92095000D01*
X195041336Y-91630000D02*
X193196336Y-91630000D01*
X218381336Y-90250000D02*
X219560000Y-90250000D01*
X217271336Y-91360000D02*
X218381336Y-90250000D01*
X162250000Y-86520000D02*
X162250000Y-83840000D01*
X193196336Y-91630000D02*
X193051336Y-91485000D01*
X167550000Y-91820000D02*
X162250000Y-86520000D01*
X197625036Y-92590000D02*
X197100034Y-92064998D01*
X193051336Y-91485000D02*
X190346336Y-91485000D01*
X204980000Y-91295000D02*
X216953664Y-91295000D01*
X162250000Y-83840000D02*
X161810000Y-83400000D01*
X195235000Y-91975000D02*
X195235000Y-91823664D01*
X183550000Y-92650000D02*
X182720000Y-91820000D01*
G04 #@! TO.N,/WR*
X204318664Y-95200000D02*
X203835000Y-95683664D01*
X199808364Y-96571000D02*
X199737364Y-96500000D01*
X203835000Y-95746336D02*
X203656336Y-95925000D01*
X211995000Y-95445000D02*
X211750000Y-95200000D01*
X223460000Y-93590000D02*
X223030000Y-93590000D01*
X222500000Y-94120000D02*
X222500000Y-94600000D01*
X223030000Y-93590000D02*
X222500000Y-94120000D01*
X203835000Y-95683664D02*
X203835000Y-95746336D01*
X203010000Y-96570000D02*
X200482536Y-96570000D01*
X211750000Y-95200000D02*
X204318664Y-95200000D01*
X200481536Y-96571000D02*
X199808364Y-96571000D01*
X222500000Y-94600000D02*
X221800000Y-95300000D01*
X211995000Y-96026336D02*
X211995000Y-95445000D01*
X212568664Y-96600000D02*
X211995000Y-96026336D01*
X203655000Y-95925000D02*
X203010000Y-96570000D01*
X216150000Y-95300000D02*
X214850000Y-96600000D01*
X214850000Y-96600000D02*
X212568664Y-96600000D01*
X196600000Y-96500000D02*
X196550000Y-96450000D01*
X200482536Y-96570000D02*
X200481536Y-96571000D01*
X199737364Y-96500000D02*
X196600000Y-96500000D01*
X223520000Y-93530000D02*
X223460000Y-93590000D01*
X221800000Y-95300000D02*
X216150000Y-95300000D01*
X203656336Y-95925000D02*
X203655000Y-95925000D01*
G04 #@! TO.N,/SDA*
X169803835Y-110654999D02*
X169511165Y-110654999D01*
X174123664Y-110555000D02*
X180166300Y-110555000D01*
X211000000Y-110900000D02*
X211000000Y-110800000D01*
X190140000Y-110500000D02*
X194400000Y-110500000D01*
X200721299Y-110035000D02*
X199356299Y-111400000D01*
X211320668Y-110579332D02*
X211320668Y-110257996D01*
X210475747Y-74345000D02*
X209924254Y-74345000D01*
X183199964Y-109800000D02*
X189440000Y-109800000D01*
X218055589Y-99355589D02*
X221005589Y-99355589D01*
X195850000Y-110500000D02*
X194400000Y-110500000D01*
X211000000Y-110900000D02*
X211320668Y-110579332D01*
X169982499Y-110833663D02*
X169803835Y-110654999D01*
X194900000Y-66250000D02*
X194450000Y-66250000D01*
X211097672Y-110035000D02*
X210170000Y-110035000D01*
X189440000Y-109800000D02*
X190140000Y-110500000D01*
X216710000Y-73960000D02*
X216710000Y-74060000D01*
X163869760Y-110940000D02*
X163858554Y-110928794D01*
X169226164Y-110940000D02*
X163869760Y-110940000D01*
X221005589Y-99355589D02*
X221125000Y-99475000D01*
X182629962Y-110370000D02*
X183199964Y-109800000D01*
X194450000Y-66250000D02*
X193800000Y-65600000D01*
X210235000Y-110035000D02*
X200721299Y-110035000D01*
X209924254Y-74345000D02*
X209849253Y-74270000D01*
X193800000Y-65600000D02*
X183200000Y-65600000D01*
X209849253Y-74270000D02*
X200440000Y-74270000D01*
X174118664Y-110550000D02*
X174123664Y-110555000D01*
X199356299Y-111400000D02*
X197350000Y-111400000D01*
X217455000Y-98755000D02*
X218055589Y-99355589D01*
X182400000Y-66400000D02*
X182350000Y-66400000D01*
X197350000Y-111400000D02*
X196750000Y-111400000D01*
X183200000Y-65600000D02*
X182400000Y-66400000D01*
X211320668Y-110257996D02*
X211097672Y-110035000D01*
X196750000Y-111400000D02*
X195850000Y-110500000D01*
X180166300Y-110555000D02*
X180351300Y-110370000D01*
X216710000Y-74060000D02*
X216500000Y-74270000D01*
X216500000Y-74270000D02*
X210550747Y-74270000D01*
X171649999Y-110550000D02*
X171366336Y-110833663D01*
X169511165Y-110654999D02*
X169226164Y-110940000D01*
X172100000Y-110550000D02*
X174118664Y-110550000D01*
X180351300Y-110370000D02*
X182629962Y-110370000D01*
X210550747Y-74270000D02*
X210475747Y-74345000D01*
X171366336Y-110833663D02*
X169982499Y-110833663D01*
X172100000Y-110550000D02*
X171649999Y-110550000D01*
G04 #@! TO.N,/FPGA/U1*
X200251336Y-84095000D02*
X201408664Y-82937672D01*
X201408664Y-82685000D02*
X202651336Y-82685000D01*
X199808664Y-83905000D02*
X199998664Y-84095000D01*
X198112400Y-83295000D02*
X198722400Y-83905000D01*
X186695000Y-82495000D02*
X196255000Y-82495000D01*
X196255000Y-82495000D02*
X197055000Y-83295000D01*
X222845000Y-83555000D02*
X224005000Y-82395000D01*
X212853701Y-83555000D02*
X222845000Y-83555000D01*
X224005000Y-82395000D02*
X235545000Y-82395000D01*
X212435000Y-83465000D02*
X212763700Y-83465000D01*
X186070000Y-82090000D02*
X186290000Y-82090000D01*
X235545000Y-82395000D02*
X235700000Y-82550000D01*
X199998664Y-84095000D02*
X200251336Y-84095000D01*
X212763700Y-83465000D02*
X212853701Y-83555000D01*
X202836336Y-82870000D02*
X211840000Y-82870000D01*
X186290000Y-82090000D02*
X186695000Y-82495000D01*
X198722400Y-83905000D02*
X199808664Y-83905000D01*
X201408664Y-82937672D02*
X201408664Y-82685000D01*
X211840000Y-82870000D02*
X212435000Y-83465000D01*
X202651336Y-82685000D02*
X202836336Y-82870000D01*
X197055000Y-83295000D02*
X198112400Y-83295000D01*
G04 #@! TO.N,/CLKIF*
X200440000Y-97960000D02*
X200735000Y-98255000D01*
X197530000Y-97960000D02*
X200440000Y-97960000D01*
X202041336Y-98140000D02*
X203441299Y-98140000D01*
X211935492Y-97730000D02*
X215470000Y-97730000D01*
X203926299Y-97655000D02*
X211860491Y-97655000D01*
X218598700Y-97880000D02*
X219260000Y-97880000D01*
X201926336Y-98255000D02*
X202041336Y-98140000D01*
X211860491Y-97655000D02*
X211935492Y-97730000D01*
X217828700Y-97110000D02*
X218598700Y-97880000D01*
X197250000Y-97680000D02*
X197530000Y-97960000D01*
X203441299Y-98140000D02*
X203926299Y-97655000D01*
X200735000Y-98255000D02*
X201926336Y-98255000D01*
X216090000Y-97110000D02*
X217828700Y-97110000D01*
X215470000Y-97730000D02*
X216090000Y-97110000D01*
G04 #@! TO.N,/RD*
X203975000Y-96055000D02*
X204326336Y-96055000D01*
X204326336Y-96055000D02*
X204981336Y-95400000D01*
X223405000Y-95495000D02*
X224300000Y-94600000D01*
X203269000Y-96761000D02*
X203975000Y-96055000D01*
X211800000Y-96250000D02*
X212350000Y-96800000D01*
X196455000Y-97145000D02*
X196906336Y-97145000D01*
X204981336Y-95400000D02*
X211500000Y-95400000D01*
X211500000Y-95400000D02*
X211800000Y-95700000D01*
X216223700Y-95495000D02*
X223405000Y-95495000D01*
X224300000Y-94600000D02*
X224890000Y-94600000D01*
X211800000Y-95700000D02*
X211800000Y-96250000D01*
X224890000Y-94600000D02*
X224930000Y-94560000D01*
X212350000Y-96800000D02*
X212350000Y-96850000D01*
X212350000Y-96850000D02*
X214868700Y-96850000D01*
X214868700Y-96850000D02*
X216223700Y-95495000D01*
X197290336Y-96761000D02*
X203269000Y-96761000D01*
X196906336Y-97145000D02*
X197290336Y-96761000D01*
X196400000Y-97200000D02*
X196455000Y-97145000D01*
G04 #@! TO.N,/FPGA/U2*
X225130000Y-80670000D02*
X237620000Y-80670000D01*
X203906101Y-82300000D02*
X214668664Y-82300000D01*
X196293664Y-82225000D02*
X196573664Y-82505000D01*
X201172562Y-82115000D02*
X203721101Y-82115000D01*
X194095000Y-82225000D02*
X196293664Y-82225000D01*
X187055000Y-82305000D02*
X194015000Y-82305000D01*
X203721101Y-82115000D02*
X203906101Y-82300000D01*
X196573664Y-82505000D02*
X196845000Y-82505000D01*
X194015000Y-82305000D02*
X194095000Y-82225000D01*
X196845000Y-82505000D02*
X197050000Y-82300000D01*
X222895000Y-82905000D02*
X225130000Y-80670000D01*
X197050000Y-82300000D02*
X200987562Y-82300000D01*
X237620000Y-80670000D02*
X238400000Y-81450000D01*
X186850000Y-82100000D02*
X187055000Y-82305000D01*
X200987562Y-82300000D02*
X201172562Y-82115000D01*
X215273664Y-82905000D02*
X222895000Y-82905000D01*
X214668664Y-82300000D02*
X215273664Y-82905000D01*
G04 #@! TO.N,/IO Banks/B.DIR1*
X200925000Y-90190000D02*
X201286482Y-90190000D01*
X201286482Y-90190000D02*
X201596482Y-90500000D01*
X201596482Y-90500000D02*
X204300000Y-90500000D01*
G04 #@! TO.N,+1V1*
D22*
X197920000Y-100540000D02*
X198430000Y-100540000D01*
X215235000Y-99285000D02*
X216605000Y-97915000D01*
X198430000Y-100540000D02*
X198475000Y-100585000D01*
X222236705Y-98340000D02*
X225380000Y-98340000D01*
X197340000Y-90575000D02*
X196765527Y-90575000D01*
X216605000Y-97915000D02*
X217950000Y-97915000D01*
X222061705Y-98515000D02*
X222236705Y-98340000D01*
X218550000Y-98515000D02*
X222061705Y-98515000D01*
X196765527Y-90575000D02*
X196380527Y-90190000D01*
X201583162Y-100585000D02*
X202883162Y-99285000D01*
X211300000Y-99285000D02*
X215235000Y-99285000D01*
X217950000Y-97915000D02*
X218550000Y-98515000D01*
X211300000Y-98360000D02*
X211300000Y-99285000D01*
X196380527Y-90190000D02*
X196125000Y-90190000D01*
D21*
X197725000Y-90190000D02*
X198525000Y-90190000D01*
D22*
X198475000Y-100585000D02*
X201583162Y-100585000D01*
X197725000Y-90190000D02*
X197340000Y-90575000D01*
X202883162Y-99285000D02*
X211300000Y-99285000D01*
X211480000Y-98180000D02*
X211300000Y-98360000D01*
G04 #@! TO.N,+2V5*
D20*
X195105172Y-90550000D02*
X195095172Y-90540000D01*
X195760000Y-90550000D02*
X195490000Y-90550000D01*
X196565000Y-90875000D02*
X196240000Y-90550000D01*
X196565000Y-91215000D02*
X196350000Y-91430000D01*
X195760000Y-90550000D02*
X195760000Y-90820000D01*
X196565000Y-90990000D02*
X196565000Y-90875000D01*
X202867036Y-91430000D02*
X196860000Y-91430000D01*
D24*
X195955172Y-91400000D02*
X195753534Y-91198362D01*
X196860000Y-91430000D02*
X196350000Y-91430000D01*
D20*
X196090000Y-90550000D02*
X196040000Y-90550000D01*
X219340883Y-88350000D02*
X216830883Y-90860000D01*
D24*
X194875000Y-90540000D02*
X195095172Y-90540000D01*
D20*
X196090000Y-90550000D02*
X195760000Y-90550000D01*
X233105883Y-88000000D02*
X232725883Y-88380000D01*
X196860000Y-91430000D02*
X196780000Y-91350000D01*
X228350883Y-88380000D02*
X228320883Y-88350000D01*
X196775883Y-91350000D02*
X196565000Y-91139117D01*
X195753534Y-91198362D02*
X195753534Y-90836466D01*
X196040000Y-90550000D02*
X195765000Y-90825000D01*
D24*
X194525000Y-90190000D02*
X194875000Y-90540000D01*
X196055883Y-91430000D02*
X196025883Y-91400000D01*
D20*
X196565000Y-91139117D02*
X196565000Y-90990000D01*
X196780000Y-91350000D02*
X196775883Y-91350000D01*
X203437036Y-90860000D02*
X202867036Y-91430000D01*
X235450000Y-88000000D02*
X233105883Y-88000000D01*
X196240000Y-90550000D02*
X196090000Y-90550000D01*
X195490000Y-90550000D02*
X195765000Y-90825000D01*
X232725883Y-88380000D02*
X228350883Y-88380000D01*
X195753534Y-90836466D02*
X195765000Y-90825000D01*
X216830883Y-90860000D02*
X203437036Y-90860000D01*
D24*
X196025883Y-91400000D02*
X195955172Y-91400000D01*
D20*
X196565000Y-90990000D02*
X196565000Y-91215000D01*
X228320883Y-88350000D02*
X219340883Y-88350000D01*
X195490000Y-90550000D02*
X195105172Y-90550000D01*
D24*
X196350000Y-91430000D02*
X196055883Y-91430000D01*
D20*
X195765000Y-90825000D02*
X195760000Y-90820000D01*
G04 #@! TO.N,/IO Banks/B.Q1*
D25*
X204320000Y-89230000D02*
X204190000Y-89360000D01*
X202651336Y-89085000D02*
X201230000Y-89085000D01*
X204190000Y-89360000D02*
X202926336Y-89360000D01*
X201230000Y-89085000D02*
X200925000Y-89390000D01*
X202926336Y-89360000D02*
X202651336Y-89085000D01*
G04 #@! TO.N,/IO Banks/B.Q2*
X200798664Y-89695000D02*
X200570000Y-89466336D01*
X205985000Y-89695000D02*
X200798664Y-89695000D01*
X200570000Y-89466336D02*
X200570000Y-89110000D01*
X206490000Y-89190000D02*
X205985000Y-89695000D01*
G04 #@! TO.N,/IO Banks/B.DIR2*
X207490000Y-89200000D02*
X206805000Y-89885000D01*
X206805000Y-89885000D02*
X199875000Y-89885000D01*
X199875000Y-89885000D02*
X199780000Y-89790000D01*
G04 #@! TO.N,/IO Banks/B.DIR5*
X203948664Y-89170000D02*
X203005036Y-89170000D01*
X204323664Y-88795000D02*
X203948664Y-89170000D01*
X203005036Y-89170000D02*
X202730036Y-88895000D01*
X201230000Y-88895000D02*
X200925000Y-88590000D01*
X212740000Y-87900000D02*
X212730000Y-87900000D01*
X210598518Y-88795000D02*
X204323664Y-88795000D01*
X211660000Y-88970000D02*
X210773518Y-88970000D01*
X202730036Y-88895000D02*
X201230000Y-88895000D01*
X212730000Y-87900000D02*
X211660000Y-88970000D01*
X210773518Y-88970000D02*
X210598518Y-88795000D01*
G04 #@! TO.N,/FPGA/RAM + LVDS/VIO_{AUX}*
D21*
X197725000Y-88590000D02*
X198525000Y-88590000D01*
G04 #@! TO.N,/IO Banks/B.Q5*
D25*
X210980000Y-88210000D02*
X211420000Y-88650000D01*
X204450000Y-88210000D02*
X210980000Y-88210000D01*
X203430000Y-88745000D02*
X203435000Y-88740000D01*
X211420000Y-88650000D02*
X211480000Y-88650000D01*
X203920000Y-88740000D02*
X204450000Y-88210000D01*
X203435000Y-88740000D02*
X203920000Y-88740000D01*
G04 #@! TO.N,+1V8*
D23*
X220300000Y-80500000D02*
X220170000Y-80630000D01*
D21*
X192320000Y-86520000D02*
X192730000Y-86930000D01*
X191939461Y-86520000D02*
X192320000Y-86520000D01*
X184525000Y-86990000D02*
X184585000Y-86930000D01*
X184585000Y-86930000D02*
X191529461Y-86930000D01*
X194525000Y-87790000D02*
X194525000Y-86990000D01*
D23*
X209700000Y-80200000D02*
X194600000Y-80200000D01*
D21*
X191529461Y-86930000D02*
X191939461Y-86520000D01*
D23*
X213641249Y-80630000D02*
X213211249Y-80200000D01*
X213211249Y-80200000D02*
X209700000Y-80200000D01*
D21*
X194465000Y-86930000D02*
X194525000Y-86990000D01*
D23*
X220170000Y-80630000D02*
X213641249Y-80630000D01*
D21*
X192730000Y-86930000D02*
X194465000Y-86930000D01*
G04 #@! TO.N,/FPGA/RAM + LVDS/Z13_P*
D25*
X208911848Y-87115000D02*
X207988154Y-87115000D01*
X215750901Y-87675252D02*
X215535649Y-87460000D01*
X215535649Y-87460000D02*
X211162850Y-87460000D01*
X211162850Y-87460000D02*
X210465810Y-86762960D01*
X207988154Y-87115000D02*
X207636114Y-86762960D01*
X209263887Y-86762960D02*
X208911848Y-87115000D01*
X207636114Y-86762960D02*
X202923577Y-86762960D01*
X210465810Y-86762960D02*
X209263887Y-86762960D01*
X215750901Y-87859099D02*
X215750901Y-87675252D01*
X202696538Y-86990000D02*
X200925000Y-86990000D01*
X202923577Y-86762960D02*
X202696538Y-86990000D01*
G04 #@! TO.N,/FPGA/RAM + LVDS/Z15_P*
X202965239Y-86990000D02*
X207594454Y-86990000D01*
X200125000Y-86990000D02*
X200430000Y-87295000D01*
X202660239Y-87295000D02*
X202965239Y-86990000D01*
X200430000Y-87295000D02*
X202660239Y-87295000D01*
X209305547Y-86990000D02*
X210424148Y-86990000D01*
X208990549Y-87305000D02*
X209305547Y-86990000D01*
X207909454Y-87305000D02*
X208990549Y-87305000D01*
X211795000Y-87745000D02*
X211850000Y-87800000D01*
X211179148Y-87745000D02*
X211795000Y-87745000D01*
X207594454Y-86990000D02*
X207909454Y-87305000D01*
X210424148Y-86990000D02*
X211179148Y-87745000D01*
G04 #@! TO.N,/FPGA/RAM + LVDS/Z15_N*
X211500901Y-88160901D02*
X211500901Y-88234099D01*
X207517734Y-87181980D02*
X207830754Y-87495000D01*
X203044760Y-87181980D02*
X207517734Y-87181980D01*
X207830754Y-87495000D02*
X209069250Y-87495000D01*
X202739760Y-87486980D02*
X203044760Y-87181980D01*
X199821980Y-87486980D02*
X202739760Y-87486980D01*
X209382269Y-87181980D02*
X210344628Y-87181980D01*
X199325000Y-86990000D02*
X199821980Y-87486980D01*
X211275980Y-87935980D02*
X211500901Y-88160901D01*
X210344628Y-87181980D02*
X211098628Y-87935980D01*
X209069250Y-87495000D02*
X209382269Y-87181980D01*
X211098628Y-87935980D02*
X211275980Y-87935980D01*
G04 #@! TO.N,/FPGA/RAM + LVDS/Z11_P*
X208224254Y-86545000D02*
X207869254Y-86190000D01*
X210810266Y-86200000D02*
X210809573Y-86200000D01*
X209030746Y-86190000D02*
X208675746Y-86545000D01*
X211613933Y-86643280D02*
X211446732Y-86476079D01*
X211797780Y-86643280D02*
X211613933Y-86643280D01*
X208675746Y-86545000D02*
X208224254Y-86545000D01*
X211086345Y-86476079D02*
X210810266Y-86200000D01*
X202525000Y-86190000D02*
X206275650Y-86190000D01*
X211446732Y-86476079D02*
X211086345Y-86476079D01*
X210799573Y-86190000D02*
X209030746Y-86190000D01*
X207869254Y-86190000D02*
X206275650Y-86190000D01*
X210809573Y-86200000D02*
X210799573Y-86190000D01*
G04 #@! TO.N,/FPGA/RAM + LVDS/Z11_N*
X202398664Y-86495000D02*
X202283664Y-86380000D01*
X202283664Y-86380000D02*
X201915000Y-86380000D01*
X209109447Y-86380000D02*
X208754446Y-86735000D01*
X211007239Y-86667059D02*
X210731160Y-86390980D01*
X202651336Y-86495000D02*
X202398664Y-86495000D01*
X210720873Y-86380000D02*
X209109447Y-86380000D01*
X208754446Y-86735000D02*
X208145554Y-86735000D01*
X210731160Y-86390287D02*
X210720873Y-86380000D01*
X201915000Y-86380000D02*
X201725000Y-86190000D01*
X210731160Y-86390980D02*
X210731160Y-86390287D01*
X208145554Y-86735000D02*
X207790554Y-86380000D01*
X211367626Y-86667059D02*
X211007239Y-86667059D01*
X211479582Y-86779015D02*
X211367626Y-86667059D01*
X202766336Y-86380000D02*
X202651336Y-86495000D01*
X211479582Y-86961478D02*
X211479582Y-86779015D01*
X207790554Y-86380000D02*
X202766336Y-86380000D01*
G04 #@! TO.N,/FPGA/RAM + LVDS/Z13_N*
X215614351Y-87270000D02*
X215885252Y-87540901D01*
X207712834Y-86570980D02*
X208066854Y-86925000D01*
X202730037Y-86685000D02*
X202844056Y-86570980D01*
X209187167Y-86570980D02*
X210542530Y-86570980D01*
X208066854Y-86925000D02*
X208833147Y-86925000D01*
X202844056Y-86570980D02*
X207712834Y-86570980D01*
X201420000Y-86685000D02*
X202730037Y-86685000D01*
X211241550Y-87270000D02*
X215614351Y-87270000D01*
X210542530Y-86570980D02*
X211241550Y-87270000D01*
X208833147Y-86925000D02*
X209187167Y-86570980D01*
X215885252Y-87540901D02*
X216069099Y-87540901D01*
X200925000Y-86190000D02*
X201420000Y-86685000D01*
G04 #@! TO.N,/FPGA/RAM + LVDS/Z9_P*
X215040901Y-86190000D02*
X215040901Y-86028050D01*
X202604350Y-85885000D02*
X201598664Y-85885000D01*
X207647954Y-85700000D02*
X202789350Y-85700000D01*
X201598664Y-85885000D02*
X201383664Y-86100000D01*
X209252046Y-85700000D02*
X208597046Y-86355000D01*
X208597046Y-86355000D02*
X208302954Y-86355000D01*
X201051336Y-85885000D02*
X200430000Y-85885000D01*
X215040901Y-86209099D02*
X215040901Y-86190000D01*
X214912851Y-85900000D02*
X211962836Y-85900000D01*
X202789350Y-85700000D02*
X202604350Y-85885000D01*
X211576757Y-86286079D02*
X211165045Y-86286079D01*
X201266336Y-86100000D02*
X201051336Y-85885000D01*
X210578966Y-85700000D02*
X209252046Y-85700000D01*
X208302954Y-86355000D02*
X207647954Y-85700000D01*
X211962836Y-85900000D02*
X211576757Y-86286079D01*
X215040901Y-86028050D02*
X214912851Y-85900000D01*
X211165045Y-86286079D02*
X210578966Y-85700000D01*
X200430000Y-85885000D02*
X200125000Y-86190000D01*
X201383664Y-86100000D02*
X201266336Y-86100000D01*
G04 #@! TO.N,/FPGA/RAM + LVDS/Z7_P*
X199135000Y-85115000D02*
X199020000Y-85230000D01*
X211689099Y-85470901D02*
X211505252Y-85470901D01*
X211164351Y-85130000D02*
X208199350Y-85130000D01*
X199352194Y-84895000D02*
X199135000Y-85112193D01*
X199020000Y-85885000D02*
X199325000Y-86190000D01*
X208199350Y-85130000D02*
X207964350Y-84895000D01*
X211505252Y-85470901D02*
X211164351Y-85130000D01*
X199020000Y-85230000D02*
X199020000Y-85885000D01*
X207964350Y-84895000D02*
X199352194Y-84895000D01*
X199135000Y-85112193D02*
X199135000Y-85115000D01*
G04 #@! TO.N,/FPGA/SYNSYN*
X197330000Y-76910000D02*
X197320000Y-76910000D01*
X230795306Y-76925000D02*
X217786336Y-76925000D01*
X217786336Y-76925000D02*
X217056336Y-76195000D01*
X209973664Y-76905000D02*
X209795000Y-76726336D01*
X203845000Y-76726336D02*
X203293664Y-76175000D01*
X209795000Y-76726336D02*
X203845000Y-76726336D01*
X237441336Y-72650000D02*
X232576336Y-77515000D01*
X210936336Y-76195000D02*
X210226336Y-76905000D01*
X239971336Y-72650000D02*
X237441336Y-72650000D01*
X210226336Y-76905000D02*
X209973664Y-76905000D01*
X203293664Y-76175000D02*
X198065000Y-76175000D01*
X241240000Y-71610000D02*
X241011336Y-71610000D01*
X198065000Y-76175000D02*
X197330000Y-76910000D01*
X231385306Y-77515000D02*
X230795306Y-76925000D01*
X232576336Y-77515000D02*
X231385306Y-77515000D01*
X217056336Y-76195000D02*
X210936336Y-76195000D01*
X241011336Y-71610000D02*
X239971336Y-72650000D01*
G04 #@! TO.N,/FPGA/TDO*
X162720000Y-79930000D02*
X188218662Y-79930000D01*
X193260000Y-79200000D02*
X193260000Y-79205000D01*
X188933664Y-79215000D02*
X191665037Y-79215000D01*
X193260000Y-79205000D02*
X194455000Y-79205000D01*
X194455000Y-79205000D02*
X194600000Y-79350000D01*
X192830000Y-78770000D02*
X193260000Y-79200000D01*
X192110037Y-78770000D02*
X192830000Y-78770000D01*
X191665037Y-79215000D02*
X192110037Y-78770000D01*
X161250000Y-81270000D02*
X161380000Y-81270000D01*
X161380000Y-81270000D02*
X162720000Y-79930000D01*
X188218662Y-79930000D02*
X188933664Y-79215000D01*
G04 #@! TO.N,/FPGA/RAM + LVDS/CK1*
X189560000Y-85675000D02*
X189865000Y-85980000D01*
X186720000Y-85675000D02*
X189560000Y-85675000D01*
X186615000Y-85780000D02*
X186720000Y-85675000D01*
G04 #@! TO.N,/FPGA/RAM + LVDS/Z9_N*
X201517164Y-85695000D02*
X201373582Y-85838582D01*
X202524830Y-85693020D02*
X202319144Y-85693020D01*
X215360000Y-85840000D02*
X215121551Y-85840000D01*
X202707850Y-85510000D02*
X202524830Y-85693020D01*
X211881336Y-85710000D02*
X211497237Y-86094099D01*
X201373582Y-85838582D02*
X200925000Y-85390000D01*
X215121551Y-85840000D02*
X214991551Y-85710000D01*
X202319144Y-85693020D02*
X202317164Y-85695000D01*
X214991551Y-85710000D02*
X211881336Y-85710000D01*
X215359099Y-85840901D02*
X215360000Y-85840000D01*
X202317164Y-85695000D02*
X201517164Y-85695000D01*
X211497237Y-86094099D02*
X211244565Y-86094099D01*
X210660466Y-85510000D02*
X202707850Y-85510000D01*
X215359099Y-85890901D02*
X215359099Y-85840901D01*
X211244565Y-86094099D02*
X210660466Y-85510000D01*
G04 #@! TO.N,/FPGA/RAM + LVDS/Z7_N*
X208120649Y-85320000D02*
X207885649Y-85085000D01*
X207885649Y-85085000D02*
X199430894Y-85085000D01*
X211370901Y-85605252D02*
X211085649Y-85320000D01*
X199325000Y-85190894D02*
X199325000Y-85390000D01*
X211085649Y-85320000D02*
X208120649Y-85320000D01*
X211370901Y-85789099D02*
X211370901Y-85605252D01*
X199430894Y-85085000D02*
X199325000Y-85190894D01*
G04 #@! TO.N,CFG0*
X190045000Y-85475000D02*
X190290000Y-85720000D01*
X172460000Y-85990000D02*
X185973664Y-85990000D01*
X190290000Y-85720000D02*
X194995000Y-85720000D01*
X169420000Y-88100000D02*
X170350000Y-88100000D01*
X185973664Y-85990000D02*
X186488664Y-85475000D01*
X170350000Y-88100000D02*
X172460000Y-85990000D01*
X186488664Y-85475000D02*
X190045000Y-85475000D01*
X194995000Y-85720000D02*
X195325000Y-85390000D01*
G04 #@! TO.N,/FPGA/RAM + LVDS/Z5_N*
X199687564Y-84590000D02*
X199762565Y-84665001D01*
X199325000Y-84590000D02*
X199687564Y-84590000D01*
X211362013Y-84676783D02*
X211362013Y-84837066D01*
X200487441Y-84665001D02*
X211350231Y-84665001D01*
X199762565Y-84665001D02*
X200487439Y-84664999D01*
X211350231Y-84665001D02*
X211362013Y-84676783D01*
X200487439Y-84664999D02*
X200487441Y-84665001D01*
G04 #@! TO.N,/FPGA/RAM + LVDS/Z5_P*
X200483738Y-84400000D02*
X211377496Y-84400000D01*
X199651264Y-84285000D02*
X199841265Y-84475001D01*
X211496364Y-84518868D02*
X211680211Y-84518868D01*
X199841265Y-84475001D02*
X200408738Y-84474999D01*
X200408738Y-84474999D02*
X200483738Y-84400000D01*
X198830000Y-84285000D02*
X199651264Y-84285000D01*
X211377496Y-84400000D02*
X211496364Y-84518868D01*
X198525000Y-84590000D02*
X198830000Y-84285000D01*
G04 #@! TO.N,/FPGA_DONE*
X226668664Y-89150000D02*
X226109332Y-89709332D01*
X226109332Y-89709332D02*
X222177996Y-89709332D01*
X222177996Y-89709332D02*
X221863664Y-89395000D01*
X239700000Y-89150000D02*
X239650000Y-89100000D01*
X228618664Y-89150000D02*
X226668664Y-89150000D01*
X218805000Y-89395000D02*
X217145000Y-91055000D01*
X228901164Y-88867500D02*
X228618664Y-89150000D01*
X236986164Y-88867500D02*
X228901164Y-88867500D01*
X221863664Y-89395000D02*
X218805000Y-89395000D01*
X239650000Y-89100000D02*
X237218664Y-89100000D01*
X237218664Y-89100000D02*
X236986164Y-88867500D01*
G04 #@! TO.N,/FPGA/RAM + LVDS/CS#1*
X194125000Y-84990000D02*
X184035000Y-84990000D01*
X194525000Y-84590000D02*
X194125000Y-84990000D01*
G04 #@! TO.N,/FPGA/RAM + LVDS/Z3_P*
X212760000Y-84200000D02*
X212405000Y-83845000D01*
X212800000Y-84200000D02*
X212760000Y-84200000D01*
X204555651Y-83485001D02*
X202029999Y-83485001D01*
X212405000Y-83845000D02*
X204915650Y-83845000D01*
X204915650Y-83845000D02*
X204555651Y-83485001D01*
X202029999Y-83485001D02*
X201725000Y-83790000D01*
G04 #@! TO.N,/FPGA/RAM + LVDS/Z1_P*
X200620000Y-83300000D02*
X200130000Y-83790000D01*
X213650000Y-82900000D02*
X213300000Y-82900000D01*
X213300000Y-82900000D02*
X212890000Y-82490000D01*
X201251262Y-82305000D02*
X200871263Y-82685000D01*
X200620000Y-82863664D02*
X200620000Y-83300000D01*
X203827400Y-82490000D02*
X203642400Y-82305000D01*
X213800000Y-82750000D02*
X213650000Y-82900000D01*
X203642400Y-82305000D02*
X201251262Y-82305000D01*
X200871263Y-82685000D02*
X200798664Y-82685000D01*
X200798664Y-82685000D02*
X200620000Y-82863664D01*
X212890000Y-82490000D02*
X203827400Y-82490000D01*
X200130000Y-83790000D02*
X200125000Y-83790000D01*
G04 #@! TO.N,/D6*
X201216300Y-98635000D02*
X200971300Y-98880000D01*
X202635000Y-98635000D02*
X201216300Y-98635000D01*
X200971300Y-98880000D02*
X199060000Y-98880000D01*
X199060000Y-98880000D02*
X199050000Y-98870000D01*
X202900000Y-98900000D02*
X202635000Y-98635000D01*
G04 #@! TO.N,/~{FPGA_RESET}*
X214905000Y-82105000D02*
X215400000Y-82600000D01*
X162110000Y-82760000D02*
X163215000Y-81655000D01*
X187595000Y-81785000D02*
X187925000Y-82115000D01*
X226170000Y-78180000D02*
X221750000Y-82600000D01*
X160450000Y-82760000D02*
X162110000Y-82760000D01*
X177589332Y-81785000D02*
X187595000Y-81785000D01*
X203799801Y-81925000D02*
X203979802Y-82105000D01*
X196700000Y-82200000D02*
X196795000Y-82105000D01*
X196795000Y-82105000D02*
X200913862Y-82105000D01*
X158807858Y-81117858D02*
X160450000Y-82760000D01*
X187925000Y-82115000D02*
X193075000Y-82115000D01*
X153260000Y-80490000D02*
X153887858Y-81117858D01*
X221750000Y-82600000D02*
X215400000Y-82600000D01*
X172931238Y-82420000D02*
X176954332Y-82420000D01*
X176954332Y-82420000D02*
X177589332Y-81785000D01*
X203979802Y-82105000D02*
X214905000Y-82105000D01*
X163215000Y-81655000D02*
X172166238Y-81655000D01*
X201093862Y-81925000D02*
X203799801Y-81925000D01*
X153887858Y-81117858D02*
X158807858Y-81117858D01*
X153250000Y-80490000D02*
X153260000Y-80490000D01*
X196195000Y-81695000D02*
X196700000Y-82200000D01*
X193075000Y-82115000D02*
X193495000Y-81695000D01*
X172166238Y-81655000D02*
X172931238Y-82420000D01*
X193495000Y-81695000D02*
X196195000Y-81695000D01*
X200913862Y-82105000D02*
X201093862Y-81925000D01*
G04 #@! TO.N,CFG2*
X189991336Y-86285000D02*
X190366336Y-85910000D01*
X169770000Y-88405000D02*
X169825000Y-88350000D01*
X188920000Y-86480000D02*
X189115000Y-86285000D01*
X195630000Y-84095000D02*
X195325000Y-83790000D01*
X195630000Y-85570000D02*
X195630000Y-84095000D01*
X190366336Y-85910000D02*
X195290000Y-85910000D01*
X195290000Y-85910000D02*
X195630000Y-85570000D01*
X187010000Y-86390000D02*
X187100000Y-86480000D01*
X170400000Y-88350000D02*
X172360000Y-86390000D01*
X187100000Y-86480000D02*
X188920000Y-86480000D01*
X189115000Y-86285000D02*
X189991336Y-86285000D01*
X172360000Y-86390000D02*
X187010000Y-86390000D01*
X169825000Y-88350000D02*
X170400000Y-88350000D01*
G04 #@! TO.N,/FPGA/TDI*
X191511300Y-77820000D02*
X192026300Y-78335000D01*
X187487500Y-79502500D02*
X189170000Y-77820000D01*
X160110000Y-80560000D02*
X161460000Y-79210000D01*
X192026300Y-78335000D02*
X192953664Y-78335000D01*
X171873664Y-79502500D02*
X187487500Y-79502500D01*
X193433664Y-78815000D02*
X193785000Y-78815000D01*
X171581164Y-79210000D02*
X171873664Y-79502500D01*
X160890000Y-82110000D02*
X160110000Y-81330000D01*
X189170000Y-77820000D02*
X191511300Y-77820000D01*
X193785000Y-78815000D02*
X193950000Y-78650000D01*
X192953664Y-78335000D02*
X193433664Y-78815000D01*
X160110000Y-81330000D02*
X160110000Y-80560000D01*
X161460000Y-79210000D02*
X171581164Y-79210000D01*
G04 #@! TO.N,/FPGA/RAM + LVDS/DQS1*
X186235000Y-84480000D02*
X184845000Y-84480000D01*
X186595000Y-84120000D02*
X186235000Y-84480000D01*
X193395000Y-84120000D02*
X186595000Y-84120000D01*
X193725000Y-83790000D02*
X193395000Y-84120000D01*
G04 #@! TO.N,/FPGA/RAM + LVDS/Z3_N*
X213105000Y-84073664D02*
X212926336Y-83895000D01*
X212926336Y-83895000D02*
X212925000Y-83895000D01*
X213105000Y-84345000D02*
X213105000Y-84073664D01*
X212730000Y-84650000D02*
X212800000Y-84650000D01*
X202029999Y-83294999D02*
X201725000Y-82990000D01*
X204634349Y-83294999D02*
X202029999Y-83294999D01*
X212685000Y-83655000D02*
X204994350Y-83655000D01*
X204994350Y-83655000D02*
X204634349Y-83294999D01*
X212800000Y-84650000D02*
X213105000Y-84345000D01*
X212925000Y-83895000D02*
X212685000Y-83655000D01*
G04 #@! TO.N,/FPGA/RAM + LVDS/Z1_N*
X213221300Y-83090000D02*
X213640000Y-83090000D01*
X201329963Y-82495000D02*
X203563700Y-82495000D01*
X212811300Y-82680000D02*
X213221300Y-83090000D01*
X200925000Y-82899963D02*
X201329963Y-82495000D01*
X213640000Y-83090000D02*
X213800000Y-83250000D01*
X200925000Y-82990000D02*
X200925000Y-82899963D01*
X203748700Y-82680000D02*
X212811300Y-82680000D01*
X203563700Y-82495000D02*
X203748700Y-82680000D01*
G04 #@! TO.N,/D0*
X203110000Y-94760000D02*
X208240000Y-94760000D01*
X202830000Y-95040000D02*
X203110000Y-94760000D01*
X202251336Y-95695000D02*
X202830000Y-95116336D01*
X193605000Y-95695000D02*
X202251336Y-95695000D01*
X193520000Y-95780000D02*
X193605000Y-95695000D01*
X208240000Y-94760000D02*
X208910000Y-94090000D01*
X202830000Y-95116336D02*
X202830000Y-95040000D01*
G04 #@! TO.N,/FPGA_INITn*
X195820000Y-82685000D02*
X196125000Y-82990000D01*
X167765000Y-84855000D02*
X170775000Y-81845000D01*
X170775000Y-81845000D02*
X172087538Y-81845000D01*
X172087538Y-81845000D02*
X172927538Y-82685000D01*
X172927538Y-82685000D02*
X195820000Y-82685000D01*
G04 #@! TO.N,/FPGA/TCK*
X192929964Y-78580000D02*
X193354964Y-79005000D01*
X162140000Y-79740000D02*
X188139962Y-79740000D01*
X195210000Y-79005000D02*
X195325000Y-79120000D01*
X193354964Y-79005000D02*
X195210000Y-79005000D01*
X192031337Y-78580000D02*
X192929964Y-78580000D01*
X191586336Y-79025000D02*
X192031337Y-78580000D01*
X188139962Y-79740000D02*
X188854964Y-79025000D01*
X188854964Y-79025000D02*
X191586336Y-79025000D01*
X160920000Y-80960000D02*
X162140000Y-79740000D01*
G04 #@! TO.N,/FPGA/TMS*
X170230000Y-78300000D02*
X170660000Y-78730000D01*
X185946285Y-77845000D02*
X186191286Y-77600000D01*
X157850000Y-79400000D02*
X158950000Y-78300000D01*
X157850000Y-79780000D02*
X157850000Y-79400000D01*
X192105000Y-78145000D02*
X194145000Y-78145000D01*
X158950000Y-78300000D02*
X170230000Y-78300000D01*
X175598836Y-78730000D02*
X176483836Y-77845000D01*
X191560000Y-77600000D02*
X192105000Y-78145000D01*
X176483836Y-77845000D02*
X185946285Y-77845000D01*
X157820000Y-79810000D02*
X157850000Y-79780000D01*
X186191286Y-77600000D02*
X191560000Y-77600000D01*
X194145000Y-78145000D02*
X194650000Y-78650000D01*
X170660000Y-78730000D02*
X175598836Y-78730000D01*
G04 #@! TO.N,Net-(Q1-G)*
X211985211Y-84705211D02*
X212235000Y-84955000D01*
X218426336Y-84955000D02*
X221915674Y-84955000D01*
X171130000Y-82340000D02*
X171140000Y-82350000D01*
X196466300Y-83485000D02*
X198033700Y-83485000D01*
X199729964Y-84095000D02*
X199919964Y-84285000D01*
X200405039Y-84209999D02*
X211802678Y-84209999D01*
X172323837Y-82350000D02*
X173356337Y-83382500D01*
X216485000Y-84805000D02*
X217385000Y-85705000D01*
X217676336Y-85705000D02*
X218426336Y-84955000D01*
X212856336Y-84955000D02*
X213041336Y-84770000D01*
X224280674Y-82590000D02*
X229668665Y-82590000D01*
X211802678Y-84209999D02*
X211985211Y-84392532D01*
X231394999Y-82694999D02*
X231450000Y-82750000D01*
X198033700Y-83485000D02*
X198648700Y-84100000D01*
X217385000Y-85705000D02*
X217676336Y-85705000D01*
X213041336Y-84770000D02*
X215038664Y-84770000D01*
X198746299Y-84100000D02*
X198751300Y-84095000D01*
X171140000Y-82350000D02*
X172323837Y-82350000D01*
X200330037Y-84285000D02*
X200405039Y-84209999D01*
X221915674Y-84955000D02*
X224280674Y-82590000D01*
X198751300Y-84095000D02*
X199729964Y-84095000D01*
X211985211Y-84392532D02*
X211985211Y-84705211D01*
X229668665Y-82590000D02*
X229773664Y-82694999D01*
X196363799Y-83382500D02*
X196466300Y-83485000D01*
X198648700Y-84100000D02*
X198746299Y-84100000D01*
X212235000Y-84955000D02*
X212856336Y-84955000D01*
X173356337Y-83382500D02*
X196363799Y-83382500D01*
X215038664Y-84770000D02*
X215073664Y-84805000D01*
X229773664Y-82694999D02*
X231394999Y-82694999D01*
X215073664Y-84805000D02*
X216485000Y-84805000D01*
X199919964Y-84285000D02*
X200330037Y-84285000D01*
G04 #@! TO.N,/LED_ERR*
X222030000Y-92120000D02*
X222910000Y-91240000D01*
X235250000Y-91900000D02*
X235200000Y-91950000D01*
X235250000Y-91500000D02*
X235250000Y-91900000D01*
X232652463Y-91240000D02*
X232707464Y-91295000D01*
X222910000Y-91240000D02*
X232652463Y-91240000D01*
X232707464Y-91295000D02*
X235045000Y-91295000D01*
X235045000Y-91295000D02*
X235250000Y-91500000D01*
G04 #@! TO.N,VDDA*
D22*
X164170000Y-94610000D02*
X164030000Y-94610000D01*
X164170000Y-94670000D02*
X164485000Y-94985000D01*
X162170000Y-95190000D02*
X161830000Y-94850000D01*
X164170000Y-94610000D02*
X164170000Y-94670000D01*
X161830000Y-94850000D02*
X161830000Y-94530000D01*
X169715000Y-94985000D02*
X169800000Y-94900000D01*
X164030000Y-94610000D02*
X163450000Y-95190000D01*
X163450000Y-95190000D02*
X162170000Y-95190000D01*
X171150000Y-78420000D02*
X171370000Y-78200000D01*
X172962499Y-78200000D02*
X172970000Y-78207501D01*
X164485000Y-94985000D02*
X169715000Y-94985000D01*
X171370000Y-78200000D02*
X172962499Y-78200000D01*
G04 #@! TO.N,/LED_ACT*
D25*
X233143836Y-91000000D02*
X235300000Y-91000000D01*
X233038836Y-91105000D02*
X233143836Y-91000000D01*
X221490000Y-91650000D02*
X222090000Y-91050000D01*
X232786164Y-91105000D02*
X233038836Y-91105000D01*
X222090000Y-91050000D02*
X232731164Y-91050000D01*
X232731164Y-91050000D02*
X232786164Y-91105000D01*
G04 #@! TO.N,/ADC/A1_P*
X194965000Y-102155000D02*
X187534338Y-102155000D01*
X195210000Y-102400000D02*
X194965000Y-102155000D01*
X187381838Y-102307500D02*
X187117021Y-102307500D01*
X186262979Y-102307500D02*
X160807500Y-102307500D01*
X160807500Y-102307500D02*
X160300000Y-101800000D01*
X186397979Y-102442500D02*
X186262979Y-102307500D01*
X186982021Y-102442500D02*
X186397979Y-102442500D01*
X187534338Y-102155000D02*
X187381838Y-102307500D01*
X187117021Y-102307500D02*
X186982021Y-102442500D01*
G04 #@! TO.N,/ADC/A1_N*
X187060722Y-102632500D02*
X187195721Y-102497500D01*
X193700000Y-103200000D02*
X196200000Y-103200000D01*
X193365000Y-102865000D02*
X193700000Y-103200000D01*
X160300000Y-102400000D02*
X160465650Y-102234350D01*
X190486164Y-102497500D02*
X190853664Y-102865000D01*
X187195721Y-102497500D02*
X190486164Y-102497500D01*
X186319279Y-102632500D02*
X187060722Y-102632500D01*
X190853664Y-102865000D02*
X193365000Y-102865000D01*
X160728800Y-102497500D02*
X186184279Y-102497500D01*
X160465650Y-102234350D02*
X160728800Y-102497500D01*
X186184279Y-102497500D02*
X186319279Y-102632500D01*
G04 #@! TO.N,/ADC/A2_P*
X191610000Y-72210000D02*
X191700000Y-72210000D01*
X191705000Y-72205000D02*
X227163664Y-72205000D01*
X228068664Y-71300000D02*
X230000000Y-71300000D01*
X165510000Y-71720000D02*
X171200000Y-71720000D01*
X191700000Y-72210000D02*
X191705000Y-72205000D01*
X172800000Y-71900000D02*
X191300000Y-71900000D01*
X191300000Y-71900000D02*
X191610000Y-72210000D01*
X227163664Y-72205000D02*
X228068664Y-71300000D01*
X155610000Y-71210000D02*
X165000000Y-71210000D01*
X171400000Y-71920000D02*
X172780000Y-71920000D01*
X165000000Y-71210000D02*
X165510000Y-71720000D01*
X171200000Y-71720000D02*
X171400000Y-71920000D01*
X155400000Y-71000000D02*
X155610000Y-71210000D01*
X172780000Y-71920000D02*
X172800000Y-71900000D01*
G04 #@! TO.N,/ADC/A2_N*
X196568664Y-72400000D02*
X191511336Y-72400000D01*
X191511336Y-72400000D02*
X191221336Y-72110000D01*
X155510000Y-72110000D02*
X154800000Y-71400000D01*
X191221336Y-72110000D02*
X155510000Y-72110000D01*
X196573664Y-72395000D02*
X196568664Y-72400000D01*
X228000000Y-71800000D02*
X227405000Y-72395000D01*
X227405000Y-72395000D02*
X196573664Y-72395000D01*
G04 #@! TO.N,/ADC/A4_P*
X196600000Y-73300000D02*
X196700000Y-73200000D01*
X191566336Y-72745000D02*
X191711336Y-72600000D01*
X154300000Y-71900000D02*
X154700000Y-72300000D01*
X191711336Y-72600000D02*
X193746740Y-72600000D01*
X190745000Y-72745000D02*
X191566336Y-72745000D01*
X154700000Y-72300000D02*
X190300000Y-72300000D01*
X190300000Y-72300000D02*
X190745000Y-72745000D01*
X193746740Y-72600000D02*
X194446740Y-73300000D01*
X194446740Y-73300000D02*
X196600000Y-73300000D01*
G04 #@! TO.N,/ADC/A4_N*
X159400000Y-64390000D02*
X163555000Y-64390000D01*
X190630000Y-63550000D02*
X191080000Y-64000000D01*
X179565001Y-64030000D02*
X184920000Y-64030000D01*
X178520001Y-65075000D02*
X179565001Y-64030000D01*
X166915000Y-65075000D02*
X178520001Y-65075000D01*
X166232500Y-64392500D02*
X166915000Y-65075000D01*
X185400000Y-63550000D02*
X190630000Y-63550000D01*
X163555000Y-64390000D02*
X163557500Y-64392500D01*
X184920000Y-64030000D02*
X185400000Y-63550000D01*
X163557500Y-64392500D02*
X166232500Y-64392500D01*
G04 #@! TO.N,/ENVC*
D27*
X210105000Y-111305000D02*
X209400000Y-110600000D01*
D25*
X195500000Y-111450000D02*
X195830000Y-111780000D01*
X186016336Y-111595000D02*
X186311336Y-111890000D01*
D27*
X213230000Y-110200000D02*
X212125000Y-111305000D01*
D25*
X195481336Y-111450000D02*
X195500000Y-111450000D01*
D27*
X219400000Y-110200000D02*
X213230000Y-110200000D01*
X212125000Y-111305000D02*
X210105000Y-111305000D01*
D25*
X186311336Y-111890000D02*
X195041336Y-111890000D01*
X200790000Y-110600000D02*
X201400000Y-110600000D01*
X195041336Y-111890000D02*
X195481336Y-111450000D01*
X195830000Y-111780000D02*
X199610000Y-111780000D01*
X174700000Y-112450000D02*
X175555000Y-111595000D01*
X175555000Y-111595000D02*
X186016336Y-111595000D01*
D27*
X209400000Y-110600000D02*
X201400000Y-110600000D01*
D25*
X199610000Y-111780000D02*
X200790000Y-110600000D01*
G04 #@! TO.N,/ENVB*
X216264999Y-66835001D02*
X216200000Y-66900000D01*
X223675001Y-66835001D02*
X216264999Y-66835001D01*
X224110000Y-67270000D02*
X223675001Y-66835001D01*
G04 #@! TO.N,LS_3V3*
D22*
X200880000Y-102209600D02*
X200880000Y-102197449D01*
X177095000Y-102012500D02*
X174465000Y-102012500D01*
X177480000Y-101627500D02*
X177095000Y-102012500D01*
X186374817Y-102037500D02*
X184690000Y-102037500D01*
D24*
X195139828Y-75880000D02*
X194909828Y-76110000D01*
X232595001Y-77064999D02*
X232440000Y-77220000D01*
D22*
X191358807Y-101885000D02*
X190769007Y-101295200D01*
D24*
X177990000Y-76000000D02*
X176992500Y-76000000D01*
X227150000Y-75880000D02*
X226787500Y-75880000D01*
X226657500Y-76010000D02*
X224182500Y-76010000D01*
X186720000Y-76460000D02*
X186720000Y-76472500D01*
X166530000Y-75880000D02*
X169510000Y-75880000D01*
X226787500Y-75880000D02*
X226657500Y-76010000D01*
D22*
X173695000Y-102012500D02*
X171242500Y-102012500D01*
X181442500Y-102012500D02*
X180900000Y-101470000D01*
X166895000Y-102012500D02*
X164265000Y-102012500D01*
D24*
X173590000Y-76150000D02*
X176197500Y-76150000D01*
X223750000Y-75890000D02*
X223357500Y-75890000D01*
D22*
X206857600Y-102311200D02*
X204381600Y-102311200D01*
D24*
X224182500Y-76010000D02*
X224062500Y-75890000D01*
D22*
X170315000Y-101855000D02*
X167507500Y-101855000D01*
D24*
X231507500Y-77220000D02*
X230760000Y-76472500D01*
D22*
X210790500Y-102311200D02*
X210892100Y-102209600D01*
D24*
X203692500Y-75880000D02*
X195139828Y-75880000D01*
X213510000Y-75890000D02*
X216597500Y-75890000D01*
X206730000Y-75890000D02*
X203702500Y-75890000D01*
D22*
X224536000Y-102209600D02*
X221280000Y-102209600D01*
D24*
X213510000Y-75890000D02*
X210810000Y-75890000D01*
X230760000Y-76472500D02*
X227742500Y-76472500D01*
D22*
X167280000Y-101627500D02*
X166895000Y-102012500D01*
X183895000Y-102012500D02*
X181442500Y-102012500D01*
D24*
X183320000Y-76630000D02*
X183850000Y-76100000D01*
X209390000Y-75890000D02*
X206730000Y-75890000D01*
D22*
X200909400Y-102180200D02*
X201835473Y-102180200D01*
X190769007Y-101295200D02*
X188012300Y-101295200D01*
D24*
X203702500Y-75890000D02*
X203692500Y-75880000D01*
X183320000Y-76630000D02*
X182752500Y-76062500D01*
X186360000Y-76100000D02*
X186720000Y-76460000D01*
D22*
X170700000Y-101470000D02*
X170315000Y-101855000D01*
D24*
X210100000Y-76600000D02*
X209390000Y-75890000D01*
X217392500Y-76000000D02*
X217272500Y-75880000D01*
X166370000Y-76040000D02*
X166530000Y-75880000D01*
D22*
X188012300Y-101295200D02*
X187678750Y-101628750D01*
D24*
X170782500Y-76590000D02*
X172440000Y-76590000D01*
D22*
X180515000Y-101855000D02*
X177707500Y-101855000D01*
X186509817Y-102172500D02*
X186374817Y-102037500D01*
X187678750Y-101628750D02*
X187270000Y-102037500D01*
X174465000Y-102012500D02*
X174080000Y-101627500D01*
X167507500Y-101855000D02*
X167280000Y-101627500D01*
D24*
X179920000Y-75880000D02*
X178110000Y-75880000D01*
D22*
X201864873Y-102209600D02*
X204280000Y-102209600D01*
X200880000Y-102197449D02*
X200567551Y-101885000D01*
D24*
X182752500Y-76062500D02*
X180330000Y-76062500D01*
X180147500Y-75880000D02*
X179920000Y-75880000D01*
X176992500Y-76000000D02*
X176520000Y-76472500D01*
X169510000Y-75880000D02*
X169640000Y-76010000D01*
X217272500Y-75880000D02*
X216920000Y-75880000D01*
X172440000Y-76590000D02*
X173150000Y-76590000D01*
D22*
X204381600Y-102311200D02*
X204280000Y-102209600D01*
D24*
X216597500Y-75890000D02*
X216607500Y-75880000D01*
D22*
X200567551Y-101885000D02*
X191358807Y-101885000D01*
X206857600Y-102311200D02*
X210790500Y-102311200D01*
D24*
X223247500Y-76000000D02*
X220940000Y-76000000D01*
D22*
X211080000Y-102209600D02*
X214480000Y-102209600D01*
D24*
X220320000Y-76620000D02*
X219700000Y-76000000D01*
D22*
X210892100Y-102209600D02*
X211080000Y-102209600D01*
X174080000Y-101627500D02*
X173695000Y-102012500D01*
D24*
X178110000Y-75880000D02*
X177990000Y-76000000D01*
X232440000Y-77220000D02*
X231507500Y-77220000D01*
X216607500Y-75880000D02*
X216920000Y-75880000D01*
D22*
X164265000Y-102012500D02*
X163880000Y-101627500D01*
D24*
X223357500Y-75890000D02*
X223247500Y-76000000D01*
D22*
X184280000Y-101627500D02*
X183895000Y-102012500D01*
D24*
X173150000Y-76590000D02*
X173590000Y-76150000D01*
X169770000Y-75880000D02*
X170072500Y-75880000D01*
D22*
X180900000Y-101470000D02*
X180515000Y-101855000D01*
X216916000Y-102209600D02*
X221280000Y-102209600D01*
D24*
X183850000Y-76100000D02*
X186360000Y-76100000D01*
X210810000Y-75890000D02*
X210227500Y-76472500D01*
D22*
X201835473Y-102180200D02*
X201864873Y-102209600D01*
D24*
X169640000Y-76010000D02*
X169770000Y-75880000D01*
X224062500Y-75890000D02*
X223750000Y-75890000D01*
X210227500Y-76472500D02*
X210100000Y-76600000D01*
X176197500Y-76150000D02*
X176520000Y-76472500D01*
D22*
X171242500Y-102012500D02*
X170700000Y-101470000D01*
D24*
X227742500Y-76472500D02*
X227150000Y-75880000D01*
X189527500Y-76472500D02*
X186720000Y-76472500D01*
D22*
X184690000Y-102037500D02*
X184280000Y-101627500D01*
X200880000Y-102209600D02*
X200909400Y-102180200D01*
D24*
X220940000Y-76000000D02*
X220320000Y-76620000D01*
X180330000Y-76062500D02*
X180147500Y-75880000D01*
D22*
X186870183Y-102172500D02*
X186509817Y-102172500D01*
X216916000Y-102209600D02*
X214480000Y-102209600D01*
X177707500Y-101855000D02*
X177480000Y-101627500D01*
D24*
X189890000Y-76110000D02*
X189527500Y-76472500D01*
D22*
X187005183Y-102037500D02*
X186870183Y-102172500D01*
D24*
X194909828Y-76110000D02*
X189890000Y-76110000D01*
X219700000Y-76000000D02*
X217392500Y-76000000D01*
X170072500Y-75880000D02*
X170782500Y-76590000D01*
D22*
X187270000Y-102037500D02*
X187005183Y-102037500D01*
G04 #@! TO.N,/IO Banks/Bank B/V_{IO_OUT}*
D24*
X202110000Y-64990000D02*
X202600000Y-64500000D01*
X200700000Y-64990000D02*
X202110000Y-64990000D01*
G04 #@! TO.N,/USB_P*
D25*
X233240901Y-99424748D02*
X233240901Y-99240901D01*
X226130000Y-99300000D02*
X226100000Y-99330000D01*
X226204999Y-99504999D02*
X226425579Y-99504999D01*
X228041336Y-99500000D02*
X233165649Y-99500000D01*
X226100000Y-99330000D02*
X226100000Y-99400000D01*
X226965580Y-100045000D02*
X227496336Y-100045000D01*
X226100000Y-99400000D02*
X226204999Y-99504999D01*
X233165649Y-99500000D02*
X233240901Y-99424748D01*
X226425579Y-99504999D02*
X226965580Y-100045000D01*
X227496336Y-100045000D02*
X228041336Y-99500000D01*
G04 #@! TO.N,/IO Banks/Bank C/V_{IO_OUT}*
D24*
X188890000Y-113110000D02*
X190300000Y-113110000D01*
X188130000Y-113650000D02*
X188350000Y-113650000D01*
X188350000Y-113650000D02*
X188890000Y-113110000D01*
G04 #@! TO.N,/ENVD*
D25*
X200950599Y-65595000D02*
X200550599Y-65995000D01*
X203861482Y-65595000D02*
X200950599Y-65595000D01*
X200049401Y-65995000D02*
X199649401Y-65595000D01*
X224100000Y-66300000D02*
X223695000Y-65895000D01*
X179894999Y-65894999D02*
X179500000Y-65500000D01*
X200550599Y-65995000D02*
X200049401Y-65995000D01*
X183121299Y-65410000D02*
X182636301Y-65894999D01*
X193878700Y-65410000D02*
X183121299Y-65410000D01*
X223695000Y-65895000D02*
X204161482Y-65895000D01*
X195439401Y-65945000D02*
X194413700Y-65945000D01*
X204161482Y-65895000D02*
X203861482Y-65595000D01*
X195789401Y-65595000D02*
X195439401Y-65945000D01*
X182636301Y-65894999D02*
X179894999Y-65894999D01*
X194413700Y-65945000D02*
X193878700Y-65410000D01*
X199649401Y-65595000D02*
X195789401Y-65595000D01*
G04 #@! TO.N,/USB_N*
X225877757Y-99990000D02*
X225877757Y-99950000D01*
X233375252Y-99559099D02*
X233559099Y-99559099D01*
X226132756Y-99695001D02*
X226346881Y-99695001D01*
X228120037Y-99690000D02*
X233244350Y-99690000D01*
X227575037Y-100235000D02*
X228120037Y-99690000D01*
X226346881Y-99695001D02*
X226886880Y-100235000D01*
X226886880Y-100235000D02*
X227575037Y-100235000D01*
X225877757Y-99950000D02*
X226132756Y-99695001D01*
X233244350Y-99690000D02*
X233375252Y-99559099D01*
G04 #@! TO.N,/IO Banks/Bank D/V_{IO_OUT}*
D24*
X165115000Y-64990000D02*
X163700000Y-64990000D01*
X165407500Y-64697500D02*
X165115000Y-64990000D01*
G04 #@! TO.N,/IO Banks/V_{SET_B}*
D27*
X178008725Y-80638725D02*
X177580000Y-81067451D01*
X179012177Y-80638725D02*
X178008725Y-80638725D01*
X213860000Y-78390000D02*
X213860000Y-78440000D01*
X190910000Y-80780000D02*
X186347315Y-80780000D01*
X185890314Y-81237000D02*
X179610451Y-81237000D01*
X186347315Y-80780000D02*
X185890314Y-81237000D01*
X212600000Y-79700000D02*
X193190000Y-79700000D01*
X191750000Y-79940000D02*
X190910000Y-80780000D01*
X213860000Y-78440000D02*
X212600000Y-79700000D01*
X179610451Y-81237000D02*
X179012177Y-80638725D01*
X193190000Y-79700000D02*
X192950000Y-79940000D01*
X177580000Y-81067451D02*
X177580000Y-81070000D01*
X192950000Y-79940000D02*
X191750000Y-79940000D01*
G04 #@! TO.N,/IO Banks/V_{SET_A}*
X189610000Y-81000000D02*
X186438442Y-81000000D01*
X210832549Y-81380000D02*
X210062549Y-80610000D01*
X214690000Y-81230000D02*
X214540000Y-81380000D01*
X210062549Y-80610000D02*
X194290086Y-80610000D01*
X214540000Y-81380000D02*
X210832549Y-81380000D01*
X193130086Y-81770000D02*
X190380000Y-81770000D01*
X194290086Y-80610000D02*
X193130086Y-81770000D01*
X185981442Y-81457000D02*
X178557000Y-81457000D01*
X186438442Y-81000000D02*
X185981442Y-81457000D01*
X178557000Y-81457000D02*
X178100000Y-81000000D01*
X190380000Y-81770000D02*
X189610000Y-81000000D01*
G04 #@! TO.N,/IO Banks/Bank A/V_{CLAMP}*
D20*
X211830000Y-108000000D02*
X208810000Y-108000000D01*
X208620000Y-108190000D02*
X208430000Y-108000000D01*
X208430000Y-108000000D02*
X205410000Y-108000000D01*
X219010000Y-108000000D02*
X218820000Y-108190000D01*
X205220000Y-108190000D02*
X205030000Y-108000000D01*
X222030000Y-108000000D02*
X219010000Y-108000000D01*
X212210000Y-108000000D02*
X212020000Y-108190000D01*
X205410000Y-108000000D02*
X205220000Y-108190000D01*
X208810000Y-108000000D02*
X208620000Y-108190000D01*
X218820000Y-108190000D02*
X218630000Y-108000000D01*
X222220000Y-108190000D02*
X222030000Y-108000000D01*
X212020000Y-108190000D02*
X211830000Y-108000000D01*
X218630000Y-108000000D02*
X215610000Y-108000000D01*
X202010000Y-108000000D02*
X201820000Y-108190000D01*
X215230000Y-108000000D02*
X212210000Y-108000000D01*
X215610000Y-108000000D02*
X215420000Y-108190000D01*
X225430000Y-108000000D02*
X222410000Y-108000000D01*
X222410000Y-108000000D02*
X222220000Y-108190000D01*
X205030000Y-108000000D02*
X202010000Y-108000000D01*
X225620000Y-108190000D02*
X225430000Y-108000000D01*
X215420000Y-108190000D02*
X215230000Y-108000000D01*
G04 #@! TO.N,/IO Banks/Bank B/V_{IO}*
X223420000Y-70710000D02*
X223630000Y-70500000D01*
X212980000Y-70500000D02*
X213220000Y-70740000D01*
X206500000Y-70500000D02*
X209580000Y-70500000D01*
X210060000Y-70500000D02*
X212980000Y-70500000D01*
X223630000Y-70500000D02*
X226900000Y-70500000D01*
X219810000Y-70500000D02*
X220030000Y-70720000D01*
X220300000Y-70450000D02*
X223160000Y-70450000D01*
X203080000Y-70500000D02*
X206400000Y-70500000D01*
X213520000Y-70440000D02*
X216320000Y-70440000D01*
X213220000Y-70740000D02*
X213520000Y-70440000D01*
X206400000Y-70500000D02*
X206450000Y-70550000D01*
X216630000Y-70750000D02*
X216880000Y-70500000D01*
X216880000Y-70500000D02*
X219810000Y-70500000D01*
X226900000Y-70500000D02*
X227130000Y-70730000D01*
X209820000Y-70740000D02*
X210060000Y-70500000D01*
X203030000Y-70550000D02*
X203080000Y-70500000D01*
X206450000Y-70550000D02*
X206500000Y-70500000D01*
X220030000Y-70720000D02*
X220300000Y-70450000D01*
X223160000Y-70450000D02*
X223420000Y-70710000D01*
X209580000Y-70500000D02*
X209820000Y-70740000D01*
X216320000Y-70440000D02*
X216630000Y-70750000D01*
G04 #@! TO.N,/IO Banks/A.P1*
D25*
X223755000Y-109655000D02*
X224900000Y-108510000D01*
X198930000Y-110340000D02*
X198930000Y-110088664D01*
X224900000Y-108510000D02*
X224900000Y-108500000D01*
X198930000Y-110088664D02*
X199363664Y-109655000D01*
X199363664Y-109655000D02*
X223755000Y-109655000D01*
G04 #@! TO.N,/IO Banks/A.P5*
X199482500Y-108895000D02*
X210855000Y-108895000D01*
X198700000Y-108112500D02*
X199482500Y-108895000D01*
X210855000Y-108895000D02*
X211300000Y-108450000D01*
X198700000Y-107780000D02*
X198700000Y-108112500D01*
G04 #@! TO.N,/IO Banks/Bank C/V_{IO}*
D20*
X184550000Y-107550000D02*
X184500000Y-107600000D01*
X174120000Y-107600000D02*
X171190000Y-107600000D01*
X177780000Y-107360000D02*
X177480000Y-107660000D01*
X187970000Y-107550000D02*
X187920000Y-107600000D01*
X178020000Y-107600000D02*
X177780000Y-107360000D01*
X171190000Y-107600000D02*
X170970000Y-107380000D01*
X167580000Y-107390000D02*
X167370000Y-107600000D01*
X164100000Y-107600000D02*
X163870000Y-107370000D01*
X170970000Y-107380000D02*
X170700000Y-107650000D01*
X174680000Y-107660000D02*
X174370000Y-107350000D01*
X184600000Y-107600000D02*
X184550000Y-107550000D01*
X180940000Y-107600000D02*
X178020000Y-107600000D01*
X170700000Y-107650000D02*
X167840000Y-107650000D01*
X184500000Y-107600000D02*
X181420000Y-107600000D01*
X187920000Y-107600000D02*
X184600000Y-107600000D01*
X174370000Y-107350000D02*
X174120000Y-107600000D01*
X181420000Y-107600000D02*
X181180000Y-107360000D01*
X167370000Y-107600000D02*
X164100000Y-107600000D01*
X181180000Y-107360000D02*
X180940000Y-107600000D01*
X177480000Y-107660000D02*
X174680000Y-107660000D01*
X167840000Y-107650000D02*
X167580000Y-107390000D01*
G04 #@! TO.N,+5V5*
D21*
X214600000Y-64080000D02*
X214050000Y-64080000D01*
D23*
X175368040Y-112940000D02*
X176500000Y-112940000D01*
D21*
X166650000Y-64040000D02*
X166670000Y-64060000D01*
X176400000Y-64060000D02*
X177070000Y-64730000D01*
X193600000Y-63710000D02*
X192620000Y-62730000D01*
X177660000Y-64140000D02*
X177070000Y-64730000D01*
X193790000Y-63520000D02*
X200010000Y-63520000D01*
X166600000Y-63990000D02*
X163480000Y-63990000D01*
X201820539Y-63070000D02*
X200480000Y-63070000D01*
D23*
X189510000Y-114358751D02*
X189808751Y-114060000D01*
D21*
X166650000Y-64040000D02*
X166600000Y-63990000D01*
X200480000Y-63070000D02*
X200020000Y-63530000D01*
X193600000Y-63710000D02*
X193790000Y-63520000D01*
X219110000Y-64140000D02*
X214660000Y-64140000D01*
X166670000Y-64060000D02*
X176400000Y-64060000D01*
D26*
X170300000Y-114700000D02*
X170500000Y-114900000D01*
D21*
X220040000Y-63210000D02*
X219110000Y-64140000D01*
X179489999Y-63510001D02*
X178860000Y-64140000D01*
X184230000Y-62730000D02*
X183720000Y-63240000D01*
X214660000Y-64140000D02*
X214600000Y-64080000D01*
D23*
X189808751Y-114060000D02*
X190470000Y-114060000D01*
D21*
X213540000Y-64080000D02*
X213480000Y-64140000D01*
D26*
X166900000Y-114700000D02*
X170300000Y-114700000D01*
D23*
X180080000Y-114358751D02*
X189510000Y-114358751D01*
D21*
X214050000Y-64080000D02*
X213540000Y-64080000D01*
X178860000Y-64140000D02*
X177660000Y-64140000D01*
D23*
X173408040Y-114900000D02*
X175368040Y-112940000D01*
D21*
X192620000Y-62730000D02*
X184230000Y-62730000D01*
D23*
X176500000Y-112940000D02*
X176930000Y-113370000D01*
X179091249Y-113370000D02*
X180080000Y-114358751D01*
X170500000Y-114900000D02*
X173408040Y-114900000D01*
D21*
X202890539Y-64140000D02*
X201820539Y-63070000D01*
D23*
X176930000Y-113370000D02*
X179091249Y-113370000D01*
D21*
X183720000Y-63240000D02*
X183449999Y-63510001D01*
X200010000Y-63520000D02*
X200020000Y-63530000D01*
X183449999Y-63510001D02*
X179489999Y-63510001D01*
X163480000Y-63990000D02*
X163020000Y-63530000D01*
X220730000Y-63210000D02*
X220040000Y-63210000D01*
X213480000Y-64140000D02*
X202890539Y-64140000D01*
D23*
X190470000Y-114060000D02*
X190980000Y-114570000D01*
G04 #@! TO.N,/IO Banks/A.P4*
D25*
X214135000Y-109085000D02*
X214800000Y-108420000D01*
X198740000Y-108430000D02*
X199395000Y-109085000D01*
X197940000Y-108430000D02*
X198740000Y-108430000D01*
X214800000Y-108420000D02*
X214800000Y-108400000D01*
X199395000Y-109085000D02*
X214135000Y-109085000D01*
G04 #@! TO.N,/IO Banks/Bank D/V_{CLAMP}*
D20*
X168590000Y-70100000D02*
X168780000Y-69910000D01*
X185780000Y-69910000D02*
X185970000Y-70100000D01*
X171990000Y-70100000D02*
X172180000Y-69910000D01*
X165380000Y-69910000D02*
X165570000Y-70100000D01*
X182280000Y-70190000D02*
X179494264Y-70190000D01*
X185970000Y-70100000D02*
X188990000Y-70100000D01*
X175390000Y-70100000D02*
X175580000Y-69910000D01*
X175580000Y-69910000D02*
X175770000Y-70100000D01*
X168780000Y-69910000D02*
X168970000Y-70100000D01*
X179214264Y-69910000D02*
X178980000Y-69910000D01*
X179494264Y-70190000D02*
X179214264Y-69910000D01*
X168970000Y-70100000D02*
X171990000Y-70100000D01*
X175770000Y-70100000D02*
X178790000Y-70100000D01*
X185600000Y-70090000D02*
X185780000Y-69910000D01*
X178790000Y-70100000D02*
X178980000Y-69910000D01*
X182380000Y-70090000D02*
X182280000Y-70190000D01*
X182380000Y-70090000D02*
X185600000Y-70090000D01*
X172370000Y-70100000D02*
X175390000Y-70100000D01*
X188990000Y-70100000D02*
X189180000Y-69910000D01*
X165570000Y-70100000D02*
X168590000Y-70100000D01*
X172180000Y-69910000D02*
X172370000Y-70100000D01*
G04 #@! TO.N,/IO Banks/Bank D/V_{IO}*
X169400000Y-70500000D02*
X169450000Y-70550000D01*
X166522400Y-70662800D02*
X166685200Y-70500000D01*
D24*
X162890000Y-64980000D02*
X162820000Y-64980000D01*
D20*
X186160000Y-70450000D02*
X186420000Y-70710000D01*
D24*
X164121786Y-65720000D02*
X163630000Y-65720000D01*
D20*
X182810000Y-70500000D02*
X183030000Y-70720000D01*
X183300000Y-70450000D02*
X186160000Y-70450000D01*
X175980000Y-70500000D02*
X176220000Y-70740000D01*
X183030000Y-70720000D02*
X183300000Y-70450000D01*
X176220000Y-70740000D02*
X176520000Y-70440000D01*
X166685200Y-70500000D02*
X169400000Y-70500000D01*
X172580000Y-70500000D02*
X172820000Y-70740000D01*
X169450000Y-70550000D02*
X169500000Y-70500000D01*
X173060000Y-70500000D02*
X175980000Y-70500000D01*
X189670000Y-70500000D02*
X186630000Y-70500000D01*
X186630000Y-70500000D02*
X186420000Y-70710000D01*
X179880000Y-70500000D02*
X182810000Y-70500000D01*
X169500000Y-70500000D02*
X172580000Y-70500000D01*
X176520000Y-70440000D02*
X179320000Y-70440000D01*
X179630000Y-70750000D02*
X179880000Y-70500000D01*
D24*
X163300000Y-65390000D02*
X162890000Y-64980000D01*
D20*
X172820000Y-70740000D02*
X173060000Y-70500000D01*
D24*
X163630000Y-65720000D02*
X163300000Y-65390000D01*
D20*
X179320000Y-70440000D02*
X179630000Y-70750000D01*
D24*
X164601786Y-66200000D02*
X164121786Y-65720000D01*
G04 #@! TO.N,/IO Banks/Bank A/V_{IO}*
D20*
X201410000Y-106980000D02*
X202030000Y-107600000D01*
X202030000Y-107600000D02*
X204370000Y-107600000D01*
X211120000Y-107600000D02*
X208190000Y-107600000D01*
X221600000Y-107600000D02*
X221550000Y-107550000D01*
X218420000Y-107600000D02*
X218180000Y-107360000D01*
X208190000Y-107600000D02*
X207970000Y-107380000D01*
X224920000Y-107600000D02*
X221600000Y-107600000D01*
X221550000Y-107550000D02*
X221500000Y-107600000D01*
X214480000Y-107660000D02*
X211680000Y-107660000D01*
X215020000Y-107600000D02*
X214780000Y-107360000D01*
X217940000Y-107600000D02*
X215020000Y-107600000D01*
X218180000Y-107360000D02*
X217940000Y-107600000D01*
X221500000Y-107600000D02*
X218420000Y-107600000D01*
X214780000Y-107360000D02*
X214480000Y-107660000D01*
X207700000Y-107650000D02*
X204840000Y-107650000D01*
X204370000Y-107600000D02*
X204580000Y-107390000D01*
X207970000Y-107380000D02*
X207700000Y-107650000D01*
X204840000Y-107650000D02*
X204580000Y-107390000D01*
X211680000Y-107660000D02*
X211370000Y-107350000D01*
X224970000Y-107550000D02*
X224920000Y-107600000D01*
X211370000Y-107350000D02*
X211120000Y-107600000D01*
G04 #@! TO.N,/IO Banks/B.P5*
D25*
X216185000Y-68725000D02*
X216700000Y-69240000D01*
X198950000Y-67730000D02*
X199945000Y-68725000D01*
X198900000Y-67730000D02*
X198950000Y-67730000D01*
X199945000Y-68725000D02*
X216185000Y-68725000D01*
X216700000Y-69240000D02*
X216700000Y-69650000D01*
G04 #@! TO.N,/IO Banks/B.P3*
X199757600Y-69105000D02*
X199682600Y-69030000D01*
X199682600Y-69030000D02*
X198930000Y-69030000D01*
X209535000Y-69285000D02*
X209355000Y-69105000D01*
X198930000Y-69030000D02*
X198920000Y-69020000D01*
X209355000Y-69105000D02*
X199757600Y-69105000D01*
G04 #@! TO.N,/IO Banks/Bank C/V_{CLAMP}*
D20*
X171430000Y-108000000D02*
X168410000Y-108000000D01*
X174830000Y-108000000D02*
X171810000Y-108000000D01*
X188620000Y-108190000D02*
X188430000Y-108000000D01*
X185030000Y-108000000D02*
X182010000Y-108000000D01*
X185220000Y-108190000D02*
X185030000Y-108000000D01*
X181820000Y-108190000D02*
X181630000Y-108000000D01*
X182010000Y-108000000D02*
X181820000Y-108190000D01*
X178230000Y-108000000D02*
X175210000Y-108000000D01*
X178610000Y-108000000D02*
X178420000Y-108190000D01*
X178420000Y-108190000D02*
X178230000Y-108000000D01*
X175020000Y-108190000D02*
X174830000Y-108000000D01*
X168220000Y-108190000D02*
X168030000Y-108000000D01*
X181630000Y-108000000D02*
X178610000Y-108000000D01*
X171620000Y-108190000D02*
X171430000Y-108000000D01*
X175210000Y-108000000D02*
X175020000Y-108190000D01*
X165010000Y-108000000D02*
X164820000Y-108190000D01*
X168030000Y-108000000D02*
X165010000Y-108000000D01*
X168410000Y-108000000D02*
X168220000Y-108190000D01*
X188430000Y-108000000D02*
X185410000Y-108000000D01*
X171810000Y-108000000D02*
X171620000Y-108190000D01*
X185410000Y-108000000D02*
X185220000Y-108190000D01*
G04 #@! TO.N,/IO Banks/D.P3*
D25*
X172875000Y-69615000D02*
X172875000Y-69625000D01*
X193200000Y-69040000D02*
X193200000Y-69030000D01*
X173665000Y-68825000D02*
X172875000Y-69615000D01*
X193200000Y-69030000D02*
X192995000Y-68825000D01*
X192995000Y-68825000D02*
X173665000Y-68825000D01*
G04 #@! TO.N,/IO Banks/B.P1*
X203095000Y-69595000D02*
X203100000Y-69600000D01*
X199635000Y-69595000D02*
X203095000Y-69595000D01*
X198905000Y-70325000D02*
X199635000Y-69595000D01*
X198880000Y-70325000D02*
X198905000Y-70325000D01*
G04 #@! TO.N,/IO Banks/Bank B/V_{CLAMP}*
D20*
X219190000Y-70100000D02*
X219380000Y-69910000D01*
X212390000Y-70100000D02*
X212580000Y-69910000D01*
X216170000Y-70100000D02*
X219190000Y-70100000D01*
X205590000Y-70100000D02*
X205780000Y-69910000D01*
X225990000Y-70100000D02*
X226180000Y-69910000D01*
X208990000Y-70100000D02*
X209180000Y-69910000D01*
X202380000Y-69910000D02*
X202570000Y-70100000D01*
X222780000Y-69910000D02*
X222970000Y-70100000D01*
X212770000Y-70100000D02*
X215790000Y-70100000D01*
X209370000Y-70100000D02*
X212390000Y-70100000D01*
X205780000Y-69910000D02*
X205970000Y-70100000D01*
X222590000Y-70100000D02*
X222780000Y-69910000D01*
X222970000Y-70100000D02*
X225990000Y-70100000D01*
X219570000Y-70100000D02*
X222590000Y-70100000D01*
X215790000Y-70100000D02*
X215980000Y-69910000D01*
X215980000Y-69910000D02*
X216170000Y-70100000D01*
X209180000Y-69910000D02*
X209370000Y-70100000D01*
X205970000Y-70100000D02*
X208990000Y-70100000D01*
X212580000Y-69910000D02*
X212770000Y-70100000D01*
X202570000Y-70100000D02*
X205590000Y-70100000D01*
X219380000Y-69910000D02*
X219570000Y-70100000D01*
G04 #@! TO.N,/IO Banks/D.P6*
D25*
X191057500Y-69395000D02*
X192090000Y-70427500D01*
X183100000Y-69680000D02*
X183100000Y-69600000D01*
X192090000Y-70427500D02*
X192090000Y-70980000D01*
X183305000Y-69395000D02*
X191057500Y-69395000D01*
X183100000Y-69600000D02*
X183305000Y-69395000D01*
G04 #@! TO.N,/IO Banks/A.P0*
X199755000Y-110465000D02*
X199180000Y-111040000D01*
X199755000Y-110123664D02*
X199755000Y-110465000D01*
X200033664Y-109845000D02*
X199755000Y-110123664D01*
X228290000Y-108210000D02*
X226655000Y-109845000D01*
X228290000Y-108200000D02*
X228290000Y-108210000D01*
X199180000Y-111040000D02*
X197830000Y-111040000D01*
X226655000Y-109845000D02*
X200033664Y-109845000D01*
G04 #@! TO.N,/IO Banks/A.P3*
X198690000Y-109070000D02*
X198895000Y-109275000D01*
X198895000Y-109275000D02*
X217335000Y-109275000D01*
X218125000Y-108485000D02*
X218125000Y-108475000D01*
X217335000Y-109275000D02*
X218125000Y-108485000D01*
G04 #@! TO.N,/IO Banks/D.P5*
X179740000Y-69820000D02*
X179740000Y-69610000D01*
X191136200Y-69205000D02*
X192256200Y-70325000D01*
X180145000Y-69205000D02*
X191136200Y-69205000D01*
X179740000Y-69610000D02*
X180145000Y-69205000D01*
X192256200Y-70325000D02*
X193190000Y-70325000D01*
G04 #@! TO.N,FLASH_~{HOLD}*
X192600000Y-100250000D02*
X191950000Y-100250000D01*
X190800000Y-99100000D02*
X171600000Y-99100000D01*
X191950000Y-100250000D02*
X190800000Y-99100000D01*
X171600000Y-99100000D02*
X171400000Y-98900000D01*
G04 #@! TO.N,/IO Banks/A.P7*
X204500000Y-108500000D02*
X204500000Y-108400000D01*
X198700000Y-106640000D02*
X200560000Y-108500000D01*
X200560000Y-108500000D02*
X204500000Y-108500000D01*
X198700000Y-106490000D02*
X198700000Y-106640000D01*
G04 #@! TO.N,/IO Banks/A.P6*
X207975746Y-108424254D02*
X207975746Y-108375746D01*
X207695000Y-108705000D02*
X207975746Y-108424254D01*
X200475000Y-108705000D02*
X207695000Y-108705000D01*
X198895000Y-107125000D02*
X200475000Y-108705000D01*
X198000000Y-107125000D02*
X198895000Y-107125000D01*
G04 #@! TO.N,/IO Banks/A.P2*
X220645000Y-109465000D02*
X221550000Y-108560000D01*
X197920000Y-109730000D02*
X198185000Y-109465000D01*
X198185000Y-109465000D02*
X220645000Y-109465000D01*
X221550000Y-108560000D02*
X221550000Y-108550000D01*
G04 #@! TO.N,/IO Banks/C.P7*
X190240000Y-110150000D02*
X190240000Y-109940000D01*
X189400000Y-109100000D02*
X167530000Y-109100000D01*
X190240000Y-109940000D02*
X189400000Y-109100000D01*
G04 #@! TO.N,/IO Banks/C.P6*
X171850000Y-108910000D02*
X171315746Y-108375746D01*
X190110000Y-108910000D02*
X171850000Y-108910000D01*
X191380000Y-110180000D02*
X190110000Y-108910000D01*
X171315746Y-108375746D02*
X170975746Y-108375746D01*
G04 #@! TO.N,/IO Banks/B.P7*
X198920000Y-66982500D02*
X200282500Y-68345000D01*
X222145000Y-68345000D02*
X223500000Y-69700000D01*
X198920000Y-66430000D02*
X198920000Y-66982500D01*
X200282500Y-68345000D02*
X222145000Y-68345000D01*
G04 #@! TO.N,/IO Banks/D.P7*
X191395000Y-71426336D02*
X191395000Y-71203664D01*
X186500000Y-69600000D02*
X186500000Y-69700000D01*
X189791336Y-69600000D02*
X186500000Y-69600000D01*
X191598664Y-71630000D02*
X191395000Y-71426336D01*
X191395000Y-71203664D02*
X189791336Y-69600000D01*
X193190000Y-71630000D02*
X191598664Y-71630000D01*
G04 #@! TO.N,/IO Banks/D.P4*
X192090000Y-69675000D02*
X192085000Y-69675000D01*
X192085000Y-69675000D02*
X191425000Y-69015000D01*
X191425000Y-69015000D02*
X176865000Y-69015000D01*
X176200000Y-69680000D02*
X176200000Y-69700000D01*
X176865000Y-69015000D02*
X176200000Y-69680000D01*
G04 #@! TO.N,/IO Banks/D.P2*
X191865000Y-68635000D02*
X170355000Y-68635000D01*
X192110000Y-68390000D02*
X191865000Y-68635000D01*
X169450000Y-69540000D02*
X169450000Y-69550000D01*
X170355000Y-68635000D02*
X169450000Y-69540000D01*
G04 #@! TO.N,/IO Banks/D.P1*
X191536200Y-68445000D02*
X192241201Y-67740000D01*
X166100000Y-69620000D02*
X166100000Y-69590000D01*
X166090000Y-69630000D02*
X166100000Y-69620000D01*
X167245000Y-68445000D02*
X191536200Y-68445000D01*
X192241201Y-67740000D02*
X193180000Y-67740000D01*
X166100000Y-69590000D02*
X167245000Y-68445000D01*
G04 #@! TO.N,/IO Banks/D.P0*
X191457500Y-68255000D02*
X164345000Y-68255000D01*
X192080000Y-67090000D02*
X192080000Y-67632500D01*
X164345000Y-68255000D02*
X162700000Y-69900000D01*
X192080000Y-67632500D02*
X191457500Y-68255000D01*
G04 #@! TO.N,/IO Banks/B.P6*
X197800000Y-67080000D02*
X198748800Y-67080000D01*
X218835000Y-68535000D02*
X220024254Y-69724254D01*
X200203800Y-68535000D02*
X218835000Y-68535000D01*
X198748800Y-67080000D02*
X200203800Y-68535000D01*
G04 #@! TO.N,/IO Banks/B.P4*
X199301300Y-68380000D02*
X199836300Y-68915000D01*
X199836300Y-68915000D02*
X212415000Y-68915000D01*
X197810000Y-68380000D02*
X199301300Y-68380000D01*
X212415000Y-68915000D02*
X213200000Y-69700000D01*
G04 #@! TO.N,/IO Banks/B.P2*
X197820000Y-69690000D02*
X199271300Y-69690000D01*
X206195000Y-69295000D02*
X206450000Y-69550000D01*
X199271300Y-69690000D02*
X199666300Y-69295000D01*
X199666300Y-69295000D02*
X206195000Y-69295000D01*
G04 #@! TD*
D28*
X150500000Y-62500000D02*
X150500000Y-62500000D01*
G75*
G02*
X151500000Y-61500000I1000000J0D01*
G01*
X244500000Y-61500000D01*
G75*
G02*
X245500000Y-62500000I0J-1000000D01*
G01*
X245500000Y-115500000D01*
G75*
G02*
X244500000Y-116500000I-1000000J0D01*
G01*
X151500000Y-116500000D01*
G75*
G02*
X150500000Y-115500000I0J1000000D01*
G01*
X150500000Y-62500000D01*
M02*
