G04 #@! TF.GenerationSoftware,KiCad,Pcbnew,10.0.5+dfsg-1*
G04 #@! TF.CreationDate,2026-09-25T10:09:43+00:00*
G04 #@! TF.ProjectId,glasgow,676c6173-676f-4772-9e6b-696361645f70,rev?*
G04 #@! TF.SameCoordinates,Original*
G04 #@! TF.FileFunction,Copper,L4,Inr*
G04 #@! TF.FilePolarity,Positive*
%FSLAX46Y46*%
G04 Gerber Fmt 4.6, Leading zero omitted, Abs format (unit mm)*
G04 Created by KiCad (PCBNEW 10.0.5+dfsg-1) date 2026-09-25 10:09:43*
%MOMM*%
%LPD*%
G01*
G04 APERTURE LIST*
G04 #@! TA.AperFunction,ComponentPad*
%ADD10C,1.200000*%
G04 #@! TD*
G04 #@! TA.AperFunction,ComponentPad*
%ADD11C,6.400000*%
G04 #@! TD*
G04 #@! TA.AperFunction,ComponentPad*
%ADD12R,1.700000X1.700000*%
G04 #@! TD*
G04 #@! TA.AperFunction,ComponentPad*
%ADD13C,1.700000*%
G04 #@! TD*
G04 #@! TA.AperFunction,ComponentPad*
%ADD14O,2.100000X1.000000*%
G04 #@! TD*
G04 #@! TA.AperFunction,ComponentPad*
%ADD15O,1.600000X1.000000*%
G04 #@! TD*
G04 #@! TA.AperFunction,ViaPad*
%ADD16C,0.300000*%
G04 #@! TD*
G04 #@! TA.AperFunction,ViaPad*
%ADD17C,0.450000*%
G04 #@! TD*
G04 #@! TA.AperFunction,ViaPad*
%ADD18C,0.400000*%
G04 #@! TD*
G04 #@! TA.AperFunction,ViaPad*
%ADD19C,0.600000*%
G04 #@! TD*
G04 #@! TA.AperFunction,Conductor*
%ADD20C,0.200000*%
G04 #@! TD*
G04 #@! TA.AperFunction,Conductor*
%ADD21C,0.250000*%
G04 #@! TD*
G04 #@! TA.AperFunction,Conductor*
%ADD22C,0.300000*%
G04 #@! TD*
G04 #@! TA.AperFunction,Conductor*
%ADD23C,0.400000*%
G04 #@! TD*
G04 #@! TA.AperFunction,Conductor*
%ADD24C,0.500000*%
G04 #@! TD*
G04 #@! TA.AperFunction,Conductor*
%ADD25C,0.600000*%
G04 #@! TD*
G04 #@! TA.AperFunction,Conductor*
%ADD26C,0.090000*%
G04 #@! TD*
G04 #@! TA.AperFunction,Conductor*
%ADD27C,0.120000*%
G04 #@! TD*
G04 #@! TA.AperFunction,Conductor*
%ADD28C,0.150000*%
G04 #@! TD*
G04 #@! TA.AperFunction,Profile*
%ADD29C,0.050000*%
G04 #@! TD*
G04 APERTURE END LIST*
D10*
G04 #@! TO.N,GND*
G04 #@! TO.C,SW1*
X236000000Y-113284000D03*
G04 #@! TO.N,/PG_{VBUS}*
X233000000Y-113284000D03*
G04 #@! TO.N,unconnected-(SW1-B-PadSH)*
X234500000Y-115134000D03*
G04 #@! TD*
D11*
G04 #@! TO.N,GND*
G04 #@! TO.C,H1*
X241000000Y-112000000D03*
G04 #@! TD*
D12*
G04 #@! TO.N,/ADC/REMOTE_COM*
G04 #@! TO.C,J3*
X153000000Y-87725000D03*
D13*
G04 #@! TO.N,GND*
X153000000Y-90265000D03*
G04 #@! TD*
D11*
G04 #@! TO.N,GND*
G04 #@! TO.C,H4*
X155000000Y-66000000D03*
G04 #@! TD*
G04 #@! TO.N,GND*
G04 #@! TO.C,H3*
X155000000Y-112000000D03*
G04 #@! TD*
G04 #@! TO.N,GND*
G04 #@! TO.C,H2*
X241000000Y-66000000D03*
G04 #@! TD*
D14*
G04 #@! TO.N,GND*
G04 #@! TO.C,J1*
X238220000Y-93320000D03*
D15*
X242400000Y-93320000D03*
D14*
X238220000Y-84680000D03*
D15*
X242400000Y-84680000D03*
G04 #@! TD*
D12*
G04 #@! TO.N,GND*
G04 #@! TO.C,J4*
X233000000Y-72000000D03*
D13*
G04 #@! TO.N,Net-(D35-K)*
X233000000Y-69460000D03*
G04 #@! TO.N,/FPGA/~{SYNC}*
X235540000Y-72000000D03*
G04 #@! TO.N,unconnected-(J4-Pin_4-Pad4)*
X235540000Y-69460000D03*
G04 #@! TD*
D16*
G04 #@! TO.N,GND*
X220280000Y-90120000D03*
X205943200Y-76301600D03*
X153050000Y-76500000D03*
X152400000Y-104040000D03*
X232850000Y-93790000D03*
X221680000Y-99480000D03*
X193720000Y-84590000D03*
X190120000Y-64000000D03*
X167720000Y-84270000D03*
X214050000Y-63120000D03*
X195200000Y-103812500D03*
X167950000Y-70860000D03*
X191325000Y-85390000D03*
X220900000Y-94900000D03*
X242387500Y-103200000D03*
X199325000Y-82990000D03*
X231220000Y-91900000D03*
X197390000Y-108100000D03*
X218840000Y-106640000D03*
X197725000Y-87790000D03*
X200820000Y-96120000D03*
X207600000Y-64600000D03*
X229000000Y-87680000D03*
X165030000Y-94570000D03*
X218770000Y-110880000D03*
X229300000Y-67120000D03*
X193500000Y-96460000D03*
X230650000Y-75100000D03*
X225260000Y-83740000D03*
X227020000Y-114570000D03*
X222240000Y-101627500D03*
X215200000Y-84500000D03*
X224390000Y-86690000D03*
X217100000Y-71150000D03*
X229750000Y-110650000D03*
X169400000Y-110200000D03*
X213664800Y-105765600D03*
X196925000Y-83790000D03*
X198525000Y-93390000D03*
X178300000Y-64600000D03*
X212600000Y-96200000D03*
X216330000Y-100910000D03*
X195325000Y-90190000D03*
X217400000Y-93600000D03*
X204170000Y-96430000D03*
X234375000Y-82700000D03*
X197390000Y-109410000D03*
X155350000Y-81422858D03*
X188630000Y-100900000D03*
X171639999Y-101627500D03*
X210920000Y-98200000D03*
X208520000Y-107230000D03*
X192900000Y-98600000D03*
X181800000Y-94970000D03*
X161820000Y-84562500D03*
X155350000Y-84422858D03*
X173190000Y-111900001D03*
X224070000Y-91600000D03*
X219360000Y-71820000D03*
X202525000Y-94990000D03*
X203260000Y-90190000D03*
X234375000Y-84200000D03*
X193830000Y-64120000D03*
X196925000Y-89390000D03*
X154320000Y-71440000D03*
X162470000Y-94540000D03*
X173150000Y-96850000D03*
X205460000Y-98560000D03*
X222470000Y-92280000D03*
X196925000Y-87790000D03*
X176020000Y-76590000D03*
X225400000Y-63100000D03*
X182650000Y-107240000D03*
X201725000Y-92590000D03*
X214480000Y-79630000D03*
X217490000Y-98300000D03*
X197790000Y-97510000D03*
X154900000Y-100400000D03*
X195130000Y-78700000D03*
X190810000Y-110140000D03*
X215450000Y-101498400D03*
X217300000Y-94200000D03*
X197450000Y-100150000D03*
X160727499Y-79000000D03*
X232912500Y-90800000D03*
X205660000Y-81390000D03*
X193600000Y-69350000D03*
X215150000Y-70860000D03*
X183400000Y-110300000D03*
X205100000Y-67800000D03*
X223639411Y-96460589D03*
X201725000Y-85390000D03*
X175580000Y-114500000D03*
X187630000Y-113640000D03*
X156880000Y-106650000D03*
X167780000Y-108670000D03*
X213800000Y-88250000D03*
X160590000Y-92840000D03*
X175560000Y-71018400D03*
X189680000Y-69920000D03*
X168100000Y-67800000D03*
X230010000Y-81830000D03*
X182360000Y-71577200D03*
X194600000Y-71900000D03*
X197725000Y-94190000D03*
X216990000Y-74380000D03*
X196390000Y-97670000D03*
X201220000Y-94610000D03*
X170550000Y-100440000D03*
X228500000Y-88020000D03*
X154250000Y-84900000D03*
X155400000Y-74600000D03*
X185525000Y-90990000D03*
X171350000Y-70860000D03*
X197725000Y-93390000D03*
X202525000Y-82990000D03*
X181060000Y-66220000D03*
X157480000Y-69792499D03*
D17*
X158175000Y-97300000D03*
D16*
X206100000Y-70940000D03*
X215420000Y-63600000D03*
X215990000Y-69280000D03*
X226370000Y-83560000D03*
X190910000Y-78670000D03*
X229960000Y-91647500D03*
X221322501Y-66490000D03*
X161800000Y-98500000D03*
X220800000Y-93100000D03*
X155450000Y-73322858D03*
X172230000Y-67220000D03*
X172450000Y-107240000D03*
X173200000Y-113200000D03*
X185760000Y-71018400D03*
X183400000Y-113500000D03*
X222808800Y-76606400D03*
X218600000Y-92600000D03*
X209120000Y-81270000D03*
X161830000Y-95490000D03*
X153050000Y-101500000D03*
X180850000Y-110880000D03*
X198525000Y-87790000D03*
X196125000Y-87790000D03*
X231400000Y-89290000D03*
X195325000Y-87790000D03*
X220840000Y-91710000D03*
X197380000Y-110710000D03*
X159125000Y-91750000D03*
X180850000Y-84500000D03*
X218840000Y-101627500D03*
X225630000Y-101498400D03*
X209143600Y-76301600D03*
X157890000Y-93310000D03*
X219250000Y-95800000D03*
X226680000Y-83030000D03*
X155350000Y-79922858D03*
X224410000Y-113310000D03*
X174100000Y-97720000D03*
X174950000Y-63430000D03*
X199750000Y-85750000D03*
X193690000Y-105780000D03*
X225350000Y-70860000D03*
X212040000Y-107220000D03*
X190670000Y-101770000D03*
X215300000Y-81700000D03*
X222390000Y-88780000D03*
X197380000Y-69340000D03*
X195800000Y-74287500D03*
X194990000Y-111510000D03*
X240630000Y-94100000D03*
X191700000Y-71300000D03*
X193500000Y-100580000D03*
X210200000Y-83250000D03*
X242700000Y-91670000D03*
X175710000Y-78187500D03*
X199339200Y-103581200D03*
X166660000Y-63460000D03*
X181840000Y-106045000D03*
X186100000Y-91710000D03*
X157530000Y-80780000D03*
X222890000Y-111900000D03*
X212710000Y-83130000D03*
X168220000Y-85735000D03*
X232410000Y-91900000D03*
X221000000Y-101490000D03*
X233420000Y-92000000D03*
X178150000Y-70860000D03*
X182770000Y-76680000D03*
X211750000Y-70860000D03*
X189580000Y-78560000D03*
X191720000Y-113100000D03*
X162690000Y-104980000D03*
X198525000Y-94190000D03*
X178450000Y-101470000D03*
X207650000Y-111900001D03*
X179250000Y-107240000D03*
X226740000Y-101300000D03*
X173230000Y-95700000D03*
X163810000Y-98970000D03*
X213800000Y-86750000D03*
X183300000Y-62910000D03*
X164550000Y-70860000D03*
X204080000Y-106920000D03*
X202600000Y-100520000D03*
X162390000Y-69560000D03*
X178890000Y-111100000D03*
X154690000Y-101520000D03*
X193340000Y-91240000D03*
X222380000Y-107230000D03*
X215560000Y-107240000D03*
X201710000Y-99010000D03*
X168110000Y-66200000D03*
X207040000Y-89180000D03*
X206705200Y-105918000D03*
X209450000Y-107240000D03*
X219500000Y-91700000D03*
X175100000Y-66820000D03*
X200060000Y-110250000D03*
X188170000Y-81490000D03*
X160949999Y-77200000D03*
X166290000Y-76490000D03*
X155775000Y-85650000D03*
D17*
X184835800Y-106629200D03*
D16*
X221950000Y-70860000D03*
X229350000Y-77800000D03*
X203560000Y-98740000D03*
X190000000Y-88770000D03*
X181770000Y-110880000D03*
X224678822Y-93278824D03*
X169070000Y-88700000D03*
X194930000Y-91950000D03*
X156480000Y-87710000D03*
X195325000Y-88590000D03*
X196050000Y-113500000D03*
X220370000Y-62720000D03*
X227710000Y-99310000D03*
X213150000Y-85250000D03*
X190525000Y-82990000D03*
X200980000Y-63530000D03*
X199700000Y-90400000D03*
X239740000Y-88620000D03*
X189382400Y-71577200D03*
X190525000Y-89390000D03*
X175850000Y-107240000D03*
X225890000Y-107250000D03*
X169050000Y-107240000D03*
X165210000Y-84562500D03*
X196925000Y-90190000D03*
X169720000Y-81980000D03*
X219100000Y-94930000D03*
X224980000Y-97910000D03*
X196125000Y-86190000D03*
X218610000Y-100820000D03*
X219000000Y-91250000D03*
X236640000Y-102050000D03*
X213800000Y-89750000D03*
X219820000Y-86280000D03*
X201550000Y-70860000D03*
X196925000Y-84590000D03*
X168240000Y-107280000D03*
X177880000Y-81430000D03*
X172050000Y-92850000D03*
X210200000Y-81200000D03*
X186610000Y-81430000D03*
X221340000Y-91180000D03*
X195325000Y-93390000D03*
X212560000Y-71040000D03*
X217800000Y-85010000D03*
X174750000Y-70860000D03*
X181550000Y-70860000D03*
X202650000Y-107240000D03*
X198500000Y-112420000D03*
X242387501Y-80500000D03*
X194530000Y-85390000D03*
X216865200Y-105968800D03*
X188410000Y-86160000D03*
X163980000Y-63530000D03*
X235760000Y-88360000D03*
X229160000Y-93430000D03*
X165650000Y-107240000D03*
X171180000Y-82790000D03*
X183525000Y-94990000D03*
X173150000Y-67220000D03*
X232210000Y-109370000D03*
X220280000Y-79970000D03*
X162500000Y-101920000D03*
X169677499Y-111610000D03*
X199325000Y-93390000D03*
X158290000Y-89250000D03*
X233240000Y-100030000D03*
X153210000Y-96260000D03*
X184220000Y-63470000D03*
X222360589Y-93460589D03*
X161250000Y-67200000D03*
X227140000Y-111550000D03*
X170690000Y-78250000D03*
X215900000Y-111090000D03*
X224240000Y-110370000D03*
X171640000Y-106045000D03*
X203555600Y-102616000D03*
X216170000Y-71900000D03*
X217800000Y-64900000D03*
X206677499Y-111610000D03*
X197725000Y-91790000D03*
X156960000Y-90540000D03*
X228300000Y-90200000D03*
X201676000Y-102565200D03*
X190300000Y-111090000D03*
D17*
X223900000Y-89000000D03*
D16*
X171100000Y-85650000D03*
X198760000Y-99250000D03*
X228900000Y-81750000D03*
X177100000Y-101350000D03*
X210200000Y-87750000D03*
X163670000Y-96420000D03*
X199510000Y-99230000D03*
X176010000Y-100950000D03*
X156190000Y-89960000D03*
X164280000Y-66530000D03*
X233850000Y-101142499D03*
X173750000Y-101270000D03*
X158170000Y-80130000D03*
X159860000Y-105030000D03*
X177790000Y-78567500D03*
X192130000Y-86990000D03*
X230700000Y-70480000D03*
X179171600Y-71577200D03*
X185890000Y-111900000D03*
X217810000Y-66199999D03*
X156960000Y-91460000D03*
X209680000Y-98190000D03*
X168960800Y-71374000D03*
X172620001Y-83077500D03*
X161390000Y-79770000D03*
X210100000Y-113950000D03*
X196125000Y-89390000D03*
X213990000Y-111280000D03*
X219600000Y-94930000D03*
X166310000Y-83650000D03*
X213010000Y-100910000D03*
X190980000Y-102560000D03*
X234437500Y-76650000D03*
X181840000Y-101627500D03*
X160420000Y-80860000D03*
X199310000Y-108060000D03*
X195325000Y-94990000D03*
X226212400Y-76454000D03*
X202525000Y-89390000D03*
X178470000Y-107230000D03*
X217400000Y-92700000D03*
X153050000Y-79040000D03*
X231620000Y-100190000D03*
X220350000Y-113670000D03*
X194740000Y-75700000D03*
X217850000Y-110880000D03*
X184060000Y-83830000D03*
X209230000Y-67220000D03*
X193110000Y-80470000D03*
X166840000Y-95490000D03*
X214426800Y-102870000D03*
X212500000Y-92500000D03*
X164130000Y-110550000D03*
X210150000Y-67220000D03*
X207040000Y-93390000D03*
X186050000Y-107240000D03*
X197340000Y-70440000D03*
X166910000Y-115300000D03*
X185240000Y-101627500D03*
X212760000Y-88500000D03*
X224110000Y-66810000D03*
X179410000Y-101000000D03*
X218550000Y-108790000D03*
X158800000Y-74300000D03*
X197725000Y-94990000D03*
X212580000Y-114500000D03*
X232110000Y-85240000D03*
X168800000Y-90740000D03*
X189240000Y-67800000D03*
X221900000Y-94300000D03*
X233300000Y-98400000D03*
X170600000Y-64600000D03*
X162730000Y-99300000D03*
X220800000Y-96420000D03*
X196680000Y-77080000D03*
X175480000Y-83010000D03*
X175040000Y-107300000D03*
X178970000Y-114660000D03*
X228850000Y-89350000D03*
X164060000Y-84562500D03*
X221700000Y-97700000D03*
X225750000Y-99550000D03*
X219500000Y-94100000D03*
X163810000Y-101170000D03*
X164590000Y-96420000D03*
X231477501Y-74250000D03*
X233100000Y-89500000D03*
X184950000Y-70860000D03*
X158350000Y-83480000D03*
X199340000Y-74490000D03*
X199330000Y-110120000D03*
X228040000Y-74590000D03*
X230540000Y-95090000D03*
X160380000Y-100810000D03*
X217900000Y-88300000D03*
X170600000Y-67800000D03*
X208550000Y-85900000D03*
X231420000Y-83390000D03*
X214017767Y-67542524D03*
X182870000Y-66470000D03*
X226466400Y-71831200D03*
X222260589Y-98860589D03*
X218500000Y-94930000D03*
X215900000Y-76657200D03*
X194525000Y-94990000D03*
X235760000Y-85450000D03*
X191620000Y-103560000D03*
X211937600Y-101803200D03*
X218500000Y-95800000D03*
X193350000Y-92300000D03*
X180800000Y-64900000D03*
X210300000Y-93750000D03*
X203140000Y-95930000D03*
X192030000Y-97410000D03*
X168690000Y-94600000D03*
X218900000Y-96200000D03*
X201701400Y-106629200D03*
X160520000Y-94600000D03*
X191950000Y-102560000D03*
X179410000Y-69430000D03*
X203350000Y-113160000D03*
X155550000Y-71530000D03*
X192610000Y-81390000D03*
X199360000Y-66730000D03*
X170150000Y-115340000D03*
X192200000Y-99500000D03*
X185900000Y-110300000D03*
X233800000Y-105950000D03*
X190020000Y-114570000D03*
X242387501Y-82400000D03*
X172080000Y-97230000D03*
X196125000Y-90990000D03*
X220200000Y-81170000D03*
X170240000Y-87210000D03*
X205110000Y-66200000D03*
X198525000Y-91790000D03*
X184840000Y-67720000D03*
X160949999Y-75800000D03*
X218550000Y-70860000D03*
X195200000Y-109609999D03*
X193590000Y-68040000D03*
X188670000Y-107100000D03*
X242387500Y-97500000D03*
X225520000Y-88800000D03*
X173600000Y-78040000D03*
X164210000Y-108030000D03*
X181530000Y-86990000D03*
X163310000Y-82460000D03*
X212547200Y-76606400D03*
X199650000Y-97637600D03*
X181870000Y-92440000D03*
X234910000Y-105870000D03*
X161210000Y-81780000D03*
X221400000Y-94600000D03*
X220900000Y-93700000D03*
X208450000Y-90450000D03*
X219500000Y-92800000D03*
X192550000Y-89760000D03*
X240550000Y-70910000D03*
X209150000Y-111130000D03*
X154125000Y-79812858D03*
X179080000Y-65100000D03*
X196925000Y-94190000D03*
X218600000Y-93500000D03*
X188580000Y-87860000D03*
X196170000Y-102410000D03*
X220170000Y-99680000D03*
X231000000Y-87680000D03*
X221039411Y-86660589D03*
X204950000Y-70860000D03*
X235400000Y-95190000D03*
X216916000Y-102666800D03*
X165830000Y-100790000D03*
X208490000Y-93900000D03*
X216600000Y-94200000D03*
X204590000Y-96820000D03*
X206180000Y-101000000D03*
X200125000Y-94990000D03*
X165350000Y-71018400D03*
X193880000Y-97820000D03*
X205240000Y-101498400D03*
X220270000Y-112330000D03*
X232840000Y-96250000D03*
X175700000Y-113500000D03*
X162580000Y-108600000D03*
X173080000Y-100780000D03*
X199880000Y-106620000D03*
X192230000Y-75180000D03*
X170990000Y-98630000D03*
X203850000Y-88250000D03*
X212390000Y-110450000D03*
X212700000Y-94300000D03*
X167980000Y-97200000D03*
X228290000Y-107720000D03*
X242387500Y-95600000D03*
X192637500Y-66425000D03*
X160655000Y-95810000D03*
X222670000Y-79320000D03*
X184322501Y-66490000D03*
X211900000Y-101020000D03*
X232912500Y-87200000D03*
X179530000Y-76470000D03*
X239210000Y-73510000D03*
X200761600Y-105410000D03*
X166812501Y-93437500D03*
X177210000Y-73630000D03*
X197150000Y-102900000D03*
X205240000Y-107250000D03*
X232120000Y-89500000D03*
X242387501Y-76700000D03*
X211023200Y-105460800D03*
X196925000Y-90990000D03*
X193650000Y-75200000D03*
X158990000Y-64680000D03*
X170120000Y-85250000D03*
X194060000Y-87430000D03*
X153050000Y-75230000D03*
X164840000Y-101627500D03*
X196125000Y-94190000D03*
X215020000Y-113850000D03*
X183525000Y-86990000D03*
X186850000Y-95450000D03*
X196125000Y-88590000D03*
X171210000Y-95150000D03*
X200790000Y-113660000D03*
X192637500Y-106475000D03*
X194950000Y-64600000D03*
X162812500Y-84562500D03*
X175040000Y-101627500D03*
X166220000Y-78840000D03*
X218850000Y-89890000D03*
X193710000Y-73590000D03*
X242387500Y-101300000D03*
X193725000Y-93390000D03*
X205100000Y-111550000D03*
X178300000Y-89000000D03*
X176930000Y-114330000D03*
X219500000Y-90750000D03*
X205450000Y-96680000D03*
X191400000Y-100780000D03*
X201170000Y-97820000D03*
X215300000Y-64600000D03*
X235370000Y-84220000D03*
X188350000Y-70860000D03*
X193725000Y-85390000D03*
X239350000Y-92550000D03*
X200740000Y-73380000D03*
X212110000Y-67060000D03*
X195270000Y-66570000D03*
X224028000Y-106019600D03*
X213930000Y-114330000D03*
X165970000Y-80650001D03*
X224400000Y-95000000D03*
X223780000Y-78510000D03*
X206806800Y-102768400D03*
X192820000Y-79470000D03*
X218500000Y-94200000D03*
X221200000Y-92500000D03*
X222760000Y-71018400D03*
X190525000Y-94990000D03*
X172290000Y-76080000D03*
X205560000Y-93950000D03*
X197400000Y-66740000D03*
X240800000Y-71390000D03*
X216678822Y-93378822D03*
X210500000Y-100750000D03*
X171240000Y-108760000D03*
X197400000Y-106810000D03*
X168170000Y-82350000D03*
X153030000Y-93960000D03*
X233115000Y-88500000D03*
X221600000Y-67900000D03*
X189450000Y-107240000D03*
X211640000Y-110560000D03*
X218500000Y-91750000D03*
X229675000Y-112150000D03*
X210200000Y-92250001D03*
X196925000Y-88590000D03*
X209710000Y-69720000D03*
X172212000Y-71577200D03*
X208750000Y-101904800D03*
X219300000Y-93500000D03*
X225778859Y-97223223D03*
X192990000Y-97620000D03*
X193725000Y-82990000D03*
X216930000Y-76540000D03*
X176990000Y-111280000D03*
X202336400Y-76606400D03*
X175950000Y-67750000D03*
X215190000Y-108800000D03*
X163550000Y-112500000D03*
X226500000Y-95800000D03*
D17*
X164775025Y-106773787D03*
D16*
X159400001Y-103097498D03*
X162199999Y-107450000D03*
X197400000Y-68050000D03*
X204880000Y-100630000D03*
X198640000Y-114310000D03*
X158800000Y-68590001D03*
X194130000Y-110860000D03*
X173200000Y-94600000D03*
X202150000Y-71040000D03*
X226250000Y-90000000D03*
X219405200Y-76454000D03*
X169260000Y-76320000D03*
X159650000Y-72850000D03*
X224282000Y-102717600D03*
X199950000Y-96000000D03*
X195325000Y-89390000D03*
X160300000Y-102880000D03*
X162910000Y-98050000D03*
X199410000Y-70380000D03*
X200550000Y-86600000D03*
X169170000Y-92730000D03*
X231980000Y-79160000D03*
X242387501Y-74800000D03*
X217420000Y-94970000D03*
X211750000Y-80750000D03*
X193610000Y-70650000D03*
X153050000Y-100230000D03*
X211023200Y-102819200D03*
X242387500Y-99400000D03*
X207600000Y-67800000D03*
X170140000Y-86210000D03*
X168250000Y-101470000D03*
X190550000Y-67800000D03*
X208350000Y-70860000D03*
X172000000Y-79197500D03*
X184090000Y-85560000D03*
X231950000Y-78600000D03*
X199350000Y-64660000D03*
X208760000Y-101270000D03*
X195800000Y-68490001D03*
X209160000Y-71460000D03*
X171370000Y-107130000D03*
X189280000Y-75900000D03*
X185760000Y-76610000D03*
X242387501Y-78600000D03*
X185525000Y-82990000D03*
X193500000Y-78450000D03*
X221500000Y-92900000D03*
X198525000Y-94990000D03*
X223200000Y-101080000D03*
X175400000Y-94050000D03*
X182840000Y-100910000D03*
X177070000Y-63770000D03*
X210200000Y-89250000D03*
X191325000Y-92590000D03*
X212000000Y-63440000D03*
X162750000Y-96420000D03*
X174140000Y-111410000D03*
X172220000Y-81020000D03*
X169150000Y-89310000D03*
X220300000Y-110900000D03*
X178420000Y-63600000D03*
X232400000Y-92400000D03*
X219630000Y-114330000D03*
X217100000Y-91700000D03*
X188990000Y-91400000D03*
X193725000Y-94190000D03*
X160000000Y-85120000D03*
G04 #@! TO.N,/IO Banks/Bank C/PG*
X179500000Y-114500000D03*
G04 #@! TO.N,+3V3*
X196850000Y-71150000D03*
X194526000Y-90990000D03*
X198525000Y-89390000D03*
X198525000Y-86990000D03*
X216400000Y-64650000D03*
X163310000Y-83420000D03*
X234910000Y-95190000D03*
X194000000Y-64540000D03*
X171200000Y-86200000D03*
X198525000Y-90990000D03*
X229700000Y-93850000D03*
X225820000Y-81540000D03*
X198900000Y-103800000D03*
X194525000Y-89390000D03*
X169160000Y-86220000D03*
D17*
X194600000Y-72930000D03*
D16*
X218660589Y-97239411D03*
X174600000Y-114500000D03*
X224640000Y-86100000D03*
X223039411Y-94139411D03*
X211600000Y-114500000D03*
X216000000Y-92700000D03*
X221400000Y-98100000D03*
X234900000Y-105209999D03*
X198650000Y-78850000D03*
X197725000Y-90990000D03*
X199880000Y-105660000D03*
X199100000Y-114650000D03*
X195325500Y-90990000D03*
X197725000Y-89390000D03*
X193500000Y-99620000D03*
X224500000Y-92100000D03*
X220650000Y-87300000D03*
X213800000Y-95749999D03*
X194525000Y-88590000D03*
X162500000Y-97750000D03*
X179400000Y-64700000D03*
G04 #@! TO.N,/LED_CY*
X220795736Y-90205736D03*
X235750000Y-90750000D03*
X220690000Y-101090000D03*
D17*
G04 #@! TO.N,+5V*
X235700000Y-84700000D03*
X230475000Y-89237500D03*
X232200000Y-93800000D03*
X160900000Y-80300000D03*
X223200000Y-78900000D03*
X232200000Y-96450000D03*
X162300000Y-77400000D03*
X231800000Y-85800000D03*
X211400000Y-95900000D03*
D16*
X159570000Y-107950000D03*
D17*
X223900000Y-83600000D03*
D16*
X231025000Y-100505000D03*
G04 #@! TO.N,/PG_{VBUS}*
X230650000Y-109850000D03*
X229900000Y-82999999D03*
G04 #@! TO.N,/USB/VUSB*
X230610000Y-82060000D03*
D18*
X232825000Y-84200000D03*
D16*
G04 #@! TO.N,/DRDY*
X201725000Y-94990000D03*
X172609999Y-93500000D03*
G04 #@! TO.N,/COPI*
X200925000Y-94990000D03*
X174600000Y-95200000D03*
G04 #@! TO.N,/FPGA/RAM + LVDS/DETECT*
X210100000Y-94250000D03*
X201300000Y-96250000D03*
G04 #@! TO.N,/SCLK*
X174609999Y-94050000D03*
X196925000Y-94990000D03*
G04 #@! TO.N,/FLAGC*
X200600000Y-97350000D03*
G04 #@! TO.N,/SCL*
X216300000Y-68000000D03*
X211015668Y-110384332D03*
X193170000Y-105850000D03*
X193800000Y-111205000D03*
X219100000Y-98900000D03*
X193725000Y-94990000D03*
X216248750Y-73900000D03*
X232850000Y-98450000D03*
X163650000Y-110400000D03*
X174100000Y-110950000D03*
X200440000Y-73820000D03*
X211500000Y-100800000D03*
X194800000Y-66800000D03*
X158600000Y-94200000D03*
X164100000Y-99400000D03*
X182300000Y-67250000D03*
X217550000Y-85400000D03*
G04 #@! TO.N,/FPGA/U3*
X240300000Y-94700000D03*
X193430000Y-97720000D03*
G04 #@! TO.N,/FPGA/U4*
X241000000Y-94555000D03*
X192800000Y-98160000D03*
G04 #@! TO.N,/NAFE_{~{RST}}*
X191325000Y-94990000D03*
X174609999Y-97400000D03*
X192786000Y-96520000D03*
G04 #@! TO.N,/IO Banks/A.DIR0*
X226070000Y-101000000D03*
G04 #@! TO.N,/IO Banks/A.Q0*
X227090000Y-101737500D03*
G04 #@! TO.N,/CIPO*
X172619998Y-94600000D03*
X200925000Y-94190000D03*
G04 #@! TO.N,/~{ALERT}*
X175200000Y-94500000D03*
X211930000Y-110210000D03*
X209296000Y-68021200D03*
X200125000Y-94190000D03*
X177350000Y-66750000D03*
X211550000Y-92170000D03*
X174930000Y-109800000D03*
X211700000Y-69250000D03*
G04 #@! TO.N,/OE*
X199325000Y-94190000D03*
G04 #@! TO.N,/FLAGA*
X201800000Y-97950000D03*
G04 #@! TO.N,/FPGA/SYNCBALL*
X193750000Y-82000000D03*
X192925000Y-94190000D03*
G04 #@! TO.N,/FPGA/U5*
X192800000Y-97100000D03*
X241100000Y-93800000D03*
G04 #@! TO.N,/IO Banks/C.DIR0*
X190500000Y-100900000D03*
G04 #@! TO.N,/IO Banks/C.Q0*
X190159600Y-101752400D03*
G04 #@! TO.N,/IO Banks/A.DIR2*
X204200000Y-95750000D03*
X219265000Y-101100000D03*
X204220000Y-94320000D03*
G04 #@! TO.N,/IO Banks/A.Q2*
X220290000Y-101300000D03*
X204910000Y-97160000D03*
X204230000Y-93590000D03*
G04 #@! TO.N,/IO Banks/A.DIR1*
X222670000Y-101100000D03*
G04 #@! TO.N,/INTB*
X172609999Y-96800000D03*
X200125000Y-93390000D03*
X200355200Y-96266000D03*
G04 #@! TO.N,/CLKREF*
X220260000Y-96900000D03*
X197590000Y-97090000D03*
G04 #@! TO.N,/NAFE_{~{CS}}*
X196125000Y-93390000D03*
X172609999Y-95700000D03*
G04 #@! TO.N,Net-(U10-DIR)*
X192550000Y-92150000D03*
X242570000Y-92150000D03*
G04 #@! TO.N,/IO Banks/C.Q1*
X186690000Y-101737500D03*
G04 #@! TO.N,/IO Banks/C.DIR2*
X182300000Y-101000000D03*
G04 #@! TO.N,/IO Banks/C.Q2*
X183300000Y-101000000D03*
G04 #@! TO.N,/IO Banks/A.DIR4*
X204900000Y-98500000D03*
X204930000Y-93620000D03*
X212600000Y-101200000D03*
G04 #@! TO.N,/IO Banks/A.Q1*
X204890000Y-96190000D03*
X204890000Y-94440000D03*
X223690000Y-101300000D03*
G04 #@! TO.N,/SYNC*
X174609999Y-96250000D03*
X200125000Y-92590000D03*
G04 #@! TO.N,/MCU_~{RST}*
X199325000Y-92590000D03*
X220880000Y-91060000D03*
X161810000Y-83400000D03*
G04 #@! TO.N,/A1*
X196925000Y-92590000D03*
G04 #@! TO.N,/A0*
X196125000Y-92590000D03*
G04 #@! TO.N,/WR*
X223520000Y-93530000D03*
X195325000Y-92590000D03*
X196550000Y-96450000D03*
G04 #@! TO.N,/SDA*
X194400000Y-110500000D03*
X217500000Y-84650000D03*
X157900000Y-94200000D03*
X221125000Y-99475000D03*
X193750000Y-105200000D03*
X194900000Y-66250000D03*
X200440000Y-74270000D03*
X163858554Y-110928794D03*
X182350000Y-66400000D03*
X216600000Y-67500000D03*
X172100000Y-110550000D03*
X217455000Y-98755000D03*
X162900000Y-98500000D03*
X211000000Y-100800000D03*
X211000000Y-110900000D03*
X216710000Y-73960000D03*
X194525000Y-92590000D03*
G04 #@! TO.N,/FPGA/U1*
X186070000Y-82090000D03*
X192925000Y-92590000D03*
X235700000Y-82550000D03*
G04 #@! TO.N,/IO Banks/C.DIR1*
X185700000Y-101000000D03*
G04 #@! TO.N,/IO Banks/C.Q4*
X176660000Y-101230000D03*
G04 #@! TO.N,/IO Banks/A.Q7*
X202525000Y-91790000D03*
X202750000Y-100950000D03*
G04 #@! TO.N,/IO Banks/A.Q4*
X205900000Y-98750000D03*
X205790000Y-94390000D03*
X213490000Y-101100000D03*
G04 #@! TO.N,/IO Banks/A.DIR3*
X203530000Y-95620000D03*
X203530000Y-91600000D03*
X215865000Y-100900000D03*
G04 #@! TO.N,/FLAGD*
X200125000Y-91790000D03*
G04 #@! TO.N,/BOOT0*
X194925000Y-100175000D03*
X199200000Y-96000000D03*
G04 #@! TO.N,/CLKIF*
X219260000Y-97880000D03*
X197250000Y-97680000D03*
G04 #@! TO.N,/RD*
X224930000Y-94560000D03*
X196400000Y-97200000D03*
X197450000Y-84200000D03*
G04 #@! TO.N,/FLAGB*
X201460000Y-97370000D03*
X195500000Y-96500000D03*
G04 #@! TO.N,/PKTEND*
X194160000Y-92160000D03*
G04 #@! TO.N,/FPGA/U2*
X192925000Y-91790000D03*
X186850000Y-82100000D03*
X238400000Y-81450000D03*
G04 #@! TO.N,/IO Banks/C.Q3*
X179900000Y-100950000D03*
G04 #@! TO.N,/IO Banks/C.DIR4*
X175500000Y-100900000D03*
G04 #@! TO.N,/IO Banks/C.DIR7*
X165300000Y-100950000D03*
G04 #@! TO.N,/IO Banks/B.DIR0*
X202525000Y-90990000D03*
X201900000Y-77200000D03*
G04 #@! TO.N,/IO Banks/A.DIR7*
X202265000Y-100925000D03*
X201725000Y-90990000D03*
G04 #@! TO.N,/IO Banks/A.Q3*
X204010000Y-91620000D03*
X216910000Y-100910000D03*
X204095000Y-97265000D03*
G04 #@! TO.N,/IO Banks/A.DIR5*
X209070000Y-100900000D03*
G04 #@! TO.N,/IO Banks/A.Q5*
X210040000Y-100900000D03*
G04 #@! TO.N,/IO Banks/C.DIR5*
X172550000Y-100400000D03*
G04 #@! TO.N,/IO Banks/C.Q5*
X173090000Y-101320000D03*
G04 #@! TO.N,/IO Banks/C.DIR3*
X178865000Y-101035000D03*
X188850000Y-94800000D03*
X192125000Y-90990000D03*
G04 #@! TO.N,/IO Banks/C.Q7*
X166300000Y-100750000D03*
G04 #@! TO.N,/IO Banks/D.Q0*
X190525000Y-90990000D03*
X187770000Y-90760000D03*
X187250000Y-81480000D03*
G04 #@! TO.N,/IO Banks/B.DIR4*
X202525000Y-90190000D03*
X215090000Y-79370000D03*
X214870000Y-89440000D03*
G04 #@! TO.N,/IO Banks/B.Q0*
X201725000Y-90190000D03*
X201000000Y-77200000D03*
G04 #@! TO.N,/IO Banks/B.DIR1*
X204300000Y-90500000D03*
X200925000Y-90190000D03*
X205300000Y-77200000D03*
G04 #@! TO.N,/IO Banks/A.Q6*
X206690000Y-100910000D03*
X206680000Y-93100000D03*
G04 #@! TO.N,/IO Banks/A.DIR6*
X205660000Y-100960000D03*
G04 #@! TO.N,+1V1*
X198525000Y-90190000D03*
X195725000Y-86990000D03*
X196525000Y-86990000D03*
X197725000Y-90190000D03*
X225380000Y-98340000D03*
X211480000Y-98180000D03*
X196125000Y-90190000D03*
X197920000Y-100540000D03*
G04 #@! TO.N,+2V5*
X194525000Y-90190000D03*
X231930000Y-100630000D03*
X235450000Y-88000000D03*
X197725000Y-86990000D03*
G04 #@! TO.N,/IO Banks/C.Q6*
X190000000Y-91400000D03*
X171340000Y-100750000D03*
X193340000Y-90280000D03*
G04 #@! TO.N,/IO Banks/C.DIR6*
X170090000Y-100440000D03*
G04 #@! TO.N,/IO Banks/D.Q1*
X189890000Y-89990000D03*
X188690000Y-81480000D03*
G04 #@! TO.N,/IO Banks/D.DIR0*
X187710000Y-81480000D03*
X191325000Y-90190000D03*
G04 #@! TO.N,/IO Banks/D.Q4*
X189060000Y-79520000D03*
X190525000Y-90190000D03*
G04 #@! TO.N,/IO Banks/B.Q4*
X213895000Y-79895000D03*
X201725000Y-89390000D03*
X211260000Y-90023576D03*
G04 #@! TO.N,/IO Banks/B.Q1*
X204320000Y-89230000D03*
X200925000Y-89390000D03*
X204300000Y-77200000D03*
G04 #@! TO.N,/IO Banks/B.Q2*
X206490000Y-89190000D03*
X207700000Y-77200000D03*
X200570000Y-89110000D03*
G04 #@! TO.N,/IO Banks/B.DIR2*
X207490000Y-89200000D03*
X208710000Y-77200000D03*
X199780000Y-89790000D03*
G04 #@! TO.N,/IO Banks/D.Q2*
X193460000Y-89680000D03*
X193230000Y-80930000D03*
G04 #@! TO.N,/IO Banks/D.DIR2*
X192000000Y-80350000D03*
X192925000Y-89390000D03*
G04 #@! TO.N,/IO Banks/D.DIR1*
X192125000Y-89390000D03*
X191980000Y-81450000D03*
G04 #@! TO.N,/IO Banks/D.DIR4*
X191325000Y-89390000D03*
X191090000Y-79520000D03*
G04 #@! TO.N,/IO Banks/B.DIR6*
X202525000Y-88590000D03*
G04 #@! TO.N,/IO Banks/B.Q6*
X201725000Y-88590000D03*
G04 #@! TO.N,/IO Banks/B.DIR5*
X212740000Y-87900000D03*
X200925000Y-88590000D03*
X213350000Y-81060000D03*
G04 #@! TO.N,/IO Banks/B.DIR3*
X211420000Y-89290000D03*
X212100000Y-77200000D03*
X200125000Y-88590000D03*
G04 #@! TO.N,/IO Banks/B.Q3*
X211100000Y-77200000D03*
X211270000Y-90500000D03*
X199790000Y-88990000D03*
G04 #@! TO.N,/FPGA/RAM + LVDS/VIO_{AUX}*
X197725000Y-88590000D03*
X198525000Y-88590000D03*
X213800000Y-81750000D03*
G04 #@! TO.N,/IO Banks/D.DIR3*
X193410000Y-80080000D03*
X193725000Y-88590000D03*
G04 #@! TO.N,/IO Banks/D.Q3*
X192500000Y-80400000D03*
X192925000Y-88590000D03*
G04 #@! TO.N,/IO Banks/D.Q5*
X192125000Y-88590000D03*
X191940000Y-79520000D03*
G04 #@! TO.N,/IO Banks/D.DIR6*
X191325000Y-88590000D03*
X190190000Y-78710000D03*
G04 #@! TO.N,/IO Banks/D.Q6*
X188990000Y-78480000D03*
X190525000Y-88590000D03*
G04 #@! TO.N,/IO Banks/B.DIR7*
X204190000Y-87860000D03*
G04 #@! TO.N,/IO Banks/B.Q7*
X203875027Y-87527523D03*
G04 #@! TO.N,/IO Banks/B.Q5*
X212170000Y-81051400D03*
X211480000Y-88650000D03*
X203430000Y-88745000D03*
G04 #@! TO.N,+1V8*
X212500000Y-95250000D03*
X209700000Y-80200000D03*
X185525000Y-91990000D03*
X194525000Y-86990000D03*
X194525000Y-87790000D03*
X185525000Y-83990000D03*
X184525000Y-94990000D03*
D17*
X220300000Y-80500000D03*
X194600000Y-80200000D03*
D16*
X184525000Y-86990000D03*
G04 #@! TO.N,/IO Banks/D.DIR5*
X192125000Y-87790000D03*
X192440000Y-79100000D03*
G04 #@! TO.N,/IO Banks/D.DIR7*
X191325000Y-87790000D03*
X191520000Y-78660000D03*
G04 #@! TO.N,/IO Banks/D.Q7*
X190525000Y-87790000D03*
X190720000Y-78130000D03*
G04 #@! TO.N,/FPGA/RAM + LVDS/Z13_P*
X215750901Y-87859099D03*
X200925000Y-86990000D03*
G04 #@! TO.N,/FPGA/RAM + LVDS/Z15_P*
X211850000Y-87800000D03*
X200125000Y-86990000D03*
G04 #@! TO.N,/FPGA/RAM + LVDS/Z15_N*
X211500000Y-88150000D03*
X199325000Y-86990000D03*
G04 #@! TO.N,/FPGA/RAM + LVDS/Z11_P*
X202525000Y-86190000D03*
X211797780Y-86643280D03*
G04 #@! TO.N,/FPGA/RAM + LVDS/Z11_N*
X211479582Y-86961478D03*
X201725000Y-86190000D03*
G04 #@! TO.N,/FPGA/RAM + LVDS/Z13_N*
X216069099Y-87540901D03*
X200925000Y-86190000D03*
G04 #@! TO.N,/FPGA/RAM + LVDS/Z9_P*
X215040901Y-86190000D03*
X200125000Y-86190000D03*
G04 #@! TO.N,/FPGA/RAM + LVDS/Z7_P*
X211689099Y-85470901D03*
X199325000Y-86190000D03*
G04 #@! TO.N,/D2*
X198440000Y-99669600D03*
X198560000Y-97420000D03*
G04 #@! TO.N,/FPGA/SYNSYN*
X196920000Y-86190000D03*
X241240000Y-71610000D03*
X197330000Y-76910000D03*
G04 #@! TO.N,/FPGA/TDO*
X161250000Y-81270000D03*
X194600000Y-79350000D03*
X155100000Y-101250000D03*
G04 #@! TO.N,/FPGA/RAM + LVDS/CK1*
X186615000Y-85780000D03*
X189865000Y-85980000D03*
G04 #@! TO.N,/FPGA/RAM + LVDS/Z9_N*
X200925000Y-85390000D03*
X215360000Y-85840000D03*
G04 #@! TO.N,/FPGA/RAM + LVDS/Z7_N*
X199325000Y-85390000D03*
X211370901Y-85789099D03*
G04 #@! TO.N,/D3*
X199990000Y-99360000D03*
X197725000Y-85390000D03*
G04 #@! TO.N,/FPGA/CSSPIN*
X191160000Y-100380000D03*
X194920000Y-98560000D03*
X196925000Y-85390000D03*
G04 #@! TO.N,CFG0*
X195325000Y-85390000D03*
X169420000Y-88100000D03*
G04 #@! TO.N,/FPGA/RAM + LVDS/DQS0*
X190525000Y-85390000D03*
X189035000Y-87570000D03*
G04 #@! TO.N,/FPGA/RAM + LVDS/Z5_N*
X199325000Y-84590000D03*
X211360000Y-84840000D03*
G04 #@! TO.N,/FPGA/RAM + LVDS/Z5_P*
X198525000Y-84590000D03*
X211680211Y-84518868D03*
G04 #@! TO.N,/D4*
X197725000Y-84590000D03*
X200640000Y-99320000D03*
G04 #@! TO.N,/FPGA_DONE*
X217145000Y-91055000D03*
X239700000Y-89150000D03*
G04 #@! TO.N,Net-(U8I-CFG_1)*
X195325000Y-84590000D03*
G04 #@! TO.N,/FPGA/RAM + LVDS/CS#1*
X184035000Y-84990000D03*
X194525000Y-84590000D03*
G04 #@! TO.N,/FPGA/RAM + LVDS/CK0*
X190525000Y-84590000D03*
X189415000Y-85980000D03*
G04 #@! TO.N,/FPGA/RAM + LVDS/Z3_P*
X201725000Y-83790000D03*
X212800000Y-84200000D03*
G04 #@! TO.N,/FPGA/RAM + LVDS/Z1_P*
X200125000Y-83790000D03*
X213800000Y-82750000D03*
G04 #@! TO.N,/D6*
X199050000Y-98870000D03*
X202900000Y-98900000D03*
X199280000Y-97360000D03*
G04 #@! TO.N,/D5*
X202420000Y-99010000D03*
X202120000Y-81210000D03*
G04 #@! TO.N,/~{FPGA_RESET}*
X215400000Y-82600000D03*
X153250000Y-80490000D03*
X226170000Y-78180000D03*
X196700000Y-82200000D03*
X216500000Y-91800000D03*
G04 #@! TO.N,CFG2*
X169770000Y-88405000D03*
X195325000Y-83790000D03*
G04 #@! TO.N,/FPGA/TDI*
X160890000Y-82110000D03*
X159080000Y-106270000D03*
X193950000Y-78650000D03*
G04 #@! TO.N,/FPGA/RAM + LVDS/DQS1*
X193725000Y-83790000D03*
X184845000Y-84480000D03*
G04 #@! TO.N,/FPGA/RAM + LVDS/CS#0*
X187562342Y-86144962D03*
X190525000Y-83790000D03*
G04 #@! TO.N,/FPGA/RAM + LVDS/Z3_N*
X201725000Y-82990000D03*
X212730000Y-84650000D03*
G04 #@! TO.N,/FPGA/RAM + LVDS/Z1_N*
X200925000Y-82990000D03*
X213800000Y-83250000D03*
G04 #@! TO.N,/D7*
X198525000Y-82990000D03*
X209230000Y-98200000D03*
X208910000Y-81740000D03*
G04 #@! TO.N,/D1*
X205230000Y-100300000D03*
X191630000Y-100380000D03*
X205330000Y-81800000D03*
G04 #@! TO.N,/D0*
X193520000Y-95780000D03*
X208490000Y-100910000D03*
X208740000Y-80950000D03*
X208910000Y-94090000D03*
G04 #@! TO.N,/FPGA_INITn*
X196125000Y-82990000D03*
X167765000Y-84855000D03*
G04 #@! TO.N,/FPGA/TCK*
X195325000Y-79120000D03*
X155350000Y-100450000D03*
X160920000Y-80960000D03*
G04 #@! TO.N,/FPGA/TMS*
X155000000Y-99950000D03*
X194650000Y-78650000D03*
X157820000Y-79810000D03*
G04 #@! TO.N,/ADC/ADC_~{RST}*
X173590001Y-97400000D03*
X168000000Y-91250000D03*
G04 #@! TO.N,/~{CY_RESET}*
X225080000Y-87890000D03*
X218250000Y-87900000D03*
X229600000Y-97600000D03*
G04 #@! TO.N,Net-(Q1-G)*
X171130000Y-82340000D03*
X155175000Y-75985358D03*
X236150000Y-102050000D03*
X165370000Y-78750001D03*
X231450000Y-82750000D03*
X153547500Y-96850000D03*
G04 #@! TO.N,/Power/IBBIN*
X159570000Y-105820000D03*
X153070000Y-94420000D03*
G04 #@! TO.N,Net-(Q1-D)*
X152150000Y-95920000D03*
G04 #@! TO.N,/LED_ERR*
X235200000Y-91950000D03*
X222030000Y-92120000D03*
G04 #@! TO.N,/ADC/MCU_LED*
X167740000Y-83680000D03*
X161620000Y-77890000D03*
G04 #@! TO.N,VDDA*
X172970000Y-78207501D03*
X170700000Y-82900000D03*
X171150000Y-78420000D03*
X169800000Y-94900000D03*
X164170000Y-94610000D03*
X161830000Y-94530000D03*
G04 #@! TO.N,/IO Banks/Bank B/PG*
X211480000Y-63440000D03*
G04 #@! TO.N,/LED_ACT*
X235300000Y-91000000D03*
X221490000Y-91650000D03*
G04 #@! TO.N,+15V*
X157325000Y-85650000D03*
G04 #@! TO.N,/ADC/A1_P*
X160300000Y-101800000D03*
X159400000Y-85750000D03*
X195210000Y-102410000D03*
G04 #@! TO.N,/ADC/A1_N*
X159050000Y-86250000D03*
X196200000Y-103200000D03*
X160300000Y-102400000D03*
G04 #@! TO.N,/ADC/A2_P*
X155400000Y-71000000D03*
X230000000Y-71300000D03*
X156800000Y-86800000D03*
G04 #@! TO.N,/ADC/A2_N*
X154800000Y-71400000D03*
X156800000Y-87300000D03*
X228000000Y-71800000D03*
G04 #@! TO.N,/ADC/A3_P*
X157710000Y-87680000D03*
G04 #@! TO.N,/ADC/A3_N*
X156900000Y-88200000D03*
G04 #@! TO.N,Net-(U7-AICOM)*
X155950000Y-86730000D03*
X156160000Y-88100000D03*
G04 #@! TO.N,/ADC/A4_P*
X156200000Y-89500000D03*
X154300000Y-71900000D03*
X196700000Y-73200000D03*
G04 #@! TO.N,/ADC/A4_N*
X156170000Y-90420000D03*
X191080000Y-64000000D03*
X159400000Y-64390000D03*
G04 #@! TO.N,-15V*
X157450000Y-96770000D03*
G04 #@! TO.N,/ADC/INTB*
X168930000Y-90300000D03*
X168050000Y-89750000D03*
X171590001Y-96800000D03*
G04 #@! TO.N,/ADC/SYNC*
X173590001Y-96250000D03*
X169120000Y-89850000D03*
G04 #@! TO.N,/ADC/~{CS}*
X168780000Y-89050000D03*
X171590001Y-95700000D03*
G04 #@! TO.N,/ADC/SCLK*
X170280000Y-87700000D03*
X173590001Y-94050000D03*
G04 #@! TO.N,/ADC/COPI*
X173590001Y-95150000D03*
X168800000Y-87750000D03*
G04 #@! TO.N,/ADC/CIPO*
X171600000Y-94600000D03*
X168800000Y-87250000D03*
G04 #@! TO.N,/ADC/DRDY*
X168000000Y-86750000D03*
X171590001Y-93500000D03*
G04 #@! TO.N,/ENVC*
X195500000Y-111450000D03*
X219400000Y-110200000D03*
X219930000Y-89740000D03*
X174700000Y-112450000D03*
G04 #@! TO.N,/ADC/SWDIO*
X164080000Y-83650000D03*
X162890000Y-94720000D03*
G04 #@! TO.N,/XTALOUT*
X224576776Y-96021142D03*
G04 #@! TO.N,/ENVB*
X216200000Y-66900000D03*
X199570000Y-70840000D03*
X224110000Y-67270000D03*
X222300000Y-89400000D03*
G04 #@! TO.N,/ENVA*
X232180000Y-108620000D03*
X218900000Y-109100000D03*
X219300000Y-89780000D03*
G04 #@! TO.N,LS_3V3*
X163880000Y-101627500D03*
X216920000Y-75880000D03*
X200880000Y-102209600D03*
X170700000Y-101470000D03*
X214480000Y-102209600D03*
X221280000Y-102209600D03*
X177480000Y-101627500D03*
X174080000Y-101627500D03*
X180900000Y-101470000D03*
X227150000Y-75880000D03*
X206730000Y-75890000D03*
X213510000Y-75890000D03*
X203430000Y-75880000D03*
X167280000Y-101627500D03*
X210100000Y-76600000D03*
X176520000Y-76472500D03*
X179920000Y-75880000D03*
X186720000Y-76472500D03*
X184280000Y-101627500D03*
X166370000Y-76040000D03*
X216916000Y-102209600D03*
X187678750Y-101628750D03*
X183320000Y-76630000D03*
X220320000Y-76620000D03*
X224536000Y-102209600D03*
X232595001Y-77064999D03*
X172440000Y-76590000D03*
X206857600Y-102311200D03*
X204280000Y-102209600D03*
X223750000Y-75890000D03*
X169640000Y-76010000D03*
X189990000Y-75900000D03*
X211080000Y-102209600D03*
G04 #@! TO.N,Net-(U25-~{INT})*
X193240000Y-73575000D03*
G04 #@! TO.N,/IO Banks/Bank B/V_{SENSE}*
X218800000Y-66390000D03*
G04 #@! TO.N,/IO Banks/Bank B/V_{IO_OUT}*
X200700000Y-64990000D03*
X200300000Y-66700000D03*
X202600000Y-64500000D03*
G04 #@! TO.N,/IO Banks/Bank B/Z0*
X202820000Y-70960000D03*
G04 #@! TO.N,/IO Banks/Bank B/Z1*
X204310000Y-70860000D03*
G04 #@! TO.N,/IO Banks/Bank B/Z2*
X210300000Y-73750000D03*
G04 #@! TO.N,/IO Banks/Bank B/Z3*
X211110000Y-70860000D03*
G04 #@! TO.N,/IO Banks/Bank B/Z4*
X214510000Y-70860000D03*
G04 #@! TO.N,/IO Banks/Bank B/Z5*
X217910000Y-70860000D03*
G04 #@! TO.N,/IO Banks/Bank B/Z6*
X221310000Y-70860000D03*
G04 #@! TO.N,/IO Banks/Bank B/Z7*
X224710000Y-70860000D03*
G04 #@! TO.N,/ADC/A2raw_P*
X228550000Y-75100000D03*
G04 #@! TO.N,/ADC/A2raw_N*
X225430000Y-66199999D03*
G04 #@! TO.N,/USB_P*
X226130000Y-99300000D03*
X234085000Y-89500000D03*
X233240901Y-99240901D03*
G04 #@! TO.N,/XTALIN*
X224271776Y-97100000D03*
G04 #@! TO.N,/IO Banks/Bank C/V_{SENSE}*
X172200000Y-111710000D03*
G04 #@! TO.N,/IO Banks/Bank C/V_{IO_OUT}*
X190300000Y-113110000D03*
X188130000Y-113650000D03*
X192750000Y-113500000D03*
G04 #@! TO.N,/IO Banks/Bank C/Z0*
X188150000Y-107130000D03*
G04 #@! TO.N,/IO Banks/Bank C/Z1*
X186690000Y-107240000D03*
G04 #@! TO.N,/IO Banks/Bank C/Z2*
X180850000Y-104150000D03*
G04 #@! TO.N,/IO Banks/Bank C/Z3*
X179890000Y-107240000D03*
G04 #@! TO.N,/IO Banks/Bank C/Z4*
X176490000Y-107240000D03*
G04 #@! TO.N,/IO Banks/Bank C/Z5*
X173090000Y-107240000D03*
G04 #@! TO.N,/IO Banks/Bank C/Z6*
X169690000Y-107240000D03*
G04 #@! TO.N,/IO Banks/Bank C/Z7*
X166290000Y-107240000D03*
G04 #@! TO.N,/ADC/A3raw_P*
X162199999Y-105350000D03*
G04 #@! TO.N,/ADC/A3raw_N*
X165650000Y-112500000D03*
G04 #@! TO.N,/ENVD*
X158800000Y-70490000D03*
X222800000Y-89400000D03*
X224100000Y-66300000D03*
X179500000Y-65500000D03*
G04 #@! TO.N,Net-(Q2-G)*
X155649999Y-94940000D03*
G04 #@! TO.N,/Power/INVBUBO_LOCALGND*
X155639999Y-96790000D03*
G04 #@! TO.N,/Power/EN*
X158540001Y-105800000D03*
X157960000Y-95900000D03*
G04 #@! TO.N,Net-(U5-EN)*
X230390000Y-83340000D03*
G04 #@! TO.N,/USB_N*
X234085000Y-88500000D03*
X237305000Y-89750000D03*
X225877757Y-99990000D03*
X233559099Y-99559099D03*
X237300000Y-88750000D03*
G04 #@! TO.N,/ADC/SWCLK*
X162300000Y-83400000D03*
X162570000Y-94070000D03*
G04 #@! TO.N,/IO Banks/Bank A/V_{SENSE}*
X208650000Y-112500000D03*
G04 #@! TO.N,/IO Banks/Bank A/V_{IO_OUT}*
X225400000Y-113600000D03*
X227300001Y-113110000D03*
X226720000Y-111060000D03*
G04 #@! TO.N,/IO Banks/Bank A/Z0*
X225160000Y-107130000D03*
G04 #@! TO.N,/IO Banks/Bank A/Z1*
X223690000Y-107240000D03*
G04 #@! TO.N,/IO Banks/Bank A/Z2*
X217440000Y-104851200D03*
G04 #@! TO.N,/IO Banks/Bank A/Z3*
X216890000Y-107240000D03*
G04 #@! TO.N,/IO Banks/Bank A/Z4*
X213490000Y-107240000D03*
G04 #@! TO.N,/IO Banks/Bank A/Z5*
X210090000Y-107240000D03*
G04 #@! TO.N,/IO Banks/Bank A/Z6*
X206690000Y-107240000D03*
G04 #@! TO.N,/IO Banks/Bank A/Z7*
X203290000Y-107240000D03*
G04 #@! TO.N,/ADC/A1raw_P*
X200761600Y-104100000D03*
G04 #@! TO.N,/ADC/A1raw_N*
X202890000Y-112740000D03*
G04 #@! TO.N,/IO Banks/Bank A/PG*
X216500000Y-114500000D03*
G04 #@! TO.N,/IO Banks/Bank D/PG*
X174500000Y-63600000D03*
G04 #@! TO.N,/IO Banks/Bank D/V_{SENSE}*
X181800000Y-66390000D03*
G04 #@! TO.N,/IO Banks/Bank D/V_{IO_OUT}*
X165407500Y-64697500D03*
X164550000Y-67200000D03*
X163700000Y-64990000D03*
G04 #@! TO.N,/IO Banks/Bank D/Z0*
X165860000Y-70970000D03*
G04 #@! TO.N,/IO Banks/Bank D/Z1*
X167310000Y-70860000D03*
G04 #@! TO.N,/IO Banks/Bank D/Z2*
X173450000Y-73850000D03*
G04 #@! TO.N,/IO Banks/Bank D/Z3*
X174110000Y-70860000D03*
G04 #@! TO.N,/IO Banks/Bank D/Z4*
X177510000Y-70860000D03*
G04 #@! TO.N,/IO Banks/Bank D/Z5*
X180910000Y-70860000D03*
G04 #@! TO.N,/IO Banks/Bank D/Z6*
X184310000Y-70860000D03*
G04 #@! TO.N,/IO Banks/Bank D/Z7*
X187710000Y-70860000D03*
G04 #@! TO.N,/ADC/A4raw_P*
X191550000Y-75200000D03*
G04 #@! TO.N,/ADC/A4raw_N*
X188450000Y-67800000D03*
G04 #@! TO.N,Net-(U24-~{INT})*
X197700000Y-103800000D03*
G04 #@! TO.N,/IO Banks/V_{SET_D}*
X176820000Y-73940000D03*
X176800000Y-67800000D03*
G04 #@! TO.N,/IO Banks/V_{SET_C}*
X172800000Y-81080000D03*
X174390000Y-110250000D03*
G04 #@! TO.N,/IO Banks/V_{SET_B}*
X213650000Y-68000000D03*
X213860000Y-78390000D03*
X177580000Y-81070000D03*
G04 #@! TO.N,/IO Banks/V_{SET_A}*
X178100000Y-81000000D03*
X216920000Y-111090000D03*
X214690000Y-81230000D03*
G04 #@! TO.N,/IO Banks/Bank A/V_{CLAMP}*
X212020000Y-108190000D03*
X205220000Y-108190000D03*
X208620000Y-108190000D03*
X201820000Y-108190000D03*
X218820000Y-108190000D03*
X215420000Y-108190000D03*
X222220000Y-108190000D03*
X225620000Y-108190000D03*
G04 #@! TO.N,/IO Banks/Bank B/V_{IO}*
X216630000Y-70750000D03*
X220030000Y-70720000D03*
X203030000Y-70550000D03*
X223420000Y-70710000D03*
X206450000Y-70550000D03*
X199810000Y-64990000D03*
X201550000Y-66800000D03*
X213220000Y-70740000D03*
X209820000Y-70740000D03*
X221322501Y-67140001D03*
X200300000Y-65390000D03*
X227130000Y-70730000D03*
G04 #@! TO.N,/IO Banks/A.P1*
X224900000Y-108500000D03*
X198930000Y-110340000D03*
G04 #@! TO.N,/IO Banks/A.P5*
X198700000Y-107780000D03*
X211300000Y-108450000D03*
G04 #@! TO.N,/IO Banks/Bank C/V_{IO}*
X169677499Y-110959999D03*
X190700000Y-112710000D03*
X177780000Y-107360000D03*
X170970000Y-107380000D03*
X191270000Y-113110000D03*
X181180000Y-107360000D03*
X163870000Y-107370000D03*
X174370000Y-107350000D03*
X187970000Y-107550000D03*
X167580000Y-107390000D03*
X189450000Y-111450000D03*
X184550000Y-107550000D03*
G04 #@! TO.N,+5V5*
X200020000Y-63530000D03*
X183720000Y-63240000D03*
X190980000Y-114570000D03*
X214050000Y-64080000D03*
X176930000Y-113370000D03*
X177070000Y-64730000D03*
X170500000Y-114900000D03*
X166650000Y-64040000D03*
X193600000Y-63710000D03*
X163020000Y-63530000D03*
D19*
X220730000Y-63210000D03*
D16*
X166900000Y-114700000D03*
G04 #@! TO.N,/IO Banks/A.P4*
X197940000Y-108430000D03*
X214800000Y-108400000D03*
G04 #@! TO.N,/IO Banks/Bank D/V_{CLAMP}*
X175580000Y-69910000D03*
X168780000Y-69910000D03*
X189180000Y-69910000D03*
X182380000Y-70090000D03*
X165380000Y-69910000D03*
X178980000Y-69910000D03*
X185780000Y-69910000D03*
X172180000Y-69910000D03*
G04 #@! TO.N,/IO Banks/Bank D/V_{IO}*
X166522400Y-70662800D03*
X184322501Y-67140001D03*
X183030000Y-70720000D03*
X164601786Y-66200000D03*
X176220000Y-70740000D03*
X162820000Y-64980000D03*
X169450000Y-70550000D03*
X172820000Y-70740000D03*
X166650000Y-67900000D03*
X163300000Y-65390000D03*
X189670000Y-70500000D03*
X186420000Y-70710000D03*
X179630000Y-70750000D03*
G04 #@! TO.N,/IO Banks/Bank A/V_{IO}*
X206677499Y-110959999D03*
X227700000Y-112710000D03*
X218180000Y-107360000D03*
X201410000Y-106980000D03*
X204580000Y-107390000D03*
X221550000Y-107550000D03*
X207970000Y-107380000D03*
X214780000Y-107360000D03*
X224970000Y-107550000D03*
X211370000Y-107350000D03*
X226650000Y-111850000D03*
G04 #@! TO.N,/IO Banks/B.P5*
X198900000Y-67730000D03*
X216700000Y-69650000D03*
G04 #@! TO.N,/Power/3V3OUT*
X225785000Y-85455000D03*
X225010000Y-83310000D03*
G04 #@! TO.N,/IO Banks/B.P3*
X209535000Y-69285000D03*
X198920000Y-69020000D03*
G04 #@! TO.N,/IO Banks/Bank C/V_{CLAMP}*
X168220000Y-108190000D03*
X164820000Y-108190000D03*
X171620000Y-108190000D03*
X175020000Y-108190000D03*
X178420000Y-108190000D03*
X181820000Y-108190000D03*
X185220000Y-108190000D03*
X188620000Y-108190000D03*
G04 #@! TO.N,/IO Banks/D.P3*
X172875000Y-69625000D03*
X193200000Y-69040000D03*
G04 #@! TO.N,/IO Banks/B.P1*
X198880000Y-70325000D03*
X203100000Y-69600000D03*
G04 #@! TO.N,/IO Banks/Bank B/V_{CLAMP}*
X222780000Y-69910000D03*
X205780000Y-69910000D03*
X226180000Y-69910000D03*
X219380000Y-69910000D03*
X209180000Y-69910000D03*
X215980000Y-69910000D03*
X202380000Y-69910000D03*
X212580000Y-69910000D03*
G04 #@! TO.N,/IO Banks/D.P6*
X192090000Y-70980000D03*
X183100000Y-69680000D03*
G04 #@! TO.N,/IO Banks/A.P0*
X197830000Y-111040000D03*
X228290000Y-108200000D03*
G04 #@! TO.N,/IO Banks/A.P3*
X198690000Y-109070000D03*
X218125000Y-108475000D03*
G04 #@! TO.N,/IO Banks/D.P5*
X179740000Y-69820000D03*
X193190000Y-70325000D03*
G04 #@! TO.N,FLASH_~{HOLD}*
X171400000Y-98900000D03*
X192600000Y-100250000D03*
G04 #@! TO.N,/IO Banks/A.P7*
X204500000Y-108400000D03*
X198700000Y-106490000D03*
G04 #@! TO.N,/IO Banks/A.P6*
X198000000Y-107125000D03*
X207975746Y-108375746D03*
G04 #@! TO.N,/IO Banks/A.P2*
X197920000Y-109730000D03*
X221550000Y-108550000D03*
G04 #@! TO.N,/IO Banks/C.P7*
X190240000Y-110150000D03*
X167530000Y-109100000D03*
G04 #@! TO.N,/IO Banks/C.P6*
X170975746Y-108375746D03*
X191380000Y-110180000D03*
G04 #@! TO.N,/Power/1V1OUT*
X230000000Y-95500000D03*
X227720000Y-98349998D03*
G04 #@! TO.N,/IO Banks/B.P7*
X223500000Y-69700000D03*
X198920000Y-66430000D03*
G04 #@! TO.N,/IO Banks/D.P7*
X186500000Y-69700000D03*
X193190000Y-71630000D03*
G04 #@! TO.N,/IO Banks/D.P4*
X176200000Y-69700000D03*
X192090000Y-69675000D03*
G04 #@! TO.N,/IO Banks/D.P2*
X192110000Y-68390000D03*
X169450000Y-69550000D03*
G04 #@! TO.N,/IO Banks/D.P1*
X166090000Y-69630000D03*
X193180000Y-67740000D03*
G04 #@! TO.N,/IO Banks/D.P0*
X162700000Y-69900000D03*
X192080000Y-67090000D03*
G04 #@! TO.N,/IO Banks/B.P6*
X220024254Y-69724254D03*
X197800000Y-67080000D03*
G04 #@! TO.N,/IO Banks/B.P4*
X197810000Y-68380000D03*
X213200000Y-69700000D03*
G04 #@! TO.N,/IO Banks/B.P2*
X206450000Y-69550000D03*
X197820000Y-69690000D03*
G04 #@! TO.N,/Power/1V8OUT*
X225770000Y-91877501D03*
X226180000Y-88710000D03*
G04 #@! TO.N,Net-(U33-Gate)*
X226800000Y-112690000D03*
X229035000Y-112150000D03*
G04 #@! TD*
G04 #@! TO.N,+3V3*
D20*
X194000000Y-64540000D02*
X194000000Y-72330000D01*
D21*
X225820000Y-82220000D02*
X225850000Y-82250000D01*
D20*
X198525000Y-86990000D02*
X198525000Y-85365000D01*
D22*
X234910000Y-95190000D02*
X234900000Y-95200000D01*
D23*
X162850000Y-97400000D02*
X163050000Y-97400000D01*
D21*
X225850000Y-84460000D02*
X224640000Y-85670000D01*
X194940000Y-90604500D02*
X194940000Y-89805000D01*
D24*
X199100000Y-114628751D02*
X200840000Y-112888751D01*
D25*
X163640000Y-83090000D02*
X163310000Y-83420000D01*
X164401960Y-97400000D02*
X165750000Y-96051960D01*
X164529460Y-83090000D02*
X163640000Y-83090000D01*
X165750000Y-96051960D02*
X165750000Y-92490000D01*
D20*
X198165000Y-79365000D02*
X198650000Y-78880000D01*
D21*
X195325500Y-90990000D02*
X194940000Y-90604500D01*
D24*
X199100000Y-114650000D02*
X199100000Y-114628751D01*
D20*
X198165000Y-85005000D02*
X198165000Y-79365000D01*
D22*
X234900000Y-105099999D02*
X234800000Y-105199999D01*
D24*
X200840000Y-106620000D02*
X199880000Y-105660000D01*
D21*
X194554500Y-90990000D02*
X194940000Y-90604500D01*
X224640000Y-85670000D02*
X224640000Y-86100000D01*
D20*
X198650000Y-78880000D02*
X198650000Y-78850000D01*
D21*
X194940000Y-89805000D02*
X194525000Y-89390000D01*
D25*
X165750000Y-92490000D02*
X165770000Y-92470000D01*
D24*
X200840000Y-112888751D02*
X200840000Y-106620000D01*
D21*
X194526000Y-90990000D02*
X194554500Y-90990000D01*
D25*
X165770000Y-84330540D02*
X164529460Y-83090000D01*
D23*
X162500000Y-97750000D02*
X162850000Y-97400000D01*
D22*
X234900000Y-95200000D02*
X234900000Y-105099999D01*
D25*
X163050000Y-97400000D02*
X164401960Y-97400000D01*
D21*
X225850000Y-82250000D02*
X225850000Y-84460000D01*
D20*
X198525000Y-85365000D02*
X198165000Y-85005000D01*
X194000000Y-72330000D02*
X194600000Y-72930000D01*
D21*
X225820000Y-81540000D02*
X225820000Y-82220000D01*
D25*
X165770000Y-92470000D02*
X165770000Y-84330540D01*
G04 #@! TO.N,/LED_CY*
D26*
X220495000Y-90505000D02*
X220495000Y-96546336D01*
X220700000Y-101080000D02*
X220690000Y-101090000D01*
X220794264Y-90205736D02*
X220495000Y-90505000D01*
X220700000Y-96751336D02*
X220700000Y-101080000D01*
X220795736Y-90205736D02*
X220794264Y-90205736D01*
X220495000Y-96546336D02*
X220700000Y-96751336D01*
G04 #@! TO.N,+5V*
D25*
X231800000Y-85800000D02*
X231800000Y-87912500D01*
X232200000Y-96450000D02*
X232200000Y-98060000D01*
X232200000Y-93800000D02*
X231840000Y-93440000D01*
X231010000Y-100490000D02*
X231025000Y-100505000D01*
X231010000Y-99250000D02*
X231010000Y-100490000D01*
X161880000Y-81108040D02*
X161880000Y-82028040D01*
X231430000Y-90950000D02*
X231140000Y-90120000D01*
X231840000Y-93440000D02*
X231840000Y-91728040D01*
X161071960Y-80300000D02*
X161880000Y-81108040D01*
X231800000Y-87912500D02*
X230475000Y-89237500D01*
X161200000Y-96056960D02*
X161200000Y-106320000D01*
X161215000Y-96041960D02*
X161200000Y-96056960D01*
X232200000Y-93800000D02*
X232200000Y-96450000D01*
X231840000Y-91728040D02*
X231430000Y-90950000D01*
X231025000Y-100505000D02*
X231010000Y-100520000D01*
X161880000Y-82028040D02*
X161215000Y-82693040D01*
X232200000Y-98060000D02*
X231010000Y-99250000D01*
X161200000Y-106320000D02*
X159570000Y-107950000D01*
X231140000Y-90120000D02*
X230475000Y-89237500D01*
X160900000Y-80300000D02*
X161071960Y-80300000D01*
X161215000Y-82693040D02*
X161215000Y-96041960D01*
G04 #@! TO.N,/PG_{VBUS}*
D26*
X229920000Y-83019999D02*
X229900000Y-82999999D01*
X230650000Y-109850000D02*
X229500000Y-109850000D01*
X229500000Y-109850000D02*
X228630000Y-108980000D01*
X228490000Y-89958664D02*
X228490000Y-88621336D01*
X228490000Y-88621336D02*
X229920000Y-87191336D01*
X228630000Y-108980000D02*
X228630000Y-90098664D01*
X229920000Y-87191336D02*
X229920000Y-83019999D01*
X228630000Y-90098664D02*
X228490000Y-89958664D01*
G04 #@! TO.N,/SCL*
X216300000Y-68000000D02*
X216325000Y-68025000D01*
X194200000Y-102218664D02*
X194200000Y-95465000D01*
X193745000Y-104717500D02*
X193745000Y-102673664D01*
X216490000Y-71041336D02*
X216490000Y-73658750D01*
X193170000Y-105292500D02*
X193745000Y-104717500D01*
X211715000Y-107263664D02*
X211510000Y-107058664D01*
X193170000Y-105850000D02*
X193170000Y-105292500D01*
X216248750Y-73900000D02*
X216248750Y-84098750D01*
X216325000Y-70876336D02*
X216490000Y-71041336D01*
X194200000Y-95465000D02*
X193725000Y-94990000D01*
X216325000Y-68025000D02*
X216325000Y-70876336D01*
X216248750Y-84098750D02*
X217550000Y-85400000D01*
X193745000Y-102673664D02*
X194200000Y-102218664D01*
X211015668Y-110384332D02*
X211715000Y-109685000D01*
X211510000Y-107058664D02*
X211510000Y-100810000D01*
X211715000Y-109685000D02*
X211715000Y-107263664D01*
X216490000Y-73658750D02*
X216248750Y-73900000D01*
X211510000Y-100810000D02*
X211500000Y-100800000D01*
G04 #@! TO.N,/~{ALERT}*
X174930000Y-109470000D02*
X174065000Y-108605000D01*
X212345000Y-109705000D02*
X211930000Y-110120000D01*
X211550000Y-92170000D02*
X211550000Y-92100000D01*
X174930000Y-109800000D02*
X174930000Y-109470000D01*
X174065000Y-108605000D02*
X174065000Y-102073836D01*
X211400000Y-92320000D02*
X211400000Y-93710000D01*
X175050000Y-101088836D02*
X175050000Y-94650000D01*
X211550000Y-92170000D02*
X211400000Y-92320000D01*
X211930000Y-110120000D02*
X211930000Y-110210000D01*
X212880000Y-95190000D02*
X212880000Y-95488664D01*
X212345000Y-101501164D02*
X212345000Y-109705000D01*
X210650000Y-70300000D02*
X211700000Y-69250000D01*
X212880000Y-95488664D02*
X212250000Y-96118664D01*
X212250000Y-101406164D02*
X212345000Y-101501164D01*
X174065000Y-102073836D02*
X175050000Y-101088836D01*
X210650000Y-91200000D02*
X210650000Y-70300000D01*
X211400000Y-93710000D02*
X212880000Y-95190000D01*
X212250000Y-96118664D02*
X212250000Y-101406164D01*
X211550000Y-92100000D02*
X210650000Y-91200000D01*
X175050000Y-94650000D02*
X175200000Y-94500000D01*
G04 #@! TO.N,/FPGA/SYNCBALL*
X193800000Y-92620000D02*
X192925000Y-93495000D01*
X194030000Y-89570000D02*
X193800000Y-89800000D01*
X193550000Y-87950000D02*
X194030000Y-88430000D01*
X193800000Y-89800000D02*
X193800000Y-92620000D01*
X193750000Y-82000000D02*
X193415000Y-82335000D01*
X193415000Y-85511336D02*
X193550000Y-85646336D01*
X192925000Y-93495000D02*
X192925000Y-94190000D01*
X194030000Y-88430000D02*
X194030000Y-89570000D01*
X193550000Y-85646336D02*
X193550000Y-87950000D01*
X193415000Y-82335000D02*
X193415000Y-85511336D01*
G04 #@! TO.N,/IO Banks/A.DIR2*
X204210000Y-95740000D02*
X204200000Y-95750000D01*
X204210000Y-94330000D02*
X204210000Y-95740000D01*
X204220000Y-94320000D02*
X204210000Y-94330000D01*
G04 #@! TO.N,/IO Banks/A.Q2*
X204525000Y-96256336D02*
X204525000Y-93855000D01*
X204910000Y-96641336D02*
X204525000Y-96256336D01*
X204910000Y-97160000D02*
X204910000Y-96641336D01*
X204525000Y-93855000D02*
X204260000Y-93590000D01*
X204260000Y-93590000D02*
X204230000Y-93590000D01*
G04 #@! TO.N,/INTB*
X200430000Y-96191200D02*
X200430000Y-93695000D01*
X200430000Y-93695000D02*
X200125000Y-93390000D01*
X200355200Y-96266000D02*
X200430000Y-96191200D01*
G04 #@! TO.N,/IO Banks/A.DIR4*
X205255000Y-93905000D02*
X205255000Y-94076336D01*
X205330000Y-96991336D02*
X205330000Y-98070000D01*
X204930000Y-93620000D02*
X204970000Y-93620000D01*
X205145000Y-96553664D02*
X205145000Y-96806336D01*
X205330000Y-96368664D02*
X205145000Y-96553664D01*
X205330000Y-98070000D02*
X204900000Y-98500000D01*
X205145000Y-96806336D02*
X205330000Y-96991336D01*
X204970000Y-93620000D02*
X205255000Y-93905000D01*
X205330000Y-94151336D02*
X205330000Y-96368664D01*
X205255000Y-94076336D02*
X205330000Y-94151336D01*
G04 #@! TO.N,/IO Banks/A.Q1*
X204890000Y-94440000D02*
X204890000Y-96190000D01*
G04 #@! TO.N,/WR*
X195020000Y-92895000D02*
X195325000Y-92590000D01*
X196000000Y-96060000D02*
X195580000Y-96060000D01*
X196550000Y-96450000D02*
X196390000Y-96450000D01*
X195580000Y-96060000D02*
X195020000Y-95500000D01*
X196390000Y-96450000D02*
X196000000Y-96060000D01*
X195020000Y-95500000D02*
X195020000Y-92895000D01*
G04 #@! TO.N,/SDA*
X216710000Y-73960000D02*
X216710000Y-74060000D01*
X194525000Y-92590000D02*
X194220000Y-92895000D01*
X194050000Y-102800000D02*
X194050000Y-104900000D01*
X194220000Y-95116336D02*
X194500000Y-95396336D01*
X194075000Y-102775000D02*
X194050000Y-102800000D01*
X194220000Y-92895000D02*
X194220000Y-95116336D01*
X194050000Y-104900000D02*
X193750000Y-105200000D01*
X216780000Y-73890000D02*
X216780000Y-71031336D01*
X216550000Y-83700000D02*
X217500000Y-84650000D01*
X217005000Y-67905000D02*
X216600000Y-67500000D01*
X217005000Y-70806336D02*
X217005000Y-67905000D01*
X216550000Y-74220000D02*
X216550000Y-83700000D01*
X210667600Y-110467600D02*
X210667600Y-101132400D01*
X194500000Y-102350000D02*
X194075000Y-102775000D01*
X194500000Y-95396336D02*
X194500000Y-102350000D01*
X211000000Y-110900000D02*
X211000000Y-110800000D01*
X216710000Y-74060000D02*
X216550000Y-74220000D01*
X210667600Y-101132400D02*
X211000000Y-100800000D01*
X216710000Y-73960000D02*
X216780000Y-73890000D01*
X211000000Y-110800000D02*
X210667600Y-110467600D01*
X216780000Y-71031336D02*
X217005000Y-70806336D01*
G04 #@! TO.N,/FPGA/U1*
X191756336Y-92590000D02*
X192925000Y-92590000D01*
X186070000Y-82090000D02*
X186300000Y-82320000D01*
X188365000Y-92895000D02*
X191451336Y-92895000D01*
X186300000Y-82320000D02*
X186300000Y-90830000D01*
X186300000Y-90830000D02*
X188365000Y-92895000D01*
X191451336Y-92895000D02*
X191756336Y-92590000D01*
G04 #@! TO.N,/IO Banks/A.Q7*
X202830000Y-95116336D02*
X202830000Y-92095000D01*
X203205000Y-96725000D02*
X202480000Y-96000000D01*
X202750000Y-100950000D02*
X203200000Y-100500000D01*
X203205000Y-99026336D02*
X203205000Y-96725000D01*
X203200000Y-99031336D02*
X203205000Y-99026336D01*
X203200000Y-100500000D02*
X203200000Y-99031336D01*
X202830000Y-92095000D02*
X202525000Y-91790000D01*
X202480000Y-96000000D02*
X202480000Y-95466336D01*
X202480000Y-95466336D02*
X202830000Y-95116336D01*
G04 #@! TO.N,/IO Banks/A.Q4*
X205790000Y-98060000D02*
X205790000Y-94390000D01*
X205900000Y-98750000D02*
X205900000Y-98170000D01*
X205900000Y-98170000D02*
X205790000Y-98060000D01*
G04 #@! TO.N,/IO Banks/A.DIR3*
X203530000Y-91600000D02*
X203530000Y-95620000D01*
G04 #@! TO.N,/FPGA/U2*
X190546336Y-91515000D02*
X190126336Y-91095000D01*
X190126336Y-91095000D02*
X187673664Y-91095000D01*
X192650000Y-91515000D02*
X190546336Y-91515000D01*
X192925000Y-91790000D02*
X192650000Y-91515000D01*
X187673664Y-91095000D02*
X186920000Y-90341336D01*
X186920000Y-82170000D02*
X186850000Y-82100000D01*
X186920000Y-90341336D02*
X186920000Y-82170000D01*
G04 #@! TO.N,/IO Banks/B.DIR0*
X202070000Y-90103664D02*
X202070000Y-90535000D01*
X201420000Y-89540000D02*
X201765000Y-89885000D01*
X201851336Y-89885000D02*
X202070000Y-90103664D01*
X201420000Y-77480000D02*
X201420000Y-89540000D01*
X201900000Y-77200000D02*
X201700000Y-77200000D01*
X202070000Y-90535000D02*
X202525000Y-90990000D01*
X201700000Y-77200000D02*
X201420000Y-77480000D01*
X201765000Y-89885000D02*
X201851336Y-89885000D01*
G04 #@! TO.N,/IO Banks/A.DIR7*
X201960000Y-90990000D02*
X201725000Y-90990000D01*
X202490000Y-96568700D02*
X202030000Y-96108700D01*
X202030000Y-91060000D02*
X201960000Y-90990000D01*
X202105000Y-98893664D02*
X202293664Y-98705000D01*
X202030000Y-96108700D02*
X202030000Y-91060000D01*
X202293664Y-98705000D02*
X202295000Y-98705000D01*
X202295000Y-98705000D02*
X202490000Y-98510000D01*
X202490000Y-98510000D02*
X202490000Y-96568700D01*
X202265000Y-100925000D02*
X202105000Y-100765000D01*
X202105000Y-100765000D02*
X202105000Y-98893664D01*
G04 #@! TO.N,/IO Banks/A.Q3*
X203670000Y-95911336D02*
X203670000Y-96840000D01*
X203835000Y-91795000D02*
X203835000Y-95746336D01*
X203835000Y-95746336D02*
X203670000Y-95911336D01*
X204010000Y-91620000D02*
X203835000Y-91795000D01*
X203670000Y-96840000D02*
X204095000Y-97265000D01*
G04 #@! TO.N,/IO Banks/D.Q0*
X188030000Y-90500000D02*
X187770000Y-90760000D01*
X187250000Y-81480000D02*
X188030000Y-82260000D01*
X188030000Y-82260000D02*
X188030000Y-90500000D01*
G04 #@! TO.N,/IO Banks/B.DIR4*
X214230000Y-88800000D02*
X214870000Y-89440000D01*
X215090000Y-79370000D02*
X215090000Y-79690000D01*
X215090000Y-79690000D02*
X214230000Y-80550000D01*
X214230000Y-80550000D02*
X214230000Y-88800000D01*
G04 #@! TO.N,/IO Banks/B.Q0*
X201230000Y-89695000D02*
X201725000Y-90190000D01*
X201230000Y-77430000D02*
X201230000Y-89695000D01*
X201000000Y-77200000D02*
X201230000Y-77430000D01*
G04 #@! TO.N,/IO Banks/B.DIR1*
X204960000Y-89840000D02*
X204960000Y-77540000D01*
X204300000Y-90500000D02*
X204960000Y-89840000D01*
X204960000Y-77540000D02*
X205300000Y-77200000D01*
G04 #@! TO.N,/IO Banks/A.Q6*
X206690000Y-93110000D02*
X206680000Y-93100000D01*
X206690000Y-100910000D02*
X206690000Y-93110000D01*
G04 #@! TO.N,+1V1*
D21*
X196525000Y-89790000D02*
X196525000Y-86990000D01*
X196540000Y-91919473D02*
X196540000Y-90605000D01*
X196125000Y-90190000D02*
X196525000Y-89790000D01*
X197920000Y-100030000D02*
X196820000Y-98930000D01*
X196125000Y-90190000D02*
X196540000Y-90605000D01*
X196935000Y-96609473D02*
X196935000Y-95544473D01*
X196935000Y-95544473D02*
X196540000Y-95149473D01*
X196540000Y-95149473D02*
X196540000Y-91919473D01*
X196820000Y-96724473D02*
X196935000Y-96609473D01*
X197920000Y-100540000D02*
X197920000Y-100030000D01*
X196820000Y-98930000D02*
X196820000Y-96724473D01*
G04 #@! TO.N,+2V5*
D20*
X233259117Y-100630000D02*
X233708216Y-100180901D01*
X234540000Y-88910000D02*
X235450000Y-88000000D01*
X233708216Y-99919099D02*
X234540000Y-99087315D01*
X233708216Y-100180901D02*
X233708216Y-99919099D01*
X234540000Y-99087315D02*
X234540000Y-88910000D01*
X231930000Y-100630000D02*
X233259117Y-100630000D01*
G04 #@! TO.N,/IO Banks/D.Q1*
D26*
X188690000Y-81480000D02*
X188920000Y-81710000D01*
X188920000Y-86185036D02*
X188920000Y-82210000D01*
X188920000Y-81710000D02*
X188920000Y-82210000D01*
X189351336Y-89451336D02*
X189351336Y-86616372D01*
X189890000Y-89990000D02*
X189351336Y-89451336D01*
X189351336Y-86616372D02*
X188920000Y-86185036D01*
G04 #@! TO.N,/IO Banks/D.DIR0*
X188275000Y-88955000D02*
X189815000Y-90495000D01*
X191020000Y-90495000D02*
X191325000Y-90190000D01*
X187710000Y-81530000D02*
X188730000Y-82550000D01*
X189815000Y-90495000D02*
X191020000Y-90495000D01*
X187710000Y-81480000D02*
X187710000Y-81530000D01*
X188730000Y-87278664D02*
X188275000Y-87733664D01*
X188275000Y-87733664D02*
X188275000Y-88955000D01*
X188730000Y-82550000D02*
X188730000Y-87278664D01*
G04 #@! TO.N,/IO Banks/D.Q4*
X189541336Y-86537672D02*
X189541336Y-89206336D01*
X189110000Y-79570000D02*
X189110000Y-86106336D01*
X189541336Y-89206336D02*
X190525000Y-90190000D01*
X189060000Y-79520000D02*
X189110000Y-79570000D01*
X189110000Y-86106336D02*
X189541336Y-86537672D01*
G04 #@! TO.N,/IO Banks/B.Q4*
X213680000Y-81161336D02*
X213680000Y-80110000D01*
X211441984Y-89890000D02*
X211961336Y-89890000D01*
X213476336Y-81365000D02*
X213680000Y-81161336D01*
X213680000Y-80110000D02*
X213895000Y-79895000D01*
X211961336Y-89890000D02*
X213476336Y-88375000D01*
X211308408Y-90023576D02*
X211441984Y-89890000D01*
X213476336Y-88375000D02*
X213476336Y-81365000D01*
X211260000Y-90023576D02*
X211308408Y-90023576D01*
G04 #@! TO.N,/IO Banks/B.Q1*
X204500000Y-77400000D02*
X204300000Y-77200000D01*
X204500000Y-89050000D02*
X204500000Y-77400000D01*
X204320000Y-89230000D02*
X204500000Y-89050000D01*
G04 #@! TO.N,/IO Banks/B.Q2*
X207700000Y-87980000D02*
X207700000Y-77200000D01*
X206490000Y-89190000D02*
X207700000Y-87980000D01*
G04 #@! TO.N,/IO Banks/B.DIR2*
X208245000Y-86026336D02*
X208245000Y-85773664D01*
X208300000Y-88390000D02*
X208300000Y-86081336D01*
X208300000Y-85718664D02*
X208300000Y-77610000D01*
X208245000Y-85773664D02*
X208300000Y-85718664D01*
X208300000Y-77610000D02*
X208710000Y-77200000D01*
X208300000Y-86081336D02*
X208245000Y-86026336D01*
X207490000Y-89200000D02*
X208300000Y-88390000D01*
G04 #@! TO.N,/IO Banks/D.Q2*
X193460000Y-89680000D02*
X193230000Y-89450000D01*
X193230000Y-89450000D02*
X193230000Y-88463664D01*
X193035000Y-85668738D02*
X193035000Y-82177600D01*
X193230000Y-88463664D02*
X193170000Y-88403663D01*
X193170000Y-88403663D02*
X193170000Y-85803737D01*
X193170000Y-85803737D02*
X193035000Y-85668738D01*
X193230000Y-81982600D02*
X193230000Y-80930000D01*
X193035000Y-82177600D02*
X193230000Y-81982600D01*
G04 #@! TO.N,/IO Banks/D.DIR2*
X192620000Y-89085000D02*
X192925000Y-89390000D01*
X192010000Y-80350000D02*
X192285000Y-80625000D01*
X192285000Y-80625000D02*
X192285000Y-81722799D01*
X192790000Y-88293664D02*
X192620000Y-88463664D01*
X192790000Y-85961139D02*
X192790000Y-88293664D01*
X192285000Y-81722799D02*
X192655000Y-82092799D01*
X192000000Y-80350000D02*
X192010000Y-80350000D01*
X192655000Y-82092799D02*
X192655000Y-85826140D01*
X192655000Y-85826140D02*
X192790000Y-85961139D01*
X192620000Y-88463664D02*
X192620000Y-89085000D01*
G04 #@! TO.N,/IO Banks/D.DIR1*
X192600000Y-88214964D02*
X192430000Y-88384964D01*
X192600000Y-86039840D02*
X192600000Y-88214964D01*
X191980000Y-81686499D02*
X192465000Y-82171499D01*
X192430000Y-89085000D02*
X192125000Y-89390000D01*
X192465000Y-85904841D02*
X192600000Y-86039840D01*
X192430000Y-88384964D02*
X192430000Y-89085000D01*
X192465000Y-82171499D02*
X192465000Y-85904841D01*
X191980000Y-81450000D02*
X191980000Y-81686499D01*
G04 #@! TO.N,/IO Banks/D.DIR4*
X191210000Y-79720000D02*
X191210000Y-82250399D01*
X191210000Y-82250399D02*
X191279998Y-82320397D01*
X191090000Y-79520000D02*
X191090000Y-79600000D01*
X191279998Y-82320397D02*
X191280000Y-84429605D01*
X191280000Y-84429605D02*
X191630000Y-84779605D01*
X191630000Y-87663664D02*
X191630000Y-89085000D01*
X191090000Y-79600000D02*
X191210000Y-79720000D01*
X191360000Y-85786336D02*
X191360000Y-87393664D01*
X191630000Y-89085000D02*
X191325000Y-89390000D01*
X191630000Y-85516336D02*
X191360000Y-85786336D01*
X191630000Y-84779605D02*
X191630000Y-85516336D01*
X191360000Y-87393664D02*
X191630000Y-87663664D01*
G04 #@! TO.N,/IO Banks/B.DIR5*
X212830000Y-81060000D02*
X213350000Y-81060000D01*
X212360000Y-87520000D02*
X212360000Y-81530000D01*
X212740000Y-87900000D02*
X212360000Y-87520000D01*
X212360000Y-81530000D02*
X212830000Y-81060000D01*
G04 #@! TO.N,/IO Banks/B.DIR3*
X211290000Y-88960000D02*
X211290000Y-89160000D01*
X211030000Y-88700000D02*
X211030000Y-78270000D01*
X211290000Y-89160000D02*
X211420000Y-89290000D01*
X211030000Y-78270000D02*
X212100000Y-77200000D01*
X211290000Y-88960000D02*
X211030000Y-88700000D01*
G04 #@! TO.N,/IO Banks/B.Q3*
X211270000Y-90500000D02*
X211110000Y-90340000D01*
X210840000Y-90085000D02*
X210840000Y-77460000D01*
X210840000Y-77460000D02*
X211100000Y-77200000D01*
X211095000Y-90340000D02*
X210840000Y-90085000D01*
X211110000Y-90340000D02*
X211095000Y-90340000D01*
G04 #@! TO.N,/IO Banks/D.DIR3*
X193225000Y-85590037D02*
X193360000Y-85725036D01*
X193360000Y-85725036D02*
X193360000Y-88324963D01*
X193420000Y-88490000D02*
X193520000Y-88590000D01*
X193360000Y-88324963D02*
X193420000Y-88384963D01*
X193225000Y-82256300D02*
X193225000Y-85590037D01*
X193420000Y-88384963D02*
X193420000Y-88490000D01*
X193535000Y-81325000D02*
X193420000Y-81440000D01*
X193410000Y-80080000D02*
X193410000Y-80150000D01*
X193535000Y-80275000D02*
X193535000Y-81325000D01*
X193520000Y-88590000D02*
X193725000Y-88590000D01*
X193410000Y-80150000D02*
X193535000Y-80275000D01*
X193420000Y-82061300D02*
X193225000Y-82256300D01*
X193420000Y-81440000D02*
X193420000Y-82061300D01*
G04 #@! TO.N,/IO Banks/D.Q3*
X192521336Y-80400000D02*
X192925000Y-80803664D01*
X192845000Y-85747439D02*
X192980000Y-85882439D01*
X192925000Y-80803664D02*
X192925000Y-82018900D01*
X192925000Y-82018900D02*
X192845000Y-82098900D01*
X192500000Y-80400000D02*
X192521336Y-80400000D01*
X192980000Y-85882439D02*
X192980000Y-88535000D01*
X192980000Y-88535000D02*
X192925000Y-88590000D01*
X192845000Y-82098900D02*
X192845000Y-85747439D01*
G04 #@! TO.N,/IO Banks/D.Q5*
X191400000Y-82171698D02*
X191469998Y-82241697D01*
X191400000Y-80060000D02*
X191400000Y-82171698D01*
X191470000Y-84350904D02*
X191820000Y-84700905D01*
X191820000Y-87584964D02*
X191820000Y-88285000D01*
X191940000Y-79520000D02*
X191400000Y-80060000D01*
X191820000Y-85595036D02*
X191590000Y-85825036D01*
X191820000Y-84700905D02*
X191820000Y-85595036D01*
X191590000Y-87354964D02*
X191820000Y-87584964D01*
X191469998Y-82241697D02*
X191470000Y-84350904D01*
X191820000Y-88285000D02*
X192125000Y-88590000D01*
X191590000Y-85825036D02*
X191590000Y-87354964D01*
G04 #@! TO.N,/IO Banks/D.DIR6*
X190180000Y-87876336D02*
X190398664Y-88095000D01*
X190220000Y-85634964D02*
X190360000Y-85774963D01*
X190180000Y-86365036D02*
X190180000Y-87876336D01*
X190398664Y-88095000D02*
X190830000Y-88095000D01*
X190830000Y-88095000D02*
X191325000Y-88590000D01*
X190360000Y-85774963D02*
X190360000Y-86185037D01*
X190190000Y-78710000D02*
X190220000Y-78740000D01*
X190360000Y-86185037D02*
X190180000Y-86365036D01*
X190220000Y-78740000D02*
X190220000Y-85634964D01*
G04 #@! TO.N,/IO Banks/D.Q6*
X189990000Y-88055000D02*
X190525000Y-88590000D01*
X188990000Y-78550000D02*
X190030000Y-79590000D01*
X189990000Y-86286336D02*
X189990000Y-88055000D01*
X188990000Y-78480000D02*
X188990000Y-78550000D01*
X190030000Y-79590000D02*
X190030000Y-85713664D01*
X190170000Y-86106336D02*
X189990000Y-86286336D01*
X190170000Y-85853664D02*
X190170000Y-86106336D01*
X190030000Y-85713664D02*
X190170000Y-85853664D01*
G04 #@! TO.N,/IO Banks/B.Q5*
X212170000Y-81051400D02*
X212170000Y-88020000D01*
X212170000Y-88020000D02*
X211540000Y-88650000D01*
X211540000Y-88650000D02*
X211480000Y-88650000D01*
G04 #@! TO.N,+1V8*
D23*
X184525000Y-86990000D02*
X185525000Y-85990000D01*
D21*
X209700000Y-92450000D02*
X209700000Y-80200000D01*
D23*
X184525000Y-86990000D02*
X184525000Y-91990000D01*
X184525000Y-91990000D02*
X184525000Y-94990000D01*
X185525000Y-85990000D02*
X185525000Y-83990000D01*
D21*
X212500000Y-95250000D02*
X209700000Y-92450000D01*
D23*
X185525000Y-91990000D02*
X184525000Y-91990000D01*
G04 #@! TO.N,/IO Banks/D.DIR5*
D26*
X192245000Y-79646336D02*
X191659997Y-80231339D01*
X192010000Y-85673736D02*
X191780000Y-85903736D01*
X192010000Y-87506264D02*
X192010000Y-87675000D01*
X191780000Y-87276264D02*
X192010000Y-87506264D01*
X191660000Y-84272203D02*
X192010000Y-84622205D01*
X192010000Y-87675000D02*
X192125000Y-87790000D01*
X192440000Y-79100000D02*
X192440000Y-79250000D01*
X192010000Y-84622205D02*
X192010000Y-85673736D01*
X192440000Y-79250000D02*
X192245000Y-79445000D01*
X192245000Y-79445000D02*
X192245000Y-79646336D01*
X191659997Y-80231339D02*
X191660000Y-84272203D01*
X191780000Y-85903736D02*
X191780000Y-87276264D01*
G04 #@! TO.N,/IO Banks/D.DIR7*
X191020000Y-80301300D02*
X191020000Y-87485000D01*
X190690000Y-79971300D02*
X191020000Y-80301300D01*
X191370000Y-78660000D02*
X190690000Y-79340000D01*
X191020000Y-87485000D02*
X191325000Y-87790000D01*
X190690000Y-79340000D02*
X190690000Y-79971300D01*
X191520000Y-78660000D02*
X191370000Y-78660000D01*
G04 #@! TO.N,/IO Banks/D.Q7*
X190500000Y-80050000D02*
X190830000Y-80380000D01*
X190830000Y-80380000D02*
X190830000Y-87485000D01*
X190500000Y-78350000D02*
X190500000Y-80050000D01*
X190830000Y-87485000D02*
X190525000Y-87790000D01*
X190720000Y-78130000D02*
X190500000Y-78350000D01*
G04 #@! TO.N,/D2*
X198270000Y-97710000D02*
X198270000Y-99499600D01*
X198560000Y-97420000D02*
X198270000Y-97710000D01*
X198270000Y-99499600D02*
X198440000Y-99669600D01*
G04 #@! TO.N,/FPGA/SYNSYN*
X197230000Y-85880000D02*
X196920000Y-86190000D01*
X197330000Y-76910000D02*
X197330000Y-83820000D01*
X197230000Y-84411336D02*
X197230000Y-85880000D01*
X197145000Y-84005000D02*
X197145000Y-84326336D01*
X197330000Y-83820000D02*
X197145000Y-84005000D01*
X197145000Y-84326336D02*
X197230000Y-84411336D01*
G04 #@! TO.N,/FPGA/TDO*
X158555000Y-86455037D02*
X158700000Y-86600037D01*
X156550000Y-92950000D02*
X156550000Y-99800000D01*
X158700000Y-86600037D02*
X158700000Y-90800000D01*
X158555000Y-85776300D02*
X158555000Y-86455037D01*
X161250000Y-81270000D02*
X158700000Y-83820000D01*
X156550000Y-99800000D02*
X155100000Y-101250000D01*
X158700000Y-83820000D02*
X158700000Y-85631300D01*
X158700000Y-85631300D02*
X158555000Y-85776300D01*
X158700000Y-90800000D02*
X156550000Y-92950000D01*
G04 #@! TO.N,/D3*
X198030000Y-85695000D02*
X197725000Y-85390000D01*
X198030000Y-95568700D02*
X198030000Y-85695000D01*
X199990000Y-97528700D02*
X198030000Y-95568700D01*
X199990000Y-99360000D02*
X199990000Y-97528700D01*
G04 #@! TO.N,/FPGA/CSSPIN*
X196210000Y-86540000D02*
X196460000Y-86290000D01*
X195020000Y-86900000D02*
X195380000Y-86540000D01*
X195750000Y-91733664D02*
X195750000Y-88583664D01*
X195020000Y-88090000D02*
X195020000Y-86900000D01*
X195380000Y-86540000D02*
X196210000Y-86540000D01*
X195750000Y-88583664D02*
X195306336Y-88140000D01*
X195020000Y-92626300D02*
X195020000Y-92463664D01*
X196460000Y-85830000D02*
X196900000Y-85390000D01*
X195020000Y-92463664D02*
X195750000Y-91733664D01*
X196900000Y-85390000D02*
X196925000Y-85390000D01*
X196460000Y-86290000D02*
X196460000Y-85830000D01*
X195070000Y-88140000D02*
X195020000Y-88090000D01*
X194920000Y-98560000D02*
X194830000Y-98470000D01*
X195306336Y-88140000D02*
X195070000Y-88140000D01*
X194830000Y-92816300D02*
X195020000Y-92626300D01*
X194830000Y-98470000D02*
X194830000Y-92816300D01*
G04 #@! TO.N,/D4*
X198220000Y-95490000D02*
X198220000Y-85440000D01*
X200640000Y-97910000D02*
X198220000Y-95490000D01*
X200640000Y-99320000D02*
X200640000Y-97910000D01*
X197725000Y-84945000D02*
X197725000Y-84590000D01*
X198220000Y-85440000D02*
X197725000Y-84945000D01*
G04 #@! TO.N,/D6*
X199030000Y-97610000D02*
X199030000Y-98850000D01*
X199030000Y-98850000D02*
X199050000Y-98870000D01*
X199280000Y-97360000D02*
X199030000Y-97610000D01*
G04 #@! TO.N,/D5*
X202400000Y-89830000D02*
X202120000Y-89550000D01*
X202830000Y-91116336D02*
X202830000Y-90020000D01*
X202830000Y-90020000D02*
X202640000Y-89830000D01*
X202586336Y-91360000D02*
X202830000Y-91116336D01*
X202220000Y-91663664D02*
X202523664Y-91360000D01*
X202640000Y-89830000D02*
X202400000Y-89830000D01*
X202420000Y-98948664D02*
X202790000Y-98578664D01*
X202790000Y-96600000D02*
X202220000Y-96030000D01*
X202420000Y-99010000D02*
X202420000Y-98948664D01*
X202523664Y-91360000D02*
X202586336Y-91360000D01*
X202790000Y-98578664D02*
X202790000Y-96600000D01*
X202120000Y-89550000D02*
X202120000Y-81210000D01*
X202220000Y-96030000D02*
X202220000Y-91663664D01*
G04 #@! TO.N,/FPGA/TDI*
X159000000Y-91000000D02*
X156750000Y-93250000D01*
X158745000Y-86376336D02*
X159000000Y-86631335D01*
X160890000Y-82110000D02*
X159765000Y-83235000D01*
X159000000Y-86631335D02*
X159000000Y-91000000D01*
X159150000Y-85450000D02*
X158745000Y-85855000D01*
X159150000Y-84100000D02*
X159150000Y-85450000D01*
X159765000Y-83485000D02*
X159150000Y-84100000D01*
X158578665Y-106270000D02*
X159080000Y-106270000D01*
X156750000Y-93250000D02*
X156750000Y-104441335D01*
X159765000Y-83235000D02*
X159765000Y-83485000D01*
X158745000Y-85855000D02*
X158745000Y-86376336D01*
X156750000Y-104441335D02*
X158578665Y-106270000D01*
G04 #@! TO.N,/D7*
X208910000Y-81740000D02*
X209230000Y-82060000D01*
X209230000Y-82060000D02*
X209230000Y-98200000D01*
G04 #@! TO.N,/D1*
X206450000Y-93301336D02*
X206450000Y-99080000D01*
X206185000Y-82655000D02*
X206185000Y-93036336D01*
X205330000Y-81800000D02*
X206185000Y-82655000D01*
X206450000Y-99080000D02*
X205230000Y-100300000D01*
X206185000Y-93036336D02*
X206450000Y-93301336D01*
G04 #@! TO.N,/D0*
X209010000Y-93990000D02*
X208910000Y-94090000D01*
X209010000Y-97930000D02*
X208490000Y-98450000D01*
X209010000Y-94340000D02*
X209010000Y-97930000D01*
X208740000Y-80950000D02*
X208510000Y-81180000D01*
X209010000Y-94190000D02*
X208910000Y-94090000D01*
X208510000Y-84960000D02*
X209010000Y-85460000D01*
X209010000Y-85460000D02*
X209010000Y-93990000D01*
X208490000Y-98450000D02*
X208490000Y-100910000D01*
X209010000Y-94340000D02*
X209010000Y-94190000D01*
X208510000Y-81180000D02*
X208510000Y-84960000D01*
G04 #@! TO.N,/FPGA/TCK*
X158320000Y-87711336D02*
X157950000Y-88081336D01*
X159665000Y-82215000D02*
X158985000Y-82215000D01*
X156250000Y-97750000D02*
X155350000Y-98650000D01*
X158350000Y-86612598D02*
X158320000Y-86642599D01*
X158350000Y-84871336D02*
X158350000Y-86612598D01*
X157950000Y-84471336D02*
X158350000Y-84871336D01*
X158320000Y-86642599D02*
X158320000Y-87711336D01*
X158985000Y-82215000D02*
X157950000Y-83250000D01*
X160920000Y-80960000D02*
X159665000Y-82215000D01*
X157950000Y-83250000D02*
X157950000Y-84471336D01*
X157950000Y-91281300D02*
X156250000Y-92981300D01*
X156250000Y-92981300D02*
X156250000Y-97750000D01*
X155350000Y-98650000D02*
X155350000Y-100450000D01*
X157950000Y-88081336D02*
X157950000Y-91281300D01*
G04 #@! TO.N,/FPGA/TMS*
X157820000Y-79810000D02*
X157620000Y-80010000D01*
X156005000Y-92846336D02*
X156005000Y-97683874D01*
X158000000Y-86550000D02*
X157395000Y-87155000D01*
X157395000Y-91456336D02*
X156005000Y-92846336D01*
X158000000Y-82931300D02*
X157760000Y-83171300D01*
X158000000Y-85118700D02*
X158000000Y-86550000D01*
X157620000Y-80010000D02*
X157620000Y-80250000D01*
X155000000Y-98688874D02*
X155000000Y-99950000D01*
X157395000Y-87155000D02*
X157395000Y-91456336D01*
X156005000Y-97683874D02*
X155000000Y-98688874D01*
X158000000Y-80630000D02*
X158000000Y-82931300D01*
X157760000Y-83171300D02*
X157760000Y-84878700D01*
X157620000Y-80250000D02*
X158000000Y-80630000D01*
X157760000Y-84878700D02*
X158000000Y-85118700D01*
G04 #@! TO.N,Net-(Q1-G)*
X157630000Y-83032599D02*
X157630000Y-81380000D01*
X157420000Y-85007400D02*
X157420000Y-83242599D01*
X156505000Y-92077636D02*
X156505000Y-89385000D01*
X157205000Y-88685000D02*
X157205000Y-86845000D01*
X155815000Y-93875000D02*
X155815000Y-92767636D01*
X157630000Y-81380000D02*
X155175000Y-78925000D01*
X155815000Y-92767636D02*
X156505000Y-92077636D01*
X156505000Y-89385000D02*
X157205000Y-88685000D01*
X153547500Y-96142500D02*
X155815000Y-93875000D01*
X153547500Y-96850000D02*
X153547500Y-96142500D01*
X157630000Y-85217400D02*
X157420000Y-85007400D01*
X155175000Y-78925000D02*
X155175000Y-75985358D01*
X157420000Y-83242599D02*
X157630000Y-83032599D01*
X157205000Y-86845000D02*
X157630000Y-86420000D01*
X157630000Y-86420000D02*
X157630000Y-85217400D01*
G04 #@! TO.N,/ADC/MCU_LED*
X161950000Y-77890000D02*
X161620000Y-77890000D01*
X167740000Y-83680000D02*
X161950000Y-77890000D01*
G04 #@! TO.N,/ADC/A1_P*
X159400000Y-85750000D02*
X159400000Y-86800000D01*
X159400000Y-86800000D02*
X160020000Y-87420000D01*
X160020000Y-87420000D02*
X160020000Y-101520000D01*
X160020000Y-101520000D02*
X160300000Y-101800000D01*
G04 #@! TO.N,/ADC/A1_N*
X159200000Y-86400000D02*
X159200000Y-86868700D01*
X159200000Y-86868700D02*
X159830000Y-87498700D01*
X159050000Y-86250000D02*
X159200000Y-86400000D01*
X159830000Y-87498700D02*
X159830000Y-101930000D01*
X159830000Y-101930000D02*
X160300000Y-102400000D01*
G04 #@! TO.N,/ADC/A2_P*
X154990000Y-71710000D02*
X155200000Y-71500000D01*
X155034350Y-86244350D02*
X154790000Y-86000000D01*
X155368700Y-87100000D02*
X155034350Y-86765650D01*
X155200000Y-71200000D02*
X155400000Y-71000000D01*
X156800000Y-86800000D02*
X156500000Y-87100000D01*
X156500000Y-87100000D02*
X155368700Y-87100000D01*
X154990000Y-72237401D02*
X154990000Y-71710000D01*
X154790000Y-86000000D02*
X154790000Y-72437401D01*
X155034350Y-86765650D02*
X155034350Y-86244350D01*
X154790000Y-72437401D02*
X154990000Y-72237401D01*
X155200000Y-71500000D02*
X155200000Y-71200000D01*
G04 #@! TO.N,/ADC/A2_N*
X154800000Y-72158701D02*
X154490000Y-72468701D01*
X154780000Y-86442599D02*
X154780000Y-86780000D01*
X154490000Y-72468701D02*
X154600000Y-72578701D01*
X154600000Y-72578701D02*
X154600000Y-86262599D01*
X154780000Y-86780000D02*
X155300000Y-87300000D01*
X154600000Y-86262599D02*
X154780000Y-86442599D01*
X154800000Y-71400000D02*
X154800000Y-72158701D01*
X155300000Y-87300000D02*
X156800000Y-87300000D01*
G04 #@! TO.N,/ADC/A4_P*
X155768700Y-89500000D02*
X154590000Y-88321300D01*
X153890000Y-83325036D02*
X154020000Y-83195037D01*
X153890000Y-85821300D02*
X153890000Y-83325036D01*
X154300000Y-72390000D02*
X154300000Y-71900000D01*
X154020000Y-81200000D02*
X153790000Y-80970000D01*
X156200000Y-89500000D02*
X155768700Y-89500000D01*
X153790000Y-80970000D02*
X153790000Y-72900000D01*
X154590000Y-88321300D02*
X154590000Y-86521299D01*
X154590000Y-86521299D02*
X153890000Y-85821300D01*
X153790000Y-72900000D02*
X154300000Y-72390000D01*
X154020000Y-83195037D02*
X154020000Y-81200000D01*
G04 #@! TO.N,/ADC/A4_N*
X158090000Y-70500000D02*
X154700000Y-70500000D01*
X153600000Y-71600000D02*
X153600000Y-82633664D01*
X153700000Y-83246335D02*
X153700000Y-85900000D01*
X159400000Y-64390000D02*
X159400000Y-69190000D01*
X159400000Y-69190000D02*
X158090000Y-70500000D01*
X155830000Y-89830000D02*
X155830000Y-90080000D01*
X154700000Y-70500000D02*
X153600000Y-71600000D01*
X154400000Y-86600000D02*
X154400000Y-88400000D01*
X153600000Y-82633664D02*
X153830000Y-82863664D01*
X153830000Y-82863664D02*
X153830000Y-83116336D01*
X154400000Y-88400000D02*
X155830000Y-89830000D01*
X153830000Y-83116336D02*
X153700000Y-83246335D01*
X155830000Y-90080000D02*
X156170000Y-90420000D01*
X153700000Y-85900000D02*
X154400000Y-86600000D01*
G04 #@! TO.N,/ENVC*
D27*
X219930000Y-90416325D02*
X220250000Y-90736325D01*
X219400000Y-109600000D02*
X219400000Y-110200000D01*
X220250000Y-96457451D02*
X219810000Y-96897451D01*
X219810000Y-96897451D02*
X219810000Y-109190000D01*
X220250000Y-90736325D02*
X220250000Y-96457451D01*
X219930000Y-89740000D02*
X219930000Y-90416325D01*
X219810000Y-109190000D02*
X219400000Y-109600000D01*
G04 #@! TO.N,/ADC/SWDIO*
D26*
X162890000Y-94720000D02*
X162890000Y-94580000D01*
X163580000Y-84150000D02*
X164080000Y-83650000D01*
X162890000Y-94580000D02*
X163580000Y-93890000D01*
X163580000Y-93890000D02*
X163580000Y-84150000D01*
G04 #@! TO.N,/ENVB*
X224110000Y-67270000D02*
X224200000Y-67360000D01*
X224200000Y-67360000D02*
X224200000Y-82308040D01*
X223310000Y-88390000D02*
X222300000Y-89400000D01*
X224200000Y-82308040D02*
X223310000Y-83198040D01*
X223310000Y-83198040D02*
X223310000Y-88390000D01*
G04 #@! TO.N,/ENVA*
D27*
X219585000Y-96811325D02*
X219585000Y-108415000D01*
X219585000Y-108415000D02*
X218900000Y-109100000D01*
X220000000Y-96396325D02*
X219585000Y-96811325D01*
X219300000Y-89780000D02*
X219300000Y-90097451D01*
X220000000Y-90797451D02*
X220000000Y-96396325D01*
X219300000Y-90097451D02*
X220000000Y-90797451D01*
G04 #@! TO.N,LS_3V3*
D21*
X226460000Y-100310000D02*
X227140000Y-99500000D01*
X227150000Y-98155527D02*
X227150000Y-75880000D01*
X225692500Y-100615000D02*
X226460000Y-100310000D01*
X224536000Y-101771500D02*
X225692500Y-100615000D01*
X227190000Y-98910000D02*
X227150000Y-98155527D01*
X224536000Y-102209600D02*
X224536000Y-101771500D01*
X227140000Y-99500000D02*
X227190000Y-98910000D01*
G04 #@! TO.N,/USB_P*
D26*
X234085000Y-98580649D02*
X234085000Y-89500000D01*
X233424748Y-99240901D02*
X234085000Y-98580649D01*
X233240901Y-99240901D02*
X233424748Y-99240901D01*
G04 #@! TO.N,/ENVD*
X223500000Y-88700000D02*
X222800000Y-89400000D01*
X224420000Y-70718664D02*
X224405000Y-70733664D01*
X224420000Y-66620000D02*
X224420000Y-70718664D01*
X223500000Y-83276740D02*
X223500000Y-88700000D01*
X224100000Y-66300000D02*
X224420000Y-66620000D01*
X224405000Y-70733664D02*
X224405000Y-82371740D01*
X224405000Y-82371740D02*
X223500000Y-83276740D01*
G04 #@! TO.N,/Power/EN*
X158545000Y-105570000D02*
X158540001Y-105574999D01*
X158545000Y-96485000D02*
X158545000Y-105570000D01*
X157960000Y-95900000D02*
X158545000Y-96485000D01*
X158540001Y-105574999D02*
X158540001Y-105800000D01*
G04 #@! TO.N,/USB_N*
X233895000Y-98426336D02*
X233895000Y-89741336D01*
X233780000Y-89626336D02*
X233780000Y-89373664D01*
X233895000Y-89741336D02*
X233780000Y-89626336D01*
X234275000Y-88878664D02*
X234275000Y-88690000D01*
X234275000Y-88690000D02*
X234085000Y-88500000D01*
X233114565Y-98935901D02*
X233384098Y-98935901D01*
X232935901Y-99114565D02*
X233114565Y-98935901D01*
X233114565Y-99545901D02*
X232935901Y-99367237D01*
X232935901Y-99367237D02*
X232935901Y-99114565D01*
X233559099Y-99559099D02*
X233545901Y-99545901D01*
X233384098Y-98935901D02*
X233594999Y-98725000D01*
X233780000Y-89373664D02*
X234275000Y-88878664D01*
X233594999Y-98725000D02*
X233596336Y-98725000D01*
X233596336Y-98725000D02*
X233895000Y-98426336D01*
X233545901Y-99545901D02*
X233114565Y-99545901D01*
G04 #@! TO.N,/ADC/SWCLK*
X162310000Y-83410000D02*
X162300000Y-83400000D01*
X162310000Y-93810000D02*
X162310000Y-83410000D01*
X162570000Y-94070000D02*
X162310000Y-93810000D01*
G04 #@! TO.N,/IO Banks/Bank A/V_{IO_OUT}*
D22*
X225890000Y-113110000D02*
X225400000Y-113600000D01*
X227300001Y-113110000D02*
X225890000Y-113110000D01*
G04 #@! TO.N,/IO Banks/V_{SET_D}*
D27*
X176820000Y-67820000D02*
X176800000Y-67800000D01*
X176820000Y-73940000D02*
X176820000Y-67820000D01*
G04 #@! TO.N,/IO Banks/V_{SET_C}*
X171730000Y-97112550D02*
X171920000Y-96922550D01*
X171730000Y-93187450D02*
X171730000Y-82150000D01*
X171959999Y-107979999D02*
X171959999Y-101494951D01*
X174390000Y-110250000D02*
X174230000Y-110250000D01*
X171920000Y-93377450D02*
X171730000Y-93187450D01*
X171920000Y-96922550D02*
X171920000Y-93377450D01*
X171959999Y-101494951D02*
X171730000Y-101264952D01*
X171730000Y-82150000D02*
X172800000Y-81080000D01*
X171730000Y-101264952D02*
X171730000Y-97112550D01*
X174230000Y-110250000D02*
X171959999Y-107979999D01*
G04 #@! TO.N,/IO Banks/V_{SET_B}*
X213860000Y-68210000D02*
X213650000Y-68000000D01*
X213860000Y-78390000D02*
X213860000Y-68210000D01*
G04 #@! TO.N,/IO Banks/V_{SET_A}*
D28*
X214200000Y-110300000D02*
X214020000Y-110120000D01*
X214020000Y-100980000D02*
X215325000Y-99675000D01*
X214705901Y-81245901D02*
X214690000Y-81230000D01*
X215325000Y-87325000D02*
X214705901Y-86705901D01*
X214020000Y-110120000D02*
X214020000Y-100980000D01*
X214705901Y-86705901D02*
X214705901Y-81245901D01*
X215325000Y-99675000D02*
X215325000Y-87325000D01*
X216590000Y-111090000D02*
X215800000Y-110300000D01*
X215800000Y-110300000D02*
X214200000Y-110300000D01*
X216920000Y-111090000D02*
X216590000Y-111090000D01*
G04 #@! TO.N,/IO Banks/Bank B/V_{IO}*
D22*
X199920000Y-64990000D02*
X199810000Y-64990000D01*
X200300000Y-65400000D02*
X201550000Y-66650000D01*
X201550000Y-66650000D02*
X201550000Y-66800000D01*
X201550000Y-66800000D02*
X201550000Y-69659828D01*
X201550000Y-69659828D02*
X202240172Y-70350000D01*
X202830000Y-70350000D02*
X203030000Y-70550000D01*
D20*
X221200000Y-67262502D02*
X221200000Y-69550000D01*
X221322501Y-67140001D02*
X221200000Y-67262502D01*
D22*
X200300000Y-65390000D02*
X200300000Y-65370000D01*
D20*
X221200000Y-69550000D02*
X220030000Y-70720000D01*
D22*
X200300000Y-65370000D02*
X199920000Y-64990000D01*
X202240172Y-70350000D02*
X202830000Y-70350000D01*
X200300000Y-65390000D02*
X200300000Y-65400000D01*
G04 #@! TO.N,/IO Banks/Bank C/V_{IO}*
X191100000Y-113110000D02*
X191270000Y-113110000D01*
X189450000Y-111460000D02*
X190520000Y-112530000D01*
D20*
X169800000Y-108550000D02*
X170970000Y-107380000D01*
X169800000Y-110837498D02*
X169800000Y-108550000D01*
D22*
X187970000Y-109970000D02*
X187970000Y-107550000D01*
X190520000Y-112530000D02*
X191100000Y-113110000D01*
X189450000Y-111450000D02*
X187970000Y-109970000D01*
X189450000Y-111450000D02*
X189450000Y-111460000D01*
X190520000Y-112530000D02*
X190700000Y-112710000D01*
D20*
X169677499Y-110959999D02*
X169800000Y-110837498D01*
G04 #@! TO.N,+5V5*
D25*
X167420000Y-100695540D02*
X167420000Y-85850539D01*
X166900000Y-114700000D02*
X166900000Y-107058040D01*
X168400800Y-76432760D02*
X168400800Y-72725960D01*
X166720000Y-106878040D02*
X166720000Y-101395540D01*
X167420000Y-85850539D02*
X167540000Y-85730539D01*
X167800000Y-64040000D02*
X166650000Y-64040000D01*
X166720000Y-101395540D02*
X167420000Y-100695540D01*
X168670000Y-84600539D02*
X168730000Y-84540539D01*
X168730000Y-84540539D02*
X168730000Y-76761960D01*
D23*
X167540000Y-85730539D02*
X168670000Y-84600539D01*
D25*
X168730000Y-76761960D02*
X168400800Y-76432760D01*
X168400800Y-72725960D02*
X170010000Y-71116760D01*
X170010000Y-71116760D02*
X170010000Y-66250000D01*
X166900000Y-107058040D02*
X166720000Y-106878040D01*
X170010000Y-66250000D02*
X167800000Y-64040000D01*
G04 #@! TO.N,/IO Banks/Bank D/V_{IO}*
D20*
X184320000Y-67142502D02*
X184320000Y-69430000D01*
X184320000Y-69430000D02*
X183030000Y-70720000D01*
D22*
X166522400Y-70662800D02*
X166522400Y-70057600D01*
X166650000Y-69930000D02*
X166650000Y-67900000D01*
X166522400Y-70057600D02*
X166650000Y-69930000D01*
D20*
X184322501Y-67140001D02*
X184320000Y-67142502D01*
G04 #@! TO.N,/IO Banks/Bank A/V_{IO}*
D22*
X226650000Y-111850000D02*
X226840000Y-111850000D01*
D21*
X224515000Y-109715000D02*
X226650000Y-111850000D01*
D20*
X206800000Y-108550000D02*
X207970000Y-107380000D01*
D21*
X224970000Y-107550000D02*
X224515000Y-108005000D01*
X224515000Y-108005000D02*
X224515000Y-109715000D01*
D22*
X226840000Y-111850000D02*
X227700000Y-112710000D01*
D20*
X206800000Y-110837498D02*
X206800000Y-108550000D01*
X206677499Y-110959999D02*
X206800000Y-110837498D01*
G04 #@! TO.N,/Power/3V3OUT*
D26*
X224513664Y-86405000D02*
X224835000Y-86405000D01*
X224335000Y-83985000D02*
X224335000Y-86226336D01*
X225010000Y-83310000D02*
X224335000Y-83985000D01*
X224835000Y-86405000D02*
X225785000Y-85455000D01*
X224335000Y-86226336D02*
X224513664Y-86405000D01*
G04 #@! TO.N,/Power/1V8OUT*
D27*
X225770000Y-91877501D02*
X225770000Y-89150000D01*
X225770000Y-89150000D02*
X226110000Y-88810000D01*
G04 #@! TD*
G04 #@! TA.AperFunction,Conductor*
G04 #@! TO.N,+3V3*
G36*
X195028412Y-88280261D02*
G01*
X195041058Y-88285500D01*
X195133054Y-88285500D01*
X195151800Y-88289227D01*
X195156676Y-88291247D01*
X195183196Y-88317763D01*
X195183199Y-88355266D01*
X195183197Y-88355270D01*
X195181178Y-88360144D01*
X195170556Y-88376040D01*
X195104160Y-88442435D01*
X195064500Y-88538179D01*
X195064500Y-88641819D01*
X195077176Y-88672419D01*
X195104160Y-88737563D01*
X195177436Y-88810839D01*
X195177437Y-88810839D01*
X195177439Y-88810841D01*
X195273183Y-88850500D01*
X195273185Y-88850500D01*
X195376815Y-88850500D01*
X195376817Y-88850500D01*
X195423244Y-88831268D01*
X195441996Y-88827539D01*
X195449455Y-88827539D01*
X195484103Y-88841891D01*
X195485648Y-88843436D01*
X195500000Y-88878084D01*
X195500000Y-89097442D01*
X195496271Y-89116193D01*
X195493416Y-89123086D01*
X195466897Y-89149605D01*
X195466891Y-89149607D01*
X195464872Y-89150443D01*
X195427375Y-89150441D01*
X195378428Y-89130167D01*
X195377126Y-89129573D01*
X195376818Y-89129500D01*
X195376817Y-89129500D01*
X195273179Y-89129500D01*
X195177435Y-89169160D01*
X195104160Y-89242435D01*
X195064500Y-89338179D01*
X195064500Y-89338181D01*
X195064500Y-89338183D01*
X195064500Y-89441817D01*
X195103070Y-89534933D01*
X195104160Y-89537563D01*
X195177436Y-89610839D01*
X195177437Y-89610839D01*
X195177439Y-89610841D01*
X195273183Y-89650500D01*
X195273185Y-89650500D01*
X195376815Y-89650500D01*
X195376817Y-89650500D01*
X195423244Y-89631268D01*
X195441996Y-89627539D01*
X195449455Y-89627539D01*
X195484103Y-89641891D01*
X195485648Y-89643436D01*
X195500000Y-89678084D01*
X195500000Y-89897442D01*
X195496271Y-89916193D01*
X195493416Y-89923086D01*
X195466897Y-89949605D01*
X195466891Y-89949607D01*
X195464872Y-89950443D01*
X195427375Y-89950441D01*
X195378428Y-89930167D01*
X195377126Y-89929573D01*
X195376818Y-89929500D01*
X195376817Y-89929500D01*
X195273179Y-89929500D01*
X195177435Y-89969160D01*
X195104160Y-90042435D01*
X195064500Y-90138179D01*
X195064500Y-90241818D01*
X195104160Y-90337563D01*
X195177436Y-90410839D01*
X195177437Y-90410839D01*
X195177439Y-90410841D01*
X195273183Y-90450500D01*
X195273185Y-90450500D01*
X195376815Y-90450500D01*
X195376817Y-90450500D01*
X195423244Y-90431268D01*
X195441996Y-90427539D01*
X195449455Y-90427539D01*
X195484103Y-90441891D01*
X195485648Y-90443436D01*
X195500000Y-90478084D01*
X195500000Y-91385429D01*
X195499058Y-91394992D01*
X195497211Y-91404274D01*
X195494423Y-91413462D01*
X195482208Y-91442952D01*
X195471588Y-91458848D01*
X195458853Y-91471584D01*
X195442955Y-91482207D01*
X195413463Y-91494423D01*
X195404275Y-91497210D01*
X195394985Y-91499058D01*
X195385430Y-91500000D01*
X194004247Y-91500000D01*
X193985499Y-91496271D01*
X193978601Y-91493414D01*
X193952085Y-91466898D01*
X193949227Y-91459997D01*
X193945500Y-91441252D01*
X193945500Y-90138179D01*
X194264500Y-90138179D01*
X194264500Y-90241818D01*
X194304160Y-90337563D01*
X194377436Y-90410839D01*
X194377437Y-90410839D01*
X194377439Y-90410841D01*
X194473183Y-90450500D01*
X194473185Y-90450500D01*
X194576815Y-90450500D01*
X194576817Y-90450500D01*
X194672561Y-90410841D01*
X194672563Y-90410839D01*
X194672564Y-90410839D01*
X194745839Y-90337564D01*
X194745839Y-90337563D01*
X194745841Y-90337561D01*
X194785500Y-90241817D01*
X194785500Y-90138183D01*
X194745841Y-90042439D01*
X194745839Y-90042437D01*
X194745839Y-90042436D01*
X194672564Y-89969161D01*
X194672563Y-89969160D01*
X194632246Y-89952460D01*
X194603373Y-89940500D01*
X194576819Y-89929500D01*
X194576818Y-89929500D01*
X194576817Y-89929500D01*
X194473183Y-89929500D01*
X194473181Y-89929500D01*
X194473179Y-89929500D01*
X194377435Y-89969160D01*
X194304160Y-90042435D01*
X194264500Y-90138179D01*
X193945500Y-90138179D01*
X193945500Y-89890311D01*
X193949229Y-89871561D01*
X193956123Y-89854917D01*
X193966741Y-89839026D01*
X194153347Y-89652421D01*
X194153349Y-89652419D01*
X194175500Y-89598942D01*
X194175500Y-89541058D01*
X194175500Y-88404500D01*
X194189852Y-88369852D01*
X194224500Y-88355500D01*
X194849557Y-88355500D01*
X194860810Y-88354668D01*
X194865034Y-88354357D01*
X194879261Y-88352246D01*
X194894409Y-88348844D01*
X194897675Y-88347853D01*
X194929887Y-88331637D01*
X194956399Y-88311975D01*
X194965158Y-88304716D01*
X194966908Y-88301590D01*
X194996359Y-88278372D01*
X195028412Y-88280261D01*
G37*
G04 #@! TD.AperFunction*
G04 #@! TD*
G04 #@! TA.AperFunction,Conductor*
G04 #@! TO.N,+1V8*
G36*
X195144979Y-79750939D02*
G01*
X195154273Y-79752787D01*
X195163452Y-79755571D01*
X195192959Y-79767793D01*
X195208851Y-79778413D01*
X195221585Y-79791147D01*
X195232207Y-79807043D01*
X195244423Y-79836535D01*
X195247210Y-79845723D01*
X195249057Y-79855007D01*
X195248078Y-79859930D01*
X195250000Y-79864568D01*
X195250000Y-83496613D01*
X195246270Y-83515364D01*
X195241396Y-83527131D01*
X195214878Y-83553650D01*
X195177436Y-83569159D01*
X195140799Y-83605797D01*
X195104161Y-83642436D01*
X195104160Y-83642437D01*
X195104159Y-83642437D01*
X195104159Y-83642438D01*
X195064500Y-83738179D01*
X195064500Y-83841818D01*
X195104160Y-83937563D01*
X195177437Y-84010840D01*
X195177438Y-84010840D01*
X195177439Y-84010841D01*
X195210744Y-84024636D01*
X195226639Y-84035256D01*
X195235646Y-84044262D01*
X195250000Y-84078909D01*
X195250000Y-84296613D01*
X195246270Y-84315364D01*
X195241396Y-84327131D01*
X195214878Y-84353650D01*
X195177436Y-84369159D01*
X195140799Y-84405797D01*
X195104161Y-84442436D01*
X195104160Y-84442437D01*
X195104159Y-84442437D01*
X195104159Y-84442438D01*
X195064500Y-84538179D01*
X195064500Y-84641818D01*
X195104160Y-84737563D01*
X195177437Y-84810840D01*
X195177438Y-84810840D01*
X195177439Y-84810841D01*
X195210744Y-84824636D01*
X195226639Y-84835256D01*
X195235646Y-84844262D01*
X195250000Y-84878909D01*
X195250000Y-85096613D01*
X195246270Y-85115364D01*
X195241396Y-85127131D01*
X195214878Y-85153650D01*
X195177436Y-85169159D01*
X195140799Y-85205797D01*
X195104161Y-85242436D01*
X195104160Y-85242437D01*
X195104159Y-85242437D01*
X195104159Y-85242438D01*
X195064500Y-85338179D01*
X195064500Y-85441818D01*
X195104160Y-85537563D01*
X195177437Y-85610840D01*
X195177438Y-85610840D01*
X195177439Y-85610841D01*
X195210744Y-85624636D01*
X195226639Y-85635256D01*
X195235646Y-85644262D01*
X195250000Y-85678909D01*
X195250000Y-86434188D01*
X195246270Y-86452941D01*
X195239377Y-86469581D01*
X195228755Y-86485476D01*
X194937581Y-86776651D01*
X194917116Y-86797116D01*
X194896651Y-86817580D01*
X194896650Y-86817581D01*
X194874500Y-86871054D01*
X194874500Y-88118944D01*
X194896030Y-88170920D01*
X194898820Y-88180118D01*
X194900875Y-88190455D01*
X194893554Y-88227236D01*
X194867042Y-88246898D01*
X194863776Y-88247889D01*
X194849549Y-88250000D01*
X194085811Y-88250000D01*
X194067060Y-88246270D01*
X194050417Y-88239376D01*
X194034523Y-88228755D01*
X193771244Y-87965476D01*
X193760622Y-87949579D01*
X193753729Y-87932938D01*
X193750000Y-87914188D01*
X193750000Y-87615403D01*
X193753727Y-87596658D01*
X193755746Y-87591782D01*
X193782260Y-87565262D01*
X193819761Y-87565256D01*
X193822866Y-87566542D01*
X193838758Y-87577162D01*
X193912436Y-87650839D01*
X193912437Y-87650839D01*
X193912439Y-87650841D01*
X194008183Y-87690500D01*
X194008185Y-87690500D01*
X194111815Y-87690500D01*
X194111817Y-87690500D01*
X194207561Y-87650841D01*
X194207563Y-87650839D01*
X194207564Y-87650839D01*
X194280839Y-87577564D01*
X194280839Y-87577563D01*
X194280841Y-87577561D01*
X194320500Y-87481817D01*
X194320500Y-87378183D01*
X194280841Y-87282439D01*
X194280839Y-87282437D01*
X194280839Y-87282436D01*
X194207564Y-87209161D01*
X194207562Y-87209159D01*
X194151477Y-87185927D01*
X194151477Y-87185926D01*
X194111822Y-87169501D01*
X194111819Y-87169500D01*
X194111818Y-87169500D01*
X194111817Y-87169500D01*
X194111816Y-87169500D01*
X194008179Y-87169500D01*
X193912435Y-87209160D01*
X193844030Y-87277566D01*
X193836605Y-87283660D01*
X193827251Y-87289910D01*
X193790468Y-87297226D01*
X193759287Y-87276391D01*
X193758253Y-87274845D01*
X193750000Y-87247629D01*
X193750000Y-85704095D01*
X193753729Y-85685346D01*
X193756395Y-85678909D01*
X193758602Y-85673579D01*
X193785117Y-85647061D01*
X193872561Y-85610841D01*
X193872563Y-85610839D01*
X193872564Y-85610839D01*
X193945839Y-85537564D01*
X193945839Y-85537563D01*
X193945841Y-85537561D01*
X193985500Y-85441817D01*
X193985500Y-85338183D01*
X193985498Y-85338179D01*
X194269500Y-85338179D01*
X194269500Y-85441818D01*
X194309160Y-85537563D01*
X194382436Y-85610839D01*
X194382437Y-85610839D01*
X194382439Y-85610841D01*
X194478183Y-85650500D01*
X194478185Y-85650500D01*
X194581815Y-85650500D01*
X194581817Y-85650500D01*
X194677561Y-85610841D01*
X194677563Y-85610839D01*
X194677564Y-85610839D01*
X194750839Y-85537564D01*
X194750839Y-85537563D01*
X194750841Y-85537561D01*
X194790500Y-85441817D01*
X194790500Y-85338183D01*
X194750841Y-85242439D01*
X194750839Y-85242437D01*
X194750839Y-85242436D01*
X194677564Y-85169161D01*
X194677563Y-85169160D01*
X194640119Y-85153650D01*
X194585248Y-85130921D01*
X194581818Y-85129500D01*
X194478179Y-85129500D01*
X194382435Y-85169160D01*
X194309160Y-85242435D01*
X194269500Y-85338179D01*
X193985498Y-85338179D01*
X193945841Y-85242439D01*
X193945839Y-85242437D01*
X193945839Y-85242436D01*
X193872564Y-85169161D01*
X193872563Y-85169160D01*
X193835119Y-85153650D01*
X193789253Y-85134651D01*
X193773355Y-85124027D01*
X193764350Y-85115021D01*
X193750000Y-85080375D01*
X193750000Y-84902024D01*
X193753730Y-84883273D01*
X193758604Y-84871506D01*
X193785120Y-84844988D01*
X193867561Y-84810841D01*
X193867563Y-84810839D01*
X193867564Y-84810839D01*
X193940839Y-84737564D01*
X193940839Y-84737563D01*
X193940841Y-84737561D01*
X193980500Y-84641817D01*
X193980500Y-84538183D01*
X193980498Y-84538179D01*
X194264500Y-84538179D01*
X194264500Y-84641818D01*
X194304160Y-84737563D01*
X194377436Y-84810839D01*
X194377437Y-84810839D01*
X194377439Y-84810841D01*
X194473183Y-84850500D01*
X194473185Y-84850500D01*
X194576815Y-84850500D01*
X194576817Y-84850500D01*
X194672561Y-84810841D01*
X194672563Y-84810839D01*
X194672564Y-84810839D01*
X194745839Y-84737564D01*
X194745839Y-84737563D01*
X194745841Y-84737561D01*
X194785500Y-84641817D01*
X194785500Y-84538183D01*
X194745841Y-84442439D01*
X194745839Y-84442437D01*
X194745839Y-84442436D01*
X194672564Y-84369161D01*
X194672563Y-84369160D01*
X194635119Y-84353650D01*
X194604602Y-84341009D01*
X194594253Y-84336722D01*
X194576819Y-84329500D01*
X194576818Y-84329500D01*
X194576817Y-84329500D01*
X194473183Y-84329500D01*
X194473181Y-84329500D01*
X194473179Y-84329500D01*
X194377435Y-84369160D01*
X194304160Y-84442435D01*
X194264500Y-84538179D01*
X193980498Y-84538179D01*
X193940841Y-84442439D01*
X193940839Y-84442437D01*
X193940839Y-84442436D01*
X193940838Y-84442435D01*
X193867564Y-84369160D01*
X193789253Y-84336722D01*
X193773355Y-84326098D01*
X193764350Y-84317092D01*
X193750000Y-84282446D01*
X193750000Y-84104095D01*
X193753729Y-84085346D01*
X193756395Y-84078909D01*
X193758602Y-84073579D01*
X193785117Y-84047061D01*
X193872561Y-84010841D01*
X193872563Y-84010839D01*
X193872564Y-84010839D01*
X193945839Y-83937564D01*
X193945839Y-83937563D01*
X193945841Y-83937561D01*
X193985500Y-83841817D01*
X193985500Y-83738183D01*
X193945841Y-83642439D01*
X193945839Y-83642437D01*
X193945839Y-83642436D01*
X193872564Y-83569161D01*
X193872563Y-83569160D01*
X193835119Y-83553650D01*
X193789253Y-83534651D01*
X193773355Y-83524027D01*
X193764350Y-83515021D01*
X193750000Y-83480375D01*
X193750000Y-83304095D01*
X193753729Y-83285346D01*
X193754798Y-83282764D01*
X193758602Y-83273579D01*
X193785117Y-83247061D01*
X193872561Y-83210841D01*
X193872563Y-83210839D01*
X193872564Y-83210839D01*
X193945839Y-83137564D01*
X193945839Y-83137563D01*
X193945841Y-83137561D01*
X193985500Y-83041817D01*
X193985500Y-82938183D01*
X193945841Y-82842439D01*
X193945839Y-82842437D01*
X193945839Y-82842436D01*
X193872564Y-82769161D01*
X193872563Y-82769160D01*
X193789253Y-82734651D01*
X193773355Y-82724027D01*
X193764350Y-82715021D01*
X193750000Y-82680375D01*
X193750000Y-82319247D01*
X193753727Y-82300502D01*
X193756583Y-82293606D01*
X193783094Y-82267088D01*
X193791949Y-82263420D01*
X193801140Y-82260634D01*
X193801814Y-82260500D01*
X193801815Y-82260500D01*
X193801817Y-82260500D01*
X193897561Y-82220841D01*
X193897563Y-82220839D01*
X193897564Y-82220839D01*
X193970839Y-82147564D01*
X193970839Y-82147563D01*
X193970841Y-82147561D01*
X194010500Y-82051817D01*
X194010500Y-81948183D01*
X193970841Y-81852439D01*
X193970839Y-81852437D01*
X193970839Y-81852436D01*
X193897564Y-81779161D01*
X193897562Y-81779159D01*
X193841477Y-81755927D01*
X193841477Y-81755926D01*
X193801819Y-81739500D01*
X193801125Y-81739362D01*
X193791940Y-81736575D01*
X193783105Y-81732916D01*
X193756586Y-81706400D01*
X193753727Y-81699497D01*
X193750000Y-81680752D01*
X193750000Y-79864570D01*
X193750940Y-79855016D01*
X193750942Y-79855006D01*
X193752788Y-79845723D01*
X193755572Y-79836544D01*
X193767794Y-79807037D01*
X193778414Y-79791145D01*
X193791144Y-79778415D01*
X193807037Y-79767794D01*
X193836546Y-79755571D01*
X193845724Y-79752788D01*
X193855020Y-79750939D01*
X193864570Y-79750000D01*
X195135429Y-79750000D01*
X195144979Y-79750939D01*
G37*
G04 #@! TD.AperFunction*
G04 #@! TD*
G04 #@! TA.AperFunction,Conductor*
G04 #@! TO.N,+1V1*
G36*
X197870148Y-86640944D02*
G01*
X197884500Y-86675592D01*
X197884500Y-86700770D01*
X197870148Y-86735418D01*
X197835500Y-86749770D01*
X197816748Y-86746040D01*
X197776818Y-86729500D01*
X197776817Y-86729500D01*
X197673183Y-86729500D01*
X197673181Y-86729500D01*
X197577437Y-86769160D01*
X197504160Y-86842437D01*
X197464500Y-86938181D01*
X197464500Y-86938183D01*
X197464500Y-87041817D01*
X197504159Y-87137561D01*
X197504160Y-87137562D01*
X197504161Y-87137564D01*
X197577436Y-87210839D01*
X197577437Y-87210839D01*
X197577439Y-87210841D01*
X197673183Y-87250500D01*
X197673185Y-87250500D01*
X197776815Y-87250500D01*
X197776817Y-87250500D01*
X197816750Y-87233959D01*
X197854251Y-87233959D01*
X197880770Y-87260477D01*
X197884500Y-87279229D01*
X197884500Y-87500770D01*
X197870148Y-87535418D01*
X197835500Y-87549770D01*
X197816748Y-87546040D01*
X197776818Y-87529500D01*
X197776817Y-87529500D01*
X197673183Y-87529500D01*
X197673181Y-87529500D01*
X197577437Y-87569160D01*
X197504160Y-87642437D01*
X197464500Y-87738181D01*
X197464500Y-87738183D01*
X197464500Y-87841817D01*
X197504159Y-87937561D01*
X197504160Y-87937562D01*
X197504161Y-87937564D01*
X197577436Y-88010839D01*
X197577437Y-88010839D01*
X197577439Y-88010841D01*
X197673183Y-88050500D01*
X197673185Y-88050500D01*
X197776815Y-88050500D01*
X197776817Y-88050500D01*
X197816750Y-88033959D01*
X197854251Y-88033959D01*
X197880770Y-88060477D01*
X197884500Y-88079229D01*
X197884500Y-88300770D01*
X197870148Y-88335418D01*
X197835500Y-88349770D01*
X197816748Y-88346040D01*
X197776818Y-88329500D01*
X197776817Y-88329500D01*
X197673183Y-88329500D01*
X197673181Y-88329500D01*
X197577437Y-88369160D01*
X197504160Y-88442437D01*
X197464500Y-88538181D01*
X197464500Y-88538183D01*
X197464500Y-88641817D01*
X197504159Y-88737561D01*
X197504160Y-88737562D01*
X197504161Y-88737564D01*
X197577436Y-88810839D01*
X197577437Y-88810839D01*
X197577439Y-88810841D01*
X197673183Y-88850500D01*
X197673185Y-88850500D01*
X197776815Y-88850500D01*
X197776817Y-88850500D01*
X197816750Y-88833959D01*
X197854251Y-88833959D01*
X197880770Y-88860477D01*
X197884500Y-88879229D01*
X197884500Y-89100770D01*
X197870148Y-89135418D01*
X197835500Y-89149770D01*
X197816748Y-89146040D01*
X197776818Y-89129500D01*
X197776817Y-89129500D01*
X197673183Y-89129500D01*
X197673181Y-89129500D01*
X197593863Y-89162355D01*
X197581568Y-89167449D01*
X197577437Y-89169160D01*
X197504160Y-89242437D01*
X197464500Y-89338181D01*
X197464500Y-89338183D01*
X197464500Y-89441817D01*
X197504159Y-89537561D01*
X197504160Y-89537562D01*
X197504161Y-89537564D01*
X197577436Y-89610839D01*
X197577437Y-89610839D01*
X197577439Y-89610841D01*
X197673183Y-89650500D01*
X197673185Y-89650500D01*
X197776815Y-89650500D01*
X197776817Y-89650500D01*
X197816750Y-89633959D01*
X197854251Y-89633959D01*
X197880770Y-89660477D01*
X197884500Y-89679229D01*
X197884500Y-90647470D01*
X197870148Y-90682118D01*
X197835500Y-90696470D01*
X195944500Y-90696470D01*
X195909852Y-90682118D01*
X195895500Y-90647470D01*
X195895500Y-90138181D01*
X196664500Y-90138181D01*
X196664500Y-90138183D01*
X196664500Y-90241817D01*
X196704159Y-90337561D01*
X196704160Y-90337562D01*
X196704161Y-90337564D01*
X196777436Y-90410839D01*
X196777437Y-90410839D01*
X196777439Y-90410841D01*
X196873183Y-90450500D01*
X196873185Y-90450500D01*
X196976815Y-90450500D01*
X196976817Y-90450500D01*
X197072561Y-90410841D01*
X197072563Y-90410839D01*
X197072564Y-90410839D01*
X197145839Y-90337564D01*
X197145839Y-90337563D01*
X197145841Y-90337561D01*
X197185500Y-90241817D01*
X197185500Y-90138183D01*
X197145841Y-90042439D01*
X197145839Y-90042437D01*
X197145839Y-90042436D01*
X197072564Y-89969161D01*
X197072562Y-89969160D01*
X197072561Y-89969159D01*
X197016477Y-89945927D01*
X196976818Y-89929500D01*
X196976817Y-89929500D01*
X196873183Y-89929500D01*
X196873181Y-89929500D01*
X196777437Y-89969160D01*
X196704160Y-90042437D01*
X196664500Y-90138181D01*
X195895500Y-90138181D01*
X195895500Y-89647199D01*
X195909852Y-89612551D01*
X195944500Y-89598199D01*
X195972365Y-89609741D01*
X195973423Y-89608158D01*
X195977437Y-89610839D01*
X195977439Y-89610841D01*
X196073183Y-89650500D01*
X196073185Y-89650500D01*
X196176815Y-89650500D01*
X196176817Y-89650500D01*
X196272561Y-89610841D01*
X196272563Y-89610839D01*
X196272564Y-89610839D01*
X196345839Y-89537564D01*
X196345839Y-89537563D01*
X196345841Y-89537561D01*
X196385500Y-89441817D01*
X196385500Y-89338183D01*
X196385499Y-89338181D01*
X196664500Y-89338181D01*
X196664500Y-89338183D01*
X196664500Y-89441817D01*
X196704159Y-89537561D01*
X196704160Y-89537562D01*
X196704161Y-89537564D01*
X196777436Y-89610839D01*
X196777437Y-89610839D01*
X196777439Y-89610841D01*
X196873183Y-89650500D01*
X196873185Y-89650500D01*
X196976815Y-89650500D01*
X196976817Y-89650500D01*
X197072561Y-89610841D01*
X197072563Y-89610839D01*
X197072564Y-89610839D01*
X197145839Y-89537564D01*
X197145839Y-89537563D01*
X197145841Y-89537561D01*
X197185500Y-89441817D01*
X197185500Y-89338183D01*
X197145841Y-89242439D01*
X197145839Y-89242437D01*
X197145839Y-89242436D01*
X197072564Y-89169161D01*
X197072562Y-89169160D01*
X197072561Y-89169159D01*
X197016477Y-89145927D01*
X196976818Y-89129500D01*
X196976817Y-89129500D01*
X196873183Y-89129500D01*
X196873181Y-89129500D01*
X196793863Y-89162355D01*
X196781568Y-89167449D01*
X196777437Y-89169160D01*
X196704160Y-89242437D01*
X196664500Y-89338181D01*
X196385499Y-89338181D01*
X196345841Y-89242439D01*
X196345839Y-89242437D01*
X196345839Y-89242436D01*
X196272564Y-89169161D01*
X196272562Y-89169160D01*
X196272561Y-89169159D01*
X196216477Y-89145927D01*
X196176818Y-89129500D01*
X196176817Y-89129500D01*
X196073183Y-89129500D01*
X196073181Y-89129500D01*
X195993863Y-89162355D01*
X195981568Y-89167449D01*
X195977437Y-89169160D01*
X195973423Y-89171842D01*
X195972365Y-89170258D01*
X195944500Y-89181801D01*
X195909852Y-89167449D01*
X195895500Y-89132801D01*
X195895500Y-88847199D01*
X195909852Y-88812551D01*
X195944500Y-88798199D01*
X195972365Y-88809741D01*
X195973423Y-88808158D01*
X195977437Y-88810839D01*
X195977439Y-88810841D01*
X196073183Y-88850500D01*
X196073185Y-88850500D01*
X196176815Y-88850500D01*
X196176817Y-88850500D01*
X196272561Y-88810841D01*
X196272563Y-88810839D01*
X196272564Y-88810839D01*
X196345839Y-88737564D01*
X196345839Y-88737563D01*
X196345841Y-88737561D01*
X196385500Y-88641817D01*
X196385500Y-88538183D01*
X196385499Y-88538181D01*
X196664500Y-88538181D01*
X196664500Y-88538183D01*
X196664500Y-88641817D01*
X196704159Y-88737561D01*
X196704160Y-88737562D01*
X196704161Y-88737564D01*
X196777436Y-88810839D01*
X196777437Y-88810839D01*
X196777439Y-88810841D01*
X196873183Y-88850500D01*
X196873185Y-88850500D01*
X196976815Y-88850500D01*
X196976817Y-88850500D01*
X197072561Y-88810841D01*
X197072563Y-88810839D01*
X197072564Y-88810839D01*
X197145839Y-88737564D01*
X197145839Y-88737563D01*
X197145841Y-88737561D01*
X197185500Y-88641817D01*
X197185500Y-88538183D01*
X197145841Y-88442439D01*
X197145839Y-88442437D01*
X197145839Y-88442436D01*
X197072564Y-88369161D01*
X197072562Y-88369160D01*
X197072561Y-88369159D01*
X197016477Y-88345927D01*
X196976818Y-88329500D01*
X196976817Y-88329500D01*
X196873183Y-88329500D01*
X196873181Y-88329500D01*
X196777437Y-88369160D01*
X196704160Y-88442437D01*
X196664500Y-88538181D01*
X196385499Y-88538181D01*
X196345841Y-88442439D01*
X196345839Y-88442437D01*
X196345839Y-88442436D01*
X196272564Y-88369161D01*
X196272562Y-88369160D01*
X196272561Y-88369159D01*
X196216477Y-88345927D01*
X196176818Y-88329500D01*
X196176817Y-88329500D01*
X196073183Y-88329500D01*
X196073181Y-88329500D01*
X195977437Y-88369160D01*
X195977436Y-88369161D01*
X195904157Y-88442439D01*
X195901478Y-88446450D01*
X195899186Y-88444919D01*
X195879192Y-88464683D01*
X195841689Y-88464464D01*
X195826056Y-88453952D01*
X195764352Y-88392248D01*
X195750000Y-88357600D01*
X195750000Y-88231921D01*
X195647509Y-88079229D01*
X195562982Y-87953299D01*
X195555590Y-87916535D01*
X195558391Y-87907262D01*
X195585500Y-87841817D01*
X195585500Y-87738183D01*
X195585499Y-87738181D01*
X195864500Y-87738181D01*
X195864500Y-87738183D01*
X195864500Y-87841817D01*
X195904159Y-87937561D01*
X195904160Y-87937562D01*
X195904161Y-87937564D01*
X195977436Y-88010839D01*
X195977437Y-88010839D01*
X195977439Y-88010841D01*
X196073183Y-88050500D01*
X196073185Y-88050500D01*
X196176815Y-88050500D01*
X196176817Y-88050500D01*
X196272561Y-88010841D01*
X196272563Y-88010839D01*
X196272564Y-88010839D01*
X196345839Y-87937564D01*
X196345839Y-87937563D01*
X196345841Y-87937561D01*
X196385500Y-87841817D01*
X196385500Y-87738183D01*
X196385499Y-87738181D01*
X196664500Y-87738181D01*
X196664500Y-87738183D01*
X196664500Y-87841817D01*
X196704159Y-87937561D01*
X196704160Y-87937562D01*
X196704161Y-87937564D01*
X196777436Y-88010839D01*
X196777437Y-88010839D01*
X196777439Y-88010841D01*
X196873183Y-88050500D01*
X196873185Y-88050500D01*
X196976815Y-88050500D01*
X196976817Y-88050500D01*
X197072561Y-88010841D01*
X197072563Y-88010839D01*
X197072564Y-88010839D01*
X197145839Y-87937564D01*
X197145839Y-87937563D01*
X197145841Y-87937561D01*
X197185500Y-87841817D01*
X197185500Y-87738183D01*
X197145841Y-87642439D01*
X197145839Y-87642437D01*
X197145839Y-87642436D01*
X197072564Y-87569161D01*
X197072562Y-87569160D01*
X197072561Y-87569159D01*
X197016477Y-87545927D01*
X196976818Y-87529500D01*
X196976817Y-87529500D01*
X196873183Y-87529500D01*
X196873181Y-87529500D01*
X196777437Y-87569160D01*
X196704160Y-87642437D01*
X196664500Y-87738181D01*
X196385499Y-87738181D01*
X196345841Y-87642439D01*
X196345839Y-87642437D01*
X196345839Y-87642436D01*
X196272564Y-87569161D01*
X196272562Y-87569160D01*
X196272561Y-87569159D01*
X196216477Y-87545927D01*
X196176818Y-87529500D01*
X196176817Y-87529500D01*
X196073183Y-87529500D01*
X196073181Y-87529500D01*
X195977437Y-87569160D01*
X195904160Y-87642437D01*
X195864500Y-87738181D01*
X195585499Y-87738181D01*
X195545841Y-87642439D01*
X195545839Y-87642437D01*
X195545839Y-87642436D01*
X195472564Y-87569161D01*
X195472562Y-87569160D01*
X195472561Y-87569159D01*
X195416477Y-87545927D01*
X195376818Y-87529500D01*
X195376817Y-87529500D01*
X195306115Y-87529500D01*
X195271467Y-87515148D01*
X195261853Y-87501521D01*
X195257467Y-87492286D01*
X195253263Y-87478480D01*
X195250534Y-87460149D01*
X195250000Y-87452934D01*
X195250000Y-86896064D01*
X195264352Y-86861416D01*
X195425916Y-86699852D01*
X195460564Y-86685500D01*
X196238940Y-86685500D01*
X196238942Y-86685500D01*
X196292419Y-86663349D01*
X196314824Y-86640943D01*
X196349471Y-86626592D01*
X197835500Y-86626592D01*
X197870148Y-86640944D01*
G37*
G04 #@! TD.AperFunction*
G04 #@! TD*
D29*
X150500000Y-62500000D02*
X150500000Y-62500000D01*
G75*
G02*
X151500000Y-61500000I1000000J0D01*
G01*
X244500000Y-61500000D01*
G75*
G02*
X245500000Y-62500000I0J-1000000D01*
G01*
X245500000Y-115500000D01*
G75*
G02*
X244500000Y-116500000I-1000000J0D01*
G01*
X151500000Y-116500000D01*
G75*
G02*
X150500000Y-115500000I0J1000000D01*
G01*
X150500000Y-62500000D01*
M02*
