M48
; DRILL file KiCad 10.0.5+dfsg-1 date 2026-09-25T10:09:54
; FORMAT={-:-/ absolute / metric / decimal}
; #@! TF.CreationDate,2026-09-25T10:09:54+00:00
; #@! TF.GenerationSoftware,Kicad,Pcbnew,10.0.5+dfsg-1
; #@! TF.FileFunction,Plated,1,6,PTH
FMAT,2
METRIC
; #@! TA.AperFunction,Plated,PTH,ViaDrill
T1C0.200
; #@! TA.AperFunction,Plated,PTH,ViaDrill
T2C0.300
; #@! TA.AperFunction,Plated,PTH,ViaDrill
T3C0.400
; #@! TA.AperFunction,Plated,PTH,ComponentDrill
T4C0.600
; #@! TA.AperFunction,Plated,PTH,ComponentDrill
T5C0.800
; #@! TA.AperFunction,Plated,PTH,ComponentDrill
T6C1.000
; #@! TA.AperFunction,Plated,PTH,ComponentDrill
T7C3.200
%
G90
G05
T1
X152.15Y-95.92
X152.4Y-104.04
X153.03Y-93.96
X153.05Y-75.23
X153.05Y-76.5
X153.05Y-79.04
X153.05Y-100.23
X153.05Y-101.5
X153.07Y-94.42
X153.21Y-96.26
X153.25Y-80.49
X153.547Y-96.85
X154.125Y-79.813
X154.25Y-84.9
X154.3Y-71.9
X154.32Y-71.44
X154.69Y-101.52
X154.8Y-71.4
X154.9Y-100.4
X155.0Y-99.95
X155.1Y-101.25
X155.175Y-75.985
X155.35Y-79.923
X155.35Y-81.423
X155.35Y-84.423
X155.35Y-100.45
X155.4Y-71.0
X155.4Y-74.6
X155.45Y-73.323
X155.55Y-71.53
X155.64Y-96.79
X155.65Y-94.94
X155.775Y-85.65
X155.95Y-86.73
X156.16Y-88.1
X156.17Y-90.42
X156.19Y-89.96
X156.2Y-89.5
X156.48Y-87.71
X156.8Y-86.8
X156.8Y-87.3
X156.88Y-106.65
X156.9Y-88.2
X156.96Y-90.54
X156.96Y-91.46
X157.325Y-85.65
X157.45Y-96.77
X157.48Y-69.792
X157.53Y-80.78
X157.71Y-87.68
X157.82Y-79.81
X157.89Y-93.31
X157.9Y-94.2
X157.96Y-95.9
X158.17Y-80.13
X158.29Y-89.25
X158.35Y-83.48
X158.54Y-105.8
X158.6Y-94.2
X158.8Y-68.59
X158.8Y-70.49
X158.8Y-74.3
X158.99Y-64.68
X159.05Y-86.25
X159.08Y-106.27
X159.125Y-91.75
X159.4Y-64.39
X159.4Y-85.75
X159.4Y-103.097
X159.57Y-105.82
X159.57Y-107.95
X159.65Y-72.85
X159.86Y-105.03
X160.0Y-85.12
X160.3Y-101.8
X160.3Y-102.4
X160.3Y-102.88
X160.38Y-100.81
X160.42Y-80.86
X160.52Y-94.6
X160.59Y-92.84
X160.655Y-95.81
X160.727Y-79.0
X160.89Y-82.11
X160.92Y-80.96
X160.95Y-75.8
X160.95Y-77.2
X161.21Y-81.78
X161.25Y-67.2
X161.25Y-81.27
X161.39Y-79.77
X161.62Y-77.89
X161.8Y-98.5
X161.81Y-83.4
X161.82Y-84.562
X161.83Y-94.53
X161.83Y-95.49
X162.2Y-105.35
X162.2Y-107.45
X162.3Y-83.4
X162.39Y-69.56
X162.47Y-94.54
X162.5Y-97.75
X162.5Y-101.92
X162.57Y-94.07
X162.58Y-108.6
X162.69Y-104.98
X162.7Y-69.9
X162.73Y-99.3
X162.75Y-96.42
X162.812Y-84.562
X162.82Y-64.98
X162.89Y-94.72
X162.9Y-98.5
X162.91Y-98.05
X163.02Y-63.53
X163.3Y-65.39
X163.31Y-82.46
X163.31Y-83.42
X163.55Y-112.5
X163.65Y-110.4
X163.67Y-96.42
X163.7Y-64.99
X163.81Y-98.97
X163.81Y-101.17
X163.859Y-110.929
X163.87Y-107.37
X163.88Y-101.627
X163.98Y-63.53
X164.06Y-84.562
X164.08Y-83.65
X164.1Y-99.4
X164.13Y-110.55
X164.17Y-94.61
X164.21Y-108.03
X164.28Y-66.53
X164.55Y-67.2
X164.55Y-70.86
X164.59Y-96.42
X164.602Y-66.2
X164.82Y-108.19
X164.84Y-101.627
X165.03Y-94.57
X165.21Y-84.562
X165.3Y-100.95
X165.35Y-71.018
X165.37Y-78.75
X165.38Y-69.91
X165.407Y-64.697
X165.65Y-107.24
X165.65Y-112.5
X165.83Y-100.79
X165.86Y-70.97
X165.97Y-80.65
X166.09Y-69.63
X166.22Y-78.84
X166.29Y-76.49
X166.29Y-107.24
X166.3Y-100.75
X166.31Y-83.65
X166.37Y-76.04
X166.522Y-70.663
X166.65Y-64.04
X166.65Y-67.9
X166.66Y-63.46
X166.813Y-93.438
X166.84Y-95.49
X166.9Y-114.7
X166.91Y-115.3
X167.28Y-101.627
X167.31Y-70.86
X167.53Y-109.1
X167.58Y-107.39
X167.72Y-84.27
X167.74Y-83.68
X167.765Y-84.855
X167.78Y-108.67
X167.95Y-70.86
X167.98Y-97.2
X168.0Y-86.75
X168.0Y-91.25
X168.05Y-89.75
X168.1Y-67.8
X168.11Y-66.2
X168.17Y-82.35
X168.22Y-85.735
X168.22Y-108.19
X168.24Y-107.28
X168.25Y-101.47
X168.69Y-94.6
X168.78Y-69.91
X168.78Y-89.05
X168.8Y-87.25
X168.8Y-87.75
X168.8Y-90.74
X168.93Y-90.3
X168.961Y-71.374
X169.05Y-107.24
X169.07Y-88.7
X169.12Y-89.85
X169.15Y-89.31
X169.16Y-86.22
X169.17Y-92.73
X169.26Y-76.32
X169.4Y-110.2
X169.42Y-88.1
X169.45Y-69.55
X169.45Y-70.55
X169.64Y-76.01
X169.677Y-110.96
X169.677Y-111.61
X169.69Y-107.24
X169.72Y-81.98
X169.77Y-88.405
X169.8Y-94.9
X170.09Y-100.44
X170.12Y-85.25
X170.14Y-86.21
X170.15Y-115.34
X170.24Y-87.21
X170.28Y-87.7
X170.5Y-114.9
X170.55Y-100.44
X170.6Y-64.6
X170.6Y-67.8
X170.69Y-78.25
X170.7Y-82.9
X170.7Y-101.47
X170.97Y-107.38
X170.976Y-108.376
X170.99Y-98.63
X171.1Y-85.65
X171.13Y-82.34
X171.15Y-78.42
X171.18Y-82.79
X171.2Y-86.2
X171.21Y-95.15
X171.24Y-108.76
X171.34Y-100.75
X171.35Y-70.86
X171.37Y-107.13
X171.4Y-98.9
X171.59Y-93.5
X171.59Y-95.7
X171.59Y-96.8
X171.6Y-94.6
X171.62Y-108.19
X171.64Y-101.627
X171.64Y-106.045
X172.0Y-79.197
X172.05Y-92.85
X172.08Y-97.23
X172.1Y-110.55
X172.18Y-69.91
X172.2Y-111.71
X172.212Y-71.577
X172.22Y-81.02
X172.23Y-67.22
X172.29Y-76.08
X172.44Y-76.59
X172.45Y-107.24
X172.55Y-100.4
X172.61Y-93.5
X172.61Y-95.7
X172.61Y-96.8
X172.62Y-94.6
X172.62Y-83.078
X172.8Y-81.08
X172.82Y-70.74
X172.875Y-69.625
X172.97Y-78.208
X173.08Y-100.78
X173.09Y-101.32
X173.09Y-107.24
X173.15Y-67.22
X173.15Y-96.85
X173.19Y-111.9
X173.2Y-94.6
X173.2Y-113.2
X173.23Y-95.7
X173.45Y-73.85
X173.59Y-94.05
X173.59Y-95.15
X173.59Y-96.25
X173.59Y-97.4
X173.6Y-78.04
X173.75Y-101.27
X174.08Y-101.627
X174.1Y-97.72
X174.1Y-110.95
X174.11Y-70.86
X174.14Y-111.41
X174.37Y-107.35
X174.39Y-110.25
X174.5Y-63.6
X174.6Y-95.2
X174.6Y-114.5
X174.61Y-94.05
X174.61Y-96.25
X174.61Y-97.4
X174.7Y-112.45
X174.75Y-70.86
X174.93Y-109.8
X174.95Y-63.43
X175.02Y-108.19
X175.04Y-101.627
X175.04Y-107.3
X175.1Y-66.82
X175.2Y-94.5
X175.4Y-94.05
X175.48Y-83.01
X175.5Y-100.9
X175.56Y-71.018
X175.58Y-69.91
X175.58Y-114.5
X175.7Y-113.5
X175.71Y-78.188
X175.85Y-107.24
X175.95Y-67.75
X176.01Y-100.95
X176.02Y-76.59
X176.2Y-69.7
X176.22Y-70.74
X176.49Y-107.24
X176.52Y-76.472
X176.66Y-101.23
X176.8Y-67.8
X176.82Y-73.94
X176.93Y-113.37
X176.93Y-114.33
X176.99Y-111.28
X177.07Y-63.77
X177.07Y-64.73
X177.1Y-101.35
X177.21Y-73.63
X177.35Y-66.75
X177.48Y-101.627
X177.51Y-70.86
X177.58Y-81.07
X177.78Y-107.36
X177.79Y-78.567
X177.88Y-81.43
X178.1Y-81.0
X178.15Y-70.86
X178.3Y-64.6
X178.3Y-89.0
X178.42Y-63.6
X178.42Y-108.19
X178.45Y-101.47
X178.47Y-107.23
X178.865Y-101.035
X178.89Y-111.1
X178.97Y-114.66
X178.98Y-69.91
X179.08Y-65.1
X179.172Y-71.577
X179.25Y-107.24
X179.4Y-64.7
X179.41Y-69.43
X179.41Y-101.0
X179.5Y-65.5
X179.5Y-114.5
X179.53Y-76.47
X179.63Y-70.75
X179.74Y-69.82
X179.89Y-107.24
X179.9Y-100.95
X179.92Y-75.88
X180.8Y-64.9
X180.85Y-84.5
X180.85Y-104.15
X180.85Y-110.88
X180.9Y-101.47
X180.91Y-70.86
X181.06Y-66.22
X181.18Y-107.36
X181.53Y-86.99
X181.55Y-70.86
X181.77Y-110.88
X181.8Y-66.39
X181.8Y-94.97
X181.82Y-108.19
X181.84Y-101.627
X181.84Y-106.045
X181.87Y-92.44
X182.3Y-67.25
X182.3Y-101.0
X182.35Y-66.4
X182.36Y-71.577
X182.38Y-70.09
X182.65Y-107.24
X182.77Y-76.68
X182.84Y-100.91
X182.87Y-66.47
X183.03Y-70.72
X183.1Y-69.68
X183.3Y-62.91
X183.3Y-101.0
X183.32Y-76.63
X183.4Y-110.3
X183.4Y-113.5
X183.525Y-86.99
X183.525Y-94.99
X183.72Y-63.24
X184.035Y-84.99
X184.06Y-83.83
X184.09Y-85.56
X184.22Y-63.47
X184.28Y-101.627
X184.31Y-70.86
X184.323Y-66.49
X184.323Y-67.14
X184.525Y-86.99
X184.525Y-94.99
X184.55Y-107.55
X184.84Y-67.72
X184.845Y-84.48
X184.95Y-70.86
X185.22Y-108.19
X185.24Y-101.627
X185.525Y-82.99
X185.525Y-83.99
X185.525Y-90.99
X185.525Y-91.99
X185.7Y-101.0
X185.76Y-71.018
X185.76Y-76.61
X185.78Y-69.91
X185.89Y-111.9
X185.9Y-110.3
X186.05Y-107.24
X186.07Y-82.09
X186.1Y-91.71
X186.42Y-70.71
X186.5Y-69.7
X186.61Y-81.43
X186.615Y-85.78
X186.69Y-101.737
X186.69Y-107.24
X186.72Y-76.472
X186.85Y-82.1
X186.85Y-95.45
X187.25Y-81.48
X187.562Y-86.145
X187.63Y-113.64
X187.679Y-101.629
X187.71Y-70.86
X187.71Y-81.48
X187.77Y-90.76
X187.97Y-107.55
X188.13Y-113.65
X188.15Y-107.13
X188.17Y-81.49
X188.35Y-70.86
X188.41Y-86.16
X188.45Y-67.8
X188.58Y-87.86
X188.62Y-108.19
X188.63Y-100.9
X188.67Y-107.1
X188.69Y-81.48
X188.85Y-94.8
X188.99Y-78.48
X188.99Y-91.4
X189.035Y-87.57
X189.06Y-79.52
X189.18Y-69.91
X189.24Y-67.8
X189.28Y-75.9
X189.382Y-71.577
X189.415Y-85.98
X189.45Y-107.24
X189.45Y-111.45
X189.58Y-78.56
X189.67Y-70.5
X189.68Y-69.92
X189.865Y-85.98
X189.89Y-89.99
X189.99Y-75.9
X190.0Y-88.77
X190.0Y-91.4
X190.02Y-114.57
X190.12Y-64.0
X190.16Y-101.752
X190.19Y-78.71
X190.24Y-110.15
X190.3Y-111.09
X190.3Y-113.11
X190.5Y-100.9
X190.525Y-82.99
X190.525Y-83.79
X190.525Y-84.59
X190.525Y-85.39
X190.525Y-87.79
X190.525Y-88.59
X190.525Y-89.39
X190.525Y-90.19
X190.525Y-90.99
X190.525Y-94.99
X190.55Y-67.8
X190.67Y-101.77
X190.7Y-112.71
X190.72Y-78.13
X190.81Y-110.14
X190.91Y-78.67
X190.98Y-102.56
X190.98Y-114.57
X191.08Y-64.0
X191.09Y-79.52
X191.16Y-100.38
X191.27Y-113.11
X191.325Y-85.39
X191.325Y-87.79
X191.325Y-88.59
X191.325Y-89.39
X191.325Y-90.19
X191.325Y-92.59
X191.325Y-94.99
X191.38Y-110.18
X191.4Y-100.78
X191.52Y-78.66
X191.55Y-75.2
X191.62Y-103.56
X191.63Y-100.38
X191.7Y-71.3
X191.72Y-113.1
X191.94Y-79.52
X191.95Y-102.56
X191.98Y-81.45
X192.0Y-80.35
X192.03Y-97.41
X192.08Y-67.09
X192.09Y-69.675
X192.09Y-70.98
X192.11Y-68.39
X192.125Y-87.79
X192.125Y-88.59
X192.125Y-89.39
X192.125Y-90.99
X192.13Y-86.99
X192.2Y-99.5
X192.23Y-75.18
X192.44Y-79.1
X192.5Y-80.4
X192.55Y-89.76
X192.55Y-92.15
X192.6Y-100.25
X192.61Y-81.39
X192.637Y-66.425
X192.637Y-106.475
X192.75Y-113.5
X192.786Y-96.52
X192.8Y-97.1
X192.8Y-98.16
X192.82Y-79.47
X192.9Y-98.6
X192.925Y-88.59
X192.925Y-89.39
X192.925Y-91.79
X192.925Y-92.59
X192.925Y-94.19
X192.99Y-97.62
X193.11Y-80.47
X193.17Y-105.85
X193.18Y-67.74
X193.19Y-70.325
X193.19Y-71.63
X193.2Y-69.04
X193.23Y-80.93
X193.24Y-73.575
X193.34Y-90.28
X193.34Y-91.24
X193.35Y-92.3
X193.41Y-80.08
X193.43Y-97.72
X193.46Y-89.68
X193.5Y-78.45
X193.5Y-96.46
X193.5Y-99.62
X193.5Y-100.58
X193.52Y-95.78
X193.59Y-68.04
X193.6Y-63.71
X193.6Y-69.35
X193.61Y-70.65
X193.65Y-75.2
X193.69Y-105.78
X193.71Y-73.59
X193.72Y-84.59
X193.725Y-82.99
X193.725Y-83.79
X193.725Y-85.39
X193.725Y-88.59
X193.725Y-93.39
X193.725Y-94.19
X193.725Y-94.99
X193.75Y-82.0
X193.75Y-105.2
X193.8Y-111.205
X193.83Y-64.12
X193.88Y-97.82
X193.95Y-78.65
X194.0Y-64.54
X194.06Y-87.43
X194.13Y-110.86
X194.16Y-92.16
X194.4Y-110.5
X194.525Y-84.59
X194.525Y-86.99
X194.525Y-87.79
X194.525Y-88.59
X194.525Y-89.39
X194.525Y-90.19
X194.525Y-92.59
X194.525Y-94.99
X194.526Y-90.99
X194.53Y-85.39
X194.6Y-71.9
X194.6Y-79.35
X194.65Y-78.65
X194.74Y-75.7
X194.8Y-66.8
X194.9Y-66.25
X194.92Y-98.56
X194.925Y-100.175
X194.93Y-91.95
X194.95Y-64.6
X194.99Y-111.51
X195.13Y-78.7
X195.2Y-103.812
X195.2Y-109.61
X195.21Y-102.41
X195.27Y-66.57
X195.325Y-79.12
X195.325Y-83.79
X195.325Y-84.59
X195.325Y-85.39
X195.325Y-87.79
X195.325Y-88.59
X195.325Y-89.39
X195.325Y-90.19
X195.325Y-92.59
X195.325Y-93.39
X195.325Y-94.99
X195.326Y-90.99
X195.5Y-96.5
X195.5Y-111.45
X195.725Y-86.99
X195.8Y-68.49
X195.8Y-74.287
X196.05Y-113.5
X196.125Y-82.99
X196.125Y-86.19
X196.125Y-87.79
X196.125Y-88.59
X196.125Y-89.39
X196.125Y-90.19
X196.125Y-90.99
X196.125Y-92.59
X196.125Y-93.39
X196.125Y-94.19
X196.17Y-102.41
X196.2Y-103.2
X196.39Y-97.67
X196.4Y-97.2
X196.525Y-86.99
X196.55Y-96.45
X196.68Y-77.08
X196.7Y-73.2
X196.7Y-82.2
X196.85Y-71.15
X196.92Y-86.19
X196.925Y-83.79
X196.925Y-84.59
X196.925Y-85.39
X196.925Y-87.79
X196.925Y-88.59
X196.925Y-89.39
X196.925Y-90.19
X196.925Y-90.99
X196.925Y-92.59
X196.925Y-94.19
X196.925Y-94.99
X197.15Y-102.9
X197.25Y-97.68
X197.33Y-76.91
X197.34Y-70.44
X197.38Y-69.34
X197.38Y-110.71
X197.39Y-108.1
X197.39Y-109.41
X197.4Y-66.74
X197.4Y-68.05
X197.4Y-106.81
X197.45Y-84.2
X197.45Y-100.15
X197.59Y-97.09
X197.7Y-103.8
X197.725Y-84.59
X197.725Y-85.39
X197.725Y-86.99
X197.725Y-87.79
X197.725Y-88.59
X197.725Y-89.39
X197.725Y-90.19
X197.725Y-90.99
X197.725Y-91.79
X197.725Y-93.39
X197.725Y-94.19
X197.725Y-94.99
X197.79Y-97.51
X197.8Y-67.08
X197.81Y-68.38
X197.82Y-69.69
X197.83Y-111.04
X197.92Y-100.54
X197.92Y-109.73
X197.94Y-108.43
X198.0Y-107.125
X198.44Y-99.67
X198.5Y-112.42
X198.525Y-82.99
X198.525Y-84.59
X198.525Y-86.99
X198.525Y-87.79
X198.525Y-88.59
X198.525Y-89.39
X198.525Y-90.19
X198.525Y-90.99
X198.525Y-91.79
X198.525Y-93.39
X198.525Y-94.19
X198.525Y-94.99
X198.56Y-97.42
X198.64Y-114.31
X198.65Y-78.85
X198.69Y-109.07
X198.7Y-106.49
X198.7Y-107.78
X198.76Y-99.25
X198.88Y-70.325
X198.9Y-67.73
X198.9Y-103.8
X198.92Y-66.43
X198.92Y-69.02
X198.93Y-110.34
X199.05Y-98.87
X199.1Y-114.65
X199.2Y-96.0
X199.28Y-97.36
X199.31Y-108.06
X199.325Y-82.99
X199.325Y-84.59
X199.325Y-85.39
X199.325Y-86.19
X199.325Y-86.99
X199.325Y-92.59
X199.325Y-93.39
X199.325Y-94.19
X199.33Y-110.12
X199.339Y-103.581
X199.34Y-74.49
X199.35Y-64.66
X199.36Y-66.73
X199.41Y-70.38
X199.51Y-99.23
X199.57Y-70.84
X199.65Y-97.638
X199.7Y-90.4
X199.75Y-85.75
X199.78Y-89.79
X199.79Y-88.99
X199.81Y-64.99
X199.88Y-105.66
X199.88Y-106.62
X199.95Y-96.0
X199.99Y-99.36
X200.02Y-63.53
X200.06Y-110.25
X200.125Y-83.79
X200.125Y-86.19
X200.125Y-86.99
X200.125Y-88.59
X200.125Y-91.79
X200.125Y-92.59
X200.125Y-93.39
X200.125Y-94.19
X200.125Y-94.99
X200.3Y-65.39
X200.3Y-66.7
X200.355Y-96.266
X200.44Y-73.82
X200.44Y-74.27
X200.55Y-86.6
X200.57Y-89.11
X200.6Y-97.35
X200.64Y-99.32
X200.7Y-64.99
X200.74Y-73.38
X200.762Y-104.1
X200.762Y-105.41
X200.79Y-113.66
X200.82Y-96.12
X200.88Y-102.21
X200.925Y-82.99
X200.925Y-85.39
X200.925Y-86.19
X200.925Y-86.99
X200.925Y-88.59
X200.925Y-89.39
X200.925Y-90.19
X200.925Y-94.19
X200.925Y-94.99
X200.98Y-63.53
X201.0Y-77.2
X201.17Y-97.82
X201.22Y-94.61
X201.3Y-96.25
X201.41Y-106.98
X201.46Y-97.37
X201.55Y-66.8
X201.55Y-70.86
X201.676Y-102.565
X201.701Y-106.629
X201.71Y-99.01
X201.725Y-82.99
X201.725Y-83.79
X201.725Y-85.39
X201.725Y-86.19
X201.725Y-88.59
X201.725Y-89.39
X201.725Y-90.19
X201.725Y-90.99
X201.725Y-92.59
X201.725Y-94.99
X201.8Y-97.95
X201.82Y-108.19
X201.9Y-77.2
X202.12Y-81.21
X202.15Y-71.04
X202.265Y-100.925
X202.336Y-76.606
X202.38Y-69.91
X202.42Y-99.01
X202.525Y-82.99
X202.525Y-86.19
X202.525Y-88.59
X202.525Y-89.39
X202.525Y-90.19
X202.525Y-90.99
X202.525Y-91.79
X202.525Y-94.99
X202.6Y-64.5
X202.6Y-100.52
X202.65Y-107.24
X202.75Y-100.95
X202.82Y-70.96
X202.89Y-112.74
X202.9Y-98.9
X203.03Y-70.55
X203.1Y-69.6
X203.14Y-95.93
X203.26Y-90.19
X203.29Y-107.24
X203.35Y-113.16
X203.43Y-75.88
X203.43Y-88.745
X203.53Y-91.6
X203.53Y-95.62
X203.556Y-102.616
X203.56Y-98.74
X203.85Y-88.25
X203.875Y-87.528
X204.01Y-91.62
X204.08Y-106.92
X204.095Y-97.265
X204.17Y-96.43
X204.19Y-87.86
X204.2Y-95.75
X204.22Y-94.32
X204.23Y-93.59
X204.28Y-102.21
X204.3Y-77.2
X204.3Y-90.5
X204.31Y-70.86
X204.32Y-89.23
X204.5Y-108.4
X204.58Y-107.39
X204.59Y-96.82
X204.88Y-100.63
X204.89Y-94.44
X204.89Y-96.19
X204.9Y-98.5
X204.91Y-97.16
X204.93Y-93.62
X204.95Y-70.86
X205.1Y-67.8
X205.1Y-111.55
X205.11Y-66.2
X205.22Y-108.19
X205.23Y-100.3
X205.24Y-101.498
X205.24Y-107.25
X205.3Y-77.2
X205.33Y-81.8
X205.45Y-96.68
X205.46Y-98.56
X205.56Y-93.95
X205.66Y-81.39
X205.66Y-100.96
X205.78Y-69.91
X205.79Y-94.39
X205.9Y-98.75
X205.943Y-76.302
X206.1Y-70.94
X206.18Y-101.0
X206.45Y-69.55
X206.45Y-70.55
X206.49Y-89.19
X206.677Y-110.96
X206.677Y-111.61
X206.68Y-93.1
X206.69Y-100.91
X206.69Y-107.24
X206.705Y-105.918
X206.73Y-75.89
X206.807Y-102.768
X206.858Y-102.311
X207.04Y-89.18
X207.04Y-93.39
X207.49Y-89.2
X207.6Y-64.6
X207.6Y-67.8
X207.65Y-111.9
X207.7Y-77.2
X207.97Y-107.38
X207.976Y-108.376
X208.35Y-70.86
X208.45Y-90.45
X208.49Y-93.9
X208.49Y-100.91
X208.52Y-107.23
X208.55Y-85.9
X208.62Y-108.19
X208.65Y-112.5
X208.71Y-77.2
X208.74Y-80.95
X208.75Y-101.905
X208.76Y-101.27
X208.91Y-81.74
X208.91Y-94.09
X209.07Y-100.9
X209.12Y-81.27
X209.144Y-76.302
X209.15Y-111.13
X209.16Y-71.46
X209.18Y-69.91
X209.23Y-67.22
X209.23Y-98.2
X209.296Y-68.021
X209.45Y-107.24
X209.535Y-69.285
X209.68Y-98.19
X209.7Y-80.2
X209.71Y-69.72
X209.82Y-70.74
X210.04Y-100.9
X210.09Y-107.24
X210.1Y-76.6
X210.1Y-94.25
X210.1Y-113.95
X210.15Y-67.22
X210.2Y-81.2
X210.2Y-83.25
X210.2Y-87.75
X210.2Y-89.25
X210.2Y-92.25
X210.3Y-73.75
X210.3Y-93.75
X210.5Y-100.75
X210.92Y-98.2
X211.0Y-100.8
X211.0Y-110.9
X211.016Y-110.384
X211.023Y-102.819
X211.023Y-105.461
X211.08Y-102.21
X211.1Y-77.2
X211.11Y-70.86
X211.26Y-90.024
X211.27Y-90.5
X211.3Y-108.45
X211.36Y-84.84
X211.37Y-107.35
X211.371Y-85.789
X211.42Y-89.29
X211.48Y-86.961
X211.48Y-63.44
X211.48Y-88.65
X211.48Y-98.18
X211.5Y-88.15
X211.5Y-100.8
X211.55Y-92.17
X211.6Y-114.5
X211.64Y-110.56
X211.68Y-84.519
X211.689Y-85.471
X211.7Y-69.25
X211.75Y-70.86
X211.75Y-80.75
X211.798Y-86.643
X211.85Y-87.8
X211.9Y-101.02
X211.93Y-110.21
X211.938Y-101.803
X212.0Y-63.44
X212.02Y-108.19
X212.04Y-107.22
X212.1Y-77.2
X212.11Y-67.06
X212.17Y-81.051
X212.39Y-110.45
X212.5Y-92.5
X212.5Y-95.25
X212.547Y-76.606
X212.56Y-71.04
X212.58Y-69.91
X212.58Y-114.5
X212.6Y-96.2
X212.6Y-101.2
X212.7Y-94.3
X212.71Y-83.13
X212.73Y-84.65
X212.74Y-87.9
X212.76Y-88.5
X212.8Y-84.2
X213.01Y-100.91
X213.15Y-85.25
X213.2Y-69.7
X213.22Y-70.74
X213.35Y-81.06
X213.49Y-101.1
X213.49Y-107.24
X213.51Y-75.89
X213.65Y-68.0
X213.665Y-105.766
X213.8Y-81.75
X213.8Y-82.75
X213.8Y-83.25
X213.8Y-86.75
X213.8Y-88.25
X213.8Y-89.75
X213.8Y-95.75
X213.86Y-78.39
X213.895Y-79.895
X213.93Y-114.33
X213.99Y-111.28
X214.018Y-67.543
X214.05Y-63.12
X214.05Y-64.08
X214.427Y-102.87
X214.48Y-79.63
X214.48Y-102.21
X214.51Y-70.86
X214.69Y-81.23
X214.78Y-107.36
X214.8Y-108.4
X214.87Y-89.44
X215.02Y-113.85
X215.041Y-86.19
X215.09Y-79.37
X215.15Y-70.86
X215.19Y-108.8
X215.2Y-84.5
X215.3Y-64.6
X215.3Y-81.7
X215.36Y-85.84
X215.4Y-82.6
X215.42Y-63.6
X215.42Y-108.19
X215.45Y-101.498
X215.56Y-107.24
X215.751Y-87.859
X215.865Y-100.9
X215.9Y-76.657
X215.9Y-111.09
X215.98Y-69.91
X215.99Y-69.28
X216.0Y-92.7
X216.069Y-87.541
X216.17Y-71.9
X216.2Y-66.9
X216.249Y-73.9
X216.3Y-68.0
X216.33Y-100.91
X216.4Y-64.65
X216.5Y-91.8
X216.5Y-114.5
X216.6Y-67.5
X216.6Y-94.2
X216.63Y-70.75
X216.679Y-93.379
X216.7Y-69.65
X216.71Y-73.96
X216.865Y-105.969
X216.89Y-107.24
X216.91Y-100.91
X216.916Y-102.21
X216.916Y-102.667
X216.92Y-75.88
X216.92Y-111.09
X216.93Y-76.54
X216.99Y-74.38
X217.1Y-71.15
X217.1Y-91.7
X217.145Y-91.055
X217.3Y-94.2
X217.4Y-92.7
X217.4Y-93.6
X217.42Y-94.97
X217.44Y-104.851
X217.455Y-98.755
X217.49Y-98.3
X217.5Y-84.65
X217.55Y-85.4
X217.8Y-64.9
X217.8Y-85.01
X217.81Y-66.2
X217.85Y-110.88
X217.9Y-88.3
X217.91Y-70.86
X218.125Y-108.475
X218.18Y-107.36
X218.25Y-87.9
X218.5Y-91.75
X218.5Y-94.2
X218.5Y-94.93
X218.5Y-95.8
X218.55Y-70.86
X218.55Y-108.79
X218.6Y-92.6
X218.6Y-93.5
X218.61Y-100.82
X218.661Y-97.239
X218.77Y-110.88
X218.8Y-66.39
X218.82Y-108.19
X218.84Y-101.627
X218.84Y-106.64
X218.85Y-89.89
X218.9Y-96.2
X218.9Y-109.1
X219.0Y-91.25
X219.1Y-94.93
X219.1Y-98.9
X219.25Y-95.8
X219.26Y-97.88
X219.265Y-101.1
X219.3Y-89.78
X219.3Y-93.5
X219.36Y-71.82
X219.38Y-69.91
X219.4Y-110.2
X219.405Y-76.454
X219.5Y-90.75
X219.5Y-91.7
X219.5Y-92.8
X219.5Y-94.1
X219.6Y-94.93
X219.63Y-114.33
X219.82Y-86.28
X219.93Y-89.74
X220.024Y-69.724
X220.03Y-70.72
X220.17Y-99.68
X220.2Y-81.17
X220.26Y-96.9
X220.27Y-112.33
X220.28Y-79.97
X220.28Y-90.12
X220.29Y-101.3
X220.3Y-110.9
X220.32Y-76.62
X220.35Y-113.67
X220.37Y-62.72
X220.65Y-87.3
X220.69Y-101.09
X220.796Y-90.206
X220.8Y-93.1
X220.8Y-96.42
X220.84Y-91.71
X220.88Y-91.06
X220.9Y-93.7
X220.9Y-94.9
X221.0Y-101.49
X221.039Y-86.661
X221.125Y-99.475
X221.2Y-92.5
X221.28Y-102.21
X221.31Y-70.86
X221.323Y-66.49
X221.323Y-67.14
X221.34Y-91.18
X221.4Y-94.6
X221.4Y-98.1
X221.49Y-91.65
X221.5Y-92.9
X221.55Y-107.55
X221.55Y-108.55
X221.6Y-67.9
X221.68Y-99.48
X221.7Y-97.7
X221.9Y-94.3
X221.95Y-70.86
X222.03Y-92.12
X222.22Y-108.19
X222.24Y-101.627
X222.261Y-98.861
X222.3Y-89.4
X222.361Y-93.461
X222.38Y-107.23
X222.39Y-88.78
X222.47Y-92.28
X222.67Y-79.32
X222.67Y-101.1
X222.76Y-71.018
X222.78Y-69.91
X222.8Y-89.4
X222.809Y-76.606
X222.89Y-111.9
X223.039Y-94.139
X223.2Y-101.08
X223.42Y-70.71
X223.5Y-69.7
X223.52Y-93.53
X223.639Y-96.461
X223.69Y-101.3
X223.69Y-107.24
X223.75Y-75.89
X223.78Y-78.51
X224.028Y-106.02
X224.07Y-91.6
X224.1Y-66.3
X224.11Y-66.81
X224.11Y-67.27
X224.24Y-110.37
X224.272Y-97.1
X224.282Y-102.718
X224.39Y-86.69
X224.4Y-95.0
X224.41Y-113.31
X224.5Y-92.1
X224.536Y-102.21
X224.577Y-96.021
X224.64Y-86.1
X224.679Y-93.279
X224.71Y-70.86
X224.9Y-108.5
X224.93Y-94.56
X224.97Y-107.55
X224.98Y-97.91
X225.01Y-83.31
X225.08Y-87.89
X225.16Y-107.13
X225.26Y-83.74
X225.35Y-70.86
X225.38Y-98.34
X225.4Y-63.1
X225.4Y-113.6
X225.43Y-66.2
X225.52Y-88.8
X225.62Y-108.19
X225.63Y-101.498
X225.75Y-99.55
X225.77Y-91.878
X225.779Y-97.223
X225.785Y-85.455
X225.82Y-81.54
X225.878Y-99.99
X225.89Y-107.25
X226.07Y-101.0
X226.13Y-99.3
X226.17Y-78.18
X226.18Y-69.91
X226.18Y-88.71
X226.212Y-76.454
X226.25Y-90.0
X226.37Y-83.56
X226.466Y-71.831
X226.5Y-95.8
X226.65Y-111.85
X226.68Y-83.03
X226.72Y-111.06
X226.74Y-101.3
X226.8Y-112.69
X227.02Y-114.57
X227.09Y-101.737
X227.13Y-70.73
X227.14Y-111.55
X227.15Y-75.88
X227.3Y-113.11
X227.7Y-112.71
X227.71Y-99.31
X227.72Y-98.35
X228.0Y-71.8
X228.04Y-74.59
X228.29Y-107.72
X228.29Y-108.2
X228.3Y-90.2
X228.5Y-88.02
X228.55Y-75.1
X228.85Y-89.35
X228.9Y-81.75
X229.0Y-87.68
X229.035Y-112.15
X229.16Y-93.43
X229.3Y-67.12
X229.35Y-77.8
X229.6Y-97.6
X229.675Y-112.15
X229.7Y-93.85
X229.75Y-110.65
X229.9Y-83.0
X229.96Y-91.647
X230.0Y-71.3
X230.0Y-95.5
X230.01Y-81.83
X230.39Y-83.34
X230.54Y-95.09
X230.61Y-82.06
X230.65Y-75.1
X230.65Y-109.85
X230.7Y-70.48
X231.0Y-87.68
X231.025Y-100.505
X231.22Y-91.9
X231.4Y-89.29
X231.42Y-83.39
X231.45Y-82.75
X231.478Y-74.25
X231.62Y-100.19
X231.93Y-100.63
X231.95Y-78.6
X231.98Y-79.16
X232.11Y-85.24
X232.12Y-89.5
X232.18Y-108.62
X232.21Y-109.37
X232.4Y-92.4
X232.41Y-91.9
X232.595Y-77.065
X232.84Y-96.25
X232.85Y-93.79
X232.85Y-98.45
X232.912Y-87.2
X232.912Y-90.8
X233.1Y-89.5
X233.115Y-88.5
X233.24Y-100.03
X233.241Y-99.241
X233.3Y-98.4
X233.42Y-92.0
X233.559Y-99.559
X233.8Y-105.95
X233.85Y-101.142
X234.085Y-88.5
X234.085Y-89.5
X234.375Y-82.7
X234.375Y-84.2
X234.438Y-76.65
X234.9Y-105.21
X234.91Y-95.19
X234.91Y-105.87
X235.2Y-91.95
X235.3Y-91.0
X235.37Y-84.22
X235.4Y-95.19
X235.45Y-88.0
X235.7Y-82.55
X235.75Y-90.75
X235.76Y-85.45
X235.76Y-88.36
X236.15Y-102.05
X236.64Y-102.05
X237.3Y-88.75
X237.305Y-89.75
X238.4Y-81.45
X239.21Y-73.51
X239.35Y-92.55
X239.7Y-89.15
X239.74Y-88.62
X240.3Y-94.7
X240.55Y-70.91
X240.63Y-94.1
X240.8Y-71.39
X241.0Y-94.555
X241.1Y-93.8
X241.24Y-71.61
X242.387Y-95.6
X242.387Y-97.5
X242.387Y-99.4
X242.387Y-101.3
X242.387Y-103.2
X242.388Y-74.8
X242.388Y-76.7
X242.388Y-78.6
X242.388Y-80.5
X242.388Y-82.4
X242.57Y-92.15
X242.7Y-91.67
T2
X158.175Y-97.3
X160.9Y-80.3
X162.3Y-77.4
X164.775Y-106.774
X184.836Y-106.629
X194.6Y-72.93
X194.6Y-80.2
X211.4Y-95.9
X220.3Y-80.5
X223.2Y-78.9
X223.9Y-83.6
X223.9Y-89.0
X230.475Y-89.237
X231.8Y-85.8
X232.2Y-93.8
X232.2Y-96.45
X232.825Y-84.2
X235.7Y-84.7
T3
X220.73Y-63.21
T5
X233.0Y-113.284
X234.5Y-115.134
X236.0Y-113.284
T6
X153.0Y-87.725
X153.0Y-90.265
X233.0Y-69.46
X233.0Y-72.0
X235.54Y-69.46
X235.54Y-72.0
T7
X155.0Y-66.0
X155.0Y-112.0
X241.0Y-66.0
X241.0Y-112.0
T4
G00X237.67Y-84.68
M15
G01X238.77Y-84.68
M16
G05
G00X237.67Y-93.32
M15
G01X238.77Y-93.32
M16
G05
G00X242.1Y-84.68
M15
G01X242.7Y-84.68
M16
G05
G00X242.1Y-93.32
M15
G01X242.7Y-93.32
M16
G05
M30
