G04 #@! TF.GenerationSoftware,KiCad,Pcbnew,10.0.5+dfsg-1*
G04 #@! TF.CreationDate,2026-09-25T10:09:44+00:00*
G04 #@! TF.ProjectId,glasgow,676c6173-676f-4772-9e6b-696361645f70,rev?*
G04 #@! TF.SameCoordinates,Original*
G04 #@! TF.FileFunction,Legend,Top*
G04 #@! TF.FilePolarity,Positive*
%FSLAX46Y46*%
G04 Gerber Fmt 4.6, Leading zero omitted, Abs format (unit mm)*
G04 Created by KiCad (PCBNEW 10.0.5+dfsg-1) date 2026-09-25 10:09:44*
%MOMM*%
%LPD*%
G01*
G04 APERTURE LIST*
%ADD10C,0.100000*%
%ADD11C,0.120000*%
%ADD12C,0.110000*%
%ADD13C,0.140000*%
%ADD14C,0.200000*%
%ADD15C,0.250000*%
%ADD16C,0.150000*%
G04 #@! TA.AperFunction,Profile*
%ADD17C,0.050000*%
G04 #@! TD*
G04 APERTURE END LIST*
D10*
X237570000Y-71980000D02*
X236500000Y-71980000D01*
D11*
X192806089Y-81330760D02*
X192720375Y-81373617D01*
X192720375Y-81373617D02*
X192548947Y-81373617D01*
X192548947Y-81373617D02*
X192463232Y-81330760D01*
X192463232Y-81330760D02*
X192420375Y-81245045D01*
X192420375Y-81245045D02*
X192420375Y-80902188D01*
X192420375Y-80902188D02*
X192463232Y-80816474D01*
X192463232Y-80816474D02*
X192548947Y-80773617D01*
X192548947Y-80773617D02*
X192720375Y-80773617D01*
X192720375Y-80773617D02*
X192806089Y-80816474D01*
X192806089Y-80816474D02*
X192848947Y-80902188D01*
X192848947Y-80902188D02*
X192848947Y-80987902D01*
X192848947Y-80987902D02*
X192420375Y-81073617D01*
X193234661Y-80773617D02*
X193234661Y-81373617D01*
X193234661Y-80859331D02*
X193277518Y-80816474D01*
X193277518Y-80816474D02*
X193363233Y-80773617D01*
X193363233Y-80773617D02*
X193491804Y-80773617D01*
X193491804Y-80773617D02*
X193577518Y-80816474D01*
X193577518Y-80816474D02*
X193620376Y-80902188D01*
X193620376Y-80902188D02*
X193620376Y-81373617D01*
X194434662Y-80773617D02*
X194434662Y-81502188D01*
X194434662Y-81502188D02*
X194391804Y-81587902D01*
X194391804Y-81587902D02*
X194348947Y-81630760D01*
X194348947Y-81630760D02*
X194263233Y-81673617D01*
X194263233Y-81673617D02*
X194134662Y-81673617D01*
X194134662Y-81673617D02*
X194048947Y-81630760D01*
X194434662Y-81330760D02*
X194348947Y-81373617D01*
X194348947Y-81373617D02*
X194177519Y-81373617D01*
X194177519Y-81373617D02*
X194091804Y-81330760D01*
X194091804Y-81330760D02*
X194048947Y-81287902D01*
X194048947Y-81287902D02*
X194006090Y-81202188D01*
X194006090Y-81202188D02*
X194006090Y-80945045D01*
X194006090Y-80945045D02*
X194048947Y-80859331D01*
X194048947Y-80859331D02*
X194091804Y-80816474D01*
X194091804Y-80816474D02*
X194177519Y-80773617D01*
X194177519Y-80773617D02*
X194348947Y-80773617D01*
X194348947Y-80773617D02*
X194434662Y-80816474D01*
X194863233Y-81373617D02*
X194863233Y-80773617D01*
X194863233Y-80473617D02*
X194820376Y-80516474D01*
X194820376Y-80516474D02*
X194863233Y-80559331D01*
X194863233Y-80559331D02*
X194906090Y-80516474D01*
X194906090Y-80516474D02*
X194863233Y-80473617D01*
X194863233Y-80473617D02*
X194863233Y-80559331D01*
X195291804Y-80773617D02*
X195291804Y-81373617D01*
X195291804Y-80859331D02*
X195334661Y-80816474D01*
X195334661Y-80816474D02*
X195420376Y-80773617D01*
X195420376Y-80773617D02*
X195548947Y-80773617D01*
X195548947Y-80773617D02*
X195634661Y-80816474D01*
X195634661Y-80816474D02*
X195677519Y-80902188D01*
X195677519Y-80902188D02*
X195677519Y-81373617D01*
X196448947Y-81330760D02*
X196363233Y-81373617D01*
X196363233Y-81373617D02*
X196191805Y-81373617D01*
X196191805Y-81373617D02*
X196106090Y-81330760D01*
X196106090Y-81330760D02*
X196063233Y-81245045D01*
X196063233Y-81245045D02*
X196063233Y-80902188D01*
X196063233Y-80902188D02*
X196106090Y-80816474D01*
X196106090Y-80816474D02*
X196191805Y-80773617D01*
X196191805Y-80773617D02*
X196363233Y-80773617D01*
X196363233Y-80773617D02*
X196448947Y-80816474D01*
X196448947Y-80816474D02*
X196491805Y-80902188D01*
X196491805Y-80902188D02*
X196491805Y-80987902D01*
X196491805Y-80987902D02*
X196063233Y-81073617D01*
X197220376Y-81330760D02*
X197134662Y-81373617D01*
X197134662Y-81373617D02*
X196963234Y-81373617D01*
X196963234Y-81373617D02*
X196877519Y-81330760D01*
X196877519Y-81330760D02*
X196834662Y-81245045D01*
X196834662Y-81245045D02*
X196834662Y-80902188D01*
X196834662Y-80902188D02*
X196877519Y-80816474D01*
X196877519Y-80816474D02*
X196963234Y-80773617D01*
X196963234Y-80773617D02*
X197134662Y-80773617D01*
X197134662Y-80773617D02*
X197220376Y-80816474D01*
X197220376Y-80816474D02*
X197263234Y-80902188D01*
X197263234Y-80902188D02*
X197263234Y-80987902D01*
X197263234Y-80987902D02*
X196834662Y-81073617D01*
X197648948Y-81373617D02*
X197648948Y-80773617D01*
X197648948Y-80945045D02*
X197691805Y-80859331D01*
X197691805Y-80859331D02*
X197734663Y-80816474D01*
X197734663Y-80816474D02*
X197820377Y-80773617D01*
X197820377Y-80773617D02*
X197906091Y-80773617D01*
X198548948Y-81330760D02*
X198463234Y-81373617D01*
X198463234Y-81373617D02*
X198291806Y-81373617D01*
X198291806Y-81373617D02*
X198206091Y-81330760D01*
X198206091Y-81330760D02*
X198163234Y-81245045D01*
X198163234Y-81245045D02*
X198163234Y-80902188D01*
X198163234Y-80902188D02*
X198206091Y-80816474D01*
X198206091Y-80816474D02*
X198291806Y-80773617D01*
X198291806Y-80773617D02*
X198463234Y-80773617D01*
X198463234Y-80773617D02*
X198548948Y-80816474D01*
X198548948Y-80816474D02*
X198591806Y-80902188D01*
X198591806Y-80902188D02*
X198591806Y-80987902D01*
X198591806Y-80987902D02*
X198163234Y-81073617D01*
X199363235Y-81373617D02*
X199363235Y-80473617D01*
X199363235Y-81330760D02*
X199277520Y-81373617D01*
X199277520Y-81373617D02*
X199106092Y-81373617D01*
X199106092Y-81373617D02*
X199020377Y-81330760D01*
X199020377Y-81330760D02*
X198977520Y-81287902D01*
X198977520Y-81287902D02*
X198934663Y-81202188D01*
X198934663Y-81202188D02*
X198934663Y-80945045D01*
X198934663Y-80945045D02*
X198977520Y-80859331D01*
X198977520Y-80859331D02*
X199020377Y-80816474D01*
X199020377Y-80816474D02*
X199106092Y-80773617D01*
X199106092Y-80773617D02*
X199277520Y-80773617D01*
X199277520Y-80773617D02*
X199363235Y-80816474D01*
X200391806Y-80773617D02*
X200563235Y-81373617D01*
X200563235Y-81373617D02*
X200734663Y-80945045D01*
X200734663Y-80945045D02*
X200906092Y-81373617D01*
X200906092Y-81373617D02*
X201077520Y-80773617D01*
X201420377Y-81373617D02*
X201420377Y-80773617D01*
X201420377Y-80473617D02*
X201377520Y-80516474D01*
X201377520Y-80516474D02*
X201420377Y-80559331D01*
X201420377Y-80559331D02*
X201463234Y-80516474D01*
X201463234Y-80516474D02*
X201420377Y-80473617D01*
X201420377Y-80473617D02*
X201420377Y-80559331D01*
X201720377Y-80773617D02*
X202063234Y-80773617D01*
X201848948Y-80473617D02*
X201848948Y-81245045D01*
X201848948Y-81245045D02*
X201891805Y-81330760D01*
X201891805Y-81330760D02*
X201977520Y-81373617D01*
X201977520Y-81373617D02*
X202063234Y-81373617D01*
X202363234Y-81373617D02*
X202363234Y-80473617D01*
X202748949Y-81373617D02*
X202748949Y-80902188D01*
X202748949Y-80902188D02*
X202706091Y-80816474D01*
X202706091Y-80816474D02*
X202620377Y-80773617D01*
X202620377Y-80773617D02*
X202491806Y-80773617D01*
X202491806Y-80773617D02*
X202406091Y-80816474D01*
X202406091Y-80816474D02*
X202363234Y-80859331D01*
X203991806Y-81373617D02*
X203906091Y-81330760D01*
X203906091Y-81330760D02*
X203863234Y-81245045D01*
X203863234Y-81245045D02*
X203863234Y-80473617D01*
X204463235Y-81373617D02*
X204377520Y-81330760D01*
X204377520Y-81330760D02*
X204334663Y-81287902D01*
X204334663Y-81287902D02*
X204291806Y-81202188D01*
X204291806Y-81202188D02*
X204291806Y-80945045D01*
X204291806Y-80945045D02*
X204334663Y-80859331D01*
X204334663Y-80859331D02*
X204377520Y-80816474D01*
X204377520Y-80816474D02*
X204463235Y-80773617D01*
X204463235Y-80773617D02*
X204591806Y-80773617D01*
X204591806Y-80773617D02*
X204677520Y-80816474D01*
X204677520Y-80816474D02*
X204720378Y-80859331D01*
X204720378Y-80859331D02*
X204763235Y-80945045D01*
X204763235Y-80945045D02*
X204763235Y-81202188D01*
X204763235Y-81202188D02*
X204720378Y-81287902D01*
X204720378Y-81287902D02*
X204677520Y-81330760D01*
X204677520Y-81330760D02*
X204591806Y-81373617D01*
X204591806Y-81373617D02*
X204463235Y-81373617D01*
X205063235Y-80773617D02*
X205277521Y-81373617D01*
X205277521Y-81373617D02*
X205491806Y-80773617D01*
X206177520Y-81330760D02*
X206091806Y-81373617D01*
X206091806Y-81373617D02*
X205920378Y-81373617D01*
X205920378Y-81373617D02*
X205834663Y-81330760D01*
X205834663Y-81330760D02*
X205791806Y-81245045D01*
X205791806Y-81245045D02*
X205791806Y-80902188D01*
X205791806Y-80902188D02*
X205834663Y-80816474D01*
X205834663Y-80816474D02*
X205920378Y-80773617D01*
X205920378Y-80773617D02*
X206091806Y-80773617D01*
X206091806Y-80773617D02*
X206177520Y-80816474D01*
X206177520Y-80816474D02*
X206220378Y-80902188D01*
X206220378Y-80902188D02*
X206220378Y-80987902D01*
X206220378Y-80987902D02*
X205791806Y-81073617D01*
X207291806Y-81373617D02*
X207291806Y-80473617D01*
X207291806Y-80816474D02*
X207377521Y-80773617D01*
X207377521Y-80773617D02*
X207548949Y-80773617D01*
X207548949Y-80773617D02*
X207634663Y-80816474D01*
X207634663Y-80816474D02*
X207677521Y-80859331D01*
X207677521Y-80859331D02*
X207720378Y-80945045D01*
X207720378Y-80945045D02*
X207720378Y-81202188D01*
X207720378Y-81202188D02*
X207677521Y-81287902D01*
X207677521Y-81287902D02*
X207634663Y-81330760D01*
X207634663Y-81330760D02*
X207548949Y-81373617D01*
X207548949Y-81373617D02*
X207377521Y-81373617D01*
X207377521Y-81373617D02*
X207291806Y-81330760D01*
X208020378Y-80773617D02*
X208234664Y-81373617D01*
X208448949Y-80773617D02*
X208234664Y-81373617D01*
X208234664Y-81373617D02*
X208148949Y-81587902D01*
X208148949Y-81587902D02*
X208106092Y-81630760D01*
X208106092Y-81630760D02*
X208020378Y-81673617D01*
X207732854Y-82870375D02*
X207775711Y-82827518D01*
X207775711Y-82827518D02*
X207818568Y-82741804D01*
X207818568Y-82741804D02*
X207818568Y-82656089D01*
X207818568Y-82656089D02*
X207775711Y-82570375D01*
X207775711Y-82570375D02*
X207732854Y-82527518D01*
X207732854Y-82527518D02*
X207647140Y-82484661D01*
X207647140Y-82484661D02*
X207561425Y-82484661D01*
X207561425Y-82484661D02*
X207475711Y-82527518D01*
X207475711Y-82527518D02*
X207432854Y-82570375D01*
X207432854Y-82570375D02*
X207389997Y-82656089D01*
X207389997Y-82656089D02*
X207389997Y-82741804D01*
X207389997Y-82741804D02*
X207432854Y-82827518D01*
X207432854Y-82827518D02*
X207475711Y-82870375D01*
X207818568Y-82870375D02*
X207475711Y-82870375D01*
X207475711Y-82870375D02*
X207432854Y-82913232D01*
X207432854Y-82913232D02*
X207432854Y-82956089D01*
X207432854Y-82956089D02*
X207475711Y-83041804D01*
X207475711Y-83041804D02*
X207561425Y-83084661D01*
X207561425Y-83084661D02*
X207775711Y-83084661D01*
X207775711Y-83084661D02*
X207904282Y-82998947D01*
X207904282Y-82998947D02*
X207989997Y-82870375D01*
X207989997Y-82870375D02*
X208032854Y-82698947D01*
X208032854Y-82698947D02*
X207989997Y-82527518D01*
X207989997Y-82527518D02*
X207904282Y-82398947D01*
X207904282Y-82398947D02*
X207775711Y-82313232D01*
X207775711Y-82313232D02*
X207604282Y-82270375D01*
X207604282Y-82270375D02*
X207432854Y-82313232D01*
X207432854Y-82313232D02*
X207304282Y-82398947D01*
X207304282Y-82398947D02*
X207218568Y-82527518D01*
X207218568Y-82527518D02*
X207175711Y-82698947D01*
X207175711Y-82698947D02*
X207218568Y-82870375D01*
X207218568Y-82870375D02*
X207304282Y-82998947D01*
X207904282Y-83341804D02*
X207904282Y-83684661D01*
X208204282Y-83470375D02*
X207432854Y-83470375D01*
X207432854Y-83470375D02*
X207347140Y-83513232D01*
X207347140Y-83513232D02*
X207304282Y-83598947D01*
X207304282Y-83598947D02*
X207304282Y-83684661D01*
X207304282Y-84370376D02*
X207775711Y-84370376D01*
X207775711Y-84370376D02*
X207861425Y-84327518D01*
X207861425Y-84327518D02*
X207904282Y-84241804D01*
X207904282Y-84241804D02*
X207904282Y-84070376D01*
X207904282Y-84070376D02*
X207861425Y-83984661D01*
X207347140Y-84370376D02*
X207304282Y-84284661D01*
X207304282Y-84284661D02*
X207304282Y-84070376D01*
X207304282Y-84070376D02*
X207347140Y-83984661D01*
X207347140Y-83984661D02*
X207432854Y-83941804D01*
X207432854Y-83941804D02*
X207518568Y-83941804D01*
X207518568Y-83941804D02*
X207604282Y-83984661D01*
X207604282Y-83984661D02*
X207647140Y-84070376D01*
X207647140Y-84070376D02*
X207647140Y-84284661D01*
X207647140Y-84284661D02*
X207689997Y-84370376D01*
X207347140Y-85184662D02*
X207304282Y-85098947D01*
X207304282Y-85098947D02*
X207304282Y-84927519D01*
X207304282Y-84927519D02*
X207347140Y-84841804D01*
X207347140Y-84841804D02*
X207389997Y-84798947D01*
X207389997Y-84798947D02*
X207475711Y-84756090D01*
X207475711Y-84756090D02*
X207732854Y-84756090D01*
X207732854Y-84756090D02*
X207818568Y-84798947D01*
X207818568Y-84798947D02*
X207861425Y-84841804D01*
X207861425Y-84841804D02*
X207904282Y-84927519D01*
X207904282Y-84927519D02*
X207904282Y-85098947D01*
X207904282Y-85098947D02*
X207861425Y-85184662D01*
X207304282Y-85570376D02*
X208204282Y-85570376D01*
X207304282Y-85956091D02*
X207775711Y-85956091D01*
X207775711Y-85956091D02*
X207861425Y-85913233D01*
X207861425Y-85913233D02*
X207904282Y-85827519D01*
X207904282Y-85827519D02*
X207904282Y-85698948D01*
X207904282Y-85698948D02*
X207861425Y-85613233D01*
X207861425Y-85613233D02*
X207818568Y-85570376D01*
X207304282Y-86384662D02*
X207904282Y-86384662D01*
X208204282Y-86384662D02*
X208161425Y-86341805D01*
X208161425Y-86341805D02*
X208118568Y-86384662D01*
X208118568Y-86384662D02*
X208161425Y-86427519D01*
X208161425Y-86427519D02*
X208204282Y-86384662D01*
X208204282Y-86384662D02*
X208118568Y-86384662D01*
X207904282Y-86813233D02*
X207304282Y-86813233D01*
X207818568Y-86813233D02*
X207861425Y-86856090D01*
X207861425Y-86856090D02*
X207904282Y-86941805D01*
X207904282Y-86941805D02*
X207904282Y-87070376D01*
X207904282Y-87070376D02*
X207861425Y-87156090D01*
X207861425Y-87156090D02*
X207775711Y-87198948D01*
X207775711Y-87198948D02*
X207304282Y-87198948D01*
X207304282Y-87627519D02*
X207904282Y-87627519D01*
X208204282Y-87627519D02*
X208161425Y-87584662D01*
X208161425Y-87584662D02*
X208118568Y-87627519D01*
X208118568Y-87627519D02*
X208161425Y-87670376D01*
X208161425Y-87670376D02*
X208204282Y-87627519D01*
X208204282Y-87627519D02*
X208118568Y-87627519D01*
X207347140Y-88398947D02*
X207304282Y-88313233D01*
X207304282Y-88313233D02*
X207304282Y-88141805D01*
X207304282Y-88141805D02*
X207347140Y-88056090D01*
X207347140Y-88056090D02*
X207432854Y-88013233D01*
X207432854Y-88013233D02*
X207775711Y-88013233D01*
X207775711Y-88013233D02*
X207861425Y-88056090D01*
X207861425Y-88056090D02*
X207904282Y-88141805D01*
X207904282Y-88141805D02*
X207904282Y-88313233D01*
X207904282Y-88313233D02*
X207861425Y-88398947D01*
X207861425Y-88398947D02*
X207775711Y-88441805D01*
X207775711Y-88441805D02*
X207689997Y-88441805D01*
X207689997Y-88441805D02*
X207604282Y-88013233D01*
X207304282Y-88827519D02*
X207904282Y-88827519D01*
X207732854Y-88827519D02*
X207818568Y-88870376D01*
X207818568Y-88870376D02*
X207861425Y-88913234D01*
X207861425Y-88913234D02*
X207904282Y-88998948D01*
X207904282Y-88998948D02*
X207904282Y-89084662D01*
X207347140Y-89727519D02*
X207304282Y-89641805D01*
X207304282Y-89641805D02*
X207304282Y-89470377D01*
X207304282Y-89470377D02*
X207347140Y-89384662D01*
X207347140Y-89384662D02*
X207432854Y-89341805D01*
X207432854Y-89341805D02*
X207775711Y-89341805D01*
X207775711Y-89341805D02*
X207861425Y-89384662D01*
X207861425Y-89384662D02*
X207904282Y-89470377D01*
X207904282Y-89470377D02*
X207904282Y-89641805D01*
X207904282Y-89641805D02*
X207861425Y-89727519D01*
X207861425Y-89727519D02*
X207775711Y-89770377D01*
X207775711Y-89770377D02*
X207689997Y-89770377D01*
X207689997Y-89770377D02*
X207604282Y-89341805D01*
X207304282Y-90156091D02*
X207904282Y-90156091D01*
X207732854Y-90156091D02*
X207818568Y-90198948D01*
X207818568Y-90198948D02*
X207861425Y-90241806D01*
X207861425Y-90241806D02*
X207904282Y-90327520D01*
X207904282Y-90327520D02*
X207904282Y-90413234D01*
X207304282Y-90713234D02*
X207904282Y-90713234D01*
X208204282Y-90713234D02*
X208161425Y-90670377D01*
X208161425Y-90670377D02*
X208118568Y-90713234D01*
X208118568Y-90713234D02*
X208161425Y-90756091D01*
X208161425Y-90756091D02*
X208204282Y-90713234D01*
X208204282Y-90713234D02*
X208118568Y-90713234D01*
X207904282Y-91141805D02*
X207304282Y-91141805D01*
X207818568Y-91141805D02*
X207861425Y-91184662D01*
X207861425Y-91184662D02*
X207904282Y-91270377D01*
X207904282Y-91270377D02*
X207904282Y-91398948D01*
X207904282Y-91398948D02*
X207861425Y-91484662D01*
X207861425Y-91484662D02*
X207775711Y-91527520D01*
X207775711Y-91527520D02*
X207304282Y-91527520D01*
X206283904Y-82870375D02*
X206326761Y-82827518D01*
X206326761Y-82827518D02*
X206369618Y-82741804D01*
X206369618Y-82741804D02*
X206369618Y-82656089D01*
X206369618Y-82656089D02*
X206326761Y-82570375D01*
X206326761Y-82570375D02*
X206283904Y-82527518D01*
X206283904Y-82527518D02*
X206198190Y-82484661D01*
X206198190Y-82484661D02*
X206112475Y-82484661D01*
X206112475Y-82484661D02*
X206026761Y-82527518D01*
X206026761Y-82527518D02*
X205983904Y-82570375D01*
X205983904Y-82570375D02*
X205941047Y-82656089D01*
X205941047Y-82656089D02*
X205941047Y-82741804D01*
X205941047Y-82741804D02*
X205983904Y-82827518D01*
X205983904Y-82827518D02*
X206026761Y-82870375D01*
X206369618Y-82870375D02*
X206026761Y-82870375D01*
X206026761Y-82870375D02*
X205983904Y-82913232D01*
X205983904Y-82913232D02*
X205983904Y-82956089D01*
X205983904Y-82956089D02*
X206026761Y-83041804D01*
X206026761Y-83041804D02*
X206112475Y-83084661D01*
X206112475Y-83084661D02*
X206326761Y-83084661D01*
X206326761Y-83084661D02*
X206455332Y-82998947D01*
X206455332Y-82998947D02*
X206541047Y-82870375D01*
X206541047Y-82870375D02*
X206583904Y-82698947D01*
X206583904Y-82698947D02*
X206541047Y-82527518D01*
X206541047Y-82527518D02*
X206455332Y-82398947D01*
X206455332Y-82398947D02*
X206326761Y-82313232D01*
X206326761Y-82313232D02*
X206155332Y-82270375D01*
X206155332Y-82270375D02*
X205983904Y-82313232D01*
X205983904Y-82313232D02*
X205855332Y-82398947D01*
X205855332Y-82398947D02*
X205769618Y-82527518D01*
X205769618Y-82527518D02*
X205726761Y-82698947D01*
X205726761Y-82698947D02*
X205769618Y-82870375D01*
X205769618Y-82870375D02*
X205855332Y-82998947D01*
X206455332Y-83384661D02*
X205855332Y-83556090D01*
X205855332Y-83556090D02*
X206283904Y-83727518D01*
X206283904Y-83727518D02*
X205855332Y-83898947D01*
X205855332Y-83898947D02*
X206455332Y-84070375D01*
X205855332Y-84413232D02*
X206755332Y-84413232D01*
X205855332Y-84798947D02*
X206326761Y-84798947D01*
X206326761Y-84798947D02*
X206412475Y-84756089D01*
X206412475Y-84756089D02*
X206455332Y-84670375D01*
X206455332Y-84670375D02*
X206455332Y-84541804D01*
X206455332Y-84541804D02*
X206412475Y-84456089D01*
X206412475Y-84456089D02*
X206369618Y-84413232D01*
X205855332Y-85227518D02*
X206455332Y-85227518D01*
X206755332Y-85227518D02*
X206712475Y-85184661D01*
X206712475Y-85184661D02*
X206669618Y-85227518D01*
X206669618Y-85227518D02*
X206712475Y-85270375D01*
X206712475Y-85270375D02*
X206755332Y-85227518D01*
X206755332Y-85227518D02*
X206669618Y-85227518D01*
X206455332Y-85527518D02*
X206455332Y-85870375D01*
X206755332Y-85656089D02*
X205983904Y-85656089D01*
X205983904Y-85656089D02*
X205898190Y-85698946D01*
X205898190Y-85698946D02*
X205855332Y-85784661D01*
X205855332Y-85784661D02*
X205855332Y-85870375D01*
X205898190Y-86513232D02*
X205855332Y-86427518D01*
X205855332Y-86427518D02*
X205855332Y-86256090D01*
X205855332Y-86256090D02*
X205898190Y-86170375D01*
X205898190Y-86170375D02*
X205983904Y-86127518D01*
X205983904Y-86127518D02*
X206326761Y-86127518D01*
X206326761Y-86127518D02*
X206412475Y-86170375D01*
X206412475Y-86170375D02*
X206455332Y-86256090D01*
X206455332Y-86256090D02*
X206455332Y-86427518D01*
X206455332Y-86427518D02*
X206412475Y-86513232D01*
X206412475Y-86513232D02*
X206326761Y-86556090D01*
X206326761Y-86556090D02*
X206241047Y-86556090D01*
X206241047Y-86556090D02*
X206155332Y-86127518D01*
X206455332Y-87327519D02*
X205555332Y-87327519D01*
X205898190Y-87327519D02*
X205855332Y-87241804D01*
X205855332Y-87241804D02*
X205855332Y-87070376D01*
X205855332Y-87070376D02*
X205898190Y-86984661D01*
X205898190Y-86984661D02*
X205941047Y-86941804D01*
X205941047Y-86941804D02*
X206026761Y-86898947D01*
X206026761Y-86898947D02*
X206283904Y-86898947D01*
X206283904Y-86898947D02*
X206369618Y-86941804D01*
X206369618Y-86941804D02*
X206412475Y-86984661D01*
X206412475Y-86984661D02*
X206455332Y-87070376D01*
X206455332Y-87070376D02*
X206455332Y-87241804D01*
X206455332Y-87241804D02*
X206412475Y-87327519D01*
X206455332Y-88141805D02*
X205855332Y-88141805D01*
X206455332Y-87756090D02*
X205983904Y-87756090D01*
X205983904Y-87756090D02*
X205898190Y-87798947D01*
X205898190Y-87798947D02*
X205855332Y-87884662D01*
X205855332Y-87884662D02*
X205855332Y-88013233D01*
X205855332Y-88013233D02*
X205898190Y-88098947D01*
X205898190Y-88098947D02*
X205941047Y-88141805D01*
X205855332Y-88956091D02*
X206326761Y-88956091D01*
X206326761Y-88956091D02*
X206412475Y-88913233D01*
X206412475Y-88913233D02*
X206455332Y-88827519D01*
X206455332Y-88827519D02*
X206455332Y-88656091D01*
X206455332Y-88656091D02*
X206412475Y-88570376D01*
X205898190Y-88956091D02*
X205855332Y-88870376D01*
X205855332Y-88870376D02*
X205855332Y-88656091D01*
X205855332Y-88656091D02*
X205898190Y-88570376D01*
X205898190Y-88570376D02*
X205983904Y-88527519D01*
X205983904Y-88527519D02*
X206069618Y-88527519D01*
X206069618Y-88527519D02*
X206155332Y-88570376D01*
X206155332Y-88570376D02*
X206198190Y-88656091D01*
X206198190Y-88656091D02*
X206198190Y-88870376D01*
X206198190Y-88870376D02*
X206241047Y-88956091D01*
X205855332Y-89384662D02*
X206455332Y-89384662D01*
X206283904Y-89384662D02*
X206369618Y-89427519D01*
X206369618Y-89427519D02*
X206412475Y-89470377D01*
X206412475Y-89470377D02*
X206455332Y-89556091D01*
X206455332Y-89556091D02*
X206455332Y-89641805D01*
X205855332Y-89941805D02*
X206755332Y-89941805D01*
X206198190Y-90027520D02*
X205855332Y-90284662D01*
X206455332Y-90284662D02*
X206112475Y-89941805D01*
X205306382Y-82184661D02*
X205306382Y-82698947D01*
X204406382Y-82441804D02*
X205306382Y-82441804D01*
X204449240Y-83341803D02*
X204406382Y-83256089D01*
X204406382Y-83256089D02*
X204406382Y-83084661D01*
X204406382Y-83084661D02*
X204449240Y-82998946D01*
X204449240Y-82998946D02*
X204534954Y-82956089D01*
X204534954Y-82956089D02*
X204877811Y-82956089D01*
X204877811Y-82956089D02*
X204963525Y-82998946D01*
X204963525Y-82998946D02*
X205006382Y-83084661D01*
X205006382Y-83084661D02*
X205006382Y-83256089D01*
X205006382Y-83256089D02*
X204963525Y-83341803D01*
X204963525Y-83341803D02*
X204877811Y-83384661D01*
X204877811Y-83384661D02*
X204792097Y-83384661D01*
X204792097Y-83384661D02*
X204706382Y-82956089D01*
X204406382Y-83770375D02*
X205006382Y-83770375D01*
X204834954Y-83770375D02*
X204920668Y-83813232D01*
X204920668Y-83813232D02*
X204963525Y-83856090D01*
X204963525Y-83856090D02*
X205006382Y-83941804D01*
X205006382Y-83941804D02*
X205006382Y-84027518D01*
X204406382Y-84327518D02*
X205006382Y-84327518D01*
X204834954Y-84327518D02*
X204920668Y-84370375D01*
X204920668Y-84370375D02*
X204963525Y-84413233D01*
X204963525Y-84413233D02*
X205006382Y-84498947D01*
X205006382Y-84498947D02*
X205006382Y-84584661D01*
X204406382Y-85270376D02*
X204877811Y-85270376D01*
X204877811Y-85270376D02*
X204963525Y-85227518D01*
X204963525Y-85227518D02*
X205006382Y-85141804D01*
X205006382Y-85141804D02*
X205006382Y-84970376D01*
X205006382Y-84970376D02*
X204963525Y-84884661D01*
X204449240Y-85270376D02*
X204406382Y-85184661D01*
X204406382Y-85184661D02*
X204406382Y-84970376D01*
X204406382Y-84970376D02*
X204449240Y-84884661D01*
X204449240Y-84884661D02*
X204534954Y-84841804D01*
X204534954Y-84841804D02*
X204620668Y-84841804D01*
X204620668Y-84841804D02*
X204706382Y-84884661D01*
X204706382Y-84884661D02*
X204749240Y-84970376D01*
X204749240Y-84970376D02*
X204749240Y-85184661D01*
X204749240Y-85184661D02*
X204792097Y-85270376D01*
X204449240Y-85741804D02*
X204406382Y-85741804D01*
X204406382Y-85741804D02*
X204320668Y-85698947D01*
X204320668Y-85698947D02*
X204277811Y-85656090D01*
X204449240Y-87156089D02*
X204406382Y-87070375D01*
X204406382Y-87070375D02*
X204406382Y-86898947D01*
X204406382Y-86898947D02*
X204449240Y-86813232D01*
X204449240Y-86813232D02*
X204534954Y-86770375D01*
X204534954Y-86770375D02*
X204877811Y-86770375D01*
X204877811Y-86770375D02*
X204963525Y-86813232D01*
X204963525Y-86813232D02*
X205006382Y-86898947D01*
X205006382Y-86898947D02*
X205006382Y-87070375D01*
X205006382Y-87070375D02*
X204963525Y-87156089D01*
X204963525Y-87156089D02*
X204877811Y-87198947D01*
X204877811Y-87198947D02*
X204792097Y-87198947D01*
X204792097Y-87198947D02*
X204706382Y-86770375D01*
X205006382Y-87970376D02*
X204106382Y-87970376D01*
X204449240Y-87970376D02*
X204406382Y-87884661D01*
X204406382Y-87884661D02*
X204406382Y-87713233D01*
X204406382Y-87713233D02*
X204449240Y-87627518D01*
X204449240Y-87627518D02*
X204492097Y-87584661D01*
X204492097Y-87584661D02*
X204577811Y-87541804D01*
X204577811Y-87541804D02*
X204834954Y-87541804D01*
X204834954Y-87541804D02*
X204920668Y-87584661D01*
X204920668Y-87584661D02*
X204963525Y-87627518D01*
X204963525Y-87627518D02*
X205006382Y-87713233D01*
X205006382Y-87713233D02*
X205006382Y-87884661D01*
X205006382Y-87884661D02*
X204963525Y-87970376D01*
X204406382Y-89470376D02*
X204877811Y-89470376D01*
X204877811Y-89470376D02*
X204963525Y-89427518D01*
X204963525Y-89427518D02*
X205006382Y-89341804D01*
X205006382Y-89341804D02*
X205006382Y-89170376D01*
X205006382Y-89170376D02*
X204963525Y-89084661D01*
X204449240Y-89470376D02*
X204406382Y-89384661D01*
X204406382Y-89384661D02*
X204406382Y-89170376D01*
X204406382Y-89170376D02*
X204449240Y-89084661D01*
X204449240Y-89084661D02*
X204534954Y-89041804D01*
X204534954Y-89041804D02*
X204620668Y-89041804D01*
X204620668Y-89041804D02*
X204706382Y-89084661D01*
X204706382Y-89084661D02*
X204749240Y-89170376D01*
X204749240Y-89170376D02*
X204749240Y-89384661D01*
X204749240Y-89384661D02*
X204792097Y-89470376D01*
X205006382Y-89898947D02*
X204406382Y-89898947D01*
X204920668Y-89898947D02*
X204963525Y-89941804D01*
X204963525Y-89941804D02*
X205006382Y-90027519D01*
X205006382Y-90027519D02*
X205006382Y-90156090D01*
X205006382Y-90156090D02*
X204963525Y-90241804D01*
X204963525Y-90241804D02*
X204877811Y-90284662D01*
X204877811Y-90284662D02*
X204406382Y-90284662D01*
X204406382Y-91098948D02*
X205306382Y-91098948D01*
X204449240Y-91098948D02*
X204406382Y-91013233D01*
X204406382Y-91013233D02*
X204406382Y-90841805D01*
X204406382Y-90841805D02*
X204449240Y-90756090D01*
X204449240Y-90756090D02*
X204492097Y-90713233D01*
X204492097Y-90713233D02*
X204577811Y-90670376D01*
X204577811Y-90670376D02*
X204834954Y-90670376D01*
X204834954Y-90670376D02*
X204920668Y-90713233D01*
X204920668Y-90713233D02*
X204963525Y-90756090D01*
X204963525Y-90756090D02*
X205006382Y-90841805D01*
X205006382Y-90841805D02*
X205006382Y-91013233D01*
X205006382Y-91013233D02*
X204963525Y-91098948D01*
X204406382Y-92341805D02*
X204449240Y-92256090D01*
X204449240Y-92256090D02*
X204492097Y-92213233D01*
X204492097Y-92213233D02*
X204577811Y-92170376D01*
X204577811Y-92170376D02*
X204834954Y-92170376D01*
X204834954Y-92170376D02*
X204920668Y-92213233D01*
X204920668Y-92213233D02*
X204963525Y-92256090D01*
X204963525Y-92256090D02*
X205006382Y-92341805D01*
X205006382Y-92341805D02*
X205006382Y-92470376D01*
X205006382Y-92470376D02*
X204963525Y-92556090D01*
X204963525Y-92556090D02*
X204920668Y-92598948D01*
X204920668Y-92598948D02*
X204834954Y-92641805D01*
X204834954Y-92641805D02*
X204577811Y-92641805D01*
X204577811Y-92641805D02*
X204492097Y-92598948D01*
X204492097Y-92598948D02*
X204449240Y-92556090D01*
X204449240Y-92556090D02*
X204406382Y-92470376D01*
X204406382Y-92470376D02*
X204406382Y-92341805D01*
X205006382Y-92898948D02*
X205006382Y-93241805D01*
X205306382Y-93027519D02*
X204534954Y-93027519D01*
X204534954Y-93027519D02*
X204449240Y-93070376D01*
X204449240Y-93070376D02*
X204406382Y-93156091D01*
X204406382Y-93156091D02*
X204406382Y-93241805D01*
X204406382Y-93541805D02*
X205306382Y-93541805D01*
X204406382Y-93927520D02*
X204877811Y-93927520D01*
X204877811Y-93927520D02*
X204963525Y-93884662D01*
X204963525Y-93884662D02*
X205006382Y-93798948D01*
X205006382Y-93798948D02*
X205006382Y-93670377D01*
X205006382Y-93670377D02*
X204963525Y-93584662D01*
X204963525Y-93584662D02*
X204920668Y-93541805D01*
X204449240Y-94698948D02*
X204406382Y-94613234D01*
X204406382Y-94613234D02*
X204406382Y-94441806D01*
X204406382Y-94441806D02*
X204449240Y-94356091D01*
X204449240Y-94356091D02*
X204534954Y-94313234D01*
X204534954Y-94313234D02*
X204877811Y-94313234D01*
X204877811Y-94313234D02*
X204963525Y-94356091D01*
X204963525Y-94356091D02*
X205006382Y-94441806D01*
X205006382Y-94441806D02*
X205006382Y-94613234D01*
X205006382Y-94613234D02*
X204963525Y-94698948D01*
X204963525Y-94698948D02*
X204877811Y-94741806D01*
X204877811Y-94741806D02*
X204792097Y-94741806D01*
X204792097Y-94741806D02*
X204706382Y-94313234D01*
X204406382Y-95127520D02*
X205006382Y-95127520D01*
X204834954Y-95127520D02*
X204920668Y-95170377D01*
X204920668Y-95170377D02*
X204963525Y-95213235D01*
X204963525Y-95213235D02*
X205006382Y-95298949D01*
X205006382Y-95298949D02*
X205006382Y-95384663D01*
X204449240Y-95641806D02*
X204406382Y-95727520D01*
X204406382Y-95727520D02*
X204406382Y-95898949D01*
X204406382Y-95898949D02*
X204449240Y-95984663D01*
X204449240Y-95984663D02*
X204534954Y-96027520D01*
X204534954Y-96027520D02*
X204577811Y-96027520D01*
X204577811Y-96027520D02*
X204663525Y-95984663D01*
X204663525Y-95984663D02*
X204706382Y-95898949D01*
X204706382Y-95898949D02*
X204706382Y-95770378D01*
X204706382Y-95770378D02*
X204749240Y-95684663D01*
X204749240Y-95684663D02*
X204834954Y-95641806D01*
X204834954Y-95641806D02*
X204877811Y-95641806D01*
X204877811Y-95641806D02*
X204963525Y-95684663D01*
X204963525Y-95684663D02*
X205006382Y-95770378D01*
X205006382Y-95770378D02*
X205006382Y-95898949D01*
X205006382Y-95898949D02*
X204963525Y-95984663D01*
X205006382Y-97784663D02*
X204749240Y-97098948D01*
X204749240Y-97098948D02*
X204492097Y-97784663D01*
X205306382Y-98127520D02*
X205306382Y-98684663D01*
X205306382Y-98684663D02*
X204963525Y-98384663D01*
X204963525Y-98384663D02*
X204963525Y-98513234D01*
X204963525Y-98513234D02*
X204920668Y-98598949D01*
X204920668Y-98598949D02*
X204877811Y-98641806D01*
X204877811Y-98641806D02*
X204792097Y-98684663D01*
X204792097Y-98684663D02*
X204577811Y-98684663D01*
X204577811Y-98684663D02*
X204492097Y-98641806D01*
X204492097Y-98641806D02*
X204449240Y-98598949D01*
X204449240Y-98598949D02*
X204406382Y-98513234D01*
X204406382Y-98513234D02*
X204406382Y-98256091D01*
X204406382Y-98256091D02*
X204449240Y-98170377D01*
X204449240Y-98170377D02*
X204492097Y-98127520D01*
D10*
X162093884Y-76385752D02*
X162093884Y-77385752D01*
X162570074Y-76909561D02*
X162617693Y-77004800D01*
X162617693Y-77004800D02*
X162712931Y-77052419D01*
X162093884Y-76909561D02*
X162141503Y-77004800D01*
X162141503Y-77004800D02*
X162236741Y-77052419D01*
X162236741Y-77052419D02*
X162427217Y-77052419D01*
X162427217Y-77052419D02*
X162522455Y-77004800D01*
X162522455Y-77004800D02*
X162570074Y-76909561D01*
X162570074Y-76909561D02*
X162570074Y-76385752D01*
X163712931Y-76957180D02*
X163665312Y-77004800D01*
X163665312Y-77004800D02*
X163522455Y-77052419D01*
X163522455Y-77052419D02*
X163427217Y-77052419D01*
X163427217Y-77052419D02*
X163284360Y-77004800D01*
X163284360Y-77004800D02*
X163189122Y-76909561D01*
X163189122Y-76909561D02*
X163141503Y-76814323D01*
X163141503Y-76814323D02*
X163093884Y-76623847D01*
X163093884Y-76623847D02*
X163093884Y-76480990D01*
X163093884Y-76480990D02*
X163141503Y-76290514D01*
X163141503Y-76290514D02*
X163189122Y-76195276D01*
X163189122Y-76195276D02*
X163284360Y-76100038D01*
X163284360Y-76100038D02*
X163427217Y-76052419D01*
X163427217Y-76052419D02*
X163522455Y-76052419D01*
X163522455Y-76052419D02*
X163665312Y-76100038D01*
X163665312Y-76100038D02*
X163712931Y-76147657D01*
X231757693Y-70850038D02*
X231662455Y-70802419D01*
X231662455Y-70802419D02*
X231519598Y-70802419D01*
X231519598Y-70802419D02*
X231376741Y-70850038D01*
X231376741Y-70850038D02*
X231281503Y-70945276D01*
X231281503Y-70945276D02*
X231233884Y-71040514D01*
X231233884Y-71040514D02*
X231186265Y-71230990D01*
X231186265Y-71230990D02*
X231186265Y-71373847D01*
X231186265Y-71373847D02*
X231233884Y-71564323D01*
X231233884Y-71564323D02*
X231281503Y-71659561D01*
X231281503Y-71659561D02*
X231376741Y-71754800D01*
X231376741Y-71754800D02*
X231519598Y-71802419D01*
X231519598Y-71802419D02*
X231614836Y-71802419D01*
X231614836Y-71802419D02*
X231757693Y-71754800D01*
X231757693Y-71754800D02*
X231805312Y-71707180D01*
X231805312Y-71707180D02*
X231805312Y-71373847D01*
X231805312Y-71373847D02*
X231614836Y-71373847D01*
X238814800Y-72653734D02*
X238862419Y-72510877D01*
X238862419Y-72510877D02*
X238862419Y-72272782D01*
X238862419Y-72272782D02*
X238814800Y-72177544D01*
X238814800Y-72177544D02*
X238767180Y-72129925D01*
X238767180Y-72129925D02*
X238671942Y-72082306D01*
X238671942Y-72082306D02*
X238576704Y-72082306D01*
X238576704Y-72082306D02*
X238481466Y-72129925D01*
X238481466Y-72129925D02*
X238433847Y-72177544D01*
X238433847Y-72177544D02*
X238386228Y-72272782D01*
X238386228Y-72272782D02*
X238338609Y-72463258D01*
X238338609Y-72463258D02*
X238290990Y-72558496D01*
X238290990Y-72558496D02*
X238243371Y-72606115D01*
X238243371Y-72606115D02*
X238148133Y-72653734D01*
X238148133Y-72653734D02*
X238052895Y-72653734D01*
X238052895Y-72653734D02*
X237957657Y-72606115D01*
X237957657Y-72606115D02*
X237910038Y-72558496D01*
X237910038Y-72558496D02*
X237862419Y-72463258D01*
X237862419Y-72463258D02*
X237862419Y-72225163D01*
X237862419Y-72225163D02*
X237910038Y-72082306D01*
X238386228Y-71463258D02*
X238862419Y-71463258D01*
X237862419Y-71796591D02*
X238386228Y-71463258D01*
X238386228Y-71463258D02*
X237862419Y-71129925D01*
X238862419Y-70796591D02*
X237862419Y-70796591D01*
X237862419Y-70796591D02*
X238862419Y-70225163D01*
X238862419Y-70225163D02*
X237862419Y-70225163D01*
X238767180Y-69177544D02*
X238814800Y-69225163D01*
X238814800Y-69225163D02*
X238862419Y-69368020D01*
X238862419Y-69368020D02*
X238862419Y-69463258D01*
X238862419Y-69463258D02*
X238814800Y-69606115D01*
X238814800Y-69606115D02*
X238719561Y-69701353D01*
X238719561Y-69701353D02*
X238624323Y-69748972D01*
X238624323Y-69748972D02*
X238433847Y-69796591D01*
X238433847Y-69796591D02*
X238290990Y-69796591D01*
X238290990Y-69796591D02*
X238100514Y-69748972D01*
X238100514Y-69748972D02*
X238005276Y-69701353D01*
X238005276Y-69701353D02*
X237910038Y-69606115D01*
X237910038Y-69606115D02*
X237862419Y-69463258D01*
X237862419Y-69463258D02*
X237862419Y-69368020D01*
X237862419Y-69368020D02*
X237910038Y-69225163D01*
X237910038Y-69225163D02*
X237957657Y-69177544D01*
X237584800Y-72744211D02*
X237584800Y-69087068D01*
D12*
X243470463Y-74240702D02*
X243470463Y-75195940D01*
X243470463Y-75195940D02*
X243518082Y-75308321D01*
X243518082Y-75308321D02*
X243565701Y-75364512D01*
X243565701Y-75364512D02*
X243660939Y-75420702D01*
X243660939Y-75420702D02*
X243851415Y-75420702D01*
X243851415Y-75420702D02*
X243946653Y-75364512D01*
X243946653Y-75364512D02*
X243994272Y-75308321D01*
X243994272Y-75308321D02*
X244041891Y-75195940D01*
X244041891Y-75195940D02*
X244041891Y-74240702D01*
X245041891Y-75420702D02*
X244470463Y-75420702D01*
X244756177Y-75420702D02*
X244756177Y-74240702D01*
X244756177Y-74240702D02*
X244660939Y-74409273D01*
X244660939Y-74409273D02*
X244565701Y-74521654D01*
X244565701Y-74521654D02*
X244470463Y-74577845D01*
X243470463Y-76140436D02*
X243470463Y-77095674D01*
X243470463Y-77095674D02*
X243518082Y-77208055D01*
X243518082Y-77208055D02*
X243565701Y-77264246D01*
X243565701Y-77264246D02*
X243660939Y-77320436D01*
X243660939Y-77320436D02*
X243851415Y-77320436D01*
X243851415Y-77320436D02*
X243946653Y-77264246D01*
X243946653Y-77264246D02*
X243994272Y-77208055D01*
X243994272Y-77208055D02*
X244041891Y-77095674D01*
X244041891Y-77095674D02*
X244041891Y-76140436D01*
X244470463Y-76252817D02*
X244518082Y-76196626D01*
X244518082Y-76196626D02*
X244613320Y-76140436D01*
X244613320Y-76140436D02*
X244851415Y-76140436D01*
X244851415Y-76140436D02*
X244946653Y-76196626D01*
X244946653Y-76196626D02*
X244994272Y-76252817D01*
X244994272Y-76252817D02*
X245041891Y-76365198D01*
X245041891Y-76365198D02*
X245041891Y-76477579D01*
X245041891Y-76477579D02*
X244994272Y-76646150D01*
X244994272Y-76646150D02*
X244422844Y-77320436D01*
X244422844Y-77320436D02*
X245041891Y-77320436D01*
X243470463Y-78040170D02*
X243470463Y-78995408D01*
X243470463Y-78995408D02*
X243518082Y-79107789D01*
X243518082Y-79107789D02*
X243565701Y-79163980D01*
X243565701Y-79163980D02*
X243660939Y-79220170D01*
X243660939Y-79220170D02*
X243851415Y-79220170D01*
X243851415Y-79220170D02*
X243946653Y-79163980D01*
X243946653Y-79163980D02*
X243994272Y-79107789D01*
X243994272Y-79107789D02*
X244041891Y-78995408D01*
X244041891Y-78995408D02*
X244041891Y-78040170D01*
X244422844Y-78040170D02*
X245041891Y-78040170D01*
X245041891Y-78040170D02*
X244708558Y-78489694D01*
X244708558Y-78489694D02*
X244851415Y-78489694D01*
X244851415Y-78489694D02*
X244946653Y-78545884D01*
X244946653Y-78545884D02*
X244994272Y-78602075D01*
X244994272Y-78602075D02*
X245041891Y-78714456D01*
X245041891Y-78714456D02*
X245041891Y-78995408D01*
X245041891Y-78995408D02*
X244994272Y-79107789D01*
X244994272Y-79107789D02*
X244946653Y-79163980D01*
X244946653Y-79163980D02*
X244851415Y-79220170D01*
X244851415Y-79220170D02*
X244565701Y-79220170D01*
X244565701Y-79220170D02*
X244470463Y-79163980D01*
X244470463Y-79163980D02*
X244422844Y-79107789D01*
X243470463Y-79939904D02*
X243470463Y-80895142D01*
X243470463Y-80895142D02*
X243518082Y-81007523D01*
X243518082Y-81007523D02*
X243565701Y-81063714D01*
X243565701Y-81063714D02*
X243660939Y-81119904D01*
X243660939Y-81119904D02*
X243851415Y-81119904D01*
X243851415Y-81119904D02*
X243946653Y-81063714D01*
X243946653Y-81063714D02*
X243994272Y-81007523D01*
X243994272Y-81007523D02*
X244041891Y-80895142D01*
X244041891Y-80895142D02*
X244041891Y-79939904D01*
X244946653Y-80333237D02*
X244946653Y-81119904D01*
X244708558Y-79883714D02*
X244470463Y-80726571D01*
X244470463Y-80726571D02*
X245089510Y-80726571D01*
X243470463Y-81839638D02*
X243470463Y-82794876D01*
X243470463Y-82794876D02*
X243518082Y-82907257D01*
X243518082Y-82907257D02*
X243565701Y-82963448D01*
X243565701Y-82963448D02*
X243660939Y-83019638D01*
X243660939Y-83019638D02*
X243851415Y-83019638D01*
X243851415Y-83019638D02*
X243946653Y-82963448D01*
X243946653Y-82963448D02*
X243994272Y-82907257D01*
X243994272Y-82907257D02*
X244041891Y-82794876D01*
X244041891Y-82794876D02*
X244041891Y-81839638D01*
X244994272Y-81839638D02*
X244518082Y-81839638D01*
X244518082Y-81839638D02*
X244470463Y-82401543D01*
X244470463Y-82401543D02*
X244518082Y-82345352D01*
X244518082Y-82345352D02*
X244613320Y-82289162D01*
X244613320Y-82289162D02*
X244851415Y-82289162D01*
X244851415Y-82289162D02*
X244946653Y-82345352D01*
X244946653Y-82345352D02*
X244994272Y-82401543D01*
X244994272Y-82401543D02*
X245041891Y-82513924D01*
X245041891Y-82513924D02*
X245041891Y-82794876D01*
X245041891Y-82794876D02*
X244994272Y-82907257D01*
X244994272Y-82907257D02*
X244946653Y-82963448D01*
X244946653Y-82963448D02*
X244851415Y-83019638D01*
X244851415Y-83019638D02*
X244613320Y-83019638D01*
X244613320Y-83019638D02*
X244518082Y-82963448D01*
X244518082Y-82963448D02*
X244470463Y-82907257D01*
X243660939Y-95000702D02*
X243851415Y-95000702D01*
X243851415Y-95000702D02*
X243946653Y-95056892D01*
X243946653Y-95056892D02*
X244041891Y-95169273D01*
X244041891Y-95169273D02*
X244089510Y-95394035D01*
X244089510Y-95394035D02*
X244089510Y-95787369D01*
X244089510Y-95787369D02*
X244041891Y-96012131D01*
X244041891Y-96012131D02*
X243946653Y-96124512D01*
X243946653Y-96124512D02*
X243851415Y-96180702D01*
X243851415Y-96180702D02*
X243660939Y-96180702D01*
X243660939Y-96180702D02*
X243565701Y-96124512D01*
X243565701Y-96124512D02*
X243470463Y-96012131D01*
X243470463Y-96012131D02*
X243422844Y-95787369D01*
X243422844Y-95787369D02*
X243422844Y-95394035D01*
X243422844Y-95394035D02*
X243470463Y-95169273D01*
X243470463Y-95169273D02*
X243565701Y-95056892D01*
X243565701Y-95056892D02*
X243660939Y-95000702D01*
X244518082Y-96180702D02*
X244518082Y-95000702D01*
X244518082Y-95000702D02*
X245089510Y-96180702D01*
X245089510Y-96180702D02*
X245089510Y-95000702D01*
X244041891Y-97968055D02*
X243994272Y-98024246D01*
X243994272Y-98024246D02*
X243851415Y-98080436D01*
X243851415Y-98080436D02*
X243756177Y-98080436D01*
X243756177Y-98080436D02*
X243613320Y-98024246D01*
X243613320Y-98024246D02*
X243518082Y-97911865D01*
X243518082Y-97911865D02*
X243470463Y-97799484D01*
X243470463Y-97799484D02*
X243422844Y-97574722D01*
X243422844Y-97574722D02*
X243422844Y-97406150D01*
X243422844Y-97406150D02*
X243470463Y-97181388D01*
X243470463Y-97181388D02*
X243518082Y-97069007D01*
X243518082Y-97069007D02*
X243613320Y-96956626D01*
X243613320Y-96956626D02*
X243756177Y-96900436D01*
X243756177Y-96900436D02*
X243851415Y-96900436D01*
X243851415Y-96900436D02*
X243994272Y-96956626D01*
X243994272Y-96956626D02*
X244041891Y-97012817D01*
X244660939Y-97518531D02*
X244660939Y-98080436D01*
X244327606Y-96900436D02*
X244660939Y-97518531D01*
X244660939Y-97518531D02*
X244994272Y-96900436D01*
X243470463Y-99980170D02*
X243470463Y-98800170D01*
X243470463Y-98800170D02*
X243708558Y-98800170D01*
X243708558Y-98800170D02*
X243851415Y-98856360D01*
X243851415Y-98856360D02*
X243946653Y-98968741D01*
X243946653Y-98968741D02*
X243994272Y-99081122D01*
X243994272Y-99081122D02*
X244041891Y-99305884D01*
X244041891Y-99305884D02*
X244041891Y-99474456D01*
X244041891Y-99474456D02*
X243994272Y-99699218D01*
X243994272Y-99699218D02*
X243946653Y-99811599D01*
X243946653Y-99811599D02*
X243851415Y-99923980D01*
X243851415Y-99923980D02*
X243708558Y-99980170D01*
X243708558Y-99980170D02*
X243470463Y-99980170D01*
X244470463Y-99980170D02*
X244470463Y-98800170D01*
X244470463Y-98800170D02*
X245041891Y-99980170D01*
X245041891Y-99980170D02*
X245041891Y-98800170D01*
X243422844Y-101542761D02*
X243899034Y-101542761D01*
X243327606Y-101879904D02*
X243660939Y-100699904D01*
X243660939Y-100699904D02*
X243994272Y-101879904D01*
X244899034Y-101767523D02*
X244851415Y-101823714D01*
X244851415Y-101823714D02*
X244708558Y-101879904D01*
X244708558Y-101879904D02*
X244613320Y-101879904D01*
X244613320Y-101879904D02*
X244470463Y-101823714D01*
X244470463Y-101823714D02*
X244375225Y-101711333D01*
X244375225Y-101711333D02*
X244327606Y-101598952D01*
X244327606Y-101598952D02*
X244279987Y-101374190D01*
X244279987Y-101374190D02*
X244279987Y-101205618D01*
X244279987Y-101205618D02*
X244327606Y-100980856D01*
X244327606Y-100980856D02*
X244375225Y-100868475D01*
X244375225Y-100868475D02*
X244470463Y-100756094D01*
X244470463Y-100756094D02*
X244613320Y-100699904D01*
X244613320Y-100699904D02*
X244708558Y-100699904D01*
X244708558Y-100699904D02*
X244851415Y-100756094D01*
X244851415Y-100756094D02*
X244899034Y-100812285D01*
X243470463Y-103161543D02*
X243803796Y-103161543D01*
X243946653Y-103779638D02*
X243470463Y-103779638D01*
X243470463Y-103779638D02*
X243470463Y-102599638D01*
X243470463Y-102599638D02*
X243946653Y-102599638D01*
X244946653Y-103779638D02*
X244613320Y-103217733D01*
X244375225Y-103779638D02*
X244375225Y-102599638D01*
X244375225Y-102599638D02*
X244756177Y-102599638D01*
X244756177Y-102599638D02*
X244851415Y-102655828D01*
X244851415Y-102655828D02*
X244899034Y-102712019D01*
X244899034Y-102712019D02*
X244946653Y-102824400D01*
X244946653Y-102824400D02*
X244946653Y-102992971D01*
X244946653Y-102992971D02*
X244899034Y-103105352D01*
X244899034Y-103105352D02*
X244851415Y-103161543D01*
X244851415Y-103161543D02*
X244756177Y-103217733D01*
X244756177Y-103217733D02*
X244375225Y-103217733D01*
D13*
X166353822Y-77570275D02*
X166428583Y-77384561D01*
X166428583Y-77384561D02*
X166428583Y-77075037D01*
X166428583Y-77075037D02*
X166353822Y-76951228D01*
X166353822Y-76951228D02*
X166279060Y-76889323D01*
X166279060Y-76889323D02*
X166129536Y-76827418D01*
X166129536Y-76827418D02*
X165980012Y-76827418D01*
X165980012Y-76827418D02*
X165830488Y-76889323D01*
X165830488Y-76889323D02*
X165755726Y-76951228D01*
X165755726Y-76951228D02*
X165680964Y-77075037D01*
X165680964Y-77075037D02*
X165606202Y-77322656D01*
X165606202Y-77322656D02*
X165531441Y-77446466D01*
X165531441Y-77446466D02*
X165456679Y-77508371D01*
X165456679Y-77508371D02*
X165307155Y-77570275D01*
X165307155Y-77570275D02*
X165157631Y-77570275D01*
X165157631Y-77570275D02*
X165008107Y-77508371D01*
X165008107Y-77508371D02*
X164933345Y-77446466D01*
X164933345Y-77446466D02*
X164858583Y-77322656D01*
X164858583Y-77322656D02*
X164858583Y-77013133D01*
X164858583Y-77013133D02*
X164933345Y-76827418D01*
X167386195Y-77260752D02*
X167386195Y-77136942D01*
X167386195Y-77136942D02*
X167460957Y-77013133D01*
X167460957Y-77013133D02*
X167535719Y-76951228D01*
X167535719Y-76951228D02*
X167685243Y-76889323D01*
X167685243Y-76889323D02*
X167984291Y-76827418D01*
X167984291Y-76827418D02*
X168358100Y-76827418D01*
X168358100Y-76827418D02*
X168657148Y-76889323D01*
X168657148Y-76889323D02*
X168806672Y-76951228D01*
X168806672Y-76951228D02*
X168881434Y-77013133D01*
X168881434Y-77013133D02*
X168956195Y-77136942D01*
X168956195Y-77136942D02*
X168956195Y-77260752D01*
X168956195Y-77260752D02*
X168881434Y-77384561D01*
X168881434Y-77384561D02*
X168806672Y-77446466D01*
X168806672Y-77446466D02*
X168657148Y-77508371D01*
X168657148Y-77508371D02*
X168358100Y-77570275D01*
X168358100Y-77570275D02*
X167984291Y-77570275D01*
X167984291Y-77570275D02*
X167685243Y-77508371D01*
X167685243Y-77508371D02*
X167535719Y-77446466D01*
X167535719Y-77446466D02*
X167460957Y-77384561D01*
X167460957Y-77384561D02*
X167386195Y-77260752D01*
X171483807Y-76827418D02*
X171483807Y-77570275D01*
X171483807Y-77198847D02*
X169913807Y-77198847D01*
X169913807Y-77198847D02*
X170138093Y-77322656D01*
X170138093Y-77322656D02*
X170287617Y-77446466D01*
X170287617Y-77446466D02*
X170362379Y-77570275D01*
X172590943Y-77570275D02*
X172516181Y-77508371D01*
X172516181Y-77508371D02*
X172441419Y-77384561D01*
X172441419Y-77384561D02*
X172441419Y-77075037D01*
X172441419Y-77075037D02*
X172516181Y-76951228D01*
X172516181Y-76951228D02*
X172590943Y-76889323D01*
X172590943Y-76889323D02*
X172740467Y-76827418D01*
X172740467Y-76827418D02*
X172889991Y-76827418D01*
X172889991Y-76827418D02*
X173114277Y-76889323D01*
X173114277Y-76889323D02*
X174011419Y-77632180D01*
X174011419Y-77632180D02*
X174011419Y-76827418D01*
X174969031Y-77632180D02*
X174969031Y-76827418D01*
X174969031Y-76827418D02*
X175567127Y-77260752D01*
X175567127Y-77260752D02*
X175567127Y-77075037D01*
X175567127Y-77075037D02*
X175641889Y-76951228D01*
X175641889Y-76951228D02*
X175716650Y-76889323D01*
X175716650Y-76889323D02*
X175866174Y-76827418D01*
X175866174Y-76827418D02*
X176239984Y-76827418D01*
X176239984Y-76827418D02*
X176389508Y-76889323D01*
X176389508Y-76889323D02*
X176464270Y-76951228D01*
X176464270Y-76951228D02*
X176539031Y-77075037D01*
X176539031Y-77075037D02*
X176539031Y-77446466D01*
X176539031Y-77446466D02*
X176464270Y-77570275D01*
X176464270Y-77570275D02*
X176389508Y-77632180D01*
X178019977Y-76951228D02*
X179066643Y-76951228D01*
X177421882Y-77260752D02*
X178543310Y-77570275D01*
X178543310Y-77570275D02*
X178543310Y-76765514D01*
X180024255Y-76889323D02*
X180024255Y-77508371D01*
X180024255Y-77508371D02*
X180771874Y-77570275D01*
X180771874Y-77570275D02*
X180697113Y-77508371D01*
X180697113Y-77508371D02*
X180622351Y-77384561D01*
X180622351Y-77384561D02*
X180622351Y-77075037D01*
X180622351Y-77075037D02*
X180697113Y-76951228D01*
X180697113Y-76951228D02*
X180771874Y-76889323D01*
X180771874Y-76889323D02*
X180921398Y-76827418D01*
X180921398Y-76827418D02*
X181295208Y-76827418D01*
X181295208Y-76827418D02*
X181444732Y-76889323D01*
X181444732Y-76889323D02*
X181519494Y-76951228D01*
X181519494Y-76951228D02*
X181594255Y-77075037D01*
X181594255Y-77075037D02*
X181594255Y-77384561D01*
X181594255Y-77384561D02*
X181519494Y-77508371D01*
X181519494Y-77508371D02*
X181444732Y-77570275D01*
X182551867Y-76951228D02*
X182551867Y-77198847D01*
X182551867Y-77198847D02*
X182626629Y-77322656D01*
X182626629Y-77322656D02*
X182701391Y-77384561D01*
X182701391Y-77384561D02*
X182925677Y-77508371D01*
X182925677Y-77508371D02*
X183224725Y-77570275D01*
X183224725Y-77570275D02*
X183822820Y-77570275D01*
X183822820Y-77570275D02*
X183972344Y-77508371D01*
X183972344Y-77508371D02*
X184047106Y-77446466D01*
X184047106Y-77446466D02*
X184121867Y-77322656D01*
X184121867Y-77322656D02*
X184121867Y-77075037D01*
X184121867Y-77075037D02*
X184047106Y-76951228D01*
X184047106Y-76951228D02*
X183972344Y-76889323D01*
X183972344Y-76889323D02*
X183822820Y-76827418D01*
X183822820Y-76827418D02*
X183449010Y-76827418D01*
X183449010Y-76827418D02*
X183299486Y-76889323D01*
X183299486Y-76889323D02*
X183224725Y-76951228D01*
X183224725Y-76951228D02*
X183149963Y-77075037D01*
X183149963Y-77075037D02*
X183149963Y-77322656D01*
X183149963Y-77322656D02*
X183224725Y-77446466D01*
X183224725Y-77446466D02*
X183299486Y-77508371D01*
X183299486Y-77508371D02*
X183449010Y-77570275D01*
X185079479Y-77632180D02*
X185079479Y-76765514D01*
X185079479Y-76765514D02*
X186649479Y-77322656D01*
X167418583Y-115922180D02*
X167418583Y-115055514D01*
X167418583Y-115055514D02*
X168988583Y-115612656D01*
X169946195Y-115241228D02*
X169946195Y-115488847D01*
X169946195Y-115488847D02*
X170020957Y-115612656D01*
X170020957Y-115612656D02*
X170095719Y-115674561D01*
X170095719Y-115674561D02*
X170320005Y-115798371D01*
X170320005Y-115798371D02*
X170619053Y-115860275D01*
X170619053Y-115860275D02*
X171217148Y-115860275D01*
X171217148Y-115860275D02*
X171366672Y-115798371D01*
X171366672Y-115798371D02*
X171441434Y-115736466D01*
X171441434Y-115736466D02*
X171516195Y-115612656D01*
X171516195Y-115612656D02*
X171516195Y-115365037D01*
X171516195Y-115365037D02*
X171441434Y-115241228D01*
X171441434Y-115241228D02*
X171366672Y-115179323D01*
X171366672Y-115179323D02*
X171217148Y-115117418D01*
X171217148Y-115117418D02*
X170843338Y-115117418D01*
X170843338Y-115117418D02*
X170693814Y-115179323D01*
X170693814Y-115179323D02*
X170619053Y-115241228D01*
X170619053Y-115241228D02*
X170544291Y-115365037D01*
X170544291Y-115365037D02*
X170544291Y-115612656D01*
X170544291Y-115612656D02*
X170619053Y-115736466D01*
X170619053Y-115736466D02*
X170693814Y-115798371D01*
X170693814Y-115798371D02*
X170843338Y-115860275D01*
X172473807Y-115179323D02*
X172473807Y-115798371D01*
X172473807Y-115798371D02*
X173221426Y-115860275D01*
X173221426Y-115860275D02*
X173146665Y-115798371D01*
X173146665Y-115798371D02*
X173071903Y-115674561D01*
X173071903Y-115674561D02*
X173071903Y-115365037D01*
X173071903Y-115365037D02*
X173146665Y-115241228D01*
X173146665Y-115241228D02*
X173221426Y-115179323D01*
X173221426Y-115179323D02*
X173370950Y-115117418D01*
X173370950Y-115117418D02*
X173744760Y-115117418D01*
X173744760Y-115117418D02*
X173894284Y-115179323D01*
X173894284Y-115179323D02*
X173969046Y-115241228D01*
X173969046Y-115241228D02*
X174043807Y-115365037D01*
X174043807Y-115365037D02*
X174043807Y-115674561D01*
X174043807Y-115674561D02*
X173969046Y-115798371D01*
X173969046Y-115798371D02*
X173894284Y-115860275D01*
X175524753Y-115241228D02*
X176571419Y-115241228D01*
X174926658Y-115550752D02*
X176048086Y-115860275D01*
X176048086Y-115860275D02*
X176048086Y-115055514D01*
X177529031Y-115922180D02*
X177529031Y-115117418D01*
X177529031Y-115117418D02*
X178127127Y-115550752D01*
X178127127Y-115550752D02*
X178127127Y-115365037D01*
X178127127Y-115365037D02*
X178201889Y-115241228D01*
X178201889Y-115241228D02*
X178276650Y-115179323D01*
X178276650Y-115179323D02*
X178426174Y-115117418D01*
X178426174Y-115117418D02*
X178799984Y-115117418D01*
X178799984Y-115117418D02*
X178949508Y-115179323D01*
X178949508Y-115179323D02*
X179024270Y-115241228D01*
X179024270Y-115241228D02*
X179099031Y-115365037D01*
X179099031Y-115365037D02*
X179099031Y-115736466D01*
X179099031Y-115736466D02*
X179024270Y-115860275D01*
X179024270Y-115860275D02*
X178949508Y-115922180D01*
X180206167Y-115860275D02*
X180131405Y-115798371D01*
X180131405Y-115798371D02*
X180056643Y-115674561D01*
X180056643Y-115674561D02*
X180056643Y-115365037D01*
X180056643Y-115365037D02*
X180131405Y-115241228D01*
X180131405Y-115241228D02*
X180206167Y-115179323D01*
X180206167Y-115179323D02*
X180355691Y-115117418D01*
X180355691Y-115117418D02*
X180505215Y-115117418D01*
X180505215Y-115117418D02*
X180729501Y-115179323D01*
X180729501Y-115179323D02*
X181626643Y-115922180D01*
X181626643Y-115922180D02*
X181626643Y-115117418D01*
X184154255Y-115117418D02*
X184154255Y-115860275D01*
X184154255Y-115488847D02*
X182584255Y-115488847D01*
X182584255Y-115488847D02*
X182808541Y-115612656D01*
X182808541Y-115612656D02*
X182958065Y-115736466D01*
X182958065Y-115736466D02*
X183032827Y-115860275D01*
X185111867Y-115550752D02*
X185111867Y-115426942D01*
X185111867Y-115426942D02*
X185186629Y-115303133D01*
X185186629Y-115303133D02*
X185261391Y-115241228D01*
X185261391Y-115241228D02*
X185410915Y-115179323D01*
X185410915Y-115179323D02*
X185709963Y-115117418D01*
X185709963Y-115117418D02*
X186083772Y-115117418D01*
X186083772Y-115117418D02*
X186382820Y-115179323D01*
X186382820Y-115179323D02*
X186532344Y-115241228D01*
X186532344Y-115241228D02*
X186607106Y-115303133D01*
X186607106Y-115303133D02*
X186681867Y-115426942D01*
X186681867Y-115426942D02*
X186681867Y-115550752D01*
X186681867Y-115550752D02*
X186607106Y-115674561D01*
X186607106Y-115674561D02*
X186532344Y-115736466D01*
X186532344Y-115736466D02*
X186382820Y-115798371D01*
X186382820Y-115798371D02*
X186083772Y-115860275D01*
X186083772Y-115860275D02*
X185709963Y-115860275D01*
X185709963Y-115860275D02*
X185410915Y-115798371D01*
X185410915Y-115798371D02*
X185261391Y-115736466D01*
X185261391Y-115736466D02*
X185186629Y-115674561D01*
X185186629Y-115674561D02*
X185111867Y-115550752D01*
X189134718Y-115860275D02*
X189209479Y-115674561D01*
X189209479Y-115674561D02*
X189209479Y-115365037D01*
X189209479Y-115365037D02*
X189134718Y-115241228D01*
X189134718Y-115241228D02*
X189059956Y-115179323D01*
X189059956Y-115179323D02*
X188910432Y-115117418D01*
X188910432Y-115117418D02*
X188760908Y-115117418D01*
X188760908Y-115117418D02*
X188611384Y-115179323D01*
X188611384Y-115179323D02*
X188536622Y-115241228D01*
X188536622Y-115241228D02*
X188461860Y-115365037D01*
X188461860Y-115365037D02*
X188387098Y-115612656D01*
X188387098Y-115612656D02*
X188312337Y-115736466D01*
X188312337Y-115736466D02*
X188237575Y-115798371D01*
X188237575Y-115798371D02*
X188088051Y-115860275D01*
X188088051Y-115860275D02*
X187938527Y-115860275D01*
X187938527Y-115860275D02*
X187789003Y-115798371D01*
X187789003Y-115798371D02*
X187714241Y-115736466D01*
X187714241Y-115736466D02*
X187639479Y-115612656D01*
X187639479Y-115612656D02*
X187639479Y-115303133D01*
X187639479Y-115303133D02*
X187714241Y-115117418D01*
X203303822Y-77540275D02*
X203378583Y-77354561D01*
X203378583Y-77354561D02*
X203378583Y-77045037D01*
X203378583Y-77045037D02*
X203303822Y-76921228D01*
X203303822Y-76921228D02*
X203229060Y-76859323D01*
X203229060Y-76859323D02*
X203079536Y-76797418D01*
X203079536Y-76797418D02*
X202930012Y-76797418D01*
X202930012Y-76797418D02*
X202780488Y-76859323D01*
X202780488Y-76859323D02*
X202705726Y-76921228D01*
X202705726Y-76921228D02*
X202630964Y-77045037D01*
X202630964Y-77045037D02*
X202556202Y-77292656D01*
X202556202Y-77292656D02*
X202481441Y-77416466D01*
X202481441Y-77416466D02*
X202406679Y-77478371D01*
X202406679Y-77478371D02*
X202257155Y-77540275D01*
X202257155Y-77540275D02*
X202107631Y-77540275D01*
X202107631Y-77540275D02*
X201958107Y-77478371D01*
X201958107Y-77478371D02*
X201883345Y-77416466D01*
X201883345Y-77416466D02*
X201808583Y-77292656D01*
X201808583Y-77292656D02*
X201808583Y-76983133D01*
X201808583Y-76983133D02*
X201883345Y-76797418D01*
X204336195Y-77230752D02*
X204336195Y-77106942D01*
X204336195Y-77106942D02*
X204410957Y-76983133D01*
X204410957Y-76983133D02*
X204485719Y-76921228D01*
X204485719Y-76921228D02*
X204635243Y-76859323D01*
X204635243Y-76859323D02*
X204934291Y-76797418D01*
X204934291Y-76797418D02*
X205308100Y-76797418D01*
X205308100Y-76797418D02*
X205607148Y-76859323D01*
X205607148Y-76859323D02*
X205756672Y-76921228D01*
X205756672Y-76921228D02*
X205831434Y-76983133D01*
X205831434Y-76983133D02*
X205906195Y-77106942D01*
X205906195Y-77106942D02*
X205906195Y-77230752D01*
X205906195Y-77230752D02*
X205831434Y-77354561D01*
X205831434Y-77354561D02*
X205756672Y-77416466D01*
X205756672Y-77416466D02*
X205607148Y-77478371D01*
X205607148Y-77478371D02*
X205308100Y-77540275D01*
X205308100Y-77540275D02*
X204934291Y-77540275D01*
X204934291Y-77540275D02*
X204635243Y-77478371D01*
X204635243Y-77478371D02*
X204485719Y-77416466D01*
X204485719Y-77416466D02*
X204410957Y-77354561D01*
X204410957Y-77354561D02*
X204336195Y-77230752D01*
X208433807Y-76797418D02*
X208433807Y-77540275D01*
X208433807Y-77168847D02*
X206863807Y-77168847D01*
X206863807Y-77168847D02*
X207088093Y-77292656D01*
X207088093Y-77292656D02*
X207237617Y-77416466D01*
X207237617Y-77416466D02*
X207312379Y-77540275D01*
X209540943Y-77540275D02*
X209466181Y-77478371D01*
X209466181Y-77478371D02*
X209391419Y-77354561D01*
X209391419Y-77354561D02*
X209391419Y-77045037D01*
X209391419Y-77045037D02*
X209466181Y-76921228D01*
X209466181Y-76921228D02*
X209540943Y-76859323D01*
X209540943Y-76859323D02*
X209690467Y-76797418D01*
X209690467Y-76797418D02*
X209839991Y-76797418D01*
X209839991Y-76797418D02*
X210064277Y-76859323D01*
X210064277Y-76859323D02*
X210961419Y-77602180D01*
X210961419Y-77602180D02*
X210961419Y-76797418D01*
X211919031Y-77602180D02*
X211919031Y-76797418D01*
X211919031Y-76797418D02*
X212517127Y-77230752D01*
X212517127Y-77230752D02*
X212517127Y-77045037D01*
X212517127Y-77045037D02*
X212591889Y-76921228D01*
X212591889Y-76921228D02*
X212666650Y-76859323D01*
X212666650Y-76859323D02*
X212816174Y-76797418D01*
X212816174Y-76797418D02*
X213189984Y-76797418D01*
X213189984Y-76797418D02*
X213339508Y-76859323D01*
X213339508Y-76859323D02*
X213414270Y-76921228D01*
X213414270Y-76921228D02*
X213489031Y-77045037D01*
X213489031Y-77045037D02*
X213489031Y-77416466D01*
X213489031Y-77416466D02*
X213414270Y-77540275D01*
X213414270Y-77540275D02*
X213339508Y-77602180D01*
X214969977Y-76921228D02*
X216016643Y-76921228D01*
X214371882Y-77230752D02*
X215493310Y-77540275D01*
X215493310Y-77540275D02*
X215493310Y-76735514D01*
X216974255Y-76859323D02*
X216974255Y-77478371D01*
X216974255Y-77478371D02*
X217721874Y-77540275D01*
X217721874Y-77540275D02*
X217647113Y-77478371D01*
X217647113Y-77478371D02*
X217572351Y-77354561D01*
X217572351Y-77354561D02*
X217572351Y-77045037D01*
X217572351Y-77045037D02*
X217647113Y-76921228D01*
X217647113Y-76921228D02*
X217721874Y-76859323D01*
X217721874Y-76859323D02*
X217871398Y-76797418D01*
X217871398Y-76797418D02*
X218245208Y-76797418D01*
X218245208Y-76797418D02*
X218394732Y-76859323D01*
X218394732Y-76859323D02*
X218469494Y-76921228D01*
X218469494Y-76921228D02*
X218544255Y-77045037D01*
X218544255Y-77045037D02*
X218544255Y-77354561D01*
X218544255Y-77354561D02*
X218469494Y-77478371D01*
X218469494Y-77478371D02*
X218394732Y-77540275D01*
X219501867Y-76921228D02*
X219501867Y-77168847D01*
X219501867Y-77168847D02*
X219576629Y-77292656D01*
X219576629Y-77292656D02*
X219651391Y-77354561D01*
X219651391Y-77354561D02*
X219875677Y-77478371D01*
X219875677Y-77478371D02*
X220174725Y-77540275D01*
X220174725Y-77540275D02*
X220772820Y-77540275D01*
X220772820Y-77540275D02*
X220922344Y-77478371D01*
X220922344Y-77478371D02*
X220997106Y-77416466D01*
X220997106Y-77416466D02*
X221071867Y-77292656D01*
X221071867Y-77292656D02*
X221071867Y-77045037D01*
X221071867Y-77045037D02*
X220997106Y-76921228D01*
X220997106Y-76921228D02*
X220922344Y-76859323D01*
X220922344Y-76859323D02*
X220772820Y-76797418D01*
X220772820Y-76797418D02*
X220399010Y-76797418D01*
X220399010Y-76797418D02*
X220249486Y-76859323D01*
X220249486Y-76859323D02*
X220174725Y-76921228D01*
X220174725Y-76921228D02*
X220099963Y-77045037D01*
X220099963Y-77045037D02*
X220099963Y-77292656D01*
X220099963Y-77292656D02*
X220174725Y-77416466D01*
X220174725Y-77416466D02*
X220249486Y-77478371D01*
X220249486Y-77478371D02*
X220399010Y-77540275D01*
X222029479Y-77602180D02*
X222029479Y-76735514D01*
X222029479Y-76735514D02*
X223599479Y-77292656D01*
X204378583Y-115922180D02*
X204378583Y-115055514D01*
X204378583Y-115055514D02*
X205948583Y-115612656D01*
X206906195Y-115241228D02*
X206906195Y-115488847D01*
X206906195Y-115488847D02*
X206980957Y-115612656D01*
X206980957Y-115612656D02*
X207055719Y-115674561D01*
X207055719Y-115674561D02*
X207280005Y-115798371D01*
X207280005Y-115798371D02*
X207579053Y-115860275D01*
X207579053Y-115860275D02*
X208177148Y-115860275D01*
X208177148Y-115860275D02*
X208326672Y-115798371D01*
X208326672Y-115798371D02*
X208401434Y-115736466D01*
X208401434Y-115736466D02*
X208476195Y-115612656D01*
X208476195Y-115612656D02*
X208476195Y-115365037D01*
X208476195Y-115365037D02*
X208401434Y-115241228D01*
X208401434Y-115241228D02*
X208326672Y-115179323D01*
X208326672Y-115179323D02*
X208177148Y-115117418D01*
X208177148Y-115117418D02*
X207803338Y-115117418D01*
X207803338Y-115117418D02*
X207653814Y-115179323D01*
X207653814Y-115179323D02*
X207579053Y-115241228D01*
X207579053Y-115241228D02*
X207504291Y-115365037D01*
X207504291Y-115365037D02*
X207504291Y-115612656D01*
X207504291Y-115612656D02*
X207579053Y-115736466D01*
X207579053Y-115736466D02*
X207653814Y-115798371D01*
X207653814Y-115798371D02*
X207803338Y-115860275D01*
X209433807Y-115179323D02*
X209433807Y-115798371D01*
X209433807Y-115798371D02*
X210181426Y-115860275D01*
X210181426Y-115860275D02*
X210106665Y-115798371D01*
X210106665Y-115798371D02*
X210031903Y-115674561D01*
X210031903Y-115674561D02*
X210031903Y-115365037D01*
X210031903Y-115365037D02*
X210106665Y-115241228D01*
X210106665Y-115241228D02*
X210181426Y-115179323D01*
X210181426Y-115179323D02*
X210330950Y-115117418D01*
X210330950Y-115117418D02*
X210704760Y-115117418D01*
X210704760Y-115117418D02*
X210854284Y-115179323D01*
X210854284Y-115179323D02*
X210929046Y-115241228D01*
X210929046Y-115241228D02*
X211003807Y-115365037D01*
X211003807Y-115365037D02*
X211003807Y-115674561D01*
X211003807Y-115674561D02*
X210929046Y-115798371D01*
X210929046Y-115798371D02*
X210854284Y-115860275D01*
X212484753Y-115241228D02*
X213531419Y-115241228D01*
X211886658Y-115550752D02*
X213008086Y-115860275D01*
X213008086Y-115860275D02*
X213008086Y-115055514D01*
X214489031Y-115922180D02*
X214489031Y-115117418D01*
X214489031Y-115117418D02*
X215087127Y-115550752D01*
X215087127Y-115550752D02*
X215087127Y-115365037D01*
X215087127Y-115365037D02*
X215161889Y-115241228D01*
X215161889Y-115241228D02*
X215236650Y-115179323D01*
X215236650Y-115179323D02*
X215386174Y-115117418D01*
X215386174Y-115117418D02*
X215759984Y-115117418D01*
X215759984Y-115117418D02*
X215909508Y-115179323D01*
X215909508Y-115179323D02*
X215984270Y-115241228D01*
X215984270Y-115241228D02*
X216059031Y-115365037D01*
X216059031Y-115365037D02*
X216059031Y-115736466D01*
X216059031Y-115736466D02*
X215984270Y-115860275D01*
X215984270Y-115860275D02*
X215909508Y-115922180D01*
X217166167Y-115860275D02*
X217091405Y-115798371D01*
X217091405Y-115798371D02*
X217016643Y-115674561D01*
X217016643Y-115674561D02*
X217016643Y-115365037D01*
X217016643Y-115365037D02*
X217091405Y-115241228D01*
X217091405Y-115241228D02*
X217166167Y-115179323D01*
X217166167Y-115179323D02*
X217315691Y-115117418D01*
X217315691Y-115117418D02*
X217465215Y-115117418D01*
X217465215Y-115117418D02*
X217689501Y-115179323D01*
X217689501Y-115179323D02*
X218586643Y-115922180D01*
X218586643Y-115922180D02*
X218586643Y-115117418D01*
X221114255Y-115117418D02*
X221114255Y-115860275D01*
X221114255Y-115488847D02*
X219544255Y-115488847D01*
X219544255Y-115488847D02*
X219768541Y-115612656D01*
X219768541Y-115612656D02*
X219918065Y-115736466D01*
X219918065Y-115736466D02*
X219992827Y-115860275D01*
X222071867Y-115550752D02*
X222071867Y-115426942D01*
X222071867Y-115426942D02*
X222146629Y-115303133D01*
X222146629Y-115303133D02*
X222221391Y-115241228D01*
X222221391Y-115241228D02*
X222370915Y-115179323D01*
X222370915Y-115179323D02*
X222669963Y-115117418D01*
X222669963Y-115117418D02*
X223043772Y-115117418D01*
X223043772Y-115117418D02*
X223342820Y-115179323D01*
X223342820Y-115179323D02*
X223492344Y-115241228D01*
X223492344Y-115241228D02*
X223567106Y-115303133D01*
X223567106Y-115303133D02*
X223641867Y-115426942D01*
X223641867Y-115426942D02*
X223641867Y-115550752D01*
X223641867Y-115550752D02*
X223567106Y-115674561D01*
X223567106Y-115674561D02*
X223492344Y-115736466D01*
X223492344Y-115736466D02*
X223342820Y-115798371D01*
X223342820Y-115798371D02*
X223043772Y-115860275D01*
X223043772Y-115860275D02*
X222669963Y-115860275D01*
X222669963Y-115860275D02*
X222370915Y-115798371D01*
X222370915Y-115798371D02*
X222221391Y-115736466D01*
X222221391Y-115736466D02*
X222146629Y-115674561D01*
X222146629Y-115674561D02*
X222071867Y-115550752D01*
X226094718Y-115860275D02*
X226169479Y-115674561D01*
X226169479Y-115674561D02*
X226169479Y-115365037D01*
X226169479Y-115365037D02*
X226094718Y-115241228D01*
X226094718Y-115241228D02*
X226019956Y-115179323D01*
X226019956Y-115179323D02*
X225870432Y-115117418D01*
X225870432Y-115117418D02*
X225720908Y-115117418D01*
X225720908Y-115117418D02*
X225571384Y-115179323D01*
X225571384Y-115179323D02*
X225496622Y-115241228D01*
X225496622Y-115241228D02*
X225421860Y-115365037D01*
X225421860Y-115365037D02*
X225347098Y-115612656D01*
X225347098Y-115612656D02*
X225272337Y-115736466D01*
X225272337Y-115736466D02*
X225197575Y-115798371D01*
X225197575Y-115798371D02*
X225048051Y-115860275D01*
X225048051Y-115860275D02*
X224898527Y-115860275D01*
X224898527Y-115860275D02*
X224749003Y-115798371D01*
X224749003Y-115798371D02*
X224674241Y-115736466D01*
X224674241Y-115736466D02*
X224599479Y-115612656D01*
X224599479Y-115612656D02*
X224599479Y-115303133D01*
X224599479Y-115303133D02*
X224674241Y-115117418D01*
D14*
X160618720Y-63996028D02*
X160618720Y-62496028D01*
X160618720Y-62496028D02*
X160975863Y-62496028D01*
X160975863Y-62496028D02*
X161190149Y-62567457D01*
X161190149Y-62567457D02*
X161333006Y-62710314D01*
X161333006Y-62710314D02*
X161404435Y-62853171D01*
X161404435Y-62853171D02*
X161475863Y-63138885D01*
X161475863Y-63138885D02*
X161475863Y-63353171D01*
X161475863Y-63353171D02*
X161404435Y-63638885D01*
X161404435Y-63638885D02*
X161333006Y-63781742D01*
X161333006Y-63781742D02*
X161190149Y-63924600D01*
X161190149Y-63924600D02*
X160975863Y-63996028D01*
X160975863Y-63996028D02*
X160618720Y-63996028D01*
X161685863Y-115143171D02*
X161614435Y-115214600D01*
X161614435Y-115214600D02*
X161400149Y-115286028D01*
X161400149Y-115286028D02*
X161257292Y-115286028D01*
X161257292Y-115286028D02*
X161043006Y-115214600D01*
X161043006Y-115214600D02*
X160900149Y-115071742D01*
X160900149Y-115071742D02*
X160828720Y-114928885D01*
X160828720Y-114928885D02*
X160757292Y-114643171D01*
X160757292Y-114643171D02*
X160757292Y-114428885D01*
X160757292Y-114428885D02*
X160828720Y-114143171D01*
X160828720Y-114143171D02*
X160900149Y-114000314D01*
X160900149Y-114000314D02*
X161043006Y-113857457D01*
X161043006Y-113857457D02*
X161257292Y-113786028D01*
X161257292Y-113786028D02*
X161400149Y-113786028D01*
X161400149Y-113786028D02*
X161614435Y-113857457D01*
X161614435Y-113857457D02*
X161685863Y-113928885D01*
X230038720Y-63210314D02*
X230253006Y-63281742D01*
X230253006Y-63281742D02*
X230324435Y-63353171D01*
X230324435Y-63353171D02*
X230395863Y-63496028D01*
X230395863Y-63496028D02*
X230395863Y-63710314D01*
X230395863Y-63710314D02*
X230324435Y-63853171D01*
X230324435Y-63853171D02*
X230253006Y-63924600D01*
X230253006Y-63924600D02*
X230110149Y-63996028D01*
X230110149Y-63996028D02*
X229538720Y-63996028D01*
X229538720Y-63996028D02*
X229538720Y-62496028D01*
X229538720Y-62496028D02*
X230038720Y-62496028D01*
X230038720Y-62496028D02*
X230181578Y-62567457D01*
X230181578Y-62567457D02*
X230253006Y-62638885D01*
X230253006Y-62638885D02*
X230324435Y-62781742D01*
X230324435Y-62781742D02*
X230324435Y-62924600D01*
X230324435Y-62924600D02*
X230253006Y-63067457D01*
X230253006Y-63067457D02*
X230181578Y-63138885D01*
X230181578Y-63138885D02*
X230038720Y-63210314D01*
X230038720Y-63210314D02*
X229538720Y-63210314D01*
X229677292Y-114857457D02*
X230391578Y-114857457D01*
X229534435Y-115286028D02*
X230034435Y-113786028D01*
X230034435Y-113786028D02*
X230534435Y-115286028D01*
D15*
X195243520Y-96511470D02*
X195091139Y-96435280D01*
X195091139Y-96435280D02*
X194862568Y-96435280D01*
X194862568Y-96435280D02*
X194633996Y-96511470D01*
X194633996Y-96511470D02*
X194481615Y-96663851D01*
X194481615Y-96663851D02*
X194405425Y-96816232D01*
X194405425Y-96816232D02*
X194329234Y-97120994D01*
X194329234Y-97120994D02*
X194329234Y-97349566D01*
X194329234Y-97349566D02*
X194405425Y-97654328D01*
X194405425Y-97654328D02*
X194481615Y-97806709D01*
X194481615Y-97806709D02*
X194633996Y-97959090D01*
X194633996Y-97959090D02*
X194862568Y-98035280D01*
X194862568Y-98035280D02*
X195014949Y-98035280D01*
X195014949Y-98035280D02*
X195243520Y-97959090D01*
X195243520Y-97959090D02*
X195319711Y-97882899D01*
X195319711Y-97882899D02*
X195319711Y-97349566D01*
X195319711Y-97349566D02*
X195014949Y-97349566D01*
X196233996Y-98035280D02*
X196081615Y-97959090D01*
X196081615Y-97959090D02*
X196005425Y-97806709D01*
X196005425Y-97806709D02*
X196005425Y-96435280D01*
X197529234Y-98035280D02*
X197529234Y-97197185D01*
X197529234Y-97197185D02*
X197453044Y-97044804D01*
X197453044Y-97044804D02*
X197300663Y-96968613D01*
X197300663Y-96968613D02*
X196995901Y-96968613D01*
X196995901Y-96968613D02*
X196843520Y-97044804D01*
X197529234Y-97959090D02*
X197376853Y-98035280D01*
X197376853Y-98035280D02*
X196995901Y-98035280D01*
X196995901Y-98035280D02*
X196843520Y-97959090D01*
X196843520Y-97959090D02*
X196767329Y-97806709D01*
X196767329Y-97806709D02*
X196767329Y-97654328D01*
X196767329Y-97654328D02*
X196843520Y-97501947D01*
X196843520Y-97501947D02*
X196995901Y-97425756D01*
X196995901Y-97425756D02*
X197376853Y-97425756D01*
X197376853Y-97425756D02*
X197529234Y-97349566D01*
X198214948Y-97959090D02*
X198367329Y-98035280D01*
X198367329Y-98035280D02*
X198672091Y-98035280D01*
X198672091Y-98035280D02*
X198824472Y-97959090D01*
X198824472Y-97959090D02*
X198900663Y-97806709D01*
X198900663Y-97806709D02*
X198900663Y-97730518D01*
X198900663Y-97730518D02*
X198824472Y-97578137D01*
X198824472Y-97578137D02*
X198672091Y-97501947D01*
X198672091Y-97501947D02*
X198443520Y-97501947D01*
X198443520Y-97501947D02*
X198291139Y-97425756D01*
X198291139Y-97425756D02*
X198214948Y-97273375D01*
X198214948Y-97273375D02*
X198214948Y-97197185D01*
X198214948Y-97197185D02*
X198291139Y-97044804D01*
X198291139Y-97044804D02*
X198443520Y-96968613D01*
X198443520Y-96968613D02*
X198672091Y-96968613D01*
X198672091Y-96968613D02*
X198824472Y-97044804D01*
X200272091Y-96968613D02*
X200272091Y-98263851D01*
X200272091Y-98263851D02*
X200195901Y-98416232D01*
X200195901Y-98416232D02*
X200119710Y-98492423D01*
X200119710Y-98492423D02*
X199967329Y-98568613D01*
X199967329Y-98568613D02*
X199738758Y-98568613D01*
X199738758Y-98568613D02*
X199586377Y-98492423D01*
X200272091Y-97959090D02*
X200119710Y-98035280D01*
X200119710Y-98035280D02*
X199814948Y-98035280D01*
X199814948Y-98035280D02*
X199662567Y-97959090D01*
X199662567Y-97959090D02*
X199586377Y-97882899D01*
X199586377Y-97882899D02*
X199510186Y-97730518D01*
X199510186Y-97730518D02*
X199510186Y-97273375D01*
X199510186Y-97273375D02*
X199586377Y-97120994D01*
X199586377Y-97120994D02*
X199662567Y-97044804D01*
X199662567Y-97044804D02*
X199814948Y-96968613D01*
X199814948Y-96968613D02*
X200119710Y-96968613D01*
X200119710Y-96968613D02*
X200272091Y-97044804D01*
X201262567Y-98035280D02*
X201110186Y-97959090D01*
X201110186Y-97959090D02*
X201033996Y-97882899D01*
X201033996Y-97882899D02*
X200957805Y-97730518D01*
X200957805Y-97730518D02*
X200957805Y-97273375D01*
X200957805Y-97273375D02*
X201033996Y-97120994D01*
X201033996Y-97120994D02*
X201110186Y-97044804D01*
X201110186Y-97044804D02*
X201262567Y-96968613D01*
X201262567Y-96968613D02*
X201491139Y-96968613D01*
X201491139Y-96968613D02*
X201643520Y-97044804D01*
X201643520Y-97044804D02*
X201719710Y-97120994D01*
X201719710Y-97120994D02*
X201795901Y-97273375D01*
X201795901Y-97273375D02*
X201795901Y-97730518D01*
X201795901Y-97730518D02*
X201719710Y-97882899D01*
X201719710Y-97882899D02*
X201643520Y-97959090D01*
X201643520Y-97959090D02*
X201491139Y-98035280D01*
X201491139Y-98035280D02*
X201262567Y-98035280D01*
X202329234Y-96968613D02*
X202633996Y-98035280D01*
X202633996Y-98035280D02*
X202938758Y-97273375D01*
X202938758Y-97273375D02*
X203243520Y-98035280D01*
X203243520Y-98035280D02*
X203548282Y-96968613D01*
X194405425Y-100611190D02*
X194405425Y-99544523D01*
X194405425Y-99849285D02*
X194481615Y-99696904D01*
X194481615Y-99696904D02*
X194557806Y-99620714D01*
X194557806Y-99620714D02*
X194710187Y-99544523D01*
X194710187Y-99544523D02*
X194862568Y-99544523D01*
X196005425Y-100535000D02*
X195853044Y-100611190D01*
X195853044Y-100611190D02*
X195548282Y-100611190D01*
X195548282Y-100611190D02*
X195395901Y-100535000D01*
X195395901Y-100535000D02*
X195319710Y-100382619D01*
X195319710Y-100382619D02*
X195319710Y-99773095D01*
X195319710Y-99773095D02*
X195395901Y-99620714D01*
X195395901Y-99620714D02*
X195548282Y-99544523D01*
X195548282Y-99544523D02*
X195853044Y-99544523D01*
X195853044Y-99544523D02*
X196005425Y-99620714D01*
X196005425Y-99620714D02*
X196081615Y-99773095D01*
X196081615Y-99773095D02*
X196081615Y-99925476D01*
X196081615Y-99925476D02*
X195319710Y-100077857D01*
X196614949Y-99544523D02*
X196995901Y-100611190D01*
X196995901Y-100611190D02*
X197376854Y-99544523D01*
X197986378Y-100611190D02*
X197986378Y-99011190D01*
X197986378Y-99011190D02*
X198367330Y-99011190D01*
X198367330Y-99011190D02*
X198595902Y-99087380D01*
X198595902Y-99087380D02*
X198748283Y-99239761D01*
X198748283Y-99239761D02*
X198824473Y-99392142D01*
X198824473Y-99392142D02*
X198900664Y-99696904D01*
X198900664Y-99696904D02*
X198900664Y-99925476D01*
X198900664Y-99925476D02*
X198824473Y-100230238D01*
X198824473Y-100230238D02*
X198748283Y-100382619D01*
X198748283Y-100382619D02*
X198595902Y-100535000D01*
X198595902Y-100535000D02*
X198367330Y-100611190D01*
X198367330Y-100611190D02*
X197986378Y-100611190D01*
X199891140Y-99011190D02*
X200043521Y-99011190D01*
X200043521Y-99011190D02*
X200195902Y-99087380D01*
X200195902Y-99087380D02*
X200272092Y-99163571D01*
X200272092Y-99163571D02*
X200348283Y-99315952D01*
X200348283Y-99315952D02*
X200424473Y-99620714D01*
X200424473Y-99620714D02*
X200424473Y-100001666D01*
X200424473Y-100001666D02*
X200348283Y-100306428D01*
X200348283Y-100306428D02*
X200272092Y-100458809D01*
X200272092Y-100458809D02*
X200195902Y-100535000D01*
X200195902Y-100535000D02*
X200043521Y-100611190D01*
X200043521Y-100611190D02*
X199891140Y-100611190D01*
X199891140Y-100611190D02*
X199738759Y-100535000D01*
X199738759Y-100535000D02*
X199662568Y-100458809D01*
X199662568Y-100458809D02*
X199586378Y-100306428D01*
X199586378Y-100306428D02*
X199510187Y-100001666D01*
X199510187Y-100001666D02*
X199510187Y-99620714D01*
X199510187Y-99620714D02*
X199586378Y-99315952D01*
X199586378Y-99315952D02*
X199662568Y-99163571D01*
X199662568Y-99163571D02*
X199738759Y-99087380D01*
X199738759Y-99087380D02*
X199891140Y-99011190D01*
G04 #@! TO.C,D80*
D11*
X194465000Y-103115000D02*
X194465000Y-105400000D01*
X195935000Y-103115000D02*
X194465000Y-103115000D01*
X195935000Y-105400000D02*
X195935000Y-103115000D01*
G04 #@! TO.C,R23*
X229620000Y-87046359D02*
X229620000Y-87353641D01*
X230380000Y-87046359D02*
X230380000Y-87353641D01*
G04 #@! TO.C,R28*
X162903859Y-79515000D02*
X163211141Y-79515000D01*
X162903859Y-80275000D02*
X163211141Y-80275000D01*
G04 #@! TO.C,R2*
X238896359Y-97120000D02*
X239203641Y-97120000D01*
X238896359Y-97880000D02*
X239203641Y-97880000D01*
G04 #@! TO.C,C46*
X166480000Y-95117836D02*
X166480000Y-94902164D01*
X167200000Y-95117836D02*
X167200000Y-94902164D01*
G04 #@! TO.C,C16*
X229559420Y-88727500D02*
X229840580Y-88727500D01*
X229559420Y-89747500D02*
X229840580Y-89747500D01*
G04 #@! TO.C,C83*
X233440000Y-106957836D02*
X233440000Y-106742164D01*
X234160000Y-106957836D02*
X234160000Y-106742164D01*
G04 #@! TO.C,FB1*
X233762779Y-85190000D02*
X233437221Y-85190000D01*
X233762779Y-86210000D02*
X233437221Y-86210000D01*
G04 #@! TO.C,U8*
X189425000Y-81890000D02*
X189425000Y-96090000D01*
X189425000Y-96090000D02*
X203305000Y-96090000D01*
X203625000Y-81890000D02*
X189425000Y-81890000D01*
X203625000Y-95770000D02*
X203625000Y-81890000D01*
X203625000Y-96090000D02*
X204125000Y-96090000D01*
X203625000Y-96590000D01*
X203625000Y-96090000D01*
G36*
X203625000Y-96590000D02*
G01*
X203625000Y-96090000D01*
X204125000Y-96090000D01*
X203625000Y-96590000D01*
G37*
G04 #@! TO.C,C18*
X233740580Y-82190000D02*
X233459420Y-82190000D01*
X233740580Y-83210000D02*
X233459420Y-83210000D01*
G04 #@! TO.C,C43*
X170102163Y-90440000D02*
X170317835Y-90440000D01*
X170102163Y-91160000D02*
X170317835Y-91160000D01*
G04 #@! TO.C,C37*
X163376000Y-96047836D02*
X163376000Y-95832164D01*
X164096000Y-96047836D02*
X164096000Y-95832164D01*
G04 #@! TO.C,C92*
X233440000Y-104892164D02*
X233440000Y-105107836D01*
X234160000Y-104892164D02*
X234160000Y-105107836D01*
G04 #@! TO.C,Q1*
X151916000Y-94340000D02*
X153436000Y-94340000D01*
X151916000Y-95340000D02*
X151916000Y-94340000D01*
X151916000Y-97460000D02*
X151916000Y-96460000D01*
X153436000Y-94340000D02*
X153436000Y-94390000D01*
X153436000Y-95510000D02*
X153436000Y-96290000D01*
X153436000Y-97410000D02*
X153436000Y-97460000D01*
X153436000Y-97460000D02*
X151916000Y-97460000D01*
X153976000Y-96280000D02*
X153736000Y-95950000D01*
X154216000Y-95950000D01*
X153976000Y-96280000D01*
G36*
X153976000Y-96280000D02*
G01*
X153736000Y-95950000D01*
X154216000Y-95950000D01*
X153976000Y-96280000D01*
G37*
G04 #@! TO.C,U12*
X179415000Y-81880000D02*
X187635000Y-81880000D01*
X179415000Y-87100000D02*
X179415000Y-81880000D01*
X187635000Y-81880000D02*
X187635000Y-88100000D01*
X187635000Y-88100000D02*
X180415000Y-88100000D01*
X179415000Y-88100000D02*
X179415000Y-88600000D01*
X178915000Y-88100000D01*
X179415000Y-88100000D01*
G36*
X179415000Y-88600000D02*
G01*
X178915000Y-88100000D01*
X179415000Y-88100000D01*
X179415000Y-88600000D01*
G37*
G04 #@! TO.C,R20*
X174253641Y-97020000D02*
X173946359Y-97020000D01*
X174253641Y-97780000D02*
X173946359Y-97780000D01*
G04 #@! TO.C,R5*
X238896359Y-102820000D02*
X239203641Y-102820000D01*
X238896359Y-103580000D02*
X239203641Y-103580000D01*
G04 #@! TO.C,R58*
X241699940Y-70102659D02*
X241482659Y-70319940D01*
X242237341Y-70640060D02*
X242020060Y-70857341D01*
G04 #@! TO.C,C13*
X233740580Y-83690000D02*
X233459420Y-83690000D01*
X233740580Y-84710000D02*
X233459420Y-84710000D01*
G04 #@! TO.C,D14*
X161637500Y-77825000D02*
X161637500Y-79295000D01*
X161637500Y-79295000D02*
X163922500Y-79295000D01*
X163922500Y-77825000D02*
X161637500Y-77825000D01*
G04 #@! TO.C,U11*
X179415000Y-89880000D02*
X187635000Y-89880000D01*
X179415000Y-95100000D02*
X179415000Y-89880000D01*
X187635000Y-89880000D02*
X187635000Y-96100000D01*
X187635000Y-96100000D02*
X180415000Y-96100000D01*
X179415000Y-96100000D02*
X179415000Y-96600000D01*
X178915000Y-96100000D01*
X179415000Y-96100000D01*
G36*
X179415000Y-96600000D02*
G01*
X178915000Y-96100000D01*
X179415000Y-96100000D01*
X179415000Y-96600000D01*
G37*
G04 #@! TO.C,C21*
X227640000Y-85492164D02*
X227640000Y-85707836D01*
X228360000Y-85492164D02*
X228360000Y-85707836D01*
G04 #@! TO.C,C29*
X168810000Y-92142164D02*
X168810000Y-92357836D01*
X169530000Y-92142164D02*
X169530000Y-92357836D01*
G04 #@! TO.C,SW1*
D16*
X232250000Y-112334000D02*
X236750000Y-112334000D01*
X232250000Y-115134000D02*
X232250000Y-112334000D01*
X233800000Y-115134000D02*
X232250000Y-115134000D01*
X236750000Y-115134000D02*
X235200000Y-115134000D01*
X236750000Y-115134000D02*
X236750000Y-112334000D01*
G04 #@! TO.C,R68*
D11*
X235046359Y-102870000D02*
X235353641Y-102870000D01*
X235046359Y-103630000D02*
X235353641Y-103630000D01*
G04 #@! TO.C,D28*
X240800000Y-83135000D02*
X243085000Y-83135000D01*
X243085000Y-81665000D02*
X240800000Y-81665000D01*
X243085000Y-83135000D02*
X243085000Y-81665000D01*
G04 #@! TO.C,D1*
X240800000Y-96335000D02*
X243085000Y-96335000D01*
X243085000Y-94865000D02*
X240800000Y-94865000D01*
X243085000Y-96335000D02*
X243085000Y-94865000D01*
G04 #@! TO.C,R25*
X228520000Y-82753641D02*
X228520000Y-82446359D01*
X229280000Y-82753641D02*
X229280000Y-82446359D01*
G04 #@! TO.C,J3*
X151620000Y-86345000D02*
X153000000Y-86345000D01*
X151620000Y-87725000D02*
X151620000Y-86345000D01*
X151620000Y-88995000D02*
X151620000Y-91645000D01*
X151620000Y-88995000D02*
X154380000Y-88995000D01*
X151620000Y-91645000D02*
X154380000Y-91645000D01*
X154380000Y-88995000D02*
X154380000Y-91645000D01*
G04 #@! TO.C,D60*
X195145000Y-72700000D02*
X195145000Y-74985000D01*
X195145000Y-74985000D02*
X196615000Y-74985000D01*
X196615000Y-74985000D02*
X196615000Y-72700000D01*
G04 #@! TO.C,D5*
X240800000Y-103935000D02*
X243085000Y-103935000D01*
X243085000Y-102465000D02*
X240800000Y-102465000D01*
X243085000Y-103935000D02*
X243085000Y-102465000D01*
G04 #@! TO.C,D8*
X232912500Y-90200000D02*
X234872500Y-90200000D01*
X232912500Y-91400000D02*
X234872500Y-91400000D01*
X234872500Y-91400000D02*
X234872500Y-90200000D01*
G04 #@! TO.C,D31*
D10*
X159570001Y-98140000D02*
G75*
G02*
X159469999Y-98140000I-50001J0D01*
G01*
X159469999Y-98140000D02*
G75*
G02*
X159570001Y-98140000I50001J0D01*
G01*
G04 #@! TO.C,R74*
D11*
X173283641Y-82697500D02*
X172976359Y-82697500D01*
X173283641Y-83457500D02*
X172976359Y-83457500D01*
G04 #@! TO.C,R4*
X238896359Y-100920000D02*
X239203641Y-100920000D01*
X238896359Y-101680000D02*
X239203641Y-101680000D01*
G04 #@! TO.C,D23*
X154810000Y-84050000D02*
X152150000Y-84050000D01*
X154810000Y-85750000D02*
X152150000Y-85750000D01*
X154810000Y-85750000D02*
X154810000Y-84050000D01*
G04 #@! TO.C,R43*
X238846359Y-78220000D02*
X239153641Y-78220000D01*
X238846359Y-78980000D02*
X239153641Y-78980000D01*
G04 #@! TO.C,U7*
X158952500Y-84390000D02*
X159427500Y-84390000D01*
X158952500Y-84865000D02*
X158952500Y-84390000D01*
X158952500Y-93610000D02*
X158952500Y-93135000D01*
X159427500Y-93610000D02*
X158952500Y-93610000D01*
X167697500Y-84390000D02*
X168172500Y-84390000D01*
X168172500Y-84390000D02*
X168172500Y-84865000D01*
X168172500Y-93135000D02*
X168172500Y-93610000D01*
X168172500Y-93610000D02*
X167697500Y-93610000D01*
X158452500Y-85250000D02*
X158122500Y-85490000D01*
X158122500Y-85010000D01*
X158452500Y-85250000D01*
G36*
X158452500Y-85250000D02*
G01*
X158122500Y-85490000D01*
X158122500Y-85010000D01*
X158452500Y-85250000D01*
G37*
G04 #@! TO.C,R46*
X236020000Y-77646359D02*
X236020000Y-77953641D01*
X236780000Y-77646359D02*
X236780000Y-77953641D01*
G04 #@! TO.C,D27*
X240800000Y-81235000D02*
X243085000Y-81235000D01*
X243085000Y-79765000D02*
X240800000Y-79765000D01*
X243085000Y-81235000D02*
X243085000Y-79765000D01*
G04 #@! TO.C,C14*
X234007836Y-91640000D02*
X233792164Y-91640000D01*
X234007836Y-92360000D02*
X233792164Y-92360000D01*
G04 #@! TO.C,R12*
X194820000Y-108946359D02*
X194820000Y-109253641D01*
X195580000Y-108946359D02*
X195580000Y-109253641D01*
G04 #@! TO.C,C100*
X171640000Y-78825336D02*
X171640000Y-78609664D01*
X172360000Y-78825336D02*
X172360000Y-78609664D01*
G04 #@! TO.C,C31*
X169532164Y-85860000D02*
X169747836Y-85860000D01*
X169532164Y-86580000D02*
X169747836Y-86580000D01*
G04 #@! TO.C,R53*
X158320000Y-107353641D02*
X158320000Y-107046359D01*
X159080000Y-107353641D02*
X159080000Y-107046359D01*
G04 #@! TO.C,D24*
X240800000Y-75535000D02*
X243085000Y-75535000D01*
X243085000Y-74065000D02*
X240800000Y-74065000D01*
X243085000Y-75535000D02*
X243085000Y-74065000D01*
G04 #@! TO.C,R47*
X232141141Y-73870000D02*
X231833859Y-73870000D01*
X232141141Y-74630000D02*
X231833859Y-74630000D01*
G04 #@! TO.C,TP4*
X196820000Y-79700000D02*
G75*
G02*
X195420000Y-79700000I-700000J0D01*
G01*
X195420000Y-79700000D02*
G75*
G02*
X196820000Y-79700000I700000J0D01*
G01*
G04 #@! TO.C,C71*
X232480000Y-75752164D02*
X232480000Y-75967836D01*
X233200000Y-75752164D02*
X233200000Y-75967836D01*
G04 #@! TO.C,D13*
D10*
X159690001Y-74552500D02*
G75*
G02*
X159589999Y-74552500I-50001J0D01*
G01*
X159589999Y-74552500D02*
G75*
G02*
X159690001Y-74552500I50001J0D01*
G01*
G04 #@! TO.C,R34*
D11*
X153500000Y-81850000D02*
X154700000Y-81850000D01*
X154700000Y-83550000D02*
X153500000Y-83550000D01*
G04 #@! TO.C,C25*
X157530000Y-92722164D02*
X157530000Y-92937836D01*
X158250000Y-92722164D02*
X158250000Y-92937836D01*
G04 #@! TO.C,C5*
X216008601Y-93217718D02*
X216161104Y-93370221D01*
X216517718Y-92708601D02*
X216670221Y-92861104D01*
G04 #@! TO.C,C45*
X169532164Y-84890000D02*
X169747836Y-84890000D01*
X169532164Y-85610000D02*
X169747836Y-85610000D01*
G04 #@! TO.C,C33*
X160018164Y-94260000D02*
X160233836Y-94260000D01*
X160018164Y-94980000D02*
X160233836Y-94980000D01*
G04 #@! TO.C,C42*
X165560000Y-94902164D02*
X165560000Y-95117836D01*
X166280000Y-94902164D02*
X166280000Y-95117836D01*
G04 #@! TO.C,R69*
X165983641Y-78400000D02*
X165676359Y-78400000D01*
X165983641Y-79160000D02*
X165676359Y-79160000D01*
G04 #@! TO.C,R18*
X174253641Y-95870000D02*
X173946359Y-95870000D01*
X174253641Y-96630000D02*
X173946359Y-96630000D01*
G04 #@! TO.C,R67*
X234420000Y-104843641D02*
X234420000Y-104536359D01*
X235180000Y-104843641D02*
X235180000Y-104536359D01*
G04 #@! TO.C,D33*
D10*
X161211889Y-101331888D02*
G75*
G02*
X161111887Y-101331888I-50001J0D01*
G01*
X161111887Y-101331888D02*
G75*
G02*
X161211889Y-101331888I50001J0D01*
G01*
G04 #@! TO.C,C26*
D11*
X164442164Y-94210000D02*
X164657836Y-94210000D01*
X164442164Y-94930000D02*
X164657836Y-94930000D01*
G04 #@! TO.C,D35*
D10*
X239411889Y-69711888D02*
G75*
G02*
X239311887Y-69711888I-50001J0D01*
G01*
X239311887Y-69711888D02*
G75*
G02*
X239411889Y-69711888I50001J0D01*
G01*
G04 #@! TO.C,NT12*
D11*
X226403641Y-81020000D02*
X226096359Y-81020000D01*
X226403641Y-81780000D02*
X226096359Y-81780000D01*
G04 #@! TO.C,C24*
X161536000Y-94902164D02*
X161536000Y-95117836D01*
X162256000Y-94902164D02*
X162256000Y-95117836D01*
G04 #@! TO.C,C10*
X225982282Y-95791399D02*
X225829779Y-95638896D01*
X226491399Y-95282282D02*
X226338896Y-95129779D01*
G04 #@! TO.C,R126*
X195420000Y-70846359D02*
X195420000Y-71153641D01*
X196180000Y-70846359D02*
X196180000Y-71153641D01*
G04 #@! TO.C,TP2*
X154650000Y-93100000D02*
G75*
G02*
X153250000Y-93100000I-700000J0D01*
G01*
X153250000Y-93100000D02*
G75*
G02*
X154650000Y-93100000I700000J0D01*
G01*
G04 #@! TO.C,R10*
X231820000Y-108846359D02*
X231820000Y-109153641D01*
X232580000Y-108846359D02*
X232580000Y-109153641D01*
G04 #@! TO.C,U16*
X235250000Y-109209999D02*
X236520000Y-109209999D01*
X236550000Y-106089999D02*
X235250000Y-106089999D01*
X236900000Y-109159999D02*
X237140000Y-109489999D01*
X236660000Y-109489999D01*
X236900000Y-109159999D01*
G36*
X237140000Y-109489999D02*
G01*
X236660000Y-109489999D01*
X236900000Y-109159999D01*
X237140000Y-109489999D01*
G37*
G04 #@! TO.C,U10*
X233327500Y-75077500D02*
X233352500Y-75077500D01*
X233327500Y-76547500D02*
X233327500Y-75077500D01*
X233352500Y-76547500D02*
X233327500Y-76547500D01*
X235522500Y-75077500D02*
X235547500Y-75077500D01*
X235547500Y-75077500D02*
X235547500Y-76547500D01*
X235547500Y-76547500D02*
X235522500Y-76547500D01*
X233347500Y-76992500D02*
X233157500Y-77132500D01*
X233157500Y-76852500D01*
X233347500Y-76992500D01*
G36*
X233347500Y-76992500D02*
G01*
X233157500Y-77132500D01*
X233157500Y-76852500D01*
X233347500Y-76992500D01*
G37*
G04 #@! TO.C,U4*
X229102500Y-90540000D02*
X229327500Y-90540000D01*
X229102500Y-91015000D02*
X229102500Y-90540000D01*
X229102500Y-93260000D02*
X229102500Y-92785000D01*
X229327500Y-93260000D02*
X229102500Y-93260000D01*
X231597500Y-90540000D02*
X231822500Y-90540000D01*
X231822500Y-90540000D02*
X231822500Y-91015000D01*
X231822500Y-92785000D02*
X231822500Y-93260000D01*
X231822500Y-93260000D02*
X231597500Y-93260000D01*
X228602500Y-91400000D02*
X228272500Y-91640000D01*
X228272500Y-91160000D01*
X228602500Y-91400000D01*
G36*
X228602500Y-91400000D02*
G01*
X228272500Y-91640000D01*
X228272500Y-91160000D01*
X228602500Y-91400000D01*
G37*
G04 #@! TO.C,R11*
X195420000Y-69153641D02*
X195420000Y-68846359D01*
X196180000Y-69153641D02*
X196180000Y-68846359D01*
G04 #@! TO.C,C41*
X157547836Y-91100000D02*
X157332164Y-91100000D01*
X157547836Y-91820000D02*
X157332164Y-91820000D01*
G04 #@! TO.C,R49*
X160903641Y-98900000D02*
X160596359Y-98900000D01*
X160903641Y-99660000D02*
X160596359Y-99660000D01*
G04 #@! TO.C,TP1*
X152500000Y-93100000D02*
G75*
G02*
X151100000Y-93100000I-700000J0D01*
G01*
X151100000Y-93100000D02*
G75*
G02*
X152500000Y-93100000I700000J0D01*
G01*
G04 #@! TO.C,C84*
X235307836Y-109490000D02*
X235092164Y-109490000D01*
X235307836Y-110210000D02*
X235092164Y-110210000D01*
G04 #@! TO.C,C36*
X169360000Y-81392164D02*
X169360000Y-81607836D01*
X170080000Y-81392164D02*
X170080000Y-81607836D01*
G04 #@! TO.C,C32*
X162950000Y-83047836D02*
X162950000Y-82832164D01*
X163670000Y-83047836D02*
X163670000Y-82832164D01*
G04 #@! TO.C,R83*
X194220000Y-74136360D02*
X194220000Y-74443642D01*
X194980000Y-74136360D02*
X194980000Y-74443642D01*
G04 #@! TO.C,J8*
X197380000Y-65415000D02*
X201560000Y-65415000D01*
X197380000Y-74585000D02*
X197380000Y-65415000D01*
X201560000Y-74585000D02*
X197380000Y-74585000D01*
X201560000Y-74585000D02*
X201560000Y-76085000D01*
X226440000Y-74585000D02*
X230620000Y-74585000D01*
X230620000Y-65415000D02*
X226440000Y-65415000D01*
X230620000Y-74585000D02*
X230620000Y-65415000D01*
G04 #@! TO.C,D2*
X240800000Y-98235000D02*
X243085000Y-98235000D01*
X243085000Y-96765000D02*
X240800000Y-96765000D01*
X243085000Y-98235000D02*
X243085000Y-96765000D01*
G04 #@! TO.C,R59*
X233420000Y-108853641D02*
X233420000Y-108546359D01*
X234180000Y-108853641D02*
X234180000Y-108546359D01*
G04 #@! TO.C,D6*
D10*
X234740000Y-89500000D02*
G75*
G02*
X234640000Y-89500000I-50000J0D01*
G01*
X234640000Y-89500000D02*
G75*
G02*
X234740000Y-89500000I50000J0D01*
G01*
G04 #@! TO.C,R7*
D11*
X215920000Y-96653641D02*
X215920000Y-96346359D01*
X216680000Y-96653641D02*
X216680000Y-96346359D01*
G04 #@! TO.C,C121*
X194240000Y-72557836D02*
X194240000Y-72342164D01*
X194960000Y-72557836D02*
X194960000Y-72342164D01*
G04 #@! TO.C,C11*
X222219190Y-99378307D02*
X222371693Y-99530810D01*
X222728307Y-98869190D02*
X222880810Y-99021693D01*
G04 #@! TO.C,C70*
X233742164Y-77410000D02*
X233957836Y-77410000D01*
X233742164Y-78130000D02*
X233957836Y-78130000D01*
G04 #@! TO.C,J9*
X160380000Y-103515000D02*
X160380000Y-112685000D01*
X160380000Y-112685000D02*
X164560000Y-112685000D01*
X164560000Y-103515000D02*
X160380000Y-103515000D01*
X189440000Y-103515000D02*
X189440000Y-102015000D01*
X189440000Y-103515000D02*
X193620000Y-103515000D01*
X193620000Y-103515000D02*
X193620000Y-112685000D01*
X193620000Y-112685000D02*
X189440000Y-112685000D01*
G04 #@! TO.C,C2*
X220440000Y-97007836D02*
X220440000Y-96792164D01*
X221160000Y-97007836D02*
X221160000Y-96792164D01*
G04 #@! TO.C,R45*
X238846359Y-82020000D02*
X239153641Y-82020000D01*
X238846359Y-82780000D02*
X239153641Y-82780000D01*
G04 #@! TO.C,R21*
X158420000Y-69253641D02*
X158420000Y-68946359D01*
X159180000Y-69253641D02*
X159180000Y-68946359D01*
G04 #@! TO.C,R72*
X225750000Y-79646359D02*
X225750000Y-79953641D01*
X226510000Y-79646359D02*
X226510000Y-79953641D01*
G04 #@! TO.C,C30*
X156690580Y-85140000D02*
X156409420Y-85140000D01*
X156690580Y-86160000D02*
X156409420Y-86160000D01*
G04 #@! TO.C,Q2*
X155776000Y-94340000D02*
X157296000Y-94340000D01*
X155776000Y-94390000D02*
X155776000Y-94340000D01*
X155776000Y-96290000D02*
X155776000Y-95510000D01*
X155776000Y-97460000D02*
X155776000Y-97410000D01*
X157296000Y-94340000D02*
X157296000Y-95340000D01*
X157296000Y-96460000D02*
X157296000Y-97460000D01*
X157296000Y-97460000D02*
X155776000Y-97460000D01*
X155236000Y-95520000D02*
X155476000Y-95850000D01*
X154996000Y-95850000D01*
X155236000Y-95520000D01*
G36*
X155476000Y-95850000D02*
G01*
X154996000Y-95850000D01*
X155236000Y-95520000D01*
X155476000Y-95850000D01*
G37*
G04 #@! TO.C,U5*
D16*
X228575000Y-83700000D02*
X228575000Y-86100000D01*
X230525000Y-83575000D02*
X231225000Y-83575000D01*
X231225000Y-83575000D02*
X231225000Y-84275000D01*
G04 #@! TO.C,C35*
D11*
X162456000Y-96047836D02*
X162456000Y-95832164D01*
X163176000Y-96047836D02*
X163176000Y-95832164D01*
G04 #@! TO.C,R13*
X172253641Y-93120000D02*
X171946359Y-93120000D01*
X172253641Y-93880000D02*
X171946359Y-93880000D01*
G04 #@! TO.C,C12*
X167392164Y-96840000D02*
X167607836Y-96840000D01*
X167392164Y-97560000D02*
X167607836Y-97560000D01*
G04 #@! TO.C,C17*
X227670000Y-92807836D02*
X227670000Y-92592164D01*
X228390000Y-92807836D02*
X228390000Y-92592164D01*
G04 #@! TO.C,R168*
X194820000Y-107253641D02*
X194820000Y-106946359D01*
X195580000Y-107253641D02*
X195580000Y-106946359D01*
G04 #@! TO.C,D7*
D10*
X234740000Y-88500000D02*
G75*
G02*
X234640000Y-88500000I-50000J0D01*
G01*
X234640000Y-88500000D02*
G75*
G02*
X234740000Y-88500000I50000J0D01*
G01*
G04 #@! TO.C,D32*
X237585000Y-73470000D02*
G75*
G02*
X237485000Y-73470000I-50000J0D01*
G01*
X237485000Y-73470000D02*
G75*
G02*
X237585000Y-73470000I50000J0D01*
G01*
G04 #@! TO.C,R42*
D11*
X238896359Y-76320000D02*
X239203641Y-76320000D01*
X238896359Y-77080000D02*
X239203641Y-77080000D01*
G04 #@! TO.C,J5*
X151910000Y-98280000D02*
X153185000Y-98280000D01*
X153185000Y-98215000D02*
X153185000Y-98280000D01*
X153185000Y-98215000D02*
X156815000Y-98215000D01*
X153185000Y-104720000D02*
X153185000Y-104785000D01*
X153185000Y-104785000D02*
X156815000Y-104785000D01*
X156815000Y-98215000D02*
X156815000Y-98280000D01*
X156815000Y-104720000D02*
X156815000Y-104785000D01*
G04 #@! TO.C,J2*
X151910000Y-73280000D02*
X153185000Y-73280000D01*
X153185000Y-73215000D02*
X153185000Y-73280000D01*
X153185000Y-73215000D02*
X156815000Y-73215000D01*
X153185000Y-79720000D02*
X153185000Y-79785000D01*
X153185000Y-79785000D02*
X156815000Y-79785000D01*
X156815000Y-73215000D02*
X156815000Y-73280000D01*
X156815000Y-79720000D02*
X156815000Y-79785000D01*
G04 #@! TO.C,D30*
D10*
X159520000Y-100330000D02*
G75*
G02*
X159420000Y-100330000I-50000J0D01*
G01*
X159420000Y-100330000D02*
G75*
G02*
X159520000Y-100330000I50000J0D01*
G01*
G04 #@! TO.C,C95*
D11*
X230902500Y-79945337D02*
X230902500Y-79729665D01*
X231622500Y-79945337D02*
X231622500Y-79729665D01*
G04 #@! TO.C,R1*
X238896359Y-95220000D02*
X239203641Y-95220000D01*
X238896359Y-95980000D02*
X239203641Y-95980000D01*
G04 #@! TO.C,R41*
X238896359Y-74420000D02*
X239203641Y-74420000D01*
X238896359Y-75180000D02*
X239203641Y-75180000D01*
G04 #@! TO.C,C51*
X155817836Y-83950000D02*
X155602164Y-83950000D01*
X155817836Y-84670000D02*
X155602164Y-84670000D01*
G04 #@! TO.C,D11*
D10*
X159940001Y-80610000D02*
G75*
G02*
X159839999Y-80610000I-50001J0D01*
G01*
X159839999Y-80610000D02*
G75*
G02*
X159940001Y-80610000I50001J0D01*
G01*
G04 #@! TO.C,C22*
D11*
X220490000Y-83954437D02*
X220490000Y-89710000D01*
X220490000Y-89710000D02*
X222840000Y-89710000D01*
X221554437Y-82890000D02*
X220490000Y-83954437D01*
X221554437Y-82890000D02*
X222840000Y-82890000D01*
X225747500Y-81862500D02*
X225747500Y-82650000D01*
X226141250Y-82256250D02*
X225353750Y-82256250D01*
X226245563Y-82890000D02*
X224960000Y-82890000D01*
X226245563Y-82890000D02*
X227310000Y-83954437D01*
X227310000Y-83954437D02*
X227310000Y-89710000D01*
X227310000Y-89710000D02*
X224960000Y-89710000D01*
G04 #@! TO.C,R15*
X174253641Y-94770000D02*
X173946359Y-94770000D01*
X174253641Y-95530000D02*
X173946359Y-95530000D01*
G04 #@! TO.C,C9*
X219460000Y-86877836D02*
X219460000Y-86662164D01*
X220180000Y-86877836D02*
X220180000Y-86662164D01*
G04 #@! TO.C,U20*
X227752500Y-77790001D02*
X229572500Y-77790001D01*
X227752500Y-77840001D02*
X227752500Y-77790001D01*
X227752500Y-80910001D02*
X227752500Y-80860001D01*
X229572500Y-77790001D02*
X229572500Y-77840001D01*
X229572500Y-80860001D02*
X229572500Y-80910001D01*
X229572500Y-80910001D02*
X227752500Y-80910001D01*
X230112500Y-80860001D02*
X230352500Y-81190001D01*
X229872500Y-81190001D01*
X230112500Y-80860001D01*
G36*
X230352500Y-81190001D02*
G01*
X229872500Y-81190001D01*
X230112500Y-80860001D01*
X230352500Y-81190001D01*
G37*
G04 #@! TO.C,J6*
X210090000Y-80340000D02*
X210090000Y-81340000D01*
X210090000Y-96660000D02*
X209666667Y-96660000D01*
X210090000Y-97660000D02*
X210090000Y-96660000D01*
X213910000Y-80340000D02*
X210090000Y-80340000D01*
X213910000Y-81340000D02*
X213910000Y-80340000D01*
X213910000Y-96660000D02*
X213910000Y-97660000D01*
X213910000Y-97660000D02*
X210090000Y-97660000D01*
G04 #@! TO.C,J1*
X239450000Y-84300000D02*
X241450000Y-84300000D01*
X239450000Y-93700000D02*
X241450000Y-93700000D01*
X243350000Y-84300000D02*
X245250000Y-84300000D01*
X243350000Y-93700000D02*
X245250000Y-93700000D01*
X245250000Y-93700000D02*
X245250000Y-84300000D01*
G04 #@! TO.C,J7*
X197380000Y-103515000D02*
X197380000Y-112685000D01*
X197380000Y-112685000D02*
X201560000Y-112685000D01*
X201560000Y-103515000D02*
X197380000Y-103515000D01*
X226440000Y-103515000D02*
X226440000Y-102015000D01*
X226440000Y-103515000D02*
X230620000Y-103515000D01*
X230620000Y-103515000D02*
X230620000Y-112685000D01*
X230620000Y-112685000D02*
X226440000Y-112685000D01*
G04 #@! TO.C,C15*
X231740000Y-88892164D02*
X231740000Y-89107836D01*
X232460000Y-88892164D02*
X232460000Y-89107836D01*
G04 #@! TO.C,C103*
X175122164Y-77827500D02*
X175337836Y-77827500D01*
X175122164Y-78547500D02*
X175337836Y-78547500D01*
G04 #@! TO.C,D9*
X232912500Y-86600000D02*
X234872500Y-86600000D01*
X232912500Y-87800000D02*
X234872500Y-87800000D01*
X234872500Y-87800000D02*
X234872500Y-86600000D01*
G04 #@! TO.C,R50*
X236623641Y-74440000D02*
X236316359Y-74440000D01*
X236623641Y-75200000D02*
X236316359Y-75200000D01*
G04 #@! TO.C,R51*
X160703641Y-96630000D02*
X160396359Y-96630000D01*
X160703641Y-97390000D02*
X160396359Y-97390000D01*
G04 #@! TO.C,D40*
X231465000Y-103115000D02*
X231465000Y-105400000D01*
X232935000Y-103115000D02*
X231465000Y-103115000D01*
X232935000Y-105400000D02*
X232935000Y-103115000D01*
G04 #@! TO.C,C20*
X230640000Y-87307836D02*
X230640000Y-87092164D01*
X231360000Y-87307836D02*
X231360000Y-87092164D01*
G04 #@! TO.C,U3*
X166365000Y-99325568D02*
X166365000Y-98190000D01*
X168235000Y-98190000D02*
X168235000Y-99610000D01*
X166360000Y-99620000D02*
X166170000Y-99760000D01*
X166170000Y-99480000D01*
X166360000Y-99620000D01*
G36*
X166360000Y-99620000D02*
G01*
X166170000Y-99760000D01*
X166170000Y-99480000D01*
X166360000Y-99620000D01*
G37*
G04 #@! TO.C,Y1*
X221734207Y-97647487D02*
X224152513Y-100065793D01*
X224152513Y-100065793D02*
X227065793Y-97152513D01*
G04 #@! TO.C,R48*
X231520000Y-75706359D02*
X231520000Y-76013641D01*
X232280000Y-75706359D02*
X232280000Y-76013641D01*
G04 #@! TO.C,R84*
X231820000Y-107253641D02*
X231820000Y-106946359D01*
X232580000Y-107253641D02*
X232580000Y-106946359D01*
G04 #@! TO.C,U1*
X216290000Y-81090000D02*
X216465000Y-81090000D01*
X216290000Y-85710000D02*
X216290000Y-81090000D01*
X216465000Y-85710000D02*
X216290000Y-85710000D01*
X219335000Y-81090000D02*
X219510000Y-81090000D01*
X219510000Y-81090000D02*
X219510000Y-85710000D01*
X219510000Y-85710000D02*
X219335000Y-85710000D01*
X219340000Y-80530000D02*
X219670000Y-80290000D01*
X219670000Y-80770000D01*
X219340000Y-80530000D01*
G36*
X219670000Y-80770000D02*
G01*
X219340000Y-80530000D01*
X219670000Y-80290000D01*
X219670000Y-80770000D01*
G37*
G04 #@! TO.C,C3*
X224008601Y-93117719D02*
X224161104Y-93270222D01*
X224517718Y-92608602D02*
X224670221Y-92761105D01*
G04 #@! TO.C,R76*
X159203641Y-105420000D02*
X158896359Y-105420000D01*
X159203641Y-106180000D02*
X158896359Y-106180000D01*
G04 #@! TO.C,R19*
X172253641Y-96420000D02*
X171946359Y-96420000D01*
X172253641Y-97180000D02*
X171946359Y-97180000D01*
G04 #@! TO.C,D4*
X240800000Y-102035000D02*
X243085000Y-102035000D01*
X243085000Y-100565000D02*
X240800000Y-100565000D01*
X243085000Y-102035000D02*
X243085000Y-100565000D01*
G04 #@! TO.C,D29*
D10*
X155950001Y-105330000D02*
G75*
G02*
X155849999Y-105330000I-50001J0D01*
G01*
X155849999Y-105330000D02*
G75*
G02*
X155950001Y-105330000I50001J0D01*
G01*
G04 #@! TO.C,C104*
D11*
X177202164Y-78207500D02*
X177417836Y-78207500D01*
X177202164Y-78927500D02*
X177417836Y-78927500D01*
G04 #@! TO.C,R54*
X197946359Y-78520000D02*
X198253641Y-78520000D01*
X197946359Y-79280000D02*
X198253641Y-79280000D01*
G04 #@! TO.C,C58*
X193140000Y-99992164D02*
X193140000Y-100207836D01*
X193860000Y-99992164D02*
X193860000Y-100207836D01*
G04 #@! TO.C,R16*
X174253641Y-93670000D02*
X173946359Y-93670000D01*
X174253641Y-94430000D02*
X173946359Y-94430000D01*
G04 #@! TO.C,C19*
X228640000Y-87307836D02*
X228640000Y-87092164D01*
X229360000Y-87307836D02*
X229360000Y-87092164D01*
G04 #@! TO.C,R14*
X172263640Y-94220000D02*
X171956358Y-94220000D01*
X172263640Y-94980000D02*
X171956358Y-94980000D01*
G04 #@! TO.C,D26*
X240800000Y-79335000D02*
X243085000Y-79335000D01*
X243085000Y-77865000D02*
X240800000Y-77865000D01*
X243085000Y-79335000D02*
X243085000Y-77865000D01*
G04 #@! TO.C,R44*
X238846359Y-80120000D02*
X239153641Y-80120000D01*
X238846359Y-80880000D02*
X239153641Y-80880000D01*
G04 #@! TO.C,D3*
X240800000Y-100135000D02*
X243085000Y-100135000D01*
X243085000Y-98665000D02*
X240800000Y-98665000D01*
X243085000Y-100135000D02*
X243085000Y-98665000D01*
G04 #@! TO.C,J4*
X231730000Y-73270000D02*
X231730000Y-72000000D01*
X232570000Y-68382642D02*
X232570000Y-68070000D01*
X232570000Y-70840000D02*
X232570000Y-70537358D01*
X233000000Y-73270000D02*
X231730000Y-73270000D01*
X233430000Y-68382642D02*
X233430000Y-68070000D01*
X233430000Y-70840000D02*
X233430000Y-70537358D01*
X234270000Y-68070000D02*
X234270000Y-65310000D01*
X235110000Y-59310000D02*
X235970000Y-59310000D01*
X235110000Y-65310000D02*
X235110000Y-59310000D01*
X235110000Y-68382642D02*
X235110000Y-68070000D01*
X235110000Y-70922642D02*
X235110000Y-70537358D01*
X235970000Y-59310000D02*
X235970000Y-65310000D01*
X235970000Y-68382642D02*
X235970000Y-68070000D01*
X235970000Y-70922642D02*
X235970000Y-70537358D01*
X231620000Y-65310000D02*
X236920000Y-65310000D01*
X236920000Y-68070000D01*
X231620000Y-68070000D01*
X231620000Y-65310000D01*
X232570000Y-59310000D02*
X233430000Y-59310000D01*
X233430000Y-65310000D01*
X232570000Y-65310000D01*
X232570000Y-59310000D01*
G36*
X232570000Y-59310000D02*
G01*
X233430000Y-59310000D01*
X233430000Y-65310000D01*
X232570000Y-65310000D01*
X232570000Y-59310000D01*
G37*
G04 #@! TO.C,R73*
X172590000Y-78563859D02*
X172590000Y-78871141D01*
X173350000Y-78563859D02*
X173350000Y-78871141D01*
G04 #@! TO.C,C34*
X159805420Y-95300000D02*
X160086580Y-95300000D01*
X159805420Y-96320000D02*
X160086580Y-96320000D01*
G04 #@! TO.C,R24*
X227520000Y-82446359D02*
X227520000Y-82753641D01*
X228280000Y-82446359D02*
X228280000Y-82753641D01*
G04 #@! TO.C,R6*
X218346359Y-78620000D02*
X218653641Y-78620000D01*
X218346359Y-79380000D02*
X218653641Y-79380000D01*
G04 #@! TO.C,R210*
X158420000Y-70846359D02*
X158420000Y-71153641D01*
X159180000Y-70846359D02*
X159180000Y-71153641D01*
G04 #@! TO.C,C44*
X168102164Y-94240000D02*
X168317836Y-94240000D01*
X168102164Y-94960000D02*
X168317836Y-94960000D01*
G04 #@! TO.C,D25*
X240800000Y-77435000D02*
X243085000Y-77435000D01*
X243085000Y-75965000D02*
X240800000Y-75965000D01*
X243085000Y-77435000D02*
X243085000Y-75965000D01*
G04 #@! TO.C,R29*
X170363640Y-89420000D02*
X170056358Y-89420000D01*
X170363640Y-90180000D02*
X170056358Y-90180000D01*
G04 #@! TO.C,C28*
X157990000Y-84067836D02*
X157990000Y-83852164D01*
X158710000Y-84067836D02*
X158710000Y-83852164D01*
G04 #@! TO.C,D34*
D10*
X157470001Y-105310000D02*
G75*
G02*
X157369999Y-105310000I-50001J0D01*
G01*
X157369999Y-105310000D02*
G75*
G02*
X157470001Y-105310000I50001J0D01*
G01*
G04 #@! TO.C,J10*
D11*
X160380000Y-65415000D02*
X164560000Y-65415000D01*
X160380000Y-74585000D02*
X160380000Y-65415000D01*
X164560000Y-74585000D02*
X160380000Y-74585000D01*
X164560000Y-74585000D02*
X164560000Y-76085000D01*
X189440000Y-74585000D02*
X193620000Y-74585000D01*
X193620000Y-65415000D02*
X189440000Y-65415000D01*
X193620000Y-74585000D02*
X193620000Y-65415000D01*
G04 #@! TO.C,Y2*
X169130000Y-79790000D02*
X165010000Y-79790000D01*
X169130000Y-83210000D02*
X169130000Y-79790000D01*
G04 #@! TO.C,R3*
X238896359Y-99020000D02*
X239203641Y-99020000D01*
X238896359Y-99780000D02*
X239203641Y-99780000D01*
G04 #@! TO.C,R60*
X230196359Y-82560000D02*
X230503641Y-82560000D01*
X230196359Y-83320000D02*
X230503641Y-83320000D01*
G04 #@! TO.C,D12*
D10*
X159410000Y-79480000D02*
G75*
G02*
X159310000Y-79480000I-50000J0D01*
G01*
X159310000Y-79480000D02*
G75*
G02*
X159410000Y-79480000I50000J0D01*
G01*
G04 #@! TO.C,C8*
D11*
X222521693Y-94130810D02*
X222369190Y-93978307D01*
X223030810Y-93621693D02*
X222878307Y-93469190D01*
G04 #@! TO.C,D100*
X156745000Y-69095000D02*
X156745000Y-71380000D01*
X158215000Y-69095000D02*
X156745000Y-69095000D01*
X158215000Y-71380000D02*
X158215000Y-69095000D01*
G04 #@! TO.C,D37*
X235365000Y-103765000D02*
X236015000Y-103765000D01*
X235365000Y-105235000D02*
X235365000Y-103765000D01*
X236665000Y-105235000D02*
X236335000Y-105235000D01*
X236985000Y-103765000D02*
X237635000Y-103765000D01*
X237635000Y-103765000D02*
X237635000Y-105235000D01*
X236340000Y-105680000D02*
X236530000Y-105540000D01*
X236530000Y-105820000D01*
X236340000Y-105680000D01*
G36*
X236530000Y-105820000D02*
G01*
X236340000Y-105680000D01*
X236530000Y-105540000D01*
X236530000Y-105820000D01*
G37*
G04 #@! TO.C,C39*
X164296000Y-96047836D02*
X164296000Y-95832164D01*
X165016000Y-96047836D02*
X165016000Y-95832164D01*
G04 #@! TO.C,C38*
X164060000Y-81607836D02*
X164060000Y-81392164D01*
X164780000Y-81607836D02*
X164780000Y-81392164D01*
G04 #@! TO.C,R82*
X198353641Y-101820000D02*
X198046359Y-101820000D01*
X198353641Y-102580000D02*
X198046359Y-102580000D01*
G04 #@! TO.C,C1*
X218669190Y-96721693D02*
X218821693Y-96569190D01*
X219178307Y-97230810D02*
X219330810Y-97078307D01*
G04 #@! TO.C,R17*
X172253641Y-95320000D02*
X171946359Y-95320000D01*
X172253641Y-96080000D02*
X171946359Y-96080000D01*
G04 #@! TO.C,R8*
X217020000Y-96653641D02*
X217020000Y-96346359D01*
X217780000Y-96653641D02*
X217780000Y-96346359D01*
G04 #@! TO.C,R52*
X162303641Y-100120000D02*
X161996359Y-100120000D01*
X162303641Y-100880000D02*
X161996359Y-100880000D01*
G04 #@! TO.C,C40*
X157547836Y-90180000D02*
X157332164Y-90180000D01*
X157547836Y-90900000D02*
X157332164Y-90900000D01*
G04 #@! TO.C,U21*
X173620000Y-79210000D02*
X174095000Y-79210000D01*
X173620000Y-79685000D02*
X173620000Y-79210000D01*
X173620000Y-82430000D02*
X173620000Y-81955000D01*
X174095000Y-82430000D02*
X173620000Y-82430000D01*
X176365000Y-79210000D02*
X176840000Y-79210000D01*
X176840000Y-79210000D02*
X176840000Y-79685000D01*
X176840000Y-81955000D02*
X176840000Y-82430000D01*
X176840000Y-82430000D02*
X176365000Y-82430000D01*
X173090000Y-80070000D02*
X172760000Y-80310000D01*
X172760000Y-79830000D01*
X173090000Y-80070000D01*
G36*
X173090000Y-80070000D02*
G01*
X172760000Y-80310000D01*
X172760000Y-79830000D01*
X173090000Y-80070000D01*
G37*
G04 #@! TD*
D17*
X150500000Y-62500000D02*
X150500000Y-62500000D01*
G75*
G02*
X151500000Y-61500000I1000000J0D01*
G01*
X244500000Y-61500000D01*
G75*
G02*
X245500000Y-62500000I0J-1000000D01*
G01*
X245500000Y-115500000D01*
G75*
G02*
X244500000Y-116500000I-1000000J0D01*
G01*
X151500000Y-116500000D01*
G75*
G02*
X150500000Y-115500000I0J1000000D01*
G01*
X150500000Y-62500000D01*
M02*
