G04 #@! TF.GenerationSoftware,KiCad,Pcbnew,10.0.5+dfsg-1*
G04 #@! TF.CreationDate,2026-09-25T10:09:43+00:00*
G04 #@! TF.ProjectId,glasgow,676c6173-676f-4772-9e6b-696361645f70,rev?*
G04 #@! TF.SameCoordinates,Original*
G04 #@! TF.FileFunction,Paste,Top*
G04 #@! TF.FilePolarity,Positive*
%FSLAX46Y46*%
G04 Gerber Fmt 4.6, Leading zero omitted, Abs format (unit mm)*
G04 Created by KiCad (PCBNEW 10.0.5+dfsg-1) date 2026-09-25 10:09:43*
%MOMM*%
%LPD*%
G01*
G04 APERTURE LIST*
G04 Aperture macros list*
%AMRoundRect*
0 Rectangle with rounded corners*
0 $1 Rounding radius*
0 $2 $3 $4 $5 $6 $7 $8 $9 X,Y pos of 4 corners*
0 Add a 4 corners polygon primitive as box body*
4,1,4,$2,$3,$4,$5,$6,$7,$8,$9,$2,$3,0*
0 Add four circle primitives for the rounded corners*
1,1,$1+$1,$2,$3*
1,1,$1+$1,$4,$5*
1,1,$1+$1,$6,$7*
1,1,$1+$1,$8,$9*
0 Add four rect primitives between the rounded corners*
20,1,$1+$1,$2,$3,$4,$5,0*
20,1,$1+$1,$4,$5,$6,$7,0*
20,1,$1+$1,$6,$7,$8,$9,0*
20,1,$1+$1,$8,$9,$2,$3,0*%
%AMFreePoly0*
4,1,83,1.271076,1.181742,1.298636,1.181742,1.308720,1.177564,1.315504,1.176812,1.321908,1.172101,1.334684,1.166810,1.350193,1.151300,1.357205,1.146144,1.358652,1.142841,1.362274,1.139220,1.377206,1.103172,1.377543,1.099740,1.377985,1.098734,1.377803,1.097101,1.379127,1.083663,1.379127,0.250195,1.377206,0.230686,1.374598,0.224392,1.374377,0.219740,1.369581,0.212278,
1.362274,0.194638,1.350988,0.183352,1.346388,0.176195,1.341111,0.173475,1.334684,0.167048,1.303915,0.154302,1.300377,0.152479,1.182351,0.126892,0.954730,0.046097,0.739170,-0.062867,0.539139,-0.198245,0.357858,-0.357858,0.198245,-0.539139,0.062867,-0.739170,-0.046097,-0.954730,-0.126892,-1.182351,-0.152479,-1.300377,-0.154302,-1.303915,-0.167048,-1.334684,-0.173475,-1.341111,
-0.176195,-1.346388,-0.183352,-1.350988,-0.194638,-1.362274,-0.212278,-1.369581,-0.219740,-1.374377,-0.224392,-1.374598,-0.230686,-1.377206,-0.250195,-1.379127,-1.083663,-1.379127,-1.097101,-1.377803,-1.098734,-1.377985,-1.099740,-1.377543,-1.103172,-1.377206,-1.139220,-1.362274,-1.142841,-1.358652,-1.146144,-1.357205,-1.151300,-1.350193,-1.166810,-1.334684,-1.172101,-1.321908,-1.176812,-1.315504,
-1.177564,-1.308720,-1.181742,-1.298636,-1.181742,-1.271076,-1.182521,-1.264056,-1.181742,-1.260292,-1.181742,-1.259618,-1.181462,-1.258943,-1.119992,-0.962002,-1.025949,-0.668230,-0.901441,-0.386018,-0.747858,-0.118514,-0.566913,0.131296,-0.360625,0.360625,-0.131296,0.566913,0.118514,0.747858,0.386018,0.901441,0.668230,1.025949,0.962002,1.119992,1.258943,1.181462,1.259618,1.181742,
1.260293,1.181742,1.264056,1.182521,1.271076,1.181742,1.271076,1.181742,$1*%
%AMFreePoly1*
4,1,83,-0.230686,1.377206,-0.224392,1.374598,-0.219740,1.374377,-0.212278,1.369581,-0.194638,1.362274,-0.183352,1.350988,-0.176195,1.346388,-0.173475,1.341111,-0.167048,1.334684,-0.154302,1.303915,-0.152479,1.300377,-0.126892,1.182351,-0.046097,0.954730,0.062867,0.739170,0.198245,0.539139,0.357858,0.357858,0.539139,0.198245,0.739170,0.062867,0.954730,-0.046097,1.182351,-0.126892,
1.300377,-0.152479,1.303915,-0.154302,1.334684,-0.167048,1.341111,-0.173475,1.346388,-0.176195,1.350988,-0.183352,1.362274,-0.194638,1.369581,-0.212278,1.374377,-0.219740,1.374598,-0.224392,1.377206,-0.230686,1.379127,-0.250195,1.379127,-1.083663,1.377803,-1.097101,1.377985,-1.098734,1.377543,-1.099740,1.377206,-1.103172,1.362274,-1.139220,1.358652,-1.142841,1.357205,-1.146144,
1.350193,-1.151300,1.334684,-1.166810,1.321908,-1.172101,1.315504,-1.176812,1.308720,-1.177564,1.298636,-1.181742,1.271076,-1.181742,1.264056,-1.182521,1.260293,-1.181742,1.259618,-1.181742,1.258943,-1.181462,0.962002,-1.119992,0.668230,-1.025949,0.386018,-0.901441,0.118514,-0.747858,-0.131296,-0.566913,-0.360625,-0.360625,-0.566913,-0.131296,-0.747858,0.118514,-0.901441,0.386018,
-1.025949,0.668230,-1.119992,0.962002,-1.181462,1.258943,-1.181742,1.259618,-1.181742,1.260292,-1.182521,1.264056,-1.181742,1.271076,-1.181742,1.298636,-1.177564,1.308720,-1.176812,1.315504,-1.172101,1.321908,-1.166810,1.334684,-1.151300,1.350193,-1.146144,1.357205,-1.142841,1.358652,-1.139220,1.362274,-1.103172,1.377206,-1.099740,1.377543,-1.098734,1.377985,-1.097101,1.377803,
-1.083663,1.379127,-0.250195,1.379127,-0.230686,1.377206,-0.230686,1.377206,$1*%
%AMFreePoly2*
4,1,83,-1.260293,1.181742,-1.259618,1.181742,-1.258943,1.181462,-0.962002,1.119992,-0.668230,1.025949,-0.386018,0.901441,-0.118514,0.747858,0.131296,0.566913,0.360625,0.360625,0.566913,0.131296,0.747858,-0.118514,0.901441,-0.386018,1.025949,-0.668230,1.119992,-0.962002,1.181462,-1.258943,1.181742,-1.259618,1.181742,-1.260292,1.182521,-1.264056,1.181742,-1.271076,1.181742,-1.298636,
1.177564,-1.308720,1.176812,-1.315504,1.172101,-1.321908,1.166810,-1.334684,1.151300,-1.350193,1.146144,-1.357205,1.142841,-1.358652,1.139220,-1.362274,1.103172,-1.377206,1.099740,-1.377543,1.098734,-1.377985,1.097101,-1.377803,1.083663,-1.379127,0.250195,-1.379127,0.230686,-1.377206,0.224392,-1.374598,0.219740,-1.374377,0.212278,-1.369581,0.194638,-1.362274,0.183352,-1.350988,
0.176195,-1.346388,0.173475,-1.341111,0.167048,-1.334684,0.154302,-1.303915,0.152479,-1.300377,0.126892,-1.182351,0.046097,-0.954730,-0.062867,-0.739170,-0.198245,-0.539139,-0.357858,-0.357858,-0.539139,-0.198245,-0.739170,-0.062867,-0.954730,0.046097,-1.182351,0.126892,-1.300377,0.152479,-1.303915,0.154302,-1.334684,0.167048,-1.341111,0.173475,-1.346388,0.176195,-1.350988,0.183352,
-1.362274,0.194638,-1.369581,0.212278,-1.374377,0.219740,-1.374598,0.224392,-1.377206,0.230686,-1.379127,0.250195,-1.379127,1.083663,-1.377803,1.097101,-1.377985,1.098734,-1.377543,1.099740,-1.377206,1.103172,-1.362274,1.139220,-1.358652,1.142841,-1.357205,1.146144,-1.350193,1.151300,-1.334684,1.166810,-1.321908,1.172101,-1.315504,1.176812,-1.308720,1.177564,-1.298636,1.181742,
-1.271076,1.181742,-1.264056,1.182521,-1.260293,1.181742,-1.260293,1.181742,$1*%
%AMFreePoly3*
4,1,83,1.097101,1.377803,1.098734,1.377985,1.099740,1.377543,1.103172,1.377206,1.139220,1.362274,1.142841,1.358652,1.146144,1.357205,1.151300,1.350193,1.166810,1.334684,1.172101,1.321908,1.176812,1.315504,1.177564,1.308720,1.181742,1.298636,1.181742,1.271076,1.182521,1.264056,1.181742,1.260292,1.181742,1.259618,1.181462,1.258943,1.119992,0.962002,1.025949,0.668230,
0.901441,0.386018,0.747858,0.118514,0.566913,-0.131296,0.360625,-0.360625,0.131296,-0.566913,-0.118514,-0.747858,-0.386018,-0.901441,-0.668230,-1.025949,-0.962002,-1.119992,-1.258943,-1.181462,-1.259618,-1.181742,-1.260293,-1.181742,-1.264056,-1.182521,-1.271076,-1.181742,-1.298636,-1.181742,-1.308720,-1.177564,-1.315504,-1.176812,-1.321908,-1.172101,-1.334684,-1.166810,-1.350193,-1.151300,
-1.357205,-1.146144,-1.358652,-1.142841,-1.362274,-1.139220,-1.377206,-1.103172,-1.377543,-1.099740,-1.377985,-1.098734,-1.377803,-1.097101,-1.379127,-1.083663,-1.379127,-0.250195,-1.377206,-0.230686,-1.374598,-0.224392,-1.374377,-0.219740,-1.369581,-0.212278,-1.362274,-0.194638,-1.350988,-0.183352,-1.346388,-0.176195,-1.341111,-0.173475,-1.334684,-0.167048,-1.303915,-0.154302,-1.300377,-0.152479,
-1.182351,-0.126892,-0.954730,-0.046097,-0.739170,0.062867,-0.539139,0.198245,-0.357858,0.357858,-0.198245,0.539139,-0.062867,0.739170,0.046097,0.954730,0.126892,1.182351,0.152479,1.300377,0.154302,1.303915,0.167048,1.334684,0.173475,1.341111,0.176195,1.346388,0.183352,1.350988,0.194638,1.362274,0.212278,1.369581,0.219740,1.374377,0.224392,1.374598,0.230686,1.377206,
0.250195,1.379127,1.083663,1.379127,1.097101,1.377803,1.097101,1.377803,$1*%
G04 Aperture macros list end*
%ADD10C,0.100000*%
%ADD11RoundRect,0.218750X-0.256250X0.218750X-0.256250X-0.218750X0.256250X-0.218750X0.256250X0.218750X0*%
%ADD12RoundRect,0.135000X-0.185000X0.135000X-0.185000X-0.135000X0.185000X-0.135000X0.185000X0.135000X0*%
%ADD13RoundRect,0.135000X-0.135000X-0.185000X0.135000X-0.185000X0.135000X0.185000X-0.135000X0.185000X0*%
%ADD14RoundRect,0.140000X0.170000X-0.140000X0.170000X0.140000X-0.170000X0.140000X-0.170000X-0.140000X0*%
%ADD15RoundRect,0.225000X-0.225000X-0.250000X0.225000X-0.250000X0.225000X0.250000X-0.225000X0.250000X0*%
%ADD16RoundRect,0.218750X0.218750X0.256250X-0.218750X0.256250X-0.218750X-0.256250X0.218750X-0.256250X0*%
%ADD17C,0.320000*%
%ADD18RoundRect,0.225000X0.225000X0.250000X-0.225000X0.250000X-0.225000X-0.250000X0.225000X-0.250000X0*%
%ADD19RoundRect,0.140000X-0.140000X-0.170000X0.140000X-0.170000X0.140000X0.170000X-0.140000X0.170000X0*%
%ADD20RoundRect,0.140000X-0.170000X0.140000X-0.170000X-0.140000X0.170000X-0.140000X0.170000X0.140000X0*%
%ADD21RoundRect,0.150000X0.587500X0.150000X-0.587500X0.150000X-0.587500X-0.150000X0.587500X-0.150000X0*%
%ADD22RoundRect,0.135000X0.135000X0.185000X-0.135000X0.185000X-0.135000X-0.185000X0.135000X-0.185000X0*%
%ADD23RoundRect,0.135000X-0.035355X0.226274X-0.226274X0.035355X0.035355X-0.226274X0.226274X-0.035355X0*%
%ADD24RoundRect,0.218750X-0.218750X-0.256250X0.218750X-0.256250X0.218750X0.256250X-0.218750X0.256250X0*%
%ADD25RoundRect,0.135000X0.185000X-0.135000X0.185000X0.135000X-0.185000X0.135000X-0.185000X-0.135000X0*%
%ADD26RoundRect,0.218750X0.256250X-0.218750X0.256250X0.218750X-0.256250X0.218750X-0.256250X-0.218750X0*%
%ADD27RoundRect,0.150000X-0.150000X-0.200000X0.150000X-0.200000X0.150000X0.200000X-0.150000X0.200000X0*%
%ADD28RoundRect,0.079500X-0.079500X-0.100500X0.079500X-0.100500X0.079500X0.100500X-0.079500X0.100500X0*%
%ADD29RoundRect,0.112500X0.187500X0.112500X-0.187500X0.112500X-0.187500X-0.112500X0.187500X-0.112500X0*%
%ADD30RoundRect,0.249999X-0.710001X-0.710001X0.710001X-0.710001X0.710001X0.710001X-0.710001X0.710001X0*%
%ADD31RoundRect,0.062500X-0.350000X-0.062500X0.350000X-0.062500X0.350000X0.062500X-0.350000X0.062500X0*%
%ADD32RoundRect,0.062500X-0.062500X-0.350000X0.062500X-0.350000X0.062500X0.350000X-0.062500X0.350000X0*%
%ADD33RoundRect,0.140000X0.140000X0.170000X-0.140000X0.170000X-0.140000X-0.170000X0.140000X-0.170000X0*%
%ADD34RoundRect,0.079500X0.100500X-0.079500X0.100500X0.079500X-0.100500X0.079500X-0.100500X-0.079500X0*%
%ADD35RoundRect,0.250000X0.500000X0.650000X-0.500000X0.650000X-0.500000X-0.650000X0.500000X-0.650000X0*%
%ADD36RoundRect,0.140000X-0.219203X-0.021213X-0.021213X-0.219203X0.219203X0.021213X0.021213X0.219203X0*%
%ADD37RoundRect,0.079500X-0.127279X-0.014849X-0.014849X-0.127279X0.127279X0.014849X0.014849X0.127279X0*%
%ADD38RoundRect,0.140000X0.219203X0.021213X0.021213X0.219203X-0.219203X-0.021213X-0.021213X-0.219203X0*%
%ADD39RoundRect,0.175000X0.175000X0.325000X-0.175000X0.325000X-0.175000X-0.325000X0.175000X-0.325000X0*%
%ADD40RoundRect,0.150000X0.200000X0.150000X-0.200000X0.150000X-0.200000X-0.150000X0.200000X-0.150000X0*%
%ADD41RoundRect,0.087500X0.087500X-0.425000X0.087500X0.425000X-0.087500X0.425000X-0.087500X-0.425000X0*%
%ADD42RoundRect,0.145000X-0.145000X-0.145000X0.145000X-0.145000X0.145000X0.145000X-0.145000X0.145000X0*%
%ADD43RoundRect,0.062500X-0.275000X-0.062500X0.275000X-0.062500X0.275000X0.062500X-0.275000X0.062500X0*%
%ADD44RoundRect,0.062500X-0.062500X-0.275000X0.062500X-0.275000X0.062500X0.275000X-0.062500X0.275000X0*%
%ADD45RoundRect,0.250000X0.260000X-2.250000X0.260000X2.250000X-0.260000X2.250000X-0.260000X-2.250000X0*%
%ADD46RoundRect,0.147500X0.147500X0.172500X-0.147500X0.172500X-0.147500X-0.172500X0.147500X-0.172500X0*%
%ADD47FreePoly0,0.000000*%
%ADD48FreePoly1,0.000000*%
%ADD49FreePoly2,0.000000*%
%ADD50FreePoly3,0.000000*%
%ADD51RoundRect,0.250000X-0.260000X2.250000X-0.260000X-2.250000X0.260000X-2.250000X0.260000X2.250000X0*%
%ADD52RoundRect,0.150000X-0.587500X-0.150000X0.587500X-0.150000X0.587500X0.150000X-0.587500X0.150000X0*%
%ADD53RoundRect,0.050000X-0.100000X0.250000X-0.100000X-0.250000X0.100000X-0.250000X0.100000X0.250000X0*%
%ADD54RoundRect,0.050000X-0.275000X0.075000X-0.275000X-0.075000X0.275000X-0.075000X0.275000X0.075000X0*%
%ADD55RoundRect,0.050000X-0.075000X0.250000X-0.075000X-0.250000X0.075000X-0.250000X0.075000X0.250000X0*%
%ADD56R,2.400000X0.740000*%
%ADD57RoundRect,0.079500X0.079500X0.100500X-0.079500X0.100500X-0.079500X-0.100500X0.079500X-0.100500X0*%
%ADD58RoundRect,0.250000X-0.550000X1.500000X-0.550000X-1.500000X0.550000X-1.500000X0.550000X1.500000X0*%
%ADD59RoundRect,0.150000X0.512500X0.150000X-0.512500X0.150000X-0.512500X-0.150000X0.512500X-0.150000X0*%
%ADD60R,1.200000X0.280000*%
%ADD61RoundRect,0.150000X0.575000X-0.150000X0.575000X0.150000X-0.575000X0.150000X-0.575000X-0.150000X0*%
%ADD62RoundRect,0.075000X0.650000X-0.075000X0.650000X0.075000X-0.650000X0.075000X-0.650000X-0.075000X0*%
%ADD63RoundRect,0.087500X0.087500X-0.250000X0.087500X0.250000X-0.087500X0.250000X-0.087500X-0.250000X0*%
%ADD64RoundRect,0.250000X-0.070711X-0.565685X0.565685X0.070711X0.070711X0.565685X-0.565685X-0.070711X0*%
%ADD65RoundRect,0.100000X-0.100000X0.637500X-0.100000X-0.637500X0.100000X-0.637500X0.100000X0.637500X0*%
%ADD66RoundRect,0.079500X-0.100500X0.079500X-0.100500X-0.079500X0.100500X-0.079500X0.100500X0.079500X0*%
%ADD67RoundRect,0.250000X0.450000X0.350000X-0.450000X0.350000X-0.450000X-0.350000X0.450000X-0.350000X0*%
%ADD68RoundRect,0.112500X0.112500X-0.350000X0.112500X0.350000X-0.112500X0.350000X-0.112500X-0.350000X0*%
%ADD69RoundRect,0.140000X0.021213X-0.219203X0.219203X-0.021213X-0.021213X0.219203X-0.219203X0.021213X0*%
%ADD70RoundRect,0.170000X-0.170000X-0.170000X0.170000X-0.170000X0.170000X0.170000X-0.170000X0.170000X0*%
%ADD71RoundRect,0.062500X-0.355000X-0.062500X0.355000X-0.062500X0.355000X0.062500X-0.355000X0.062500X0*%
%ADD72RoundRect,0.062500X-0.062500X-0.355000X0.062500X-0.355000X0.062500X0.355000X-0.062500X0.355000X0*%
G04 #@! TA.AperFunction,Profile*
%ADD73C,0.050000*%
G04 #@! TD*
G04 APERTURE END LIST*
G04 #@! TO.C,U5*
D10*
X228775000Y-84550000D02*
X229775000Y-84550000D01*
X229775000Y-84750000D01*
X228775000Y-84750000D01*
X228775000Y-84550000D01*
G36*
X228775000Y-84550000D02*
G01*
X229775000Y-84550000D01*
X229775000Y-84750000D01*
X228775000Y-84750000D01*
X228775000Y-84550000D01*
G37*
X228775000Y-85050000D02*
X229775000Y-85050000D01*
X229775000Y-85250000D01*
X228775000Y-85250000D01*
X228775000Y-85050000D01*
G36*
X228775000Y-85050000D02*
G01*
X229775000Y-85050000D01*
X229775000Y-85250000D01*
X228775000Y-85250000D01*
X228775000Y-85050000D01*
G37*
X230025000Y-84550000D02*
X231025000Y-84550000D01*
X231025000Y-84750000D01*
X230025000Y-84750000D01*
X230025000Y-84550000D01*
G36*
X230025000Y-84550000D02*
G01*
X231025000Y-84550000D01*
X231025000Y-84750000D01*
X230025000Y-84750000D01*
X230025000Y-84550000D01*
G37*
X230025000Y-85050000D02*
X231025000Y-85050000D01*
X231025000Y-85250000D01*
X230025000Y-85250000D01*
X230025000Y-85050000D01*
G36*
X230025000Y-85050000D02*
G01*
X231025000Y-85050000D01*
X231025000Y-85250000D01*
X230025000Y-85250000D01*
X230025000Y-85050000D01*
G37*
G04 #@! TD*
D11*
G04 #@! TO.C,D80*
X195200000Y-103812500D03*
X195200000Y-105387500D03*
G04 #@! TD*
D12*
G04 #@! TO.C,R23*
X230000000Y-86690000D03*
X230000000Y-87710000D03*
G04 #@! TD*
D13*
G04 #@! TO.C,R28*
X162547500Y-79895000D03*
X163567500Y-79895000D03*
G04 #@! TD*
G04 #@! TO.C,R2*
X238540000Y-97500000D03*
X239560000Y-97500000D03*
G04 #@! TD*
D14*
G04 #@! TO.C,C46*
X166840000Y-95490000D03*
X166840000Y-94530000D03*
G04 #@! TD*
D15*
G04 #@! TO.C,C16*
X228925000Y-89237500D03*
X230475000Y-89237500D03*
G04 #@! TD*
D14*
G04 #@! TO.C,C83*
X233800000Y-107330000D03*
X233800000Y-106370000D03*
G04 #@! TD*
D16*
G04 #@! TO.C,FB1*
X234387500Y-85700000D03*
X232812500Y-85700000D03*
G04 #@! TD*
D17*
G04 #@! TO.C,U8*
X202525000Y-94990000D03*
X201725000Y-94990000D03*
X200925000Y-94990000D03*
X200125000Y-94990000D03*
X199325000Y-94990000D03*
X198525000Y-94990000D03*
X197725000Y-94990000D03*
X196925000Y-94990000D03*
X196125000Y-94990000D03*
X195325000Y-94990000D03*
X194525000Y-94990000D03*
X193725000Y-94990000D03*
X192925000Y-94990000D03*
X192125000Y-94990000D03*
X191325000Y-94990000D03*
X190525000Y-94990000D03*
X202525000Y-94190000D03*
X201725000Y-94190000D03*
X200925000Y-94190000D03*
X200125000Y-94190000D03*
X199325000Y-94190000D03*
X198525000Y-94190000D03*
X197725000Y-94190000D03*
X196925000Y-94190000D03*
X196125000Y-94190000D03*
X195325000Y-94190000D03*
X194525000Y-94190000D03*
X193725000Y-94190000D03*
X192925000Y-94190000D03*
X192125000Y-94190000D03*
X191325000Y-94190000D03*
X190525000Y-94190000D03*
X202525000Y-93390000D03*
X201725000Y-93390000D03*
X200925000Y-93390000D03*
X200125000Y-93390000D03*
X199325000Y-93390000D03*
X198525000Y-93390000D03*
X197725000Y-93390000D03*
X196925000Y-93390000D03*
X196125000Y-93390000D03*
X195325000Y-93390000D03*
X194525000Y-93390000D03*
X193725000Y-93390000D03*
X192925000Y-93390000D03*
X192125000Y-93390000D03*
X191325000Y-93390000D03*
X190525000Y-93390000D03*
X202525000Y-92590000D03*
X201725000Y-92590000D03*
X200925000Y-92590000D03*
X200125000Y-92590000D03*
X199325000Y-92590000D03*
X198525000Y-92590000D03*
X197725000Y-92590000D03*
X196925000Y-92590000D03*
X196125000Y-92590000D03*
X195325000Y-92590000D03*
X194525000Y-92590000D03*
X193725000Y-92590000D03*
X192925000Y-92590000D03*
X192125000Y-92590000D03*
X191325000Y-92590000D03*
X190525000Y-92590000D03*
X202525000Y-91790000D03*
X201725000Y-91790000D03*
X200925000Y-91790000D03*
X200125000Y-91790000D03*
X199325000Y-91790000D03*
X198525000Y-91790000D03*
X197725000Y-91790000D03*
X196925000Y-91790000D03*
X196125000Y-91790000D03*
X195325000Y-91790000D03*
X194525000Y-91790000D03*
X193725000Y-91790000D03*
X192925000Y-91790000D03*
X192125000Y-91790000D03*
X191325000Y-91790000D03*
X190525000Y-91790000D03*
X202525000Y-90990000D03*
X201725000Y-90990000D03*
X200925000Y-90990000D03*
X200125000Y-90990000D03*
X199325000Y-90990000D03*
X198525000Y-90990000D03*
X197725000Y-90990000D03*
X196925000Y-90990000D03*
X196125000Y-90990000D03*
X195325000Y-90990000D03*
X194525000Y-90990000D03*
X193725000Y-90990000D03*
X192925000Y-90990000D03*
X192125000Y-90990000D03*
X191325000Y-90990000D03*
X190525000Y-90990000D03*
X202525000Y-90190000D03*
X201725000Y-90190000D03*
X200925000Y-90190000D03*
X200125000Y-90190000D03*
X199325000Y-90190000D03*
X198525000Y-90190000D03*
X197725000Y-90190000D03*
X196925000Y-90190000D03*
X196125000Y-90190000D03*
X195325000Y-90190000D03*
X194525000Y-90190000D03*
X193725000Y-90190000D03*
X192925000Y-90190000D03*
X192125000Y-90190000D03*
X191325000Y-90190000D03*
X190525000Y-90190000D03*
X202525000Y-89390000D03*
X201725000Y-89390000D03*
X200925000Y-89390000D03*
X200125000Y-89390000D03*
X199325000Y-89390000D03*
X198525000Y-89390000D03*
X197725000Y-89390000D03*
X196925000Y-89390000D03*
X196125000Y-89390000D03*
X195325000Y-89390000D03*
X194525000Y-89390000D03*
X193725000Y-89390000D03*
X192925000Y-89390000D03*
X192125000Y-89390000D03*
X191325000Y-89390000D03*
X190525000Y-89390000D03*
X202525000Y-88590000D03*
X201725000Y-88590000D03*
X200925000Y-88590000D03*
X200125000Y-88590000D03*
X199325000Y-88590000D03*
X198525000Y-88590000D03*
X197725000Y-88590000D03*
X196925000Y-88590000D03*
X196125000Y-88590000D03*
X195325000Y-88590000D03*
X194525000Y-88590000D03*
X193725000Y-88590000D03*
X192925000Y-88590000D03*
X192125000Y-88590000D03*
X191325000Y-88590000D03*
X190525000Y-88590000D03*
X202525000Y-87790000D03*
X201725000Y-87790000D03*
X200925000Y-87790000D03*
X200125000Y-87790000D03*
X199325000Y-87790000D03*
X198525000Y-87790000D03*
X197725000Y-87790000D03*
X196925000Y-87790000D03*
X196125000Y-87790000D03*
X195325000Y-87790000D03*
X194525000Y-87790000D03*
X193725000Y-87790000D03*
X192925000Y-87790000D03*
X192125000Y-87790000D03*
X191325000Y-87790000D03*
X190525000Y-87790000D03*
X202525000Y-86990000D03*
X201725000Y-86990000D03*
X200925000Y-86990000D03*
X200125000Y-86990000D03*
X199325000Y-86990000D03*
X198525000Y-86990000D03*
X197725000Y-86990000D03*
X196925000Y-86990000D03*
X196125000Y-86990000D03*
X195325000Y-86990000D03*
X194525000Y-86990000D03*
X193725000Y-86990000D03*
X192925000Y-86990000D03*
X192125000Y-86990000D03*
X191325000Y-86990000D03*
X190525000Y-86990000D03*
X202525000Y-86190000D03*
X201725000Y-86190000D03*
X200925000Y-86190000D03*
X200125000Y-86190000D03*
X199325000Y-86190000D03*
X198525000Y-86190000D03*
X197725000Y-86190000D03*
X196925000Y-86190000D03*
X196125000Y-86190000D03*
X195325000Y-86190000D03*
X194525000Y-86190000D03*
X193725000Y-86190000D03*
X192925000Y-86190000D03*
X192125000Y-86190000D03*
X191325000Y-86190000D03*
X190525000Y-86190000D03*
X202525000Y-85390000D03*
X201725000Y-85390000D03*
X200925000Y-85390000D03*
X200125000Y-85390000D03*
X199325000Y-85390000D03*
X198525000Y-85390000D03*
X197725000Y-85390000D03*
X196925000Y-85390000D03*
X196125000Y-85390000D03*
X195325000Y-85390000D03*
X194525000Y-85390000D03*
X193725000Y-85390000D03*
X192925000Y-85390000D03*
X192125000Y-85390000D03*
X191325000Y-85390000D03*
X190525000Y-85390000D03*
X202525000Y-84590000D03*
X201725000Y-84590000D03*
X200925000Y-84590000D03*
X200125000Y-84590000D03*
X199325000Y-84590000D03*
X198525000Y-84590000D03*
X197725000Y-84590000D03*
X196925000Y-84590000D03*
X196125000Y-84590000D03*
X195325000Y-84590000D03*
X194525000Y-84590000D03*
X193725000Y-84590000D03*
X192925000Y-84590000D03*
X192125000Y-84590000D03*
X191325000Y-84590000D03*
X190525000Y-84590000D03*
X202525000Y-83790000D03*
X201725000Y-83790000D03*
X200925000Y-83790000D03*
X200125000Y-83790000D03*
X199325000Y-83790000D03*
X198525000Y-83790000D03*
X197725000Y-83790000D03*
X196925000Y-83790000D03*
X196125000Y-83790000D03*
X195325000Y-83790000D03*
X194525000Y-83790000D03*
X193725000Y-83790000D03*
X192925000Y-83790000D03*
X192125000Y-83790000D03*
X191325000Y-83790000D03*
X190525000Y-83790000D03*
X202525000Y-82990000D03*
X201725000Y-82990000D03*
X200925000Y-82990000D03*
X200125000Y-82990000D03*
X199325000Y-82990000D03*
X198525000Y-82990000D03*
X197725000Y-82990000D03*
X196925000Y-82990000D03*
X196125000Y-82990000D03*
X195325000Y-82990000D03*
X194525000Y-82990000D03*
X193725000Y-82990000D03*
X192925000Y-82990000D03*
X192125000Y-82990000D03*
X191325000Y-82990000D03*
X190525000Y-82990000D03*
G04 #@! TD*
D18*
G04 #@! TO.C,C18*
X234375000Y-82700000D03*
X232825000Y-82700000D03*
G04 #@! TD*
D19*
G04 #@! TO.C,C43*
X169729999Y-90800000D03*
X170689999Y-90800000D03*
G04 #@! TD*
D14*
G04 #@! TO.C,C37*
X163736000Y-96420000D03*
X163736000Y-95460000D03*
G04 #@! TD*
D20*
G04 #@! TO.C,C92*
X233800000Y-104520000D03*
X233800000Y-105480000D03*
G04 #@! TD*
D21*
G04 #@! TO.C,Q1*
X153613500Y-96850000D03*
X153613500Y-94950000D03*
X151738500Y-95900000D03*
G04 #@! TD*
D17*
G04 #@! TO.C,U12*
X181525000Y-85990000D03*
X181525000Y-84990000D03*
X181525000Y-83990000D03*
X181525000Y-82990000D03*
X182525000Y-86990000D03*
X182525000Y-85990000D03*
X182525000Y-84990000D03*
X182525000Y-83990000D03*
X182525000Y-82990000D03*
X183525000Y-86990000D03*
X183525000Y-85990000D03*
X183525000Y-84990000D03*
X183525000Y-83990000D03*
X183525000Y-82990000D03*
X184525000Y-86990000D03*
X184525000Y-85990000D03*
X184525000Y-84990000D03*
X184525000Y-83990000D03*
X184525000Y-82990000D03*
X185525000Y-86990000D03*
X185525000Y-85990000D03*
X185525000Y-84990000D03*
X185525000Y-83990000D03*
X185525000Y-82990000D03*
G04 #@! TD*
D22*
G04 #@! TO.C,R20*
X174610000Y-97400000D03*
X173590000Y-97400000D03*
G04 #@! TD*
D13*
G04 #@! TO.C,R5*
X238540000Y-103200000D03*
X239560000Y-103200000D03*
G04 #@! TD*
D23*
G04 #@! TO.C,R58*
X242220624Y-70119376D03*
X241499376Y-70840624D03*
G04 #@! TD*
D18*
G04 #@! TO.C,C13*
X234375000Y-84200000D03*
X232825000Y-84200000D03*
G04 #@! TD*
D24*
G04 #@! TO.C,D14*
X162335000Y-78560000D03*
X163910000Y-78560000D03*
G04 #@! TD*
D17*
G04 #@! TO.C,U11*
X181525000Y-93990000D03*
X181525000Y-92990000D03*
X181525000Y-91990000D03*
X181525000Y-90990000D03*
X182525000Y-94990000D03*
X182525000Y-93990000D03*
X182525000Y-92990000D03*
X182525000Y-91990000D03*
X182525000Y-90990000D03*
X183525000Y-94990000D03*
X183525000Y-93990000D03*
X183525000Y-92990000D03*
X183525000Y-91990000D03*
X183525000Y-90990000D03*
X184525000Y-94990000D03*
X184525000Y-93990000D03*
X184525000Y-92990000D03*
X184525000Y-91990000D03*
X184525000Y-90990000D03*
X185525000Y-94990000D03*
X185525000Y-93990000D03*
X185525000Y-92990000D03*
X185525000Y-91990000D03*
X185525000Y-90990000D03*
G04 #@! TD*
D20*
G04 #@! TO.C,C21*
X228000000Y-85120000D03*
X228000000Y-86080000D03*
G04 #@! TD*
G04 #@! TO.C,C29*
X169170000Y-91770000D03*
X169170000Y-92730000D03*
G04 #@! TD*
D13*
G04 #@! TO.C,R68*
X234690000Y-103250000D03*
X235710000Y-103250000D03*
G04 #@! TD*
D16*
G04 #@! TO.C,D28*
X242387500Y-82400000D03*
X240812500Y-82400000D03*
G04 #@! TD*
G04 #@! TO.C,D1*
X242387500Y-95600000D03*
X240812500Y-95600000D03*
G04 #@! TD*
D25*
G04 #@! TO.C,R25*
X228900000Y-83110000D03*
X228900000Y-82090000D03*
G04 #@! TD*
D26*
G04 #@! TO.C,D60*
X195880000Y-74287500D03*
X195880000Y-72712500D03*
G04 #@! TD*
D16*
G04 #@! TO.C,D5*
X242387500Y-103200000D03*
X240812500Y-103200000D03*
G04 #@! TD*
D27*
G04 #@! TO.C,D8*
X234312500Y-90800000D03*
X232912500Y-90800000D03*
G04 #@! TD*
D28*
G04 #@! TO.C,D31*
X160035000Y-98140000D03*
X160725000Y-98140000D03*
G04 #@! TD*
D22*
G04 #@! TO.C,R74*
X173640000Y-83077500D03*
X172620000Y-83077500D03*
G04 #@! TD*
D13*
G04 #@! TO.C,R4*
X238540000Y-101300000D03*
X239560000Y-101300000D03*
G04 #@! TD*
D29*
G04 #@! TO.C,D23*
X154250000Y-84900000D03*
X152150000Y-84900000D03*
G04 #@! TD*
D13*
G04 #@! TO.C,R43*
X238490000Y-78600000D03*
X239510000Y-78600000D03*
G04 #@! TD*
D30*
G04 #@! TO.C,U7*
X161182500Y-86620000D03*
X161182500Y-89000000D03*
X161182500Y-91380000D03*
X163562500Y-86620000D03*
X163562500Y-89000000D03*
X163562500Y-91380000D03*
X165942500Y-86620000D03*
X165942500Y-89000000D03*
X165942500Y-91380000D03*
D31*
X159125000Y-85250000D03*
X159125000Y-85750000D03*
X159125000Y-86250000D03*
X159125000Y-86750000D03*
X159125000Y-87250000D03*
X159125000Y-87750000D03*
X159125000Y-88250000D03*
X159125000Y-88750000D03*
X159125000Y-89250000D03*
X159125000Y-89750000D03*
X159125000Y-90250000D03*
X159125000Y-90750000D03*
X159125000Y-91250000D03*
X159125000Y-91750000D03*
X159125000Y-92250000D03*
X159125000Y-92750000D03*
D32*
X159812500Y-93437500D03*
X160312500Y-93437500D03*
X160812500Y-93437500D03*
X161312500Y-93437500D03*
X161812500Y-93437500D03*
X162312500Y-93437500D03*
X162812500Y-93437500D03*
X163312500Y-93437500D03*
X163812500Y-93437500D03*
X164312500Y-93437500D03*
X164812500Y-93437500D03*
X165312500Y-93437500D03*
X165812500Y-93437500D03*
X166312500Y-93437500D03*
X166812500Y-93437500D03*
X167312500Y-93437500D03*
D31*
X168000000Y-92750000D03*
X168000000Y-92250000D03*
X168000000Y-91750000D03*
X168000000Y-91250000D03*
X168000000Y-90750000D03*
X168000000Y-90250000D03*
X168000000Y-89750000D03*
X168000000Y-89250000D03*
X168000000Y-88750000D03*
X168000000Y-88250000D03*
X168000000Y-87750000D03*
X168000000Y-87250000D03*
X168000000Y-86750000D03*
X168000000Y-86250000D03*
X168000000Y-85750000D03*
X168000000Y-85250000D03*
D32*
X167312500Y-84562500D03*
X166812500Y-84562500D03*
X166312500Y-84562500D03*
X165812500Y-84562500D03*
X165312500Y-84562500D03*
X164812500Y-84562500D03*
X164312500Y-84562500D03*
X163812500Y-84562500D03*
X163312500Y-84562500D03*
X162812500Y-84562500D03*
X162312500Y-84562500D03*
X161812500Y-84562500D03*
X161312500Y-84562500D03*
X160812500Y-84562500D03*
X160312500Y-84562500D03*
X159812500Y-84562500D03*
G04 #@! TD*
D12*
G04 #@! TO.C,R46*
X236400000Y-77290000D03*
X236400000Y-78310000D03*
G04 #@! TD*
D16*
G04 #@! TO.C,D27*
X242387500Y-80500000D03*
X240812500Y-80500000D03*
G04 #@! TD*
D33*
G04 #@! TO.C,C14*
X234380000Y-92000000D03*
X233420000Y-92000000D03*
G04 #@! TD*
D12*
G04 #@! TO.C,R12*
X195200000Y-108590000D03*
X195200000Y-109610000D03*
G04 #@! TD*
D14*
G04 #@! TO.C,C100*
X172000000Y-79197500D03*
X172000000Y-78237500D03*
G04 #@! TD*
D19*
G04 #@! TO.C,C31*
X169160000Y-86220000D03*
X170120000Y-86220000D03*
G04 #@! TD*
D25*
G04 #@! TO.C,R53*
X158700000Y-107710000D03*
X158700000Y-106690000D03*
G04 #@! TD*
D16*
G04 #@! TO.C,D24*
X242387500Y-74800000D03*
X240812500Y-74800000D03*
G04 #@! TD*
D22*
G04 #@! TO.C,R47*
X232497500Y-74250000D03*
X231477500Y-74250000D03*
G04 #@! TD*
D20*
G04 #@! TO.C,C71*
X232840000Y-75380000D03*
X232840000Y-76340000D03*
G04 #@! TD*
D34*
G04 #@! TO.C,D13*
X159640000Y-74037500D03*
X159640000Y-73347500D03*
G04 #@! TD*
D35*
G04 #@! TO.C,R34*
X155600000Y-82700000D03*
X152600000Y-82700000D03*
G04 #@! TD*
D20*
G04 #@! TO.C,C25*
X157890000Y-92350000D03*
X157890000Y-93310000D03*
G04 #@! TD*
D36*
G04 #@! TO.C,C5*
X216000000Y-92700000D03*
X216678822Y-93378822D03*
G04 #@! TD*
D19*
G04 #@! TO.C,C45*
X169160000Y-85250000D03*
X170120000Y-85250000D03*
G04 #@! TD*
G04 #@! TO.C,C33*
X159646000Y-94620000D03*
X160606000Y-94620000D03*
G04 #@! TD*
D20*
G04 #@! TO.C,C42*
X165920000Y-94530000D03*
X165920000Y-95490000D03*
G04 #@! TD*
D22*
G04 #@! TO.C,R69*
X166339999Y-78780000D03*
X165320001Y-78780000D03*
G04 #@! TD*
G04 #@! TO.C,R18*
X174610000Y-96250000D03*
X173590000Y-96250000D03*
G04 #@! TD*
D25*
G04 #@! TO.C,R67*
X234800000Y-105200000D03*
X234800000Y-104180000D03*
G04 #@! TD*
D37*
G04 #@! TO.C,D33*
X161526048Y-101696048D03*
X162013952Y-102183952D03*
G04 #@! TD*
D19*
G04 #@! TO.C,C26*
X164070000Y-94570000D03*
X165030000Y-94570000D03*
G04 #@! TD*
D37*
G04 #@! TO.C,D35*
X239726048Y-70076048D03*
X240213952Y-70563952D03*
G04 #@! TD*
D22*
G04 #@! TO.C,NT12*
X226759999Y-81400000D03*
X225740001Y-81400000D03*
G04 #@! TD*
D20*
G04 #@! TO.C,C24*
X161896000Y-94530000D03*
X161896000Y-95490000D03*
G04 #@! TD*
D38*
G04 #@! TO.C,C10*
X226500000Y-95800000D03*
X225821178Y-95121178D03*
G04 #@! TD*
D12*
G04 #@! TO.C,R126*
X195800000Y-70490000D03*
X195800000Y-71510000D03*
G04 #@! TD*
G04 #@! TO.C,R10*
X232200000Y-108490000D03*
X232200000Y-109510000D03*
G04 #@! TD*
D39*
G04 #@! TO.C,U16*
X236900000Y-108399999D03*
D40*
X236900000Y-106699999D03*
X234900000Y-106699999D03*
X234900000Y-108599999D03*
G04 #@! TD*
D41*
G04 #@! TO.C,U10*
X233787500Y-76650000D03*
X234437500Y-76650000D03*
X235087500Y-76650000D03*
X235087500Y-74975000D03*
X234437500Y-74975000D03*
X233787500Y-74975000D03*
G04 #@! TD*
D42*
G04 #@! TO.C,U4*
X230102500Y-91540000D03*
X230102500Y-92260000D03*
X230822500Y-91540000D03*
X230822500Y-92260000D03*
D43*
X229200000Y-91400000D03*
X229200000Y-91900000D03*
X229200000Y-92400000D03*
D44*
X229712500Y-93162500D03*
X230212500Y-93162500D03*
X230712500Y-93162500D03*
X231212500Y-93162500D03*
D43*
X231725000Y-92400000D03*
X231725000Y-91900000D03*
X231725000Y-91400000D03*
D44*
X231212500Y-90637500D03*
X230712500Y-90637500D03*
X230212500Y-90637500D03*
X229712500Y-90637500D03*
G04 #@! TD*
D25*
G04 #@! TO.C,R11*
X195800000Y-69510000D03*
X195800000Y-68490000D03*
G04 #@! TD*
D33*
G04 #@! TO.C,C41*
X157920000Y-91460000D03*
X156960000Y-91460000D03*
G04 #@! TD*
D22*
G04 #@! TO.C,R49*
X161260000Y-99280000D03*
X160240000Y-99280000D03*
G04 #@! TD*
D33*
G04 #@! TO.C,C84*
X235680000Y-109850000D03*
X234720000Y-109850000D03*
G04 #@! TD*
D20*
G04 #@! TO.C,C36*
X169720000Y-81020000D03*
X169720000Y-81980000D03*
G04 #@! TD*
D14*
G04 #@! TO.C,C32*
X163310000Y-83420000D03*
X163310000Y-82460000D03*
G04 #@! TD*
D12*
G04 #@! TO.C,R83*
X194600000Y-73780001D03*
X194600000Y-74800001D03*
G04 #@! TD*
D45*
G04 #@! TO.C,J8*
X202570000Y-73800000D03*
X202570000Y-66200000D03*
X205110000Y-73800000D03*
X205110000Y-66200000D03*
X207650000Y-73800000D03*
X207650000Y-66200000D03*
X210190000Y-73800000D03*
X210190000Y-66200000D03*
X212730000Y-73800000D03*
X212730000Y-66200000D03*
X215270000Y-73800000D03*
X215270000Y-66200000D03*
X217810000Y-73800000D03*
X217810000Y-66200000D03*
X220350000Y-73800000D03*
X220350000Y-66200000D03*
X222890000Y-73800000D03*
X222890000Y-66200000D03*
X225430000Y-73800000D03*
X225430000Y-66200000D03*
G04 #@! TD*
D16*
G04 #@! TO.C,D2*
X242387500Y-97500000D03*
X240812500Y-97500000D03*
G04 #@! TD*
D25*
G04 #@! TO.C,R59*
X233800000Y-109210000D03*
X233800000Y-108190000D03*
G04 #@! TD*
D46*
G04 #@! TO.C,D6*
X234085000Y-89500000D03*
X233115000Y-89500000D03*
G04 #@! TD*
D25*
G04 #@! TO.C,R7*
X216300000Y-97010000D03*
X216300000Y-95990000D03*
G04 #@! TD*
D47*
G04 #@! TO.C,H5*
X172795873Y-87295873D03*
D48*
X172795873Y-90704127D03*
D49*
X176204127Y-87295873D03*
D50*
X176204127Y-90704127D03*
G04 #@! TD*
D14*
G04 #@! TO.C,C121*
X194600000Y-72930000D03*
X194600000Y-71970000D03*
G04 #@! TD*
D36*
G04 #@! TO.C,C11*
X222210589Y-98860589D03*
X222889411Y-99539411D03*
G04 #@! TD*
D19*
G04 #@! TO.C,C70*
X233370000Y-77770000D03*
X234330000Y-77770000D03*
G04 #@! TD*
D51*
G04 #@! TO.C,J9*
X188430000Y-104300000D03*
X188430000Y-111900000D03*
X185890000Y-104300000D03*
X185890000Y-111900000D03*
X183350000Y-104300000D03*
X183350000Y-111900000D03*
X180810000Y-104300000D03*
X180810000Y-111900000D03*
X178270000Y-104300000D03*
X178270000Y-111900000D03*
X175730000Y-104300000D03*
X175730000Y-111900000D03*
X173190000Y-104300000D03*
X173190000Y-111900000D03*
X170650000Y-104300000D03*
X170650000Y-111900000D03*
X168110000Y-104300000D03*
X168110000Y-111900000D03*
X165570000Y-104300000D03*
X165570000Y-111900000D03*
G04 #@! TD*
D14*
G04 #@! TO.C,C2*
X220800000Y-97380000D03*
X220800000Y-96420000D03*
G04 #@! TD*
D13*
G04 #@! TO.C,R45*
X238490000Y-82400000D03*
X239510000Y-82400000D03*
G04 #@! TD*
D25*
G04 #@! TO.C,R21*
X158800000Y-69610000D03*
X158800000Y-68590000D03*
G04 #@! TD*
D12*
G04 #@! TO.C,R72*
X226130000Y-79290001D03*
X226130000Y-80309999D03*
G04 #@! TD*
D18*
G04 #@! TO.C,C30*
X157325000Y-85650000D03*
X155775000Y-85650000D03*
G04 #@! TD*
D52*
G04 #@! TO.C,Q2*
X155598500Y-94950000D03*
X155598500Y-96850000D03*
X157473500Y-95900000D03*
G04 #@! TD*
D53*
G04 #@! TO.C,U5*
X230600000Y-84000000D03*
D54*
X230775000Y-84175000D03*
D55*
X230125000Y-84000000D03*
X229675000Y-84000000D03*
D53*
X229200000Y-84000000D03*
D54*
X229025000Y-84175000D03*
X229025000Y-85625000D03*
D53*
X229200000Y-85800000D03*
D55*
X229675000Y-85800000D03*
X230125000Y-85800000D03*
D54*
X230775000Y-85625000D03*
D53*
X230600000Y-85800000D03*
G04 #@! TD*
D14*
G04 #@! TO.C,C35*
X162816000Y-96420000D03*
X162816000Y-95460000D03*
G04 #@! TD*
D22*
G04 #@! TO.C,R13*
X172610000Y-93500000D03*
X171590000Y-93500000D03*
G04 #@! TD*
D19*
G04 #@! TO.C,C12*
X167020000Y-97200000D03*
X167980000Y-97200000D03*
G04 #@! TD*
D14*
G04 #@! TO.C,C17*
X228030000Y-93180000D03*
X228030000Y-92220000D03*
G04 #@! TD*
D25*
G04 #@! TO.C,R168*
X195200000Y-107610000D03*
X195200000Y-106590000D03*
G04 #@! TD*
D46*
G04 #@! TO.C,D7*
X234085000Y-88500000D03*
X233115000Y-88500000D03*
G04 #@! TD*
D28*
G04 #@! TO.C,D32*
X238050000Y-73470000D03*
X238740000Y-73470000D03*
G04 #@! TD*
D13*
G04 #@! TO.C,R42*
X238540000Y-76700000D03*
X239560000Y-76700000D03*
G04 #@! TD*
D56*
G04 #@! TO.C,J5*
X153050000Y-98960000D03*
X156950000Y-98960000D03*
X153050000Y-100230000D03*
X156950000Y-100230000D03*
X153050000Y-101500000D03*
X156950000Y-101500000D03*
X153050000Y-102770000D03*
X156950000Y-102770000D03*
X153050000Y-104040000D03*
X156950000Y-104040000D03*
G04 #@! TD*
G04 #@! TO.C,J2*
X153050000Y-73960000D03*
X156950000Y-73960000D03*
X153050000Y-75230000D03*
X156950000Y-75230000D03*
X153050000Y-76500000D03*
X156950000Y-76500000D03*
X153050000Y-77770000D03*
X156950000Y-77770000D03*
X153050000Y-79040000D03*
X156950000Y-79040000D03*
G04 #@! TD*
D28*
G04 #@! TO.C,D30*
X159985000Y-100330000D03*
X160675000Y-100330000D03*
G04 #@! TD*
D14*
G04 #@! TO.C,C95*
X231262500Y-80317501D03*
X231262500Y-79357501D03*
G04 #@! TD*
D13*
G04 #@! TO.C,R1*
X238540000Y-95600000D03*
X239560000Y-95600000D03*
G04 #@! TD*
G04 #@! TO.C,R41*
X238540000Y-74800000D03*
X239560000Y-74800000D03*
G04 #@! TD*
D33*
G04 #@! TO.C,C51*
X156190000Y-84310000D03*
X155230000Y-84310000D03*
G04 #@! TD*
D57*
G04 #@! TO.C,D11*
X159375000Y-80610000D03*
X158685000Y-80610000D03*
G04 #@! TD*
D58*
G04 #@! TO.C,C22*
X223900000Y-83600000D03*
X223900000Y-89000000D03*
G04 #@! TD*
D22*
G04 #@! TO.C,R15*
X174610000Y-95150000D03*
X173590000Y-95150000D03*
G04 #@! TD*
D14*
G04 #@! TO.C,C9*
X219820000Y-87250000D03*
X219820000Y-86290000D03*
G04 #@! TD*
D59*
G04 #@! TO.C,U20*
X229800000Y-80300001D03*
X229800000Y-79350001D03*
X229800000Y-78400001D03*
X227525000Y-78400001D03*
X227525000Y-79350001D03*
X227525000Y-80300001D03*
G04 #@! TD*
D60*
G04 #@! TO.C,J6*
X210000000Y-96250000D03*
X214000000Y-96250000D03*
X210000000Y-95750000D03*
X214000000Y-95750000D03*
X210000000Y-95250000D03*
X214000000Y-95250000D03*
X210000000Y-94750000D03*
X214000000Y-94750000D03*
X210000000Y-94250000D03*
X214000000Y-94250000D03*
X210000000Y-93750000D03*
X214000000Y-93750000D03*
X210000000Y-93250000D03*
X214000000Y-93250000D03*
X210000000Y-92750000D03*
X214000000Y-92750000D03*
X210000000Y-92250000D03*
X214000000Y-92250000D03*
X210000000Y-91750000D03*
X214000000Y-91750000D03*
X210000000Y-91250000D03*
X214000000Y-91250000D03*
X210000000Y-90750000D03*
X214000000Y-90750000D03*
X210000000Y-90250000D03*
X214000000Y-90250000D03*
X210000000Y-89750000D03*
X214000000Y-89750000D03*
X210000000Y-89250000D03*
X214000000Y-89250000D03*
X210000000Y-88750000D03*
X214000000Y-88750000D03*
X210000000Y-88250000D03*
X214000000Y-88250000D03*
X210000000Y-87750000D03*
X214000000Y-87750000D03*
X210000000Y-87250000D03*
X214000000Y-87250000D03*
X210000000Y-86750000D03*
X214000000Y-86750000D03*
X210000000Y-86250000D03*
X214000000Y-86250000D03*
X210000000Y-85750000D03*
X214000000Y-85750000D03*
X210000000Y-85250000D03*
X214000000Y-85250000D03*
X210000000Y-84750000D03*
X214000000Y-84750000D03*
X210000000Y-84250000D03*
X214000000Y-84250000D03*
X210000000Y-83750000D03*
X214000000Y-83750000D03*
X210000000Y-83250000D03*
X214000000Y-83250000D03*
X210000000Y-82750000D03*
X214000000Y-82750000D03*
X210000000Y-82250000D03*
X214000000Y-82250000D03*
X210000000Y-81750000D03*
X214000000Y-81750000D03*
G04 #@! TD*
D61*
G04 #@! TO.C,J1*
X237305000Y-92250000D03*
X237305000Y-91450000D03*
D62*
X237305000Y-90250000D03*
X237305000Y-89250000D03*
X237305000Y-88750000D03*
X237305000Y-87750000D03*
D61*
X237305000Y-86550000D03*
X237305000Y-85750000D03*
X237305000Y-85750000D03*
X237305000Y-86550000D03*
D62*
X237305000Y-87250000D03*
X237305000Y-88250000D03*
X237305000Y-89750000D03*
X237305000Y-90750000D03*
D61*
X237305000Y-91450000D03*
X237305000Y-92250000D03*
G04 #@! TD*
D51*
G04 #@! TO.C,J7*
X225430000Y-104300000D03*
X225430000Y-111900000D03*
X222890000Y-104300000D03*
X222890000Y-111900000D03*
X220350000Y-104300000D03*
X220350000Y-111900000D03*
X217810000Y-104300000D03*
X217810000Y-111900000D03*
X215270000Y-104300000D03*
X215270000Y-111900000D03*
X212730000Y-104300000D03*
X212730000Y-111900000D03*
X210190000Y-104300000D03*
X210190000Y-111900000D03*
X207650000Y-104300000D03*
X207650000Y-111900000D03*
X205110000Y-104300000D03*
X205110000Y-111900000D03*
X202570000Y-104300000D03*
X202570000Y-111900000D03*
G04 #@! TD*
D20*
G04 #@! TO.C,C15*
X232100000Y-88520000D03*
X232100000Y-89480000D03*
G04 #@! TD*
D19*
G04 #@! TO.C,C103*
X174750000Y-78187500D03*
X175710000Y-78187500D03*
G04 #@! TD*
D27*
G04 #@! TO.C,D9*
X234312500Y-87200000D03*
X232912500Y-87200000D03*
G04 #@! TD*
D22*
G04 #@! TO.C,R50*
X236979999Y-74820000D03*
X235960001Y-74820000D03*
G04 #@! TD*
G04 #@! TO.C,R51*
X161060000Y-97010000D03*
X160040000Y-97010000D03*
G04 #@! TD*
D11*
G04 #@! TO.C,D40*
X232200000Y-103812500D03*
X232200000Y-105387500D03*
G04 #@! TD*
D14*
G04 #@! TO.C,C20*
X231000000Y-87680000D03*
X231000000Y-86720000D03*
G04 #@! TD*
D63*
G04 #@! TO.C,U3*
X166800000Y-99612500D03*
X167300000Y-99612500D03*
X167800000Y-99612500D03*
X167800000Y-98187500D03*
X167300000Y-98187500D03*
X166800000Y-98187500D03*
G04 #@! TD*
D64*
G04 #@! TO.C,Y1*
X224223223Y-98778858D03*
X225778858Y-97223223D03*
X224576777Y-96021142D03*
X223021142Y-97576777D03*
G04 #@! TD*
D12*
G04 #@! TO.C,R48*
X231900000Y-75350001D03*
X231900000Y-76369999D03*
G04 #@! TD*
D25*
G04 #@! TO.C,R84*
X232200000Y-107610000D03*
X232200000Y-106590000D03*
G04 #@! TD*
D65*
G04 #@! TO.C,U1*
X218875000Y-80537500D03*
X218225000Y-80537500D03*
X217575000Y-80537500D03*
X216925000Y-80537500D03*
X216925000Y-86262500D03*
X217575000Y-86262500D03*
X218225000Y-86262500D03*
X218875000Y-86262500D03*
G04 #@! TD*
D36*
G04 #@! TO.C,C3*
X224000000Y-92600001D03*
X224678822Y-93278823D03*
G04 #@! TD*
D22*
G04 #@! TO.C,R76*
X159560000Y-105800000D03*
X158540000Y-105800000D03*
G04 #@! TD*
G04 #@! TO.C,R19*
X172610000Y-96800000D03*
X171590000Y-96800000D03*
G04 #@! TD*
D16*
G04 #@! TO.C,D4*
X242387500Y-101300000D03*
X240812500Y-101300000D03*
G04 #@! TD*
D66*
G04 #@! TO.C,D29*
X155900000Y-105845000D03*
X155900000Y-106535000D03*
G04 #@! TD*
D19*
G04 #@! TO.C,C104*
X176830000Y-78567500D03*
X177790000Y-78567500D03*
G04 #@! TD*
D13*
G04 #@! TO.C,R54*
X197590000Y-78900000D03*
X198610000Y-78900000D03*
G04 #@! TD*
D20*
G04 #@! TO.C,C58*
X193500000Y-99620000D03*
X193500000Y-100580000D03*
G04 #@! TD*
D22*
G04 #@! TO.C,R16*
X174610000Y-94050000D03*
X173590000Y-94050000D03*
G04 #@! TD*
D14*
G04 #@! TO.C,C19*
X229000000Y-87680000D03*
X229000000Y-86720000D03*
G04 #@! TD*
D22*
G04 #@! TO.C,R14*
X172619999Y-94600000D03*
X171599999Y-94600000D03*
G04 #@! TD*
D16*
G04 #@! TO.C,D26*
X242387500Y-78600000D03*
X240812500Y-78600000D03*
G04 #@! TD*
D13*
G04 #@! TO.C,R44*
X238490000Y-80500000D03*
X239510000Y-80500000D03*
G04 #@! TD*
D16*
G04 #@! TO.C,D3*
X242387500Y-99400000D03*
X240812500Y-99400000D03*
G04 #@! TD*
D12*
G04 #@! TO.C,R73*
X172970000Y-78207500D03*
X172970000Y-79227500D03*
G04 #@! TD*
D15*
G04 #@! TO.C,C34*
X159171000Y-95810000D03*
X160721000Y-95810000D03*
G04 #@! TD*
D12*
G04 #@! TO.C,R24*
X227900000Y-82090000D03*
X227900000Y-83110000D03*
G04 #@! TD*
D13*
G04 #@! TO.C,R6*
X217990000Y-79000000D03*
X219010000Y-79000000D03*
G04 #@! TD*
D12*
G04 #@! TO.C,R210*
X158800000Y-70490000D03*
X158800000Y-71510000D03*
G04 #@! TD*
D19*
G04 #@! TO.C,C44*
X167730000Y-94600000D03*
X168690000Y-94600000D03*
G04 #@! TD*
D16*
G04 #@! TO.C,D25*
X242387500Y-76700000D03*
X240812500Y-76700000D03*
G04 #@! TD*
D22*
G04 #@! TO.C,R29*
X170719999Y-89800000D03*
X169699999Y-89800000D03*
G04 #@! TD*
D14*
G04 #@! TO.C,C28*
X158350000Y-84440000D03*
X158350000Y-83480000D03*
G04 #@! TD*
D66*
G04 #@! TO.C,D34*
X157420000Y-105825000D03*
X157420000Y-106515000D03*
G04 #@! TD*
D45*
G04 #@! TO.C,J10*
X165570000Y-73800000D03*
X165570000Y-66200000D03*
X168110000Y-73800000D03*
X168110000Y-66200000D03*
X170650000Y-73800000D03*
X170650000Y-66200000D03*
X173190000Y-73800000D03*
X173190000Y-66200000D03*
X175730000Y-73800000D03*
X175730000Y-66200000D03*
X178270000Y-73800000D03*
X178270000Y-66200000D03*
X180810000Y-73800000D03*
X180810000Y-66200000D03*
X183350000Y-73800000D03*
X183350000Y-66200000D03*
X185890000Y-73800000D03*
X185890000Y-66200000D03*
X188430000Y-73800000D03*
X188430000Y-66200000D03*
G04 #@! TD*
D67*
G04 #@! TO.C,Y2*
X168170000Y-80650000D03*
X165970000Y-80650000D03*
X165970000Y-82350000D03*
X168170000Y-82350000D03*
G04 #@! TD*
D13*
G04 #@! TO.C,R3*
X238540000Y-99400000D03*
X239560000Y-99400000D03*
G04 #@! TD*
G04 #@! TO.C,R60*
X229840001Y-82940000D03*
X230859999Y-82940000D03*
G04 #@! TD*
D28*
G04 #@! TO.C,D12*
X159875000Y-79480000D03*
X160565000Y-79480000D03*
G04 #@! TD*
D38*
G04 #@! TO.C,C8*
X223039411Y-94139411D03*
X222360589Y-93460589D03*
G04 #@! TD*
D11*
G04 #@! TO.C,D100*
X157480000Y-69792500D03*
X157480000Y-71367500D03*
G04 #@! TD*
D68*
G04 #@! TO.C,D37*
X235850000Y-105387500D03*
X237150000Y-105387500D03*
X236500000Y-103612500D03*
G04 #@! TD*
D14*
G04 #@! TO.C,C39*
X164656000Y-96420000D03*
X164656000Y-95460000D03*
G04 #@! TD*
G04 #@! TO.C,C38*
X164420000Y-81980000D03*
X164420000Y-81020000D03*
G04 #@! TD*
D22*
G04 #@! TO.C,R82*
X198710000Y-102200000D03*
X197690000Y-102200000D03*
G04 #@! TD*
D69*
G04 #@! TO.C,C1*
X218660589Y-97239411D03*
X219339411Y-96560589D03*
G04 #@! TD*
D22*
G04 #@! TO.C,R17*
X172610000Y-95700000D03*
X171590000Y-95700000D03*
G04 #@! TD*
D25*
G04 #@! TO.C,R8*
X217400000Y-97010000D03*
X217400000Y-95990000D03*
G04 #@! TD*
D22*
G04 #@! TO.C,R52*
X162660000Y-100500000D03*
X161640000Y-100500000D03*
G04 #@! TD*
D33*
G04 #@! TO.C,C40*
X157920000Y-90540000D03*
X156960000Y-90540000D03*
G04 #@! TD*
D70*
G04 #@! TO.C,U21*
X174810000Y-80400000D03*
X174810000Y-81240000D03*
X175650000Y-80400000D03*
X175650000Y-81240000D03*
D71*
X173772500Y-80070000D03*
X173772500Y-80570000D03*
X173772500Y-81070000D03*
X173772500Y-81570000D03*
D72*
X174480000Y-82277500D03*
X174980000Y-82277500D03*
X175480000Y-82277500D03*
X175980000Y-82277500D03*
D71*
X176687500Y-81570000D03*
X176687500Y-81070000D03*
X176687500Y-80570000D03*
X176687500Y-80070000D03*
D72*
X175980000Y-79362500D03*
X175480000Y-79362500D03*
X174980000Y-79362500D03*
X174480000Y-79362500D03*
G04 #@! TD*
D73*
X150500000Y-62500000D02*
X150500000Y-62500000D01*
G75*
G02*
X151500000Y-61500000I1000000J0D01*
G01*
X244500000Y-61500000D01*
G75*
G02*
X245500000Y-62500000I0J-1000000D01*
G01*
X245500000Y-115500000D01*
G75*
G02*
X244500000Y-116500000I-1000000J0D01*
G01*
X151500000Y-116500000D01*
G75*
G02*
X150500000Y-115500000I0J1000000D01*
G01*
X150500000Y-62500000D01*
M02*
