G04 #@! TF.GenerationSoftware,KiCad,Pcbnew,10.0.5+dfsg-1*
G04 #@! TF.CreationDate,2026-09-25T10:09:44+00:00*
G04 #@! TF.ProjectId,glasgow,676c6173-676f-4772-9e6b-696361645f70,rev?*
G04 #@! TF.SameCoordinates,Original*
G04 #@! TF.FileFunction,Other,User*
%FSLAX46Y46*%
G04 Gerber Fmt 4.6, Leading zero omitted, Abs format (unit mm)*
G04 Created by KiCad (PCBNEW 10.0.5+dfsg-1) date 2026-09-25 10:09:44*
%MOMM*%
%LPD*%
G01*
G04 APERTURE LIST*
%ADD10C,0.050000*%
%ADD11C,0.120000*%
G04 #@! TA.AperFunction,Profile*
%ADD12C,0.050000*%
G04 #@! TD*
G04 APERTURE END LIST*
G04 #@! TO.C,D80*
D10*
X194470000Y-103120000D02*
X195930000Y-103120000D01*
X195930000Y-106080000D01*
X194470000Y-106080000D01*
X194470000Y-103120000D01*
G04 #@! TO.C,R23*
X229530000Y-86270000D02*
X230470000Y-86270000D01*
X230470000Y-88130000D01*
X229530000Y-88130000D01*
X229530000Y-86270000D01*
G04 #@! TO.C,R28*
X162127500Y-79425000D02*
X163987500Y-79425000D01*
X163987500Y-80365000D01*
X162127500Y-80365000D01*
X162127500Y-79425000D01*
G04 #@! TO.C,R2*
X238120000Y-97030000D02*
X239980000Y-97030000D01*
X239980000Y-97970000D01*
X238120000Y-97970000D01*
X238120000Y-97030000D01*
G04 #@! TO.C,C46*
X166380000Y-94100000D02*
X167300000Y-94100000D01*
X167300000Y-95920000D01*
X166380000Y-95920000D01*
X166380000Y-94100000D01*
G04 #@! TO.C,C16*
X228220000Y-88507500D02*
X231180000Y-88507500D01*
X231180000Y-89967500D01*
X228220000Y-89967500D01*
X228220000Y-88507500D01*
G04 #@! TO.C,C83*
X233340000Y-105940000D02*
X234260000Y-105940000D01*
X234260000Y-107760000D01*
X233340000Y-107760000D01*
X233340000Y-105940000D01*
G04 #@! TO.C,FB1*
X232120000Y-84970000D02*
X235080000Y-84970000D01*
X235080000Y-86430000D01*
X232120000Y-86430000D01*
X232120000Y-84970000D01*
G04 #@! TO.C,U8*
X188525000Y-80990000D02*
X188525000Y-96990000D01*
X188525000Y-80990000D02*
X204525000Y-80990000D01*
X204525000Y-96990000D02*
X188525000Y-96990000D01*
X204525000Y-96990000D02*
X204525000Y-80990000D01*
G04 #@! TO.C,C18*
X232120000Y-81970000D02*
X235080000Y-81970000D01*
X235080000Y-83430000D01*
X232120000Y-83430000D01*
X232120000Y-81970000D01*
G04 #@! TO.C,C43*
X169299999Y-90340000D02*
X171119999Y-90340000D01*
X171119999Y-91260000D01*
X169299999Y-91260000D01*
X169299999Y-90340000D01*
G04 #@! TO.C,C37*
X163276000Y-95030000D02*
X164196000Y-95030000D01*
X164196000Y-96850000D01*
X163276000Y-96850000D01*
X163276000Y-95030000D01*
G04 #@! TO.C,C92*
X233340000Y-104090000D02*
X234260000Y-104090000D01*
X234260000Y-105910000D01*
X233340000Y-105910000D01*
X233340000Y-104090000D01*
G04 #@! TO.C,Q1*
X150746000Y-95350000D02*
X151776000Y-95350000D01*
X150746000Y-96450000D02*
X150746000Y-95350000D01*
X151776000Y-94200000D02*
X153576000Y-94200000D01*
X151776000Y-95350000D02*
X151776000Y-94200000D01*
X151776000Y-96450000D02*
X150746000Y-96450000D01*
X151776000Y-97600000D02*
X151776000Y-96450000D01*
X153576000Y-94200000D02*
X153576000Y-94400000D01*
X153576000Y-94400000D02*
X154606000Y-94400000D01*
X153576000Y-95510000D02*
X153576000Y-96290000D01*
X153576000Y-96290000D02*
X154606000Y-96290000D01*
X153576000Y-97400000D02*
X153576000Y-97600000D01*
X153576000Y-97600000D02*
X151776000Y-97600000D01*
X154606000Y-94400000D02*
X154606000Y-95510000D01*
X154606000Y-95510000D02*
X153576000Y-95510000D01*
X154606000Y-96290000D02*
X154606000Y-97400000D01*
X154606000Y-97400000D02*
X153576000Y-97400000D01*
G04 #@! TO.C,U12*
X178525000Y-80990000D02*
X188525000Y-80990000D01*
X188525000Y-88990000D01*
X178525000Y-88990000D01*
X178525000Y-80990000D01*
G04 #@! TO.C,R20*
X173170000Y-96930000D02*
X175030000Y-96930000D01*
X175030000Y-97870000D01*
X173170000Y-97870000D01*
X173170000Y-96930000D01*
G04 #@! TO.C,R5*
X238120000Y-102730000D02*
X239980000Y-102730000D01*
X239980000Y-103670000D01*
X238120000Y-103670000D01*
X238120000Y-102730000D01*
G04 #@! TO.C,R58*
X242849949Y-70154731D02*
X241534731Y-71469949D01*
X240870051Y-70805269D01*
X242185269Y-69490051D01*
X242849949Y-70154731D01*
G04 #@! TO.C,C13*
X232120000Y-83470000D02*
X235080000Y-83470000D01*
X235080000Y-84930000D01*
X232120000Y-84930000D01*
X232120000Y-83470000D01*
G04 #@! TO.C,D14*
X161642500Y-77830000D02*
X164602500Y-77830000D01*
X164602500Y-79290000D01*
X161642500Y-79290000D01*
X161642500Y-77830000D01*
G04 #@! TO.C,U11*
X178525000Y-88990000D02*
X188525000Y-88990000D01*
X188525000Y-96990000D01*
X178525000Y-96990000D01*
X178525000Y-88990000D01*
G04 #@! TO.C,C21*
X227540000Y-84690000D02*
X228460000Y-84690000D01*
X228460000Y-86510000D01*
X227540000Y-86510000D01*
X227540000Y-84690000D01*
G04 #@! TO.C,C29*
X168710000Y-91340000D02*
X169630000Y-91340000D01*
X169630000Y-93160000D01*
X168710000Y-93160000D01*
X168710000Y-91340000D01*
G04 #@! TO.C,SW1*
X232000000Y-112084000D02*
X237000000Y-112084000D01*
X232000000Y-115384000D02*
X232000000Y-112084000D01*
X237000000Y-112084000D02*
X237000000Y-115384000D01*
X237000000Y-115384000D02*
X232000000Y-115384000D01*
G04 #@! TO.C,R68*
X234270000Y-102780000D02*
X236130000Y-102780000D01*
X236130000Y-103720000D01*
X234270000Y-103720000D01*
X234270000Y-102780000D01*
G04 #@! TO.C,D28*
X240120000Y-81670000D02*
X243080000Y-81670000D01*
X243080000Y-83130000D01*
X240120000Y-83130000D01*
X240120000Y-81670000D01*
G04 #@! TO.C,D1*
X240120000Y-94870000D02*
X243080000Y-94870000D01*
X243080000Y-96330000D01*
X240120000Y-96330000D01*
X240120000Y-94870000D01*
G04 #@! TO.C,R25*
X228430000Y-81670000D02*
X229370000Y-81670000D01*
X229370000Y-83530000D01*
X228430000Y-83530000D01*
X228430000Y-81670000D01*
G04 #@! TO.C,H1*
X244450000Y-112000000D02*
G75*
G02*
X237550000Y-112000000I-3450000J0D01*
G01*
X237550000Y-112000000D02*
G75*
G02*
X244450000Y-112000000I3450000J0D01*
G01*
G04 #@! TO.C,J3*
X151230000Y-85955000D02*
X154770000Y-85955000D01*
X154770000Y-92045000D01*
X151230000Y-92045000D01*
X151230000Y-85955000D01*
G04 #@! TO.C,D60*
X195150000Y-72020000D02*
X196610000Y-72020000D01*
X196610000Y-74980000D01*
X195150000Y-74980000D01*
X195150000Y-72020000D01*
G04 #@! TO.C,D5*
X240120000Y-102470000D02*
X243080000Y-102470000D01*
X243080000Y-103930000D01*
X240120000Y-103930000D01*
X240120000Y-102470000D01*
G04 #@! TO.C,D8*
X232362500Y-90100000D02*
X234862500Y-90100000D01*
X232362500Y-91500000D02*
X232362500Y-90100000D01*
X234862500Y-90100000D02*
X234862500Y-91500000D01*
X234862500Y-91500000D02*
X232362500Y-91500000D01*
G04 #@! TO.C,D31*
X159680000Y-97790000D02*
X161080000Y-97790000D01*
X161080000Y-98490000D01*
X159680000Y-98490000D01*
X159680000Y-97790000D01*
G04 #@! TO.C,H4*
X158450000Y-66000000D02*
G75*
G02*
X151550000Y-66000000I-3450000J0D01*
G01*
X151550000Y-66000000D02*
G75*
G02*
X158450000Y-66000000I3450000J0D01*
G01*
G04 #@! TO.C,R74*
X172200000Y-82607500D02*
X174060000Y-82607500D01*
X174060000Y-83547500D01*
X172200000Y-83547500D01*
X172200000Y-82607500D01*
G04 #@! TO.C,R4*
X238120000Y-100830000D02*
X239980000Y-100830000D01*
X239980000Y-101770000D01*
X238120000Y-101770000D01*
X238120000Y-100830000D01*
G04 #@! TO.C,D23*
X151600000Y-85850000D02*
X151600000Y-83950000D01*
X154800000Y-83950000D02*
X151600000Y-83950000D01*
X154800000Y-85850000D02*
X151600000Y-85850000D01*
X154800000Y-85850000D02*
X154800000Y-83950000D01*
G04 #@! TO.C,R43*
X238070000Y-78130000D02*
X239930000Y-78130000D01*
X239930000Y-79070000D01*
X238070000Y-79070000D01*
X238070000Y-78130000D01*
G04 #@! TO.C,U7*
X158462500Y-84870000D02*
X158812500Y-84870000D01*
X158462500Y-93130000D02*
X158462500Y-84870000D01*
X158812500Y-84250000D02*
X159432500Y-84250000D01*
X158812500Y-84870000D02*
X158812500Y-84250000D01*
X158812500Y-93130000D02*
X158462500Y-93130000D01*
X158812500Y-93750000D02*
X158812500Y-93130000D01*
X159432500Y-83900000D02*
X167692500Y-83900000D01*
X159432500Y-84250000D02*
X159432500Y-83900000D01*
X159432500Y-93750000D02*
X158812500Y-93750000D01*
X159432500Y-94100000D02*
X159432500Y-93750000D01*
X167692500Y-83900000D02*
X167692500Y-84250000D01*
X167692500Y-84250000D02*
X168312500Y-84250000D01*
X167692500Y-93750000D02*
X167692500Y-94100000D01*
X167692500Y-94100000D02*
X159432500Y-94100000D01*
X168312500Y-84250000D02*
X168312500Y-84870000D01*
X168312500Y-84870000D02*
X168662500Y-84870000D01*
X168312500Y-93130000D02*
X168312500Y-93750000D01*
X168312500Y-93750000D02*
X167692500Y-93750000D01*
X168662500Y-84870000D02*
X168662500Y-93130000D01*
X168662500Y-93130000D02*
X168312500Y-93130000D01*
G04 #@! TO.C,R46*
X235930000Y-76870000D02*
X236870000Y-76870000D01*
X236870000Y-78730000D01*
X235930000Y-78730000D01*
X235930000Y-76870000D01*
G04 #@! TO.C,D27*
X240120000Y-79770000D02*
X243080000Y-79770000D01*
X243080000Y-81230000D01*
X240120000Y-81230000D01*
X240120000Y-79770000D01*
G04 #@! TO.C,C14*
X232990000Y-91540000D02*
X234810000Y-91540000D01*
X234810000Y-92460000D01*
X232990000Y-92460000D01*
X232990000Y-91540000D01*
G04 #@! TO.C,R12*
X194730000Y-108170000D02*
X195670000Y-108170000D01*
X195670000Y-110030000D01*
X194730000Y-110030000D01*
X194730000Y-108170000D01*
G04 #@! TO.C,C100*
X171540000Y-77807500D02*
X172460000Y-77807500D01*
X172460000Y-79627500D01*
X171540000Y-79627500D01*
X171540000Y-77807500D01*
G04 #@! TO.C,C31*
X168730000Y-85760000D02*
X170550000Y-85760000D01*
X170550000Y-86680000D01*
X168730000Y-86680000D01*
X168730000Y-85760000D01*
G04 #@! TO.C,R53*
X158230000Y-106270000D02*
X159170000Y-106270000D01*
X159170000Y-108130000D01*
X158230000Y-108130000D01*
X158230000Y-106270000D01*
G04 #@! TO.C,D24*
X240120000Y-74070000D02*
X243080000Y-74070000D01*
X243080000Y-75530000D01*
X240120000Y-75530000D01*
X240120000Y-74070000D01*
G04 #@! TO.C,R47*
X231057500Y-73780000D02*
X232917500Y-73780000D01*
X232917500Y-74720000D01*
X231057500Y-74720000D01*
X231057500Y-73780000D01*
G04 #@! TO.C,TP4*
X197120000Y-79700000D02*
G75*
G02*
X195120000Y-79700000I-1000000J0D01*
G01*
X195120000Y-79700000D02*
G75*
G02*
X197120000Y-79700000I1000000J0D01*
G01*
G04 #@! TO.C,C71*
X233300000Y-74950000D02*
X233300000Y-76770000D01*
X232380000Y-76770000D01*
X232380000Y-74950000D01*
X233300000Y-74950000D01*
G04 #@! TO.C,D13*
X159290000Y-74392500D02*
X159290000Y-72992500D01*
X159990000Y-72992500D01*
X159990000Y-74392500D01*
X159290000Y-74392500D01*
G04 #@! TO.C,R34*
X151600000Y-81550000D02*
X151600000Y-83850000D01*
X151600000Y-81550000D02*
X156600000Y-81550000D01*
X156600000Y-83850000D02*
X151600000Y-83850000D01*
X156600000Y-83850000D02*
X156600000Y-81550000D01*
G04 #@! TO.C,C25*
X157430000Y-91920000D02*
X158350000Y-91920000D01*
X158350000Y-93740000D01*
X157430000Y-93740000D01*
X157430000Y-91920000D01*
G04 #@! TO.C,C5*
X216021213Y-92070675D02*
X217308147Y-93357609D01*
X216657609Y-94008147D01*
X215370675Y-92721213D01*
X216021213Y-92070675D01*
G04 #@! TO.C,C45*
X168730000Y-84790000D02*
X170550000Y-84790000D01*
X170550000Y-85710000D01*
X168730000Y-85710000D01*
X168730000Y-84790000D01*
G04 #@! TO.C,C33*
X159216000Y-94160000D02*
X161036000Y-94160000D01*
X161036000Y-95080000D01*
X159216000Y-95080000D01*
X159216000Y-94160000D01*
G04 #@! TO.C,C42*
X165460000Y-94100000D02*
X166380000Y-94100000D01*
X166380000Y-95920000D01*
X165460000Y-95920000D01*
X165460000Y-94100000D01*
G04 #@! TO.C,R69*
X166760000Y-79250000D02*
X164900000Y-79250000D01*
X164900000Y-78310000D01*
X166760000Y-78310000D01*
X166760000Y-79250000D01*
G04 #@! TO.C,R18*
X173170000Y-95780000D02*
X175030000Y-95780000D01*
X175030000Y-96720000D01*
X173170000Y-96720000D01*
X173170000Y-95780000D01*
G04 #@! TO.C,R67*
X234330000Y-103760000D02*
X235270000Y-103760000D01*
X235270000Y-105620000D01*
X234330000Y-105620000D01*
X234330000Y-103760000D01*
G04 #@! TO.C,D33*
X161522513Y-101197538D02*
X162512462Y-102187487D01*
X162017487Y-102682462D01*
X161027538Y-101692513D01*
X161522513Y-101197538D01*
G04 #@! TO.C,C26*
X163640000Y-94110000D02*
X165460000Y-94110000D01*
X165460000Y-95030000D01*
X163640000Y-95030000D01*
X163640000Y-94110000D01*
G04 #@! TO.C,D35*
X239722513Y-69577538D02*
X240712462Y-70567487D01*
X240217487Y-71062462D01*
X239227538Y-70072513D01*
X239722513Y-69577538D01*
G04 #@! TO.C,NT12*
X225320000Y-81870000D02*
X227180000Y-81870000D01*
X227180000Y-80930000D01*
X225320000Y-80930000D01*
X225320000Y-81870000D01*
G04 #@! TO.C,C24*
X161436000Y-94100000D02*
X162356000Y-94100000D01*
X162356000Y-95920000D01*
X161436000Y-95920000D01*
X161436000Y-94100000D01*
G04 #@! TO.C,C10*
X226478787Y-96429325D02*
X225191853Y-95142391D01*
X225842391Y-94491853D01*
X227129325Y-95778787D01*
X226478787Y-96429325D01*
G04 #@! TO.C,R126*
X195330000Y-70070000D02*
X196270000Y-70070000D01*
X196270000Y-71930000D01*
X195330000Y-71930000D01*
X195330000Y-70070000D01*
G04 #@! TO.C,TP2*
X154950000Y-93100000D02*
G75*
G02*
X152950000Y-93100000I-1000000J0D01*
G01*
X152950000Y-93100000D02*
G75*
G02*
X154950000Y-93100000I1000000J0D01*
G01*
G04 #@! TO.C,R10*
X231730000Y-108070000D02*
X232670000Y-108070000D01*
X232670000Y-109930000D01*
X231730000Y-109930000D01*
X231730000Y-108070000D01*
G04 #@! TO.C,U16*
X234300000Y-109349999D02*
X234300000Y-105949999D01*
X234300000Y-109349999D02*
X237500000Y-109349999D01*
X237500000Y-105949999D02*
X234300000Y-105949999D01*
X237500000Y-105949999D02*
X237500000Y-109349999D01*
G04 #@! TO.C,U10*
X233337500Y-75082500D02*
X233507500Y-75082500D01*
X233337500Y-76542500D02*
X233337500Y-75082500D01*
X233507500Y-74362500D02*
X235367500Y-74362500D01*
X233507500Y-75082500D02*
X233507500Y-74362500D01*
X233507500Y-76542500D02*
X233337500Y-76542500D01*
X233507500Y-77262500D02*
X233507500Y-76542500D01*
X235367500Y-74362500D02*
X235367500Y-75082500D01*
X235367500Y-75082500D02*
X235537500Y-75082500D01*
X235367500Y-76542500D02*
X235367500Y-77262500D01*
X235367500Y-77262500D02*
X233507500Y-77262500D01*
X235537500Y-75082500D02*
X235537500Y-76542500D01*
X235537500Y-76542500D02*
X235367500Y-76542500D01*
G04 #@! TO.C,U4*
X228612500Y-91020000D02*
X228962500Y-91020000D01*
X228612500Y-92780000D02*
X228612500Y-91020000D01*
X228962500Y-90400000D02*
X229332500Y-90400000D01*
X228962500Y-91020000D02*
X228962500Y-90400000D01*
X228962500Y-92780000D02*
X228612500Y-92780000D01*
X228962500Y-93400000D02*
X228962500Y-92780000D01*
X229332500Y-90050000D02*
X231592500Y-90050000D01*
X229332500Y-90400000D02*
X229332500Y-90050000D01*
X229332500Y-93400000D02*
X228962500Y-93400000D01*
X229332500Y-93750000D02*
X229332500Y-93400000D01*
X231592500Y-90050000D02*
X231592500Y-90400000D01*
X231592500Y-90400000D02*
X231962500Y-90400000D01*
X231592500Y-93400000D02*
X231592500Y-93750000D01*
X231592500Y-93750000D02*
X229332500Y-93750000D01*
X231962500Y-90400000D02*
X231962500Y-91020000D01*
X231962500Y-91020000D02*
X232312500Y-91020000D01*
X231962500Y-92780000D02*
X231962500Y-93400000D01*
X231962500Y-93400000D02*
X231592500Y-93400000D01*
X232312500Y-91020000D02*
X232312500Y-92780000D01*
X232312500Y-92780000D02*
X231962500Y-92780000D01*
G04 #@! TO.C,R11*
X195330000Y-68070000D02*
X196270000Y-68070000D01*
X196270000Y-69930000D01*
X195330000Y-69930000D01*
X195330000Y-68070000D01*
G04 #@! TO.C,C41*
X156530000Y-91000000D02*
X158350000Y-91000000D01*
X158350000Y-91920000D01*
X156530000Y-91920000D01*
X156530000Y-91000000D01*
G04 #@! TO.C,R49*
X159820000Y-98810000D02*
X161680000Y-98810000D01*
X161680000Y-99750000D01*
X159820000Y-99750000D01*
X159820000Y-98810000D01*
G04 #@! TO.C,TP1*
X152800000Y-93100000D02*
G75*
G02*
X150800000Y-93100000I-1000000J0D01*
G01*
X150800000Y-93100000D02*
G75*
G02*
X152800000Y-93100000I1000000J0D01*
G01*
G04 #@! TO.C,C84*
X234290000Y-109390000D02*
X236110000Y-109390000D01*
X236110000Y-110310000D01*
X234290000Y-110310000D01*
X234290000Y-109390000D01*
G04 #@! TO.C,C36*
X169260000Y-80590000D02*
X170180000Y-80590000D01*
X170180000Y-82410000D01*
X169260000Y-82410000D01*
X169260000Y-80590000D01*
G04 #@! TO.C,C32*
X162850000Y-82030000D02*
X163770000Y-82030000D01*
X163770000Y-83850000D01*
X162850000Y-83850000D01*
X162850000Y-82030000D01*
G04 #@! TO.C,R83*
X194130000Y-73360001D02*
X195070000Y-73360001D01*
X195070000Y-75220001D01*
X194130000Y-75220001D01*
X194130000Y-73360001D01*
G04 #@! TO.C,J8*
X196990000Y-65020000D02*
X196990000Y-74980000D01*
X196990000Y-74980000D02*
X201560000Y-74980000D01*
X201560000Y-63200000D02*
X201560000Y-65020000D01*
X201560000Y-65020000D02*
X196990000Y-65020000D01*
X201560000Y-74980000D02*
X201560000Y-76800000D01*
X201560000Y-76800000D02*
X226440000Y-76800000D01*
X226440000Y-63200000D02*
X201560000Y-63200000D01*
X226440000Y-65020000D02*
X226440000Y-63200000D01*
X226440000Y-74980000D02*
X231010000Y-74980000D01*
X226440000Y-76800000D02*
X226440000Y-74980000D01*
X231010000Y-65020000D02*
X226440000Y-65020000D01*
X231010000Y-74980000D02*
X231010000Y-65020000D01*
G04 #@! TO.C,D2*
X240120000Y-96770000D02*
X243080000Y-96770000D01*
X243080000Y-98230000D01*
X240120000Y-98230000D01*
X240120000Y-96770000D01*
G04 #@! TO.C,R59*
X233330000Y-107770000D02*
X234270000Y-107770000D01*
X234270000Y-109630000D01*
X233330000Y-109630000D01*
X233330000Y-107770000D01*
G04 #@! TO.C,D6*
X232670000Y-89030000D02*
X234530000Y-89030000D01*
X234530000Y-89970000D01*
X232670000Y-89970000D01*
X232670000Y-89030000D01*
G04 #@! TO.C,R7*
X215830000Y-95570000D02*
X216770000Y-95570000D01*
X216770000Y-97430000D01*
X215830000Y-97430000D01*
X215830000Y-95570000D01*
G04 #@! TO.C,H5*
X177750000Y-89000000D02*
G75*
G02*
X171250000Y-89000000I-3250000J0D01*
G01*
X171250000Y-89000000D02*
G75*
G02*
X177750000Y-89000000I3250000J0D01*
G01*
G04 #@! TO.C,C121*
X194140000Y-71540000D02*
X195060000Y-71540000D01*
X195060000Y-73360000D01*
X194140000Y-73360000D01*
X194140000Y-71540000D01*
G04 #@! TO.C,C11*
X222231802Y-98231264D02*
X223518736Y-99518198D01*
X222868198Y-100168736D01*
X221581264Y-98881802D01*
X222231802Y-98231264D01*
G04 #@! TO.C,C70*
X234760000Y-77310000D02*
X234760000Y-78230000D01*
X232940000Y-78230000D01*
X232940000Y-77310000D01*
X234760000Y-77310000D01*
G04 #@! TO.C,J9*
X159990000Y-103120000D02*
X159990000Y-113080000D01*
X159990000Y-113080000D02*
X164560000Y-113080000D01*
X164560000Y-101300000D02*
X164560000Y-103120000D01*
X164560000Y-103120000D02*
X159990000Y-103120000D01*
X164560000Y-113080000D02*
X164560000Y-114900000D01*
X164560000Y-114900000D02*
X189440000Y-114900000D01*
X189440000Y-101300000D02*
X164560000Y-101300000D01*
X189440000Y-103120000D02*
X189440000Y-101300000D01*
X189440000Y-113080000D02*
X194010000Y-113080000D01*
X189440000Y-114900000D02*
X189440000Y-113080000D01*
X194010000Y-103120000D02*
X189440000Y-103120000D01*
X194010000Y-113080000D02*
X194010000Y-103120000D01*
G04 #@! TO.C,C2*
X220340000Y-95990000D02*
X221260000Y-95990000D01*
X221260000Y-97810000D01*
X220340000Y-97810000D01*
X220340000Y-95990000D01*
G04 #@! TO.C,R45*
X238070000Y-81930000D02*
X239930000Y-81930000D01*
X239930000Y-82870000D01*
X238070000Y-82870000D01*
X238070000Y-81930000D01*
G04 #@! TO.C,H3*
X158450000Y-112000000D02*
G75*
G02*
X151550000Y-112000000I-3450000J0D01*
G01*
X151550000Y-112000000D02*
G75*
G02*
X158450000Y-112000000I3450000J0D01*
G01*
G04 #@! TO.C,R21*
X158330000Y-68170000D02*
X159270000Y-68170000D01*
X159270000Y-70030000D01*
X158330000Y-70030000D01*
X158330000Y-68170000D01*
G04 #@! TO.C,R72*
X226600000Y-78870000D02*
X226600000Y-80730000D01*
X225660000Y-80730000D01*
X225660000Y-78870000D01*
X226600000Y-78870000D01*
G04 #@! TO.C,C30*
X155070000Y-84920000D02*
X158030000Y-84920000D01*
X158030000Y-86380000D01*
X155070000Y-86380000D01*
X155070000Y-84920000D01*
G04 #@! TO.C,Q2*
X154606000Y-94400000D02*
X155636000Y-94400000D01*
X154606000Y-95510000D02*
X154606000Y-94400000D01*
X154606000Y-96290000D02*
X155636000Y-96290000D01*
X154606000Y-97400000D02*
X154606000Y-96290000D01*
X155636000Y-94200000D02*
X157436000Y-94200000D01*
X155636000Y-94400000D02*
X155636000Y-94200000D01*
X155636000Y-95510000D02*
X154606000Y-95510000D01*
X155636000Y-96290000D02*
X155636000Y-95510000D01*
X155636000Y-97400000D02*
X154606000Y-97400000D01*
X155636000Y-97600000D02*
X155636000Y-97400000D01*
X157436000Y-94200000D02*
X157436000Y-95350000D01*
X157436000Y-95350000D02*
X158466000Y-95350000D01*
X157436000Y-96450000D02*
X157436000Y-97600000D01*
X157436000Y-97600000D02*
X155636000Y-97600000D01*
X158466000Y-95350000D02*
X158466000Y-96450000D01*
X158466000Y-96450000D02*
X157436000Y-96450000D01*
G04 #@! TO.C,U5*
D11*
X228700000Y-83700000D02*
X231100000Y-83700000D01*
X228700000Y-86100000D02*
X228700000Y-83700000D01*
X231100000Y-83700000D02*
X231100000Y-86100000D01*
X231100000Y-86100000D02*
X228700000Y-86100000D01*
G04 #@! TO.C,C35*
D10*
X162356000Y-95030000D02*
X163276000Y-95030000D01*
X163276000Y-96850000D01*
X162356000Y-96850000D01*
X162356000Y-95030000D01*
G04 #@! TO.C,R13*
X171170000Y-93030000D02*
X173030000Y-93030000D01*
X173030000Y-93970000D01*
X171170000Y-93970000D01*
X171170000Y-93030000D01*
G04 #@! TO.C,H2*
X244450000Y-66000000D02*
G75*
G02*
X237550000Y-66000000I-3450000J0D01*
G01*
X237550000Y-66000000D02*
G75*
G02*
X244450000Y-66000000I3450000J0D01*
G01*
G04 #@! TO.C,C12*
X166590000Y-96740000D02*
X168410000Y-96740000D01*
X168410000Y-97660000D01*
X166590000Y-97660000D01*
X166590000Y-96740000D01*
G04 #@! TO.C,C17*
X227570000Y-91790000D02*
X228490000Y-91790000D01*
X228490000Y-93610000D01*
X227570000Y-93610000D01*
X227570000Y-91790000D01*
G04 #@! TO.C,R168*
X194730000Y-106170000D02*
X195670000Y-106170000D01*
X195670000Y-108030000D01*
X194730000Y-108030000D01*
X194730000Y-106170000D01*
G04 #@! TO.C,D7*
X232670000Y-88030000D02*
X234530000Y-88030000D01*
X234530000Y-88970000D01*
X232670000Y-88970000D01*
X232670000Y-88030000D01*
G04 #@! TO.C,D32*
X237695000Y-73120000D02*
X239095000Y-73120000D01*
X239095000Y-73820000D01*
X237695000Y-73820000D01*
X237695000Y-73120000D01*
G04 #@! TO.C,R42*
X238120000Y-76230000D02*
X239980000Y-76230000D01*
X239980000Y-77170000D01*
X238120000Y-77170000D01*
X238120000Y-76230000D01*
G04 #@! TO.C,J5*
X150710000Y-97820000D02*
X159290000Y-97820000D01*
X159290000Y-105180000D01*
X150710000Y-105180000D01*
X150710000Y-97820000D01*
G04 #@! TO.C,J2*
X150710000Y-72820000D02*
X159290000Y-72820000D01*
X159290000Y-80180000D01*
X150710000Y-80180000D01*
X150710000Y-72820000D01*
G04 #@! TO.C,D30*
X159630000Y-99980000D02*
X161030000Y-99980000D01*
X161030000Y-100680000D01*
X159630000Y-100680000D01*
X159630000Y-99980000D01*
G04 #@! TO.C,C95*
X230802500Y-78927501D02*
X231722500Y-78927501D01*
X231722500Y-80747501D01*
X230802500Y-80747501D01*
X230802500Y-78927501D01*
G04 #@! TO.C,R1*
X238120000Y-95130000D02*
X239980000Y-95130000D01*
X239980000Y-96070000D01*
X238120000Y-96070000D01*
X238120000Y-95130000D01*
G04 #@! TO.C,R41*
X238120000Y-74330000D02*
X239980000Y-74330000D01*
X239980000Y-75270000D01*
X238120000Y-75270000D01*
X238120000Y-74330000D01*
G04 #@! TO.C,C51*
X154800000Y-83850000D02*
X156620000Y-83850000D01*
X156620000Y-84770000D01*
X154800000Y-84770000D01*
X154800000Y-83850000D01*
G04 #@! TO.C,D11*
X159730000Y-80960000D02*
X158330000Y-80960000D01*
X158330000Y-80260000D01*
X159730000Y-80260000D01*
X159730000Y-80960000D01*
G04 #@! TO.C,C22*
X220350000Y-83900000D02*
X220350000Y-89850000D01*
X221500000Y-82750000D02*
X220350000Y-83900000D01*
X222850000Y-81600000D02*
X222850000Y-82750000D01*
X222850000Y-82750000D02*
X221500000Y-82750000D01*
X222850000Y-89850000D02*
X220350000Y-89850000D01*
X222850000Y-91000000D02*
X222850000Y-89850000D01*
X224950000Y-81600000D02*
X222850000Y-81600000D01*
X224950000Y-82750000D02*
X224950000Y-81600000D01*
X224950000Y-89850000D02*
X224950000Y-91000000D01*
X224950000Y-91000000D02*
X222850000Y-91000000D01*
X226300000Y-82750000D02*
X224950000Y-82750000D01*
X226300000Y-82750000D02*
X227450000Y-83900000D01*
X227450000Y-83900000D02*
X227450000Y-89850000D01*
X227450000Y-89850000D02*
X224950000Y-89850000D01*
G04 #@! TO.C,R15*
X173170000Y-94680000D02*
X175030000Y-94680000D01*
X175030000Y-95620000D01*
X173170000Y-95620000D01*
X173170000Y-94680000D01*
G04 #@! TO.C,C9*
X220280000Y-87680000D02*
X219360000Y-87680000D01*
X219360000Y-85860000D01*
X220280000Y-85860000D01*
X220280000Y-87680000D01*
G04 #@! TO.C,U20*
X226612500Y-77850001D02*
X227612500Y-77850001D01*
X226612500Y-80850001D02*
X226612500Y-77850001D01*
X227612500Y-77650001D02*
X229712500Y-77650001D01*
X227612500Y-77850001D02*
X227612500Y-77650001D01*
X227612500Y-80850001D02*
X226612500Y-80850001D01*
X227612500Y-81050001D02*
X227612500Y-80850001D01*
X229712500Y-77650001D02*
X229712500Y-77850001D01*
X229712500Y-77850001D02*
X230712500Y-77850001D01*
X229712500Y-80850001D02*
X229712500Y-81050001D01*
X229712500Y-81050001D02*
X227612500Y-81050001D01*
X230712500Y-77850001D02*
X230712500Y-80850001D01*
X230712500Y-80850001D02*
X229712500Y-80850001D01*
G04 #@! TO.C,J6*
X208900000Y-79950000D02*
X208900000Y-98050000D01*
X208900000Y-98050000D02*
X215100000Y-98050000D01*
X215100000Y-79950000D02*
X208900000Y-79950000D01*
X215100000Y-98050000D02*
X215100000Y-79950000D01*
G04 #@! TO.C,J1*
X236080000Y-83680000D02*
X245500000Y-83680000D01*
X236080000Y-94320000D02*
X236080000Y-83680000D01*
X236080000Y-94320000D02*
X245500000Y-94320000D01*
X245500000Y-94320000D02*
X245500000Y-83680000D01*
G04 #@! TO.C,J7*
X196990000Y-103120000D02*
X196990000Y-113080000D01*
X196990000Y-113080000D02*
X201560000Y-113080000D01*
X201560000Y-101300000D02*
X201560000Y-103120000D01*
X201560000Y-103120000D02*
X196990000Y-103120000D01*
X201560000Y-113080000D02*
X201560000Y-114900000D01*
X201560000Y-114900000D02*
X226440000Y-114900000D01*
X226440000Y-101300000D02*
X201560000Y-101300000D01*
X226440000Y-103120000D02*
X226440000Y-101300000D01*
X226440000Y-113080000D02*
X231010000Y-113080000D01*
X226440000Y-114900000D02*
X226440000Y-113080000D01*
X231010000Y-103120000D02*
X226440000Y-103120000D01*
X231010000Y-113080000D02*
X231010000Y-103120000D01*
G04 #@! TO.C,C15*
X231640000Y-88090000D02*
X232560000Y-88090000D01*
X232560000Y-89910000D01*
X231640000Y-89910000D01*
X231640000Y-88090000D01*
G04 #@! TO.C,C103*
X174320000Y-77727500D02*
X176140000Y-77727500D01*
X176140000Y-78647500D01*
X174320000Y-78647500D01*
X174320000Y-77727500D01*
G04 #@! TO.C,D9*
X232362500Y-86500000D02*
X234862500Y-86500000D01*
X232362500Y-87900000D02*
X232362500Y-86500000D01*
X234862500Y-86500000D02*
X234862500Y-87900000D01*
X234862500Y-87900000D02*
X232362500Y-87900000D01*
G04 #@! TO.C,R50*
X237400000Y-75290000D02*
X235540000Y-75290000D01*
X235540000Y-74350000D01*
X237400000Y-74350000D01*
X237400000Y-75290000D01*
G04 #@! TO.C,R51*
X159620000Y-96540000D02*
X161480000Y-96540000D01*
X161480000Y-97480000D01*
X159620000Y-97480000D01*
X159620000Y-96540000D01*
G04 #@! TO.C,D40*
X231470000Y-103120000D02*
X232930000Y-103120000D01*
X232930000Y-106080000D01*
X231470000Y-106080000D01*
X231470000Y-103120000D01*
G04 #@! TO.C,C20*
X230540000Y-86290000D02*
X231460000Y-86290000D01*
X231460000Y-88110000D01*
X230540000Y-88110000D01*
X230540000Y-86290000D01*
G04 #@! TO.C,U3*
X166350000Y-98150000D02*
X166470000Y-98150000D01*
X166350000Y-99650000D02*
X166350000Y-98150000D01*
X166470000Y-97700000D02*
X168130000Y-97700000D01*
X166470000Y-98150000D02*
X166470000Y-97700000D01*
X166470000Y-99650000D02*
X166350000Y-99650000D01*
X166470000Y-100100000D02*
X166470000Y-99650000D01*
X168130000Y-97700000D02*
X168130000Y-98150000D01*
X168130000Y-98150000D02*
X168250000Y-98150000D01*
X168130000Y-99650000D02*
X168130000Y-100100000D01*
X168130000Y-100100000D02*
X166470000Y-100100000D01*
X168250000Y-98150000D02*
X168250000Y-99650000D01*
X168250000Y-99650000D02*
X168130000Y-99650000D01*
G04 #@! TO.C,Y1*
X221677639Y-97647487D02*
X224647487Y-94677639D01*
X227122361Y-97152513D01*
X224152513Y-100122361D01*
X221677639Y-97647487D01*
G04 #@! TO.C,R48*
X232370000Y-74930000D02*
X232370000Y-76790000D01*
X231430000Y-76790000D01*
X231430000Y-74930000D01*
X232370000Y-74930000D01*
G04 #@! TO.C,R84*
X231730000Y-106170000D02*
X232670000Y-106170000D01*
X232670000Y-108030000D01*
X231730000Y-108030000D01*
X231730000Y-106170000D01*
G04 #@! TO.C,U1*
X216150000Y-80950000D02*
X216470000Y-80950000D01*
X216150000Y-85850000D02*
X216150000Y-80950000D01*
X216470000Y-79550000D02*
X219330000Y-79550000D01*
X216470000Y-80950000D02*
X216470000Y-79550000D01*
X216470000Y-85850000D02*
X216150000Y-85850000D01*
X216470000Y-87250000D02*
X216470000Y-85850000D01*
X219330000Y-79550000D02*
X219330000Y-80950000D01*
X219330000Y-80950000D02*
X219650000Y-80950000D01*
X219330000Y-85850000D02*
X219330000Y-87250000D01*
X219330000Y-87250000D02*
X216470000Y-87250000D01*
X219650000Y-80950000D02*
X219650000Y-85850000D01*
X219650000Y-85850000D02*
X219330000Y-85850000D01*
G04 #@! TO.C,C3*
X224021213Y-91970676D02*
X225308147Y-93257610D01*
X224657609Y-93908148D01*
X223370675Y-92621214D01*
X224021213Y-91970676D01*
G04 #@! TO.C,R76*
X158120000Y-105330000D02*
X159980000Y-105330000D01*
X159980000Y-106270000D01*
X158120000Y-106270000D01*
X158120000Y-105330000D01*
G04 #@! TO.C,R19*
X171170000Y-96330000D02*
X173030000Y-96330000D01*
X173030000Y-97270000D01*
X171170000Y-97270000D01*
X171170000Y-96330000D01*
G04 #@! TO.C,D4*
X240120000Y-100570000D02*
X243080000Y-100570000D01*
X243080000Y-102030000D01*
X240120000Y-102030000D01*
X240120000Y-100570000D01*
G04 #@! TO.C,D29*
X156250000Y-105490000D02*
X156250000Y-106890000D01*
X155550000Y-106890000D01*
X155550000Y-105490000D01*
X156250000Y-105490000D01*
G04 #@! TO.C,C104*
X176400000Y-78107500D02*
X178220000Y-78107500D01*
X178220000Y-79027500D01*
X176400000Y-79027500D01*
X176400000Y-78107500D01*
G04 #@! TO.C,R54*
X197170000Y-78430000D02*
X199030000Y-78430000D01*
X199030000Y-79370000D01*
X197170000Y-79370000D01*
X197170000Y-78430000D01*
G04 #@! TO.C,C58*
X193040000Y-99190000D02*
X193960000Y-99190000D01*
X193960000Y-101010000D01*
X193040000Y-101010000D01*
X193040000Y-99190000D01*
G04 #@! TO.C,R16*
X173170000Y-93580000D02*
X175030000Y-93580000D01*
X175030000Y-94520000D01*
X173170000Y-94520000D01*
X173170000Y-93580000D01*
G04 #@! TO.C,C19*
X228540000Y-86290000D02*
X229460000Y-86290000D01*
X229460000Y-88110000D01*
X228540000Y-88110000D01*
X228540000Y-86290000D01*
G04 #@! TO.C,R14*
X171179999Y-94130000D02*
X173039999Y-94130000D01*
X173039999Y-95070000D01*
X171179999Y-95070000D01*
X171179999Y-94130000D01*
G04 #@! TO.C,D26*
X240120000Y-77870000D02*
X243080000Y-77870000D01*
X243080000Y-79330000D01*
X240120000Y-79330000D01*
X240120000Y-77870000D01*
G04 #@! TO.C,R44*
X238070000Y-80030000D02*
X239930000Y-80030000D01*
X239930000Y-80970000D01*
X238070000Y-80970000D01*
X238070000Y-80030000D01*
G04 #@! TO.C,D3*
X240120000Y-98670000D02*
X243080000Y-98670000D01*
X243080000Y-100130000D01*
X240120000Y-100130000D01*
X240120000Y-98670000D01*
G04 #@! TO.C,J4*
X231230000Y-58910000D02*
X237320000Y-58910000D01*
X237320000Y-73770000D01*
X231230000Y-73770000D01*
X231230000Y-58910000D01*
G04 #@! TO.C,R73*
X172500000Y-77787500D02*
X173440000Y-77787500D01*
X173440000Y-79647500D01*
X172500000Y-79647500D01*
X172500000Y-77787500D01*
G04 #@! TO.C,C34*
X158466000Y-95080000D02*
X161426000Y-95080000D01*
X161426000Y-96540000D01*
X158466000Y-96540000D01*
X158466000Y-95080000D01*
G04 #@! TO.C,R24*
X227430000Y-81670000D02*
X228370000Y-81670000D01*
X228370000Y-83530000D01*
X227430000Y-83530000D01*
X227430000Y-81670000D01*
G04 #@! TO.C,R6*
X217570000Y-78530000D02*
X219430000Y-78530000D01*
X219430000Y-79470000D01*
X217570000Y-79470000D01*
X217570000Y-78530000D01*
G04 #@! TO.C,R210*
X158330000Y-70070000D02*
X159270000Y-70070000D01*
X159270000Y-71930000D01*
X158330000Y-71930000D01*
X158330000Y-70070000D01*
G04 #@! TO.C,C44*
X167300000Y-94140000D02*
X169120000Y-94140000D01*
X169120000Y-95060000D01*
X167300000Y-95060000D01*
X167300000Y-94140000D01*
G04 #@! TO.C,D25*
X240120000Y-75970000D02*
X243080000Y-75970000D01*
X243080000Y-77430000D01*
X240120000Y-77430000D01*
X240120000Y-75970000D01*
G04 #@! TO.C,R29*
X169279999Y-89330000D02*
X171139999Y-89330000D01*
X171139999Y-90270000D01*
X169279999Y-90270000D01*
X169279999Y-89330000D01*
G04 #@! TO.C,C28*
X157890000Y-83050000D02*
X158810000Y-83050000D01*
X158810000Y-84870000D01*
X157890000Y-84870000D01*
X157890000Y-83050000D01*
G04 #@! TO.C,D34*
X157770000Y-105470000D02*
X157770000Y-106870000D01*
X157070000Y-106870000D01*
X157070000Y-105470000D01*
X157770000Y-105470000D01*
G04 #@! TO.C,J10*
X159990000Y-65020000D02*
X159990000Y-74980000D01*
X159990000Y-74980000D02*
X164560000Y-74980000D01*
X164560000Y-63200000D02*
X164560000Y-65020000D01*
X164560000Y-65020000D02*
X159990000Y-65020000D01*
X164560000Y-74980000D02*
X164560000Y-76800000D01*
X164560000Y-76800000D02*
X189440000Y-76800000D01*
X189440000Y-63200000D02*
X164560000Y-63200000D01*
X189440000Y-65020000D02*
X189440000Y-63200000D01*
X189440000Y-74980000D02*
X194010000Y-74980000D01*
X189440000Y-76800000D02*
X189440000Y-74980000D01*
X194010000Y-65020000D02*
X189440000Y-65020000D01*
X194010000Y-74980000D02*
X194010000Y-65020000D01*
G04 #@! TO.C,Y2*
X164970000Y-79750000D02*
X169170000Y-79750000D01*
X169170000Y-83250000D01*
X164970000Y-83250000D01*
X164970000Y-79750000D01*
G04 #@! TO.C,R3*
X238120000Y-98930000D02*
X239980000Y-98930000D01*
X239980000Y-99870000D01*
X238120000Y-99870000D01*
X238120000Y-98930000D01*
G04 #@! TO.C,R60*
X229420000Y-82470000D02*
X231280000Y-82470000D01*
X231280000Y-83410000D01*
X229420000Y-83410000D01*
X229420000Y-82470000D01*
G04 #@! TO.C,D12*
X159520000Y-79130000D02*
X160920000Y-79130000D01*
X160920000Y-79830000D01*
X159520000Y-79830000D01*
X159520000Y-79130000D01*
G04 #@! TO.C,C8*
X223018198Y-94768736D02*
X221731264Y-93481802D01*
X222381802Y-92831264D01*
X223668736Y-94118198D01*
X223018198Y-94768736D01*
G04 #@! TO.C,D100*
X156750000Y-69100000D02*
X158210000Y-69100000D01*
X158210000Y-72060000D01*
X156750000Y-72060000D01*
X156750000Y-69100000D01*
G04 #@! TO.C,D37*
X235400000Y-103770000D02*
X236170000Y-103770000D01*
X235400000Y-105230000D02*
X235400000Y-103770000D01*
X235520000Y-105230000D02*
X235400000Y-105230000D01*
X235520000Y-105950000D02*
X235520000Y-105230000D01*
X236170000Y-103050000D02*
X236830000Y-103050000D01*
X236170000Y-103770000D02*
X236170000Y-103050000D01*
X236180000Y-105230000D02*
X236180000Y-105950000D01*
X236180000Y-105950000D02*
X235520000Y-105950000D01*
X236820000Y-105230000D02*
X236180000Y-105230000D01*
X236820000Y-105950000D02*
X236820000Y-105230000D01*
X236830000Y-103050000D02*
X236830000Y-103770000D01*
X236830000Y-103770000D02*
X237600000Y-103770000D01*
X237480000Y-105230000D02*
X237480000Y-105950000D01*
X237480000Y-105950000D02*
X236820000Y-105950000D01*
X237600000Y-103770000D02*
X237600000Y-105230000D01*
X237600000Y-105230000D02*
X237480000Y-105230000D01*
G04 #@! TO.C,C39*
X164196000Y-95030000D02*
X165116000Y-95030000D01*
X165116000Y-96850000D01*
X164196000Y-96850000D01*
X164196000Y-95030000D01*
G04 #@! TO.C,C38*
X163960000Y-80590000D02*
X164880000Y-80590000D01*
X164880000Y-82410000D01*
X163960000Y-82410000D01*
X163960000Y-80590000D01*
G04 #@! TO.C,R82*
X197270000Y-101730000D02*
X199130000Y-101730000D01*
X199130000Y-102670000D01*
X197270000Y-102670000D01*
X197270000Y-101730000D01*
G04 #@! TO.C,C1*
X218031264Y-97218198D02*
X219318198Y-95931264D01*
X219968736Y-96581802D01*
X218681802Y-97868736D01*
X218031264Y-97218198D01*
G04 #@! TO.C,R17*
X171170000Y-95230000D02*
X173030000Y-95230000D01*
X173030000Y-96170000D01*
X171170000Y-96170000D01*
X171170000Y-95230000D01*
G04 #@! TO.C,R8*
X216930000Y-95570000D02*
X217870000Y-95570000D01*
X217870000Y-97430000D01*
X216930000Y-97430000D01*
X216930000Y-95570000D01*
G04 #@! TO.C,R52*
X161220000Y-100030000D02*
X163080000Y-100030000D01*
X163080000Y-100970000D01*
X161220000Y-100970000D01*
X161220000Y-100030000D01*
G04 #@! TO.C,C40*
X156530000Y-90080000D02*
X158350000Y-90080000D01*
X158350000Y-91000000D01*
X156530000Y-91000000D01*
X156530000Y-90080000D01*
G04 #@! TO.C,U21*
X173100000Y-79690000D02*
X173480000Y-79690000D01*
X173100000Y-81950000D02*
X173100000Y-79690000D01*
X173480000Y-79070000D02*
X174100000Y-79070000D01*
X173480000Y-79690000D02*
X173480000Y-79070000D01*
X173480000Y-81950000D02*
X173100000Y-81950000D01*
X173480000Y-82570000D02*
X173480000Y-81950000D01*
X174100000Y-78690000D02*
X176360000Y-78690000D01*
X174100000Y-79070000D02*
X174100000Y-78690000D01*
X174100000Y-82570000D02*
X173480000Y-82570000D01*
X174100000Y-82950000D02*
X174100000Y-82570000D01*
X176360000Y-78690000D02*
X176360000Y-79070000D01*
X176360000Y-79070000D02*
X176980000Y-79070000D01*
X176360000Y-82570000D02*
X176360000Y-82950000D01*
X176360000Y-82950000D02*
X174100000Y-82950000D01*
X176980000Y-79070000D02*
X176980000Y-79690000D01*
X176980000Y-79690000D02*
X177360000Y-79690000D01*
X176980000Y-81950000D02*
X176980000Y-82570000D01*
X176980000Y-82570000D02*
X176360000Y-82570000D01*
X177360000Y-79690000D02*
X177360000Y-81950000D01*
X177360000Y-81950000D02*
X176980000Y-81950000D01*
G04 #@! TD*
D12*
X150500000Y-62500000D02*
X150500000Y-62500000D01*
G75*
G02*
X151500000Y-61500000I1000000J0D01*
G01*
X244500000Y-61500000D01*
G75*
G02*
X245500000Y-62500000I0J-1000000D01*
G01*
X245500000Y-115500000D01*
G75*
G02*
X244500000Y-116500000I-1000000J0D01*
G01*
X151500000Y-116500000D01*
G75*
G02*
X150500000Y-115500000I0J1000000D01*
G01*
X150500000Y-62500000D01*
M02*
