G04 #@! TF.GenerationSoftware,KiCad,Pcbnew,10.0.5+dfsg-1*
G04 #@! TF.CreationDate,2026-09-25T10:09:44+00:00*
G04 #@! TF.ProjectId,glasgow,676c6173-676f-4772-9e6b-696361645f70,rev?*
G04 #@! TF.SameCoordinates,Original*
G04 #@! TF.FileFunction,Other,User*
%FSLAX46Y46*%
G04 Gerber Fmt 4.6, Leading zero omitted, Abs format (unit mm)*
G04 Created by KiCad (PCBNEW 10.0.5+dfsg-1) date 2026-09-25 10:09:44*
%MOMM*%
%LPD*%
G01*
G04 APERTURE LIST*
%ADD10C,0.050000*%
G04 #@! TA.AperFunction,Profile*
%ADD11C,0.050000*%
G04 #@! TD*
G04 APERTURE END LIST*
G04 #@! TO.C,R100*
D10*
X205670000Y-101387500D02*
X207070000Y-101387500D01*
X207070000Y-102087500D01*
X205670000Y-102087500D01*
X205670000Y-101387500D01*
G04 #@! TO.C,D42*
X205050000Y-115010000D02*
X205050000Y-113810000D01*
X205050000Y-115010000D02*
X206650000Y-115010000D01*
X206650000Y-113810000D02*
X205050000Y-113810000D01*
X206650000Y-115010000D02*
X206650000Y-113810000D01*
G04 #@! TO.C,U41*
X204550000Y-73240000D02*
X204550000Y-74700000D01*
X204550000Y-74700000D02*
X204720000Y-74700000D01*
X204720000Y-72520000D02*
X204720000Y-73240000D01*
X204720000Y-73240000D02*
X204550000Y-73240000D01*
X204720000Y-74700000D02*
X204720000Y-75420000D01*
X204720000Y-75420000D02*
X206580000Y-75420000D01*
X206580000Y-72520000D02*
X204720000Y-72520000D01*
X206580000Y-73240000D02*
X206580000Y-72520000D01*
X206580000Y-74700000D02*
X206750000Y-74700000D01*
X206580000Y-75420000D02*
X206580000Y-74700000D01*
X206750000Y-73240000D02*
X206580000Y-73240000D01*
X206750000Y-74700000D02*
X206750000Y-73240000D01*
G04 #@! TO.C,R205*
X180270000Y-107590000D02*
X180970000Y-107590000D01*
X180970000Y-108990000D01*
X180270000Y-108990000D01*
X180270000Y-107590000D01*
G04 #@! TO.C,C72*
X193425000Y-86640000D02*
X194825000Y-86640000D01*
X194825000Y-87340000D01*
X193425000Y-87340000D01*
X193425000Y-86640000D01*
G04 #@! TO.C,R119*
X224070000Y-107590000D02*
X224770000Y-107590000D01*
X224770000Y-108990000D01*
X224070000Y-108990000D01*
X224070000Y-107590000D01*
G04 #@! TO.C,TP3*
X187240000Y-99560000D02*
G75*
G02*
X185240000Y-99560000I-1000000J0D01*
G01*
X185240000Y-99560000D02*
G75*
G02*
X187240000Y-99560000I1000000J0D01*
G01*
G04 #@! TO.C,R123*
X210470000Y-107590000D02*
X211170000Y-107590000D01*
X211170000Y-108990000D01*
X210470000Y-108990000D01*
X210470000Y-107590000D01*
G04 #@! TO.C,U53*
X184250000Y-103400000D02*
X184250000Y-104860000D01*
X184250000Y-104860000D02*
X184420000Y-104860000D01*
X184420000Y-102680000D02*
X184420000Y-103400000D01*
X184420000Y-103400000D02*
X184250000Y-103400000D01*
X184420000Y-104860000D02*
X184420000Y-105580000D01*
X184420000Y-105580000D02*
X186280000Y-105580000D01*
X186280000Y-102680000D02*
X184420000Y-102680000D01*
X186280000Y-103400000D02*
X186280000Y-102680000D01*
X186280000Y-104860000D02*
X186450000Y-104860000D01*
X186280000Y-105580000D02*
X186280000Y-104860000D01*
X186450000Y-103400000D02*
X186280000Y-103400000D01*
X186450000Y-104860000D02*
X186450000Y-103400000D01*
G04 #@! TO.C,R80*
X153655001Y-81292858D02*
X154595001Y-81292858D01*
X154595001Y-83152858D01*
X153655001Y-83152858D01*
X153655001Y-81292858D01*
G04 #@! TO.C,D38*
X157685000Y-78472858D02*
X157685000Y-83172858D01*
X159985000Y-78472858D02*
X157685000Y-78472858D01*
X159985000Y-83172858D02*
X157685000Y-83172858D01*
X159985000Y-83172858D02*
X159985000Y-78472858D01*
G04 #@! TO.C,C180*
X170249999Y-101749600D02*
X172069999Y-101749600D01*
X172069999Y-102669600D01*
X170249999Y-102669600D01*
X170249999Y-101749600D01*
G04 #@! TO.C,U15*
X231908310Y-78825000D02*
X231908310Y-80925000D01*
X231908310Y-80925000D02*
X232108310Y-80925000D01*
X232108310Y-77825000D02*
X232108310Y-78825000D01*
X232108310Y-78825000D02*
X231908310Y-78825000D01*
X232108310Y-80925000D02*
X232108310Y-81925000D01*
X232108310Y-81925000D02*
X235108310Y-81925000D01*
X235108310Y-77825000D02*
X232108310Y-77825000D01*
X235108310Y-78825000D02*
X235108310Y-77825000D01*
X235108310Y-80925000D02*
X235308310Y-80925000D01*
X235108310Y-81925000D02*
X235108310Y-80925000D01*
X235308310Y-78825000D02*
X235108310Y-78825000D01*
X235308310Y-80925000D02*
X235308310Y-78825000D01*
G04 #@! TO.C,R138*
X207330000Y-76012500D02*
X208730000Y-76012500D01*
X208730000Y-76712500D01*
X207330000Y-76712500D01*
X207330000Y-76012500D01*
G04 #@! TO.C,C151*
X215530000Y-75420000D02*
X217350000Y-75420000D01*
X217350000Y-76340000D01*
X215530000Y-76340000D01*
X215530000Y-75420000D01*
G04 #@! TO.C,D46*
X214970000Y-108790000D02*
X214970000Y-107590000D01*
X214970000Y-108790000D02*
X216570000Y-108790000D01*
X216570000Y-107590000D02*
X214970000Y-107590000D01*
X216570000Y-108790000D02*
X216570000Y-107590000D01*
G04 #@! TO.C,C150*
X201930000Y-75420000D02*
X203750000Y-75420000D01*
X203750000Y-76340000D01*
X201930000Y-76340000D01*
X201930000Y-75420000D01*
G04 #@! TO.C,U48*
X224950000Y-73240000D02*
X224950000Y-74700000D01*
X224950000Y-74700000D02*
X225120000Y-74700000D01*
X225120000Y-72520000D02*
X225120000Y-73240000D01*
X225120000Y-73240000D02*
X224950000Y-73240000D01*
X225120000Y-74700000D02*
X225120000Y-75420000D01*
X225120000Y-75420000D02*
X226980000Y-75420000D01*
X226980000Y-72520000D02*
X225120000Y-72520000D01*
X226980000Y-73240000D02*
X226980000Y-72520000D01*
X226980000Y-74700000D02*
X227150000Y-74700000D01*
X226980000Y-75420000D02*
X226980000Y-74700000D01*
X227150000Y-73240000D02*
X226980000Y-73240000D01*
X227150000Y-74700000D02*
X227150000Y-73240000D01*
G04 #@! TO.C,C117*
X196625000Y-90640000D02*
X198025000Y-90640000D01*
X198025000Y-91340000D01*
X196625000Y-91340000D01*
X196625000Y-90640000D01*
G04 #@! TO.C,U42*
X218150000Y-73240000D02*
X218150000Y-74700000D01*
X218150000Y-74700000D02*
X218320000Y-74700000D01*
X218320000Y-72520000D02*
X218320000Y-73240000D01*
X218320000Y-73240000D02*
X218150000Y-73240000D01*
X218320000Y-74700000D02*
X218320000Y-75420000D01*
X218320000Y-75420000D02*
X220180000Y-75420000D01*
X220180000Y-72520000D02*
X218320000Y-72520000D01*
X220180000Y-73240000D02*
X220180000Y-72520000D01*
X220180000Y-74700000D02*
X220350000Y-74700000D01*
X220180000Y-75420000D02*
X220180000Y-74700000D01*
X220350000Y-73240000D02*
X220180000Y-73240000D01*
X220350000Y-74700000D02*
X220350000Y-73240000D01*
G04 #@! TO.C,C89*
X231520001Y-96869996D02*
X232980001Y-96869996D01*
X232980001Y-99829996D01*
X231520001Y-99829996D01*
X231520001Y-96869996D01*
G04 #@! TO.C,D101*
X176937500Y-67020000D02*
X176937500Y-67680000D01*
X176937500Y-67680000D02*
X177657500Y-67680000D01*
X176937500Y-68320000D02*
X176937500Y-68980000D01*
X176937500Y-68980000D02*
X177657500Y-68980000D01*
X177657500Y-66900000D02*
X177657500Y-67020000D01*
X177657500Y-67020000D02*
X176937500Y-67020000D01*
X177657500Y-67680000D02*
X177657500Y-68320000D01*
X177657500Y-68320000D02*
X176937500Y-68320000D01*
X177657500Y-68980000D02*
X177657500Y-69100000D01*
X177657500Y-69100000D02*
X179117500Y-69100000D01*
X179117500Y-66900000D02*
X177657500Y-66900000D01*
X179117500Y-67670000D02*
X179117500Y-66900000D01*
X179117500Y-68330000D02*
X179837500Y-68330000D01*
X179117500Y-69100000D02*
X179117500Y-68330000D01*
X179837500Y-67670000D02*
X179117500Y-67670000D01*
X179837500Y-68330000D02*
X179837500Y-67670000D01*
G04 #@! TO.C,R143*
X224330000Y-76012500D02*
X225730000Y-76012500D01*
X225730000Y-76712500D01*
X224330000Y-76712500D01*
X224330000Y-76012500D01*
G04 #@! TO.C,C215*
X162590000Y-63070000D02*
X164410000Y-63070000D01*
X164410000Y-63990000D01*
X162590000Y-63990000D01*
X162590000Y-63070000D01*
G04 #@! TO.C,R122*
X213870000Y-107590000D02*
X214570000Y-107590000D01*
X214570000Y-108990000D01*
X213870000Y-108990000D01*
X213870000Y-107590000D01*
G04 #@! TO.C,D109*
X184630000Y-69310000D02*
X184630000Y-70510000D01*
X184630000Y-70510000D02*
X186230000Y-70510000D01*
X186230000Y-69310000D02*
X184630000Y-69310000D01*
X186230000Y-69310000D02*
X186230000Y-70510000D01*
G04 #@! TO.C,C77*
X185065000Y-82580000D02*
X185985000Y-82580000D01*
X185985000Y-84400000D01*
X185065000Y-84400000D01*
X185065000Y-82580000D01*
G04 #@! TO.C,R79*
X158930000Y-99757500D02*
X159870000Y-99757500D01*
X159870000Y-101617500D01*
X158930000Y-101617500D01*
X158930000Y-99757500D01*
G04 #@! TO.C,D53*
X212470000Y-106890000D02*
X213870000Y-106890000D01*
X213870000Y-107590000D01*
X212470000Y-107590000D01*
X212470000Y-106890000D01*
G04 #@! TO.C,R77*
X156060000Y-95440000D02*
X154200000Y-95440000D01*
X154200000Y-96380000D01*
X156060000Y-96380000D01*
X156060000Y-95440000D01*
G04 #@! TO.C,C190*
X189590000Y-114110000D02*
X191410000Y-114110000D01*
X191410000Y-115030000D01*
X189590000Y-115030000D01*
X189590000Y-114110000D01*
G04 #@! TO.C,R200*
X169370000Y-107590000D02*
X170070000Y-107590000D01*
X170070000Y-108990000D01*
X169370000Y-108990000D01*
X169370000Y-107590000D01*
G04 #@! TO.C,D44*
X221770000Y-108790000D02*
X221770000Y-107590000D01*
X221770000Y-108790000D02*
X223370000Y-108790000D01*
X223370000Y-107590000D02*
X221770000Y-107590000D01*
X223370000Y-108790000D02*
X223370000Y-107590000D01*
G04 #@! TO.C,R242*
X183930000Y-69110000D02*
X184630000Y-69110000D01*
X184630000Y-70510000D01*
X183930000Y-70510000D01*
X183930000Y-69110000D01*
G04 #@! TO.C,U65*
X167550000Y-73240000D02*
X167550000Y-74700000D01*
X167550000Y-74700000D02*
X167720000Y-74700000D01*
X167720000Y-72520000D02*
X167720000Y-73240000D01*
X167720000Y-73240000D02*
X167550000Y-73240000D01*
X167720000Y-74700000D02*
X167720000Y-75420000D01*
X167720000Y-75420000D02*
X169580000Y-75420000D01*
X169580000Y-72520000D02*
X167720000Y-72520000D01*
X169580000Y-73240000D02*
X169580000Y-72520000D01*
X169580000Y-74700000D02*
X169750000Y-74700000D01*
X169580000Y-75420000D02*
X169580000Y-74700000D01*
X169750000Y-73240000D02*
X169580000Y-73240000D01*
X169750000Y-74700000D02*
X169750000Y-73240000D01*
G04 #@! TO.C,C157*
X205330000Y-71600000D02*
X207150000Y-71600000D01*
X207150000Y-72520000D01*
X205330000Y-72520000D01*
X205330000Y-71600000D01*
G04 #@! TO.C,C193*
X177050000Y-101749600D02*
X178870000Y-101749600D01*
X178870000Y-102669600D01*
X177050000Y-102669600D01*
X177050000Y-101749600D01*
G04 #@! TO.C,U27*
X211050000Y-103400000D02*
X211050000Y-104860000D01*
X211050000Y-104860000D02*
X211220000Y-104860000D01*
X211220000Y-102680000D02*
X211220000Y-103400000D01*
X211220000Y-103400000D02*
X211050000Y-103400000D01*
X211220000Y-104860000D02*
X211220000Y-105580000D01*
X211220000Y-105580000D02*
X213080000Y-105580000D01*
X213080000Y-102680000D02*
X211220000Y-102680000D01*
X213080000Y-103400000D02*
X213080000Y-102680000D01*
X213080000Y-104860000D02*
X213250000Y-104860000D01*
X213080000Y-105580000D02*
X213080000Y-104860000D01*
X213250000Y-103400000D02*
X213080000Y-103400000D01*
X213250000Y-104860000D02*
X213250000Y-103400000D01*
G04 #@! TO.C,U17*
X234149999Y-97612500D02*
X234149999Y-99712500D01*
X234149999Y-99712500D02*
X234349999Y-99712500D01*
X234349999Y-96612500D02*
X234349999Y-97612500D01*
X234349999Y-97612500D02*
X234149999Y-97612500D01*
X234349999Y-99712500D02*
X234349999Y-100712500D01*
X234349999Y-100712500D02*
X235459999Y-100712500D01*
X235459999Y-99712500D02*
X236239999Y-99712500D01*
X235459999Y-100712500D02*
X235459999Y-99712500D01*
X236239999Y-99712500D02*
X236239999Y-100712500D01*
X236239999Y-100712500D02*
X237349999Y-100712500D01*
X237349999Y-96612500D02*
X234349999Y-96612500D01*
X237349999Y-97612500D02*
X237349999Y-96612500D01*
X237349999Y-99712500D02*
X237549999Y-99712500D01*
X237349999Y-100712500D02*
X237349999Y-99712500D01*
X237549999Y-97612500D02*
X237349999Y-97612500D01*
X237549999Y-99712500D02*
X237549999Y-97612500D01*
G04 #@! TO.C,R165*
X216830000Y-69110000D02*
X217530000Y-69110000D01*
X217530000Y-70510000D01*
X216830000Y-70510000D01*
X216830000Y-69110000D01*
G04 #@! TO.C,C147*
X204390000Y-109540000D02*
X206210000Y-109540000D01*
X206210000Y-110460000D01*
X204390000Y-110460000D01*
X204390000Y-109540000D01*
G04 #@! TO.C,U71*
X174350000Y-73240000D02*
X174350000Y-74700000D01*
X174350000Y-74700000D02*
X174520000Y-74700000D01*
X174520000Y-72520000D02*
X174520000Y-73240000D01*
X174520000Y-73240000D02*
X174350000Y-73240000D01*
X174520000Y-74700000D02*
X174520000Y-75420000D01*
X174520000Y-75420000D02*
X176380000Y-75420000D01*
X176380000Y-72520000D02*
X174520000Y-72520000D01*
X176380000Y-73240000D02*
X176380000Y-72520000D01*
X176380000Y-74700000D02*
X176550000Y-74700000D01*
X176380000Y-75420000D02*
X176380000Y-74700000D01*
X176550000Y-73240000D02*
X176380000Y-73240000D01*
X176550000Y-74700000D02*
X176550000Y-73240000D01*
G04 #@! TO.C,NT5*
X224634107Y-85409427D02*
X225949325Y-86724645D01*
X225284645Y-87389325D01*
X223969427Y-86074107D01*
X224634107Y-85409427D01*
G04 #@! TO.C,D114*
X183930000Y-70510000D02*
X185330000Y-70510000D01*
X185330000Y-71210000D01*
X183930000Y-71210000D01*
X183930000Y-70510000D01*
G04 #@! TO.C,C135*
X221090000Y-113070000D02*
X222010000Y-113070000D01*
X222010000Y-114890000D01*
X221090000Y-114890000D01*
X221090000Y-113070000D01*
G04 #@! TO.C,U64*
X173920000Y-63700000D02*
X173920000Y-66300000D01*
X173920000Y-66300000D02*
X176560000Y-66300000D01*
X176560000Y-63700000D02*
X173920000Y-63700000D01*
X176560000Y-66300000D02*
X176560000Y-63700000D01*
G04 #@! TO.C,R163*
X210030000Y-69110000D02*
X210730000Y-69110000D01*
X210730000Y-70510000D01*
X210030000Y-70510000D01*
X210030000Y-69110000D01*
G04 #@! TO.C,C144*
X200450000Y-101749600D02*
X202270000Y-101749600D01*
X202270000Y-102669600D01*
X200450000Y-102669600D01*
X200450000Y-101749600D01*
G04 #@! TO.C,U2*
X213261271Y-93497560D02*
X213699678Y-93935966D01*
X213430977Y-92790453D02*
X213699678Y-93059154D01*
X213430977Y-94204667D02*
X218564572Y-99338262D01*
X213699678Y-93059154D02*
X213261271Y-93497560D01*
X213699678Y-93935966D02*
X213430977Y-94204667D01*
X218564572Y-87656858D02*
X213430977Y-92790453D01*
X218564572Y-99338262D02*
X218833273Y-99069561D01*
X218833273Y-87925559D02*
X218564572Y-87656858D01*
X218833273Y-99069561D02*
X219271679Y-99507968D01*
X219271679Y-87487152D02*
X218833273Y-87925559D01*
X219271679Y-99507968D02*
X219710085Y-99069561D01*
X219710085Y-87925559D02*
X219271679Y-87487152D01*
X219710085Y-99069561D02*
X219978786Y-99338262D01*
X219978786Y-87656858D02*
X219710085Y-87925559D01*
X219978786Y-99338262D02*
X225112381Y-94204667D01*
X224843680Y-93059154D02*
X225112381Y-92790453D01*
X224843680Y-93935966D02*
X225282087Y-93497560D01*
X225112381Y-92790453D02*
X219978786Y-87656858D01*
X225112381Y-94204667D02*
X224843680Y-93935966D01*
X225282087Y-93497560D02*
X224843680Y-93059154D01*
G04 #@! TO.C,R94*
X226070000Y-101387500D02*
X227470000Y-101387500D01*
X227470000Y-102087500D01*
X226070000Y-102087500D01*
X226070000Y-101387500D01*
G04 #@! TO.C,C132*
X220850000Y-105585000D02*
X222670000Y-105585000D01*
X222670000Y-106505000D01*
X220850000Y-106505000D01*
X220850000Y-105585000D01*
G04 #@! TO.C,C127*
X224250000Y-105585000D02*
X226070000Y-105585000D01*
X226070000Y-106505000D01*
X224250000Y-106505000D01*
X224250000Y-105585000D01*
G04 #@! TO.C,D119*
X160540000Y-66260000D02*
X160540000Y-68560000D01*
X160540000Y-68560000D02*
X165240000Y-68560000D01*
X165240000Y-66260000D02*
X160540000Y-66260000D01*
X165240000Y-66260000D02*
X165240000Y-68560000D01*
G04 #@! TO.C,L1*
X236282475Y-80034872D02*
X238534141Y-81334872D01*
X237434141Y-83240128D01*
X235182475Y-81940128D01*
X236282475Y-80034872D01*
G04 #@! TO.C,L5*
X157825000Y-75822858D02*
X159625000Y-75822858D01*
X159625000Y-78422858D01*
X157825000Y-78422858D01*
X157825000Y-75822858D01*
G04 #@! TO.C,C201*
X178530000Y-75420000D02*
X180350000Y-75420000D01*
X180350000Y-76340000D01*
X178530000Y-76340000D01*
X178530000Y-75420000D01*
G04 #@! TO.C,U68*
X184550000Y-73240000D02*
X184550000Y-74700000D01*
X184550000Y-74700000D02*
X184720000Y-74700000D01*
X184720000Y-72520000D02*
X184720000Y-73240000D01*
X184720000Y-73240000D02*
X184550000Y-73240000D01*
X184720000Y-74700000D02*
X184720000Y-75420000D01*
X184720000Y-75420000D02*
X186580000Y-75420000D01*
X186580000Y-72520000D02*
X184720000Y-72520000D01*
X186580000Y-73240000D02*
X186580000Y-72520000D01*
X186580000Y-74700000D02*
X186750000Y-74700000D01*
X186580000Y-75420000D02*
X186580000Y-74700000D01*
X186750000Y-73240000D02*
X186580000Y-73240000D01*
X186750000Y-74700000D02*
X186750000Y-73240000D01*
G04 #@! TO.C,C198*
X167940000Y-112770000D02*
X169760000Y-112770000D01*
X169760000Y-113690000D01*
X167940000Y-113690000D01*
X167940000Y-112770000D01*
G04 #@! TO.C,R215*
X168010000Y-63210000D02*
X168950000Y-63210000D01*
X168950000Y-65070000D01*
X168010000Y-65070000D01*
X168010000Y-63210000D01*
G04 #@! TO.C,U22*
X155700000Y-103537500D02*
X155700000Y-105637500D01*
X155700000Y-105637500D02*
X155900000Y-105637500D01*
X155900000Y-102537500D02*
X155900000Y-103537500D01*
X155900000Y-103537500D02*
X155700000Y-103537500D01*
X155900000Y-105637500D02*
X155900000Y-106637500D01*
X155900000Y-106637500D02*
X158900000Y-106637500D01*
X158900000Y-102537500D02*
X155900000Y-102537500D01*
X158900000Y-103537500D02*
X158900000Y-102537500D01*
X158900000Y-105637500D02*
X159100000Y-105637500D01*
X158900000Y-106637500D02*
X158900000Y-105637500D01*
X159100000Y-103537500D02*
X158900000Y-103537500D01*
X159100000Y-105637500D02*
X159100000Y-103537500D01*
G04 #@! TO.C,U26*
X224650000Y-103400000D02*
X224650000Y-104860000D01*
X224650000Y-104860000D02*
X224820000Y-104860000D01*
X224820000Y-102680000D02*
X224820000Y-103400000D01*
X224820000Y-103400000D02*
X224650000Y-103400000D01*
X224820000Y-104860000D02*
X224820000Y-105580000D01*
X224820000Y-105580000D02*
X226680000Y-105580000D01*
X226680000Y-102680000D02*
X224820000Y-102680000D01*
X226680000Y-103400000D02*
X226680000Y-102680000D01*
X226680000Y-104860000D02*
X226850000Y-104860000D01*
X226680000Y-105580000D02*
X226680000Y-104860000D01*
X226850000Y-103400000D02*
X226680000Y-103400000D01*
X226850000Y-104860000D02*
X226850000Y-103400000D01*
G04 #@! TO.C,C199*
X176610000Y-63340000D02*
X177530000Y-63340000D01*
X177530000Y-65160000D01*
X176610000Y-65160000D01*
X176610000Y-63340000D01*
G04 #@! TO.C,D78*
X200530000Y-70510000D02*
X201930000Y-70510000D01*
X201930000Y-71210000D01*
X200530000Y-71210000D01*
X200530000Y-70510000D01*
G04 #@! TO.C,D81*
X174350000Y-109470000D02*
X174350000Y-110130000D01*
X174350000Y-110130000D02*
X175070000Y-110130000D01*
X174350000Y-110770000D02*
X174350000Y-111430000D01*
X174350000Y-111430000D02*
X175070000Y-111430000D01*
X175070000Y-109350000D02*
X175070000Y-109470000D01*
X175070000Y-109470000D02*
X174350000Y-109470000D01*
X175070000Y-110130000D02*
X175070000Y-110770000D01*
X175070000Y-110770000D02*
X174350000Y-110770000D01*
X175070000Y-111430000D02*
X175070000Y-111550000D01*
X175070000Y-111550000D02*
X176530000Y-111550000D01*
X176530000Y-109350000D02*
X175070000Y-109350000D01*
X176530000Y-110120000D02*
X176530000Y-109350000D01*
X176530000Y-110780000D02*
X177250000Y-110780000D01*
X176530000Y-111550000D02*
X176530000Y-110780000D01*
X177250000Y-110120000D02*
X176530000Y-110120000D01*
X177250000Y-110780000D02*
X177250000Y-110120000D01*
G04 #@! TO.C,C136*
X217450000Y-101749600D02*
X219270000Y-101749600D01*
X219270000Y-102669600D01*
X217450000Y-102669600D01*
X217450000Y-101749600D01*
G04 #@! TO.C,R137*
X203930000Y-76012500D02*
X205330000Y-76012500D01*
X205330000Y-76712500D01*
X203930000Y-76712500D01*
X203930000Y-76012500D01*
G04 #@! TO.C,U47*
X211350000Y-73240000D02*
X211350000Y-74700000D01*
X211350000Y-74700000D02*
X211520000Y-74700000D01*
X211520000Y-72520000D02*
X211520000Y-73240000D01*
X211520000Y-73240000D02*
X211350000Y-73240000D01*
X211520000Y-74700000D02*
X211520000Y-75420000D01*
X211520000Y-75420000D02*
X213380000Y-75420000D01*
X213380000Y-72520000D02*
X211520000Y-72520000D01*
X213380000Y-73240000D02*
X213380000Y-72520000D01*
X213380000Y-74700000D02*
X213550000Y-74700000D01*
X213380000Y-75420000D02*
X213380000Y-74700000D01*
X213550000Y-73240000D02*
X213380000Y-73240000D01*
X213550000Y-74700000D02*
X213550000Y-73240000D01*
G04 #@! TO.C,R219*
X183250001Y-63530000D02*
X184190001Y-63530000D01*
X184190001Y-65390000D01*
X183250001Y-65390000D01*
X183250001Y-63530000D01*
G04 #@! TO.C,C47*
X194780000Y-101950000D02*
X196600000Y-101950000D01*
X196600000Y-102870000D01*
X194780000Y-102870000D01*
X194780000Y-101950000D01*
G04 #@! TO.C,U46*
X216550000Y-64100001D02*
X216550000Y-67600001D01*
X216550000Y-67600001D02*
X216900000Y-67600001D01*
X216900000Y-62720001D02*
X216900000Y-64100001D01*
X216900000Y-64100001D02*
X216550000Y-64100001D01*
X216900000Y-67600001D02*
X216900000Y-68980001D01*
X216900000Y-68980001D02*
X219700000Y-68980001D01*
X219700000Y-62720001D02*
X216900000Y-62720001D01*
X219700000Y-64100001D02*
X219700000Y-62720001D01*
X219700000Y-67600001D02*
X220050000Y-67600001D01*
X219700000Y-68980001D02*
X219700000Y-67600001D01*
X220050000Y-64100001D02*
X219700000Y-64100001D01*
X220050000Y-67600001D02*
X220050000Y-64100001D01*
G04 #@! TO.C,R221*
X166930000Y-76012500D02*
X168330000Y-76012500D01*
X168330000Y-76712500D01*
X166930000Y-76712500D01*
X166930000Y-76012500D01*
G04 #@! TO.C,C90*
X234489999Y-95652500D02*
X236309999Y-95652500D01*
X236309999Y-96572500D01*
X234489999Y-96572500D01*
X234489999Y-95652500D01*
G04 #@! TO.C,D91*
X185670000Y-106890000D02*
X187070000Y-106890000D01*
X187070000Y-107590000D01*
X185670000Y-107590000D01*
X185670000Y-106890000D01*
G04 #@! TO.C,R145*
X203930000Y-71220000D02*
X205330000Y-71220000D01*
X205330000Y-71920000D01*
X203930000Y-71920000D01*
X203930000Y-71220000D01*
G04 #@! TO.C,U72*
X187950000Y-73240000D02*
X187950000Y-74700000D01*
X187950000Y-74700000D02*
X188120000Y-74700000D01*
X188120000Y-72520000D02*
X188120000Y-73240000D01*
X188120000Y-73240000D02*
X187950000Y-73240000D01*
X188120000Y-74700000D02*
X188120000Y-75420000D01*
X188120000Y-75420000D02*
X189980000Y-75420000D01*
X189980000Y-72520000D02*
X188120000Y-72520000D01*
X189980000Y-73240000D02*
X189980000Y-72520000D01*
X189980000Y-74700000D02*
X190150000Y-74700000D01*
X189980000Y-75420000D02*
X189980000Y-74700000D01*
X190150000Y-73240000D02*
X189980000Y-73240000D01*
X190150000Y-74700000D02*
X190150000Y-73240000D01*
G04 #@! TO.C,R193*
X165270000Y-106190000D02*
X166670000Y-106190000D01*
X166670000Y-106890000D01*
X165270000Y-106890000D01*
X165270000Y-106190000D01*
G04 #@! TO.C,R247*
X173030000Y-69110000D02*
X173730000Y-69110000D01*
X173730000Y-70510000D01*
X173030000Y-70510000D01*
X173030000Y-69110000D01*
G04 #@! TO.C,R227*
X187330000Y-76012500D02*
X188730000Y-76012500D01*
X188730000Y-76712500D01*
X187330000Y-76712500D01*
X187330000Y-76012500D01*
G04 #@! TO.C,D103*
X164230000Y-69310000D02*
X164230000Y-70510000D01*
X164230000Y-70510000D02*
X165830000Y-70510000D01*
X165830000Y-69310000D02*
X164230000Y-69310000D01*
X165830000Y-69310000D02*
X165830000Y-70510000D01*
G04 #@! TO.C,NT11*
X231510000Y-100310000D02*
X233370000Y-100310000D01*
X233370000Y-101250000D01*
X231510000Y-101250000D01*
X231510000Y-100310000D01*
G04 #@! TO.C,C7*
X212331264Y-95818198D02*
X213618198Y-94531264D01*
X214268736Y-95181802D01*
X212981802Y-96468736D01*
X212331264Y-95818198D01*
G04 #@! TO.C,R161*
X203230000Y-69110000D02*
X203930000Y-69110000D01*
X203930000Y-70510000D01*
X203230000Y-70510000D01*
X203230000Y-69110000D01*
G04 #@! TO.C,L8*
X208615000Y-63180000D02*
X210815000Y-63180000D01*
X210815000Y-65780000D01*
X208615000Y-65780000D01*
X208615000Y-63180000D01*
G04 #@! TO.C,C146*
X200450000Y-105585000D02*
X202270000Y-105585000D01*
X202270000Y-106505000D01*
X200450000Y-106505000D01*
X200450000Y-105585000D01*
G04 #@! TO.C,R78*
X158930001Y-101657499D02*
X159870001Y-101657499D01*
X159870001Y-103517499D01*
X158930001Y-103517499D01*
X158930001Y-101657499D01*
G04 #@! TO.C,R135*
X220250001Y-63530000D02*
X221190001Y-63530000D01*
X221190001Y-65390000D01*
X220250001Y-65390000D01*
X220250001Y-63530000D01*
G04 #@! TO.C,D116*
X180530000Y-70510000D02*
X181930000Y-70510000D01*
X181930000Y-71210000D01*
X180530000Y-71210000D01*
X180530000Y-70510000D01*
G04 #@! TO.C,R22*
X231020000Y-81730001D02*
X231020000Y-83590001D01*
X230080000Y-83590001D01*
X230080000Y-81730001D01*
X231020000Y-81730001D01*
G04 #@! TO.C,C184*
X180390000Y-110450000D02*
X181310000Y-110450000D01*
X181310000Y-112270000D01*
X180390000Y-112270000D01*
X180390000Y-110450000D01*
G04 #@! TO.C,C124*
X213470000Y-112940000D02*
X214390000Y-112940000D01*
X214390000Y-114760000D01*
X213470000Y-114760000D01*
X213470000Y-112940000D01*
G04 #@! TO.C,R115*
X209770000Y-107590000D02*
X210470000Y-107590000D01*
X210470000Y-108990000D01*
X209770000Y-108990000D01*
X209770000Y-107590000D01*
G04 #@! TO.C,U70*
X179550000Y-64100001D02*
X179550000Y-67600001D01*
X179550000Y-67600001D02*
X179900000Y-67600001D01*
X179900000Y-62720001D02*
X179900000Y-64100001D01*
X179900000Y-64100001D02*
X179550000Y-64100001D01*
X179900000Y-67600001D02*
X179900000Y-68980001D01*
X179900000Y-68980001D02*
X182700000Y-68980001D01*
X182700000Y-62720001D02*
X179900000Y-62720001D01*
X182700000Y-64100001D02*
X182700000Y-62720001D01*
X182700000Y-67600001D02*
X183050000Y-67600001D01*
X182700000Y-68980001D02*
X182700000Y-67600001D01*
X183050000Y-64100001D02*
X182700000Y-64100001D01*
X183050000Y-67600001D02*
X183050000Y-64100001D01*
G04 #@! TO.C,U40*
X210920000Y-63700000D02*
X210920000Y-66300000D01*
X210920000Y-66300000D02*
X213560000Y-66300000D01*
X213560000Y-63700000D02*
X210920000Y-63700000D01*
X213560000Y-66300000D02*
X213560000Y-63700000D01*
G04 #@! TO.C,C119*
X194225000Y-90600000D02*
X194925000Y-90600000D01*
X194925000Y-92000000D01*
X194225000Y-92000000D01*
X194225000Y-90600000D01*
G04 #@! TO.C,D68*
X218230000Y-69310000D02*
X218230000Y-70510000D01*
X218230000Y-70510000D02*
X219830000Y-70510000D01*
X219830000Y-69310000D02*
X218230000Y-69310000D01*
X219830000Y-69310000D02*
X219830000Y-70510000D01*
G04 #@! TO.C,C52*
X199400000Y-113200000D02*
X201220000Y-113200000D01*
X201220000Y-114120000D01*
X199400000Y-114120000D01*
X199400000Y-113200000D01*
G04 #@! TO.C,D62*
X221360000Y-63060000D02*
X221360000Y-64260000D01*
X221360000Y-64260000D02*
X222960000Y-64260000D01*
X222960000Y-63060000D02*
X221360000Y-63060000D01*
X222960000Y-63060000D02*
X222960000Y-64260000D01*
G04 #@! TO.C,C207*
X168330000Y-71574400D02*
X170150000Y-71574400D01*
X170150000Y-72494400D01*
X168330000Y-72494400D01*
X168330000Y-71574400D01*
G04 #@! TO.C,D94*
X168670000Y-106890000D02*
X170070000Y-106890000D01*
X170070000Y-107590000D01*
X168670000Y-107590000D01*
X168670000Y-106890000D01*
G04 #@! TO.C,C213*
X171730000Y-71574400D02*
X173550000Y-71574400D01*
X173550000Y-72494400D01*
X171730000Y-72494400D01*
X171730000Y-71574400D01*
G04 #@! TO.C,R250*
X183230000Y-69110000D02*
X183930000Y-69110000D01*
X183930000Y-70510000D01*
X183230000Y-70510000D01*
X183230000Y-69110000D01*
G04 #@! TO.C,C116*
X198175000Y-90690000D02*
X198875000Y-90690000D01*
X198875000Y-92090000D01*
X198175000Y-92090000D01*
X198175000Y-90690000D01*
G04 #@! TO.C,C210*
X168990000Y-63210000D02*
X169910000Y-63210000D01*
X169910000Y-65030000D01*
X168990000Y-65030000D01*
X168990000Y-63210000D01*
G04 #@! TO.C,R225*
X180530000Y-76012500D02*
X181930000Y-76012500D01*
X181930000Y-76712500D01*
X180530000Y-76712500D01*
X180530000Y-76012500D01*
G04 #@! TO.C,C137*
X203850000Y-101749600D02*
X205670000Y-101749600D01*
X205670000Y-102669600D01*
X203850000Y-102669600D01*
X203850000Y-101749600D01*
G04 #@! TO.C,R232*
X177130000Y-71220000D02*
X178530000Y-71220000D01*
X178530000Y-71920000D01*
X177130000Y-71920000D01*
X177130000Y-71220000D01*
G04 #@! TO.C,R177*
X169809999Y-112710000D02*
X170749999Y-112710000D01*
X170749999Y-114570000D01*
X169809999Y-114570000D01*
X169809999Y-112710000D01*
G04 #@! TO.C,R240*
X177130000Y-69110000D02*
X177830000Y-69110000D01*
X177830000Y-70510000D01*
X177130000Y-70510000D01*
X177130000Y-69110000D01*
G04 #@! TO.C,R118*
X227470000Y-107590000D02*
X228170000Y-107590000D01*
X228170000Y-108990000D01*
X227470000Y-108990000D01*
X227470000Y-107590000D01*
G04 #@! TO.C,C98*
X159110000Y-103527500D02*
X160570000Y-103527500D01*
X160570000Y-106487500D01*
X159110000Y-106487500D01*
X159110000Y-103527500D01*
G04 #@! TO.C,R31*
X227850000Y-69100000D02*
X227850000Y-74100000D01*
X227850000Y-69100000D02*
X230150000Y-69100000D01*
X230150000Y-74100000D02*
X227850000Y-74100000D01*
X230150000Y-74100000D02*
X230150000Y-69100000D01*
G04 #@! TO.C,R160*
X199830000Y-69110000D02*
X200530000Y-69110000D01*
X200530000Y-70510000D01*
X199830000Y-70510000D01*
X199830000Y-69110000D01*
G04 #@! TO.C,D105*
X171030000Y-69310000D02*
X171030000Y-70510000D01*
X171030000Y-70510000D02*
X172630000Y-70510000D01*
X172630000Y-69310000D02*
X171030000Y-69310000D01*
X172630000Y-69310000D02*
X172630000Y-70510000D01*
G04 #@! TO.C,R172*
X178470000Y-110630000D02*
X180330000Y-110630000D01*
X180330000Y-111570000D01*
X178470000Y-111570000D01*
X178470000Y-110630000D01*
G04 #@! TO.C,U60*
X163850000Y-103400000D02*
X163850000Y-104860000D01*
X163850000Y-104860000D02*
X164020000Y-104860000D01*
X164020000Y-102680000D02*
X164020000Y-103400000D01*
X164020000Y-103400000D02*
X163850000Y-103400000D01*
X164020000Y-104860000D02*
X164020000Y-105580000D01*
X164020000Y-105580000D02*
X165880000Y-105580000D01*
X165880000Y-102680000D02*
X164020000Y-102680000D01*
X165880000Y-103400000D02*
X165880000Y-102680000D01*
X165880000Y-104860000D02*
X166050000Y-104860000D01*
X165880000Y-105580000D02*
X165880000Y-104860000D01*
X166050000Y-103400000D02*
X165880000Y-103400000D01*
X166050000Y-104860000D02*
X166050000Y-103400000D01*
G04 #@! TO.C,C160*
X205990000Y-63210000D02*
X206910000Y-63210000D01*
X206910000Y-65030000D01*
X205990000Y-65030000D01*
X205990000Y-63210000D01*
G04 #@! TO.C,L6*
X152940000Y-103327499D02*
X154740000Y-103327499D01*
X154740000Y-105927499D01*
X152940000Y-105927499D01*
X152940000Y-103327499D01*
G04 #@! TO.C,R233*
X180530000Y-71220000D02*
X181930000Y-71220000D01*
X181930000Y-71920000D01*
X180530000Y-71920000D01*
X180530000Y-71220000D01*
G04 #@! TO.C,R223*
X173730000Y-76012500D02*
X175130000Y-76012500D01*
X175130000Y-76712500D01*
X173730000Y-76712500D01*
X173730000Y-76012500D01*
G04 #@! TO.C,C111*
X154645000Y-83692858D02*
X157605000Y-83692858D01*
X157605000Y-85152858D01*
X154645000Y-85152858D01*
X154645000Y-83692858D01*
G04 #@! TO.C,R121*
X217270000Y-107590000D02*
X217970000Y-107590000D01*
X217970000Y-108990000D01*
X217270000Y-108990000D01*
X217270000Y-107590000D01*
G04 #@! TO.C,C202*
X164930000Y-71574400D02*
X166750000Y-71574400D01*
X166750000Y-72494400D01*
X164930000Y-72494400D01*
X164930000Y-71574400D01*
G04 #@! TO.C,C182*
X183850000Y-105585000D02*
X185670000Y-105585000D01*
X185670000Y-106505000D01*
X183850000Y-106505000D01*
X183850000Y-105585000D01*
G04 #@! TO.C,C49*
X161340000Y-98840000D02*
X163160000Y-98840000D01*
X163160000Y-99760000D01*
X161340000Y-99760000D01*
X161340000Y-98840000D01*
G04 #@! TO.C,R102*
X226070000Y-106180000D02*
X227470000Y-106180000D01*
X227470000Y-106880000D01*
X226070000Y-106880000D01*
X226070000Y-106180000D01*
G04 #@! TO.C,D63*
X201230000Y-69310000D02*
X201230000Y-70510000D01*
X201230000Y-70510000D02*
X202830000Y-70510000D01*
X202830000Y-69310000D02*
X201230000Y-69310000D01*
X202830000Y-69310000D02*
X202830000Y-70510000D01*
G04 #@! TO.C,R249*
X179830000Y-69110000D02*
X180530000Y-69110000D01*
X180530000Y-70510000D01*
X179830000Y-70510000D01*
X179830000Y-69110000D01*
G04 #@! TO.C,C186*
X180446000Y-101749600D02*
X182266000Y-101749600D01*
X182266000Y-102669600D01*
X180446000Y-102669600D01*
X180446000Y-101749600D01*
G04 #@! TO.C,C107*
X154780000Y-103727499D02*
X155700000Y-103727499D01*
X155700000Y-105547499D01*
X154780000Y-105547499D01*
X154780000Y-103727499D01*
G04 #@! TO.C,R92*
X225640000Y-112410000D02*
X226580000Y-112410000D01*
X226580000Y-114270000D01*
X225640000Y-114270000D01*
X225640000Y-112410000D01*
G04 #@! TO.C,R179*
X185670000Y-101387500D02*
X187070000Y-101387500D01*
X187070000Y-102087500D01*
X185670000Y-102087500D01*
X185670000Y-101387500D01*
G04 #@! TO.C,R40*
X198695000Y-81715000D02*
X196835000Y-81715000D01*
X196835000Y-80775000D01*
X198695000Y-80775000D01*
X198695000Y-81715000D01*
G04 #@! TO.C,D56*
X209070000Y-106890000D02*
X210470000Y-106890000D01*
X210470000Y-107590000D01*
X209070000Y-107590000D01*
X209070000Y-106890000D01*
G04 #@! TO.C,D15*
X196600000Y-101950000D02*
X199800000Y-101950000D01*
X196600000Y-103850000D02*
X196600000Y-101950000D01*
X196600000Y-103850000D02*
X199800000Y-103850000D01*
X199800000Y-103850000D02*
X199800000Y-101950000D01*
G04 #@! TO.C,R222*
X170330000Y-76012500D02*
X171730000Y-76012500D01*
X171730000Y-76712500D01*
X170330000Y-76712500D01*
X170330000Y-76012500D01*
G04 #@! TO.C,U19*
X164070001Y-78200000D02*
X164070001Y-81200000D01*
X164070001Y-81200000D02*
X165070001Y-81200000D01*
X165070001Y-78000000D02*
X165070001Y-78200000D01*
X165070001Y-78200000D02*
X164070001Y-78200000D01*
X165070001Y-81200000D02*
X165070001Y-81400000D01*
X165070001Y-81400000D02*
X167170001Y-81400000D01*
X167170001Y-78000000D02*
X165070001Y-78000000D01*
X167170001Y-78200000D02*
X167170001Y-78000000D01*
X167170001Y-79310000D02*
X168170001Y-79310000D01*
X167170001Y-80090000D02*
X167170001Y-79310000D01*
X167170001Y-81200000D02*
X168170001Y-81200000D01*
X167170001Y-81400000D02*
X167170001Y-81200000D01*
X168170001Y-78200000D02*
X167170001Y-78200000D01*
X168170001Y-79310000D02*
X168170001Y-78200000D01*
X168170001Y-80090000D02*
X167170001Y-80090000D01*
X168170001Y-81200000D02*
X168170001Y-80090000D01*
G04 #@! TO.C,R71*
X229620002Y-95969999D02*
X231480002Y-95969999D01*
X231480002Y-96909999D01*
X229620002Y-96909999D01*
X229620002Y-95969999D01*
G04 #@! TO.C,C76*
X185065000Y-90580000D02*
X185985000Y-90580000D01*
X185985000Y-92400000D01*
X185065000Y-92400000D01*
X185065000Y-90580000D01*
G04 #@! TO.C,C152*
X201930000Y-71600000D02*
X203750000Y-71600000D01*
X203750000Y-72520000D01*
X201930000Y-72520000D01*
X201930000Y-71600000D01*
G04 #@! TO.C,D99*
X192050000Y-114650000D02*
X192050000Y-112350000D01*
X192050000Y-114650000D02*
X196750000Y-114650000D01*
X196750000Y-112350000D02*
X192050000Y-112350000D01*
X196750000Y-114650000D02*
X196750000Y-112350000D01*
G04 #@! TO.C,C196*
X163453400Y-105585000D02*
X165273400Y-105585000D01*
X165273400Y-106505000D01*
X163453400Y-106505000D01*
X163453400Y-105585000D01*
G04 #@! TO.C,U58*
X170850000Y-110499999D02*
X170850000Y-113999999D01*
X170850000Y-113999999D02*
X171200000Y-113999999D01*
X171200000Y-109119999D02*
X171200000Y-110499999D01*
X171200000Y-110499999D02*
X170850000Y-110499999D01*
X171200000Y-113999999D02*
X171200000Y-115379999D01*
X171200000Y-115379999D02*
X174000000Y-115379999D01*
X174000000Y-109119999D02*
X171200000Y-109119999D01*
X174000000Y-110499999D02*
X174000000Y-109119999D01*
X174000000Y-113999999D02*
X174350000Y-113999999D01*
X174000000Y-115379999D02*
X174000000Y-113999999D01*
X174350000Y-110499999D02*
X174000000Y-110499999D01*
X174350000Y-113999999D02*
X174350000Y-110499999D01*
G04 #@! TO.C,L10*
X171615000Y-63180000D02*
X173815000Y-63180000D01*
X173815000Y-65780000D01*
X171615000Y-65780000D01*
X171615000Y-63180000D01*
G04 #@! TO.C,U28*
X214440000Y-111800000D02*
X214440000Y-114400000D01*
X214440000Y-114400000D02*
X217080000Y-114400000D01*
X217080000Y-111800000D02*
X214440000Y-111800000D01*
X217080000Y-114400000D02*
X217080000Y-111800000D01*
G04 #@! TO.C,C211*
X171730000Y-75420000D02*
X173550000Y-75420000D01*
X173550000Y-76340000D01*
X171730000Y-76340000D01*
X171730000Y-75420000D01*
G04 #@! TO.C,R157*
X217530000Y-69110000D02*
X218230000Y-69110000D01*
X218230000Y-70510000D01*
X217530000Y-70510000D01*
X217530000Y-69110000D01*
G04 #@! TO.C,C53*
X228840000Y-66690000D02*
X229760000Y-66690000D01*
X229760000Y-68510000D01*
X228840000Y-68510000D01*
X228840000Y-66690000D01*
G04 #@! TO.C,C220*
X175130000Y-71574400D02*
X176950000Y-71574400D01*
X176950000Y-72494400D01*
X175130000Y-72494400D01*
X175130000Y-71574400D01*
G04 #@! TO.C,D61*
X213600000Y-64670000D02*
X213600000Y-65330000D01*
X213600000Y-65330000D02*
X214320000Y-65330000D01*
X213600000Y-65970000D02*
X213600000Y-66630000D01*
X213600000Y-66630000D02*
X214320000Y-66630000D01*
X214320000Y-64550000D02*
X214320000Y-64670000D01*
X214320000Y-64670000D02*
X213600000Y-64670000D01*
X214320000Y-65330000D02*
X214320000Y-65970000D01*
X214320000Y-65970000D02*
X213600000Y-65970000D01*
X214320000Y-66630000D02*
X214320000Y-66750000D01*
X214320000Y-66750000D02*
X215780000Y-66750000D01*
X215780000Y-64550000D02*
X214320000Y-64550000D01*
X215780000Y-65320000D02*
X215780000Y-64550000D01*
X215780000Y-65980000D02*
X216500000Y-65980000D01*
X215780000Y-66750000D02*
X215780000Y-65980000D01*
X216500000Y-65320000D02*
X215780000Y-65320000D01*
X216500000Y-65980000D02*
X216500000Y-65320000D01*
G04 #@! TO.C,C123*
X197950000Y-74030000D02*
X199770000Y-74030000D01*
X199770000Y-74950000D01*
X197950000Y-74950000D01*
X197950000Y-74030000D01*
G04 #@! TO.C,R150*
X220930000Y-71220000D02*
X222330000Y-71220000D01*
X222330000Y-71920000D01*
X220930000Y-71920000D01*
X220930000Y-71220000D01*
G04 #@! TO.C,D22*
X187900000Y-66850000D02*
X187900000Y-68750000D01*
X191100000Y-66850000D02*
X187900000Y-66850000D01*
X191100000Y-66850000D02*
X191100000Y-68750000D01*
X191100000Y-68750000D02*
X187900000Y-68750000D01*
G04 #@! TO.C,U39*
X214750000Y-73240000D02*
X214750000Y-74700000D01*
X214750000Y-74700000D02*
X214920000Y-74700000D01*
X214920000Y-72520000D02*
X214920000Y-73240000D01*
X214920000Y-73240000D02*
X214750000Y-73240000D01*
X214920000Y-74700000D02*
X214920000Y-75420000D01*
X214920000Y-75420000D02*
X216780000Y-75420000D01*
X216780000Y-72520000D02*
X214920000Y-72520000D01*
X216780000Y-73240000D02*
X216780000Y-72520000D01*
X216780000Y-74700000D02*
X216950000Y-74700000D01*
X216780000Y-75420000D02*
X216780000Y-74700000D01*
X216950000Y-73240000D02*
X216780000Y-73240000D01*
X216950000Y-74700000D02*
X216950000Y-73240000D01*
G04 #@! TO.C,U9*
X187490000Y-95275000D02*
X187490000Y-100095000D01*
X187490000Y-100095000D02*
X187570000Y-100095000D01*
X187570000Y-94935000D02*
X187570000Y-95275000D01*
X187570000Y-95275000D02*
X187490000Y-95275000D01*
X187570000Y-100095000D02*
X187570000Y-100435000D01*
X187570000Y-100435000D02*
X194070000Y-100435000D01*
X194070000Y-94935000D02*
X187570000Y-94935000D01*
X194070000Y-95275000D02*
X194070000Y-94935000D01*
X194070000Y-100095000D02*
X194150000Y-100095000D01*
X194070000Y-100435000D02*
X194070000Y-100095000D01*
X194150000Y-95275000D02*
X194070000Y-95275000D01*
X194150000Y-100095000D02*
X194150000Y-95275000D01*
G04 #@! TO.C,U61*
X167389999Y-110680000D02*
X167389999Y-111240000D01*
X167389999Y-111240000D02*
X168109999Y-111240000D01*
X167389999Y-111980000D02*
X167389999Y-112540000D01*
X167389999Y-112540000D02*
X168109999Y-112540000D01*
X168109999Y-110510000D02*
X168109999Y-110680000D01*
X168109999Y-110680000D02*
X167389999Y-110680000D01*
X168109999Y-111240000D02*
X168109999Y-111980000D01*
X168109999Y-111980000D02*
X167389999Y-111980000D01*
X168109999Y-112540000D02*
X168109999Y-112710000D01*
X168109999Y-112710000D02*
X169569999Y-112710000D01*
X169569999Y-110510000D02*
X168109999Y-110510000D01*
X169569999Y-110680000D02*
X169569999Y-110510000D01*
X169569999Y-112540000D02*
X170289999Y-112540000D01*
X169569999Y-112710000D02*
X169569999Y-112540000D01*
X170289999Y-110680000D02*
X169569999Y-110680000D01*
X170289999Y-112540000D02*
X170289999Y-110680000D01*
G04 #@! TO.C,C219*
X188730000Y-75420000D02*
X190550000Y-75420000D01*
X190550000Y-76340000D01*
X188730000Y-76340000D01*
X188730000Y-75420000D01*
G04 #@! TO.C,R235*
X187330000Y-71210000D02*
X188730000Y-71210000D01*
X188730000Y-71910000D01*
X187330000Y-71910000D01*
X187330000Y-71210000D01*
G04 #@! TO.C,R195*
X186370000Y-107590000D02*
X187070000Y-107590000D01*
X187070000Y-108990000D01*
X186370000Y-108990000D01*
X186370000Y-107590000D01*
G04 #@! TO.C,D88*
X171170000Y-108790000D02*
X171170000Y-107590000D01*
X171170000Y-108790000D02*
X172770000Y-108790000D01*
X172770000Y-107590000D02*
X171170000Y-107590000D01*
X172770000Y-108790000D02*
X172770000Y-107590000D01*
G04 #@! TO.C,U38*
X201150000Y-73240000D02*
X201150000Y-74700000D01*
X201150000Y-74700000D02*
X201320000Y-74700000D01*
X201320000Y-72520000D02*
X201320000Y-73240000D01*
X201320000Y-73240000D02*
X201150000Y-73240000D01*
X201320000Y-74700000D02*
X201320000Y-75420000D01*
X201320000Y-75420000D02*
X203180000Y-75420000D01*
X203180000Y-72520000D02*
X201320000Y-72520000D01*
X203180000Y-73240000D02*
X203180000Y-72520000D01*
X203180000Y-74700000D02*
X203350000Y-74700000D01*
X203180000Y-75420000D02*
X203180000Y-74700000D01*
X203350000Y-73240000D02*
X203180000Y-73240000D01*
X203350000Y-74700000D02*
X203350000Y-73240000D01*
G04 #@! TO.C,D70*
X225030000Y-69310000D02*
X225030000Y-70510000D01*
X225030000Y-70510000D02*
X226630000Y-70510000D01*
X226630000Y-69310000D02*
X225030000Y-69310000D01*
X226630000Y-69310000D02*
X226630000Y-70510000D01*
G04 #@! TO.C,D87*
X174570000Y-108790000D02*
X174570000Y-107590000D01*
X174570000Y-108790000D02*
X176170000Y-108790000D01*
X176170000Y-107590000D02*
X174570000Y-107590000D01*
X176170000Y-108790000D02*
X176170000Y-107590000D01*
G04 #@! TO.C,C214*
X185322800Y-71574400D02*
X187142800Y-71574400D01*
X187142800Y-72494400D01*
X185322800Y-72494400D01*
X185322800Y-71574400D01*
G04 #@! TO.C,D39*
X153260000Y-98537499D02*
X153260000Y-103237499D01*
X155560000Y-98537499D02*
X153260000Y-98537499D01*
X155560000Y-103237499D02*
X153260000Y-103237499D01*
X155560000Y-103237499D02*
X155560000Y-98537499D01*
G04 #@! TO.C,D104*
X167630000Y-69310000D02*
X167630000Y-70510000D01*
X167630000Y-70510000D02*
X169230000Y-70510000D01*
X169230000Y-69310000D02*
X167630000Y-69310000D01*
X169230000Y-69310000D02*
X169230000Y-70510000D01*
G04 #@! TO.C,U24*
X191650000Y-104070000D02*
X191650000Y-112130000D01*
X191650000Y-112130000D02*
X193050000Y-112130000D01*
X193050000Y-103950000D02*
X193050000Y-104070000D01*
X193050000Y-104070000D02*
X191650000Y-104070000D01*
X193050000Y-112130000D02*
X193050000Y-112250000D01*
X193050000Y-112250000D02*
X197950000Y-112250000D01*
X197950000Y-103950000D02*
X193050000Y-103950000D01*
X197950000Y-104070000D02*
X197950000Y-103950000D01*
X197950000Y-112130000D02*
X199350000Y-112130000D01*
X197950000Y-112250000D02*
X197950000Y-112130000D01*
X199350000Y-104070000D02*
X197950000Y-104070000D01*
X199350000Y-112130000D02*
X199350000Y-104070000D01*
G04 #@! TO.C,R211*
X176610000Y-65210000D02*
X178470000Y-65210000D01*
X178470000Y-66150000D01*
X176610000Y-66150000D01*
X176610000Y-65210000D01*
G04 #@! TO.C,C101*
X157080000Y-107627499D02*
X158900000Y-107627499D01*
X158900000Y-108547499D01*
X157080000Y-108547499D01*
X157080000Y-107627499D01*
G04 #@! TO.C,C48*
X230240000Y-69090000D02*
X231160000Y-69090000D01*
X231160000Y-70910000D01*
X230240000Y-70910000D01*
X230240000Y-69090000D01*
G04 #@! TO.C,L2*
X225950000Y-86000000D02*
X228550000Y-86000000D01*
X228550000Y-88200000D01*
X225950000Y-88200000D01*
X225950000Y-86000000D01*
G04 #@! TO.C,C106*
X155690000Y-74112858D02*
X157510000Y-74112858D01*
X157510000Y-75032858D01*
X155690000Y-75032858D01*
X155690000Y-74112858D01*
G04 #@! TO.C,C156*
X208770000Y-65830000D02*
X209690000Y-65830000D01*
X209690000Y-67650000D01*
X208770000Y-67650000D01*
X208770000Y-65830000D01*
G04 #@! TO.C,R107*
X209070000Y-106180000D02*
X210470000Y-106180000D01*
X210470000Y-106880000D01*
X209070000Y-106880000D01*
X209070000Y-106180000D01*
G04 #@! TO.C,R70*
X229620002Y-95029998D02*
X231480002Y-95029998D01*
X231480002Y-95969998D01*
X229620002Y-95969998D01*
X229620002Y-95029998D01*
G04 #@! TO.C,D75*
X224330000Y-70510000D02*
X225730000Y-70510000D01*
X225730000Y-71210000D01*
X224330000Y-71210000D01*
X224330000Y-70510000D01*
G04 #@! TO.C,U56*
X167250000Y-103400000D02*
X167250000Y-104860000D01*
X167250000Y-104860000D02*
X167420000Y-104860000D01*
X167420000Y-102680000D02*
X167420000Y-103400000D01*
X167420000Y-103400000D02*
X167250000Y-103400000D01*
X167420000Y-104860000D02*
X167420000Y-105580000D01*
X167420000Y-105580000D02*
X169280000Y-105580000D01*
X169280000Y-102680000D02*
X167420000Y-102680000D01*
X169280000Y-103400000D02*
X169280000Y-102680000D01*
X169280000Y-104860000D02*
X169450000Y-104860000D01*
X169280000Y-105580000D02*
X169280000Y-104860000D01*
X169450000Y-103400000D02*
X169280000Y-103400000D01*
X169450000Y-104860000D02*
X169450000Y-103400000D01*
G04 #@! TO.C,R167*
X223630000Y-69110000D02*
X224330000Y-69110000D01*
X224330000Y-70510000D01*
X223630000Y-70510000D01*
X223630000Y-69110000D01*
G04 #@! TO.C,R139*
X210710000Y-76012500D02*
X212110000Y-76012500D01*
X212110000Y-76712500D01*
X210710000Y-76712500D01*
X210710000Y-76012500D01*
G04 #@! TO.C,C4*
X224268736Y-96481802D02*
X222981802Y-97768736D01*
X222331264Y-97118198D01*
X223618198Y-95831264D01*
X224268736Y-96481802D01*
G04 #@! TO.C,C88*
X225878309Y-78287500D02*
X227838309Y-78287500D01*
X227838309Y-81687500D01*
X225878309Y-81687500D01*
X225878309Y-78287500D01*
G04 #@! TO.C,C6*
X221668736Y-86681802D02*
X220381802Y-87968736D01*
X219731264Y-87318198D01*
X221018198Y-86031264D01*
X221668736Y-86681802D01*
G04 #@! TO.C,U14*
X227350000Y-90817500D02*
X227350000Y-92477500D01*
X227350000Y-92477500D02*
X227800000Y-92477500D01*
X227800000Y-90697500D02*
X227800000Y-90817500D01*
X227800000Y-90817500D02*
X227350000Y-90817500D01*
X227800000Y-92477500D02*
X227800000Y-92597500D01*
X227800000Y-92597500D02*
X229300000Y-92597500D01*
X229300000Y-90697500D02*
X227800000Y-90697500D01*
X229300000Y-90817500D02*
X229300000Y-90697500D01*
X229300000Y-92477500D02*
X229750000Y-92477500D01*
X229300000Y-92597500D02*
X229300000Y-92477500D01*
X229750000Y-90817500D02*
X229300000Y-90817500D01*
X229750000Y-92477500D02*
X229750000Y-90817500D01*
G04 #@! TO.C,R62*
X227920001Y-82730000D02*
X229780001Y-82730000D01*
X229780001Y-83670000D01*
X227920001Y-83670000D01*
X227920001Y-82730000D01*
G04 #@! TO.C,U25*
X191650000Y-65970000D02*
X191650000Y-74030000D01*
X191650000Y-74030000D02*
X193050000Y-74030000D01*
X193050000Y-65850000D02*
X193050000Y-65970000D01*
X193050000Y-65970000D02*
X191650000Y-65970000D01*
X193050000Y-74030000D02*
X193050000Y-74150000D01*
X193050000Y-74150000D02*
X197950000Y-74150000D01*
X197950000Y-65850000D02*
X193050000Y-65850000D01*
X197950000Y-65970000D02*
X197950000Y-65850000D01*
X197950000Y-74030000D02*
X199350000Y-74030000D01*
X197950000Y-74150000D02*
X197950000Y-74030000D01*
X199350000Y-65970000D02*
X197950000Y-65970000D01*
X199350000Y-74030000D02*
X199350000Y-65970000D01*
G04 #@! TO.C,R192*
X168670000Y-106180000D02*
X170070000Y-106180000D01*
X170070000Y-106880000D01*
X168670000Y-106880000D01*
X168670000Y-106180000D01*
G04 #@! TO.C,L7*
X217185000Y-112320000D02*
X219385000Y-112320000D01*
X219385000Y-114920000D01*
X217185000Y-114920000D01*
X217185000Y-112320000D01*
G04 #@! TO.C,D96*
X172070000Y-106890000D02*
X173470000Y-106890000D01*
X173470000Y-107590000D01*
X172070000Y-107590000D01*
X172070000Y-106890000D01*
G04 #@! TO.C,C120*
X199420000Y-105230000D02*
X200340000Y-105230000D01*
X200340000Y-107050000D01*
X199420000Y-107050000D01*
X199420000Y-105230000D01*
G04 #@! TO.C,R57*
X197195000Y-79565000D02*
X199055000Y-79565000D01*
X199055000Y-80505000D01*
X197195000Y-80505000D01*
X197195000Y-79565000D01*
G04 #@! TO.C,C159*
X209690000Y-65830000D02*
X210610000Y-65830000D01*
X210610000Y-67650000D01*
X209690000Y-67650000D01*
X209690000Y-65830000D01*
G04 #@! TO.C,R166*
X220230000Y-69110000D02*
X220930000Y-69110000D01*
X220930000Y-70510000D01*
X220230000Y-70510000D01*
X220230000Y-69110000D01*
G04 #@! TO.C,U50*
X187650000Y-103400000D02*
X187650000Y-104860000D01*
X187650000Y-104860000D02*
X187820000Y-104860000D01*
X187820000Y-102680000D02*
X187820000Y-103400000D01*
X187820000Y-103400000D02*
X187650000Y-103400000D01*
X187820000Y-104860000D02*
X187820000Y-105580000D01*
X187820000Y-105580000D02*
X189680000Y-105580000D01*
X189680000Y-102680000D02*
X187820000Y-102680000D01*
X189680000Y-103400000D02*
X189680000Y-102680000D01*
X189680000Y-104860000D02*
X189850000Y-104860000D01*
X189680000Y-105580000D02*
X189680000Y-104860000D01*
X189850000Y-103400000D02*
X189680000Y-103400000D01*
X189850000Y-104860000D02*
X189850000Y-103400000D01*
G04 #@! TO.C,C74*
X183115000Y-94530000D02*
X184935000Y-94530000D01*
X184935000Y-95450000D01*
X183115000Y-95450000D01*
X183115000Y-94530000D01*
G04 #@! TO.C,R170*
X176570000Y-110810000D02*
X178430000Y-110810000D01*
X178430000Y-111750000D01*
X176570000Y-111750000D01*
X176570000Y-110810000D01*
G04 #@! TO.C,C112*
X155920000Y-96557499D02*
X158880000Y-96557499D01*
X158880000Y-98017499D01*
X155920000Y-98017499D01*
X155920000Y-96557499D01*
G04 #@! TO.C,U35*
X214450000Y-103400000D02*
X214450000Y-104860000D01*
X214450000Y-104860000D02*
X214620000Y-104860000D01*
X214620000Y-102680000D02*
X214620000Y-103400000D01*
X214620000Y-103400000D02*
X214450000Y-103400000D01*
X214620000Y-104860000D02*
X214620000Y-105580000D01*
X214620000Y-105580000D02*
X216480000Y-105580000D01*
X216480000Y-102680000D02*
X214620000Y-102680000D01*
X216480000Y-103400000D02*
X216480000Y-102680000D01*
X216480000Y-104860000D02*
X216650000Y-104860000D01*
X216480000Y-105580000D02*
X216480000Y-104860000D01*
X216650000Y-103400000D02*
X216480000Y-103400000D01*
X216650000Y-104860000D02*
X216650000Y-103400000D01*
G04 #@! TO.C,D10*
X231666400Y-83502000D02*
X231666400Y-88202000D01*
X231666400Y-83502000D02*
X233966400Y-83502000D01*
X231666400Y-88202000D02*
X233966400Y-88202000D01*
X233966400Y-88202000D02*
X233966400Y-83502000D01*
G04 #@! TO.C,C173*
X221240000Y-64380000D02*
X223060000Y-64380000D01*
X223060000Y-65300000D01*
X221240000Y-65300000D01*
X221240000Y-64380000D01*
G04 #@! TO.C,R251*
X186630000Y-69110000D02*
X187330000Y-69110000D01*
X187330000Y-70510000D01*
X186630000Y-70510000D01*
X186630000Y-69110000D01*
G04 #@! TO.C,R37*
X161200000Y-111450000D02*
X161200000Y-109150000D01*
X161200000Y-111450000D02*
X166200000Y-111450000D01*
X166200000Y-109150000D02*
X161200000Y-109150000D01*
X166200000Y-109150000D02*
X166200000Y-111450000D01*
G04 #@! TO.C,NT6*
X225250000Y-90040000D02*
X225250000Y-91900000D01*
X224310000Y-91900000D01*
X224310000Y-90040000D01*
X225250000Y-90040000D01*
G04 #@! TO.C,D107*
X177830000Y-69310000D02*
X177830000Y-70510000D01*
X177830000Y-70510000D02*
X179430000Y-70510000D01*
X179430000Y-69310000D02*
X177830000Y-69310000D01*
X179430000Y-69310000D02*
X179430000Y-70510000D01*
G04 #@! TO.C,C27*
X160261264Y-87188198D02*
X161548198Y-85901264D01*
X162198736Y-86551802D01*
X160911802Y-87838736D01*
X160261264Y-87188198D01*
G04 #@! TO.C,C138*
X217450000Y-105585000D02*
X219270000Y-105585000D01*
X219270000Y-106505000D01*
X217450000Y-106505000D01*
X217450000Y-105585000D01*
G04 #@! TO.C,C80*
X236287757Y-77738795D02*
X239232243Y-79438795D01*
X238252243Y-81136205D01*
X235307757Y-79436205D01*
X236287757Y-77738795D01*
G04 #@! TO.C,C97*
X227020003Y-95699998D02*
X228980003Y-95699998D01*
X228980003Y-99099998D01*
X227020003Y-99099998D01*
X227020003Y-95699998D01*
G04 #@! TO.C,C64*
X194975000Y-86690000D02*
X195675000Y-86690000D01*
X195675000Y-88090000D01*
X194975000Y-88090000D01*
X194975000Y-86690000D01*
G04 #@! TO.C,C203*
X178530000Y-71574400D02*
X180350000Y-71574400D01*
X180350000Y-72494400D01*
X178530000Y-72494400D01*
X178530000Y-71574400D01*
G04 #@! TO.C,R112*
X219970000Y-107590000D02*
X220670000Y-107590000D01*
X220670000Y-108990000D01*
X219970000Y-108990000D01*
X219970000Y-107590000D01*
G04 #@! TO.C,D19*
X161249999Y-108000000D02*
X161249999Y-104800000D01*
X163149999Y-104800000D02*
X161249999Y-104800000D01*
X163149999Y-108000000D02*
X161249999Y-108000000D01*
X163149999Y-108000000D02*
X163149999Y-104800000D01*
G04 #@! TO.C,R224*
X177130000Y-76012500D02*
X178530000Y-76012500D01*
X178530000Y-76712500D01*
X177130000Y-76712500D01*
X177130000Y-76012500D01*
G04 #@! TO.C,C128*
X210646600Y-105585000D02*
X212466600Y-105585000D01*
X212466600Y-106505000D01*
X210646600Y-106505000D01*
X210646600Y-105585000D01*
G04 #@! TO.C,C163*
X208730000Y-71590000D02*
X210550000Y-71590000D01*
X210550000Y-72510000D01*
X208730000Y-72510000D01*
X208730000Y-71590000D01*
G04 #@! TO.C,R194*
X189770000Y-107590000D02*
X190470000Y-107590000D01*
X190470000Y-108990000D01*
X189770000Y-108990000D01*
X189770000Y-107590000D01*
G04 #@! TO.C,L9*
X180185000Y-112320000D02*
X182385000Y-112320000D01*
X182385000Y-114920000D01*
X180185000Y-114920000D01*
X180185000Y-112320000D01*
G04 #@! TO.C,D65*
X208030000Y-69310000D02*
X208030000Y-70510000D01*
X208030000Y-70510000D02*
X209630000Y-70510000D01*
X209630000Y-69310000D02*
X208030000Y-69310000D01*
X209630000Y-69310000D02*
X209630000Y-70510000D01*
G04 #@! TO.C,U36*
X200850000Y-103400000D02*
X200850000Y-104860000D01*
X200850000Y-104860000D02*
X201020000Y-104860000D01*
X201020000Y-102680000D02*
X201020000Y-103400000D01*
X201020000Y-103400000D02*
X200850000Y-103400000D01*
X201020000Y-104860000D02*
X201020000Y-105580000D01*
X201020000Y-105580000D02*
X202880000Y-105580000D01*
X202880000Y-102680000D02*
X201020000Y-102680000D01*
X202880000Y-103400000D02*
X202880000Y-102680000D01*
X202880000Y-104860000D02*
X203050000Y-104860000D01*
X202880000Y-105580000D02*
X202880000Y-104860000D01*
X203050000Y-103400000D02*
X202880000Y-103400000D01*
X203050000Y-104860000D02*
X203050000Y-103400000D01*
G04 #@! TO.C,C62*
X198075000Y-89840000D02*
X199475000Y-89840000D01*
X199475000Y-90540000D01*
X198075000Y-90540000D01*
X198075000Y-89840000D01*
G04 #@! TO.C,D90*
X164370000Y-108790000D02*
X164370000Y-107590000D01*
X164370000Y-108790000D02*
X165970000Y-108790000D01*
X165970000Y-107590000D02*
X164370000Y-107590000D01*
X165970000Y-108790000D02*
X165970000Y-107590000D01*
G04 #@! TO.C,R213*
X173670000Y-67460000D02*
X175530000Y-67460000D01*
X175530000Y-68400000D01*
X173670000Y-68400000D01*
X173670000Y-67460000D01*
G04 #@! TO.C,R93*
X206809999Y-112710000D02*
X207749999Y-112710000D01*
X207749999Y-114570000D01*
X206809999Y-114570000D01*
X206809999Y-112710000D01*
G04 #@! TO.C,C65*
X194975000Y-90690000D02*
X195675000Y-90690000D01*
X195675000Y-92090000D01*
X194975000Y-92090000D01*
X194975000Y-90690000D01*
G04 #@! TO.C,C142*
X228655000Y-111800000D02*
X230055000Y-111800000D01*
X230055000Y-112500000D01*
X228655000Y-112500000D01*
X228655000Y-111800000D01*
G04 #@! TO.C,C175*
X187260000Y-101710000D02*
X189080000Y-101710000D01*
X189080000Y-102630000D01*
X187260000Y-102630000D01*
X187260000Y-101710000D01*
G04 #@! TO.C,R188*
X182270000Y-106180000D02*
X183670000Y-106180000D01*
X183670000Y-106880000D01*
X182270000Y-106880000D01*
X182270000Y-106180000D01*
G04 #@! TO.C,R231*
X173730000Y-71220000D02*
X175130000Y-71220000D01*
X175130000Y-71920000D01*
X173730000Y-71920000D01*
X173730000Y-71220000D01*
G04 #@! TO.C,R149*
X217530000Y-71220000D02*
X218930000Y-71220000D01*
X218930000Y-71920000D01*
X217530000Y-71920000D01*
X217530000Y-71220000D01*
G04 #@! TO.C,C179*
X183840000Y-101710000D02*
X185660000Y-101710000D01*
X185660000Y-102630000D01*
X183840000Y-102630000D01*
X183840000Y-101710000D01*
G04 #@! TO.C,C56*
X194225000Y-89840000D02*
X195625000Y-89840000D01*
X195625000Y-90540000D01*
X194225000Y-90540000D01*
X194225000Y-89840000D01*
G04 #@! TO.C,R124*
X207070000Y-107590000D02*
X207770000Y-107590000D01*
X207770000Y-108990000D01*
X207070000Y-108990000D01*
X207070000Y-107590000D01*
G04 #@! TO.C,R33*
X191000000Y-78550000D02*
X191000000Y-76250000D01*
X191000000Y-78550000D02*
X196000000Y-78550000D01*
X196000000Y-76250000D02*
X191000000Y-76250000D01*
X196000000Y-76250000D02*
X196000000Y-78550000D01*
G04 #@! TO.C,R26*
X164270000Y-83730000D02*
X166130000Y-83730000D01*
X166130000Y-84670000D01*
X164270000Y-84670000D01*
X164270000Y-83730000D01*
G04 #@! TO.C,R85*
X212530000Y-111950000D02*
X214390000Y-111950000D01*
X214390000Y-112890000D01*
X212530000Y-112890000D01*
X212530000Y-111950000D01*
G04 #@! TO.C,FB2*
X161590002Y-78115000D02*
X163050002Y-78115000D01*
X163050002Y-81075000D01*
X161590002Y-81075000D01*
X161590002Y-78115000D01*
G04 #@! TO.C,R241*
X180530000Y-69110000D02*
X181230000Y-69110000D01*
X181230000Y-70510000D01*
X180530000Y-70510000D01*
X180530000Y-69110000D01*
G04 #@! TO.C,C208*
X181930000Y-71574400D02*
X183750000Y-71574400D01*
X183750000Y-72494400D01*
X181930000Y-72494400D01*
X181930000Y-71574400D01*
G04 #@! TO.C,C164*
X222330000Y-71574400D02*
X224150000Y-71574400D01*
X224150000Y-72494400D01*
X222330000Y-72494400D01*
X222330000Y-71574400D01*
G04 #@! TO.C,R39*
X192059200Y-100672800D02*
X193919200Y-100672800D01*
X193919200Y-101612800D01*
X192059200Y-101612800D01*
X192059200Y-100672800D01*
G04 #@! TO.C,C167*
X199000000Y-64280000D02*
X199700000Y-64280000D01*
X199700000Y-65680000D01*
X199000000Y-65680000D01*
X199000000Y-64280000D01*
G04 #@! TO.C,C113*
X154645000Y-80692858D02*
X157605000Y-80692858D01*
X157605000Y-82152858D01*
X154645000Y-82152858D01*
X154645000Y-80692858D01*
G04 #@! TO.C,D45*
X218370000Y-108790000D02*
X218370000Y-107590000D01*
X218370000Y-108790000D02*
X219970000Y-108790000D01*
X219970000Y-107590000D02*
X218370000Y-107590000D01*
X219970000Y-108790000D02*
X219970000Y-107590000D01*
G04 #@! TO.C,U31*
X217850000Y-103400000D02*
X217850000Y-104860000D01*
X217850000Y-104860000D02*
X218020000Y-104860000D01*
X218020000Y-102680000D02*
X218020000Y-103400000D01*
X218020000Y-103400000D02*
X217850000Y-103400000D01*
X218020000Y-104860000D02*
X218020000Y-105580000D01*
X218020000Y-105580000D02*
X219880000Y-105580000D01*
X219880000Y-102680000D02*
X218020000Y-102680000D01*
X219880000Y-103400000D02*
X219880000Y-102680000D01*
X219880000Y-104860000D02*
X220050000Y-104860000D01*
X219880000Y-105580000D02*
X219880000Y-104860000D01*
X220050000Y-103400000D02*
X219880000Y-103400000D01*
X220050000Y-104860000D02*
X220050000Y-103400000D01*
G04 #@! TO.C,C204*
X168330000Y-75420000D02*
X170150000Y-75420000D01*
X170150000Y-76340000D01*
X168330000Y-76340000D01*
X168330000Y-75420000D01*
G04 #@! TO.C,R133*
X204030001Y-63210000D02*
X204970001Y-63210000D01*
X204970001Y-65070000D01*
X204030001Y-65070000D01*
X204030001Y-63210000D01*
G04 #@! TO.C,D21*
X191000000Y-74250000D02*
X191000000Y-76150000D01*
X194200000Y-74250000D02*
X191000000Y-74250000D01*
X194200000Y-74250000D02*
X194200000Y-76150000D01*
X194200000Y-76150000D02*
X191000000Y-76150000D01*
G04 #@! TO.C,U69*
X162750000Y-64040000D02*
X162750000Y-65940000D01*
X162750000Y-65940000D02*
X164250000Y-65940000D01*
X164250000Y-64040000D02*
X162750000Y-64040000D01*
X164250000Y-65940000D02*
X164250000Y-64040000D01*
G04 #@! TO.C,R104*
X219270000Y-106180000D02*
X220670000Y-106180000D01*
X220670000Y-106880000D01*
X219270000Y-106880000D01*
X219270000Y-106180000D01*
G04 #@! TO.C,C108*
X155920000Y-101057500D02*
X158880000Y-101057500D01*
X158880000Y-102517500D01*
X155920000Y-102517500D01*
X155920000Y-101057500D01*
G04 #@! TO.C,C158*
X218930000Y-71600000D02*
X220750000Y-71600000D01*
X220750000Y-72520000D01*
X218930000Y-72520000D01*
X218930000Y-71600000D01*
G04 #@! TO.C,R248*
X176430000Y-69110000D02*
X177130000Y-69110000D01*
X177130000Y-70510000D01*
X176430000Y-70510000D01*
X176430000Y-69110000D01*
G04 #@! TO.C,C165*
X199590000Y-63070000D02*
X201410000Y-63070000D01*
X201410000Y-63990000D01*
X199590000Y-63990000D01*
X199590000Y-63070000D01*
G04 #@! TO.C,D84*
X184770000Y-108790000D02*
X184770000Y-107590000D01*
X184770000Y-108790000D02*
X186370000Y-108790000D01*
X186370000Y-107590000D02*
X184770000Y-107590000D01*
X186370000Y-108790000D02*
X186370000Y-107590000D01*
G04 #@! TO.C,R101*
X202270000Y-101387500D02*
X203670000Y-101387500D01*
X203670000Y-102087500D01*
X202270000Y-102087500D01*
X202270000Y-101387500D01*
G04 #@! TO.C,L4*
X227700001Y-99199997D02*
X230300001Y-99199997D01*
X230300001Y-101399997D01*
X227700001Y-101399997D01*
X227700001Y-99199997D01*
G04 #@! TO.C,R209*
X166670000Y-107590000D02*
X167370000Y-107590000D01*
X167370000Y-108990000D01*
X166670000Y-108990000D01*
X166670000Y-107590000D01*
G04 #@! TO.C,C145*
X214050000Y-105585000D02*
X215870000Y-105585000D01*
X215870000Y-106505000D01*
X214050000Y-106505000D01*
X214050000Y-105585000D01*
G04 #@! TO.C,U62*
X164150000Y-73240000D02*
X164150000Y-74700000D01*
X164150000Y-74700000D02*
X164320000Y-74700000D01*
X164320000Y-72520000D02*
X164320000Y-73240000D01*
X164320000Y-73240000D02*
X164150000Y-73240000D01*
X164320000Y-74700000D02*
X164320000Y-75420000D01*
X164320000Y-75420000D02*
X166180000Y-75420000D01*
X166180000Y-72520000D02*
X164320000Y-72520000D01*
X166180000Y-73240000D02*
X166180000Y-72520000D01*
X166180000Y-74700000D02*
X166350000Y-74700000D01*
X166180000Y-75420000D02*
X166180000Y-74700000D01*
X166350000Y-73240000D02*
X166180000Y-73240000D01*
X166350000Y-74700000D02*
X166350000Y-73240000D01*
G04 #@! TO.C,R206*
X176870000Y-107590000D02*
X177570000Y-107590000D01*
X177570000Y-108990000D01*
X176870000Y-108990000D01*
X176870000Y-107590000D01*
G04 #@! TO.C,D86*
X177970000Y-108790000D02*
X177970000Y-107590000D01*
X177970000Y-108790000D02*
X179570000Y-108790000D01*
X179570000Y-107590000D02*
X177970000Y-107590000D01*
X179570000Y-108790000D02*
X179570000Y-107590000D01*
G04 #@! TO.C,C55*
X189690000Y-63540000D02*
X191510000Y-63540000D01*
X191510000Y-64460000D01*
X189690000Y-64460000D01*
X189690000Y-63540000D01*
G04 #@! TO.C,C192*
X189950000Y-110710000D02*
X190650000Y-110710000D01*
X190650000Y-112110000D01*
X189950000Y-112110000D01*
X189950000Y-110710000D01*
G04 #@! TO.C,D36*
X211415400Y-79776000D02*
X211415400Y-82276000D01*
X211415400Y-82276000D02*
X212815400Y-82276000D01*
X212815400Y-79776000D02*
X211415400Y-79776000D01*
X212815400Y-82276000D02*
X212815400Y-79776000D01*
G04 #@! TO.C,R95*
X222670000Y-101387500D02*
X224070000Y-101387500D01*
X224070000Y-102087500D01*
X222670000Y-102087500D01*
X222670000Y-101387500D01*
G04 #@! TO.C,D95*
X165270000Y-106890000D02*
X166670000Y-106890000D01*
X166670000Y-107590000D01*
X165270000Y-107590000D01*
X165270000Y-106890000D01*
G04 #@! TO.C,R162*
X206630000Y-69110000D02*
X207330000Y-69110000D01*
X207330000Y-70510000D01*
X206630000Y-70510000D01*
X206630000Y-69110000D01*
G04 #@! TO.C,D55*
X202270000Y-106890000D02*
X203670000Y-106890000D01*
X203670000Y-107590000D01*
X202270000Y-107590000D01*
X202270000Y-106890000D01*
G04 #@! TO.C,C195*
X177042400Y-105585000D02*
X178862400Y-105585000D01*
X178862400Y-106505000D01*
X177042400Y-106505000D01*
X177042400Y-105585000D01*
G04 #@! TO.C,C110*
X155920000Y-99557497D02*
X158880000Y-99557497D01*
X158880000Y-101017497D01*
X155920000Y-101017497D01*
X155920000Y-99557497D01*
G04 #@! TO.C,R234*
X183930000Y-71220000D02*
X185330000Y-71220000D01*
X185330000Y-71920000D01*
X183930000Y-71920000D01*
X183930000Y-71220000D01*
G04 #@! TO.C,C129*
X220850000Y-101749600D02*
X222670000Y-101749600D01*
X222670000Y-102669600D01*
X220850000Y-102669600D01*
X220850000Y-101749600D01*
G04 #@! TO.C,R198*
X176170000Y-107590000D02*
X176870000Y-107590000D01*
X176870000Y-108990000D01*
X176170000Y-108990000D01*
X176170000Y-107590000D01*
G04 #@! TO.C,R27*
X161270000Y-92630000D02*
X163130000Y-92630000D01*
X163130000Y-93570000D01*
X161270000Y-93570000D01*
X161270000Y-92630000D01*
G04 #@! TO.C,R97*
X215870000Y-101387500D02*
X217270000Y-101387500D01*
X217270000Y-102087500D01*
X215870000Y-102087500D01*
X215870000Y-101387500D01*
G04 #@! TO.C,C63*
X194225000Y-89040000D02*
X195625000Y-89040000D01*
X195625000Y-89740000D01*
X194225000Y-89740000D01*
X194225000Y-89040000D01*
G04 #@! TO.C,D69*
X221630000Y-69310000D02*
X221630000Y-70510000D01*
X221630000Y-70510000D02*
X223230000Y-70510000D01*
X223230000Y-69310000D02*
X221630000Y-69310000D01*
X223230000Y-69310000D02*
X223230000Y-70510000D01*
G04 #@! TO.C,D58*
X226070000Y-106890000D02*
X227470000Y-106890000D01*
X227470000Y-107590000D01*
X226070000Y-107590000D01*
X226070000Y-106890000D01*
G04 #@! TO.C,R134*
X201420000Y-63790000D02*
X202360000Y-63790000D01*
X202360000Y-65650000D01*
X201420000Y-65650000D01*
X201420000Y-63790000D01*
G04 #@! TO.C,C94*
X233389999Y-99752499D02*
X234309999Y-99752499D01*
X234309999Y-101572499D01*
X233389999Y-101572499D01*
X233389999Y-99752499D01*
G04 #@! TO.C,U63*
X177750000Y-73240000D02*
X177750000Y-74700000D01*
X177750000Y-74700000D02*
X177920000Y-74700000D01*
X177920000Y-72520000D02*
X177920000Y-73240000D01*
X177920000Y-73240000D02*
X177750000Y-73240000D01*
X177920000Y-74700000D02*
X177920000Y-75420000D01*
X177920000Y-75420000D02*
X179780000Y-75420000D01*
X179780000Y-72520000D02*
X177920000Y-72520000D01*
X179780000Y-73240000D02*
X179780000Y-72520000D01*
X179780000Y-74700000D02*
X179950000Y-74700000D01*
X179780000Y-75420000D02*
X179780000Y-74700000D01*
X179950000Y-73240000D02*
X179780000Y-73240000D01*
X179950000Y-74700000D02*
X179950000Y-73240000D01*
G04 #@! TO.C,NT8*
X235250001Y-95630000D02*
X233390001Y-95630000D01*
X233390001Y-94690000D01*
X235250001Y-94690000D01*
X235250001Y-95630000D01*
G04 #@! TO.C,U51*
X174050000Y-103400000D02*
X174050000Y-104860000D01*
X174050000Y-104860000D02*
X174220000Y-104860000D01*
X174220000Y-102680000D02*
X174220000Y-103400000D01*
X174220000Y-103400000D02*
X174050000Y-103400000D01*
X174220000Y-104860000D02*
X174220000Y-105580000D01*
X174220000Y-105580000D02*
X176080000Y-105580000D01*
X176080000Y-102680000D02*
X174220000Y-102680000D01*
X176080000Y-103400000D02*
X176080000Y-102680000D01*
X176080000Y-104860000D02*
X176250000Y-104860000D01*
X176080000Y-105580000D02*
X176080000Y-104860000D01*
X176250000Y-103400000D02*
X176080000Y-103400000D01*
X176250000Y-104860000D02*
X176250000Y-103400000D01*
G04 #@! TO.C,NT17*
X156140000Y-96480000D02*
X156140000Y-94620000D01*
X157080000Y-94620000D01*
X157080000Y-96480000D01*
X156140000Y-96480000D01*
G04 #@! TO.C,U67*
X170950000Y-73240000D02*
X170950000Y-74700000D01*
X170950000Y-74700000D02*
X171120000Y-74700000D01*
X171120000Y-72520000D02*
X171120000Y-73240000D01*
X171120000Y-73240000D02*
X170950000Y-73240000D01*
X171120000Y-74700000D02*
X171120000Y-75420000D01*
X171120000Y-75420000D02*
X172980000Y-75420000D01*
X172980000Y-72520000D02*
X171120000Y-72520000D01*
X172980000Y-73240000D02*
X172980000Y-72520000D01*
X172980000Y-74700000D02*
X173150000Y-74700000D01*
X172980000Y-75420000D02*
X172980000Y-74700000D01*
X173150000Y-73240000D02*
X172980000Y-73240000D01*
X173150000Y-74700000D02*
X173150000Y-73240000D01*
G04 #@! TO.C,NT7*
X230530000Y-99070000D02*
X231470000Y-99070000D01*
X231470000Y-100930000D01*
X230530000Y-100930000D01*
X230530000Y-99070000D01*
G04 #@! TO.C,C191*
X174190000Y-114040000D02*
X176010000Y-114040000D01*
X176010000Y-114960000D01*
X174190000Y-114960000D01*
X174190000Y-114040000D01*
G04 #@! TO.C,R35*
X199380000Y-113150000D02*
X199380000Y-110850000D01*
X199380000Y-113150000D02*
X204380000Y-113150000D01*
X204380000Y-110850000D02*
X199380000Y-110850000D01*
X204380000Y-110850000D02*
X204380000Y-113150000D01*
G04 #@! TO.C,C188*
X180450000Y-105585000D02*
X182270000Y-105585000D01*
X182270000Y-106505000D01*
X180450000Y-106505000D01*
X180450000Y-105585000D01*
G04 #@! TO.C,C118*
X194225000Y-88240000D02*
X195625000Y-88240000D01*
X195625000Y-88940000D01*
X194225000Y-88940000D01*
X194225000Y-88240000D01*
G04 #@! TO.C,R217*
X167030001Y-63210000D02*
X167970001Y-63210000D01*
X167970001Y-65070000D01*
X167030001Y-65070000D01*
X167030001Y-63210000D01*
G04 #@! TO.C,D110*
X188030000Y-69310000D02*
X188030000Y-70510000D01*
X188030000Y-70510000D02*
X189630000Y-70510000D01*
X189630000Y-69310000D02*
X188030000Y-69310000D01*
X189630000Y-69310000D02*
X189630000Y-70510000D01*
G04 #@! TO.C,C102*
X157080000Y-106677500D02*
X158900000Y-106677500D01*
X158900000Y-107597500D01*
X157080000Y-107597500D01*
X157080000Y-106677500D01*
G04 #@! TO.C,U66*
X181150000Y-73240000D02*
X181150000Y-74700000D01*
X181150000Y-74700000D02*
X181320000Y-74700000D01*
X181320000Y-72520000D02*
X181320000Y-73240000D01*
X181320000Y-73240000D02*
X181150000Y-73240000D01*
X181320000Y-74700000D02*
X181320000Y-75420000D01*
X181320000Y-75420000D02*
X183180000Y-75420000D01*
X183180000Y-72520000D02*
X181320000Y-72520000D01*
X183180000Y-73240000D02*
X183180000Y-72520000D01*
X183180000Y-74700000D02*
X183350000Y-74700000D01*
X183180000Y-75420000D02*
X183180000Y-74700000D01*
X183350000Y-73240000D02*
X183180000Y-73240000D01*
X183350000Y-74700000D02*
X183350000Y-73240000D01*
G04 #@! TO.C,R131*
X205010000Y-63210000D02*
X205950000Y-63210000D01*
X205950000Y-65070000D01*
X205010000Y-65070000D01*
X205010000Y-63210000D01*
G04 #@! TO.C,R109*
X202270000Y-106190000D02*
X203670000Y-106190000D01*
X203670000Y-106890000D01*
X202270000Y-106890000D01*
X202270000Y-106190000D01*
G04 #@! TO.C,R187*
X185670000Y-106180000D02*
X187070000Y-106180000D01*
X187070000Y-106880000D01*
X185670000Y-106880000D01*
X185670000Y-106180000D01*
G04 #@! TO.C,R32*
X160850000Y-99800000D02*
X160850000Y-104800000D01*
X160850000Y-99800000D02*
X163150000Y-99800000D01*
X163150000Y-104800000D02*
X160850000Y-104800000D01*
X163150000Y-104800000D02*
X163150000Y-99800000D01*
G04 #@! TO.C,C143*
X214050000Y-101749600D02*
X215870000Y-101749600D01*
X215870000Y-102669600D01*
X214050000Y-102669600D01*
X214050000Y-101749600D01*
G04 #@! TO.C,U55*
X180850000Y-103400000D02*
X180850000Y-104860000D01*
X180850000Y-104860000D02*
X181020000Y-104860000D01*
X181020000Y-102680000D02*
X181020000Y-103400000D01*
X181020000Y-103400000D02*
X180850000Y-103400000D01*
X181020000Y-104860000D02*
X181020000Y-105580000D01*
X181020000Y-105580000D02*
X182880000Y-105580000D01*
X182880000Y-102680000D02*
X181020000Y-102680000D01*
X182880000Y-103400000D02*
X182880000Y-102680000D01*
X182880000Y-104860000D02*
X183050000Y-104860000D01*
X182880000Y-105580000D02*
X182880000Y-104860000D01*
X183050000Y-103400000D02*
X182880000Y-103400000D01*
X183050000Y-104860000D02*
X183050000Y-103400000D01*
G04 #@! TO.C,C59*
X196625000Y-89840000D02*
X198025000Y-89840000D01*
X198025000Y-90540000D01*
X196625000Y-90540000D01*
X196625000Y-89840000D01*
G04 #@! TO.C,R55*
X194870000Y-85030000D02*
X196730000Y-85030000D01*
X196730000Y-85970000D01*
X194870000Y-85970000D01*
X194870000Y-85030000D01*
G04 #@! TO.C,C153*
X215530000Y-71600000D02*
X217350000Y-71600000D01*
X217350000Y-72520000D01*
X215530000Y-72520000D01*
X215530000Y-71600000D01*
G04 #@! TO.C,R132*
X202600000Y-65070000D02*
X202600000Y-67330000D01*
X202600000Y-67330000D02*
X207160000Y-67330000D01*
X207160000Y-65070000D02*
X202600000Y-65070000D01*
X207160000Y-67330000D02*
X207160000Y-65070000D01*
G04 #@! TO.C,U43*
X207950000Y-73240000D02*
X207950000Y-74700000D01*
X207950000Y-74700000D02*
X208120000Y-74700000D01*
X208120000Y-72520000D02*
X208120000Y-73240000D01*
X208120000Y-73240000D02*
X207950000Y-73240000D01*
X208120000Y-74700000D02*
X208120000Y-75420000D01*
X208120000Y-75420000D02*
X209980000Y-75420000D01*
X209980000Y-72520000D02*
X208120000Y-72520000D01*
X209980000Y-73240000D02*
X209980000Y-72520000D01*
X209980000Y-74700000D02*
X210150000Y-74700000D01*
X209980000Y-75420000D02*
X209980000Y-74700000D01*
X210150000Y-73240000D02*
X209980000Y-73240000D01*
X210150000Y-74700000D02*
X210150000Y-73240000D01*
G04 #@! TO.C,R171*
X178470000Y-109630000D02*
X180330000Y-109630000D01*
X180330000Y-110570000D01*
X178470000Y-110570000D01*
X178470000Y-109630000D01*
G04 #@! TO.C,R75*
X156070000Y-95410000D02*
X154210000Y-95410000D01*
X154210000Y-94470000D01*
X156070000Y-94470000D01*
X156070000Y-95410000D01*
G04 #@! TO.C,C168*
X212120000Y-75430000D02*
X213940000Y-75430000D01*
X213940000Y-76350000D01*
X212120000Y-76350000D01*
X212120000Y-75430000D01*
G04 #@! TO.C,R66*
X228888310Y-76407500D02*
X229828310Y-76407500D01*
X229828310Y-78267500D01*
X228888310Y-78267500D01*
X228888310Y-76407500D01*
G04 #@! TO.C,R185*
X165270000Y-101387500D02*
X166670000Y-101387500D01*
X166670000Y-102087500D01*
X165270000Y-102087500D01*
X165270000Y-101387500D01*
G04 #@! TO.C,NT3*
X229249427Y-87935893D02*
X230564645Y-86620675D01*
X231229325Y-87285355D01*
X229914107Y-88600573D01*
X229249427Y-87935893D01*
G04 #@! TO.C,R116*
X206370000Y-107590000D02*
X207070000Y-107590000D01*
X207070000Y-108990000D01*
X206370000Y-108990000D01*
X206370000Y-107590000D01*
G04 #@! TO.C,R173*
X185050000Y-113030000D02*
X185990000Y-113030000D01*
X185990000Y-114890000D01*
X185050000Y-114890000D01*
X185050000Y-113030000D01*
G04 #@! TO.C,U34*
X207850000Y-110499999D02*
X207850000Y-113999999D01*
X207850000Y-113999999D02*
X208200000Y-113999999D01*
X208200000Y-109119999D02*
X208200000Y-110499999D01*
X208200000Y-110499999D02*
X207850000Y-110499999D01*
X208200000Y-113999999D02*
X208200000Y-115379999D01*
X208200000Y-115379999D02*
X211000000Y-115379999D01*
X211000000Y-109119999D02*
X208200000Y-109119999D01*
X211000000Y-110499999D02*
X211000000Y-109119999D01*
X211000000Y-113999999D02*
X211350000Y-113999999D01*
X211000000Y-115379999D02*
X211000000Y-113999999D01*
X211350000Y-110499999D02*
X211000000Y-110499999D01*
X211350000Y-113999999D02*
X211350000Y-110499999D01*
G04 #@! TO.C,R130*
X210670000Y-66590000D02*
X212530000Y-66590000D01*
X212530000Y-67530000D01*
X210670000Y-67530000D01*
X210670000Y-66590000D01*
G04 #@! TO.C,C200*
X164960000Y-75420000D02*
X166780000Y-75420000D01*
X166780000Y-76340000D01*
X164960000Y-76340000D01*
X164960000Y-75420000D01*
G04 #@! TO.C,D89*
X167770000Y-108790000D02*
X167770000Y-107590000D01*
X167770000Y-108790000D02*
X169370000Y-108790000D01*
X169370000Y-107590000D02*
X167770000Y-107590000D01*
X169370000Y-108790000D02*
X169370000Y-107590000D01*
G04 #@! TO.C,C99*
X167210002Y-81245000D02*
X169030002Y-81245000D01*
X169030002Y-82165000D01*
X167210002Y-82165000D01*
X167210002Y-81245000D01*
G04 #@! TO.C,C125*
X224250000Y-101749600D02*
X226070000Y-101749600D01*
X226070000Y-102669600D01*
X224250000Y-102669600D01*
X224250000Y-101749600D01*
G04 #@! TO.C,D79*
X194250000Y-63450000D02*
X194250000Y-65750000D01*
X194250000Y-65750000D02*
X198950000Y-65750000D01*
X198950000Y-63450000D02*
X194250000Y-63450000D01*
X198950000Y-63450000D02*
X198950000Y-65750000D01*
G04 #@! TO.C,C54*
X161190000Y-108140000D02*
X163010000Y-108140000D01*
X163010000Y-109060000D01*
X161190000Y-109060000D01*
X161190000Y-108140000D01*
G04 #@! TO.C,C105*
X154745000Y-72592858D02*
X157705000Y-72592858D01*
X157705000Y-74052858D01*
X154745000Y-74052858D01*
X154745000Y-72592858D01*
G04 #@! TO.C,C197*
X167390000Y-109540000D02*
X169210000Y-109540000D01*
X169210000Y-110460000D01*
X167390000Y-110460000D01*
X167390000Y-109540000D01*
G04 #@! TO.C,R212*
X175530000Y-66320000D02*
X176470000Y-66320000D01*
X176470000Y-68180000D01*
X175530000Y-68180000D01*
X175530000Y-66320000D01*
G04 #@! TO.C,R243*
X187330000Y-69110000D02*
X188030000Y-69110000D01*
X188030000Y-70510000D01*
X187330000Y-70510000D01*
X187330000Y-69110000D01*
G04 #@! TO.C,C183*
X170250000Y-105585000D02*
X172070000Y-105585000D01*
X172070000Y-106505000D01*
X170250000Y-106505000D01*
X170250000Y-105585000D01*
G04 #@! TO.C,C170*
X212130000Y-71600000D02*
X213950000Y-71600000D01*
X213950000Y-72520000D01*
X212130000Y-72520000D01*
X212130000Y-71600000D01*
G04 #@! TO.C,D108*
X181230000Y-69310000D02*
X181230000Y-70510000D01*
X181230000Y-70510000D02*
X182830000Y-70510000D01*
X182830000Y-69310000D02*
X181230000Y-69310000D01*
X182830000Y-69310000D02*
X182830000Y-70510000D01*
G04 #@! TO.C,D71*
X203930000Y-70510000D02*
X205330000Y-70510000D01*
X205330000Y-71210000D01*
X203930000Y-71210000D01*
X203930000Y-70510000D01*
G04 #@! TO.C,C148*
X204940000Y-112780000D02*
X206760000Y-112780000D01*
X206760000Y-113700000D01*
X204940000Y-113700000D01*
X204940000Y-112780000D01*
G04 #@! TO.C,C131*
X218310000Y-110450000D02*
X219230000Y-110450000D01*
X219230000Y-112270000D01*
X218310000Y-112270000D01*
X218310000Y-110450000D01*
G04 #@! TO.C,D113*
X177130000Y-70510000D02*
X178530000Y-70510000D01*
X178530000Y-71210000D01*
X177130000Y-71210000D01*
X177130000Y-70510000D01*
G04 #@! TO.C,R147*
X210730000Y-71220000D02*
X212130000Y-71220000D01*
X212130000Y-71920000D01*
X210730000Y-71920000D01*
X210730000Y-71220000D01*
G04 #@! TO.C,R140*
X214130000Y-76012500D02*
X215530000Y-76012500D01*
X215530000Y-76712500D01*
X214130000Y-76712500D01*
X214130000Y-76012500D01*
G04 #@! TO.C,C181*
X181310000Y-110450000D02*
X182230000Y-110450000D01*
X182230000Y-112270000D01*
X181310000Y-112270000D01*
X181310000Y-110450000D01*
G04 #@! TO.C,U49*
X220710001Y-65560000D02*
X220710001Y-67420000D01*
X220710001Y-67420000D02*
X221430001Y-67420000D01*
X221430001Y-65390000D02*
X221430001Y-65560000D01*
X221430001Y-65560000D02*
X220710001Y-65560000D01*
X221430001Y-67420000D02*
X221430001Y-67590000D01*
X221430001Y-67590000D02*
X222890001Y-67590000D01*
X222890001Y-65390000D02*
X221430001Y-65390000D01*
X222890001Y-65560000D02*
X222890001Y-65390000D01*
X222890001Y-66120000D02*
X223610001Y-66120000D01*
X222890001Y-66860000D02*
X222890001Y-66120000D01*
X222890001Y-67420000D02*
X223610001Y-67420000D01*
X222890001Y-67590000D02*
X222890001Y-67420000D01*
X223610001Y-65560000D02*
X222890001Y-65560000D01*
X223610001Y-66120000D02*
X223610001Y-65560000D01*
X223610001Y-66860000D02*
X222890001Y-66860000D01*
X223610001Y-67420000D02*
X223610001Y-66860000D01*
G04 #@! TO.C,R110*
X226770000Y-107590000D02*
X227470000Y-107590000D01*
X227470000Y-108990000D01*
X226770000Y-108990000D01*
X226770000Y-107590000D01*
G04 #@! TO.C,TP5*
X159825000Y-84422858D02*
G75*
G02*
X157825000Y-84422858I-1000000J0D01*
G01*
X157825000Y-84422858D02*
G75*
G02*
X159825000Y-84422858I1000000J0D01*
G01*
G04 #@! TO.C,NT13*
X224956175Y-98250403D02*
X226498184Y-97210303D01*
X227023825Y-97989597D01*
X225481816Y-99029697D01*
X224956175Y-98250403D01*
G04 #@! TO.C,R86*
X213570000Y-110810000D02*
X215430000Y-110810000D01*
X215430000Y-111750000D01*
X213570000Y-111750000D01*
X213570000Y-110810000D01*
G04 #@! TO.C,C176*
X173650000Y-101749600D02*
X175470000Y-101749600D01*
X175470000Y-102669600D01*
X173650000Y-102669600D01*
X173650000Y-101749600D01*
G04 #@! TO.C,C60*
X198175000Y-86685000D02*
X198875000Y-86685000D01*
X198875000Y-88085000D01*
X198175000Y-88085000D01*
X198175000Y-86685000D01*
G04 #@! TO.C,R98*
X212470000Y-101387500D02*
X213870000Y-101387500D01*
X213870000Y-102087500D01*
X212470000Y-102087500D01*
X212470000Y-101387500D01*
G04 #@! TO.C,C209*
X172690000Y-65830000D02*
X173610000Y-65830000D01*
X173610000Y-67650000D01*
X172690000Y-67650000D01*
X172690000Y-65830000D01*
G04 #@! TO.C,R175*
X186029999Y-113030000D02*
X186969999Y-113030000D01*
X186969999Y-114890000D01*
X186029999Y-114890000D01*
X186029999Y-113030000D01*
G04 #@! TO.C,R238*
X170330000Y-69110000D02*
X171030000Y-69110000D01*
X171030000Y-70510000D01*
X170330000Y-70510000D01*
X170330000Y-69110000D01*
G04 #@! TO.C,NT9*
X226479999Y-78290000D02*
X228339999Y-78290000D01*
X228339999Y-77350000D01*
X226479999Y-77350000D01*
X226479999Y-78290000D01*
G04 #@! TO.C,R216*
X165600000Y-65070000D02*
X165600000Y-67330000D01*
X165600000Y-67330000D02*
X170160000Y-67330000D01*
X170160000Y-65070000D02*
X165600000Y-65070000D01*
X170160000Y-67330000D02*
X170160000Y-65070000D01*
G04 #@! TO.C,R152*
X200530000Y-69110000D02*
X201230000Y-69110000D01*
X201230000Y-70510000D01*
X200530000Y-70510000D01*
X200530000Y-69110000D01*
G04 #@! TO.C,R120*
X220670000Y-107590000D02*
X221370000Y-107590000D01*
X221370000Y-108990000D01*
X220670000Y-108990000D01*
X220670000Y-107590000D01*
G04 #@! TO.C,R99*
X209070000Y-101387500D02*
X210470000Y-101387500D01*
X210470000Y-102087500D01*
X209070000Y-102087500D01*
X209070000Y-101387500D01*
G04 #@! TO.C,R61*
X227920000Y-81730000D02*
X229780000Y-81730000D01*
X229780000Y-82670000D01*
X227920000Y-82670000D01*
X227920000Y-81730000D01*
G04 #@! TO.C,R64*
X227920000Y-89457501D02*
X229780000Y-89457501D01*
X229780000Y-90397501D01*
X227920000Y-90397501D01*
X227920000Y-89457501D01*
G04 #@! TO.C,R155*
X210730000Y-69110000D02*
X211430000Y-69110000D01*
X211430000Y-70510000D01*
X210730000Y-70510000D01*
X210730000Y-69110000D01*
G04 #@! TO.C,U57*
X189750000Y-112160000D02*
X189750000Y-114060000D01*
X189750000Y-114060000D02*
X191250000Y-114060000D01*
X191250000Y-112160000D02*
X189750000Y-112160000D01*
X191250000Y-114060000D02*
X191250000Y-112160000D01*
G04 #@! TO.C,R203*
X187070000Y-107590000D02*
X187770000Y-107590000D01*
X187770000Y-108990000D01*
X187070000Y-108990000D01*
X187070000Y-107590000D01*
G04 #@! TO.C,NT15*
X159530000Y-75780000D02*
X157670000Y-75780000D01*
X157670000Y-74840000D01*
X159530000Y-74840000D01*
X159530000Y-75780000D01*
G04 #@! TO.C,NT2*
X238740000Y-82259999D02*
X238740000Y-80399999D01*
X239680000Y-80399999D01*
X239680000Y-82259999D01*
X238740000Y-82259999D01*
G04 #@! TO.C,D52*
X215870000Y-106890000D02*
X217270000Y-106890000D01*
X217270000Y-107590000D01*
X215870000Y-107590000D01*
X215870000Y-106890000D01*
G04 #@! TO.C,D92*
X178870000Y-106890000D02*
X180270000Y-106890000D01*
X180270000Y-107590000D01*
X178870000Y-107590000D01*
X178870000Y-106890000D01*
G04 #@! TO.C,R129*
X210670000Y-67530000D02*
X212530000Y-67530000D01*
X212530000Y-68470000D01*
X210670000Y-68470000D01*
X210670000Y-67530000D01*
G04 #@! TO.C,C187*
X166850000Y-101749600D02*
X168670000Y-101749600D01*
X168670000Y-102669600D01*
X166850000Y-102669600D01*
X166850000Y-101749600D01*
G04 #@! TO.C,U32*
X204250000Y-103400000D02*
X204250000Y-104860000D01*
X204250000Y-104860000D02*
X204420000Y-104860000D01*
X204420000Y-102680000D02*
X204420000Y-103400000D01*
X204420000Y-103400000D02*
X204250000Y-103400000D01*
X204420000Y-104860000D02*
X204420000Y-105580000D01*
X204420000Y-105580000D02*
X206280000Y-105580000D01*
X206280000Y-102680000D02*
X204420000Y-102680000D01*
X206280000Y-103400000D02*
X206280000Y-102680000D01*
X206280000Y-104860000D02*
X206450000Y-104860000D01*
X206280000Y-105580000D02*
X206280000Y-104860000D01*
X206450000Y-103400000D02*
X206280000Y-103400000D01*
X206450000Y-104860000D02*
X206450000Y-103400000D01*
G04 #@! TO.C,D18*
X224450000Y-63500000D02*
X224450000Y-66700000D01*
X224450000Y-63500000D02*
X226350000Y-63500000D01*
X224450000Y-66700000D02*
X226350000Y-66700000D01*
X226350000Y-63500000D02*
X226350000Y-66700000D01*
G04 #@! TO.C,C218*
X175130000Y-75420000D02*
X176950000Y-75420000D01*
X176950000Y-76340000D01*
X175130000Y-76340000D01*
X175130000Y-75420000D01*
G04 #@! TO.C,R245*
X166230000Y-69110000D02*
X166930000Y-69110000D01*
X166930000Y-70510000D01*
X166230000Y-70510000D01*
X166230000Y-69110000D01*
G04 #@! TO.C,C66*
X195775000Y-86690000D02*
X196475000Y-86690000D01*
X196475000Y-88090000D01*
X195775000Y-88090000D01*
X195775000Y-86690000D01*
G04 #@! TO.C,R204*
X183670000Y-107590000D02*
X184370000Y-107590000D01*
X184370000Y-108990000D01*
X183670000Y-108990000D01*
X183670000Y-107590000D01*
G04 #@! TO.C,NT4*
X231690001Y-94370000D02*
X229830001Y-94370000D01*
X229830001Y-93430000D01*
X231690001Y-93430000D01*
X231690001Y-94370000D01*
G04 #@! TO.C,R207*
X173470000Y-107590000D02*
X174170000Y-107590000D01*
X174170000Y-108990000D01*
X173470000Y-108990000D01*
X173470000Y-107590000D01*
G04 #@! TO.C,NT14*
X159090000Y-108369999D02*
X159090000Y-106509999D01*
X160030000Y-106509999D01*
X160030000Y-108369999D01*
X159090000Y-108369999D01*
G04 #@! TO.C,R189*
X178870000Y-106180000D02*
X180270000Y-106180000D01*
X180270000Y-106880000D01*
X178870000Y-106880000D01*
X178870000Y-106180000D01*
G04 #@! TO.C,R169*
X175530000Y-111950000D02*
X177390000Y-111950000D01*
X177390000Y-112890000D01*
X175530000Y-112890000D01*
X175530000Y-111950000D01*
G04 #@! TO.C,R197*
X179570000Y-107590000D02*
X180270000Y-107590000D01*
X180270000Y-108990000D01*
X179570000Y-108990000D01*
X179570000Y-107590000D01*
G04 #@! TO.C,C67*
X198075000Y-89040000D02*
X199475000Y-89040000D01*
X199475000Y-89740000D01*
X198075000Y-89740000D01*
X198075000Y-89040000D01*
G04 #@! TO.C,R38*
X186630000Y-66800000D02*
X186630000Y-64500000D01*
X186630000Y-66800000D02*
X191630000Y-66800000D01*
X191630000Y-64500000D02*
X186630000Y-64500000D01*
X191630000Y-64500000D02*
X191630000Y-66800000D01*
G04 #@! TO.C,C114*
X155920000Y-98057499D02*
X158880000Y-98057499D01*
X158880000Y-99517499D01*
X155920000Y-99517499D01*
X155920000Y-98057499D01*
G04 #@! TO.C,C171*
X225730000Y-71574400D02*
X227550000Y-71574400D01*
X227550000Y-72494400D01*
X225730000Y-72494400D01*
X225730000Y-71574400D01*
G04 #@! TO.C,C162*
X222360000Y-75430000D02*
X224180000Y-75430000D01*
X224180000Y-76350000D01*
X222360000Y-76350000D01*
X222360000Y-75430000D01*
G04 #@! TO.C,C126*
X210650000Y-101749600D02*
X212470000Y-101749600D01*
X212470000Y-102669600D01*
X210650000Y-102669600D01*
X210650000Y-101749600D01*
G04 #@! TO.C,R176*
X188600000Y-112420000D02*
X189540000Y-112420000D01*
X189540000Y-114280000D01*
X188600000Y-114280000D01*
X188600000Y-112420000D01*
G04 #@! TO.C,U18*
X229100000Y-97270000D02*
X229100000Y-98930000D01*
X229100000Y-98930000D02*
X229550000Y-98930000D01*
X229550000Y-97150000D02*
X229550000Y-97270000D01*
X229550000Y-97270000D02*
X229100000Y-97270000D01*
X229550000Y-98930000D02*
X229550000Y-99050000D01*
X229550000Y-99050000D02*
X231050000Y-99050000D01*
X231050000Y-97150000D02*
X229550000Y-97150000D01*
X231050000Y-97270000D02*
X231050000Y-97150000D01*
X231050000Y-98930000D02*
X231500000Y-98930000D01*
X231050000Y-99050000D02*
X231050000Y-98930000D01*
X231500000Y-97270000D02*
X231050000Y-97270000D01*
X231500000Y-98930000D02*
X231500000Y-97270000D01*
G04 #@! TO.C,D117*
X170330000Y-70510000D02*
X171730000Y-70510000D01*
X171730000Y-71210000D01*
X170330000Y-71210000D01*
X170330000Y-70510000D01*
G04 #@! TO.C,R141*
X217530000Y-76012500D02*
X218930000Y-76012500D01*
X218930000Y-76712500D01*
X217530000Y-76712500D01*
X217530000Y-76012500D01*
G04 #@! TO.C,D17*
X228000000Y-74150000D02*
X228000000Y-76050000D01*
X231200000Y-74150000D02*
X228000000Y-74150000D01*
X231200000Y-74150000D02*
X231200000Y-76050000D01*
X231200000Y-76050000D02*
X228000000Y-76050000D01*
G04 #@! TO.C,C79*
X196625000Y-88240000D02*
X198025000Y-88240000D01*
X198025000Y-88940000D01*
X196625000Y-88940000D01*
X196625000Y-88240000D01*
G04 #@! TO.C,R90*
X220840000Y-110770000D02*
X220840000Y-113030000D01*
X220840000Y-113030000D02*
X225400000Y-113030000D01*
X225400000Y-110770000D02*
X220840000Y-110770000D01*
X225400000Y-113030000D02*
X225400000Y-110770000D01*
G04 #@! TO.C,R89*
X222050000Y-113030000D02*
X222990000Y-113030000D01*
X222990000Y-114890000D01*
X222050000Y-114890000D01*
X222050000Y-113030000D01*
G04 #@! TO.C,R91*
X223029999Y-113030000D02*
X223969999Y-113030000D01*
X223969999Y-114890000D01*
X223029999Y-114890000D01*
X223029999Y-113030000D01*
G04 #@! TO.C,R136*
X200530000Y-76012500D02*
X201930000Y-76012500D01*
X201930000Y-76712500D01*
X200530000Y-76712500D01*
X200530000Y-76012500D01*
G04 #@! TO.C,D59*
X225750000Y-111800000D02*
X225750000Y-109500000D01*
X225750000Y-111800000D02*
X230450000Y-111800000D01*
X230450000Y-109500000D02*
X225750000Y-109500000D01*
X230450000Y-111800000D02*
X230450000Y-109500000D01*
G04 #@! TO.C,U59*
X177450000Y-103400000D02*
X177450000Y-104860000D01*
X177450000Y-104860000D02*
X177620000Y-104860000D01*
X177620000Y-102680000D02*
X177620000Y-103400000D01*
X177620000Y-103400000D02*
X177450000Y-103400000D01*
X177620000Y-104860000D02*
X177620000Y-105580000D01*
X177620000Y-105580000D02*
X179480000Y-105580000D01*
X179480000Y-102680000D02*
X177620000Y-102680000D01*
X179480000Y-103400000D02*
X179480000Y-102680000D01*
X179480000Y-104860000D02*
X179650000Y-104860000D01*
X179480000Y-105580000D02*
X179480000Y-104860000D01*
X179650000Y-103400000D02*
X179480000Y-103400000D01*
X179650000Y-104860000D02*
X179650000Y-103400000D01*
G04 #@! TO.C,R114*
X213170000Y-107590000D02*
X213870000Y-107590000D01*
X213870000Y-108990000D01*
X213170000Y-108990000D01*
X213170000Y-107590000D01*
G04 #@! TO.C,R220*
X163530000Y-76012500D02*
X164930000Y-76012500D01*
X164930000Y-76712500D01*
X163530000Y-76712500D01*
X163530000Y-76012500D01*
G04 #@! TO.C,D93*
X175470000Y-106890000D02*
X176870000Y-106890000D01*
X176870000Y-107590000D01*
X175470000Y-107590000D01*
X175470000Y-106890000D01*
G04 #@! TO.C,R214*
X173660000Y-66520000D02*
X175520000Y-66520000D01*
X175520000Y-67460000D01*
X173660000Y-67460000D01*
X173660000Y-66520000D01*
G04 #@! TO.C,D64*
X204630000Y-69310000D02*
X204630000Y-70510000D01*
X204630000Y-70510000D02*
X206230000Y-70510000D01*
X206230000Y-69310000D02*
X204630000Y-69310000D01*
X206230000Y-69310000D02*
X206230000Y-70510000D01*
G04 #@! TO.C,R106*
X212470000Y-106180000D02*
X213870000Y-106180000D01*
X213870000Y-106880000D01*
X212470000Y-106880000D01*
X212470000Y-106180000D01*
G04 #@! TO.C,R88*
X215480000Y-110620000D02*
X217340000Y-110620000D01*
X217340000Y-111560000D01*
X215480000Y-111560000D01*
X215480000Y-110620000D01*
G04 #@! TO.C,D20*
X163000000Y-111550000D02*
X166200000Y-111550000D01*
X163000000Y-113450000D02*
X163000000Y-111550000D01*
X163000000Y-113450000D02*
X166200000Y-113450000D01*
X166200000Y-113450000D02*
X166200000Y-111550000D01*
G04 #@! TO.C,D73*
X214130000Y-70510000D02*
X215530000Y-70510000D01*
X215530000Y-71210000D01*
X214130000Y-71210000D01*
X214130000Y-70510000D01*
G04 #@! TO.C,C206*
X171770000Y-65830000D02*
X172690000Y-65830000D01*
X172690000Y-67650000D01*
X171770000Y-67650000D01*
X171770000Y-65830000D01*
G04 #@! TO.C,U6*
X160373448Y-88469670D02*
X160642149Y-88738370D01*
X160373448Y-89530330D02*
X163032170Y-92189052D01*
X160380519Y-89000000D02*
X160642149Y-89261630D01*
X160642149Y-88738370D02*
X160380519Y-89000000D01*
X160642149Y-89261630D02*
X160373448Y-89530330D01*
X163032170Y-85810948D02*
X160373448Y-88469670D01*
X163032170Y-92189052D02*
X163300870Y-91920351D01*
X163300870Y-86079649D02*
X163032170Y-85810948D01*
X163300870Y-91920351D02*
X163562500Y-92181981D01*
X163562500Y-85818019D02*
X163300870Y-86079649D01*
X163562500Y-92181981D02*
X163824130Y-91920351D01*
X163824130Y-86079649D02*
X163562500Y-85818019D01*
X163824130Y-91920351D02*
X164092830Y-92189052D01*
X164092830Y-85810948D02*
X163824130Y-86079649D01*
X164092830Y-92189052D02*
X166751552Y-89530330D01*
X166482851Y-88738370D02*
X166751552Y-88469670D01*
X166482851Y-89261630D02*
X166744481Y-89000000D01*
X166744481Y-89000000D02*
X166482851Y-88738370D01*
X166751552Y-88469670D02*
X164092830Y-85810948D01*
X166751552Y-89530330D02*
X166482851Y-89261630D01*
G04 #@! TO.C,D54*
X205670000Y-106890000D02*
X207070000Y-106890000D01*
X207070000Y-107590000D01*
X205670000Y-107590000D01*
X205670000Y-106890000D01*
G04 #@! TO.C,C174*
X176470000Y-112940000D02*
X177390000Y-112940000D01*
X177390000Y-114760000D01*
X176470000Y-114760000D01*
X176470000Y-112940000D01*
G04 #@! TO.C,C69*
X196625000Y-89040000D02*
X198025000Y-89040000D01*
X198025000Y-89740000D01*
X196625000Y-89740000D01*
X196625000Y-89040000D01*
G04 #@! TO.C,R244*
X162830000Y-69110000D02*
X163530000Y-69110000D01*
X163530000Y-70510000D01*
X162830000Y-70510000D01*
X162830000Y-69110000D01*
G04 #@! TO.C,C154*
X205340000Y-75430000D02*
X207160000Y-75430000D01*
X207160000Y-76350000D01*
X205340000Y-76350000D01*
X205340000Y-75430000D01*
G04 #@! TO.C,D118*
X163530000Y-70510000D02*
X164930000Y-70510000D01*
X164930000Y-71210000D01*
X163530000Y-71210000D01*
X163530000Y-70510000D01*
G04 #@! TO.C,R182*
X175470000Y-101387500D02*
X176870000Y-101387500D01*
X176870000Y-102087500D01*
X175470000Y-102087500D01*
X175470000Y-101387500D01*
G04 #@! TO.C,R229*
X166930000Y-71220000D02*
X168330000Y-71220000D01*
X168330000Y-71920000D01*
X166930000Y-71920000D01*
X166930000Y-71220000D01*
G04 #@! TO.C,D47*
X211570000Y-108790000D02*
X211570000Y-107590000D01*
X211570000Y-108790000D02*
X213170000Y-108790000D01*
X213170000Y-107590000D02*
X211570000Y-107590000D01*
X213170000Y-108790000D02*
X213170000Y-107590000D01*
G04 #@! TO.C,C221*
X188730000Y-71574400D02*
X190550000Y-71574400D01*
X190550000Y-72494400D01*
X188730000Y-72494400D01*
X188730000Y-71574400D01*
G04 #@! TO.C,R103*
X222670000Y-106180000D02*
X224070000Y-106180000D01*
X224070000Y-106880000D01*
X222670000Y-106880000D01*
X222670000Y-106180000D01*
G04 #@! TO.C,R148*
X214130000Y-71220000D02*
X215530000Y-71220000D01*
X215530000Y-71920000D01*
X214130000Y-71920000D01*
X214130000Y-71220000D01*
G04 #@! TO.C,C133*
X207250000Y-105585000D02*
X209070000Y-105585000D01*
X209070000Y-106505000D01*
X207250000Y-106505000D01*
X207250000Y-105585000D01*
G04 #@! TO.C,C50*
X194310000Y-75240000D02*
X196130000Y-75240000D01*
X196130000Y-76160000D01*
X194310000Y-76160000D01*
X194310000Y-75240000D01*
G04 #@! TO.C,C91*
X227878310Y-78287500D02*
X229838310Y-78287500D01*
X229838310Y-81687500D01*
X227878310Y-81687500D01*
X227878310Y-78287500D01*
G04 #@! TO.C,D74*
X220930000Y-70510000D02*
X222330000Y-70510000D01*
X222330000Y-71210000D01*
X220930000Y-71210000D01*
X220930000Y-70510000D01*
G04 #@! TO.C,C75*
X183115000Y-86530000D02*
X184935000Y-86530000D01*
X184935000Y-87450000D01*
X183115000Y-87450000D01*
X183115000Y-86530000D01*
G04 #@! TO.C,R246*
X169630000Y-69110000D02*
X170330000Y-69110000D01*
X170330000Y-70510000D01*
X169630000Y-70510000D01*
X169630000Y-69110000D01*
G04 #@! TO.C,R144*
X200530000Y-71220000D02*
X201930000Y-71220000D01*
X201930000Y-71920000D01*
X200530000Y-71920000D01*
X200530000Y-71220000D01*
G04 #@! TO.C,D85*
X181370000Y-108790000D02*
X181370000Y-107590000D01*
X181370000Y-108790000D02*
X182970000Y-108790000D01*
X182970000Y-107590000D02*
X181370000Y-107590000D01*
X182970000Y-108790000D02*
X182970000Y-107590000D01*
G04 #@! TO.C,C81*
X229820001Y-83669999D02*
X231280001Y-83669999D01*
X231280001Y-86629999D01*
X229820001Y-86629999D01*
X229820001Y-83669999D01*
G04 #@! TO.C,C149*
X213590000Y-62690000D02*
X214510000Y-62690000D01*
X214510000Y-64510000D01*
X213590000Y-64510000D01*
X213590000Y-62690000D01*
G04 #@! TO.C,D16*
X199722500Y-108840000D02*
X202922500Y-108840000D01*
X199722500Y-110740000D02*
X199722500Y-108840000D01*
X199722500Y-110740000D02*
X202922500Y-110740000D01*
X202922500Y-110740000D02*
X202922500Y-108840000D01*
G04 #@! TO.C,R186*
X189070000Y-106180000D02*
X190470000Y-106180000D01*
X190470000Y-106880000D01*
X189070000Y-106880000D01*
X189070000Y-106180000D01*
G04 #@! TO.C,C222*
X184790000Y-67640000D02*
X186610000Y-67640000D01*
X186610000Y-68560000D01*
X184790000Y-68560000D01*
X184790000Y-67640000D01*
G04 #@! TO.C,C166*
X214990000Y-63140000D02*
X216810000Y-63140000D01*
X216810000Y-64060000D01*
X214990000Y-64060000D01*
X214990000Y-63140000D01*
G04 #@! TO.C,R164*
X213430000Y-69110000D02*
X214130000Y-69110000D01*
X214130000Y-70510000D01*
X213430000Y-70510000D01*
X213430000Y-69110000D01*
G04 #@! TO.C,U13*
X227350000Y-84070000D02*
X227350000Y-85730000D01*
X227350000Y-85730000D02*
X227800000Y-85730000D01*
X227800000Y-83950000D02*
X227800000Y-84070000D01*
X227800000Y-84070000D02*
X227350000Y-84070000D01*
X227800000Y-85730000D02*
X227800000Y-85850000D01*
X227800000Y-85850000D02*
X229300000Y-85850000D01*
X229300000Y-83950000D02*
X227800000Y-83950000D01*
X229300000Y-84070000D02*
X229300000Y-83950000D01*
X229300000Y-85730000D02*
X229750000Y-85730000D01*
X229300000Y-85850000D02*
X229300000Y-85730000D01*
X229750000Y-84070000D02*
X229300000Y-84070000D01*
X229750000Y-85730000D02*
X229750000Y-84070000D01*
G04 #@! TO.C,C141*
X211190000Y-114040000D02*
X213010000Y-114040000D01*
X213010000Y-114960000D01*
X211190000Y-114960000D01*
X211190000Y-114040000D01*
G04 #@! TO.C,D115*
X187330000Y-70510000D02*
X188730000Y-70510000D01*
X188730000Y-71210000D01*
X187330000Y-71210000D01*
X187330000Y-70510000D01*
G04 #@! TO.C,U54*
X170650000Y-103400000D02*
X170650000Y-104860000D01*
X170650000Y-104860000D02*
X170820000Y-104860000D01*
X170820000Y-102680000D02*
X170820000Y-103400000D01*
X170820000Y-103400000D02*
X170650000Y-103400000D01*
X170820000Y-104860000D02*
X170820000Y-105580000D01*
X170820000Y-105580000D02*
X172680000Y-105580000D01*
X172680000Y-102680000D02*
X170820000Y-102680000D01*
X172680000Y-103400000D02*
X172680000Y-102680000D01*
X172680000Y-104860000D02*
X172850000Y-104860000D01*
X172680000Y-105580000D02*
X172680000Y-104860000D01*
X172850000Y-103400000D02*
X172680000Y-103400000D01*
X172850000Y-104860000D02*
X172850000Y-103400000D01*
G04 #@! TO.C,U52*
X177440000Y-111800000D02*
X177440000Y-114400000D01*
X177440000Y-114400000D02*
X180080000Y-114400000D01*
X180080000Y-111800000D02*
X177440000Y-111800000D01*
X180080000Y-114400000D02*
X180080000Y-111800000D01*
G04 #@! TO.C,C85*
X225270000Y-82500000D02*
X227230000Y-82500000D01*
X227230000Y-85900000D01*
X225270000Y-85900000D01*
X225270000Y-82500000D01*
G04 #@! TO.C,C82*
X229820000Y-90417500D02*
X231280000Y-90417500D01*
X231280000Y-93377500D01*
X229820000Y-93377500D01*
X229820000Y-90417500D01*
G04 #@! TO.C,R108*
X205670000Y-106180000D02*
X207070000Y-106180000D01*
X207070000Y-106880000D01*
X205670000Y-106880000D01*
X205670000Y-106180000D01*
G04 #@! TO.C,C169*
X225760000Y-75420000D02*
X227580000Y-75420000D01*
X227580000Y-76340000D01*
X225760000Y-76340000D01*
X225760000Y-75420000D01*
G04 #@! TO.C,R202*
X190470000Y-107590000D02*
X191170000Y-107590000D01*
X191170000Y-108990000D01*
X190470000Y-108990000D01*
X190470000Y-107590000D01*
G04 #@! TO.C,NT16*
X157830000Y-86120000D02*
X155970000Y-86120000D01*
X155970000Y-85180000D01*
X157830000Y-85180000D01*
X157830000Y-86120000D01*
G04 #@! TO.C,R178*
X189139600Y-101402400D02*
X190539600Y-101402400D01*
X190539600Y-102102400D01*
X189139600Y-102102400D01*
X189139600Y-101402400D01*
G04 #@! TO.C,C212*
X185330000Y-75420000D02*
X187150000Y-75420000D01*
X187150000Y-76340000D01*
X185330000Y-76340000D01*
X185330000Y-75420000D01*
G04 #@! TO.C,TP6*
X155850000Y-97437500D02*
G75*
G02*
X153850000Y-97437500I-1000000J0D01*
G01*
X153850000Y-97437500D02*
G75*
G02*
X155850000Y-97437500I1000000J0D01*
G01*
G04 #@! TO.C,C115*
X154645000Y-82192858D02*
X157605000Y-82192858D01*
X157605000Y-83652858D01*
X154645000Y-83652858D01*
X154645000Y-82192858D01*
G04 #@! TO.C,R153*
X203930000Y-69110000D02*
X204630000Y-69110000D01*
X204630000Y-70510000D01*
X203930000Y-70510000D01*
X203930000Y-69110000D01*
G04 #@! TO.C,C109*
X154645000Y-79192858D02*
X157605000Y-79192858D01*
X157605000Y-80652858D01*
X154645000Y-80652858D01*
X154645000Y-79192858D01*
G04 #@! TO.C,R146*
X207330000Y-71220000D02*
X208730000Y-71220000D01*
X208730000Y-71920000D01*
X207330000Y-71920000D01*
X207330000Y-71220000D01*
G04 #@! TO.C,U29*
X221250000Y-103400000D02*
X221250000Y-104860000D01*
X221250000Y-104860000D02*
X221420000Y-104860000D01*
X221420000Y-102680000D02*
X221420000Y-103400000D01*
X221420000Y-103400000D02*
X221250000Y-103400000D01*
X221420000Y-104860000D02*
X221420000Y-105580000D01*
X221420000Y-105580000D02*
X223280000Y-105580000D01*
X223280000Y-102680000D02*
X221420000Y-102680000D01*
X223280000Y-103400000D02*
X223280000Y-102680000D01*
X223280000Y-104860000D02*
X223450000Y-104860000D01*
X223280000Y-105580000D02*
X223280000Y-104860000D01*
X223450000Y-103400000D02*
X223280000Y-103400000D01*
X223450000Y-104860000D02*
X223450000Y-103400000D01*
G04 #@! TO.C,D76*
X217530000Y-70510000D02*
X218930000Y-70510000D01*
X218930000Y-71210000D01*
X217530000Y-71210000D01*
X217530000Y-70510000D01*
G04 #@! TO.C,R128*
X214097704Y-68165473D02*
X212567741Y-67107734D01*
X213102296Y-66334527D01*
X214632259Y-67392266D01*
X214097704Y-68165473D01*
G04 #@! TO.C,D51*
X222670000Y-106890000D02*
X224070000Y-106890000D01*
X224070000Y-107590000D01*
X222670000Y-107590000D01*
X222670000Y-106890000D01*
G04 #@! TO.C,R199*
X172770000Y-107590000D02*
X173470000Y-107590000D01*
X173470000Y-108990000D01*
X172770000Y-108990000D01*
X172770000Y-107590000D01*
G04 #@! TO.C,R142*
X220930000Y-76012500D02*
X222330000Y-76012500D01*
X222330000Y-76712500D01*
X220930000Y-76712500D01*
X220930000Y-76012500D01*
G04 #@! TO.C,R174*
X183840000Y-110770000D02*
X183840000Y-113030000D01*
X183840000Y-113030000D02*
X188400000Y-113030000D01*
X188400000Y-110770000D02*
X183840000Y-110770000D01*
X188400000Y-113030000D02*
X188400000Y-110770000D01*
G04 #@! TO.C,C185*
X184090000Y-113070000D02*
X185010000Y-113070000D01*
X185010000Y-114890000D01*
X184090000Y-114890000D01*
X184090000Y-113070000D01*
G04 #@! TO.C,D112*
X173730000Y-70510000D02*
X175130000Y-70510000D01*
X175130000Y-71210000D01*
X173730000Y-71210000D01*
X173730000Y-70510000D01*
G04 #@! TO.C,D98*
X189070000Y-106890000D02*
X190470000Y-106890000D01*
X190470000Y-107590000D01*
X189070000Y-107590000D01*
X189070000Y-106890000D01*
G04 #@! TO.C,C140*
X226590000Y-114110000D02*
X228410000Y-114110000D01*
X228410000Y-115030000D01*
X226590000Y-115030000D01*
X226590000Y-114110000D01*
G04 #@! TO.C,C178*
X173650000Y-105585000D02*
X175470000Y-105585000D01*
X175470000Y-106505000D01*
X173650000Y-106505000D01*
X173650000Y-105585000D01*
G04 #@! TO.C,R63*
X227920000Y-88457501D02*
X229780000Y-88457501D01*
X229780000Y-89397501D01*
X227920000Y-89397501D01*
X227920000Y-88457501D01*
G04 #@! TO.C,R81*
X153655000Y-79392858D02*
X154595000Y-79392858D01*
X154595000Y-81252858D01*
X153655000Y-81252858D01*
X153655000Y-79392858D01*
G04 #@! TO.C,C122*
X191190000Y-103100000D02*
X193010000Y-103100000D01*
X193010000Y-104020000D01*
X191190000Y-104020000D01*
X191190000Y-103100000D01*
G04 #@! TO.C,R117*
X202970000Y-107590000D02*
X203670000Y-107590000D01*
X203670000Y-108990000D01*
X202970000Y-108990000D01*
X202970000Y-107590000D01*
G04 #@! TO.C,D41*
X211350000Y-109420000D02*
X211350000Y-110080000D01*
X211350000Y-110080000D02*
X212070000Y-110080000D01*
X211350000Y-110720000D02*
X211350000Y-111380000D01*
X211350000Y-111380000D02*
X212070000Y-111380000D01*
X212070000Y-109300000D02*
X212070000Y-109420000D01*
X212070000Y-109420000D02*
X211350000Y-109420000D01*
X212070000Y-110080000D02*
X212070000Y-110720000D01*
X212070000Y-110720000D02*
X211350000Y-110720000D01*
X212070000Y-111380000D02*
X212070000Y-111500000D01*
X212070000Y-111500000D02*
X213530000Y-111500000D01*
X213530000Y-109300000D02*
X212070000Y-109300000D01*
X213530000Y-110070000D02*
X213530000Y-109300000D01*
X213530000Y-110730000D02*
X214250000Y-110730000D01*
X213530000Y-111500000D02*
X213530000Y-110730000D01*
X214250000Y-110070000D02*
X213530000Y-110070000D01*
X214250000Y-110730000D02*
X214250000Y-110070000D01*
G04 #@! TO.C,U45*
X199750000Y-64040000D02*
X199750000Y-65940000D01*
X199750000Y-65940000D02*
X201250000Y-65940000D01*
X201250000Y-64040000D02*
X199750000Y-64040000D01*
X201250000Y-65940000D02*
X201250000Y-64040000D01*
G04 #@! TO.C,R113*
X216570000Y-107590000D02*
X217270000Y-107590000D01*
X217270000Y-108990000D01*
X216570000Y-108990000D01*
X216570000Y-107590000D01*
G04 #@! TO.C,C93*
X229878310Y-78287500D02*
X231838310Y-78287500D01*
X231838310Y-81687500D01*
X229878310Y-81687500D01*
X229878310Y-78287500D01*
G04 #@! TO.C,C134*
X217390000Y-110450000D02*
X218310000Y-110450000D01*
X218310000Y-112270000D01*
X217390000Y-112270000D01*
X217390000Y-110450000D01*
G04 #@! TO.C,D102*
X184350000Y-63080000D02*
X184350000Y-64280000D01*
X184350000Y-64280000D02*
X185950000Y-64280000D01*
X185950000Y-63080000D02*
X184350000Y-63080000D01*
X185950000Y-63080000D02*
X185950000Y-64280000D01*
G04 #@! TO.C,C216*
X177990000Y-63140000D02*
X179810000Y-63140000D01*
X179810000Y-64060000D01*
X177990000Y-64060000D01*
X177990000Y-63140000D01*
G04 #@! TO.C,C177*
X187250000Y-105580000D02*
X189070000Y-105580000D01*
X189070000Y-106500000D01*
X187250000Y-106500000D01*
X187250000Y-105580000D01*
G04 #@! TO.C,D97*
X182270000Y-106890000D02*
X183670000Y-106890000D01*
X183670000Y-107590000D01*
X182270000Y-107590000D01*
X182270000Y-106890000D01*
G04 #@! TO.C,R154*
X207330000Y-69110000D02*
X208030000Y-69110000D01*
X208030000Y-70510000D01*
X207330000Y-70510000D01*
X207330000Y-69110000D01*
G04 #@! TO.C,R201*
X165970000Y-107590000D02*
X166670000Y-107590000D01*
X166670000Y-108990000D01*
X165970000Y-108990000D01*
X165970000Y-107590000D01*
G04 #@! TO.C,R56*
X196495000Y-84980000D02*
X195555000Y-84980000D01*
X195555000Y-83120000D01*
X196495000Y-83120000D01*
X196495000Y-84980000D01*
G04 #@! TO.C,R228*
X163530000Y-71220000D02*
X164930000Y-71220000D01*
X164930000Y-71920000D01*
X163530000Y-71920000D01*
X163530000Y-71220000D01*
G04 #@! TO.C,R30*
X195400000Y-101900000D02*
X195400000Y-99600000D01*
X195400000Y-101900000D02*
X200400000Y-101900000D01*
X200400000Y-99600000D02*
X195400000Y-99600000D01*
X200400000Y-99600000D02*
X200400000Y-101900000D01*
G04 #@! TO.C,R226*
X183930000Y-76012500D02*
X185330000Y-76012500D01*
X185330000Y-76712500D01*
X183930000Y-76712500D01*
X183930000Y-76012500D01*
G04 #@! TO.C,R36*
X226450000Y-63500000D02*
X226450000Y-68500000D01*
X226450000Y-63500000D02*
X228750000Y-63500000D01*
X228750000Y-68500000D02*
X226450000Y-68500000D01*
X228750000Y-68500000D02*
X228750000Y-63500000D01*
G04 #@! TO.C,NT10*
X159630000Y-77530000D02*
X161490000Y-77530000D01*
X161490000Y-78470000D01*
X159630000Y-78470000D01*
X159630000Y-77530000D01*
G04 #@! TO.C,D77*
X207330000Y-70510000D02*
X208730000Y-70510000D01*
X208730000Y-71210000D01*
X207330000Y-71210000D01*
X207330000Y-70510000D01*
G04 #@! TO.C,R127*
X215683921Y-66972991D02*
X215339857Y-68800891D01*
X214416079Y-68627009D01*
X214760143Y-66799109D01*
X215683921Y-66972991D01*
G04 #@! TO.C,R196*
X182970000Y-107590000D02*
X183670000Y-107590000D01*
X183670000Y-108990000D01*
X182970000Y-108990000D01*
X182970000Y-107590000D01*
G04 #@! TO.C,D43*
X225170000Y-108790000D02*
X225170000Y-107590000D01*
X225170000Y-108790000D02*
X226770000Y-108790000D01*
X226770000Y-107590000D02*
X225170000Y-107590000D01*
X226770000Y-108790000D02*
X226770000Y-107590000D01*
G04 #@! TO.C,D83*
X188170000Y-108790000D02*
X188170000Y-107590000D01*
X188170000Y-108790000D02*
X189770000Y-108790000D01*
X189770000Y-107590000D02*
X188170000Y-107590000D01*
X189770000Y-108790000D02*
X189770000Y-107590000D01*
G04 #@! TO.C,R125*
X203670000Y-107590000D02*
X204370000Y-107590000D01*
X204370000Y-108990000D01*
X203670000Y-108990000D01*
X203670000Y-107590000D01*
G04 #@! TO.C,D66*
X211430000Y-69310000D02*
X211430000Y-70510000D01*
X211430000Y-70510000D02*
X213030000Y-70510000D01*
X213030000Y-69310000D02*
X211430000Y-69310000D01*
X213030000Y-69310000D02*
X213030000Y-70510000D01*
G04 #@! TO.C,C57*
X197375000Y-86690000D02*
X198075000Y-86690000D01*
X198075000Y-88090000D01*
X197375000Y-88090000D01*
X197375000Y-86690000D01*
G04 #@! TO.C,R239*
X173730000Y-69110000D02*
X174430000Y-69110000D01*
X174430000Y-70510000D01*
X173730000Y-70510000D01*
X173730000Y-69110000D01*
G04 #@! TO.C,C155*
X218960000Y-75430000D02*
X220780000Y-75430000D01*
X220780000Y-76350000D01*
X218960000Y-76350000D01*
X218960000Y-75430000D01*
G04 #@! TO.C,C139*
X203661600Y-105585000D02*
X205481600Y-105585000D01*
X205481600Y-106505000D01*
X203661600Y-106505000D01*
X203661600Y-105585000D01*
G04 #@! TO.C,U33*
X226750000Y-112160000D02*
X226750000Y-114060000D01*
X226750000Y-114060000D02*
X228250000Y-114060000D01*
X228250000Y-112160000D02*
X226750000Y-112160000D01*
X228250000Y-114060000D02*
X228250000Y-112160000D01*
G04 #@! TO.C,C161*
X208730000Y-75420000D02*
X210550000Y-75420000D01*
X210550000Y-76340000D01*
X208730000Y-76340000D01*
X208730000Y-75420000D01*
G04 #@! TO.C,R218*
X164460000Y-63790000D02*
X165400000Y-63790000D01*
X165400000Y-65650000D01*
X164460000Y-65650000D01*
X164460000Y-63790000D01*
G04 #@! TO.C,R181*
X178870000Y-101387500D02*
X180270000Y-101387500D01*
X180270000Y-102087500D01*
X178870000Y-102087500D01*
X178870000Y-101387500D01*
G04 #@! TO.C,U73*
X183710001Y-65560000D02*
X183710001Y-67420000D01*
X183710001Y-67420000D02*
X184430001Y-67420000D01*
X184430001Y-65390000D02*
X184430001Y-65560000D01*
X184430001Y-65560000D02*
X183710001Y-65560000D01*
X184430001Y-67420000D02*
X184430001Y-67590000D01*
X184430001Y-67590000D02*
X185890001Y-67590000D01*
X185890001Y-65390000D02*
X184430001Y-65390000D01*
X185890001Y-65560000D02*
X185890001Y-65390000D01*
X185890001Y-66120000D02*
X186610001Y-66120000D01*
X185890001Y-66860000D02*
X185890001Y-66120000D01*
X185890001Y-67420000D02*
X186610001Y-67420000D01*
X185890001Y-67590000D02*
X185890001Y-67420000D01*
X186610001Y-65560000D02*
X185890001Y-65560000D01*
X186610001Y-66120000D02*
X186610001Y-65560000D01*
X186610001Y-66860000D02*
X185890001Y-66860000D01*
X186610001Y-67420000D02*
X186610001Y-66860000D01*
G04 #@! TO.C,D57*
X219270000Y-106890000D02*
X220670000Y-106890000D01*
X220670000Y-107590000D01*
X219270000Y-107590000D01*
X219270000Y-106890000D01*
G04 #@! TO.C,C189*
X166850000Y-105585000D02*
X168670000Y-105585000D01*
X168670000Y-106505000D01*
X166850000Y-106505000D01*
X166850000Y-105585000D01*
G04 #@! TO.C,R230*
X170330000Y-71220000D02*
X171730000Y-71220000D01*
X171730000Y-71920000D01*
X170330000Y-71920000D01*
X170330000Y-71220000D01*
G04 #@! TO.C,U37*
X204389999Y-110680000D02*
X204389999Y-111240000D01*
X204389999Y-111240000D02*
X205109999Y-111240000D01*
X204389999Y-111980000D02*
X204389999Y-112540000D01*
X204389999Y-112540000D02*
X205109999Y-112540000D01*
X205109999Y-110510000D02*
X205109999Y-110680000D01*
X205109999Y-110680000D02*
X204389999Y-110680000D01*
X205109999Y-111240000D02*
X205109999Y-111980000D01*
X205109999Y-111980000D02*
X204389999Y-111980000D01*
X205109999Y-112540000D02*
X205109999Y-112710000D01*
X205109999Y-112710000D02*
X206569999Y-112710000D01*
X206569999Y-110510000D02*
X205109999Y-110510000D01*
X206569999Y-110680000D02*
X206569999Y-110510000D01*
X206569999Y-112540000D02*
X207289999Y-112540000D01*
X206569999Y-112710000D02*
X206569999Y-112540000D01*
X207289999Y-110680000D02*
X206569999Y-110680000D01*
X207289999Y-112540000D02*
X207289999Y-110680000D01*
G04 #@! TO.C,C130*
X207249999Y-101749600D02*
X209069999Y-101749600D01*
X209069999Y-102669600D01*
X207249999Y-102669600D01*
X207249999Y-101749600D01*
G04 #@! TO.C,C96*
X163100002Y-79255000D02*
X164020002Y-79255000D01*
X164020002Y-81075000D01*
X163100002Y-81075000D01*
X163100002Y-79255000D01*
G04 #@! TO.C,L3*
X225950000Y-92727501D02*
X228550000Y-92727501D01*
X228550000Y-94927501D01*
X225950000Y-94927501D01*
X225950000Y-92727501D01*
G04 #@! TO.C,R190*
X175470000Y-106180000D02*
X176870000Y-106180000D01*
X176870000Y-106880000D01*
X175470000Y-106880000D01*
X175470000Y-106180000D01*
G04 #@! TO.C,C87*
X230898310Y-76427500D02*
X231818310Y-76427500D01*
X231818310Y-78247500D01*
X230898310Y-78247500D01*
X230898310Y-76427500D01*
G04 #@! TO.C,C217*
X162000000Y-64280000D02*
X162700000Y-64280000D01*
X162700000Y-65680000D01*
X162000000Y-65680000D01*
X162000000Y-64280000D01*
G04 #@! TO.C,R236*
X163530000Y-69110000D02*
X164230000Y-69110000D01*
X164230000Y-70510000D01*
X163530000Y-70510000D01*
X163530000Y-69110000D01*
G04 #@! TO.C,C78*
X198225000Y-88240000D02*
X199625000Y-88240000D01*
X199625000Y-88940000D01*
X198225000Y-88940000D01*
X198225000Y-88240000D01*
G04 #@! TO.C,R111*
X223370000Y-107590000D02*
X224070000Y-107590000D01*
X224070000Y-108990000D01*
X223370000Y-108990000D01*
X223370000Y-107590000D01*
G04 #@! TO.C,C23*
X164290000Y-84740000D02*
X166110000Y-84740000D01*
X166110000Y-85660000D01*
X164290000Y-85660000D01*
X164290000Y-84740000D01*
G04 #@! TO.C,D82*
X168050000Y-114960000D02*
X168050000Y-113760000D01*
X168050000Y-114960000D02*
X169650000Y-114960000D01*
X169650000Y-113760000D02*
X168050000Y-113760000D01*
X169650000Y-114960000D02*
X169650000Y-113760000D01*
G04 #@! TO.C,D67*
X214830000Y-69310000D02*
X214830000Y-70510000D01*
X214830000Y-70510000D02*
X216430000Y-70510000D01*
X216430000Y-69310000D02*
X214830000Y-69310000D01*
X216430000Y-69310000D02*
X216430000Y-70510000D01*
G04 #@! TO.C,D48*
X208170000Y-108790000D02*
X208170000Y-107590000D01*
X208170000Y-108790000D02*
X209770000Y-108790000D01*
X209770000Y-107590000D02*
X208170000Y-107590000D01*
X209770000Y-108790000D02*
X209770000Y-107590000D01*
G04 #@! TO.C,R191*
X172070000Y-106180000D02*
X173470000Y-106180000D01*
X173470000Y-106880000D01*
X172070000Y-106880000D01*
X172070000Y-106180000D01*
G04 #@! TO.C,R183*
X172070000Y-101387500D02*
X173470000Y-101387500D01*
X173470000Y-102087500D01*
X172070000Y-102087500D01*
X172070000Y-101387500D01*
G04 #@! TO.C,C68*
X196575000Y-86690000D02*
X197275000Y-86690000D01*
X197275000Y-88090000D01*
X196575000Y-88090000D01*
X196575000Y-86690000D01*
G04 #@! TO.C,R9*
X207625269Y-93789949D02*
X206310051Y-92474731D01*
X206974731Y-91810051D01*
X208289949Y-93125269D01*
X207625269Y-93789949D01*
G04 #@! TO.C,R208*
X170070000Y-107590000D02*
X170770000Y-107590000D01*
X170770000Y-108990000D01*
X170070000Y-108990000D01*
X170070000Y-107590000D01*
G04 #@! TO.C,D72*
X210730000Y-70510000D02*
X212130000Y-70510000D01*
X212130000Y-71210000D01*
X210730000Y-71210000D01*
X210730000Y-70510000D01*
G04 #@! TO.C,C194*
X163450000Y-101749600D02*
X165270000Y-101749600D01*
X165270000Y-102669600D01*
X163450000Y-102669600D01*
X163450000Y-101749600D01*
G04 #@! TO.C,C223*
X184240002Y-64420000D02*
X186060002Y-64420000D01*
X186060002Y-65340000D01*
X184240002Y-65340000D01*
X184240002Y-64420000D01*
G04 #@! TO.C,C205*
X181930001Y-75420000D02*
X183750001Y-75420000D01*
X183750001Y-76340000D01*
X181930001Y-76340000D01*
X181930001Y-75420000D01*
G04 #@! TO.C,R158*
X220930000Y-69110000D02*
X221630000Y-69110000D01*
X221630000Y-70510000D01*
X220930000Y-70510000D01*
X220930000Y-69110000D01*
G04 #@! TO.C,R65*
X229888310Y-76407500D02*
X230828310Y-76407500D01*
X230828310Y-78267500D01*
X229888310Y-78267500D01*
X229888310Y-76407500D01*
G04 #@! TO.C,R159*
X224330000Y-69110000D02*
X225030000Y-69110000D01*
X225030000Y-70510000D01*
X224330000Y-70510000D01*
X224330000Y-69110000D01*
G04 #@! TO.C,D49*
X204770000Y-108790000D02*
X204770000Y-107590000D01*
X204770000Y-108790000D02*
X206370000Y-108790000D01*
X206370000Y-107590000D02*
X204770000Y-107590000D01*
X206370000Y-108790000D02*
X206370000Y-107590000D01*
G04 #@! TO.C,D106*
X174430000Y-69310000D02*
X174430000Y-70510000D01*
X174430000Y-70510000D02*
X176030000Y-70510000D01*
X176030000Y-69310000D02*
X174430000Y-69310000D01*
X176030000Y-69310000D02*
X176030000Y-70510000D01*
G04 #@! TO.C,C172*
X221790000Y-67640000D02*
X223610000Y-67640000D01*
X223610000Y-68560000D01*
X221790000Y-68560000D01*
X221790000Y-67640000D01*
G04 #@! TO.C,D111*
X166930000Y-70510000D02*
X168330000Y-70510000D01*
X168330000Y-71210000D01*
X166930000Y-71210000D01*
X166930000Y-70510000D01*
G04 #@! TO.C,R156*
X214130000Y-69110000D02*
X214830000Y-69110000D01*
X214830000Y-70510000D01*
X214130000Y-70510000D01*
X214130000Y-69110000D01*
G04 #@! TO.C,R184*
X168670000Y-101387500D02*
X170070000Y-101387500D01*
X170070000Y-102087500D01*
X168670000Y-102087500D01*
X168670000Y-101387500D01*
G04 #@! TO.C,U30*
X207650000Y-103400000D02*
X207650000Y-104860000D01*
X207650000Y-104860000D02*
X207820000Y-104860000D01*
X207820000Y-102680000D02*
X207820000Y-103400000D01*
X207820000Y-103400000D02*
X207650000Y-103400000D01*
X207820000Y-104860000D02*
X207820000Y-105580000D01*
X207820000Y-105580000D02*
X209680000Y-105580000D01*
X209680000Y-102680000D02*
X207820000Y-102680000D01*
X209680000Y-103400000D02*
X209680000Y-102680000D01*
X209680000Y-104860000D02*
X209850000Y-104860000D01*
X209680000Y-105580000D02*
X209680000Y-104860000D01*
X209850000Y-103400000D02*
X209680000Y-103400000D01*
X209850000Y-104860000D02*
X209850000Y-103400000D01*
G04 #@! TO.C,C61*
X195775000Y-89090000D02*
X196475000Y-89090000D01*
X196475000Y-90490000D01*
X195775000Y-90490000D01*
X195775000Y-89090000D01*
G04 #@! TO.C,R151*
X224330000Y-71210000D02*
X225730000Y-71210000D01*
X225730000Y-71910000D01*
X224330000Y-71910000D01*
X224330000Y-71210000D01*
G04 #@! TO.C,R87*
X215470000Y-109630000D02*
X217330000Y-109630000D01*
X217330000Y-110570000D01*
X215470000Y-110570000D01*
X215470000Y-109630000D01*
G04 #@! TO.C,R105*
X215870000Y-106180000D02*
X217270000Y-106180000D01*
X217270000Y-106880000D01*
X215870000Y-106880000D01*
X215870000Y-106180000D01*
G04 #@! TO.C,U44*
X221550000Y-73240000D02*
X221550000Y-74700000D01*
X221550000Y-74700000D02*
X221720000Y-74700000D01*
X221720000Y-72520000D02*
X221720000Y-73240000D01*
X221720000Y-73240000D02*
X221550000Y-73240000D01*
X221720000Y-74700000D02*
X221720000Y-75420000D01*
X221720000Y-75420000D02*
X223580000Y-75420000D01*
X223580000Y-72520000D02*
X221720000Y-72520000D01*
X223580000Y-73240000D02*
X223580000Y-72520000D01*
X223580000Y-74700000D02*
X223750000Y-74700000D01*
X223580000Y-75420000D02*
X223580000Y-74700000D01*
X223750000Y-73240000D02*
X223580000Y-73240000D01*
X223750000Y-74700000D02*
X223750000Y-73240000D01*
G04 #@! TO.C,R237*
X166930000Y-69110000D02*
X167630000Y-69110000D01*
X167630000Y-70510000D01*
X166930000Y-70510000D01*
X166930000Y-69110000D01*
G04 #@! TO.C,R180*
X182270000Y-101387500D02*
X183670000Y-101387500D01*
X183670000Y-102087500D01*
X182270000Y-102087500D01*
X182270000Y-101387500D01*
G04 #@! TO.C,D50*
X201370000Y-108790000D02*
X201370000Y-107590000D01*
X201370000Y-108790000D02*
X202970000Y-108790000D01*
X202970000Y-107590000D02*
X201370000Y-107590000D01*
X202970000Y-108790000D02*
X202970000Y-107590000D01*
G04 #@! TO.C,C86*
X225270000Y-89227501D02*
X227230000Y-89227501D01*
X227230000Y-92627501D01*
X225270000Y-92627501D01*
X225270000Y-89227501D01*
G04 #@! TO.C,C73*
X193425000Y-87440000D02*
X194825000Y-87440000D01*
X194825000Y-88140000D01*
X193425000Y-88140000D01*
X193425000Y-87440000D01*
G04 #@! TO.C,U23*
X154425000Y-76072858D02*
X154425000Y-78172858D01*
X154425000Y-78172858D02*
X154625000Y-78172858D01*
X154625000Y-75072858D02*
X154625000Y-76072858D01*
X154625000Y-76072858D02*
X154425000Y-76072858D01*
X154625000Y-78172858D02*
X154625000Y-79172858D01*
X154625000Y-79172858D02*
X157625000Y-79172858D01*
X157625000Y-75072858D02*
X154625000Y-75072858D01*
X157625000Y-76072858D02*
X157625000Y-75072858D01*
X157625000Y-78172858D02*
X157825000Y-78172858D01*
X157625000Y-79172858D02*
X157625000Y-78172858D01*
X157825000Y-76072858D02*
X157625000Y-76072858D01*
X157825000Y-78172858D02*
X157825000Y-76072858D01*
G04 #@! TO.C,R96*
X219270000Y-101387500D02*
X220670000Y-101387500D01*
X220670000Y-102087500D01*
X219270000Y-102087500D01*
X219270000Y-101387500D01*
G04 #@! TD*
D11*
X150500000Y-62500000D02*
X150500000Y-62500000D01*
G75*
G02*
X151500000Y-61500000I1000000J0D01*
G01*
X244500000Y-61500000D01*
G75*
G02*
X245500000Y-62500000I0J-1000000D01*
G01*
X245500000Y-115500000D01*
G75*
G02*
X244500000Y-116500000I-1000000J0D01*
G01*
X151500000Y-116500000D01*
G75*
G02*
X150500000Y-115500000I0J1000000D01*
G01*
X150500000Y-62500000D01*
M02*
