M48
; DRILL file {KiCad 5.1.0} date 2019-05-02T19:21:32 JST
; FORMAT={-:-/ absolute / metric / decimal}
; #@! TF.CreationDate,2019-05-02T19:21:32+09:00
; #@! TF.GenerationSoftware,Kicad,Pcbnew,5.1.0
FMAT,2
METRIC
T1C0.300
T2C0.500
T3C0.700
T4C1.000
T5C1.016
T6C1.200
T7C3.500
%
G90
G05
T1
X54.1Y-96.05
X54.1Y-96.75
X55.2Y-86.5
X55.2Y-81.25
X55.2Y-83.0
X55.2Y-88.25
X55.2Y-102.75
X55.2Y-104.5
X55.2Y-108.0
X55.2Y-84.75
X55.2Y-109.75
X55.2Y-106.25
X56.5Y-93.6
X56.5Y-94.9
X56.5Y-95.8
X56.5Y-96.8
X56.5Y-97.5
X56.7Y-99.9
X56.7Y-100.9
X57.592Y-95.8
X59.2Y-76.5
X59.2Y-80.4
X59.4Y-94.8
X59.6Y-111.15
X60.147Y-81.864
X60.2Y-90.2
X60.4Y-76.5
X60.5Y-95.7
X60.55Y-98.0
X60.7Y-113.1
X60.7Y-114.1
X61.6Y-115.4
X61.7Y-76.5
X61.8Y-103.0
X61.8Y-103.8
X61.8Y-104.6
X61.8Y-105.4
X61.8Y-106.2
X62.4Y-115.4
X62.885Y-80.409
X63.0Y-76.5
X63.0Y-95.0
X63.1Y-107.95
X63.1Y-108.65
X63.7Y-111.9
X63.7Y-112.6
X63.7Y-117.0
X63.7Y-117.7
X64.237Y-91.262
X64.25Y-76.5
X64.5Y-101.05
X64.6Y-107.8
X64.6Y-108.4
X64.6Y-112.9
X64.6Y-113.5
X64.9Y-93.25
X64.9Y-95.25
X64.9Y-97.25
X65.0Y-90.45
X65.5Y-76.5
X65.8Y-90.45
X66.785Y-76.485
X66.8Y-80.4
X66.8Y-90.45
X67.2Y-107.8
X67.2Y-108.4
X67.2Y-112.9
X67.2Y-113.5
X67.6Y-90.45
X67.6Y-100.45
X67.85Y-112.25
X67.85Y-117.35
X68.05Y-76.5
X68.5Y-108.35
X68.5Y-113.45
X68.7Y-101.4
X69.3Y-76.5
X69.35Y-102.55
X69.55Y-110.85
X69.55Y-111.55
X69.55Y-115.95
X69.55Y-116.65
X69.576Y-101.375
X69.8Y-105.55
X70.15Y-102.55
X70.55Y-106.15
X70.6Y-76.5
X70.6Y-80.4
X71.15Y-105.25
X71.45Y-88.05
X71.85Y-76.5
X71.85Y-105.25
X72.55Y-105.25
X72.6Y-100.45
X73.1Y-90.45
X73.1Y-76.5
X73.25Y-105.25
X73.6Y-111.5
X73.6Y-113.4
X73.6Y-117.2
X73.8Y-91.55
X74.15Y-105.4
X74.2Y-100.475
X74.3Y-107.7
X74.4Y-76.5
X74.4Y-80.4
X74.5Y-89.0
X74.5Y-109.6
X74.5Y-115.3
X74.8Y-97.3
X74.9Y-95.125
X74.903Y-96.185
X75.65Y-106.4
X75.7Y-76.5
X75.892Y-92.192
X75.9Y-89.0
X76.0Y-99.3
X76.2Y-107.7
X76.2Y-110.2
X76.2Y-113.4
X76.2Y-117.2
X76.6Y-98.7
X76.7Y-96.2
X76.8Y-96.95
X76.9Y-76.5
X77.3Y-101.4
X77.5Y-93.8
X77.6Y-90.3
X78.1Y-95.5
X78.2Y-76.5
X78.2Y-80.4
X78.6Y-91.3
X78.6Y-94.4
X79.0Y-99.27
X79.0Y-107.1
X79.1Y-108.0
X79.1Y-102.2
X79.2Y-100.0
X79.5Y-76.5
X79.7Y-101.3
X80.0Y-105.8
X80.1Y-91.9
X80.6Y-105.2
X80.8Y-76.5
X80.9Y-91.9
X80.9Y-92.7
X80.9Y-93.5
X80.9Y-94.3
X80.9Y-95.1
X80.9Y-95.9
X80.9Y-97.5
X80.9Y-98.3
X81.2Y-104.6
X81.7Y-95.9
X81.7Y-96.7
X81.7Y-98.3
X81.8Y-104.0
X82.0Y-76.5
X82.0Y-80.4
X82.4Y-103.4
X82.5Y-92.7
X82.5Y-93.5
X82.5Y-94.3
X82.5Y-95.1
X82.5Y-96.7
X82.5Y-98.3
X82.8Y-111.0
X82.8Y-116.0
X83.0Y-102.8
X83.295Y-76.495
X83.3Y-92.7
X83.3Y-93.5
X83.3Y-95.1
X83.3Y-95.9
X83.3Y-97.5
X83.6Y-102.2
X83.7Y-107.3
X84.1Y-93.5
X84.1Y-95.1
X84.1Y-95.9
X84.1Y-97.5
X84.1Y-98.3
X84.2Y-101.6
X84.6Y-76.5
X84.9Y-91.9
X84.9Y-92.7
X84.9Y-94.3
X84.9Y-96.7
X84.9Y-97.5
X84.9Y-98.3
X85.7Y-91.9
X85.7Y-92.7
X85.7Y-95.9
X85.7Y-96.7
X85.8Y-80.4
X86.5Y-92.7
X86.5Y-93.5
X86.5Y-95.1
X86.5Y-95.9
X86.5Y-96.7
X86.5Y-97.5
X86.5Y-99.1
X86.8Y-107.45
X87.05Y-90.0
X87.29Y-93.5
X87.3Y-94.3
X87.629Y-100.165
X87.65Y-88.6
X87.7Y-108.45
X88.5Y-100.2
X88.8Y-107.1
X89.053Y-95.525
X89.15Y-99.25
X89.2Y-93.8
X89.6Y-111.0
X90.25Y-88.95
X90.35Y-94.3
X90.7Y-112.0
X90.75Y-99.1
X90.9Y-87.3
X91.1Y-98.35
X92.045Y-95.35
X92.1Y-93.85
X92.35Y-94.6
X92.4Y-98.6
X93.2Y-107.3
X93.491Y-94.491
X93.5Y-84.9
X93.5Y-85.7
X93.5Y-87.3
X93.5Y-88.1
X93.5Y-89.7
X93.5Y-90.5
X93.5Y-92.1
X93.5Y-97.3
X93.5Y-98.1
X93.5Y-99.7
X93.5Y-100.5
X93.5Y-102.1
X93.5Y-102.9
X93.5Y-104.5
X93.5Y-92.9
X93.5Y-105.3
X94.35Y-94.5
X96.9Y-84.9
X96.9Y-85.7
X96.9Y-87.3
X96.9Y-88.1
X96.9Y-89.7
X96.9Y-90.5
X96.9Y-92.1
X96.9Y-92.9
X96.9Y-97.3
X96.9Y-98.1
X96.9Y-99.7
X96.9Y-100.5
X96.9Y-102.1
X96.9Y-102.9
X96.9Y-104.5
X96.9Y-105.3
X98.3Y-85.3
X98.3Y-86.1
X98.3Y-87.7
X98.3Y-88.5
X98.3Y-90.1
X98.3Y-90.9
X98.3Y-92.5
X98.3Y-93.3
X98.3Y-97.7
X98.3Y-98.5
X98.3Y-100.1
X98.3Y-100.9
X98.3Y-102.5
X98.3Y-103.3
X98.3Y-104.9
X98.3Y-105.7
X100.975Y-82.375
X100.975Y-108.625
X101.2Y-79.5
X101.2Y-111.5
X101.781Y-102.619
X101.8Y-85.4
X101.8Y-86.2
X101.8Y-87.8
X101.8Y-88.6
X101.8Y-90.2
X101.8Y-91.0
X101.8Y-92.6
X101.8Y-93.4
X101.8Y-97.8
X101.8Y-98.6
X101.8Y-100.2
X101.8Y-101.0
X101.8Y-103.4
X101.8Y-105.0
X101.8Y-105.8
X102.0Y-79.5
X102.0Y-80.95
X102.0Y-110.05
X102.0Y-111.5
X102.8Y-79.5
X102.8Y-111.5
X103.5Y-80.95
X103.5Y-85.6
X103.5Y-105.4
X103.5Y-110.05
X103.55Y-94.8
X103.55Y-96.2
X103.6Y-79.5
X103.6Y-111.5
X104.4Y-79.5
X104.4Y-111.5
X105.0Y-80.95
X105.0Y-110.05
X105.2Y-79.5
X105.2Y-111.5
X106.0Y-79.5
X106.0Y-111.5
X106.025Y-82.375
X106.025Y-108.625
X106.35Y-101.3
X106.4Y-89.7
X106.8Y-79.5
X106.8Y-111.5
X106.9Y-83.55
X106.9Y-107.45
X107.55Y-93.6
X107.55Y-97.4
X108.2Y-88.9
X108.2Y-102.2
X108.35Y-99.7
X108.35Y-100.45
X109.75Y-95.5
X115.65Y-95.5
X117.2Y-88.9
X117.2Y-100.4
X117.2Y-102.1
X117.85Y-93.6
X117.85Y-97.4
X118.2Y-88.9
X118.2Y-102.1
X118.85Y-85.6
X118.85Y-105.4
X119.05Y-97.6
X119.05Y-98.6
X119.7Y-89.85
X119.7Y-101.15
X120.3Y-76.3
X120.3Y-114.7
X120.6Y-83.9
X120.6Y-84.9
X120.6Y-106.1
X120.6Y-107.1
X120.7Y-99.55
X120.7Y-92.4
X120.7Y-97.6
X120.7Y-98.6
X120.7Y-91.4
X122.1Y-84.95
X122.1Y-88.75
X122.1Y-102.25
X122.1Y-106.05
X123.5Y-108.25
X123.5Y-83.45
X124.1Y-82.15
X124.1Y-106.9
X124.3Y-86.85
X124.7Y-80.7
X124.7Y-85.9
X124.7Y-105.1
X124.7Y-110.3
X124.9Y-82.15
X124.9Y-106.9
X125.4Y-91.4
X125.5Y-83.4
X125.6Y-100.3
X126.4Y-88.6
X126.4Y-92.4
X126.4Y-93.4
X126.4Y-97.6
X126.4Y-98.6
X126.4Y-102.4
X127.1Y-81.4
X127.3Y-104.2
X127.3Y-109.6
X127.3Y-86.8
X67.31Y-92.96
X67.31Y-94.23
X67.31Y-95.5
X67.31Y-96.77
X67.31Y-98.04
X68.58Y-92.96
X68.58Y-94.23
X68.58Y-95.5
X68.58Y-96.77
X68.58Y-98.04
X69.85Y-92.96
X69.85Y-94.23
X69.85Y-95.5
X69.85Y-96.77
X69.85Y-98.04
X71.12Y-92.96
X71.12Y-94.23
X71.12Y-95.5
X71.12Y-96.77
X71.12Y-98.04
X72.39Y-92.96
X72.39Y-94.23
X72.39Y-95.5
X72.39Y-96.77
X72.39Y-98.04
X65.9Y-109.5
X65.9Y-110.3
X65.9Y-114.6
X65.9Y-115.4
T2
X123.375Y-116.0
X124.144Y-114.144
X124.144Y-117.856
X126.0Y-113.375
X126.0Y-118.625
X127.856Y-114.144
X127.856Y-117.856
X128.625Y-116.0
X123.375Y-75.0
X124.144Y-73.144
X124.144Y-76.856
X126.0Y-72.375
X126.0Y-77.625
X127.856Y-73.144
X127.856Y-76.856
X128.625Y-75.0
X51.375Y-75.0
X52.144Y-73.144
X52.144Y-76.856
X54.0Y-72.375
X54.0Y-77.625
X55.856Y-73.144
X55.856Y-76.856
X56.625Y-75.0
X51.375Y-116.0
X52.144Y-114.144
X52.144Y-117.856
X54.0Y-113.375
X54.0Y-118.625
X55.856Y-114.144
X55.856Y-117.856
X56.625Y-116.0
T3
X107.81Y-108.5
X109.08Y-108.5
X110.35Y-108.5
X111.62Y-108.5
X112.89Y-108.5
X114.16Y-108.5
X115.43Y-108.5
X116.7Y-108.5
X107.81Y-103.42
X109.08Y-103.42
X110.35Y-103.42
X111.62Y-103.42
X112.89Y-103.42
X114.16Y-103.42
X115.43Y-103.42
X116.7Y-103.42
X107.8Y-87.6
X109.07Y-87.6
X110.34Y-87.6
X111.61Y-87.6
X112.88Y-87.6
X114.15Y-87.6
X115.42Y-87.6
X116.69Y-87.6
X107.8Y-82.5
X109.07Y-82.5
X110.34Y-82.5
X111.61Y-82.5
X112.88Y-82.5
X114.15Y-82.5
X115.42Y-82.5
X116.69Y-82.5
T4
X105.27Y-92.96
X105.27Y-95.5
X105.27Y-98.04
T5
X92.57Y-113.23
X92.57Y-115.77
X95.11Y-113.23
X95.11Y-115.77
X97.65Y-113.23
X97.65Y-115.77
X100.19Y-113.23
X100.19Y-115.77
X102.73Y-113.23
X102.73Y-115.77
X105.27Y-113.23
X105.27Y-115.77
X107.81Y-113.23
X107.81Y-115.77
X110.35Y-113.23
X110.35Y-115.77
X112.89Y-113.23
X112.89Y-115.77
X115.43Y-113.23
X115.43Y-115.77
X92.57Y-75.23
X92.57Y-77.77
X95.11Y-75.23
X95.11Y-77.77
X97.65Y-75.23
X97.65Y-77.77
X100.19Y-75.23
X100.19Y-77.77
X102.73Y-75.23
X102.73Y-77.77
X105.27Y-75.23
X105.27Y-77.77
X107.81Y-75.23
X107.81Y-77.77
X110.35Y-75.23
X110.35Y-77.77
X112.89Y-75.23
X112.89Y-77.77
X115.43Y-75.23
X115.43Y-77.77
T6
X82.56Y-108.4
X85.1Y-108.4
T7
X126.0Y-116.0
X126.0Y-75.0
X54.0Y-75.0
X54.0Y-116.0
T0
M30
