G04 #@! TF.GenerationSoftware,KiCad,Pcbnew,5.0.1*
G04 #@! TF.CreationDate,2019-03-29T02:43:00+09:00*
G04 #@! TF.ProjectId,glasgow,676C6173676F772E6B696361645F7063,rev?*
G04 #@! TF.SameCoordinates,Original*
G04 #@! TF.FileFunction,Soldermask,Bot*
G04 #@! TF.FilePolarity,Negative*
%FSLAX46Y46*%
G04 Gerber Fmt 4.6, Leading zero omitted, Abs format (unit mm)*
G04 Created by KiCad (PCBNEW 5.0.1) date 2019-03-29T02:43:00 JST*
%MOMM*%
%LPD*%
G01*
G04 APERTURE LIST*
%ADD10C,0.100000*%
G04 APERTURE END LIST*
D10*
G36*
X122218763Y-117778821D02*
X122218764Y-117778821D01*
X122218767Y-117778822D01*
X122355258Y-117835359D01*
X122355260Y-117835360D01*
X122478096Y-117917436D01*
X122582564Y-118021904D01*
X122594576Y-118039881D01*
X122664641Y-118144742D01*
X122721178Y-118281233D01*
X122750000Y-118426131D01*
X122750000Y-118573869D01*
X122721178Y-118718767D01*
X122664641Y-118855258D01*
X122664640Y-118855260D01*
X122582564Y-118978096D01*
X122478096Y-119082564D01*
X122355260Y-119164640D01*
X122355259Y-119164641D01*
X122355258Y-119164641D01*
X122218767Y-119221178D01*
X122218764Y-119221179D01*
X122218763Y-119221179D01*
X122073871Y-119250000D01*
X121926129Y-119250000D01*
X121781237Y-119221179D01*
X121781236Y-119221179D01*
X121781233Y-119221178D01*
X121644742Y-119164641D01*
X121644741Y-119164641D01*
X121644740Y-119164640D01*
X121521904Y-119082564D01*
X121417436Y-118978096D01*
X121335360Y-118855260D01*
X121335359Y-118855258D01*
X121278822Y-118718767D01*
X121250000Y-118573869D01*
X121250000Y-118426131D01*
X121278822Y-118281233D01*
X121335359Y-118144742D01*
X121405425Y-118039881D01*
X121417436Y-118021904D01*
X121521904Y-117917436D01*
X121644740Y-117835360D01*
X121644742Y-117835359D01*
X121781233Y-117778822D01*
X121781236Y-117778821D01*
X121781237Y-117778821D01*
X121926129Y-117750000D01*
X122073871Y-117750000D01*
X122218763Y-117778821D01*
X122218763Y-117778821D01*
G37*
G36*
X58218763Y-117778821D02*
X58218764Y-117778821D01*
X58218767Y-117778822D01*
X58355258Y-117835359D01*
X58355260Y-117835360D01*
X58478096Y-117917436D01*
X58582564Y-118021904D01*
X58594576Y-118039881D01*
X58664641Y-118144742D01*
X58721178Y-118281233D01*
X58750000Y-118426131D01*
X58750000Y-118573869D01*
X58721178Y-118718767D01*
X58664641Y-118855258D01*
X58664640Y-118855260D01*
X58582564Y-118978096D01*
X58478096Y-119082564D01*
X58355260Y-119164640D01*
X58355259Y-119164641D01*
X58355258Y-119164641D01*
X58218767Y-119221178D01*
X58218764Y-119221179D01*
X58218763Y-119221179D01*
X58073871Y-119250000D01*
X57926129Y-119250000D01*
X57781237Y-119221179D01*
X57781236Y-119221179D01*
X57781233Y-119221178D01*
X57644742Y-119164641D01*
X57644741Y-119164641D01*
X57644740Y-119164640D01*
X57521904Y-119082564D01*
X57417436Y-118978096D01*
X57335360Y-118855260D01*
X57335359Y-118855258D01*
X57278822Y-118718767D01*
X57250000Y-118573869D01*
X57250000Y-118426131D01*
X57278822Y-118281233D01*
X57335359Y-118144742D01*
X57405425Y-118039881D01*
X57417436Y-118021904D01*
X57521904Y-117917436D01*
X57644740Y-117835360D01*
X57644742Y-117835359D01*
X57781233Y-117778822D01*
X57781236Y-117778821D01*
X57781237Y-117778821D01*
X57926129Y-117750000D01*
X58073871Y-117750000D01*
X58218763Y-117778821D01*
X58218763Y-117778821D01*
G37*
G36*
X126933402Y-112922974D02*
X126933404Y-112922975D01*
X126933405Y-112922975D01*
X127515768Y-113164197D01*
X127515770Y-113164198D01*
X128039880Y-113514397D01*
X128485602Y-113960119D01*
X128835803Y-114484232D01*
X129069517Y-115048468D01*
X129077026Y-115066598D01*
X129200000Y-115684825D01*
X129200000Y-116315175D01*
X129080442Y-116916228D01*
X129077025Y-116933405D01*
X128844405Y-117495000D01*
X128835802Y-117515770D01*
X128485603Y-118039880D01*
X128039880Y-118485603D01*
X127515770Y-118835802D01*
X127515769Y-118835803D01*
X127515768Y-118835803D01*
X126933405Y-119077025D01*
X126933404Y-119077025D01*
X126933402Y-119077026D01*
X126315175Y-119200000D01*
X125684825Y-119200000D01*
X125066598Y-119077026D01*
X125066596Y-119077025D01*
X125066595Y-119077025D01*
X124484232Y-118835803D01*
X124484231Y-118835803D01*
X124484230Y-118835802D01*
X123960120Y-118485603D01*
X123514397Y-118039880D01*
X123164198Y-117515770D01*
X123155595Y-117495000D01*
X122922975Y-116933405D01*
X122919558Y-116916228D01*
X122800000Y-116315175D01*
X122800000Y-115684825D01*
X122922974Y-115066598D01*
X122930484Y-115048468D01*
X123164197Y-114484232D01*
X123514398Y-113960119D01*
X123960120Y-113514397D01*
X124484230Y-113164198D01*
X124484232Y-113164197D01*
X125066595Y-112922975D01*
X125066596Y-112922975D01*
X125066598Y-112922974D01*
X125684825Y-112800000D01*
X126315175Y-112800000D01*
X126933402Y-112922974D01*
X126933402Y-112922974D01*
G37*
G36*
X54933402Y-112922974D02*
X54933404Y-112922975D01*
X54933405Y-112922975D01*
X55515768Y-113164197D01*
X55515770Y-113164198D01*
X56039880Y-113514397D01*
X56485602Y-113960119D01*
X56835803Y-114484232D01*
X57069517Y-115048468D01*
X57077026Y-115066598D01*
X57200000Y-115684825D01*
X57200000Y-116315175D01*
X57080442Y-116916228D01*
X57077025Y-116933405D01*
X56844405Y-117495000D01*
X56835802Y-117515770D01*
X56485603Y-118039880D01*
X56039880Y-118485603D01*
X55515770Y-118835802D01*
X55515769Y-118835803D01*
X55515768Y-118835803D01*
X54933405Y-119077025D01*
X54933404Y-119077025D01*
X54933402Y-119077026D01*
X54315175Y-119200000D01*
X53684825Y-119200000D01*
X53066598Y-119077026D01*
X53066596Y-119077025D01*
X53066595Y-119077025D01*
X52484232Y-118835803D01*
X52484231Y-118835803D01*
X52484230Y-118835802D01*
X51960120Y-118485603D01*
X51514397Y-118039880D01*
X51164198Y-117515770D01*
X51155595Y-117495000D01*
X50922975Y-116933405D01*
X50919558Y-116916228D01*
X50800000Y-116315175D01*
X50800000Y-115684825D01*
X50922974Y-115066598D01*
X50930484Y-115048468D01*
X51164197Y-114484232D01*
X51514398Y-113960119D01*
X51960120Y-113514397D01*
X52484230Y-113164198D01*
X52484232Y-113164197D01*
X53066595Y-112922975D01*
X53066596Y-112922975D01*
X53066598Y-112922974D01*
X53684825Y-112800000D01*
X54315175Y-112800000D01*
X54933402Y-112922974D01*
X54933402Y-112922974D01*
G37*
G36*
X74719340Y-116907615D02*
X74742756Y-116914718D01*
X74764325Y-116926246D01*
X74783234Y-116941766D01*
X74798754Y-116960675D01*
X74810282Y-116982244D01*
X74817385Y-117005660D01*
X74820000Y-117032208D01*
X74820000Y-117367792D01*
X74817385Y-117394340D01*
X74810282Y-117417756D01*
X74798754Y-117439325D01*
X74783234Y-117458234D01*
X74764325Y-117473754D01*
X74742756Y-117485282D01*
X74719340Y-117492385D01*
X74692792Y-117495000D01*
X74307208Y-117495000D01*
X74280660Y-117492385D01*
X74257244Y-117485282D01*
X74235675Y-117473754D01*
X74216766Y-117458234D01*
X74201246Y-117439325D01*
X74189718Y-117417756D01*
X74182615Y-117394340D01*
X74180000Y-117367792D01*
X74180000Y-117032208D01*
X74182615Y-117005660D01*
X74189718Y-116982244D01*
X74201246Y-116960675D01*
X74216766Y-116941766D01*
X74235675Y-116926246D01*
X74257244Y-116914718D01*
X74280660Y-116907615D01*
X74307208Y-116905000D01*
X74692792Y-116905000D01*
X74719340Y-116907615D01*
X74719340Y-116907615D01*
G37*
G36*
X100359295Y-114918896D02*
X100522084Y-114968278D01*
X100672112Y-115048469D01*
X100803612Y-115156388D01*
X100911531Y-115287888D01*
X100911532Y-115287890D01*
X100991722Y-115437916D01*
X101041104Y-115600705D01*
X101057779Y-115770000D01*
X101041527Y-115935000D01*
X101041104Y-115939295D01*
X100991722Y-116102084D01*
X100911531Y-116252112D01*
X100803612Y-116383612D01*
X100672112Y-116491531D01*
X100672110Y-116491532D01*
X100522084Y-116571722D01*
X100359295Y-116621104D01*
X100232425Y-116633600D01*
X100147575Y-116633600D01*
X100020705Y-116621104D01*
X99857916Y-116571722D01*
X99707890Y-116491532D01*
X99707888Y-116491531D01*
X99576388Y-116383612D01*
X99468469Y-116252112D01*
X99388278Y-116102084D01*
X99338896Y-115939295D01*
X99338473Y-115935000D01*
X99322221Y-115770000D01*
X99338896Y-115600705D01*
X99388278Y-115437916D01*
X99468468Y-115287890D01*
X99468469Y-115287888D01*
X99576388Y-115156388D01*
X99707888Y-115048469D01*
X99857916Y-114968278D01*
X100020705Y-114918896D01*
X100147575Y-114906400D01*
X100232425Y-114906400D01*
X100359295Y-114918896D01*
X100359295Y-114918896D01*
G37*
G36*
X105439295Y-114918896D02*
X105602084Y-114968278D01*
X105752112Y-115048469D01*
X105883612Y-115156388D01*
X105991531Y-115287888D01*
X105991532Y-115287890D01*
X106071722Y-115437916D01*
X106121104Y-115600705D01*
X106137779Y-115770000D01*
X106121527Y-115935000D01*
X106121104Y-115939295D01*
X106071722Y-116102084D01*
X105991531Y-116252112D01*
X105883612Y-116383612D01*
X105752112Y-116491531D01*
X105752110Y-116491532D01*
X105602084Y-116571722D01*
X105439295Y-116621104D01*
X105312425Y-116633600D01*
X105227575Y-116633600D01*
X105100705Y-116621104D01*
X104937916Y-116571722D01*
X104787890Y-116491532D01*
X104787888Y-116491531D01*
X104656388Y-116383612D01*
X104548469Y-116252112D01*
X104468278Y-116102084D01*
X104418896Y-115939295D01*
X104418473Y-115935000D01*
X104402221Y-115770000D01*
X104418896Y-115600705D01*
X104468278Y-115437916D01*
X104548468Y-115287890D01*
X104548469Y-115287888D01*
X104656388Y-115156388D01*
X104787888Y-115048469D01*
X104937916Y-114968278D01*
X105100705Y-114918896D01*
X105227575Y-114906400D01*
X105312425Y-114906400D01*
X105439295Y-114918896D01*
X105439295Y-114918896D01*
G37*
G36*
X102899295Y-114918896D02*
X103062084Y-114968278D01*
X103212112Y-115048469D01*
X103343612Y-115156388D01*
X103451531Y-115287888D01*
X103451532Y-115287890D01*
X103531722Y-115437916D01*
X103581104Y-115600705D01*
X103597779Y-115770000D01*
X103581527Y-115935000D01*
X103581104Y-115939295D01*
X103531722Y-116102084D01*
X103451531Y-116252112D01*
X103343612Y-116383612D01*
X103212112Y-116491531D01*
X103212110Y-116491532D01*
X103062084Y-116571722D01*
X102899295Y-116621104D01*
X102772425Y-116633600D01*
X102687575Y-116633600D01*
X102560705Y-116621104D01*
X102397916Y-116571722D01*
X102247890Y-116491532D01*
X102247888Y-116491531D01*
X102116388Y-116383612D01*
X102008469Y-116252112D01*
X101928278Y-116102084D01*
X101878896Y-115939295D01*
X101878473Y-115935000D01*
X101862221Y-115770000D01*
X101878896Y-115600705D01*
X101928278Y-115437916D01*
X102008468Y-115287890D01*
X102008469Y-115287888D01*
X102116388Y-115156388D01*
X102247888Y-115048469D01*
X102397916Y-114968278D01*
X102560705Y-114918896D01*
X102687575Y-114906400D01*
X102772425Y-114906400D01*
X102899295Y-114918896D01*
X102899295Y-114918896D01*
G37*
G36*
X97819295Y-114918896D02*
X97982084Y-114968278D01*
X98132112Y-115048469D01*
X98263612Y-115156388D01*
X98371531Y-115287888D01*
X98371532Y-115287890D01*
X98451722Y-115437916D01*
X98501104Y-115600705D01*
X98517779Y-115770000D01*
X98501527Y-115935000D01*
X98501104Y-115939295D01*
X98451722Y-116102084D01*
X98371531Y-116252112D01*
X98263612Y-116383612D01*
X98132112Y-116491531D01*
X98132110Y-116491532D01*
X97982084Y-116571722D01*
X97819295Y-116621104D01*
X97692425Y-116633600D01*
X97607575Y-116633600D01*
X97480705Y-116621104D01*
X97317916Y-116571722D01*
X97167890Y-116491532D01*
X97167888Y-116491531D01*
X97036388Y-116383612D01*
X96928469Y-116252112D01*
X96848278Y-116102084D01*
X96798896Y-115939295D01*
X96798473Y-115935000D01*
X96782221Y-115770000D01*
X96798896Y-115600705D01*
X96848278Y-115437916D01*
X96928468Y-115287890D01*
X96928469Y-115287888D01*
X97036388Y-115156388D01*
X97167888Y-115048469D01*
X97317916Y-114968278D01*
X97480705Y-114918896D01*
X97607575Y-114906400D01*
X97692425Y-114906400D01*
X97819295Y-114918896D01*
X97819295Y-114918896D01*
G37*
G36*
X95279295Y-114918896D02*
X95442084Y-114968278D01*
X95592112Y-115048469D01*
X95723612Y-115156388D01*
X95831531Y-115287888D01*
X95831532Y-115287890D01*
X95911722Y-115437916D01*
X95961104Y-115600705D01*
X95977779Y-115770000D01*
X95961527Y-115935000D01*
X95961104Y-115939295D01*
X95911722Y-116102084D01*
X95831531Y-116252112D01*
X95723612Y-116383612D01*
X95592112Y-116491531D01*
X95592110Y-116491532D01*
X95442084Y-116571722D01*
X95279295Y-116621104D01*
X95152425Y-116633600D01*
X95067575Y-116633600D01*
X94940705Y-116621104D01*
X94777916Y-116571722D01*
X94627890Y-116491532D01*
X94627888Y-116491531D01*
X94496388Y-116383612D01*
X94388469Y-116252112D01*
X94308278Y-116102084D01*
X94258896Y-115939295D01*
X94258473Y-115935000D01*
X94242221Y-115770000D01*
X94258896Y-115600705D01*
X94308278Y-115437916D01*
X94388468Y-115287890D01*
X94388469Y-115287888D01*
X94496388Y-115156388D01*
X94627888Y-115048469D01*
X94777916Y-114968278D01*
X94940705Y-114918896D01*
X95067575Y-114906400D01*
X95152425Y-114906400D01*
X95279295Y-114918896D01*
X95279295Y-114918896D01*
G37*
G36*
X107979295Y-114918896D02*
X108142084Y-114968278D01*
X108292112Y-115048469D01*
X108423612Y-115156388D01*
X108531531Y-115287888D01*
X108531532Y-115287890D01*
X108611722Y-115437916D01*
X108661104Y-115600705D01*
X108677779Y-115770000D01*
X108661527Y-115935000D01*
X108661104Y-115939295D01*
X108611722Y-116102084D01*
X108531531Y-116252112D01*
X108423612Y-116383612D01*
X108292112Y-116491531D01*
X108292110Y-116491532D01*
X108142084Y-116571722D01*
X107979295Y-116621104D01*
X107852425Y-116633600D01*
X107767575Y-116633600D01*
X107640705Y-116621104D01*
X107477916Y-116571722D01*
X107327890Y-116491532D01*
X107327888Y-116491531D01*
X107196388Y-116383612D01*
X107088469Y-116252112D01*
X107008278Y-116102084D01*
X106958896Y-115939295D01*
X106958473Y-115935000D01*
X106942221Y-115770000D01*
X106958896Y-115600705D01*
X107008278Y-115437916D01*
X107088468Y-115287890D01*
X107088469Y-115287888D01*
X107196388Y-115156388D01*
X107327888Y-115048469D01*
X107477916Y-114968278D01*
X107640705Y-114918896D01*
X107767575Y-114906400D01*
X107852425Y-114906400D01*
X107979295Y-114918896D01*
X107979295Y-114918896D01*
G37*
G36*
X110519295Y-114918896D02*
X110682084Y-114968278D01*
X110832112Y-115048469D01*
X110963612Y-115156388D01*
X111071531Y-115287888D01*
X111071532Y-115287890D01*
X111151722Y-115437916D01*
X111201104Y-115600705D01*
X111217779Y-115770000D01*
X111201527Y-115935000D01*
X111201104Y-115939295D01*
X111151722Y-116102084D01*
X111071531Y-116252112D01*
X110963612Y-116383612D01*
X110832112Y-116491531D01*
X110832110Y-116491532D01*
X110682084Y-116571722D01*
X110519295Y-116621104D01*
X110392425Y-116633600D01*
X110307575Y-116633600D01*
X110180705Y-116621104D01*
X110017916Y-116571722D01*
X109867890Y-116491532D01*
X109867888Y-116491531D01*
X109736388Y-116383612D01*
X109628469Y-116252112D01*
X109548278Y-116102084D01*
X109498896Y-115939295D01*
X109498473Y-115935000D01*
X109482221Y-115770000D01*
X109498896Y-115600705D01*
X109548278Y-115437916D01*
X109628468Y-115287890D01*
X109628469Y-115287888D01*
X109736388Y-115156388D01*
X109867888Y-115048469D01*
X110017916Y-114968278D01*
X110180705Y-114918896D01*
X110307575Y-114906400D01*
X110392425Y-114906400D01*
X110519295Y-114918896D01*
X110519295Y-114918896D01*
G37*
G36*
X113059295Y-114918896D02*
X113222084Y-114968278D01*
X113372112Y-115048469D01*
X113503612Y-115156388D01*
X113611531Y-115287888D01*
X113611532Y-115287890D01*
X113691722Y-115437916D01*
X113741104Y-115600705D01*
X113757779Y-115770000D01*
X113741527Y-115935000D01*
X113741104Y-115939295D01*
X113691722Y-116102084D01*
X113611531Y-116252112D01*
X113503612Y-116383612D01*
X113372112Y-116491531D01*
X113372110Y-116491532D01*
X113222084Y-116571722D01*
X113059295Y-116621104D01*
X112932425Y-116633600D01*
X112847575Y-116633600D01*
X112720705Y-116621104D01*
X112557916Y-116571722D01*
X112407890Y-116491532D01*
X112407888Y-116491531D01*
X112276388Y-116383612D01*
X112168469Y-116252112D01*
X112088278Y-116102084D01*
X112038896Y-115939295D01*
X112038473Y-115935000D01*
X112022221Y-115770000D01*
X112038896Y-115600705D01*
X112088278Y-115437916D01*
X112168468Y-115287890D01*
X112168469Y-115287888D01*
X112276388Y-115156388D01*
X112407888Y-115048469D01*
X112557916Y-114968278D01*
X112720705Y-114918896D01*
X112847575Y-114906400D01*
X112932425Y-114906400D01*
X113059295Y-114918896D01*
X113059295Y-114918896D01*
G37*
G36*
X115599295Y-114918896D02*
X115762084Y-114968278D01*
X115912112Y-115048469D01*
X116043612Y-115156388D01*
X116151531Y-115287888D01*
X116151532Y-115287890D01*
X116231722Y-115437916D01*
X116281104Y-115600705D01*
X116297779Y-115770000D01*
X116281527Y-115935000D01*
X116281104Y-115939295D01*
X116231722Y-116102084D01*
X116151531Y-116252112D01*
X116043612Y-116383612D01*
X115912112Y-116491531D01*
X115912110Y-116491532D01*
X115762084Y-116571722D01*
X115599295Y-116621104D01*
X115472425Y-116633600D01*
X115387575Y-116633600D01*
X115260705Y-116621104D01*
X115097916Y-116571722D01*
X114947890Y-116491532D01*
X114947888Y-116491531D01*
X114816388Y-116383612D01*
X114708469Y-116252112D01*
X114628278Y-116102084D01*
X114578896Y-115939295D01*
X114578473Y-115935000D01*
X114562221Y-115770000D01*
X114578896Y-115600705D01*
X114628278Y-115437916D01*
X114708468Y-115287890D01*
X114708469Y-115287888D01*
X114816388Y-115156388D01*
X114947888Y-115048469D01*
X115097916Y-114968278D01*
X115260705Y-114918896D01*
X115387575Y-114906400D01*
X115472425Y-114906400D01*
X115599295Y-114918896D01*
X115599295Y-114918896D01*
G37*
G36*
X92739295Y-114918896D02*
X92902084Y-114968278D01*
X93052112Y-115048469D01*
X93183612Y-115156388D01*
X93291531Y-115287888D01*
X93291532Y-115287890D01*
X93371722Y-115437916D01*
X93421104Y-115600705D01*
X93437779Y-115770000D01*
X93421527Y-115935000D01*
X93421104Y-115939295D01*
X93371722Y-116102084D01*
X93291531Y-116252112D01*
X93183612Y-116383612D01*
X93052112Y-116491531D01*
X93052110Y-116491532D01*
X92902084Y-116571722D01*
X92739295Y-116621104D01*
X92612425Y-116633600D01*
X92527575Y-116633600D01*
X92400705Y-116621104D01*
X92237916Y-116571722D01*
X92087890Y-116491532D01*
X92087888Y-116491531D01*
X91956388Y-116383612D01*
X91848469Y-116252112D01*
X91768278Y-116102084D01*
X91718896Y-115939295D01*
X91718473Y-115935000D01*
X91702221Y-115770000D01*
X91718896Y-115600705D01*
X91768278Y-115437916D01*
X91848468Y-115287890D01*
X91848469Y-115287888D01*
X91956388Y-115156388D01*
X92087888Y-115048469D01*
X92237916Y-114968278D01*
X92400705Y-114918896D01*
X92527575Y-114906400D01*
X92612425Y-114906400D01*
X92739295Y-114918896D01*
X92739295Y-114918896D01*
G37*
G36*
X74719340Y-115937615D02*
X74742756Y-115944718D01*
X74764325Y-115956246D01*
X74783234Y-115971766D01*
X74798754Y-115990675D01*
X74810282Y-116012244D01*
X74817385Y-116035660D01*
X74820000Y-116062208D01*
X74820000Y-116397792D01*
X74817385Y-116424340D01*
X74810282Y-116447756D01*
X74798754Y-116469325D01*
X74783234Y-116488234D01*
X74764325Y-116503754D01*
X74742756Y-116515282D01*
X74719340Y-116522385D01*
X74692792Y-116525000D01*
X74307208Y-116525000D01*
X74280660Y-116522385D01*
X74257244Y-116515282D01*
X74235675Y-116503754D01*
X74216766Y-116488234D01*
X74201246Y-116469325D01*
X74189718Y-116447756D01*
X74182615Y-116424340D01*
X74180000Y-116397792D01*
X74180000Y-116062208D01*
X74182615Y-116035660D01*
X74189718Y-116012244D01*
X74201246Y-115990675D01*
X74216766Y-115971766D01*
X74235675Y-115956246D01*
X74257244Y-115944718D01*
X74280660Y-115937615D01*
X74307208Y-115935000D01*
X74692792Y-115935000D01*
X74719340Y-115937615D01*
X74719340Y-115937615D01*
G37*
G36*
X113059295Y-112378896D02*
X113222084Y-112428278D01*
X113372112Y-112508469D01*
X113503612Y-112616388D01*
X113611531Y-112747888D01*
X113611532Y-112747890D01*
X113691722Y-112897916D01*
X113741104Y-113060705D01*
X113757779Y-113230000D01*
X113741104Y-113399295D01*
X113691722Y-113562084D01*
X113611531Y-113712112D01*
X113503612Y-113843612D01*
X113372112Y-113951531D01*
X113372110Y-113951532D01*
X113222084Y-114031722D01*
X113059295Y-114081104D01*
X112932425Y-114093600D01*
X112847575Y-114093600D01*
X112720705Y-114081104D01*
X112557916Y-114031722D01*
X112407890Y-113951532D01*
X112407888Y-113951531D01*
X112276388Y-113843612D01*
X112168469Y-113712112D01*
X112088278Y-113562084D01*
X112038896Y-113399295D01*
X112022221Y-113230000D01*
X112038896Y-113060705D01*
X112088278Y-112897916D01*
X112168468Y-112747890D01*
X112168469Y-112747888D01*
X112276388Y-112616388D01*
X112407888Y-112508469D01*
X112557916Y-112428278D01*
X112720705Y-112378896D01*
X112847575Y-112366400D01*
X112932425Y-112366400D01*
X113059295Y-112378896D01*
X113059295Y-112378896D01*
G37*
G36*
X105439295Y-112378896D02*
X105602084Y-112428278D01*
X105752112Y-112508469D01*
X105883612Y-112616388D01*
X105991531Y-112747888D01*
X105991532Y-112747890D01*
X106071722Y-112897916D01*
X106121104Y-113060705D01*
X106137779Y-113230000D01*
X106121104Y-113399295D01*
X106071722Y-113562084D01*
X105991531Y-113712112D01*
X105883612Y-113843612D01*
X105752112Y-113951531D01*
X105752110Y-113951532D01*
X105602084Y-114031722D01*
X105439295Y-114081104D01*
X105312425Y-114093600D01*
X105227575Y-114093600D01*
X105100705Y-114081104D01*
X104937916Y-114031722D01*
X104787890Y-113951532D01*
X104787888Y-113951531D01*
X104656388Y-113843612D01*
X104548469Y-113712112D01*
X104468278Y-113562084D01*
X104418896Y-113399295D01*
X104402221Y-113230000D01*
X104418896Y-113060705D01*
X104468278Y-112897916D01*
X104548468Y-112747890D01*
X104548469Y-112747888D01*
X104656388Y-112616388D01*
X104787888Y-112508469D01*
X104937916Y-112428278D01*
X105100705Y-112378896D01*
X105227575Y-112366400D01*
X105312425Y-112366400D01*
X105439295Y-112378896D01*
X105439295Y-112378896D01*
G37*
G36*
X102899295Y-112378896D02*
X103062084Y-112428278D01*
X103212112Y-112508469D01*
X103343612Y-112616388D01*
X103451531Y-112747888D01*
X103451532Y-112747890D01*
X103531722Y-112897916D01*
X103581104Y-113060705D01*
X103597779Y-113230000D01*
X103581104Y-113399295D01*
X103531722Y-113562084D01*
X103451531Y-113712112D01*
X103343612Y-113843612D01*
X103212112Y-113951531D01*
X103212110Y-113951532D01*
X103062084Y-114031722D01*
X102899295Y-114081104D01*
X102772425Y-114093600D01*
X102687575Y-114093600D01*
X102560705Y-114081104D01*
X102397916Y-114031722D01*
X102247890Y-113951532D01*
X102247888Y-113951531D01*
X102116388Y-113843612D01*
X102008469Y-113712112D01*
X101928278Y-113562084D01*
X101878896Y-113399295D01*
X101862221Y-113230000D01*
X101878896Y-113060705D01*
X101928278Y-112897916D01*
X102008468Y-112747890D01*
X102008469Y-112747888D01*
X102116388Y-112616388D01*
X102247888Y-112508469D01*
X102397916Y-112428278D01*
X102560705Y-112378896D01*
X102687575Y-112366400D01*
X102772425Y-112366400D01*
X102899295Y-112378896D01*
X102899295Y-112378896D01*
G37*
G36*
X107979295Y-112378896D02*
X108142084Y-112428278D01*
X108292112Y-112508469D01*
X108423612Y-112616388D01*
X108531531Y-112747888D01*
X108531532Y-112747890D01*
X108611722Y-112897916D01*
X108661104Y-113060705D01*
X108677779Y-113230000D01*
X108661104Y-113399295D01*
X108611722Y-113562084D01*
X108531531Y-113712112D01*
X108423612Y-113843612D01*
X108292112Y-113951531D01*
X108292110Y-113951532D01*
X108142084Y-114031722D01*
X107979295Y-114081104D01*
X107852425Y-114093600D01*
X107767575Y-114093600D01*
X107640705Y-114081104D01*
X107477916Y-114031722D01*
X107327890Y-113951532D01*
X107327888Y-113951531D01*
X107196388Y-113843612D01*
X107088469Y-113712112D01*
X107008278Y-113562084D01*
X106958896Y-113399295D01*
X106942221Y-113230000D01*
X106958896Y-113060705D01*
X107008278Y-112897916D01*
X107088468Y-112747890D01*
X107088469Y-112747888D01*
X107196388Y-112616388D01*
X107327888Y-112508469D01*
X107477916Y-112428278D01*
X107640705Y-112378896D01*
X107767575Y-112366400D01*
X107852425Y-112366400D01*
X107979295Y-112378896D01*
X107979295Y-112378896D01*
G37*
G36*
X100359295Y-112378896D02*
X100522084Y-112428278D01*
X100672112Y-112508469D01*
X100803612Y-112616388D01*
X100911531Y-112747888D01*
X100911532Y-112747890D01*
X100991722Y-112897916D01*
X101041104Y-113060705D01*
X101057779Y-113230000D01*
X101041104Y-113399295D01*
X100991722Y-113562084D01*
X100911531Y-113712112D01*
X100803612Y-113843612D01*
X100672112Y-113951531D01*
X100672110Y-113951532D01*
X100522084Y-114031722D01*
X100359295Y-114081104D01*
X100232425Y-114093600D01*
X100147575Y-114093600D01*
X100020705Y-114081104D01*
X99857916Y-114031722D01*
X99707890Y-113951532D01*
X99707888Y-113951531D01*
X99576388Y-113843612D01*
X99468469Y-113712112D01*
X99388278Y-113562084D01*
X99338896Y-113399295D01*
X99322221Y-113230000D01*
X99338896Y-113060705D01*
X99388278Y-112897916D01*
X99468468Y-112747890D01*
X99468469Y-112747888D01*
X99576388Y-112616388D01*
X99707888Y-112508469D01*
X99857916Y-112428278D01*
X100020705Y-112378896D01*
X100147575Y-112366400D01*
X100232425Y-112366400D01*
X100359295Y-112378896D01*
X100359295Y-112378896D01*
G37*
G36*
X110519295Y-112378896D02*
X110682084Y-112428278D01*
X110832112Y-112508469D01*
X110963612Y-112616388D01*
X111071531Y-112747888D01*
X111071532Y-112747890D01*
X111151722Y-112897916D01*
X111201104Y-113060705D01*
X111217779Y-113230000D01*
X111201104Y-113399295D01*
X111151722Y-113562084D01*
X111071531Y-113712112D01*
X110963612Y-113843612D01*
X110832112Y-113951531D01*
X110832110Y-113951532D01*
X110682084Y-114031722D01*
X110519295Y-114081104D01*
X110392425Y-114093600D01*
X110307575Y-114093600D01*
X110180705Y-114081104D01*
X110017916Y-114031722D01*
X109867890Y-113951532D01*
X109867888Y-113951531D01*
X109736388Y-113843612D01*
X109628469Y-113712112D01*
X109548278Y-113562084D01*
X109498896Y-113399295D01*
X109482221Y-113230000D01*
X109498896Y-113060705D01*
X109548278Y-112897916D01*
X109628468Y-112747890D01*
X109628469Y-112747888D01*
X109736388Y-112616388D01*
X109867888Y-112508469D01*
X110017916Y-112428278D01*
X110180705Y-112378896D01*
X110307575Y-112366400D01*
X110392425Y-112366400D01*
X110519295Y-112378896D01*
X110519295Y-112378896D01*
G37*
G36*
X97819295Y-112378896D02*
X97982084Y-112428278D01*
X98132112Y-112508469D01*
X98263612Y-112616388D01*
X98371531Y-112747888D01*
X98371532Y-112747890D01*
X98451722Y-112897916D01*
X98501104Y-113060705D01*
X98517779Y-113230000D01*
X98501104Y-113399295D01*
X98451722Y-113562084D01*
X98371531Y-113712112D01*
X98263612Y-113843612D01*
X98132112Y-113951531D01*
X98132110Y-113951532D01*
X97982084Y-114031722D01*
X97819295Y-114081104D01*
X97692425Y-114093600D01*
X97607575Y-114093600D01*
X97480705Y-114081104D01*
X97317916Y-114031722D01*
X97167890Y-113951532D01*
X97167888Y-113951531D01*
X97036388Y-113843612D01*
X96928469Y-113712112D01*
X96848278Y-113562084D01*
X96798896Y-113399295D01*
X96782221Y-113230000D01*
X96798896Y-113060705D01*
X96848278Y-112897916D01*
X96928468Y-112747890D01*
X96928469Y-112747888D01*
X97036388Y-112616388D01*
X97167888Y-112508469D01*
X97317916Y-112428278D01*
X97480705Y-112378896D01*
X97607575Y-112366400D01*
X97692425Y-112366400D01*
X97819295Y-112378896D01*
X97819295Y-112378896D01*
G37*
G36*
X92739295Y-112378896D02*
X92902084Y-112428278D01*
X93052112Y-112508469D01*
X93183612Y-112616388D01*
X93291531Y-112747888D01*
X93291532Y-112747890D01*
X93371722Y-112897916D01*
X93421104Y-113060705D01*
X93437779Y-113230000D01*
X93421104Y-113399295D01*
X93371722Y-113562084D01*
X93291531Y-113712112D01*
X93183612Y-113843612D01*
X93052112Y-113951531D01*
X93052110Y-113951532D01*
X92902084Y-114031722D01*
X92739295Y-114081104D01*
X92612425Y-114093600D01*
X92527575Y-114093600D01*
X92400705Y-114081104D01*
X92237916Y-114031722D01*
X92087890Y-113951532D01*
X92087888Y-113951531D01*
X91956388Y-113843612D01*
X91848469Y-113712112D01*
X91768278Y-113562084D01*
X91718896Y-113399295D01*
X91702221Y-113230000D01*
X91718896Y-113060705D01*
X91768278Y-112897916D01*
X91848468Y-112747890D01*
X91848469Y-112747888D01*
X91956388Y-112616388D01*
X92087888Y-112508469D01*
X92237916Y-112428278D01*
X92400705Y-112378896D01*
X92527575Y-112366400D01*
X92612425Y-112366400D01*
X92739295Y-112378896D01*
X92739295Y-112378896D01*
G37*
G36*
X116293600Y-114093600D02*
X114566400Y-114093600D01*
X114566400Y-112366400D01*
X116293600Y-112366400D01*
X116293600Y-114093600D01*
X116293600Y-114093600D01*
G37*
G36*
X95279295Y-112378896D02*
X95442084Y-112428278D01*
X95592112Y-112508469D01*
X95723612Y-112616388D01*
X95831531Y-112747888D01*
X95831532Y-112747890D01*
X95911722Y-112897916D01*
X95961104Y-113060705D01*
X95977779Y-113230000D01*
X95961104Y-113399295D01*
X95911722Y-113562084D01*
X95831531Y-113712112D01*
X95723612Y-113843612D01*
X95592112Y-113951531D01*
X95592110Y-113951532D01*
X95442084Y-114031722D01*
X95279295Y-114081104D01*
X95152425Y-114093600D01*
X95067575Y-114093600D01*
X94940705Y-114081104D01*
X94777916Y-114031722D01*
X94627890Y-113951532D01*
X94627888Y-113951531D01*
X94496388Y-113843612D01*
X94388469Y-113712112D01*
X94308278Y-113562084D01*
X94258896Y-113399295D01*
X94242221Y-113230000D01*
X94258896Y-113060705D01*
X94308278Y-112897916D01*
X94388468Y-112747890D01*
X94388469Y-112747888D01*
X94496388Y-112616388D01*
X94627888Y-112508469D01*
X94777916Y-112428278D01*
X94940705Y-112378896D01*
X95067575Y-112366400D01*
X95152425Y-112366400D01*
X95279295Y-112378896D01*
X95279295Y-112378896D01*
G37*
G36*
X65820968Y-112454941D02*
X65854088Y-112461528D01*
X65908684Y-112484143D01*
X65957820Y-112516974D01*
X65999607Y-112558761D01*
X66032438Y-112607897D01*
X66055053Y-112662493D01*
X66061640Y-112695613D01*
X66066581Y-112720450D01*
X66066581Y-112779550D01*
X66062513Y-112800000D01*
X66055053Y-112837507D01*
X66032438Y-112892103D01*
X65999607Y-112941239D01*
X65957820Y-112983026D01*
X65908684Y-113015857D01*
X65854088Y-113038472D01*
X65820968Y-113045059D01*
X65796131Y-113050000D01*
X65737031Y-113050000D01*
X65712194Y-113045059D01*
X65679074Y-113038472D01*
X65624478Y-113015857D01*
X65575342Y-112983026D01*
X65533555Y-112941239D01*
X65500724Y-112892103D01*
X65478109Y-112837507D01*
X65470649Y-112800000D01*
X65466581Y-112779550D01*
X65466581Y-112720450D01*
X65471522Y-112695613D01*
X65478109Y-112662493D01*
X65500724Y-112607897D01*
X65533555Y-112558761D01*
X65575342Y-112516974D01*
X65624478Y-112484143D01*
X65679074Y-112461528D01*
X65712194Y-112454941D01*
X65737031Y-112450000D01*
X65796131Y-112450000D01*
X65820968Y-112454941D01*
X65820968Y-112454941D01*
G37*
G36*
X66820968Y-112454941D02*
X66854088Y-112461528D01*
X66908684Y-112484143D01*
X66957820Y-112516974D01*
X66999607Y-112558761D01*
X67032438Y-112607897D01*
X67055053Y-112662493D01*
X67061640Y-112695613D01*
X67066581Y-112720450D01*
X67066581Y-112779550D01*
X67062513Y-112800000D01*
X67055053Y-112837507D01*
X67032438Y-112892103D01*
X66999607Y-112941239D01*
X66957820Y-112983026D01*
X66908684Y-113015857D01*
X66854088Y-113038472D01*
X66820968Y-113045059D01*
X66796131Y-113050000D01*
X66737031Y-113050000D01*
X66712194Y-113045059D01*
X66679074Y-113038472D01*
X66624478Y-113015857D01*
X66575342Y-112983026D01*
X66533555Y-112941239D01*
X66500724Y-112892103D01*
X66478109Y-112837507D01*
X66470649Y-112800000D01*
X66466581Y-112779550D01*
X66466581Y-112720450D01*
X66471522Y-112695613D01*
X66478109Y-112662493D01*
X66500724Y-112607897D01*
X66533555Y-112558761D01*
X66575342Y-112516974D01*
X66624478Y-112484143D01*
X66679074Y-112461528D01*
X66712194Y-112454941D01*
X66737031Y-112450000D01*
X66796131Y-112450000D01*
X66820968Y-112454941D01*
X66820968Y-112454941D01*
G37*
G36*
X65820968Y-111454941D02*
X65854088Y-111461528D01*
X65908684Y-111484143D01*
X65957820Y-111516974D01*
X65999607Y-111558761D01*
X66032438Y-111607897D01*
X66055053Y-111662493D01*
X66057794Y-111676276D01*
X66066581Y-111720450D01*
X66066581Y-111779550D01*
X66061640Y-111804387D01*
X66055053Y-111837507D01*
X66032438Y-111892103D01*
X65999607Y-111941239D01*
X65957820Y-111983026D01*
X65908684Y-112015857D01*
X65854088Y-112038472D01*
X65820968Y-112045059D01*
X65796131Y-112050000D01*
X65737031Y-112050000D01*
X65712194Y-112045059D01*
X65679074Y-112038472D01*
X65624478Y-112015857D01*
X65575342Y-111983026D01*
X65533555Y-111941239D01*
X65500724Y-111892103D01*
X65478109Y-111837507D01*
X65471522Y-111804387D01*
X65466581Y-111779550D01*
X65466581Y-111720450D01*
X65475368Y-111676276D01*
X65478109Y-111662493D01*
X65500724Y-111607897D01*
X65533555Y-111558761D01*
X65575342Y-111516974D01*
X65624478Y-111484143D01*
X65679074Y-111461528D01*
X65712194Y-111454941D01*
X65737031Y-111450000D01*
X65796131Y-111450000D01*
X65820968Y-111454941D01*
X65820968Y-111454941D01*
G37*
G36*
X66820968Y-111454941D02*
X66854088Y-111461528D01*
X66908684Y-111484143D01*
X66957820Y-111516974D01*
X66999607Y-111558761D01*
X67032438Y-111607897D01*
X67055053Y-111662493D01*
X67057794Y-111676276D01*
X67066581Y-111720450D01*
X67066581Y-111779550D01*
X67061640Y-111804387D01*
X67055053Y-111837507D01*
X67032438Y-111892103D01*
X66999607Y-111941239D01*
X66957820Y-111983026D01*
X66908684Y-112015857D01*
X66854088Y-112038472D01*
X66820968Y-112045059D01*
X66796131Y-112050000D01*
X66737031Y-112050000D01*
X66712194Y-112045059D01*
X66679074Y-112038472D01*
X66624478Y-112015857D01*
X66575342Y-111983026D01*
X66533555Y-111941239D01*
X66500724Y-111892103D01*
X66478109Y-111837507D01*
X66471522Y-111804387D01*
X66466581Y-111779550D01*
X66466581Y-111720450D01*
X66475368Y-111676276D01*
X66478109Y-111662493D01*
X66500724Y-111607897D01*
X66533555Y-111558761D01*
X66575342Y-111516974D01*
X66624478Y-111484143D01*
X66679074Y-111461528D01*
X66712194Y-111454941D01*
X66737031Y-111450000D01*
X66796131Y-111450000D01*
X66820968Y-111454941D01*
X66820968Y-111454941D01*
G37*
G36*
X74719340Y-111207615D02*
X74742756Y-111214718D01*
X74764325Y-111226246D01*
X74783234Y-111241766D01*
X74798754Y-111260675D01*
X74810282Y-111282244D01*
X74817385Y-111305660D01*
X74820000Y-111332208D01*
X74820000Y-111667792D01*
X74817385Y-111694340D01*
X74810282Y-111717756D01*
X74798754Y-111739325D01*
X74783234Y-111758234D01*
X74764325Y-111773754D01*
X74742756Y-111785282D01*
X74719340Y-111792385D01*
X74692792Y-111795000D01*
X74307208Y-111795000D01*
X74280660Y-111792385D01*
X74257244Y-111785282D01*
X74235675Y-111773754D01*
X74216766Y-111758234D01*
X74201246Y-111739325D01*
X74189718Y-111717756D01*
X74182615Y-111694340D01*
X74180000Y-111667792D01*
X74180000Y-111332208D01*
X74182615Y-111305660D01*
X74189718Y-111282244D01*
X74201246Y-111260675D01*
X74216766Y-111241766D01*
X74235675Y-111226246D01*
X74257244Y-111214718D01*
X74280660Y-111207615D01*
X74307208Y-111205000D01*
X74692792Y-111205000D01*
X74719340Y-111207615D01*
X74719340Y-111207615D01*
G37*
G36*
X74719340Y-110237615D02*
X74742756Y-110244718D01*
X74764325Y-110256246D01*
X74783234Y-110271766D01*
X74798754Y-110290675D01*
X74810282Y-110312244D01*
X74817385Y-110335660D01*
X74820000Y-110362208D01*
X74820000Y-110697792D01*
X74817385Y-110724340D01*
X74810282Y-110747756D01*
X74798754Y-110769325D01*
X74783234Y-110788234D01*
X74764325Y-110803754D01*
X74742756Y-110815282D01*
X74719340Y-110822385D01*
X74692792Y-110825000D01*
X74307208Y-110825000D01*
X74280660Y-110822385D01*
X74257244Y-110815282D01*
X74235675Y-110803754D01*
X74216766Y-110788234D01*
X74201246Y-110769325D01*
X74189718Y-110747756D01*
X74182615Y-110724340D01*
X74180000Y-110697792D01*
X74180000Y-110362208D01*
X74182615Y-110335660D01*
X74189718Y-110312244D01*
X74201246Y-110290675D01*
X74216766Y-110271766D01*
X74235675Y-110256246D01*
X74257244Y-110244718D01*
X74280660Y-110237615D01*
X74307208Y-110235000D01*
X74692792Y-110235000D01*
X74719340Y-110237615D01*
X74719340Y-110237615D01*
G37*
G36*
X82726629Y-107562299D02*
X82886855Y-107610903D01*
X83034519Y-107689830D01*
X83163948Y-107796052D01*
X83270170Y-107925481D01*
X83349097Y-108073145D01*
X83397701Y-108233371D01*
X83414113Y-108400000D01*
X83397701Y-108566629D01*
X83349097Y-108726855D01*
X83270170Y-108874519D01*
X83163948Y-109003948D01*
X83034519Y-109110170D01*
X82886855Y-109189097D01*
X82726629Y-109237701D01*
X82601756Y-109250000D01*
X82518244Y-109250000D01*
X82393371Y-109237701D01*
X82233145Y-109189097D01*
X82085481Y-109110170D01*
X81956052Y-109003948D01*
X81849830Y-108874519D01*
X81770903Y-108726855D01*
X81722299Y-108566629D01*
X81705887Y-108400000D01*
X81722299Y-108233371D01*
X81770903Y-108073145D01*
X81849830Y-107925481D01*
X81956052Y-107796052D01*
X82085481Y-107689830D01*
X82233145Y-107610903D01*
X82393371Y-107562299D01*
X82518244Y-107550000D01*
X82601756Y-107550000D01*
X82726629Y-107562299D01*
X82726629Y-107562299D01*
G37*
G36*
X85950000Y-109250000D02*
X84250000Y-109250000D01*
X84250000Y-107550000D01*
X85950000Y-107550000D01*
X85950000Y-109250000D01*
X85950000Y-109250000D01*
G37*
G36*
X111718017Y-108007235D02*
X111812269Y-108035825D01*
X111899129Y-108082252D01*
X111975264Y-108144736D01*
X112037748Y-108220871D01*
X112084175Y-108307731D01*
X112112765Y-108401983D01*
X112122420Y-108500000D01*
X112112765Y-108598017D01*
X112084175Y-108692269D01*
X112037748Y-108779129D01*
X111975264Y-108855264D01*
X111899129Y-108917748D01*
X111812269Y-108964175D01*
X111718017Y-108992765D01*
X111644565Y-109000000D01*
X111595435Y-109000000D01*
X111521983Y-108992765D01*
X111427731Y-108964175D01*
X111340871Y-108917748D01*
X111264736Y-108855264D01*
X111202252Y-108779129D01*
X111155825Y-108692269D01*
X111127235Y-108598017D01*
X111117580Y-108500000D01*
X111127235Y-108401983D01*
X111155825Y-108307731D01*
X111202252Y-108220871D01*
X111264736Y-108144736D01*
X111340871Y-108082252D01*
X111427731Y-108035825D01*
X111521983Y-108007235D01*
X111595435Y-108000000D01*
X111644565Y-108000000D01*
X111718017Y-108007235D01*
X111718017Y-108007235D01*
G37*
G36*
X112988017Y-108007235D02*
X113082269Y-108035825D01*
X113169129Y-108082252D01*
X113245264Y-108144736D01*
X113307748Y-108220871D01*
X113354175Y-108307731D01*
X113382765Y-108401983D01*
X113392420Y-108500000D01*
X113382765Y-108598017D01*
X113354175Y-108692269D01*
X113307748Y-108779129D01*
X113245264Y-108855264D01*
X113169129Y-108917748D01*
X113082269Y-108964175D01*
X112988017Y-108992765D01*
X112914565Y-109000000D01*
X112865435Y-109000000D01*
X112791983Y-108992765D01*
X112697731Y-108964175D01*
X112610871Y-108917748D01*
X112534736Y-108855264D01*
X112472252Y-108779129D01*
X112425825Y-108692269D01*
X112397235Y-108598017D01*
X112387580Y-108500000D01*
X112397235Y-108401983D01*
X112425825Y-108307731D01*
X112472252Y-108220871D01*
X112534736Y-108144736D01*
X112610871Y-108082252D01*
X112697731Y-108035825D01*
X112791983Y-108007235D01*
X112865435Y-108000000D01*
X112914565Y-108000000D01*
X112988017Y-108007235D01*
X112988017Y-108007235D01*
G37*
G36*
X114258017Y-108007235D02*
X114352269Y-108035825D01*
X114439129Y-108082252D01*
X114515264Y-108144736D01*
X114577748Y-108220871D01*
X114624175Y-108307731D01*
X114652765Y-108401983D01*
X114662420Y-108500000D01*
X114652765Y-108598017D01*
X114624175Y-108692269D01*
X114577748Y-108779129D01*
X114515264Y-108855264D01*
X114439129Y-108917748D01*
X114352269Y-108964175D01*
X114258017Y-108992765D01*
X114184565Y-109000000D01*
X114135435Y-109000000D01*
X114061983Y-108992765D01*
X113967731Y-108964175D01*
X113880871Y-108917748D01*
X113804736Y-108855264D01*
X113742252Y-108779129D01*
X113695825Y-108692269D01*
X113667235Y-108598017D01*
X113657580Y-108500000D01*
X113667235Y-108401983D01*
X113695825Y-108307731D01*
X113742252Y-108220871D01*
X113804736Y-108144736D01*
X113880871Y-108082252D01*
X113967731Y-108035825D01*
X114061983Y-108007235D01*
X114135435Y-108000000D01*
X114184565Y-108000000D01*
X114258017Y-108007235D01*
X114258017Y-108007235D01*
G37*
G36*
X115528017Y-108007235D02*
X115622269Y-108035825D01*
X115709129Y-108082252D01*
X115785264Y-108144736D01*
X115847748Y-108220871D01*
X115894175Y-108307731D01*
X115922765Y-108401983D01*
X115932420Y-108500000D01*
X115922765Y-108598017D01*
X115894175Y-108692269D01*
X115847748Y-108779129D01*
X115785264Y-108855264D01*
X115709129Y-108917748D01*
X115622269Y-108964175D01*
X115528017Y-108992765D01*
X115454565Y-109000000D01*
X115405435Y-109000000D01*
X115331983Y-108992765D01*
X115237731Y-108964175D01*
X115150871Y-108917748D01*
X115074736Y-108855264D01*
X115012252Y-108779129D01*
X114965825Y-108692269D01*
X114937235Y-108598017D01*
X114927580Y-108500000D01*
X114937235Y-108401983D01*
X114965825Y-108307731D01*
X115012252Y-108220871D01*
X115074736Y-108144736D01*
X115150871Y-108082252D01*
X115237731Y-108035825D01*
X115331983Y-108007235D01*
X115405435Y-108000000D01*
X115454565Y-108000000D01*
X115528017Y-108007235D01*
X115528017Y-108007235D01*
G37*
G36*
X107908017Y-108007235D02*
X108002269Y-108035825D01*
X108089129Y-108082252D01*
X108165264Y-108144736D01*
X108227748Y-108220871D01*
X108274175Y-108307731D01*
X108302765Y-108401983D01*
X108312420Y-108500000D01*
X108302765Y-108598017D01*
X108274175Y-108692269D01*
X108227748Y-108779129D01*
X108165264Y-108855264D01*
X108089129Y-108917748D01*
X108002269Y-108964175D01*
X107908017Y-108992765D01*
X107834565Y-109000000D01*
X107785435Y-109000000D01*
X107711983Y-108992765D01*
X107617731Y-108964175D01*
X107530871Y-108917748D01*
X107454736Y-108855264D01*
X107392252Y-108779129D01*
X107345825Y-108692269D01*
X107317235Y-108598017D01*
X107307580Y-108500000D01*
X107317235Y-108401983D01*
X107345825Y-108307731D01*
X107392252Y-108220871D01*
X107454736Y-108144736D01*
X107530871Y-108082252D01*
X107617731Y-108035825D01*
X107711983Y-108007235D01*
X107785435Y-108000000D01*
X107834565Y-108000000D01*
X107908017Y-108007235D01*
X107908017Y-108007235D01*
G37*
G36*
X109178017Y-108007235D02*
X109272269Y-108035825D01*
X109359129Y-108082252D01*
X109435264Y-108144736D01*
X109497748Y-108220871D01*
X109544175Y-108307731D01*
X109572765Y-108401983D01*
X109582420Y-108500000D01*
X109572765Y-108598017D01*
X109544175Y-108692269D01*
X109497748Y-108779129D01*
X109435264Y-108855264D01*
X109359129Y-108917748D01*
X109272269Y-108964175D01*
X109178017Y-108992765D01*
X109104565Y-109000000D01*
X109055435Y-109000000D01*
X108981983Y-108992765D01*
X108887731Y-108964175D01*
X108800871Y-108917748D01*
X108724736Y-108855264D01*
X108662252Y-108779129D01*
X108615825Y-108692269D01*
X108587235Y-108598017D01*
X108577580Y-108500000D01*
X108587235Y-108401983D01*
X108615825Y-108307731D01*
X108662252Y-108220871D01*
X108724736Y-108144736D01*
X108800871Y-108082252D01*
X108887731Y-108035825D01*
X108981983Y-108007235D01*
X109055435Y-108000000D01*
X109104565Y-108000000D01*
X109178017Y-108007235D01*
X109178017Y-108007235D01*
G37*
G36*
X117200000Y-109000000D02*
X116200000Y-109000000D01*
X116200000Y-108000000D01*
X117200000Y-108000000D01*
X117200000Y-109000000D01*
X117200000Y-109000000D01*
G37*
G36*
X110448017Y-108007235D02*
X110542269Y-108035825D01*
X110629129Y-108082252D01*
X110705264Y-108144736D01*
X110767748Y-108220871D01*
X110814175Y-108307731D01*
X110842765Y-108401983D01*
X110852420Y-108500000D01*
X110842765Y-108598017D01*
X110814175Y-108692269D01*
X110767748Y-108779129D01*
X110705264Y-108855264D01*
X110629129Y-108917748D01*
X110542269Y-108964175D01*
X110448017Y-108992765D01*
X110374565Y-109000000D01*
X110325435Y-109000000D01*
X110251983Y-108992765D01*
X110157731Y-108964175D01*
X110070871Y-108917748D01*
X109994736Y-108855264D01*
X109932252Y-108779129D01*
X109885825Y-108692269D01*
X109857235Y-108598017D01*
X109847580Y-108500000D01*
X109857235Y-108401983D01*
X109885825Y-108307731D01*
X109932252Y-108220871D01*
X109994736Y-108144736D01*
X110070871Y-108082252D01*
X110157731Y-108035825D01*
X110251983Y-108007235D01*
X110325435Y-108000000D01*
X110374565Y-108000000D01*
X110448017Y-108007235D01*
X110448017Y-108007235D01*
G37*
G36*
X101119340Y-105092615D02*
X101142756Y-105099718D01*
X101164325Y-105111246D01*
X101183234Y-105126766D01*
X101198754Y-105145675D01*
X101210282Y-105167244D01*
X101217385Y-105190660D01*
X101220000Y-105217208D01*
X101220000Y-105552792D01*
X101217385Y-105579340D01*
X101210282Y-105602756D01*
X101198754Y-105624325D01*
X101183234Y-105643234D01*
X101164325Y-105658754D01*
X101142756Y-105670282D01*
X101119340Y-105677385D01*
X101092792Y-105680000D01*
X100707208Y-105680000D01*
X100680660Y-105677385D01*
X100657244Y-105670282D01*
X100635675Y-105658754D01*
X100616766Y-105643234D01*
X100601246Y-105624325D01*
X100589718Y-105602756D01*
X100582615Y-105579340D01*
X100580000Y-105552792D01*
X100580000Y-105217208D01*
X100582615Y-105190660D01*
X100589718Y-105167244D01*
X100601246Y-105145675D01*
X100616766Y-105126766D01*
X100635675Y-105111246D01*
X100657244Y-105099718D01*
X100680660Y-105092615D01*
X100707208Y-105090000D01*
X101092792Y-105090000D01*
X101119340Y-105092615D01*
X101119340Y-105092615D01*
G37*
G36*
X96219340Y-105092615D02*
X96242756Y-105099718D01*
X96264325Y-105111246D01*
X96283234Y-105126766D01*
X96298754Y-105145675D01*
X96310282Y-105167244D01*
X96317385Y-105190660D01*
X96320000Y-105217208D01*
X96320000Y-105552792D01*
X96317385Y-105579340D01*
X96310282Y-105602756D01*
X96298754Y-105624325D01*
X96283234Y-105643234D01*
X96264325Y-105658754D01*
X96242756Y-105670282D01*
X96219340Y-105677385D01*
X96192792Y-105680000D01*
X95807208Y-105680000D01*
X95780660Y-105677385D01*
X95757244Y-105670282D01*
X95735675Y-105658754D01*
X95716766Y-105643234D01*
X95701246Y-105624325D01*
X95689718Y-105602756D01*
X95682615Y-105579340D01*
X95680000Y-105552792D01*
X95680000Y-105217208D01*
X95682615Y-105190660D01*
X95689718Y-105167244D01*
X95701246Y-105145675D01*
X95716766Y-105126766D01*
X95735675Y-105111246D01*
X95757244Y-105099718D01*
X95780660Y-105092615D01*
X95807208Y-105090000D01*
X96192792Y-105090000D01*
X96219340Y-105092615D01*
X96219340Y-105092615D01*
G37*
G36*
X99719340Y-105092615D02*
X99742756Y-105099718D01*
X99764325Y-105111246D01*
X99783234Y-105126766D01*
X99798754Y-105145675D01*
X99810282Y-105167244D01*
X99817385Y-105190660D01*
X99820000Y-105217208D01*
X99820000Y-105552792D01*
X99817385Y-105579340D01*
X99810282Y-105602756D01*
X99798754Y-105624325D01*
X99783234Y-105643234D01*
X99764325Y-105658754D01*
X99742756Y-105670282D01*
X99719340Y-105677385D01*
X99692792Y-105680000D01*
X99307208Y-105680000D01*
X99280660Y-105677385D01*
X99257244Y-105670282D01*
X99235675Y-105658754D01*
X99216766Y-105643234D01*
X99201246Y-105624325D01*
X99189718Y-105602756D01*
X99182615Y-105579340D01*
X99180000Y-105552792D01*
X99180000Y-105217208D01*
X99182615Y-105190660D01*
X99189718Y-105167244D01*
X99201246Y-105145675D01*
X99216766Y-105126766D01*
X99235675Y-105111246D01*
X99257244Y-105099718D01*
X99280660Y-105092615D01*
X99307208Y-105090000D01*
X99692792Y-105090000D01*
X99719340Y-105092615D01*
X99719340Y-105092615D01*
G37*
G36*
X94819340Y-105077615D02*
X94842756Y-105084718D01*
X94864325Y-105096246D01*
X94883234Y-105111766D01*
X94898754Y-105130675D01*
X94910282Y-105152244D01*
X94917385Y-105175660D01*
X94920000Y-105202208D01*
X94920000Y-105537792D01*
X94917385Y-105564340D01*
X94910282Y-105587756D01*
X94898754Y-105609325D01*
X94883234Y-105628234D01*
X94864325Y-105643754D01*
X94842756Y-105655282D01*
X94819340Y-105662385D01*
X94792792Y-105665000D01*
X94407208Y-105665000D01*
X94380660Y-105662385D01*
X94357244Y-105655282D01*
X94335675Y-105643754D01*
X94316766Y-105628234D01*
X94301246Y-105609325D01*
X94289718Y-105587756D01*
X94282615Y-105564340D01*
X94280000Y-105537792D01*
X94280000Y-105202208D01*
X94282615Y-105175660D01*
X94289718Y-105152244D01*
X94301246Y-105130675D01*
X94316766Y-105111766D01*
X94335675Y-105096246D01*
X94357244Y-105084718D01*
X94380660Y-105077615D01*
X94407208Y-105075000D01*
X94792792Y-105075000D01*
X94819340Y-105077615D01*
X94819340Y-105077615D01*
G37*
G36*
X101119340Y-104122615D02*
X101142756Y-104129718D01*
X101164325Y-104141246D01*
X101183234Y-104156766D01*
X101198754Y-104175675D01*
X101210282Y-104197244D01*
X101217385Y-104220660D01*
X101220000Y-104247208D01*
X101220000Y-104582792D01*
X101217385Y-104609340D01*
X101210282Y-104632756D01*
X101198754Y-104654325D01*
X101183234Y-104673234D01*
X101164325Y-104688754D01*
X101142756Y-104700282D01*
X101119340Y-104707385D01*
X101092792Y-104710000D01*
X100707208Y-104710000D01*
X100680660Y-104707385D01*
X100657244Y-104700282D01*
X100635675Y-104688754D01*
X100616766Y-104673234D01*
X100601246Y-104654325D01*
X100589718Y-104632756D01*
X100582615Y-104609340D01*
X100580000Y-104582792D01*
X100580000Y-104247208D01*
X100582615Y-104220660D01*
X100589718Y-104197244D01*
X100601246Y-104175675D01*
X100616766Y-104156766D01*
X100635675Y-104141246D01*
X100657244Y-104129718D01*
X100680660Y-104122615D01*
X100707208Y-104120000D01*
X101092792Y-104120000D01*
X101119340Y-104122615D01*
X101119340Y-104122615D01*
G37*
G36*
X99719340Y-104122615D02*
X99742756Y-104129718D01*
X99764325Y-104141246D01*
X99783234Y-104156766D01*
X99798754Y-104175675D01*
X99810282Y-104197244D01*
X99817385Y-104220660D01*
X99820000Y-104247208D01*
X99820000Y-104582792D01*
X99817385Y-104609340D01*
X99810282Y-104632756D01*
X99798754Y-104654325D01*
X99783234Y-104673234D01*
X99764325Y-104688754D01*
X99742756Y-104700282D01*
X99719340Y-104707385D01*
X99692792Y-104710000D01*
X99307208Y-104710000D01*
X99280660Y-104707385D01*
X99257244Y-104700282D01*
X99235675Y-104688754D01*
X99216766Y-104673234D01*
X99201246Y-104654325D01*
X99189718Y-104632756D01*
X99182615Y-104609340D01*
X99180000Y-104582792D01*
X99180000Y-104247208D01*
X99182615Y-104220660D01*
X99189718Y-104197244D01*
X99201246Y-104175675D01*
X99216766Y-104156766D01*
X99235675Y-104141246D01*
X99257244Y-104129718D01*
X99280660Y-104122615D01*
X99307208Y-104120000D01*
X99692792Y-104120000D01*
X99719340Y-104122615D01*
X99719340Y-104122615D01*
G37*
G36*
X96219340Y-104122615D02*
X96242756Y-104129718D01*
X96264325Y-104141246D01*
X96283234Y-104156766D01*
X96298754Y-104175675D01*
X96310282Y-104197244D01*
X96317385Y-104220660D01*
X96320000Y-104247208D01*
X96320000Y-104582792D01*
X96317385Y-104609340D01*
X96310282Y-104632756D01*
X96298754Y-104654325D01*
X96283234Y-104673234D01*
X96264325Y-104688754D01*
X96242756Y-104700282D01*
X96219340Y-104707385D01*
X96192792Y-104710000D01*
X95807208Y-104710000D01*
X95780660Y-104707385D01*
X95757244Y-104700282D01*
X95735675Y-104688754D01*
X95716766Y-104673234D01*
X95701246Y-104654325D01*
X95689718Y-104632756D01*
X95682615Y-104609340D01*
X95680000Y-104582792D01*
X95680000Y-104247208D01*
X95682615Y-104220660D01*
X95689718Y-104197244D01*
X95701246Y-104175675D01*
X95716766Y-104156766D01*
X95735675Y-104141246D01*
X95757244Y-104129718D01*
X95780660Y-104122615D01*
X95807208Y-104120000D01*
X96192792Y-104120000D01*
X96219340Y-104122615D01*
X96219340Y-104122615D01*
G37*
G36*
X94819340Y-104107615D02*
X94842756Y-104114718D01*
X94864325Y-104126246D01*
X94883234Y-104141766D01*
X94898754Y-104160675D01*
X94910282Y-104182244D01*
X94917385Y-104205660D01*
X94920000Y-104232208D01*
X94920000Y-104567792D01*
X94917385Y-104594340D01*
X94910282Y-104617756D01*
X94898754Y-104639325D01*
X94883234Y-104658234D01*
X94864325Y-104673754D01*
X94842756Y-104685282D01*
X94819340Y-104692385D01*
X94792792Y-104695000D01*
X94407208Y-104695000D01*
X94380660Y-104692385D01*
X94357244Y-104685282D01*
X94335675Y-104673754D01*
X94316766Y-104658234D01*
X94301246Y-104639325D01*
X94289718Y-104617756D01*
X94282615Y-104594340D01*
X94280000Y-104567792D01*
X94280000Y-104232208D01*
X94282615Y-104205660D01*
X94289718Y-104182244D01*
X94301246Y-104160675D01*
X94316766Y-104141766D01*
X94335675Y-104126246D01*
X94357244Y-104114718D01*
X94380660Y-104107615D01*
X94407208Y-104105000D01*
X94792792Y-104105000D01*
X94819340Y-104107615D01*
X94819340Y-104107615D01*
G37*
G36*
X115528017Y-102927235D02*
X115622269Y-102955825D01*
X115709129Y-103002252D01*
X115785264Y-103064736D01*
X115847748Y-103140871D01*
X115894175Y-103227731D01*
X115922765Y-103321983D01*
X115932420Y-103420000D01*
X115922765Y-103518017D01*
X115894175Y-103612269D01*
X115847748Y-103699129D01*
X115785264Y-103775264D01*
X115709129Y-103837748D01*
X115622269Y-103884175D01*
X115528017Y-103912765D01*
X115454565Y-103920000D01*
X115405435Y-103920000D01*
X115331983Y-103912765D01*
X115237731Y-103884175D01*
X115150871Y-103837748D01*
X115074736Y-103775264D01*
X115012252Y-103699129D01*
X114965825Y-103612269D01*
X114937235Y-103518017D01*
X114927580Y-103420000D01*
X114937235Y-103321983D01*
X114965825Y-103227731D01*
X115012252Y-103140871D01*
X115074736Y-103064736D01*
X115150871Y-103002252D01*
X115237731Y-102955825D01*
X115331983Y-102927235D01*
X115405435Y-102920000D01*
X115454565Y-102920000D01*
X115528017Y-102927235D01*
X115528017Y-102927235D01*
G37*
G36*
X114258017Y-102927235D02*
X114352269Y-102955825D01*
X114439129Y-103002252D01*
X114515264Y-103064736D01*
X114577748Y-103140871D01*
X114624175Y-103227731D01*
X114652765Y-103321983D01*
X114662420Y-103420000D01*
X114652765Y-103518017D01*
X114624175Y-103612269D01*
X114577748Y-103699129D01*
X114515264Y-103775264D01*
X114439129Y-103837748D01*
X114352269Y-103884175D01*
X114258017Y-103912765D01*
X114184565Y-103920000D01*
X114135435Y-103920000D01*
X114061983Y-103912765D01*
X113967731Y-103884175D01*
X113880871Y-103837748D01*
X113804736Y-103775264D01*
X113742252Y-103699129D01*
X113695825Y-103612269D01*
X113667235Y-103518017D01*
X113657580Y-103420000D01*
X113667235Y-103321983D01*
X113695825Y-103227731D01*
X113742252Y-103140871D01*
X113804736Y-103064736D01*
X113880871Y-103002252D01*
X113967731Y-102955825D01*
X114061983Y-102927235D01*
X114135435Y-102920000D01*
X114184565Y-102920000D01*
X114258017Y-102927235D01*
X114258017Y-102927235D01*
G37*
G36*
X112988017Y-102927235D02*
X113082269Y-102955825D01*
X113169129Y-103002252D01*
X113245264Y-103064736D01*
X113307748Y-103140871D01*
X113354175Y-103227731D01*
X113382765Y-103321983D01*
X113392420Y-103420000D01*
X113382765Y-103518017D01*
X113354175Y-103612269D01*
X113307748Y-103699129D01*
X113245264Y-103775264D01*
X113169129Y-103837748D01*
X113082269Y-103884175D01*
X112988017Y-103912765D01*
X112914565Y-103920000D01*
X112865435Y-103920000D01*
X112791983Y-103912765D01*
X112697731Y-103884175D01*
X112610871Y-103837748D01*
X112534736Y-103775264D01*
X112472252Y-103699129D01*
X112425825Y-103612269D01*
X112397235Y-103518017D01*
X112387580Y-103420000D01*
X112397235Y-103321983D01*
X112425825Y-103227731D01*
X112472252Y-103140871D01*
X112534736Y-103064736D01*
X112610871Y-103002252D01*
X112697731Y-102955825D01*
X112791983Y-102927235D01*
X112865435Y-102920000D01*
X112914565Y-102920000D01*
X112988017Y-102927235D01*
X112988017Y-102927235D01*
G37*
G36*
X110448017Y-102927235D02*
X110542269Y-102955825D01*
X110629129Y-103002252D01*
X110705264Y-103064736D01*
X110767748Y-103140871D01*
X110814175Y-103227731D01*
X110842765Y-103321983D01*
X110852420Y-103420000D01*
X110842765Y-103518017D01*
X110814175Y-103612269D01*
X110767748Y-103699129D01*
X110705264Y-103775264D01*
X110629129Y-103837748D01*
X110542269Y-103884175D01*
X110448017Y-103912765D01*
X110374565Y-103920000D01*
X110325435Y-103920000D01*
X110251983Y-103912765D01*
X110157731Y-103884175D01*
X110070871Y-103837748D01*
X109994736Y-103775264D01*
X109932252Y-103699129D01*
X109885825Y-103612269D01*
X109857235Y-103518017D01*
X109847580Y-103420000D01*
X109857235Y-103321983D01*
X109885825Y-103227731D01*
X109932252Y-103140871D01*
X109994736Y-103064736D01*
X110070871Y-103002252D01*
X110157731Y-102955825D01*
X110251983Y-102927235D01*
X110325435Y-102920000D01*
X110374565Y-102920000D01*
X110448017Y-102927235D01*
X110448017Y-102927235D01*
G37*
G36*
X109178017Y-102927235D02*
X109272269Y-102955825D01*
X109359129Y-103002252D01*
X109435264Y-103064736D01*
X109497748Y-103140871D01*
X109544175Y-103227731D01*
X109572765Y-103321983D01*
X109582420Y-103420000D01*
X109572765Y-103518017D01*
X109544175Y-103612269D01*
X109497748Y-103699129D01*
X109435264Y-103775264D01*
X109359129Y-103837748D01*
X109272269Y-103884175D01*
X109178017Y-103912765D01*
X109104565Y-103920000D01*
X109055435Y-103920000D01*
X108981983Y-103912765D01*
X108887731Y-103884175D01*
X108800871Y-103837748D01*
X108724736Y-103775264D01*
X108662252Y-103699129D01*
X108615825Y-103612269D01*
X108587235Y-103518017D01*
X108577580Y-103420000D01*
X108587235Y-103321983D01*
X108615825Y-103227731D01*
X108662252Y-103140871D01*
X108724736Y-103064736D01*
X108800871Y-103002252D01*
X108887731Y-102955825D01*
X108981983Y-102927235D01*
X109055435Y-102920000D01*
X109104565Y-102920000D01*
X109178017Y-102927235D01*
X109178017Y-102927235D01*
G37*
G36*
X111718017Y-102927235D02*
X111812269Y-102955825D01*
X111899129Y-103002252D01*
X111975264Y-103064736D01*
X112037748Y-103140871D01*
X112084175Y-103227731D01*
X112112765Y-103321983D01*
X112122420Y-103420000D01*
X112112765Y-103518017D01*
X112084175Y-103612269D01*
X112037748Y-103699129D01*
X111975264Y-103775264D01*
X111899129Y-103837748D01*
X111812269Y-103884175D01*
X111718017Y-103912765D01*
X111644565Y-103920000D01*
X111595435Y-103920000D01*
X111521983Y-103912765D01*
X111427731Y-103884175D01*
X111340871Y-103837748D01*
X111264736Y-103775264D01*
X111202252Y-103699129D01*
X111155825Y-103612269D01*
X111127235Y-103518017D01*
X111117580Y-103420000D01*
X111127235Y-103321983D01*
X111155825Y-103227731D01*
X111202252Y-103140871D01*
X111264736Y-103064736D01*
X111340871Y-103002252D01*
X111427731Y-102955825D01*
X111521983Y-102927235D01*
X111595435Y-102920000D01*
X111644565Y-102920000D01*
X111718017Y-102927235D01*
X111718017Y-102927235D01*
G37*
G36*
X117200000Y-103920000D02*
X116200000Y-103920000D01*
X116200000Y-102920000D01*
X117200000Y-102920000D01*
X117200000Y-103920000D01*
X117200000Y-103920000D01*
G37*
G36*
X107908017Y-102927235D02*
X108002269Y-102955825D01*
X108089129Y-103002252D01*
X108165264Y-103064736D01*
X108227748Y-103140871D01*
X108274175Y-103227731D01*
X108302765Y-103321983D01*
X108312420Y-103420000D01*
X108302765Y-103518017D01*
X108274175Y-103612269D01*
X108227748Y-103699129D01*
X108165264Y-103775264D01*
X108089129Y-103837748D01*
X108002269Y-103884175D01*
X107908017Y-103912765D01*
X107834565Y-103920000D01*
X107785435Y-103920000D01*
X107711983Y-103912765D01*
X107617731Y-103884175D01*
X107530871Y-103837748D01*
X107454736Y-103775264D01*
X107392252Y-103699129D01*
X107345825Y-103612269D01*
X107317235Y-103518017D01*
X107307580Y-103420000D01*
X107317235Y-103321983D01*
X107345825Y-103227731D01*
X107392252Y-103140871D01*
X107454736Y-103064736D01*
X107530871Y-103002252D01*
X107617731Y-102955825D01*
X107711983Y-102927235D01*
X107785435Y-102920000D01*
X107834565Y-102920000D01*
X107908017Y-102927235D01*
X107908017Y-102927235D01*
G37*
G36*
X99719340Y-102692615D02*
X99742756Y-102699718D01*
X99764325Y-102711246D01*
X99783234Y-102726766D01*
X99798754Y-102745675D01*
X99810282Y-102767244D01*
X99817385Y-102790660D01*
X99820000Y-102817208D01*
X99820000Y-103152792D01*
X99817385Y-103179340D01*
X99810282Y-103202756D01*
X99798754Y-103224325D01*
X99783234Y-103243234D01*
X99764325Y-103258754D01*
X99742756Y-103270282D01*
X99719340Y-103277385D01*
X99692792Y-103280000D01*
X99307208Y-103280000D01*
X99280660Y-103277385D01*
X99257244Y-103270282D01*
X99235675Y-103258754D01*
X99216766Y-103243234D01*
X99201246Y-103224325D01*
X99189718Y-103202756D01*
X99182615Y-103179340D01*
X99180000Y-103152792D01*
X99180000Y-102817208D01*
X99182615Y-102790660D01*
X99189718Y-102767244D01*
X99201246Y-102745675D01*
X99216766Y-102726766D01*
X99235675Y-102711246D01*
X99257244Y-102699718D01*
X99280660Y-102692615D01*
X99307208Y-102690000D01*
X99692792Y-102690000D01*
X99719340Y-102692615D01*
X99719340Y-102692615D01*
G37*
G36*
X96219340Y-102692615D02*
X96242756Y-102699718D01*
X96264325Y-102711246D01*
X96283234Y-102726766D01*
X96298754Y-102745675D01*
X96310282Y-102767244D01*
X96317385Y-102790660D01*
X96320000Y-102817208D01*
X96320000Y-103152792D01*
X96317385Y-103179340D01*
X96310282Y-103202756D01*
X96298754Y-103224325D01*
X96283234Y-103243234D01*
X96264325Y-103258754D01*
X96242756Y-103270282D01*
X96219340Y-103277385D01*
X96192792Y-103280000D01*
X95807208Y-103280000D01*
X95780660Y-103277385D01*
X95757244Y-103270282D01*
X95735675Y-103258754D01*
X95716766Y-103243234D01*
X95701246Y-103224325D01*
X95689718Y-103202756D01*
X95682615Y-103179340D01*
X95680000Y-103152792D01*
X95680000Y-102817208D01*
X95682615Y-102790660D01*
X95689718Y-102767244D01*
X95701246Y-102745675D01*
X95716766Y-102726766D01*
X95735675Y-102711246D01*
X95757244Y-102699718D01*
X95780660Y-102692615D01*
X95807208Y-102690000D01*
X96192792Y-102690000D01*
X96219340Y-102692615D01*
X96219340Y-102692615D01*
G37*
G36*
X101119340Y-102692615D02*
X101142756Y-102699718D01*
X101164325Y-102711246D01*
X101183234Y-102726766D01*
X101198754Y-102745675D01*
X101210282Y-102767244D01*
X101217385Y-102790660D01*
X101220000Y-102817208D01*
X101220000Y-103152792D01*
X101217385Y-103179340D01*
X101210282Y-103202756D01*
X101198754Y-103224325D01*
X101183234Y-103243234D01*
X101164325Y-103258754D01*
X101142756Y-103270282D01*
X101119340Y-103277385D01*
X101092792Y-103280000D01*
X100707208Y-103280000D01*
X100680660Y-103277385D01*
X100657244Y-103270282D01*
X100635675Y-103258754D01*
X100616766Y-103243234D01*
X100601246Y-103224325D01*
X100589718Y-103202756D01*
X100582615Y-103179340D01*
X100580000Y-103152792D01*
X100580000Y-102817208D01*
X100582615Y-102790660D01*
X100589718Y-102767244D01*
X100601246Y-102745675D01*
X100616766Y-102726766D01*
X100635675Y-102711246D01*
X100657244Y-102699718D01*
X100680660Y-102692615D01*
X100707208Y-102690000D01*
X101092792Y-102690000D01*
X101119340Y-102692615D01*
X101119340Y-102692615D01*
G37*
G36*
X94819340Y-102677615D02*
X94842756Y-102684718D01*
X94864325Y-102696246D01*
X94883234Y-102711766D01*
X94898754Y-102730675D01*
X94910282Y-102752244D01*
X94917385Y-102775660D01*
X94920000Y-102802208D01*
X94920000Y-103137792D01*
X94917385Y-103164340D01*
X94910282Y-103187756D01*
X94898754Y-103209325D01*
X94883234Y-103228234D01*
X94864325Y-103243754D01*
X94842756Y-103255282D01*
X94819340Y-103262385D01*
X94792792Y-103265000D01*
X94407208Y-103265000D01*
X94380660Y-103262385D01*
X94357244Y-103255282D01*
X94335675Y-103243754D01*
X94316766Y-103228234D01*
X94301246Y-103209325D01*
X94289718Y-103187756D01*
X94282615Y-103164340D01*
X94280000Y-103137792D01*
X94280000Y-102802208D01*
X94282615Y-102775660D01*
X94289718Y-102752244D01*
X94301246Y-102730675D01*
X94316766Y-102711766D01*
X94335675Y-102696246D01*
X94357244Y-102684718D01*
X94380660Y-102677615D01*
X94407208Y-102675000D01*
X94792792Y-102675000D01*
X94819340Y-102677615D01*
X94819340Y-102677615D01*
G37*
G36*
X78451903Y-101679345D02*
X78492193Y-101691566D01*
X78529325Y-101711414D01*
X78561874Y-101738126D01*
X78588586Y-101770675D01*
X78608434Y-101807807D01*
X78620655Y-101848097D01*
X78625000Y-101892208D01*
X78625000Y-102507792D01*
X78620655Y-102551903D01*
X78608434Y-102592193D01*
X78588586Y-102629325D01*
X78561874Y-102661874D01*
X78529325Y-102688586D01*
X78492193Y-102708434D01*
X78451903Y-102720655D01*
X78407792Y-102725000D01*
X77892208Y-102725000D01*
X77848097Y-102720655D01*
X77807807Y-102708434D01*
X77770675Y-102688586D01*
X77738126Y-102661874D01*
X77711414Y-102629325D01*
X77691566Y-102592193D01*
X77679345Y-102551903D01*
X77675000Y-102507792D01*
X77675000Y-101892208D01*
X77679345Y-101848097D01*
X77691566Y-101807807D01*
X77711414Y-101770675D01*
X77738126Y-101738126D01*
X77770675Y-101711414D01*
X77807807Y-101691566D01*
X77848097Y-101679345D01*
X77892208Y-101675000D01*
X78407792Y-101675000D01*
X78451903Y-101679345D01*
X78451903Y-101679345D01*
G37*
G36*
X96219340Y-101722615D02*
X96242756Y-101729718D01*
X96264325Y-101741246D01*
X96283234Y-101756766D01*
X96298754Y-101775675D01*
X96310282Y-101797244D01*
X96317385Y-101820660D01*
X96320000Y-101847208D01*
X96320000Y-102182792D01*
X96317385Y-102209340D01*
X96310282Y-102232756D01*
X96298754Y-102254325D01*
X96283234Y-102273234D01*
X96264325Y-102288754D01*
X96242756Y-102300282D01*
X96219340Y-102307385D01*
X96192792Y-102310000D01*
X95807208Y-102310000D01*
X95780660Y-102307385D01*
X95757244Y-102300282D01*
X95735675Y-102288754D01*
X95716766Y-102273234D01*
X95701246Y-102254325D01*
X95689718Y-102232756D01*
X95682615Y-102209340D01*
X95680000Y-102182792D01*
X95680000Y-101847208D01*
X95682615Y-101820660D01*
X95689718Y-101797244D01*
X95701246Y-101775675D01*
X95716766Y-101756766D01*
X95735675Y-101741246D01*
X95757244Y-101729718D01*
X95780660Y-101722615D01*
X95807208Y-101720000D01*
X96192792Y-101720000D01*
X96219340Y-101722615D01*
X96219340Y-101722615D01*
G37*
G36*
X99719340Y-101722615D02*
X99742756Y-101729718D01*
X99764325Y-101741246D01*
X99783234Y-101756766D01*
X99798754Y-101775675D01*
X99810282Y-101797244D01*
X99817385Y-101820660D01*
X99820000Y-101847208D01*
X99820000Y-102182792D01*
X99817385Y-102209340D01*
X99810282Y-102232756D01*
X99798754Y-102254325D01*
X99783234Y-102273234D01*
X99764325Y-102288754D01*
X99742756Y-102300282D01*
X99719340Y-102307385D01*
X99692792Y-102310000D01*
X99307208Y-102310000D01*
X99280660Y-102307385D01*
X99257244Y-102300282D01*
X99235675Y-102288754D01*
X99216766Y-102273234D01*
X99201246Y-102254325D01*
X99189718Y-102232756D01*
X99182615Y-102209340D01*
X99180000Y-102182792D01*
X99180000Y-101847208D01*
X99182615Y-101820660D01*
X99189718Y-101797244D01*
X99201246Y-101775675D01*
X99216766Y-101756766D01*
X99235675Y-101741246D01*
X99257244Y-101729718D01*
X99280660Y-101722615D01*
X99307208Y-101720000D01*
X99692792Y-101720000D01*
X99719340Y-101722615D01*
X99719340Y-101722615D01*
G37*
G36*
X101119340Y-101722615D02*
X101142756Y-101729718D01*
X101164325Y-101741246D01*
X101183234Y-101756766D01*
X101198754Y-101775675D01*
X101210282Y-101797244D01*
X101217385Y-101820660D01*
X101220000Y-101847208D01*
X101220000Y-102182792D01*
X101217385Y-102209340D01*
X101210282Y-102232756D01*
X101198754Y-102254325D01*
X101183234Y-102273234D01*
X101164325Y-102288754D01*
X101142756Y-102300282D01*
X101119340Y-102307385D01*
X101092792Y-102310000D01*
X100707208Y-102310000D01*
X100680660Y-102307385D01*
X100657244Y-102300282D01*
X100635675Y-102288754D01*
X100616766Y-102273234D01*
X100601246Y-102254325D01*
X100589718Y-102232756D01*
X100582615Y-102209340D01*
X100580000Y-102182792D01*
X100580000Y-101847208D01*
X100582615Y-101820660D01*
X100589718Y-101797244D01*
X100601246Y-101775675D01*
X100616766Y-101756766D01*
X100635675Y-101741246D01*
X100657244Y-101729718D01*
X100680660Y-101722615D01*
X100707208Y-101720000D01*
X101092792Y-101720000D01*
X101119340Y-101722615D01*
X101119340Y-101722615D01*
G37*
G36*
X94819340Y-101707615D02*
X94842756Y-101714718D01*
X94864325Y-101726246D01*
X94883234Y-101741766D01*
X94898754Y-101760675D01*
X94910282Y-101782244D01*
X94917385Y-101805660D01*
X94920000Y-101832208D01*
X94920000Y-102167792D01*
X94917385Y-102194340D01*
X94910282Y-102217756D01*
X94898754Y-102239325D01*
X94883234Y-102258234D01*
X94864325Y-102273754D01*
X94842756Y-102285282D01*
X94819340Y-102292385D01*
X94792792Y-102295000D01*
X94407208Y-102295000D01*
X94380660Y-102292385D01*
X94357244Y-102285282D01*
X94335675Y-102273754D01*
X94316766Y-102258234D01*
X94301246Y-102239325D01*
X94289718Y-102217756D01*
X94282615Y-102194340D01*
X94280000Y-102167792D01*
X94280000Y-101832208D01*
X94282615Y-101805660D01*
X94289718Y-101782244D01*
X94301246Y-101760675D01*
X94316766Y-101741766D01*
X94335675Y-101726246D01*
X94357244Y-101714718D01*
X94380660Y-101707615D01*
X94407208Y-101705000D01*
X94792792Y-101705000D01*
X94819340Y-101707615D01*
X94819340Y-101707615D01*
G37*
G36*
X78451903Y-99929345D02*
X78492193Y-99941566D01*
X78529325Y-99961414D01*
X78561874Y-99988126D01*
X78588586Y-100020675D01*
X78608434Y-100057807D01*
X78620655Y-100098097D01*
X78625000Y-100142208D01*
X78625000Y-100757792D01*
X78620655Y-100801903D01*
X78608434Y-100842193D01*
X78588586Y-100879325D01*
X78561874Y-100911874D01*
X78529325Y-100938586D01*
X78492193Y-100958434D01*
X78451903Y-100970655D01*
X78407792Y-100975000D01*
X77892208Y-100975000D01*
X77848097Y-100970655D01*
X77807807Y-100958434D01*
X77770675Y-100938586D01*
X77738126Y-100911874D01*
X77711414Y-100879325D01*
X77691566Y-100842193D01*
X77679345Y-100801903D01*
X77675000Y-100757792D01*
X77675000Y-100142208D01*
X77679345Y-100098097D01*
X77691566Y-100057807D01*
X77711414Y-100020675D01*
X77738126Y-99988126D01*
X77770675Y-99961414D01*
X77807807Y-99941566D01*
X77848097Y-99929345D01*
X77892208Y-99925000D01*
X78407792Y-99925000D01*
X78451903Y-99929345D01*
X78451903Y-99929345D01*
G37*
G36*
X94819340Y-100292615D02*
X94842756Y-100299718D01*
X94864325Y-100311246D01*
X94883234Y-100326766D01*
X94898754Y-100345675D01*
X94910282Y-100367244D01*
X94917385Y-100390660D01*
X94920000Y-100417208D01*
X94920000Y-100752792D01*
X94917385Y-100779340D01*
X94910282Y-100802756D01*
X94898754Y-100824325D01*
X94883234Y-100843234D01*
X94864325Y-100858754D01*
X94842756Y-100870282D01*
X94819340Y-100877385D01*
X94792792Y-100880000D01*
X94407208Y-100880000D01*
X94380660Y-100877385D01*
X94357244Y-100870282D01*
X94335675Y-100858754D01*
X94316766Y-100843234D01*
X94301246Y-100824325D01*
X94289718Y-100802756D01*
X94282615Y-100779340D01*
X94280000Y-100752792D01*
X94280000Y-100417208D01*
X94282615Y-100390660D01*
X94289718Y-100367244D01*
X94301246Y-100345675D01*
X94316766Y-100326766D01*
X94335675Y-100311246D01*
X94357244Y-100299718D01*
X94380660Y-100292615D01*
X94407208Y-100290000D01*
X94792792Y-100290000D01*
X94819340Y-100292615D01*
X94819340Y-100292615D01*
G37*
G36*
X101119340Y-100292615D02*
X101142756Y-100299718D01*
X101164325Y-100311246D01*
X101183234Y-100326766D01*
X101198754Y-100345675D01*
X101210282Y-100367244D01*
X101217385Y-100390660D01*
X101220000Y-100417208D01*
X101220000Y-100752792D01*
X101217385Y-100779340D01*
X101210282Y-100802756D01*
X101198754Y-100824325D01*
X101183234Y-100843234D01*
X101164325Y-100858754D01*
X101142756Y-100870282D01*
X101119340Y-100877385D01*
X101092792Y-100880000D01*
X100707208Y-100880000D01*
X100680660Y-100877385D01*
X100657244Y-100870282D01*
X100635675Y-100858754D01*
X100616766Y-100843234D01*
X100601246Y-100824325D01*
X100589718Y-100802756D01*
X100582615Y-100779340D01*
X100580000Y-100752792D01*
X100580000Y-100417208D01*
X100582615Y-100390660D01*
X100589718Y-100367244D01*
X100601246Y-100345675D01*
X100616766Y-100326766D01*
X100635675Y-100311246D01*
X100657244Y-100299718D01*
X100680660Y-100292615D01*
X100707208Y-100290000D01*
X101092792Y-100290000D01*
X101119340Y-100292615D01*
X101119340Y-100292615D01*
G37*
G36*
X99719340Y-100292615D02*
X99742756Y-100299718D01*
X99764325Y-100311246D01*
X99783234Y-100326766D01*
X99798754Y-100345675D01*
X99810282Y-100367244D01*
X99817385Y-100390660D01*
X99820000Y-100417208D01*
X99820000Y-100752792D01*
X99817385Y-100779340D01*
X99810282Y-100802756D01*
X99798754Y-100824325D01*
X99783234Y-100843234D01*
X99764325Y-100858754D01*
X99742756Y-100870282D01*
X99719340Y-100877385D01*
X99692792Y-100880000D01*
X99307208Y-100880000D01*
X99280660Y-100877385D01*
X99257244Y-100870282D01*
X99235675Y-100858754D01*
X99216766Y-100843234D01*
X99201246Y-100824325D01*
X99189718Y-100802756D01*
X99182615Y-100779340D01*
X99180000Y-100752792D01*
X99180000Y-100417208D01*
X99182615Y-100390660D01*
X99189718Y-100367244D01*
X99201246Y-100345675D01*
X99216766Y-100326766D01*
X99235675Y-100311246D01*
X99257244Y-100299718D01*
X99280660Y-100292615D01*
X99307208Y-100290000D01*
X99692792Y-100290000D01*
X99719340Y-100292615D01*
X99719340Y-100292615D01*
G37*
G36*
X96219340Y-100292615D02*
X96242756Y-100299718D01*
X96264325Y-100311246D01*
X96283234Y-100326766D01*
X96298754Y-100345675D01*
X96310282Y-100367244D01*
X96317385Y-100390660D01*
X96320000Y-100417208D01*
X96320000Y-100752792D01*
X96317385Y-100779340D01*
X96310282Y-100802756D01*
X96298754Y-100824325D01*
X96283234Y-100843234D01*
X96264325Y-100858754D01*
X96242756Y-100870282D01*
X96219340Y-100877385D01*
X96192792Y-100880000D01*
X95807208Y-100880000D01*
X95780660Y-100877385D01*
X95757244Y-100870282D01*
X95735675Y-100858754D01*
X95716766Y-100843234D01*
X95701246Y-100824325D01*
X95689718Y-100802756D01*
X95682615Y-100779340D01*
X95680000Y-100752792D01*
X95680000Y-100417208D01*
X95682615Y-100390660D01*
X95689718Y-100367244D01*
X95701246Y-100345675D01*
X95716766Y-100326766D01*
X95735675Y-100311246D01*
X95757244Y-100299718D01*
X95780660Y-100292615D01*
X95807208Y-100290000D01*
X96192792Y-100290000D01*
X96219340Y-100292615D01*
X96219340Y-100292615D01*
G37*
G36*
X85376903Y-99479345D02*
X85417193Y-99491566D01*
X85454325Y-99511414D01*
X85486874Y-99538126D01*
X85513586Y-99570675D01*
X85533434Y-99607807D01*
X85545655Y-99648097D01*
X85550000Y-99692208D01*
X85550000Y-100207792D01*
X85545655Y-100251903D01*
X85533434Y-100292193D01*
X85513586Y-100329325D01*
X85486874Y-100361874D01*
X85454325Y-100388586D01*
X85417193Y-100408434D01*
X85376903Y-100420655D01*
X85332792Y-100425000D01*
X84717208Y-100425000D01*
X84673097Y-100420655D01*
X84632807Y-100408434D01*
X84595675Y-100388586D01*
X84563126Y-100361874D01*
X84536414Y-100329325D01*
X84516566Y-100292193D01*
X84504345Y-100251903D01*
X84500000Y-100207792D01*
X84500000Y-99692208D01*
X84504345Y-99648097D01*
X84516566Y-99607807D01*
X84536414Y-99570675D01*
X84563126Y-99538126D01*
X84595675Y-99511414D01*
X84632807Y-99491566D01*
X84673097Y-99479345D01*
X84717208Y-99475000D01*
X85332792Y-99475000D01*
X85376903Y-99479345D01*
X85376903Y-99479345D01*
G37*
G36*
X87126903Y-99479345D02*
X87167193Y-99491566D01*
X87204325Y-99511414D01*
X87236874Y-99538126D01*
X87263586Y-99570675D01*
X87283434Y-99607807D01*
X87295655Y-99648097D01*
X87300000Y-99692208D01*
X87300000Y-100207792D01*
X87295655Y-100251903D01*
X87283434Y-100292193D01*
X87263586Y-100329325D01*
X87236874Y-100361874D01*
X87204325Y-100388586D01*
X87167193Y-100408434D01*
X87126903Y-100420655D01*
X87082792Y-100425000D01*
X86467208Y-100425000D01*
X86423097Y-100420655D01*
X86382807Y-100408434D01*
X86345675Y-100388586D01*
X86313126Y-100361874D01*
X86286414Y-100329325D01*
X86266566Y-100292193D01*
X86254345Y-100251903D01*
X86250000Y-100207792D01*
X86250000Y-99692208D01*
X86254345Y-99648097D01*
X86266566Y-99607807D01*
X86286414Y-99570675D01*
X86313126Y-99538126D01*
X86345675Y-99511414D01*
X86382807Y-99491566D01*
X86423097Y-99479345D01*
X86467208Y-99475000D01*
X87082792Y-99475000D01*
X87126903Y-99479345D01*
X87126903Y-99479345D01*
G37*
G36*
X80269340Y-99692615D02*
X80292756Y-99699718D01*
X80314325Y-99711246D01*
X80333234Y-99726766D01*
X80348754Y-99745675D01*
X80360282Y-99767244D01*
X80367385Y-99790660D01*
X80370000Y-99817208D01*
X80370000Y-100152792D01*
X80367385Y-100179340D01*
X80360282Y-100202756D01*
X80348754Y-100224325D01*
X80333234Y-100243234D01*
X80314325Y-100258754D01*
X80292756Y-100270282D01*
X80269340Y-100277385D01*
X80242792Y-100280000D01*
X79857208Y-100280000D01*
X79830660Y-100277385D01*
X79807244Y-100270282D01*
X79785675Y-100258754D01*
X79766766Y-100243234D01*
X79751246Y-100224325D01*
X79739718Y-100202756D01*
X79732615Y-100179340D01*
X79730000Y-100152792D01*
X79730000Y-99817208D01*
X79732615Y-99790660D01*
X79739718Y-99767244D01*
X79751246Y-99745675D01*
X79766766Y-99726766D01*
X79785675Y-99711246D01*
X79807244Y-99699718D01*
X79830660Y-99692615D01*
X79857208Y-99690000D01*
X80242792Y-99690000D01*
X80269340Y-99692615D01*
X80269340Y-99692615D01*
G37*
G36*
X66626903Y-99029345D02*
X66667193Y-99041566D01*
X66704325Y-99061414D01*
X66736874Y-99088126D01*
X66763586Y-99120675D01*
X66783434Y-99157807D01*
X66795655Y-99198097D01*
X66800000Y-99242208D01*
X66800000Y-99757792D01*
X66795655Y-99801903D01*
X66783434Y-99842193D01*
X66763586Y-99879325D01*
X66736874Y-99911874D01*
X66704325Y-99938586D01*
X66667193Y-99958434D01*
X66626903Y-99970655D01*
X66582792Y-99975000D01*
X65967208Y-99975000D01*
X65923097Y-99970655D01*
X65882807Y-99958434D01*
X65845675Y-99938586D01*
X65813126Y-99911874D01*
X65786414Y-99879325D01*
X65766566Y-99842193D01*
X65754345Y-99801903D01*
X65750000Y-99757792D01*
X65750000Y-99242208D01*
X65754345Y-99198097D01*
X65766566Y-99157807D01*
X65786414Y-99120675D01*
X65813126Y-99088126D01*
X65845675Y-99061414D01*
X65882807Y-99041566D01*
X65923097Y-99029345D01*
X65967208Y-99025000D01*
X66582792Y-99025000D01*
X66626903Y-99029345D01*
X66626903Y-99029345D01*
G37*
G36*
X64876903Y-99029345D02*
X64917193Y-99041566D01*
X64954325Y-99061414D01*
X64986874Y-99088126D01*
X65013586Y-99120675D01*
X65033434Y-99157807D01*
X65045655Y-99198097D01*
X65050000Y-99242208D01*
X65050000Y-99757792D01*
X65045655Y-99801903D01*
X65033434Y-99842193D01*
X65013586Y-99879325D01*
X64986874Y-99911874D01*
X64954325Y-99938586D01*
X64917193Y-99958434D01*
X64876903Y-99970655D01*
X64832792Y-99975000D01*
X64217208Y-99975000D01*
X64173097Y-99970655D01*
X64132807Y-99958434D01*
X64095675Y-99938586D01*
X64063126Y-99911874D01*
X64036414Y-99879325D01*
X64016566Y-99842193D01*
X64004345Y-99801903D01*
X64000000Y-99757792D01*
X64000000Y-99242208D01*
X64004345Y-99198097D01*
X64016566Y-99157807D01*
X64036414Y-99120675D01*
X64063126Y-99088126D01*
X64095675Y-99061414D01*
X64132807Y-99041566D01*
X64173097Y-99029345D01*
X64217208Y-99025000D01*
X64832792Y-99025000D01*
X64876903Y-99029345D01*
X64876903Y-99029345D01*
G37*
G36*
X96219340Y-99322615D02*
X96242756Y-99329718D01*
X96264325Y-99341246D01*
X96283234Y-99356766D01*
X96298754Y-99375675D01*
X96310282Y-99397244D01*
X96317385Y-99420660D01*
X96320000Y-99447208D01*
X96320000Y-99782792D01*
X96317385Y-99809340D01*
X96310282Y-99832756D01*
X96298754Y-99854325D01*
X96283234Y-99873234D01*
X96264325Y-99888754D01*
X96242756Y-99900282D01*
X96219340Y-99907385D01*
X96192792Y-99910000D01*
X95807208Y-99910000D01*
X95780660Y-99907385D01*
X95757244Y-99900282D01*
X95735675Y-99888754D01*
X95716766Y-99873234D01*
X95701246Y-99854325D01*
X95689718Y-99832756D01*
X95682615Y-99809340D01*
X95680000Y-99782792D01*
X95680000Y-99447208D01*
X95682615Y-99420660D01*
X95689718Y-99397244D01*
X95701246Y-99375675D01*
X95716766Y-99356766D01*
X95735675Y-99341246D01*
X95757244Y-99329718D01*
X95780660Y-99322615D01*
X95807208Y-99320000D01*
X96192792Y-99320000D01*
X96219340Y-99322615D01*
X96219340Y-99322615D01*
G37*
G36*
X94819340Y-99322615D02*
X94842756Y-99329718D01*
X94864325Y-99341246D01*
X94883234Y-99356766D01*
X94898754Y-99375675D01*
X94910282Y-99397244D01*
X94917385Y-99420660D01*
X94920000Y-99447208D01*
X94920000Y-99782792D01*
X94917385Y-99809340D01*
X94910282Y-99832756D01*
X94898754Y-99854325D01*
X94883234Y-99873234D01*
X94864325Y-99888754D01*
X94842756Y-99900282D01*
X94819340Y-99907385D01*
X94792792Y-99910000D01*
X94407208Y-99910000D01*
X94380660Y-99907385D01*
X94357244Y-99900282D01*
X94335675Y-99888754D01*
X94316766Y-99873234D01*
X94301246Y-99854325D01*
X94289718Y-99832756D01*
X94282615Y-99809340D01*
X94280000Y-99782792D01*
X94280000Y-99447208D01*
X94282615Y-99420660D01*
X94289718Y-99397244D01*
X94301246Y-99375675D01*
X94316766Y-99356766D01*
X94335675Y-99341246D01*
X94357244Y-99329718D01*
X94380660Y-99322615D01*
X94407208Y-99320000D01*
X94792792Y-99320000D01*
X94819340Y-99322615D01*
X94819340Y-99322615D01*
G37*
G36*
X99719340Y-99322615D02*
X99742756Y-99329718D01*
X99764325Y-99341246D01*
X99783234Y-99356766D01*
X99798754Y-99375675D01*
X99810282Y-99397244D01*
X99817385Y-99420660D01*
X99820000Y-99447208D01*
X99820000Y-99782792D01*
X99817385Y-99809340D01*
X99810282Y-99832756D01*
X99798754Y-99854325D01*
X99783234Y-99873234D01*
X99764325Y-99888754D01*
X99742756Y-99900282D01*
X99719340Y-99907385D01*
X99692792Y-99910000D01*
X99307208Y-99910000D01*
X99280660Y-99907385D01*
X99257244Y-99900282D01*
X99235675Y-99888754D01*
X99216766Y-99873234D01*
X99201246Y-99854325D01*
X99189718Y-99832756D01*
X99182615Y-99809340D01*
X99180000Y-99782792D01*
X99180000Y-99447208D01*
X99182615Y-99420660D01*
X99189718Y-99397244D01*
X99201246Y-99375675D01*
X99216766Y-99356766D01*
X99235675Y-99341246D01*
X99257244Y-99329718D01*
X99280660Y-99322615D01*
X99307208Y-99320000D01*
X99692792Y-99320000D01*
X99719340Y-99322615D01*
X99719340Y-99322615D01*
G37*
G36*
X101119340Y-99322615D02*
X101142756Y-99329718D01*
X101164325Y-99341246D01*
X101183234Y-99356766D01*
X101198754Y-99375675D01*
X101210282Y-99397244D01*
X101217385Y-99420660D01*
X101220000Y-99447208D01*
X101220000Y-99782792D01*
X101217385Y-99809340D01*
X101210282Y-99832756D01*
X101198754Y-99854325D01*
X101183234Y-99873234D01*
X101164325Y-99888754D01*
X101142756Y-99900282D01*
X101119340Y-99907385D01*
X101092792Y-99910000D01*
X100707208Y-99910000D01*
X100680660Y-99907385D01*
X100657244Y-99900282D01*
X100635675Y-99888754D01*
X100616766Y-99873234D01*
X100601246Y-99854325D01*
X100589718Y-99832756D01*
X100582615Y-99809340D01*
X100580000Y-99782792D01*
X100580000Y-99447208D01*
X100582615Y-99420660D01*
X100589718Y-99397244D01*
X100601246Y-99375675D01*
X100616766Y-99356766D01*
X100635675Y-99341246D01*
X100657244Y-99329718D01*
X100680660Y-99322615D01*
X100707208Y-99320000D01*
X101092792Y-99320000D01*
X101119340Y-99322615D01*
X101119340Y-99322615D01*
G37*
G36*
X72779340Y-99132615D02*
X72802756Y-99139718D01*
X72824325Y-99151246D01*
X72843234Y-99166766D01*
X72858754Y-99185675D01*
X72870282Y-99207244D01*
X72877385Y-99230660D01*
X72880000Y-99257208D01*
X72880000Y-99642792D01*
X72877385Y-99669340D01*
X72870282Y-99692756D01*
X72858754Y-99714325D01*
X72843234Y-99733234D01*
X72824325Y-99748754D01*
X72802756Y-99760282D01*
X72779340Y-99767385D01*
X72752792Y-99770000D01*
X72417208Y-99770000D01*
X72390660Y-99767385D01*
X72367244Y-99760282D01*
X72345675Y-99748754D01*
X72326766Y-99733234D01*
X72311246Y-99714325D01*
X72299718Y-99692756D01*
X72292615Y-99669340D01*
X72290000Y-99642792D01*
X72290000Y-99257208D01*
X72292615Y-99230660D01*
X72299718Y-99207244D01*
X72311246Y-99185675D01*
X72326766Y-99166766D01*
X72345675Y-99151246D01*
X72367244Y-99139718D01*
X72390660Y-99132615D01*
X72417208Y-99130000D01*
X72752792Y-99130000D01*
X72779340Y-99132615D01*
X72779340Y-99132615D01*
G37*
G36*
X71809340Y-99132615D02*
X71832756Y-99139718D01*
X71854325Y-99151246D01*
X71873234Y-99166766D01*
X71888754Y-99185675D01*
X71900282Y-99207244D01*
X71907385Y-99230660D01*
X71910000Y-99257208D01*
X71910000Y-99642792D01*
X71907385Y-99669340D01*
X71900282Y-99692756D01*
X71888754Y-99714325D01*
X71873234Y-99733234D01*
X71854325Y-99748754D01*
X71832756Y-99760282D01*
X71809340Y-99767385D01*
X71782792Y-99770000D01*
X71447208Y-99770000D01*
X71420660Y-99767385D01*
X71397244Y-99760282D01*
X71375675Y-99748754D01*
X71356766Y-99733234D01*
X71341246Y-99714325D01*
X71329718Y-99692756D01*
X71322615Y-99669340D01*
X71320000Y-99642792D01*
X71320000Y-99257208D01*
X71322615Y-99230660D01*
X71329718Y-99207244D01*
X71341246Y-99185675D01*
X71356766Y-99166766D01*
X71375675Y-99151246D01*
X71397244Y-99139718D01*
X71420660Y-99132615D01*
X71447208Y-99130000D01*
X71782792Y-99130000D01*
X71809340Y-99132615D01*
X71809340Y-99132615D01*
G37*
G36*
X67809340Y-99132615D02*
X67832756Y-99139718D01*
X67854325Y-99151246D01*
X67873234Y-99166766D01*
X67888754Y-99185675D01*
X67900282Y-99207244D01*
X67907385Y-99230660D01*
X67910000Y-99257208D01*
X67910000Y-99642792D01*
X67907385Y-99669340D01*
X67900282Y-99692756D01*
X67888754Y-99714325D01*
X67873234Y-99733234D01*
X67854325Y-99748754D01*
X67832756Y-99760282D01*
X67809340Y-99767385D01*
X67782792Y-99770000D01*
X67447208Y-99770000D01*
X67420660Y-99767385D01*
X67397244Y-99760282D01*
X67375675Y-99748754D01*
X67356766Y-99733234D01*
X67341246Y-99714325D01*
X67329718Y-99692756D01*
X67322615Y-99669340D01*
X67320000Y-99642792D01*
X67320000Y-99257208D01*
X67322615Y-99230660D01*
X67329718Y-99207244D01*
X67341246Y-99185675D01*
X67356766Y-99166766D01*
X67375675Y-99151246D01*
X67397244Y-99139718D01*
X67420660Y-99132615D01*
X67447208Y-99130000D01*
X67782792Y-99130000D01*
X67809340Y-99132615D01*
X67809340Y-99132615D01*
G37*
G36*
X68779340Y-99132615D02*
X68802756Y-99139718D01*
X68824325Y-99151246D01*
X68843234Y-99166766D01*
X68858754Y-99185675D01*
X68870282Y-99207244D01*
X68877385Y-99230660D01*
X68880000Y-99257208D01*
X68880000Y-99642792D01*
X68877385Y-99669340D01*
X68870282Y-99692756D01*
X68858754Y-99714325D01*
X68843234Y-99733234D01*
X68824325Y-99748754D01*
X68802756Y-99760282D01*
X68779340Y-99767385D01*
X68752792Y-99770000D01*
X68417208Y-99770000D01*
X68390660Y-99767385D01*
X68367244Y-99760282D01*
X68345675Y-99748754D01*
X68326766Y-99733234D01*
X68311246Y-99714325D01*
X68299718Y-99692756D01*
X68292615Y-99669340D01*
X68290000Y-99642792D01*
X68290000Y-99257208D01*
X68292615Y-99230660D01*
X68299718Y-99207244D01*
X68311246Y-99185675D01*
X68326766Y-99166766D01*
X68345675Y-99151246D01*
X68367244Y-99139718D01*
X68390660Y-99132615D01*
X68417208Y-99130000D01*
X68752792Y-99130000D01*
X68779340Y-99132615D01*
X68779340Y-99132615D01*
G37*
G36*
X80269340Y-98722615D02*
X80292756Y-98729718D01*
X80314325Y-98741246D01*
X80333234Y-98756766D01*
X80348754Y-98775675D01*
X80360282Y-98797244D01*
X80367385Y-98820660D01*
X80370000Y-98847208D01*
X80370000Y-99182792D01*
X80367385Y-99209340D01*
X80360282Y-99232756D01*
X80348754Y-99254325D01*
X80333234Y-99273234D01*
X80314325Y-99288754D01*
X80292756Y-99300282D01*
X80269340Y-99307385D01*
X80242792Y-99310000D01*
X79857208Y-99310000D01*
X79830660Y-99307385D01*
X79807244Y-99300282D01*
X79785675Y-99288754D01*
X79766766Y-99273234D01*
X79751246Y-99254325D01*
X79739718Y-99232756D01*
X79732615Y-99209340D01*
X79730000Y-99182792D01*
X79730000Y-98847208D01*
X79732615Y-98820660D01*
X79739718Y-98797244D01*
X79751246Y-98775675D01*
X79766766Y-98756766D01*
X79785675Y-98741246D01*
X79807244Y-98729718D01*
X79830660Y-98722615D01*
X79857208Y-98720000D01*
X80242792Y-98720000D01*
X80269340Y-98722615D01*
X80269340Y-98722615D01*
G37*
G36*
X86409340Y-98482615D02*
X86432756Y-98489718D01*
X86454325Y-98501246D01*
X86473234Y-98516766D01*
X86488754Y-98535675D01*
X86500282Y-98557244D01*
X86507385Y-98580660D01*
X86510000Y-98607208D01*
X86510000Y-98992792D01*
X86507385Y-99019340D01*
X86500282Y-99042756D01*
X86488754Y-99064325D01*
X86473234Y-99083234D01*
X86454325Y-99098754D01*
X86432756Y-99110282D01*
X86409340Y-99117385D01*
X86382792Y-99120000D01*
X86047208Y-99120000D01*
X86020660Y-99117385D01*
X85997244Y-99110282D01*
X85975675Y-99098754D01*
X85956766Y-99083234D01*
X85941246Y-99064325D01*
X85929718Y-99042756D01*
X85922615Y-99019340D01*
X85920000Y-98992792D01*
X85920000Y-98607208D01*
X85922615Y-98580660D01*
X85929718Y-98557244D01*
X85941246Y-98535675D01*
X85956766Y-98516766D01*
X85975675Y-98501246D01*
X85997244Y-98489718D01*
X86020660Y-98482615D01*
X86047208Y-98480000D01*
X86382792Y-98480000D01*
X86409340Y-98482615D01*
X86409340Y-98482615D01*
G37*
G36*
X87379340Y-98482615D02*
X87402756Y-98489718D01*
X87424325Y-98501246D01*
X87443234Y-98516766D01*
X87458754Y-98535675D01*
X87470282Y-98557244D01*
X87477385Y-98580660D01*
X87480000Y-98607208D01*
X87480000Y-98992792D01*
X87477385Y-99019340D01*
X87470282Y-99042756D01*
X87458754Y-99064325D01*
X87443234Y-99083234D01*
X87424325Y-99098754D01*
X87402756Y-99110282D01*
X87379340Y-99117385D01*
X87352792Y-99120000D01*
X87017208Y-99120000D01*
X86990660Y-99117385D01*
X86967244Y-99110282D01*
X86945675Y-99098754D01*
X86926766Y-99083234D01*
X86911246Y-99064325D01*
X86899718Y-99042756D01*
X86892615Y-99019340D01*
X86890000Y-98992792D01*
X86890000Y-98607208D01*
X86892615Y-98580660D01*
X86899718Y-98557244D01*
X86911246Y-98535675D01*
X86926766Y-98516766D01*
X86945675Y-98501246D01*
X86967244Y-98489718D01*
X86990660Y-98482615D01*
X87017208Y-98480000D01*
X87352792Y-98480000D01*
X87379340Y-98482615D01*
X87379340Y-98482615D01*
G37*
G36*
X74019340Y-97957615D02*
X74042756Y-97964718D01*
X74064325Y-97976246D01*
X74083234Y-97991766D01*
X74098754Y-98010675D01*
X74110282Y-98032244D01*
X74117385Y-98055660D01*
X74120000Y-98082208D01*
X74120000Y-98417792D01*
X74117385Y-98444340D01*
X74110282Y-98467756D01*
X74098754Y-98489325D01*
X74083234Y-98508234D01*
X74064325Y-98523754D01*
X74042756Y-98535282D01*
X74019340Y-98542385D01*
X73992792Y-98545000D01*
X73607208Y-98545000D01*
X73580660Y-98542385D01*
X73557244Y-98535282D01*
X73535675Y-98523754D01*
X73516766Y-98508234D01*
X73501246Y-98489325D01*
X73489718Y-98467756D01*
X73482615Y-98444340D01*
X73480000Y-98417792D01*
X73480000Y-98082208D01*
X73482615Y-98055660D01*
X73489718Y-98032244D01*
X73501246Y-98010675D01*
X73516766Y-97991766D01*
X73535675Y-97976246D01*
X73557244Y-97964718D01*
X73580660Y-97957615D01*
X73607208Y-97955000D01*
X73992792Y-97955000D01*
X74019340Y-97957615D01*
X74019340Y-97957615D01*
G37*
G36*
X66119340Y-97942615D02*
X66142756Y-97949718D01*
X66164325Y-97961246D01*
X66183234Y-97976766D01*
X66198754Y-97995675D01*
X66210282Y-98017244D01*
X66217385Y-98040660D01*
X66220000Y-98067208D01*
X66220000Y-98402792D01*
X66217385Y-98429340D01*
X66210282Y-98452756D01*
X66198754Y-98474325D01*
X66183234Y-98493234D01*
X66164325Y-98508754D01*
X66142756Y-98520282D01*
X66119340Y-98527385D01*
X66092792Y-98530000D01*
X65707208Y-98530000D01*
X65680660Y-98527385D01*
X65657244Y-98520282D01*
X65635675Y-98508754D01*
X65616766Y-98493234D01*
X65601246Y-98474325D01*
X65589718Y-98452756D01*
X65582615Y-98429340D01*
X65580000Y-98402792D01*
X65580000Y-98067208D01*
X65582615Y-98040660D01*
X65589718Y-98017244D01*
X65601246Y-97995675D01*
X65616766Y-97976766D01*
X65635675Y-97961246D01*
X65657244Y-97949718D01*
X65680660Y-97942615D01*
X65707208Y-97940000D01*
X66092792Y-97940000D01*
X66119340Y-97942615D01*
X66119340Y-97942615D01*
G37*
G36*
X99719340Y-97907615D02*
X99742756Y-97914718D01*
X99764325Y-97926246D01*
X99783234Y-97941766D01*
X99798754Y-97960675D01*
X99810282Y-97982244D01*
X99817385Y-98005660D01*
X99820000Y-98032208D01*
X99820000Y-98367792D01*
X99817385Y-98394340D01*
X99810282Y-98417756D01*
X99798754Y-98439325D01*
X99783234Y-98458234D01*
X99764325Y-98473754D01*
X99742756Y-98485282D01*
X99719340Y-98492385D01*
X99692792Y-98495000D01*
X99307208Y-98495000D01*
X99280660Y-98492385D01*
X99257244Y-98485282D01*
X99235675Y-98473754D01*
X99216766Y-98458234D01*
X99201246Y-98439325D01*
X99189718Y-98417756D01*
X99182615Y-98394340D01*
X99180000Y-98367792D01*
X99180000Y-98032208D01*
X99182615Y-98005660D01*
X99189718Y-97982244D01*
X99201246Y-97960675D01*
X99216766Y-97941766D01*
X99235675Y-97926246D01*
X99257244Y-97914718D01*
X99280660Y-97907615D01*
X99307208Y-97905000D01*
X99692792Y-97905000D01*
X99719340Y-97907615D01*
X99719340Y-97907615D01*
G37*
G36*
X101119340Y-97907615D02*
X101142756Y-97914718D01*
X101164325Y-97926246D01*
X101183234Y-97941766D01*
X101198754Y-97960675D01*
X101210282Y-97982244D01*
X101217385Y-98005660D01*
X101220000Y-98032208D01*
X101220000Y-98367792D01*
X101217385Y-98394340D01*
X101210282Y-98417756D01*
X101198754Y-98439325D01*
X101183234Y-98458234D01*
X101164325Y-98473754D01*
X101142756Y-98485282D01*
X101119340Y-98492385D01*
X101092792Y-98495000D01*
X100707208Y-98495000D01*
X100680660Y-98492385D01*
X100657244Y-98485282D01*
X100635675Y-98473754D01*
X100616766Y-98458234D01*
X100601246Y-98439325D01*
X100589718Y-98417756D01*
X100582615Y-98394340D01*
X100580000Y-98367792D01*
X100580000Y-98032208D01*
X100582615Y-98005660D01*
X100589718Y-97982244D01*
X100601246Y-97960675D01*
X100616766Y-97941766D01*
X100635675Y-97926246D01*
X100657244Y-97914718D01*
X100680660Y-97907615D01*
X100707208Y-97905000D01*
X101092792Y-97905000D01*
X101119340Y-97907615D01*
X101119340Y-97907615D01*
G37*
G36*
X94819340Y-97892615D02*
X94842756Y-97899718D01*
X94864325Y-97911246D01*
X94883234Y-97926766D01*
X94898754Y-97945675D01*
X94910282Y-97967244D01*
X94917385Y-97990660D01*
X94920000Y-98017208D01*
X94920000Y-98352792D01*
X94917385Y-98379340D01*
X94910282Y-98402756D01*
X94898754Y-98424325D01*
X94883234Y-98443234D01*
X94864325Y-98458754D01*
X94842756Y-98470282D01*
X94819340Y-98477385D01*
X94792792Y-98480000D01*
X94407208Y-98480000D01*
X94380660Y-98477385D01*
X94357244Y-98470282D01*
X94335675Y-98458754D01*
X94316766Y-98443234D01*
X94301246Y-98424325D01*
X94289718Y-98402756D01*
X94282615Y-98379340D01*
X94280000Y-98352792D01*
X94280000Y-98017208D01*
X94282615Y-97990660D01*
X94289718Y-97967244D01*
X94301246Y-97945675D01*
X94316766Y-97926766D01*
X94335675Y-97911246D01*
X94357244Y-97899718D01*
X94380660Y-97892615D01*
X94407208Y-97890000D01*
X94792792Y-97890000D01*
X94819340Y-97892615D01*
X94819340Y-97892615D01*
G37*
G36*
X96219340Y-97892615D02*
X96242756Y-97899718D01*
X96264325Y-97911246D01*
X96283234Y-97926766D01*
X96298754Y-97945675D01*
X96310282Y-97967244D01*
X96317385Y-97990660D01*
X96320000Y-98017208D01*
X96320000Y-98352792D01*
X96317385Y-98379340D01*
X96310282Y-98402756D01*
X96298754Y-98424325D01*
X96283234Y-98443234D01*
X96264325Y-98458754D01*
X96242756Y-98470282D01*
X96219340Y-98477385D01*
X96192792Y-98480000D01*
X95807208Y-98480000D01*
X95780660Y-98477385D01*
X95757244Y-98470282D01*
X95735675Y-98458754D01*
X95716766Y-98443234D01*
X95701246Y-98424325D01*
X95689718Y-98402756D01*
X95682615Y-98379340D01*
X95680000Y-98352792D01*
X95680000Y-98017208D01*
X95682615Y-97990660D01*
X95689718Y-97967244D01*
X95701246Y-97945675D01*
X95716766Y-97926766D01*
X95735675Y-97911246D01*
X95757244Y-97899718D01*
X95780660Y-97892615D01*
X95807208Y-97890000D01*
X96192792Y-97890000D01*
X96219340Y-97892615D01*
X96219340Y-97892615D01*
G37*
G36*
X77609340Y-97282615D02*
X77632756Y-97289718D01*
X77654325Y-97301246D01*
X77673234Y-97316766D01*
X77688754Y-97335675D01*
X77700282Y-97357244D01*
X77707385Y-97380660D01*
X77710000Y-97407208D01*
X77710000Y-97792792D01*
X77707385Y-97819340D01*
X77700282Y-97842756D01*
X77688754Y-97864325D01*
X77673234Y-97883234D01*
X77654325Y-97898754D01*
X77632756Y-97910282D01*
X77609340Y-97917385D01*
X77582792Y-97920000D01*
X77247208Y-97920000D01*
X77220660Y-97917385D01*
X77197244Y-97910282D01*
X77175675Y-97898754D01*
X77156766Y-97883234D01*
X77141246Y-97864325D01*
X77129718Y-97842756D01*
X77122615Y-97819340D01*
X77120000Y-97792792D01*
X77120000Y-97407208D01*
X77122615Y-97380660D01*
X77129718Y-97357244D01*
X77141246Y-97335675D01*
X77156766Y-97316766D01*
X77175675Y-97301246D01*
X77197244Y-97289718D01*
X77220660Y-97282615D01*
X77247208Y-97280000D01*
X77582792Y-97280000D01*
X77609340Y-97282615D01*
X77609340Y-97282615D01*
G37*
G36*
X78579340Y-97282615D02*
X78602756Y-97289718D01*
X78624325Y-97301246D01*
X78643234Y-97316766D01*
X78658754Y-97335675D01*
X78670282Y-97357244D01*
X78677385Y-97380660D01*
X78680000Y-97407208D01*
X78680000Y-97792792D01*
X78677385Y-97819340D01*
X78670282Y-97842756D01*
X78658754Y-97864325D01*
X78643234Y-97883234D01*
X78624325Y-97898754D01*
X78602756Y-97910282D01*
X78579340Y-97917385D01*
X78552792Y-97920000D01*
X78217208Y-97920000D01*
X78190660Y-97917385D01*
X78167244Y-97910282D01*
X78145675Y-97898754D01*
X78126766Y-97883234D01*
X78111246Y-97864325D01*
X78099718Y-97842756D01*
X78092615Y-97819340D01*
X78090000Y-97792792D01*
X78090000Y-97407208D01*
X78092615Y-97380660D01*
X78099718Y-97357244D01*
X78111246Y-97335675D01*
X78126766Y-97316766D01*
X78145675Y-97301246D01*
X78167244Y-97289718D01*
X78190660Y-97282615D01*
X78217208Y-97280000D01*
X78552792Y-97280000D01*
X78579340Y-97282615D01*
X78579340Y-97282615D01*
G37*
G36*
X81809340Y-97182615D02*
X81832756Y-97189718D01*
X81854325Y-97201246D01*
X81873234Y-97216766D01*
X81888754Y-97235675D01*
X81900282Y-97257244D01*
X81907385Y-97280660D01*
X81910000Y-97307208D01*
X81910000Y-97692792D01*
X81907385Y-97719340D01*
X81900282Y-97742756D01*
X81888754Y-97764325D01*
X81873234Y-97783234D01*
X81854325Y-97798754D01*
X81832756Y-97810282D01*
X81809340Y-97817385D01*
X81782792Y-97820000D01*
X81447208Y-97820000D01*
X81420660Y-97817385D01*
X81397244Y-97810282D01*
X81375675Y-97798754D01*
X81356766Y-97783234D01*
X81341246Y-97764325D01*
X81329718Y-97742756D01*
X81322615Y-97719340D01*
X81320000Y-97692792D01*
X81320000Y-97307208D01*
X81322615Y-97280660D01*
X81329718Y-97257244D01*
X81341246Y-97235675D01*
X81356766Y-97216766D01*
X81375675Y-97201246D01*
X81397244Y-97189718D01*
X81420660Y-97182615D01*
X81447208Y-97180000D01*
X81782792Y-97180000D01*
X81809340Y-97182615D01*
X81809340Y-97182615D01*
G37*
G36*
X82779340Y-97182615D02*
X82802756Y-97189718D01*
X82824325Y-97201246D01*
X82843234Y-97216766D01*
X82858754Y-97235675D01*
X82870282Y-97257244D01*
X82877385Y-97280660D01*
X82880000Y-97307208D01*
X82880000Y-97692792D01*
X82877385Y-97719340D01*
X82870282Y-97742756D01*
X82858754Y-97764325D01*
X82843234Y-97783234D01*
X82824325Y-97798754D01*
X82802756Y-97810282D01*
X82779340Y-97817385D01*
X82752792Y-97820000D01*
X82417208Y-97820000D01*
X82390660Y-97817385D01*
X82367244Y-97810282D01*
X82345675Y-97798754D01*
X82326766Y-97783234D01*
X82311246Y-97764325D01*
X82299718Y-97742756D01*
X82292615Y-97719340D01*
X82290000Y-97692792D01*
X82290000Y-97307208D01*
X82292615Y-97280660D01*
X82299718Y-97257244D01*
X82311246Y-97235675D01*
X82326766Y-97216766D01*
X82345675Y-97201246D01*
X82367244Y-97189718D01*
X82390660Y-97182615D01*
X82417208Y-97180000D01*
X82752792Y-97180000D01*
X82779340Y-97182615D01*
X82779340Y-97182615D01*
G37*
G36*
X74019340Y-96987615D02*
X74042756Y-96994718D01*
X74064325Y-97006246D01*
X74083234Y-97021766D01*
X74098754Y-97040675D01*
X74110282Y-97062244D01*
X74117385Y-97085660D01*
X74120000Y-97112208D01*
X74120000Y-97447792D01*
X74117385Y-97474340D01*
X74110282Y-97497756D01*
X74098754Y-97519325D01*
X74083234Y-97538234D01*
X74064325Y-97553754D01*
X74042756Y-97565282D01*
X74019340Y-97572385D01*
X73992792Y-97575000D01*
X73607208Y-97575000D01*
X73580660Y-97572385D01*
X73557244Y-97565282D01*
X73535675Y-97553754D01*
X73516766Y-97538234D01*
X73501246Y-97519325D01*
X73489718Y-97497756D01*
X73482615Y-97474340D01*
X73480000Y-97447792D01*
X73480000Y-97112208D01*
X73482615Y-97085660D01*
X73489718Y-97062244D01*
X73501246Y-97040675D01*
X73516766Y-97021766D01*
X73535675Y-97006246D01*
X73557244Y-96994718D01*
X73580660Y-96987615D01*
X73607208Y-96985000D01*
X73992792Y-96985000D01*
X74019340Y-96987615D01*
X74019340Y-96987615D01*
G37*
G36*
X66119340Y-96972615D02*
X66142756Y-96979718D01*
X66164325Y-96991246D01*
X66183234Y-97006766D01*
X66198754Y-97025675D01*
X66210282Y-97047244D01*
X66217385Y-97070660D01*
X66220000Y-97097208D01*
X66220000Y-97432792D01*
X66217385Y-97459340D01*
X66210282Y-97482756D01*
X66198754Y-97504325D01*
X66183234Y-97523234D01*
X66164325Y-97538754D01*
X66142756Y-97550282D01*
X66119340Y-97557385D01*
X66092792Y-97560000D01*
X65707208Y-97560000D01*
X65680660Y-97557385D01*
X65657244Y-97550282D01*
X65635675Y-97538754D01*
X65616766Y-97523234D01*
X65601246Y-97504325D01*
X65589718Y-97482756D01*
X65582615Y-97459340D01*
X65580000Y-97432792D01*
X65580000Y-97097208D01*
X65582615Y-97070660D01*
X65589718Y-97047244D01*
X65601246Y-97025675D01*
X65616766Y-97006766D01*
X65635675Y-96991246D01*
X65657244Y-96979718D01*
X65680660Y-96972615D01*
X65707208Y-96970000D01*
X66092792Y-96970000D01*
X66119340Y-96972615D01*
X66119340Y-96972615D01*
G37*
G36*
X101119340Y-96937615D02*
X101142756Y-96944718D01*
X101164325Y-96956246D01*
X101183234Y-96971766D01*
X101198754Y-96990675D01*
X101210282Y-97012244D01*
X101217385Y-97035660D01*
X101220000Y-97062208D01*
X101220000Y-97397792D01*
X101217385Y-97424340D01*
X101210282Y-97447756D01*
X101198754Y-97469325D01*
X101183234Y-97488234D01*
X101164325Y-97503754D01*
X101142756Y-97515282D01*
X101119340Y-97522385D01*
X101092792Y-97525000D01*
X100707208Y-97525000D01*
X100680660Y-97522385D01*
X100657244Y-97515282D01*
X100635675Y-97503754D01*
X100616766Y-97488234D01*
X100601246Y-97469325D01*
X100589718Y-97447756D01*
X100582615Y-97424340D01*
X100580000Y-97397792D01*
X100580000Y-97062208D01*
X100582615Y-97035660D01*
X100589718Y-97012244D01*
X100601246Y-96990675D01*
X100616766Y-96971766D01*
X100635675Y-96956246D01*
X100657244Y-96944718D01*
X100680660Y-96937615D01*
X100707208Y-96935000D01*
X101092792Y-96935000D01*
X101119340Y-96937615D01*
X101119340Y-96937615D01*
G37*
G36*
X99719340Y-96937615D02*
X99742756Y-96944718D01*
X99764325Y-96956246D01*
X99783234Y-96971766D01*
X99798754Y-96990675D01*
X99810282Y-97012244D01*
X99817385Y-97035660D01*
X99820000Y-97062208D01*
X99820000Y-97397792D01*
X99817385Y-97424340D01*
X99810282Y-97447756D01*
X99798754Y-97469325D01*
X99783234Y-97488234D01*
X99764325Y-97503754D01*
X99742756Y-97515282D01*
X99719340Y-97522385D01*
X99692792Y-97525000D01*
X99307208Y-97525000D01*
X99280660Y-97522385D01*
X99257244Y-97515282D01*
X99235675Y-97503754D01*
X99216766Y-97488234D01*
X99201246Y-97469325D01*
X99189718Y-97447756D01*
X99182615Y-97424340D01*
X99180000Y-97397792D01*
X99180000Y-97062208D01*
X99182615Y-97035660D01*
X99189718Y-97012244D01*
X99201246Y-96990675D01*
X99216766Y-96971766D01*
X99235675Y-96956246D01*
X99257244Y-96944718D01*
X99280660Y-96937615D01*
X99307208Y-96935000D01*
X99692792Y-96935000D01*
X99719340Y-96937615D01*
X99719340Y-96937615D01*
G37*
G36*
X94819340Y-96922615D02*
X94842756Y-96929718D01*
X94864325Y-96941246D01*
X94883234Y-96956766D01*
X94898754Y-96975675D01*
X94910282Y-96997244D01*
X94917385Y-97020660D01*
X94920000Y-97047208D01*
X94920000Y-97382792D01*
X94917385Y-97409340D01*
X94910282Y-97432756D01*
X94898754Y-97454325D01*
X94883234Y-97473234D01*
X94864325Y-97488754D01*
X94842756Y-97500282D01*
X94819340Y-97507385D01*
X94792792Y-97510000D01*
X94407208Y-97510000D01*
X94380660Y-97507385D01*
X94357244Y-97500282D01*
X94335675Y-97488754D01*
X94316766Y-97473234D01*
X94301246Y-97454325D01*
X94289718Y-97432756D01*
X94282615Y-97409340D01*
X94280000Y-97382792D01*
X94280000Y-97047208D01*
X94282615Y-97020660D01*
X94289718Y-96997244D01*
X94301246Y-96975675D01*
X94316766Y-96956766D01*
X94335675Y-96941246D01*
X94357244Y-96929718D01*
X94380660Y-96922615D01*
X94407208Y-96920000D01*
X94792792Y-96920000D01*
X94819340Y-96922615D01*
X94819340Y-96922615D01*
G37*
G36*
X96219340Y-96922615D02*
X96242756Y-96929718D01*
X96264325Y-96941246D01*
X96283234Y-96956766D01*
X96298754Y-96975675D01*
X96310282Y-96997244D01*
X96317385Y-97020660D01*
X96320000Y-97047208D01*
X96320000Y-97382792D01*
X96317385Y-97409340D01*
X96310282Y-97432756D01*
X96298754Y-97454325D01*
X96283234Y-97473234D01*
X96264325Y-97488754D01*
X96242756Y-97500282D01*
X96219340Y-97507385D01*
X96192792Y-97510000D01*
X95807208Y-97510000D01*
X95780660Y-97507385D01*
X95757244Y-97500282D01*
X95735675Y-97488754D01*
X95716766Y-97473234D01*
X95701246Y-97454325D01*
X95689718Y-97432756D01*
X95682615Y-97409340D01*
X95680000Y-97382792D01*
X95680000Y-97047208D01*
X95682615Y-97020660D01*
X95689718Y-96997244D01*
X95701246Y-96975675D01*
X95716766Y-96956766D01*
X95735675Y-96941246D01*
X95757244Y-96929718D01*
X95780660Y-96922615D01*
X95807208Y-96920000D01*
X96192792Y-96920000D01*
X96219340Y-96922615D01*
X96219340Y-96922615D01*
G37*
G36*
X84379340Y-96382615D02*
X84402756Y-96389718D01*
X84424325Y-96401246D01*
X84443234Y-96416766D01*
X84458754Y-96435675D01*
X84470282Y-96457244D01*
X84477385Y-96480660D01*
X84480000Y-96507208D01*
X84480000Y-96892792D01*
X84477385Y-96919340D01*
X84470282Y-96942756D01*
X84458754Y-96964325D01*
X84443234Y-96983234D01*
X84424325Y-96998754D01*
X84402756Y-97010282D01*
X84379340Y-97017385D01*
X84352792Y-97020000D01*
X84017208Y-97020000D01*
X83990660Y-97017385D01*
X83967244Y-97010282D01*
X83945675Y-96998754D01*
X83926766Y-96983234D01*
X83911246Y-96964325D01*
X83899718Y-96942756D01*
X83892615Y-96919340D01*
X83890000Y-96892792D01*
X83890000Y-96507208D01*
X83892615Y-96480660D01*
X83899718Y-96457244D01*
X83911246Y-96435675D01*
X83926766Y-96416766D01*
X83945675Y-96401246D01*
X83967244Y-96389718D01*
X83990660Y-96382615D01*
X84017208Y-96380000D01*
X84352792Y-96380000D01*
X84379340Y-96382615D01*
X84379340Y-96382615D01*
G37*
G36*
X83409340Y-96382615D02*
X83432756Y-96389718D01*
X83454325Y-96401246D01*
X83473234Y-96416766D01*
X83488754Y-96435675D01*
X83500282Y-96457244D01*
X83507385Y-96480660D01*
X83510000Y-96507208D01*
X83510000Y-96892792D01*
X83507385Y-96919340D01*
X83500282Y-96942756D01*
X83488754Y-96964325D01*
X83473234Y-96983234D01*
X83454325Y-96998754D01*
X83432756Y-97010282D01*
X83409340Y-97017385D01*
X83382792Y-97020000D01*
X83047208Y-97020000D01*
X83020660Y-97017385D01*
X82997244Y-97010282D01*
X82975675Y-96998754D01*
X82956766Y-96983234D01*
X82941246Y-96964325D01*
X82929718Y-96942756D01*
X82922615Y-96919340D01*
X82920000Y-96892792D01*
X82920000Y-96507208D01*
X82922615Y-96480660D01*
X82929718Y-96457244D01*
X82941246Y-96435675D01*
X82956766Y-96416766D01*
X82975675Y-96401246D01*
X82997244Y-96389718D01*
X83020660Y-96382615D01*
X83047208Y-96380000D01*
X83382792Y-96380000D01*
X83409340Y-96382615D01*
X83409340Y-96382615D01*
G37*
G36*
X88701903Y-95854345D02*
X88742193Y-95866566D01*
X88779325Y-95886414D01*
X88811874Y-95913126D01*
X88838586Y-95945675D01*
X88858434Y-95982807D01*
X88870655Y-96023097D01*
X88875000Y-96067208D01*
X88875000Y-96682792D01*
X88870655Y-96726903D01*
X88858434Y-96767193D01*
X88838586Y-96804325D01*
X88811874Y-96836874D01*
X88779325Y-96863586D01*
X88742193Y-96883434D01*
X88701903Y-96895655D01*
X88657792Y-96900000D01*
X88142208Y-96900000D01*
X88098097Y-96895655D01*
X88057807Y-96883434D01*
X88020675Y-96863586D01*
X87988126Y-96836874D01*
X87961414Y-96804325D01*
X87941566Y-96767193D01*
X87929345Y-96726903D01*
X87925000Y-96682792D01*
X87925000Y-96067208D01*
X87929345Y-96023097D01*
X87941566Y-95982807D01*
X87961414Y-95945675D01*
X87988126Y-95913126D01*
X88020675Y-95886414D01*
X88057807Y-95866566D01*
X88098097Y-95854345D01*
X88142208Y-95850000D01*
X88657792Y-95850000D01*
X88701903Y-95854345D01*
X88701903Y-95854345D01*
G37*
G36*
X78076903Y-95929345D02*
X78117193Y-95941566D01*
X78154325Y-95961414D01*
X78186874Y-95988126D01*
X78213586Y-96020675D01*
X78233434Y-96057807D01*
X78245655Y-96098097D01*
X78250000Y-96142208D01*
X78250000Y-96657792D01*
X78245655Y-96701903D01*
X78233434Y-96742193D01*
X78213586Y-96779325D01*
X78186874Y-96811874D01*
X78154325Y-96838586D01*
X78117193Y-96858434D01*
X78076903Y-96870655D01*
X78032792Y-96875000D01*
X77417208Y-96875000D01*
X77373097Y-96870655D01*
X77332807Y-96858434D01*
X77295675Y-96838586D01*
X77263126Y-96811874D01*
X77236414Y-96779325D01*
X77216566Y-96742193D01*
X77204345Y-96701903D01*
X77200000Y-96657792D01*
X77200000Y-96142208D01*
X77204345Y-96098097D01*
X77216566Y-96057807D01*
X77236414Y-96020675D01*
X77263126Y-95988126D01*
X77295675Y-95961414D01*
X77332807Y-95941566D01*
X77373097Y-95929345D01*
X77417208Y-95925000D01*
X78032792Y-95925000D01*
X78076903Y-95929345D01*
X78076903Y-95929345D01*
G37*
G36*
X79826903Y-95929345D02*
X79867193Y-95941566D01*
X79904325Y-95961414D01*
X79936874Y-95988126D01*
X79963586Y-96020675D01*
X79983434Y-96057807D01*
X79995655Y-96098097D01*
X80000000Y-96142208D01*
X80000000Y-96657792D01*
X79995655Y-96701903D01*
X79983434Y-96742193D01*
X79963586Y-96779325D01*
X79936874Y-96811874D01*
X79904325Y-96838586D01*
X79867193Y-96858434D01*
X79826903Y-96870655D01*
X79782792Y-96875000D01*
X79167208Y-96875000D01*
X79123097Y-96870655D01*
X79082807Y-96858434D01*
X79045675Y-96838586D01*
X79013126Y-96811874D01*
X78986414Y-96779325D01*
X78966566Y-96742193D01*
X78954345Y-96701903D01*
X78950000Y-96657792D01*
X78950000Y-96142208D01*
X78954345Y-96098097D01*
X78966566Y-96057807D01*
X78986414Y-96020675D01*
X79013126Y-95988126D01*
X79045675Y-95961414D01*
X79082807Y-95941566D01*
X79123097Y-95929345D01*
X79167208Y-95925000D01*
X79782792Y-95925000D01*
X79826903Y-95929345D01*
X79826903Y-95929345D01*
G37*
G36*
X89819340Y-96092615D02*
X89842756Y-96099718D01*
X89864325Y-96111246D01*
X89883234Y-96126766D01*
X89898754Y-96145675D01*
X89910282Y-96167244D01*
X89917385Y-96190660D01*
X89920000Y-96217208D01*
X89920000Y-96552792D01*
X89917385Y-96579340D01*
X89910282Y-96602756D01*
X89898754Y-96624325D01*
X89883234Y-96643234D01*
X89864325Y-96658754D01*
X89842756Y-96670282D01*
X89819340Y-96677385D01*
X89792792Y-96680000D01*
X89407208Y-96680000D01*
X89380660Y-96677385D01*
X89357244Y-96670282D01*
X89335675Y-96658754D01*
X89316766Y-96643234D01*
X89301246Y-96624325D01*
X89289718Y-96602756D01*
X89282615Y-96579340D01*
X89280000Y-96552792D01*
X89280000Y-96217208D01*
X89282615Y-96190660D01*
X89289718Y-96167244D01*
X89301246Y-96145675D01*
X89316766Y-96126766D01*
X89335675Y-96111246D01*
X89357244Y-96099718D01*
X89380660Y-96092615D01*
X89407208Y-96090000D01*
X89792792Y-96090000D01*
X89819340Y-96092615D01*
X89819340Y-96092615D01*
G37*
G36*
X66119340Y-95942615D02*
X66142756Y-95949718D01*
X66164325Y-95961246D01*
X66183234Y-95976766D01*
X66198754Y-95995675D01*
X66210282Y-96017244D01*
X66217385Y-96040660D01*
X66220000Y-96067208D01*
X66220000Y-96402792D01*
X66217385Y-96429340D01*
X66210282Y-96452756D01*
X66198754Y-96474325D01*
X66183234Y-96493234D01*
X66164325Y-96508754D01*
X66142756Y-96520282D01*
X66119340Y-96527385D01*
X66092792Y-96530000D01*
X65707208Y-96530000D01*
X65680660Y-96527385D01*
X65657244Y-96520282D01*
X65635675Y-96508754D01*
X65616766Y-96493234D01*
X65601246Y-96474325D01*
X65589718Y-96452756D01*
X65582615Y-96429340D01*
X65580000Y-96402792D01*
X65580000Y-96067208D01*
X65582615Y-96040660D01*
X65589718Y-96017244D01*
X65601246Y-95995675D01*
X65616766Y-95976766D01*
X65635675Y-95961246D01*
X65657244Y-95949718D01*
X65680660Y-95942615D01*
X65707208Y-95940000D01*
X66092792Y-95940000D01*
X66119340Y-95942615D01*
X66119340Y-95942615D01*
G37*
G36*
X85119340Y-95692615D02*
X85142756Y-95699718D01*
X85164325Y-95711246D01*
X85183234Y-95726766D01*
X85198754Y-95745675D01*
X85210282Y-95767244D01*
X85217385Y-95790660D01*
X85220000Y-95817208D01*
X85220000Y-96152792D01*
X85217385Y-96179340D01*
X85210282Y-96202756D01*
X85198754Y-96224325D01*
X85183234Y-96243234D01*
X85164325Y-96258754D01*
X85142756Y-96270282D01*
X85119340Y-96277385D01*
X85092792Y-96280000D01*
X84707208Y-96280000D01*
X84680660Y-96277385D01*
X84657244Y-96270282D01*
X84635675Y-96258754D01*
X84616766Y-96243234D01*
X84601246Y-96224325D01*
X84589718Y-96202756D01*
X84582615Y-96179340D01*
X84580000Y-96152792D01*
X84580000Y-95817208D01*
X84582615Y-95790660D01*
X84589718Y-95767244D01*
X84601246Y-95745675D01*
X84616766Y-95726766D01*
X84635675Y-95711246D01*
X84657244Y-95699718D01*
X84680660Y-95692615D01*
X84707208Y-95690000D01*
X85092792Y-95690000D01*
X85119340Y-95692615D01*
X85119340Y-95692615D01*
G37*
G36*
X87419340Y-95692615D02*
X87442756Y-95699718D01*
X87464325Y-95711246D01*
X87483234Y-95726766D01*
X87498754Y-95745675D01*
X87510282Y-95767244D01*
X87517385Y-95790660D01*
X87520000Y-95817208D01*
X87520000Y-96152792D01*
X87517385Y-96179340D01*
X87510282Y-96202756D01*
X87498754Y-96224325D01*
X87483234Y-96243234D01*
X87464325Y-96258754D01*
X87442756Y-96270282D01*
X87419340Y-96277385D01*
X87392792Y-96280000D01*
X87007208Y-96280000D01*
X86980660Y-96277385D01*
X86957244Y-96270282D01*
X86935675Y-96258754D01*
X86916766Y-96243234D01*
X86901246Y-96224325D01*
X86889718Y-96202756D01*
X86882615Y-96179340D01*
X86880000Y-96152792D01*
X86880000Y-95817208D01*
X86882615Y-95790660D01*
X86889718Y-95767244D01*
X86901246Y-95745675D01*
X86916766Y-95726766D01*
X86935675Y-95711246D01*
X86957244Y-95699718D01*
X86980660Y-95692615D01*
X87007208Y-95690000D01*
X87392792Y-95690000D01*
X87419340Y-95692615D01*
X87419340Y-95692615D01*
G37*
G36*
X97400000Y-96000000D02*
X96400000Y-96000000D01*
X96400000Y-95000000D01*
X97400000Y-95000000D01*
X97400000Y-96000000D01*
X97400000Y-96000000D01*
G37*
G36*
X95728017Y-95007235D02*
X95822269Y-95035825D01*
X95909129Y-95082252D01*
X95985264Y-95144736D01*
X96047748Y-95220871D01*
X96094175Y-95307731D01*
X96122765Y-95401983D01*
X96132420Y-95500000D01*
X96122765Y-95598017D01*
X96094175Y-95692269D01*
X96047748Y-95779129D01*
X95985264Y-95855264D01*
X95909129Y-95917748D01*
X95822269Y-95964175D01*
X95728017Y-95992765D01*
X95654565Y-96000000D01*
X95605435Y-96000000D01*
X95531983Y-95992765D01*
X95437731Y-95964175D01*
X95350871Y-95917748D01*
X95274736Y-95855264D01*
X95212252Y-95779129D01*
X95165825Y-95692269D01*
X95137235Y-95598017D01*
X95127580Y-95500000D01*
X95137235Y-95401983D01*
X95165825Y-95307731D01*
X95212252Y-95220871D01*
X95274736Y-95144736D01*
X95350871Y-95082252D01*
X95437731Y-95035825D01*
X95531983Y-95007235D01*
X95605435Y-95000000D01*
X95654565Y-95000000D01*
X95728017Y-95007235D01*
X95728017Y-95007235D01*
G37*
G36*
X94458017Y-95007235D02*
X94552269Y-95035825D01*
X94639129Y-95082252D01*
X94715264Y-95144736D01*
X94777748Y-95220871D01*
X94824175Y-95307731D01*
X94852765Y-95401983D01*
X94862420Y-95500000D01*
X94852765Y-95598017D01*
X94824175Y-95692269D01*
X94777748Y-95779129D01*
X94715264Y-95855264D01*
X94639129Y-95917748D01*
X94552269Y-95964175D01*
X94458017Y-95992765D01*
X94384565Y-96000000D01*
X94335435Y-96000000D01*
X94261983Y-95992765D01*
X94167731Y-95964175D01*
X94080871Y-95917748D01*
X94004736Y-95855264D01*
X93942252Y-95779129D01*
X93895825Y-95692269D01*
X93867235Y-95598017D01*
X93857580Y-95500000D01*
X93867235Y-95401983D01*
X93895825Y-95307731D01*
X93942252Y-95220871D01*
X94004736Y-95144736D01*
X94080871Y-95082252D01*
X94167731Y-95035825D01*
X94261983Y-95007235D01*
X94335435Y-95000000D01*
X94384565Y-95000000D01*
X94458017Y-95007235D01*
X94458017Y-95007235D01*
G37*
G36*
X89819340Y-95122615D02*
X89842756Y-95129718D01*
X89864325Y-95141246D01*
X89883234Y-95156766D01*
X89898754Y-95175675D01*
X89910282Y-95197244D01*
X89917385Y-95220660D01*
X89920000Y-95247208D01*
X89920000Y-95582792D01*
X89917385Y-95609340D01*
X89910282Y-95632756D01*
X89898754Y-95654325D01*
X89883234Y-95673234D01*
X89864325Y-95688754D01*
X89842756Y-95700282D01*
X89819340Y-95707385D01*
X89792792Y-95710000D01*
X89407208Y-95710000D01*
X89380660Y-95707385D01*
X89357244Y-95700282D01*
X89335675Y-95688754D01*
X89316766Y-95673234D01*
X89301246Y-95654325D01*
X89289718Y-95632756D01*
X89282615Y-95609340D01*
X89280000Y-95582792D01*
X89280000Y-95247208D01*
X89282615Y-95220660D01*
X89289718Y-95197244D01*
X89301246Y-95175675D01*
X89316766Y-95156766D01*
X89335675Y-95141246D01*
X89357244Y-95129718D01*
X89380660Y-95122615D01*
X89407208Y-95120000D01*
X89792792Y-95120000D01*
X89819340Y-95122615D01*
X89819340Y-95122615D01*
G37*
G36*
X85919340Y-94992615D02*
X85942756Y-94999718D01*
X85964325Y-95011246D01*
X85983234Y-95026766D01*
X85998754Y-95045675D01*
X86010282Y-95067244D01*
X86017385Y-95090660D01*
X86020000Y-95117208D01*
X86020000Y-95452792D01*
X86017385Y-95479340D01*
X86010282Y-95502756D01*
X85998754Y-95524325D01*
X85983234Y-95543234D01*
X85964325Y-95558754D01*
X85942756Y-95570282D01*
X85919340Y-95577385D01*
X85892792Y-95580000D01*
X85507208Y-95580000D01*
X85480660Y-95577385D01*
X85457244Y-95570282D01*
X85435675Y-95558754D01*
X85416766Y-95543234D01*
X85401246Y-95524325D01*
X85389718Y-95502756D01*
X85382615Y-95479340D01*
X85380000Y-95452792D01*
X85380000Y-95117208D01*
X85382615Y-95090660D01*
X85389718Y-95067244D01*
X85401246Y-95045675D01*
X85416766Y-95026766D01*
X85435675Y-95011246D01*
X85457244Y-94999718D01*
X85480660Y-94992615D01*
X85507208Y-94990000D01*
X85892792Y-94990000D01*
X85919340Y-94992615D01*
X85919340Y-94992615D01*
G37*
G36*
X66119340Y-94972615D02*
X66142756Y-94979718D01*
X66164325Y-94991246D01*
X66183234Y-95006766D01*
X66198754Y-95025675D01*
X66210282Y-95047244D01*
X66217385Y-95070660D01*
X66220000Y-95097208D01*
X66220000Y-95432792D01*
X66217385Y-95459340D01*
X66210282Y-95482756D01*
X66198754Y-95504325D01*
X66183234Y-95523234D01*
X66164325Y-95538754D01*
X66142756Y-95550282D01*
X66119340Y-95557385D01*
X66092792Y-95560000D01*
X65707208Y-95560000D01*
X65680660Y-95557385D01*
X65657244Y-95550282D01*
X65635675Y-95538754D01*
X65616766Y-95523234D01*
X65601246Y-95504325D01*
X65589718Y-95482756D01*
X65582615Y-95459340D01*
X65580000Y-95432792D01*
X65580000Y-95097208D01*
X65582615Y-95070660D01*
X65589718Y-95047244D01*
X65601246Y-95025675D01*
X65616766Y-95006766D01*
X65635675Y-94991246D01*
X65657244Y-94979718D01*
X65680660Y-94972615D01*
X65707208Y-94970000D01*
X66092792Y-94970000D01*
X66119340Y-94972615D01*
X66119340Y-94972615D01*
G37*
G36*
X81919340Y-94892615D02*
X81942756Y-94899718D01*
X81964325Y-94911246D01*
X81983234Y-94926766D01*
X81998754Y-94945675D01*
X82010282Y-94967244D01*
X82017385Y-94990660D01*
X82020000Y-95017208D01*
X82020000Y-95352792D01*
X82017385Y-95379340D01*
X82010282Y-95402756D01*
X81998754Y-95424325D01*
X81983234Y-95443234D01*
X81964325Y-95458754D01*
X81942756Y-95470282D01*
X81919340Y-95477385D01*
X81892792Y-95480000D01*
X81507208Y-95480000D01*
X81480660Y-95477385D01*
X81457244Y-95470282D01*
X81435675Y-95458754D01*
X81416766Y-95443234D01*
X81401246Y-95424325D01*
X81389718Y-95402756D01*
X81382615Y-95379340D01*
X81380000Y-95352792D01*
X81380000Y-95017208D01*
X81382615Y-94990660D01*
X81389718Y-94967244D01*
X81401246Y-94945675D01*
X81416766Y-94926766D01*
X81435675Y-94911246D01*
X81457244Y-94899718D01*
X81480660Y-94892615D01*
X81507208Y-94890000D01*
X81892792Y-94890000D01*
X81919340Y-94892615D01*
X81919340Y-94892615D01*
G37*
G36*
X87419340Y-94722615D02*
X87442756Y-94729718D01*
X87464325Y-94741246D01*
X87483234Y-94756766D01*
X87498754Y-94775675D01*
X87510282Y-94797244D01*
X87517385Y-94820660D01*
X87520000Y-94847208D01*
X87520000Y-95182792D01*
X87517385Y-95209340D01*
X87510282Y-95232756D01*
X87498754Y-95254325D01*
X87483234Y-95273234D01*
X87464325Y-95288754D01*
X87442756Y-95300282D01*
X87419340Y-95307385D01*
X87392792Y-95310000D01*
X87007208Y-95310000D01*
X86980660Y-95307385D01*
X86957244Y-95300282D01*
X86935675Y-95288754D01*
X86916766Y-95273234D01*
X86901246Y-95254325D01*
X86889718Y-95232756D01*
X86882615Y-95209340D01*
X86880000Y-95182792D01*
X86880000Y-94847208D01*
X86882615Y-94820660D01*
X86889718Y-94797244D01*
X86901246Y-94775675D01*
X86916766Y-94756766D01*
X86935675Y-94741246D01*
X86957244Y-94729718D01*
X86980660Y-94722615D01*
X87007208Y-94720000D01*
X87392792Y-94720000D01*
X87419340Y-94722615D01*
X87419340Y-94722615D01*
G37*
G36*
X85119340Y-94722615D02*
X85142756Y-94729718D01*
X85164325Y-94741246D01*
X85183234Y-94756766D01*
X85198754Y-94775675D01*
X85210282Y-94797244D01*
X85217385Y-94820660D01*
X85220000Y-94847208D01*
X85220000Y-95182792D01*
X85217385Y-95209340D01*
X85210282Y-95232756D01*
X85198754Y-95254325D01*
X85183234Y-95273234D01*
X85164325Y-95288754D01*
X85142756Y-95300282D01*
X85119340Y-95307385D01*
X85092792Y-95310000D01*
X84707208Y-95310000D01*
X84680660Y-95307385D01*
X84657244Y-95300282D01*
X84635675Y-95288754D01*
X84616766Y-95273234D01*
X84601246Y-95254325D01*
X84589718Y-95232756D01*
X84582615Y-95209340D01*
X84580000Y-95182792D01*
X84580000Y-94847208D01*
X84582615Y-94820660D01*
X84589718Y-94797244D01*
X84601246Y-94775675D01*
X84616766Y-94756766D01*
X84635675Y-94741246D01*
X84657244Y-94729718D01*
X84680660Y-94722615D01*
X84707208Y-94720000D01*
X85092792Y-94720000D01*
X85119340Y-94722615D01*
X85119340Y-94722615D01*
G37*
G36*
X79524340Y-94582615D02*
X79547756Y-94589718D01*
X79569325Y-94601246D01*
X79588234Y-94616766D01*
X79603754Y-94635675D01*
X79615282Y-94657244D01*
X79622385Y-94680660D01*
X79625000Y-94707208D01*
X79625000Y-95092792D01*
X79622385Y-95119340D01*
X79615282Y-95142756D01*
X79603754Y-95164325D01*
X79588234Y-95183234D01*
X79569325Y-95198754D01*
X79547756Y-95210282D01*
X79524340Y-95217385D01*
X79497792Y-95220000D01*
X79162208Y-95220000D01*
X79135660Y-95217385D01*
X79112244Y-95210282D01*
X79090675Y-95198754D01*
X79071766Y-95183234D01*
X79056246Y-95164325D01*
X79044718Y-95142756D01*
X79037615Y-95119340D01*
X79035000Y-95092792D01*
X79035000Y-94707208D01*
X79037615Y-94680660D01*
X79044718Y-94657244D01*
X79056246Y-94635675D01*
X79071766Y-94616766D01*
X79090675Y-94601246D01*
X79112244Y-94589718D01*
X79135660Y-94582615D01*
X79162208Y-94580000D01*
X79497792Y-94580000D01*
X79524340Y-94582615D01*
X79524340Y-94582615D01*
G37*
G36*
X80494340Y-94582615D02*
X80517756Y-94589718D01*
X80539325Y-94601246D01*
X80558234Y-94616766D01*
X80573754Y-94635675D01*
X80585282Y-94657244D01*
X80592385Y-94680660D01*
X80595000Y-94707208D01*
X80595000Y-95092792D01*
X80592385Y-95119340D01*
X80585282Y-95142756D01*
X80573754Y-95164325D01*
X80558234Y-95183234D01*
X80539325Y-95198754D01*
X80517756Y-95210282D01*
X80494340Y-95217385D01*
X80467792Y-95220000D01*
X80132208Y-95220000D01*
X80105660Y-95217385D01*
X80082244Y-95210282D01*
X80060675Y-95198754D01*
X80041766Y-95183234D01*
X80026246Y-95164325D01*
X80014718Y-95142756D01*
X80007615Y-95119340D01*
X80005000Y-95092792D01*
X80005000Y-94707208D01*
X80007615Y-94680660D01*
X80014718Y-94657244D01*
X80026246Y-94635675D01*
X80041766Y-94616766D01*
X80060675Y-94601246D01*
X80082244Y-94589718D01*
X80105660Y-94582615D01*
X80132208Y-94580000D01*
X80467792Y-94580000D01*
X80494340Y-94582615D01*
X80494340Y-94582615D01*
G37*
G36*
X88701903Y-94104345D02*
X88742193Y-94116566D01*
X88779325Y-94136414D01*
X88811874Y-94163126D01*
X88838586Y-94195675D01*
X88858434Y-94232807D01*
X88870655Y-94273097D01*
X88875000Y-94317208D01*
X88875000Y-94932792D01*
X88870655Y-94976903D01*
X88858434Y-95017193D01*
X88838586Y-95054325D01*
X88811874Y-95086874D01*
X88779325Y-95113586D01*
X88742193Y-95133434D01*
X88701903Y-95145655D01*
X88657792Y-95150000D01*
X88142208Y-95150000D01*
X88098097Y-95145655D01*
X88057807Y-95133434D01*
X88020675Y-95113586D01*
X87988126Y-95086874D01*
X87961414Y-95054325D01*
X87941566Y-95017193D01*
X87929345Y-94976903D01*
X87925000Y-94932792D01*
X87925000Y-94317208D01*
X87929345Y-94273097D01*
X87941566Y-94232807D01*
X87961414Y-94195675D01*
X87988126Y-94163126D01*
X88020675Y-94136414D01*
X88057807Y-94116566D01*
X88098097Y-94104345D01*
X88142208Y-94100000D01*
X88657792Y-94100000D01*
X88701903Y-94104345D01*
X88701903Y-94104345D01*
G37*
G36*
X84379340Y-93982615D02*
X84402756Y-93989718D01*
X84424325Y-94001246D01*
X84443234Y-94016766D01*
X84458754Y-94035675D01*
X84470282Y-94057244D01*
X84477385Y-94080660D01*
X84480000Y-94107208D01*
X84480000Y-94492792D01*
X84477385Y-94519340D01*
X84470282Y-94542756D01*
X84458754Y-94564325D01*
X84443234Y-94583234D01*
X84424325Y-94598754D01*
X84402756Y-94610282D01*
X84379340Y-94617385D01*
X84352792Y-94620000D01*
X84017208Y-94620000D01*
X83990660Y-94617385D01*
X83967244Y-94610282D01*
X83945675Y-94598754D01*
X83926766Y-94583234D01*
X83911246Y-94564325D01*
X83899718Y-94542756D01*
X83892615Y-94519340D01*
X83890000Y-94492792D01*
X83890000Y-94107208D01*
X83892615Y-94080660D01*
X83899718Y-94057244D01*
X83911246Y-94035675D01*
X83926766Y-94016766D01*
X83945675Y-94001246D01*
X83967244Y-93989718D01*
X83990660Y-93982615D01*
X84017208Y-93980000D01*
X84352792Y-93980000D01*
X84379340Y-93982615D01*
X84379340Y-93982615D01*
G37*
G36*
X83409340Y-93982615D02*
X83432756Y-93989718D01*
X83454325Y-94001246D01*
X83473234Y-94016766D01*
X83488754Y-94035675D01*
X83500282Y-94057244D01*
X83507385Y-94080660D01*
X83510000Y-94107208D01*
X83510000Y-94492792D01*
X83507385Y-94519340D01*
X83500282Y-94542756D01*
X83488754Y-94564325D01*
X83473234Y-94583234D01*
X83454325Y-94598754D01*
X83432756Y-94610282D01*
X83409340Y-94617385D01*
X83382792Y-94620000D01*
X83047208Y-94620000D01*
X83020660Y-94617385D01*
X82997244Y-94610282D01*
X82975675Y-94598754D01*
X82956766Y-94583234D01*
X82941246Y-94564325D01*
X82929718Y-94542756D01*
X82922615Y-94519340D01*
X82920000Y-94492792D01*
X82920000Y-94107208D01*
X82922615Y-94080660D01*
X82929718Y-94057244D01*
X82941246Y-94035675D01*
X82956766Y-94016766D01*
X82975675Y-94001246D01*
X82997244Y-93989718D01*
X83020660Y-93982615D01*
X83047208Y-93980000D01*
X83382792Y-93980000D01*
X83409340Y-93982615D01*
X83409340Y-93982615D01*
G37*
G36*
X85919340Y-94022615D02*
X85942756Y-94029718D01*
X85964325Y-94041246D01*
X85983234Y-94056766D01*
X85998754Y-94075675D01*
X86010282Y-94097244D01*
X86017385Y-94120660D01*
X86020000Y-94147208D01*
X86020000Y-94482792D01*
X86017385Y-94509340D01*
X86010282Y-94532756D01*
X85998754Y-94554325D01*
X85983234Y-94573234D01*
X85964325Y-94588754D01*
X85942756Y-94600282D01*
X85919340Y-94607385D01*
X85892792Y-94610000D01*
X85507208Y-94610000D01*
X85480660Y-94607385D01*
X85457244Y-94600282D01*
X85435675Y-94588754D01*
X85416766Y-94573234D01*
X85401246Y-94554325D01*
X85389718Y-94532756D01*
X85382615Y-94509340D01*
X85380000Y-94482792D01*
X85380000Y-94147208D01*
X85382615Y-94120660D01*
X85389718Y-94097244D01*
X85401246Y-94075675D01*
X85416766Y-94056766D01*
X85435675Y-94041246D01*
X85457244Y-94029718D01*
X85480660Y-94022615D01*
X85507208Y-94020000D01*
X85892792Y-94020000D01*
X85919340Y-94022615D01*
X85919340Y-94022615D01*
G37*
G36*
X66119340Y-93957615D02*
X66142756Y-93964718D01*
X66164325Y-93976246D01*
X66183234Y-93991766D01*
X66198754Y-94010675D01*
X66210282Y-94032244D01*
X66217385Y-94055660D01*
X66220000Y-94082208D01*
X66220000Y-94417792D01*
X66217385Y-94444340D01*
X66210282Y-94467756D01*
X66198754Y-94489325D01*
X66183234Y-94508234D01*
X66164325Y-94523754D01*
X66142756Y-94535282D01*
X66119340Y-94542385D01*
X66092792Y-94545000D01*
X65707208Y-94545000D01*
X65680660Y-94542385D01*
X65657244Y-94535282D01*
X65635675Y-94523754D01*
X65616766Y-94508234D01*
X65601246Y-94489325D01*
X65589718Y-94467756D01*
X65582615Y-94444340D01*
X65580000Y-94417792D01*
X65580000Y-94082208D01*
X65582615Y-94055660D01*
X65589718Y-94032244D01*
X65601246Y-94010675D01*
X65616766Y-93991766D01*
X65635675Y-93976246D01*
X65657244Y-93964718D01*
X65680660Y-93957615D01*
X65707208Y-93955000D01*
X66092792Y-93955000D01*
X66119340Y-93957615D01*
X66119340Y-93957615D01*
G37*
G36*
X81919340Y-93922615D02*
X81942756Y-93929718D01*
X81964325Y-93941246D01*
X81983234Y-93956766D01*
X81998754Y-93975675D01*
X82010282Y-93997244D01*
X82017385Y-94020660D01*
X82020000Y-94047208D01*
X82020000Y-94382792D01*
X82017385Y-94409340D01*
X82010282Y-94432756D01*
X81998754Y-94454325D01*
X81983234Y-94473234D01*
X81964325Y-94488754D01*
X81942756Y-94500282D01*
X81919340Y-94507385D01*
X81892792Y-94510000D01*
X81507208Y-94510000D01*
X81480660Y-94507385D01*
X81457244Y-94500282D01*
X81435675Y-94488754D01*
X81416766Y-94473234D01*
X81401246Y-94454325D01*
X81389718Y-94432756D01*
X81382615Y-94409340D01*
X81380000Y-94382792D01*
X81380000Y-94047208D01*
X81382615Y-94020660D01*
X81389718Y-93997244D01*
X81401246Y-93975675D01*
X81416766Y-93956766D01*
X81435675Y-93941246D01*
X81457244Y-93929718D01*
X81480660Y-93922615D01*
X81507208Y-93920000D01*
X81892792Y-93920000D01*
X81919340Y-93922615D01*
X81919340Y-93922615D01*
G37*
G36*
X85009340Y-93182615D02*
X85032756Y-93189718D01*
X85054325Y-93201246D01*
X85073234Y-93216766D01*
X85088754Y-93235675D01*
X85100282Y-93257244D01*
X85107385Y-93280660D01*
X85110000Y-93307208D01*
X85110000Y-93692792D01*
X85107385Y-93719340D01*
X85100282Y-93742756D01*
X85088754Y-93764325D01*
X85073234Y-93783234D01*
X85054325Y-93798754D01*
X85032756Y-93810282D01*
X85009340Y-93817385D01*
X84982792Y-93820000D01*
X84647208Y-93820000D01*
X84620660Y-93817385D01*
X84597244Y-93810282D01*
X84575675Y-93798754D01*
X84556766Y-93783234D01*
X84541246Y-93764325D01*
X84529718Y-93742756D01*
X84522615Y-93719340D01*
X84520000Y-93692792D01*
X84520000Y-93307208D01*
X84522615Y-93280660D01*
X84529718Y-93257244D01*
X84541246Y-93235675D01*
X84556766Y-93216766D01*
X84575675Y-93201246D01*
X84597244Y-93189718D01*
X84620660Y-93182615D01*
X84647208Y-93180000D01*
X84982792Y-93180000D01*
X85009340Y-93182615D01*
X85009340Y-93182615D01*
G37*
G36*
X85979340Y-93182615D02*
X86002756Y-93189718D01*
X86024325Y-93201246D01*
X86043234Y-93216766D01*
X86058754Y-93235675D01*
X86070282Y-93257244D01*
X86077385Y-93280660D01*
X86080000Y-93307208D01*
X86080000Y-93692792D01*
X86077385Y-93719340D01*
X86070282Y-93742756D01*
X86058754Y-93764325D01*
X86043234Y-93783234D01*
X86024325Y-93798754D01*
X86002756Y-93810282D01*
X85979340Y-93817385D01*
X85952792Y-93820000D01*
X85617208Y-93820000D01*
X85590660Y-93817385D01*
X85567244Y-93810282D01*
X85545675Y-93798754D01*
X85526766Y-93783234D01*
X85511246Y-93764325D01*
X85499718Y-93742756D01*
X85492615Y-93719340D01*
X85490000Y-93692792D01*
X85490000Y-93307208D01*
X85492615Y-93280660D01*
X85499718Y-93257244D01*
X85511246Y-93235675D01*
X85526766Y-93216766D01*
X85545675Y-93201246D01*
X85567244Y-93189718D01*
X85590660Y-93182615D01*
X85617208Y-93180000D01*
X85952792Y-93180000D01*
X85979340Y-93182615D01*
X85979340Y-93182615D01*
G37*
G36*
X66119340Y-92987615D02*
X66142756Y-92994718D01*
X66164325Y-93006246D01*
X66183234Y-93021766D01*
X66198754Y-93040675D01*
X66210282Y-93062244D01*
X66217385Y-93085660D01*
X66220000Y-93112208D01*
X66220000Y-93447792D01*
X66217385Y-93474340D01*
X66210282Y-93497756D01*
X66198754Y-93519325D01*
X66183234Y-93538234D01*
X66164325Y-93553754D01*
X66142756Y-93565282D01*
X66119340Y-93572385D01*
X66092792Y-93575000D01*
X65707208Y-93575000D01*
X65680660Y-93572385D01*
X65657244Y-93565282D01*
X65635675Y-93553754D01*
X65616766Y-93538234D01*
X65601246Y-93519325D01*
X65589718Y-93497756D01*
X65582615Y-93474340D01*
X65580000Y-93447792D01*
X65580000Y-93112208D01*
X65582615Y-93085660D01*
X65589718Y-93062244D01*
X65601246Y-93040675D01*
X65616766Y-93021766D01*
X65635675Y-93006246D01*
X65657244Y-92994718D01*
X65680660Y-92987615D01*
X65707208Y-92985000D01*
X66092792Y-92985000D01*
X66119340Y-92987615D01*
X66119340Y-92987615D01*
G37*
G36*
X101119340Y-92707615D02*
X101142756Y-92714718D01*
X101164325Y-92726246D01*
X101183234Y-92741766D01*
X101198754Y-92760675D01*
X101210282Y-92782244D01*
X101217385Y-92805660D01*
X101220000Y-92832208D01*
X101220000Y-93167792D01*
X101217385Y-93194340D01*
X101210282Y-93217756D01*
X101198754Y-93239325D01*
X101183234Y-93258234D01*
X101164325Y-93273754D01*
X101142756Y-93285282D01*
X101119340Y-93292385D01*
X101092792Y-93295000D01*
X100707208Y-93295000D01*
X100680660Y-93292385D01*
X100657244Y-93285282D01*
X100635675Y-93273754D01*
X100616766Y-93258234D01*
X100601246Y-93239325D01*
X100589718Y-93217756D01*
X100582615Y-93194340D01*
X100580000Y-93167792D01*
X100580000Y-92832208D01*
X100582615Y-92805660D01*
X100589718Y-92782244D01*
X100601246Y-92760675D01*
X100616766Y-92741766D01*
X100635675Y-92726246D01*
X100657244Y-92714718D01*
X100680660Y-92707615D01*
X100707208Y-92705000D01*
X101092792Y-92705000D01*
X101119340Y-92707615D01*
X101119340Y-92707615D01*
G37*
G36*
X94819340Y-92692615D02*
X94842756Y-92699718D01*
X94864325Y-92711246D01*
X94883234Y-92726766D01*
X94898754Y-92745675D01*
X94910282Y-92767244D01*
X94917385Y-92790660D01*
X94920000Y-92817208D01*
X94920000Y-93152792D01*
X94917385Y-93179340D01*
X94910282Y-93202756D01*
X94898754Y-93224325D01*
X94883234Y-93243234D01*
X94864325Y-93258754D01*
X94842756Y-93270282D01*
X94819340Y-93277385D01*
X94792792Y-93280000D01*
X94407208Y-93280000D01*
X94380660Y-93277385D01*
X94357244Y-93270282D01*
X94335675Y-93258754D01*
X94316766Y-93243234D01*
X94301246Y-93224325D01*
X94289718Y-93202756D01*
X94282615Y-93179340D01*
X94280000Y-93152792D01*
X94280000Y-92817208D01*
X94282615Y-92790660D01*
X94289718Y-92767244D01*
X94301246Y-92745675D01*
X94316766Y-92726766D01*
X94335675Y-92711246D01*
X94357244Y-92699718D01*
X94380660Y-92692615D01*
X94407208Y-92690000D01*
X94792792Y-92690000D01*
X94819340Y-92692615D01*
X94819340Y-92692615D01*
G37*
G36*
X96219340Y-92692615D02*
X96242756Y-92699718D01*
X96264325Y-92711246D01*
X96283234Y-92726766D01*
X96298754Y-92745675D01*
X96310282Y-92767244D01*
X96317385Y-92790660D01*
X96320000Y-92817208D01*
X96320000Y-93152792D01*
X96317385Y-93179340D01*
X96310282Y-93202756D01*
X96298754Y-93224325D01*
X96283234Y-93243234D01*
X96264325Y-93258754D01*
X96242756Y-93270282D01*
X96219340Y-93277385D01*
X96192792Y-93280000D01*
X95807208Y-93280000D01*
X95780660Y-93277385D01*
X95757244Y-93270282D01*
X95735675Y-93258754D01*
X95716766Y-93243234D01*
X95701246Y-93224325D01*
X95689718Y-93202756D01*
X95682615Y-93179340D01*
X95680000Y-93152792D01*
X95680000Y-92817208D01*
X95682615Y-92790660D01*
X95689718Y-92767244D01*
X95701246Y-92745675D01*
X95716766Y-92726766D01*
X95735675Y-92711246D01*
X95757244Y-92699718D01*
X95780660Y-92692615D01*
X95807208Y-92690000D01*
X96192792Y-92690000D01*
X96219340Y-92692615D01*
X96219340Y-92692615D01*
G37*
G36*
X99719340Y-92692615D02*
X99742756Y-92699718D01*
X99764325Y-92711246D01*
X99783234Y-92726766D01*
X99798754Y-92745675D01*
X99810282Y-92767244D01*
X99817385Y-92790660D01*
X99820000Y-92817208D01*
X99820000Y-93152792D01*
X99817385Y-93179340D01*
X99810282Y-93202756D01*
X99798754Y-93224325D01*
X99783234Y-93243234D01*
X99764325Y-93258754D01*
X99742756Y-93270282D01*
X99719340Y-93277385D01*
X99692792Y-93280000D01*
X99307208Y-93280000D01*
X99280660Y-93277385D01*
X99257244Y-93270282D01*
X99235675Y-93258754D01*
X99216766Y-93243234D01*
X99201246Y-93224325D01*
X99189718Y-93202756D01*
X99182615Y-93179340D01*
X99180000Y-93152792D01*
X99180000Y-92817208D01*
X99182615Y-92790660D01*
X99189718Y-92767244D01*
X99201246Y-92745675D01*
X99216766Y-92726766D01*
X99235675Y-92711246D01*
X99257244Y-92699718D01*
X99280660Y-92692615D01*
X99307208Y-92690000D01*
X99692792Y-92690000D01*
X99719340Y-92692615D01*
X99719340Y-92692615D01*
G37*
G36*
X101119340Y-91737615D02*
X101142756Y-91744718D01*
X101164325Y-91756246D01*
X101183234Y-91771766D01*
X101198754Y-91790675D01*
X101210282Y-91812244D01*
X101217385Y-91835660D01*
X101220000Y-91862208D01*
X101220000Y-92197792D01*
X101217385Y-92224340D01*
X101210282Y-92247756D01*
X101198754Y-92269325D01*
X101183234Y-92288234D01*
X101164325Y-92303754D01*
X101142756Y-92315282D01*
X101119340Y-92322385D01*
X101092792Y-92325000D01*
X100707208Y-92325000D01*
X100680660Y-92322385D01*
X100657244Y-92315282D01*
X100635675Y-92303754D01*
X100616766Y-92288234D01*
X100601246Y-92269325D01*
X100589718Y-92247756D01*
X100582615Y-92224340D01*
X100580000Y-92197792D01*
X100580000Y-91862208D01*
X100582615Y-91835660D01*
X100589718Y-91812244D01*
X100601246Y-91790675D01*
X100616766Y-91771766D01*
X100635675Y-91756246D01*
X100657244Y-91744718D01*
X100680660Y-91737615D01*
X100707208Y-91735000D01*
X101092792Y-91735000D01*
X101119340Y-91737615D01*
X101119340Y-91737615D01*
G37*
G36*
X94819340Y-91722615D02*
X94842756Y-91729718D01*
X94864325Y-91741246D01*
X94883234Y-91756766D01*
X94898754Y-91775675D01*
X94910282Y-91797244D01*
X94917385Y-91820660D01*
X94920000Y-91847208D01*
X94920000Y-92182792D01*
X94917385Y-92209340D01*
X94910282Y-92232756D01*
X94898754Y-92254325D01*
X94883234Y-92273234D01*
X94864325Y-92288754D01*
X94842756Y-92300282D01*
X94819340Y-92307385D01*
X94792792Y-92310000D01*
X94407208Y-92310000D01*
X94380660Y-92307385D01*
X94357244Y-92300282D01*
X94335675Y-92288754D01*
X94316766Y-92273234D01*
X94301246Y-92254325D01*
X94289718Y-92232756D01*
X94282615Y-92209340D01*
X94280000Y-92182792D01*
X94280000Y-91847208D01*
X94282615Y-91820660D01*
X94289718Y-91797244D01*
X94301246Y-91775675D01*
X94316766Y-91756766D01*
X94335675Y-91741246D01*
X94357244Y-91729718D01*
X94380660Y-91722615D01*
X94407208Y-91720000D01*
X94792792Y-91720000D01*
X94819340Y-91722615D01*
X94819340Y-91722615D01*
G37*
G36*
X99719340Y-91722615D02*
X99742756Y-91729718D01*
X99764325Y-91741246D01*
X99783234Y-91756766D01*
X99798754Y-91775675D01*
X99810282Y-91797244D01*
X99817385Y-91820660D01*
X99820000Y-91847208D01*
X99820000Y-92182792D01*
X99817385Y-92209340D01*
X99810282Y-92232756D01*
X99798754Y-92254325D01*
X99783234Y-92273234D01*
X99764325Y-92288754D01*
X99742756Y-92300282D01*
X99719340Y-92307385D01*
X99692792Y-92310000D01*
X99307208Y-92310000D01*
X99280660Y-92307385D01*
X99257244Y-92300282D01*
X99235675Y-92288754D01*
X99216766Y-92273234D01*
X99201246Y-92254325D01*
X99189718Y-92232756D01*
X99182615Y-92209340D01*
X99180000Y-92182792D01*
X99180000Y-91847208D01*
X99182615Y-91820660D01*
X99189718Y-91797244D01*
X99201246Y-91775675D01*
X99216766Y-91756766D01*
X99235675Y-91741246D01*
X99257244Y-91729718D01*
X99280660Y-91722615D01*
X99307208Y-91720000D01*
X99692792Y-91720000D01*
X99719340Y-91722615D01*
X99719340Y-91722615D01*
G37*
G36*
X96219340Y-91722615D02*
X96242756Y-91729718D01*
X96264325Y-91741246D01*
X96283234Y-91756766D01*
X96298754Y-91775675D01*
X96310282Y-91797244D01*
X96317385Y-91820660D01*
X96320000Y-91847208D01*
X96320000Y-92182792D01*
X96317385Y-92209340D01*
X96310282Y-92232756D01*
X96298754Y-92254325D01*
X96283234Y-92273234D01*
X96264325Y-92288754D01*
X96242756Y-92300282D01*
X96219340Y-92307385D01*
X96192792Y-92310000D01*
X95807208Y-92310000D01*
X95780660Y-92307385D01*
X95757244Y-92300282D01*
X95735675Y-92288754D01*
X95716766Y-92273234D01*
X95701246Y-92254325D01*
X95689718Y-92232756D01*
X95682615Y-92209340D01*
X95680000Y-92182792D01*
X95680000Y-91847208D01*
X95682615Y-91820660D01*
X95689718Y-91797244D01*
X95701246Y-91775675D01*
X95716766Y-91756766D01*
X95735675Y-91741246D01*
X95757244Y-91729718D01*
X95780660Y-91722615D01*
X95807208Y-91720000D01*
X96192792Y-91720000D01*
X96219340Y-91722615D01*
X96219340Y-91722615D01*
G37*
G36*
X67979340Y-91232615D02*
X68002756Y-91239718D01*
X68024325Y-91251246D01*
X68043234Y-91266766D01*
X68058754Y-91285675D01*
X68070282Y-91307244D01*
X68077385Y-91330660D01*
X68080000Y-91357208D01*
X68080000Y-91742792D01*
X68077385Y-91769340D01*
X68070282Y-91792756D01*
X68058754Y-91814325D01*
X68043234Y-91833234D01*
X68024325Y-91848754D01*
X68002756Y-91860282D01*
X67979340Y-91867385D01*
X67952792Y-91870000D01*
X67617208Y-91870000D01*
X67590660Y-91867385D01*
X67567244Y-91860282D01*
X67545675Y-91848754D01*
X67526766Y-91833234D01*
X67511246Y-91814325D01*
X67499718Y-91792756D01*
X67492615Y-91769340D01*
X67490000Y-91742792D01*
X67490000Y-91357208D01*
X67492615Y-91330660D01*
X67499718Y-91307244D01*
X67511246Y-91285675D01*
X67526766Y-91266766D01*
X67545675Y-91251246D01*
X67567244Y-91239718D01*
X67590660Y-91232615D01*
X67617208Y-91230000D01*
X67952792Y-91230000D01*
X67979340Y-91232615D01*
X67979340Y-91232615D01*
G37*
G36*
X67009340Y-91232615D02*
X67032756Y-91239718D01*
X67054325Y-91251246D01*
X67073234Y-91266766D01*
X67088754Y-91285675D01*
X67100282Y-91307244D01*
X67107385Y-91330660D01*
X67110000Y-91357208D01*
X67110000Y-91742792D01*
X67107385Y-91769340D01*
X67100282Y-91792756D01*
X67088754Y-91814325D01*
X67073234Y-91833234D01*
X67054325Y-91848754D01*
X67032756Y-91860282D01*
X67009340Y-91867385D01*
X66982792Y-91870000D01*
X66647208Y-91870000D01*
X66620660Y-91867385D01*
X66597244Y-91860282D01*
X66575675Y-91848754D01*
X66556766Y-91833234D01*
X66541246Y-91814325D01*
X66529718Y-91792756D01*
X66522615Y-91769340D01*
X66520000Y-91742792D01*
X66520000Y-91357208D01*
X66522615Y-91330660D01*
X66529718Y-91307244D01*
X66541246Y-91285675D01*
X66556766Y-91266766D01*
X66575675Y-91251246D01*
X66597244Y-91239718D01*
X66620660Y-91232615D01*
X66647208Y-91230000D01*
X66982792Y-91230000D01*
X67009340Y-91232615D01*
X67009340Y-91232615D01*
G37*
G36*
X73179340Y-91232615D02*
X73202756Y-91239718D01*
X73224325Y-91251246D01*
X73243234Y-91266766D01*
X73258754Y-91285675D01*
X73270282Y-91307244D01*
X73277385Y-91330660D01*
X73280000Y-91357208D01*
X73280000Y-91742792D01*
X73277385Y-91769340D01*
X73270282Y-91792756D01*
X73258754Y-91814325D01*
X73243234Y-91833234D01*
X73224325Y-91848754D01*
X73202756Y-91860282D01*
X73179340Y-91867385D01*
X73152792Y-91870000D01*
X72817208Y-91870000D01*
X72790660Y-91867385D01*
X72767244Y-91860282D01*
X72745675Y-91848754D01*
X72726766Y-91833234D01*
X72711246Y-91814325D01*
X72699718Y-91792756D01*
X72692615Y-91769340D01*
X72690000Y-91742792D01*
X72690000Y-91357208D01*
X72692615Y-91330660D01*
X72699718Y-91307244D01*
X72711246Y-91285675D01*
X72726766Y-91266766D01*
X72745675Y-91251246D01*
X72767244Y-91239718D01*
X72790660Y-91232615D01*
X72817208Y-91230000D01*
X73152792Y-91230000D01*
X73179340Y-91232615D01*
X73179340Y-91232615D01*
G37*
G36*
X72209340Y-91232615D02*
X72232756Y-91239718D01*
X72254325Y-91251246D01*
X72273234Y-91266766D01*
X72288754Y-91285675D01*
X72300282Y-91307244D01*
X72307385Y-91330660D01*
X72310000Y-91357208D01*
X72310000Y-91742792D01*
X72307385Y-91769340D01*
X72300282Y-91792756D01*
X72288754Y-91814325D01*
X72273234Y-91833234D01*
X72254325Y-91848754D01*
X72232756Y-91860282D01*
X72209340Y-91867385D01*
X72182792Y-91870000D01*
X71847208Y-91870000D01*
X71820660Y-91867385D01*
X71797244Y-91860282D01*
X71775675Y-91848754D01*
X71756766Y-91833234D01*
X71741246Y-91814325D01*
X71729718Y-91792756D01*
X71722615Y-91769340D01*
X71720000Y-91742792D01*
X71720000Y-91357208D01*
X71722615Y-91330660D01*
X71729718Y-91307244D01*
X71741246Y-91285675D01*
X71756766Y-91266766D01*
X71775675Y-91251246D01*
X71797244Y-91239718D01*
X71820660Y-91232615D01*
X71847208Y-91230000D01*
X72182792Y-91230000D01*
X72209340Y-91232615D01*
X72209340Y-91232615D01*
G37*
G36*
X96219340Y-90292615D02*
X96242756Y-90299718D01*
X96264325Y-90311246D01*
X96283234Y-90326766D01*
X96298754Y-90345675D01*
X96310282Y-90367244D01*
X96317385Y-90390660D01*
X96320000Y-90417208D01*
X96320000Y-90752792D01*
X96317385Y-90779340D01*
X96310282Y-90802756D01*
X96298754Y-90824325D01*
X96283234Y-90843234D01*
X96264325Y-90858754D01*
X96242756Y-90870282D01*
X96219340Y-90877385D01*
X96192792Y-90880000D01*
X95807208Y-90880000D01*
X95780660Y-90877385D01*
X95757244Y-90870282D01*
X95735675Y-90858754D01*
X95716766Y-90843234D01*
X95701246Y-90824325D01*
X95689718Y-90802756D01*
X95682615Y-90779340D01*
X95680000Y-90752792D01*
X95680000Y-90417208D01*
X95682615Y-90390660D01*
X95689718Y-90367244D01*
X95701246Y-90345675D01*
X95716766Y-90326766D01*
X95735675Y-90311246D01*
X95757244Y-90299718D01*
X95780660Y-90292615D01*
X95807208Y-90290000D01*
X96192792Y-90290000D01*
X96219340Y-90292615D01*
X96219340Y-90292615D01*
G37*
G36*
X94819340Y-90292615D02*
X94842756Y-90299718D01*
X94864325Y-90311246D01*
X94883234Y-90326766D01*
X94898754Y-90345675D01*
X94910282Y-90367244D01*
X94917385Y-90390660D01*
X94920000Y-90417208D01*
X94920000Y-90752792D01*
X94917385Y-90779340D01*
X94910282Y-90802756D01*
X94898754Y-90824325D01*
X94883234Y-90843234D01*
X94864325Y-90858754D01*
X94842756Y-90870282D01*
X94819340Y-90877385D01*
X94792792Y-90880000D01*
X94407208Y-90880000D01*
X94380660Y-90877385D01*
X94357244Y-90870282D01*
X94335675Y-90858754D01*
X94316766Y-90843234D01*
X94301246Y-90824325D01*
X94289718Y-90802756D01*
X94282615Y-90779340D01*
X94280000Y-90752792D01*
X94280000Y-90417208D01*
X94282615Y-90390660D01*
X94289718Y-90367244D01*
X94301246Y-90345675D01*
X94316766Y-90326766D01*
X94335675Y-90311246D01*
X94357244Y-90299718D01*
X94380660Y-90292615D01*
X94407208Y-90290000D01*
X94792792Y-90290000D01*
X94819340Y-90292615D01*
X94819340Y-90292615D01*
G37*
G36*
X99719340Y-90292615D02*
X99742756Y-90299718D01*
X99764325Y-90311246D01*
X99783234Y-90326766D01*
X99798754Y-90345675D01*
X99810282Y-90367244D01*
X99817385Y-90390660D01*
X99820000Y-90417208D01*
X99820000Y-90752792D01*
X99817385Y-90779340D01*
X99810282Y-90802756D01*
X99798754Y-90824325D01*
X99783234Y-90843234D01*
X99764325Y-90858754D01*
X99742756Y-90870282D01*
X99719340Y-90877385D01*
X99692792Y-90880000D01*
X99307208Y-90880000D01*
X99280660Y-90877385D01*
X99257244Y-90870282D01*
X99235675Y-90858754D01*
X99216766Y-90843234D01*
X99201246Y-90824325D01*
X99189718Y-90802756D01*
X99182615Y-90779340D01*
X99180000Y-90752792D01*
X99180000Y-90417208D01*
X99182615Y-90390660D01*
X99189718Y-90367244D01*
X99201246Y-90345675D01*
X99216766Y-90326766D01*
X99235675Y-90311246D01*
X99257244Y-90299718D01*
X99280660Y-90292615D01*
X99307208Y-90290000D01*
X99692792Y-90290000D01*
X99719340Y-90292615D01*
X99719340Y-90292615D01*
G37*
G36*
X101119340Y-90292615D02*
X101142756Y-90299718D01*
X101164325Y-90311246D01*
X101183234Y-90326766D01*
X101198754Y-90345675D01*
X101210282Y-90367244D01*
X101217385Y-90390660D01*
X101220000Y-90417208D01*
X101220000Y-90752792D01*
X101217385Y-90779340D01*
X101210282Y-90802756D01*
X101198754Y-90824325D01*
X101183234Y-90843234D01*
X101164325Y-90858754D01*
X101142756Y-90870282D01*
X101119340Y-90877385D01*
X101092792Y-90880000D01*
X100707208Y-90880000D01*
X100680660Y-90877385D01*
X100657244Y-90870282D01*
X100635675Y-90858754D01*
X100616766Y-90843234D01*
X100601246Y-90824325D01*
X100589718Y-90802756D01*
X100582615Y-90779340D01*
X100580000Y-90752792D01*
X100580000Y-90417208D01*
X100582615Y-90390660D01*
X100589718Y-90367244D01*
X100601246Y-90345675D01*
X100616766Y-90326766D01*
X100635675Y-90311246D01*
X100657244Y-90299718D01*
X100680660Y-90292615D01*
X100707208Y-90290000D01*
X101092792Y-90290000D01*
X101119340Y-90292615D01*
X101119340Y-90292615D01*
G37*
G36*
X99719340Y-89322615D02*
X99742756Y-89329718D01*
X99764325Y-89341246D01*
X99783234Y-89356766D01*
X99798754Y-89375675D01*
X99810282Y-89397244D01*
X99817385Y-89420660D01*
X99820000Y-89447208D01*
X99820000Y-89782792D01*
X99817385Y-89809340D01*
X99810282Y-89832756D01*
X99798754Y-89854325D01*
X99783234Y-89873234D01*
X99764325Y-89888754D01*
X99742756Y-89900282D01*
X99719340Y-89907385D01*
X99692792Y-89910000D01*
X99307208Y-89910000D01*
X99280660Y-89907385D01*
X99257244Y-89900282D01*
X99235675Y-89888754D01*
X99216766Y-89873234D01*
X99201246Y-89854325D01*
X99189718Y-89832756D01*
X99182615Y-89809340D01*
X99180000Y-89782792D01*
X99180000Y-89447208D01*
X99182615Y-89420660D01*
X99189718Y-89397244D01*
X99201246Y-89375675D01*
X99216766Y-89356766D01*
X99235675Y-89341246D01*
X99257244Y-89329718D01*
X99280660Y-89322615D01*
X99307208Y-89320000D01*
X99692792Y-89320000D01*
X99719340Y-89322615D01*
X99719340Y-89322615D01*
G37*
G36*
X101119340Y-89322615D02*
X101142756Y-89329718D01*
X101164325Y-89341246D01*
X101183234Y-89356766D01*
X101198754Y-89375675D01*
X101210282Y-89397244D01*
X101217385Y-89420660D01*
X101220000Y-89447208D01*
X101220000Y-89782792D01*
X101217385Y-89809340D01*
X101210282Y-89832756D01*
X101198754Y-89854325D01*
X101183234Y-89873234D01*
X101164325Y-89888754D01*
X101142756Y-89900282D01*
X101119340Y-89907385D01*
X101092792Y-89910000D01*
X100707208Y-89910000D01*
X100680660Y-89907385D01*
X100657244Y-89900282D01*
X100635675Y-89888754D01*
X100616766Y-89873234D01*
X100601246Y-89854325D01*
X100589718Y-89832756D01*
X100582615Y-89809340D01*
X100580000Y-89782792D01*
X100580000Y-89447208D01*
X100582615Y-89420660D01*
X100589718Y-89397244D01*
X100601246Y-89375675D01*
X100616766Y-89356766D01*
X100635675Y-89341246D01*
X100657244Y-89329718D01*
X100680660Y-89322615D01*
X100707208Y-89320000D01*
X101092792Y-89320000D01*
X101119340Y-89322615D01*
X101119340Y-89322615D01*
G37*
G36*
X94819340Y-89322615D02*
X94842756Y-89329718D01*
X94864325Y-89341246D01*
X94883234Y-89356766D01*
X94898754Y-89375675D01*
X94910282Y-89397244D01*
X94917385Y-89420660D01*
X94920000Y-89447208D01*
X94920000Y-89782792D01*
X94917385Y-89809340D01*
X94910282Y-89832756D01*
X94898754Y-89854325D01*
X94883234Y-89873234D01*
X94864325Y-89888754D01*
X94842756Y-89900282D01*
X94819340Y-89907385D01*
X94792792Y-89910000D01*
X94407208Y-89910000D01*
X94380660Y-89907385D01*
X94357244Y-89900282D01*
X94335675Y-89888754D01*
X94316766Y-89873234D01*
X94301246Y-89854325D01*
X94289718Y-89832756D01*
X94282615Y-89809340D01*
X94280000Y-89782792D01*
X94280000Y-89447208D01*
X94282615Y-89420660D01*
X94289718Y-89397244D01*
X94301246Y-89375675D01*
X94316766Y-89356766D01*
X94335675Y-89341246D01*
X94357244Y-89329718D01*
X94380660Y-89322615D01*
X94407208Y-89320000D01*
X94792792Y-89320000D01*
X94819340Y-89322615D01*
X94819340Y-89322615D01*
G37*
G36*
X96219340Y-89322615D02*
X96242756Y-89329718D01*
X96264325Y-89341246D01*
X96283234Y-89356766D01*
X96298754Y-89375675D01*
X96310282Y-89397244D01*
X96317385Y-89420660D01*
X96320000Y-89447208D01*
X96320000Y-89782792D01*
X96317385Y-89809340D01*
X96310282Y-89832756D01*
X96298754Y-89854325D01*
X96283234Y-89873234D01*
X96264325Y-89888754D01*
X96242756Y-89900282D01*
X96219340Y-89907385D01*
X96192792Y-89910000D01*
X95807208Y-89910000D01*
X95780660Y-89907385D01*
X95757244Y-89900282D01*
X95735675Y-89888754D01*
X95716766Y-89873234D01*
X95701246Y-89854325D01*
X95689718Y-89832756D01*
X95682615Y-89809340D01*
X95680000Y-89782792D01*
X95680000Y-89447208D01*
X95682615Y-89420660D01*
X95689718Y-89397244D01*
X95701246Y-89375675D01*
X95716766Y-89356766D01*
X95735675Y-89341246D01*
X95757244Y-89329718D01*
X95780660Y-89322615D01*
X95807208Y-89320000D01*
X96192792Y-89320000D01*
X96219340Y-89322615D01*
X96219340Y-89322615D01*
G37*
G36*
X99719340Y-87892615D02*
X99742756Y-87899718D01*
X99764325Y-87911246D01*
X99783234Y-87926766D01*
X99798754Y-87945675D01*
X99810282Y-87967244D01*
X99817385Y-87990660D01*
X99820000Y-88017208D01*
X99820000Y-88352792D01*
X99817385Y-88379340D01*
X99810282Y-88402756D01*
X99798754Y-88424325D01*
X99783234Y-88443234D01*
X99764325Y-88458754D01*
X99742756Y-88470282D01*
X99719340Y-88477385D01*
X99692792Y-88480000D01*
X99307208Y-88480000D01*
X99280660Y-88477385D01*
X99257244Y-88470282D01*
X99235675Y-88458754D01*
X99216766Y-88443234D01*
X99201246Y-88424325D01*
X99189718Y-88402756D01*
X99182615Y-88379340D01*
X99180000Y-88352792D01*
X99180000Y-88017208D01*
X99182615Y-87990660D01*
X99189718Y-87967244D01*
X99201246Y-87945675D01*
X99216766Y-87926766D01*
X99235675Y-87911246D01*
X99257244Y-87899718D01*
X99280660Y-87892615D01*
X99307208Y-87890000D01*
X99692792Y-87890000D01*
X99719340Y-87892615D01*
X99719340Y-87892615D01*
G37*
G36*
X94819340Y-87892615D02*
X94842756Y-87899718D01*
X94864325Y-87911246D01*
X94883234Y-87926766D01*
X94898754Y-87945675D01*
X94910282Y-87967244D01*
X94917385Y-87990660D01*
X94920000Y-88017208D01*
X94920000Y-88352792D01*
X94917385Y-88379340D01*
X94910282Y-88402756D01*
X94898754Y-88424325D01*
X94883234Y-88443234D01*
X94864325Y-88458754D01*
X94842756Y-88470282D01*
X94819340Y-88477385D01*
X94792792Y-88480000D01*
X94407208Y-88480000D01*
X94380660Y-88477385D01*
X94357244Y-88470282D01*
X94335675Y-88458754D01*
X94316766Y-88443234D01*
X94301246Y-88424325D01*
X94289718Y-88402756D01*
X94282615Y-88379340D01*
X94280000Y-88352792D01*
X94280000Y-88017208D01*
X94282615Y-87990660D01*
X94289718Y-87967244D01*
X94301246Y-87945675D01*
X94316766Y-87926766D01*
X94335675Y-87911246D01*
X94357244Y-87899718D01*
X94380660Y-87892615D01*
X94407208Y-87890000D01*
X94792792Y-87890000D01*
X94819340Y-87892615D01*
X94819340Y-87892615D01*
G37*
G36*
X101119340Y-87892615D02*
X101142756Y-87899718D01*
X101164325Y-87911246D01*
X101183234Y-87926766D01*
X101198754Y-87945675D01*
X101210282Y-87967244D01*
X101217385Y-87990660D01*
X101220000Y-88017208D01*
X101220000Y-88352792D01*
X101217385Y-88379340D01*
X101210282Y-88402756D01*
X101198754Y-88424325D01*
X101183234Y-88443234D01*
X101164325Y-88458754D01*
X101142756Y-88470282D01*
X101119340Y-88477385D01*
X101092792Y-88480000D01*
X100707208Y-88480000D01*
X100680660Y-88477385D01*
X100657244Y-88470282D01*
X100635675Y-88458754D01*
X100616766Y-88443234D01*
X100601246Y-88424325D01*
X100589718Y-88402756D01*
X100582615Y-88379340D01*
X100580000Y-88352792D01*
X100580000Y-88017208D01*
X100582615Y-87990660D01*
X100589718Y-87967244D01*
X100601246Y-87945675D01*
X100616766Y-87926766D01*
X100635675Y-87911246D01*
X100657244Y-87899718D01*
X100680660Y-87892615D01*
X100707208Y-87890000D01*
X101092792Y-87890000D01*
X101119340Y-87892615D01*
X101119340Y-87892615D01*
G37*
G36*
X96219340Y-87877615D02*
X96242756Y-87884718D01*
X96264325Y-87896246D01*
X96283234Y-87911766D01*
X96298754Y-87930675D01*
X96310282Y-87952244D01*
X96317385Y-87975660D01*
X96320000Y-88002208D01*
X96320000Y-88337792D01*
X96317385Y-88364340D01*
X96310282Y-88387756D01*
X96298754Y-88409325D01*
X96283234Y-88428234D01*
X96264325Y-88443754D01*
X96242756Y-88455282D01*
X96219340Y-88462385D01*
X96192792Y-88465000D01*
X95807208Y-88465000D01*
X95780660Y-88462385D01*
X95757244Y-88455282D01*
X95735675Y-88443754D01*
X95716766Y-88428234D01*
X95701246Y-88409325D01*
X95689718Y-88387756D01*
X95682615Y-88364340D01*
X95680000Y-88337792D01*
X95680000Y-88002208D01*
X95682615Y-87975660D01*
X95689718Y-87952244D01*
X95701246Y-87930675D01*
X95716766Y-87911766D01*
X95735675Y-87896246D01*
X95757244Y-87884718D01*
X95780660Y-87877615D01*
X95807208Y-87875000D01*
X96192792Y-87875000D01*
X96219340Y-87877615D01*
X96219340Y-87877615D01*
G37*
G36*
X115518017Y-87107235D02*
X115612269Y-87135825D01*
X115699129Y-87182252D01*
X115775264Y-87244736D01*
X115837748Y-87320871D01*
X115884175Y-87407731D01*
X115912765Y-87501983D01*
X115922420Y-87600000D01*
X115912765Y-87698017D01*
X115884175Y-87792269D01*
X115837748Y-87879129D01*
X115775264Y-87955264D01*
X115699129Y-88017748D01*
X115612269Y-88064175D01*
X115518017Y-88092765D01*
X115444565Y-88100000D01*
X115395435Y-88100000D01*
X115321983Y-88092765D01*
X115227731Y-88064175D01*
X115140871Y-88017748D01*
X115064736Y-87955264D01*
X115002252Y-87879129D01*
X114955825Y-87792269D01*
X114927235Y-87698017D01*
X114917580Y-87600000D01*
X114927235Y-87501983D01*
X114955825Y-87407731D01*
X115002252Y-87320871D01*
X115064736Y-87244736D01*
X115140871Y-87182252D01*
X115227731Y-87135825D01*
X115321983Y-87107235D01*
X115395435Y-87100000D01*
X115444565Y-87100000D01*
X115518017Y-87107235D01*
X115518017Y-87107235D01*
G37*
G36*
X110438017Y-87107235D02*
X110532269Y-87135825D01*
X110619129Y-87182252D01*
X110695264Y-87244736D01*
X110757748Y-87320871D01*
X110804175Y-87407731D01*
X110832765Y-87501983D01*
X110842420Y-87600000D01*
X110832765Y-87698017D01*
X110804175Y-87792269D01*
X110757748Y-87879129D01*
X110695264Y-87955264D01*
X110619129Y-88017748D01*
X110532269Y-88064175D01*
X110438017Y-88092765D01*
X110364565Y-88100000D01*
X110315435Y-88100000D01*
X110241983Y-88092765D01*
X110147731Y-88064175D01*
X110060871Y-88017748D01*
X109984736Y-87955264D01*
X109922252Y-87879129D01*
X109875825Y-87792269D01*
X109847235Y-87698017D01*
X109837580Y-87600000D01*
X109847235Y-87501983D01*
X109875825Y-87407731D01*
X109922252Y-87320871D01*
X109984736Y-87244736D01*
X110060871Y-87182252D01*
X110147731Y-87135825D01*
X110241983Y-87107235D01*
X110315435Y-87100000D01*
X110364565Y-87100000D01*
X110438017Y-87107235D01*
X110438017Y-87107235D01*
G37*
G36*
X109168017Y-87107235D02*
X109262269Y-87135825D01*
X109349129Y-87182252D01*
X109425264Y-87244736D01*
X109487748Y-87320871D01*
X109534175Y-87407731D01*
X109562765Y-87501983D01*
X109572420Y-87600000D01*
X109562765Y-87698017D01*
X109534175Y-87792269D01*
X109487748Y-87879129D01*
X109425264Y-87955264D01*
X109349129Y-88017748D01*
X109262269Y-88064175D01*
X109168017Y-88092765D01*
X109094565Y-88100000D01*
X109045435Y-88100000D01*
X108971983Y-88092765D01*
X108877731Y-88064175D01*
X108790871Y-88017748D01*
X108714736Y-87955264D01*
X108652252Y-87879129D01*
X108605825Y-87792269D01*
X108577235Y-87698017D01*
X108567580Y-87600000D01*
X108577235Y-87501983D01*
X108605825Y-87407731D01*
X108652252Y-87320871D01*
X108714736Y-87244736D01*
X108790871Y-87182252D01*
X108877731Y-87135825D01*
X108971983Y-87107235D01*
X109045435Y-87100000D01*
X109094565Y-87100000D01*
X109168017Y-87107235D01*
X109168017Y-87107235D01*
G37*
G36*
X111708017Y-87107235D02*
X111802269Y-87135825D01*
X111889129Y-87182252D01*
X111965264Y-87244736D01*
X112027748Y-87320871D01*
X112074175Y-87407731D01*
X112102765Y-87501983D01*
X112112420Y-87600000D01*
X112102765Y-87698017D01*
X112074175Y-87792269D01*
X112027748Y-87879129D01*
X111965264Y-87955264D01*
X111889129Y-88017748D01*
X111802269Y-88064175D01*
X111708017Y-88092765D01*
X111634565Y-88100000D01*
X111585435Y-88100000D01*
X111511983Y-88092765D01*
X111417731Y-88064175D01*
X111330871Y-88017748D01*
X111254736Y-87955264D01*
X111192252Y-87879129D01*
X111145825Y-87792269D01*
X111117235Y-87698017D01*
X111107580Y-87600000D01*
X111117235Y-87501983D01*
X111145825Y-87407731D01*
X111192252Y-87320871D01*
X111254736Y-87244736D01*
X111330871Y-87182252D01*
X111417731Y-87135825D01*
X111511983Y-87107235D01*
X111585435Y-87100000D01*
X111634565Y-87100000D01*
X111708017Y-87107235D01*
X111708017Y-87107235D01*
G37*
G36*
X112978017Y-87107235D02*
X113072269Y-87135825D01*
X113159129Y-87182252D01*
X113235264Y-87244736D01*
X113297748Y-87320871D01*
X113344175Y-87407731D01*
X113372765Y-87501983D01*
X113382420Y-87600000D01*
X113372765Y-87698017D01*
X113344175Y-87792269D01*
X113297748Y-87879129D01*
X113235264Y-87955264D01*
X113159129Y-88017748D01*
X113072269Y-88064175D01*
X112978017Y-88092765D01*
X112904565Y-88100000D01*
X112855435Y-88100000D01*
X112781983Y-88092765D01*
X112687731Y-88064175D01*
X112600871Y-88017748D01*
X112524736Y-87955264D01*
X112462252Y-87879129D01*
X112415825Y-87792269D01*
X112387235Y-87698017D01*
X112377580Y-87600000D01*
X112387235Y-87501983D01*
X112415825Y-87407731D01*
X112462252Y-87320871D01*
X112524736Y-87244736D01*
X112600871Y-87182252D01*
X112687731Y-87135825D01*
X112781983Y-87107235D01*
X112855435Y-87100000D01*
X112904565Y-87100000D01*
X112978017Y-87107235D01*
X112978017Y-87107235D01*
G37*
G36*
X114248017Y-87107235D02*
X114342269Y-87135825D01*
X114429129Y-87182252D01*
X114505264Y-87244736D01*
X114567748Y-87320871D01*
X114614175Y-87407731D01*
X114642765Y-87501983D01*
X114652420Y-87600000D01*
X114642765Y-87698017D01*
X114614175Y-87792269D01*
X114567748Y-87879129D01*
X114505264Y-87955264D01*
X114429129Y-88017748D01*
X114342269Y-88064175D01*
X114248017Y-88092765D01*
X114174565Y-88100000D01*
X114125435Y-88100000D01*
X114051983Y-88092765D01*
X113957731Y-88064175D01*
X113870871Y-88017748D01*
X113794736Y-87955264D01*
X113732252Y-87879129D01*
X113685825Y-87792269D01*
X113657235Y-87698017D01*
X113647580Y-87600000D01*
X113657235Y-87501983D01*
X113685825Y-87407731D01*
X113732252Y-87320871D01*
X113794736Y-87244736D01*
X113870871Y-87182252D01*
X113957731Y-87135825D01*
X114051983Y-87107235D01*
X114125435Y-87100000D01*
X114174565Y-87100000D01*
X114248017Y-87107235D01*
X114248017Y-87107235D01*
G37*
G36*
X116788017Y-87107235D02*
X116882269Y-87135825D01*
X116969129Y-87182252D01*
X117045264Y-87244736D01*
X117107748Y-87320871D01*
X117154175Y-87407731D01*
X117182765Y-87501983D01*
X117192420Y-87600000D01*
X117182765Y-87698017D01*
X117154175Y-87792269D01*
X117107748Y-87879129D01*
X117045264Y-87955264D01*
X116969129Y-88017748D01*
X116882269Y-88064175D01*
X116788017Y-88092765D01*
X116714565Y-88100000D01*
X116665435Y-88100000D01*
X116591983Y-88092765D01*
X116497731Y-88064175D01*
X116410871Y-88017748D01*
X116334736Y-87955264D01*
X116272252Y-87879129D01*
X116225825Y-87792269D01*
X116197235Y-87698017D01*
X116187580Y-87600000D01*
X116197235Y-87501983D01*
X116225825Y-87407731D01*
X116272252Y-87320871D01*
X116334736Y-87244736D01*
X116410871Y-87182252D01*
X116497731Y-87135825D01*
X116591983Y-87107235D01*
X116665435Y-87100000D01*
X116714565Y-87100000D01*
X116788017Y-87107235D01*
X116788017Y-87107235D01*
G37*
G36*
X108300000Y-88100000D02*
X107300000Y-88100000D01*
X107300000Y-87100000D01*
X108300000Y-87100000D01*
X108300000Y-88100000D01*
X108300000Y-88100000D01*
G37*
G36*
X99719340Y-86922615D02*
X99742756Y-86929718D01*
X99764325Y-86941246D01*
X99783234Y-86956766D01*
X99798754Y-86975675D01*
X99810282Y-86997244D01*
X99817385Y-87020660D01*
X99820000Y-87047208D01*
X99820000Y-87382792D01*
X99817385Y-87409340D01*
X99810282Y-87432756D01*
X99798754Y-87454325D01*
X99783234Y-87473234D01*
X99764325Y-87488754D01*
X99742756Y-87500282D01*
X99719340Y-87507385D01*
X99692792Y-87510000D01*
X99307208Y-87510000D01*
X99280660Y-87507385D01*
X99257244Y-87500282D01*
X99235675Y-87488754D01*
X99216766Y-87473234D01*
X99201246Y-87454325D01*
X99189718Y-87432756D01*
X99182615Y-87409340D01*
X99180000Y-87382792D01*
X99180000Y-87047208D01*
X99182615Y-87020660D01*
X99189718Y-86997244D01*
X99201246Y-86975675D01*
X99216766Y-86956766D01*
X99235675Y-86941246D01*
X99257244Y-86929718D01*
X99280660Y-86922615D01*
X99307208Y-86920000D01*
X99692792Y-86920000D01*
X99719340Y-86922615D01*
X99719340Y-86922615D01*
G37*
G36*
X101119340Y-86922615D02*
X101142756Y-86929718D01*
X101164325Y-86941246D01*
X101183234Y-86956766D01*
X101198754Y-86975675D01*
X101210282Y-86997244D01*
X101217385Y-87020660D01*
X101220000Y-87047208D01*
X101220000Y-87382792D01*
X101217385Y-87409340D01*
X101210282Y-87432756D01*
X101198754Y-87454325D01*
X101183234Y-87473234D01*
X101164325Y-87488754D01*
X101142756Y-87500282D01*
X101119340Y-87507385D01*
X101092792Y-87510000D01*
X100707208Y-87510000D01*
X100680660Y-87507385D01*
X100657244Y-87500282D01*
X100635675Y-87488754D01*
X100616766Y-87473234D01*
X100601246Y-87454325D01*
X100589718Y-87432756D01*
X100582615Y-87409340D01*
X100580000Y-87382792D01*
X100580000Y-87047208D01*
X100582615Y-87020660D01*
X100589718Y-86997244D01*
X100601246Y-86975675D01*
X100616766Y-86956766D01*
X100635675Y-86941246D01*
X100657244Y-86929718D01*
X100680660Y-86922615D01*
X100707208Y-86920000D01*
X101092792Y-86920000D01*
X101119340Y-86922615D01*
X101119340Y-86922615D01*
G37*
G36*
X94819340Y-86922615D02*
X94842756Y-86929718D01*
X94864325Y-86941246D01*
X94883234Y-86956766D01*
X94898754Y-86975675D01*
X94910282Y-86997244D01*
X94917385Y-87020660D01*
X94920000Y-87047208D01*
X94920000Y-87382792D01*
X94917385Y-87409340D01*
X94910282Y-87432756D01*
X94898754Y-87454325D01*
X94883234Y-87473234D01*
X94864325Y-87488754D01*
X94842756Y-87500282D01*
X94819340Y-87507385D01*
X94792792Y-87510000D01*
X94407208Y-87510000D01*
X94380660Y-87507385D01*
X94357244Y-87500282D01*
X94335675Y-87488754D01*
X94316766Y-87473234D01*
X94301246Y-87454325D01*
X94289718Y-87432756D01*
X94282615Y-87409340D01*
X94280000Y-87382792D01*
X94280000Y-87047208D01*
X94282615Y-87020660D01*
X94289718Y-86997244D01*
X94301246Y-86975675D01*
X94316766Y-86956766D01*
X94335675Y-86941246D01*
X94357244Y-86929718D01*
X94380660Y-86922615D01*
X94407208Y-86920000D01*
X94792792Y-86920000D01*
X94819340Y-86922615D01*
X94819340Y-86922615D01*
G37*
G36*
X96219340Y-86907615D02*
X96242756Y-86914718D01*
X96264325Y-86926246D01*
X96283234Y-86941766D01*
X96298754Y-86960675D01*
X96310282Y-86982244D01*
X96317385Y-87005660D01*
X96320000Y-87032208D01*
X96320000Y-87367792D01*
X96317385Y-87394340D01*
X96310282Y-87417756D01*
X96298754Y-87439325D01*
X96283234Y-87458234D01*
X96264325Y-87473754D01*
X96242756Y-87485282D01*
X96219340Y-87492385D01*
X96192792Y-87495000D01*
X95807208Y-87495000D01*
X95780660Y-87492385D01*
X95757244Y-87485282D01*
X95735675Y-87473754D01*
X95716766Y-87458234D01*
X95701246Y-87439325D01*
X95689718Y-87417756D01*
X95682615Y-87394340D01*
X95680000Y-87367792D01*
X95680000Y-87032208D01*
X95682615Y-87005660D01*
X95689718Y-86982244D01*
X95701246Y-86960675D01*
X95716766Y-86941766D01*
X95735675Y-86926246D01*
X95757244Y-86914718D01*
X95780660Y-86907615D01*
X95807208Y-86905000D01*
X96192792Y-86905000D01*
X96219340Y-86907615D01*
X96219340Y-86907615D01*
G37*
G36*
X96219340Y-85492615D02*
X96242756Y-85499718D01*
X96264325Y-85511246D01*
X96283234Y-85526766D01*
X96298754Y-85545675D01*
X96310282Y-85567244D01*
X96317385Y-85590660D01*
X96320000Y-85617208D01*
X96320000Y-85952792D01*
X96317385Y-85979340D01*
X96310282Y-86002756D01*
X96298754Y-86024325D01*
X96283234Y-86043234D01*
X96264325Y-86058754D01*
X96242756Y-86070282D01*
X96219340Y-86077385D01*
X96192792Y-86080000D01*
X95807208Y-86080000D01*
X95780660Y-86077385D01*
X95757244Y-86070282D01*
X95735675Y-86058754D01*
X95716766Y-86043234D01*
X95701246Y-86024325D01*
X95689718Y-86002756D01*
X95682615Y-85979340D01*
X95680000Y-85952792D01*
X95680000Y-85617208D01*
X95682615Y-85590660D01*
X95689718Y-85567244D01*
X95701246Y-85545675D01*
X95716766Y-85526766D01*
X95735675Y-85511246D01*
X95757244Y-85499718D01*
X95780660Y-85492615D01*
X95807208Y-85490000D01*
X96192792Y-85490000D01*
X96219340Y-85492615D01*
X96219340Y-85492615D01*
G37*
G36*
X99719340Y-85492615D02*
X99742756Y-85499718D01*
X99764325Y-85511246D01*
X99783234Y-85526766D01*
X99798754Y-85545675D01*
X99810282Y-85567244D01*
X99817385Y-85590660D01*
X99820000Y-85617208D01*
X99820000Y-85952792D01*
X99817385Y-85979340D01*
X99810282Y-86002756D01*
X99798754Y-86024325D01*
X99783234Y-86043234D01*
X99764325Y-86058754D01*
X99742756Y-86070282D01*
X99719340Y-86077385D01*
X99692792Y-86080000D01*
X99307208Y-86080000D01*
X99280660Y-86077385D01*
X99257244Y-86070282D01*
X99235675Y-86058754D01*
X99216766Y-86043234D01*
X99201246Y-86024325D01*
X99189718Y-86002756D01*
X99182615Y-85979340D01*
X99180000Y-85952792D01*
X99180000Y-85617208D01*
X99182615Y-85590660D01*
X99189718Y-85567244D01*
X99201246Y-85545675D01*
X99216766Y-85526766D01*
X99235675Y-85511246D01*
X99257244Y-85499718D01*
X99280660Y-85492615D01*
X99307208Y-85490000D01*
X99692792Y-85490000D01*
X99719340Y-85492615D01*
X99719340Y-85492615D01*
G37*
G36*
X101119340Y-85492615D02*
X101142756Y-85499718D01*
X101164325Y-85511246D01*
X101183234Y-85526766D01*
X101198754Y-85545675D01*
X101210282Y-85567244D01*
X101217385Y-85590660D01*
X101220000Y-85617208D01*
X101220000Y-85952792D01*
X101217385Y-85979340D01*
X101210282Y-86002756D01*
X101198754Y-86024325D01*
X101183234Y-86043234D01*
X101164325Y-86058754D01*
X101142756Y-86070282D01*
X101119340Y-86077385D01*
X101092792Y-86080000D01*
X100707208Y-86080000D01*
X100680660Y-86077385D01*
X100657244Y-86070282D01*
X100635675Y-86058754D01*
X100616766Y-86043234D01*
X100601246Y-86024325D01*
X100589718Y-86002756D01*
X100582615Y-85979340D01*
X100580000Y-85952792D01*
X100580000Y-85617208D01*
X100582615Y-85590660D01*
X100589718Y-85567244D01*
X100601246Y-85545675D01*
X100616766Y-85526766D01*
X100635675Y-85511246D01*
X100657244Y-85499718D01*
X100680660Y-85492615D01*
X100707208Y-85490000D01*
X101092792Y-85490000D01*
X101119340Y-85492615D01*
X101119340Y-85492615D01*
G37*
G36*
X94819340Y-85492615D02*
X94842756Y-85499718D01*
X94864325Y-85511246D01*
X94883234Y-85526766D01*
X94898754Y-85545675D01*
X94910282Y-85567244D01*
X94917385Y-85590660D01*
X94920000Y-85617208D01*
X94920000Y-85952792D01*
X94917385Y-85979340D01*
X94910282Y-86002756D01*
X94898754Y-86024325D01*
X94883234Y-86043234D01*
X94864325Y-86058754D01*
X94842756Y-86070282D01*
X94819340Y-86077385D01*
X94792792Y-86080000D01*
X94407208Y-86080000D01*
X94380660Y-86077385D01*
X94357244Y-86070282D01*
X94335675Y-86058754D01*
X94316766Y-86043234D01*
X94301246Y-86024325D01*
X94289718Y-86002756D01*
X94282615Y-85979340D01*
X94280000Y-85952792D01*
X94280000Y-85617208D01*
X94282615Y-85590660D01*
X94289718Y-85567244D01*
X94301246Y-85545675D01*
X94316766Y-85526766D01*
X94335675Y-85511246D01*
X94357244Y-85499718D01*
X94380660Y-85492615D01*
X94407208Y-85490000D01*
X94792792Y-85490000D01*
X94819340Y-85492615D01*
X94819340Y-85492615D01*
G37*
G36*
X99719340Y-84522615D02*
X99742756Y-84529718D01*
X99764325Y-84541246D01*
X99783234Y-84556766D01*
X99798754Y-84575675D01*
X99810282Y-84597244D01*
X99817385Y-84620660D01*
X99820000Y-84647208D01*
X99820000Y-84982792D01*
X99817385Y-85009340D01*
X99810282Y-85032756D01*
X99798754Y-85054325D01*
X99783234Y-85073234D01*
X99764325Y-85088754D01*
X99742756Y-85100282D01*
X99719340Y-85107385D01*
X99692792Y-85110000D01*
X99307208Y-85110000D01*
X99280660Y-85107385D01*
X99257244Y-85100282D01*
X99235675Y-85088754D01*
X99216766Y-85073234D01*
X99201246Y-85054325D01*
X99189718Y-85032756D01*
X99182615Y-85009340D01*
X99180000Y-84982792D01*
X99180000Y-84647208D01*
X99182615Y-84620660D01*
X99189718Y-84597244D01*
X99201246Y-84575675D01*
X99216766Y-84556766D01*
X99235675Y-84541246D01*
X99257244Y-84529718D01*
X99280660Y-84522615D01*
X99307208Y-84520000D01*
X99692792Y-84520000D01*
X99719340Y-84522615D01*
X99719340Y-84522615D01*
G37*
G36*
X101119340Y-84522615D02*
X101142756Y-84529718D01*
X101164325Y-84541246D01*
X101183234Y-84556766D01*
X101198754Y-84575675D01*
X101210282Y-84597244D01*
X101217385Y-84620660D01*
X101220000Y-84647208D01*
X101220000Y-84982792D01*
X101217385Y-85009340D01*
X101210282Y-85032756D01*
X101198754Y-85054325D01*
X101183234Y-85073234D01*
X101164325Y-85088754D01*
X101142756Y-85100282D01*
X101119340Y-85107385D01*
X101092792Y-85110000D01*
X100707208Y-85110000D01*
X100680660Y-85107385D01*
X100657244Y-85100282D01*
X100635675Y-85088754D01*
X100616766Y-85073234D01*
X100601246Y-85054325D01*
X100589718Y-85032756D01*
X100582615Y-85009340D01*
X100580000Y-84982792D01*
X100580000Y-84647208D01*
X100582615Y-84620660D01*
X100589718Y-84597244D01*
X100601246Y-84575675D01*
X100616766Y-84556766D01*
X100635675Y-84541246D01*
X100657244Y-84529718D01*
X100680660Y-84522615D01*
X100707208Y-84520000D01*
X101092792Y-84520000D01*
X101119340Y-84522615D01*
X101119340Y-84522615D01*
G37*
G36*
X94819340Y-84522615D02*
X94842756Y-84529718D01*
X94864325Y-84541246D01*
X94883234Y-84556766D01*
X94898754Y-84575675D01*
X94910282Y-84597244D01*
X94917385Y-84620660D01*
X94920000Y-84647208D01*
X94920000Y-84982792D01*
X94917385Y-85009340D01*
X94910282Y-85032756D01*
X94898754Y-85054325D01*
X94883234Y-85073234D01*
X94864325Y-85088754D01*
X94842756Y-85100282D01*
X94819340Y-85107385D01*
X94792792Y-85110000D01*
X94407208Y-85110000D01*
X94380660Y-85107385D01*
X94357244Y-85100282D01*
X94335675Y-85088754D01*
X94316766Y-85073234D01*
X94301246Y-85054325D01*
X94289718Y-85032756D01*
X94282615Y-85009340D01*
X94280000Y-84982792D01*
X94280000Y-84647208D01*
X94282615Y-84620660D01*
X94289718Y-84597244D01*
X94301246Y-84575675D01*
X94316766Y-84556766D01*
X94335675Y-84541246D01*
X94357244Y-84529718D01*
X94380660Y-84522615D01*
X94407208Y-84520000D01*
X94792792Y-84520000D01*
X94819340Y-84522615D01*
X94819340Y-84522615D01*
G37*
G36*
X96219340Y-84522615D02*
X96242756Y-84529718D01*
X96264325Y-84541246D01*
X96283234Y-84556766D01*
X96298754Y-84575675D01*
X96310282Y-84597244D01*
X96317385Y-84620660D01*
X96320000Y-84647208D01*
X96320000Y-84982792D01*
X96317385Y-85009340D01*
X96310282Y-85032756D01*
X96298754Y-85054325D01*
X96283234Y-85073234D01*
X96264325Y-85088754D01*
X96242756Y-85100282D01*
X96219340Y-85107385D01*
X96192792Y-85110000D01*
X95807208Y-85110000D01*
X95780660Y-85107385D01*
X95757244Y-85100282D01*
X95735675Y-85088754D01*
X95716766Y-85073234D01*
X95701246Y-85054325D01*
X95689718Y-85032756D01*
X95682615Y-85009340D01*
X95680000Y-84982792D01*
X95680000Y-84647208D01*
X95682615Y-84620660D01*
X95689718Y-84597244D01*
X95701246Y-84575675D01*
X95716766Y-84556766D01*
X95735675Y-84541246D01*
X95757244Y-84529718D01*
X95780660Y-84522615D01*
X95807208Y-84520000D01*
X96192792Y-84520000D01*
X96219340Y-84522615D01*
X96219340Y-84522615D01*
G37*
G36*
X108300000Y-83000000D02*
X107300000Y-83000000D01*
X107300000Y-82000000D01*
X108300000Y-82000000D01*
X108300000Y-83000000D01*
X108300000Y-83000000D01*
G37*
G36*
X109168017Y-82007235D02*
X109262269Y-82035825D01*
X109349129Y-82082252D01*
X109425264Y-82144736D01*
X109487748Y-82220871D01*
X109534175Y-82307731D01*
X109562765Y-82401983D01*
X109572420Y-82500000D01*
X109562765Y-82598017D01*
X109534175Y-82692269D01*
X109487748Y-82779129D01*
X109425264Y-82855264D01*
X109349129Y-82917748D01*
X109262269Y-82964175D01*
X109168017Y-82992765D01*
X109094565Y-83000000D01*
X109045435Y-83000000D01*
X108971983Y-82992765D01*
X108877731Y-82964175D01*
X108790871Y-82917748D01*
X108714736Y-82855264D01*
X108652252Y-82779129D01*
X108605825Y-82692269D01*
X108577235Y-82598017D01*
X108567580Y-82500000D01*
X108577235Y-82401983D01*
X108605825Y-82307731D01*
X108652252Y-82220871D01*
X108714736Y-82144736D01*
X108790871Y-82082252D01*
X108877731Y-82035825D01*
X108971983Y-82007235D01*
X109045435Y-82000000D01*
X109094565Y-82000000D01*
X109168017Y-82007235D01*
X109168017Y-82007235D01*
G37*
G36*
X110438017Y-82007235D02*
X110532269Y-82035825D01*
X110619129Y-82082252D01*
X110695264Y-82144736D01*
X110757748Y-82220871D01*
X110804175Y-82307731D01*
X110832765Y-82401983D01*
X110842420Y-82500000D01*
X110832765Y-82598017D01*
X110804175Y-82692269D01*
X110757748Y-82779129D01*
X110695264Y-82855264D01*
X110619129Y-82917748D01*
X110532269Y-82964175D01*
X110438017Y-82992765D01*
X110364565Y-83000000D01*
X110315435Y-83000000D01*
X110241983Y-82992765D01*
X110147731Y-82964175D01*
X110060871Y-82917748D01*
X109984736Y-82855264D01*
X109922252Y-82779129D01*
X109875825Y-82692269D01*
X109847235Y-82598017D01*
X109837580Y-82500000D01*
X109847235Y-82401983D01*
X109875825Y-82307731D01*
X109922252Y-82220871D01*
X109984736Y-82144736D01*
X110060871Y-82082252D01*
X110147731Y-82035825D01*
X110241983Y-82007235D01*
X110315435Y-82000000D01*
X110364565Y-82000000D01*
X110438017Y-82007235D01*
X110438017Y-82007235D01*
G37*
G36*
X111708017Y-82007235D02*
X111802269Y-82035825D01*
X111889129Y-82082252D01*
X111965264Y-82144736D01*
X112027748Y-82220871D01*
X112074175Y-82307731D01*
X112102765Y-82401983D01*
X112112420Y-82500000D01*
X112102765Y-82598017D01*
X112074175Y-82692269D01*
X112027748Y-82779129D01*
X111965264Y-82855264D01*
X111889129Y-82917748D01*
X111802269Y-82964175D01*
X111708017Y-82992765D01*
X111634565Y-83000000D01*
X111585435Y-83000000D01*
X111511983Y-82992765D01*
X111417731Y-82964175D01*
X111330871Y-82917748D01*
X111254736Y-82855264D01*
X111192252Y-82779129D01*
X111145825Y-82692269D01*
X111117235Y-82598017D01*
X111107580Y-82500000D01*
X111117235Y-82401983D01*
X111145825Y-82307731D01*
X111192252Y-82220871D01*
X111254736Y-82144736D01*
X111330871Y-82082252D01*
X111417731Y-82035825D01*
X111511983Y-82007235D01*
X111585435Y-82000000D01*
X111634565Y-82000000D01*
X111708017Y-82007235D01*
X111708017Y-82007235D01*
G37*
G36*
X114248017Y-82007235D02*
X114342269Y-82035825D01*
X114429129Y-82082252D01*
X114505264Y-82144736D01*
X114567748Y-82220871D01*
X114614175Y-82307731D01*
X114642765Y-82401983D01*
X114652420Y-82500000D01*
X114642765Y-82598017D01*
X114614175Y-82692269D01*
X114567748Y-82779129D01*
X114505264Y-82855264D01*
X114429129Y-82917748D01*
X114342269Y-82964175D01*
X114248017Y-82992765D01*
X114174565Y-83000000D01*
X114125435Y-83000000D01*
X114051983Y-82992765D01*
X113957731Y-82964175D01*
X113870871Y-82917748D01*
X113794736Y-82855264D01*
X113732252Y-82779129D01*
X113685825Y-82692269D01*
X113657235Y-82598017D01*
X113647580Y-82500000D01*
X113657235Y-82401983D01*
X113685825Y-82307731D01*
X113732252Y-82220871D01*
X113794736Y-82144736D01*
X113870871Y-82082252D01*
X113957731Y-82035825D01*
X114051983Y-82007235D01*
X114125435Y-82000000D01*
X114174565Y-82000000D01*
X114248017Y-82007235D01*
X114248017Y-82007235D01*
G37*
G36*
X115518017Y-82007235D02*
X115612269Y-82035825D01*
X115699129Y-82082252D01*
X115775264Y-82144736D01*
X115837748Y-82220871D01*
X115884175Y-82307731D01*
X115912765Y-82401983D01*
X115922420Y-82500000D01*
X115912765Y-82598017D01*
X115884175Y-82692269D01*
X115837748Y-82779129D01*
X115775264Y-82855264D01*
X115699129Y-82917748D01*
X115612269Y-82964175D01*
X115518017Y-82992765D01*
X115444565Y-83000000D01*
X115395435Y-83000000D01*
X115321983Y-82992765D01*
X115227731Y-82964175D01*
X115140871Y-82917748D01*
X115064736Y-82855264D01*
X115002252Y-82779129D01*
X114955825Y-82692269D01*
X114927235Y-82598017D01*
X114917580Y-82500000D01*
X114927235Y-82401983D01*
X114955825Y-82307731D01*
X115002252Y-82220871D01*
X115064736Y-82144736D01*
X115140871Y-82082252D01*
X115227731Y-82035825D01*
X115321983Y-82007235D01*
X115395435Y-82000000D01*
X115444565Y-82000000D01*
X115518017Y-82007235D01*
X115518017Y-82007235D01*
G37*
G36*
X116788017Y-82007235D02*
X116882269Y-82035825D01*
X116969129Y-82082252D01*
X117045264Y-82144736D01*
X117107748Y-82220871D01*
X117154175Y-82307731D01*
X117182765Y-82401983D01*
X117192420Y-82500000D01*
X117182765Y-82598017D01*
X117154175Y-82692269D01*
X117107748Y-82779129D01*
X117045264Y-82855264D01*
X116969129Y-82917748D01*
X116882269Y-82964175D01*
X116788017Y-82992765D01*
X116714565Y-83000000D01*
X116665435Y-83000000D01*
X116591983Y-82992765D01*
X116497731Y-82964175D01*
X116410871Y-82917748D01*
X116334736Y-82855264D01*
X116272252Y-82779129D01*
X116225825Y-82692269D01*
X116197235Y-82598017D01*
X116187580Y-82500000D01*
X116197235Y-82401983D01*
X116225825Y-82307731D01*
X116272252Y-82220871D01*
X116334736Y-82144736D01*
X116410871Y-82082252D01*
X116497731Y-82035825D01*
X116591983Y-82007235D01*
X116665435Y-82000000D01*
X116714565Y-82000000D01*
X116788017Y-82007235D01*
X116788017Y-82007235D01*
G37*
G36*
X112978017Y-82007235D02*
X113072269Y-82035825D01*
X113159129Y-82082252D01*
X113235264Y-82144736D01*
X113297748Y-82220871D01*
X113344175Y-82307731D01*
X113372765Y-82401983D01*
X113382420Y-82500000D01*
X113372765Y-82598017D01*
X113344175Y-82692269D01*
X113297748Y-82779129D01*
X113235264Y-82855264D01*
X113159129Y-82917748D01*
X113072269Y-82964175D01*
X112978017Y-82992765D01*
X112904565Y-83000000D01*
X112855435Y-83000000D01*
X112781983Y-82992765D01*
X112687731Y-82964175D01*
X112600871Y-82917748D01*
X112524736Y-82855264D01*
X112462252Y-82779129D01*
X112415825Y-82692269D01*
X112387235Y-82598017D01*
X112377580Y-82500000D01*
X112387235Y-82401983D01*
X112415825Y-82307731D01*
X112462252Y-82220871D01*
X112524736Y-82144736D01*
X112600871Y-82082252D01*
X112687731Y-82035825D01*
X112781983Y-82007235D01*
X112855435Y-82000000D01*
X112904565Y-82000000D01*
X112978017Y-82007235D01*
X112978017Y-82007235D01*
G37*
G36*
X115599295Y-76918896D02*
X115762084Y-76968278D01*
X115912112Y-77048469D01*
X116043612Y-77156388D01*
X116151531Y-77287888D01*
X116151532Y-77287890D01*
X116231722Y-77437916D01*
X116281104Y-77600705D01*
X116297779Y-77770000D01*
X116281104Y-77939295D01*
X116231722Y-78102084D01*
X116151531Y-78252112D01*
X116043612Y-78383612D01*
X115912112Y-78491531D01*
X115912110Y-78491532D01*
X115762084Y-78571722D01*
X115599295Y-78621104D01*
X115472425Y-78633600D01*
X115387575Y-78633600D01*
X115260705Y-78621104D01*
X115097916Y-78571722D01*
X114947890Y-78491532D01*
X114947888Y-78491531D01*
X114816388Y-78383612D01*
X114708469Y-78252112D01*
X114628278Y-78102084D01*
X114578896Y-77939295D01*
X114562221Y-77770000D01*
X114578896Y-77600705D01*
X114628278Y-77437916D01*
X114708468Y-77287890D01*
X114708469Y-77287888D01*
X114816388Y-77156388D01*
X114947888Y-77048469D01*
X115097916Y-76968278D01*
X115260705Y-76918896D01*
X115387575Y-76906400D01*
X115472425Y-76906400D01*
X115599295Y-76918896D01*
X115599295Y-76918896D01*
G37*
G36*
X93433600Y-78633600D02*
X91706400Y-78633600D01*
X91706400Y-76906400D01*
X93433600Y-76906400D01*
X93433600Y-78633600D01*
X93433600Y-78633600D01*
G37*
G36*
X95279295Y-76918896D02*
X95442084Y-76968278D01*
X95592112Y-77048469D01*
X95723612Y-77156388D01*
X95831531Y-77287888D01*
X95831532Y-77287890D01*
X95911722Y-77437916D01*
X95961104Y-77600705D01*
X95977779Y-77770000D01*
X95961104Y-77939295D01*
X95911722Y-78102084D01*
X95831531Y-78252112D01*
X95723612Y-78383612D01*
X95592112Y-78491531D01*
X95592110Y-78491532D01*
X95442084Y-78571722D01*
X95279295Y-78621104D01*
X95152425Y-78633600D01*
X95067575Y-78633600D01*
X94940705Y-78621104D01*
X94777916Y-78571722D01*
X94627890Y-78491532D01*
X94627888Y-78491531D01*
X94496388Y-78383612D01*
X94388469Y-78252112D01*
X94308278Y-78102084D01*
X94258896Y-77939295D01*
X94242221Y-77770000D01*
X94258896Y-77600705D01*
X94308278Y-77437916D01*
X94388468Y-77287890D01*
X94388469Y-77287888D01*
X94496388Y-77156388D01*
X94627888Y-77048469D01*
X94777916Y-76968278D01*
X94940705Y-76918896D01*
X95067575Y-76906400D01*
X95152425Y-76906400D01*
X95279295Y-76918896D01*
X95279295Y-76918896D01*
G37*
G36*
X113059295Y-76918896D02*
X113222084Y-76968278D01*
X113372112Y-77048469D01*
X113503612Y-77156388D01*
X113611531Y-77287888D01*
X113611532Y-77287890D01*
X113691722Y-77437916D01*
X113741104Y-77600705D01*
X113757779Y-77770000D01*
X113741104Y-77939295D01*
X113691722Y-78102084D01*
X113611531Y-78252112D01*
X113503612Y-78383612D01*
X113372112Y-78491531D01*
X113372110Y-78491532D01*
X113222084Y-78571722D01*
X113059295Y-78621104D01*
X112932425Y-78633600D01*
X112847575Y-78633600D01*
X112720705Y-78621104D01*
X112557916Y-78571722D01*
X112407890Y-78491532D01*
X112407888Y-78491531D01*
X112276388Y-78383612D01*
X112168469Y-78252112D01*
X112088278Y-78102084D01*
X112038896Y-77939295D01*
X112022221Y-77770000D01*
X112038896Y-77600705D01*
X112088278Y-77437916D01*
X112168468Y-77287890D01*
X112168469Y-77287888D01*
X112276388Y-77156388D01*
X112407888Y-77048469D01*
X112557916Y-76968278D01*
X112720705Y-76918896D01*
X112847575Y-76906400D01*
X112932425Y-76906400D01*
X113059295Y-76918896D01*
X113059295Y-76918896D01*
G37*
G36*
X110519295Y-76918896D02*
X110682084Y-76968278D01*
X110832112Y-77048469D01*
X110963612Y-77156388D01*
X111071531Y-77287888D01*
X111071532Y-77287890D01*
X111151722Y-77437916D01*
X111201104Y-77600705D01*
X111217779Y-77770000D01*
X111201104Y-77939295D01*
X111151722Y-78102084D01*
X111071531Y-78252112D01*
X110963612Y-78383612D01*
X110832112Y-78491531D01*
X110832110Y-78491532D01*
X110682084Y-78571722D01*
X110519295Y-78621104D01*
X110392425Y-78633600D01*
X110307575Y-78633600D01*
X110180705Y-78621104D01*
X110017916Y-78571722D01*
X109867890Y-78491532D01*
X109867888Y-78491531D01*
X109736388Y-78383612D01*
X109628469Y-78252112D01*
X109548278Y-78102084D01*
X109498896Y-77939295D01*
X109482221Y-77770000D01*
X109498896Y-77600705D01*
X109548278Y-77437916D01*
X109628468Y-77287890D01*
X109628469Y-77287888D01*
X109736388Y-77156388D01*
X109867888Y-77048469D01*
X110017916Y-76968278D01*
X110180705Y-76918896D01*
X110307575Y-76906400D01*
X110392425Y-76906400D01*
X110519295Y-76918896D01*
X110519295Y-76918896D01*
G37*
G36*
X105439295Y-76918896D02*
X105602084Y-76968278D01*
X105752112Y-77048469D01*
X105883612Y-77156388D01*
X105991531Y-77287888D01*
X105991532Y-77287890D01*
X106071722Y-77437916D01*
X106121104Y-77600705D01*
X106137779Y-77770000D01*
X106121104Y-77939295D01*
X106071722Y-78102084D01*
X105991531Y-78252112D01*
X105883612Y-78383612D01*
X105752112Y-78491531D01*
X105752110Y-78491532D01*
X105602084Y-78571722D01*
X105439295Y-78621104D01*
X105312425Y-78633600D01*
X105227575Y-78633600D01*
X105100705Y-78621104D01*
X104937916Y-78571722D01*
X104787890Y-78491532D01*
X104787888Y-78491531D01*
X104656388Y-78383612D01*
X104548469Y-78252112D01*
X104468278Y-78102084D01*
X104418896Y-77939295D01*
X104402221Y-77770000D01*
X104418896Y-77600705D01*
X104468278Y-77437916D01*
X104548468Y-77287890D01*
X104548469Y-77287888D01*
X104656388Y-77156388D01*
X104787888Y-77048469D01*
X104937916Y-76968278D01*
X105100705Y-76918896D01*
X105227575Y-76906400D01*
X105312425Y-76906400D01*
X105439295Y-76918896D01*
X105439295Y-76918896D01*
G37*
G36*
X102899295Y-76918896D02*
X103062084Y-76968278D01*
X103212112Y-77048469D01*
X103343612Y-77156388D01*
X103451531Y-77287888D01*
X103451532Y-77287890D01*
X103531722Y-77437916D01*
X103581104Y-77600705D01*
X103597779Y-77770000D01*
X103581104Y-77939295D01*
X103531722Y-78102084D01*
X103451531Y-78252112D01*
X103343612Y-78383612D01*
X103212112Y-78491531D01*
X103212110Y-78491532D01*
X103062084Y-78571722D01*
X102899295Y-78621104D01*
X102772425Y-78633600D01*
X102687575Y-78633600D01*
X102560705Y-78621104D01*
X102397916Y-78571722D01*
X102247890Y-78491532D01*
X102247888Y-78491531D01*
X102116388Y-78383612D01*
X102008469Y-78252112D01*
X101928278Y-78102084D01*
X101878896Y-77939295D01*
X101862221Y-77770000D01*
X101878896Y-77600705D01*
X101928278Y-77437916D01*
X102008468Y-77287890D01*
X102008469Y-77287888D01*
X102116388Y-77156388D01*
X102247888Y-77048469D01*
X102397916Y-76968278D01*
X102560705Y-76918896D01*
X102687575Y-76906400D01*
X102772425Y-76906400D01*
X102899295Y-76918896D01*
X102899295Y-76918896D01*
G37*
G36*
X97819295Y-76918896D02*
X97982084Y-76968278D01*
X98132112Y-77048469D01*
X98263612Y-77156388D01*
X98371531Y-77287888D01*
X98371532Y-77287890D01*
X98451722Y-77437916D01*
X98501104Y-77600705D01*
X98517779Y-77770000D01*
X98501104Y-77939295D01*
X98451722Y-78102084D01*
X98371531Y-78252112D01*
X98263612Y-78383612D01*
X98132112Y-78491531D01*
X98132110Y-78491532D01*
X97982084Y-78571722D01*
X97819295Y-78621104D01*
X97692425Y-78633600D01*
X97607575Y-78633600D01*
X97480705Y-78621104D01*
X97317916Y-78571722D01*
X97167890Y-78491532D01*
X97167888Y-78491531D01*
X97036388Y-78383612D01*
X96928469Y-78252112D01*
X96848278Y-78102084D01*
X96798896Y-77939295D01*
X96782221Y-77770000D01*
X96798896Y-77600705D01*
X96848278Y-77437916D01*
X96928468Y-77287890D01*
X96928469Y-77287888D01*
X97036388Y-77156388D01*
X97167888Y-77048469D01*
X97317916Y-76968278D01*
X97480705Y-76918896D01*
X97607575Y-76906400D01*
X97692425Y-76906400D01*
X97819295Y-76918896D01*
X97819295Y-76918896D01*
G37*
G36*
X100359295Y-76918896D02*
X100522084Y-76968278D01*
X100672112Y-77048469D01*
X100803612Y-77156388D01*
X100911531Y-77287888D01*
X100911532Y-77287890D01*
X100991722Y-77437916D01*
X101041104Y-77600705D01*
X101057779Y-77770000D01*
X101041104Y-77939295D01*
X100991722Y-78102084D01*
X100911531Y-78252112D01*
X100803612Y-78383612D01*
X100672112Y-78491531D01*
X100672110Y-78491532D01*
X100522084Y-78571722D01*
X100359295Y-78621104D01*
X100232425Y-78633600D01*
X100147575Y-78633600D01*
X100020705Y-78621104D01*
X99857916Y-78571722D01*
X99707890Y-78491532D01*
X99707888Y-78491531D01*
X99576388Y-78383612D01*
X99468469Y-78252112D01*
X99388278Y-78102084D01*
X99338896Y-77939295D01*
X99322221Y-77770000D01*
X99338896Y-77600705D01*
X99388278Y-77437916D01*
X99468468Y-77287890D01*
X99468469Y-77287888D01*
X99576388Y-77156388D01*
X99707888Y-77048469D01*
X99857916Y-76968278D01*
X100020705Y-76918896D01*
X100147575Y-76906400D01*
X100232425Y-76906400D01*
X100359295Y-76918896D01*
X100359295Y-76918896D01*
G37*
G36*
X107979295Y-76918896D02*
X108142084Y-76968278D01*
X108292112Y-77048469D01*
X108423612Y-77156388D01*
X108531531Y-77287888D01*
X108531532Y-77287890D01*
X108611722Y-77437916D01*
X108661104Y-77600705D01*
X108677779Y-77770000D01*
X108661104Y-77939295D01*
X108611722Y-78102084D01*
X108531531Y-78252112D01*
X108423612Y-78383612D01*
X108292112Y-78491531D01*
X108292110Y-78491532D01*
X108142084Y-78571722D01*
X107979295Y-78621104D01*
X107852425Y-78633600D01*
X107767575Y-78633600D01*
X107640705Y-78621104D01*
X107477916Y-78571722D01*
X107327890Y-78491532D01*
X107327888Y-78491531D01*
X107196388Y-78383612D01*
X107088469Y-78252112D01*
X107008278Y-78102084D01*
X106958896Y-77939295D01*
X106942221Y-77770000D01*
X106958896Y-77600705D01*
X107008278Y-77437916D01*
X107088468Y-77287890D01*
X107088469Y-77287888D01*
X107196388Y-77156388D01*
X107327888Y-77048469D01*
X107477916Y-76968278D01*
X107640705Y-76918896D01*
X107767575Y-76906400D01*
X107852425Y-76906400D01*
X107979295Y-76918896D01*
X107979295Y-76918896D01*
G37*
G36*
X54933402Y-71922974D02*
X54933404Y-71922975D01*
X54933405Y-71922975D01*
X55468799Y-72144742D01*
X55515770Y-72164198D01*
X56039880Y-72514397D01*
X56485603Y-72960120D01*
X56835802Y-73484230D01*
X57077026Y-74066598D01*
X57200000Y-74684825D01*
X57200000Y-75315175D01*
X57094886Y-75843612D01*
X57077025Y-75933405D01*
X57036301Y-76031722D01*
X56835802Y-76515770D01*
X56485603Y-77039880D01*
X56039880Y-77485603D01*
X55515770Y-77835802D01*
X55515769Y-77835803D01*
X55515768Y-77835803D01*
X54933405Y-78077025D01*
X54933404Y-78077025D01*
X54933402Y-78077026D01*
X54315175Y-78200000D01*
X53684825Y-78200000D01*
X53066598Y-78077026D01*
X53066596Y-78077025D01*
X53066595Y-78077025D01*
X52484232Y-77835803D01*
X52484231Y-77835803D01*
X52484230Y-77835802D01*
X51960120Y-77485603D01*
X51514397Y-77039880D01*
X51164198Y-76515770D01*
X50963699Y-76031722D01*
X50922975Y-75933405D01*
X50905114Y-75843612D01*
X50800000Y-75315175D01*
X50800000Y-74684825D01*
X50922974Y-74066598D01*
X51164198Y-73484230D01*
X51514397Y-72960120D01*
X51960120Y-72514397D01*
X52484230Y-72164198D01*
X52531201Y-72144742D01*
X53066595Y-71922975D01*
X53066596Y-71922975D01*
X53066598Y-71922974D01*
X53684825Y-71800000D01*
X54315175Y-71800000D01*
X54933402Y-71922974D01*
X54933402Y-71922974D01*
G37*
G36*
X126933402Y-71922974D02*
X126933404Y-71922975D01*
X126933405Y-71922975D01*
X127468799Y-72144742D01*
X127515770Y-72164198D01*
X128039880Y-72514397D01*
X128485603Y-72960120D01*
X128835802Y-73484230D01*
X129077026Y-74066598D01*
X129200000Y-74684825D01*
X129200000Y-75315175D01*
X129094886Y-75843612D01*
X129077025Y-75933405D01*
X129036301Y-76031722D01*
X128835802Y-76515770D01*
X128485603Y-77039880D01*
X128039880Y-77485603D01*
X127515770Y-77835802D01*
X127515769Y-77835803D01*
X127515768Y-77835803D01*
X126933405Y-78077025D01*
X126933404Y-78077025D01*
X126933402Y-78077026D01*
X126315175Y-78200000D01*
X125684825Y-78200000D01*
X125066598Y-78077026D01*
X125066596Y-78077025D01*
X125066595Y-78077025D01*
X124484232Y-77835803D01*
X124484231Y-77835803D01*
X124484230Y-77835802D01*
X123960120Y-77485603D01*
X123514397Y-77039880D01*
X123164198Y-76515770D01*
X122963699Y-76031722D01*
X122922975Y-75933405D01*
X122905114Y-75843612D01*
X122800000Y-75315175D01*
X122800000Y-74684825D01*
X122922974Y-74066598D01*
X123164198Y-73484230D01*
X123514397Y-72960120D01*
X123960120Y-72514397D01*
X124484230Y-72164198D01*
X124531201Y-72144742D01*
X125066595Y-71922975D01*
X125066596Y-71922975D01*
X125066598Y-71922974D01*
X125684825Y-71800000D01*
X126315175Y-71800000D01*
X126933402Y-71922974D01*
X126933402Y-71922974D01*
G37*
G36*
X92739295Y-74378896D02*
X92902084Y-74428278D01*
X93052112Y-74508469D01*
X93183612Y-74616388D01*
X93291531Y-74747888D01*
X93291532Y-74747890D01*
X93371722Y-74897916D01*
X93421104Y-75060705D01*
X93437779Y-75230000D01*
X93421104Y-75399295D01*
X93371722Y-75562084D01*
X93291531Y-75712112D01*
X93183612Y-75843612D01*
X93052112Y-75951531D01*
X93052110Y-75951532D01*
X92902084Y-76031722D01*
X92739295Y-76081104D01*
X92612425Y-76093600D01*
X92527575Y-76093600D01*
X92400705Y-76081104D01*
X92237916Y-76031722D01*
X92087890Y-75951532D01*
X92087888Y-75951531D01*
X91956388Y-75843612D01*
X91848469Y-75712112D01*
X91768278Y-75562084D01*
X91718896Y-75399295D01*
X91702221Y-75230000D01*
X91718896Y-75060705D01*
X91768278Y-74897916D01*
X91848468Y-74747890D01*
X91848469Y-74747888D01*
X91956388Y-74616388D01*
X92087888Y-74508469D01*
X92237916Y-74428278D01*
X92400705Y-74378896D01*
X92527575Y-74366400D01*
X92612425Y-74366400D01*
X92739295Y-74378896D01*
X92739295Y-74378896D01*
G37*
G36*
X102899295Y-74378896D02*
X103062084Y-74428278D01*
X103212112Y-74508469D01*
X103343612Y-74616388D01*
X103451531Y-74747888D01*
X103451532Y-74747890D01*
X103531722Y-74897916D01*
X103581104Y-75060705D01*
X103597779Y-75230000D01*
X103581104Y-75399295D01*
X103531722Y-75562084D01*
X103451531Y-75712112D01*
X103343612Y-75843612D01*
X103212112Y-75951531D01*
X103212110Y-75951532D01*
X103062084Y-76031722D01*
X102899295Y-76081104D01*
X102772425Y-76093600D01*
X102687575Y-76093600D01*
X102560705Y-76081104D01*
X102397916Y-76031722D01*
X102247890Y-75951532D01*
X102247888Y-75951531D01*
X102116388Y-75843612D01*
X102008469Y-75712112D01*
X101928278Y-75562084D01*
X101878896Y-75399295D01*
X101862221Y-75230000D01*
X101878896Y-75060705D01*
X101928278Y-74897916D01*
X102008468Y-74747890D01*
X102008469Y-74747888D01*
X102116388Y-74616388D01*
X102247888Y-74508469D01*
X102397916Y-74428278D01*
X102560705Y-74378896D01*
X102687575Y-74366400D01*
X102772425Y-74366400D01*
X102899295Y-74378896D01*
X102899295Y-74378896D01*
G37*
G36*
X115599295Y-74378896D02*
X115762084Y-74428278D01*
X115912112Y-74508469D01*
X116043612Y-74616388D01*
X116151531Y-74747888D01*
X116151532Y-74747890D01*
X116231722Y-74897916D01*
X116281104Y-75060705D01*
X116297779Y-75230000D01*
X116281104Y-75399295D01*
X116231722Y-75562084D01*
X116151531Y-75712112D01*
X116043612Y-75843612D01*
X115912112Y-75951531D01*
X115912110Y-75951532D01*
X115762084Y-76031722D01*
X115599295Y-76081104D01*
X115472425Y-76093600D01*
X115387575Y-76093600D01*
X115260705Y-76081104D01*
X115097916Y-76031722D01*
X114947890Y-75951532D01*
X114947888Y-75951531D01*
X114816388Y-75843612D01*
X114708469Y-75712112D01*
X114628278Y-75562084D01*
X114578896Y-75399295D01*
X114562221Y-75230000D01*
X114578896Y-75060705D01*
X114628278Y-74897916D01*
X114708468Y-74747890D01*
X114708469Y-74747888D01*
X114816388Y-74616388D01*
X114947888Y-74508469D01*
X115097916Y-74428278D01*
X115260705Y-74378896D01*
X115387575Y-74366400D01*
X115472425Y-74366400D01*
X115599295Y-74378896D01*
X115599295Y-74378896D01*
G37*
G36*
X113059295Y-74378896D02*
X113222084Y-74428278D01*
X113372112Y-74508469D01*
X113503612Y-74616388D01*
X113611531Y-74747888D01*
X113611532Y-74747890D01*
X113691722Y-74897916D01*
X113741104Y-75060705D01*
X113757779Y-75230000D01*
X113741104Y-75399295D01*
X113691722Y-75562084D01*
X113611531Y-75712112D01*
X113503612Y-75843612D01*
X113372112Y-75951531D01*
X113372110Y-75951532D01*
X113222084Y-76031722D01*
X113059295Y-76081104D01*
X112932425Y-76093600D01*
X112847575Y-76093600D01*
X112720705Y-76081104D01*
X112557916Y-76031722D01*
X112407890Y-75951532D01*
X112407888Y-75951531D01*
X112276388Y-75843612D01*
X112168469Y-75712112D01*
X112088278Y-75562084D01*
X112038896Y-75399295D01*
X112022221Y-75230000D01*
X112038896Y-75060705D01*
X112088278Y-74897916D01*
X112168468Y-74747890D01*
X112168469Y-74747888D01*
X112276388Y-74616388D01*
X112407888Y-74508469D01*
X112557916Y-74428278D01*
X112720705Y-74378896D01*
X112847575Y-74366400D01*
X112932425Y-74366400D01*
X113059295Y-74378896D01*
X113059295Y-74378896D01*
G37*
G36*
X110519295Y-74378896D02*
X110682084Y-74428278D01*
X110832112Y-74508469D01*
X110963612Y-74616388D01*
X111071531Y-74747888D01*
X111071532Y-74747890D01*
X111151722Y-74897916D01*
X111201104Y-75060705D01*
X111217779Y-75230000D01*
X111201104Y-75399295D01*
X111151722Y-75562084D01*
X111071531Y-75712112D01*
X110963612Y-75843612D01*
X110832112Y-75951531D01*
X110832110Y-75951532D01*
X110682084Y-76031722D01*
X110519295Y-76081104D01*
X110392425Y-76093600D01*
X110307575Y-76093600D01*
X110180705Y-76081104D01*
X110017916Y-76031722D01*
X109867890Y-75951532D01*
X109867888Y-75951531D01*
X109736388Y-75843612D01*
X109628469Y-75712112D01*
X109548278Y-75562084D01*
X109498896Y-75399295D01*
X109482221Y-75230000D01*
X109498896Y-75060705D01*
X109548278Y-74897916D01*
X109628468Y-74747890D01*
X109628469Y-74747888D01*
X109736388Y-74616388D01*
X109867888Y-74508469D01*
X110017916Y-74428278D01*
X110180705Y-74378896D01*
X110307575Y-74366400D01*
X110392425Y-74366400D01*
X110519295Y-74378896D01*
X110519295Y-74378896D01*
G37*
G36*
X107979295Y-74378896D02*
X108142084Y-74428278D01*
X108292112Y-74508469D01*
X108423612Y-74616388D01*
X108531531Y-74747888D01*
X108531532Y-74747890D01*
X108611722Y-74897916D01*
X108661104Y-75060705D01*
X108677779Y-75230000D01*
X108661104Y-75399295D01*
X108611722Y-75562084D01*
X108531531Y-75712112D01*
X108423612Y-75843612D01*
X108292112Y-75951531D01*
X108292110Y-75951532D01*
X108142084Y-76031722D01*
X107979295Y-76081104D01*
X107852425Y-76093600D01*
X107767575Y-76093600D01*
X107640705Y-76081104D01*
X107477916Y-76031722D01*
X107327890Y-75951532D01*
X107327888Y-75951531D01*
X107196388Y-75843612D01*
X107088469Y-75712112D01*
X107008278Y-75562084D01*
X106958896Y-75399295D01*
X106942221Y-75230000D01*
X106958896Y-75060705D01*
X107008278Y-74897916D01*
X107088468Y-74747890D01*
X107088469Y-74747888D01*
X107196388Y-74616388D01*
X107327888Y-74508469D01*
X107477916Y-74428278D01*
X107640705Y-74378896D01*
X107767575Y-74366400D01*
X107852425Y-74366400D01*
X107979295Y-74378896D01*
X107979295Y-74378896D01*
G37*
G36*
X105439295Y-74378896D02*
X105602084Y-74428278D01*
X105752112Y-74508469D01*
X105883612Y-74616388D01*
X105991531Y-74747888D01*
X105991532Y-74747890D01*
X106071722Y-74897916D01*
X106121104Y-75060705D01*
X106137779Y-75230000D01*
X106121104Y-75399295D01*
X106071722Y-75562084D01*
X105991531Y-75712112D01*
X105883612Y-75843612D01*
X105752112Y-75951531D01*
X105752110Y-75951532D01*
X105602084Y-76031722D01*
X105439295Y-76081104D01*
X105312425Y-76093600D01*
X105227575Y-76093600D01*
X105100705Y-76081104D01*
X104937916Y-76031722D01*
X104787890Y-75951532D01*
X104787888Y-75951531D01*
X104656388Y-75843612D01*
X104548469Y-75712112D01*
X104468278Y-75562084D01*
X104418896Y-75399295D01*
X104402221Y-75230000D01*
X104418896Y-75060705D01*
X104468278Y-74897916D01*
X104548468Y-74747890D01*
X104548469Y-74747888D01*
X104656388Y-74616388D01*
X104787888Y-74508469D01*
X104937916Y-74428278D01*
X105100705Y-74378896D01*
X105227575Y-74366400D01*
X105312425Y-74366400D01*
X105439295Y-74378896D01*
X105439295Y-74378896D01*
G37*
G36*
X100359295Y-74378896D02*
X100522084Y-74428278D01*
X100672112Y-74508469D01*
X100803612Y-74616388D01*
X100911531Y-74747888D01*
X100911532Y-74747890D01*
X100991722Y-74897916D01*
X101041104Y-75060705D01*
X101057779Y-75230000D01*
X101041104Y-75399295D01*
X100991722Y-75562084D01*
X100911531Y-75712112D01*
X100803612Y-75843612D01*
X100672112Y-75951531D01*
X100672110Y-75951532D01*
X100522084Y-76031722D01*
X100359295Y-76081104D01*
X100232425Y-76093600D01*
X100147575Y-76093600D01*
X100020705Y-76081104D01*
X99857916Y-76031722D01*
X99707890Y-75951532D01*
X99707888Y-75951531D01*
X99576388Y-75843612D01*
X99468469Y-75712112D01*
X99388278Y-75562084D01*
X99338896Y-75399295D01*
X99322221Y-75230000D01*
X99338896Y-75060705D01*
X99388278Y-74897916D01*
X99468468Y-74747890D01*
X99468469Y-74747888D01*
X99576388Y-74616388D01*
X99707888Y-74508469D01*
X99857916Y-74428278D01*
X100020705Y-74378896D01*
X100147575Y-74366400D01*
X100232425Y-74366400D01*
X100359295Y-74378896D01*
X100359295Y-74378896D01*
G37*
G36*
X95279295Y-74378896D02*
X95442084Y-74428278D01*
X95592112Y-74508469D01*
X95723612Y-74616388D01*
X95831531Y-74747888D01*
X95831532Y-74747890D01*
X95911722Y-74897916D01*
X95961104Y-75060705D01*
X95977779Y-75230000D01*
X95961104Y-75399295D01*
X95911722Y-75562084D01*
X95831531Y-75712112D01*
X95723612Y-75843612D01*
X95592112Y-75951531D01*
X95592110Y-75951532D01*
X95442084Y-76031722D01*
X95279295Y-76081104D01*
X95152425Y-76093600D01*
X95067575Y-76093600D01*
X94940705Y-76081104D01*
X94777916Y-76031722D01*
X94627890Y-75951532D01*
X94627888Y-75951531D01*
X94496388Y-75843612D01*
X94388469Y-75712112D01*
X94308278Y-75562084D01*
X94258896Y-75399295D01*
X94242221Y-75230000D01*
X94258896Y-75060705D01*
X94308278Y-74897916D01*
X94388468Y-74747890D01*
X94388469Y-74747888D01*
X94496388Y-74616388D01*
X94627888Y-74508469D01*
X94777916Y-74428278D01*
X94940705Y-74378896D01*
X95067575Y-74366400D01*
X95152425Y-74366400D01*
X95279295Y-74378896D01*
X95279295Y-74378896D01*
G37*
G36*
X97819295Y-74378896D02*
X97982084Y-74428278D01*
X98132112Y-74508469D01*
X98263612Y-74616388D01*
X98371531Y-74747888D01*
X98371532Y-74747890D01*
X98451722Y-74897916D01*
X98501104Y-75060705D01*
X98517779Y-75230000D01*
X98501104Y-75399295D01*
X98451722Y-75562084D01*
X98371531Y-75712112D01*
X98263612Y-75843612D01*
X98132112Y-75951531D01*
X98132110Y-75951532D01*
X97982084Y-76031722D01*
X97819295Y-76081104D01*
X97692425Y-76093600D01*
X97607575Y-76093600D01*
X97480705Y-76081104D01*
X97317916Y-76031722D01*
X97167890Y-75951532D01*
X97167888Y-75951531D01*
X97036388Y-75843612D01*
X96928469Y-75712112D01*
X96848278Y-75562084D01*
X96798896Y-75399295D01*
X96782221Y-75230000D01*
X96798896Y-75060705D01*
X96848278Y-74897916D01*
X96928468Y-74747890D01*
X96928469Y-74747888D01*
X97036388Y-74616388D01*
X97167888Y-74508469D01*
X97317916Y-74428278D01*
X97480705Y-74378896D01*
X97607575Y-74366400D01*
X97692425Y-74366400D01*
X97819295Y-74378896D01*
X97819295Y-74378896D01*
G37*
G36*
X122218763Y-71778821D02*
X122218764Y-71778821D01*
X122218767Y-71778822D01*
X122355258Y-71835359D01*
X122355260Y-71835360D01*
X122478096Y-71917436D01*
X122582563Y-72021903D01*
X122664641Y-72144742D01*
X122721178Y-72281233D01*
X122750000Y-72426131D01*
X122750000Y-72573869D01*
X122721178Y-72718767D01*
X122664641Y-72855258D01*
X122664640Y-72855260D01*
X122582564Y-72978096D01*
X122478096Y-73082564D01*
X122355260Y-73164640D01*
X122355259Y-73164641D01*
X122355258Y-73164641D01*
X122218767Y-73221178D01*
X122218764Y-73221179D01*
X122218763Y-73221179D01*
X122073871Y-73250000D01*
X121926129Y-73250000D01*
X121781237Y-73221179D01*
X121781236Y-73221179D01*
X121781233Y-73221178D01*
X121644742Y-73164641D01*
X121644741Y-73164641D01*
X121644740Y-73164640D01*
X121521904Y-73082564D01*
X121417436Y-72978096D01*
X121335360Y-72855260D01*
X121335359Y-72855258D01*
X121278822Y-72718767D01*
X121250000Y-72573869D01*
X121250000Y-72426131D01*
X121278822Y-72281233D01*
X121335359Y-72144742D01*
X121417437Y-72021903D01*
X121521904Y-71917436D01*
X121644740Y-71835360D01*
X121644742Y-71835359D01*
X121781233Y-71778822D01*
X121781236Y-71778821D01*
X121781237Y-71778821D01*
X121926129Y-71750000D01*
X122073871Y-71750000D01*
X122218763Y-71778821D01*
X122218763Y-71778821D01*
G37*
M02*
