M48
;DRILL file {KiCad 5.0.1} date 2019-03-29T02:44:53 JST
;FORMAT={-:-/ absolute / metric / decimal}
FMAT,2
METRIC,TZ
T1C0.300
T2C0.650
T3C0.700
T4C1.000
T5C1.016
T6C3.200
%
G90
G05
M71
T1
X55.65Y-81.25
X55.65Y-83.
X55.65Y-84.75
X55.65Y-86.5
X55.65Y-88.25
X55.65Y-102.75
X55.65Y-104.5
X55.65Y-106.25
X55.65Y-108.
X55.65Y-109.75
X56.392Y-95.5
X56.5Y-96.8
X56.7Y-99.9
X56.7Y-100.9
X57.592Y-95.5
X58.6Y-95.3
X58.6Y-96.
X58.6Y-111.2
X59.2Y-76.5
X59.2Y-80.4
X59.3Y-111.2
X59.5Y-98.
X60.147Y-81.864
X60.2Y-90.2
X60.4Y-76.5
X60.7Y-113.1
X60.7Y-114.1
X61.7Y-76.5
X61.8Y-103.
X61.8Y-103.8
X61.8Y-104.6
X61.8Y-105.4
X61.8Y-106.2
X61.8Y-116.4
X62.885Y-80.409
X63.Y-76.5
X63.Y-95.
X64.Y-116.
X64.237Y-91.262
X64.25Y-76.5
X64.5Y-100.95
X64.5Y-108.2
X64.9Y-93.25
X64.9Y-95.25
X64.9Y-97.25
X65.Y-116.
X65.Y-90.45
X65.5Y-76.5
X65.75Y-116.
X65.8Y-90.45
X66.785Y-76.485
X66.8Y-80.4
X66.8Y-90.45
X66.9Y-102.4
X66.9Y-105.1
X67.6Y-90.45
X67.6Y-100.6
X67.75Y-116.
X67.9Y-102.4
X67.9Y-105.9
X68.05Y-76.5
X68.5Y-116.
X68.9Y-101.6
X69.3Y-76.5
X69.5Y-116.
X69.776Y-101.575
X70.05Y-111.7
X70.1Y-105.1
X70.1Y-105.8
X70.6Y-76.5
X70.6Y-80.4
X70.8Y-105.1
X70.8Y-105.8
X71.6Y-88.7
X71.85Y-76.5
X72.6Y-100.45
X72.9Y-105.1
X72.9Y-105.8
X73.1Y-90.4
X73.1Y-76.5
X73.6Y-113.4
X73.6Y-105.1
X73.6Y-105.8
X73.6Y-107.7
X73.6Y-111.5
X73.6Y-117.2
X73.8Y-91.55
X74.2Y-100.475
X74.4Y-76.5
X74.4Y-80.4
X74.5Y-89.
X74.5Y-109.6
X74.5Y-115.3
X74.8Y-97.3
X74.9Y-95.125
X74.903Y-96.185
X75.7Y-76.5
X75.892Y-92.192
X75.9Y-88.7
X76.Y-99.3
X76.2Y-107.7
X76.2Y-110.2
X76.2Y-113.4
X76.2Y-117.2
X76.6Y-98.7
X76.7Y-96.2
X76.8Y-96.95
X76.9Y-76.5
X77.3Y-101.4
X77.5Y-93.8
X77.6Y-90.3
X78.1Y-95.5
X78.2Y-76.5
X78.2Y-80.4
X78.6Y-91.3
X78.6Y-94.4
X79.Y-99.27
X79.1Y-102.2
X79.2Y-105.8
X79.2Y-100.
X79.5Y-76.5
X79.7Y-101.3
X80.Y-105.8
X80.1Y-91.9
X80.6Y-105.2
X80.8Y-76.5
X80.9Y-91.9
X80.9Y-92.7
X80.9Y-93.5
X80.9Y-94.3
X80.9Y-95.1
X80.9Y-95.9
X80.9Y-97.5
X80.9Y-98.3
X81.2Y-104.6
X81.7Y-95.9
X81.7Y-96.7
X81.7Y-98.3
X81.8Y-104.
X82.Y-76.5
X82.Y-80.4
X82.4Y-103.4
X82.5Y-92.7
X82.5Y-93.5
X82.5Y-94.3
X82.5Y-95.1
X82.5Y-96.7
X82.5Y-98.3
X83.Y-102.8
X83.295Y-76.495
X83.3Y-92.7
X83.3Y-93.5
X83.3Y-95.1
X83.3Y-95.9
X83.3Y-97.5
X83.6Y-102.2
X84.1Y-93.5
X84.1Y-95.1
X84.1Y-95.9
X84.1Y-97.5
X84.1Y-98.3
X84.2Y-101.6
X84.6Y-76.5
X84.9Y-91.9
X84.9Y-92.7
X84.9Y-94.3
X84.9Y-96.7
X84.9Y-97.5
X84.9Y-98.3
X85.7Y-91.9
X85.7Y-92.7
X85.7Y-95.9
X85.7Y-96.7
X85.7Y-98.3
X85.8Y-80.4
X86.5Y-92.7
X86.5Y-93.5
X86.5Y-95.1
X86.5Y-95.9
X86.5Y-96.7
X86.5Y-97.5
X87.629Y-100.165
X88.5Y-100.2
X88.8Y-116.3
X89.Y-107.3
X89.1Y-99.5
X89.6Y-94.65
X89.649Y-100.483
X89.8Y-107.3
X90.1Y-106.325
X90.9Y-87.3
X91.3Y-94.4
X91.3Y-95.2
X91.3Y-96.
X92.8Y-94.3
X93.2Y-107.3
X93.6Y-94.5
X93.693Y-85.686
X93.693Y-98.086
X93.7Y-84.9
X93.7Y-87.3
X93.7Y-88.1
X93.7Y-89.7
X93.7Y-90.5
X93.7Y-92.1
X93.7Y-97.3
X93.7Y-99.7
X93.7Y-100.5
X93.7Y-102.1
X93.7Y-102.9
X93.7Y-104.5
X93.7Y-92.9
X93.7Y-105.3
X97.1Y-84.9
X97.1Y-85.7
X97.1Y-87.3
X97.1Y-88.1
X97.1Y-89.7
X97.1Y-90.5
X97.1Y-92.1
X97.1Y-92.9
X97.1Y-97.3
X97.1Y-98.1
X97.1Y-99.7
X97.1Y-100.5
X97.1Y-102.1
X97.1Y-102.9
X97.1Y-104.5
X97.1Y-105.3
X98.5Y-85.3
X98.5Y-86.1
X98.5Y-87.7
X98.5Y-88.5
X98.5Y-90.1
X98.5Y-90.9
X98.5Y-92.5
X98.5Y-93.3
X98.5Y-97.7
X98.5Y-98.5
X98.5Y-100.1
X98.5Y-100.9
X98.5Y-102.5
X98.5Y-103.3
X98.5Y-104.9
X98.5Y-105.7
X101.9Y-87.65
X101.9Y-95.
X101.9Y-95.8
X101.9Y-88.4
X101.981Y-102.619
X102.Y-85.4
X102.Y-86.2
X102.Y-90.2
X102.Y-91.
X102.Y-92.6
X102.Y-93.4
X102.Y-97.8
X102.Y-98.6
X102.Y-100.2
X102.Y-101.
X102.Y-103.4
X102.Y-105.
X102.Y-105.8
X104.Y-91.4
X104.6Y-99.6
X104.7Y-92.7
X104.8Y-91.4
X104.9Y-102.2
X105.3Y-88.9
X105.3Y-93.2
X105.3Y-98.
X105.4Y-99.6
X105.6Y-91.4
X106.1Y-93.
X106.6Y-100.5
X107.3Y-94.9
X107.3Y-96.1
X107.6Y-88.8
X108.2Y-102.2
X109.8Y-95.3
X117.2Y-88.9
X117.2Y-90.6
X117.2Y-91.4
X117.2Y-96.5
X117.2Y-99.8
X117.2Y-101.1
X117.5Y-84.2
X118.2Y-88.9
X119.Y-85.6
X119.Y-105.4
X119.2Y-89.9
X119.2Y-101.1
X119.6Y-82.3
X119.6Y-107.1
X120.1Y-84.9
X120.6Y-106.2
X120.7Y-82.
X120.7Y-92.4
X120.7Y-107.
X120.7Y-91.4
X120.8Y-97.6
X120.8Y-98.6
X120.8Y-99.6
X123.8Y-82.1
X123.8Y-106.9
X124.3Y-86.9
X124.5Y-80.7
X124.5Y-110.3
X124.7Y-85.9
X124.7Y-105.1
X125.2Y-82.1
X125.2Y-106.9
X125.3Y-83.4
X125.4Y-91.4
X125.6Y-100.3
X126.4Y-88.6
X126.4Y-92.4
X126.4Y-93.4
X126.4Y-97.6
X126.4Y-98.6
X126.4Y-102.4
X127.3Y-80.7
X127.3Y-103.8
X127.3Y-110.3
X127.3Y-86.8
X67.31Y-92.96
X67.31Y-94.23
X67.31Y-95.5
X67.31Y-96.77
X67.31Y-98.04
X68.58Y-92.96
X68.58Y-94.23
X68.58Y-95.5
X68.58Y-96.77
X68.58Y-98.04
X69.85Y-92.96
X69.85Y-94.23
X69.85Y-95.5
X69.85Y-96.77
X69.85Y-98.04
X71.12Y-92.96
X71.12Y-94.23
X71.12Y-95.5
X71.12Y-96.77
X71.12Y-98.04
X72.39Y-92.96
X72.39Y-94.23
X72.39Y-95.5
X72.39Y-96.77
X72.39Y-98.04
X65.767Y-111.75
X65.767Y-112.75
X66.767Y-111.75
X66.767Y-112.75
T2
X94.36Y-95.5
X95.63Y-95.5
X96.9Y-95.5
T3
X107.8Y-82.5
X109.07Y-82.5
X110.34Y-82.5
X111.61Y-82.5
X112.88Y-82.5
X114.15Y-82.5
X115.42Y-82.5
X116.69Y-82.5
X107.81Y-103.42
X109.08Y-103.42
X110.35Y-103.42
X111.62Y-103.42
X112.89Y-103.42
X114.16Y-103.42
X115.43Y-103.42
X116.7Y-103.42
X107.81Y-108.5
X109.08Y-108.5
X110.35Y-108.5
X111.62Y-108.5
X112.89Y-108.5
X114.16Y-108.5
X115.43Y-108.5
X116.7Y-108.5
X107.8Y-87.6
X109.07Y-87.6
X110.34Y-87.6
X111.61Y-87.6
X112.88Y-87.6
X114.15Y-87.6
X115.42Y-87.6
X116.69Y-87.6
T4
X82.56Y-108.4
X85.1Y-108.4
T5
X92.57Y-75.23
X92.57Y-77.77
X95.11Y-75.23
X95.11Y-77.77
X97.65Y-75.23
X97.65Y-77.77
X100.19Y-75.23
X100.19Y-77.77
X102.73Y-75.23
X102.73Y-77.77
X105.27Y-75.23
X105.27Y-77.77
X107.81Y-75.23
X107.81Y-77.77
X110.35Y-75.23
X110.35Y-77.77
X112.89Y-75.23
X112.89Y-77.77
X115.43Y-75.23
X115.43Y-77.77
X92.57Y-113.23
X92.57Y-115.77
X95.11Y-113.23
X95.11Y-115.77
X97.65Y-113.23
X97.65Y-115.77
X100.19Y-113.23
X100.19Y-115.77
X102.73Y-113.23
X102.73Y-115.77
X105.27Y-113.23
X105.27Y-115.77
X107.81Y-113.23
X107.81Y-115.77
X110.35Y-113.23
X110.35Y-115.77
X112.89Y-113.23
X112.89Y-115.77
X115.43Y-113.23
X115.43Y-115.77
T6
X54.Y-75.
X54.Y-116.
X126.Y-75.
X126.Y-116.
T0
M30
