G04 #@! TF.GenerationSoftware,KiCad,Pcbnew,5.0.1*
G04 #@! TF.CreationDate,2019-03-29T02:42:59+09:00*
G04 #@! TF.ProjectId,glasgow,676C6173676F772E6B696361645F7063,rev?*
G04 #@! TF.SameCoordinates,Original*
G04 #@! TF.FileFunction,Legend,Bot*
G04 #@! TF.FilePolarity,Positive*
%FSLAX46Y46*%
G04 Gerber Fmt 4.6, Leading zero omitted, Abs format (unit mm)*
G04 Created by KiCad (PCBNEW 5.0.1) date 2019-03-29T02:42:59 JST*
%MOMM*%
%LPD*%
G01*
G04 APERTURE LIST*
%ADD10C,0.150000*%
%ADD11C,0.200000*%
%ADD12C,0.160000*%
%ADD13C,0.100000*%
%ADD14C,0.158504*%
%ADD15C,0.159000*%
%ADD16C,0.120000*%
G04 APERTURE END LIST*
D10*
X88400000Y-97400000D02*
X88400000Y-97100000D01*
X88600000Y-97600000D02*
X88400000Y-97400000D01*
X88700000Y-97600000D02*
X88600000Y-97600000D01*
X87200000Y-94100000D02*
X87400000Y-93900000D01*
X87200000Y-94500000D02*
X87200000Y-94100000D01*
D11*
X125800000Y-98250000D02*
X109850000Y-98250000D01*
D10*
X95300000Y-106500000D02*
X92450000Y-106500000D01*
X93600000Y-106200000D02*
X91300000Y-106200000D01*
X95300000Y-106500000D02*
X95300000Y-106200000D01*
X96500000Y-106200000D02*
X94100000Y-106200000D01*
X92450000Y-106500000D02*
X92450000Y-106200000D01*
X96500000Y-106200000D02*
X96500000Y-106000000D01*
X93600000Y-106200000D02*
X93600000Y-106000000D01*
X94100000Y-106000000D02*
X94100000Y-106200000D01*
X91300000Y-106000000D02*
X91300000Y-106200000D01*
X96500000Y-84200000D02*
X96500000Y-84000000D01*
X93600000Y-84200000D02*
X93600000Y-84000000D01*
X94100000Y-84000000D02*
X94100000Y-84200000D01*
X91300000Y-84000000D02*
X91300000Y-84200000D01*
X95300000Y-84000000D02*
X95300000Y-83700000D01*
X95300000Y-83700000D02*
X92450000Y-83700000D01*
X93600000Y-84000000D02*
X91300000Y-84000000D01*
X92450000Y-84000000D02*
X92450000Y-83700000D01*
X96500000Y-84000000D02*
X94100000Y-84000000D01*
X102100000Y-84000000D02*
X102100000Y-84200000D01*
X103250000Y-84000000D02*
X103250000Y-83700000D01*
X99000000Y-84000000D02*
X99000000Y-84200000D01*
X101400000Y-84000000D02*
X99000000Y-84000000D01*
X103250000Y-83700000D02*
X100200000Y-83700000D01*
X104400000Y-84000000D02*
X102100000Y-84000000D01*
X101400000Y-84200000D02*
X101400000Y-84000000D01*
X100200000Y-83700000D02*
X100200000Y-84000000D01*
X104400000Y-84200000D02*
X104400000Y-84000000D01*
X100200000Y-106200000D02*
X100200000Y-106500000D01*
X103250000Y-106500000D02*
X100200000Y-106500000D01*
X103250000Y-106500000D02*
X103250000Y-106200000D01*
X99000000Y-106000000D02*
X99000000Y-106200000D01*
X101400000Y-106200000D02*
X99000000Y-106200000D01*
X101400000Y-106200000D02*
X101400000Y-106000000D01*
X102100000Y-106000000D02*
X102100000Y-106200000D01*
X104400000Y-106200000D02*
X102100000Y-106200000D01*
X104400000Y-106200000D02*
X104400000Y-106000000D01*
X82100000Y-99800000D02*
X82100000Y-98000000D01*
X84300000Y-102000000D02*
X82100000Y-99800000D01*
X87800000Y-100900000D02*
X90300000Y-100900000D01*
X87800000Y-102000000D02*
X87800000Y-100900000D01*
X84300000Y-102000000D02*
X87800000Y-102000000D01*
X84300000Y-106700000D02*
X84300000Y-102000000D01*
X86800000Y-106700000D02*
X84300000Y-106700000D01*
X86800000Y-105900000D02*
X86800000Y-106700000D01*
X90300000Y-105900000D02*
X86800000Y-105900000D01*
X90300000Y-100900000D02*
X90300000Y-105900000D01*
X86300000Y-97200000D02*
X86300000Y-92900000D01*
X83100000Y-97200000D02*
X86300000Y-97200000D01*
X83100000Y-98000000D02*
X83100000Y-97200000D01*
X81100000Y-98000000D02*
X83100000Y-98000000D01*
X81100000Y-93700000D02*
X81100000Y-98000000D01*
X84200000Y-93700000D02*
X81100000Y-93700000D01*
X84200000Y-92900000D02*
X84200000Y-93700000D01*
X86300000Y-92900000D02*
X84200000Y-92900000D01*
D11*
X109850000Y-95500000D02*
X116050000Y-95500000D01*
X116050000Y-95500000D02*
X116050000Y-93000000D01*
X125800000Y-95500000D02*
X116050000Y-95500000D01*
X109850000Y-95500000D02*
X109850000Y-98250000D01*
X125800000Y-93000000D02*
X116050000Y-93000000D01*
X125800000Y-93000000D02*
X125800000Y-98250000D01*
D12*
X125154938Y-94761448D02*
X124983509Y-94818591D01*
X124697795Y-94818591D01*
X124583509Y-94761448D01*
X124526366Y-94704305D01*
X124469224Y-94590019D01*
X124469224Y-94475734D01*
X124526366Y-94361448D01*
X124583509Y-94304305D01*
X124697795Y-94247162D01*
X124926366Y-94190019D01*
X125040652Y-94132876D01*
X125097795Y-94075734D01*
X125154938Y-93961448D01*
X125154938Y-93847162D01*
X125097795Y-93732876D01*
X125040652Y-93675734D01*
X124926366Y-93618591D01*
X124640652Y-93618591D01*
X124469224Y-93675734D01*
X123497795Y-94761448D02*
X123612081Y-94818591D01*
X123840652Y-94818591D01*
X123954938Y-94761448D01*
X124012081Y-94647162D01*
X124012081Y-94190019D01*
X123954938Y-94075734D01*
X123840652Y-94018591D01*
X123612081Y-94018591D01*
X123497795Y-94075734D01*
X123440652Y-94190019D01*
X123440652Y-94304305D01*
X124012081Y-94418591D01*
X122926366Y-94818591D02*
X122926366Y-94018591D01*
X122926366Y-94247162D02*
X122869224Y-94132876D01*
X122812081Y-94075734D01*
X122697795Y-94018591D01*
X122583509Y-94018591D01*
X122183509Y-94818591D02*
X122183509Y-94018591D01*
X122183509Y-93618591D02*
X122240652Y-93675734D01*
X122183509Y-93732876D01*
X122126366Y-93675734D01*
X122183509Y-93618591D01*
X122183509Y-93732876D01*
X121097795Y-94818591D02*
X121097795Y-94190019D01*
X121154938Y-94075734D01*
X121269224Y-94018591D01*
X121497795Y-94018591D01*
X121612081Y-94075734D01*
X121097795Y-94761448D02*
X121212081Y-94818591D01*
X121497795Y-94818591D01*
X121612081Y-94761448D01*
X121669224Y-94647162D01*
X121669224Y-94532876D01*
X121612081Y-94418591D01*
X121497795Y-94361448D01*
X121212081Y-94361448D01*
X121097795Y-94304305D01*
X120354938Y-94818591D02*
X120469224Y-94761448D01*
X120526366Y-94647162D01*
X120526366Y-93618591D01*
X118983509Y-94818591D02*
X118983509Y-93618591D01*
X118297795Y-94818591D01*
X118297795Y-93618591D01*
X117554938Y-94818591D02*
X117669224Y-94761448D01*
X117726366Y-94704305D01*
X117783509Y-94590019D01*
X117783509Y-94247162D01*
X117726366Y-94132876D01*
X117669224Y-94075734D01*
X117554938Y-94018591D01*
X117383509Y-94018591D01*
X117269224Y-94075734D01*
X117212081Y-94132876D01*
X117154938Y-94247162D01*
X117154938Y-94590019D01*
X117212081Y-94704305D01*
X117269224Y-94761448D01*
X117383509Y-94818591D01*
X117554938Y-94818591D01*
X116640652Y-94704305D02*
X116583509Y-94761448D01*
X116640652Y-94818591D01*
X116697795Y-94761448D01*
X116640652Y-94704305D01*
X116640652Y-94818591D01*
X116640652Y-94075734D02*
X116583509Y-94132876D01*
X116640652Y-94190019D01*
X116697795Y-94132876D01*
X116640652Y-94075734D01*
X116640652Y-94190019D01*
D13*
G04 #@! TO.C,NONO_HANA*
G36*
X77461042Y-79628523D02*
X76673848Y-80901658D01*
X76640778Y-80455173D01*
X77488686Y-78996712D01*
X77461042Y-79628523D01*
X77461042Y-79628523D01*
G37*
G36*
X76733853Y-78800991D02*
X77488268Y-80289810D01*
X77492468Y-80839647D01*
X77411293Y-80698110D01*
X77332933Y-80560664D01*
X77257184Y-80426580D01*
X77183840Y-80295130D01*
X77112697Y-80165585D01*
X77043549Y-80037216D01*
X76976192Y-79909295D01*
X76910420Y-79781092D01*
X76846029Y-79651880D01*
X76782814Y-79520930D01*
X76720569Y-79387513D01*
X76659089Y-79250900D01*
X76733853Y-78800991D01*
X76733853Y-78800991D01*
G37*
G36*
X88480879Y-80036332D02*
X88445195Y-80003681D01*
X88368019Y-79920993D01*
X88261612Y-79801856D01*
X88138234Y-79659861D01*
X88010144Y-79508597D01*
X87889602Y-79361655D01*
X87788868Y-79232624D01*
X87720202Y-79135095D01*
X87723886Y-79372012D01*
X87727955Y-79526432D01*
X87731247Y-79610314D01*
X87732603Y-79635616D01*
X87834640Y-79729719D01*
X87949709Y-79847444D01*
X88070300Y-79979107D01*
X88188906Y-80115027D01*
X88298016Y-80245520D01*
X88390121Y-80360905D01*
X88457712Y-80451500D01*
X88493280Y-80507621D01*
X88490065Y-80240281D01*
X88484094Y-80085941D01*
X88480879Y-80036332D01*
X88480879Y-80036332D01*
G37*
G36*
X88349297Y-79140059D02*
X88263754Y-79311322D01*
X88179493Y-79497481D01*
X88098331Y-79690780D01*
X88022088Y-79883466D01*
X87952584Y-80067783D01*
X87891637Y-80235977D01*
X87841067Y-80380293D01*
X87802693Y-80492977D01*
X87778335Y-80566275D01*
X87769811Y-80592430D01*
X87760831Y-81156970D01*
X87809839Y-81034014D01*
X87873034Y-80878781D01*
X87946443Y-80700541D01*
X88026094Y-80508561D01*
X88108014Y-80312108D01*
X88188230Y-80120451D01*
X88262770Y-79942858D01*
X88327661Y-79788598D01*
X88378930Y-79666936D01*
X88412605Y-79587143D01*
X88424713Y-79558486D01*
X88349297Y-79140059D01*
X88349297Y-79140059D01*
G37*
D10*
X64434276Y-88381601D02*
X64534059Y-88490215D01*
X64347791Y-88267961D02*
X64434276Y-88381601D01*
X64274606Y-88149944D02*
X64347791Y-88267961D01*
X64214723Y-88028199D02*
X64274606Y-88149944D01*
X64168143Y-87903376D02*
X64214723Y-88028199D01*
X64134866Y-87776122D02*
X64168143Y-87903376D01*
X64114894Y-87647088D02*
X64134866Y-87776122D01*
X64108229Y-87516921D02*
X64114894Y-87647088D01*
X64114870Y-87386271D02*
X64108229Y-87516921D01*
X64134820Y-87255787D02*
X64114870Y-87386271D01*
X64168079Y-87126118D02*
X64134820Y-87255787D01*
X64214649Y-86997912D02*
X64168079Y-87126118D01*
X64274531Y-86871819D02*
X64214649Y-86997912D01*
X64347726Y-86748488D02*
X64274531Y-86871819D01*
X64434235Y-86628567D02*
X64347726Y-86748488D01*
X64534059Y-86512705D02*
X64434235Y-86628567D01*
X73529598Y-88381601D02*
X73429814Y-88490215D01*
X73616083Y-88267961D02*
X73529598Y-88381601D01*
X73689268Y-88149944D02*
X73616083Y-88267961D01*
X73749151Y-88028199D02*
X73689268Y-88149944D01*
X73795731Y-87903376D02*
X73749151Y-88028199D01*
X73829008Y-87776122D02*
X73795731Y-87903376D01*
X73848980Y-87647088D02*
X73829008Y-87776122D01*
X73855645Y-87516921D02*
X73848980Y-87647088D01*
X73849004Y-87386271D02*
X73855645Y-87516921D01*
X73829054Y-87255787D02*
X73849004Y-87386271D01*
X73795795Y-87126118D02*
X73829054Y-87255787D01*
X73749225Y-86997912D02*
X73795795Y-87126118D01*
X73689343Y-86871819D02*
X73749225Y-86997912D01*
X73616148Y-86748488D02*
X73689343Y-86871819D01*
X73529639Y-86628567D02*
X73616148Y-86748488D01*
X73429814Y-86512705D02*
X73529639Y-86628567D01*
X73181659Y-88340895D02*
X72145253Y-88166095D01*
X73115972Y-87805555D02*
X72218240Y-87805555D01*
X72667106Y-86677217D02*
X72667106Y-88257135D01*
X73091880Y-87051695D02*
X72247434Y-87051695D01*
X73092250Y-87434085D02*
X73092250Y-86676585D01*
X72247434Y-87434085D02*
X73092250Y-87434085D01*
X72247434Y-86676585D02*
X72247434Y-87434085D01*
X73092250Y-86676585D02*
X72247434Y-86676585D01*
X72007528Y-88432667D02*
X72086867Y-88428015D01*
X71851147Y-88435763D02*
X72007528Y-88432667D01*
X71740181Y-88421015D02*
X71851147Y-88435763D01*
X71728755Y-88363586D02*
X71740181Y-88421015D01*
X71723618Y-88228614D02*
X71728755Y-88363586D01*
X71721981Y-88042285D02*
X71723618Y-88228614D01*
X71721818Y-87855102D02*
X71721981Y-88042285D01*
X71722644Y-87671662D02*
X71721818Y-87855102D01*
X71723911Y-87513711D02*
X71722644Y-87671662D01*
X71725073Y-87402993D02*
X71723911Y-87513711D01*
X71725581Y-87361255D02*
X71725073Y-87402993D01*
X71618205Y-87191248D02*
X71488377Y-87328475D01*
X71737874Y-87086358D02*
X71618205Y-87191248D01*
X71843355Y-87008564D02*
X71737874Y-87086358D01*
X71930617Y-86952626D02*
X71843355Y-87008564D01*
X71995632Y-86913305D02*
X71930617Y-86952626D01*
X71625569Y-87035345D02*
X71718284Y-87105965D01*
X71518484Y-86934340D02*
X71625569Y-87035345D01*
X71407293Y-86813535D02*
X71518484Y-86934340D01*
X71302261Y-86683515D02*
X71407293Y-86813535D01*
X72127006Y-86687515D02*
X71302261Y-86683515D01*
X71414682Y-87704110D02*
X71470130Y-87812555D01*
X71362484Y-87594042D02*
X71414682Y-87704110D01*
X71313931Y-87482157D02*
X71362484Y-87594042D01*
X71269418Y-87368255D02*
X71313931Y-87482157D01*
X72127009Y-87361255D02*
X71269418Y-87368255D01*
X70869005Y-88298218D02*
X71003016Y-88442875D01*
X70758555Y-88150866D02*
X70869005Y-88298218D01*
X70669443Y-88002131D02*
X70758555Y-88150866D01*
X70599448Y-87853326D02*
X70669443Y-88002131D01*
X70546345Y-87705765D02*
X70599448Y-87853326D01*
X70507911Y-87560760D02*
X70546345Y-87705765D01*
X70481926Y-87419624D02*
X70507911Y-87560760D01*
X70466164Y-87283669D02*
X70481926Y-87419624D01*
X70458404Y-87154210D02*
X70466164Y-87283669D01*
X70456422Y-87032557D02*
X70458404Y-87154210D01*
X70457996Y-86920026D02*
X70456422Y-87032557D01*
X70460903Y-86817927D02*
X70457996Y-86920026D01*
X70462919Y-86727575D02*
X70460903Y-86817927D01*
X69778469Y-88421470D02*
X69853483Y-88417755D01*
X69618304Y-88427607D02*
X69778469Y-88421470D01*
X69470304Y-88428655D02*
X69618304Y-88427607D01*
X69375150Y-88391024D02*
X69470304Y-88428655D01*
X69307570Y-88280556D02*
X69375150Y-88391024D01*
X69265943Y-88089965D02*
X69307570Y-88280556D01*
X69248278Y-87918274D02*
X69265943Y-88089965D01*
X69231491Y-87711099D02*
X69248278Y-87918274D01*
X69217332Y-87510743D02*
X69231491Y-87711099D01*
X69207552Y-87359507D02*
X69217332Y-87510743D01*
X69203903Y-87299695D02*
X69207552Y-87359507D01*
X69758600Y-87295695D02*
X69203903Y-87299695D01*
X69765315Y-87344478D02*
X69787793Y-87485435D01*
X69740209Y-87150557D02*
X69765315Y-87344478D01*
X69716853Y-86952092D02*
X69740209Y-87150557D01*
X69699628Y-86797504D02*
X69716853Y-86952092D01*
X69692913Y-86735215D02*
X69699628Y-86797504D01*
X70930031Y-86731215D02*
X69692913Y-86735215D01*
X67090206Y-88090096D02*
X67000606Y-88166745D01*
X67184106Y-88015379D02*
X67090206Y-88090096D01*
X67287038Y-87947530D02*
X67184106Y-88015379D01*
X67403732Y-87891484D02*
X67287038Y-87947530D01*
X67538919Y-87852177D02*
X67403732Y-87891484D01*
X67697330Y-87834545D02*
X67538919Y-87852177D01*
X67906189Y-87854261D02*
X67697330Y-87834545D01*
X68030862Y-87916949D02*
X67906189Y-87854261D01*
X68090697Y-88004745D02*
X68030862Y-87916949D01*
X68105042Y-88099785D02*
X68090697Y-88004745D01*
X68077706Y-88186236D02*
X68105042Y-88099785D01*
X68006340Y-88256284D02*
X68077706Y-88186236D01*
X67901106Y-88304092D02*
X68006340Y-88256284D01*
X67772164Y-88323825D02*
X67901106Y-88304092D01*
X67643591Y-88313967D02*
X67772164Y-88323825D01*
X67538970Y-88272001D02*
X67643591Y-88313967D01*
X67467727Y-88190924D02*
X67538970Y-88272001D01*
X67439284Y-88063735D02*
X67467727Y-88190924D01*
X67442622Y-87928247D02*
X67439284Y-88063735D01*
X67447063Y-87782714D02*
X67442622Y-87928247D01*
X67451993Y-87629677D02*
X67447063Y-87782714D01*
X67456796Y-87471681D02*
X67451993Y-87629677D01*
X67460855Y-87311268D02*
X67456796Y-87471681D01*
X67463556Y-87150983D02*
X67460855Y-87311268D01*
X67464281Y-86993369D02*
X67463556Y-87150983D01*
X67462416Y-86840968D02*
X67464281Y-86993369D01*
X67457344Y-86696325D02*
X67462416Y-86840968D01*
X67184726Y-87117065D02*
X67034148Y-87090305D01*
X67349928Y-87134367D02*
X67184726Y-87117065D01*
X67521313Y-87143785D02*
X67349928Y-87134367D01*
X67690442Y-87146894D02*
X67521313Y-87143785D01*
X67848873Y-87145267D02*
X67690442Y-87146894D01*
X67988165Y-87140479D02*
X67848873Y-87145267D01*
X68099877Y-87134105D02*
X67988165Y-87140479D01*
X68464202Y-87877222D02*
X68415649Y-87754565D01*
X68512403Y-88005123D02*
X68464202Y-87877222D01*
X68552020Y-88132149D02*
X68512403Y-88005123D01*
X68574820Y-88252182D02*
X68552020Y-88132149D01*
X68572569Y-88359105D02*
X68574820Y-88252182D01*
X68606672Y-88206084D02*
X68572569Y-88359105D01*
X68630862Y-88057906D02*
X68606672Y-88206084D01*
X68645907Y-87913094D02*
X68630862Y-88057906D01*
X68652570Y-87770169D02*
X68645907Y-87913094D01*
X68651616Y-87627654D02*
X68652570Y-87770169D01*
X68643810Y-87484072D02*
X68651616Y-87627654D01*
X68629918Y-87337945D02*
X68643810Y-87484072D01*
X68610704Y-87187795D02*
X68629918Y-87337945D01*
X68586933Y-87032145D02*
X68610704Y-87187795D01*
X68559370Y-86869518D02*
X68586933Y-87032145D01*
X68528779Y-86698435D02*
X68559370Y-86869518D01*
X65097742Y-88084491D02*
X64945893Y-88198395D01*
X65247024Y-87997825D02*
X65097742Y-88084491D01*
X65391173Y-87936557D02*
X65247024Y-87997825D01*
X65527624Y-87898848D02*
X65391173Y-87936557D01*
X65653810Y-87882861D02*
X65527624Y-87898848D01*
X65767164Y-87886755D02*
X65653810Y-87882861D01*
X65865120Y-87908692D02*
X65767164Y-87886755D01*
X65945111Y-87946834D02*
X65865120Y-87908692D01*
X66004573Y-87999341D02*
X65945111Y-87946834D01*
X66040937Y-88064374D02*
X66004573Y-87999341D01*
X66051637Y-88140095D02*
X66040937Y-88064374D01*
X66020425Y-88236996D02*
X66051637Y-88140095D01*
X65944951Y-88306288D02*
X66020425Y-88236996D01*
X65840140Y-88347671D02*
X65944951Y-88306288D01*
X65720917Y-88360847D02*
X65840140Y-88347671D01*
X65602207Y-88345517D02*
X65720917Y-88360847D01*
X65498935Y-88301381D02*
X65602207Y-88345517D01*
X65426027Y-88228140D02*
X65498935Y-88301381D01*
X65398407Y-88125495D02*
X65426027Y-88228140D01*
X65399033Y-88098164D02*
X65398407Y-88125495D01*
X65400978Y-88019747D02*
X65399033Y-88098164D01*
X65404342Y-87895605D02*
X65400978Y-88019747D01*
X65409227Y-87731099D02*
X65404342Y-87895605D01*
X65415732Y-87531592D02*
X65409227Y-87731099D01*
X65423957Y-87302445D02*
X65415732Y-87531592D01*
X64933067Y-87229487D02*
X64883858Y-87262385D01*
X65053096Y-87152197D02*
X64933067Y-87229487D01*
X65202547Y-87062627D02*
X65053096Y-87152197D01*
X65340024Y-86992885D02*
X65202547Y-87062627D01*
X66398432Y-87784417D02*
X66511453Y-87947045D01*
X66301977Y-87632459D02*
X66398432Y-87784417D01*
X66220490Y-87489828D02*
X66301977Y-87632459D01*
X66152371Y-87355178D02*
X66220490Y-87489828D01*
X66096023Y-87227166D02*
X66152371Y-87355178D01*
X66049845Y-87104448D02*
X66096023Y-87227166D01*
X66012239Y-86985678D02*
X66049845Y-87104448D01*
X65981606Y-86869514D02*
X66012239Y-86985678D01*
X65956347Y-86754611D02*
X65981606Y-86869514D01*
X65934862Y-86639625D02*
X65956347Y-86754611D01*
X65797677Y-87007785D02*
X65613721Y-86956495D01*
X65985208Y-87039656D02*
X65797677Y-87007785D01*
X66164695Y-87056311D02*
X65985208Y-87039656D01*
X66324520Y-87061950D02*
X66164695Y-87056311D01*
X66453065Y-87060776D02*
X66324520Y-87061950D01*
X66538713Y-87056991D02*
X66453065Y-87060776D01*
X66569843Y-87054795D02*
X66538713Y-87056991D01*
X57699411Y-85451458D02*
X57676681Y-85506218D01*
X57754281Y-85428778D02*
X57699411Y-85451458D01*
X57809151Y-85451458D02*
X57754281Y-85428778D01*
X57831881Y-85506218D02*
X57809151Y-85451458D01*
X57809151Y-85560978D02*
X57831881Y-85506218D01*
X57754281Y-85583658D02*
X57809151Y-85560978D01*
X57699411Y-85560978D02*
X57754281Y-85583658D01*
X57676681Y-85506218D02*
X57699411Y-85560978D01*
X57754442Y-85112977D02*
X57754228Y-85143145D01*
X57754960Y-85029757D02*
X57754442Y-85112977D01*
X57755600Y-84904409D02*
X57754960Y-85029757D01*
X57756178Y-84747858D02*
X57755600Y-84904409D01*
X57756514Y-84571027D02*
X57756178Y-84747858D01*
X57756422Y-84384842D02*
X57756514Y-84571027D01*
X57755721Y-84200226D02*
X57756422Y-84384842D01*
X57754228Y-84028105D02*
X57755721Y-84200226D01*
X61787505Y-84608773D02*
X61958959Y-84791625D01*
X61637460Y-84476985D02*
X61787505Y-84608773D01*
X61506338Y-84389303D02*
X61637460Y-84476985D01*
X61391653Y-84338770D02*
X61506338Y-84389303D01*
X61290917Y-84318427D02*
X61391653Y-84338770D01*
X61201645Y-84321318D02*
X61290917Y-84318427D01*
X61121349Y-84340485D02*
X61201645Y-84321318D01*
X61040596Y-84393685D02*
X61121349Y-84340485D01*
X61005211Y-84482894D02*
X61040596Y-84393685D01*
X61003634Y-84607414D02*
X61005211Y-84482894D01*
X61024304Y-84766547D02*
X61003634Y-84607414D01*
X61055659Y-84959595D02*
X61024304Y-84766547D01*
X61082022Y-85148881D02*
X61055659Y-84959595D01*
X61094022Y-85299188D02*
X61082022Y-85148881D01*
X61089556Y-85413484D02*
X61094022Y-85299188D01*
X61066522Y-85494740D02*
X61089556Y-85413484D01*
X61022819Y-85545925D02*
X61066522Y-85494740D01*
X60935805Y-85574036D02*
X61022819Y-85545925D01*
X60819369Y-85560494D02*
X60935805Y-85574036D01*
X60685143Y-85497788D02*
X60819369Y-85560494D01*
X60544758Y-85378405D02*
X60685143Y-85497788D01*
X61977284Y-84727867D02*
X61957043Y-84701025D01*
X62032598Y-84801647D02*
X61977284Y-84727867D01*
X62114877Y-84912250D02*
X62032598Y-84801647D01*
X62216010Y-85049560D02*
X62114877Y-84912250D01*
X62327889Y-85203460D02*
X62216010Y-85049560D01*
X62442403Y-85363835D02*
X62327889Y-85203460D01*
X61969806Y-85460860D02*
X61964342Y-85677035D01*
X61970779Y-85250743D02*
X61969806Y-85460860D01*
X61968017Y-85048768D02*
X61970779Y-85250743D01*
X61962279Y-84857021D02*
X61968017Y-85048768D01*
X61954320Y-84677587D02*
X61962279Y-84857021D01*
X61944896Y-84512551D02*
X61954320Y-84677587D01*
X61934766Y-84363997D02*
X61944896Y-84512551D01*
X61924684Y-84234010D02*
X61934766Y-84363997D01*
X61915409Y-84124676D02*
X61924684Y-84234010D01*
X61907696Y-84038079D02*
X61915409Y-84124676D01*
X61902302Y-83976305D02*
X61907696Y-84038079D01*
X61928303Y-84464289D02*
X61946094Y-84515275D01*
X61847564Y-84336825D02*
X61928303Y-84464289D01*
X61916844Y-84349284D02*
X61847564Y-84336825D01*
X62043259Y-84368250D02*
X61916844Y-84349284D01*
X62211413Y-84390628D02*
X62043259Y-84368250D01*
X62405909Y-84413325D02*
X62211413Y-84390628D01*
X63054344Y-85395671D02*
X62902495Y-85509575D01*
X63203626Y-85309005D02*
X63054344Y-85395671D01*
X63347776Y-85247737D02*
X63203626Y-85309005D01*
X63484227Y-85210028D02*
X63347776Y-85247737D01*
X63610413Y-85194041D02*
X63484227Y-85210028D01*
X63723767Y-85197935D02*
X63610413Y-85194041D01*
X63821723Y-85219872D02*
X63723767Y-85197935D01*
X63901714Y-85258014D02*
X63821723Y-85219872D01*
X63961176Y-85310521D02*
X63901714Y-85258014D01*
X63997540Y-85375554D02*
X63961176Y-85310521D01*
X64008240Y-85451275D02*
X63997540Y-85375554D01*
X63977028Y-85548176D02*
X64008240Y-85451275D01*
X63901554Y-85617468D02*
X63977028Y-85548176D01*
X63796743Y-85658852D02*
X63901554Y-85617468D01*
X63677520Y-85672028D02*
X63796743Y-85658852D01*
X63558810Y-85656697D02*
X63677520Y-85672028D01*
X63455538Y-85612561D02*
X63558810Y-85656697D01*
X63382630Y-85539320D02*
X63455538Y-85612561D01*
X63355010Y-85436675D02*
X63382630Y-85539320D01*
X63355636Y-85409344D02*
X63355010Y-85436675D01*
X63357581Y-85330927D02*
X63355636Y-85409344D01*
X63360945Y-85206785D02*
X63357581Y-85330927D01*
X63365830Y-85042280D02*
X63360945Y-85206785D01*
X63372335Y-84842772D02*
X63365830Y-85042280D01*
X63380560Y-84613625D02*
X63372335Y-84842772D01*
X62889670Y-84540681D02*
X62840461Y-84573565D01*
X63009698Y-84463415D02*
X62889670Y-84540681D01*
X63159149Y-84373849D02*
X63009698Y-84463415D01*
X63296625Y-84304065D02*
X63159149Y-84373849D01*
X64355036Y-85095597D02*
X64468058Y-85258225D01*
X64258580Y-84943640D02*
X64355036Y-85095597D01*
X64177093Y-84801008D02*
X64258580Y-84943640D01*
X64108974Y-84666358D02*
X64177093Y-84801008D01*
X64052625Y-84538346D02*
X64108974Y-84666358D01*
X64006447Y-84415628D02*
X64052625Y-84538346D01*
X63968841Y-84296859D02*
X64006447Y-84415628D01*
X63938208Y-84180695D02*
X63968841Y-84296859D01*
X63912949Y-84065791D02*
X63938208Y-84180695D01*
X63891464Y-83950805D02*
X63912949Y-84065791D01*
X63754280Y-84318965D02*
X63570324Y-84267675D01*
X63941810Y-84350837D02*
X63754280Y-84318965D01*
X64121297Y-84367491D02*
X63941810Y-84350837D01*
X64281123Y-84373130D02*
X64121297Y-84367491D01*
X64409668Y-84371956D02*
X64281123Y-84373130D01*
X64495315Y-84368171D02*
X64409668Y-84371956D01*
X64526446Y-84365975D02*
X64495315Y-84368171D01*
X59134691Y-85486421D02*
X59096537Y-85624715D01*
X59204915Y-85359475D02*
X59134691Y-85486421D01*
X59325056Y-85263455D02*
X59204915Y-85359475D01*
X59452913Y-85231412D02*
X59325056Y-85263455D01*
X59589405Y-85241025D02*
X59452913Y-85231412D01*
X59680400Y-85286884D02*
X59589405Y-85241025D01*
X59736451Y-85375966D02*
X59680400Y-85286884D01*
X59730861Y-85484185D02*
X59736451Y-85375966D01*
X59688519Y-85549053D02*
X59730861Y-85484185D01*
X59609094Y-85605850D02*
X59688519Y-85549053D01*
X59483605Y-85642745D02*
X59609094Y-85605850D01*
X59332503Y-85654790D02*
X59483605Y-85642745D01*
X59187783Y-85644957D02*
X59332503Y-85654790D01*
X59053647Y-85613819D02*
X59187783Y-85644957D01*
X58934297Y-85561949D02*
X59053647Y-85613819D01*
X58833938Y-85489920D02*
X58934297Y-85561949D01*
X58756771Y-85398306D02*
X58833938Y-85489920D01*
X58706998Y-85287680D02*
X58756771Y-85398306D01*
X58688823Y-85158615D02*
X58706998Y-85287680D01*
X58711160Y-85017084D02*
X58688823Y-85158615D01*
X58774303Y-84906407D02*
X58711160Y-85017084D01*
X58869133Y-84824016D02*
X58774303Y-84906407D01*
X58986533Y-84767345D02*
X58869133Y-84824016D01*
X59117384Y-84733828D02*
X58986533Y-84767345D01*
X59252568Y-84720897D02*
X59117384Y-84733828D01*
X59382968Y-84725985D02*
X59252568Y-84720897D01*
X59513843Y-84745588D02*
X59382968Y-84725985D01*
X59624002Y-84777208D02*
X59513843Y-84745588D01*
X59727136Y-84826423D02*
X59624002Y-84777208D01*
X59836937Y-84898812D02*
X59727136Y-84826423D01*
X59967095Y-84999957D02*
X59836937Y-84898812D01*
X60131300Y-85135435D02*
X59967095Y-84999957D01*
X60105494Y-85112711D02*
X60131300Y-85135435D01*
X60034379Y-85050180D02*
X60105494Y-85112711D01*
X59927413Y-84956307D02*
X60034379Y-85050180D01*
X59794053Y-84839552D02*
X59927413Y-84956307D01*
X59643757Y-84708380D02*
X59794053Y-84839552D01*
X59485981Y-84571254D02*
X59643757Y-84708380D01*
X59330182Y-84436636D02*
X59485981Y-84571254D01*
X59185818Y-84312989D02*
X59330182Y-84436636D01*
X59062346Y-84208776D02*
X59185818Y-84312989D01*
X58969222Y-84132461D02*
X59062346Y-84208776D01*
X58915905Y-84092505D02*
X58969222Y-84132461D01*
X58962903Y-84095214D02*
X58915905Y-84092505D01*
X59085870Y-84102200D02*
X58962903Y-84095214D01*
X59257767Y-84111751D02*
X59085870Y-84102200D01*
X59451558Y-84122159D02*
X59257767Y-84111751D01*
X59640202Y-84131711D02*
X59451558Y-84122159D01*
X59796662Y-84138696D02*
X59640202Y-84131711D01*
X59893899Y-84141405D02*
X59796662Y-84138696D01*
X65295018Y-84835411D02*
X65379965Y-84754295D01*
X65220960Y-84937660D02*
X65295018Y-84835411D01*
X65167700Y-85058959D02*
X65220960Y-84937660D01*
X65145144Y-85197225D02*
X65167700Y-85058959D01*
X65161649Y-85336222D02*
X65145144Y-85197225D01*
X65214299Y-85445999D02*
X65161649Y-85336222D01*
X65295506Y-85529533D02*
X65214299Y-85445999D01*
X65397682Y-85589800D02*
X65295506Y-85529533D01*
X65513237Y-85629775D02*
X65397682Y-85589800D01*
X65634583Y-85652435D02*
X65513237Y-85629775D01*
X65754132Y-85660755D02*
X65634583Y-85652435D01*
X65882916Y-85650871D02*
X65754132Y-85660755D01*
X65995643Y-85615164D02*
X65882916Y-85650871D01*
X66088300Y-85552274D02*
X65995643Y-85615164D01*
X66156873Y-85460843D02*
X66088300Y-85552274D01*
X66197348Y-85339513D02*
X66156873Y-85460843D01*
X66205711Y-85186925D02*
X66197348Y-85339513D01*
X66196776Y-85054454D02*
X66205711Y-85186925D01*
X66184061Y-84911783D02*
X66196776Y-85054454D01*
X66168382Y-84761507D02*
X66184061Y-84911783D01*
X66150556Y-84606223D02*
X66168382Y-84761507D01*
X66131399Y-84448524D02*
X66150556Y-84606223D01*
X66111728Y-84291006D02*
X66131399Y-84448524D01*
X66092360Y-84136265D02*
X66111728Y-84291006D01*
X66074109Y-83986895D02*
X66092360Y-84136265D01*
X65848037Y-84928450D02*
X65622528Y-84908775D01*
X66038201Y-84935558D02*
X65848037Y-84928450D01*
X66200018Y-84931718D02*
X66038201Y-84935558D01*
X66340484Y-84918550D02*
X66200018Y-84931718D01*
X66466595Y-84897674D02*
X66340484Y-84918550D01*
X66585349Y-84870709D02*
X66466595Y-84897674D01*
X66703741Y-84839275D02*
X66585349Y-84870709D01*
X65852055Y-84389311D02*
X65617368Y-84375715D01*
X66050223Y-84391687D02*
X65852055Y-84389311D01*
X66216117Y-84384871D02*
X66050223Y-84391687D01*
X66353980Y-84370889D02*
X66216117Y-84384871D01*
X66468054Y-84351767D02*
X66353980Y-84370889D01*
X66562583Y-84329534D02*
X66468054Y-84351767D01*
X66641809Y-84306215D02*
X66562583Y-84329534D01*
X67172524Y-84693737D02*
X67137257Y-84754295D01*
X67250799Y-84565080D02*
X67172524Y-84693737D01*
X67330792Y-84447855D02*
X67250799Y-84565080D01*
X67454445Y-84842202D02*
X67422715Y-84900000D01*
X67528608Y-84715732D02*
X67454445Y-84842202D01*
X67613670Y-84590980D02*
X67528608Y-84715732D01*
X67591605Y-85632201D02*
X67413368Y-85653025D01*
X67747916Y-85592094D02*
X67591605Y-85632201D01*
X67881977Y-85534379D02*
X67747916Y-85592094D01*
X67993463Y-85460733D02*
X67881977Y-85534379D01*
X68082052Y-85372829D02*
X67993463Y-85460733D01*
X68147420Y-85272345D02*
X68082052Y-85372829D01*
X68189242Y-85160955D02*
X68147420Y-85272345D01*
X68207194Y-85040335D02*
X68189242Y-85160955D01*
X68204271Y-84914533D02*
X68207194Y-85040335D01*
X68178817Y-84782284D02*
X68204271Y-84914533D01*
X68122994Y-84648715D02*
X68178817Y-84782284D01*
X68017332Y-84485323D02*
X68122994Y-84648715D01*
X67908131Y-84363789D02*
X68017332Y-84485323D01*
X67796450Y-84277972D02*
X67908131Y-84363789D01*
X67683349Y-84221733D02*
X67796450Y-84277972D01*
X67569884Y-84188929D02*
X67683349Y-84221733D01*
X67457115Y-84173422D02*
X67569884Y-84188929D01*
X67346100Y-84169071D02*
X67457115Y-84173422D01*
X67237896Y-84169735D02*
X67346100Y-84169071D01*
X67310907Y-84169378D02*
X67237896Y-84169735D01*
X67407148Y-84172363D02*
X67310907Y-84169378D01*
X67524001Y-84178457D02*
X67407148Y-84172363D01*
X67658850Y-84187431D02*
X67524001Y-84178457D01*
X67809077Y-84199050D02*
X67658850Y-84187431D01*
X67972064Y-84213085D02*
X67809077Y-84199050D01*
X68145196Y-84229302D02*
X67972064Y-84213085D01*
X68325853Y-84247471D02*
X68145196Y-84229302D01*
X68511419Y-84267358D02*
X68325853Y-84247471D01*
X68699277Y-84288734D02*
X68511419Y-84267358D01*
X68886809Y-84311365D02*
X68699277Y-84288734D01*
X69240877Y-85298948D02*
X69159537Y-85105265D01*
X69331604Y-85443716D02*
X69240877Y-85298948D01*
X69428548Y-85544752D02*
X69331604Y-85443716D01*
X69528538Y-85607243D02*
X69428548Y-85544752D01*
X69628401Y-85636373D02*
X69528538Y-85607243D01*
X69724967Y-85637329D02*
X69628401Y-85636373D01*
X69815064Y-85615295D02*
X69724967Y-85637329D01*
X69900274Y-85540119D02*
X69815064Y-85615295D01*
X69933193Y-85429385D02*
X69900274Y-85540119D01*
X69933327Y-85369769D02*
X69933193Y-85429385D01*
X69934260Y-85238935D02*
X69933327Y-85369769D01*
X69936793Y-85108905D02*
X69934260Y-85238935D01*
X69935996Y-85013701D02*
X69936793Y-85108905D01*
X69949567Y-84906921D02*
X69935996Y-85013701D01*
X70009667Y-84819194D02*
X69949567Y-84906921D01*
X70148455Y-84781145D02*
X70009667Y-84819194D01*
X70278522Y-84800550D02*
X70148455Y-84781145D01*
X70395439Y-84856883D02*
X70278522Y-84800550D01*
X70501597Y-84947322D02*
X70395439Y-84856883D01*
X70599385Y-85069045D02*
X70501597Y-84947322D01*
X70659573Y-85163575D02*
X70599385Y-85069045D01*
X70717893Y-85269348D02*
X70659573Y-85163575D01*
X70775000Y-85385591D02*
X70717893Y-85269348D01*
X70831550Y-85511531D02*
X70775000Y-85385591D01*
X70888198Y-85646395D02*
X70831550Y-85511531D01*
X70881185Y-85629617D02*
X70888198Y-85646395D01*
X70860587Y-85581240D02*
X70881185Y-85629617D01*
X70827068Y-85504201D02*
X70860587Y-85581240D01*
X70781294Y-85401434D02*
X70827068Y-85504201D01*
X70723927Y-85275877D02*
X70781294Y-85401434D01*
X70655633Y-85130464D02*
X70723927Y-85275877D01*
X70577075Y-84968132D02*
X70655633Y-85130464D01*
X70488917Y-84791816D02*
X70577075Y-84968132D01*
X70391824Y-84604452D02*
X70488917Y-84791816D01*
X70286459Y-84408977D02*
X70391824Y-84604452D01*
X70173488Y-84208326D02*
X70286459Y-84408977D01*
X70053573Y-84005435D02*
X70173488Y-84208326D01*
X71570264Y-85395671D02*
X71418415Y-85509575D01*
X71719546Y-85309005D02*
X71570264Y-85395671D01*
X71863695Y-85247737D02*
X71719546Y-85309005D01*
X72000146Y-85210028D02*
X71863695Y-85247737D01*
X72126332Y-85194041D02*
X72000146Y-85210028D01*
X72239686Y-85197935D02*
X72126332Y-85194041D01*
X72337642Y-85219872D02*
X72239686Y-85197935D01*
X72417633Y-85258014D02*
X72337642Y-85219872D01*
X72477095Y-85310521D02*
X72417633Y-85258014D01*
X72513459Y-85375554D02*
X72477095Y-85310521D01*
X72524159Y-85451275D02*
X72513459Y-85375554D01*
X72492947Y-85548176D02*
X72524159Y-85451275D01*
X72417473Y-85617468D02*
X72492947Y-85548176D01*
X72312662Y-85658852D02*
X72417473Y-85617468D01*
X72193439Y-85672028D02*
X72312662Y-85658852D01*
X72074729Y-85656697D02*
X72193439Y-85672028D01*
X71971458Y-85612561D02*
X72074729Y-85656697D01*
X71898550Y-85539320D02*
X71971458Y-85612561D01*
X71870930Y-85436675D02*
X71898550Y-85539320D01*
X71871556Y-85409344D02*
X71870930Y-85436675D01*
X71873499Y-85330927D02*
X71871556Y-85409344D01*
X71876862Y-85206785D02*
X71873499Y-85330927D01*
X71881745Y-85042280D02*
X71876862Y-85206785D01*
X71888251Y-84842772D02*
X71881745Y-85042280D01*
X71896480Y-84613625D02*
X71888251Y-84842772D01*
X71405589Y-84540681D02*
X71356380Y-84573565D01*
X71525617Y-84463415D02*
X71405589Y-84540681D01*
X71675068Y-84373849D02*
X71525617Y-84463415D01*
X71812544Y-84304065D02*
X71675068Y-84373849D01*
X72870956Y-85095597D02*
X72983978Y-85258225D01*
X72774500Y-84943640D02*
X72870956Y-85095597D01*
X72693013Y-84801008D02*
X72774500Y-84943640D01*
X72624894Y-84666358D02*
X72693013Y-84801008D01*
X72568545Y-84538346D02*
X72624894Y-84666358D01*
X72522367Y-84415628D02*
X72568545Y-84538346D01*
X72484761Y-84296859D02*
X72522367Y-84415628D01*
X72454128Y-84180695D02*
X72484761Y-84296859D01*
X72428869Y-84065791D02*
X72454128Y-84180695D01*
X72407384Y-83950805D02*
X72428869Y-84065791D01*
X72270199Y-84318965D02*
X72086243Y-84267675D01*
X72457730Y-84350837D02*
X72270199Y-84318965D01*
X72637217Y-84367491D02*
X72457730Y-84350837D01*
X72797042Y-84373130D02*
X72637217Y-84367491D01*
X72925587Y-84371956D02*
X72797042Y-84373130D01*
X73011235Y-84368171D02*
X72925587Y-84371956D01*
X73042365Y-84365975D02*
X73011235Y-84368171D01*
X57826471Y-82758223D02*
X57803741Y-82812981D01*
X57881341Y-82735543D02*
X57826471Y-82758223D01*
X57936211Y-82758223D02*
X57881341Y-82735543D01*
X57958941Y-82812981D02*
X57936211Y-82758223D01*
X57936211Y-82867739D02*
X57958941Y-82812981D01*
X57881341Y-82890419D02*
X57936211Y-82867739D01*
X57826471Y-82867739D02*
X57881341Y-82890419D01*
X57803741Y-82812981D02*
X57826471Y-82867739D01*
X57881534Y-82419728D02*
X57881320Y-82449895D01*
X57882052Y-82336508D02*
X57881534Y-82419728D01*
X57882692Y-82211162D02*
X57882052Y-82336508D01*
X57883270Y-82054611D02*
X57882692Y-82211162D01*
X57883606Y-81877781D02*
X57883270Y-82054611D01*
X57883514Y-81691596D02*
X57883606Y-81877781D01*
X57882813Y-81506979D02*
X57883514Y-81691596D01*
X57881320Y-81334855D02*
X57882813Y-81506979D01*
X59268890Y-82793191D02*
X59230734Y-82931485D01*
X59339115Y-82666245D02*
X59268890Y-82793191D01*
X59459255Y-82570173D02*
X59339115Y-82666245D01*
X59587112Y-82538150D02*
X59459255Y-82570173D01*
X59723603Y-82547785D02*
X59587112Y-82538150D01*
X59814598Y-82593644D02*
X59723603Y-82547785D01*
X59870650Y-82682726D02*
X59814598Y-82593644D01*
X59865060Y-82790945D02*
X59870650Y-82682726D01*
X59822717Y-82855768D02*
X59865060Y-82790945D01*
X59743293Y-82912588D02*
X59822717Y-82855768D01*
X59617804Y-82949505D02*
X59743293Y-82912588D01*
X59466698Y-82961553D02*
X59617804Y-82949505D01*
X59321968Y-82951721D02*
X59466698Y-82961553D01*
X59187820Y-82920583D02*
X59321968Y-82951721D01*
X59068460Y-82868712D02*
X59187820Y-82920583D01*
X58968094Y-82796683D02*
X59068460Y-82868712D01*
X58890929Y-82705068D02*
X58968094Y-82796683D01*
X58841170Y-82594440D02*
X58890929Y-82705068D01*
X58823024Y-82465375D02*
X58841170Y-82594440D01*
X58845361Y-82323848D02*
X58823024Y-82465375D01*
X58908503Y-82213173D02*
X58845361Y-82323848D01*
X59003333Y-82130784D02*
X58908503Y-82213173D01*
X59120732Y-82074114D02*
X59003333Y-82130784D01*
X59251583Y-82040597D02*
X59120732Y-82074114D01*
X59386767Y-82027666D02*
X59251583Y-82040597D01*
X59517167Y-82032755D02*
X59386767Y-82027666D01*
X59648042Y-82052354D02*
X59517167Y-82032755D01*
X59758201Y-82083971D02*
X59648042Y-82052354D01*
X59861335Y-82133185D02*
X59758201Y-82083971D01*
X59971136Y-82205576D02*
X59861335Y-82133185D01*
X60101294Y-82306722D02*
X59971136Y-82205576D01*
X60265500Y-82442205D02*
X60101294Y-82306722D01*
X60239694Y-82419480D02*
X60265500Y-82442205D01*
X60168579Y-82356949D02*
X60239694Y-82419480D01*
X60061613Y-82263075D02*
X60168579Y-82356949D01*
X59928253Y-82146319D02*
X60061613Y-82263075D01*
X59777956Y-82015146D02*
X59928253Y-82146319D01*
X59620180Y-81878018D02*
X59777956Y-82015146D01*
X59464381Y-81743399D02*
X59620180Y-81878018D01*
X59320017Y-81619751D02*
X59464381Y-81743399D01*
X59196545Y-81515537D02*
X59320017Y-81619751D01*
X59103422Y-81439221D02*
X59196545Y-81515537D01*
X59050105Y-81399265D02*
X59103422Y-81439221D01*
X59097103Y-81401974D02*
X59050105Y-81399265D01*
X59220069Y-81408959D02*
X59097103Y-81401974D01*
X59391967Y-81418511D02*
X59220069Y-81408959D01*
X59585757Y-81428918D02*
X59391967Y-81418511D01*
X59774400Y-81438470D02*
X59585757Y-81428918D01*
X59930860Y-81445456D02*
X59774400Y-81438470D01*
X60028097Y-81448165D02*
X59930860Y-81445456D01*
X61496527Y-82956698D02*
X61207624Y-82929155D01*
X61716678Y-82961306D02*
X61496527Y-82956698D01*
X61878865Y-82947694D02*
X61716678Y-82961306D01*
X61993878Y-82920576D02*
X61878865Y-82947694D01*
X62072503Y-82884668D02*
X61993878Y-82920576D01*
X62125529Y-82844682D02*
X62072503Y-82884668D01*
X62163744Y-82805335D02*
X62125529Y-82844682D01*
X62213864Y-82694690D02*
X62163744Y-82805335D01*
X62212079Y-82551673D02*
X62213864Y-82694690D01*
X62171044Y-82397455D02*
X62212079Y-82551673D01*
X61075421Y-81926453D02*
X60893783Y-81873025D01*
X61248147Y-81965653D02*
X61075421Y-81926453D01*
X61412027Y-81992569D02*
X61248147Y-81965653D01*
X61567126Y-82009149D02*
X61412027Y-81992569D01*
X61713511Y-82017336D02*
X61567126Y-82009149D01*
X61851247Y-82019078D02*
X61713511Y-82017336D01*
X61980400Y-82016319D02*
X61851247Y-82019078D01*
X62101036Y-82011005D02*
X61980400Y-82016319D01*
X62213220Y-82005082D02*
X62101036Y-82011005D01*
X62317017Y-82000495D02*
X62213220Y-82005082D01*
X61422529Y-82406073D02*
X61474024Y-82397425D01*
X61285882Y-82427677D02*
X61422529Y-82406073D01*
X61090846Y-82455725D02*
X61285882Y-82427677D01*
X61147318Y-82345124D02*
X61090846Y-82455725D01*
X61208506Y-82219987D02*
X61147318Y-82345124D01*
X61272636Y-82084389D02*
X61208506Y-82219987D01*
X61337939Y-81942407D02*
X61272636Y-82084389D01*
X61402640Y-81798118D02*
X61337939Y-81942407D01*
X61464969Y-81655597D02*
X61402640Y-81798118D01*
X61523153Y-81518923D02*
X61464969Y-81655597D01*
X61575420Y-81392170D02*
X61523153Y-81518923D01*
X61619997Y-81279415D02*
X61575420Y-81392170D01*
X61187336Y-81501565D02*
X61039756Y-81461495D01*
X61331311Y-81532430D02*
X61187336Y-81501565D01*
X61472403Y-81554869D02*
X61331311Y-81532430D01*
X61611332Y-81569661D02*
X61472403Y-81554869D01*
X61748820Y-81577585D02*
X61611332Y-81569661D01*
X61885587Y-81579421D02*
X61748820Y-81577585D01*
X62022354Y-81575948D02*
X61885587Y-81579421D01*
X62159841Y-81567946D02*
X62022354Y-81575948D01*
X62298770Y-81556195D02*
X62159841Y-81567946D01*
X62929162Y-82000486D02*
X62893897Y-82061045D01*
X63007434Y-81871830D02*
X62929162Y-82000486D01*
X63087431Y-81754605D02*
X63007434Y-81871830D01*
X63211084Y-82148951D02*
X63179354Y-82206749D01*
X63285247Y-82022481D02*
X63211084Y-82148951D01*
X63370309Y-81897729D02*
X63285247Y-82022481D01*
X63348243Y-82938954D02*
X63170006Y-82959775D01*
X63504554Y-82898848D02*
X63348243Y-82938954D01*
X63638615Y-82841134D02*
X63504554Y-82898848D01*
X63750101Y-82767486D02*
X63638615Y-82841134D01*
X63838690Y-82679582D02*
X63750101Y-82767486D01*
X63904058Y-82579096D02*
X63838690Y-82679582D01*
X63945880Y-82467705D02*
X63904058Y-82579096D01*
X63963832Y-82347085D02*
X63945880Y-82467705D01*
X63960909Y-82221283D02*
X63963832Y-82347085D01*
X63935455Y-82089034D02*
X63960909Y-82221283D01*
X63879632Y-81955465D02*
X63935455Y-82089034D01*
X63773970Y-81792073D02*
X63879632Y-81955465D01*
X63664769Y-81670539D02*
X63773970Y-81792073D01*
X63553089Y-81584722D02*
X63664769Y-81670539D01*
X63439987Y-81528482D02*
X63553089Y-81584722D01*
X63326522Y-81495679D02*
X63439987Y-81528482D01*
X63213753Y-81480172D02*
X63326522Y-81495679D01*
X63102738Y-81475821D02*
X63213753Y-81480172D01*
X62994535Y-81476485D02*
X63102738Y-81475821D01*
X63067546Y-81476128D02*
X62994535Y-81476485D01*
X63163787Y-81479113D02*
X63067546Y-81476128D01*
X63280641Y-81485209D02*
X63163787Y-81479113D01*
X63415489Y-81494183D02*
X63280641Y-81485209D01*
X63565716Y-81505804D02*
X63415489Y-81494183D01*
X63728704Y-81519840D02*
X63565716Y-81505804D01*
X63901835Y-81536059D02*
X63728704Y-81519840D01*
X64082492Y-81554229D02*
X63901835Y-81536059D01*
X64268058Y-81574117D02*
X64082492Y-81554229D01*
X64455916Y-81595493D02*
X64268058Y-81574117D01*
X64643447Y-81618125D02*
X64455916Y-81595493D01*
X65295018Y-82142161D02*
X65379965Y-82061045D01*
X65220960Y-82244410D02*
X65295018Y-82142161D01*
X65167700Y-82365709D02*
X65220960Y-82244410D01*
X65145144Y-82503975D02*
X65167700Y-82365709D01*
X65161649Y-82642972D02*
X65145144Y-82503975D01*
X65214299Y-82752749D02*
X65161649Y-82642972D01*
X65295507Y-82836283D02*
X65214299Y-82752749D01*
X65397682Y-82896549D02*
X65295507Y-82836283D01*
X65513237Y-82936524D02*
X65397682Y-82896549D01*
X65634584Y-82959184D02*
X65513237Y-82936524D01*
X65754132Y-82967505D02*
X65634584Y-82959184D01*
X65882916Y-82957622D02*
X65754132Y-82967505D01*
X65995644Y-82921916D02*
X65882916Y-82957622D01*
X66088301Y-82859027D02*
X65995644Y-82921916D01*
X66156874Y-82767597D02*
X66088301Y-82859027D01*
X66197350Y-82646266D02*
X66156874Y-82767597D01*
X66205713Y-82493675D02*
X66197350Y-82646266D01*
X66196777Y-82361204D02*
X66205713Y-82493675D01*
X66184061Y-82218534D02*
X66196777Y-82361204D01*
X66168382Y-82068260D02*
X66184061Y-82218534D01*
X66150555Y-81912977D02*
X66168382Y-82068260D01*
X66131398Y-81755280D02*
X66150555Y-81912977D01*
X66111727Y-81597764D02*
X66131398Y-81755280D01*
X66092359Y-81443024D02*
X66111727Y-81597764D01*
X66074108Y-81293655D02*
X66092359Y-81443024D01*
X65848037Y-82235203D02*
X65622529Y-82215525D01*
X66038201Y-82242312D02*
X65848037Y-82235203D01*
X66200018Y-82238472D02*
X66038201Y-82242312D01*
X66340483Y-82225303D02*
X66200018Y-82238472D01*
X66466595Y-82204425D02*
X66340483Y-82225303D01*
X66585349Y-82177459D02*
X66466595Y-82204425D01*
X66703741Y-82146025D02*
X66585349Y-82177459D01*
X65852054Y-81696068D02*
X65617368Y-81682475D01*
X66050223Y-81698443D02*
X65852054Y-81696068D01*
X66216117Y-81691627D02*
X66050223Y-81698443D01*
X66353980Y-81677645D02*
X66216117Y-81691627D01*
X66468054Y-81658525D02*
X66353980Y-81677645D01*
X66562583Y-81636293D02*
X66468054Y-81658525D01*
X66641809Y-81612975D02*
X66562583Y-81636293D01*
X67172522Y-82000486D02*
X67137257Y-82061045D01*
X67250794Y-81871830D02*
X67172522Y-82000486D01*
X67330792Y-81754605D02*
X67250794Y-81871830D01*
X67454444Y-82148951D02*
X67422715Y-82206749D01*
X67528607Y-82022481D02*
X67454444Y-82148951D01*
X67613669Y-81897729D02*
X67528607Y-82022481D01*
X67591603Y-82938954D02*
X67413366Y-82959775D01*
X67747914Y-82898848D02*
X67591603Y-82938954D01*
X67881974Y-82841134D02*
X67747914Y-82898848D01*
X67993461Y-82767486D02*
X67881974Y-82841134D01*
X68082050Y-82679582D02*
X67993461Y-82767486D01*
X68147417Y-82579096D02*
X68082050Y-82679582D01*
X68189239Y-82467705D02*
X68147417Y-82579096D01*
X68207191Y-82347085D02*
X68189239Y-82467705D01*
X68204268Y-82221283D02*
X68207191Y-82347085D01*
X68178814Y-82089034D02*
X68204268Y-82221283D01*
X68122991Y-81955465D02*
X68178814Y-82089034D01*
X68017329Y-81792073D02*
X68122991Y-81955465D01*
X67908129Y-81670539D02*
X68017329Y-81792073D01*
X67796448Y-81584722D02*
X67908129Y-81670539D01*
X67683347Y-81528482D02*
X67796448Y-81584722D01*
X67569882Y-81495679D02*
X67683347Y-81528482D01*
X67457113Y-81480172D02*
X67569882Y-81495679D01*
X67346098Y-81475821D02*
X67457113Y-81480172D01*
X67237894Y-81476485D02*
X67346098Y-81475821D01*
X67310905Y-81476128D02*
X67237894Y-81476485D01*
X67407146Y-81479113D02*
X67310905Y-81476128D01*
X67524000Y-81485209D02*
X67407146Y-81479113D01*
X67658849Y-81494183D02*
X67524000Y-81485209D01*
X67809076Y-81505804D02*
X67658849Y-81494183D01*
X67972064Y-81519840D02*
X67809076Y-81505804D01*
X68145195Y-81536059D02*
X67972064Y-81519840D01*
X68325852Y-81554229D02*
X68145195Y-81536059D01*
X68511418Y-81574117D02*
X68325852Y-81554229D01*
X68699276Y-81595493D02*
X68511418Y-81574117D01*
X68886807Y-81618125D02*
X68699276Y-81595493D01*
X69240876Y-82605702D02*
X69159537Y-82412015D01*
X69331603Y-82750472D02*
X69240876Y-82605702D01*
X69428547Y-82851510D02*
X69331603Y-82750472D01*
X69528537Y-82914001D02*
X69428547Y-82851510D01*
X69628400Y-82943133D02*
X69528537Y-82914001D01*
X69724966Y-82944088D02*
X69628400Y-82943133D01*
X69815063Y-82922055D02*
X69724966Y-82944088D01*
X69900235Y-82846837D02*
X69815063Y-82922055D01*
X69933192Y-82736145D02*
X69900235Y-82846837D01*
X69933326Y-82676526D02*
X69933192Y-82736145D01*
X69934259Y-82545690D02*
X69933326Y-82676526D01*
X69936792Y-82415665D02*
X69934259Y-82545690D01*
X69935995Y-82320455D02*
X69936792Y-82415665D01*
X69949566Y-82213672D02*
X69935995Y-82320455D01*
X70009665Y-82125944D02*
X69949566Y-82213672D01*
X70148453Y-82087895D02*
X70009665Y-82125944D01*
X70278520Y-82107300D02*
X70148453Y-82087895D01*
X70395436Y-82163634D02*
X70278520Y-82107300D01*
X70501595Y-82254076D02*
X70395436Y-82163634D01*
X70599384Y-82375805D02*
X70501595Y-82254076D01*
X70659571Y-82470329D02*
X70599384Y-82375805D01*
X70717891Y-82576100D02*
X70659571Y-82470329D01*
X70774998Y-82692341D02*
X70717891Y-82576100D01*
X70831548Y-82818281D02*
X70774998Y-82692341D01*
X70888196Y-82953145D02*
X70831548Y-82818281D01*
X70881183Y-82936367D02*
X70888196Y-82953145D01*
X70860585Y-82887990D02*
X70881183Y-82936367D01*
X70827066Y-82810951D02*
X70860585Y-82887990D01*
X70781291Y-82708184D02*
X70827066Y-82810951D01*
X70723925Y-82582626D02*
X70781291Y-82708184D01*
X70655630Y-82437214D02*
X70723925Y-82582626D01*
X70577072Y-82274881D02*
X70655630Y-82437214D01*
X70488914Y-82098566D02*
X70577072Y-82274881D01*
X70391821Y-81911202D02*
X70488914Y-82098566D01*
X70286456Y-81715727D02*
X70391821Y-81911202D01*
X70173485Y-81515076D02*
X70286456Y-81715727D01*
X70053570Y-81312185D02*
X70173485Y-81515076D01*
X71570261Y-82702421D02*
X71418411Y-82816325D01*
X71719546Y-82615754D02*
X71570261Y-82702421D01*
X71863700Y-82554486D02*
X71719546Y-82615754D01*
X72000155Y-82516778D02*
X71863700Y-82554486D01*
X72126345Y-82500790D02*
X72000155Y-82516778D01*
X72239702Y-82504685D02*
X72126345Y-82500790D01*
X72337659Y-82526622D02*
X72239702Y-82504685D01*
X72417650Y-82564764D02*
X72337659Y-82526622D01*
X72477108Y-82617270D02*
X72417650Y-82564764D01*
X72513465Y-82682304D02*
X72477108Y-82617270D01*
X72524154Y-82758025D02*
X72513465Y-82682304D01*
X72492943Y-82854929D02*
X72524154Y-82758025D01*
X72417469Y-82924224D02*
X72492943Y-82854929D01*
X72312658Y-82965609D02*
X72417469Y-82924224D01*
X72193435Y-82978785D02*
X72312658Y-82965609D01*
X72074725Y-82963454D02*
X72193435Y-82978785D01*
X71971454Y-82919316D02*
X72074725Y-82963454D01*
X71898546Y-82846073D02*
X71971454Y-82919316D01*
X71870926Y-82743425D02*
X71898546Y-82846073D01*
X71871552Y-82716094D02*
X71870926Y-82743425D01*
X71873495Y-82637677D02*
X71871552Y-82716094D01*
X71876858Y-82513535D02*
X71873495Y-82637677D01*
X71881741Y-82349029D02*
X71876858Y-82513535D01*
X71888247Y-82149522D02*
X71881741Y-82349029D01*
X71896476Y-81920375D02*
X71888247Y-82149522D01*
X71405586Y-81847430D02*
X71356377Y-81880315D01*
X71525614Y-81770165D02*
X71405586Y-81847430D01*
X71675065Y-81680599D02*
X71525614Y-81770165D01*
X71812541Y-81610815D02*
X71675065Y-81680599D01*
X72870951Y-82402347D02*
X72983973Y-82564975D01*
X72774496Y-82250389D02*
X72870951Y-82402347D01*
X72693010Y-82107758D02*
X72774496Y-82250389D01*
X72624892Y-81973109D02*
X72693010Y-82107758D01*
X72568544Y-81845097D02*
X72624892Y-81973109D01*
X72522367Y-81722380D02*
X72568544Y-81845097D01*
X72484761Y-81603612D02*
X72522367Y-81722380D01*
X72454128Y-81487449D02*
X72484761Y-81603612D01*
X72428867Y-81372548D02*
X72454128Y-81487449D01*
X72407380Y-81257565D02*
X72428867Y-81372548D01*
X72270196Y-81625746D02*
X72086241Y-81574425D01*
X72457727Y-81657630D02*
X72270196Y-81625746D01*
X72637213Y-81674283D02*
X72457727Y-81657630D01*
X72797039Y-81679912D02*
X72637213Y-81674283D01*
X72925584Y-81678724D02*
X72797039Y-81679912D01*
X73011231Y-81674926D02*
X72925584Y-81678724D01*
X73042362Y-81672725D02*
X73011231Y-81674926D01*
X56504090Y-85771805D02*
X56504090Y-84398835D01*
X57113528Y-85771805D02*
X56504090Y-85771805D01*
X73999105Y-81162915D02*
X73999105Y-82535885D01*
X73389668Y-81162915D02*
X73999105Y-81162915D01*
D14*
X74417792Y-92163122D02*
X74269045Y-92279155D01*
X74523843Y-92066995D02*
X74417792Y-92163122D01*
X74599893Y-91981617D02*
X74523843Y-92066995D01*
X74658638Y-91897828D02*
X74599893Y-91981617D01*
X74712773Y-91806470D02*
X74658638Y-91897828D01*
X74774993Y-91698385D02*
X74712773Y-91806470D01*
X74857993Y-91564415D02*
X74774993Y-91698385D01*
X74970935Y-91409153D02*
X74857993Y-91564415D01*
X75081094Y-91292566D02*
X74970935Y-91409153D01*
X75187150Y-91213626D02*
X75081094Y-91292566D01*
X75287783Y-91171301D02*
X75187150Y-91213626D01*
X75381673Y-91164562D02*
X75287783Y-91171301D01*
X75467497Y-91192378D02*
X75381673Y-91164562D01*
X86908134Y-88647408D02*
X86942649Y-88657075D01*
X86810113Y-88623930D02*
X86908134Y-88647408D01*
X86656868Y-88594930D02*
X86810113Y-88623930D01*
X86456683Y-88568692D02*
X86656868Y-88594930D01*
X86217842Y-88553505D02*
X86456683Y-88568692D01*
X87384115Y-88867615D02*
X87351717Y-88843125D01*
X87472840Y-88934087D02*
X87384115Y-88867615D01*
X87605193Y-89032047D02*
X87472840Y-88934087D01*
X87768470Y-89150998D02*
X87605193Y-89032047D01*
X87949971Y-89280445D02*
X87768470Y-89150998D01*
X88016347Y-89337168D02*
X87949971Y-89280445D01*
X88097305Y-89422528D02*
X88016347Y-89337168D01*
X88190317Y-89532298D02*
X88097305Y-89422528D01*
X88292859Y-89662253D02*
X88190317Y-89532298D01*
X88402405Y-89808167D02*
X88292859Y-89662253D01*
X88516427Y-89965814D02*
X88402405Y-89808167D01*
X88632401Y-90130969D02*
X88516427Y-89965814D01*
X88747799Y-90299405D02*
X88632401Y-90130969D01*
X88860097Y-90466897D02*
X88747799Y-90299405D01*
X88966768Y-90629219D02*
X88860097Y-90466897D01*
X89065286Y-90782146D02*
X88966768Y-90629219D01*
X89153124Y-90921451D02*
X89065286Y-90782146D01*
X89227758Y-91042910D02*
X89153124Y-90921451D01*
X89286661Y-91142295D02*
X89227758Y-91042910D01*
X89327306Y-91215382D02*
X89286661Y-91142295D01*
X89347168Y-91257945D02*
X89327306Y-91215382D01*
X89084048Y-91203014D02*
X89036537Y-91188895D01*
X89205701Y-91240471D02*
X89084048Y-91203014D01*
X89370178Y-91293911D02*
X89205701Y-91240471D01*
X89546160Y-91355982D02*
X89370178Y-91293911D01*
X89702328Y-91419331D02*
X89546160Y-91355982D01*
X89807363Y-91476605D02*
X89702328Y-91419331D01*
X89882685Y-91590067D02*
X89807363Y-91476605D01*
X89918098Y-91745600D02*
X89882685Y-91590067D01*
X89938411Y-91898980D02*
X89918098Y-91745600D01*
X89968432Y-92005985D02*
X89938411Y-91898980D01*
X90062559Y-92118390D02*
X89968432Y-92005985D01*
X90177104Y-92230689D02*
X90062559Y-92118390D01*
X90232882Y-92281715D02*
X90177104Y-92230689D01*
X87989593Y-90107125D02*
X87932068Y-92279355D01*
X87099941Y-92104538D02*
X87126240Y-92269695D01*
X87070908Y-91935447D02*
X87099941Y-92104538D01*
X87039382Y-91763121D02*
X87070908Y-91935447D01*
X87005607Y-91588256D02*
X87039382Y-91763121D01*
X86969825Y-91411550D02*
X87005607Y-91588256D01*
X86932278Y-91233701D02*
X86969825Y-91411550D01*
X86893210Y-91055405D02*
X86932278Y-91233701D01*
X86852862Y-90877361D02*
X86893210Y-91055405D01*
X86811478Y-90700266D02*
X86852862Y-90877361D01*
X86769301Y-90524818D02*
X86811478Y-90700266D01*
X86726571Y-90351713D02*
X86769301Y-90524818D01*
X86683533Y-90181650D02*
X86726571Y-90351713D01*
X86640429Y-90015326D02*
X86683533Y-90181650D01*
X86597502Y-89853439D02*
X86640429Y-90015326D01*
X86554994Y-89696686D02*
X86597502Y-89853439D01*
X86513147Y-89545764D02*
X86554994Y-89696686D01*
X86472205Y-89401371D02*
X86513147Y-89545764D01*
X86432410Y-89264205D02*
X86472205Y-89401371D01*
X86394004Y-89134963D02*
X86432410Y-89264205D01*
X86357230Y-89014342D02*
X86394004Y-89134963D01*
X86322332Y-88903040D02*
X86357230Y-89014342D01*
X86289550Y-88801755D02*
X86322332Y-88903040D01*
X86259129Y-88711184D02*
X86289550Y-88801755D01*
X86231310Y-88632025D02*
X86259129Y-88711184D01*
X86206337Y-88564975D02*
X86231310Y-88632025D01*
X86087526Y-88449025D02*
X86206337Y-88564975D01*
X85955806Y-88373398D02*
X86087526Y-88449025D01*
X85816908Y-88332156D02*
X85955806Y-88373398D01*
X85676559Y-88319360D02*
X85816908Y-88332156D01*
X85540490Y-88329075D02*
X85676559Y-88319360D01*
X85414431Y-88355361D02*
X85540490Y-88329075D01*
X85304111Y-88392282D02*
X85414431Y-88355361D01*
X85215259Y-88433900D02*
X85304111Y-88392282D01*
X85153605Y-88474276D02*
X85215259Y-88433900D01*
X85124878Y-88507475D02*
X85153605Y-88474276D01*
X85124834Y-88531945D02*
X85124878Y-88507475D01*
X85132587Y-88581958D02*
X85124834Y-88531945D01*
X85147542Y-88655556D02*
X85132587Y-88581958D01*
X85169101Y-88750782D02*
X85147542Y-88655556D01*
X85196669Y-88865679D02*
X85169101Y-88750782D01*
X85229648Y-88998292D02*
X85196669Y-88865679D01*
X85267443Y-89146662D02*
X85229648Y-88998292D01*
X85309457Y-89308833D02*
X85267443Y-89146662D01*
X85355094Y-89482848D02*
X85309457Y-89308833D01*
X85403757Y-89666750D02*
X85355094Y-89482848D01*
X85454849Y-89858582D02*
X85403757Y-89666750D01*
X85507776Y-90056388D02*
X85454849Y-89858582D01*
X85561939Y-90258211D02*
X85507776Y-90056388D01*
X85616742Y-90462093D02*
X85561939Y-90258211D01*
X85671590Y-90666079D02*
X85616742Y-90462093D01*
X85725886Y-90868210D02*
X85671590Y-90666079D01*
X85779033Y-91066531D02*
X85725886Y-90868210D01*
X85830435Y-91259084D02*
X85779033Y-91066531D01*
X85879495Y-91443912D02*
X85830435Y-91259084D01*
X85925618Y-91619059D02*
X85879495Y-91443912D01*
X85968206Y-91782568D02*
X85925618Y-91619059D01*
X86006664Y-91932482D02*
X85968206Y-91782568D01*
X86040394Y-92066844D02*
X86006664Y-91932482D01*
X86068801Y-92183697D02*
X86040394Y-92066844D01*
X86091288Y-92281085D02*
X86068801Y-92183697D01*
X85251520Y-92177867D02*
X85251438Y-92267055D01*
X85251713Y-92071398D02*
X85251520Y-92177867D01*
X85251936Y-91949433D02*
X85251713Y-92071398D01*
X85252108Y-91813757D02*
X85251936Y-91949433D01*
X85252150Y-91666157D02*
X85252108Y-91813757D01*
X85251980Y-91508417D02*
X85252150Y-91666157D01*
X85251519Y-91342324D02*
X85251980Y-91508417D01*
X85250685Y-91169662D02*
X85251519Y-91342324D01*
X85249398Y-90992218D02*
X85250685Y-91169662D01*
X85247577Y-90811778D02*
X85249398Y-90992218D01*
X85245143Y-90630126D02*
X85247577Y-90811778D01*
X85242015Y-90449048D02*
X85245143Y-90630126D01*
X85238111Y-90270330D02*
X85242015Y-90449048D01*
X85233352Y-90095758D02*
X85238111Y-90270330D01*
X85227657Y-89927117D02*
X85233352Y-90095758D01*
X85220946Y-89766192D02*
X85227657Y-89927117D01*
X85213137Y-89614770D02*
X85220946Y-89766192D01*
X85204152Y-89474636D02*
X85213137Y-89614770D01*
X85193908Y-89347575D02*
X85204152Y-89474636D01*
X79666239Y-92045475D02*
X79671728Y-92293375D01*
X79664008Y-91805291D02*
X79666239Y-92045475D01*
X79664823Y-91572862D02*
X79664008Y-91805291D01*
X79668467Y-91348227D02*
X79664823Y-91572862D01*
X79674727Y-91131427D02*
X79668467Y-91348227D01*
X79683387Y-90922500D02*
X79674727Y-91131427D01*
X79694234Y-90721487D02*
X79683387Y-90922500D01*
X79707053Y-90528428D02*
X79694234Y-90721487D01*
X79721628Y-90343361D02*
X79707053Y-90528428D01*
X79737747Y-90166327D02*
X79721628Y-90343361D01*
X79755193Y-89997366D02*
X79737747Y-90166327D01*
X79773753Y-89836516D02*
X79755193Y-89997366D01*
X79793211Y-89683818D02*
X79773753Y-89836516D01*
X79813354Y-89539312D02*
X79793211Y-89683818D01*
X79833966Y-89403036D02*
X79813354Y-89539312D01*
X79854834Y-89275032D02*
X79833966Y-89403036D01*
X79875742Y-89155338D02*
X79854834Y-89275032D01*
X79896476Y-89043994D02*
X79875742Y-89155338D01*
X79916821Y-88941040D02*
X79896476Y-89043994D01*
X79936563Y-88846515D02*
X79916821Y-88941040D01*
X79955487Y-88760459D02*
X79936563Y-88846515D01*
X79973379Y-88682913D02*
X79955487Y-88760459D01*
X79990024Y-88613915D02*
X79973379Y-88682913D01*
X80005207Y-88553505D02*
X79990024Y-88613915D01*
X78901928Y-92069840D02*
X78877890Y-92279955D01*
X78930336Y-91859322D02*
X78901928Y-92069840D01*
X78962751Y-91649023D02*
X78930336Y-91859322D01*
X78998811Y-91439564D02*
X78962751Y-91649023D01*
X79038153Y-91231567D02*
X78998811Y-91439564D01*
X79080413Y-91025653D02*
X79038153Y-91231567D01*
X79125229Y-90822443D02*
X79080413Y-91025653D01*
X79172238Y-90622558D02*
X79125229Y-90822443D01*
X79221078Y-90426620D02*
X79172238Y-90622558D01*
X79271384Y-90235251D02*
X79221078Y-90426620D01*
X79322795Y-90049071D02*
X79271384Y-90235251D01*
X79374948Y-89868703D02*
X79322795Y-90049071D01*
X79427479Y-89694767D02*
X79374948Y-89868703D01*
X79480026Y-89527884D02*
X79427479Y-89694767D01*
X79532226Y-89368677D02*
X79480026Y-89527884D01*
X79583715Y-89217766D02*
X79532226Y-89368677D01*
X79634132Y-89075773D02*
X79583715Y-89217766D01*
X79683113Y-88943319D02*
X79634132Y-89075773D01*
X79730296Y-88821026D02*
X79683113Y-88943319D01*
X79775316Y-88709515D02*
X79730296Y-88821026D01*
X79817813Y-88609407D02*
X79775316Y-88709515D01*
X79857422Y-88521324D02*
X79817813Y-88609407D01*
X79893781Y-88445886D02*
X79857422Y-88521324D01*
X79926526Y-88383717D02*
X79893781Y-88445886D01*
X79955296Y-88335435D02*
X79926526Y-88383717D01*
X79979727Y-88301664D02*
X79955296Y-88335435D01*
X79999456Y-88283025D02*
X79979727Y-88301664D01*
X79956422Y-88271116D02*
X79999456Y-88283025D01*
X79842547Y-88242702D02*
X79956422Y-88271116D01*
X79680674Y-88208754D02*
X79842547Y-88242702D01*
X79493644Y-88180241D02*
X79680674Y-88208754D01*
X79304299Y-88168136D02*
X79493644Y-88180241D01*
X79135483Y-88183407D02*
X79304299Y-88168136D01*
X79010035Y-88237025D02*
X79135483Y-88183407D01*
X78983559Y-88263250D02*
X79010035Y-88237025D01*
X78954131Y-88302039D02*
X78983559Y-88263250D01*
X78921971Y-88353022D02*
X78954131Y-88302039D01*
X78887297Y-88415827D02*
X78921971Y-88353022D01*
X78850328Y-88490084D02*
X78887297Y-88415827D01*
X78811285Y-88575424D02*
X78850328Y-88490084D01*
X78770385Y-88671474D02*
X78811285Y-88575424D01*
X78727847Y-88777865D02*
X78770385Y-88671474D01*
X78683892Y-88894227D02*
X78727847Y-88777865D01*
X78638738Y-89020189D02*
X78683892Y-88894227D01*
X78592604Y-89155379D02*
X78638738Y-89020189D01*
X78545709Y-89299429D02*
X78592604Y-89155379D01*
X78498273Y-89451967D02*
X78545709Y-89299429D01*
X78450514Y-89612623D02*
X78498273Y-89451967D01*
X78402651Y-89781026D02*
X78450514Y-89612623D01*
X78354904Y-89956807D02*
X78402651Y-89781026D01*
X78307492Y-90139593D02*
X78354904Y-89956807D01*
X78260633Y-90329016D02*
X78307492Y-90139593D01*
X78214548Y-90524704D02*
X78260633Y-90329016D01*
X78169454Y-90726287D02*
X78214548Y-90524704D01*
X78125572Y-90933394D02*
X78169454Y-90726287D01*
X78083119Y-91145656D02*
X78125572Y-90933394D01*
X78042316Y-91362700D02*
X78083119Y-91145656D01*
X78003381Y-91584158D02*
X78042316Y-91362700D01*
X77966534Y-91809659D02*
X78003381Y-91584158D01*
X77931993Y-92038831D02*
X77966534Y-91809659D01*
X77899977Y-92271305D02*
X77931993Y-92038831D01*
D15*
G36*
X88415273Y-81234235D02*
X87661704Y-81878695D01*
X87609932Y-82195175D01*
X87651210Y-82159963D01*
X87757778Y-82069035D01*
X87903738Y-81944449D01*
X88063189Y-81808264D01*
X88210233Y-81682539D01*
X88318970Y-81589333D01*
X88363501Y-81550705D01*
X88415273Y-81234235D01*
X88415273Y-81234235D01*
G37*
X88415273Y-81234235D02*
X87661704Y-81878695D01*
X87609932Y-82195175D01*
X87651210Y-82159963D01*
X87757778Y-82069035D01*
X87903738Y-81944449D01*
X88063189Y-81808264D01*
X88210233Y-81682539D01*
X88318970Y-81589333D01*
X88363501Y-81550705D01*
X88415273Y-81234235D01*
D14*
G36*
X77680898Y-81799315D02*
X77640647Y-81763968D01*
X77556706Y-81680678D01*
X77440362Y-81561615D01*
X77302906Y-81418946D01*
X77155625Y-81264841D01*
X77009808Y-81111468D01*
X76876744Y-80970996D01*
X76767722Y-80855593D01*
X76694031Y-80777427D01*
X76666958Y-80748668D01*
X76766678Y-81206375D01*
X77812336Y-82302445D01*
X77680898Y-81799315D01*
X77680898Y-81799315D01*
G37*
X77680898Y-81799315D02*
X77640647Y-81763968D01*
X77556706Y-81680678D01*
X77440362Y-81561615D01*
X77302906Y-81418946D01*
X77155625Y-81264841D01*
X77009808Y-81111468D01*
X76876744Y-80970996D01*
X76767722Y-80855593D01*
X76694031Y-80777427D01*
X76666958Y-80748668D01*
X76766678Y-81206375D01*
X77812336Y-82302445D01*
X77680898Y-81799315D01*
X84998951Y-88256802D02*
X84888667Y-88317525D01*
X85097552Y-88181640D02*
X84998951Y-88256802D01*
X85184946Y-88093141D02*
X85097552Y-88181640D01*
X85261610Y-87992408D02*
X85184946Y-88093141D01*
X85328020Y-87880546D02*
X85261610Y-87992408D01*
X85384655Y-87758656D02*
X85328020Y-87880546D01*
X85431991Y-87627841D02*
X85384655Y-87758656D01*
X85470504Y-87489206D02*
X85431991Y-87627841D01*
X85500672Y-87343852D02*
X85470504Y-87489206D01*
X85522972Y-87192884D02*
X85500672Y-87343852D01*
X85537879Y-87037404D02*
X85522972Y-87192884D01*
X85545872Y-86878515D02*
X85537879Y-87037404D01*
X85547427Y-86717320D02*
X85545872Y-86878515D01*
X85543021Y-86554922D02*
X85547427Y-86717320D01*
X85533131Y-86392425D02*
X85543021Y-86554922D01*
X85518233Y-86230932D02*
X85533131Y-86392425D01*
X85498805Y-86071545D02*
X85518233Y-86230932D01*
X77185165Y-92243743D02*
X77186026Y-92266905D01*
X77182508Y-92178245D02*
X77185165Y-92243743D01*
X77177947Y-92076397D02*
X77182508Y-92178245D01*
X77171375Y-91944181D02*
X77177947Y-92076397D01*
X77162683Y-91787582D02*
X77171375Y-91944181D01*
X77151763Y-91612583D02*
X77162683Y-91787582D01*
X77138507Y-91425168D02*
X77151763Y-91612583D01*
X77122806Y-91231321D02*
X77138507Y-91425168D01*
X77104554Y-91037025D02*
X77122806Y-91231321D01*
X77083641Y-90848265D02*
X77104554Y-91037025D01*
X77059959Y-90671025D02*
X77083641Y-90848265D01*
X81622711Y-92255983D02*
X81616217Y-92281225D01*
X81642282Y-92185022D02*
X81622711Y-92255983D01*
X81675066Y-92075491D02*
X81642282Y-92185022D01*
X81721198Y-91934536D02*
X81675066Y-92075491D01*
X81780812Y-91769306D02*
X81721198Y-91934536D01*
X81854043Y-91586949D02*
X81780812Y-91769306D01*
X81941026Y-91394613D02*
X81854043Y-91586949D01*
X82041897Y-91199445D02*
X81941026Y-91394613D01*
X82136377Y-91072127D02*
X82041897Y-91199445D01*
X82244164Y-90995535D02*
X82136377Y-91072127D01*
X82360638Y-90961648D02*
X82244164Y-90995535D01*
X82481176Y-90962447D02*
X82360638Y-90961648D01*
X82601158Y-90989909D02*
X82481176Y-90962447D01*
X82715964Y-91036013D02*
X82601158Y-90989909D01*
X82820970Y-91092740D02*
X82715964Y-91036013D01*
X82911558Y-91152068D02*
X82820970Y-91092740D01*
X82983105Y-91205977D02*
X82911558Y-91152068D01*
X83030991Y-91246445D02*
X82983105Y-91205977D01*
X83075717Y-91305039D02*
X83030991Y-91246445D01*
X83123622Y-91398216D02*
X83075717Y-91305039D01*
X83174725Y-91518584D02*
X83123622Y-91398216D01*
X83229044Y-91658751D02*
X83174725Y-91518584D01*
X83286599Y-91811325D02*
X83229044Y-91658751D01*
X83347409Y-91968915D02*
X83286599Y-91811325D01*
X83411493Y-92124129D02*
X83347409Y-91968915D01*
X83478869Y-92269575D02*
X83411493Y-92124129D01*
X83149653Y-91205417D02*
X83077010Y-91246445D01*
X83216590Y-91129943D02*
X83149653Y-91205417D01*
X83277253Y-91025520D02*
X83216590Y-91129943D01*
X83331070Y-90897649D02*
X83277253Y-91025520D01*
X83377470Y-90751828D02*
X83331070Y-90897649D01*
X83415883Y-90593556D02*
X83377470Y-90751828D01*
X83445739Y-90428333D02*
X83415883Y-90593556D01*
X83466467Y-90261657D02*
X83445739Y-90428333D01*
X83477496Y-90099028D02*
X83466467Y-90261657D01*
X83478256Y-89945944D02*
X83477496Y-90099028D01*
X83468176Y-89807905D02*
X83478256Y-89945944D01*
X81960530Y-91102832D02*
X82030065Y-91211915D01*
X81906175Y-90978925D02*
X81960530Y-91102832D01*
X81865403Y-90843110D02*
X81906175Y-90978925D01*
X81836615Y-90698304D02*
X81865403Y-90843110D01*
X81818213Y-90547424D02*
X81836615Y-90698304D01*
X81808599Y-90393387D02*
X81818213Y-90547424D01*
X81806176Y-90239111D02*
X81808599Y-90393387D01*
X81809345Y-90087513D02*
X81806176Y-90239111D01*
X81816509Y-89941509D02*
X81809345Y-90087513D01*
X81826069Y-89804016D02*
X81816509Y-89941509D01*
X81836428Y-89677953D02*
X81826069Y-89804016D01*
X81845988Y-89566235D02*
X81836428Y-89677953D01*
D13*
G36*
X80642653Y-90210855D02*
X80752411Y-90276233D01*
X80825045Y-90377304D01*
X80840087Y-90484875D01*
X80839844Y-90507675D01*
X80743604Y-90643342D01*
X80665034Y-90765534D01*
X80606671Y-90868295D01*
X80505249Y-90878895D01*
X80426719Y-90765911D01*
X80355748Y-90632095D01*
X80291707Y-90480765D01*
X80369765Y-90319472D01*
X80458690Y-90232295D01*
X80550670Y-90200475D01*
X80642660Y-90210855D01*
X80642653Y-90210855D01*
X80642653Y-90210855D01*
G37*
G36*
X81447865Y-87334225D02*
X81522615Y-87351225D01*
X81556845Y-87410225D01*
X81519725Y-87951595D01*
X82561760Y-89388805D01*
X83680304Y-87951095D01*
X83648464Y-87524385D01*
X83662304Y-87480585D01*
X83727958Y-87423547D01*
X83804497Y-87396885D01*
X83883180Y-87404010D01*
X83958140Y-87436785D01*
X84057169Y-87507476D01*
X84162946Y-87603698D01*
X84281032Y-87720875D01*
X84376609Y-87809870D01*
X84479248Y-87895481D01*
X84586637Y-87979538D01*
X84696459Y-88063872D01*
X84806401Y-88150316D01*
X84914149Y-88240698D01*
X85017389Y-88336851D01*
X85113805Y-88440605D01*
X85121805Y-88452005D01*
X85171023Y-88566393D01*
X85207766Y-88693237D01*
X85232908Y-88830686D01*
X85247324Y-88976891D01*
X85251888Y-89130001D01*
X85247475Y-89288167D01*
X85234960Y-89449540D01*
X85215217Y-89612269D01*
X85189120Y-89774503D01*
X85157545Y-89934395D01*
X85121135Y-90089951D01*
X85080352Y-90239174D01*
X85035791Y-90380214D01*
X84988046Y-90511221D01*
X84937712Y-90630345D01*
X84871830Y-90759824D01*
X84802692Y-90864965D01*
X84728851Y-90943851D01*
X84642882Y-90988575D01*
X84502713Y-90996387D01*
X84372715Y-90955375D01*
X84254961Y-90877080D01*
X84143948Y-90772235D01*
X84056053Y-90674586D01*
X83966716Y-90568276D01*
X83874290Y-90456739D01*
X83777126Y-90343414D01*
X83673578Y-90231735D01*
X83553744Y-90100734D01*
X83464744Y-89991629D01*
X83391008Y-89899456D01*
X83316962Y-89819255D01*
X83248267Y-89762771D01*
X83156988Y-89704140D01*
X83039744Y-89641829D01*
X82893154Y-89574308D01*
X82713837Y-89500045D01*
X82711437Y-89507045D01*
X82649708Y-89571016D01*
X82544580Y-89624615D01*
X82425832Y-89649367D01*
X82285497Y-89655296D01*
X82149333Y-89638315D01*
X82151333Y-89638805D01*
X82023843Y-89629163D01*
X81892363Y-89648068D01*
X81758532Y-89692311D01*
X81623989Y-89758682D01*
X81490375Y-89843971D01*
X81359328Y-89944969D01*
X81232489Y-90058465D01*
X81133904Y-90157387D01*
X81040426Y-90259752D01*
X80952634Y-90363455D01*
X80894459Y-90247581D01*
X80799364Y-90154605D01*
X80678944Y-90094585D01*
X80537755Y-90080035D01*
X80394557Y-90128785D01*
X80307487Y-90202751D01*
X80232734Y-90310415D01*
X80194308Y-90180532D01*
X80158935Y-90045688D01*
X80126467Y-89907009D01*
X80096755Y-89765622D01*
X80069651Y-89622655D01*
X80041400Y-89456203D01*
X80016720Y-89291665D01*
X79995545Y-89131006D01*
X79977810Y-88976194D01*
X79963449Y-88829194D01*
X79952394Y-88691973D01*
X79944579Y-88566497D01*
X79939939Y-88454732D01*
X79938407Y-88358645D01*
X79953137Y-88319145D01*
X80026217Y-88239848D01*
X80117270Y-88152028D01*
X80223238Y-88058119D01*
X80341061Y-87960556D01*
X80467681Y-87861771D01*
X80600038Y-87764200D01*
X80735072Y-87670275D01*
X80852910Y-87593193D01*
X80968245Y-87522871D01*
X81079112Y-87461049D01*
X81183547Y-87409465D01*
X81279804Y-87369690D01*
X81367519Y-87343865D01*
X81367645Y-87343865D01*
X81447925Y-87334865D01*
X81447865Y-87334225D01*
X81447865Y-87334225D01*
G37*
D14*
X83684463Y-86978967D02*
X83731883Y-87544935D01*
X81496127Y-87034947D02*
X81470737Y-87474485D01*
X78693602Y-88528873D02*
X78771013Y-88537265D01*
X78572718Y-88537252D02*
X78693602Y-88528873D01*
X78410650Y-88557838D02*
X78572718Y-88537252D01*
X78209686Y-88586065D02*
X78410650Y-88557838D01*
X75321141Y-91447701D02*
X75305428Y-91474905D01*
X75364841Y-91373012D02*
X75321141Y-91447701D01*
X75431373Y-91261217D02*
X75364841Y-91373012D01*
X75515581Y-91122700D02*
X75431373Y-91261217D01*
X75612310Y-90967840D02*
X75515581Y-91122700D01*
X75716405Y-90807019D02*
X75612310Y-90967840D01*
X75822709Y-90650619D02*
X75716405Y-90807019D01*
X75926067Y-90509020D02*
X75822709Y-90650619D01*
X76021323Y-90392605D02*
X75926067Y-90509020D01*
X76095586Y-90305264D02*
X76021323Y-90392605D01*
X76177862Y-90207304D02*
X76095586Y-90305264D01*
X76267267Y-90100693D02*
X76177862Y-90207304D01*
X76362920Y-89987398D02*
X76267267Y-90100693D01*
X76463938Y-89869387D02*
X76362920Y-89987398D01*
X76569440Y-89748628D02*
X76463938Y-89869387D01*
X76678543Y-89627087D02*
X76569440Y-89748628D01*
X76790365Y-89506733D02*
X76678543Y-89627087D01*
X76904024Y-89389532D02*
X76790365Y-89506733D01*
X77018637Y-89277452D02*
X76904024Y-89389532D01*
X77133322Y-89172461D02*
X77018637Y-89277452D01*
X77247198Y-89076527D02*
X77133322Y-89172461D01*
X77359381Y-88991616D02*
X77247198Y-89076527D01*
X77468990Y-88919696D02*
X77359381Y-88991616D01*
X77575142Y-88862735D02*
X77468990Y-88919696D01*
X77112618Y-87946977D02*
X77062625Y-87715335D01*
X77176594Y-88156836D02*
X77112618Y-87946977D01*
X77252717Y-88345851D02*
X77176594Y-88156836D01*
X77339152Y-88514963D02*
X77252717Y-88345851D01*
X77434063Y-88665110D02*
X77339152Y-88514963D01*
X77535613Y-88797233D02*
X77434063Y-88665110D01*
X77641967Y-88912271D02*
X77535613Y-88797233D01*
X77751288Y-89011164D02*
X77641967Y-88912271D01*
X77861741Y-89094852D02*
X77751288Y-89011164D01*
X77971489Y-89164274D02*
X77861741Y-89094852D01*
X78078697Y-89220370D02*
X77971489Y-89164274D01*
X78181528Y-89264080D02*
X78078697Y-89220370D01*
X78278147Y-89296343D02*
X78181528Y-89264080D01*
X78366717Y-89318099D02*
X78278147Y-89296343D01*
X78445403Y-89330288D02*
X78366717Y-89318099D01*
X78512368Y-89333849D02*
X78445403Y-89330288D01*
X78565776Y-89329723D02*
X78512368Y-89333849D01*
X78603792Y-89318848D02*
X78565776Y-89329723D01*
X78624579Y-89302165D02*
X78603792Y-89318848D01*
X78628239Y-89261787D02*
X78624579Y-89302165D01*
X78600171Y-89212523D02*
X78628239Y-89261787D01*
X78547695Y-89152322D02*
X78600171Y-89212523D01*
X78478136Y-89079133D02*
X78547695Y-89152322D01*
X78398815Y-88990906D02*
X78478136Y-89079133D01*
X78317054Y-88885590D02*
X78398815Y-88990906D01*
X78240176Y-88761135D02*
X78317054Y-88885590D01*
X78175503Y-88615489D02*
X78240176Y-88761135D01*
X78130358Y-88446603D02*
X78175503Y-88615489D01*
X78112062Y-88252425D02*
X78130358Y-88446603D01*
X78122039Y-88084751D02*
X78112062Y-88252425D01*
X78153229Y-87926882D02*
X78122039Y-88084751D01*
X78201424Y-87777772D02*
X78153229Y-87926882D01*
X78262414Y-87636376D02*
X78201424Y-87777772D01*
X78331992Y-87501649D02*
X78262414Y-87636376D01*
X78405948Y-87372545D02*
X78331992Y-87501649D01*
X78480073Y-87248018D02*
X78405948Y-87372545D01*
X78550159Y-87127023D02*
X78480073Y-87248018D01*
X78611997Y-87008515D02*
X78550159Y-87127023D01*
X78661377Y-86891448D02*
X78611997Y-87008515D01*
X78694092Y-86774777D02*
X78661377Y-86891448D01*
X78705932Y-86657455D02*
X78694092Y-86774777D01*
X78705272Y-86564609D02*
X78705932Y-86657455D01*
X78702384Y-86473688D02*
X78705272Y-86564609D01*
X78695910Y-86382925D02*
X78702384Y-86473688D01*
X78684489Y-86290557D02*
X78695910Y-86382925D01*
X78666763Y-86194818D02*
X78684489Y-86290557D01*
X78641372Y-86093944D02*
X78666763Y-86194818D01*
X78606956Y-85986168D02*
X78641372Y-86093944D01*
X78562156Y-85869727D02*
X78606956Y-85986168D01*
X78505612Y-85742856D02*
X78562156Y-85869727D01*
X78435965Y-85603788D02*
X78505612Y-85742856D01*
X78351856Y-85450761D02*
X78435965Y-85603788D01*
X78251925Y-85282007D02*
X78351856Y-85450761D01*
X78134812Y-85095764D02*
X78251925Y-85282007D01*
X77999158Y-84890265D02*
X78134812Y-85095764D01*
X77843603Y-84663745D02*
X77999158Y-84890265D01*
X79792780Y-88146159D02*
X79909939Y-88293105D01*
X79687665Y-87998511D02*
X79792780Y-88146159D01*
X79593983Y-87850511D02*
X79687665Y-87998511D01*
X79511123Y-87702510D02*
X79593983Y-87850511D01*
X79438474Y-87554862D02*
X79511123Y-87702510D01*
X79375425Y-87407916D02*
X79438474Y-87554862D01*
X79321365Y-87262026D02*
X79375425Y-87407916D01*
X79275683Y-87117542D02*
X79321365Y-87262026D01*
X79237767Y-86974816D02*
X79275683Y-87117542D01*
X79207008Y-86834200D02*
X79237767Y-86974816D01*
X79182794Y-86696045D02*
X79207008Y-86834200D01*
X79164514Y-86560704D02*
X79182794Y-86696045D01*
X79151557Y-86428526D02*
X79164514Y-86560704D01*
X79143312Y-86299865D02*
X79151557Y-86428526D01*
X79139168Y-86175072D02*
X79143312Y-86299865D01*
X79138514Y-86054498D02*
X79139168Y-86175072D01*
X79140738Y-85938495D02*
X79138514Y-86054498D01*
X79145231Y-85827415D02*
X79140738Y-85938495D01*
X87029326Y-84834515D02*
X87092213Y-84686715D01*
X86970809Y-84981500D02*
X87029326Y-84834515D01*
X86916970Y-85127810D02*
X86970809Y-84981500D01*
X86868119Y-85273586D02*
X86916970Y-85127810D01*
X86824565Y-85418969D02*
X86868119Y-85273586D01*
X86786618Y-85564098D02*
X86824565Y-85418969D01*
X86754585Y-85709115D02*
X86786618Y-85564098D01*
X86728777Y-85854159D02*
X86754585Y-85709115D01*
X86709502Y-85999373D02*
X86728777Y-85854159D01*
X86697070Y-86144895D02*
X86709502Y-85999373D01*
X86691790Y-86290867D02*
X86697070Y-86144895D01*
X86693970Y-86437430D02*
X86691790Y-86290867D01*
X86703920Y-86584723D02*
X86693970Y-86437430D01*
X86721949Y-86732888D02*
X86703920Y-86584723D01*
X86748366Y-86882064D02*
X86721949Y-86732888D01*
X86783480Y-87032393D02*
X86748366Y-86882064D01*
X86827600Y-87184015D02*
X86783480Y-87032393D01*
X86878641Y-87356629D02*
X86827600Y-87184015D01*
X86921153Y-87528567D02*
X86878641Y-87356629D01*
X86954890Y-87698849D02*
X86921153Y-87528567D01*
X86979608Y-87866491D02*
X86954890Y-87698849D01*
X86995060Y-88030512D02*
X86979608Y-87866491D01*
X87001002Y-88189930D02*
X86995060Y-88030512D01*
X86997187Y-88343763D02*
X87001002Y-88189930D01*
X86983371Y-88491028D02*
X86997187Y-88343763D01*
X86959308Y-88630743D02*
X86983371Y-88491028D01*
X86924753Y-88761927D02*
X86959308Y-88630743D01*
X86879459Y-88883598D02*
X86924753Y-88761927D01*
X86823183Y-88994773D02*
X86879459Y-88883598D01*
X86755677Y-89094471D02*
X86823183Y-88994773D01*
X86676697Y-89181709D02*
X86755677Y-89094471D01*
X86585998Y-89255505D02*
X86676697Y-89181709D01*
X86744888Y-89202620D02*
X86585998Y-89255505D01*
X86890953Y-89141875D02*
X86744888Y-89202620D01*
X87024585Y-89073705D02*
X86890953Y-89141875D01*
X87146174Y-88998541D02*
X87024585Y-89073705D01*
X87256110Y-88916818D02*
X87146174Y-88998541D01*
X87354784Y-88828968D02*
X87256110Y-88916818D01*
X87442587Y-88735424D02*
X87354784Y-88828968D01*
X87519910Y-88636621D02*
X87442587Y-88735424D01*
X87587142Y-88532990D02*
X87519910Y-88636621D01*
X87644674Y-88424965D02*
X87587142Y-88532990D01*
X87692897Y-88312979D02*
X87644674Y-88424965D01*
X87732202Y-88197466D02*
X87692897Y-88312979D01*
X87762979Y-88078858D02*
X87732202Y-88197466D01*
X87785619Y-87957588D02*
X87762979Y-88078858D01*
X87800513Y-87834091D02*
X87785619Y-87957588D01*
X87808050Y-87708799D02*
X87800513Y-87834091D01*
X87808622Y-87582144D02*
X87808050Y-87708799D01*
X87802618Y-87454562D02*
X87808622Y-87582144D01*
X87790431Y-87326483D02*
X87802618Y-87454562D01*
X87772450Y-87198343D02*
X87790431Y-87326483D01*
X87749065Y-87070573D02*
X87772450Y-87198343D01*
X87720669Y-86943607D02*
X87749065Y-87070573D01*
X87687650Y-86817879D02*
X87720669Y-86943607D01*
X87650400Y-86693820D02*
X87687650Y-86817879D01*
X87609309Y-86571866D02*
X87650400Y-86693820D01*
X87564768Y-86452447D02*
X87609309Y-86571866D01*
X87517167Y-86335999D02*
X87564768Y-86452447D01*
X87466897Y-86222954D02*
X87517167Y-86335999D01*
X87414349Y-86113745D02*
X87466897Y-86222954D01*
X89034962Y-88133932D02*
X88932993Y-88001105D01*
X89125972Y-88242493D02*
X89034962Y-88133932D01*
X89212855Y-88331659D02*
X89125972Y-88242493D01*
X89302449Y-88406302D02*
X89212855Y-88331659D01*
X89401587Y-88471294D02*
X89302449Y-88406302D01*
X89517105Y-88531506D02*
X89401587Y-88471294D01*
X89655838Y-88591809D02*
X89517105Y-88531506D01*
X89824621Y-88657075D02*
X89655838Y-88591809D01*
X89024200Y-84405016D02*
X89071051Y-84537115D01*
X88985244Y-84283148D02*
X89024200Y-84405016D01*
X88954714Y-84168848D02*
X88985244Y-84283148D01*
X88933143Y-84059460D02*
X88954714Y-84168848D01*
X88921062Y-83952321D02*
X88933143Y-84059460D01*
X88919003Y-83844774D02*
X88921062Y-83952321D01*
X88927498Y-83734158D02*
X88919003Y-83844774D01*
X88947078Y-83617813D02*
X88927498Y-83734158D01*
X88978276Y-83493080D02*
X88947078Y-83617813D01*
X89021623Y-83357299D02*
X88978276Y-83493080D01*
X89077651Y-83207810D02*
X89021623Y-83357299D01*
X89146891Y-83041954D02*
X89077651Y-83207810D01*
X89229877Y-82857071D02*
X89146891Y-83041954D01*
X89327138Y-82650501D02*
X89229877Y-82857071D01*
X89439208Y-82419585D02*
X89327138Y-82650501D01*
X88012539Y-83521528D02*
X87920563Y-83633705D01*
X88101769Y-83405094D02*
X88012539Y-83521528D01*
X88188158Y-83284645D02*
X88101769Y-83405094D01*
X88271612Y-83160423D02*
X88188158Y-83284645D01*
X88352036Y-83032670D02*
X88271612Y-83160423D01*
X88429335Y-82901629D02*
X88352036Y-83032670D01*
X88503414Y-82767540D02*
X88429335Y-82901629D01*
X88574179Y-82630647D02*
X88503414Y-82767540D01*
X88641536Y-82491191D02*
X88574179Y-82630647D01*
X88705389Y-82349415D02*
X88641536Y-82491191D01*
X88765643Y-82205560D02*
X88705389Y-82349415D01*
X88822205Y-82059868D02*
X88765643Y-82205560D01*
X88874979Y-81912583D02*
X88822205Y-82059868D01*
X88923871Y-81763944D02*
X88874979Y-81912583D01*
X88968786Y-81614196D02*
X88923871Y-81763944D01*
X89009629Y-81463579D02*
X88968786Y-81614196D01*
X89046306Y-81312336D02*
X89009629Y-81463579D01*
X89078721Y-81160709D02*
X89046306Y-81312336D01*
X89106781Y-81008939D02*
X89078721Y-81160709D01*
X89130391Y-80857270D02*
X89106781Y-81008939D01*
X89149455Y-80705942D02*
X89130391Y-80857270D01*
X89163879Y-80555199D02*
X89149455Y-80705942D01*
X89173569Y-80405282D02*
X89163879Y-80555199D01*
X89178430Y-80256433D02*
X89173569Y-80405282D01*
X89178367Y-80108894D02*
X89178430Y-80256433D01*
X89173285Y-79962907D02*
X89178367Y-80108894D01*
X89163090Y-79818715D02*
X89173285Y-79962907D01*
X76017463Y-84864369D02*
X75914867Y-84944375D01*
X76105942Y-84775520D02*
X76017463Y-84864369D01*
X76180805Y-84678596D02*
X76105942Y-84775520D01*
X76242550Y-84574370D02*
X76180805Y-84678596D01*
X76291675Y-84463610D02*
X76242550Y-84574370D01*
X76328680Y-84347088D02*
X76291675Y-84463610D01*
X76354063Y-84225573D02*
X76328680Y-84347088D01*
X76368324Y-84099836D02*
X76354063Y-84225573D01*
X76371960Y-83970647D02*
X76368324Y-84099836D01*
X76365471Y-83838776D02*
X76371960Y-83970647D01*
X76349355Y-83704994D02*
X76365471Y-83838776D01*
X76324111Y-83570070D02*
X76349355Y-83704994D01*
X76290239Y-83434775D02*
X76324111Y-83570070D01*
X76248236Y-83299880D02*
X76290239Y-83434775D01*
X76198601Y-83166153D02*
X76248236Y-83299880D01*
X76141834Y-83034367D02*
X76198601Y-83166153D01*
X76078433Y-82905290D02*
X76141834Y-83034367D01*
X76008896Y-82779694D02*
X76078433Y-82905290D01*
X75933723Y-82658348D02*
X76008896Y-82779694D01*
X75853413Y-82542023D02*
X75933723Y-82658348D01*
X75768464Y-82431488D02*
X75853413Y-82542023D01*
X75679374Y-82327515D02*
X75768464Y-82431488D01*
X77341627Y-83152536D02*
X77520153Y-83386285D01*
X77180949Y-82931531D02*
X77341627Y-83152536D01*
X77037192Y-82722759D02*
X77180949Y-82931531D01*
X76909427Y-82525706D02*
X77037192Y-82722759D01*
X76796727Y-82339860D02*
X76909427Y-82525706D01*
X76698165Y-82164709D02*
X76796727Y-82339860D01*
X76612811Y-81999739D02*
X76698165Y-82164709D01*
X76539740Y-81844439D02*
X76612811Y-81999739D01*
X76478022Y-81698295D02*
X76539740Y-81844439D01*
X76426731Y-81560795D02*
X76478022Y-81698295D01*
X76384938Y-81431426D02*
X76426731Y-81560795D01*
X76351715Y-81309676D02*
X76384938Y-81431426D01*
X76326136Y-81195032D02*
X76351715Y-81309676D01*
X76307271Y-81086981D02*
X76326136Y-81195032D01*
X76294194Y-80985011D02*
X76307271Y-81086981D01*
X76285977Y-80888609D02*
X76294194Y-80985011D01*
X76281692Y-80797262D02*
X76285977Y-80888609D01*
X76280410Y-80710459D02*
X76281692Y-80797262D01*
X76281205Y-80627686D02*
X76280410Y-80710459D01*
X76283149Y-80548430D02*
X76281205Y-80627686D01*
X76285314Y-80472180D02*
X76283149Y-80548430D01*
X76286772Y-80398421D02*
X76285314Y-80472180D01*
X76286595Y-80326643D02*
X76286772Y-80398421D01*
X76283856Y-80256332D02*
X76286595Y-80326643D01*
X76277626Y-80186975D02*
X76283856Y-80256332D01*
X77333695Y-83028791D02*
X77428116Y-83202155D01*
X77246238Y-82856238D02*
X77333695Y-83028791D01*
X77165529Y-82684590D02*
X77246238Y-82856238D01*
X77091349Y-82513938D02*
X77165529Y-82684590D01*
X77023482Y-82344375D02*
X77091349Y-82513938D01*
X76961708Y-82175995D02*
X77023482Y-82344375D01*
X76905811Y-82008889D02*
X76961708Y-82175995D01*
X76855571Y-81843151D02*
X76905811Y-82008889D01*
X76810773Y-81678873D02*
X76855571Y-81843151D01*
X76771197Y-81516148D02*
X76810773Y-81678873D01*
X76736627Y-81355069D02*
X76771197Y-81516148D01*
X76706843Y-81195728D02*
X76736627Y-81355069D01*
X76681629Y-81038218D02*
X76706843Y-81195728D01*
X76660766Y-80882633D02*
X76681629Y-81038218D01*
X76644038Y-80729063D02*
X76660766Y-80882633D01*
X76631225Y-80577603D02*
X76644038Y-80729063D01*
X76622110Y-80428345D02*
X76631225Y-80577603D01*
X76616475Y-80281382D02*
X76622110Y-80428345D01*
X76614103Y-80136805D02*
X76616475Y-80281382D01*
X76614776Y-79994709D02*
X76614103Y-80136805D01*
X76618276Y-79855186D02*
X76614776Y-79994709D01*
X76624384Y-79718329D02*
X76618276Y-79855186D01*
X76632884Y-79584229D02*
X76624384Y-79718329D01*
X76643558Y-79452981D02*
X76632884Y-79584229D01*
X76656187Y-79324676D02*
X76643558Y-79452981D01*
X76670554Y-79199407D02*
X76656187Y-79324676D01*
X76686441Y-79077268D02*
X76670554Y-79199407D01*
X76703630Y-78958350D02*
X76686441Y-79077268D01*
X76721903Y-78842747D02*
X76703630Y-78958350D01*
X76741043Y-78730551D02*
X76721903Y-78842747D01*
X76760832Y-78621855D02*
X76741043Y-78730551D01*
X77869971Y-82493345D02*
X77920904Y-82649755D01*
X77822332Y-82336524D02*
X77869971Y-82493345D01*
X77777951Y-82179348D02*
X77822332Y-82336524D01*
X77736790Y-82021876D02*
X77777951Y-82179348D01*
X77698812Y-81864166D02*
X77736790Y-82021876D01*
X77663978Y-81706275D02*
X77698812Y-81864166D01*
X77632252Y-81548261D02*
X77663978Y-81706275D01*
X77603596Y-81390181D02*
X77632252Y-81548261D01*
X77577971Y-81232094D02*
X77603596Y-81390181D01*
X77555341Y-81074058D02*
X77577971Y-81232094D01*
X77535669Y-80916129D02*
X77555341Y-81074058D01*
X77518915Y-80758367D02*
X77535669Y-80916129D01*
X77505044Y-80600828D02*
X77518915Y-80758367D01*
X77494016Y-80443571D02*
X77505044Y-80600828D01*
X77485796Y-80286653D02*
X77494016Y-80443571D01*
X77480344Y-80130132D02*
X77485796Y-80286653D01*
X77477624Y-79974066D02*
X77480344Y-80130132D01*
X77477598Y-79818512D02*
X77477624Y-79974066D01*
X77480228Y-79663529D02*
X77477598Y-79818512D01*
X77485477Y-79509174D02*
X77480228Y-79663529D01*
X77493307Y-79355505D02*
X77485477Y-79509174D01*
X77503681Y-79202580D02*
X77493307Y-79355505D01*
X77516561Y-79050456D02*
X77503681Y-79202580D01*
X77531909Y-78899192D02*
X77516561Y-79050456D01*
X77549688Y-78748844D02*
X77531909Y-78899192D01*
X77569861Y-78599472D02*
X77549688Y-78748844D01*
X77592389Y-78451132D02*
X77569861Y-78599472D01*
X77617235Y-78303882D02*
X77592389Y-78451132D01*
X77644361Y-78157781D02*
X77617235Y-78303882D01*
X77673731Y-78012886D02*
X77644361Y-78157781D01*
X77705306Y-77869255D02*
X77673731Y-78012886D01*
X77739049Y-77726945D02*
X77705306Y-77869255D01*
X77774922Y-77586014D02*
X77739049Y-77726945D01*
X77812887Y-77446521D02*
X77774922Y-77586014D01*
X77852908Y-77308523D02*
X77812887Y-77446521D01*
X77894946Y-77172077D02*
X77852908Y-77308523D01*
X77938964Y-77037242D02*
X77894946Y-77172077D01*
X77984925Y-76904075D02*
X77938964Y-77037242D01*
X78032790Y-76772634D02*
X77984925Y-76904075D01*
X78082522Y-76642977D02*
X78032790Y-76772634D01*
X78134084Y-76515161D02*
X78082522Y-76642977D01*
X78187437Y-76389245D02*
X78134084Y-76515161D01*
D15*
X76741163Y-89533846D02*
X76748173Y-89538925D01*
X76717112Y-89486421D02*
X76741163Y-89533846D01*
X76671489Y-89348368D02*
X76717112Y-89486421D01*
X76599764Y-89071405D02*
X76671489Y-89348368D01*
X76443872Y-89167926D02*
X76599764Y-89071405D01*
X76290916Y-89243444D02*
X76443872Y-89167926D01*
X76141273Y-89299119D02*
X76290916Y-89243444D01*
X75995324Y-89336110D02*
X76141273Y-89299119D01*
X75853446Y-89355579D02*
X75995324Y-89336110D01*
X75716019Y-89358685D02*
X75853446Y-89355579D01*
X75583421Y-89346589D02*
X75716019Y-89358685D01*
X75456031Y-89320451D02*
X75583421Y-89346589D01*
X75334227Y-89281431D02*
X75456031Y-89320451D01*
X75218389Y-89230690D02*
X75334227Y-89281431D01*
X75108896Y-89169388D02*
X75218389Y-89230690D01*
X75006125Y-89098685D02*
X75108896Y-89169388D01*
X74910457Y-89019741D02*
X75006125Y-89098685D01*
X74822268Y-88933717D02*
X74910457Y-89019741D01*
X74741940Y-88841774D02*
X74822268Y-88933717D01*
X74669849Y-88745070D02*
X74741940Y-88841774D01*
X74606375Y-88644767D02*
X74669849Y-88745070D01*
X74551896Y-88542025D02*
X74606375Y-88644767D01*
X74739742Y-88570212D02*
X74551896Y-88542025D01*
X74905028Y-88579124D02*
X74739742Y-88570212D01*
X75048630Y-88570371D02*
X74905028Y-88579124D01*
X75171424Y-88545563D02*
X75048630Y-88570371D01*
X75274285Y-88506310D02*
X75171424Y-88545563D01*
X75358090Y-88454223D02*
X75274285Y-88506310D01*
X75423714Y-88390912D02*
X75358090Y-88454223D01*
X75472034Y-88317986D02*
X75423714Y-88390912D01*
X75503925Y-88237057D02*
X75472034Y-88317986D01*
X75520263Y-88149735D02*
X75503925Y-88237057D01*
X75521924Y-88057629D02*
X75520263Y-88149735D01*
X75509784Y-87962350D02*
X75521924Y-88057629D01*
X75484719Y-87865508D02*
X75509784Y-87962350D01*
X75447604Y-87768714D02*
X75484719Y-87865508D01*
X75399316Y-87673577D02*
X75447604Y-87768714D01*
X75340731Y-87581708D02*
X75399316Y-87673577D01*
X75272724Y-87494717D02*
X75340731Y-87581708D01*
X75196170Y-87414215D02*
X75272724Y-87494717D01*
X75048295Y-87268001D02*
X75196170Y-87414215D01*
X74925040Y-87134480D02*
X75048295Y-87268001D01*
X74823753Y-87010998D02*
X74925040Y-87134480D01*
X74741783Y-86894904D02*
X74823753Y-87010998D01*
X74676478Y-86783546D02*
X74741783Y-86894904D01*
X74625188Y-86674272D02*
X74676478Y-86783546D01*
X74585260Y-86564430D02*
X74625188Y-86674272D01*
X74554044Y-86451368D02*
X74585260Y-86564430D01*
X74528887Y-86332435D02*
X74554044Y-86451368D01*
X74532988Y-86247858D02*
X74528887Y-86332435D01*
X74571552Y-86153267D02*
X74532988Y-86247858D01*
X74639600Y-86050623D02*
X74571552Y-86153267D01*
X74732151Y-85941890D02*
X74639600Y-86050623D01*
X74844222Y-85829030D02*
X74732151Y-85941890D01*
X74970835Y-85714006D02*
X74844222Y-85829030D01*
X75107006Y-85598781D02*
X74970835Y-85714006D01*
X75247757Y-85485318D02*
X75107006Y-85598781D01*
X75388104Y-85375579D02*
X75247757Y-85485318D01*
X75523069Y-85271527D02*
X75388104Y-85375579D01*
X75647669Y-85175125D02*
X75523069Y-85271527D01*
X75756923Y-85088335D02*
X75647669Y-85175125D01*
X75845851Y-85013121D02*
X75756923Y-85088335D01*
X75909471Y-84951445D02*
X75845851Y-85013121D01*
X75993260Y-84837433D02*
X75909471Y-84951445D01*
X76050080Y-84712953D02*
X75993260Y-84837433D01*
X76083958Y-84578812D02*
X76050080Y-84712953D01*
X76098917Y-84435813D02*
X76083958Y-84578812D01*
X76098984Y-84284762D02*
X76098917Y-84435813D01*
X76088184Y-84126464D02*
X76098984Y-84284762D01*
X76070540Y-83961725D02*
X76088184Y-84126464D01*
X76056813Y-83895562D02*
X76070540Y-83961725D01*
X76031089Y-83820700D02*
X76056813Y-83895562D01*
X75994758Y-83737241D02*
X76031089Y-83820700D01*
X75949208Y-83645286D02*
X75994758Y-83737241D01*
X75895829Y-83544935D02*
X75949208Y-83645286D01*
X75836008Y-83436288D02*
X75895829Y-83544935D01*
X75771135Y-83319447D02*
X75836008Y-83436288D01*
X75702599Y-83194512D02*
X75771135Y-83319447D01*
X75631788Y-83061584D02*
X75702599Y-83194512D01*
X75560092Y-82920763D02*
X75631788Y-83061584D01*
X75488899Y-82772150D02*
X75560092Y-82920763D01*
X75419598Y-82615846D02*
X75488899Y-82772150D01*
X75353578Y-82451951D02*
X75419598Y-82615846D01*
X75292228Y-82280566D02*
X75353578Y-82451951D01*
X75236936Y-82101792D02*
X75292228Y-82280566D01*
X75189091Y-81915729D02*
X75236936Y-82101792D01*
X75150083Y-81722478D02*
X75189091Y-81915729D01*
X75121300Y-81522140D02*
X75150083Y-81722478D01*
X75104130Y-81314815D02*
X75121300Y-81522140D01*
X75104449Y-81135912D02*
X75104130Y-81314815D01*
X75109771Y-80957846D02*
X75104449Y-81135912D01*
X75119962Y-80780664D02*
X75109771Y-80957846D01*
X75134889Y-80604414D02*
X75119962Y-80780664D01*
X75154420Y-80429141D02*
X75134889Y-80604414D01*
X75178419Y-80254894D02*
X75154420Y-80429141D01*
X75206756Y-80081719D02*
X75178419Y-80254894D01*
X75239296Y-79909662D02*
X75206756Y-80081719D01*
X75275905Y-79738772D02*
X75239296Y-79909662D01*
X75316452Y-79569094D02*
X75275905Y-79738772D01*
X75360802Y-79400676D02*
X75316452Y-79569094D01*
X75408822Y-79233564D02*
X75360802Y-79400676D01*
X75460379Y-79067806D02*
X75408822Y-79233564D01*
X75515341Y-78903449D02*
X75460379Y-79067806D01*
X75573573Y-78740539D02*
X75515341Y-78903449D01*
X75634942Y-78579123D02*
X75573573Y-78740539D01*
X75699315Y-78419249D02*
X75634942Y-78579123D01*
X75766560Y-78260963D02*
X75699315Y-78419249D01*
X75836542Y-78104312D02*
X75766560Y-78260963D01*
X75909128Y-77949344D02*
X75836542Y-78104312D01*
X75984186Y-77796104D02*
X75909128Y-77949344D01*
X76061581Y-77644641D02*
X75984186Y-77796104D01*
X76141182Y-77495000D02*
X76061581Y-77644641D01*
X76222853Y-77347230D02*
X76141182Y-77495000D01*
X76306464Y-77201376D02*
X76222853Y-77347230D01*
X76391879Y-77057485D02*
X76306464Y-77201376D01*
X76478966Y-76915606D02*
X76391879Y-77057485D01*
X76567591Y-76775784D02*
X76478966Y-76915606D01*
X76657622Y-76638067D02*
X76567591Y-76775784D01*
X76748925Y-76502501D02*
X76657622Y-76638067D01*
X76841367Y-76369134D02*
X76748925Y-76502501D01*
X76934814Y-76238012D02*
X76841367Y-76369134D01*
X77029134Y-76109182D02*
X76934814Y-76238012D01*
X77124193Y-75982692D02*
X77029134Y-76109182D01*
X77219858Y-75858588D02*
X77124193Y-75982692D01*
X77315996Y-75736917D02*
X77219858Y-75858588D01*
X77412473Y-75617726D02*
X77315996Y-75736917D01*
X77509156Y-75501062D02*
X77412473Y-75617726D01*
X77605912Y-75386971D02*
X77509156Y-75501062D01*
X77702608Y-75275502D02*
X77605912Y-75386971D01*
X77799111Y-75166701D02*
X77702608Y-75275502D01*
X77895287Y-75060614D02*
X77799111Y-75166701D01*
X77991003Y-74957289D02*
X77895287Y-75060614D01*
X78086126Y-74856772D02*
X77991003Y-74957289D01*
X78180522Y-74759111D02*
X78086126Y-74856772D01*
X78274059Y-74664353D02*
X78180522Y-74759111D01*
X78366602Y-74572544D02*
X78274059Y-74664353D01*
X78458020Y-74483731D02*
X78366602Y-74572544D01*
X78548178Y-74397962D02*
X78458020Y-74483731D01*
X78636944Y-74315283D02*
X78548178Y-74397962D01*
X78724184Y-74235741D02*
X78636944Y-74315283D01*
X78809765Y-74159383D02*
X78724184Y-74235741D01*
X78893553Y-74086256D02*
X78809765Y-74159383D01*
X78975416Y-74016407D02*
X78893553Y-74086256D01*
X79055221Y-73949883D02*
X78975416Y-74016407D01*
X79132833Y-73886731D02*
X79055221Y-73949883D01*
X79208120Y-73826998D02*
X79132833Y-73886731D01*
X79280948Y-73770730D02*
X79208120Y-73826998D01*
X79351185Y-73717975D02*
X79280948Y-73770730D01*
X79418697Y-73668780D02*
X79351185Y-73717975D01*
X79483351Y-73623191D02*
X79418697Y-73668780D01*
X79545013Y-73581255D02*
X79483351Y-73623191D01*
X79724224Y-73471915D02*
X79545013Y-73581255D01*
X79906163Y-73379814D02*
X79724224Y-73471915D01*
X80089801Y-73303713D02*
X79906163Y-73379814D01*
X80274110Y-73242374D02*
X80089801Y-73303713D01*
X80458062Y-73194561D02*
X80274110Y-73242374D01*
X80640626Y-73159035D02*
X80458062Y-73194561D01*
X80820776Y-73134559D02*
X80640626Y-73159035D01*
X80997483Y-73119895D02*
X80820776Y-73134559D01*
X81169716Y-73113805D02*
X80997483Y-73119895D01*
X81336450Y-73115052D02*
X81169716Y-73113805D01*
X81496653Y-73122398D02*
X81336450Y-73115052D01*
X81649299Y-73134606D02*
X81496653Y-73122398D01*
X81793357Y-73150438D02*
X81649299Y-73134606D01*
X81927801Y-73168655D02*
X81793357Y-73150438D01*
X82051600Y-73188021D02*
X81927801Y-73168655D01*
X82163727Y-73207298D02*
X82051600Y-73188021D01*
X82263153Y-73225248D02*
X82163727Y-73207298D01*
X82348849Y-73240633D02*
X82263153Y-73225248D01*
X82419786Y-73252216D02*
X82348849Y-73240633D01*
X82474937Y-73258760D02*
X82419786Y-73252216D01*
X82513272Y-73259025D02*
X82474937Y-73258760D01*
X82547268Y-73252498D02*
X82513272Y-73259025D01*
X82590209Y-73240320D02*
X82547268Y-73252498D01*
X82642274Y-73223728D02*
X82590209Y-73240320D01*
X82703640Y-73203959D02*
X82642274Y-73223728D01*
X82774488Y-73182252D02*
X82703640Y-73203959D01*
X82854996Y-73159844D02*
X82774488Y-73182252D01*
X82945343Y-73137973D02*
X82854996Y-73159844D01*
X83045708Y-73117877D02*
X82945343Y-73137973D01*
X83156270Y-73100792D02*
X83045708Y-73117877D01*
X83277207Y-73087958D02*
X83156270Y-73100792D01*
X83408699Y-73080612D02*
X83277207Y-73087958D01*
X83550924Y-73079990D02*
X83408699Y-73080612D01*
X83704061Y-73087332D02*
X83550924Y-73079990D01*
X83868290Y-73103874D02*
X83704061Y-73087332D01*
X84043789Y-73130855D02*
X83868290Y-73103874D01*
X84230737Y-73169512D02*
X84043789Y-73130855D01*
X84429312Y-73221082D02*
X84230737Y-73169512D01*
X84639695Y-73286804D02*
X84429312Y-73221082D01*
X84862063Y-73367915D02*
X84639695Y-73286804D01*
X85096595Y-73465653D02*
X84862063Y-73367915D01*
X85343471Y-73581255D02*
X85096595Y-73465653D01*
X85472692Y-73647367D02*
X85343471Y-73581255D01*
X85601040Y-73717620D02*
X85472692Y-73647367D01*
X85728462Y-73791885D02*
X85601040Y-73717620D01*
X85854906Y-73870031D02*
X85728462Y-73791885D01*
X85980322Y-73951928D02*
X85854906Y-73870031D01*
X86104655Y-74037446D02*
X85980322Y-73951928D01*
X86227854Y-74126454D02*
X86104655Y-74037446D01*
X86349868Y-74218822D02*
X86227854Y-74126454D01*
X86470644Y-74314421D02*
X86349868Y-74218822D01*
X86590130Y-74413119D02*
X86470644Y-74314421D01*
X86708273Y-74514787D02*
X86590130Y-74413119D01*
X86825023Y-74619294D02*
X86708273Y-74514787D01*
X86940326Y-74726510D02*
X86825023Y-74619294D01*
X87054131Y-74836305D02*
X86940326Y-74726510D01*
X87166385Y-74948548D02*
X87054131Y-74836305D01*
X87277037Y-75063110D02*
X87166385Y-74948548D01*
X87386034Y-75179860D02*
X87277037Y-75063110D01*
X87493325Y-75298668D02*
X87386034Y-75179860D01*
X87598857Y-75419403D02*
X87493325Y-75298668D01*
X87702578Y-75541936D02*
X87598857Y-75419403D01*
X87804436Y-75666135D02*
X87702578Y-75541936D01*
X87904379Y-75791872D02*
X87804436Y-75666135D01*
X88002355Y-75919015D02*
X87904379Y-75791872D01*
X88098312Y-76047434D02*
X88002355Y-75919015D01*
X88192197Y-76177000D02*
X88098312Y-76047434D01*
X88283960Y-76307582D02*
X88192197Y-76177000D01*
X88373546Y-76439049D02*
X88283960Y-76307582D01*
X88460906Y-76571271D02*
X88373546Y-76439049D01*
X88545986Y-76704119D02*
X88460906Y-76571271D01*
X88628734Y-76837462D02*
X88545986Y-76704119D01*
X88709098Y-76971169D02*
X88628734Y-76837462D01*
X88787027Y-77105111D02*
X88709098Y-76971169D01*
X88862467Y-77239157D02*
X88787027Y-77105111D01*
X88935368Y-77373176D02*
X88862467Y-77239157D01*
X89005677Y-77507040D02*
X88935368Y-77373176D01*
X89073341Y-77640617D02*
X89005677Y-77507040D01*
X89138309Y-77773777D02*
X89073341Y-77640617D01*
X89200529Y-77906390D02*
X89138309Y-77773777D01*
X89259949Y-78038326D02*
X89200529Y-77906390D01*
X89316516Y-78169455D02*
X89259949Y-78038326D01*
X89370178Y-78299645D02*
X89316516Y-78169455D01*
X89452710Y-78510728D02*
X89370178Y-78299645D01*
X89529225Y-78718452D02*
X89452710Y-78510728D01*
X89599890Y-78922552D02*
X89529225Y-78718452D01*
X89664874Y-79122763D02*
X89599890Y-78922552D01*
X89724344Y-79318820D02*
X89664874Y-79122763D01*
X89778469Y-79510458D02*
X89724344Y-79318820D01*
X89827416Y-79697412D02*
X89778469Y-79510458D01*
X89871353Y-79879416D02*
X89827416Y-79697412D01*
X89910449Y-80056205D02*
X89871353Y-79879416D01*
X89944870Y-80227515D02*
X89910449Y-80056205D01*
X89974784Y-80393080D02*
X89944870Y-80227515D01*
X90000361Y-80552634D02*
X89974784Y-80393080D01*
X90021767Y-80705914D02*
X90000361Y-80552634D01*
X90039171Y-80852653D02*
X90021767Y-80705914D01*
X90052739Y-80992586D02*
X90039171Y-80852653D01*
X90062641Y-81125449D02*
X90052739Y-80992586D01*
X90069044Y-81250976D02*
X90062641Y-81125449D01*
X90072116Y-81368902D02*
X90069044Y-81250976D01*
X90072025Y-81478962D02*
X90072116Y-81368902D01*
X90068938Y-81580890D02*
X90072025Y-81478962D01*
X90063024Y-81674423D02*
X90068938Y-81580890D01*
X90054451Y-81759293D02*
X90063024Y-81674423D01*
X90043385Y-81835237D02*
X90054451Y-81759293D01*
X90029996Y-81901990D02*
X90043385Y-81835237D01*
X90014451Y-81959285D02*
X90029996Y-81901990D01*
X89983903Y-82051133D02*
X90014451Y-81959285D01*
X89944793Y-82161086D02*
X89983903Y-82051133D01*
X89898268Y-82286750D02*
X89944793Y-82161086D01*
X89845473Y-82425732D02*
X89898268Y-82286750D01*
X89787556Y-82575638D02*
X89845473Y-82425732D01*
X89725661Y-82734074D02*
X89787556Y-82575638D01*
X89660935Y-82898646D02*
X89725661Y-82734074D01*
X89594523Y-83066960D02*
X89660935Y-82898646D01*
X89527572Y-83236623D02*
X89594523Y-83066960D01*
X89461228Y-83405240D02*
X89527572Y-83236623D01*
X89396637Y-83570419D02*
X89461228Y-83405240D01*
X89334944Y-83729765D02*
X89396637Y-83570419D01*
X89277296Y-83880884D02*
X89334944Y-83729765D01*
X89224839Y-84021383D02*
X89277296Y-83880884D01*
X89178719Y-84148868D02*
X89224839Y-84021383D01*
X89140081Y-84260945D02*
X89178719Y-84148868D01*
X89111929Y-84385979D02*
X89140081Y-84260945D01*
X89110923Y-84506173D02*
X89111929Y-84385979D01*
X89134802Y-84621590D02*
X89110923Y-84506173D01*
X89181303Y-84732293D02*
X89134802Y-84621590D01*
X89248165Y-84838345D02*
X89181303Y-84732293D01*
X89333124Y-84939808D02*
X89248165Y-84838345D01*
X89433919Y-85036746D02*
X89333124Y-84939808D01*
X89548287Y-85129221D02*
X89433919Y-85036746D01*
X89673966Y-85217296D02*
X89548287Y-85129221D01*
X89808694Y-85301034D02*
X89673966Y-85217296D01*
X89950208Y-85380498D02*
X89808694Y-85301034D01*
X90096248Y-85455751D02*
X89950208Y-85380498D01*
X90244549Y-85526855D02*
X90096248Y-85455751D01*
X90367452Y-85589227D02*
X90244549Y-85526855D01*
X90477960Y-85656960D02*
X90367452Y-85589227D01*
X90575337Y-85730503D02*
X90477960Y-85656960D01*
X90658847Y-85810307D02*
X90575337Y-85730503D01*
X90727754Y-85896822D02*
X90658847Y-85810307D01*
X90781320Y-85990498D02*
X90727754Y-85896822D01*
X90818811Y-86091784D02*
X90781320Y-85990498D01*
X90839489Y-86201132D02*
X90818811Y-86091784D01*
X90842618Y-86318991D02*
X90839489Y-86201132D01*
X90827463Y-86445811D02*
X90842618Y-86318991D01*
X90793285Y-86582043D02*
X90827463Y-86445811D01*
X90739350Y-86728136D02*
X90793285Y-86582043D01*
X90664922Y-86884541D02*
X90739350Y-86728136D01*
X90569262Y-87051707D02*
X90664922Y-86884541D01*
X90451636Y-87230085D02*
X90569262Y-87051707D01*
X90358982Y-87376914D02*
X90451636Y-87230085D01*
X90294166Y-87510482D02*
X90358982Y-87376914D01*
X90254775Y-87630743D02*
X90294166Y-87510482D01*
X90238394Y-87737648D02*
X90254775Y-87630743D01*
X90242607Y-87831150D02*
X90238394Y-87737648D01*
X90265002Y-87911203D02*
X90242607Y-87831150D01*
X90303162Y-87977758D02*
X90265002Y-87911203D01*
X90354673Y-88030769D02*
X90303162Y-87977758D01*
X90417122Y-88070187D02*
X90354673Y-88030769D01*
X90488092Y-88095966D02*
X90417122Y-88070187D01*
X90565170Y-88108059D02*
X90488092Y-88095966D01*
X90645941Y-88106417D02*
X90565170Y-88108059D01*
X90727990Y-88090993D02*
X90645941Y-88106417D01*
X90808903Y-88061741D02*
X90727990Y-88090993D01*
X90886265Y-88018612D02*
X90808903Y-88061741D01*
X90957662Y-87961560D02*
X90886265Y-88018612D01*
X91020678Y-87890537D02*
X90957662Y-87961560D01*
X91072900Y-87805495D02*
X91020678Y-87890537D01*
X91032222Y-87936985D02*
X91072900Y-87805495D01*
X90988374Y-88064046D02*
X91032222Y-87936985D01*
X90940300Y-88185068D02*
X90988374Y-88064046D01*
X90886944Y-88298440D02*
X90940300Y-88185068D01*
X90827247Y-88402551D02*
X90886944Y-88298440D01*
X90760155Y-88495792D02*
X90827247Y-88402551D01*
X90684610Y-88576551D02*
X90760155Y-88495792D01*
X90599556Y-88643218D02*
X90684610Y-88576551D01*
X90503937Y-88694183D02*
X90599556Y-88643218D01*
X90396695Y-88727835D02*
X90503937Y-88694183D01*
X90276774Y-88742564D02*
X90396695Y-88727835D01*
X90143118Y-88736759D02*
X90276774Y-88742564D01*
X89994670Y-88708809D02*
X90143118Y-88736759D01*
X89830373Y-88657105D02*
X89994670Y-88708809D01*
X89773946Y-88736506D02*
X89830373Y-88657105D01*
X89705280Y-88809580D02*
X89773946Y-88736506D01*
X89624686Y-88873420D02*
X89705280Y-88809580D01*
X89532474Y-88925121D02*
X89624686Y-88873420D01*
X89428956Y-88961778D02*
X89532474Y-88925121D01*
X89314443Y-88980486D02*
X89428956Y-88961778D01*
X89189246Y-88978340D02*
X89314443Y-88980486D01*
X89053677Y-88952434D02*
X89189246Y-88978340D01*
X88908047Y-88899863D02*
X89053677Y-88952434D01*
X88752666Y-88817721D02*
X88908047Y-88899863D01*
X88587846Y-88703105D02*
X88752666Y-88817721D01*
X88528343Y-88900794D02*
X88587846Y-88703105D01*
X88452740Y-89061442D02*
X88528343Y-88900794D01*
X88367476Y-89187463D02*
X88452740Y-89061442D01*
X88278993Y-89281274D02*
X88367476Y-89187463D01*
X88193729Y-89345291D02*
X88278993Y-89281274D01*
X88118125Y-89381929D02*
X88193729Y-89345291D01*
X88058622Y-89393605D02*
X88118125Y-89381929D01*
D14*
X88044847Y-82640685D02*
X87971898Y-82775825D01*
X88111630Y-82501170D02*
X88044847Y-82640685D01*
X88172415Y-82357635D02*
X88111630Y-82501170D01*
X88227369Y-82210435D02*
X88172415Y-82357635D01*
X88276660Y-82059926D02*
X88227369Y-82210435D01*
X88320456Y-81906462D02*
X88276660Y-82059926D01*
X88358924Y-81750400D02*
X88320456Y-81906462D01*
X88392232Y-81592094D02*
X88358924Y-81750400D01*
X88420547Y-81431900D02*
X88392232Y-81592094D01*
X88444038Y-81270174D02*
X88420547Y-81431900D01*
X88462872Y-81107269D02*
X88444038Y-81270174D01*
X88477217Y-80943542D02*
X88462872Y-81107269D01*
X88487239Y-80779348D02*
X88477217Y-80943542D01*
X88493108Y-80615042D02*
X88487239Y-80779348D01*
X88494990Y-80450980D02*
X88493108Y-80615042D01*
X88493053Y-80287516D02*
X88494990Y-80450980D01*
X88487465Y-80125006D02*
X88493053Y-80287516D01*
X88478394Y-79963806D02*
X88487465Y-80125006D01*
X88466007Y-79804270D02*
X88478394Y-79963806D01*
X88450471Y-79646754D02*
X88466007Y-79804270D01*
X88431956Y-79491614D02*
X88450471Y-79646754D01*
X88410627Y-79339204D02*
X88431956Y-79491614D01*
X88386653Y-79189880D02*
X88410627Y-79339204D01*
X88360201Y-79043996D02*
X88386653Y-79189880D01*
X88331440Y-78901909D02*
X88360201Y-79043996D01*
X88300536Y-78763974D02*
X88331440Y-78901909D01*
X88267658Y-78630546D02*
X88300536Y-78763974D01*
X88232973Y-78501980D02*
X88267658Y-78630546D01*
X88196648Y-78378631D02*
X88232973Y-78501980D01*
X88158852Y-78260855D02*
X88196648Y-78378631D01*
X88119752Y-78149007D02*
X88158852Y-78260855D01*
X88079515Y-78043443D02*
X88119752Y-78149007D01*
X88038310Y-77944517D02*
X88079515Y-78043443D01*
X87996304Y-77852585D02*
X88038310Y-77944517D01*
X87561762Y-82381410D02*
X87523645Y-82546175D01*
X87596159Y-82213377D02*
X87561762Y-82381410D01*
X87626922Y-82042402D02*
X87596159Y-82213377D01*
X87654138Y-81868810D02*
X87626922Y-82042402D01*
X87677893Y-81692926D02*
X87654138Y-81868810D01*
X87698273Y-81515075D02*
X87677893Y-81692926D01*
X87715366Y-81335582D02*
X87698273Y-81515075D01*
X87729256Y-81154772D02*
X87715366Y-81335582D01*
X87740032Y-80972971D02*
X87729256Y-81154772D01*
X87747778Y-80790504D02*
X87740032Y-80972971D01*
X87752582Y-80607696D02*
X87747778Y-80790504D01*
X87754529Y-80424872D02*
X87752582Y-80607696D01*
X87753707Y-80242357D02*
X87754529Y-80424872D01*
X87750202Y-80060476D02*
X87753707Y-80242357D01*
X87744099Y-79879554D02*
X87750202Y-80060476D01*
X87735486Y-79699918D02*
X87744099Y-79879554D01*
X87724448Y-79521891D02*
X87735486Y-79699918D01*
X87711073Y-79345799D02*
X87724448Y-79521891D01*
X87695446Y-79171967D02*
X87711073Y-79345799D01*
X87677654Y-79000720D02*
X87695446Y-79171967D01*
X87657783Y-78832384D02*
X87677654Y-79000720D01*
X87635920Y-78667283D02*
X87657783Y-78832384D01*
X87612151Y-78505743D02*
X87635920Y-78667283D01*
X87586563Y-78348088D02*
X87612151Y-78505743D01*
X87559241Y-78194645D02*
X87586563Y-78348088D01*
X87530272Y-78045738D02*
X87559241Y-78194645D01*
X87499743Y-77901692D02*
X87530272Y-78045738D01*
X87467740Y-77762832D02*
X87499743Y-77901692D01*
X87434349Y-77629484D02*
X87467740Y-77762832D01*
X87399658Y-77501973D02*
X87434349Y-77629484D01*
X87363751Y-77380624D02*
X87399658Y-77501973D01*
X87326715Y-77265762D02*
X87363751Y-77380624D01*
X87288638Y-77157712D02*
X87326715Y-77265762D01*
X87249605Y-77056799D02*
X87288638Y-77157712D01*
X87209702Y-76963349D02*
X87249605Y-77056799D01*
X87169017Y-76877686D02*
X87209702Y-76963349D01*
X87127635Y-76800136D02*
X87169017Y-76877686D01*
X87085643Y-76731024D02*
X87127635Y-76800136D01*
X87043127Y-76670676D02*
X87085643Y-76731024D01*
X87000173Y-76619415D02*
X87043127Y-76670676D01*
X86702448Y-79399981D02*
X86704994Y-79483115D01*
X86695997Y-79292262D02*
X86702448Y-79399981D01*
X86686006Y-79163114D02*
X86695997Y-79292262D01*
X86672840Y-79015694D02*
X86686006Y-79163114D01*
X86656864Y-78853157D02*
X86672840Y-79015694D01*
X86638443Y-78678661D02*
X86656864Y-78853157D01*
X86617943Y-78495361D02*
X86638443Y-78678661D01*
X86595729Y-78306415D02*
X86617943Y-78495361D01*
X86572166Y-78114978D02*
X86595729Y-78306415D01*
X86547619Y-77924206D02*
X86572166Y-78114978D01*
X86522453Y-77737258D02*
X86547619Y-77924206D01*
X86497033Y-77557288D02*
X86522453Y-77737258D01*
X86471725Y-77387453D02*
X86497033Y-77557288D01*
X86446893Y-77230910D02*
X86471725Y-77387453D01*
X86422903Y-77090815D02*
X86446893Y-77230910D01*
X86400121Y-76970325D02*
X86422903Y-77090815D01*
X86378910Y-76872595D02*
X86400121Y-76970325D01*
X86160599Y-78877437D02*
X86161015Y-79018835D01*
X86152169Y-78723276D02*
X86160599Y-78877437D01*
X86136462Y-78558614D02*
X86152169Y-78723276D01*
X86114213Y-78385713D02*
X86136462Y-78558614D01*
X86086157Y-78206832D02*
X86114213Y-78385713D01*
X86053029Y-78024235D02*
X86086157Y-78206832D01*
X86015565Y-77840181D02*
X86053029Y-78024235D01*
X85974500Y-77656933D02*
X86015565Y-77840181D01*
X85930569Y-77476751D02*
X85974500Y-77656933D01*
X85884507Y-77301898D02*
X85930569Y-77476751D01*
X85837050Y-77134633D02*
X85884507Y-77301898D01*
X85788933Y-76977219D02*
X85837050Y-77134633D01*
X85740892Y-76831916D02*
X85788933Y-76977219D01*
X85693661Y-76700987D02*
X85740892Y-76831916D01*
X85647976Y-76586692D02*
X85693661Y-76700987D01*
X85604572Y-76491292D02*
X85647976Y-76586692D01*
X85564185Y-76417050D02*
X85604572Y-76491292D01*
X85527549Y-76366225D02*
X85564185Y-76417050D01*
X84872436Y-77995890D02*
X84872469Y-78103515D01*
X84863654Y-77868533D02*
X84872436Y-77995890D01*
X84846902Y-77724714D02*
X84863654Y-77868533D01*
X84822959Y-77567706D02*
X84846902Y-77724714D01*
X84792606Y-77400782D02*
X84822959Y-77567706D01*
X84756622Y-77227212D02*
X84792606Y-77400782D01*
X84715787Y-77050268D02*
X84756622Y-77227212D01*
X84670881Y-76873223D02*
X84715787Y-77050268D01*
X84622683Y-76699348D02*
X84670881Y-76873223D01*
X84571973Y-76531915D02*
X84622683Y-76699348D01*
X84519531Y-76374196D02*
X84571973Y-76531915D01*
X84466136Y-76229463D02*
X84519531Y-76374196D01*
X84412568Y-76100987D02*
X84466136Y-76229463D01*
X84359607Y-75992040D02*
X84412568Y-76100987D01*
X84308032Y-75905895D02*
X84359607Y-75992040D01*
X83202911Y-77417010D02*
X83204840Y-77513345D01*
X83197182Y-77292832D02*
X83202911Y-77417010D01*
X83187743Y-77146380D02*
X83197182Y-77292832D01*
X83174682Y-76983222D02*
X83187743Y-77146380D01*
X83158088Y-76808928D02*
X83174682Y-76983222D01*
X83138049Y-76629064D02*
X83158088Y-76808928D01*
X83114655Y-76449200D02*
X83138049Y-76629064D01*
X83087994Y-76274904D02*
X83114655Y-76449200D01*
X83058155Y-76111746D02*
X83087994Y-76274904D01*
X83025227Y-75965292D02*
X83058155Y-76111746D01*
X82989298Y-75841112D02*
X83025227Y-75965292D01*
X82950457Y-75744775D02*
X82989298Y-75841112D01*
X78432166Y-80021156D02*
X78436596Y-80274175D01*
X78430353Y-79779384D02*
X78432166Y-80021156D01*
X78431057Y-79548693D02*
X78430353Y-79779384D01*
X78434181Y-79328917D02*
X78431057Y-79548693D01*
X78439628Y-79119893D02*
X78434181Y-79328917D01*
X78447299Y-78921454D02*
X78439628Y-79119893D01*
X78457097Y-78733435D02*
X78447299Y-78921454D01*
X78468923Y-78555671D02*
X78457097Y-78733435D01*
X78482679Y-78387997D02*
X78468923Y-78555671D01*
X78498268Y-78230247D02*
X78482679Y-78387997D01*
X78515592Y-78082257D02*
X78498268Y-78230247D01*
X78534552Y-77943860D02*
X78515592Y-78082257D01*
X78555051Y-77814893D02*
X78534552Y-77943860D01*
X78576990Y-77695188D02*
X78555051Y-77814893D01*
X78600273Y-77584582D02*
X78576990Y-77695188D01*
X78624800Y-77482909D02*
X78600273Y-77584582D01*
X78650474Y-77390004D02*
X78624800Y-77482909D01*
X78677197Y-77305701D02*
X78650474Y-77390004D01*
X78704871Y-77229836D02*
X78677197Y-77305701D01*
X78733398Y-77162242D02*
X78704871Y-77229836D01*
X78762680Y-77102755D02*
X78733398Y-77162242D01*
X79646117Y-76762737D02*
X79683070Y-76642425D01*
X79615417Y-76902429D02*
X79646117Y-76762737D01*
X79590392Y-77057624D02*
X79615417Y-76902429D01*
X79570461Y-77224448D02*
X79590392Y-77057624D01*
X79555045Y-77399024D02*
X79570461Y-77224448D01*
X79543564Y-77577475D02*
X79555045Y-77399024D01*
X79535440Y-77755927D02*
X79543564Y-77577475D01*
X79530092Y-77930502D02*
X79535440Y-77755927D01*
X79526941Y-78097326D02*
X79530092Y-77930502D01*
X79525408Y-78252521D02*
X79526941Y-78097326D01*
X79524914Y-78392213D02*
X79525408Y-78252521D01*
X79524877Y-78512525D02*
X79524914Y-78392213D01*
D13*
G36*
X86492452Y-82120465D02*
X86648514Y-82144765D01*
X86775638Y-82162365D01*
X86759144Y-82295708D01*
X86740902Y-82423847D01*
X86721038Y-82547078D01*
X86699678Y-82665695D01*
X86626298Y-82660695D01*
X86510367Y-82622285D01*
X86376701Y-82543915D01*
X86427888Y-82418598D01*
X86467372Y-82276675D01*
X86492456Y-82120165D01*
X86492452Y-82120465D01*
X86492452Y-82120465D01*
G37*
G36*
X78492422Y-82037785D02*
X78647452Y-82042785D01*
X78683381Y-82117028D01*
X78748228Y-82239265D01*
X78839686Y-82393155D01*
X78704046Y-82442192D01*
X78578204Y-82470155D01*
X78546443Y-82323504D01*
X78518006Y-82179479D01*
X78492424Y-82037615D01*
X78492422Y-82037785D01*
X78492422Y-82037785D01*
G37*
G36*
X86827315Y-81466755D02*
X86820281Y-81617819D01*
X86811479Y-81763624D01*
X86800904Y-81904266D01*
X86788555Y-82039845D01*
X86666600Y-82024345D01*
X86578984Y-82010882D01*
X86499685Y-81997945D01*
X86496049Y-81868821D01*
X86479461Y-81735685D01*
X86448005Y-81599515D01*
X86574758Y-81571933D01*
X86681263Y-81537263D01*
X86767364Y-81499815D01*
X86827314Y-81466715D01*
X86827315Y-81466755D01*
X86827315Y-81466755D01*
G37*
G36*
X78395271Y-81288475D02*
X78475105Y-81330162D01*
X78578722Y-81384075D01*
X78695854Y-81444850D01*
X78799379Y-81498275D01*
X78800353Y-81498765D01*
X78741177Y-81634429D01*
X78689357Y-81775314D01*
X78645323Y-81920965D01*
X78566856Y-81919640D01*
X78472206Y-81913965D01*
X78447849Y-81750406D01*
X78426983Y-81591409D01*
X78409478Y-81437239D01*
X78395206Y-81288165D01*
X78395271Y-81288475D01*
X78395271Y-81288475D01*
G37*
G36*
X80039616Y-81462105D02*
X80102048Y-81562567D01*
X80191420Y-81648656D01*
X80307817Y-81711705D01*
X80224977Y-81728092D01*
X80135732Y-81771105D01*
X80056240Y-81850464D01*
X80000299Y-81970209D01*
X79979153Y-82132835D01*
X80001835Y-82292766D01*
X80060804Y-82403861D01*
X80142450Y-82469245D01*
X80268248Y-82499820D01*
X80349673Y-82494545D01*
X80436770Y-82468520D01*
X80546045Y-82397345D01*
X80614510Y-82315811D01*
X80660970Y-82203931D01*
X80670585Y-82062485D01*
X80644871Y-81930647D01*
X80598801Y-81832993D01*
X80539327Y-81766375D01*
X80503667Y-81747275D01*
X80638031Y-81747023D01*
X80755902Y-81729260D01*
X80857134Y-81692475D01*
X80949348Y-81625036D01*
X81016296Y-81534865D01*
X81063140Y-81697852D01*
X81094799Y-81852788D01*
X81110892Y-82000125D01*
X81111035Y-82140316D01*
X81094847Y-82273814D01*
X81061944Y-82401071D01*
X81011945Y-82522541D01*
X80944466Y-82638675D01*
X80831451Y-82784387D01*
X80718330Y-82888719D01*
X80604258Y-82958087D01*
X80488387Y-82998908D01*
X80369873Y-83017595D01*
X80247867Y-83020565D01*
X80148664Y-83009716D01*
X80031053Y-82979371D01*
X79905190Y-82926086D01*
X79781229Y-82846415D01*
X79689573Y-82761630D01*
X79609027Y-82655986D01*
X79544131Y-82526848D01*
X79499422Y-82371579D01*
X79479439Y-82187545D01*
X79479674Y-82021545D01*
X79491533Y-81876064D01*
X79515366Y-81748523D01*
X79551526Y-81636340D01*
X79600361Y-81536935D01*
X79668093Y-81441291D01*
X79753759Y-81352999D01*
X79858069Y-81269482D01*
X79981735Y-81188165D01*
X79993609Y-81321752D01*
X80039615Y-81462105D01*
X80039616Y-81462105D01*
X80039616Y-81462105D01*
G37*
G36*
X84586103Y-81138025D02*
X84565593Y-81287200D01*
X84586373Y-81415483D01*
X84610903Y-81493565D01*
X84612803Y-81498565D01*
X84653742Y-81577997D01*
X84723719Y-81676663D01*
X84823126Y-81780715D01*
X84720291Y-81766215D01*
X84717691Y-81766215D01*
X84580840Y-81810270D01*
X84477396Y-81906255D01*
X84413031Y-82033810D01*
X84390576Y-82178585D01*
X84418451Y-82328947D01*
X84494445Y-82461775D01*
X84567632Y-82532492D01*
X84656733Y-82580151D01*
X84758512Y-82595615D01*
X84898797Y-82559359D01*
X85009141Y-82470565D01*
X85082228Y-82345055D01*
X85116629Y-82195125D01*
X85110457Y-82087781D01*
X85075448Y-81988819D01*
X85016889Y-81902635D01*
X85125096Y-81938409D01*
X85244114Y-81953227D01*
X85373974Y-81940335D01*
X85481239Y-81901503D01*
X85563484Y-81839477D01*
X85618404Y-81759465D01*
X85631844Y-81719665D01*
X85674608Y-81852232D01*
X85704704Y-81993545D01*
X85719662Y-82135523D01*
X85718864Y-82272450D01*
X85701686Y-82397437D01*
X85667504Y-82503595D01*
X85603290Y-82646527D01*
X85531363Y-82785476D01*
X85440643Y-82908735D01*
X85353715Y-82985194D01*
X85243755Y-83044065D01*
X85103436Y-83080489D01*
X84925431Y-83089605D01*
X84770077Y-83076414D01*
X84626462Y-83046428D01*
X84495566Y-82999627D01*
X84378371Y-82935992D01*
X84275858Y-82855505D01*
X84188544Y-82757757D01*
X84117190Y-82641769D01*
X84063137Y-82506753D01*
X84027729Y-82351920D01*
X84012307Y-82176485D01*
X84013251Y-82021361D01*
X84024373Y-81872015D01*
X84045508Y-81730705D01*
X84076491Y-81599688D01*
X84117155Y-81481222D01*
X84167337Y-81377565D01*
X84258935Y-81254471D01*
X84368874Y-81173445D01*
X84464372Y-81141345D01*
X84574032Y-81136245D01*
X84586103Y-81138025D01*
X84586103Y-81138025D01*
G37*
G36*
X81299897Y-80787086D02*
X84003951Y-81434750D01*
X83958528Y-81565630D01*
X83924855Y-81707447D01*
X83902545Y-81858271D01*
X83891210Y-82016171D01*
X83890462Y-82179217D01*
X83903189Y-82339974D01*
X83931906Y-82487652D01*
X83975918Y-82622046D01*
X84034529Y-82742956D01*
X84107045Y-82850179D01*
X84192769Y-82943511D01*
X84290571Y-83022658D01*
X84399132Y-83087644D01*
X84517475Y-83138730D01*
X84644620Y-83176176D01*
X84779590Y-83200244D01*
X84921407Y-83211195D01*
X85084885Y-83204653D01*
X85225741Y-83176284D01*
X85345680Y-83129171D01*
X85446410Y-83066399D01*
X85529638Y-82991054D01*
X85612661Y-82885136D01*
X85677981Y-82772946D01*
X85731399Y-82660514D01*
X85778719Y-82553871D01*
X85821586Y-82424022D01*
X85841798Y-82280676D01*
X85842097Y-82129104D01*
X85825228Y-81974578D01*
X85793478Y-81822473D01*
X85747790Y-81678344D01*
X85688886Y-81547715D01*
X85617488Y-81436110D01*
X85545715Y-81414581D01*
X85507418Y-81479001D01*
X85507418Y-81480033D01*
X85508449Y-81505872D01*
X85520152Y-81615125D01*
X85500181Y-81704826D01*
X85447614Y-81770899D01*
X85346702Y-81812830D01*
X85182372Y-81819891D01*
X85042854Y-81776239D01*
X84926056Y-81698625D01*
X84833513Y-81604473D01*
X84768705Y-81514181D01*
X84734853Y-81451095D01*
X84708509Y-81358202D01*
X84697058Y-81238554D01*
X84736414Y-81127601D01*
X84746791Y-81061309D01*
X84693006Y-81021147D01*
X84657349Y-81028381D01*
X84534876Y-81013911D01*
X84534867Y-81013396D01*
X84419864Y-81026597D01*
X84315242Y-81064040D01*
X84216681Y-81128236D01*
X84132156Y-81213587D01*
X84061511Y-81316737D01*
X84003951Y-81434750D01*
X81299897Y-80787086D01*
X82648677Y-83038607D01*
X82585115Y-83064962D01*
X82554434Y-83103101D01*
X82497456Y-83207386D01*
X82466776Y-83362618D01*
X82506058Y-83437872D01*
X82585613Y-83437872D01*
X82624905Y-83362618D01*
X82663146Y-83229648D01*
X82701387Y-83172449D01*
X82717767Y-83088676D01*
X82648677Y-83038607D01*
X81299897Y-80787086D01*
X84527632Y-83210173D01*
X84527632Y-83210702D01*
X84524015Y-83210702D01*
X84463752Y-83264047D01*
X84509029Y-83330591D01*
X84529701Y-83337309D01*
X84581894Y-83353330D01*
X84659134Y-83372799D01*
X84758628Y-83390020D01*
X84877776Y-83399812D01*
X85014044Y-83397319D01*
X85164844Y-83377481D01*
X85327585Y-83335243D01*
X85364932Y-83259039D01*
X85289861Y-83219488D01*
X85141957Y-83257882D01*
X85005180Y-83275830D01*
X84881810Y-83278010D01*
X84774130Y-83269097D01*
X84684529Y-83253643D01*
X84615484Y-83236541D01*
X84568975Y-83222071D01*
X84544170Y-83213287D01*
X84527634Y-83210186D01*
X84527632Y-83210173D01*
X81299897Y-80787086D01*
X83962292Y-84677786D01*
X83915266Y-84696907D01*
X83785497Y-84812313D01*
X83657348Y-84906838D01*
X83530514Y-84983033D01*
X83404688Y-85043450D01*
X83279562Y-85090641D01*
X83154831Y-85127157D01*
X83030187Y-85155549D01*
X82905324Y-85178369D01*
X82779935Y-85198169D01*
X82687951Y-85209022D01*
X82628805Y-85280109D01*
X82699836Y-85339247D01*
X82788720Y-85328912D01*
X82925886Y-85307588D01*
X83061985Y-85282221D01*
X83197266Y-85250418D01*
X83331978Y-85209787D01*
X83466369Y-85157934D01*
X83600687Y-85092466D01*
X83735183Y-85010990D01*
X83870104Y-84911112D01*
X84005700Y-84790440D01*
X84022122Y-84719428D01*
X83962292Y-84677786D01*
X81299897Y-80787086D01*
X81351056Y-80797421D01*
X83723030Y-79682212D01*
X83619614Y-79793747D01*
X83540219Y-79904213D01*
X83490486Y-80013975D01*
X83507645Y-80076011D01*
X83571101Y-80087872D01*
X83688955Y-80035673D01*
X83817087Y-79969355D01*
X83952745Y-79891129D01*
X84093178Y-79803206D01*
X84235634Y-79707795D01*
X84377362Y-79607107D01*
X84515610Y-79503353D01*
X84647626Y-79398744D01*
X84770658Y-79295489D01*
X84881956Y-79195799D01*
X84978768Y-79101885D01*
X84991695Y-79035772D01*
X84935876Y-78998016D01*
X84828263Y-79009876D01*
X84706884Y-79046274D01*
X84572591Y-79102402D01*
X84464741Y-79155098D01*
X84353265Y-79215813D01*
X84240218Y-79283384D01*
X84127657Y-79356650D01*
X84017607Y-79434336D01*
X83912106Y-79515224D01*
X83813224Y-79598214D01*
X83723030Y-79682212D01*
X81351056Y-80797421D01*
X82251007Y-85257344D01*
X82194442Y-85184731D01*
X82117444Y-85172846D01*
X81950400Y-85141597D01*
X81803323Y-85106915D01*
X81674712Y-85061553D01*
X81563067Y-84998261D01*
X81466887Y-84909790D01*
X81384672Y-84788890D01*
X81331446Y-84753750D01*
X81331445Y-84753750D01*
X81271922Y-84785507D01*
X81270467Y-84850385D01*
X81348590Y-84968844D01*
X81439635Y-85062510D01*
X81543906Y-85135471D01*
X81661708Y-85191816D01*
X81793347Y-85235633D01*
X81939128Y-85271010D01*
X82099356Y-85302037D01*
X82178421Y-85313922D01*
X82251007Y-85257344D01*
X81351056Y-80797421D01*
X81421027Y-80763561D01*
X81136376Y-79778957D01*
X81266973Y-79856413D01*
X81396113Y-79922895D01*
X81522456Y-79975650D01*
X81644663Y-80011926D01*
X81761393Y-80028973D01*
X81819787Y-79941640D01*
X81753057Y-79838460D01*
X81655600Y-79733360D01*
X81532983Y-79625380D01*
X81427724Y-79542769D01*
X81313582Y-79460352D01*
X81192997Y-79379318D01*
X81068412Y-79300852D01*
X80942232Y-79226232D01*
X80816838Y-79156739D01*
X80694628Y-79093544D01*
X80578002Y-79037819D01*
X80435914Y-78977028D01*
X80311964Y-78934773D01*
X80207482Y-78914829D01*
X80200765Y-78914300D01*
X80200764Y-78914313D01*
X80144965Y-78954573D01*
X80162524Y-79021283D01*
X80242962Y-79090945D01*
X80342884Y-79177043D01*
X80459230Y-79275393D01*
X80588935Y-79381812D01*
X80728938Y-79492118D01*
X80876176Y-79602126D01*
X81005664Y-79693277D01*
X81136376Y-79778957D01*
X81421027Y-80763561D01*
X81224340Y-82225821D01*
X81233547Y-82093896D01*
X81229316Y-81957241D01*
X81212046Y-81815827D01*
X81182133Y-81669624D01*
X81139979Y-81518601D01*
X81085980Y-81362729D01*
X80991929Y-81333790D01*
X80936635Y-81388050D01*
X80888716Y-81502561D01*
X80798142Y-81577186D01*
X80707396Y-81608387D01*
X80587735Y-81621675D01*
X80437958Y-81613876D01*
X80309118Y-81575553D01*
X80218192Y-81503210D01*
X80157355Y-81407687D01*
X80114680Y-81247287D01*
X80119631Y-81120366D01*
X80103610Y-81058871D01*
X80050900Y-81018564D01*
X80050912Y-81018046D01*
X80045229Y-81018046D01*
X80044700Y-81018046D01*
X80015761Y-81025799D01*
X79879459Y-81106017D01*
X79759407Y-81188764D01*
X79655415Y-81276360D01*
X79567297Y-81371127D01*
X79494863Y-81475384D01*
X79438284Y-81590623D01*
X79397213Y-81718028D01*
X79370685Y-81859436D01*
X79357736Y-82016687D01*
X79357403Y-82191619D01*
X79374253Y-82363464D01*
X79411631Y-82515704D01*
X79466499Y-82649031D01*
X79535824Y-82764139D01*
X79616571Y-82861723D01*
X79705703Y-82942477D01*
X79847806Y-83034587D01*
X79991181Y-83095957D01*
X80126821Y-83130713D01*
X80245721Y-83142982D01*
X80362043Y-83139863D01*
X80479241Y-83122979D01*
X80596367Y-83088750D01*
X80712471Y-83033600D01*
X80826604Y-82953949D01*
X80937815Y-82846219D01*
X81045156Y-82706833D01*
X81112102Y-82593523D01*
X81164016Y-82475605D01*
X81201296Y-82353048D01*
X81224340Y-82225821D01*
X81421027Y-80763561D01*
X81391623Y-80683733D01*
X81252841Y-80596051D01*
X81115658Y-80523137D01*
X80980428Y-80464162D01*
X80847504Y-80418297D01*
X80717241Y-80384715D01*
X80589991Y-80362588D01*
X80466110Y-80351087D01*
X80345950Y-80349385D01*
X80213659Y-80358688D01*
X80044109Y-80386831D01*
X79887039Y-80429860D01*
X79743827Y-80484626D01*
X79615851Y-80547982D01*
X79504491Y-80616779D01*
X79411124Y-80687867D01*
X79308063Y-80781564D01*
X79207954Y-80885419D01*
X79111698Y-80998871D01*
X79020199Y-81121358D01*
X78934361Y-81252316D01*
X78855085Y-81391183D01*
X78751847Y-81337718D01*
X78634944Y-81276978D01*
X78479448Y-81195753D01*
X78384313Y-81145720D01*
X78371615Y-80932923D01*
X78364111Y-80735703D01*
X78360796Y-80555457D01*
X78360667Y-80393581D01*
X78362718Y-80251469D01*
X78365946Y-80130518D01*
X78369345Y-80032123D01*
X78371912Y-79957679D01*
X78378340Y-79947477D01*
X78397237Y-79917823D01*
X78428025Y-79870147D01*
X78470126Y-79805879D01*
X78522960Y-79726449D01*
X78585949Y-79633288D01*
X78658515Y-79527823D01*
X78740078Y-79411487D01*
X78830061Y-79285708D01*
X78927885Y-79151916D01*
X79032970Y-79011542D01*
X79144739Y-78866015D01*
X79262612Y-78716764D01*
X79386012Y-78565221D01*
X79514359Y-78412814D01*
X79647075Y-78260974D01*
X79783581Y-78111130D01*
X79923298Y-77964713D01*
X80065649Y-77823152D01*
X80210054Y-77687877D01*
X80355935Y-77560318D01*
X80502713Y-77441904D01*
X80649809Y-77334067D01*
X80649417Y-77313068D01*
X80649004Y-77252839D01*
X80649715Y-77157530D01*
X80652695Y-77031293D01*
X80659089Y-76878278D01*
X80670042Y-76702636D01*
X80686698Y-76508517D01*
X80710203Y-76300073D01*
X80741702Y-76081454D01*
X80782340Y-75856811D01*
X80833260Y-75630295D01*
X80833284Y-75630277D01*
X80833904Y-75656457D01*
X80835973Y-75730231D01*
X80839802Y-75844445D01*
X80845703Y-75991947D01*
X80853989Y-76165586D01*
X80864972Y-76358208D01*
X80878964Y-76562663D01*
X80896276Y-76771796D01*
X80917222Y-76978458D01*
X80942112Y-77175494D01*
X80971260Y-77355753D01*
X80971486Y-77346228D01*
X80973065Y-77316062D01*
X80977342Y-77262868D01*
X80985667Y-77184257D01*
X80999387Y-77077841D01*
X81019849Y-76941234D01*
X81048401Y-76772046D01*
X81086391Y-76567892D01*
X81135167Y-76326381D01*
X81196076Y-76045128D01*
X81270467Y-75721744D01*
X81336846Y-75809172D01*
X81397548Y-75952301D01*
X81452002Y-76133513D01*
X81499639Y-76335188D01*
X81539891Y-76539705D01*
X81572189Y-76729446D01*
X81595963Y-76886790D01*
X81610645Y-76994117D01*
X81615665Y-77033809D01*
X81615665Y-75675752D01*
X81620345Y-75697665D01*
X81633738Y-75759905D01*
X81654874Y-75857223D01*
X81682783Y-75984373D01*
X81716494Y-76136104D01*
X81755037Y-76307169D01*
X81797442Y-76492319D01*
X81842739Y-76686307D01*
X81889957Y-76883883D01*
X81938126Y-77079801D01*
X82127499Y-77122119D01*
X82312209Y-77164741D01*
X82492391Y-77207759D01*
X82668178Y-77251263D01*
X82839703Y-77295347D01*
X80985759Y-83066387D01*
X80932501Y-83016917D01*
X80926818Y-83016387D01*
X80926818Y-83016917D01*
X80897362Y-83023634D01*
X80767157Y-83095207D01*
X80642074Y-83160357D01*
X80510822Y-83208636D01*
X80400622Y-83228181D01*
X80273374Y-83228881D01*
X80123386Y-83205505D01*
X79944965Y-83152826D01*
X79865976Y-83189329D01*
X79904141Y-83267547D01*
X80060695Y-83315280D01*
X80200877Y-83342666D01*
X80326551Y-83352025D01*
X80439580Y-83345677D01*
X80541828Y-83325942D01*
X80692351Y-83271400D01*
X80826088Y-83202213D01*
X80953689Y-83131638D01*
X80985759Y-83066387D01*
X82839703Y-77295347D01*
X83007098Y-77340102D01*
X83170498Y-77385619D01*
X83330036Y-77431990D01*
X83485844Y-77479308D01*
X83638057Y-77527665D01*
X83786806Y-77577151D01*
X83932226Y-77627859D01*
X84074450Y-77679881D01*
X84213611Y-77733309D01*
X84349842Y-77788233D01*
X84483277Y-77844747D01*
X84614048Y-77902943D01*
X84742289Y-77962911D01*
X84868133Y-78024743D01*
X84991714Y-78088533D01*
X85113164Y-78154371D01*
X85232617Y-78222349D01*
X85350206Y-78292559D01*
X85466065Y-78365093D01*
X85580326Y-78440043D01*
X85693123Y-78517500D01*
X85804589Y-78597557D01*
X85914857Y-78680305D01*
X86024061Y-78765837D01*
X86132333Y-78854243D01*
X86239807Y-78945616D01*
X86346617Y-79040048D01*
X86452895Y-79137630D01*
X86558775Y-79238455D01*
X86664390Y-79342614D01*
X86769872Y-79450198D01*
X86783858Y-79630172D01*
X86796123Y-79805379D01*
X86806706Y-79975912D01*
X86815643Y-80141865D01*
X86822973Y-80303329D01*
X86828733Y-80460399D01*
X86832959Y-80613166D01*
X86835690Y-80761724D01*
X86836962Y-80906166D01*
X86836813Y-81046583D01*
X86835280Y-81183069D01*
X86832401Y-81315718D01*
X86828784Y-81318818D01*
X86713546Y-81390649D01*
X86633055Y-81424961D01*
X86530849Y-81456503D01*
X86407621Y-81481083D01*
X86348691Y-81350080D01*
X86273074Y-81219760D01*
X86179465Y-81091168D01*
X86066557Y-80965352D01*
X85938184Y-80843704D01*
X85811115Y-80738152D01*
X85685827Y-80647754D01*
X85562797Y-80571572D01*
X85442502Y-80508665D01*
X85325418Y-80458093D01*
X85212022Y-80418916D01*
X85102791Y-80390193D01*
X84977638Y-80367661D01*
X84843658Y-80360301D01*
X84708466Y-80365858D01*
X84579679Y-80382075D01*
X84464911Y-80406695D01*
X84302322Y-80455316D01*
X84185472Y-80504754D01*
X84077422Y-80568659D01*
X83941237Y-80660680D01*
X83879751Y-80736661D01*
X83910166Y-80784239D01*
X83973661Y-80792232D01*
X83925085Y-80927624D01*
X83952502Y-80988422D01*
X84019137Y-80987569D01*
X84118599Y-80919749D01*
X84206867Y-80862118D01*
X84305424Y-80807218D01*
X84425638Y-80755870D01*
X84551042Y-80721256D01*
X84682013Y-80704009D01*
X84818927Y-80704758D01*
X84962161Y-80724137D01*
X85112093Y-80762777D01*
X85189391Y-80786838D01*
X85299613Y-80824808D01*
X85433272Y-80879966D01*
X85580882Y-80955591D01*
X85732955Y-81054961D01*
X85880005Y-81181356D01*
X85954796Y-81262701D01*
X86023854Y-81353393D01*
X86085539Y-81454145D01*
X86138216Y-81565670D01*
X86180248Y-81688681D01*
X86209996Y-81823891D01*
X86225825Y-81972013D01*
X86226097Y-82133759D01*
X86209175Y-82309843D01*
X86173421Y-82500979D01*
X86117200Y-82707877D01*
X86142033Y-82776955D01*
X86215385Y-82771956D01*
X86316671Y-82652067D01*
X86416941Y-82713211D01*
X86513103Y-82755750D01*
X86603475Y-82780741D01*
X86675305Y-82789009D01*
X86630731Y-82982536D01*
X86582095Y-83163081D01*
X86529834Y-83331690D01*
X86474381Y-83489404D01*
X86416174Y-83637266D01*
X86355648Y-83776321D01*
X86293239Y-83907612D01*
X86229382Y-84032181D01*
X86164513Y-84151072D01*
X86099069Y-84265328D01*
X86033484Y-84375992D01*
X87146591Y-83366237D01*
X87130845Y-83467675D01*
X87155894Y-83586895D01*
X87185590Y-83696816D01*
X87184432Y-83815125D01*
X87135286Y-83943989D01*
X87021018Y-84085573D01*
X86939147Y-84158965D01*
X86847376Y-84214373D01*
X86714060Y-84260239D01*
X86668265Y-84335612D01*
X86745583Y-84378061D01*
X86898783Y-84323473D01*
X87011684Y-84255544D01*
X87105768Y-84173422D01*
X87217836Y-84037498D01*
X87281711Y-83903098D01*
X87305986Y-83773769D01*
X87299251Y-83653061D01*
X87270099Y-83544520D01*
X87261314Y-83407578D01*
X87297904Y-83331439D01*
X87354849Y-83216375D01*
X87426289Y-83143109D01*
X87535199Y-83113539D01*
X87637617Y-83130115D01*
X87691779Y-83174517D01*
X87771612Y-83207329D01*
X87804434Y-83127492D01*
X87710191Y-83026747D01*
X87570856Y-82991583D01*
X87570854Y-82991570D01*
X87528997Y-82992099D01*
X87417035Y-83014281D01*
X87316144Y-83071277D01*
X87243743Y-83166766D01*
X87189167Y-83275100D01*
X87146591Y-83366237D01*
X86033484Y-84375992D01*
X86139451Y-84276409D01*
X86245847Y-84172829D01*
X86352136Y-84065563D01*
X86457785Y-83954921D01*
X86562258Y-83841212D01*
X86665020Y-83724747D01*
X86765536Y-83605834D01*
X86863272Y-83484784D01*
X86957692Y-83361907D01*
X87048263Y-83237512D01*
X87134448Y-83111909D01*
X87215713Y-82985408D01*
X87291523Y-82858319D01*
X87361343Y-82730952D01*
X87424639Y-82603616D01*
X87480875Y-82476621D01*
X87529517Y-82350276D01*
X87645579Y-82374537D01*
X87745642Y-82418480D01*
X87830280Y-82480304D01*
X87900066Y-82558209D01*
X87955573Y-82650393D01*
X87997375Y-82755058D01*
X88026045Y-82870402D01*
X88042157Y-82994624D01*
X88046283Y-83125925D01*
X88038997Y-83262504D01*
X88020873Y-83402560D01*
X87992484Y-83544293D01*
X87954404Y-83685902D01*
X87907205Y-83825587D01*
X87851461Y-83961548D01*
X87777280Y-84110195D01*
X87693425Y-84247778D01*
X87600837Y-84373856D01*
X87500460Y-84487989D01*
X87393233Y-84589738D01*
X87280101Y-84678664D01*
X87162004Y-84754327D01*
X87039886Y-84816287D01*
X86914688Y-84864104D01*
X86787351Y-84897340D01*
X86658819Y-84915554D01*
X86530034Y-84918307D01*
X86401937Y-84905159D01*
X86389789Y-84926271D01*
X86354451Y-84985646D01*
X86297578Y-85077343D01*
X86220825Y-85195423D01*
X86125850Y-85333943D01*
X86014308Y-85486964D01*
X85887855Y-85648545D01*
X85748146Y-85812745D01*
X85596838Y-85973623D01*
X85435587Y-86125240D01*
X85353212Y-86192684D01*
X85257508Y-86262826D01*
X85149694Y-86335110D01*
X85030989Y-86408980D01*
X84902611Y-86483882D01*
X84765779Y-86559261D01*
X84621713Y-86634562D01*
X84471630Y-86709230D01*
X84316751Y-86782709D01*
X84158292Y-86854445D01*
X83997474Y-86923883D01*
X83835515Y-86990467D01*
X83673634Y-87053644D01*
X83513049Y-87112857D01*
X83354979Y-87167551D01*
X83200644Y-87217172D01*
X83051262Y-87261165D01*
X82908051Y-87298975D01*
X82772231Y-87330046D01*
X82645020Y-87353823D01*
X82527637Y-87369753D01*
X82421301Y-87377278D01*
X82330788Y-87373975D01*
X82229826Y-87359196D01*
X82119405Y-87333599D01*
X82000516Y-87297844D01*
X81874147Y-87252588D01*
X81741290Y-87198490D01*
X81602933Y-87136209D01*
X81460067Y-87066402D01*
X81313682Y-86989728D01*
X81164766Y-86906845D01*
X81014311Y-86818412D01*
X80863306Y-86725088D01*
X80712740Y-86627530D01*
X80563604Y-86526398D01*
X80416888Y-86422348D01*
X80273581Y-86316041D01*
X80134673Y-86208133D01*
X80001154Y-86099285D01*
X79874013Y-85990153D01*
X79754242Y-85881397D01*
X79642829Y-85773674D01*
X79540764Y-85667644D01*
X79449037Y-85563964D01*
X79368639Y-85463293D01*
X79300558Y-85366290D01*
X79245784Y-85273612D01*
X79198242Y-85170259D01*
X79142570Y-85040174D01*
X79087640Y-84904815D01*
X79035370Y-84767246D01*
X78987680Y-84630529D01*
X78946489Y-84497724D01*
X78913717Y-84371895D01*
X78891284Y-84256103D01*
X78834957Y-84203393D01*
X78771395Y-84274190D01*
X78795380Y-84399299D01*
X78829577Y-84532038D01*
X78872068Y-84669797D01*
X78920936Y-84809966D01*
X78974262Y-84949936D01*
X79030130Y-85087095D01*
X79086621Y-85218835D01*
X79126412Y-85307202D01*
X79065170Y-85314801D01*
X78993236Y-85316905D01*
X78911576Y-85310929D01*
X78821159Y-85294287D01*
X78722953Y-85264395D01*
X78617924Y-85218668D01*
X78507042Y-85154519D01*
X78391273Y-85069365D01*
X78271586Y-84960619D01*
X78148948Y-84825696D01*
X78024326Y-84662011D01*
X77898690Y-84466980D01*
X77773006Y-84238016D01*
X77666659Y-84012660D01*
X77584144Y-83804427D01*
X77523602Y-83613070D01*
X77483171Y-83438338D01*
X77460991Y-83279984D01*
X77455202Y-83137757D01*
X77463942Y-83011409D01*
X77485352Y-82900690D01*
X77517571Y-82805352D01*
X77558738Y-82725145D01*
X77606993Y-82659820D01*
X77660475Y-82609129D01*
X77717324Y-82572821D01*
X77775678Y-82550648D01*
X77833679Y-82542361D01*
X77889464Y-82547711D01*
X77941173Y-82566448D01*
X77986947Y-82598323D01*
X78030862Y-82708980D01*
X78080524Y-82818585D01*
X78135074Y-82926838D01*
X78193652Y-83033439D01*
X78053888Y-82963564D01*
X77933630Y-82931052D01*
X77829850Y-82935770D01*
X77732541Y-82986364D01*
X77670170Y-83063928D01*
X77635937Y-83144972D01*
X77616427Y-83218440D01*
X77641322Y-83295001D01*
X77714640Y-83312165D01*
X77770939Y-83254614D01*
X77809180Y-83139892D01*
X77867057Y-83089766D01*
X77929723Y-83092228D01*
X78036761Y-83129937D01*
X78191497Y-83218228D01*
X78397258Y-83372436D01*
X78422578Y-83387422D01*
X78484073Y-83474239D01*
X78429288Y-83525745D01*
X78332144Y-83626167D01*
X78246149Y-83725560D01*
X78170730Y-83833371D01*
X78122338Y-83946044D01*
X78119980Y-84045338D01*
X78152311Y-84144482D01*
X78205329Y-84244082D01*
X78272200Y-84344469D01*
X78371478Y-84476596D01*
X78467891Y-84599414D01*
X78545051Y-84703621D01*
X78630094Y-84720030D01*
X78646337Y-84634891D01*
X78563908Y-84523240D01*
X78467206Y-84400551D01*
X78371419Y-84273673D01*
X78309563Y-84180691D01*
X78263932Y-84095389D01*
X78240161Y-83976533D01*
X78276706Y-83898051D01*
X78342588Y-83802968D01*
X78422062Y-83708333D01*
X78505797Y-83621344D01*
X78558488Y-83571390D01*
X78690786Y-83730554D01*
X78817691Y-83869991D01*
X78934461Y-83986615D01*
X79036354Y-84077342D01*
X79118628Y-84139089D01*
X79176538Y-84168770D01*
X79105814Y-84022751D01*
X79039236Y-83876759D01*
X78976680Y-83730952D01*
X78918021Y-83585494D01*
X78863134Y-83440545D01*
X78811894Y-83296266D01*
X78764176Y-83152819D01*
X78719856Y-83010365D01*
X78678808Y-82869065D01*
X78640908Y-82729080D01*
X78606030Y-82590572D01*
X78705824Y-82570097D01*
X78807417Y-82537427D01*
X78908338Y-82495487D01*
X78977225Y-82587480D01*
X79050448Y-82671704D01*
X79050448Y-82672233D01*
X79058200Y-82688253D01*
X79065952Y-82699106D01*
X79087140Y-82721845D01*
X79095409Y-82727528D01*
X79103161Y-82731663D01*
X79116080Y-82735799D01*
X79136234Y-82735799D01*
X79161554Y-82725464D01*
X79179125Y-82706861D01*
X79186359Y-82689809D01*
X79188423Y-82678440D01*
X79187894Y-82670172D01*
X79187364Y-82659837D01*
X79183229Y-82647436D01*
X79159459Y-82594209D01*
X79156358Y-82589558D01*
X79111334Y-82508112D01*
X79074119Y-82416789D01*
X79046046Y-82316478D01*
X79028449Y-82208067D01*
X79022661Y-82092445D01*
X79030016Y-81970499D01*
X79051847Y-81843119D01*
X79089487Y-81711192D01*
X79144270Y-81575608D01*
X79217530Y-81437254D01*
X79310599Y-81297019D01*
X79424812Y-81155792D01*
X79561501Y-81014460D01*
X79682144Y-80911212D01*
X79805611Y-80826884D01*
X79930938Y-80760381D01*
X80057156Y-80710605D01*
X80183300Y-80676461D01*
X80308403Y-80656853D01*
X80431499Y-80650684D01*
X80551621Y-80656859D01*
X80705309Y-80682734D01*
X80849106Y-80726615D01*
X80980368Y-80785735D01*
X81096452Y-80857327D01*
X81194713Y-80938625D01*
X81272508Y-81026863D01*
X81349089Y-81045665D01*
X81379995Y-80973119D01*
X81345955Y-80876595D01*
X81299897Y-80787086D01*
X81299897Y-80787086D01*
G37*
D16*
G04 #@! TO.C,C19*
X85728733Y-100460000D02*
X86071267Y-100460000D01*
X85728733Y-99440000D02*
X86071267Y-99440000D01*
G04 #@! TO.C,C76*
X78771267Y-95890000D02*
X78428733Y-95890000D01*
X78771267Y-96910000D02*
X78428733Y-96910000D01*
G04 #@! TO.C,C80*
X88910000Y-95671267D02*
X88910000Y-95328733D01*
X87890000Y-95671267D02*
X87890000Y-95328733D01*
G04 #@! TO.C,C14*
X77640000Y-101153733D02*
X77640000Y-101496267D01*
X78660000Y-101153733D02*
X78660000Y-101496267D01*
G04 #@! TO.C,C1*
X65228733Y-98990000D02*
X65571267Y-98990000D01*
X65228733Y-100010000D02*
X65571267Y-100010000D01*
G04 #@! TO.C,C41*
D10*
X93340714Y-91985714D02*
X93378809Y-91947619D01*
X93416904Y-91833333D01*
X93416904Y-91757142D01*
X93378809Y-91642857D01*
X93302619Y-91566666D01*
X93226428Y-91528571D01*
X93074047Y-91490476D01*
X92959761Y-91490476D01*
X92807380Y-91528571D01*
X92731190Y-91566666D01*
X92655000Y-91642857D01*
X92616904Y-91757142D01*
X92616904Y-91833333D01*
X92655000Y-91947619D01*
X92693095Y-91985714D01*
X92883571Y-92671428D02*
X93416904Y-92671428D01*
X92578809Y-92480952D02*
X93150238Y-92290476D01*
X93150238Y-92785714D01*
X93416904Y-93509523D02*
X93416904Y-93052380D01*
X93416904Y-93280952D02*
X92616904Y-93280952D01*
X92731190Y-93204761D01*
X92807380Y-93128571D01*
X92845476Y-93052380D01*
G04 #@! TO.C,C47*
X103015714Y-89585714D02*
X103053809Y-89547619D01*
X103091904Y-89433333D01*
X103091904Y-89357142D01*
X103053809Y-89242857D01*
X102977619Y-89166666D01*
X102901428Y-89128571D01*
X102749047Y-89090476D01*
X102634761Y-89090476D01*
X102482380Y-89128571D01*
X102406190Y-89166666D01*
X102330000Y-89242857D01*
X102291904Y-89357142D01*
X102291904Y-89433333D01*
X102330000Y-89547619D01*
X102368095Y-89585714D01*
X102558571Y-90271428D02*
X103091904Y-90271428D01*
X102253809Y-90080952D02*
X102825238Y-89890476D01*
X102825238Y-90385714D01*
X102291904Y-90614285D02*
X102291904Y-91147619D01*
X103091904Y-90804761D01*
G04 #@! TO.C,C43*
X103015714Y-87185714D02*
X103053809Y-87147619D01*
X103091904Y-87033333D01*
X103091904Y-86957142D01*
X103053809Y-86842857D01*
X102977619Y-86766666D01*
X102901428Y-86728571D01*
X102749047Y-86690476D01*
X102634761Y-86690476D01*
X102482380Y-86728571D01*
X102406190Y-86766666D01*
X102330000Y-86842857D01*
X102291904Y-86957142D01*
X102291904Y-87033333D01*
X102330000Y-87147619D01*
X102368095Y-87185714D01*
X102558571Y-87871428D02*
X103091904Y-87871428D01*
X102253809Y-87680952D02*
X102825238Y-87490476D01*
X102825238Y-87985714D01*
X102291904Y-88214285D02*
X102291904Y-88709523D01*
X102596666Y-88442857D01*
X102596666Y-88557142D01*
X102634761Y-88633333D01*
X102672857Y-88671428D01*
X102749047Y-88709523D01*
X102939523Y-88709523D01*
X103015714Y-88671428D01*
X103053809Y-88633333D01*
X103091904Y-88557142D01*
X103091904Y-88328571D01*
X103053809Y-88252380D01*
X103015714Y-88214285D01*
G04 #@! TO.C,C42*
X103015714Y-84785714D02*
X103053809Y-84747619D01*
X103091904Y-84633333D01*
X103091904Y-84557142D01*
X103053809Y-84442857D01*
X102977619Y-84366666D01*
X102901428Y-84328571D01*
X102749047Y-84290476D01*
X102634761Y-84290476D01*
X102482380Y-84328571D01*
X102406190Y-84366666D01*
X102330000Y-84442857D01*
X102291904Y-84557142D01*
X102291904Y-84633333D01*
X102330000Y-84747619D01*
X102368095Y-84785714D01*
X102558571Y-85471428D02*
X103091904Y-85471428D01*
X102253809Y-85280952D02*
X102825238Y-85090476D01*
X102825238Y-85585714D01*
X102368095Y-85852380D02*
X102330000Y-85890476D01*
X102291904Y-85966666D01*
X102291904Y-86157142D01*
X102330000Y-86233333D01*
X102368095Y-86271428D01*
X102444285Y-86309523D01*
X102520476Y-86309523D01*
X102634761Y-86271428D01*
X103091904Y-85814285D01*
X103091904Y-86309523D01*
G04 #@! TO.C,C39*
X93340714Y-87170714D02*
X93378809Y-87132619D01*
X93416904Y-87018333D01*
X93416904Y-86942142D01*
X93378809Y-86827857D01*
X93302619Y-86751666D01*
X93226428Y-86713571D01*
X93074047Y-86675476D01*
X92959761Y-86675476D01*
X92807380Y-86713571D01*
X92731190Y-86751666D01*
X92655000Y-86827857D01*
X92616904Y-86942142D01*
X92616904Y-87018333D01*
X92655000Y-87132619D01*
X92693095Y-87170714D01*
X92616904Y-87437380D02*
X92616904Y-87932619D01*
X92921666Y-87665952D01*
X92921666Y-87780238D01*
X92959761Y-87856428D01*
X92997857Y-87894523D01*
X93074047Y-87932619D01*
X93264523Y-87932619D01*
X93340714Y-87894523D01*
X93378809Y-87856428D01*
X93416904Y-87780238D01*
X93416904Y-87551666D01*
X93378809Y-87475476D01*
X93340714Y-87437380D01*
X93416904Y-88313571D02*
X93416904Y-88465952D01*
X93378809Y-88542142D01*
X93340714Y-88580238D01*
X93226428Y-88656428D01*
X93074047Y-88694523D01*
X92769285Y-88694523D01*
X92693095Y-88656428D01*
X92655000Y-88618333D01*
X92616904Y-88542142D01*
X92616904Y-88389761D01*
X92655000Y-88313571D01*
X92693095Y-88275476D01*
X92769285Y-88237380D01*
X92959761Y-88237380D01*
X93035952Y-88275476D01*
X93074047Y-88313571D01*
X93112142Y-88389761D01*
X93112142Y-88542142D01*
X93074047Y-88618333D01*
X93035952Y-88656428D01*
X92959761Y-88694523D01*
G04 #@! TO.C,C36*
X92240714Y-89585714D02*
X92278809Y-89547619D01*
X92316904Y-89433333D01*
X92316904Y-89357142D01*
X92278809Y-89242857D01*
X92202619Y-89166666D01*
X92126428Y-89128571D01*
X91974047Y-89090476D01*
X91859761Y-89090476D01*
X91707380Y-89128571D01*
X91631190Y-89166666D01*
X91555000Y-89242857D01*
X91516904Y-89357142D01*
X91516904Y-89433333D01*
X91555000Y-89547619D01*
X91593095Y-89585714D01*
X91516904Y-89852380D02*
X91516904Y-90347619D01*
X91821666Y-90080952D01*
X91821666Y-90195238D01*
X91859761Y-90271428D01*
X91897857Y-90309523D01*
X91974047Y-90347619D01*
X92164523Y-90347619D01*
X92240714Y-90309523D01*
X92278809Y-90271428D01*
X92316904Y-90195238D01*
X92316904Y-89966666D01*
X92278809Y-89890476D01*
X92240714Y-89852380D01*
X91516904Y-91033333D02*
X91516904Y-90880952D01*
X91555000Y-90804761D01*
X91593095Y-90766666D01*
X91707380Y-90690476D01*
X91859761Y-90652380D01*
X92164523Y-90652380D01*
X92240714Y-90690476D01*
X92278809Y-90728571D01*
X92316904Y-90804761D01*
X92316904Y-90957142D01*
X92278809Y-91033333D01*
X92240714Y-91071428D01*
X92164523Y-91109523D01*
X91974047Y-91109523D01*
X91897857Y-91071428D01*
X91859761Y-91033333D01*
X91821666Y-90957142D01*
X91821666Y-90804761D01*
X91859761Y-90728571D01*
X91897857Y-90690476D01*
X91974047Y-90652380D01*
G04 #@! TO.C,C37*
X92240714Y-91985714D02*
X92278809Y-91947619D01*
X92316904Y-91833333D01*
X92316904Y-91757142D01*
X92278809Y-91642857D01*
X92202619Y-91566666D01*
X92126428Y-91528571D01*
X91974047Y-91490476D01*
X91859761Y-91490476D01*
X91707380Y-91528571D01*
X91631190Y-91566666D01*
X91555000Y-91642857D01*
X91516904Y-91757142D01*
X91516904Y-91833333D01*
X91555000Y-91947619D01*
X91593095Y-91985714D01*
X91516904Y-92252380D02*
X91516904Y-92747619D01*
X91821666Y-92480952D01*
X91821666Y-92595238D01*
X91859761Y-92671428D01*
X91897857Y-92709523D01*
X91974047Y-92747619D01*
X92164523Y-92747619D01*
X92240714Y-92709523D01*
X92278809Y-92671428D01*
X92316904Y-92595238D01*
X92316904Y-92366666D01*
X92278809Y-92290476D01*
X92240714Y-92252380D01*
X91516904Y-93014285D02*
X91516904Y-93547619D01*
X92316904Y-93204761D01*
G04 #@! TO.C,C35*
X92240714Y-87185714D02*
X92278809Y-87147619D01*
X92316904Y-87033333D01*
X92316904Y-86957142D01*
X92278809Y-86842857D01*
X92202619Y-86766666D01*
X92126428Y-86728571D01*
X91974047Y-86690476D01*
X91859761Y-86690476D01*
X91707380Y-86728571D01*
X91631190Y-86766666D01*
X91555000Y-86842857D01*
X91516904Y-86957142D01*
X91516904Y-87033333D01*
X91555000Y-87147619D01*
X91593095Y-87185714D01*
X91516904Y-87452380D02*
X91516904Y-87947619D01*
X91821666Y-87680952D01*
X91821666Y-87795238D01*
X91859761Y-87871428D01*
X91897857Y-87909523D01*
X91974047Y-87947619D01*
X92164523Y-87947619D01*
X92240714Y-87909523D01*
X92278809Y-87871428D01*
X92316904Y-87795238D01*
X92316904Y-87566666D01*
X92278809Y-87490476D01*
X92240714Y-87452380D01*
X91516904Y-88671428D02*
X91516904Y-88290476D01*
X91897857Y-88252380D01*
X91859761Y-88290476D01*
X91821666Y-88366666D01*
X91821666Y-88557142D01*
X91859761Y-88633333D01*
X91897857Y-88671428D01*
X91974047Y-88709523D01*
X92164523Y-88709523D01*
X92240714Y-88671428D01*
X92278809Y-88633333D01*
X92316904Y-88557142D01*
X92316904Y-88366666D01*
X92278809Y-88290476D01*
X92240714Y-88252380D01*
G04 #@! TO.C,C19*
X86414285Y-101485714D02*
X86452380Y-101523809D01*
X86566666Y-101561904D01*
X86642857Y-101561904D01*
X86757142Y-101523809D01*
X86833333Y-101447619D01*
X86871428Y-101371428D01*
X86909523Y-101219047D01*
X86909523Y-101104761D01*
X86871428Y-100952380D01*
X86833333Y-100876190D01*
X86757142Y-100800000D01*
X86642857Y-100761904D01*
X86566666Y-100761904D01*
X86452380Y-100800000D01*
X86414285Y-100838095D01*
X85652380Y-101561904D02*
X86109523Y-101561904D01*
X85880952Y-101561904D02*
X85880952Y-100761904D01*
X85957142Y-100876190D01*
X86033333Y-100952380D01*
X86109523Y-100990476D01*
X85271428Y-101561904D02*
X85119047Y-101561904D01*
X85042857Y-101523809D01*
X85004761Y-101485714D01*
X84928571Y-101371428D01*
X84890476Y-101219047D01*
X84890476Y-100914285D01*
X84928571Y-100838095D01*
X84966666Y-100800000D01*
X85042857Y-100761904D01*
X85195238Y-100761904D01*
X85271428Y-100800000D01*
X85309523Y-100838095D01*
X85347619Y-100914285D01*
X85347619Y-101104761D01*
X85309523Y-101180952D01*
X85271428Y-101219047D01*
X85195238Y-101257142D01*
X85042857Y-101257142D01*
X84966666Y-101219047D01*
X84928571Y-101180952D01*
X84890476Y-101104761D01*
G04 #@! TO.C,C34*
X92240714Y-84785714D02*
X92278809Y-84747619D01*
X92316904Y-84633333D01*
X92316904Y-84557142D01*
X92278809Y-84442857D01*
X92202619Y-84366666D01*
X92126428Y-84328571D01*
X91974047Y-84290476D01*
X91859761Y-84290476D01*
X91707380Y-84328571D01*
X91631190Y-84366666D01*
X91555000Y-84442857D01*
X91516904Y-84557142D01*
X91516904Y-84633333D01*
X91555000Y-84747619D01*
X91593095Y-84785714D01*
X91516904Y-85052380D02*
X91516904Y-85547619D01*
X91821666Y-85280952D01*
X91821666Y-85395238D01*
X91859761Y-85471428D01*
X91897857Y-85509523D01*
X91974047Y-85547619D01*
X92164523Y-85547619D01*
X92240714Y-85509523D01*
X92278809Y-85471428D01*
X92316904Y-85395238D01*
X92316904Y-85166666D01*
X92278809Y-85090476D01*
X92240714Y-85052380D01*
X91783571Y-86233333D02*
X92316904Y-86233333D01*
X91478809Y-86042857D02*
X92050238Y-85852380D01*
X92050238Y-86347619D01*
G04 #@! TO.C,C38*
X93340714Y-84785714D02*
X93378809Y-84747619D01*
X93416904Y-84633333D01*
X93416904Y-84557142D01*
X93378809Y-84442857D01*
X93302619Y-84366666D01*
X93226428Y-84328571D01*
X93074047Y-84290476D01*
X92959761Y-84290476D01*
X92807380Y-84328571D01*
X92731190Y-84366666D01*
X92655000Y-84442857D01*
X92616904Y-84557142D01*
X92616904Y-84633333D01*
X92655000Y-84747619D01*
X92693095Y-84785714D01*
X92616904Y-85052380D02*
X92616904Y-85547619D01*
X92921666Y-85280952D01*
X92921666Y-85395238D01*
X92959761Y-85471428D01*
X92997857Y-85509523D01*
X93074047Y-85547619D01*
X93264523Y-85547619D01*
X93340714Y-85509523D01*
X93378809Y-85471428D01*
X93416904Y-85395238D01*
X93416904Y-85166666D01*
X93378809Y-85090476D01*
X93340714Y-85052380D01*
X92959761Y-86004761D02*
X92921666Y-85928571D01*
X92883571Y-85890476D01*
X92807380Y-85852380D01*
X92769285Y-85852380D01*
X92693095Y-85890476D01*
X92655000Y-85928571D01*
X92616904Y-86004761D01*
X92616904Y-86157142D01*
X92655000Y-86233333D01*
X92693095Y-86271428D01*
X92769285Y-86309523D01*
X92807380Y-86309523D01*
X92883571Y-86271428D01*
X92921666Y-86233333D01*
X92959761Y-86157142D01*
X92959761Y-86004761D01*
X92997857Y-85928571D01*
X93035952Y-85890476D01*
X93112142Y-85852380D01*
X93264523Y-85852380D01*
X93340714Y-85890476D01*
X93378809Y-85928571D01*
X93416904Y-86004761D01*
X93416904Y-86157142D01*
X93378809Y-86233333D01*
X93340714Y-86271428D01*
X93264523Y-86309523D01*
X93112142Y-86309523D01*
X93035952Y-86271428D01*
X92997857Y-86233333D01*
X92959761Y-86157142D01*
G04 #@! TO.C,C67*
X93340714Y-104385714D02*
X93378809Y-104347619D01*
X93416904Y-104233333D01*
X93416904Y-104157142D01*
X93378809Y-104042857D01*
X93302619Y-103966666D01*
X93226428Y-103928571D01*
X93074047Y-103890476D01*
X92959761Y-103890476D01*
X92807380Y-103928571D01*
X92731190Y-103966666D01*
X92655000Y-104042857D01*
X92616904Y-104157142D01*
X92616904Y-104233333D01*
X92655000Y-104347619D01*
X92693095Y-104385714D01*
X92616904Y-105071428D02*
X92616904Y-104919047D01*
X92655000Y-104842857D01*
X92693095Y-104804761D01*
X92807380Y-104728571D01*
X92959761Y-104690476D01*
X93264523Y-104690476D01*
X93340714Y-104728571D01*
X93378809Y-104766666D01*
X93416904Y-104842857D01*
X93416904Y-104995238D01*
X93378809Y-105071428D01*
X93340714Y-105109523D01*
X93264523Y-105147619D01*
X93074047Y-105147619D01*
X92997857Y-105109523D01*
X92959761Y-105071428D01*
X92921666Y-104995238D01*
X92921666Y-104842857D01*
X92959761Y-104766666D01*
X92997857Y-104728571D01*
X93074047Y-104690476D01*
X92616904Y-105414285D02*
X92616904Y-105947619D01*
X93416904Y-105604761D01*
G04 #@! TO.C,C63*
X92240714Y-104370714D02*
X92278809Y-104332619D01*
X92316904Y-104218333D01*
X92316904Y-104142142D01*
X92278809Y-104027857D01*
X92202619Y-103951666D01*
X92126428Y-103913571D01*
X91974047Y-103875476D01*
X91859761Y-103875476D01*
X91707380Y-103913571D01*
X91631190Y-103951666D01*
X91555000Y-104027857D01*
X91516904Y-104142142D01*
X91516904Y-104218333D01*
X91555000Y-104332619D01*
X91593095Y-104370714D01*
X91516904Y-105056428D02*
X91516904Y-104904047D01*
X91555000Y-104827857D01*
X91593095Y-104789761D01*
X91707380Y-104713571D01*
X91859761Y-104675476D01*
X92164523Y-104675476D01*
X92240714Y-104713571D01*
X92278809Y-104751666D01*
X92316904Y-104827857D01*
X92316904Y-104980238D01*
X92278809Y-105056428D01*
X92240714Y-105094523D01*
X92164523Y-105132619D01*
X91974047Y-105132619D01*
X91897857Y-105094523D01*
X91859761Y-105056428D01*
X91821666Y-104980238D01*
X91821666Y-104827857D01*
X91859761Y-104751666D01*
X91897857Y-104713571D01*
X91974047Y-104675476D01*
X91516904Y-105399285D02*
X91516904Y-105894523D01*
X91821666Y-105627857D01*
X91821666Y-105742142D01*
X91859761Y-105818333D01*
X91897857Y-105856428D01*
X91974047Y-105894523D01*
X92164523Y-105894523D01*
X92240714Y-105856428D01*
X92278809Y-105818333D01*
X92316904Y-105742142D01*
X92316904Y-105513571D01*
X92278809Y-105437380D01*
X92240714Y-105399285D01*
G04 #@! TO.C,C66*
X93340714Y-101985714D02*
X93378809Y-101947619D01*
X93416904Y-101833333D01*
X93416904Y-101757142D01*
X93378809Y-101642857D01*
X93302619Y-101566666D01*
X93226428Y-101528571D01*
X93074047Y-101490476D01*
X92959761Y-101490476D01*
X92807380Y-101528571D01*
X92731190Y-101566666D01*
X92655000Y-101642857D01*
X92616904Y-101757142D01*
X92616904Y-101833333D01*
X92655000Y-101947619D01*
X92693095Y-101985714D01*
X92616904Y-102671428D02*
X92616904Y-102519047D01*
X92655000Y-102442857D01*
X92693095Y-102404761D01*
X92807380Y-102328571D01*
X92959761Y-102290476D01*
X93264523Y-102290476D01*
X93340714Y-102328571D01*
X93378809Y-102366666D01*
X93416904Y-102442857D01*
X93416904Y-102595238D01*
X93378809Y-102671428D01*
X93340714Y-102709523D01*
X93264523Y-102747619D01*
X93074047Y-102747619D01*
X92997857Y-102709523D01*
X92959761Y-102671428D01*
X92921666Y-102595238D01*
X92921666Y-102442857D01*
X92959761Y-102366666D01*
X92997857Y-102328571D01*
X93074047Y-102290476D01*
X92616904Y-103433333D02*
X92616904Y-103280952D01*
X92655000Y-103204761D01*
X92693095Y-103166666D01*
X92807380Y-103090476D01*
X92959761Y-103052380D01*
X93264523Y-103052380D01*
X93340714Y-103090476D01*
X93378809Y-103128571D01*
X93416904Y-103204761D01*
X93416904Y-103357142D01*
X93378809Y-103433333D01*
X93340714Y-103471428D01*
X93264523Y-103509523D01*
X93074047Y-103509523D01*
X92997857Y-103471428D01*
X92959761Y-103433333D01*
X92921666Y-103357142D01*
X92921666Y-103204761D01*
X92959761Y-103128571D01*
X92997857Y-103090476D01*
X93074047Y-103052380D01*
G04 #@! TO.C,C62*
X92240714Y-101970714D02*
X92278809Y-101932619D01*
X92316904Y-101818333D01*
X92316904Y-101742142D01*
X92278809Y-101627857D01*
X92202619Y-101551666D01*
X92126428Y-101513571D01*
X91974047Y-101475476D01*
X91859761Y-101475476D01*
X91707380Y-101513571D01*
X91631190Y-101551666D01*
X91555000Y-101627857D01*
X91516904Y-101742142D01*
X91516904Y-101818333D01*
X91555000Y-101932619D01*
X91593095Y-101970714D01*
X91516904Y-102656428D02*
X91516904Y-102504047D01*
X91555000Y-102427857D01*
X91593095Y-102389761D01*
X91707380Y-102313571D01*
X91859761Y-102275476D01*
X92164523Y-102275476D01*
X92240714Y-102313571D01*
X92278809Y-102351666D01*
X92316904Y-102427857D01*
X92316904Y-102580238D01*
X92278809Y-102656428D01*
X92240714Y-102694523D01*
X92164523Y-102732619D01*
X91974047Y-102732619D01*
X91897857Y-102694523D01*
X91859761Y-102656428D01*
X91821666Y-102580238D01*
X91821666Y-102427857D01*
X91859761Y-102351666D01*
X91897857Y-102313571D01*
X91974047Y-102275476D01*
X91593095Y-103037380D02*
X91555000Y-103075476D01*
X91516904Y-103151666D01*
X91516904Y-103342142D01*
X91555000Y-103418333D01*
X91593095Y-103456428D01*
X91669285Y-103494523D01*
X91745476Y-103494523D01*
X91859761Y-103456428D01*
X92316904Y-102999285D01*
X92316904Y-103494523D01*
G04 #@! TO.C,C61*
X92240714Y-99585714D02*
X92278809Y-99547619D01*
X92316904Y-99433333D01*
X92316904Y-99357142D01*
X92278809Y-99242857D01*
X92202619Y-99166666D01*
X92126428Y-99128571D01*
X91974047Y-99090476D01*
X91859761Y-99090476D01*
X91707380Y-99128571D01*
X91631190Y-99166666D01*
X91555000Y-99242857D01*
X91516904Y-99357142D01*
X91516904Y-99433333D01*
X91555000Y-99547619D01*
X91593095Y-99585714D01*
X91516904Y-100271428D02*
X91516904Y-100119047D01*
X91555000Y-100042857D01*
X91593095Y-100004761D01*
X91707380Y-99928571D01*
X91859761Y-99890476D01*
X92164523Y-99890476D01*
X92240714Y-99928571D01*
X92278809Y-99966666D01*
X92316904Y-100042857D01*
X92316904Y-100195238D01*
X92278809Y-100271428D01*
X92240714Y-100309523D01*
X92164523Y-100347619D01*
X91974047Y-100347619D01*
X91897857Y-100309523D01*
X91859761Y-100271428D01*
X91821666Y-100195238D01*
X91821666Y-100042857D01*
X91859761Y-99966666D01*
X91897857Y-99928571D01*
X91974047Y-99890476D01*
X92316904Y-101109523D02*
X92316904Y-100652380D01*
X92316904Y-100880952D02*
X91516904Y-100880952D01*
X91631190Y-100804761D01*
X91707380Y-100728571D01*
X91745476Y-100652380D01*
G04 #@! TO.C,C65*
X93340714Y-99585714D02*
X93378809Y-99547619D01*
X93416904Y-99433333D01*
X93416904Y-99357142D01*
X93378809Y-99242857D01*
X93302619Y-99166666D01*
X93226428Y-99128571D01*
X93074047Y-99090476D01*
X92959761Y-99090476D01*
X92807380Y-99128571D01*
X92731190Y-99166666D01*
X92655000Y-99242857D01*
X92616904Y-99357142D01*
X92616904Y-99433333D01*
X92655000Y-99547619D01*
X92693095Y-99585714D01*
X92616904Y-100271428D02*
X92616904Y-100119047D01*
X92655000Y-100042857D01*
X92693095Y-100004761D01*
X92807380Y-99928571D01*
X92959761Y-99890476D01*
X93264523Y-99890476D01*
X93340714Y-99928571D01*
X93378809Y-99966666D01*
X93416904Y-100042857D01*
X93416904Y-100195238D01*
X93378809Y-100271428D01*
X93340714Y-100309523D01*
X93264523Y-100347619D01*
X93074047Y-100347619D01*
X92997857Y-100309523D01*
X92959761Y-100271428D01*
X92921666Y-100195238D01*
X92921666Y-100042857D01*
X92959761Y-99966666D01*
X92997857Y-99928571D01*
X93074047Y-99890476D01*
X92616904Y-101071428D02*
X92616904Y-100690476D01*
X92997857Y-100652380D01*
X92959761Y-100690476D01*
X92921666Y-100766666D01*
X92921666Y-100957142D01*
X92959761Y-101033333D01*
X92997857Y-101071428D01*
X93074047Y-101109523D01*
X93264523Y-101109523D01*
X93340714Y-101071428D01*
X93378809Y-101033333D01*
X93416904Y-100957142D01*
X93416904Y-100766666D01*
X93378809Y-100690476D01*
X93340714Y-100652380D01*
G04 #@! TO.C,C81*
X81385714Y-99085714D02*
X81423809Y-99047619D01*
X81461904Y-98933333D01*
X81461904Y-98857142D01*
X81423809Y-98742857D01*
X81347619Y-98666666D01*
X81271428Y-98628571D01*
X81119047Y-98590476D01*
X81004761Y-98590476D01*
X80852380Y-98628571D01*
X80776190Y-98666666D01*
X80700000Y-98742857D01*
X80661904Y-98857142D01*
X80661904Y-98933333D01*
X80700000Y-99047619D01*
X80738095Y-99085714D01*
X81004761Y-99542857D02*
X80966666Y-99466666D01*
X80928571Y-99428571D01*
X80852380Y-99390476D01*
X80814285Y-99390476D01*
X80738095Y-99428571D01*
X80700000Y-99466666D01*
X80661904Y-99542857D01*
X80661904Y-99695238D01*
X80700000Y-99771428D01*
X80738095Y-99809523D01*
X80814285Y-99847619D01*
X80852380Y-99847619D01*
X80928571Y-99809523D01*
X80966666Y-99771428D01*
X81004761Y-99695238D01*
X81004761Y-99542857D01*
X81042857Y-99466666D01*
X81080952Y-99428571D01*
X81157142Y-99390476D01*
X81309523Y-99390476D01*
X81385714Y-99428571D01*
X81423809Y-99466666D01*
X81461904Y-99542857D01*
X81461904Y-99695238D01*
X81423809Y-99771428D01*
X81385714Y-99809523D01*
X81309523Y-99847619D01*
X81157142Y-99847619D01*
X81080952Y-99809523D01*
X81042857Y-99771428D01*
X81004761Y-99695238D01*
X81461904Y-100609523D02*
X81461904Y-100152380D01*
X81461904Y-100380952D02*
X80661904Y-100380952D01*
X80776190Y-100304761D01*
X80852380Y-100228571D01*
X80890476Y-100152380D01*
G04 #@! TO.C,C78*
X80250000Y-94250000D02*
X80283333Y-94283333D01*
X80383333Y-94316666D01*
X80450000Y-94316666D01*
X80550000Y-94283333D01*
X80616666Y-94216666D01*
X80650000Y-94150000D01*
X80683333Y-94016666D01*
X80683333Y-93916666D01*
X80650000Y-93783333D01*
X80616666Y-93716666D01*
X80550000Y-93650000D01*
X80450000Y-93616666D01*
X80383333Y-93616666D01*
X80283333Y-93650000D01*
X80250000Y-93683333D01*
X80016666Y-93616666D02*
X79550000Y-93616666D01*
X79850000Y-94316666D01*
X79183333Y-93916666D02*
X79250000Y-93883333D01*
X79283333Y-93850000D01*
X79316666Y-93783333D01*
X79316666Y-93750000D01*
X79283333Y-93683333D01*
X79250000Y-93650000D01*
X79183333Y-93616666D01*
X79050000Y-93616666D01*
X78983333Y-93650000D01*
X78950000Y-93683333D01*
X78916666Y-93750000D01*
X78916666Y-93783333D01*
X78950000Y-93850000D01*
X78983333Y-93883333D01*
X79050000Y-93916666D01*
X79183333Y-93916666D01*
X79250000Y-93950000D01*
X79283333Y-93983333D01*
X79316666Y-94050000D01*
X79316666Y-94183333D01*
X79283333Y-94250000D01*
X79250000Y-94283333D01*
X79183333Y-94316666D01*
X79050000Y-94316666D01*
X78983333Y-94283333D01*
X78950000Y-94250000D01*
X78916666Y-94183333D01*
X78916666Y-94050000D01*
X78950000Y-93983333D01*
X78983333Y-93950000D01*
X79050000Y-93916666D01*
G04 #@! TO.C,R31*
X78314285Y-98961904D02*
X78580952Y-98580952D01*
X78771428Y-98961904D02*
X78771428Y-98161904D01*
X78466666Y-98161904D01*
X78390476Y-98200000D01*
X78352380Y-98238095D01*
X78314285Y-98314285D01*
X78314285Y-98428571D01*
X78352380Y-98504761D01*
X78390476Y-98542857D01*
X78466666Y-98580952D01*
X78771428Y-98580952D01*
X78047619Y-98161904D02*
X77552380Y-98161904D01*
X77819047Y-98466666D01*
X77704761Y-98466666D01*
X77628571Y-98504761D01*
X77590476Y-98542857D01*
X77552380Y-98619047D01*
X77552380Y-98809523D01*
X77590476Y-98885714D01*
X77628571Y-98923809D01*
X77704761Y-98961904D01*
X77933333Y-98961904D01*
X78009523Y-98923809D01*
X78047619Y-98885714D01*
X76790476Y-98961904D02*
X77247619Y-98961904D01*
X77019047Y-98961904D02*
X77019047Y-98161904D01*
X77095238Y-98276190D01*
X77171428Y-98352380D01*
X77247619Y-98390476D01*
G04 #@! TO.C,R32*
X90961904Y-95410714D02*
X90580952Y-95144047D01*
X90961904Y-94953571D02*
X90161904Y-94953571D01*
X90161904Y-95258333D01*
X90200000Y-95334523D01*
X90238095Y-95372619D01*
X90314285Y-95410714D01*
X90428571Y-95410714D01*
X90504761Y-95372619D01*
X90542857Y-95334523D01*
X90580952Y-95258333D01*
X90580952Y-94953571D01*
X90161904Y-95677380D02*
X90161904Y-96172619D01*
X90466666Y-95905952D01*
X90466666Y-96020238D01*
X90504761Y-96096428D01*
X90542857Y-96134523D01*
X90619047Y-96172619D01*
X90809523Y-96172619D01*
X90885714Y-96134523D01*
X90923809Y-96096428D01*
X90961904Y-96020238D01*
X90961904Y-95791666D01*
X90923809Y-95715476D01*
X90885714Y-95677380D01*
X90238095Y-96477380D02*
X90200000Y-96515476D01*
X90161904Y-96591666D01*
X90161904Y-96782142D01*
X90200000Y-96858333D01*
X90238095Y-96896428D01*
X90314285Y-96934523D01*
X90390476Y-96934523D01*
X90504761Y-96896428D01*
X90961904Y-96439285D01*
X90961904Y-96934523D01*
G04 #@! TO.C,C6*
X71633333Y-100785714D02*
X71671428Y-100823809D01*
X71785714Y-100861904D01*
X71861904Y-100861904D01*
X71976190Y-100823809D01*
X72052380Y-100747619D01*
X72090476Y-100671428D01*
X72128571Y-100519047D01*
X72128571Y-100404761D01*
X72090476Y-100252380D01*
X72052380Y-100176190D01*
X71976190Y-100100000D01*
X71861904Y-100061904D01*
X71785714Y-100061904D01*
X71671428Y-100100000D01*
X71633333Y-100138095D01*
X70947619Y-100061904D02*
X71100000Y-100061904D01*
X71176190Y-100100000D01*
X71214285Y-100138095D01*
X71290476Y-100252380D01*
X71328571Y-100404761D01*
X71328571Y-100709523D01*
X71290476Y-100785714D01*
X71252380Y-100823809D01*
X71176190Y-100861904D01*
X71023809Y-100861904D01*
X70947619Y-100823809D01*
X70909523Y-100785714D01*
X70871428Y-100709523D01*
X70871428Y-100519047D01*
X70909523Y-100442857D01*
X70947619Y-100404761D01*
X71023809Y-100366666D01*
X71176190Y-100366666D01*
X71252380Y-100404761D01*
X71290476Y-100442857D01*
X71328571Y-100519047D01*
G04 #@! TO.C,C76*
X77214285Y-95610714D02*
X77252380Y-95648809D01*
X77366666Y-95686904D01*
X77442857Y-95686904D01*
X77557142Y-95648809D01*
X77633333Y-95572619D01*
X77671428Y-95496428D01*
X77709523Y-95344047D01*
X77709523Y-95229761D01*
X77671428Y-95077380D01*
X77633333Y-95001190D01*
X77557142Y-94925000D01*
X77442857Y-94886904D01*
X77366666Y-94886904D01*
X77252380Y-94925000D01*
X77214285Y-94963095D01*
X76947619Y-94886904D02*
X76414285Y-94886904D01*
X76757142Y-95686904D01*
X75766666Y-94886904D02*
X75919047Y-94886904D01*
X75995238Y-94925000D01*
X76033333Y-94963095D01*
X76109523Y-95077380D01*
X76147619Y-95229761D01*
X76147619Y-95534523D01*
X76109523Y-95610714D01*
X76071428Y-95648809D01*
X75995238Y-95686904D01*
X75842857Y-95686904D01*
X75766666Y-95648809D01*
X75728571Y-95610714D01*
X75690476Y-95534523D01*
X75690476Y-95344047D01*
X75728571Y-95267857D01*
X75766666Y-95229761D01*
X75842857Y-95191666D01*
X75995238Y-95191666D01*
X76071428Y-95229761D01*
X76109523Y-95267857D01*
X76147619Y-95344047D01*
G04 #@! TO.C,C33*
X87625000Y-103050000D02*
X87658333Y-103083333D01*
X87758333Y-103116666D01*
X87825000Y-103116666D01*
X87925000Y-103083333D01*
X87991666Y-103016666D01*
X88025000Y-102950000D01*
X88058333Y-102816666D01*
X88058333Y-102716666D01*
X88025000Y-102583333D01*
X87991666Y-102516666D01*
X87925000Y-102450000D01*
X87825000Y-102416666D01*
X87758333Y-102416666D01*
X87658333Y-102450000D01*
X87625000Y-102483333D01*
X87391666Y-102416666D02*
X86958333Y-102416666D01*
X87191666Y-102683333D01*
X87091666Y-102683333D01*
X87025000Y-102716666D01*
X86991666Y-102750000D01*
X86958333Y-102816666D01*
X86958333Y-102983333D01*
X86991666Y-103050000D01*
X87025000Y-103083333D01*
X87091666Y-103116666D01*
X87291666Y-103116666D01*
X87358333Y-103083333D01*
X87391666Y-103050000D01*
X86725000Y-102416666D02*
X86291666Y-102416666D01*
X86525000Y-102683333D01*
X86425000Y-102683333D01*
X86358333Y-102716666D01*
X86325000Y-102750000D01*
X86291666Y-102816666D01*
X86291666Y-102983333D01*
X86325000Y-103050000D01*
X86358333Y-103083333D01*
X86425000Y-103116666D01*
X86625000Y-103116666D01*
X86691666Y-103083333D01*
X86725000Y-103050000D01*
G04 #@! TO.C,C18*
X86025000Y-106350000D02*
X86058333Y-106383333D01*
X86158333Y-106416666D01*
X86225000Y-106416666D01*
X86325000Y-106383333D01*
X86391666Y-106316666D01*
X86425000Y-106250000D01*
X86458333Y-106116666D01*
X86458333Y-106016666D01*
X86425000Y-105883333D01*
X86391666Y-105816666D01*
X86325000Y-105750000D01*
X86225000Y-105716666D01*
X86158333Y-105716666D01*
X86058333Y-105750000D01*
X86025000Y-105783333D01*
X85358333Y-106416666D02*
X85758333Y-106416666D01*
X85558333Y-106416666D02*
X85558333Y-105716666D01*
X85625000Y-105816666D01*
X85691666Y-105883333D01*
X85758333Y-105916666D01*
X84958333Y-106016666D02*
X85025000Y-105983333D01*
X85058333Y-105950000D01*
X85091666Y-105883333D01*
X85091666Y-105850000D01*
X85058333Y-105783333D01*
X85025000Y-105750000D01*
X84958333Y-105716666D01*
X84825000Y-105716666D01*
X84758333Y-105750000D01*
X84725000Y-105783333D01*
X84691666Y-105850000D01*
X84691666Y-105883333D01*
X84725000Y-105950000D01*
X84758333Y-105983333D01*
X84825000Y-106016666D01*
X84958333Y-106016666D01*
X85025000Y-106050000D01*
X85058333Y-106083333D01*
X85091666Y-106150000D01*
X85091666Y-106283333D01*
X85058333Y-106350000D01*
X85025000Y-106383333D01*
X84958333Y-106416666D01*
X84825000Y-106416666D01*
X84758333Y-106383333D01*
X84725000Y-106350000D01*
X84691666Y-106283333D01*
X84691666Y-106150000D01*
X84725000Y-106083333D01*
X84758333Y-106050000D01*
X84825000Y-106016666D01*
G04 #@! TO.C,C2*
X65185714Y-97366666D02*
X65223809Y-97328571D01*
X65261904Y-97214285D01*
X65261904Y-97138095D01*
X65223809Y-97023809D01*
X65147619Y-96947619D01*
X65071428Y-96909523D01*
X64919047Y-96871428D01*
X64804761Y-96871428D01*
X64652380Y-96909523D01*
X64576190Y-96947619D01*
X64500000Y-97023809D01*
X64461904Y-97138095D01*
X64461904Y-97214285D01*
X64500000Y-97328571D01*
X64538095Y-97366666D01*
X64538095Y-97671428D02*
X64500000Y-97709523D01*
X64461904Y-97785714D01*
X64461904Y-97976190D01*
X64500000Y-98052380D01*
X64538095Y-98090476D01*
X64614285Y-98128571D01*
X64690476Y-98128571D01*
X64804761Y-98090476D01*
X65261904Y-97633333D01*
X65261904Y-98128571D01*
G04 #@! TO.C,C3*
X65185714Y-95366666D02*
X65223809Y-95328571D01*
X65261904Y-95214285D01*
X65261904Y-95138095D01*
X65223809Y-95023809D01*
X65147619Y-94947619D01*
X65071428Y-94909523D01*
X64919047Y-94871428D01*
X64804761Y-94871428D01*
X64652380Y-94909523D01*
X64576190Y-94947619D01*
X64500000Y-95023809D01*
X64461904Y-95138095D01*
X64461904Y-95214285D01*
X64500000Y-95328571D01*
X64538095Y-95366666D01*
X64461904Y-95633333D02*
X64461904Y-96128571D01*
X64766666Y-95861904D01*
X64766666Y-95976190D01*
X64804761Y-96052380D01*
X64842857Y-96090476D01*
X64919047Y-96128571D01*
X65109523Y-96128571D01*
X65185714Y-96090476D01*
X65223809Y-96052380D01*
X65261904Y-95976190D01*
X65261904Y-95747619D01*
X65223809Y-95671428D01*
X65185714Y-95633333D01*
G04 #@! TO.C,C4*
X74085714Y-95866666D02*
X74123809Y-95828571D01*
X74161904Y-95714285D01*
X74161904Y-95638095D01*
X74123809Y-95523809D01*
X74047619Y-95447619D01*
X73971428Y-95409523D01*
X73819047Y-95371428D01*
X73704761Y-95371428D01*
X73552380Y-95409523D01*
X73476190Y-95447619D01*
X73400000Y-95523809D01*
X73361904Y-95638095D01*
X73361904Y-95714285D01*
X73400000Y-95828571D01*
X73438095Y-95866666D01*
X73628571Y-96552380D02*
X74161904Y-96552380D01*
X73323809Y-96361904D02*
X73895238Y-96171428D01*
X73895238Y-96666666D01*
G04 #@! TO.C,C5*
X70933333Y-91885714D02*
X70971428Y-91923809D01*
X71085714Y-91961904D01*
X71161904Y-91961904D01*
X71276190Y-91923809D01*
X71352380Y-91847619D01*
X71390476Y-91771428D01*
X71428571Y-91619047D01*
X71428571Y-91504761D01*
X71390476Y-91352380D01*
X71352380Y-91276190D01*
X71276190Y-91200000D01*
X71161904Y-91161904D01*
X71085714Y-91161904D01*
X70971428Y-91200000D01*
X70933333Y-91238095D01*
X70209523Y-91161904D02*
X70590476Y-91161904D01*
X70628571Y-91542857D01*
X70590476Y-91504761D01*
X70514285Y-91466666D01*
X70323809Y-91466666D01*
X70247619Y-91504761D01*
X70209523Y-91542857D01*
X70171428Y-91619047D01*
X70171428Y-91809523D01*
X70209523Y-91885714D01*
X70247619Y-91923809D01*
X70323809Y-91961904D01*
X70514285Y-91961904D01*
X70590476Y-91923809D01*
X70628571Y-91885714D01*
G04 #@! TO.C,C7*
X65733333Y-91885714D02*
X65771428Y-91923809D01*
X65885714Y-91961904D01*
X65961904Y-91961904D01*
X66076190Y-91923809D01*
X66152380Y-91847619D01*
X66190476Y-91771428D01*
X66228571Y-91619047D01*
X66228571Y-91504761D01*
X66190476Y-91352380D01*
X66152380Y-91276190D01*
X66076190Y-91200000D01*
X65961904Y-91161904D01*
X65885714Y-91161904D01*
X65771428Y-91200000D01*
X65733333Y-91238095D01*
X65466666Y-91161904D02*
X64933333Y-91161904D01*
X65276190Y-91961904D01*
G04 #@! TO.C,C9*
X65185714Y-93366666D02*
X65223809Y-93328571D01*
X65261904Y-93214285D01*
X65261904Y-93138095D01*
X65223809Y-93023809D01*
X65147619Y-92947619D01*
X65071428Y-92909523D01*
X64919047Y-92871428D01*
X64804761Y-92871428D01*
X64652380Y-92909523D01*
X64576190Y-92947619D01*
X64500000Y-93023809D01*
X64461904Y-93138095D01*
X64461904Y-93214285D01*
X64500000Y-93328571D01*
X64538095Y-93366666D01*
X65261904Y-93747619D02*
X65261904Y-93900000D01*
X65223809Y-93976190D01*
X65185714Y-94014285D01*
X65071428Y-94090476D01*
X64919047Y-94128571D01*
X64614285Y-94128571D01*
X64538095Y-94090476D01*
X64500000Y-94052380D01*
X64461904Y-93976190D01*
X64461904Y-93823809D01*
X64500000Y-93747619D01*
X64538095Y-93709523D01*
X64614285Y-93671428D01*
X64804761Y-93671428D01*
X64880952Y-93709523D01*
X64919047Y-93747619D01*
X64957142Y-93823809D01*
X64957142Y-93976190D01*
X64919047Y-94052380D01*
X64880952Y-94090476D01*
X64804761Y-94128571D01*
G04 #@! TO.C,C10*
X69514285Y-100785714D02*
X69552380Y-100823809D01*
X69666666Y-100861904D01*
X69742857Y-100861904D01*
X69857142Y-100823809D01*
X69933333Y-100747619D01*
X69971428Y-100671428D01*
X70009523Y-100519047D01*
X70009523Y-100404761D01*
X69971428Y-100252380D01*
X69933333Y-100176190D01*
X69857142Y-100100000D01*
X69742857Y-100061904D01*
X69666666Y-100061904D01*
X69552380Y-100100000D01*
X69514285Y-100138095D01*
X68752380Y-100861904D02*
X69209523Y-100861904D01*
X68980952Y-100861904D02*
X68980952Y-100061904D01*
X69057142Y-100176190D01*
X69133333Y-100252380D01*
X69209523Y-100290476D01*
X68257142Y-100061904D02*
X68180952Y-100061904D01*
X68104761Y-100100000D01*
X68066666Y-100138095D01*
X68028571Y-100214285D01*
X67990476Y-100366666D01*
X67990476Y-100557142D01*
X68028571Y-100709523D01*
X68066666Y-100785714D01*
X68104761Y-100823809D01*
X68180952Y-100861904D01*
X68257142Y-100861904D01*
X68333333Y-100823809D01*
X68371428Y-100785714D01*
X68409523Y-100709523D01*
X68447619Y-100557142D01*
X68447619Y-100366666D01*
X68409523Y-100214285D01*
X68371428Y-100138095D01*
X68333333Y-100100000D01*
X68257142Y-100061904D01*
G04 #@! TO.C,C79*
X89014285Y-93685714D02*
X89052380Y-93723809D01*
X89166666Y-93761904D01*
X89242857Y-93761904D01*
X89357142Y-93723809D01*
X89433333Y-93647619D01*
X89471428Y-93571428D01*
X89509523Y-93419047D01*
X89509523Y-93304761D01*
X89471428Y-93152380D01*
X89433333Y-93076190D01*
X89357142Y-93000000D01*
X89242857Y-92961904D01*
X89166666Y-92961904D01*
X89052380Y-93000000D01*
X89014285Y-93038095D01*
X88747619Y-92961904D02*
X88214285Y-92961904D01*
X88557142Y-93761904D01*
X87871428Y-93761904D02*
X87719047Y-93761904D01*
X87642857Y-93723809D01*
X87604761Y-93685714D01*
X87528571Y-93571428D01*
X87490476Y-93419047D01*
X87490476Y-93114285D01*
X87528571Y-93038095D01*
X87566666Y-93000000D01*
X87642857Y-92961904D01*
X87795238Y-92961904D01*
X87871428Y-93000000D01*
X87909523Y-93038095D01*
X87947619Y-93114285D01*
X87947619Y-93304761D01*
X87909523Y-93380952D01*
X87871428Y-93419047D01*
X87795238Y-93457142D01*
X87642857Y-93457142D01*
X87566666Y-93419047D01*
X87528571Y-93380952D01*
X87490476Y-93304761D01*
G04 #@! TO.C,C17*
X75785714Y-116185714D02*
X75823809Y-116147619D01*
X75861904Y-116033333D01*
X75861904Y-115957142D01*
X75823809Y-115842857D01*
X75747619Y-115766666D01*
X75671428Y-115728571D01*
X75519047Y-115690476D01*
X75404761Y-115690476D01*
X75252380Y-115728571D01*
X75176190Y-115766666D01*
X75100000Y-115842857D01*
X75061904Y-115957142D01*
X75061904Y-116033333D01*
X75100000Y-116147619D01*
X75138095Y-116185714D01*
X75861904Y-116947619D02*
X75861904Y-116490476D01*
X75861904Y-116719047D02*
X75061904Y-116719047D01*
X75176190Y-116642857D01*
X75252380Y-116566666D01*
X75290476Y-116490476D01*
X75061904Y-117214285D02*
X75061904Y-117747619D01*
X75861904Y-117404761D01*
G04 #@! TO.C,C15*
X75785714Y-110485714D02*
X75823809Y-110447619D01*
X75861904Y-110333333D01*
X75861904Y-110257142D01*
X75823809Y-110142857D01*
X75747619Y-110066666D01*
X75671428Y-110028571D01*
X75519047Y-109990476D01*
X75404761Y-109990476D01*
X75252380Y-110028571D01*
X75176190Y-110066666D01*
X75100000Y-110142857D01*
X75061904Y-110257142D01*
X75061904Y-110333333D01*
X75100000Y-110447619D01*
X75138095Y-110485714D01*
X75861904Y-111247619D02*
X75861904Y-110790476D01*
X75861904Y-111019047D02*
X75061904Y-111019047D01*
X75176190Y-110942857D01*
X75252380Y-110866666D01*
X75290476Y-110790476D01*
X75061904Y-111971428D02*
X75061904Y-111590476D01*
X75442857Y-111552380D01*
X75404761Y-111590476D01*
X75366666Y-111666666D01*
X75366666Y-111857142D01*
X75404761Y-111933333D01*
X75442857Y-111971428D01*
X75519047Y-112009523D01*
X75709523Y-112009523D01*
X75785714Y-111971428D01*
X75823809Y-111933333D01*
X75861904Y-111857142D01*
X75861904Y-111666666D01*
X75823809Y-111590476D01*
X75785714Y-111552380D01*
G04 #@! TO.C,C75*
X104115714Y-104385714D02*
X104153809Y-104347619D01*
X104191904Y-104233333D01*
X104191904Y-104157142D01*
X104153809Y-104042857D01*
X104077619Y-103966666D01*
X104001428Y-103928571D01*
X103849047Y-103890476D01*
X103734761Y-103890476D01*
X103582380Y-103928571D01*
X103506190Y-103966666D01*
X103430000Y-104042857D01*
X103391904Y-104157142D01*
X103391904Y-104233333D01*
X103430000Y-104347619D01*
X103468095Y-104385714D01*
X103391904Y-104652380D02*
X103391904Y-105185714D01*
X104191904Y-104842857D01*
X103391904Y-105871428D02*
X103391904Y-105490476D01*
X103772857Y-105452380D01*
X103734761Y-105490476D01*
X103696666Y-105566666D01*
X103696666Y-105757142D01*
X103734761Y-105833333D01*
X103772857Y-105871428D01*
X103849047Y-105909523D01*
X104039523Y-105909523D01*
X104115714Y-105871428D01*
X104153809Y-105833333D01*
X104191904Y-105757142D01*
X104191904Y-105566666D01*
X104153809Y-105490476D01*
X104115714Y-105452380D01*
G04 #@! TO.C,C74*
X104115714Y-101985714D02*
X104153809Y-101947619D01*
X104191904Y-101833333D01*
X104191904Y-101757142D01*
X104153809Y-101642857D01*
X104077619Y-101566666D01*
X104001428Y-101528571D01*
X103849047Y-101490476D01*
X103734761Y-101490476D01*
X103582380Y-101528571D01*
X103506190Y-101566666D01*
X103430000Y-101642857D01*
X103391904Y-101757142D01*
X103391904Y-101833333D01*
X103430000Y-101947619D01*
X103468095Y-101985714D01*
X103391904Y-102252380D02*
X103391904Y-102785714D01*
X104191904Y-102442857D01*
X103658571Y-103433333D02*
X104191904Y-103433333D01*
X103353809Y-103242857D02*
X103925238Y-103052380D01*
X103925238Y-103547619D01*
G04 #@! TO.C,C20*
X89314285Y-99085714D02*
X89352380Y-99123809D01*
X89466666Y-99161904D01*
X89542857Y-99161904D01*
X89657142Y-99123809D01*
X89733333Y-99047619D01*
X89771428Y-98971428D01*
X89809523Y-98819047D01*
X89809523Y-98704761D01*
X89771428Y-98552380D01*
X89733333Y-98476190D01*
X89657142Y-98400000D01*
X89542857Y-98361904D01*
X89466666Y-98361904D01*
X89352380Y-98400000D01*
X89314285Y-98438095D01*
X89009523Y-98438095D02*
X88971428Y-98400000D01*
X88895238Y-98361904D01*
X88704761Y-98361904D01*
X88628571Y-98400000D01*
X88590476Y-98438095D01*
X88552380Y-98514285D01*
X88552380Y-98590476D01*
X88590476Y-98704761D01*
X89047619Y-99161904D01*
X88552380Y-99161904D01*
X88057142Y-98361904D02*
X87980952Y-98361904D01*
X87904761Y-98400000D01*
X87866666Y-98438095D01*
X87828571Y-98514285D01*
X87790476Y-98666666D01*
X87790476Y-98857142D01*
X87828571Y-99009523D01*
X87866666Y-99085714D01*
X87904761Y-99123809D01*
X87980952Y-99161904D01*
X88057142Y-99161904D01*
X88133333Y-99123809D01*
X88171428Y-99085714D01*
X88209523Y-99009523D01*
X88247619Y-98857142D01*
X88247619Y-98666666D01*
X88209523Y-98514285D01*
X88171428Y-98438095D01*
X88133333Y-98400000D01*
X88057142Y-98361904D01*
G04 #@! TO.C,C21*
X89825000Y-102600000D02*
X89858333Y-102566666D01*
X89891666Y-102466666D01*
X89891666Y-102400000D01*
X89858333Y-102300000D01*
X89791666Y-102233333D01*
X89725000Y-102200000D01*
X89591666Y-102166666D01*
X89491666Y-102166666D01*
X89358333Y-102200000D01*
X89291666Y-102233333D01*
X89225000Y-102300000D01*
X89191666Y-102400000D01*
X89191666Y-102466666D01*
X89225000Y-102566666D01*
X89258333Y-102600000D01*
X89258333Y-102866666D02*
X89225000Y-102900000D01*
X89191666Y-102966666D01*
X89191666Y-103133333D01*
X89225000Y-103200000D01*
X89258333Y-103233333D01*
X89325000Y-103266666D01*
X89391666Y-103266666D01*
X89491666Y-103233333D01*
X89891666Y-102833333D01*
X89891666Y-103266666D01*
X89891666Y-103933333D02*
X89891666Y-103533333D01*
X89891666Y-103733333D02*
X89191666Y-103733333D01*
X89291666Y-103666666D01*
X89358333Y-103600000D01*
X89391666Y-103533333D01*
G04 #@! TO.C,C24*
X89525000Y-101825000D02*
X89558333Y-101858333D01*
X89658333Y-101891666D01*
X89725000Y-101891666D01*
X89825000Y-101858333D01*
X89891666Y-101791666D01*
X89925000Y-101725000D01*
X89958333Y-101591666D01*
X89958333Y-101491666D01*
X89925000Y-101358333D01*
X89891666Y-101291666D01*
X89825000Y-101225000D01*
X89725000Y-101191666D01*
X89658333Y-101191666D01*
X89558333Y-101225000D01*
X89525000Y-101258333D01*
X89258333Y-101258333D02*
X89225000Y-101225000D01*
X89158333Y-101191666D01*
X88991666Y-101191666D01*
X88925000Y-101225000D01*
X88891666Y-101258333D01*
X88858333Y-101325000D01*
X88858333Y-101391666D01*
X88891666Y-101491666D01*
X89291666Y-101891666D01*
X88858333Y-101891666D01*
X88258333Y-101425000D02*
X88258333Y-101891666D01*
X88425000Y-101158333D02*
X88591666Y-101658333D01*
X88158333Y-101658333D01*
G04 #@! TO.C,C73*
X104115714Y-99585714D02*
X104153809Y-99547619D01*
X104191904Y-99433333D01*
X104191904Y-99357142D01*
X104153809Y-99242857D01*
X104077619Y-99166666D01*
X104001428Y-99128571D01*
X103849047Y-99090476D01*
X103734761Y-99090476D01*
X103582380Y-99128571D01*
X103506190Y-99166666D01*
X103430000Y-99242857D01*
X103391904Y-99357142D01*
X103391904Y-99433333D01*
X103430000Y-99547619D01*
X103468095Y-99585714D01*
X103391904Y-99852380D02*
X103391904Y-100385714D01*
X104191904Y-100042857D01*
X103391904Y-100614285D02*
X103391904Y-101109523D01*
X103696666Y-100842857D01*
X103696666Y-100957142D01*
X103734761Y-101033333D01*
X103772857Y-101071428D01*
X103849047Y-101109523D01*
X104039523Y-101109523D01*
X104115714Y-101071428D01*
X104153809Y-101033333D01*
X104191904Y-100957142D01*
X104191904Y-100728571D01*
X104153809Y-100652380D01*
X104115714Y-100614285D01*
G04 #@! TO.C,C72*
X104115714Y-97200714D02*
X104153809Y-97162619D01*
X104191904Y-97048333D01*
X104191904Y-96972142D01*
X104153809Y-96857857D01*
X104077619Y-96781666D01*
X104001428Y-96743571D01*
X103849047Y-96705476D01*
X103734761Y-96705476D01*
X103582380Y-96743571D01*
X103506190Y-96781666D01*
X103430000Y-96857857D01*
X103391904Y-96972142D01*
X103391904Y-97048333D01*
X103430000Y-97162619D01*
X103468095Y-97200714D01*
X103391904Y-97467380D02*
X103391904Y-98000714D01*
X104191904Y-97657857D01*
X103468095Y-98267380D02*
X103430000Y-98305476D01*
X103391904Y-98381666D01*
X103391904Y-98572142D01*
X103430000Y-98648333D01*
X103468095Y-98686428D01*
X103544285Y-98724523D01*
X103620476Y-98724523D01*
X103734761Y-98686428D01*
X104191904Y-98229285D01*
X104191904Y-98724523D01*
G04 #@! TO.C,C71*
X103015714Y-104385714D02*
X103053809Y-104347619D01*
X103091904Y-104233333D01*
X103091904Y-104157142D01*
X103053809Y-104042857D01*
X102977619Y-103966666D01*
X102901428Y-103928571D01*
X102749047Y-103890476D01*
X102634761Y-103890476D01*
X102482380Y-103928571D01*
X102406190Y-103966666D01*
X102330000Y-104042857D01*
X102291904Y-104157142D01*
X102291904Y-104233333D01*
X102330000Y-104347619D01*
X102368095Y-104385714D01*
X102291904Y-104652380D02*
X102291904Y-105185714D01*
X103091904Y-104842857D01*
X103091904Y-105909523D02*
X103091904Y-105452380D01*
X103091904Y-105680952D02*
X102291904Y-105680952D01*
X102406190Y-105604761D01*
X102482380Y-105528571D01*
X102520476Y-105452380D01*
G04 #@! TO.C,C70*
X103015714Y-101985714D02*
X103053809Y-101947619D01*
X103091904Y-101833333D01*
X103091904Y-101757142D01*
X103053809Y-101642857D01*
X102977619Y-101566666D01*
X102901428Y-101528571D01*
X102749047Y-101490476D01*
X102634761Y-101490476D01*
X102482380Y-101528571D01*
X102406190Y-101566666D01*
X102330000Y-101642857D01*
X102291904Y-101757142D01*
X102291904Y-101833333D01*
X102330000Y-101947619D01*
X102368095Y-101985714D01*
X102291904Y-102252380D02*
X102291904Y-102785714D01*
X103091904Y-102442857D01*
X102291904Y-103242857D02*
X102291904Y-103319047D01*
X102330000Y-103395238D01*
X102368095Y-103433333D01*
X102444285Y-103471428D01*
X102596666Y-103509523D01*
X102787142Y-103509523D01*
X102939523Y-103471428D01*
X103015714Y-103433333D01*
X103053809Y-103395238D01*
X103091904Y-103319047D01*
X103091904Y-103242857D01*
X103053809Y-103166666D01*
X103015714Y-103128571D01*
X102939523Y-103090476D01*
X102787142Y-103052380D01*
X102596666Y-103052380D01*
X102444285Y-103090476D01*
X102368095Y-103128571D01*
X102330000Y-103166666D01*
X102291904Y-103242857D01*
G04 #@! TO.C,C69*
X103015714Y-99585714D02*
X103053809Y-99547619D01*
X103091904Y-99433333D01*
X103091904Y-99357142D01*
X103053809Y-99242857D01*
X102977619Y-99166666D01*
X102901428Y-99128571D01*
X102749047Y-99090476D01*
X102634761Y-99090476D01*
X102482380Y-99128571D01*
X102406190Y-99166666D01*
X102330000Y-99242857D01*
X102291904Y-99357142D01*
X102291904Y-99433333D01*
X102330000Y-99547619D01*
X102368095Y-99585714D01*
X102291904Y-100271428D02*
X102291904Y-100119047D01*
X102330000Y-100042857D01*
X102368095Y-100004761D01*
X102482380Y-99928571D01*
X102634761Y-99890476D01*
X102939523Y-99890476D01*
X103015714Y-99928571D01*
X103053809Y-99966666D01*
X103091904Y-100042857D01*
X103091904Y-100195238D01*
X103053809Y-100271428D01*
X103015714Y-100309523D01*
X102939523Y-100347619D01*
X102749047Y-100347619D01*
X102672857Y-100309523D01*
X102634761Y-100271428D01*
X102596666Y-100195238D01*
X102596666Y-100042857D01*
X102634761Y-99966666D01*
X102672857Y-99928571D01*
X102749047Y-99890476D01*
X103091904Y-100728571D02*
X103091904Y-100880952D01*
X103053809Y-100957142D01*
X103015714Y-100995238D01*
X102901428Y-101071428D01*
X102749047Y-101109523D01*
X102444285Y-101109523D01*
X102368095Y-101071428D01*
X102330000Y-101033333D01*
X102291904Y-100957142D01*
X102291904Y-100804761D01*
X102330000Y-100728571D01*
X102368095Y-100690476D01*
X102444285Y-100652380D01*
X102634761Y-100652380D01*
X102710952Y-100690476D01*
X102749047Y-100728571D01*
X102787142Y-100804761D01*
X102787142Y-100957142D01*
X102749047Y-101033333D01*
X102710952Y-101071428D01*
X102634761Y-101109523D01*
G04 #@! TO.C,C68*
X103015714Y-97200714D02*
X103053809Y-97162619D01*
X103091904Y-97048333D01*
X103091904Y-96972142D01*
X103053809Y-96857857D01*
X102977619Y-96781666D01*
X102901428Y-96743571D01*
X102749047Y-96705476D01*
X102634761Y-96705476D01*
X102482380Y-96743571D01*
X102406190Y-96781666D01*
X102330000Y-96857857D01*
X102291904Y-96972142D01*
X102291904Y-97048333D01*
X102330000Y-97162619D01*
X102368095Y-97200714D01*
X102291904Y-97886428D02*
X102291904Y-97734047D01*
X102330000Y-97657857D01*
X102368095Y-97619761D01*
X102482380Y-97543571D01*
X102634761Y-97505476D01*
X102939523Y-97505476D01*
X103015714Y-97543571D01*
X103053809Y-97581666D01*
X103091904Y-97657857D01*
X103091904Y-97810238D01*
X103053809Y-97886428D01*
X103015714Y-97924523D01*
X102939523Y-97962619D01*
X102749047Y-97962619D01*
X102672857Y-97924523D01*
X102634761Y-97886428D01*
X102596666Y-97810238D01*
X102596666Y-97657857D01*
X102634761Y-97581666D01*
X102672857Y-97543571D01*
X102749047Y-97505476D01*
X102634761Y-98419761D02*
X102596666Y-98343571D01*
X102558571Y-98305476D01*
X102482380Y-98267380D01*
X102444285Y-98267380D01*
X102368095Y-98305476D01*
X102330000Y-98343571D01*
X102291904Y-98419761D01*
X102291904Y-98572142D01*
X102330000Y-98648333D01*
X102368095Y-98686428D01*
X102444285Y-98724523D01*
X102482380Y-98724523D01*
X102558571Y-98686428D01*
X102596666Y-98648333D01*
X102634761Y-98572142D01*
X102634761Y-98419761D01*
X102672857Y-98343571D01*
X102710952Y-98305476D01*
X102787142Y-98267380D01*
X102939523Y-98267380D01*
X103015714Y-98305476D01*
X103053809Y-98343571D01*
X103091904Y-98419761D01*
X103091904Y-98572142D01*
X103053809Y-98648333D01*
X103015714Y-98686428D01*
X102939523Y-98724523D01*
X102787142Y-98724523D01*
X102710952Y-98686428D01*
X102672857Y-98648333D01*
X102634761Y-98572142D01*
G04 #@! TO.C,C40*
X93340714Y-89585714D02*
X93378809Y-89547619D01*
X93416904Y-89433333D01*
X93416904Y-89357142D01*
X93378809Y-89242857D01*
X93302619Y-89166666D01*
X93226428Y-89128571D01*
X93074047Y-89090476D01*
X92959761Y-89090476D01*
X92807380Y-89128571D01*
X92731190Y-89166666D01*
X92655000Y-89242857D01*
X92616904Y-89357142D01*
X92616904Y-89433333D01*
X92655000Y-89547619D01*
X92693095Y-89585714D01*
X92883571Y-90271428D02*
X93416904Y-90271428D01*
X92578809Y-90080952D02*
X93150238Y-89890476D01*
X93150238Y-90385714D01*
X92616904Y-90842857D02*
X92616904Y-90919047D01*
X92655000Y-90995238D01*
X92693095Y-91033333D01*
X92769285Y-91071428D01*
X92921666Y-91109523D01*
X93112142Y-91109523D01*
X93264523Y-91071428D01*
X93340714Y-91033333D01*
X93378809Y-90995238D01*
X93416904Y-90919047D01*
X93416904Y-90842857D01*
X93378809Y-90766666D01*
X93340714Y-90728571D01*
X93264523Y-90690476D01*
X93112142Y-90652380D01*
X92921666Y-90652380D01*
X92769285Y-90690476D01*
X92693095Y-90728571D01*
X92655000Y-90766666D01*
X92616904Y-90842857D01*
G04 #@! TO.C,C64*
X93340714Y-97185714D02*
X93378809Y-97147619D01*
X93416904Y-97033333D01*
X93416904Y-96957142D01*
X93378809Y-96842857D01*
X93302619Y-96766666D01*
X93226428Y-96728571D01*
X93074047Y-96690476D01*
X92959761Y-96690476D01*
X92807380Y-96728571D01*
X92731190Y-96766666D01*
X92655000Y-96842857D01*
X92616904Y-96957142D01*
X92616904Y-97033333D01*
X92655000Y-97147619D01*
X92693095Y-97185714D01*
X92616904Y-97871428D02*
X92616904Y-97719047D01*
X92655000Y-97642857D01*
X92693095Y-97604761D01*
X92807380Y-97528571D01*
X92959761Y-97490476D01*
X93264523Y-97490476D01*
X93340714Y-97528571D01*
X93378809Y-97566666D01*
X93416904Y-97642857D01*
X93416904Y-97795238D01*
X93378809Y-97871428D01*
X93340714Y-97909523D01*
X93264523Y-97947619D01*
X93074047Y-97947619D01*
X92997857Y-97909523D01*
X92959761Y-97871428D01*
X92921666Y-97795238D01*
X92921666Y-97642857D01*
X92959761Y-97566666D01*
X92997857Y-97528571D01*
X93074047Y-97490476D01*
X92883571Y-98633333D02*
X93416904Y-98633333D01*
X92578809Y-98442857D02*
X93150238Y-98252380D01*
X93150238Y-98747619D01*
G04 #@! TO.C,C60*
X92240714Y-97185714D02*
X92278809Y-97147619D01*
X92316904Y-97033333D01*
X92316904Y-96957142D01*
X92278809Y-96842857D01*
X92202619Y-96766666D01*
X92126428Y-96728571D01*
X91974047Y-96690476D01*
X91859761Y-96690476D01*
X91707380Y-96728571D01*
X91631190Y-96766666D01*
X91555000Y-96842857D01*
X91516904Y-96957142D01*
X91516904Y-97033333D01*
X91555000Y-97147619D01*
X91593095Y-97185714D01*
X91516904Y-97871428D02*
X91516904Y-97719047D01*
X91555000Y-97642857D01*
X91593095Y-97604761D01*
X91707380Y-97528571D01*
X91859761Y-97490476D01*
X92164523Y-97490476D01*
X92240714Y-97528571D01*
X92278809Y-97566666D01*
X92316904Y-97642857D01*
X92316904Y-97795238D01*
X92278809Y-97871428D01*
X92240714Y-97909523D01*
X92164523Y-97947619D01*
X91974047Y-97947619D01*
X91897857Y-97909523D01*
X91859761Y-97871428D01*
X91821666Y-97795238D01*
X91821666Y-97642857D01*
X91859761Y-97566666D01*
X91897857Y-97528571D01*
X91974047Y-97490476D01*
X91516904Y-98442857D02*
X91516904Y-98519047D01*
X91555000Y-98595238D01*
X91593095Y-98633333D01*
X91669285Y-98671428D01*
X91821666Y-98709523D01*
X92012142Y-98709523D01*
X92164523Y-98671428D01*
X92240714Y-98633333D01*
X92278809Y-98595238D01*
X92316904Y-98519047D01*
X92316904Y-98442857D01*
X92278809Y-98366666D01*
X92240714Y-98328571D01*
X92164523Y-98290476D01*
X92012142Y-98252380D01*
X91821666Y-98252380D01*
X91669285Y-98290476D01*
X91593095Y-98328571D01*
X91555000Y-98366666D01*
X91516904Y-98442857D01*
G04 #@! TO.C,C52*
X104115714Y-92000714D02*
X104153809Y-91962619D01*
X104191904Y-91848333D01*
X104191904Y-91772142D01*
X104153809Y-91657857D01*
X104077619Y-91581666D01*
X104001428Y-91543571D01*
X103849047Y-91505476D01*
X103734761Y-91505476D01*
X103582380Y-91543571D01*
X103506190Y-91581666D01*
X103430000Y-91657857D01*
X103391904Y-91772142D01*
X103391904Y-91848333D01*
X103430000Y-91962619D01*
X103468095Y-92000714D01*
X103391904Y-92724523D02*
X103391904Y-92343571D01*
X103772857Y-92305476D01*
X103734761Y-92343571D01*
X103696666Y-92419761D01*
X103696666Y-92610238D01*
X103734761Y-92686428D01*
X103772857Y-92724523D01*
X103849047Y-92762619D01*
X104039523Y-92762619D01*
X104115714Y-92724523D01*
X104153809Y-92686428D01*
X104191904Y-92610238D01*
X104191904Y-92419761D01*
X104153809Y-92343571D01*
X104115714Y-92305476D01*
X103468095Y-93067380D02*
X103430000Y-93105476D01*
X103391904Y-93181666D01*
X103391904Y-93372142D01*
X103430000Y-93448333D01*
X103468095Y-93486428D01*
X103544285Y-93524523D01*
X103620476Y-93524523D01*
X103734761Y-93486428D01*
X104191904Y-93029285D01*
X104191904Y-93524523D01*
G04 #@! TO.C,C51*
X104115714Y-89585714D02*
X104153809Y-89547619D01*
X104191904Y-89433333D01*
X104191904Y-89357142D01*
X104153809Y-89242857D01*
X104077619Y-89166666D01*
X104001428Y-89128571D01*
X103849047Y-89090476D01*
X103734761Y-89090476D01*
X103582380Y-89128571D01*
X103506190Y-89166666D01*
X103430000Y-89242857D01*
X103391904Y-89357142D01*
X103391904Y-89433333D01*
X103430000Y-89547619D01*
X103468095Y-89585714D01*
X103391904Y-90309523D02*
X103391904Y-89928571D01*
X103772857Y-89890476D01*
X103734761Y-89928571D01*
X103696666Y-90004761D01*
X103696666Y-90195238D01*
X103734761Y-90271428D01*
X103772857Y-90309523D01*
X103849047Y-90347619D01*
X104039523Y-90347619D01*
X104115714Y-90309523D01*
X104153809Y-90271428D01*
X104191904Y-90195238D01*
X104191904Y-90004761D01*
X104153809Y-89928571D01*
X104115714Y-89890476D01*
X104191904Y-91109523D02*
X104191904Y-90652380D01*
X104191904Y-90880952D02*
X103391904Y-90880952D01*
X103506190Y-90804761D01*
X103582380Y-90728571D01*
X103620476Y-90652380D01*
G04 #@! TO.C,C50*
X104115714Y-87185714D02*
X104153809Y-87147619D01*
X104191904Y-87033333D01*
X104191904Y-86957142D01*
X104153809Y-86842857D01*
X104077619Y-86766666D01*
X104001428Y-86728571D01*
X103849047Y-86690476D01*
X103734761Y-86690476D01*
X103582380Y-86728571D01*
X103506190Y-86766666D01*
X103430000Y-86842857D01*
X103391904Y-86957142D01*
X103391904Y-87033333D01*
X103430000Y-87147619D01*
X103468095Y-87185714D01*
X103391904Y-87909523D02*
X103391904Y-87528571D01*
X103772857Y-87490476D01*
X103734761Y-87528571D01*
X103696666Y-87604761D01*
X103696666Y-87795238D01*
X103734761Y-87871428D01*
X103772857Y-87909523D01*
X103849047Y-87947619D01*
X104039523Y-87947619D01*
X104115714Y-87909523D01*
X104153809Y-87871428D01*
X104191904Y-87795238D01*
X104191904Y-87604761D01*
X104153809Y-87528571D01*
X104115714Y-87490476D01*
X103391904Y-88442857D02*
X103391904Y-88519047D01*
X103430000Y-88595238D01*
X103468095Y-88633333D01*
X103544285Y-88671428D01*
X103696666Y-88709523D01*
X103887142Y-88709523D01*
X104039523Y-88671428D01*
X104115714Y-88633333D01*
X104153809Y-88595238D01*
X104191904Y-88519047D01*
X104191904Y-88442857D01*
X104153809Y-88366666D01*
X104115714Y-88328571D01*
X104039523Y-88290476D01*
X103887142Y-88252380D01*
X103696666Y-88252380D01*
X103544285Y-88290476D01*
X103468095Y-88328571D01*
X103430000Y-88366666D01*
X103391904Y-88442857D01*
G04 #@! TO.C,C49*
X104115714Y-84785714D02*
X104153809Y-84747619D01*
X104191904Y-84633333D01*
X104191904Y-84557142D01*
X104153809Y-84442857D01*
X104077619Y-84366666D01*
X104001428Y-84328571D01*
X103849047Y-84290476D01*
X103734761Y-84290476D01*
X103582380Y-84328571D01*
X103506190Y-84366666D01*
X103430000Y-84442857D01*
X103391904Y-84557142D01*
X103391904Y-84633333D01*
X103430000Y-84747619D01*
X103468095Y-84785714D01*
X103658571Y-85471428D02*
X104191904Y-85471428D01*
X103353809Y-85280952D02*
X103925238Y-85090476D01*
X103925238Y-85585714D01*
X104191904Y-85928571D02*
X104191904Y-86080952D01*
X104153809Y-86157142D01*
X104115714Y-86195238D01*
X104001428Y-86271428D01*
X103849047Y-86309523D01*
X103544285Y-86309523D01*
X103468095Y-86271428D01*
X103430000Y-86233333D01*
X103391904Y-86157142D01*
X103391904Y-86004761D01*
X103430000Y-85928571D01*
X103468095Y-85890476D01*
X103544285Y-85852380D01*
X103734761Y-85852380D01*
X103810952Y-85890476D01*
X103849047Y-85928571D01*
X103887142Y-86004761D01*
X103887142Y-86157142D01*
X103849047Y-86233333D01*
X103810952Y-86271428D01*
X103734761Y-86309523D01*
G04 #@! TO.C,C48*
X103015714Y-91985714D02*
X103053809Y-91947619D01*
X103091904Y-91833333D01*
X103091904Y-91757142D01*
X103053809Y-91642857D01*
X102977619Y-91566666D01*
X102901428Y-91528571D01*
X102749047Y-91490476D01*
X102634761Y-91490476D01*
X102482380Y-91528571D01*
X102406190Y-91566666D01*
X102330000Y-91642857D01*
X102291904Y-91757142D01*
X102291904Y-91833333D01*
X102330000Y-91947619D01*
X102368095Y-91985714D01*
X102558571Y-92671428D02*
X103091904Y-92671428D01*
X102253809Y-92480952D02*
X102825238Y-92290476D01*
X102825238Y-92785714D01*
X102634761Y-93204761D02*
X102596666Y-93128571D01*
X102558571Y-93090476D01*
X102482380Y-93052380D01*
X102444285Y-93052380D01*
X102368095Y-93090476D01*
X102330000Y-93128571D01*
X102291904Y-93204761D01*
X102291904Y-93357142D01*
X102330000Y-93433333D01*
X102368095Y-93471428D01*
X102444285Y-93509523D01*
X102482380Y-93509523D01*
X102558571Y-93471428D01*
X102596666Y-93433333D01*
X102634761Y-93357142D01*
X102634761Y-93204761D01*
X102672857Y-93128571D01*
X102710952Y-93090476D01*
X102787142Y-93052380D01*
X102939523Y-93052380D01*
X103015714Y-93090476D01*
X103053809Y-93128571D01*
X103091904Y-93204761D01*
X103091904Y-93357142D01*
X103053809Y-93433333D01*
X103015714Y-93471428D01*
X102939523Y-93509523D01*
X102787142Y-93509523D01*
X102710952Y-93471428D01*
X102672857Y-93433333D01*
X102634761Y-93357142D01*
G04 #@! TO.C,C80*
X90514285Y-97985714D02*
X90552380Y-98023809D01*
X90666666Y-98061904D01*
X90742857Y-98061904D01*
X90857142Y-98023809D01*
X90933333Y-97947619D01*
X90971428Y-97871428D01*
X91009523Y-97719047D01*
X91009523Y-97604761D01*
X90971428Y-97452380D01*
X90933333Y-97376190D01*
X90857142Y-97300000D01*
X90742857Y-97261904D01*
X90666666Y-97261904D01*
X90552380Y-97300000D01*
X90514285Y-97338095D01*
X90057142Y-97604761D02*
X90133333Y-97566666D01*
X90171428Y-97528571D01*
X90209523Y-97452380D01*
X90209523Y-97414285D01*
X90171428Y-97338095D01*
X90133333Y-97300000D01*
X90057142Y-97261904D01*
X89904761Y-97261904D01*
X89828571Y-97300000D01*
X89790476Y-97338095D01*
X89752380Y-97414285D01*
X89752380Y-97452380D01*
X89790476Y-97528571D01*
X89828571Y-97566666D01*
X89904761Y-97604761D01*
X90057142Y-97604761D01*
X90133333Y-97642857D01*
X90171428Y-97680952D01*
X90209523Y-97757142D01*
X90209523Y-97909523D01*
X90171428Y-97985714D01*
X90133333Y-98023809D01*
X90057142Y-98061904D01*
X89904761Y-98061904D01*
X89828571Y-98023809D01*
X89790476Y-97985714D01*
X89752380Y-97909523D01*
X89752380Y-97757142D01*
X89790476Y-97680952D01*
X89828571Y-97642857D01*
X89904761Y-97604761D01*
X89257142Y-97261904D02*
X89180952Y-97261904D01*
X89104761Y-97300000D01*
X89066666Y-97338095D01*
X89028571Y-97414285D01*
X88990476Y-97566666D01*
X88990476Y-97757142D01*
X89028571Y-97909523D01*
X89066666Y-97985714D01*
X89104761Y-98023809D01*
X89180952Y-98061904D01*
X89257142Y-98061904D01*
X89333333Y-98023809D01*
X89371428Y-97985714D01*
X89409523Y-97909523D01*
X89447619Y-97757142D01*
X89447619Y-97566666D01*
X89409523Y-97414285D01*
X89371428Y-97338095D01*
X89333333Y-97300000D01*
X89257142Y-97261904D01*
G04 #@! TO.C,C23*
X87625000Y-105450000D02*
X87658333Y-105483333D01*
X87758333Y-105516666D01*
X87825000Y-105516666D01*
X87925000Y-105483333D01*
X87991666Y-105416666D01*
X88025000Y-105350000D01*
X88058333Y-105216666D01*
X88058333Y-105116666D01*
X88025000Y-104983333D01*
X87991666Y-104916666D01*
X87925000Y-104850000D01*
X87825000Y-104816666D01*
X87758333Y-104816666D01*
X87658333Y-104850000D01*
X87625000Y-104883333D01*
X87358333Y-104883333D02*
X87325000Y-104850000D01*
X87258333Y-104816666D01*
X87091666Y-104816666D01*
X87025000Y-104850000D01*
X86991666Y-104883333D01*
X86958333Y-104950000D01*
X86958333Y-105016666D01*
X86991666Y-105116666D01*
X87391666Y-105516666D01*
X86958333Y-105516666D01*
X86725000Y-104816666D02*
X86291666Y-104816666D01*
X86525000Y-105083333D01*
X86425000Y-105083333D01*
X86358333Y-105116666D01*
X86325000Y-105150000D01*
X86291666Y-105216666D01*
X86291666Y-105383333D01*
X86325000Y-105450000D01*
X86358333Y-105483333D01*
X86425000Y-105516666D01*
X86625000Y-105516666D01*
X86691666Y-105483333D01*
X86725000Y-105450000D01*
G04 #@! TO.C,C77*
X88850000Y-103400000D02*
X88883333Y-103366666D01*
X88916666Y-103266666D01*
X88916666Y-103200000D01*
X88883333Y-103100000D01*
X88816666Y-103033333D01*
X88750000Y-103000000D01*
X88616666Y-102966666D01*
X88516666Y-102966666D01*
X88383333Y-103000000D01*
X88316666Y-103033333D01*
X88250000Y-103100000D01*
X88216666Y-103200000D01*
X88216666Y-103266666D01*
X88250000Y-103366666D01*
X88283333Y-103400000D01*
X88216666Y-103633333D02*
X88216666Y-104100000D01*
X88916666Y-103800000D01*
X88216666Y-104300000D02*
X88216666Y-104766666D01*
X88916666Y-104466666D01*
G04 #@! TO.C,C25*
X85350000Y-102725000D02*
X85383333Y-102691666D01*
X85416666Y-102591666D01*
X85416666Y-102525000D01*
X85383333Y-102425000D01*
X85316666Y-102358333D01*
X85250000Y-102325000D01*
X85116666Y-102291666D01*
X85016666Y-102291666D01*
X84883333Y-102325000D01*
X84816666Y-102358333D01*
X84750000Y-102425000D01*
X84716666Y-102525000D01*
X84716666Y-102591666D01*
X84750000Y-102691666D01*
X84783333Y-102725000D01*
X84783333Y-102991666D02*
X84750000Y-103025000D01*
X84716666Y-103091666D01*
X84716666Y-103258333D01*
X84750000Y-103325000D01*
X84783333Y-103358333D01*
X84850000Y-103391666D01*
X84916666Y-103391666D01*
X85016666Y-103358333D01*
X85416666Y-102958333D01*
X85416666Y-103391666D01*
X84716666Y-104025000D02*
X84716666Y-103691666D01*
X85050000Y-103658333D01*
X85016666Y-103691666D01*
X84983333Y-103758333D01*
X84983333Y-103925000D01*
X85016666Y-103991666D01*
X85050000Y-104025000D01*
X85116666Y-104058333D01*
X85283333Y-104058333D01*
X85350000Y-104025000D01*
X85383333Y-103991666D01*
X85416666Y-103925000D01*
X85416666Y-103758333D01*
X85383333Y-103691666D01*
X85350000Y-103658333D01*
G04 #@! TO.C,C14*
X76785714Y-100885714D02*
X76823809Y-100847619D01*
X76861904Y-100733333D01*
X76861904Y-100657142D01*
X76823809Y-100542857D01*
X76747619Y-100466666D01*
X76671428Y-100428571D01*
X76519047Y-100390476D01*
X76404761Y-100390476D01*
X76252380Y-100428571D01*
X76176190Y-100466666D01*
X76100000Y-100542857D01*
X76061904Y-100657142D01*
X76061904Y-100733333D01*
X76100000Y-100847619D01*
X76138095Y-100885714D01*
X76861904Y-101647619D02*
X76861904Y-101190476D01*
X76861904Y-101419047D02*
X76061904Y-101419047D01*
X76176190Y-101342857D01*
X76252380Y-101266666D01*
X76290476Y-101190476D01*
X76328571Y-102333333D02*
X76861904Y-102333333D01*
X76023809Y-102142857D02*
X76595238Y-101952380D01*
X76595238Y-102447619D01*
G04 #@! TO.C,C1*
X63133333Y-99885714D02*
X63171428Y-99923809D01*
X63285714Y-99961904D01*
X63361904Y-99961904D01*
X63476190Y-99923809D01*
X63552380Y-99847619D01*
X63590476Y-99771428D01*
X63628571Y-99619047D01*
X63628571Y-99504761D01*
X63590476Y-99352380D01*
X63552380Y-99276190D01*
X63476190Y-99200000D01*
X63361904Y-99161904D01*
X63285714Y-99161904D01*
X63171428Y-99200000D01*
X63133333Y-99238095D01*
X62371428Y-99961904D02*
X62828571Y-99961904D01*
X62600000Y-99961904D02*
X62600000Y-99161904D01*
X62676190Y-99276190D01*
X62752380Y-99352380D01*
X62828571Y-99390476D01*
G04 #@! TD*
M02*
