G04 #@! TF.GenerationSoftware,KiCad,Pcbnew,5.1.8*
G04 #@! TF.CreationDate,2020-12-26T16:11:21-08:00*
G04 #@! TF.ProjectId,glasgow,676c6173-676f-4772-9e6b-696361645f70,C2*
G04 #@! TF.SameCoordinates,Original*
G04 #@! TF.FileFunction,Other,Fab,Top*
%FSLAX46Y46*%
G04 Gerber Fmt 4.6, Leading zero omitted, Abs format (unit mm)*
G04 Created by KiCad (PCBNEW 5.1.8) date 2020-12-26 16:11:21*
%MOMM*%
%LPD*%
G01*
G04 APERTURE LIST*
%ADD10C,0.100000*%
%ADD11C,0.150000*%
%ADD12C,0.075000*%
%ADD13C,0.062500*%
%ADD14C,0.060000*%
%ADD15C,0.050000*%
%ADD16C,0.040000*%
%ADD17C,0.110000*%
%ADD18C,0.105000*%
G04 APERTURE END LIST*
D10*
X90300000Y-103900000D02*
X90300000Y-101900000D01*
X91300000Y-103900000D02*
X90300000Y-103900000D01*
X91300000Y-101900000D02*
X91300000Y-103900000D01*
X90300000Y-101900000D02*
X91300000Y-101900000D01*
X112400000Y-84500000D02*
X114400000Y-84500000D01*
X112400000Y-85500000D02*
X112400000Y-84500000D01*
X114400000Y-85500000D02*
X112400000Y-85500000D01*
X114400000Y-84500000D02*
X114400000Y-85500000D01*
X109900000Y-84500000D02*
X111900000Y-84500000D01*
X109900000Y-85500000D02*
X109900000Y-84500000D01*
X111900000Y-85500000D02*
X109900000Y-85500000D01*
X111900000Y-84500000D02*
X111900000Y-85500000D01*
X106700000Y-86500000D02*
X104700000Y-86500000D01*
X106700000Y-85500000D02*
X106700000Y-86500000D01*
X104700000Y-85500000D02*
X106700000Y-85500000D01*
X104700000Y-86500000D02*
X104700000Y-85500000D01*
X104200000Y-86500000D02*
X102200000Y-86500000D01*
X104200000Y-85500000D02*
X104200000Y-86500000D01*
X102200000Y-85500000D02*
X104200000Y-85500000D01*
X102200000Y-86500000D02*
X102200000Y-85500000D01*
X90300000Y-93800000D02*
X90300000Y-91800000D01*
X91300000Y-93800000D02*
X90300000Y-93800000D01*
X91300000Y-91800000D02*
X91300000Y-93800000D01*
X90300000Y-91800000D02*
X91300000Y-91800000D01*
X90300000Y-91300000D02*
X90300000Y-89300000D01*
X91300000Y-91300000D02*
X90300000Y-91300000D01*
X91300000Y-89300000D02*
X91300000Y-91300000D01*
X90300000Y-89300000D02*
X91300000Y-89300000D01*
X111900000Y-106500000D02*
X109900000Y-106500000D01*
X111900000Y-105500000D02*
X111900000Y-106500000D01*
X109900000Y-105500000D02*
X111900000Y-105500000D01*
X109900000Y-106500000D02*
X109900000Y-105500000D01*
X114400000Y-106500000D02*
X112400000Y-106500000D01*
X114400000Y-105500000D02*
X114400000Y-106500000D01*
X112400000Y-105500000D02*
X114400000Y-105500000D01*
X112400000Y-106500000D02*
X112400000Y-105500000D01*
X102200000Y-104500000D02*
X104200000Y-104500000D01*
X102200000Y-105500000D02*
X102200000Y-104500000D01*
X104200000Y-105500000D02*
X102200000Y-105500000D01*
X104200000Y-104500000D02*
X104200000Y-105500000D01*
X104700000Y-104500000D02*
X106700000Y-104500000D01*
X104700000Y-105500000D02*
X104700000Y-104500000D01*
X106700000Y-105500000D02*
X104700000Y-105500000D01*
X106700000Y-104500000D02*
X106700000Y-105500000D01*
X90300000Y-106400000D02*
X90300000Y-104400000D01*
X91300000Y-106400000D02*
X90300000Y-106400000D01*
X91300000Y-104400000D02*
X91300000Y-106400000D01*
X90300000Y-104400000D02*
X91300000Y-104400000D01*
X60550000Y-111650000D02*
X60900000Y-111300000D01*
X60900000Y-111300000D02*
X61850000Y-111300000D01*
X60550000Y-114300000D02*
X60550000Y-111650000D01*
X61850000Y-114300000D02*
X60550000Y-114300000D01*
X61850000Y-111300000D02*
X61850000Y-114300000D01*
X75900000Y-125430000D02*
X75900000Y-119230000D01*
X73400000Y-125430000D02*
X73400000Y-119230000D01*
X75900000Y-120230000D02*
X73400000Y-120230000D01*
X76900000Y-116430000D02*
X72400000Y-116430000D01*
X72400000Y-116430000D02*
X72400000Y-119230000D01*
X76900000Y-119230000D02*
X72400000Y-119230000D01*
X76900000Y-119230000D02*
X76900000Y-116430000D01*
X75900000Y-120730000D02*
X73400000Y-120730000D01*
X75900000Y-120930000D02*
X73400000Y-120930000D01*
X75900000Y-121430000D02*
X73400000Y-121430000D01*
X75900000Y-121930000D02*
X73400000Y-121930000D01*
X75900000Y-122430000D02*
X73400000Y-122430000D01*
X75900000Y-122930000D02*
X73400000Y-122930000D01*
X75900000Y-123430000D02*
X73400000Y-123430000D01*
X75900000Y-123930000D02*
X73400000Y-123930000D01*
X75900000Y-124430000D02*
X73400000Y-124430000D01*
X75900000Y-124930000D02*
X73400000Y-124930000D01*
X75900000Y-125430000D02*
X73400000Y-125430000D01*
X56300000Y-99970000D02*
X49000000Y-99970000D01*
X49000000Y-91030000D02*
X49000000Y-99970000D01*
X56300000Y-91030000D02*
X49000000Y-91030000D01*
X56300000Y-91030000D02*
X56300000Y-99970000D01*
X86035000Y-73700000D02*
X86035000Y-74745000D01*
X85635000Y-73700000D02*
X86035000Y-73700000D01*
X85635000Y-74745000D02*
X85635000Y-73700000D01*
X86035000Y-79300000D02*
X86035000Y-78255000D01*
X85635000Y-79300000D02*
X86035000Y-79300000D01*
X85635000Y-78255000D02*
X85635000Y-79300000D01*
X84765000Y-73700000D02*
X84765000Y-74745000D01*
X84365000Y-73700000D02*
X84765000Y-73700000D01*
X84365000Y-74745000D02*
X84365000Y-73700000D01*
X84765000Y-79300000D02*
X84765000Y-78255000D01*
X84365000Y-79300000D02*
X84765000Y-79300000D01*
X84365000Y-78255000D02*
X84365000Y-79300000D01*
X83495000Y-73700000D02*
X83495000Y-74745000D01*
X83095000Y-73700000D02*
X83495000Y-73700000D01*
X83095000Y-74745000D02*
X83095000Y-73700000D01*
X83495000Y-79300000D02*
X83495000Y-78255000D01*
X83095000Y-79300000D02*
X83495000Y-79300000D01*
X83095000Y-78255000D02*
X83095000Y-79300000D01*
X82225000Y-73700000D02*
X82225000Y-74745000D01*
X81825000Y-73700000D02*
X82225000Y-73700000D01*
X81825000Y-74745000D02*
X81825000Y-73700000D01*
X82225000Y-79300000D02*
X82225000Y-78255000D01*
X81825000Y-79300000D02*
X82225000Y-79300000D01*
X81825000Y-78255000D02*
X81825000Y-79300000D01*
X80955000Y-73700000D02*
X80955000Y-74745000D01*
X80555000Y-73700000D02*
X80955000Y-73700000D01*
X80555000Y-74745000D02*
X80555000Y-73700000D01*
X80955000Y-79300000D02*
X80955000Y-78255000D01*
X80555000Y-79300000D02*
X80955000Y-79300000D01*
X80555000Y-78255000D02*
X80555000Y-79300000D01*
X79685000Y-73700000D02*
X79685000Y-74745000D01*
X79285000Y-73700000D02*
X79685000Y-73700000D01*
X79285000Y-74745000D02*
X79285000Y-73700000D01*
X79685000Y-79300000D02*
X79685000Y-78255000D01*
X79285000Y-79300000D02*
X79685000Y-79300000D01*
X79285000Y-78255000D02*
X79285000Y-79300000D01*
X78415000Y-73700000D02*
X78415000Y-74745000D01*
X78015000Y-73700000D02*
X78415000Y-73700000D01*
X78015000Y-74745000D02*
X78015000Y-73700000D01*
X78415000Y-79300000D02*
X78415000Y-78255000D01*
X78015000Y-79300000D02*
X78415000Y-79300000D01*
X78015000Y-78255000D02*
X78015000Y-79300000D01*
X77145000Y-73700000D02*
X77145000Y-74745000D01*
X76745000Y-73700000D02*
X77145000Y-73700000D01*
X76745000Y-74745000D02*
X76745000Y-73700000D01*
X77145000Y-79300000D02*
X77145000Y-78255000D01*
X76745000Y-79300000D02*
X77145000Y-79300000D01*
X76745000Y-78255000D02*
X76745000Y-79300000D01*
X75875000Y-73700000D02*
X75875000Y-74745000D01*
X75475000Y-73700000D02*
X75875000Y-73700000D01*
X75475000Y-74745000D02*
X75475000Y-73700000D01*
X75875000Y-79300000D02*
X75875000Y-78255000D01*
X75475000Y-79300000D02*
X75875000Y-79300000D01*
X75475000Y-78255000D02*
X75475000Y-79300000D01*
X74605000Y-73700000D02*
X74605000Y-74745000D01*
X74205000Y-73700000D02*
X74605000Y-73700000D01*
X74205000Y-74745000D02*
X74205000Y-73700000D01*
X74605000Y-79300000D02*
X74605000Y-78255000D01*
X74205000Y-79300000D02*
X74605000Y-79300000D01*
X74205000Y-78255000D02*
X74205000Y-79300000D01*
X73335000Y-73700000D02*
X73335000Y-74745000D01*
X72935000Y-73700000D02*
X73335000Y-73700000D01*
X72935000Y-74745000D02*
X72935000Y-73700000D01*
X73335000Y-79300000D02*
X73335000Y-78255000D01*
X72935000Y-79300000D02*
X73335000Y-79300000D01*
X72935000Y-78255000D02*
X72935000Y-79300000D01*
X72065000Y-73700000D02*
X72065000Y-74745000D01*
X71665000Y-73700000D02*
X72065000Y-73700000D01*
X71665000Y-74745000D02*
X71665000Y-73700000D01*
X72065000Y-79300000D02*
X72065000Y-78255000D01*
X71665000Y-79300000D02*
X72065000Y-79300000D01*
X71665000Y-78255000D02*
X71665000Y-79300000D01*
X70795000Y-73700000D02*
X70795000Y-74745000D01*
X70395000Y-73700000D02*
X70795000Y-73700000D01*
X70395000Y-74745000D02*
X70395000Y-73700000D01*
X70795000Y-79300000D02*
X70795000Y-78255000D01*
X70395000Y-79300000D02*
X70795000Y-79300000D01*
X70395000Y-78255000D02*
X70395000Y-79300000D01*
X69525000Y-73700000D02*
X69525000Y-74745000D01*
X69125000Y-73700000D02*
X69525000Y-73700000D01*
X69125000Y-74745000D02*
X69125000Y-73700000D01*
X69525000Y-79300000D02*
X69525000Y-78255000D01*
X69125000Y-79300000D02*
X69525000Y-79300000D01*
X69125000Y-78255000D02*
X69125000Y-79300000D01*
X68255000Y-73700000D02*
X68255000Y-74745000D01*
X67855000Y-73700000D02*
X68255000Y-73700000D01*
X67855000Y-74745000D02*
X67855000Y-73700000D01*
X68255000Y-79300000D02*
X68255000Y-78255000D01*
X67855000Y-79300000D02*
X68255000Y-79300000D01*
X67855000Y-78255000D02*
X67855000Y-79300000D01*
X66985000Y-73700000D02*
X66985000Y-74745000D01*
X66585000Y-73700000D02*
X66985000Y-73700000D01*
X66585000Y-74745000D02*
X66585000Y-73700000D01*
X66985000Y-79300000D02*
X66985000Y-78255000D01*
X66585000Y-79300000D02*
X66985000Y-79300000D01*
X66585000Y-78255000D02*
X66585000Y-79300000D01*
X65715000Y-73700000D02*
X65715000Y-74745000D01*
X65315000Y-73700000D02*
X65715000Y-73700000D01*
X65315000Y-74745000D02*
X65315000Y-73700000D01*
X65715000Y-79300000D02*
X65715000Y-78255000D01*
X65315000Y-79300000D02*
X65715000Y-79300000D01*
X65315000Y-78255000D02*
X65315000Y-79300000D01*
X64445000Y-73700000D02*
X64445000Y-74745000D01*
X64045000Y-73700000D02*
X64445000Y-73700000D01*
X64045000Y-74745000D02*
X64045000Y-73700000D01*
X64445000Y-79300000D02*
X64445000Y-78255000D01*
X64045000Y-79300000D02*
X64445000Y-79300000D01*
X64045000Y-78255000D02*
X64045000Y-79300000D01*
X63175000Y-73700000D02*
X63175000Y-74745000D01*
X62775000Y-73700000D02*
X63175000Y-73700000D01*
X62775000Y-74745000D02*
X62775000Y-73700000D01*
X63175000Y-79300000D02*
X63175000Y-78255000D01*
X62775000Y-79300000D02*
X63175000Y-79300000D01*
X62775000Y-78255000D02*
X62775000Y-79300000D01*
X61905000Y-73700000D02*
X61905000Y-74745000D01*
X61505000Y-73700000D02*
X61905000Y-73700000D01*
X61505000Y-74745000D02*
X61505000Y-73700000D01*
X61905000Y-79300000D02*
X61905000Y-78255000D01*
X61505000Y-79300000D02*
X61905000Y-79300000D01*
X61505000Y-78255000D02*
X61505000Y-79300000D01*
X60635000Y-73700000D02*
X60635000Y-74745000D01*
X60235000Y-73700000D02*
X60635000Y-73700000D01*
X60235000Y-74745000D02*
X60235000Y-73700000D01*
X60635000Y-79300000D02*
X60635000Y-78255000D01*
X60235000Y-79300000D02*
X60635000Y-79300000D01*
X60235000Y-78255000D02*
X60235000Y-79300000D01*
X59365000Y-73700000D02*
X59365000Y-74745000D01*
X58965000Y-73700000D02*
X59365000Y-73700000D01*
X58965000Y-74745000D02*
X58965000Y-73700000D01*
X59365000Y-79300000D02*
X59365000Y-78205000D01*
X58965000Y-79300000D02*
X59365000Y-79300000D01*
X58965000Y-78205000D02*
X58965000Y-79300000D01*
X58530000Y-74795000D02*
X86470000Y-74795000D01*
X58965000Y-78205000D02*
X58530000Y-77770000D01*
X86470000Y-78205000D02*
X58965000Y-78205000D01*
X58530000Y-77770000D02*
X58530000Y-74795000D01*
X86470000Y-74795000D02*
X86470000Y-78205000D01*
X88470000Y-80900000D02*
X87470000Y-79900000D01*
X87470000Y-79900000D02*
X87470000Y-72000000D01*
X87470000Y-72000000D02*
X120530000Y-72000000D01*
X120530000Y-72000000D02*
X120530000Y-80900000D01*
X120530000Y-80900000D02*
X88470000Y-80900000D01*
X101950000Y-80900000D02*
X101950000Y-79700000D01*
X101950000Y-79700000D02*
X88660000Y-79700000D01*
X88660000Y-79700000D02*
X88660000Y-73200000D01*
X88660000Y-73200000D02*
X119340000Y-73200000D01*
X119340000Y-73200000D02*
X119340000Y-79700000D01*
X119340000Y-79700000D02*
X106050000Y-79700000D01*
X106050000Y-79700000D02*
X106050000Y-79700000D01*
X106050000Y-79700000D02*
X106050000Y-80900000D01*
X119530000Y-110100000D02*
X120530000Y-111100000D01*
X120530000Y-111100000D02*
X120530000Y-119000000D01*
X120530000Y-119000000D02*
X87470000Y-119000000D01*
X87470000Y-119000000D02*
X87470000Y-110100000D01*
X87470000Y-110100000D02*
X119530000Y-110100000D01*
X106050000Y-110100000D02*
X106050000Y-111300000D01*
X106050000Y-111300000D02*
X119340000Y-111300000D01*
X119340000Y-111300000D02*
X119340000Y-117800000D01*
X119340000Y-117800000D02*
X88660000Y-117800000D01*
X88660000Y-117800000D02*
X88660000Y-111300000D01*
X88660000Y-111300000D02*
X101950000Y-111300000D01*
X101950000Y-111300000D02*
X101950000Y-111300000D01*
X101950000Y-111300000D02*
X101950000Y-110100000D01*
X122500000Y-87700000D02*
X122500000Y-86900000D01*
X122500000Y-86900000D02*
X124100000Y-86900000D01*
X124100000Y-86900000D02*
X124100000Y-87700000D01*
X124100000Y-87700000D02*
X122500000Y-87700000D01*
X107165000Y-88870000D02*
X107165000Y-86965000D01*
X107165000Y-86965000D02*
X107800000Y-86330000D01*
X107800000Y-86330000D02*
X117325000Y-86330000D01*
X117325000Y-86330000D02*
X117325000Y-88870000D01*
X117325000Y-88870000D02*
X107165000Y-88870000D01*
X107165000Y-83770000D02*
X107165000Y-81865000D01*
X107165000Y-81865000D02*
X107800000Y-81230000D01*
X107800000Y-81230000D02*
X117325000Y-81230000D01*
X117325000Y-81230000D02*
X117325000Y-83770000D01*
X117325000Y-83770000D02*
X107165000Y-83770000D01*
X117335000Y-102150000D02*
X117335000Y-104055000D01*
X117335000Y-104055000D02*
X116700000Y-104690000D01*
X116700000Y-104690000D02*
X107175000Y-104690000D01*
X107175000Y-104690000D02*
X107175000Y-102150000D01*
X107175000Y-102150000D02*
X117335000Y-102150000D01*
X117335000Y-107230000D02*
X117335000Y-109135000D01*
X117335000Y-109135000D02*
X116700000Y-109770000D01*
X116700000Y-109770000D02*
X107175000Y-109770000D01*
X107175000Y-109770000D02*
X107175000Y-107230000D01*
X107175000Y-107230000D02*
X117335000Y-107230000D01*
X126320000Y-86600000D02*
X125820000Y-87100000D01*
X127170000Y-88800000D02*
X125820000Y-88800000D01*
X127170000Y-86600000D02*
X127170000Y-88800000D01*
X125820000Y-87100000D02*
X125820000Y-88800000D01*
X127170000Y-86600000D02*
X126320000Y-86600000D01*
X105905000Y-99310000D02*
X104000000Y-99310000D01*
X104000000Y-99310000D02*
X104000000Y-91690000D01*
X104000000Y-91690000D02*
X106540000Y-91690000D01*
X106540000Y-91690000D02*
X106540000Y-98675000D01*
X106540000Y-98675000D02*
X105905000Y-99310000D01*
X122750000Y-118500000D02*
G75*
G03*
X122750000Y-118500000I-750000J0D01*
G01*
X122750000Y-72500000D02*
G75*
G03*
X122750000Y-72500000I-750000J0D01*
G01*
X58750000Y-118500000D02*
G75*
G03*
X58750000Y-118500000I-750000J0D01*
G01*
X59250000Y-80500000D02*
X59250000Y-81500000D01*
X58750000Y-80500000D02*
X59250000Y-80500000D01*
X58750000Y-81500000D02*
X58750000Y-80500000D01*
X59250000Y-81500000D02*
X58750000Y-81500000D01*
X59250000Y-82500000D02*
X59250000Y-83500000D01*
X58750000Y-82500000D02*
X59250000Y-82500000D01*
X58750000Y-83500000D02*
X58750000Y-82500000D01*
X59250000Y-83500000D02*
X58750000Y-83500000D01*
X59250000Y-84500000D02*
X59250000Y-85500000D01*
X58750000Y-84500000D02*
X59250000Y-84500000D01*
X58750000Y-85500000D02*
X58750000Y-84500000D01*
X59250000Y-85500000D02*
X58750000Y-85500000D01*
X59250000Y-86500000D02*
X59250000Y-87500000D01*
X58750000Y-86500000D02*
X59250000Y-86500000D01*
X58750000Y-87500000D02*
X58750000Y-86500000D01*
X59250000Y-87500000D02*
X58750000Y-87500000D01*
X59250000Y-88500000D02*
X59250000Y-89500000D01*
X58750000Y-88500000D02*
X59250000Y-88500000D01*
X58750000Y-89500000D02*
X58750000Y-88500000D01*
X59250000Y-89500000D02*
X58750000Y-89500000D01*
X124200000Y-92050000D02*
X124200000Y-95150000D01*
X124200000Y-95150000D02*
X122400000Y-95150000D01*
X122400000Y-92700000D02*
X122400000Y-95150000D01*
X124200000Y-92050000D02*
X123050000Y-92050000D01*
X122400000Y-92700000D02*
X123050000Y-92050000D01*
X84662893Y-108400000D02*
X85370000Y-107900000D01*
X85370000Y-108900000D02*
X84662893Y-108400000D01*
X80163000Y-119957000D02*
X85497000Y-119957000D01*
X80163000Y-107130000D02*
X80163000Y-119957000D01*
X85497000Y-107130000D02*
X80163000Y-107130000D01*
X85497000Y-119957000D02*
X85497000Y-107130000D01*
X57800000Y-80600000D02*
X56500000Y-80600000D01*
X56500000Y-80600000D02*
X56200000Y-80900000D01*
X56200000Y-80900000D02*
X56200000Y-81400000D01*
X56200000Y-81400000D02*
X57800000Y-81400000D01*
X57800000Y-81400000D02*
X57800000Y-80600000D01*
X57800000Y-82600000D02*
X56500000Y-82600000D01*
X56500000Y-82600000D02*
X56200000Y-82900000D01*
X56200000Y-82900000D02*
X56200000Y-83400000D01*
X56200000Y-83400000D02*
X57800000Y-83400000D01*
X57800000Y-83400000D02*
X57800000Y-82600000D01*
X57800000Y-86600000D02*
X56500000Y-86600000D01*
X56500000Y-86600000D02*
X56200000Y-86900000D01*
X56200000Y-86900000D02*
X56200000Y-87400000D01*
X56200000Y-87400000D02*
X57800000Y-87400000D01*
X57800000Y-87400000D02*
X57800000Y-86600000D01*
X57800000Y-88600000D02*
X56500000Y-88600000D01*
X56500000Y-88600000D02*
X56200000Y-88900000D01*
X56200000Y-88900000D02*
X56200000Y-89400000D01*
X56200000Y-89400000D02*
X57800000Y-89400000D01*
X57800000Y-89400000D02*
X57800000Y-88600000D01*
X57800000Y-101600000D02*
X56500000Y-101600000D01*
X56500000Y-101600000D02*
X56200000Y-101900000D01*
X56200000Y-101900000D02*
X56200000Y-102400000D01*
X56200000Y-102400000D02*
X57800000Y-102400000D01*
X57800000Y-102400000D02*
X57800000Y-101600000D01*
X57800000Y-103600000D02*
X56500000Y-103600000D01*
X56500000Y-103600000D02*
X56200000Y-103900000D01*
X56200000Y-103900000D02*
X56200000Y-104400000D01*
X56200000Y-104400000D02*
X57800000Y-104400000D01*
X57800000Y-104400000D02*
X57800000Y-103600000D01*
X57800000Y-105600000D02*
X56500000Y-105600000D01*
X56500000Y-105600000D02*
X56200000Y-105900000D01*
X56200000Y-105900000D02*
X56200000Y-106400000D01*
X56200000Y-106400000D02*
X57800000Y-106400000D01*
X57800000Y-106400000D02*
X57800000Y-105600000D01*
X121800000Y-110900000D02*
X123100000Y-110900000D01*
X123100000Y-110900000D02*
X123400000Y-110600000D01*
X123400000Y-110600000D02*
X123400000Y-110100000D01*
X123400000Y-110100000D02*
X121800000Y-110100000D01*
X121800000Y-110100000D02*
X121800000Y-110900000D01*
X121800000Y-80900000D02*
X123100000Y-80900000D01*
X123100000Y-80900000D02*
X123400000Y-80600000D01*
X123400000Y-80600000D02*
X123400000Y-80100000D01*
X123400000Y-80100000D02*
X121800000Y-80100000D01*
X121800000Y-80100000D02*
X121800000Y-80900000D01*
X57800000Y-84600000D02*
X56500000Y-84600000D01*
X56500000Y-84600000D02*
X56200000Y-84900000D01*
X56200000Y-84900000D02*
X56200000Y-85400000D01*
X56200000Y-85400000D02*
X57800000Y-85400000D01*
X57800000Y-85400000D02*
X57800000Y-84600000D01*
X57800000Y-109600000D02*
X56500000Y-109600000D01*
X56500000Y-109600000D02*
X56200000Y-109900000D01*
X56200000Y-109900000D02*
X56200000Y-110400000D01*
X56200000Y-110400000D02*
X57800000Y-110400000D01*
X57800000Y-110400000D02*
X57800000Y-109600000D01*
X57800000Y-107600000D02*
X56500000Y-107600000D01*
X56500000Y-107600000D02*
X56200000Y-107900000D01*
X56200000Y-107900000D02*
X56200000Y-108400000D01*
X56200000Y-108400000D02*
X57800000Y-108400000D01*
X57800000Y-108400000D02*
X57800000Y-107600000D01*
X70350000Y-113300000D02*
X70850000Y-113300000D01*
X70850000Y-113300000D02*
X70850000Y-114300000D01*
X70850000Y-114300000D02*
X70350000Y-114300000D01*
X70350000Y-114300000D02*
X70350000Y-113300000D01*
X119850000Y-85800000D02*
X119350000Y-85800000D01*
X119350000Y-85800000D02*
X119350000Y-84800000D01*
X119350000Y-84800000D02*
X119850000Y-84800000D01*
X119850000Y-84800000D02*
X119850000Y-85800000D01*
X126750000Y-105200000D02*
X127250000Y-105200000D01*
X127250000Y-105200000D02*
X127250000Y-106200000D01*
X127250000Y-106200000D02*
X126750000Y-106200000D01*
X126750000Y-106200000D02*
X126750000Y-105200000D01*
X122550000Y-105100000D02*
X124800000Y-105100000D01*
X124800000Y-105100000D02*
X124800000Y-108100000D01*
X124800000Y-108100000D02*
X121800000Y-108100000D01*
X121800000Y-108100000D02*
X121800000Y-105850000D01*
X121800000Y-105850000D02*
X122550000Y-105100000D01*
X92500000Y-97450000D02*
X92500000Y-97950000D01*
X92500000Y-97950000D02*
X91500000Y-97950000D01*
X91500000Y-97950000D02*
X91500000Y-97450000D01*
X91500000Y-97450000D02*
X92500000Y-97450000D01*
X99200000Y-81675000D02*
X99200000Y-83025000D01*
X99200000Y-81675000D02*
X102362500Y-81675000D01*
X99200000Y-83025000D02*
X102700000Y-83025000D01*
X102700000Y-82012500D02*
X102700000Y-83025000D01*
X102362500Y-81675000D02*
X102700000Y-82012500D01*
X103200000Y-81675000D02*
X103200000Y-83025000D01*
X103200000Y-81675000D02*
X106362500Y-81675000D01*
X103200000Y-83025000D02*
X106700000Y-83025000D01*
X106700000Y-82012500D02*
X106700000Y-83025000D01*
X106362500Y-81675000D02*
X106700000Y-82012500D01*
X102700000Y-109325000D02*
X102700000Y-107975000D01*
X102700000Y-109325000D02*
X99537500Y-109325000D01*
X102700000Y-107975000D02*
X99200000Y-107975000D01*
X99200000Y-108987500D02*
X99200000Y-107975000D01*
X99537500Y-109325000D02*
X99200000Y-108987500D01*
X106700000Y-109325000D02*
X106700000Y-107975000D01*
X106700000Y-109325000D02*
X103537500Y-109325000D01*
X106700000Y-107975000D02*
X103200000Y-107975000D01*
X103200000Y-108987500D02*
X103200000Y-107975000D01*
X103537500Y-109325000D02*
X103200000Y-108987500D01*
X66700000Y-111500000D02*
X66700000Y-112300000D01*
X66700000Y-112300000D02*
X65100000Y-112300000D01*
X65100000Y-112300000D02*
X65100000Y-111500000D01*
X65100000Y-111500000D02*
X66700000Y-111500000D01*
X127300000Y-89500000D02*
X127300000Y-91100000D01*
X126500000Y-89500000D02*
X127300000Y-89500000D01*
X126500000Y-91100000D02*
X126500000Y-89500000D01*
X127300000Y-91100000D02*
X126500000Y-91100000D01*
X124100000Y-103300000D02*
X124100000Y-104100000D01*
X124100000Y-104100000D02*
X122500000Y-104100000D01*
X122500000Y-104100000D02*
X122500000Y-103300000D01*
X122500000Y-103300000D02*
X124100000Y-103300000D01*
X119300000Y-99900000D02*
X120100000Y-99900000D01*
X120100000Y-99900000D02*
X120100000Y-101500000D01*
X120100000Y-101500000D02*
X119300000Y-101500000D01*
X119300000Y-101500000D02*
X119300000Y-99900000D01*
X68900000Y-116200000D02*
X68100000Y-116200000D01*
X68100000Y-116200000D02*
X68100000Y-114600000D01*
X68100000Y-114600000D02*
X68900000Y-114600000D01*
X68900000Y-114600000D02*
X68900000Y-116200000D01*
X68900000Y-111100000D02*
X68100000Y-111100000D01*
X68100000Y-111100000D02*
X68100000Y-109500000D01*
X68100000Y-109500000D02*
X68900000Y-109500000D01*
X68900000Y-109500000D02*
X68900000Y-111100000D01*
X66700000Y-116600000D02*
X66700000Y-117400000D01*
X66700000Y-117400000D02*
X65100000Y-117400000D01*
X65100000Y-117400000D02*
X65100000Y-116600000D01*
X65100000Y-116600000D02*
X66700000Y-116600000D01*
X70750000Y-104200000D02*
G75*
G03*
X70750000Y-104200000I-3150000J0D01*
G01*
X70900000Y-100900000D02*
X70900000Y-107500000D01*
X65300000Y-100900000D02*
X70900000Y-100900000D01*
X65300000Y-107500000D02*
X70900000Y-107500000D01*
X64300000Y-101900000D02*
X64300000Y-106500000D01*
X64300000Y-101900000D02*
X65300000Y-100900000D01*
X64300000Y-106500000D02*
X65300000Y-107500000D01*
X64895162Y-102870000D02*
X65525162Y-102870000D01*
X65210162Y-102555000D02*
X65210162Y-103185000D01*
X72750000Y-115300000D02*
X72750000Y-115800000D01*
X72750000Y-115800000D02*
X71750000Y-115800000D01*
X71750000Y-115800000D02*
X71750000Y-115300000D01*
X71750000Y-115300000D02*
X72750000Y-115300000D01*
X71400000Y-112350000D02*
X71400000Y-108700000D01*
X71400000Y-108700000D02*
X74400000Y-108700000D01*
X74400000Y-108700000D02*
X74400000Y-113100000D01*
X74400000Y-113100000D02*
X72150000Y-113100000D01*
X72150000Y-113100000D02*
X71400000Y-112350000D01*
X74900000Y-112350000D02*
X74900000Y-108700000D01*
X74900000Y-108700000D02*
X77900000Y-108700000D01*
X77900000Y-108700000D02*
X77900000Y-113100000D01*
X77900000Y-113100000D02*
X75650000Y-113100000D01*
X75650000Y-113100000D02*
X74900000Y-112350000D01*
X118250000Y-88700000D02*
X117750000Y-88700000D01*
X117750000Y-88700000D02*
X117750000Y-87700000D01*
X117750000Y-87700000D02*
X118250000Y-87700000D01*
X118250000Y-87700000D02*
X118250000Y-88700000D01*
X106250000Y-100450000D02*
X106750000Y-100450000D01*
X106750000Y-100450000D02*
X106750000Y-101450000D01*
X106750000Y-101450000D02*
X106250000Y-101450000D01*
X106250000Y-101450000D02*
X106250000Y-100450000D01*
X63050000Y-116085000D02*
X62550000Y-116085000D01*
X62550000Y-116085000D02*
X62550000Y-115085000D01*
X62550000Y-115085000D02*
X63050000Y-115085000D01*
X63050000Y-115085000D02*
X63050000Y-116085000D01*
X63050000Y-117985000D02*
X62550000Y-117985000D01*
X62550000Y-117985000D02*
X62550000Y-116985000D01*
X62550000Y-116985000D02*
X63050000Y-116985000D01*
X63050000Y-116985000D02*
X63050000Y-117985000D01*
X60880000Y-116950000D02*
X61380000Y-116450000D01*
X60030000Y-114750000D02*
X61380000Y-114750000D01*
X60030000Y-116950000D02*
X60030000Y-114750000D01*
X61380000Y-116450000D02*
X61380000Y-114750000D01*
X60030000Y-116950000D02*
X60880000Y-116950000D01*
X75150000Y-91485000D02*
X74650000Y-91485000D01*
X74650000Y-91485000D02*
X74650000Y-90485000D01*
X74650000Y-90485000D02*
X75150000Y-90485000D01*
X75150000Y-90485000D02*
X75150000Y-91485000D01*
X62900000Y-110350000D02*
X62900000Y-110850000D01*
X62900000Y-110850000D02*
X61900000Y-110850000D01*
X61900000Y-110850000D02*
X61900000Y-110350000D01*
X61900000Y-110350000D02*
X62900000Y-110350000D01*
X124050000Y-85900000D02*
X121800000Y-85900000D01*
X121800000Y-85900000D02*
X121800000Y-82900000D01*
X121800000Y-82900000D02*
X124800000Y-82900000D01*
X124800000Y-82900000D02*
X124800000Y-85150000D01*
X124800000Y-85150000D02*
X124050000Y-85900000D01*
X120150000Y-91200000D02*
X119650000Y-91200000D01*
X119650000Y-91200000D02*
X119650000Y-90200000D01*
X119650000Y-90200000D02*
X120150000Y-90200000D01*
X120150000Y-90200000D02*
X120150000Y-91200000D01*
X126450000Y-99800000D02*
X126950000Y-99800000D01*
X126950000Y-99800000D02*
X126950000Y-100800000D01*
X126950000Y-100800000D02*
X126450000Y-100800000D01*
X126450000Y-100800000D02*
X126450000Y-99800000D01*
X120280000Y-104400000D02*
X120780000Y-103900000D01*
X119430000Y-102200000D02*
X120780000Y-102200000D01*
X119430000Y-104400000D02*
X119430000Y-102200000D01*
X120780000Y-103900000D02*
X120780000Y-102200000D01*
X119430000Y-104400000D02*
X120280000Y-104400000D01*
X94750000Y-82000000D02*
X96550000Y-82000000D01*
X96550000Y-82000000D02*
X96550000Y-83400000D01*
X96550000Y-83400000D02*
X94750000Y-83400000D01*
X94750000Y-83400000D02*
X94750000Y-82000000D01*
X95350000Y-82350000D02*
X95350000Y-83050000D01*
X95350000Y-82700000D02*
X95150000Y-82700000D01*
X95350000Y-82700000D02*
X95850000Y-82350000D01*
X95850000Y-82350000D02*
X95850000Y-83050000D01*
X95850000Y-83050000D02*
X95350000Y-82700000D01*
X95850000Y-82700000D02*
X96100000Y-82700000D01*
X117250000Y-106700000D02*
X115450000Y-106700000D01*
X115450000Y-106700000D02*
X115450000Y-105300000D01*
X115450000Y-105300000D02*
X117250000Y-105300000D01*
X117250000Y-105300000D02*
X117250000Y-106700000D01*
X116650000Y-106350000D02*
X116650000Y-105650000D01*
X116650000Y-106000000D02*
X116850000Y-106000000D01*
X116650000Y-106000000D02*
X116150000Y-106350000D01*
X116150000Y-106350000D02*
X116150000Y-105650000D01*
X116150000Y-105650000D02*
X116650000Y-106000000D01*
X116150000Y-106000000D02*
X115900000Y-106000000D01*
X59550000Y-97000000D02*
X59550000Y-97500000D01*
X59550000Y-97500000D02*
X58550000Y-97500000D01*
X58550000Y-97500000D02*
X58550000Y-97000000D01*
X58550000Y-97000000D02*
X59550000Y-97000000D01*
X58150000Y-92650000D02*
X58650000Y-92650000D01*
X58650000Y-92650000D02*
X58650000Y-93650000D01*
X58650000Y-93650000D02*
X58150000Y-93650000D01*
X58150000Y-93650000D02*
X58150000Y-92650000D01*
X95925000Y-84600000D02*
X95425000Y-85100000D01*
X96775000Y-86800000D02*
X95425000Y-86800000D01*
X96775000Y-84600000D02*
X96775000Y-86800000D01*
X95425000Y-85100000D02*
X95425000Y-86800000D01*
X96775000Y-84600000D02*
X95925000Y-84600000D01*
X95925000Y-90200000D02*
X95425000Y-90700000D01*
X96775000Y-92400000D02*
X95425000Y-92400000D01*
X96775000Y-90200000D02*
X96775000Y-92400000D01*
X95425000Y-90700000D02*
X95425000Y-92400000D01*
X96775000Y-90200000D02*
X95925000Y-90200000D01*
X89050000Y-101250000D02*
X89050000Y-101750000D01*
X89050000Y-101750000D02*
X88050000Y-101750000D01*
X88050000Y-101750000D02*
X88050000Y-101250000D01*
X88050000Y-101250000D02*
X89050000Y-101250000D01*
X90625000Y-98500000D02*
X90125000Y-99000000D01*
X91475000Y-100700000D02*
X90125000Y-100700000D01*
X91475000Y-98500000D02*
X91475000Y-100700000D01*
X90125000Y-99000000D02*
X90125000Y-100700000D01*
X91475000Y-98500000D02*
X90625000Y-98500000D01*
X99925000Y-104200000D02*
X99425000Y-104700000D01*
X100775000Y-106400000D02*
X99425000Y-106400000D01*
X100775000Y-104200000D02*
X100775000Y-106400000D01*
X99425000Y-104700000D02*
X99425000Y-106400000D01*
X100775000Y-104200000D02*
X99925000Y-104200000D01*
X99925000Y-101400000D02*
X99425000Y-101900000D01*
X100775000Y-103600000D02*
X99425000Y-103600000D01*
X100775000Y-101400000D02*
X100775000Y-103600000D01*
X99425000Y-101900000D02*
X99425000Y-103600000D01*
X100775000Y-101400000D02*
X99925000Y-101400000D01*
X99925000Y-98600000D02*
X99425000Y-99100000D01*
X100775000Y-100800000D02*
X99425000Y-100800000D01*
X100775000Y-98600000D02*
X100775000Y-100800000D01*
X99425000Y-99100000D02*
X99425000Y-100800000D01*
X100775000Y-98600000D02*
X99925000Y-98600000D01*
X99925000Y-95800000D02*
X99425000Y-96300000D01*
X100775000Y-98000000D02*
X99425000Y-98000000D01*
X100775000Y-95800000D02*
X100775000Y-98000000D01*
X99425000Y-96300000D02*
X99425000Y-98000000D01*
X100775000Y-95800000D02*
X99925000Y-95800000D01*
X95925000Y-104200000D02*
X95425000Y-104700000D01*
X96775000Y-106400000D02*
X95425000Y-106400000D01*
X96775000Y-104200000D02*
X96775000Y-106400000D01*
X95425000Y-104700000D02*
X95425000Y-106400000D01*
X96775000Y-104200000D02*
X95925000Y-104200000D01*
X95925000Y-101400000D02*
X95425000Y-101900000D01*
X96775000Y-103600000D02*
X95425000Y-103600000D01*
X96775000Y-101400000D02*
X96775000Y-103600000D01*
X95425000Y-101900000D02*
X95425000Y-103600000D01*
X96775000Y-101400000D02*
X95925000Y-101400000D01*
X95925000Y-98600000D02*
X95425000Y-99100000D01*
X96775000Y-100800000D02*
X95425000Y-100800000D01*
X96775000Y-98600000D02*
X96775000Y-100800000D01*
X95425000Y-99100000D02*
X95425000Y-100800000D01*
X96775000Y-98600000D02*
X95925000Y-98600000D01*
X95925000Y-95800000D02*
X95425000Y-96300000D01*
X96775000Y-98000000D02*
X95425000Y-98000000D01*
X96775000Y-95800000D02*
X96775000Y-98000000D01*
X95425000Y-96300000D02*
X95425000Y-98000000D01*
X96775000Y-95800000D02*
X95925000Y-95800000D01*
X99925000Y-93000000D02*
X99425000Y-93500000D01*
X100775000Y-95200000D02*
X99425000Y-95200000D01*
X100775000Y-93000000D02*
X100775000Y-95200000D01*
X99425000Y-93500000D02*
X99425000Y-95200000D01*
X100775000Y-93000000D02*
X99925000Y-93000000D01*
X99925000Y-90200000D02*
X99425000Y-90700000D01*
X100775000Y-92400000D02*
X99425000Y-92400000D01*
X100775000Y-90200000D02*
X100775000Y-92400000D01*
X99425000Y-90700000D02*
X99425000Y-92400000D01*
X100775000Y-90200000D02*
X99925000Y-90200000D01*
X99925000Y-87400000D02*
X99425000Y-87900000D01*
X100775000Y-89600000D02*
X99425000Y-89600000D01*
X100775000Y-87400000D02*
X100775000Y-89600000D01*
X99425000Y-87900000D02*
X99425000Y-89600000D01*
X100775000Y-87400000D02*
X99925000Y-87400000D01*
X99925000Y-84600000D02*
X99425000Y-85100000D01*
X100775000Y-86800000D02*
X99425000Y-86800000D01*
X100775000Y-84600000D02*
X100775000Y-86800000D01*
X99425000Y-85100000D02*
X99425000Y-86800000D01*
X100775000Y-84600000D02*
X99925000Y-84600000D01*
X95925000Y-93000000D02*
X95425000Y-93500000D01*
X96775000Y-95200000D02*
X95425000Y-95200000D01*
X96775000Y-93000000D02*
X96775000Y-95200000D01*
X95425000Y-93500000D02*
X95425000Y-95200000D01*
X96775000Y-93000000D02*
X95925000Y-93000000D01*
X95925000Y-87400000D02*
X95425000Y-87900000D01*
X96775000Y-89600000D02*
X95425000Y-89600000D01*
X96775000Y-87400000D02*
X96775000Y-89600000D01*
X95425000Y-87900000D02*
X95425000Y-89600000D01*
X96775000Y-87400000D02*
X95925000Y-87400000D01*
X85950000Y-110750000D02*
X85950000Y-109450000D01*
X85950000Y-109450000D02*
X86850000Y-109450000D01*
X86850000Y-109450000D02*
X86850000Y-110750000D01*
X86850000Y-110750000D02*
X85950000Y-110750000D01*
X86200000Y-109900000D02*
X86600000Y-109900000D01*
X86400000Y-109900000D02*
X86400000Y-109750000D01*
X86400000Y-109900000D02*
X86200000Y-110200000D01*
X86200000Y-110200000D02*
X86600000Y-110200000D01*
X86600000Y-110200000D02*
X86400000Y-109900000D01*
X86400000Y-110200000D02*
X86400000Y-110350000D01*
X107350000Y-98250000D02*
X107350000Y-96950000D01*
X107350000Y-96950000D02*
X108250000Y-96950000D01*
X108250000Y-96950000D02*
X108250000Y-98250000D01*
X108250000Y-98250000D02*
X107350000Y-98250000D01*
X107600000Y-97400000D02*
X108000000Y-97400000D01*
X107800000Y-97400000D02*
X107800000Y-97250000D01*
X107800000Y-97400000D02*
X107600000Y-97700000D01*
X107600000Y-97700000D02*
X108000000Y-97700000D01*
X108000000Y-97700000D02*
X107800000Y-97400000D01*
X107800000Y-97700000D02*
X107800000Y-97850000D01*
X107350000Y-95750000D02*
X107350000Y-94450000D01*
X107350000Y-94450000D02*
X108250000Y-94450000D01*
X108250000Y-94450000D02*
X108250000Y-95750000D01*
X108250000Y-95750000D02*
X107350000Y-95750000D01*
X107600000Y-94900000D02*
X108000000Y-94900000D01*
X107800000Y-94900000D02*
X107800000Y-94750000D01*
X107800000Y-94900000D02*
X107600000Y-95200000D01*
X107600000Y-95200000D02*
X108000000Y-95200000D01*
X108000000Y-95200000D02*
X107800000Y-94900000D01*
X107800000Y-95200000D02*
X107800000Y-95350000D01*
X122400000Y-91350000D02*
X122400000Y-88250000D01*
X122400000Y-88250000D02*
X124200000Y-88250000D01*
X124200000Y-90700000D02*
X124200000Y-88250000D01*
X122400000Y-91350000D02*
X123550000Y-91350000D01*
X124200000Y-90700000D02*
X123550000Y-91350000D01*
X122400000Y-100300000D02*
X123050000Y-99650000D01*
X124200000Y-99650000D02*
X123050000Y-99650000D01*
X122400000Y-100300000D02*
X122400000Y-102750000D01*
X124200000Y-102750000D02*
X122400000Y-102750000D01*
X124200000Y-99650000D02*
X124200000Y-102750000D01*
X122400000Y-98950000D02*
X122400000Y-95850000D01*
X122400000Y-95850000D02*
X124200000Y-95850000D01*
X124200000Y-98300000D02*
X124200000Y-95850000D01*
X122400000Y-98950000D02*
X123550000Y-98950000D01*
X124200000Y-98300000D02*
X123550000Y-98950000D01*
X62800000Y-95750000D02*
X62800000Y-98850000D01*
X62800000Y-98850000D02*
X61000000Y-98850000D01*
X61000000Y-96400000D02*
X61000000Y-98850000D01*
X62800000Y-95750000D02*
X61650000Y-95750000D01*
X61000000Y-96400000D02*
X61650000Y-95750000D01*
X60300000Y-92650000D02*
X61300000Y-93650000D01*
X63500000Y-91150000D02*
X60300000Y-91150000D01*
X63500000Y-93650000D02*
X63500000Y-91150000D01*
X60300000Y-93650000D02*
X63500000Y-93650000D01*
X60300000Y-91150000D02*
X60300000Y-93650000D01*
X111500000Y-89700000D02*
X114900000Y-89700000D01*
X114900000Y-89700000D02*
X114900000Y-94700000D01*
X114900000Y-94700000D02*
X110500000Y-94700000D01*
X110500000Y-94700000D02*
X110500000Y-90700000D01*
X110500000Y-90700000D02*
X111500000Y-89700000D01*
X113900000Y-101300000D02*
X110500000Y-101300000D01*
X110500000Y-101300000D02*
X110500000Y-96300000D01*
X110500000Y-96300000D02*
X114900000Y-96300000D01*
X114900000Y-96300000D02*
X114900000Y-100300000D01*
X114900000Y-100300000D02*
X113900000Y-101300000D01*
D11*
X66900000Y-109900000D02*
X65900000Y-110900000D01*
X66900000Y-108900000D02*
X66900000Y-109900000D01*
X64900000Y-108900000D02*
X66900000Y-108900000D01*
X64900000Y-110900000D02*
X64900000Y-108900000D01*
X65900000Y-110900000D02*
X64900000Y-110900000D01*
X66900000Y-115000000D02*
X65900000Y-116000000D01*
X66900000Y-114000000D02*
X66900000Y-115000000D01*
X64900000Y-114000000D02*
X66900000Y-114000000D01*
X64900000Y-116000000D02*
X64900000Y-114000000D01*
X65900000Y-116000000D02*
X64900000Y-116000000D01*
D10*
X123100000Y-81550000D02*
X123100000Y-82050000D01*
X123100000Y-82050000D02*
X122100000Y-82050000D01*
X122100000Y-82050000D02*
X122100000Y-81550000D01*
X122100000Y-81550000D02*
X123100000Y-81550000D01*
X123100000Y-108950000D02*
X123100000Y-109450000D01*
X123100000Y-109450000D02*
X122100000Y-109450000D01*
X122100000Y-109450000D02*
X122100000Y-108950000D01*
X122100000Y-108950000D02*
X123100000Y-108950000D01*
X86600000Y-108150000D02*
X86100000Y-108150000D01*
X86100000Y-108150000D02*
X86100000Y-107150000D01*
X86100000Y-107150000D02*
X86600000Y-107150000D01*
X86600000Y-107150000D02*
X86600000Y-108150000D01*
X87550000Y-108150000D02*
X87050000Y-108150000D01*
X87050000Y-108150000D02*
X87050000Y-107150000D01*
X87050000Y-107150000D02*
X87550000Y-107150000D01*
X87550000Y-107150000D02*
X87550000Y-108150000D01*
X102750000Y-94400000D02*
X103250000Y-94400000D01*
X103250000Y-94400000D02*
X103250000Y-95400000D01*
X103250000Y-95400000D02*
X102750000Y-95400000D01*
X102750000Y-95400000D02*
X102750000Y-94400000D01*
X103250000Y-97250000D02*
X102750000Y-97250000D01*
X102750000Y-97250000D02*
X102750000Y-96250000D01*
X102750000Y-96250000D02*
X103250000Y-96250000D01*
X103250000Y-96250000D02*
X103250000Y-97250000D01*
X87200000Y-91000000D02*
X79200000Y-91000000D01*
X88200000Y-92000000D02*
X88200000Y-100000000D01*
X79200000Y-91000000D02*
X79200000Y-100000000D01*
X79200000Y-100000000D02*
X88200000Y-100000000D01*
X88200000Y-92000000D02*
X87200000Y-91000000D01*
X117015000Y-101850000D02*
X117015000Y-101350000D01*
X117015000Y-101350000D02*
X118015000Y-101350000D01*
X118015000Y-101350000D02*
X118015000Y-101850000D01*
X118015000Y-101850000D02*
X117015000Y-101850000D01*
X107400000Y-100750000D02*
X107400000Y-100250000D01*
X107400000Y-100250000D02*
X108400000Y-100250000D01*
X108400000Y-100250000D02*
X108400000Y-100750000D01*
X108400000Y-100750000D02*
X107400000Y-100750000D01*
X118000000Y-90250000D02*
X118000000Y-90750000D01*
X118000000Y-90750000D02*
X117000000Y-90750000D01*
X117000000Y-90750000D02*
X117000000Y-90250000D01*
X117000000Y-90250000D02*
X118000000Y-90250000D01*
X58550000Y-98450000D02*
X58550000Y-97950000D01*
X58550000Y-97950000D02*
X59550000Y-97950000D01*
X59550000Y-97950000D02*
X59550000Y-98450000D01*
X59550000Y-98450000D02*
X58550000Y-98450000D01*
X125950000Y-90800000D02*
X125450000Y-90800000D01*
X125450000Y-90800000D02*
X125450000Y-89800000D01*
X125450000Y-89800000D02*
X125950000Y-89800000D01*
X125950000Y-89800000D02*
X125950000Y-90800000D01*
X119350000Y-82900000D02*
X119850000Y-82900000D01*
X119850000Y-82900000D02*
X119850000Y-83900000D01*
X119850000Y-83900000D02*
X119350000Y-83900000D01*
X119350000Y-83900000D02*
X119350000Y-82900000D01*
X108100000Y-89850000D02*
X108600000Y-89850000D01*
X108600000Y-89850000D02*
X108600000Y-90850000D01*
X108600000Y-90850000D02*
X108100000Y-90850000D01*
X108100000Y-90850000D02*
X108100000Y-89850000D01*
X117000000Y-100650000D02*
X117000000Y-100150000D01*
X117000000Y-100150000D02*
X118000000Y-100150000D01*
X118000000Y-100150000D02*
X118000000Y-100650000D01*
X118000000Y-100650000D02*
X117000000Y-100650000D01*
X108100000Y-91750000D02*
X108600000Y-91750000D01*
X108600000Y-91750000D02*
X108600000Y-92750000D01*
X108600000Y-92750000D02*
X108100000Y-92750000D01*
X108100000Y-92750000D02*
X108100000Y-91750000D01*
X125550000Y-81900000D02*
X125050000Y-81900000D01*
X125050000Y-81900000D02*
X125050000Y-80900000D01*
X125050000Y-80900000D02*
X125550000Y-80900000D01*
X125550000Y-80900000D02*
X125550000Y-81900000D01*
X108400000Y-101150000D02*
X108400000Y-101650000D01*
X108400000Y-101650000D02*
X107400000Y-101650000D01*
X107400000Y-101650000D02*
X107400000Y-101150000D01*
X107400000Y-101150000D02*
X108400000Y-101150000D01*
X125700000Y-103850000D02*
X125700000Y-103350000D01*
X125700000Y-103350000D02*
X126700000Y-103350000D01*
X126700000Y-103350000D02*
X126700000Y-103850000D01*
X126700000Y-103850000D02*
X125700000Y-103850000D01*
X118000000Y-89850000D02*
X117000000Y-89850000D01*
X118000000Y-89350000D02*
X118000000Y-89850000D01*
X117000000Y-89350000D02*
X118000000Y-89350000D01*
X117000000Y-89850000D02*
X117000000Y-89350000D01*
X120900000Y-87150000D02*
X120900000Y-87650000D01*
X120900000Y-87650000D02*
X119900000Y-87650000D01*
X119900000Y-87650000D02*
X119900000Y-87150000D01*
X119900000Y-87150000D02*
X120900000Y-87150000D01*
X59600000Y-93650000D02*
X59100000Y-93650000D01*
X59100000Y-93650000D02*
X59100000Y-92650000D01*
X59100000Y-92650000D02*
X59600000Y-92650000D01*
X59600000Y-92650000D02*
X59600000Y-93650000D01*
X62400000Y-89950000D02*
X62400000Y-90450000D01*
X62400000Y-90450000D02*
X61400000Y-90450000D01*
X61400000Y-90450000D02*
X61400000Y-89950000D01*
X61400000Y-89950000D02*
X62400000Y-89950000D01*
X59550000Y-98900000D02*
X59550000Y-99400000D01*
X59550000Y-99400000D02*
X58550000Y-99400000D01*
X58550000Y-99400000D02*
X58550000Y-98900000D01*
X58550000Y-98900000D02*
X59550000Y-98900000D01*
X58750000Y-101500000D02*
X59250000Y-101500000D01*
X59250000Y-101500000D02*
X59250000Y-102500000D01*
X59250000Y-102500000D02*
X58750000Y-102500000D01*
X58750000Y-102500000D02*
X58750000Y-101500000D01*
X58750000Y-109500000D02*
X59250000Y-109500000D01*
X59250000Y-109500000D02*
X59250000Y-110500000D01*
X59250000Y-110500000D02*
X58750000Y-110500000D01*
X58750000Y-110500000D02*
X58750000Y-109500000D01*
X125450000Y-100800000D02*
X125450000Y-99800000D01*
X125950000Y-100800000D02*
X125450000Y-100800000D01*
X125950000Y-99800000D02*
X125950000Y-100800000D01*
X125450000Y-99800000D02*
X125950000Y-99800000D01*
X125450000Y-102700000D02*
X125450000Y-101700000D01*
X125950000Y-102700000D02*
X125450000Y-102700000D01*
X125950000Y-101700000D02*
X125950000Y-102700000D01*
X125450000Y-101700000D02*
X125950000Y-101700000D01*
X126950000Y-102700000D02*
X126450000Y-102700000D01*
X126450000Y-102700000D02*
X126450000Y-101700000D01*
X126450000Y-101700000D02*
X126950000Y-101700000D01*
X126950000Y-101700000D02*
X126950000Y-102700000D01*
X58750000Y-107500000D02*
X59250000Y-107500000D01*
X59250000Y-107500000D02*
X59250000Y-108500000D01*
X59250000Y-108500000D02*
X58750000Y-108500000D01*
X58750000Y-108500000D02*
X58750000Y-107500000D01*
X74650000Y-103300000D02*
X75150000Y-103300000D01*
X75150000Y-103300000D02*
X75150000Y-104300000D01*
X75150000Y-104300000D02*
X74650000Y-104300000D01*
X74650000Y-104300000D02*
X74650000Y-103300000D01*
X58750000Y-105500000D02*
X59250000Y-105500000D01*
X59250000Y-105500000D02*
X59250000Y-106500000D01*
X59250000Y-106500000D02*
X58750000Y-106500000D01*
X58750000Y-106500000D02*
X58750000Y-105500000D01*
X58750000Y-103500000D02*
X59250000Y-103500000D01*
X59250000Y-103500000D02*
X59250000Y-104500000D01*
X59250000Y-104500000D02*
X58750000Y-104500000D01*
X58750000Y-104500000D02*
X58750000Y-103500000D01*
X124850000Y-109100000D02*
X125350000Y-109100000D01*
X125350000Y-109100000D02*
X125350000Y-110100000D01*
X125350000Y-110100000D02*
X124850000Y-110100000D01*
X124850000Y-110100000D02*
X124850000Y-109100000D01*
X75900000Y-90550000D02*
X75900000Y-90050000D01*
X75900000Y-90050000D02*
X76900000Y-90050000D01*
X76900000Y-90050000D02*
X76900000Y-90550000D01*
X76900000Y-90550000D02*
X75900000Y-90550000D01*
X119650000Y-88300000D02*
X120150000Y-88300000D01*
X120150000Y-88300000D02*
X120150000Y-89300000D01*
X120150000Y-89300000D02*
X119650000Y-89300000D01*
X119650000Y-89300000D02*
X119650000Y-88300000D01*
X121150000Y-89300000D02*
X120650000Y-89300000D01*
X120650000Y-89300000D02*
X120650000Y-88300000D01*
X120650000Y-88300000D02*
X121150000Y-88300000D01*
X121150000Y-88300000D02*
X121150000Y-89300000D01*
X121150000Y-91200000D02*
X120650000Y-91200000D01*
X120650000Y-91200000D02*
X120650000Y-90200000D01*
X120650000Y-90200000D02*
X121150000Y-90200000D01*
X121150000Y-90200000D02*
X121150000Y-91200000D01*
X75150000Y-106400000D02*
X74650000Y-106400000D01*
X74650000Y-106400000D02*
X74650000Y-105400000D01*
X74650000Y-105400000D02*
X75150000Y-105400000D01*
X75150000Y-105400000D02*
X75150000Y-106400000D01*
X75373223Y-101030330D02*
X75019670Y-100676777D01*
X75019670Y-100676777D02*
X75726777Y-99969670D01*
X75726777Y-99969670D02*
X76080330Y-100323223D01*
X76080330Y-100323223D02*
X75373223Y-101030330D01*
X65850000Y-99500000D02*
X65850000Y-92000000D01*
X73850000Y-99500000D02*
X65850000Y-99500000D01*
X73850000Y-91500000D02*
X73850000Y-99500000D01*
X66350000Y-91500000D02*
X73850000Y-91500000D01*
X65850000Y-92000000D02*
X66350000Y-91500000D01*
X59550000Y-96050000D02*
X59550000Y-96550000D01*
X59550000Y-96550000D02*
X58550000Y-96550000D01*
X58550000Y-96550000D02*
X58550000Y-96050000D01*
X58550000Y-96050000D02*
X59550000Y-96050000D01*
X59350000Y-91450000D02*
X59350000Y-91950000D01*
X59350000Y-91950000D02*
X58350000Y-91950000D01*
X58350000Y-91950000D02*
X58350000Y-91450000D01*
X58350000Y-91450000D02*
X59350000Y-91450000D01*
X127250000Y-108100000D02*
X126750000Y-108100000D01*
X126750000Y-108100000D02*
X126750000Y-107100000D01*
X126750000Y-107100000D02*
X127250000Y-107100000D01*
X127250000Y-107100000D02*
X127250000Y-108100000D01*
X120650000Y-100200000D02*
X121150000Y-100200000D01*
X121150000Y-100200000D02*
X121150000Y-101200000D01*
X121150000Y-101200000D02*
X120650000Y-101200000D01*
X120650000Y-101200000D02*
X120650000Y-100200000D01*
X125950000Y-97385000D02*
X125450000Y-97385000D01*
X125450000Y-97385000D02*
X125450000Y-96385000D01*
X125450000Y-96385000D02*
X125950000Y-96385000D01*
X125950000Y-96385000D02*
X125950000Y-97385000D01*
X120650000Y-93600000D02*
X121150000Y-93600000D01*
X121150000Y-93600000D02*
X121150000Y-94600000D01*
X121150000Y-94600000D02*
X120650000Y-94600000D01*
X120650000Y-94600000D02*
X120650000Y-93600000D01*
X79100000Y-90400000D02*
G75*
G03*
X79100000Y-90400000I-500000J0D01*
G01*
D12*
X91026190Y-103245238D02*
X90788095Y-103411904D01*
X91026190Y-103530952D02*
X90526190Y-103530952D01*
X90526190Y-103340476D01*
X90550000Y-103292857D01*
X90573809Y-103269047D01*
X90621428Y-103245238D01*
X90692857Y-103245238D01*
X90740476Y-103269047D01*
X90764285Y-103292857D01*
X90788095Y-103340476D01*
X90788095Y-103530952D01*
X91026190Y-103030952D02*
X90526190Y-103030952D01*
X91026190Y-102745238D01*
X90526190Y-102745238D01*
X91026190Y-102245238D02*
X91026190Y-102530952D01*
X91026190Y-102388095D02*
X90526190Y-102388095D01*
X90597619Y-102435714D01*
X90645238Y-102483333D01*
X90669047Y-102530952D01*
X112816666Y-85226190D02*
X112650000Y-84988095D01*
X112530952Y-85226190D02*
X112530952Y-84726190D01*
X112721428Y-84726190D01*
X112769047Y-84750000D01*
X112792857Y-84773809D01*
X112816666Y-84821428D01*
X112816666Y-84892857D01*
X112792857Y-84940476D01*
X112769047Y-84964285D01*
X112721428Y-84988095D01*
X112530952Y-84988095D01*
X113030952Y-85226190D02*
X113030952Y-84726190D01*
X113316666Y-85226190D01*
X113316666Y-84726190D01*
X113816666Y-85226190D02*
X113530952Y-85226190D01*
X113673809Y-85226190D02*
X113673809Y-84726190D01*
X113626190Y-84797619D01*
X113578571Y-84845238D01*
X113530952Y-84869047D01*
X114007142Y-84773809D02*
X114030952Y-84750000D01*
X114078571Y-84726190D01*
X114197619Y-84726190D01*
X114245238Y-84750000D01*
X114269047Y-84773809D01*
X114292857Y-84821428D01*
X114292857Y-84869047D01*
X114269047Y-84940476D01*
X113983333Y-85226190D01*
X114292857Y-85226190D01*
X110316666Y-85226190D02*
X110150000Y-84988095D01*
X110030952Y-85226190D02*
X110030952Y-84726190D01*
X110221428Y-84726190D01*
X110269047Y-84750000D01*
X110292857Y-84773809D01*
X110316666Y-84821428D01*
X110316666Y-84892857D01*
X110292857Y-84940476D01*
X110269047Y-84964285D01*
X110221428Y-84988095D01*
X110030952Y-84988095D01*
X110530952Y-85226190D02*
X110530952Y-84726190D01*
X110816666Y-85226190D01*
X110816666Y-84726190D01*
X111316666Y-85226190D02*
X111030952Y-85226190D01*
X111173809Y-85226190D02*
X111173809Y-84726190D01*
X111126190Y-84797619D01*
X111078571Y-84845238D01*
X111030952Y-84869047D01*
X111792857Y-85226190D02*
X111507142Y-85226190D01*
X111650000Y-85226190D02*
X111650000Y-84726190D01*
X111602380Y-84797619D01*
X111554761Y-84845238D01*
X111507142Y-84869047D01*
X105116666Y-86226190D02*
X104950000Y-85988095D01*
X104830952Y-86226190D02*
X104830952Y-85726190D01*
X105021428Y-85726190D01*
X105069047Y-85750000D01*
X105092857Y-85773809D01*
X105116666Y-85821428D01*
X105116666Y-85892857D01*
X105092857Y-85940476D01*
X105069047Y-85964285D01*
X105021428Y-85988095D01*
X104830952Y-85988095D01*
X105330952Y-86226190D02*
X105330952Y-85726190D01*
X105616666Y-86226190D01*
X105616666Y-85726190D01*
X106116666Y-86226190D02*
X105830952Y-86226190D01*
X105973809Y-86226190D02*
X105973809Y-85726190D01*
X105926190Y-85797619D01*
X105878571Y-85845238D01*
X105830952Y-85869047D01*
X106426190Y-85726190D02*
X106473809Y-85726190D01*
X106521428Y-85750000D01*
X106545238Y-85773809D01*
X106569047Y-85821428D01*
X106592857Y-85916666D01*
X106592857Y-86035714D01*
X106569047Y-86130952D01*
X106545238Y-86178571D01*
X106521428Y-86202380D01*
X106473809Y-86226190D01*
X106426190Y-86226190D01*
X106378571Y-86202380D01*
X106354761Y-86178571D01*
X106330952Y-86130952D01*
X106307142Y-86035714D01*
X106307142Y-85916666D01*
X106330952Y-85821428D01*
X106354761Y-85773809D01*
X106378571Y-85750000D01*
X106426190Y-85726190D01*
X102854761Y-86226190D02*
X102688095Y-85988095D01*
X102569047Y-86226190D02*
X102569047Y-85726190D01*
X102759523Y-85726190D01*
X102807142Y-85750000D01*
X102830952Y-85773809D01*
X102854761Y-85821428D01*
X102854761Y-85892857D01*
X102830952Y-85940476D01*
X102807142Y-85964285D01*
X102759523Y-85988095D01*
X102569047Y-85988095D01*
X103069047Y-86226190D02*
X103069047Y-85726190D01*
X103354761Y-86226190D01*
X103354761Y-85726190D01*
X103616666Y-86226190D02*
X103711904Y-86226190D01*
X103759523Y-86202380D01*
X103783333Y-86178571D01*
X103830952Y-86107142D01*
X103854761Y-86011904D01*
X103854761Y-85821428D01*
X103830952Y-85773809D01*
X103807142Y-85750000D01*
X103759523Y-85726190D01*
X103664285Y-85726190D01*
X103616666Y-85750000D01*
X103592857Y-85773809D01*
X103569047Y-85821428D01*
X103569047Y-85940476D01*
X103592857Y-85988095D01*
X103616666Y-86011904D01*
X103664285Y-86035714D01*
X103759523Y-86035714D01*
X103807142Y-86011904D01*
X103830952Y-85988095D01*
X103854761Y-85940476D01*
X91026190Y-93145238D02*
X90788095Y-93311904D01*
X91026190Y-93430952D02*
X90526190Y-93430952D01*
X90526190Y-93240476D01*
X90550000Y-93192857D01*
X90573809Y-93169047D01*
X90621428Y-93145238D01*
X90692857Y-93145238D01*
X90740476Y-93169047D01*
X90764285Y-93192857D01*
X90788095Y-93240476D01*
X90788095Y-93430952D01*
X91026190Y-92930952D02*
X90526190Y-92930952D01*
X91026190Y-92645238D01*
X90526190Y-92645238D01*
X90740476Y-92335714D02*
X90716666Y-92383333D01*
X90692857Y-92407142D01*
X90645238Y-92430952D01*
X90621428Y-92430952D01*
X90573809Y-92407142D01*
X90550000Y-92383333D01*
X90526190Y-92335714D01*
X90526190Y-92240476D01*
X90550000Y-92192857D01*
X90573809Y-92169047D01*
X90621428Y-92145238D01*
X90645238Y-92145238D01*
X90692857Y-92169047D01*
X90716666Y-92192857D01*
X90740476Y-92240476D01*
X90740476Y-92335714D01*
X90764285Y-92383333D01*
X90788095Y-92407142D01*
X90835714Y-92430952D01*
X90930952Y-92430952D01*
X90978571Y-92407142D01*
X91002380Y-92383333D01*
X91026190Y-92335714D01*
X91026190Y-92240476D01*
X91002380Y-92192857D01*
X90978571Y-92169047D01*
X90930952Y-92145238D01*
X90835714Y-92145238D01*
X90788095Y-92169047D01*
X90764285Y-92192857D01*
X90740476Y-92240476D01*
X91026190Y-90645238D02*
X90788095Y-90811904D01*
X91026190Y-90930952D02*
X90526190Y-90930952D01*
X90526190Y-90740476D01*
X90550000Y-90692857D01*
X90573809Y-90669047D01*
X90621428Y-90645238D01*
X90692857Y-90645238D01*
X90740476Y-90669047D01*
X90764285Y-90692857D01*
X90788095Y-90740476D01*
X90788095Y-90930952D01*
X91026190Y-90430952D02*
X90526190Y-90430952D01*
X91026190Y-90145238D01*
X90526190Y-90145238D01*
X90526190Y-89954761D02*
X90526190Y-89621428D01*
X91026190Y-89835714D01*
X110554761Y-106226190D02*
X110388095Y-105988095D01*
X110269047Y-106226190D02*
X110269047Y-105726190D01*
X110459523Y-105726190D01*
X110507142Y-105750000D01*
X110530952Y-105773809D01*
X110554761Y-105821428D01*
X110554761Y-105892857D01*
X110530952Y-105940476D01*
X110507142Y-105964285D01*
X110459523Y-105988095D01*
X110269047Y-105988095D01*
X110769047Y-106226190D02*
X110769047Y-105726190D01*
X111054761Y-106226190D01*
X111054761Y-105726190D01*
X111507142Y-105726190D02*
X111411904Y-105726190D01*
X111364285Y-105750000D01*
X111340476Y-105773809D01*
X111292857Y-105845238D01*
X111269047Y-105940476D01*
X111269047Y-106130952D01*
X111292857Y-106178571D01*
X111316666Y-106202380D01*
X111364285Y-106226190D01*
X111459523Y-106226190D01*
X111507142Y-106202380D01*
X111530952Y-106178571D01*
X111554761Y-106130952D01*
X111554761Y-106011904D01*
X111530952Y-105964285D01*
X111507142Y-105940476D01*
X111459523Y-105916666D01*
X111364285Y-105916666D01*
X111316666Y-105940476D01*
X111292857Y-105964285D01*
X111269047Y-106011904D01*
X113054761Y-106226190D02*
X112888095Y-105988095D01*
X112769047Y-106226190D02*
X112769047Y-105726190D01*
X112959523Y-105726190D01*
X113007142Y-105750000D01*
X113030952Y-105773809D01*
X113054761Y-105821428D01*
X113054761Y-105892857D01*
X113030952Y-105940476D01*
X113007142Y-105964285D01*
X112959523Y-105988095D01*
X112769047Y-105988095D01*
X113269047Y-106226190D02*
X113269047Y-105726190D01*
X113554761Y-106226190D01*
X113554761Y-105726190D01*
X114030952Y-105726190D02*
X113792857Y-105726190D01*
X113769047Y-105964285D01*
X113792857Y-105940476D01*
X113840476Y-105916666D01*
X113959523Y-105916666D01*
X114007142Y-105940476D01*
X114030952Y-105964285D01*
X114054761Y-106011904D01*
X114054761Y-106130952D01*
X114030952Y-106178571D01*
X114007142Y-106202380D01*
X113959523Y-106226190D01*
X113840476Y-106226190D01*
X113792857Y-106202380D01*
X113769047Y-106178571D01*
X102854761Y-105226190D02*
X102688095Y-104988095D01*
X102569047Y-105226190D02*
X102569047Y-104726190D01*
X102759523Y-104726190D01*
X102807142Y-104750000D01*
X102830952Y-104773809D01*
X102854761Y-104821428D01*
X102854761Y-104892857D01*
X102830952Y-104940476D01*
X102807142Y-104964285D01*
X102759523Y-104988095D01*
X102569047Y-104988095D01*
X103069047Y-105226190D02*
X103069047Y-104726190D01*
X103354761Y-105226190D01*
X103354761Y-104726190D01*
X103807142Y-104892857D02*
X103807142Y-105226190D01*
X103688095Y-104702380D02*
X103569047Y-105059523D01*
X103878571Y-105059523D01*
X105354761Y-105226190D02*
X105188095Y-104988095D01*
X105069047Y-105226190D02*
X105069047Y-104726190D01*
X105259523Y-104726190D01*
X105307142Y-104750000D01*
X105330952Y-104773809D01*
X105354761Y-104821428D01*
X105354761Y-104892857D01*
X105330952Y-104940476D01*
X105307142Y-104964285D01*
X105259523Y-104988095D01*
X105069047Y-104988095D01*
X105569047Y-105226190D02*
X105569047Y-104726190D01*
X105854761Y-105226190D01*
X105854761Y-104726190D01*
X106045238Y-104726190D02*
X106354761Y-104726190D01*
X106188095Y-104916666D01*
X106259523Y-104916666D01*
X106307142Y-104940476D01*
X106330952Y-104964285D01*
X106354761Y-105011904D01*
X106354761Y-105130952D01*
X106330952Y-105178571D01*
X106307142Y-105202380D01*
X106259523Y-105226190D01*
X106116666Y-105226190D01*
X106069047Y-105202380D01*
X106045238Y-105178571D01*
X91026190Y-105745238D02*
X90788095Y-105911904D01*
X91026190Y-106030952D02*
X90526190Y-106030952D01*
X90526190Y-105840476D01*
X90550000Y-105792857D01*
X90573809Y-105769047D01*
X90621428Y-105745238D01*
X90692857Y-105745238D01*
X90740476Y-105769047D01*
X90764285Y-105792857D01*
X90788095Y-105840476D01*
X90788095Y-106030952D01*
X91026190Y-105530952D02*
X90526190Y-105530952D01*
X91026190Y-105245238D01*
X90526190Y-105245238D01*
X90573809Y-105030952D02*
X90550000Y-105007142D01*
X90526190Y-104959523D01*
X90526190Y-104840476D01*
X90550000Y-104792857D01*
X90573809Y-104769047D01*
X90621428Y-104745238D01*
X90669047Y-104745238D01*
X90740476Y-104769047D01*
X91026190Y-105054761D01*
X91026190Y-104745238D01*
X60926190Y-113180952D02*
X61330952Y-113180952D01*
X61378571Y-113157142D01*
X61402380Y-113133333D01*
X61426190Y-113085714D01*
X61426190Y-112990476D01*
X61402380Y-112942857D01*
X61378571Y-112919047D01*
X61330952Y-112895238D01*
X60926190Y-112895238D01*
X60926190Y-112704761D02*
X60926190Y-112371428D01*
X61426190Y-112585714D01*
D11*
X73316666Y-117804761D02*
X73459523Y-117852380D01*
X73697619Y-117852380D01*
X73792857Y-117804761D01*
X73840476Y-117757142D01*
X73888095Y-117661904D01*
X73888095Y-117566666D01*
X73840476Y-117471428D01*
X73792857Y-117423809D01*
X73697619Y-117376190D01*
X73507142Y-117328571D01*
X73411904Y-117280952D01*
X73364285Y-117233333D01*
X73316666Y-117138095D01*
X73316666Y-117042857D01*
X73364285Y-116947619D01*
X73411904Y-116900000D01*
X73507142Y-116852380D01*
X73745238Y-116852380D01*
X73888095Y-116900000D01*
X74221428Y-116852380D02*
X74459523Y-117852380D01*
X74650000Y-117138095D01*
X74840476Y-117852380D01*
X75078571Y-116852380D01*
X75983333Y-117852380D02*
X75411904Y-117852380D01*
X75697619Y-117852380D02*
X75697619Y-116852380D01*
X75602380Y-116995238D01*
X75507142Y-117090476D01*
X75411904Y-117138095D01*
D13*
X74727380Y-125293095D02*
X74608333Y-125293095D01*
X74608333Y-125043095D01*
X74584523Y-124793095D02*
X74584523Y-124543095D01*
X74727380Y-124793095D02*
X74620238Y-124650238D01*
X74727380Y-124543095D02*
X74584523Y-124685952D01*
X74685714Y-124043095D02*
X74685714Y-124221666D01*
X74673809Y-124257380D01*
X74650000Y-124281190D01*
X74614285Y-124293095D01*
X74590476Y-124293095D01*
X74650000Y-123793095D02*
X74650000Y-123543095D01*
X74578571Y-123293095D02*
X74578571Y-123043095D01*
X74578571Y-123162142D02*
X74721428Y-123162142D01*
X74721428Y-123293095D02*
X74721428Y-123043095D01*
X74715476Y-122555000D02*
X74691666Y-122543095D01*
X74655952Y-122543095D01*
X74620238Y-122555000D01*
X74596428Y-122578809D01*
X74584523Y-122602619D01*
X74572619Y-122650238D01*
X74572619Y-122685952D01*
X74584523Y-122733571D01*
X74596428Y-122757380D01*
X74620238Y-122781190D01*
X74655952Y-122793095D01*
X74679761Y-122793095D01*
X74715476Y-122781190D01*
X74727380Y-122769285D01*
X74727380Y-122685952D01*
X74679761Y-122685952D01*
X74685714Y-122162142D02*
X74602380Y-122162142D01*
X74602380Y-122293095D02*
X74602380Y-122043095D01*
X74721428Y-122043095D01*
X74596428Y-121662142D02*
X74679761Y-121662142D01*
X74715476Y-121793095D02*
X74596428Y-121793095D01*
X74596428Y-121543095D01*
X74715476Y-121543095D01*
X74584523Y-121293095D02*
X74584523Y-121043095D01*
X74644047Y-121043095D01*
X74679761Y-121055000D01*
X74703571Y-121078809D01*
X74715476Y-121102619D01*
X74727380Y-121150238D01*
X74727380Y-121185952D01*
X74715476Y-121233571D01*
X74703571Y-121257380D01*
X74679761Y-121281190D01*
X74644047Y-121293095D01*
X74584523Y-121293095D01*
X74667857Y-120462142D02*
X74703571Y-120474047D01*
X74715476Y-120485952D01*
X74727380Y-120509761D01*
X74727380Y-120545476D01*
X74715476Y-120569285D01*
X74703571Y-120581190D01*
X74679761Y-120593095D01*
X74584523Y-120593095D01*
X74584523Y-120343095D01*
X74667857Y-120343095D01*
X74691666Y-120355000D01*
X74703571Y-120366904D01*
X74715476Y-120390714D01*
X74715476Y-120414523D01*
X74703571Y-120438333D01*
X74691666Y-120450238D01*
X74667857Y-120462142D01*
X74584523Y-120462142D01*
X74590476Y-120021666D02*
X74709523Y-120021666D01*
X74566666Y-120093095D02*
X74650000Y-119843095D01*
X74733333Y-120093095D01*
D11*
X52316666Y-94952380D02*
X52316666Y-95666666D01*
X52269047Y-95809523D01*
X52173809Y-95904761D01*
X52030952Y-95952380D01*
X51935714Y-95952380D01*
X53316666Y-95952380D02*
X52745238Y-95952380D01*
X53030952Y-95952380D02*
X53030952Y-94952380D01*
X52935714Y-95095238D01*
X52840476Y-95190476D01*
X52745238Y-95238095D01*
X72166666Y-75952380D02*
X72166666Y-76666666D01*
X72119047Y-76809523D01*
X72023809Y-76904761D01*
X71880952Y-76952380D01*
X71785714Y-76952380D01*
X73119047Y-75952380D02*
X72642857Y-75952380D01*
X72595238Y-76428571D01*
X72642857Y-76380952D01*
X72738095Y-76333333D01*
X72976190Y-76333333D01*
X73071428Y-76380952D01*
X73119047Y-76428571D01*
X73166666Y-76523809D01*
X73166666Y-76761904D01*
X73119047Y-76857142D01*
X73071428Y-76904761D01*
X72976190Y-76952380D01*
X72738095Y-76952380D01*
X72642857Y-76904761D01*
X72595238Y-76857142D01*
X103666666Y-75902380D02*
X103666666Y-76616666D01*
X103619047Y-76759523D01*
X103523809Y-76854761D01*
X103380952Y-76902380D01*
X103285714Y-76902380D01*
X104095238Y-75997619D02*
X104142857Y-75950000D01*
X104238095Y-75902380D01*
X104476190Y-75902380D01*
X104571428Y-75950000D01*
X104619047Y-75997619D01*
X104666666Y-76092857D01*
X104666666Y-76188095D01*
X104619047Y-76330952D01*
X104047619Y-76902380D01*
X104666666Y-76902380D01*
X103666666Y-114002380D02*
X103666666Y-114716666D01*
X103619047Y-114859523D01*
X103523809Y-114954761D01*
X103380952Y-115002380D01*
X103285714Y-115002380D01*
X104047619Y-114002380D02*
X104666666Y-114002380D01*
X104333333Y-114383333D01*
X104476190Y-114383333D01*
X104571428Y-114430952D01*
X104619047Y-114478571D01*
X104666666Y-114573809D01*
X104666666Y-114811904D01*
X104619047Y-114907142D01*
X104571428Y-114954761D01*
X104476190Y-115002380D01*
X104190476Y-115002380D01*
X104095238Y-114954761D01*
X104047619Y-114907142D01*
D14*
X123042857Y-87442857D02*
X123023809Y-87461904D01*
X122966666Y-87480952D01*
X122928571Y-87480952D01*
X122871428Y-87461904D01*
X122833333Y-87423809D01*
X122814285Y-87385714D01*
X122795238Y-87309523D01*
X122795238Y-87252380D01*
X122814285Y-87176190D01*
X122833333Y-87138095D01*
X122871428Y-87100000D01*
X122928571Y-87080952D01*
X122966666Y-87080952D01*
X123023809Y-87100000D01*
X123042857Y-87119047D01*
X123271428Y-87252380D02*
X123233333Y-87233333D01*
X123214285Y-87214285D01*
X123195238Y-87176190D01*
X123195238Y-87157142D01*
X123214285Y-87119047D01*
X123233333Y-87100000D01*
X123271428Y-87080952D01*
X123347619Y-87080952D01*
X123385714Y-87100000D01*
X123404761Y-87119047D01*
X123423809Y-87157142D01*
X123423809Y-87176190D01*
X123404761Y-87214285D01*
X123385714Y-87233333D01*
X123347619Y-87252380D01*
X123271428Y-87252380D01*
X123233333Y-87271428D01*
X123214285Y-87290476D01*
X123195238Y-87328571D01*
X123195238Y-87404761D01*
X123214285Y-87442857D01*
X123233333Y-87461904D01*
X123271428Y-87480952D01*
X123347619Y-87480952D01*
X123385714Y-87461904D01*
X123404761Y-87442857D01*
X123423809Y-87404761D01*
X123423809Y-87328571D01*
X123404761Y-87290476D01*
X123385714Y-87271428D01*
X123347619Y-87252380D01*
X123557142Y-87080952D02*
X123804761Y-87080952D01*
X123671428Y-87233333D01*
X123728571Y-87233333D01*
X123766666Y-87252380D01*
X123785714Y-87271428D01*
X123804761Y-87309523D01*
X123804761Y-87404761D01*
X123785714Y-87442857D01*
X123766666Y-87461904D01*
X123728571Y-87480952D01*
X123614285Y-87480952D01*
X123576190Y-87461904D01*
X123557142Y-87442857D01*
D11*
X111911666Y-87052380D02*
X111911666Y-87766666D01*
X111864047Y-87909523D01*
X111768809Y-88004761D01*
X111625952Y-88052380D01*
X111530714Y-88052380D01*
X112435476Y-88052380D02*
X112625952Y-88052380D01*
X112721190Y-88004761D01*
X112768809Y-87957142D01*
X112864047Y-87814285D01*
X112911666Y-87623809D01*
X112911666Y-87242857D01*
X112864047Y-87147619D01*
X112816428Y-87100000D01*
X112721190Y-87052380D01*
X112530714Y-87052380D01*
X112435476Y-87100000D01*
X112387857Y-87147619D01*
X112340238Y-87242857D01*
X112340238Y-87480952D01*
X112387857Y-87576190D01*
X112435476Y-87623809D01*
X112530714Y-87671428D01*
X112721190Y-87671428D01*
X112816428Y-87623809D01*
X112864047Y-87576190D01*
X112911666Y-87480952D01*
X111911666Y-81952380D02*
X111911666Y-82666666D01*
X111864047Y-82809523D01*
X111768809Y-82904761D01*
X111625952Y-82952380D01*
X111530714Y-82952380D01*
X112530714Y-82380952D02*
X112435476Y-82333333D01*
X112387857Y-82285714D01*
X112340238Y-82190476D01*
X112340238Y-82142857D01*
X112387857Y-82047619D01*
X112435476Y-82000000D01*
X112530714Y-81952380D01*
X112721190Y-81952380D01*
X112816428Y-82000000D01*
X112864047Y-82047619D01*
X112911666Y-82142857D01*
X112911666Y-82190476D01*
X112864047Y-82285714D01*
X112816428Y-82333333D01*
X112721190Y-82380952D01*
X112530714Y-82380952D01*
X112435476Y-82428571D01*
X112387857Y-82476190D01*
X112340238Y-82571428D01*
X112340238Y-82761904D01*
X112387857Y-82857142D01*
X112435476Y-82904761D01*
X112530714Y-82952380D01*
X112721190Y-82952380D01*
X112816428Y-82904761D01*
X112864047Y-82857142D01*
X112911666Y-82761904D01*
X112911666Y-82571428D01*
X112864047Y-82476190D01*
X112816428Y-82428571D01*
X112721190Y-82380952D01*
X111921666Y-102872380D02*
X111921666Y-103586666D01*
X111874047Y-103729523D01*
X111778809Y-103824761D01*
X111635952Y-103872380D01*
X111540714Y-103872380D01*
X112302619Y-102872380D02*
X112969285Y-102872380D01*
X112540714Y-103872380D01*
X111921666Y-107952380D02*
X111921666Y-108666666D01*
X111874047Y-108809523D01*
X111778809Y-108904761D01*
X111635952Y-108952380D01*
X111540714Y-108952380D01*
X112826428Y-107952380D02*
X112635952Y-107952380D01*
X112540714Y-108000000D01*
X112493095Y-108047619D01*
X112397857Y-108190476D01*
X112350238Y-108380952D01*
X112350238Y-108761904D01*
X112397857Y-108857142D01*
X112445476Y-108904761D01*
X112540714Y-108952380D01*
X112731190Y-108952380D01*
X112826428Y-108904761D01*
X112874047Y-108857142D01*
X112921666Y-108761904D01*
X112921666Y-108523809D01*
X112874047Y-108428571D01*
X112826428Y-108380952D01*
X112731190Y-108333333D01*
X112540714Y-108333333D01*
X112445476Y-108380952D01*
X112397857Y-108428571D01*
X112350238Y-108523809D01*
D12*
X126726190Y-88307142D02*
X126226190Y-88307142D01*
X126226190Y-88188095D01*
X126250000Y-88116666D01*
X126297619Y-88069047D01*
X126345238Y-88045238D01*
X126440476Y-88021428D01*
X126511904Y-88021428D01*
X126607142Y-88045238D01*
X126654761Y-88069047D01*
X126702380Y-88116666D01*
X126726190Y-88188095D01*
X126726190Y-88307142D01*
X126726190Y-87545238D02*
X126726190Y-87830952D01*
X126726190Y-87688095D02*
X126226190Y-87688095D01*
X126297619Y-87735714D01*
X126345238Y-87783333D01*
X126369047Y-87830952D01*
X126726190Y-87307142D02*
X126726190Y-87211904D01*
X126702380Y-87164285D01*
X126678571Y-87140476D01*
X126607142Y-87092857D01*
X126511904Y-87069047D01*
X126321428Y-87069047D01*
X126273809Y-87092857D01*
X126250000Y-87116666D01*
X126226190Y-87164285D01*
X126226190Y-87259523D01*
X126250000Y-87307142D01*
X126273809Y-87330952D01*
X126321428Y-87354761D01*
X126440476Y-87354761D01*
X126488095Y-87330952D01*
X126511904Y-87307142D01*
X126535714Y-87259523D01*
X126535714Y-87164285D01*
X126511904Y-87116666D01*
X126488095Y-87092857D01*
X126440476Y-87069047D01*
D11*
X105752380Y-96785714D02*
X104752380Y-96785714D01*
X104752380Y-96547619D01*
X104800000Y-96404761D01*
X104895238Y-96309523D01*
X104990476Y-96261904D01*
X105180952Y-96214285D01*
X105323809Y-96214285D01*
X105514285Y-96261904D01*
X105609523Y-96309523D01*
X105704761Y-96404761D01*
X105752380Y-96547619D01*
X105752380Y-96785714D01*
X105752380Y-95785714D02*
X104752380Y-95785714D01*
X105752380Y-95214285D01*
X104752380Y-95214285D01*
X105752380Y-94738095D02*
X104752380Y-94738095D01*
X104752380Y-94357142D01*
X104800000Y-94261904D01*
X104847619Y-94214285D01*
X104942857Y-94166666D01*
X105085714Y-94166666D01*
X105180952Y-94214285D01*
X105228571Y-94261904D01*
X105276190Y-94357142D01*
X105276190Y-94738095D01*
D15*
X121678571Y-118478571D02*
X121578571Y-118478571D01*
X121578571Y-118635714D02*
X121578571Y-118335714D01*
X121721428Y-118335714D01*
X121835714Y-118635714D02*
X121835714Y-118335714D01*
X121978571Y-118635714D02*
X121978571Y-118335714D01*
X122050000Y-118335714D01*
X122092857Y-118350000D01*
X122121428Y-118378571D01*
X122135714Y-118407142D01*
X122150000Y-118464285D01*
X122150000Y-118507142D01*
X122135714Y-118564285D01*
X122121428Y-118592857D01*
X122092857Y-118621428D01*
X122050000Y-118635714D01*
X121978571Y-118635714D01*
X122250000Y-118335714D02*
X122435714Y-118335714D01*
X122335714Y-118450000D01*
X122378571Y-118450000D01*
X122407142Y-118464285D01*
X122421428Y-118478571D01*
X122435714Y-118507142D01*
X122435714Y-118578571D01*
X122421428Y-118607142D01*
X122407142Y-118621428D01*
X122378571Y-118635714D01*
X122292857Y-118635714D01*
X122264285Y-118621428D01*
X122250000Y-118607142D01*
X121678571Y-72478571D02*
X121578571Y-72478571D01*
X121578571Y-72635714D02*
X121578571Y-72335714D01*
X121721428Y-72335714D01*
X121835714Y-72635714D02*
X121835714Y-72335714D01*
X121978571Y-72635714D02*
X121978571Y-72335714D01*
X122050000Y-72335714D01*
X122092857Y-72350000D01*
X122121428Y-72378571D01*
X122135714Y-72407142D01*
X122150000Y-72464285D01*
X122150000Y-72507142D01*
X122135714Y-72564285D01*
X122121428Y-72592857D01*
X122092857Y-72621428D01*
X122050000Y-72635714D01*
X121978571Y-72635714D01*
X122264285Y-72364285D02*
X122278571Y-72350000D01*
X122307142Y-72335714D01*
X122378571Y-72335714D01*
X122407142Y-72350000D01*
X122421428Y-72364285D01*
X122435714Y-72392857D01*
X122435714Y-72421428D01*
X122421428Y-72464285D01*
X122250000Y-72635714D01*
X122435714Y-72635714D01*
X57678571Y-118478571D02*
X57578571Y-118478571D01*
X57578571Y-118635714D02*
X57578571Y-118335714D01*
X57721428Y-118335714D01*
X57835714Y-118635714D02*
X57835714Y-118335714D01*
X57978571Y-118635714D02*
X57978571Y-118335714D01*
X58050000Y-118335714D01*
X58092857Y-118350000D01*
X58121428Y-118378571D01*
X58135714Y-118407142D01*
X58150000Y-118464285D01*
X58150000Y-118507142D01*
X58135714Y-118564285D01*
X58121428Y-118592857D01*
X58092857Y-118621428D01*
X58050000Y-118635714D01*
X57978571Y-118635714D01*
X58435714Y-118635714D02*
X58264285Y-118635714D01*
X58350000Y-118635714D02*
X58350000Y-118335714D01*
X58321428Y-118378571D01*
X58292857Y-118407142D01*
X58264285Y-118421428D01*
D16*
X59113095Y-81160714D02*
X58994047Y-81244047D01*
X59113095Y-81303571D02*
X58863095Y-81303571D01*
X58863095Y-81208333D01*
X58875000Y-81184523D01*
X58886904Y-81172619D01*
X58910714Y-81160714D01*
X58946428Y-81160714D01*
X58970238Y-81172619D01*
X58982142Y-81184523D01*
X58994047Y-81208333D01*
X58994047Y-81303571D01*
X59113095Y-80922619D02*
X59113095Y-81065476D01*
X59113095Y-80994047D02*
X58863095Y-80994047D01*
X58898809Y-81017857D01*
X58922619Y-81041666D01*
X58934523Y-81065476D01*
X58886904Y-80827380D02*
X58875000Y-80815476D01*
X58863095Y-80791666D01*
X58863095Y-80732142D01*
X58875000Y-80708333D01*
X58886904Y-80696428D01*
X58910714Y-80684523D01*
X58934523Y-80684523D01*
X58970238Y-80696428D01*
X59113095Y-80839285D01*
X59113095Y-80684523D01*
X59113095Y-83160714D02*
X58994047Y-83244047D01*
X59113095Y-83303571D02*
X58863095Y-83303571D01*
X58863095Y-83208333D01*
X58875000Y-83184523D01*
X58886904Y-83172619D01*
X58910714Y-83160714D01*
X58946428Y-83160714D01*
X58970238Y-83172619D01*
X58982142Y-83184523D01*
X58994047Y-83208333D01*
X58994047Y-83303571D01*
X59113095Y-82922619D02*
X59113095Y-83065476D01*
X59113095Y-82994047D02*
X58863095Y-82994047D01*
X58898809Y-83017857D01*
X58922619Y-83041666D01*
X58934523Y-83065476D01*
X58863095Y-82839285D02*
X58863095Y-82684523D01*
X58958333Y-82767857D01*
X58958333Y-82732142D01*
X58970238Y-82708333D01*
X58982142Y-82696428D01*
X59005952Y-82684523D01*
X59065476Y-82684523D01*
X59089285Y-82696428D01*
X59101190Y-82708333D01*
X59113095Y-82732142D01*
X59113095Y-82803571D01*
X59101190Y-82827380D01*
X59089285Y-82839285D01*
X59113095Y-85160714D02*
X58994047Y-85244047D01*
X59113095Y-85303571D02*
X58863095Y-85303571D01*
X58863095Y-85208333D01*
X58875000Y-85184523D01*
X58886904Y-85172619D01*
X58910714Y-85160714D01*
X58946428Y-85160714D01*
X58970238Y-85172619D01*
X58982142Y-85184523D01*
X58994047Y-85208333D01*
X58994047Y-85303571D01*
X59113095Y-84922619D02*
X59113095Y-85065476D01*
X59113095Y-84994047D02*
X58863095Y-84994047D01*
X58898809Y-85017857D01*
X58922619Y-85041666D01*
X58934523Y-85065476D01*
X58946428Y-84708333D02*
X59113095Y-84708333D01*
X58851190Y-84767857D02*
X59029761Y-84827380D01*
X59029761Y-84672619D01*
X59113095Y-87160714D02*
X58994047Y-87244047D01*
X59113095Y-87303571D02*
X58863095Y-87303571D01*
X58863095Y-87208333D01*
X58875000Y-87184523D01*
X58886904Y-87172619D01*
X58910714Y-87160714D01*
X58946428Y-87160714D01*
X58970238Y-87172619D01*
X58982142Y-87184523D01*
X58994047Y-87208333D01*
X58994047Y-87303571D01*
X59113095Y-86922619D02*
X59113095Y-87065476D01*
X59113095Y-86994047D02*
X58863095Y-86994047D01*
X58898809Y-87017857D01*
X58922619Y-87041666D01*
X58934523Y-87065476D01*
X58863095Y-86696428D02*
X58863095Y-86815476D01*
X58982142Y-86827380D01*
X58970238Y-86815476D01*
X58958333Y-86791666D01*
X58958333Y-86732142D01*
X58970238Y-86708333D01*
X58982142Y-86696428D01*
X59005952Y-86684523D01*
X59065476Y-86684523D01*
X59089285Y-86696428D01*
X59101190Y-86708333D01*
X59113095Y-86732142D01*
X59113095Y-86791666D01*
X59101190Y-86815476D01*
X59089285Y-86827380D01*
X59113095Y-89160714D02*
X58994047Y-89244047D01*
X59113095Y-89303571D02*
X58863095Y-89303571D01*
X58863095Y-89208333D01*
X58875000Y-89184523D01*
X58886904Y-89172619D01*
X58910714Y-89160714D01*
X58946428Y-89160714D01*
X58970238Y-89172619D01*
X58982142Y-89184523D01*
X58994047Y-89208333D01*
X58994047Y-89303571D01*
X59113095Y-88922619D02*
X59113095Y-89065476D01*
X59113095Y-88994047D02*
X58863095Y-88994047D01*
X58898809Y-89017857D01*
X58922619Y-89041666D01*
X58934523Y-89065476D01*
X58863095Y-88708333D02*
X58863095Y-88755952D01*
X58875000Y-88779761D01*
X58886904Y-88791666D01*
X58922619Y-88815476D01*
X58970238Y-88827380D01*
X59065476Y-88827380D01*
X59089285Y-88815476D01*
X59101190Y-88803571D01*
X59113095Y-88779761D01*
X59113095Y-88732142D01*
X59101190Y-88708333D01*
X59089285Y-88696428D01*
X59065476Y-88684523D01*
X59005952Y-88684523D01*
X58982142Y-88696428D01*
X58970238Y-88708333D01*
X58958333Y-88732142D01*
X58958333Y-88779761D01*
X58970238Y-88803571D01*
X58982142Y-88815476D01*
X59005952Y-88827380D01*
D12*
X123026190Y-94219047D02*
X123430952Y-94219047D01*
X123478571Y-94195238D01*
X123502380Y-94171428D01*
X123526190Y-94123809D01*
X123526190Y-94028571D01*
X123502380Y-93980952D01*
X123478571Y-93957142D01*
X123430952Y-93933333D01*
X123026190Y-93933333D01*
X123073809Y-93719047D02*
X123050000Y-93695238D01*
X123026190Y-93647619D01*
X123026190Y-93528571D01*
X123050000Y-93480952D01*
X123073809Y-93457142D01*
X123121428Y-93433333D01*
X123169047Y-93433333D01*
X123240476Y-93457142D01*
X123526190Y-93742857D01*
X123526190Y-93433333D01*
X123026190Y-93123809D02*
X123026190Y-93076190D01*
X123050000Y-93028571D01*
X123073809Y-93004761D01*
X123121428Y-92980952D01*
X123216666Y-92957142D01*
X123335714Y-92957142D01*
X123430952Y-92980952D01*
X123478571Y-93004761D01*
X123502380Y-93028571D01*
X123526190Y-93076190D01*
X123526190Y-93123809D01*
X123502380Y-93171428D01*
X123478571Y-93195238D01*
X123430952Y-93219047D01*
X123335714Y-93242857D01*
X123216666Y-93242857D01*
X123121428Y-93219047D01*
X123073809Y-93195238D01*
X123050000Y-93171428D01*
X123026190Y-93123809D01*
D11*
X82496666Y-105439380D02*
X82496666Y-106153666D01*
X82449047Y-106296523D01*
X82353809Y-106391761D01*
X82210952Y-106439380D01*
X82115714Y-106439380D01*
X83401428Y-105772714D02*
X83401428Y-106439380D01*
X83163333Y-105391761D02*
X82925238Y-106106047D01*
X83544285Y-106106047D01*
D14*
X56704761Y-81180952D02*
X56704761Y-80780952D01*
X56800000Y-80780952D01*
X56857142Y-80800000D01*
X56895238Y-80838095D01*
X56914285Y-80876190D01*
X56933333Y-80952380D01*
X56933333Y-81009523D01*
X56914285Y-81085714D01*
X56895238Y-81123809D01*
X56857142Y-81161904D01*
X56800000Y-81180952D01*
X56704761Y-81180952D01*
X57314285Y-81180952D02*
X57085714Y-81180952D01*
X57200000Y-81180952D02*
X57200000Y-80780952D01*
X57161904Y-80838095D01*
X57123809Y-80876190D01*
X57085714Y-80895238D01*
X56704761Y-83180952D02*
X56704761Y-82780952D01*
X56800000Y-82780952D01*
X56857142Y-82800000D01*
X56895238Y-82838095D01*
X56914285Y-82876190D01*
X56933333Y-82952380D01*
X56933333Y-83009523D01*
X56914285Y-83085714D01*
X56895238Y-83123809D01*
X56857142Y-83161904D01*
X56800000Y-83180952D01*
X56704761Y-83180952D01*
X57085714Y-82819047D02*
X57104761Y-82800000D01*
X57142857Y-82780952D01*
X57238095Y-82780952D01*
X57276190Y-82800000D01*
X57295238Y-82819047D01*
X57314285Y-82857142D01*
X57314285Y-82895238D01*
X57295238Y-82952380D01*
X57066666Y-83180952D01*
X57314285Y-83180952D01*
X56704761Y-87180952D02*
X56704761Y-86780952D01*
X56800000Y-86780952D01*
X56857142Y-86800000D01*
X56895238Y-86838095D01*
X56914285Y-86876190D01*
X56933333Y-86952380D01*
X56933333Y-87009523D01*
X56914285Y-87085714D01*
X56895238Y-87123809D01*
X56857142Y-87161904D01*
X56800000Y-87180952D01*
X56704761Y-87180952D01*
X57276190Y-86914285D02*
X57276190Y-87180952D01*
X57180952Y-86761904D02*
X57085714Y-87047619D01*
X57333333Y-87047619D01*
X56704761Y-89180952D02*
X56704761Y-88780952D01*
X56800000Y-88780952D01*
X56857142Y-88800000D01*
X56895238Y-88838095D01*
X56914285Y-88876190D01*
X56933333Y-88952380D01*
X56933333Y-89009523D01*
X56914285Y-89085714D01*
X56895238Y-89123809D01*
X56857142Y-89161904D01*
X56800000Y-89180952D01*
X56704761Y-89180952D01*
X57295238Y-88780952D02*
X57104761Y-88780952D01*
X57085714Y-88971428D01*
X57104761Y-88952380D01*
X57142857Y-88933333D01*
X57238095Y-88933333D01*
X57276190Y-88952380D01*
X57295238Y-88971428D01*
X57314285Y-89009523D01*
X57314285Y-89104761D01*
X57295238Y-89142857D01*
X57276190Y-89161904D01*
X57238095Y-89180952D01*
X57142857Y-89180952D01*
X57104761Y-89161904D01*
X57085714Y-89142857D01*
X56704761Y-102180952D02*
X56704761Y-101780952D01*
X56800000Y-101780952D01*
X56857142Y-101800000D01*
X56895238Y-101838095D01*
X56914285Y-101876190D01*
X56933333Y-101952380D01*
X56933333Y-102009523D01*
X56914285Y-102085714D01*
X56895238Y-102123809D01*
X56857142Y-102161904D01*
X56800000Y-102180952D01*
X56704761Y-102180952D01*
X57276190Y-101780952D02*
X57200000Y-101780952D01*
X57161904Y-101800000D01*
X57142857Y-101819047D01*
X57104761Y-101876190D01*
X57085714Y-101952380D01*
X57085714Y-102104761D01*
X57104761Y-102142857D01*
X57123809Y-102161904D01*
X57161904Y-102180952D01*
X57238095Y-102180952D01*
X57276190Y-102161904D01*
X57295238Y-102142857D01*
X57314285Y-102104761D01*
X57314285Y-102009523D01*
X57295238Y-101971428D01*
X57276190Y-101952380D01*
X57238095Y-101933333D01*
X57161904Y-101933333D01*
X57123809Y-101952380D01*
X57104761Y-101971428D01*
X57085714Y-102009523D01*
X56704761Y-104180952D02*
X56704761Y-103780952D01*
X56800000Y-103780952D01*
X56857142Y-103800000D01*
X56895238Y-103838095D01*
X56914285Y-103876190D01*
X56933333Y-103952380D01*
X56933333Y-104009523D01*
X56914285Y-104085714D01*
X56895238Y-104123809D01*
X56857142Y-104161904D01*
X56800000Y-104180952D01*
X56704761Y-104180952D01*
X57066666Y-103780952D02*
X57333333Y-103780952D01*
X57161904Y-104180952D01*
X56704761Y-106180952D02*
X56704761Y-105780952D01*
X56800000Y-105780952D01*
X56857142Y-105800000D01*
X56895238Y-105838095D01*
X56914285Y-105876190D01*
X56933333Y-105952380D01*
X56933333Y-106009523D01*
X56914285Y-106085714D01*
X56895238Y-106123809D01*
X56857142Y-106161904D01*
X56800000Y-106180952D01*
X56704761Y-106180952D01*
X57161904Y-105952380D02*
X57123809Y-105933333D01*
X57104761Y-105914285D01*
X57085714Y-105876190D01*
X57085714Y-105857142D01*
X57104761Y-105819047D01*
X57123809Y-105800000D01*
X57161904Y-105780952D01*
X57238095Y-105780952D01*
X57276190Y-105800000D01*
X57295238Y-105819047D01*
X57314285Y-105857142D01*
X57314285Y-105876190D01*
X57295238Y-105914285D01*
X57276190Y-105933333D01*
X57238095Y-105952380D01*
X57161904Y-105952380D01*
X57123809Y-105971428D01*
X57104761Y-105990476D01*
X57085714Y-106028571D01*
X57085714Y-106104761D01*
X57104761Y-106142857D01*
X57123809Y-106161904D01*
X57161904Y-106180952D01*
X57238095Y-106180952D01*
X57276190Y-106161904D01*
X57295238Y-106142857D01*
X57314285Y-106104761D01*
X57314285Y-106028571D01*
X57295238Y-105990476D01*
X57276190Y-105971428D01*
X57238095Y-105952380D01*
X122114285Y-110680952D02*
X122114285Y-110280952D01*
X122209523Y-110280952D01*
X122266666Y-110300000D01*
X122304761Y-110338095D01*
X122323809Y-110376190D01*
X122342857Y-110452380D01*
X122342857Y-110509523D01*
X122323809Y-110585714D01*
X122304761Y-110623809D01*
X122266666Y-110661904D01*
X122209523Y-110680952D01*
X122114285Y-110680952D01*
X122723809Y-110680952D02*
X122495238Y-110680952D01*
X122609523Y-110680952D02*
X122609523Y-110280952D01*
X122571428Y-110338095D01*
X122533333Y-110376190D01*
X122495238Y-110395238D01*
X123066666Y-110414285D02*
X123066666Y-110680952D01*
X122971428Y-110261904D02*
X122876190Y-110547619D01*
X123123809Y-110547619D01*
X122114285Y-80680952D02*
X122114285Y-80280952D01*
X122209523Y-80280952D01*
X122266666Y-80300000D01*
X122304761Y-80338095D01*
X122323809Y-80376190D01*
X122342857Y-80452380D01*
X122342857Y-80509523D01*
X122323809Y-80585714D01*
X122304761Y-80623809D01*
X122266666Y-80661904D01*
X122209523Y-80680952D01*
X122114285Y-80680952D01*
X122723809Y-80680952D02*
X122495238Y-80680952D01*
X122609523Y-80680952D02*
X122609523Y-80280952D01*
X122571428Y-80338095D01*
X122533333Y-80376190D01*
X122495238Y-80395238D01*
X123085714Y-80280952D02*
X122895238Y-80280952D01*
X122876190Y-80471428D01*
X122895238Y-80452380D01*
X122933333Y-80433333D01*
X123028571Y-80433333D01*
X123066666Y-80452380D01*
X123085714Y-80471428D01*
X123104761Y-80509523D01*
X123104761Y-80604761D01*
X123085714Y-80642857D01*
X123066666Y-80661904D01*
X123028571Y-80680952D01*
X122933333Y-80680952D01*
X122895238Y-80661904D01*
X122876190Y-80642857D01*
X56704761Y-85180952D02*
X56704761Y-84780952D01*
X56800000Y-84780952D01*
X56857142Y-84800000D01*
X56895238Y-84838095D01*
X56914285Y-84876190D01*
X56933333Y-84952380D01*
X56933333Y-85009523D01*
X56914285Y-85085714D01*
X56895238Y-85123809D01*
X56857142Y-85161904D01*
X56800000Y-85180952D01*
X56704761Y-85180952D01*
X57066666Y-84780952D02*
X57314285Y-84780952D01*
X57180952Y-84933333D01*
X57238095Y-84933333D01*
X57276190Y-84952380D01*
X57295238Y-84971428D01*
X57314285Y-85009523D01*
X57314285Y-85104761D01*
X57295238Y-85142857D01*
X57276190Y-85161904D01*
X57238095Y-85180952D01*
X57123809Y-85180952D01*
X57085714Y-85161904D01*
X57066666Y-85142857D01*
X56514285Y-110180952D02*
X56514285Y-109780952D01*
X56609523Y-109780952D01*
X56666666Y-109800000D01*
X56704761Y-109838095D01*
X56723809Y-109876190D01*
X56742857Y-109952380D01*
X56742857Y-110009523D01*
X56723809Y-110085714D01*
X56704761Y-110123809D01*
X56666666Y-110161904D01*
X56609523Y-110180952D01*
X56514285Y-110180952D01*
X57123809Y-110180952D02*
X56895238Y-110180952D01*
X57009523Y-110180952D02*
X57009523Y-109780952D01*
X56971428Y-109838095D01*
X56933333Y-109876190D01*
X56895238Y-109895238D01*
X57371428Y-109780952D02*
X57409523Y-109780952D01*
X57447619Y-109800000D01*
X57466666Y-109819047D01*
X57485714Y-109857142D01*
X57504761Y-109933333D01*
X57504761Y-110028571D01*
X57485714Y-110104761D01*
X57466666Y-110142857D01*
X57447619Y-110161904D01*
X57409523Y-110180952D01*
X57371428Y-110180952D01*
X57333333Y-110161904D01*
X57314285Y-110142857D01*
X57295238Y-110104761D01*
X57276190Y-110028571D01*
X57276190Y-109933333D01*
X57295238Y-109857142D01*
X57314285Y-109819047D01*
X57333333Y-109800000D01*
X57371428Y-109780952D01*
X56704761Y-108180952D02*
X56704761Y-107780952D01*
X56800000Y-107780952D01*
X56857142Y-107800000D01*
X56895238Y-107838095D01*
X56914285Y-107876190D01*
X56933333Y-107952380D01*
X56933333Y-108009523D01*
X56914285Y-108085714D01*
X56895238Y-108123809D01*
X56857142Y-108161904D01*
X56800000Y-108180952D01*
X56704761Y-108180952D01*
X57123809Y-108180952D02*
X57200000Y-108180952D01*
X57238095Y-108161904D01*
X57257142Y-108142857D01*
X57295238Y-108085714D01*
X57314285Y-108009523D01*
X57314285Y-107857142D01*
X57295238Y-107819047D01*
X57276190Y-107800000D01*
X57238095Y-107780952D01*
X57161904Y-107780952D01*
X57123809Y-107800000D01*
X57104761Y-107819047D01*
X57085714Y-107857142D01*
X57085714Y-107952380D01*
X57104761Y-107990476D01*
X57123809Y-108009523D01*
X57161904Y-108028571D01*
X57238095Y-108028571D01*
X57276190Y-108009523D01*
X57295238Y-107990476D01*
X57314285Y-107952380D01*
D16*
X70713095Y-113960714D02*
X70594047Y-114044047D01*
X70713095Y-114103571D02*
X70463095Y-114103571D01*
X70463095Y-114008333D01*
X70475000Y-113984523D01*
X70486904Y-113972619D01*
X70510714Y-113960714D01*
X70546428Y-113960714D01*
X70570238Y-113972619D01*
X70582142Y-113984523D01*
X70594047Y-114008333D01*
X70594047Y-114103571D01*
X70546428Y-113746428D02*
X70713095Y-113746428D01*
X70451190Y-113805952D02*
X70629761Y-113865476D01*
X70629761Y-113710714D01*
X70463095Y-113567857D02*
X70463095Y-113544047D01*
X70475000Y-113520238D01*
X70486904Y-113508333D01*
X70510714Y-113496428D01*
X70558333Y-113484523D01*
X70617857Y-113484523D01*
X70665476Y-113496428D01*
X70689285Y-113508333D01*
X70701190Y-113520238D01*
X70713095Y-113544047D01*
X70713095Y-113567857D01*
X70701190Y-113591666D01*
X70689285Y-113603571D01*
X70665476Y-113615476D01*
X70617857Y-113627380D01*
X70558333Y-113627380D01*
X70510714Y-113615476D01*
X70486904Y-113603571D01*
X70475000Y-113591666D01*
X70463095Y-113567857D01*
X119689285Y-85460714D02*
X119701190Y-85472619D01*
X119713095Y-85508333D01*
X119713095Y-85532142D01*
X119701190Y-85567857D01*
X119677380Y-85591666D01*
X119653571Y-85603571D01*
X119605952Y-85615476D01*
X119570238Y-85615476D01*
X119522619Y-85603571D01*
X119498809Y-85591666D01*
X119475000Y-85567857D01*
X119463095Y-85532142D01*
X119463095Y-85508333D01*
X119475000Y-85472619D01*
X119486904Y-85460714D01*
X119713095Y-85341666D02*
X119713095Y-85294047D01*
X119701190Y-85270238D01*
X119689285Y-85258333D01*
X119653571Y-85234523D01*
X119605952Y-85222619D01*
X119510714Y-85222619D01*
X119486904Y-85234523D01*
X119475000Y-85246428D01*
X119463095Y-85270238D01*
X119463095Y-85317857D01*
X119475000Y-85341666D01*
X119486904Y-85353571D01*
X119510714Y-85365476D01*
X119570238Y-85365476D01*
X119594047Y-85353571D01*
X119605952Y-85341666D01*
X119617857Y-85317857D01*
X119617857Y-85270238D01*
X119605952Y-85246428D01*
X119594047Y-85234523D01*
X119570238Y-85222619D01*
X119713095Y-84984523D02*
X119713095Y-85127380D01*
X119713095Y-85055952D02*
X119463095Y-85055952D01*
X119498809Y-85079761D01*
X119522619Y-85103571D01*
X119534523Y-85127380D01*
X127089285Y-105860714D02*
X127101190Y-105872619D01*
X127113095Y-105908333D01*
X127113095Y-105932142D01*
X127101190Y-105967857D01*
X127077380Y-105991666D01*
X127053571Y-106003571D01*
X127005952Y-106015476D01*
X126970238Y-106015476D01*
X126922619Y-106003571D01*
X126898809Y-105991666D01*
X126875000Y-105967857D01*
X126863095Y-105932142D01*
X126863095Y-105908333D01*
X126875000Y-105872619D01*
X126886904Y-105860714D01*
X127113095Y-105741666D02*
X127113095Y-105694047D01*
X127101190Y-105670238D01*
X127089285Y-105658333D01*
X127053571Y-105634523D01*
X127005952Y-105622619D01*
X126910714Y-105622619D01*
X126886904Y-105634523D01*
X126875000Y-105646428D01*
X126863095Y-105670238D01*
X126863095Y-105717857D01*
X126875000Y-105741666D01*
X126886904Y-105753571D01*
X126910714Y-105765476D01*
X126970238Y-105765476D01*
X126994047Y-105753571D01*
X127005952Y-105741666D01*
X127017857Y-105717857D01*
X127017857Y-105670238D01*
X127005952Y-105646428D01*
X126994047Y-105634523D01*
X126970238Y-105622619D01*
X126863095Y-105467857D02*
X126863095Y-105444047D01*
X126875000Y-105420238D01*
X126886904Y-105408333D01*
X126910714Y-105396428D01*
X126958333Y-105384523D01*
X127017857Y-105384523D01*
X127065476Y-105396428D01*
X127089285Y-105408333D01*
X127101190Y-105420238D01*
X127113095Y-105444047D01*
X127113095Y-105467857D01*
X127101190Y-105491666D01*
X127089285Y-105503571D01*
X127065476Y-105515476D01*
X127017857Y-105527380D01*
X126958333Y-105527380D01*
X126910714Y-105515476D01*
X126886904Y-105503571D01*
X126875000Y-105491666D01*
X126863095Y-105467857D01*
D17*
X122371428Y-106189285D02*
X122371428Y-106796428D01*
X122407142Y-106867857D01*
X122442857Y-106903571D01*
X122514285Y-106939285D01*
X122657142Y-106939285D01*
X122728571Y-106903571D01*
X122764285Y-106867857D01*
X122800000Y-106796428D01*
X122800000Y-106189285D01*
X123550000Y-106939285D02*
X123121428Y-106939285D01*
X123335714Y-106939285D02*
X123335714Y-106189285D01*
X123264285Y-106296428D01*
X123192857Y-106367857D01*
X123121428Y-106403571D01*
X123835714Y-106260714D02*
X123871428Y-106225000D01*
X123942857Y-106189285D01*
X124121428Y-106189285D01*
X124192857Y-106225000D01*
X124228571Y-106260714D01*
X124264285Y-106332142D01*
X124264285Y-106403571D01*
X124228571Y-106510714D01*
X123800000Y-106939285D01*
X124264285Y-106939285D01*
D16*
X91839285Y-97813095D02*
X91755952Y-97694047D01*
X91696428Y-97813095D02*
X91696428Y-97563095D01*
X91791666Y-97563095D01*
X91815476Y-97575000D01*
X91827380Y-97586904D01*
X91839285Y-97610714D01*
X91839285Y-97646428D01*
X91827380Y-97670238D01*
X91815476Y-97682142D01*
X91791666Y-97694047D01*
X91696428Y-97694047D01*
X92077380Y-97813095D02*
X91934523Y-97813095D01*
X92005952Y-97813095D02*
X92005952Y-97563095D01*
X91982142Y-97598809D01*
X91958333Y-97622619D01*
X91934523Y-97634523D01*
X92232142Y-97563095D02*
X92255952Y-97563095D01*
X92279761Y-97575000D01*
X92291666Y-97586904D01*
X92303571Y-97610714D01*
X92315476Y-97658333D01*
X92315476Y-97717857D01*
X92303571Y-97765476D01*
X92291666Y-97789285D01*
X92279761Y-97801190D01*
X92255952Y-97813095D01*
X92232142Y-97813095D01*
X92208333Y-97801190D01*
X92196428Y-97789285D01*
X92184523Y-97765476D01*
X92172619Y-97717857D01*
X92172619Y-97658333D01*
X92184523Y-97610714D01*
X92196428Y-97586904D01*
X92208333Y-97575000D01*
X92232142Y-97563095D01*
D12*
X100342857Y-82576190D02*
X100342857Y-82076190D01*
X100461904Y-82076190D01*
X100533333Y-82100000D01*
X100580952Y-82147619D01*
X100604761Y-82195238D01*
X100628571Y-82290476D01*
X100628571Y-82361904D01*
X100604761Y-82457142D01*
X100580952Y-82504761D01*
X100533333Y-82552380D01*
X100461904Y-82576190D01*
X100342857Y-82576190D01*
X100819047Y-82123809D02*
X100842857Y-82100000D01*
X100890476Y-82076190D01*
X101009523Y-82076190D01*
X101057142Y-82100000D01*
X101080952Y-82123809D01*
X101104761Y-82171428D01*
X101104761Y-82219047D01*
X101080952Y-82290476D01*
X100795238Y-82576190D01*
X101104761Y-82576190D01*
X101295238Y-82123809D02*
X101319047Y-82100000D01*
X101366666Y-82076190D01*
X101485714Y-82076190D01*
X101533333Y-82100000D01*
X101557142Y-82123809D01*
X101580952Y-82171428D01*
X101580952Y-82219047D01*
X101557142Y-82290476D01*
X101271428Y-82576190D01*
X101580952Y-82576190D01*
X104342857Y-82576190D02*
X104342857Y-82076190D01*
X104461904Y-82076190D01*
X104533333Y-82100000D01*
X104580952Y-82147619D01*
X104604761Y-82195238D01*
X104628571Y-82290476D01*
X104628571Y-82361904D01*
X104604761Y-82457142D01*
X104580952Y-82504761D01*
X104533333Y-82552380D01*
X104461904Y-82576190D01*
X104342857Y-82576190D01*
X104819047Y-82123809D02*
X104842857Y-82100000D01*
X104890476Y-82076190D01*
X105009523Y-82076190D01*
X105057142Y-82100000D01*
X105080952Y-82123809D01*
X105104761Y-82171428D01*
X105104761Y-82219047D01*
X105080952Y-82290476D01*
X104795238Y-82576190D01*
X105104761Y-82576190D01*
X105271428Y-82076190D02*
X105580952Y-82076190D01*
X105414285Y-82266666D01*
X105485714Y-82266666D01*
X105533333Y-82290476D01*
X105557142Y-82314285D01*
X105580952Y-82361904D01*
X105580952Y-82480952D01*
X105557142Y-82528571D01*
X105533333Y-82552380D01*
X105485714Y-82576190D01*
X105342857Y-82576190D01*
X105295238Y-82552380D01*
X105271428Y-82528571D01*
X100342857Y-108876190D02*
X100342857Y-108376190D01*
X100461904Y-108376190D01*
X100533333Y-108400000D01*
X100580952Y-108447619D01*
X100604761Y-108495238D01*
X100628571Y-108590476D01*
X100628571Y-108661904D01*
X100604761Y-108757142D01*
X100580952Y-108804761D01*
X100533333Y-108852380D01*
X100461904Y-108876190D01*
X100342857Y-108876190D01*
X100819047Y-108423809D02*
X100842857Y-108400000D01*
X100890476Y-108376190D01*
X101009523Y-108376190D01*
X101057142Y-108400000D01*
X101080952Y-108423809D01*
X101104761Y-108471428D01*
X101104761Y-108519047D01*
X101080952Y-108590476D01*
X100795238Y-108876190D01*
X101104761Y-108876190D01*
X101580952Y-108876190D02*
X101295238Y-108876190D01*
X101438095Y-108876190D02*
X101438095Y-108376190D01*
X101390476Y-108447619D01*
X101342857Y-108495238D01*
X101295238Y-108519047D01*
X104342857Y-108876190D02*
X104342857Y-108376190D01*
X104461904Y-108376190D01*
X104533333Y-108400000D01*
X104580952Y-108447619D01*
X104604761Y-108495238D01*
X104628571Y-108590476D01*
X104628571Y-108661904D01*
X104604761Y-108757142D01*
X104580952Y-108804761D01*
X104533333Y-108852380D01*
X104461904Y-108876190D01*
X104342857Y-108876190D01*
X104819047Y-108423809D02*
X104842857Y-108400000D01*
X104890476Y-108376190D01*
X105009523Y-108376190D01*
X105057142Y-108400000D01*
X105080952Y-108423809D01*
X105104761Y-108471428D01*
X105104761Y-108519047D01*
X105080952Y-108590476D01*
X104795238Y-108876190D01*
X105104761Y-108876190D01*
X105414285Y-108376190D02*
X105461904Y-108376190D01*
X105509523Y-108400000D01*
X105533333Y-108423809D01*
X105557142Y-108471428D01*
X105580952Y-108566666D01*
X105580952Y-108685714D01*
X105557142Y-108780952D01*
X105533333Y-108828571D01*
X105509523Y-108852380D01*
X105461904Y-108876190D01*
X105414285Y-108876190D01*
X105366666Y-108852380D01*
X105342857Y-108828571D01*
X105319047Y-108780952D01*
X105295238Y-108685714D01*
X105295238Y-108566666D01*
X105319047Y-108471428D01*
X105342857Y-108423809D01*
X105366666Y-108400000D01*
X105414285Y-108376190D01*
D14*
X65642857Y-112042857D02*
X65623809Y-112061904D01*
X65566666Y-112080952D01*
X65528571Y-112080952D01*
X65471428Y-112061904D01*
X65433333Y-112023809D01*
X65414285Y-111985714D01*
X65395238Y-111909523D01*
X65395238Y-111852380D01*
X65414285Y-111776190D01*
X65433333Y-111738095D01*
X65471428Y-111700000D01*
X65528571Y-111680952D01*
X65566666Y-111680952D01*
X65623809Y-111700000D01*
X65642857Y-111719047D01*
X65871428Y-111852380D02*
X65833333Y-111833333D01*
X65814285Y-111814285D01*
X65795238Y-111776190D01*
X65795238Y-111757142D01*
X65814285Y-111719047D01*
X65833333Y-111700000D01*
X65871428Y-111680952D01*
X65947619Y-111680952D01*
X65985714Y-111700000D01*
X66004761Y-111719047D01*
X66023809Y-111757142D01*
X66023809Y-111776190D01*
X66004761Y-111814285D01*
X65985714Y-111833333D01*
X65947619Y-111852380D01*
X65871428Y-111852380D01*
X65833333Y-111871428D01*
X65814285Y-111890476D01*
X65795238Y-111928571D01*
X65795238Y-112004761D01*
X65814285Y-112042857D01*
X65833333Y-112061904D01*
X65871428Y-112080952D01*
X65947619Y-112080952D01*
X65985714Y-112061904D01*
X66004761Y-112042857D01*
X66023809Y-112004761D01*
X66023809Y-111928571D01*
X66004761Y-111890476D01*
X65985714Y-111871428D01*
X65947619Y-111852380D01*
X66366666Y-111680952D02*
X66290476Y-111680952D01*
X66252380Y-111700000D01*
X66233333Y-111719047D01*
X66195238Y-111776190D01*
X66176190Y-111852380D01*
X66176190Y-112004761D01*
X66195238Y-112042857D01*
X66214285Y-112061904D01*
X66252380Y-112080952D01*
X66328571Y-112080952D01*
X66366666Y-112061904D01*
X66385714Y-112042857D01*
X66404761Y-112004761D01*
X66404761Y-111909523D01*
X66385714Y-111871428D01*
X66366666Y-111852380D01*
X66328571Y-111833333D01*
X66252380Y-111833333D01*
X66214285Y-111852380D01*
X66195238Y-111871428D01*
X66176190Y-111909523D01*
X127042857Y-90557142D02*
X127061904Y-90576190D01*
X127080952Y-90633333D01*
X127080952Y-90671428D01*
X127061904Y-90728571D01*
X127023809Y-90766666D01*
X126985714Y-90785714D01*
X126909523Y-90804761D01*
X126852380Y-90804761D01*
X126776190Y-90785714D01*
X126738095Y-90766666D01*
X126700000Y-90728571D01*
X126680952Y-90671428D01*
X126680952Y-90633333D01*
X126700000Y-90576190D01*
X126719047Y-90557142D01*
X126852380Y-90328571D02*
X126833333Y-90366666D01*
X126814285Y-90385714D01*
X126776190Y-90404761D01*
X126757142Y-90404761D01*
X126719047Y-90385714D01*
X126700000Y-90366666D01*
X126680952Y-90328571D01*
X126680952Y-90252380D01*
X126700000Y-90214285D01*
X126719047Y-90195238D01*
X126757142Y-90176190D01*
X126776190Y-90176190D01*
X126814285Y-90195238D01*
X126833333Y-90214285D01*
X126852380Y-90252380D01*
X126852380Y-90328571D01*
X126871428Y-90366666D01*
X126890476Y-90385714D01*
X126928571Y-90404761D01*
X127004761Y-90404761D01*
X127042857Y-90385714D01*
X127061904Y-90366666D01*
X127080952Y-90328571D01*
X127080952Y-90252380D01*
X127061904Y-90214285D01*
X127042857Y-90195238D01*
X127004761Y-90176190D01*
X126928571Y-90176190D01*
X126890476Y-90195238D01*
X126871428Y-90214285D01*
X126852380Y-90252380D01*
X126719047Y-90023809D02*
X126700000Y-90004761D01*
X126680952Y-89966666D01*
X126680952Y-89871428D01*
X126700000Y-89833333D01*
X126719047Y-89814285D01*
X126757142Y-89795238D01*
X126795238Y-89795238D01*
X126852380Y-89814285D01*
X127080952Y-90042857D01*
X127080952Y-89795238D01*
X123042857Y-103842857D02*
X123023809Y-103861904D01*
X122966666Y-103880952D01*
X122928571Y-103880952D01*
X122871428Y-103861904D01*
X122833333Y-103823809D01*
X122814285Y-103785714D01*
X122795238Y-103709523D01*
X122795238Y-103652380D01*
X122814285Y-103576190D01*
X122833333Y-103538095D01*
X122871428Y-103500000D01*
X122928571Y-103480952D01*
X122966666Y-103480952D01*
X123023809Y-103500000D01*
X123042857Y-103519047D01*
X123404761Y-103480952D02*
X123214285Y-103480952D01*
X123195238Y-103671428D01*
X123214285Y-103652380D01*
X123252380Y-103633333D01*
X123347619Y-103633333D01*
X123385714Y-103652380D01*
X123404761Y-103671428D01*
X123423809Y-103709523D01*
X123423809Y-103804761D01*
X123404761Y-103842857D01*
X123385714Y-103861904D01*
X123347619Y-103880952D01*
X123252380Y-103880952D01*
X123214285Y-103861904D01*
X123195238Y-103842857D01*
X123557142Y-103480952D02*
X123804761Y-103480952D01*
X123671428Y-103633333D01*
X123728571Y-103633333D01*
X123766666Y-103652380D01*
X123785714Y-103671428D01*
X123804761Y-103709523D01*
X123804761Y-103804761D01*
X123785714Y-103842857D01*
X123766666Y-103861904D01*
X123728571Y-103880952D01*
X123614285Y-103880952D01*
X123576190Y-103861904D01*
X123557142Y-103842857D01*
X119842857Y-100957142D02*
X119861904Y-100976190D01*
X119880952Y-101033333D01*
X119880952Y-101071428D01*
X119861904Y-101128571D01*
X119823809Y-101166666D01*
X119785714Y-101185714D01*
X119709523Y-101204761D01*
X119652380Y-101204761D01*
X119576190Y-101185714D01*
X119538095Y-101166666D01*
X119500000Y-101128571D01*
X119480952Y-101071428D01*
X119480952Y-101033333D01*
X119500000Y-100976190D01*
X119519047Y-100957142D01*
X119480952Y-100823809D02*
X119480952Y-100576190D01*
X119633333Y-100709523D01*
X119633333Y-100652380D01*
X119652380Y-100614285D01*
X119671428Y-100595238D01*
X119709523Y-100576190D01*
X119804761Y-100576190D01*
X119842857Y-100595238D01*
X119861904Y-100614285D01*
X119880952Y-100652380D01*
X119880952Y-100766666D01*
X119861904Y-100804761D01*
X119842857Y-100823809D01*
X119880952Y-100195238D02*
X119880952Y-100423809D01*
X119880952Y-100309523D02*
X119480952Y-100309523D01*
X119538095Y-100347619D01*
X119576190Y-100385714D01*
X119595238Y-100423809D01*
X68642857Y-115657142D02*
X68661904Y-115676190D01*
X68680952Y-115733333D01*
X68680952Y-115771428D01*
X68661904Y-115828571D01*
X68623809Y-115866666D01*
X68585714Y-115885714D01*
X68509523Y-115904761D01*
X68452380Y-115904761D01*
X68376190Y-115885714D01*
X68338095Y-115866666D01*
X68300000Y-115828571D01*
X68280952Y-115771428D01*
X68280952Y-115733333D01*
X68300000Y-115676190D01*
X68319047Y-115657142D01*
X68319047Y-115504761D02*
X68300000Y-115485714D01*
X68280952Y-115447619D01*
X68280952Y-115352380D01*
X68300000Y-115314285D01*
X68319047Y-115295238D01*
X68357142Y-115276190D01*
X68395238Y-115276190D01*
X68452380Y-115295238D01*
X68680952Y-115523809D01*
X68680952Y-115276190D01*
X68452380Y-115047619D02*
X68433333Y-115085714D01*
X68414285Y-115104761D01*
X68376190Y-115123809D01*
X68357142Y-115123809D01*
X68319047Y-115104761D01*
X68300000Y-115085714D01*
X68280952Y-115047619D01*
X68280952Y-114971428D01*
X68300000Y-114933333D01*
X68319047Y-114914285D01*
X68357142Y-114895238D01*
X68376190Y-114895238D01*
X68414285Y-114914285D01*
X68433333Y-114933333D01*
X68452380Y-114971428D01*
X68452380Y-115047619D01*
X68471428Y-115085714D01*
X68490476Y-115104761D01*
X68528571Y-115123809D01*
X68604761Y-115123809D01*
X68642857Y-115104761D01*
X68661904Y-115085714D01*
X68680952Y-115047619D01*
X68680952Y-114971428D01*
X68661904Y-114933333D01*
X68642857Y-114914285D01*
X68604761Y-114895238D01*
X68528571Y-114895238D01*
X68490476Y-114914285D01*
X68471428Y-114933333D01*
X68452380Y-114971428D01*
X68642857Y-110557142D02*
X68661904Y-110576190D01*
X68680952Y-110633333D01*
X68680952Y-110671428D01*
X68661904Y-110728571D01*
X68623809Y-110766666D01*
X68585714Y-110785714D01*
X68509523Y-110804761D01*
X68452380Y-110804761D01*
X68376190Y-110785714D01*
X68338095Y-110766666D01*
X68300000Y-110728571D01*
X68280952Y-110671428D01*
X68280952Y-110633333D01*
X68300000Y-110576190D01*
X68319047Y-110557142D01*
X68319047Y-110404761D02*
X68300000Y-110385714D01*
X68280952Y-110347619D01*
X68280952Y-110252380D01*
X68300000Y-110214285D01*
X68319047Y-110195238D01*
X68357142Y-110176190D01*
X68395238Y-110176190D01*
X68452380Y-110195238D01*
X68680952Y-110423809D01*
X68680952Y-110176190D01*
X68280952Y-110042857D02*
X68280952Y-109776190D01*
X68680952Y-109947619D01*
X65642857Y-117142857D02*
X65623809Y-117161904D01*
X65566666Y-117180952D01*
X65528571Y-117180952D01*
X65471428Y-117161904D01*
X65433333Y-117123809D01*
X65414285Y-117085714D01*
X65395238Y-117009523D01*
X65395238Y-116952380D01*
X65414285Y-116876190D01*
X65433333Y-116838095D01*
X65471428Y-116800000D01*
X65528571Y-116780952D01*
X65566666Y-116780952D01*
X65623809Y-116800000D01*
X65642857Y-116819047D01*
X65795238Y-116819047D02*
X65814285Y-116800000D01*
X65852380Y-116780952D01*
X65947619Y-116780952D01*
X65985714Y-116800000D01*
X66004761Y-116819047D01*
X66023809Y-116857142D01*
X66023809Y-116895238D01*
X66004761Y-116952380D01*
X65776190Y-117180952D01*
X66023809Y-117180952D01*
X66366666Y-116780952D02*
X66290476Y-116780952D01*
X66252380Y-116800000D01*
X66233333Y-116819047D01*
X66195238Y-116876190D01*
X66176190Y-116952380D01*
X66176190Y-117104761D01*
X66195238Y-117142857D01*
X66214285Y-117161904D01*
X66252380Y-117180952D01*
X66328571Y-117180952D01*
X66366666Y-117161904D01*
X66385714Y-117142857D01*
X66404761Y-117104761D01*
X66404761Y-117009523D01*
X66385714Y-116971428D01*
X66366666Y-116952380D01*
X66328571Y-116933333D01*
X66252380Y-116933333D01*
X66214285Y-116952380D01*
X66195238Y-116971428D01*
X66176190Y-117009523D01*
D11*
X124990476Y-75452380D02*
X124990476Y-74452380D01*
X125323809Y-75166666D01*
X125657142Y-74452380D01*
X125657142Y-75452380D01*
X126133333Y-75452380D02*
X126133333Y-74452380D01*
X126704761Y-75452380D02*
X126276190Y-74880952D01*
X126704761Y-74452380D02*
X126133333Y-75023809D01*
X127038095Y-74452380D02*
X127657142Y-74452380D01*
X127323809Y-74833333D01*
X127466666Y-74833333D01*
X127561904Y-74880952D01*
X127609523Y-74928571D01*
X127657142Y-75023809D01*
X127657142Y-75261904D01*
X127609523Y-75357142D01*
X127561904Y-75404761D01*
X127466666Y-75452380D01*
X127180952Y-75452380D01*
X127085714Y-75404761D01*
X127038095Y-75357142D01*
X66957142Y-104557142D02*
X66909523Y-104604761D01*
X66766666Y-104652380D01*
X66671428Y-104652380D01*
X66528571Y-104604761D01*
X66433333Y-104509523D01*
X66385714Y-104414285D01*
X66338095Y-104223809D01*
X66338095Y-104080952D01*
X66385714Y-103890476D01*
X66433333Y-103795238D01*
X66528571Y-103700000D01*
X66671428Y-103652380D01*
X66766666Y-103652380D01*
X66909523Y-103700000D01*
X66957142Y-103747619D01*
X67528571Y-104080952D02*
X67433333Y-104033333D01*
X67385714Y-103985714D01*
X67338095Y-103890476D01*
X67338095Y-103842857D01*
X67385714Y-103747619D01*
X67433333Y-103700000D01*
X67528571Y-103652380D01*
X67719047Y-103652380D01*
X67814285Y-103700000D01*
X67861904Y-103747619D01*
X67909523Y-103842857D01*
X67909523Y-103890476D01*
X67861904Y-103985714D01*
X67814285Y-104033333D01*
X67719047Y-104080952D01*
X67528571Y-104080952D01*
X67433333Y-104128571D01*
X67385714Y-104176190D01*
X67338095Y-104271428D01*
X67338095Y-104461904D01*
X67385714Y-104557142D01*
X67433333Y-104604761D01*
X67528571Y-104652380D01*
X67719047Y-104652380D01*
X67814285Y-104604761D01*
X67861904Y-104557142D01*
X67909523Y-104461904D01*
X67909523Y-104271428D01*
X67861904Y-104176190D01*
X67814285Y-104128571D01*
X67719047Y-104080952D01*
X68242857Y-103652380D02*
X68909523Y-103652380D01*
X68480952Y-104652380D01*
D16*
X72089285Y-115639285D02*
X72077380Y-115651190D01*
X72041666Y-115663095D01*
X72017857Y-115663095D01*
X71982142Y-115651190D01*
X71958333Y-115627380D01*
X71946428Y-115603571D01*
X71934523Y-115555952D01*
X71934523Y-115520238D01*
X71946428Y-115472619D01*
X71958333Y-115448809D01*
X71982142Y-115425000D01*
X72017857Y-115413095D01*
X72041666Y-115413095D01*
X72077380Y-115425000D01*
X72089285Y-115436904D01*
X72232142Y-115520238D02*
X72208333Y-115508333D01*
X72196428Y-115496428D01*
X72184523Y-115472619D01*
X72184523Y-115460714D01*
X72196428Y-115436904D01*
X72208333Y-115425000D01*
X72232142Y-115413095D01*
X72279761Y-115413095D01*
X72303571Y-115425000D01*
X72315476Y-115436904D01*
X72327380Y-115460714D01*
X72327380Y-115472619D01*
X72315476Y-115496428D01*
X72303571Y-115508333D01*
X72279761Y-115520238D01*
X72232142Y-115520238D01*
X72208333Y-115532142D01*
X72196428Y-115544047D01*
X72184523Y-115567857D01*
X72184523Y-115615476D01*
X72196428Y-115639285D01*
X72208333Y-115651190D01*
X72232142Y-115663095D01*
X72279761Y-115663095D01*
X72303571Y-115651190D01*
X72315476Y-115639285D01*
X72327380Y-115615476D01*
X72327380Y-115567857D01*
X72315476Y-115544047D01*
X72303571Y-115532142D01*
X72279761Y-115520238D01*
X72446428Y-115663095D02*
X72494047Y-115663095D01*
X72517857Y-115651190D01*
X72529761Y-115639285D01*
X72553571Y-115603571D01*
X72565476Y-115555952D01*
X72565476Y-115460714D01*
X72553571Y-115436904D01*
X72541666Y-115425000D01*
X72517857Y-115413095D01*
X72470238Y-115413095D01*
X72446428Y-115425000D01*
X72434523Y-115436904D01*
X72422619Y-115460714D01*
X72422619Y-115520238D01*
X72434523Y-115544047D01*
X72446428Y-115555952D01*
X72470238Y-115567857D01*
X72517857Y-115567857D01*
X72541666Y-115555952D01*
X72553571Y-115544047D01*
X72565476Y-115520238D01*
D11*
X72352380Y-111661904D02*
X73161904Y-111661904D01*
X73257142Y-111614285D01*
X73304761Y-111566666D01*
X73352380Y-111471428D01*
X73352380Y-111280952D01*
X73304761Y-111185714D01*
X73257142Y-111138095D01*
X73161904Y-111090476D01*
X72352380Y-111090476D01*
X72352380Y-110709523D02*
X72352380Y-110090476D01*
X72733333Y-110423809D01*
X72733333Y-110280952D01*
X72780952Y-110185714D01*
X72828571Y-110138095D01*
X72923809Y-110090476D01*
X73161904Y-110090476D01*
X73257142Y-110138095D01*
X73304761Y-110185714D01*
X73352380Y-110280952D01*
X73352380Y-110566666D01*
X73304761Y-110661904D01*
X73257142Y-110709523D01*
X75852380Y-111661904D02*
X76661904Y-111661904D01*
X76757142Y-111614285D01*
X76804761Y-111566666D01*
X76852380Y-111471428D01*
X76852380Y-111280952D01*
X76804761Y-111185714D01*
X76757142Y-111138095D01*
X76661904Y-111090476D01*
X75852380Y-111090476D01*
X75947619Y-110661904D02*
X75900000Y-110614285D01*
X75852380Y-110519047D01*
X75852380Y-110280952D01*
X75900000Y-110185714D01*
X75947619Y-110138095D01*
X76042857Y-110090476D01*
X76138095Y-110090476D01*
X76280952Y-110138095D01*
X76852380Y-110709523D01*
X76852380Y-110090476D01*
D16*
X118113095Y-88360714D02*
X117994047Y-88444047D01*
X118113095Y-88503571D02*
X117863095Y-88503571D01*
X117863095Y-88408333D01*
X117875000Y-88384523D01*
X117886904Y-88372619D01*
X117910714Y-88360714D01*
X117946428Y-88360714D01*
X117970238Y-88372619D01*
X117982142Y-88384523D01*
X117994047Y-88408333D01*
X117994047Y-88503571D01*
X117863095Y-88134523D02*
X117863095Y-88253571D01*
X117982142Y-88265476D01*
X117970238Y-88253571D01*
X117958333Y-88229761D01*
X117958333Y-88170238D01*
X117970238Y-88146428D01*
X117982142Y-88134523D01*
X118005952Y-88122619D01*
X118065476Y-88122619D01*
X118089285Y-88134523D01*
X118101190Y-88146428D01*
X118113095Y-88170238D01*
X118113095Y-88229761D01*
X118101190Y-88253571D01*
X118089285Y-88265476D01*
X117970238Y-87979761D02*
X117958333Y-88003571D01*
X117946428Y-88015476D01*
X117922619Y-88027380D01*
X117910714Y-88027380D01*
X117886904Y-88015476D01*
X117875000Y-88003571D01*
X117863095Y-87979761D01*
X117863095Y-87932142D01*
X117875000Y-87908333D01*
X117886904Y-87896428D01*
X117910714Y-87884523D01*
X117922619Y-87884523D01*
X117946428Y-87896428D01*
X117958333Y-87908333D01*
X117970238Y-87932142D01*
X117970238Y-87979761D01*
X117982142Y-88003571D01*
X117994047Y-88015476D01*
X118017857Y-88027380D01*
X118065476Y-88027380D01*
X118089285Y-88015476D01*
X118101190Y-88003571D01*
X118113095Y-87979761D01*
X118113095Y-87932142D01*
X118101190Y-87908333D01*
X118089285Y-87896428D01*
X118065476Y-87884523D01*
X118017857Y-87884523D01*
X117994047Y-87896428D01*
X117982142Y-87908333D01*
X117970238Y-87932142D01*
X106613095Y-101110714D02*
X106494047Y-101194047D01*
X106613095Y-101253571D02*
X106363095Y-101253571D01*
X106363095Y-101158333D01*
X106375000Y-101134523D01*
X106386904Y-101122619D01*
X106410714Y-101110714D01*
X106446428Y-101110714D01*
X106470238Y-101122619D01*
X106482142Y-101134523D01*
X106494047Y-101158333D01*
X106494047Y-101253571D01*
X106363095Y-100884523D02*
X106363095Y-101003571D01*
X106482142Y-101015476D01*
X106470238Y-101003571D01*
X106458333Y-100979761D01*
X106458333Y-100920238D01*
X106470238Y-100896428D01*
X106482142Y-100884523D01*
X106505952Y-100872619D01*
X106565476Y-100872619D01*
X106589285Y-100884523D01*
X106601190Y-100896428D01*
X106613095Y-100920238D01*
X106613095Y-100979761D01*
X106601190Y-101003571D01*
X106589285Y-101015476D01*
X106363095Y-100789285D02*
X106363095Y-100622619D01*
X106613095Y-100729761D01*
X62913095Y-115626666D02*
X62794047Y-115710000D01*
X62913095Y-115769523D02*
X62663095Y-115769523D01*
X62663095Y-115674285D01*
X62675000Y-115650476D01*
X62686904Y-115638571D01*
X62710714Y-115626666D01*
X62746428Y-115626666D01*
X62770238Y-115638571D01*
X62782142Y-115650476D01*
X62794047Y-115674285D01*
X62794047Y-115769523D01*
X62663095Y-115400476D02*
X62663095Y-115519523D01*
X62782142Y-115531428D01*
X62770238Y-115519523D01*
X62758333Y-115495714D01*
X62758333Y-115436190D01*
X62770238Y-115412380D01*
X62782142Y-115400476D01*
X62805952Y-115388571D01*
X62865476Y-115388571D01*
X62889285Y-115400476D01*
X62901190Y-115412380D01*
X62913095Y-115436190D01*
X62913095Y-115495714D01*
X62901190Y-115519523D01*
X62889285Y-115531428D01*
X62913095Y-117526666D02*
X62794047Y-117610000D01*
X62913095Y-117669523D02*
X62663095Y-117669523D01*
X62663095Y-117574285D01*
X62675000Y-117550476D01*
X62686904Y-117538571D01*
X62710714Y-117526666D01*
X62746428Y-117526666D01*
X62770238Y-117538571D01*
X62782142Y-117550476D01*
X62794047Y-117574285D01*
X62794047Y-117669523D01*
X62746428Y-117312380D02*
X62913095Y-117312380D01*
X62651190Y-117371904D02*
X62829761Y-117431428D01*
X62829761Y-117276666D01*
D12*
X60926190Y-116457142D02*
X60426190Y-116457142D01*
X60426190Y-116338095D01*
X60450000Y-116266666D01*
X60497619Y-116219047D01*
X60545238Y-116195238D01*
X60640476Y-116171428D01*
X60711904Y-116171428D01*
X60807142Y-116195238D01*
X60854761Y-116219047D01*
X60902380Y-116266666D01*
X60926190Y-116338095D01*
X60926190Y-116457142D01*
X60473809Y-115980952D02*
X60450000Y-115957142D01*
X60426190Y-115909523D01*
X60426190Y-115790476D01*
X60450000Y-115742857D01*
X60473809Y-115719047D01*
X60521428Y-115695238D01*
X60569047Y-115695238D01*
X60640476Y-115719047D01*
X60926190Y-116004761D01*
X60926190Y-115695238D01*
X60592857Y-115266666D02*
X60926190Y-115266666D01*
X60402380Y-115385714D02*
X60759523Y-115504761D01*
X60759523Y-115195238D01*
D16*
X74989285Y-91145714D02*
X75001190Y-91157619D01*
X75013095Y-91193333D01*
X75013095Y-91217142D01*
X75001190Y-91252857D01*
X74977380Y-91276666D01*
X74953571Y-91288571D01*
X74905952Y-91300476D01*
X74870238Y-91300476D01*
X74822619Y-91288571D01*
X74798809Y-91276666D01*
X74775000Y-91252857D01*
X74763095Y-91217142D01*
X74763095Y-91193333D01*
X74775000Y-91157619D01*
X74786904Y-91145714D01*
X74870238Y-91002857D02*
X74858333Y-91026666D01*
X74846428Y-91038571D01*
X74822619Y-91050476D01*
X74810714Y-91050476D01*
X74786904Y-91038571D01*
X74775000Y-91026666D01*
X74763095Y-91002857D01*
X74763095Y-90955238D01*
X74775000Y-90931428D01*
X74786904Y-90919523D01*
X74810714Y-90907619D01*
X74822619Y-90907619D01*
X74846428Y-90919523D01*
X74858333Y-90931428D01*
X74870238Y-90955238D01*
X74870238Y-91002857D01*
X74882142Y-91026666D01*
X74894047Y-91038571D01*
X74917857Y-91050476D01*
X74965476Y-91050476D01*
X74989285Y-91038571D01*
X75001190Y-91026666D01*
X75013095Y-91002857D01*
X75013095Y-90955238D01*
X75001190Y-90931428D01*
X74989285Y-90919523D01*
X74965476Y-90907619D01*
X74917857Y-90907619D01*
X74894047Y-90919523D01*
X74882142Y-90931428D01*
X74870238Y-90955238D01*
X74870238Y-90764761D02*
X74858333Y-90788571D01*
X74846428Y-90800476D01*
X74822619Y-90812380D01*
X74810714Y-90812380D01*
X74786904Y-90800476D01*
X74775000Y-90788571D01*
X74763095Y-90764761D01*
X74763095Y-90717142D01*
X74775000Y-90693333D01*
X74786904Y-90681428D01*
X74810714Y-90669523D01*
X74822619Y-90669523D01*
X74846428Y-90681428D01*
X74858333Y-90693333D01*
X74870238Y-90717142D01*
X74870238Y-90764761D01*
X74882142Y-90788571D01*
X74894047Y-90800476D01*
X74917857Y-90812380D01*
X74965476Y-90812380D01*
X74989285Y-90800476D01*
X75001190Y-90788571D01*
X75013095Y-90764761D01*
X75013095Y-90717142D01*
X75001190Y-90693333D01*
X74989285Y-90681428D01*
X74965476Y-90669523D01*
X74917857Y-90669523D01*
X74894047Y-90681428D01*
X74882142Y-90693333D01*
X74870238Y-90717142D01*
X62239285Y-110689285D02*
X62227380Y-110701190D01*
X62191666Y-110713095D01*
X62167857Y-110713095D01*
X62132142Y-110701190D01*
X62108333Y-110677380D01*
X62096428Y-110653571D01*
X62084523Y-110605952D01*
X62084523Y-110570238D01*
X62096428Y-110522619D01*
X62108333Y-110498809D01*
X62132142Y-110475000D01*
X62167857Y-110463095D01*
X62191666Y-110463095D01*
X62227380Y-110475000D01*
X62239285Y-110486904D01*
X62477380Y-110713095D02*
X62334523Y-110713095D01*
X62405952Y-110713095D02*
X62405952Y-110463095D01*
X62382142Y-110498809D01*
X62358333Y-110522619D01*
X62334523Y-110534523D01*
X62691666Y-110463095D02*
X62644047Y-110463095D01*
X62620238Y-110475000D01*
X62608333Y-110486904D01*
X62584523Y-110522619D01*
X62572619Y-110570238D01*
X62572619Y-110665476D01*
X62584523Y-110689285D01*
X62596428Y-110701190D01*
X62620238Y-110713095D01*
X62667857Y-110713095D01*
X62691666Y-110701190D01*
X62703571Y-110689285D01*
X62715476Y-110665476D01*
X62715476Y-110605952D01*
X62703571Y-110582142D01*
X62691666Y-110570238D01*
X62667857Y-110558333D01*
X62620238Y-110558333D01*
X62596428Y-110570238D01*
X62584523Y-110582142D01*
X62572619Y-110605952D01*
D17*
X122371428Y-83989285D02*
X122371428Y-84596428D01*
X122407142Y-84667857D01*
X122442857Y-84703571D01*
X122514285Y-84739285D01*
X122657142Y-84739285D01*
X122728571Y-84703571D01*
X122764285Y-84667857D01*
X122800000Y-84596428D01*
X122800000Y-83989285D01*
X123121428Y-84060714D02*
X123157142Y-84025000D01*
X123228571Y-83989285D01*
X123407142Y-83989285D01*
X123478571Y-84025000D01*
X123514285Y-84060714D01*
X123550000Y-84132142D01*
X123550000Y-84203571D01*
X123514285Y-84310714D01*
X123085714Y-84739285D01*
X123550000Y-84739285D01*
X124264285Y-84739285D02*
X123835714Y-84739285D01*
X124050000Y-84739285D02*
X124050000Y-83989285D01*
X123978571Y-84096428D01*
X123907142Y-84167857D01*
X123835714Y-84203571D01*
D16*
X120013095Y-90860714D02*
X119894047Y-90944047D01*
X120013095Y-91003571D02*
X119763095Y-91003571D01*
X119763095Y-90908333D01*
X119775000Y-90884523D01*
X119786904Y-90872619D01*
X119810714Y-90860714D01*
X119846428Y-90860714D01*
X119870238Y-90872619D01*
X119882142Y-90884523D01*
X119894047Y-90908333D01*
X119894047Y-91003571D01*
X119763095Y-90634523D02*
X119763095Y-90753571D01*
X119882142Y-90765476D01*
X119870238Y-90753571D01*
X119858333Y-90729761D01*
X119858333Y-90670238D01*
X119870238Y-90646428D01*
X119882142Y-90634523D01*
X119905952Y-90622619D01*
X119965476Y-90622619D01*
X119989285Y-90634523D01*
X120001190Y-90646428D01*
X120013095Y-90670238D01*
X120013095Y-90729761D01*
X120001190Y-90753571D01*
X119989285Y-90765476D01*
X119763095Y-90396428D02*
X119763095Y-90515476D01*
X119882142Y-90527380D01*
X119870238Y-90515476D01*
X119858333Y-90491666D01*
X119858333Y-90432142D01*
X119870238Y-90408333D01*
X119882142Y-90396428D01*
X119905952Y-90384523D01*
X119965476Y-90384523D01*
X119989285Y-90396428D01*
X120001190Y-90408333D01*
X120013095Y-90432142D01*
X120013095Y-90491666D01*
X120001190Y-90515476D01*
X119989285Y-90527380D01*
X126813095Y-100460714D02*
X126694047Y-100544047D01*
X126813095Y-100603571D02*
X126563095Y-100603571D01*
X126563095Y-100508333D01*
X126575000Y-100484523D01*
X126586904Y-100472619D01*
X126610714Y-100460714D01*
X126646428Y-100460714D01*
X126670238Y-100472619D01*
X126682142Y-100484523D01*
X126694047Y-100508333D01*
X126694047Y-100603571D01*
X126586904Y-100365476D02*
X126575000Y-100353571D01*
X126563095Y-100329761D01*
X126563095Y-100270238D01*
X126575000Y-100246428D01*
X126586904Y-100234523D01*
X126610714Y-100222619D01*
X126634523Y-100222619D01*
X126670238Y-100234523D01*
X126813095Y-100377380D01*
X126813095Y-100222619D01*
X126563095Y-100008333D02*
X126563095Y-100055952D01*
X126575000Y-100079761D01*
X126586904Y-100091666D01*
X126622619Y-100115476D01*
X126670238Y-100127380D01*
X126765476Y-100127380D01*
X126789285Y-100115476D01*
X126801190Y-100103571D01*
X126813095Y-100079761D01*
X126813095Y-100032142D01*
X126801190Y-100008333D01*
X126789285Y-99996428D01*
X126765476Y-99984523D01*
X126705952Y-99984523D01*
X126682142Y-99996428D01*
X126670238Y-100008333D01*
X126658333Y-100032142D01*
X126658333Y-100079761D01*
X126670238Y-100103571D01*
X126682142Y-100115476D01*
X126705952Y-100127380D01*
D12*
X120326190Y-103907142D02*
X119826190Y-103907142D01*
X119826190Y-103788095D01*
X119850000Y-103716666D01*
X119897619Y-103669047D01*
X119945238Y-103645238D01*
X120040476Y-103621428D01*
X120111904Y-103621428D01*
X120207142Y-103645238D01*
X120254761Y-103669047D01*
X120302380Y-103716666D01*
X120326190Y-103788095D01*
X120326190Y-103907142D01*
X120326190Y-103145238D02*
X120326190Y-103430952D01*
X120326190Y-103288095D02*
X119826190Y-103288095D01*
X119897619Y-103335714D01*
X119945238Y-103383333D01*
X119969047Y-103430952D01*
X120040476Y-102859523D02*
X120016666Y-102907142D01*
X119992857Y-102930952D01*
X119945238Y-102954761D01*
X119921428Y-102954761D01*
X119873809Y-102930952D01*
X119850000Y-102907142D01*
X119826190Y-102859523D01*
X119826190Y-102764285D01*
X119850000Y-102716666D01*
X119873809Y-102692857D01*
X119921428Y-102669047D01*
X119945238Y-102669047D01*
X119992857Y-102692857D01*
X120016666Y-102716666D01*
X120040476Y-102764285D01*
X120040476Y-102859523D01*
X120064285Y-102907142D01*
X120088095Y-102930952D01*
X120135714Y-102954761D01*
X120230952Y-102954761D01*
X120278571Y-102930952D01*
X120302380Y-102907142D01*
X120326190Y-102859523D01*
X120326190Y-102764285D01*
X120302380Y-102716666D01*
X120278571Y-102692857D01*
X120230952Y-102669047D01*
X120135714Y-102669047D01*
X120088095Y-102692857D01*
X120064285Y-102716666D01*
X120040476Y-102764285D01*
D14*
X97180952Y-83185714D02*
X96780952Y-83185714D01*
X96780952Y-83090476D01*
X96800000Y-83033333D01*
X96838095Y-82995238D01*
X96876190Y-82976190D01*
X96952380Y-82957142D01*
X97009523Y-82957142D01*
X97085714Y-82976190D01*
X97123809Y-82995238D01*
X97161904Y-83033333D01*
X97180952Y-83090476D01*
X97180952Y-83185714D01*
X97180952Y-82576190D02*
X97180952Y-82804761D01*
X97180952Y-82690476D02*
X96780952Y-82690476D01*
X96838095Y-82728571D01*
X96876190Y-82766666D01*
X96895238Y-82804761D01*
X96780952Y-82442857D02*
X96780952Y-82176190D01*
X97180952Y-82347619D01*
X117830952Y-106485714D02*
X117430952Y-106485714D01*
X117430952Y-106390476D01*
X117450000Y-106333333D01*
X117488095Y-106295238D01*
X117526190Y-106276190D01*
X117602380Y-106257142D01*
X117659523Y-106257142D01*
X117735714Y-106276190D01*
X117773809Y-106295238D01*
X117811904Y-106333333D01*
X117830952Y-106390476D01*
X117830952Y-106485714D01*
X117830952Y-105876190D02*
X117830952Y-106104761D01*
X117830952Y-105990476D02*
X117430952Y-105990476D01*
X117488095Y-106028571D01*
X117526190Y-106066666D01*
X117545238Y-106104761D01*
X117430952Y-105533333D02*
X117430952Y-105609523D01*
X117450000Y-105647619D01*
X117469047Y-105666666D01*
X117526190Y-105704761D01*
X117602380Y-105723809D01*
X117754761Y-105723809D01*
X117792857Y-105704761D01*
X117811904Y-105685714D01*
X117830952Y-105647619D01*
X117830952Y-105571428D01*
X117811904Y-105533333D01*
X117792857Y-105514285D01*
X117754761Y-105495238D01*
X117659523Y-105495238D01*
X117621428Y-105514285D01*
X117602380Y-105533333D01*
X117583333Y-105571428D01*
X117583333Y-105647619D01*
X117602380Y-105685714D01*
X117621428Y-105704761D01*
X117659523Y-105723809D01*
D16*
X58889285Y-97363095D02*
X58805952Y-97244047D01*
X58746428Y-97363095D02*
X58746428Y-97113095D01*
X58841666Y-97113095D01*
X58865476Y-97125000D01*
X58877380Y-97136904D01*
X58889285Y-97160714D01*
X58889285Y-97196428D01*
X58877380Y-97220238D01*
X58865476Y-97232142D01*
X58841666Y-97244047D01*
X58746428Y-97244047D01*
X59115476Y-97113095D02*
X58996428Y-97113095D01*
X58984523Y-97232142D01*
X58996428Y-97220238D01*
X59020238Y-97208333D01*
X59079761Y-97208333D01*
X59103571Y-97220238D01*
X59115476Y-97232142D01*
X59127380Y-97255952D01*
X59127380Y-97315476D01*
X59115476Y-97339285D01*
X59103571Y-97351190D01*
X59079761Y-97363095D01*
X59020238Y-97363095D01*
X58996428Y-97351190D01*
X58984523Y-97339285D01*
X59222619Y-97136904D02*
X59234523Y-97125000D01*
X59258333Y-97113095D01*
X59317857Y-97113095D01*
X59341666Y-97125000D01*
X59353571Y-97136904D01*
X59365476Y-97160714D01*
X59365476Y-97184523D01*
X59353571Y-97220238D01*
X59210714Y-97363095D01*
X59365476Y-97363095D01*
X58513095Y-93310714D02*
X58394047Y-93394047D01*
X58513095Y-93453571D02*
X58263095Y-93453571D01*
X58263095Y-93358333D01*
X58275000Y-93334523D01*
X58286904Y-93322619D01*
X58310714Y-93310714D01*
X58346428Y-93310714D01*
X58370238Y-93322619D01*
X58382142Y-93334523D01*
X58394047Y-93358333D01*
X58394047Y-93453571D01*
X58263095Y-93084523D02*
X58263095Y-93203571D01*
X58382142Y-93215476D01*
X58370238Y-93203571D01*
X58358333Y-93179761D01*
X58358333Y-93120238D01*
X58370238Y-93096428D01*
X58382142Y-93084523D01*
X58405952Y-93072619D01*
X58465476Y-93072619D01*
X58489285Y-93084523D01*
X58501190Y-93096428D01*
X58513095Y-93120238D01*
X58513095Y-93179761D01*
X58501190Y-93203571D01*
X58489285Y-93215476D01*
X58263095Y-92989285D02*
X58263095Y-92834523D01*
X58358333Y-92917857D01*
X58358333Y-92882142D01*
X58370238Y-92858333D01*
X58382142Y-92846428D01*
X58405952Y-92834523D01*
X58465476Y-92834523D01*
X58489285Y-92846428D01*
X58501190Y-92858333D01*
X58513095Y-92882142D01*
X58513095Y-92953571D01*
X58501190Y-92977380D01*
X58489285Y-92989285D01*
D12*
X95826190Y-86080952D02*
X96230952Y-86080952D01*
X96278571Y-86057142D01*
X96302380Y-86033333D01*
X96326190Y-85985714D01*
X96326190Y-85890476D01*
X96302380Y-85842857D01*
X96278571Y-85819047D01*
X96230952Y-85795238D01*
X95826190Y-85795238D01*
X95992857Y-85342857D02*
X96326190Y-85342857D01*
X95802380Y-85461904D02*
X96159523Y-85580952D01*
X96159523Y-85271428D01*
X95826190Y-91680952D02*
X96230952Y-91680952D01*
X96278571Y-91657142D01*
X96302380Y-91633333D01*
X96326190Y-91585714D01*
X96326190Y-91490476D01*
X96302380Y-91442857D01*
X96278571Y-91419047D01*
X96230952Y-91395238D01*
X95826190Y-91395238D01*
X96326190Y-91133333D02*
X96326190Y-91038095D01*
X96302380Y-90990476D01*
X96278571Y-90966666D01*
X96207142Y-90919047D01*
X96111904Y-90895238D01*
X95921428Y-90895238D01*
X95873809Y-90919047D01*
X95850000Y-90942857D01*
X95826190Y-90990476D01*
X95826190Y-91085714D01*
X95850000Y-91133333D01*
X95873809Y-91157142D01*
X95921428Y-91180952D01*
X96040476Y-91180952D01*
X96088095Y-91157142D01*
X96111904Y-91133333D01*
X96135714Y-91085714D01*
X96135714Y-90990476D01*
X96111904Y-90942857D01*
X96088095Y-90919047D01*
X96040476Y-90895238D01*
D16*
X88389285Y-101613095D02*
X88305952Y-101494047D01*
X88246428Y-101613095D02*
X88246428Y-101363095D01*
X88341666Y-101363095D01*
X88365476Y-101375000D01*
X88377380Y-101386904D01*
X88389285Y-101410714D01*
X88389285Y-101446428D01*
X88377380Y-101470238D01*
X88365476Y-101482142D01*
X88341666Y-101494047D01*
X88246428Y-101494047D01*
X88603571Y-101446428D02*
X88603571Y-101613095D01*
X88544047Y-101351190D02*
X88484523Y-101529761D01*
X88639285Y-101529761D01*
X88853571Y-101363095D02*
X88734523Y-101363095D01*
X88722619Y-101482142D01*
X88734523Y-101470238D01*
X88758333Y-101458333D01*
X88817857Y-101458333D01*
X88841666Y-101470238D01*
X88853571Y-101482142D01*
X88865476Y-101505952D01*
X88865476Y-101565476D01*
X88853571Y-101589285D01*
X88841666Y-101601190D01*
X88817857Y-101613095D01*
X88758333Y-101613095D01*
X88734523Y-101601190D01*
X88722619Y-101589285D01*
D12*
X90526190Y-100219047D02*
X90930952Y-100219047D01*
X90978571Y-100195238D01*
X91002380Y-100171428D01*
X91026190Y-100123809D01*
X91026190Y-100028571D01*
X91002380Y-99980952D01*
X90978571Y-99957142D01*
X90930952Y-99933333D01*
X90526190Y-99933333D01*
X90526190Y-99742857D02*
X90526190Y-99433333D01*
X90716666Y-99600000D01*
X90716666Y-99528571D01*
X90740476Y-99480952D01*
X90764285Y-99457142D01*
X90811904Y-99433333D01*
X90930952Y-99433333D01*
X90978571Y-99457142D01*
X91002380Y-99480952D01*
X91026190Y-99528571D01*
X91026190Y-99671428D01*
X91002380Y-99719047D01*
X90978571Y-99742857D01*
X90573809Y-99242857D02*
X90550000Y-99219047D01*
X90526190Y-99171428D01*
X90526190Y-99052380D01*
X90550000Y-99004761D01*
X90573809Y-98980952D01*
X90621428Y-98957142D01*
X90669047Y-98957142D01*
X90740476Y-98980952D01*
X91026190Y-99266666D01*
X91026190Y-98957142D01*
X99826190Y-105919047D02*
X100230952Y-105919047D01*
X100278571Y-105895238D01*
X100302380Y-105871428D01*
X100326190Y-105823809D01*
X100326190Y-105728571D01*
X100302380Y-105680952D01*
X100278571Y-105657142D01*
X100230952Y-105633333D01*
X99826190Y-105633333D01*
X99873809Y-105419047D02*
X99850000Y-105395238D01*
X99826190Y-105347619D01*
X99826190Y-105228571D01*
X99850000Y-105180952D01*
X99873809Y-105157142D01*
X99921428Y-105133333D01*
X99969047Y-105133333D01*
X100040476Y-105157142D01*
X100326190Y-105442857D01*
X100326190Y-105133333D01*
X100326190Y-104895238D02*
X100326190Y-104800000D01*
X100302380Y-104752380D01*
X100278571Y-104728571D01*
X100207142Y-104680952D01*
X100111904Y-104657142D01*
X99921428Y-104657142D01*
X99873809Y-104680952D01*
X99850000Y-104704761D01*
X99826190Y-104752380D01*
X99826190Y-104847619D01*
X99850000Y-104895238D01*
X99873809Y-104919047D01*
X99921428Y-104942857D01*
X100040476Y-104942857D01*
X100088095Y-104919047D01*
X100111904Y-104895238D01*
X100135714Y-104847619D01*
X100135714Y-104752380D01*
X100111904Y-104704761D01*
X100088095Y-104680952D01*
X100040476Y-104657142D01*
X99826190Y-103119047D02*
X100230952Y-103119047D01*
X100278571Y-103095238D01*
X100302380Y-103071428D01*
X100326190Y-103023809D01*
X100326190Y-102928571D01*
X100302380Y-102880952D01*
X100278571Y-102857142D01*
X100230952Y-102833333D01*
X99826190Y-102833333D01*
X99873809Y-102619047D02*
X99850000Y-102595238D01*
X99826190Y-102547619D01*
X99826190Y-102428571D01*
X99850000Y-102380952D01*
X99873809Y-102357142D01*
X99921428Y-102333333D01*
X99969047Y-102333333D01*
X100040476Y-102357142D01*
X100326190Y-102642857D01*
X100326190Y-102333333D01*
X100040476Y-102047619D02*
X100016666Y-102095238D01*
X99992857Y-102119047D01*
X99945238Y-102142857D01*
X99921428Y-102142857D01*
X99873809Y-102119047D01*
X99850000Y-102095238D01*
X99826190Y-102047619D01*
X99826190Y-101952380D01*
X99850000Y-101904761D01*
X99873809Y-101880952D01*
X99921428Y-101857142D01*
X99945238Y-101857142D01*
X99992857Y-101880952D01*
X100016666Y-101904761D01*
X100040476Y-101952380D01*
X100040476Y-102047619D01*
X100064285Y-102095238D01*
X100088095Y-102119047D01*
X100135714Y-102142857D01*
X100230952Y-102142857D01*
X100278571Y-102119047D01*
X100302380Y-102095238D01*
X100326190Y-102047619D01*
X100326190Y-101952380D01*
X100302380Y-101904761D01*
X100278571Y-101880952D01*
X100230952Y-101857142D01*
X100135714Y-101857142D01*
X100088095Y-101880952D01*
X100064285Y-101904761D01*
X100040476Y-101952380D01*
X99826190Y-100319047D02*
X100230952Y-100319047D01*
X100278571Y-100295238D01*
X100302380Y-100271428D01*
X100326190Y-100223809D01*
X100326190Y-100128571D01*
X100302380Y-100080952D01*
X100278571Y-100057142D01*
X100230952Y-100033333D01*
X99826190Y-100033333D01*
X99873809Y-99819047D02*
X99850000Y-99795238D01*
X99826190Y-99747619D01*
X99826190Y-99628571D01*
X99850000Y-99580952D01*
X99873809Y-99557142D01*
X99921428Y-99533333D01*
X99969047Y-99533333D01*
X100040476Y-99557142D01*
X100326190Y-99842857D01*
X100326190Y-99533333D01*
X99826190Y-99366666D02*
X99826190Y-99033333D01*
X100326190Y-99247619D01*
X99826190Y-97519047D02*
X100230952Y-97519047D01*
X100278571Y-97495238D01*
X100302380Y-97471428D01*
X100326190Y-97423809D01*
X100326190Y-97328571D01*
X100302380Y-97280952D01*
X100278571Y-97257142D01*
X100230952Y-97233333D01*
X99826190Y-97233333D01*
X99873809Y-97019047D02*
X99850000Y-96995238D01*
X99826190Y-96947619D01*
X99826190Y-96828571D01*
X99850000Y-96780952D01*
X99873809Y-96757142D01*
X99921428Y-96733333D01*
X99969047Y-96733333D01*
X100040476Y-96757142D01*
X100326190Y-97042857D01*
X100326190Y-96733333D01*
X99826190Y-96304761D02*
X99826190Y-96400000D01*
X99850000Y-96447619D01*
X99873809Y-96471428D01*
X99945238Y-96519047D01*
X100040476Y-96542857D01*
X100230952Y-96542857D01*
X100278571Y-96519047D01*
X100302380Y-96495238D01*
X100326190Y-96447619D01*
X100326190Y-96352380D01*
X100302380Y-96304761D01*
X100278571Y-96280952D01*
X100230952Y-96257142D01*
X100111904Y-96257142D01*
X100064285Y-96280952D01*
X100040476Y-96304761D01*
X100016666Y-96352380D01*
X100016666Y-96447619D01*
X100040476Y-96495238D01*
X100064285Y-96519047D01*
X100111904Y-96542857D01*
X95826190Y-105919047D02*
X96230952Y-105919047D01*
X96278571Y-105895238D01*
X96302380Y-105871428D01*
X96326190Y-105823809D01*
X96326190Y-105728571D01*
X96302380Y-105680952D01*
X96278571Y-105657142D01*
X96230952Y-105633333D01*
X95826190Y-105633333D01*
X95873809Y-105419047D02*
X95850000Y-105395238D01*
X95826190Y-105347619D01*
X95826190Y-105228571D01*
X95850000Y-105180952D01*
X95873809Y-105157142D01*
X95921428Y-105133333D01*
X95969047Y-105133333D01*
X96040476Y-105157142D01*
X96326190Y-105442857D01*
X96326190Y-105133333D01*
X95826190Y-104680952D02*
X95826190Y-104919047D01*
X96064285Y-104942857D01*
X96040476Y-104919047D01*
X96016666Y-104871428D01*
X96016666Y-104752380D01*
X96040476Y-104704761D01*
X96064285Y-104680952D01*
X96111904Y-104657142D01*
X96230952Y-104657142D01*
X96278571Y-104680952D01*
X96302380Y-104704761D01*
X96326190Y-104752380D01*
X96326190Y-104871428D01*
X96302380Y-104919047D01*
X96278571Y-104942857D01*
X95826190Y-103119047D02*
X96230952Y-103119047D01*
X96278571Y-103095238D01*
X96302380Y-103071428D01*
X96326190Y-103023809D01*
X96326190Y-102928571D01*
X96302380Y-102880952D01*
X96278571Y-102857142D01*
X96230952Y-102833333D01*
X95826190Y-102833333D01*
X95873809Y-102619047D02*
X95850000Y-102595238D01*
X95826190Y-102547619D01*
X95826190Y-102428571D01*
X95850000Y-102380952D01*
X95873809Y-102357142D01*
X95921428Y-102333333D01*
X95969047Y-102333333D01*
X96040476Y-102357142D01*
X96326190Y-102642857D01*
X96326190Y-102333333D01*
X95992857Y-101904761D02*
X96326190Y-101904761D01*
X95802380Y-102023809D02*
X96159523Y-102142857D01*
X96159523Y-101833333D01*
X95826190Y-100319047D02*
X96230952Y-100319047D01*
X96278571Y-100295238D01*
X96302380Y-100271428D01*
X96326190Y-100223809D01*
X96326190Y-100128571D01*
X96302380Y-100080952D01*
X96278571Y-100057142D01*
X96230952Y-100033333D01*
X95826190Y-100033333D01*
X95873809Y-99819047D02*
X95850000Y-99795238D01*
X95826190Y-99747619D01*
X95826190Y-99628571D01*
X95850000Y-99580952D01*
X95873809Y-99557142D01*
X95921428Y-99533333D01*
X95969047Y-99533333D01*
X96040476Y-99557142D01*
X96326190Y-99842857D01*
X96326190Y-99533333D01*
X95826190Y-99366666D02*
X95826190Y-99057142D01*
X96016666Y-99223809D01*
X96016666Y-99152380D01*
X96040476Y-99104761D01*
X96064285Y-99080952D01*
X96111904Y-99057142D01*
X96230952Y-99057142D01*
X96278571Y-99080952D01*
X96302380Y-99104761D01*
X96326190Y-99152380D01*
X96326190Y-99295238D01*
X96302380Y-99342857D01*
X96278571Y-99366666D01*
X95826190Y-97519047D02*
X96230952Y-97519047D01*
X96278571Y-97495238D01*
X96302380Y-97471428D01*
X96326190Y-97423809D01*
X96326190Y-97328571D01*
X96302380Y-97280952D01*
X96278571Y-97257142D01*
X96230952Y-97233333D01*
X95826190Y-97233333D01*
X95873809Y-97019047D02*
X95850000Y-96995238D01*
X95826190Y-96947619D01*
X95826190Y-96828571D01*
X95850000Y-96780952D01*
X95873809Y-96757142D01*
X95921428Y-96733333D01*
X95969047Y-96733333D01*
X96040476Y-96757142D01*
X96326190Y-97042857D01*
X96326190Y-96733333D01*
X95873809Y-96542857D02*
X95850000Y-96519047D01*
X95826190Y-96471428D01*
X95826190Y-96352380D01*
X95850000Y-96304761D01*
X95873809Y-96280952D01*
X95921428Y-96257142D01*
X95969047Y-96257142D01*
X96040476Y-96280952D01*
X96326190Y-96566666D01*
X96326190Y-96257142D01*
X99826190Y-94719047D02*
X100230952Y-94719047D01*
X100278571Y-94695238D01*
X100302380Y-94671428D01*
X100326190Y-94623809D01*
X100326190Y-94528571D01*
X100302380Y-94480952D01*
X100278571Y-94457142D01*
X100230952Y-94433333D01*
X99826190Y-94433333D01*
X100326190Y-93933333D02*
X100326190Y-94219047D01*
X100326190Y-94076190D02*
X99826190Y-94076190D01*
X99897619Y-94123809D01*
X99945238Y-94171428D01*
X99969047Y-94219047D01*
X100040476Y-93647619D02*
X100016666Y-93695238D01*
X99992857Y-93719047D01*
X99945238Y-93742857D01*
X99921428Y-93742857D01*
X99873809Y-93719047D01*
X99850000Y-93695238D01*
X99826190Y-93647619D01*
X99826190Y-93552380D01*
X99850000Y-93504761D01*
X99873809Y-93480952D01*
X99921428Y-93457142D01*
X99945238Y-93457142D01*
X99992857Y-93480952D01*
X100016666Y-93504761D01*
X100040476Y-93552380D01*
X100040476Y-93647619D01*
X100064285Y-93695238D01*
X100088095Y-93719047D01*
X100135714Y-93742857D01*
X100230952Y-93742857D01*
X100278571Y-93719047D01*
X100302380Y-93695238D01*
X100326190Y-93647619D01*
X100326190Y-93552380D01*
X100302380Y-93504761D01*
X100278571Y-93480952D01*
X100230952Y-93457142D01*
X100135714Y-93457142D01*
X100088095Y-93480952D01*
X100064285Y-93504761D01*
X100040476Y-93552380D01*
X99826190Y-91919047D02*
X100230952Y-91919047D01*
X100278571Y-91895238D01*
X100302380Y-91871428D01*
X100326190Y-91823809D01*
X100326190Y-91728571D01*
X100302380Y-91680952D01*
X100278571Y-91657142D01*
X100230952Y-91633333D01*
X99826190Y-91633333D01*
X100326190Y-91133333D02*
X100326190Y-91419047D01*
X100326190Y-91276190D02*
X99826190Y-91276190D01*
X99897619Y-91323809D01*
X99945238Y-91371428D01*
X99969047Y-91419047D01*
X99826190Y-90966666D02*
X99826190Y-90633333D01*
X100326190Y-90847619D01*
X99826190Y-89119047D02*
X100230952Y-89119047D01*
X100278571Y-89095238D01*
X100302380Y-89071428D01*
X100326190Y-89023809D01*
X100326190Y-88928571D01*
X100302380Y-88880952D01*
X100278571Y-88857142D01*
X100230952Y-88833333D01*
X99826190Y-88833333D01*
X100326190Y-88333333D02*
X100326190Y-88619047D01*
X100326190Y-88476190D02*
X99826190Y-88476190D01*
X99897619Y-88523809D01*
X99945238Y-88571428D01*
X99969047Y-88619047D01*
X99826190Y-87904761D02*
X99826190Y-88000000D01*
X99850000Y-88047619D01*
X99873809Y-88071428D01*
X99945238Y-88119047D01*
X100040476Y-88142857D01*
X100230952Y-88142857D01*
X100278571Y-88119047D01*
X100302380Y-88095238D01*
X100326190Y-88047619D01*
X100326190Y-87952380D01*
X100302380Y-87904761D01*
X100278571Y-87880952D01*
X100230952Y-87857142D01*
X100111904Y-87857142D01*
X100064285Y-87880952D01*
X100040476Y-87904761D01*
X100016666Y-87952380D01*
X100016666Y-88047619D01*
X100040476Y-88095238D01*
X100064285Y-88119047D01*
X100111904Y-88142857D01*
X99826190Y-86319047D02*
X100230952Y-86319047D01*
X100278571Y-86295238D01*
X100302380Y-86271428D01*
X100326190Y-86223809D01*
X100326190Y-86128571D01*
X100302380Y-86080952D01*
X100278571Y-86057142D01*
X100230952Y-86033333D01*
X99826190Y-86033333D01*
X100326190Y-85533333D02*
X100326190Y-85819047D01*
X100326190Y-85676190D02*
X99826190Y-85676190D01*
X99897619Y-85723809D01*
X99945238Y-85771428D01*
X99969047Y-85819047D01*
X100326190Y-85057142D02*
X100326190Y-85342857D01*
X100326190Y-85200000D02*
X99826190Y-85200000D01*
X99897619Y-85247619D01*
X99945238Y-85295238D01*
X99969047Y-85342857D01*
X95826190Y-94719047D02*
X96230952Y-94719047D01*
X96278571Y-94695238D01*
X96302380Y-94671428D01*
X96326190Y-94623809D01*
X96326190Y-94528571D01*
X96302380Y-94480952D01*
X96278571Y-94457142D01*
X96230952Y-94433333D01*
X95826190Y-94433333D01*
X96326190Y-93933333D02*
X96326190Y-94219047D01*
X96326190Y-94076190D02*
X95826190Y-94076190D01*
X95897619Y-94123809D01*
X95945238Y-94171428D01*
X95969047Y-94219047D01*
X95826190Y-93623809D02*
X95826190Y-93576190D01*
X95850000Y-93528571D01*
X95873809Y-93504761D01*
X95921428Y-93480952D01*
X96016666Y-93457142D01*
X96135714Y-93457142D01*
X96230952Y-93480952D01*
X96278571Y-93504761D01*
X96302380Y-93528571D01*
X96326190Y-93576190D01*
X96326190Y-93623809D01*
X96302380Y-93671428D01*
X96278571Y-93695238D01*
X96230952Y-93719047D01*
X96135714Y-93742857D01*
X96016666Y-93742857D01*
X95921428Y-93719047D01*
X95873809Y-93695238D01*
X95850000Y-93671428D01*
X95826190Y-93623809D01*
X95826190Y-88880952D02*
X96230952Y-88880952D01*
X96278571Y-88857142D01*
X96302380Y-88833333D01*
X96326190Y-88785714D01*
X96326190Y-88690476D01*
X96302380Y-88642857D01*
X96278571Y-88619047D01*
X96230952Y-88595238D01*
X95826190Y-88595238D01*
X95826190Y-88142857D02*
X95826190Y-88238095D01*
X95850000Y-88285714D01*
X95873809Y-88309523D01*
X95945238Y-88357142D01*
X96040476Y-88380952D01*
X96230952Y-88380952D01*
X96278571Y-88357142D01*
X96302380Y-88333333D01*
X96326190Y-88285714D01*
X96326190Y-88190476D01*
X96302380Y-88142857D01*
X96278571Y-88119047D01*
X96230952Y-88095238D01*
X96111904Y-88095238D01*
X96064285Y-88119047D01*
X96040476Y-88142857D01*
X96016666Y-88190476D01*
X96016666Y-88285714D01*
X96040476Y-88333333D01*
X96064285Y-88357142D01*
X96111904Y-88380952D01*
D14*
X85914285Y-109280952D02*
X85914285Y-108880952D01*
X86009523Y-108880952D01*
X86066666Y-108900000D01*
X86104761Y-108938095D01*
X86123809Y-108976190D01*
X86142857Y-109052380D01*
X86142857Y-109109523D01*
X86123809Y-109185714D01*
X86104761Y-109223809D01*
X86066666Y-109261904D01*
X86009523Y-109280952D01*
X85914285Y-109280952D01*
X86523809Y-109280952D02*
X86295238Y-109280952D01*
X86409523Y-109280952D02*
X86409523Y-108880952D01*
X86371428Y-108938095D01*
X86333333Y-108976190D01*
X86295238Y-108995238D01*
X86904761Y-109280952D02*
X86676190Y-109280952D01*
X86790476Y-109280952D02*
X86790476Y-108880952D01*
X86752380Y-108938095D01*
X86714285Y-108976190D01*
X86676190Y-108995238D01*
X107314285Y-96780952D02*
X107314285Y-96380952D01*
X107409523Y-96380952D01*
X107466666Y-96400000D01*
X107504761Y-96438095D01*
X107523809Y-96476190D01*
X107542857Y-96552380D01*
X107542857Y-96609523D01*
X107523809Y-96685714D01*
X107504761Y-96723809D01*
X107466666Y-96761904D01*
X107409523Y-96780952D01*
X107314285Y-96780952D01*
X107923809Y-96780952D02*
X107695238Y-96780952D01*
X107809523Y-96780952D02*
X107809523Y-96380952D01*
X107771428Y-96438095D01*
X107733333Y-96476190D01*
X107695238Y-96495238D01*
X108076190Y-96419047D02*
X108095238Y-96400000D01*
X108133333Y-96380952D01*
X108228571Y-96380952D01*
X108266666Y-96400000D01*
X108285714Y-96419047D01*
X108304761Y-96457142D01*
X108304761Y-96495238D01*
X108285714Y-96552380D01*
X108057142Y-96780952D01*
X108304761Y-96780952D01*
X107285714Y-98780952D02*
X107285714Y-98380952D01*
X107380952Y-98380952D01*
X107438095Y-98400000D01*
X107476190Y-98438095D01*
X107495238Y-98476190D01*
X107514285Y-98552380D01*
X107514285Y-98609523D01*
X107495238Y-98685714D01*
X107476190Y-98723809D01*
X107438095Y-98761904D01*
X107380952Y-98780952D01*
X107285714Y-98780952D01*
X107685714Y-98780952D02*
X107685714Y-98380952D01*
X107914285Y-98780952D01*
X107914285Y-98380952D01*
X108104761Y-98780952D02*
X108104761Y-98380952D01*
X108257142Y-98380952D01*
X108295238Y-98400000D01*
X108314285Y-98419047D01*
X108333333Y-98457142D01*
X108333333Y-98514285D01*
X108314285Y-98552380D01*
X108295238Y-98571428D01*
X108257142Y-98590476D01*
X108104761Y-98590476D01*
X107314285Y-94280952D02*
X107314285Y-93880952D01*
X107409523Y-93880952D01*
X107466666Y-93900000D01*
X107504761Y-93938095D01*
X107523809Y-93976190D01*
X107542857Y-94052380D01*
X107542857Y-94109523D01*
X107523809Y-94185714D01*
X107504761Y-94223809D01*
X107466666Y-94261904D01*
X107409523Y-94280952D01*
X107314285Y-94280952D01*
X107923809Y-94280952D02*
X107695238Y-94280952D01*
X107809523Y-94280952D02*
X107809523Y-93880952D01*
X107771428Y-93938095D01*
X107733333Y-93976190D01*
X107695238Y-93995238D01*
X108057142Y-93880952D02*
X108304761Y-93880952D01*
X108171428Y-94033333D01*
X108228571Y-94033333D01*
X108266666Y-94052380D01*
X108285714Y-94071428D01*
X108304761Y-94109523D01*
X108304761Y-94204761D01*
X108285714Y-94242857D01*
X108266666Y-94261904D01*
X108228571Y-94280952D01*
X108114285Y-94280952D01*
X108076190Y-94261904D01*
X108057142Y-94242857D01*
X107285714Y-96280952D02*
X107285714Y-95880952D01*
X107380952Y-95880952D01*
X107438095Y-95900000D01*
X107476190Y-95938095D01*
X107495238Y-95976190D01*
X107514285Y-96052380D01*
X107514285Y-96109523D01*
X107495238Y-96185714D01*
X107476190Y-96223809D01*
X107438095Y-96261904D01*
X107380952Y-96280952D01*
X107285714Y-96280952D01*
X107685714Y-96280952D02*
X107685714Y-95880952D01*
X107914285Y-96280952D01*
X107914285Y-95880952D01*
X108104761Y-96280952D02*
X108104761Y-95880952D01*
X108257142Y-95880952D01*
X108295238Y-95900000D01*
X108314285Y-95919047D01*
X108333333Y-95957142D01*
X108333333Y-96014285D01*
X108314285Y-96052380D01*
X108295238Y-96071428D01*
X108257142Y-96090476D01*
X108104761Y-96090476D01*
D12*
X123026190Y-90419047D02*
X123430952Y-90419047D01*
X123478571Y-90395238D01*
X123502380Y-90371428D01*
X123526190Y-90323809D01*
X123526190Y-90228571D01*
X123502380Y-90180952D01*
X123478571Y-90157142D01*
X123430952Y-90133333D01*
X123026190Y-90133333D01*
X123026190Y-89942857D02*
X123026190Y-89633333D01*
X123216666Y-89800000D01*
X123216666Y-89728571D01*
X123240476Y-89680952D01*
X123264285Y-89657142D01*
X123311904Y-89633333D01*
X123430952Y-89633333D01*
X123478571Y-89657142D01*
X123502380Y-89680952D01*
X123526190Y-89728571D01*
X123526190Y-89871428D01*
X123502380Y-89919047D01*
X123478571Y-89942857D01*
X123526190Y-89157142D02*
X123526190Y-89442857D01*
X123526190Y-89300000D02*
X123026190Y-89300000D01*
X123097619Y-89347619D01*
X123145238Y-89395238D01*
X123169047Y-89442857D01*
X123026190Y-101819047D02*
X123430952Y-101819047D01*
X123478571Y-101795238D01*
X123502380Y-101771428D01*
X123526190Y-101723809D01*
X123526190Y-101628571D01*
X123502380Y-101580952D01*
X123478571Y-101557142D01*
X123430952Y-101533333D01*
X123026190Y-101533333D01*
X123526190Y-101033333D02*
X123526190Y-101319047D01*
X123526190Y-101176190D02*
X123026190Y-101176190D01*
X123097619Y-101223809D01*
X123145238Y-101271428D01*
X123169047Y-101319047D01*
X123192857Y-100604761D02*
X123526190Y-100604761D01*
X123002380Y-100723809D02*
X123359523Y-100842857D01*
X123359523Y-100533333D01*
X123026190Y-98019047D02*
X123430952Y-98019047D01*
X123478571Y-97995238D01*
X123502380Y-97971428D01*
X123526190Y-97923809D01*
X123526190Y-97828571D01*
X123502380Y-97780952D01*
X123478571Y-97757142D01*
X123430952Y-97733333D01*
X123026190Y-97733333D01*
X123526190Y-97233333D02*
X123526190Y-97519047D01*
X123526190Y-97376190D02*
X123026190Y-97376190D01*
X123097619Y-97423809D01*
X123145238Y-97471428D01*
X123169047Y-97519047D01*
X123026190Y-97066666D02*
X123026190Y-96757142D01*
X123216666Y-96923809D01*
X123216666Y-96852380D01*
X123240476Y-96804761D01*
X123264285Y-96780952D01*
X123311904Y-96757142D01*
X123430952Y-96757142D01*
X123478571Y-96780952D01*
X123502380Y-96804761D01*
X123526190Y-96852380D01*
X123526190Y-96995238D01*
X123502380Y-97042857D01*
X123478571Y-97066666D01*
X61626190Y-97919047D02*
X62030952Y-97919047D01*
X62078571Y-97895238D01*
X62102380Y-97871428D01*
X62126190Y-97823809D01*
X62126190Y-97728571D01*
X62102380Y-97680952D01*
X62078571Y-97657142D01*
X62030952Y-97633333D01*
X61626190Y-97633333D01*
X62126190Y-97133333D02*
X62126190Y-97419047D01*
X62126190Y-97276190D02*
X61626190Y-97276190D01*
X61697619Y-97323809D01*
X61745238Y-97371428D01*
X61769047Y-97419047D01*
X61626190Y-96680952D02*
X61626190Y-96919047D01*
X61864285Y-96942857D01*
X61840476Y-96919047D01*
X61816666Y-96871428D01*
X61816666Y-96752380D01*
X61840476Y-96704761D01*
X61864285Y-96680952D01*
X61911904Y-96657142D01*
X62030952Y-96657142D01*
X62078571Y-96680952D01*
X62102380Y-96704761D01*
X62126190Y-96752380D01*
X62126190Y-96871428D01*
X62102380Y-96919047D01*
X62078571Y-96942857D01*
D18*
X61566666Y-92383333D02*
X61566666Y-92716666D01*
X61333333Y-92016666D02*
X61566666Y-92383333D01*
X61800000Y-92016666D01*
X62400000Y-92716666D02*
X62000000Y-92716666D01*
X62200000Y-92716666D02*
X62200000Y-92016666D01*
X62133333Y-92116666D01*
X62066666Y-92183333D01*
X62000000Y-92216666D01*
D11*
X111461904Y-91652380D02*
X111461904Y-92461904D01*
X111509523Y-92557142D01*
X111557142Y-92604761D01*
X111652380Y-92652380D01*
X111842857Y-92652380D01*
X111938095Y-92604761D01*
X111985714Y-92557142D01*
X112033333Y-92461904D01*
X112033333Y-91652380D01*
X113033333Y-92652380D02*
X112461904Y-92652380D01*
X112747619Y-92652380D02*
X112747619Y-91652380D01*
X112652380Y-91795238D01*
X112557142Y-91890476D01*
X112461904Y-91938095D01*
X113509523Y-92652380D02*
X113700000Y-92652380D01*
X113795238Y-92604761D01*
X113842857Y-92557142D01*
X113938095Y-92414285D01*
X113985714Y-92223809D01*
X113985714Y-91842857D01*
X113938095Y-91747619D01*
X113890476Y-91700000D01*
X113795238Y-91652380D01*
X113604761Y-91652380D01*
X113509523Y-91700000D01*
X113461904Y-91747619D01*
X113414285Y-91842857D01*
X113414285Y-92080952D01*
X113461904Y-92176190D01*
X113509523Y-92223809D01*
X113604761Y-92271428D01*
X113795238Y-92271428D01*
X113890476Y-92223809D01*
X113938095Y-92176190D01*
X113985714Y-92080952D01*
X111938095Y-98252380D02*
X111938095Y-99061904D01*
X111985714Y-99157142D01*
X112033333Y-99204761D01*
X112128571Y-99252380D01*
X112319047Y-99252380D01*
X112414285Y-99204761D01*
X112461904Y-99157142D01*
X112509523Y-99061904D01*
X112509523Y-98252380D01*
X113461904Y-98252380D02*
X112985714Y-98252380D01*
X112938095Y-98728571D01*
X112985714Y-98680952D01*
X113080952Y-98633333D01*
X113319047Y-98633333D01*
X113414285Y-98680952D01*
X113461904Y-98728571D01*
X113509523Y-98823809D01*
X113509523Y-99061904D01*
X113461904Y-99157142D01*
X113414285Y-99204761D01*
X113319047Y-99252380D01*
X113080952Y-99252380D01*
X112985714Y-99204761D01*
X112938095Y-99157142D01*
D12*
X65280952Y-109626190D02*
X65280952Y-110030952D01*
X65304761Y-110078571D01*
X65328571Y-110102380D01*
X65376190Y-110126190D01*
X65471428Y-110126190D01*
X65519047Y-110102380D01*
X65542857Y-110078571D01*
X65566666Y-110030952D01*
X65566666Y-109626190D01*
X65757142Y-109626190D02*
X66066666Y-109626190D01*
X65900000Y-109816666D01*
X65971428Y-109816666D01*
X66019047Y-109840476D01*
X66042857Y-109864285D01*
X66066666Y-109911904D01*
X66066666Y-110030952D01*
X66042857Y-110078571D01*
X66019047Y-110102380D01*
X65971428Y-110126190D01*
X65828571Y-110126190D01*
X65780952Y-110102380D01*
X65757142Y-110078571D01*
X66495238Y-109626190D02*
X66400000Y-109626190D01*
X66352380Y-109650000D01*
X66328571Y-109673809D01*
X66280952Y-109745238D01*
X66257142Y-109840476D01*
X66257142Y-110030952D01*
X66280952Y-110078571D01*
X66304761Y-110102380D01*
X66352380Y-110126190D01*
X66447619Y-110126190D01*
X66495238Y-110102380D01*
X66519047Y-110078571D01*
X66542857Y-110030952D01*
X66542857Y-109911904D01*
X66519047Y-109864285D01*
X66495238Y-109840476D01*
X66447619Y-109816666D01*
X66352380Y-109816666D01*
X66304761Y-109840476D01*
X66280952Y-109864285D01*
X66257142Y-109911904D01*
X65519047Y-114726190D02*
X65519047Y-115130952D01*
X65542857Y-115178571D01*
X65566666Y-115202380D01*
X65614285Y-115226190D01*
X65709523Y-115226190D01*
X65757142Y-115202380D01*
X65780952Y-115178571D01*
X65804761Y-115130952D01*
X65804761Y-114726190D01*
X66114285Y-114940476D02*
X66066666Y-114916666D01*
X66042857Y-114892857D01*
X66019047Y-114845238D01*
X66019047Y-114821428D01*
X66042857Y-114773809D01*
X66066666Y-114750000D01*
X66114285Y-114726190D01*
X66209523Y-114726190D01*
X66257142Y-114750000D01*
X66280952Y-114773809D01*
X66304761Y-114821428D01*
X66304761Y-114845238D01*
X66280952Y-114892857D01*
X66257142Y-114916666D01*
X66209523Y-114940476D01*
X66114285Y-114940476D01*
X66066666Y-114964285D01*
X66042857Y-114988095D01*
X66019047Y-115035714D01*
X66019047Y-115130952D01*
X66042857Y-115178571D01*
X66066666Y-115202380D01*
X66114285Y-115226190D01*
X66209523Y-115226190D01*
X66257142Y-115202380D01*
X66280952Y-115178571D01*
X66304761Y-115130952D01*
X66304761Y-115035714D01*
X66280952Y-114988095D01*
X66257142Y-114964285D01*
X66209523Y-114940476D01*
D16*
X122439285Y-81913095D02*
X122355952Y-81794047D01*
X122296428Y-81913095D02*
X122296428Y-81663095D01*
X122391666Y-81663095D01*
X122415476Y-81675000D01*
X122427380Y-81686904D01*
X122439285Y-81710714D01*
X122439285Y-81746428D01*
X122427380Y-81770238D01*
X122415476Y-81782142D01*
X122391666Y-81794047D01*
X122296428Y-81794047D01*
X122653571Y-81746428D02*
X122653571Y-81913095D01*
X122594047Y-81651190D02*
X122534523Y-81829761D01*
X122689285Y-81829761D01*
X122760714Y-81663095D02*
X122927380Y-81663095D01*
X122820238Y-81913095D01*
X122439285Y-109313095D02*
X122355952Y-109194047D01*
X122296428Y-109313095D02*
X122296428Y-109063095D01*
X122391666Y-109063095D01*
X122415476Y-109075000D01*
X122427380Y-109086904D01*
X122439285Y-109110714D01*
X122439285Y-109146428D01*
X122427380Y-109170238D01*
X122415476Y-109182142D01*
X122391666Y-109194047D01*
X122296428Y-109194047D01*
X122653571Y-109146428D02*
X122653571Y-109313095D01*
X122594047Y-109051190D02*
X122534523Y-109229761D01*
X122689285Y-109229761D01*
X122891666Y-109063095D02*
X122844047Y-109063095D01*
X122820238Y-109075000D01*
X122808333Y-109086904D01*
X122784523Y-109122619D01*
X122772619Y-109170238D01*
X122772619Y-109265476D01*
X122784523Y-109289285D01*
X122796428Y-109301190D01*
X122820238Y-109313095D01*
X122867857Y-109313095D01*
X122891666Y-109301190D01*
X122903571Y-109289285D01*
X122915476Y-109265476D01*
X122915476Y-109205952D01*
X122903571Y-109182142D01*
X122891666Y-109170238D01*
X122867857Y-109158333D01*
X122820238Y-109158333D01*
X122796428Y-109170238D01*
X122784523Y-109182142D01*
X122772619Y-109205952D01*
X86463095Y-107810714D02*
X86344047Y-107894047D01*
X86463095Y-107953571D02*
X86213095Y-107953571D01*
X86213095Y-107858333D01*
X86225000Y-107834523D01*
X86236904Y-107822619D01*
X86260714Y-107810714D01*
X86296428Y-107810714D01*
X86320238Y-107822619D01*
X86332142Y-107834523D01*
X86344047Y-107858333D01*
X86344047Y-107953571D01*
X86296428Y-107596428D02*
X86463095Y-107596428D01*
X86201190Y-107655952D02*
X86379761Y-107715476D01*
X86379761Y-107560714D01*
X86296428Y-107358333D02*
X86463095Y-107358333D01*
X86201190Y-107417857D02*
X86379761Y-107477380D01*
X86379761Y-107322619D01*
X87413095Y-107810714D02*
X87294047Y-107894047D01*
X87413095Y-107953571D02*
X87163095Y-107953571D01*
X87163095Y-107858333D01*
X87175000Y-107834523D01*
X87186904Y-107822619D01*
X87210714Y-107810714D01*
X87246428Y-107810714D01*
X87270238Y-107822619D01*
X87282142Y-107834523D01*
X87294047Y-107858333D01*
X87294047Y-107953571D01*
X87163095Y-107727380D02*
X87163095Y-107572619D01*
X87258333Y-107655952D01*
X87258333Y-107620238D01*
X87270238Y-107596428D01*
X87282142Y-107584523D01*
X87305952Y-107572619D01*
X87365476Y-107572619D01*
X87389285Y-107584523D01*
X87401190Y-107596428D01*
X87413095Y-107620238D01*
X87413095Y-107691666D01*
X87401190Y-107715476D01*
X87389285Y-107727380D01*
X87270238Y-107429761D02*
X87258333Y-107453571D01*
X87246428Y-107465476D01*
X87222619Y-107477380D01*
X87210714Y-107477380D01*
X87186904Y-107465476D01*
X87175000Y-107453571D01*
X87163095Y-107429761D01*
X87163095Y-107382142D01*
X87175000Y-107358333D01*
X87186904Y-107346428D01*
X87210714Y-107334523D01*
X87222619Y-107334523D01*
X87246428Y-107346428D01*
X87258333Y-107358333D01*
X87270238Y-107382142D01*
X87270238Y-107429761D01*
X87282142Y-107453571D01*
X87294047Y-107465476D01*
X87317857Y-107477380D01*
X87365476Y-107477380D01*
X87389285Y-107465476D01*
X87401190Y-107453571D01*
X87413095Y-107429761D01*
X87413095Y-107382142D01*
X87401190Y-107358333D01*
X87389285Y-107346428D01*
X87365476Y-107334523D01*
X87317857Y-107334523D01*
X87294047Y-107346428D01*
X87282142Y-107358333D01*
X87270238Y-107382142D01*
X103113095Y-95060714D02*
X102994047Y-95144047D01*
X103113095Y-95203571D02*
X102863095Y-95203571D01*
X102863095Y-95108333D01*
X102875000Y-95084523D01*
X102886904Y-95072619D01*
X102910714Y-95060714D01*
X102946428Y-95060714D01*
X102970238Y-95072619D01*
X102982142Y-95084523D01*
X102994047Y-95108333D01*
X102994047Y-95203571D01*
X102946428Y-94846428D02*
X103113095Y-94846428D01*
X102851190Y-94905952D02*
X103029761Y-94965476D01*
X103029761Y-94810714D01*
X102863095Y-94739285D02*
X102863095Y-94584523D01*
X102958333Y-94667857D01*
X102958333Y-94632142D01*
X102970238Y-94608333D01*
X102982142Y-94596428D01*
X103005952Y-94584523D01*
X103065476Y-94584523D01*
X103089285Y-94596428D01*
X103101190Y-94608333D01*
X103113095Y-94632142D01*
X103113095Y-94703571D01*
X103101190Y-94727380D01*
X103089285Y-94739285D01*
X103113095Y-96910714D02*
X102994047Y-96994047D01*
X103113095Y-97053571D02*
X102863095Y-97053571D01*
X102863095Y-96958333D01*
X102875000Y-96934523D01*
X102886904Y-96922619D01*
X102910714Y-96910714D01*
X102946428Y-96910714D01*
X102970238Y-96922619D01*
X102982142Y-96934523D01*
X102994047Y-96958333D01*
X102994047Y-97053571D01*
X102863095Y-96827380D02*
X102863095Y-96672619D01*
X102958333Y-96755952D01*
X102958333Y-96720238D01*
X102970238Y-96696428D01*
X102982142Y-96684523D01*
X103005952Y-96672619D01*
X103065476Y-96672619D01*
X103089285Y-96684523D01*
X103101190Y-96696428D01*
X103113095Y-96720238D01*
X103113095Y-96791666D01*
X103101190Y-96815476D01*
X103089285Y-96827380D01*
X103113095Y-96553571D02*
X103113095Y-96505952D01*
X103101190Y-96482142D01*
X103089285Y-96470238D01*
X103053571Y-96446428D01*
X103005952Y-96434523D01*
X102910714Y-96434523D01*
X102886904Y-96446428D01*
X102875000Y-96458333D01*
X102863095Y-96482142D01*
X102863095Y-96529761D01*
X102875000Y-96553571D01*
X102886904Y-96565476D01*
X102910714Y-96577380D01*
X102970238Y-96577380D01*
X102994047Y-96565476D01*
X103005952Y-96553571D01*
X103017857Y-96529761D01*
X103017857Y-96482142D01*
X103005952Y-96458333D01*
X102994047Y-96446428D01*
X102970238Y-96434523D01*
D11*
X83152380Y-96738095D02*
X83961904Y-96738095D01*
X84057142Y-96690476D01*
X84104761Y-96642857D01*
X84152380Y-96547619D01*
X84152380Y-96357142D01*
X84104761Y-96261904D01*
X84057142Y-96214285D01*
X83961904Y-96166666D01*
X83152380Y-96166666D01*
X83152380Y-95785714D02*
X83152380Y-95166666D01*
X83533333Y-95500000D01*
X83533333Y-95357142D01*
X83580952Y-95261904D01*
X83628571Y-95214285D01*
X83723809Y-95166666D01*
X83961904Y-95166666D01*
X84057142Y-95214285D01*
X84104761Y-95261904D01*
X84152380Y-95357142D01*
X84152380Y-95642857D01*
X84104761Y-95738095D01*
X84057142Y-95785714D01*
X83152380Y-94547619D02*
X83152380Y-94452380D01*
X83200000Y-94357142D01*
X83247619Y-94309523D01*
X83342857Y-94261904D01*
X83533333Y-94214285D01*
X83771428Y-94214285D01*
X83961904Y-94261904D01*
X84057142Y-94309523D01*
X84104761Y-94357142D01*
X84152380Y-94452380D01*
X84152380Y-94547619D01*
X84104761Y-94642857D01*
X84057142Y-94690476D01*
X83961904Y-94738095D01*
X83771428Y-94785714D01*
X83533333Y-94785714D01*
X83342857Y-94738095D01*
X83247619Y-94690476D01*
X83200000Y-94642857D01*
X83152380Y-94547619D01*
D16*
X117354285Y-101689285D02*
X117342380Y-101701190D01*
X117306666Y-101713095D01*
X117282857Y-101713095D01*
X117247142Y-101701190D01*
X117223333Y-101677380D01*
X117211428Y-101653571D01*
X117199523Y-101605952D01*
X117199523Y-101570238D01*
X117211428Y-101522619D01*
X117223333Y-101498809D01*
X117247142Y-101475000D01*
X117282857Y-101463095D01*
X117306666Y-101463095D01*
X117342380Y-101475000D01*
X117354285Y-101486904D01*
X117449523Y-101486904D02*
X117461428Y-101475000D01*
X117485238Y-101463095D01*
X117544761Y-101463095D01*
X117568571Y-101475000D01*
X117580476Y-101486904D01*
X117592380Y-101510714D01*
X117592380Y-101534523D01*
X117580476Y-101570238D01*
X117437619Y-101713095D01*
X117592380Y-101713095D01*
X117687619Y-101486904D02*
X117699523Y-101475000D01*
X117723333Y-101463095D01*
X117782857Y-101463095D01*
X117806666Y-101475000D01*
X117818571Y-101486904D01*
X117830476Y-101510714D01*
X117830476Y-101534523D01*
X117818571Y-101570238D01*
X117675714Y-101713095D01*
X117830476Y-101713095D01*
X107739285Y-100613095D02*
X107655952Y-100494047D01*
X107596428Y-100613095D02*
X107596428Y-100363095D01*
X107691666Y-100363095D01*
X107715476Y-100375000D01*
X107727380Y-100386904D01*
X107739285Y-100410714D01*
X107739285Y-100446428D01*
X107727380Y-100470238D01*
X107715476Y-100482142D01*
X107691666Y-100494047D01*
X107596428Y-100494047D01*
X107953571Y-100446428D02*
X107953571Y-100613095D01*
X107894047Y-100351190D02*
X107834523Y-100529761D01*
X107989285Y-100529761D01*
X108215476Y-100613095D02*
X108072619Y-100613095D01*
X108144047Y-100613095D02*
X108144047Y-100363095D01*
X108120238Y-100398809D01*
X108096428Y-100422619D01*
X108072619Y-100434523D01*
X117339285Y-90613095D02*
X117255952Y-90494047D01*
X117196428Y-90613095D02*
X117196428Y-90363095D01*
X117291666Y-90363095D01*
X117315476Y-90375000D01*
X117327380Y-90386904D01*
X117339285Y-90410714D01*
X117339285Y-90446428D01*
X117327380Y-90470238D01*
X117315476Y-90482142D01*
X117291666Y-90494047D01*
X117196428Y-90494047D01*
X117553571Y-90446428D02*
X117553571Y-90613095D01*
X117494047Y-90351190D02*
X117434523Y-90529761D01*
X117589285Y-90529761D01*
X117672619Y-90386904D02*
X117684523Y-90375000D01*
X117708333Y-90363095D01*
X117767857Y-90363095D01*
X117791666Y-90375000D01*
X117803571Y-90386904D01*
X117815476Y-90410714D01*
X117815476Y-90434523D01*
X117803571Y-90470238D01*
X117660714Y-90613095D01*
X117815476Y-90613095D01*
X58841666Y-98182142D02*
X58758333Y-98182142D01*
X58758333Y-98313095D02*
X58758333Y-98063095D01*
X58877380Y-98063095D01*
X59055952Y-98182142D02*
X59091666Y-98194047D01*
X59103571Y-98205952D01*
X59115476Y-98229761D01*
X59115476Y-98265476D01*
X59103571Y-98289285D01*
X59091666Y-98301190D01*
X59067857Y-98313095D01*
X58972619Y-98313095D01*
X58972619Y-98063095D01*
X59055952Y-98063095D01*
X59079761Y-98075000D01*
X59091666Y-98086904D01*
X59103571Y-98110714D01*
X59103571Y-98134523D01*
X59091666Y-98158333D01*
X59079761Y-98170238D01*
X59055952Y-98182142D01*
X58972619Y-98182142D01*
X59353571Y-98313095D02*
X59210714Y-98313095D01*
X59282142Y-98313095D02*
X59282142Y-98063095D01*
X59258333Y-98098809D01*
X59234523Y-98122619D01*
X59210714Y-98134523D01*
X125789285Y-90460714D02*
X125801190Y-90472619D01*
X125813095Y-90508333D01*
X125813095Y-90532142D01*
X125801190Y-90567857D01*
X125777380Y-90591666D01*
X125753571Y-90603571D01*
X125705952Y-90615476D01*
X125670238Y-90615476D01*
X125622619Y-90603571D01*
X125598809Y-90591666D01*
X125575000Y-90567857D01*
X125563095Y-90532142D01*
X125563095Y-90508333D01*
X125575000Y-90472619D01*
X125586904Y-90460714D01*
X125563095Y-90234523D02*
X125563095Y-90353571D01*
X125682142Y-90365476D01*
X125670238Y-90353571D01*
X125658333Y-90329761D01*
X125658333Y-90270238D01*
X125670238Y-90246428D01*
X125682142Y-90234523D01*
X125705952Y-90222619D01*
X125765476Y-90222619D01*
X125789285Y-90234523D01*
X125801190Y-90246428D01*
X125813095Y-90270238D01*
X125813095Y-90329761D01*
X125801190Y-90353571D01*
X125789285Y-90365476D01*
X125813095Y-90103571D02*
X125813095Y-90055952D01*
X125801190Y-90032142D01*
X125789285Y-90020238D01*
X125753571Y-89996428D01*
X125705952Y-89984523D01*
X125610714Y-89984523D01*
X125586904Y-89996428D01*
X125575000Y-90008333D01*
X125563095Y-90032142D01*
X125563095Y-90079761D01*
X125575000Y-90103571D01*
X125586904Y-90115476D01*
X125610714Y-90127380D01*
X125670238Y-90127380D01*
X125694047Y-90115476D01*
X125705952Y-90103571D01*
X125717857Y-90079761D01*
X125717857Y-90032142D01*
X125705952Y-90008333D01*
X125694047Y-89996428D01*
X125670238Y-89984523D01*
X119689285Y-83560714D02*
X119701190Y-83572619D01*
X119713095Y-83608333D01*
X119713095Y-83632142D01*
X119701190Y-83667857D01*
X119677380Y-83691666D01*
X119653571Y-83703571D01*
X119605952Y-83715476D01*
X119570238Y-83715476D01*
X119522619Y-83703571D01*
X119498809Y-83691666D01*
X119475000Y-83667857D01*
X119463095Y-83632142D01*
X119463095Y-83608333D01*
X119475000Y-83572619D01*
X119486904Y-83560714D01*
X119463095Y-83334523D02*
X119463095Y-83453571D01*
X119582142Y-83465476D01*
X119570238Y-83453571D01*
X119558333Y-83429761D01*
X119558333Y-83370238D01*
X119570238Y-83346428D01*
X119582142Y-83334523D01*
X119605952Y-83322619D01*
X119665476Y-83322619D01*
X119689285Y-83334523D01*
X119701190Y-83346428D01*
X119713095Y-83370238D01*
X119713095Y-83429761D01*
X119701190Y-83453571D01*
X119689285Y-83465476D01*
X119463095Y-83096428D02*
X119463095Y-83215476D01*
X119582142Y-83227380D01*
X119570238Y-83215476D01*
X119558333Y-83191666D01*
X119558333Y-83132142D01*
X119570238Y-83108333D01*
X119582142Y-83096428D01*
X119605952Y-83084523D01*
X119665476Y-83084523D01*
X119689285Y-83096428D01*
X119701190Y-83108333D01*
X119713095Y-83132142D01*
X119713095Y-83191666D01*
X119701190Y-83215476D01*
X119689285Y-83227380D01*
X108439285Y-90510714D02*
X108451190Y-90522619D01*
X108463095Y-90558333D01*
X108463095Y-90582142D01*
X108451190Y-90617857D01*
X108427380Y-90641666D01*
X108403571Y-90653571D01*
X108355952Y-90665476D01*
X108320238Y-90665476D01*
X108272619Y-90653571D01*
X108248809Y-90641666D01*
X108225000Y-90617857D01*
X108213095Y-90582142D01*
X108213095Y-90558333D01*
X108225000Y-90522619D01*
X108236904Y-90510714D01*
X108320238Y-90367857D02*
X108308333Y-90391666D01*
X108296428Y-90403571D01*
X108272619Y-90415476D01*
X108260714Y-90415476D01*
X108236904Y-90403571D01*
X108225000Y-90391666D01*
X108213095Y-90367857D01*
X108213095Y-90320238D01*
X108225000Y-90296428D01*
X108236904Y-90284523D01*
X108260714Y-90272619D01*
X108272619Y-90272619D01*
X108296428Y-90284523D01*
X108308333Y-90296428D01*
X108320238Y-90320238D01*
X108320238Y-90367857D01*
X108332142Y-90391666D01*
X108344047Y-90403571D01*
X108367857Y-90415476D01*
X108415476Y-90415476D01*
X108439285Y-90403571D01*
X108451190Y-90391666D01*
X108463095Y-90367857D01*
X108463095Y-90320238D01*
X108451190Y-90296428D01*
X108439285Y-90284523D01*
X108415476Y-90272619D01*
X108367857Y-90272619D01*
X108344047Y-90284523D01*
X108332142Y-90296428D01*
X108320238Y-90320238D01*
X108296428Y-90058333D02*
X108463095Y-90058333D01*
X108201190Y-90117857D02*
X108379761Y-90177380D01*
X108379761Y-90022619D01*
X117339285Y-100513095D02*
X117255952Y-100394047D01*
X117196428Y-100513095D02*
X117196428Y-100263095D01*
X117291666Y-100263095D01*
X117315476Y-100275000D01*
X117327380Y-100286904D01*
X117339285Y-100310714D01*
X117339285Y-100346428D01*
X117327380Y-100370238D01*
X117315476Y-100382142D01*
X117291666Y-100394047D01*
X117196428Y-100394047D01*
X117422619Y-100263095D02*
X117577380Y-100263095D01*
X117494047Y-100358333D01*
X117529761Y-100358333D01*
X117553571Y-100370238D01*
X117565476Y-100382142D01*
X117577380Y-100405952D01*
X117577380Y-100465476D01*
X117565476Y-100489285D01*
X117553571Y-100501190D01*
X117529761Y-100513095D01*
X117458333Y-100513095D01*
X117434523Y-100501190D01*
X117422619Y-100489285D01*
X117791666Y-100263095D02*
X117744047Y-100263095D01*
X117720238Y-100275000D01*
X117708333Y-100286904D01*
X117684523Y-100322619D01*
X117672619Y-100370238D01*
X117672619Y-100465476D01*
X117684523Y-100489285D01*
X117696428Y-100501190D01*
X117720238Y-100513095D01*
X117767857Y-100513095D01*
X117791666Y-100501190D01*
X117803571Y-100489285D01*
X117815476Y-100465476D01*
X117815476Y-100405952D01*
X117803571Y-100382142D01*
X117791666Y-100370238D01*
X117767857Y-100358333D01*
X117720238Y-100358333D01*
X117696428Y-100370238D01*
X117684523Y-100382142D01*
X117672619Y-100405952D01*
X108463095Y-92410714D02*
X108344047Y-92494047D01*
X108463095Y-92553571D02*
X108213095Y-92553571D01*
X108213095Y-92458333D01*
X108225000Y-92434523D01*
X108236904Y-92422619D01*
X108260714Y-92410714D01*
X108296428Y-92410714D01*
X108320238Y-92422619D01*
X108332142Y-92434523D01*
X108344047Y-92458333D01*
X108344047Y-92553571D01*
X108213095Y-92327380D02*
X108213095Y-92172619D01*
X108308333Y-92255952D01*
X108308333Y-92220238D01*
X108320238Y-92196428D01*
X108332142Y-92184523D01*
X108355952Y-92172619D01*
X108415476Y-92172619D01*
X108439285Y-92184523D01*
X108451190Y-92196428D01*
X108463095Y-92220238D01*
X108463095Y-92291666D01*
X108451190Y-92315476D01*
X108439285Y-92327380D01*
X108213095Y-92089285D02*
X108213095Y-91922619D01*
X108463095Y-92029761D01*
X125413095Y-81560714D02*
X125294047Y-81644047D01*
X125413095Y-81703571D02*
X125163095Y-81703571D01*
X125163095Y-81608333D01*
X125175000Y-81584523D01*
X125186904Y-81572619D01*
X125210714Y-81560714D01*
X125246428Y-81560714D01*
X125270238Y-81572619D01*
X125282142Y-81584523D01*
X125294047Y-81608333D01*
X125294047Y-81703571D01*
X125413095Y-81322619D02*
X125413095Y-81465476D01*
X125413095Y-81394047D02*
X125163095Y-81394047D01*
X125198809Y-81417857D01*
X125222619Y-81441666D01*
X125234523Y-81465476D01*
X125270238Y-81179761D02*
X125258333Y-81203571D01*
X125246428Y-81215476D01*
X125222619Y-81227380D01*
X125210714Y-81227380D01*
X125186904Y-81215476D01*
X125175000Y-81203571D01*
X125163095Y-81179761D01*
X125163095Y-81132142D01*
X125175000Y-81108333D01*
X125186904Y-81096428D01*
X125210714Y-81084523D01*
X125222619Y-81084523D01*
X125246428Y-81096428D01*
X125258333Y-81108333D01*
X125270238Y-81132142D01*
X125270238Y-81179761D01*
X125282142Y-81203571D01*
X125294047Y-81215476D01*
X125317857Y-81227380D01*
X125365476Y-81227380D01*
X125389285Y-81215476D01*
X125401190Y-81203571D01*
X125413095Y-81179761D01*
X125413095Y-81132142D01*
X125401190Y-81108333D01*
X125389285Y-81096428D01*
X125365476Y-81084523D01*
X125317857Y-81084523D01*
X125294047Y-81096428D01*
X125282142Y-81108333D01*
X125270238Y-81132142D01*
X107739285Y-101489285D02*
X107727380Y-101501190D01*
X107691666Y-101513095D01*
X107667857Y-101513095D01*
X107632142Y-101501190D01*
X107608333Y-101477380D01*
X107596428Y-101453571D01*
X107584523Y-101405952D01*
X107584523Y-101370238D01*
X107596428Y-101322619D01*
X107608333Y-101298809D01*
X107632142Y-101275000D01*
X107667857Y-101263095D01*
X107691666Y-101263095D01*
X107727380Y-101275000D01*
X107739285Y-101286904D01*
X107834523Y-101286904D02*
X107846428Y-101275000D01*
X107870238Y-101263095D01*
X107929761Y-101263095D01*
X107953571Y-101275000D01*
X107965476Y-101286904D01*
X107977380Y-101310714D01*
X107977380Y-101334523D01*
X107965476Y-101370238D01*
X107822619Y-101513095D01*
X107977380Y-101513095D01*
X108096428Y-101513095D02*
X108144047Y-101513095D01*
X108167857Y-101501190D01*
X108179761Y-101489285D01*
X108203571Y-101453571D01*
X108215476Y-101405952D01*
X108215476Y-101310714D01*
X108203571Y-101286904D01*
X108191666Y-101275000D01*
X108167857Y-101263095D01*
X108120238Y-101263095D01*
X108096428Y-101275000D01*
X108084523Y-101286904D01*
X108072619Y-101310714D01*
X108072619Y-101370238D01*
X108084523Y-101394047D01*
X108096428Y-101405952D01*
X108120238Y-101417857D01*
X108167857Y-101417857D01*
X108191666Y-101405952D01*
X108203571Y-101394047D01*
X108215476Y-101370238D01*
X126039285Y-103689285D02*
X126027380Y-103701190D01*
X125991666Y-103713095D01*
X125967857Y-103713095D01*
X125932142Y-103701190D01*
X125908333Y-103677380D01*
X125896428Y-103653571D01*
X125884523Y-103605952D01*
X125884523Y-103570238D01*
X125896428Y-103522619D01*
X125908333Y-103498809D01*
X125932142Y-103475000D01*
X125967857Y-103463095D01*
X125991666Y-103463095D01*
X126027380Y-103475000D01*
X126039285Y-103486904D01*
X126253571Y-103546428D02*
X126253571Y-103713095D01*
X126194047Y-103451190D02*
X126134523Y-103629761D01*
X126289285Y-103629761D01*
X126491666Y-103463095D02*
X126444047Y-103463095D01*
X126420238Y-103475000D01*
X126408333Y-103486904D01*
X126384523Y-103522619D01*
X126372619Y-103570238D01*
X126372619Y-103665476D01*
X126384523Y-103689285D01*
X126396428Y-103701190D01*
X126420238Y-103713095D01*
X126467857Y-103713095D01*
X126491666Y-103701190D01*
X126503571Y-103689285D01*
X126515476Y-103665476D01*
X126515476Y-103605952D01*
X126503571Y-103582142D01*
X126491666Y-103570238D01*
X126467857Y-103558333D01*
X126420238Y-103558333D01*
X126396428Y-103570238D01*
X126384523Y-103582142D01*
X126372619Y-103605952D01*
X117339285Y-89689285D02*
X117327380Y-89701190D01*
X117291666Y-89713095D01*
X117267857Y-89713095D01*
X117232142Y-89701190D01*
X117208333Y-89677380D01*
X117196428Y-89653571D01*
X117184523Y-89605952D01*
X117184523Y-89570238D01*
X117196428Y-89522619D01*
X117208333Y-89498809D01*
X117232142Y-89475000D01*
X117267857Y-89463095D01*
X117291666Y-89463095D01*
X117327380Y-89475000D01*
X117339285Y-89486904D01*
X117565476Y-89463095D02*
X117446428Y-89463095D01*
X117434523Y-89582142D01*
X117446428Y-89570238D01*
X117470238Y-89558333D01*
X117529761Y-89558333D01*
X117553571Y-89570238D01*
X117565476Y-89582142D01*
X117577380Y-89605952D01*
X117577380Y-89665476D01*
X117565476Y-89689285D01*
X117553571Y-89701190D01*
X117529761Y-89713095D01*
X117470238Y-89713095D01*
X117446428Y-89701190D01*
X117434523Y-89689285D01*
X117791666Y-89546428D02*
X117791666Y-89713095D01*
X117732142Y-89451190D02*
X117672619Y-89629761D01*
X117827380Y-89629761D01*
X120239285Y-87489285D02*
X120227380Y-87501190D01*
X120191666Y-87513095D01*
X120167857Y-87513095D01*
X120132142Y-87501190D01*
X120108333Y-87477380D01*
X120096428Y-87453571D01*
X120084523Y-87405952D01*
X120084523Y-87370238D01*
X120096428Y-87322619D01*
X120108333Y-87298809D01*
X120132142Y-87275000D01*
X120167857Y-87263095D01*
X120191666Y-87263095D01*
X120227380Y-87275000D01*
X120239285Y-87286904D01*
X120465476Y-87263095D02*
X120346428Y-87263095D01*
X120334523Y-87382142D01*
X120346428Y-87370238D01*
X120370238Y-87358333D01*
X120429761Y-87358333D01*
X120453571Y-87370238D01*
X120465476Y-87382142D01*
X120477380Y-87405952D01*
X120477380Y-87465476D01*
X120465476Y-87489285D01*
X120453571Y-87501190D01*
X120429761Y-87513095D01*
X120370238Y-87513095D01*
X120346428Y-87501190D01*
X120334523Y-87489285D01*
X120560714Y-87263095D02*
X120727380Y-87263095D01*
X120620238Y-87513095D01*
X59439285Y-93310714D02*
X59451190Y-93322619D01*
X59463095Y-93358333D01*
X59463095Y-93382142D01*
X59451190Y-93417857D01*
X59427380Y-93441666D01*
X59403571Y-93453571D01*
X59355952Y-93465476D01*
X59320238Y-93465476D01*
X59272619Y-93453571D01*
X59248809Y-93441666D01*
X59225000Y-93417857D01*
X59213095Y-93382142D01*
X59213095Y-93358333D01*
X59225000Y-93322619D01*
X59236904Y-93310714D01*
X59463095Y-93072619D02*
X59463095Y-93215476D01*
X59463095Y-93144047D02*
X59213095Y-93144047D01*
X59248809Y-93167857D01*
X59272619Y-93191666D01*
X59284523Y-93215476D01*
X59236904Y-92977380D02*
X59225000Y-92965476D01*
X59213095Y-92941666D01*
X59213095Y-92882142D01*
X59225000Y-92858333D01*
X59236904Y-92846428D01*
X59260714Y-92834523D01*
X59284523Y-92834523D01*
X59320238Y-92846428D01*
X59463095Y-92989285D01*
X59463095Y-92834523D01*
X61739285Y-90289285D02*
X61727380Y-90301190D01*
X61691666Y-90313095D01*
X61667857Y-90313095D01*
X61632142Y-90301190D01*
X61608333Y-90277380D01*
X61596428Y-90253571D01*
X61584523Y-90205952D01*
X61584523Y-90170238D01*
X61596428Y-90122619D01*
X61608333Y-90098809D01*
X61632142Y-90075000D01*
X61667857Y-90063095D01*
X61691666Y-90063095D01*
X61727380Y-90075000D01*
X61739285Y-90086904D01*
X61977380Y-90313095D02*
X61834523Y-90313095D01*
X61905952Y-90313095D02*
X61905952Y-90063095D01*
X61882142Y-90098809D01*
X61858333Y-90122619D01*
X61834523Y-90134523D01*
X62215476Y-90313095D02*
X62072619Y-90313095D01*
X62144047Y-90313095D02*
X62144047Y-90063095D01*
X62120238Y-90098809D01*
X62096428Y-90122619D01*
X62072619Y-90134523D01*
X59008333Y-99263095D02*
X58925000Y-99144047D01*
X58865476Y-99263095D02*
X58865476Y-99013095D01*
X58960714Y-99013095D01*
X58984523Y-99025000D01*
X58996428Y-99036904D01*
X59008333Y-99060714D01*
X59008333Y-99096428D01*
X58996428Y-99120238D01*
X58984523Y-99132142D01*
X58960714Y-99144047D01*
X58865476Y-99144047D01*
X59091666Y-99013095D02*
X59246428Y-99013095D01*
X59163095Y-99108333D01*
X59198809Y-99108333D01*
X59222619Y-99120238D01*
X59234523Y-99132142D01*
X59246428Y-99155952D01*
X59246428Y-99215476D01*
X59234523Y-99239285D01*
X59222619Y-99251190D01*
X59198809Y-99263095D01*
X59127380Y-99263095D01*
X59103571Y-99251190D01*
X59091666Y-99239285D01*
X59113095Y-102160714D02*
X58994047Y-102244047D01*
X59113095Y-102303571D02*
X58863095Y-102303571D01*
X58863095Y-102208333D01*
X58875000Y-102184523D01*
X58886904Y-102172619D01*
X58910714Y-102160714D01*
X58946428Y-102160714D01*
X58970238Y-102172619D01*
X58982142Y-102184523D01*
X58994047Y-102208333D01*
X58994047Y-102303571D01*
X59113095Y-101922619D02*
X59113095Y-102065476D01*
X59113095Y-101994047D02*
X58863095Y-101994047D01*
X58898809Y-102017857D01*
X58922619Y-102041666D01*
X58934523Y-102065476D01*
X59113095Y-101684523D02*
X59113095Y-101827380D01*
X59113095Y-101755952D02*
X58863095Y-101755952D01*
X58898809Y-101779761D01*
X58922619Y-101803571D01*
X58934523Y-101827380D01*
X59113095Y-110160714D02*
X58994047Y-110244047D01*
X59113095Y-110303571D02*
X58863095Y-110303571D01*
X58863095Y-110208333D01*
X58875000Y-110184523D01*
X58886904Y-110172619D01*
X58910714Y-110160714D01*
X58946428Y-110160714D01*
X58970238Y-110172619D01*
X58982142Y-110184523D01*
X58994047Y-110208333D01*
X58994047Y-110303571D01*
X58886904Y-110065476D02*
X58875000Y-110053571D01*
X58863095Y-110029761D01*
X58863095Y-109970238D01*
X58875000Y-109946428D01*
X58886904Y-109934523D01*
X58910714Y-109922619D01*
X58934523Y-109922619D01*
X58970238Y-109934523D01*
X59113095Y-110077380D01*
X59113095Y-109922619D01*
X58863095Y-109839285D02*
X58863095Y-109684523D01*
X58958333Y-109767857D01*
X58958333Y-109732142D01*
X58970238Y-109708333D01*
X58982142Y-109696428D01*
X59005952Y-109684523D01*
X59065476Y-109684523D01*
X59089285Y-109696428D01*
X59101190Y-109708333D01*
X59113095Y-109732142D01*
X59113095Y-109803571D01*
X59101190Y-109827380D01*
X59089285Y-109839285D01*
X125813095Y-100460714D02*
X125694047Y-100544047D01*
X125813095Y-100603571D02*
X125563095Y-100603571D01*
X125563095Y-100508333D01*
X125575000Y-100484523D01*
X125586904Y-100472619D01*
X125610714Y-100460714D01*
X125646428Y-100460714D01*
X125670238Y-100472619D01*
X125682142Y-100484523D01*
X125694047Y-100508333D01*
X125694047Y-100603571D01*
X125586904Y-100365476D02*
X125575000Y-100353571D01*
X125563095Y-100329761D01*
X125563095Y-100270238D01*
X125575000Y-100246428D01*
X125586904Y-100234523D01*
X125610714Y-100222619D01*
X125634523Y-100222619D01*
X125670238Y-100234523D01*
X125813095Y-100377380D01*
X125813095Y-100222619D01*
X125563095Y-100139285D02*
X125563095Y-99972619D01*
X125813095Y-100079761D01*
X125813095Y-102360714D02*
X125694047Y-102444047D01*
X125813095Y-102503571D02*
X125563095Y-102503571D01*
X125563095Y-102408333D01*
X125575000Y-102384523D01*
X125586904Y-102372619D01*
X125610714Y-102360714D01*
X125646428Y-102360714D01*
X125670238Y-102372619D01*
X125682142Y-102384523D01*
X125694047Y-102408333D01*
X125694047Y-102503571D01*
X125586904Y-102265476D02*
X125575000Y-102253571D01*
X125563095Y-102229761D01*
X125563095Y-102170238D01*
X125575000Y-102146428D01*
X125586904Y-102134523D01*
X125610714Y-102122619D01*
X125634523Y-102122619D01*
X125670238Y-102134523D01*
X125813095Y-102277380D01*
X125813095Y-102122619D01*
X125670238Y-101979761D02*
X125658333Y-102003571D01*
X125646428Y-102015476D01*
X125622619Y-102027380D01*
X125610714Y-102027380D01*
X125586904Y-102015476D01*
X125575000Y-102003571D01*
X125563095Y-101979761D01*
X125563095Y-101932142D01*
X125575000Y-101908333D01*
X125586904Y-101896428D01*
X125610714Y-101884523D01*
X125622619Y-101884523D01*
X125646428Y-101896428D01*
X125658333Y-101908333D01*
X125670238Y-101932142D01*
X125670238Y-101979761D01*
X125682142Y-102003571D01*
X125694047Y-102015476D01*
X125717857Y-102027380D01*
X125765476Y-102027380D01*
X125789285Y-102015476D01*
X125801190Y-102003571D01*
X125813095Y-101979761D01*
X125813095Y-101932142D01*
X125801190Y-101908333D01*
X125789285Y-101896428D01*
X125765476Y-101884523D01*
X125717857Y-101884523D01*
X125694047Y-101896428D01*
X125682142Y-101908333D01*
X125670238Y-101932142D01*
X126813095Y-102360714D02*
X126694047Y-102444047D01*
X126813095Y-102503571D02*
X126563095Y-102503571D01*
X126563095Y-102408333D01*
X126575000Y-102384523D01*
X126586904Y-102372619D01*
X126610714Y-102360714D01*
X126646428Y-102360714D01*
X126670238Y-102372619D01*
X126682142Y-102384523D01*
X126694047Y-102408333D01*
X126694047Y-102503571D01*
X126586904Y-102265476D02*
X126575000Y-102253571D01*
X126563095Y-102229761D01*
X126563095Y-102170238D01*
X126575000Y-102146428D01*
X126586904Y-102134523D01*
X126610714Y-102122619D01*
X126634523Y-102122619D01*
X126670238Y-102134523D01*
X126813095Y-102277380D01*
X126813095Y-102122619D01*
X126813095Y-102003571D02*
X126813095Y-101955952D01*
X126801190Y-101932142D01*
X126789285Y-101920238D01*
X126753571Y-101896428D01*
X126705952Y-101884523D01*
X126610714Y-101884523D01*
X126586904Y-101896428D01*
X126575000Y-101908333D01*
X126563095Y-101932142D01*
X126563095Y-101979761D01*
X126575000Y-102003571D01*
X126586904Y-102015476D01*
X126610714Y-102027380D01*
X126670238Y-102027380D01*
X126694047Y-102015476D01*
X126705952Y-102003571D01*
X126717857Y-101979761D01*
X126717857Y-101932142D01*
X126705952Y-101908333D01*
X126694047Y-101896428D01*
X126670238Y-101884523D01*
X59113095Y-108160714D02*
X58994047Y-108244047D01*
X59113095Y-108303571D02*
X58863095Y-108303571D01*
X58863095Y-108208333D01*
X58875000Y-108184523D01*
X58886904Y-108172619D01*
X58910714Y-108160714D01*
X58946428Y-108160714D01*
X58970238Y-108172619D01*
X58982142Y-108184523D01*
X58994047Y-108208333D01*
X58994047Y-108303571D01*
X58886904Y-108065476D02*
X58875000Y-108053571D01*
X58863095Y-108029761D01*
X58863095Y-107970238D01*
X58875000Y-107946428D01*
X58886904Y-107934523D01*
X58910714Y-107922619D01*
X58934523Y-107922619D01*
X58970238Y-107934523D01*
X59113095Y-108077380D01*
X59113095Y-107922619D01*
X58886904Y-107827380D02*
X58875000Y-107815476D01*
X58863095Y-107791666D01*
X58863095Y-107732142D01*
X58875000Y-107708333D01*
X58886904Y-107696428D01*
X58910714Y-107684523D01*
X58934523Y-107684523D01*
X58970238Y-107696428D01*
X59113095Y-107839285D01*
X59113095Y-107684523D01*
X75013095Y-103841666D02*
X74894047Y-103925000D01*
X75013095Y-103984523D02*
X74763095Y-103984523D01*
X74763095Y-103889285D01*
X74775000Y-103865476D01*
X74786904Y-103853571D01*
X74810714Y-103841666D01*
X74846428Y-103841666D01*
X74870238Y-103853571D01*
X74882142Y-103865476D01*
X74894047Y-103889285D01*
X74894047Y-103984523D01*
X75013095Y-103603571D02*
X75013095Y-103746428D01*
X75013095Y-103675000D02*
X74763095Y-103675000D01*
X74798809Y-103698809D01*
X74822619Y-103722619D01*
X74834523Y-103746428D01*
X59113095Y-106160714D02*
X58994047Y-106244047D01*
X59113095Y-106303571D02*
X58863095Y-106303571D01*
X58863095Y-106208333D01*
X58875000Y-106184523D01*
X58886904Y-106172619D01*
X58910714Y-106160714D01*
X58946428Y-106160714D01*
X58970238Y-106172619D01*
X58982142Y-106184523D01*
X58994047Y-106208333D01*
X58994047Y-106303571D01*
X58886904Y-106065476D02*
X58875000Y-106053571D01*
X58863095Y-106029761D01*
X58863095Y-105970238D01*
X58875000Y-105946428D01*
X58886904Y-105934523D01*
X58910714Y-105922619D01*
X58934523Y-105922619D01*
X58970238Y-105934523D01*
X59113095Y-106077380D01*
X59113095Y-105922619D01*
X59113095Y-105684523D02*
X59113095Y-105827380D01*
X59113095Y-105755952D02*
X58863095Y-105755952D01*
X58898809Y-105779761D01*
X58922619Y-105803571D01*
X58934523Y-105827380D01*
X59113095Y-104160714D02*
X58994047Y-104244047D01*
X59113095Y-104303571D02*
X58863095Y-104303571D01*
X58863095Y-104208333D01*
X58875000Y-104184523D01*
X58886904Y-104172619D01*
X58910714Y-104160714D01*
X58946428Y-104160714D01*
X58970238Y-104172619D01*
X58982142Y-104184523D01*
X58994047Y-104208333D01*
X58994047Y-104303571D01*
X58886904Y-104065476D02*
X58875000Y-104053571D01*
X58863095Y-104029761D01*
X58863095Y-103970238D01*
X58875000Y-103946428D01*
X58886904Y-103934523D01*
X58910714Y-103922619D01*
X58934523Y-103922619D01*
X58970238Y-103934523D01*
X59113095Y-104077380D01*
X59113095Y-103922619D01*
X58863095Y-103767857D02*
X58863095Y-103744047D01*
X58875000Y-103720238D01*
X58886904Y-103708333D01*
X58910714Y-103696428D01*
X58958333Y-103684523D01*
X59017857Y-103684523D01*
X59065476Y-103696428D01*
X59089285Y-103708333D01*
X59101190Y-103720238D01*
X59113095Y-103744047D01*
X59113095Y-103767857D01*
X59101190Y-103791666D01*
X59089285Y-103803571D01*
X59065476Y-103815476D01*
X59017857Y-103827380D01*
X58958333Y-103827380D01*
X58910714Y-103815476D01*
X58886904Y-103803571D01*
X58875000Y-103791666D01*
X58863095Y-103767857D01*
X125213095Y-109760714D02*
X125094047Y-109844047D01*
X125213095Y-109903571D02*
X124963095Y-109903571D01*
X124963095Y-109808333D01*
X124975000Y-109784523D01*
X124986904Y-109772619D01*
X125010714Y-109760714D01*
X125046428Y-109760714D01*
X125070238Y-109772619D01*
X125082142Y-109784523D01*
X125094047Y-109808333D01*
X125094047Y-109903571D01*
X125213095Y-109522619D02*
X125213095Y-109665476D01*
X125213095Y-109594047D02*
X124963095Y-109594047D01*
X124998809Y-109617857D01*
X125022619Y-109641666D01*
X125034523Y-109665476D01*
X125213095Y-109403571D02*
X125213095Y-109355952D01*
X125201190Y-109332142D01*
X125189285Y-109320238D01*
X125153571Y-109296428D01*
X125105952Y-109284523D01*
X125010714Y-109284523D01*
X124986904Y-109296428D01*
X124975000Y-109308333D01*
X124963095Y-109332142D01*
X124963095Y-109379761D01*
X124975000Y-109403571D01*
X124986904Y-109415476D01*
X125010714Y-109427380D01*
X125070238Y-109427380D01*
X125094047Y-109415476D01*
X125105952Y-109403571D01*
X125117857Y-109379761D01*
X125117857Y-109332142D01*
X125105952Y-109308333D01*
X125094047Y-109296428D01*
X125070238Y-109284523D01*
X76239285Y-90413095D02*
X76155952Y-90294047D01*
X76096428Y-90413095D02*
X76096428Y-90163095D01*
X76191666Y-90163095D01*
X76215476Y-90175000D01*
X76227380Y-90186904D01*
X76239285Y-90210714D01*
X76239285Y-90246428D01*
X76227380Y-90270238D01*
X76215476Y-90282142D01*
X76191666Y-90294047D01*
X76096428Y-90294047D01*
X76477380Y-90413095D02*
X76334523Y-90413095D01*
X76405952Y-90413095D02*
X76405952Y-90163095D01*
X76382142Y-90198809D01*
X76358333Y-90222619D01*
X76334523Y-90234523D01*
X76560714Y-90163095D02*
X76727380Y-90163095D01*
X76620238Y-90413095D01*
X120013095Y-88960714D02*
X119894047Y-89044047D01*
X120013095Y-89103571D02*
X119763095Y-89103571D01*
X119763095Y-89008333D01*
X119775000Y-88984523D01*
X119786904Y-88972619D01*
X119810714Y-88960714D01*
X119846428Y-88960714D01*
X119870238Y-88972619D01*
X119882142Y-88984523D01*
X119894047Y-89008333D01*
X119894047Y-89103571D01*
X119763095Y-88877380D02*
X119763095Y-88722619D01*
X119858333Y-88805952D01*
X119858333Y-88770238D01*
X119870238Y-88746428D01*
X119882142Y-88734523D01*
X119905952Y-88722619D01*
X119965476Y-88722619D01*
X119989285Y-88734523D01*
X120001190Y-88746428D01*
X120013095Y-88770238D01*
X120013095Y-88841666D01*
X120001190Y-88865476D01*
X119989285Y-88877380D01*
X119763095Y-88496428D02*
X119763095Y-88615476D01*
X119882142Y-88627380D01*
X119870238Y-88615476D01*
X119858333Y-88591666D01*
X119858333Y-88532142D01*
X119870238Y-88508333D01*
X119882142Y-88496428D01*
X119905952Y-88484523D01*
X119965476Y-88484523D01*
X119989285Y-88496428D01*
X120001190Y-88508333D01*
X120013095Y-88532142D01*
X120013095Y-88591666D01*
X120001190Y-88615476D01*
X119989285Y-88627380D01*
X121013095Y-88960714D02*
X120894047Y-89044047D01*
X121013095Y-89103571D02*
X120763095Y-89103571D01*
X120763095Y-89008333D01*
X120775000Y-88984523D01*
X120786904Y-88972619D01*
X120810714Y-88960714D01*
X120846428Y-88960714D01*
X120870238Y-88972619D01*
X120882142Y-88984523D01*
X120894047Y-89008333D01*
X120894047Y-89103571D01*
X120763095Y-88877380D02*
X120763095Y-88722619D01*
X120858333Y-88805952D01*
X120858333Y-88770238D01*
X120870238Y-88746428D01*
X120882142Y-88734523D01*
X120905952Y-88722619D01*
X120965476Y-88722619D01*
X120989285Y-88734523D01*
X121001190Y-88746428D01*
X121013095Y-88770238D01*
X121013095Y-88841666D01*
X121001190Y-88865476D01*
X120989285Y-88877380D01*
X120846428Y-88508333D02*
X121013095Y-88508333D01*
X120751190Y-88567857D02*
X120929761Y-88627380D01*
X120929761Y-88472619D01*
X121013095Y-90860714D02*
X120894047Y-90944047D01*
X121013095Y-91003571D02*
X120763095Y-91003571D01*
X120763095Y-90908333D01*
X120775000Y-90884523D01*
X120786904Y-90872619D01*
X120810714Y-90860714D01*
X120846428Y-90860714D01*
X120870238Y-90872619D01*
X120882142Y-90884523D01*
X120894047Y-90908333D01*
X120894047Y-91003571D01*
X120763095Y-90777380D02*
X120763095Y-90622619D01*
X120858333Y-90705952D01*
X120858333Y-90670238D01*
X120870238Y-90646428D01*
X120882142Y-90634523D01*
X120905952Y-90622619D01*
X120965476Y-90622619D01*
X120989285Y-90634523D01*
X121001190Y-90646428D01*
X121013095Y-90670238D01*
X121013095Y-90741666D01*
X121001190Y-90765476D01*
X120989285Y-90777380D01*
X120763095Y-90539285D02*
X120763095Y-90384523D01*
X120858333Y-90467857D01*
X120858333Y-90432142D01*
X120870238Y-90408333D01*
X120882142Y-90396428D01*
X120905952Y-90384523D01*
X120965476Y-90384523D01*
X120989285Y-90396428D01*
X121001190Y-90408333D01*
X121013095Y-90432142D01*
X121013095Y-90503571D01*
X121001190Y-90527380D01*
X120989285Y-90539285D01*
X75013095Y-105941666D02*
X74894047Y-106025000D01*
X75013095Y-106084523D02*
X74763095Y-106084523D01*
X74763095Y-105989285D01*
X74775000Y-105965476D01*
X74786904Y-105953571D01*
X74810714Y-105941666D01*
X74846428Y-105941666D01*
X74870238Y-105953571D01*
X74882142Y-105965476D01*
X74894047Y-105989285D01*
X74894047Y-106084523D01*
X74786904Y-105846428D02*
X74775000Y-105834523D01*
X74763095Y-105810714D01*
X74763095Y-105751190D01*
X74775000Y-105727380D01*
X74786904Y-105715476D01*
X74810714Y-105703571D01*
X74834523Y-105703571D01*
X74870238Y-105715476D01*
X75013095Y-105858333D01*
X75013095Y-105703571D01*
X75600507Y-100609433D02*
X75457402Y-100584179D01*
X75499492Y-100710448D02*
X75322715Y-100533671D01*
X75390059Y-100466328D01*
X75415312Y-100457910D01*
X75432148Y-100457910D01*
X75457402Y-100466328D01*
X75482656Y-100491582D01*
X75491074Y-100516835D01*
X75491074Y-100533671D01*
X75482656Y-100558925D01*
X75415312Y-100626269D01*
X75684687Y-100525253D02*
X75718358Y-100491582D01*
X75726776Y-100466328D01*
X75726776Y-100449492D01*
X75718358Y-100407402D01*
X75693104Y-100365312D01*
X75625761Y-100297969D01*
X75600507Y-100289551D01*
X75583671Y-100289551D01*
X75558417Y-100297969D01*
X75524746Y-100331641D01*
X75516328Y-100356895D01*
X75516328Y-100373730D01*
X75524746Y-100398984D01*
X75566835Y-100441074D01*
X75592089Y-100449492D01*
X75608925Y-100449492D01*
X75634179Y-100441074D01*
X75667851Y-100407402D01*
X75676269Y-100382148D01*
X75676269Y-100365312D01*
X75667851Y-100340059D01*
D11*
X69088095Y-94952380D02*
X69088095Y-95761904D01*
X69135714Y-95857142D01*
X69183333Y-95904761D01*
X69278571Y-95952380D01*
X69469047Y-95952380D01*
X69564285Y-95904761D01*
X69611904Y-95857142D01*
X69659523Y-95761904D01*
X69659523Y-94952380D01*
X70659523Y-95952380D02*
X70088095Y-95952380D01*
X70373809Y-95952380D02*
X70373809Y-94952380D01*
X70278571Y-95095238D01*
X70183333Y-95190476D01*
X70088095Y-95238095D01*
D16*
X59008333Y-96389285D02*
X58996428Y-96401190D01*
X58960714Y-96413095D01*
X58936904Y-96413095D01*
X58901190Y-96401190D01*
X58877380Y-96377380D01*
X58865476Y-96353571D01*
X58853571Y-96305952D01*
X58853571Y-96270238D01*
X58865476Y-96222619D01*
X58877380Y-96198809D01*
X58901190Y-96175000D01*
X58936904Y-96163095D01*
X58960714Y-96163095D01*
X58996428Y-96175000D01*
X59008333Y-96186904D01*
X59151190Y-96270238D02*
X59127380Y-96258333D01*
X59115476Y-96246428D01*
X59103571Y-96222619D01*
X59103571Y-96210714D01*
X59115476Y-96186904D01*
X59127380Y-96175000D01*
X59151190Y-96163095D01*
X59198809Y-96163095D01*
X59222619Y-96175000D01*
X59234523Y-96186904D01*
X59246428Y-96210714D01*
X59246428Y-96222619D01*
X59234523Y-96246428D01*
X59222619Y-96258333D01*
X59198809Y-96270238D01*
X59151190Y-96270238D01*
X59127380Y-96282142D01*
X59115476Y-96294047D01*
X59103571Y-96317857D01*
X59103571Y-96365476D01*
X59115476Y-96389285D01*
X59127380Y-96401190D01*
X59151190Y-96413095D01*
X59198809Y-96413095D01*
X59222619Y-96401190D01*
X59234523Y-96389285D01*
X59246428Y-96365476D01*
X59246428Y-96317857D01*
X59234523Y-96294047D01*
X59222619Y-96282142D01*
X59198809Y-96270238D01*
X58689285Y-91789285D02*
X58677380Y-91801190D01*
X58641666Y-91813095D01*
X58617857Y-91813095D01*
X58582142Y-91801190D01*
X58558333Y-91777380D01*
X58546428Y-91753571D01*
X58534523Y-91705952D01*
X58534523Y-91670238D01*
X58546428Y-91622619D01*
X58558333Y-91598809D01*
X58582142Y-91575000D01*
X58617857Y-91563095D01*
X58641666Y-91563095D01*
X58677380Y-91575000D01*
X58689285Y-91586904D01*
X58927380Y-91813095D02*
X58784523Y-91813095D01*
X58855952Y-91813095D02*
X58855952Y-91563095D01*
X58832142Y-91598809D01*
X58808333Y-91622619D01*
X58784523Y-91634523D01*
X59010714Y-91563095D02*
X59165476Y-91563095D01*
X59082142Y-91658333D01*
X59117857Y-91658333D01*
X59141666Y-91670238D01*
X59153571Y-91682142D01*
X59165476Y-91705952D01*
X59165476Y-91765476D01*
X59153571Y-91789285D01*
X59141666Y-91801190D01*
X59117857Y-91813095D01*
X59046428Y-91813095D01*
X59022619Y-91801190D01*
X59010714Y-91789285D01*
X127089285Y-107760714D02*
X127101190Y-107772619D01*
X127113095Y-107808333D01*
X127113095Y-107832142D01*
X127101190Y-107867857D01*
X127077380Y-107891666D01*
X127053571Y-107903571D01*
X127005952Y-107915476D01*
X126970238Y-107915476D01*
X126922619Y-107903571D01*
X126898809Y-107891666D01*
X126875000Y-107867857D01*
X126863095Y-107832142D01*
X126863095Y-107808333D01*
X126875000Y-107772619D01*
X126886904Y-107760714D01*
X126863095Y-107677380D02*
X126863095Y-107522619D01*
X126958333Y-107605952D01*
X126958333Y-107570238D01*
X126970238Y-107546428D01*
X126982142Y-107534523D01*
X127005952Y-107522619D01*
X127065476Y-107522619D01*
X127089285Y-107534523D01*
X127101190Y-107546428D01*
X127113095Y-107570238D01*
X127113095Y-107641666D01*
X127101190Y-107665476D01*
X127089285Y-107677380D01*
X126863095Y-107367857D02*
X126863095Y-107344047D01*
X126875000Y-107320238D01*
X126886904Y-107308333D01*
X126910714Y-107296428D01*
X126958333Y-107284523D01*
X127017857Y-107284523D01*
X127065476Y-107296428D01*
X127089285Y-107308333D01*
X127101190Y-107320238D01*
X127113095Y-107344047D01*
X127113095Y-107367857D01*
X127101190Y-107391666D01*
X127089285Y-107403571D01*
X127065476Y-107415476D01*
X127017857Y-107427380D01*
X126958333Y-107427380D01*
X126910714Y-107415476D01*
X126886904Y-107403571D01*
X126875000Y-107391666D01*
X126863095Y-107367857D01*
X120989285Y-100860714D02*
X121001190Y-100872619D01*
X121013095Y-100908333D01*
X121013095Y-100932142D01*
X121001190Y-100967857D01*
X120977380Y-100991666D01*
X120953571Y-101003571D01*
X120905952Y-101015476D01*
X120870238Y-101015476D01*
X120822619Y-101003571D01*
X120798809Y-100991666D01*
X120775000Y-100967857D01*
X120763095Y-100932142D01*
X120763095Y-100908333D01*
X120775000Y-100872619D01*
X120786904Y-100860714D01*
X120846428Y-100646428D02*
X121013095Y-100646428D01*
X120751190Y-100705952D02*
X120929761Y-100765476D01*
X120929761Y-100610714D01*
X120763095Y-100396428D02*
X120763095Y-100515476D01*
X120882142Y-100527380D01*
X120870238Y-100515476D01*
X120858333Y-100491666D01*
X120858333Y-100432142D01*
X120870238Y-100408333D01*
X120882142Y-100396428D01*
X120905952Y-100384523D01*
X120965476Y-100384523D01*
X120989285Y-100396428D01*
X121001190Y-100408333D01*
X121013095Y-100432142D01*
X121013095Y-100491666D01*
X121001190Y-100515476D01*
X120989285Y-100527380D01*
X125789285Y-97045714D02*
X125801190Y-97057619D01*
X125813095Y-97093333D01*
X125813095Y-97117142D01*
X125801190Y-97152857D01*
X125777380Y-97176666D01*
X125753571Y-97188571D01*
X125705952Y-97200476D01*
X125670238Y-97200476D01*
X125622619Y-97188571D01*
X125598809Y-97176666D01*
X125575000Y-97152857D01*
X125563095Y-97117142D01*
X125563095Y-97093333D01*
X125575000Y-97057619D01*
X125586904Y-97045714D01*
X125563095Y-96962380D02*
X125563095Y-96807619D01*
X125658333Y-96890952D01*
X125658333Y-96855238D01*
X125670238Y-96831428D01*
X125682142Y-96819523D01*
X125705952Y-96807619D01*
X125765476Y-96807619D01*
X125789285Y-96819523D01*
X125801190Y-96831428D01*
X125813095Y-96855238D01*
X125813095Y-96926666D01*
X125801190Y-96950476D01*
X125789285Y-96962380D01*
X125586904Y-96712380D02*
X125575000Y-96700476D01*
X125563095Y-96676666D01*
X125563095Y-96617142D01*
X125575000Y-96593333D01*
X125586904Y-96581428D01*
X125610714Y-96569523D01*
X125634523Y-96569523D01*
X125670238Y-96581428D01*
X125813095Y-96724285D01*
X125813095Y-96569523D01*
X120989285Y-94260714D02*
X121001190Y-94272619D01*
X121013095Y-94308333D01*
X121013095Y-94332142D01*
X121001190Y-94367857D01*
X120977380Y-94391666D01*
X120953571Y-94403571D01*
X120905952Y-94415476D01*
X120870238Y-94415476D01*
X120822619Y-94403571D01*
X120798809Y-94391666D01*
X120775000Y-94367857D01*
X120763095Y-94332142D01*
X120763095Y-94308333D01*
X120775000Y-94272619D01*
X120786904Y-94260714D01*
X120763095Y-94034523D02*
X120763095Y-94153571D01*
X120882142Y-94165476D01*
X120870238Y-94153571D01*
X120858333Y-94129761D01*
X120858333Y-94070238D01*
X120870238Y-94046428D01*
X120882142Y-94034523D01*
X120905952Y-94022619D01*
X120965476Y-94022619D01*
X120989285Y-94034523D01*
X121001190Y-94046428D01*
X121013095Y-94070238D01*
X121013095Y-94129761D01*
X121001190Y-94153571D01*
X120989285Y-94165476D01*
X120763095Y-93808333D02*
X120763095Y-93855952D01*
X120775000Y-93879761D01*
X120786904Y-93891666D01*
X120822619Y-93915476D01*
X120870238Y-93927380D01*
X120965476Y-93927380D01*
X120989285Y-93915476D01*
X121001190Y-93903571D01*
X121013095Y-93879761D01*
X121013095Y-93832142D01*
X121001190Y-93808333D01*
X120989285Y-93796428D01*
X120965476Y-93784523D01*
X120905952Y-93784523D01*
X120882142Y-93796428D01*
X120870238Y-93808333D01*
X120858333Y-93832142D01*
X120858333Y-93879761D01*
X120870238Y-93903571D01*
X120882142Y-93915476D01*
X120905952Y-93927380D01*
D11*
X52990476Y-116452380D02*
X52990476Y-115452380D01*
X53323809Y-116166666D01*
X53657142Y-115452380D01*
X53657142Y-116452380D01*
X54133333Y-116452380D02*
X54133333Y-115452380D01*
X54704761Y-116452380D02*
X54276190Y-115880952D01*
X54704761Y-115452380D02*
X54133333Y-116023809D01*
X55657142Y-116452380D02*
X55085714Y-116452380D01*
X55371428Y-116452380D02*
X55371428Y-115452380D01*
X55276190Y-115595238D01*
X55180952Y-115690476D01*
X55085714Y-115738095D01*
X52990476Y-75452380D02*
X52990476Y-74452380D01*
X53323809Y-75166666D01*
X53657142Y-74452380D01*
X53657142Y-75452380D01*
X54133333Y-75452380D02*
X54133333Y-74452380D01*
X54704761Y-75452380D02*
X54276190Y-74880952D01*
X54704761Y-74452380D02*
X54133333Y-75023809D01*
X55085714Y-74547619D02*
X55133333Y-74500000D01*
X55228571Y-74452380D01*
X55466666Y-74452380D01*
X55561904Y-74500000D01*
X55609523Y-74547619D01*
X55657142Y-74642857D01*
X55657142Y-74738095D01*
X55609523Y-74880952D01*
X55038095Y-75452380D01*
X55657142Y-75452380D01*
X124990476Y-116452380D02*
X124990476Y-115452380D01*
X125323809Y-116166666D01*
X125657142Y-115452380D01*
X125657142Y-116452380D01*
X126133333Y-116452380D02*
X126133333Y-115452380D01*
X126704761Y-116452380D02*
X126276190Y-115880952D01*
X126704761Y-115452380D02*
X126133333Y-116023809D01*
X127561904Y-115785714D02*
X127561904Y-116452380D01*
X127323809Y-115404761D02*
X127085714Y-116119047D01*
X127704761Y-116119047D01*
M02*
