G04 #@! TF.GenerationSoftware,KiCad,Pcbnew,5.1.8*
G04 #@! TF.CreationDate,2020-12-26T16:11:21-08:00*
G04 #@! TF.ProjectId,glasgow,676c6173-676f-4772-9e6b-696361645f70,C2*
G04 #@! TF.SameCoordinates,Original*
G04 #@! TF.FileFunction,Copper,L4,Bot*
G04 #@! TF.FilePolarity,Positive*
%FSLAX46Y46*%
G04 Gerber Fmt 4.6, Leading zero omitted, Abs format (unit mm)*
G04 Created by KiCad (PCBNEW 5.1.8) date 2020-12-26 16:11:21*
%MOMM*%
%LPD*%
G01*
G04 APERTURE LIST*
G04 #@! TA.AperFunction,ComponentPad*
%ADD10C,1.200000*%
G04 #@! TD*
G04 #@! TA.AperFunction,ComponentPad*
%ADD11O,1.600000X1.000000*%
G04 #@! TD*
G04 #@! TA.AperFunction,ComponentPad*
%ADD12O,2.100000X1.000000*%
G04 #@! TD*
G04 #@! TA.AperFunction,ComponentPad*
%ADD13C,1.700000*%
G04 #@! TD*
G04 #@! TA.AperFunction,ComponentPad*
%ADD14C,1.000000*%
G04 #@! TD*
G04 #@! TA.AperFunction,ComponentPad*
%ADD15O,1.000000X1.000000*%
G04 #@! TD*
G04 #@! TA.AperFunction,ComponentPad*
%ADD16O,1.700000X1.700000*%
G04 #@! TD*
G04 #@! TA.AperFunction,SMDPad,CuDef*
%ADD17C,0.750000*%
G04 #@! TD*
G04 #@! TA.AperFunction,ComponentPad*
%ADD18O,1.740000X2.200000*%
G04 #@! TD*
G04 #@! TA.AperFunction,ComponentPad*
%ADD19C,7.000000*%
G04 #@! TD*
G04 #@! TA.AperFunction,ComponentPad*
%ADD20C,0.800000*%
G04 #@! TD*
G04 #@! TA.AperFunction,ComponentPad*
%ADD21C,0.500000*%
G04 #@! TD*
G04 #@! TA.AperFunction,SMDPad,CuDef*
%ADD22C,1.000000*%
G04 #@! TD*
G04 #@! TA.AperFunction,ComponentPad*
%ADD23C,0.600000*%
G04 #@! TD*
G04 #@! TA.AperFunction,SMDPad,CuDef*
%ADD24R,6.100000X6.100000*%
G04 #@! TD*
G04 #@! TA.AperFunction,ViaPad*
%ADD25C,0.400000*%
G04 #@! TD*
G04 #@! TA.AperFunction,ViaPad*
%ADD26C,0.600000*%
G04 #@! TD*
G04 #@! TA.AperFunction,ViaPad*
%ADD27C,0.500000*%
G04 #@! TD*
G04 #@! TA.AperFunction,Conductor*
%ADD28C,0.150000*%
G04 #@! TD*
G04 #@! TA.AperFunction,Conductor*
%ADD29C,0.250000*%
G04 #@! TD*
G04 #@! TA.AperFunction,Conductor*
%ADD30C,0.450000*%
G04 #@! TD*
G04 #@! TA.AperFunction,Conductor*
%ADD31C,0.190000*%
G04 #@! TD*
G04 #@! TA.AperFunction,Conductor*
%ADD32C,0.750000*%
G04 #@! TD*
G04 #@! TA.AperFunction,Conductor*
%ADD33C,0.254000*%
G04 #@! TD*
G04 #@! TA.AperFunction,Conductor*
%ADD34C,0.100000*%
G04 #@! TD*
G04 #@! TA.AperFunction,Conductor*
%ADD35C,0.200000*%
G04 #@! TD*
G04 #@! TA.AperFunction,Conductor*
%ADD36C,0.025600*%
G04 #@! TD*
G04 APERTURE END LIST*
D10*
X74650000Y-119230000D03*
X76150000Y-117380000D03*
X73150000Y-117380000D03*
D11*
X51600000Y-99820000D03*
X51600000Y-91180000D03*
D12*
X55780000Y-91180000D03*
X55780000Y-99820000D03*
G04 #@! TA.AperFunction,ComponentPad*
G36*
G01*
X93170000Y-78570000D02*
X91970000Y-78570000D01*
G75*
G02*
X91720000Y-78320000I0J250000D01*
G01*
X91720000Y-77120000D01*
G75*
G02*
X91970000Y-76870000I250000J0D01*
G01*
X93170000Y-76870000D01*
G75*
G02*
X93420000Y-77120000I0J-250000D01*
G01*
X93420000Y-78320000D01*
G75*
G02*
X93170000Y-78570000I-250000J0D01*
G01*
G37*
G04 #@! TD.AperFunction*
D13*
X95110000Y-77720000D03*
X97650000Y-77720000D03*
X100190000Y-77720000D03*
X102730000Y-77720000D03*
X105270000Y-77720000D03*
X107810000Y-77720000D03*
X110350000Y-77720000D03*
X112890000Y-77720000D03*
X115430000Y-77720000D03*
X92570000Y-75180000D03*
X95110000Y-75180000D03*
X97650000Y-75180000D03*
X100190000Y-75180000D03*
X102730000Y-75180000D03*
X105270000Y-75180000D03*
X107810000Y-75180000D03*
X110350000Y-75180000D03*
X112890000Y-75180000D03*
X115430000Y-75180000D03*
G04 #@! TA.AperFunction,ComponentPad*
G36*
G01*
X114830000Y-112430000D02*
X116030000Y-112430000D01*
G75*
G02*
X116280000Y-112680000I0J-250000D01*
G01*
X116280000Y-113880000D01*
G75*
G02*
X116030000Y-114130000I-250000J0D01*
G01*
X114830000Y-114130000D01*
G75*
G02*
X114580000Y-113880000I0J250000D01*
G01*
X114580000Y-112680000D01*
G75*
G02*
X114830000Y-112430000I250000J0D01*
G01*
G37*
G04 #@! TD.AperFunction*
X112890000Y-113280000D03*
X110350000Y-113280000D03*
X107810000Y-113280000D03*
X105270000Y-113280000D03*
X102730000Y-113280000D03*
X100190000Y-113280000D03*
X97650000Y-113280000D03*
X95110000Y-113280000D03*
X92570000Y-113280000D03*
X115430000Y-115820000D03*
X112890000Y-115820000D03*
X110350000Y-115820000D03*
X107810000Y-115820000D03*
X105270000Y-115820000D03*
X102730000Y-115820000D03*
X100190000Y-115820000D03*
X97650000Y-115820000D03*
X95110000Y-115820000D03*
X92570000Y-115820000D03*
D14*
X107800000Y-87600000D03*
D15*
X109070000Y-87600000D03*
X110340000Y-87600000D03*
X111610000Y-87600000D03*
X112880000Y-87600000D03*
X114150000Y-87600000D03*
X115420000Y-87600000D03*
X116690000Y-87600000D03*
D14*
X107800000Y-82500000D03*
D15*
X109070000Y-82500000D03*
X110340000Y-82500000D03*
X111610000Y-82500000D03*
X112880000Y-82500000D03*
X114150000Y-82500000D03*
X115420000Y-82500000D03*
X116690000Y-82500000D03*
D14*
X116700000Y-103420000D03*
D15*
X115430000Y-103420000D03*
X114160000Y-103420000D03*
X112890000Y-103420000D03*
X111620000Y-103420000D03*
X110350000Y-103420000D03*
X109080000Y-103420000D03*
X107810000Y-103420000D03*
D14*
X116700000Y-108500000D03*
D15*
X115430000Y-108500000D03*
X114160000Y-108500000D03*
X112890000Y-108500000D03*
X111620000Y-108500000D03*
X110350000Y-108500000D03*
X109080000Y-108500000D03*
X107810000Y-108500000D03*
G04 #@! TA.AperFunction,ComponentPad*
G36*
G01*
X106120000Y-97615000D02*
X106120000Y-98465000D01*
G75*
G02*
X105695000Y-98890000I-425000J0D01*
G01*
X104845000Y-98890000D01*
G75*
G02*
X104420000Y-98465000I0J425000D01*
G01*
X104420000Y-97615000D01*
G75*
G02*
X104845000Y-97190000I425000J0D01*
G01*
X105695000Y-97190000D01*
G75*
G02*
X106120000Y-97615000I0J-425000D01*
G01*
G37*
G04 #@! TD.AperFunction*
D16*
X105270000Y-95500000D03*
X105270000Y-92960000D03*
D17*
X122000000Y-118500000D03*
X122000000Y-72500000D03*
X58000000Y-118500000D03*
G04 #@! TA.AperFunction,ComponentPad*
G36*
G01*
X84970000Y-107549999D02*
X84970000Y-109250001D01*
G75*
G02*
X84720001Y-109500000I-249999J0D01*
G01*
X83479999Y-109500000D01*
G75*
G02*
X83230000Y-109250001I0J249999D01*
G01*
X83230000Y-107549999D01*
G75*
G02*
X83479999Y-107300000I249999J0D01*
G01*
X84720001Y-107300000D01*
G75*
G02*
X84970000Y-107549999I0J-249999D01*
G01*
G37*
G04 #@! TD.AperFunction*
D18*
X81560000Y-108400000D03*
G04 #@! TA.AperFunction,SMDPad,CuDef*
G36*
G01*
X120906250Y-88825000D02*
X120393750Y-88825000D01*
G75*
G02*
X120175000Y-88606250I0J218750D01*
G01*
X120175000Y-88168750D01*
G75*
G02*
X120393750Y-87950000I218750J0D01*
G01*
X120906250Y-87950000D01*
G75*
G02*
X121125000Y-88168750I0J-218750D01*
G01*
X121125000Y-88606250D01*
G75*
G02*
X120906250Y-88825000I-218750J0D01*
G01*
G37*
G04 #@! TD.AperFunction*
G04 #@! TA.AperFunction,SMDPad,CuDef*
G36*
G01*
X120906250Y-87250000D02*
X120393750Y-87250000D01*
G75*
G02*
X120175000Y-87031250I0J218750D01*
G01*
X120175000Y-86593750D01*
G75*
G02*
X120393750Y-86375000I218750J0D01*
G01*
X120906250Y-86375000D01*
G75*
G02*
X121125000Y-86593750I0J-218750D01*
G01*
X121125000Y-87031250D01*
G75*
G02*
X120906250Y-87250000I-218750J0D01*
G01*
G37*
G04 #@! TD.AperFunction*
G04 #@! TA.AperFunction,SMDPad,CuDef*
G36*
G01*
X125693750Y-102175000D02*
X126206250Y-102175000D01*
G75*
G02*
X126425000Y-102393750I0J-218750D01*
G01*
X126425000Y-102831250D01*
G75*
G02*
X126206250Y-103050000I-218750J0D01*
G01*
X125693750Y-103050000D01*
G75*
G02*
X125475000Y-102831250I0J218750D01*
G01*
X125475000Y-102393750D01*
G75*
G02*
X125693750Y-102175000I218750J0D01*
G01*
G37*
G04 #@! TD.AperFunction*
G04 #@! TA.AperFunction,SMDPad,CuDef*
G36*
G01*
X125693750Y-103750000D02*
X126206250Y-103750000D01*
G75*
G02*
X126425000Y-103968750I0J-218750D01*
G01*
X126425000Y-104406250D01*
G75*
G02*
X126206250Y-104625000I-218750J0D01*
G01*
X125693750Y-104625000D01*
G75*
G02*
X125475000Y-104406250I0J218750D01*
G01*
X125475000Y-103968750D01*
G75*
G02*
X125693750Y-103750000I218750J0D01*
G01*
G37*
G04 #@! TD.AperFunction*
G04 #@! TA.AperFunction,SMDPad,CuDef*
G36*
G01*
X120906250Y-91625000D02*
X120393750Y-91625000D01*
G75*
G02*
X120175000Y-91406250I0J218750D01*
G01*
X120175000Y-90968750D01*
G75*
G02*
X120393750Y-90750000I218750J0D01*
G01*
X120906250Y-90750000D01*
G75*
G02*
X121125000Y-90968750I0J-218750D01*
G01*
X121125000Y-91406250D01*
G75*
G02*
X120906250Y-91625000I-218750J0D01*
G01*
G37*
G04 #@! TD.AperFunction*
G04 #@! TA.AperFunction,SMDPad,CuDef*
G36*
G01*
X120906250Y-90050000D02*
X120393750Y-90050000D01*
G75*
G02*
X120175000Y-89831250I0J218750D01*
G01*
X120175000Y-89393750D01*
G75*
G02*
X120393750Y-89175000I218750J0D01*
G01*
X120906250Y-89175000D01*
G75*
G02*
X121125000Y-89393750I0J-218750D01*
G01*
X121125000Y-89831250D01*
G75*
G02*
X120906250Y-90050000I-218750J0D01*
G01*
G37*
G04 #@! TD.AperFunction*
G04 #@! TA.AperFunction,SMDPad,CuDef*
G36*
G01*
X125693750Y-99375000D02*
X126206250Y-99375000D01*
G75*
G02*
X126425000Y-99593750I0J-218750D01*
G01*
X126425000Y-100031250D01*
G75*
G02*
X126206250Y-100250000I-218750J0D01*
G01*
X125693750Y-100250000D01*
G75*
G02*
X125475000Y-100031250I0J218750D01*
G01*
X125475000Y-99593750D01*
G75*
G02*
X125693750Y-99375000I218750J0D01*
G01*
G37*
G04 #@! TD.AperFunction*
G04 #@! TA.AperFunction,SMDPad,CuDef*
G36*
G01*
X125693750Y-100950000D02*
X126206250Y-100950000D01*
G75*
G02*
X126425000Y-101168750I0J-218750D01*
G01*
X126425000Y-101606250D01*
G75*
G02*
X126206250Y-101825000I-218750J0D01*
G01*
X125693750Y-101825000D01*
G75*
G02*
X125475000Y-101606250I0J218750D01*
G01*
X125475000Y-101168750D01*
G75*
G02*
X125693750Y-100950000I218750J0D01*
G01*
G37*
G04 #@! TD.AperFunction*
G04 #@! TA.AperFunction,SMDPad,CuDef*
G36*
G01*
X123793750Y-103750000D02*
X124306250Y-103750000D01*
G75*
G02*
X124525000Y-103968750I0J-218750D01*
G01*
X124525000Y-104406250D01*
G75*
G02*
X124306250Y-104625000I-218750J0D01*
G01*
X123793750Y-104625000D01*
G75*
G02*
X123575000Y-104406250I0J218750D01*
G01*
X123575000Y-103968750D01*
G75*
G02*
X123793750Y-103750000I218750J0D01*
G01*
G37*
G04 #@! TD.AperFunction*
G04 #@! TA.AperFunction,SMDPad,CuDef*
G36*
G01*
X123793750Y-102175000D02*
X124306250Y-102175000D01*
G75*
G02*
X124525000Y-102393750I0J-218750D01*
G01*
X124525000Y-102831250D01*
G75*
G02*
X124306250Y-103050000I-218750J0D01*
G01*
X123793750Y-103050000D01*
G75*
G02*
X123575000Y-102831250I0J218750D01*
G01*
X123575000Y-102393750D01*
G75*
G02*
X123793750Y-102175000I218750J0D01*
G01*
G37*
G04 #@! TD.AperFunction*
G04 #@! TA.AperFunction,SMDPad,CuDef*
G36*
G01*
X122806250Y-87250000D02*
X122293750Y-87250000D01*
G75*
G02*
X122075000Y-87031250I0J218750D01*
G01*
X122075000Y-86593750D01*
G75*
G02*
X122293750Y-86375000I218750J0D01*
G01*
X122806250Y-86375000D01*
G75*
G02*
X123025000Y-86593750I0J-218750D01*
G01*
X123025000Y-87031250D01*
G75*
G02*
X122806250Y-87250000I-218750J0D01*
G01*
G37*
G04 #@! TD.AperFunction*
G04 #@! TA.AperFunction,SMDPad,CuDef*
G36*
G01*
X122806250Y-88825000D02*
X122293750Y-88825000D01*
G75*
G02*
X122075000Y-88606250I0J218750D01*
G01*
X122075000Y-88168750D01*
G75*
G02*
X122293750Y-87950000I218750J0D01*
G01*
X122806250Y-87950000D01*
G75*
G02*
X123025000Y-88168750I0J-218750D01*
G01*
X123025000Y-88606250D01*
G75*
G02*
X122806250Y-88825000I-218750J0D01*
G01*
G37*
G04 #@! TD.AperFunction*
G04 #@! TA.AperFunction,SMDPad,CuDef*
G36*
G01*
X123793750Y-100950000D02*
X124306250Y-100950000D01*
G75*
G02*
X124525000Y-101168750I0J-218750D01*
G01*
X124525000Y-101606250D01*
G75*
G02*
X124306250Y-101825000I-218750J0D01*
G01*
X123793750Y-101825000D01*
G75*
G02*
X123575000Y-101606250I0J218750D01*
G01*
X123575000Y-101168750D01*
G75*
G02*
X123793750Y-100950000I218750J0D01*
G01*
G37*
G04 #@! TD.AperFunction*
G04 #@! TA.AperFunction,SMDPad,CuDef*
G36*
G01*
X123793750Y-99375000D02*
X124306250Y-99375000D01*
G75*
G02*
X124525000Y-99593750I0J-218750D01*
G01*
X124525000Y-100031250D01*
G75*
G02*
X124306250Y-100250000I-218750J0D01*
G01*
X123793750Y-100250000D01*
G75*
G02*
X123575000Y-100031250I0J218750D01*
G01*
X123575000Y-99593750D01*
G75*
G02*
X123793750Y-99375000I218750J0D01*
G01*
G37*
G04 #@! TD.AperFunction*
G04 #@! TA.AperFunction,SMDPad,CuDef*
G36*
G01*
X122806250Y-90050000D02*
X122293750Y-90050000D01*
G75*
G02*
X122075000Y-89831250I0J218750D01*
G01*
X122075000Y-89393750D01*
G75*
G02*
X122293750Y-89175000I218750J0D01*
G01*
X122806250Y-89175000D01*
G75*
G02*
X123025000Y-89393750I0J-218750D01*
G01*
X123025000Y-89831250D01*
G75*
G02*
X122806250Y-90050000I-218750J0D01*
G01*
G37*
G04 #@! TD.AperFunction*
G04 #@! TA.AperFunction,SMDPad,CuDef*
G36*
G01*
X122806250Y-91625000D02*
X122293750Y-91625000D01*
G75*
G02*
X122075000Y-91406250I0J218750D01*
G01*
X122075000Y-90968750D01*
G75*
G02*
X122293750Y-90750000I218750J0D01*
G01*
X122806250Y-90750000D01*
G75*
G02*
X123025000Y-90968750I0J-218750D01*
G01*
X123025000Y-91406250D01*
G75*
G02*
X122806250Y-91625000I-218750J0D01*
G01*
G37*
G04 #@! TD.AperFunction*
G04 #@! TA.AperFunction,SMDPad,CuDef*
G36*
G01*
X120627500Y-85290000D02*
X120972500Y-85290000D01*
G75*
G02*
X121120000Y-85437500I0J-147500D01*
G01*
X121120000Y-85732500D01*
G75*
G02*
X120972500Y-85880000I-147500J0D01*
G01*
X120627500Y-85880000D01*
G75*
G02*
X120480000Y-85732500I0J147500D01*
G01*
X120480000Y-85437500D01*
G75*
G02*
X120627500Y-85290000I147500J0D01*
G01*
G37*
G04 #@! TD.AperFunction*
G04 #@! TA.AperFunction,SMDPad,CuDef*
G36*
G01*
X120627500Y-84320000D02*
X120972500Y-84320000D01*
G75*
G02*
X121120000Y-84467500I0J-147500D01*
G01*
X121120000Y-84762500D01*
G75*
G02*
X120972500Y-84910000I-147500J0D01*
G01*
X120627500Y-84910000D01*
G75*
G02*
X120480000Y-84762500I0J147500D01*
G01*
X120480000Y-84467500D01*
G75*
G02*
X120627500Y-84320000I147500J0D01*
G01*
G37*
G04 #@! TD.AperFunction*
G04 #@! TA.AperFunction,SMDPad,CuDef*
G36*
G01*
X127172500Y-105710000D02*
X126827500Y-105710000D01*
G75*
G02*
X126680000Y-105562500I0J147500D01*
G01*
X126680000Y-105267500D01*
G75*
G02*
X126827500Y-105120000I147500J0D01*
G01*
X127172500Y-105120000D01*
G75*
G02*
X127320000Y-105267500I0J-147500D01*
G01*
X127320000Y-105562500D01*
G75*
G02*
X127172500Y-105710000I-147500J0D01*
G01*
G37*
G04 #@! TD.AperFunction*
G04 #@! TA.AperFunction,SMDPad,CuDef*
G36*
G01*
X127172500Y-106680000D02*
X126827500Y-106680000D01*
G75*
G02*
X126680000Y-106532500I0J147500D01*
G01*
X126680000Y-106237500D01*
G75*
G02*
X126827500Y-106090000I147500J0D01*
G01*
X127172500Y-106090000D01*
G75*
G02*
X127320000Y-106237500I0J-147500D01*
G01*
X127320000Y-106532500D01*
G75*
G02*
X127172500Y-106680000I-147500J0D01*
G01*
G37*
G04 #@! TD.AperFunction*
G04 #@! TA.AperFunction,SMDPad,CuDef*
G36*
G01*
X88656250Y-95150000D02*
X88143750Y-95150000D01*
G75*
G02*
X87925000Y-94931250I0J218750D01*
G01*
X87925000Y-94493750D01*
G75*
G02*
X88143750Y-94275000I218750J0D01*
G01*
X88656250Y-94275000D01*
G75*
G02*
X88875000Y-94493750I0J-218750D01*
G01*
X88875000Y-94931250D01*
G75*
G02*
X88656250Y-95150000I-218750J0D01*
G01*
G37*
G04 #@! TD.AperFunction*
G04 #@! TA.AperFunction,SMDPad,CuDef*
G36*
G01*
X88656250Y-96725000D02*
X88143750Y-96725000D01*
G75*
G02*
X87925000Y-96506250I0J218750D01*
G01*
X87925000Y-96068750D01*
G75*
G02*
X88143750Y-95850000I218750J0D01*
G01*
X88656250Y-95850000D01*
G75*
G02*
X88875000Y-96068750I0J-218750D01*
G01*
X88875000Y-96506250D01*
G75*
G02*
X88656250Y-96725000I-218750J0D01*
G01*
G37*
G04 #@! TD.AperFunction*
G04 #@! TA.AperFunction,SMDPad,CuDef*
G36*
G01*
X78250000Y-96143750D02*
X78250000Y-96656250D01*
G75*
G02*
X78031250Y-96875000I-218750J0D01*
G01*
X77593750Y-96875000D01*
G75*
G02*
X77375000Y-96656250I0J218750D01*
G01*
X77375000Y-96143750D01*
G75*
G02*
X77593750Y-95925000I218750J0D01*
G01*
X78031250Y-95925000D01*
G75*
G02*
X78250000Y-96143750I0J-218750D01*
G01*
G37*
G04 #@! TD.AperFunction*
G04 #@! TA.AperFunction,SMDPad,CuDef*
G36*
G01*
X79825000Y-96143750D02*
X79825000Y-96656250D01*
G75*
G02*
X79606250Y-96875000I-218750J0D01*
G01*
X79168750Y-96875000D01*
G75*
G02*
X78950000Y-96656250I0J218750D01*
G01*
X78950000Y-96143750D01*
G75*
G02*
X79168750Y-95925000I218750J0D01*
G01*
X79606250Y-95925000D01*
G75*
G02*
X79825000Y-96143750I0J-218750D01*
G01*
G37*
G04 #@! TD.AperFunction*
G04 #@! TA.AperFunction,SMDPad,CuDef*
G36*
G01*
X86250000Y-100256250D02*
X86250000Y-99743750D01*
G75*
G02*
X86468750Y-99525000I218750J0D01*
G01*
X86906250Y-99525000D01*
G75*
G02*
X87125000Y-99743750I0J-218750D01*
G01*
X87125000Y-100256250D01*
G75*
G02*
X86906250Y-100475000I-218750J0D01*
G01*
X86468750Y-100475000D01*
G75*
G02*
X86250000Y-100256250I0J218750D01*
G01*
G37*
G04 #@! TD.AperFunction*
G04 #@! TA.AperFunction,SMDPad,CuDef*
G36*
G01*
X84675000Y-100256250D02*
X84675000Y-99743750D01*
G75*
G02*
X84893750Y-99525000I218750J0D01*
G01*
X85331250Y-99525000D01*
G75*
G02*
X85550000Y-99743750I0J-218750D01*
G01*
X85550000Y-100256250D01*
G75*
G02*
X85331250Y-100475000I-218750J0D01*
G01*
X84893750Y-100475000D01*
G75*
G02*
X84675000Y-100256250I0J218750D01*
G01*
G37*
G04 #@! TD.AperFunction*
G04 #@! TA.AperFunction,SMDPad,CuDef*
G36*
G01*
X77893750Y-101675000D02*
X78406250Y-101675000D01*
G75*
G02*
X78625000Y-101893750I0J-218750D01*
G01*
X78625000Y-102331250D01*
G75*
G02*
X78406250Y-102550000I-218750J0D01*
G01*
X77893750Y-102550000D01*
G75*
G02*
X77675000Y-102331250I0J218750D01*
G01*
X77675000Y-101893750D01*
G75*
G02*
X77893750Y-101675000I218750J0D01*
G01*
G37*
G04 #@! TD.AperFunction*
G04 #@! TA.AperFunction,SMDPad,CuDef*
G36*
G01*
X77893750Y-100100000D02*
X78406250Y-100100000D01*
G75*
G02*
X78625000Y-100318750I0J-218750D01*
G01*
X78625000Y-100756250D01*
G75*
G02*
X78406250Y-100975000I-218750J0D01*
G01*
X77893750Y-100975000D01*
G75*
G02*
X77675000Y-100756250I0J218750D01*
G01*
X77675000Y-100318750D01*
G75*
G02*
X77893750Y-100100000I218750J0D01*
G01*
G37*
G04 #@! TD.AperFunction*
G04 #@! TA.AperFunction,SMDPad,CuDef*
G36*
G01*
X65750000Y-99756250D02*
X65750000Y-99243750D01*
G75*
G02*
X65968750Y-99025000I218750J0D01*
G01*
X66406250Y-99025000D01*
G75*
G02*
X66625000Y-99243750I0J-218750D01*
G01*
X66625000Y-99756250D01*
G75*
G02*
X66406250Y-99975000I-218750J0D01*
G01*
X65968750Y-99975000D01*
G75*
G02*
X65750000Y-99756250I0J218750D01*
G01*
G37*
G04 #@! TD.AperFunction*
G04 #@! TA.AperFunction,SMDPad,CuDef*
G36*
G01*
X64175000Y-99756250D02*
X64175000Y-99243750D01*
G75*
G02*
X64393750Y-99025000I218750J0D01*
G01*
X64831250Y-99025000D01*
G75*
G02*
X65050000Y-99243750I0J-218750D01*
G01*
X65050000Y-99756250D01*
G75*
G02*
X64831250Y-99975000I-218750J0D01*
G01*
X64393750Y-99975000D01*
G75*
G02*
X64175000Y-99756250I0J218750D01*
G01*
G37*
G04 #@! TD.AperFunction*
D19*
X126000000Y-75000000D03*
D20*
X128625000Y-75000000D03*
X127856155Y-76856155D03*
X126000000Y-77625000D03*
X124143845Y-76856155D03*
X123375000Y-75000000D03*
X124143845Y-73143845D03*
X126000000Y-72375000D03*
X127856155Y-73143845D03*
G04 #@! TA.AperFunction,SMDPad,CuDef*
G36*
G01*
X122972500Y-84910000D02*
X122627500Y-84910000D01*
G75*
G02*
X122480000Y-84762500I0J147500D01*
G01*
X122480000Y-84467500D01*
G75*
G02*
X122627500Y-84320000I147500J0D01*
G01*
X122972500Y-84320000D01*
G75*
G02*
X123120000Y-84467500I0J-147500D01*
G01*
X123120000Y-84762500D01*
G75*
G02*
X122972500Y-84910000I-147500J0D01*
G01*
G37*
G04 #@! TD.AperFunction*
G04 #@! TA.AperFunction,SMDPad,CuDef*
G36*
G01*
X122972500Y-85880000D02*
X122627500Y-85880000D01*
G75*
G02*
X122480000Y-85732500I0J147500D01*
G01*
X122480000Y-85437500D01*
G75*
G02*
X122627500Y-85290000I147500J0D01*
G01*
X122972500Y-85290000D01*
G75*
G02*
X123120000Y-85437500I0J-147500D01*
G01*
X123120000Y-85732500D01*
G75*
G02*
X122972500Y-85880000I-147500J0D01*
G01*
G37*
G04 #@! TD.AperFunction*
G04 #@! TA.AperFunction,SMDPad,CuDef*
G36*
G01*
X123972500Y-84910000D02*
X123627500Y-84910000D01*
G75*
G02*
X123480000Y-84762500I0J147500D01*
G01*
X123480000Y-84467500D01*
G75*
G02*
X123627500Y-84320000I147500J0D01*
G01*
X123972500Y-84320000D01*
G75*
G02*
X124120000Y-84467500I0J-147500D01*
G01*
X124120000Y-84762500D01*
G75*
G02*
X123972500Y-84910000I-147500J0D01*
G01*
G37*
G04 #@! TD.AperFunction*
G04 #@! TA.AperFunction,SMDPad,CuDef*
G36*
G01*
X123972500Y-85880000D02*
X123627500Y-85880000D01*
G75*
G02*
X123480000Y-85732500I0J147500D01*
G01*
X123480000Y-85437500D01*
G75*
G02*
X123627500Y-85290000I147500J0D01*
G01*
X123972500Y-85290000D01*
G75*
G02*
X124120000Y-85437500I0J-147500D01*
G01*
X124120000Y-85732500D01*
G75*
G02*
X123972500Y-85880000I-147500J0D01*
G01*
G37*
G04 #@! TD.AperFunction*
G04 #@! TA.AperFunction,SMDPad,CuDef*
G36*
G01*
X123627500Y-106090000D02*
X123972500Y-106090000D01*
G75*
G02*
X124120000Y-106237500I0J-147500D01*
G01*
X124120000Y-106532500D01*
G75*
G02*
X123972500Y-106680000I-147500J0D01*
G01*
X123627500Y-106680000D01*
G75*
G02*
X123480000Y-106532500I0J147500D01*
G01*
X123480000Y-106237500D01*
G75*
G02*
X123627500Y-106090000I147500J0D01*
G01*
G37*
G04 #@! TD.AperFunction*
G04 #@! TA.AperFunction,SMDPad,CuDef*
G36*
G01*
X123627500Y-105120000D02*
X123972500Y-105120000D01*
G75*
G02*
X124120000Y-105267500I0J-147500D01*
G01*
X124120000Y-105562500D01*
G75*
G02*
X123972500Y-105710000I-147500J0D01*
G01*
X123627500Y-105710000D01*
G75*
G02*
X123480000Y-105562500I0J147500D01*
G01*
X123480000Y-105267500D01*
G75*
G02*
X123627500Y-105120000I147500J0D01*
G01*
G37*
G04 #@! TD.AperFunction*
G04 #@! TA.AperFunction,SMDPad,CuDef*
G36*
G01*
X122627500Y-106090000D02*
X122972500Y-106090000D01*
G75*
G02*
X123120000Y-106237500I0J-147500D01*
G01*
X123120000Y-106532500D01*
G75*
G02*
X122972500Y-106680000I-147500J0D01*
G01*
X122627500Y-106680000D01*
G75*
G02*
X122480000Y-106532500I0J147500D01*
G01*
X122480000Y-106237500D01*
G75*
G02*
X122627500Y-106090000I147500J0D01*
G01*
G37*
G04 #@! TD.AperFunction*
G04 #@! TA.AperFunction,SMDPad,CuDef*
G36*
G01*
X122627500Y-105120000D02*
X122972500Y-105120000D01*
G75*
G02*
X123120000Y-105267500I0J-147500D01*
G01*
X123120000Y-105562500D01*
G75*
G02*
X122972500Y-105710000I-147500J0D01*
G01*
X122627500Y-105710000D01*
G75*
G02*
X122480000Y-105562500I0J147500D01*
G01*
X122480000Y-105267500D01*
G75*
G02*
X122627500Y-105120000I147500J0D01*
G01*
G37*
G04 #@! TD.AperFunction*
G04 #@! TA.AperFunction,SMDPad,CuDef*
G36*
G01*
X123490000Y-83372500D02*
X123490000Y-83027500D01*
G75*
G02*
X123637500Y-82880000I147500J0D01*
G01*
X123932500Y-82880000D01*
G75*
G02*
X124080000Y-83027500I0J-147500D01*
G01*
X124080000Y-83372500D01*
G75*
G02*
X123932500Y-83520000I-147500J0D01*
G01*
X123637500Y-83520000D01*
G75*
G02*
X123490000Y-83372500I0J147500D01*
G01*
G37*
G04 #@! TD.AperFunction*
G04 #@! TA.AperFunction,SMDPad,CuDef*
G36*
G01*
X122520000Y-83372500D02*
X122520000Y-83027500D01*
G75*
G02*
X122667500Y-82880000I147500J0D01*
G01*
X122962500Y-82880000D01*
G75*
G02*
X123110000Y-83027500I0J-147500D01*
G01*
X123110000Y-83372500D01*
G75*
G02*
X122962500Y-83520000I-147500J0D01*
G01*
X122667500Y-83520000D01*
G75*
G02*
X122520000Y-83372500I0J147500D01*
G01*
G37*
G04 #@! TD.AperFunction*
G04 #@! TA.AperFunction,SMDPad,CuDef*
G36*
G01*
X123110000Y-107627500D02*
X123110000Y-107972500D01*
G75*
G02*
X122962500Y-108120000I-147500J0D01*
G01*
X122667500Y-108120000D01*
G75*
G02*
X122520000Y-107972500I0J147500D01*
G01*
X122520000Y-107627500D01*
G75*
G02*
X122667500Y-107480000I147500J0D01*
G01*
X122962500Y-107480000D01*
G75*
G02*
X123110000Y-107627500I0J-147500D01*
G01*
G37*
G04 #@! TD.AperFunction*
G04 #@! TA.AperFunction,SMDPad,CuDef*
G36*
G01*
X124080000Y-107627500D02*
X124080000Y-107972500D01*
G75*
G02*
X123932500Y-108120000I-147500J0D01*
G01*
X123637500Y-108120000D01*
G75*
G02*
X123490000Y-107972500I0J147500D01*
G01*
X123490000Y-107627500D01*
G75*
G02*
X123637500Y-107480000I147500J0D01*
G01*
X123932500Y-107480000D01*
G75*
G02*
X124080000Y-107627500I0J-147500D01*
G01*
G37*
G04 #@! TD.AperFunction*
D21*
X65900000Y-110450000D03*
X65900000Y-109350000D03*
G04 #@! TA.AperFunction,SMDPad,CuDef*
G36*
G01*
X66400000Y-109150000D02*
X66400000Y-110650000D01*
G75*
G02*
X66350000Y-110700000I-50000J0D01*
G01*
X65450000Y-110700000D01*
G75*
G02*
X65400000Y-110650000I0J50000D01*
G01*
X65400000Y-109150000D01*
G75*
G02*
X65450000Y-109100000I50000J0D01*
G01*
X66350000Y-109100000D01*
G75*
G02*
X66400000Y-109150000I0J-50000D01*
G01*
G37*
G04 #@! TD.AperFunction*
X65900000Y-115550000D03*
X65900000Y-114450000D03*
G04 #@! TA.AperFunction,SMDPad,CuDef*
G36*
G01*
X66400000Y-114250000D02*
X66400000Y-115750000D01*
G75*
G02*
X66350000Y-115800000I-50000J0D01*
G01*
X65450000Y-115800000D01*
G75*
G02*
X65400000Y-115750000I0J50000D01*
G01*
X65400000Y-114250000D01*
G75*
G02*
X65450000Y-114200000I50000J0D01*
G01*
X66350000Y-114200000D01*
G75*
G02*
X66400000Y-114250000I0J-50000D01*
G01*
G37*
G04 #@! TD.AperFunction*
D22*
X57900000Y-94700000D03*
X124600000Y-91200000D03*
X122000000Y-99800000D03*
X70650000Y-111200000D03*
X55500000Y-96300000D03*
X57900000Y-96800000D03*
X55500000Y-94250000D03*
X81500000Y-116000000D03*
X81500000Y-111000000D03*
X88300000Y-116000000D03*
X88300000Y-113500000D03*
X88300000Y-111000000D03*
G04 #@! TA.AperFunction,SMDPad,CuDef*
G36*
G01*
X89627500Y-99440000D02*
X89972500Y-99440000D01*
G75*
G02*
X90120000Y-99587500I0J-147500D01*
G01*
X90120000Y-99882500D01*
G75*
G02*
X89972500Y-100030000I-147500J0D01*
G01*
X89627500Y-100030000D01*
G75*
G02*
X89480000Y-99882500I0J147500D01*
G01*
X89480000Y-99587500D01*
G75*
G02*
X89627500Y-99440000I147500J0D01*
G01*
G37*
G04 #@! TD.AperFunction*
G04 #@! TA.AperFunction,SMDPad,CuDef*
G36*
G01*
X89627500Y-98470000D02*
X89972500Y-98470000D01*
G75*
G02*
X90120000Y-98617500I0J-147500D01*
G01*
X90120000Y-98912500D01*
G75*
G02*
X89972500Y-99060000I-147500J0D01*
G01*
X89627500Y-99060000D01*
G75*
G02*
X89480000Y-98912500I0J147500D01*
G01*
X89480000Y-98617500D01*
G75*
G02*
X89627500Y-98470000I147500J0D01*
G01*
G37*
G04 #@! TD.AperFunction*
G04 #@! TA.AperFunction,SMDPad,CuDef*
G36*
G01*
X96877500Y-93940000D02*
X97222500Y-93940000D01*
G75*
G02*
X97370000Y-94087500I0J-147500D01*
G01*
X97370000Y-94382500D01*
G75*
G02*
X97222500Y-94530000I-147500J0D01*
G01*
X96877500Y-94530000D01*
G75*
G02*
X96730000Y-94382500I0J147500D01*
G01*
X96730000Y-94087500D01*
G75*
G02*
X96877500Y-93940000I147500J0D01*
G01*
G37*
G04 #@! TD.AperFunction*
G04 #@! TA.AperFunction,SMDPad,CuDef*
G36*
G01*
X96877500Y-92970000D02*
X97222500Y-92970000D01*
G75*
G02*
X97370000Y-93117500I0J-147500D01*
G01*
X97370000Y-93412500D01*
G75*
G02*
X97222500Y-93560000I-147500J0D01*
G01*
X96877500Y-93560000D01*
G75*
G02*
X96730000Y-93412500I0J147500D01*
G01*
X96730000Y-93117500D01*
G75*
G02*
X96877500Y-92970000I147500J0D01*
G01*
G37*
G04 #@! TD.AperFunction*
G04 #@! TA.AperFunction,SMDPad,CuDef*
G36*
G01*
X98977500Y-91140000D02*
X99322500Y-91140000D01*
G75*
G02*
X99470000Y-91287500I0J-147500D01*
G01*
X99470000Y-91582500D01*
G75*
G02*
X99322500Y-91730000I-147500J0D01*
G01*
X98977500Y-91730000D01*
G75*
G02*
X98830000Y-91582500I0J147500D01*
G01*
X98830000Y-91287500D01*
G75*
G02*
X98977500Y-91140000I147500J0D01*
G01*
G37*
G04 #@! TD.AperFunction*
G04 #@! TA.AperFunction,SMDPad,CuDef*
G36*
G01*
X98977500Y-90170000D02*
X99322500Y-90170000D01*
G75*
G02*
X99470000Y-90317500I0J-147500D01*
G01*
X99470000Y-90612500D01*
G75*
G02*
X99322500Y-90760000I-147500J0D01*
G01*
X98977500Y-90760000D01*
G75*
G02*
X98830000Y-90612500I0J147500D01*
G01*
X98830000Y-90317500D01*
G75*
G02*
X98977500Y-90170000I147500J0D01*
G01*
G37*
G04 #@! TD.AperFunction*
G04 #@! TA.AperFunction,SMDPad,CuDef*
G36*
G01*
X98977500Y-88340000D02*
X99322500Y-88340000D01*
G75*
G02*
X99470000Y-88487500I0J-147500D01*
G01*
X99470000Y-88782500D01*
G75*
G02*
X99322500Y-88930000I-147500J0D01*
G01*
X98977500Y-88930000D01*
G75*
G02*
X98830000Y-88782500I0J147500D01*
G01*
X98830000Y-88487500D01*
G75*
G02*
X98977500Y-88340000I147500J0D01*
G01*
G37*
G04 #@! TD.AperFunction*
G04 #@! TA.AperFunction,SMDPad,CuDef*
G36*
G01*
X98977500Y-87370000D02*
X99322500Y-87370000D01*
G75*
G02*
X99470000Y-87517500I0J-147500D01*
G01*
X99470000Y-87812500D01*
G75*
G02*
X99322500Y-87960000I-147500J0D01*
G01*
X98977500Y-87960000D01*
G75*
G02*
X98830000Y-87812500I0J147500D01*
G01*
X98830000Y-87517500D01*
G75*
G02*
X98977500Y-87370000I147500J0D01*
G01*
G37*
G04 #@! TD.AperFunction*
G04 #@! TA.AperFunction,SMDPad,CuDef*
G36*
G01*
X98977500Y-85540000D02*
X99322500Y-85540000D01*
G75*
G02*
X99470000Y-85687500I0J-147500D01*
G01*
X99470000Y-85982500D01*
G75*
G02*
X99322500Y-86130000I-147500J0D01*
G01*
X98977500Y-86130000D01*
G75*
G02*
X98830000Y-85982500I0J147500D01*
G01*
X98830000Y-85687500D01*
G75*
G02*
X98977500Y-85540000I147500J0D01*
G01*
G37*
G04 #@! TD.AperFunction*
G04 #@! TA.AperFunction,SMDPad,CuDef*
G36*
G01*
X98977500Y-84570000D02*
X99322500Y-84570000D01*
G75*
G02*
X99470000Y-84717500I0J-147500D01*
G01*
X99470000Y-85012500D01*
G75*
G02*
X99322500Y-85160000I-147500J0D01*
G01*
X98977500Y-85160000D01*
G75*
G02*
X98830000Y-85012500I0J147500D01*
G01*
X98830000Y-84717500D01*
G75*
G02*
X98977500Y-84570000I147500J0D01*
G01*
G37*
G04 #@! TD.AperFunction*
G04 #@! TA.AperFunction,SMDPad,CuDef*
G36*
G01*
X96877500Y-88340000D02*
X97222500Y-88340000D01*
G75*
G02*
X97370000Y-88487500I0J-147500D01*
G01*
X97370000Y-88782500D01*
G75*
G02*
X97222500Y-88930000I-147500J0D01*
G01*
X96877500Y-88930000D01*
G75*
G02*
X96730000Y-88782500I0J147500D01*
G01*
X96730000Y-88487500D01*
G75*
G02*
X96877500Y-88340000I147500J0D01*
G01*
G37*
G04 #@! TD.AperFunction*
G04 #@! TA.AperFunction,SMDPad,CuDef*
G36*
G01*
X96877500Y-87370000D02*
X97222500Y-87370000D01*
G75*
G02*
X97370000Y-87517500I0J-147500D01*
G01*
X97370000Y-87812500D01*
G75*
G02*
X97222500Y-87960000I-147500J0D01*
G01*
X96877500Y-87960000D01*
G75*
G02*
X96730000Y-87812500I0J147500D01*
G01*
X96730000Y-87517500D01*
G75*
G02*
X96877500Y-87370000I147500J0D01*
G01*
G37*
G04 #@! TD.AperFunction*
G04 #@! TA.AperFunction,SMDPad,CuDef*
G36*
G01*
X94977500Y-91140000D02*
X95322500Y-91140000D01*
G75*
G02*
X95470000Y-91287500I0J-147500D01*
G01*
X95470000Y-91582500D01*
G75*
G02*
X95322500Y-91730000I-147500J0D01*
G01*
X94977500Y-91730000D01*
G75*
G02*
X94830000Y-91582500I0J147500D01*
G01*
X94830000Y-91287500D01*
G75*
G02*
X94977500Y-91140000I147500J0D01*
G01*
G37*
G04 #@! TD.AperFunction*
G04 #@! TA.AperFunction,SMDPad,CuDef*
G36*
G01*
X94977500Y-90170000D02*
X95322500Y-90170000D01*
G75*
G02*
X95470000Y-90317500I0J-147500D01*
G01*
X95470000Y-90612500D01*
G75*
G02*
X95322500Y-90760000I-147500J0D01*
G01*
X94977500Y-90760000D01*
G75*
G02*
X94830000Y-90612500I0J147500D01*
G01*
X94830000Y-90317500D01*
G75*
G02*
X94977500Y-90170000I147500J0D01*
G01*
G37*
G04 #@! TD.AperFunction*
G04 #@! TA.AperFunction,SMDPad,CuDef*
G36*
G01*
X94977500Y-93940000D02*
X95322500Y-93940000D01*
G75*
G02*
X95470000Y-94087500I0J-147500D01*
G01*
X95470000Y-94382500D01*
G75*
G02*
X95322500Y-94530000I-147500J0D01*
G01*
X94977500Y-94530000D01*
G75*
G02*
X94830000Y-94382500I0J147500D01*
G01*
X94830000Y-94087500D01*
G75*
G02*
X94977500Y-93940000I147500J0D01*
G01*
G37*
G04 #@! TD.AperFunction*
G04 #@! TA.AperFunction,SMDPad,CuDef*
G36*
G01*
X94977500Y-92970000D02*
X95322500Y-92970000D01*
G75*
G02*
X95470000Y-93117500I0J-147500D01*
G01*
X95470000Y-93412500D01*
G75*
G02*
X95322500Y-93560000I-147500J0D01*
G01*
X94977500Y-93560000D01*
G75*
G02*
X94830000Y-93412500I0J147500D01*
G01*
X94830000Y-93117500D01*
G75*
G02*
X94977500Y-92970000I147500J0D01*
G01*
G37*
G04 #@! TD.AperFunction*
G04 #@! TA.AperFunction,SMDPad,CuDef*
G36*
G01*
X94977500Y-88340000D02*
X95322500Y-88340000D01*
G75*
G02*
X95470000Y-88487500I0J-147500D01*
G01*
X95470000Y-88782500D01*
G75*
G02*
X95322500Y-88930000I-147500J0D01*
G01*
X94977500Y-88930000D01*
G75*
G02*
X94830000Y-88782500I0J147500D01*
G01*
X94830000Y-88487500D01*
G75*
G02*
X94977500Y-88340000I147500J0D01*
G01*
G37*
G04 #@! TD.AperFunction*
G04 #@! TA.AperFunction,SMDPad,CuDef*
G36*
G01*
X94977500Y-87370000D02*
X95322500Y-87370000D01*
G75*
G02*
X95470000Y-87517500I0J-147500D01*
G01*
X95470000Y-87812500D01*
G75*
G02*
X95322500Y-87960000I-147500J0D01*
G01*
X94977500Y-87960000D01*
G75*
G02*
X94830000Y-87812500I0J147500D01*
G01*
X94830000Y-87517500D01*
G75*
G02*
X94977500Y-87370000I147500J0D01*
G01*
G37*
G04 #@! TD.AperFunction*
G04 #@! TA.AperFunction,SMDPad,CuDef*
G36*
G01*
X94977500Y-85540000D02*
X95322500Y-85540000D01*
G75*
G02*
X95470000Y-85687500I0J-147500D01*
G01*
X95470000Y-85982500D01*
G75*
G02*
X95322500Y-86130000I-147500J0D01*
G01*
X94977500Y-86130000D01*
G75*
G02*
X94830000Y-85982500I0J147500D01*
G01*
X94830000Y-85687500D01*
G75*
G02*
X94977500Y-85540000I147500J0D01*
G01*
G37*
G04 #@! TD.AperFunction*
G04 #@! TA.AperFunction,SMDPad,CuDef*
G36*
G01*
X94977500Y-84570000D02*
X95322500Y-84570000D01*
G75*
G02*
X95470000Y-84717500I0J-147500D01*
G01*
X95470000Y-85012500D01*
G75*
G02*
X95322500Y-85160000I-147500J0D01*
G01*
X94977500Y-85160000D01*
G75*
G02*
X94830000Y-85012500I0J147500D01*
G01*
X94830000Y-84717500D01*
G75*
G02*
X94977500Y-84570000I147500J0D01*
G01*
G37*
G04 #@! TD.AperFunction*
G04 #@! TA.AperFunction,SMDPad,CuDef*
G36*
G01*
X96877500Y-85540000D02*
X97222500Y-85540000D01*
G75*
G02*
X97370000Y-85687500I0J-147500D01*
G01*
X97370000Y-85982500D01*
G75*
G02*
X97222500Y-86130000I-147500J0D01*
G01*
X96877500Y-86130000D01*
G75*
G02*
X96730000Y-85982500I0J147500D01*
G01*
X96730000Y-85687500D01*
G75*
G02*
X96877500Y-85540000I147500J0D01*
G01*
G37*
G04 #@! TD.AperFunction*
G04 #@! TA.AperFunction,SMDPad,CuDef*
G36*
G01*
X96877500Y-84570000D02*
X97222500Y-84570000D01*
G75*
G02*
X97370000Y-84717500I0J-147500D01*
G01*
X97370000Y-85012500D01*
G75*
G02*
X97222500Y-85160000I-147500J0D01*
G01*
X96877500Y-85160000D01*
G75*
G02*
X96730000Y-85012500I0J147500D01*
G01*
X96730000Y-84717500D01*
G75*
G02*
X96877500Y-84570000I147500J0D01*
G01*
G37*
G04 #@! TD.AperFunction*
G04 #@! TA.AperFunction,SMDPad,CuDef*
G36*
G01*
X96877500Y-105140000D02*
X97222500Y-105140000D01*
G75*
G02*
X97370000Y-105287500I0J-147500D01*
G01*
X97370000Y-105582500D01*
G75*
G02*
X97222500Y-105730000I-147500J0D01*
G01*
X96877500Y-105730000D01*
G75*
G02*
X96730000Y-105582500I0J147500D01*
G01*
X96730000Y-105287500D01*
G75*
G02*
X96877500Y-105140000I147500J0D01*
G01*
G37*
G04 #@! TD.AperFunction*
G04 #@! TA.AperFunction,SMDPad,CuDef*
G36*
G01*
X96877500Y-104170000D02*
X97222500Y-104170000D01*
G75*
G02*
X97370000Y-104317500I0J-147500D01*
G01*
X97370000Y-104612500D01*
G75*
G02*
X97222500Y-104760000I-147500J0D01*
G01*
X96877500Y-104760000D01*
G75*
G02*
X96730000Y-104612500I0J147500D01*
G01*
X96730000Y-104317500D01*
G75*
G02*
X96877500Y-104170000I147500J0D01*
G01*
G37*
G04 #@! TD.AperFunction*
G04 #@! TA.AperFunction,SMDPad,CuDef*
G36*
G01*
X94977500Y-105140000D02*
X95322500Y-105140000D01*
G75*
G02*
X95470000Y-105287500I0J-147500D01*
G01*
X95470000Y-105582500D01*
G75*
G02*
X95322500Y-105730000I-147500J0D01*
G01*
X94977500Y-105730000D01*
G75*
G02*
X94830000Y-105582500I0J147500D01*
G01*
X94830000Y-105287500D01*
G75*
G02*
X94977500Y-105140000I147500J0D01*
G01*
G37*
G04 #@! TD.AperFunction*
G04 #@! TA.AperFunction,SMDPad,CuDef*
G36*
G01*
X94977500Y-104170000D02*
X95322500Y-104170000D01*
G75*
G02*
X95470000Y-104317500I0J-147500D01*
G01*
X95470000Y-104612500D01*
G75*
G02*
X95322500Y-104760000I-147500J0D01*
G01*
X94977500Y-104760000D01*
G75*
G02*
X94830000Y-104612500I0J147500D01*
G01*
X94830000Y-104317500D01*
G75*
G02*
X94977500Y-104170000I147500J0D01*
G01*
G37*
G04 #@! TD.AperFunction*
G04 #@! TA.AperFunction,SMDPad,CuDef*
G36*
G01*
X96877500Y-102340000D02*
X97222500Y-102340000D01*
G75*
G02*
X97370000Y-102487500I0J-147500D01*
G01*
X97370000Y-102782500D01*
G75*
G02*
X97222500Y-102930000I-147500J0D01*
G01*
X96877500Y-102930000D01*
G75*
G02*
X96730000Y-102782500I0J147500D01*
G01*
X96730000Y-102487500D01*
G75*
G02*
X96877500Y-102340000I147500J0D01*
G01*
G37*
G04 #@! TD.AperFunction*
G04 #@! TA.AperFunction,SMDPad,CuDef*
G36*
G01*
X96877500Y-101370000D02*
X97222500Y-101370000D01*
G75*
G02*
X97370000Y-101517500I0J-147500D01*
G01*
X97370000Y-101812500D01*
G75*
G02*
X97222500Y-101960000I-147500J0D01*
G01*
X96877500Y-101960000D01*
G75*
G02*
X96730000Y-101812500I0J147500D01*
G01*
X96730000Y-101517500D01*
G75*
G02*
X96877500Y-101370000I147500J0D01*
G01*
G37*
G04 #@! TD.AperFunction*
G04 #@! TA.AperFunction,SMDPad,CuDef*
G36*
G01*
X94977500Y-102340000D02*
X95322500Y-102340000D01*
G75*
G02*
X95470000Y-102487500I0J-147500D01*
G01*
X95470000Y-102782500D01*
G75*
G02*
X95322500Y-102930000I-147500J0D01*
G01*
X94977500Y-102930000D01*
G75*
G02*
X94830000Y-102782500I0J147500D01*
G01*
X94830000Y-102487500D01*
G75*
G02*
X94977500Y-102340000I147500J0D01*
G01*
G37*
G04 #@! TD.AperFunction*
G04 #@! TA.AperFunction,SMDPad,CuDef*
G36*
G01*
X94977500Y-101370000D02*
X95322500Y-101370000D01*
G75*
G02*
X95470000Y-101517500I0J-147500D01*
G01*
X95470000Y-101812500D01*
G75*
G02*
X95322500Y-101960000I-147500J0D01*
G01*
X94977500Y-101960000D01*
G75*
G02*
X94830000Y-101812500I0J147500D01*
G01*
X94830000Y-101517500D01*
G75*
G02*
X94977500Y-101370000I147500J0D01*
G01*
G37*
G04 #@! TD.AperFunction*
G04 #@! TA.AperFunction,SMDPad,CuDef*
G36*
G01*
X94977500Y-99540000D02*
X95322500Y-99540000D01*
G75*
G02*
X95470000Y-99687500I0J-147500D01*
G01*
X95470000Y-99982500D01*
G75*
G02*
X95322500Y-100130000I-147500J0D01*
G01*
X94977500Y-100130000D01*
G75*
G02*
X94830000Y-99982500I0J147500D01*
G01*
X94830000Y-99687500D01*
G75*
G02*
X94977500Y-99540000I147500J0D01*
G01*
G37*
G04 #@! TD.AperFunction*
G04 #@! TA.AperFunction,SMDPad,CuDef*
G36*
G01*
X94977500Y-98570000D02*
X95322500Y-98570000D01*
G75*
G02*
X95470000Y-98717500I0J-147500D01*
G01*
X95470000Y-99012500D01*
G75*
G02*
X95322500Y-99160000I-147500J0D01*
G01*
X94977500Y-99160000D01*
G75*
G02*
X94830000Y-99012500I0J147500D01*
G01*
X94830000Y-98717500D01*
G75*
G02*
X94977500Y-98570000I147500J0D01*
G01*
G37*
G04 #@! TD.AperFunction*
G04 #@! TA.AperFunction,SMDPad,CuDef*
G36*
G01*
X96877500Y-99540000D02*
X97222500Y-99540000D01*
G75*
G02*
X97370000Y-99687500I0J-147500D01*
G01*
X97370000Y-99982500D01*
G75*
G02*
X97222500Y-100130000I-147500J0D01*
G01*
X96877500Y-100130000D01*
G75*
G02*
X96730000Y-99982500I0J147500D01*
G01*
X96730000Y-99687500D01*
G75*
G02*
X96877500Y-99540000I147500J0D01*
G01*
G37*
G04 #@! TD.AperFunction*
G04 #@! TA.AperFunction,SMDPad,CuDef*
G36*
G01*
X96877500Y-98570000D02*
X97222500Y-98570000D01*
G75*
G02*
X97370000Y-98717500I0J-147500D01*
G01*
X97370000Y-99012500D01*
G75*
G02*
X97222500Y-99160000I-147500J0D01*
G01*
X96877500Y-99160000D01*
G75*
G02*
X96730000Y-99012500I0J147500D01*
G01*
X96730000Y-98717500D01*
G75*
G02*
X96877500Y-98570000I147500J0D01*
G01*
G37*
G04 #@! TD.AperFunction*
G04 #@! TA.AperFunction,SMDPad,CuDef*
G36*
G01*
X80222500Y-99310000D02*
X79877500Y-99310000D01*
G75*
G02*
X79730000Y-99162500I0J147500D01*
G01*
X79730000Y-98867500D01*
G75*
G02*
X79877500Y-98720000I147500J0D01*
G01*
X80222500Y-98720000D01*
G75*
G02*
X80370000Y-98867500I0J-147500D01*
G01*
X80370000Y-99162500D01*
G75*
G02*
X80222500Y-99310000I-147500J0D01*
G01*
G37*
G04 #@! TD.AperFunction*
G04 #@! TA.AperFunction,SMDPad,CuDef*
G36*
G01*
X80222500Y-100280000D02*
X79877500Y-100280000D01*
G75*
G02*
X79730000Y-100132500I0J147500D01*
G01*
X79730000Y-99837500D01*
G75*
G02*
X79877500Y-99690000I147500J0D01*
G01*
X80222500Y-99690000D01*
G75*
G02*
X80370000Y-99837500I0J-147500D01*
G01*
X80370000Y-100132500D01*
G75*
G02*
X80222500Y-100280000I-147500J0D01*
G01*
G37*
G04 #@! TD.AperFunction*
G04 #@! TA.AperFunction,SMDPad,CuDef*
G36*
G01*
X79625000Y-94727500D02*
X79625000Y-95072500D01*
G75*
G02*
X79477500Y-95220000I-147500J0D01*
G01*
X79182500Y-95220000D01*
G75*
G02*
X79035000Y-95072500I0J147500D01*
G01*
X79035000Y-94727500D01*
G75*
G02*
X79182500Y-94580000I147500J0D01*
G01*
X79477500Y-94580000D01*
G75*
G02*
X79625000Y-94727500I0J-147500D01*
G01*
G37*
G04 #@! TD.AperFunction*
G04 #@! TA.AperFunction,SMDPad,CuDef*
G36*
G01*
X80595000Y-94727500D02*
X80595000Y-95072500D01*
G75*
G02*
X80447500Y-95220000I-147500J0D01*
G01*
X80152500Y-95220000D01*
G75*
G02*
X80005000Y-95072500I0J147500D01*
G01*
X80005000Y-94727500D01*
G75*
G02*
X80152500Y-94580000I147500J0D01*
G01*
X80447500Y-94580000D01*
G75*
G02*
X80595000Y-94727500I0J-147500D01*
G01*
G37*
G04 #@! TD.AperFunction*
G04 #@! TA.AperFunction,SMDPad,CuDef*
G36*
G01*
X77710000Y-97427500D02*
X77710000Y-97772500D01*
G75*
G02*
X77562500Y-97920000I-147500J0D01*
G01*
X77267500Y-97920000D01*
G75*
G02*
X77120000Y-97772500I0J147500D01*
G01*
X77120000Y-97427500D01*
G75*
G02*
X77267500Y-97280000I147500J0D01*
G01*
X77562500Y-97280000D01*
G75*
G02*
X77710000Y-97427500I0J-147500D01*
G01*
G37*
G04 #@! TD.AperFunction*
G04 #@! TA.AperFunction,SMDPad,CuDef*
G36*
G01*
X78680000Y-97427500D02*
X78680000Y-97772500D01*
G75*
G02*
X78532500Y-97920000I-147500J0D01*
G01*
X78237500Y-97920000D01*
G75*
G02*
X78090000Y-97772500I0J147500D01*
G01*
X78090000Y-97427500D01*
G75*
G02*
X78237500Y-97280000I147500J0D01*
G01*
X78532500Y-97280000D01*
G75*
G02*
X78680000Y-97427500I0J-147500D01*
G01*
G37*
G04 #@! TD.AperFunction*
G04 #@! TA.AperFunction,SMDPad,CuDef*
G36*
G01*
X90022500Y-95560000D02*
X89677500Y-95560000D01*
G75*
G02*
X89530000Y-95412500I0J147500D01*
G01*
X89530000Y-95117500D01*
G75*
G02*
X89677500Y-94970000I147500J0D01*
G01*
X90022500Y-94970000D01*
G75*
G02*
X90170000Y-95117500I0J-147500D01*
G01*
X90170000Y-95412500D01*
G75*
G02*
X90022500Y-95560000I-147500J0D01*
G01*
G37*
G04 #@! TD.AperFunction*
G04 #@! TA.AperFunction,SMDPad,CuDef*
G36*
G01*
X90022500Y-96530000D02*
X89677500Y-96530000D01*
G75*
G02*
X89530000Y-96382500I0J147500D01*
G01*
X89530000Y-96087500D01*
G75*
G02*
X89677500Y-95940000I147500J0D01*
G01*
X90022500Y-95940000D01*
G75*
G02*
X90170000Y-96087500I0J-147500D01*
G01*
X90170000Y-96382500D01*
G75*
G02*
X90022500Y-96530000I-147500J0D01*
G01*
G37*
G04 #@! TD.AperFunction*
D23*
X69850000Y-95500000D03*
X71120000Y-95500000D03*
X72390000Y-95500000D03*
X68580000Y-95500000D03*
X67310000Y-95500000D03*
X67310000Y-94230000D03*
X68580000Y-94230000D03*
X69850000Y-94230000D03*
X71120000Y-94230000D03*
X72390000Y-94230000D03*
X72390000Y-92960000D03*
X71120000Y-92960000D03*
X69850000Y-92960000D03*
X68580000Y-92960000D03*
X67310000Y-92960000D03*
X67310000Y-96770000D03*
X68580000Y-96770000D03*
X69850000Y-96770000D03*
X71120000Y-96770000D03*
X72390000Y-96770000D03*
X72390000Y-98040000D03*
X71120000Y-98040000D03*
X69850000Y-98040000D03*
X68580000Y-98040000D03*
X67310000Y-98040000D03*
D24*
X69850000Y-95500000D03*
G04 #@! TA.AperFunction,SMDPad,CuDef*
G36*
G01*
X71910000Y-99277500D02*
X71910000Y-99622500D01*
G75*
G02*
X71762500Y-99770000I-147500J0D01*
G01*
X71467500Y-99770000D01*
G75*
G02*
X71320000Y-99622500I0J147500D01*
G01*
X71320000Y-99277500D01*
G75*
G02*
X71467500Y-99130000I147500J0D01*
G01*
X71762500Y-99130000D01*
G75*
G02*
X71910000Y-99277500I0J-147500D01*
G01*
G37*
G04 #@! TD.AperFunction*
G04 #@! TA.AperFunction,SMDPad,CuDef*
G36*
G01*
X72880000Y-99277500D02*
X72880000Y-99622500D01*
G75*
G02*
X72732500Y-99770000I-147500J0D01*
G01*
X72437500Y-99770000D01*
G75*
G02*
X72290000Y-99622500I0J147500D01*
G01*
X72290000Y-99277500D01*
G75*
G02*
X72437500Y-99130000I147500J0D01*
G01*
X72732500Y-99130000D01*
G75*
G02*
X72880000Y-99277500I0J-147500D01*
G01*
G37*
G04 #@! TD.AperFunction*
G04 #@! TA.AperFunction,SMDPad,CuDef*
G36*
G01*
X83510000Y-94127500D02*
X83510000Y-94472500D01*
G75*
G02*
X83362500Y-94620000I-147500J0D01*
G01*
X83067500Y-94620000D01*
G75*
G02*
X82920000Y-94472500I0J147500D01*
G01*
X82920000Y-94127500D01*
G75*
G02*
X83067500Y-93980000I147500J0D01*
G01*
X83362500Y-93980000D01*
G75*
G02*
X83510000Y-94127500I0J-147500D01*
G01*
G37*
G04 #@! TD.AperFunction*
G04 #@! TA.AperFunction,SMDPad,CuDef*
G36*
G01*
X84480000Y-94127500D02*
X84480000Y-94472500D01*
G75*
G02*
X84332500Y-94620000I-147500J0D01*
G01*
X84037500Y-94620000D01*
G75*
G02*
X83890000Y-94472500I0J147500D01*
G01*
X83890000Y-94127500D01*
G75*
G02*
X84037500Y-93980000I147500J0D01*
G01*
X84332500Y-93980000D01*
G75*
G02*
X84480000Y-94127500I0J-147500D01*
G01*
G37*
G04 #@! TD.AperFunction*
G04 #@! TA.AperFunction,SMDPad,CuDef*
G36*
G01*
X82290000Y-97672500D02*
X82290000Y-97327500D01*
G75*
G02*
X82437500Y-97180000I147500J0D01*
G01*
X82732500Y-97180000D01*
G75*
G02*
X82880000Y-97327500I0J-147500D01*
G01*
X82880000Y-97672500D01*
G75*
G02*
X82732500Y-97820000I-147500J0D01*
G01*
X82437500Y-97820000D01*
G75*
G02*
X82290000Y-97672500I0J147500D01*
G01*
G37*
G04 #@! TD.AperFunction*
G04 #@! TA.AperFunction,SMDPad,CuDef*
G36*
G01*
X81320000Y-97672500D02*
X81320000Y-97327500D01*
G75*
G02*
X81467500Y-97180000I147500J0D01*
G01*
X81762500Y-97180000D01*
G75*
G02*
X81910000Y-97327500I0J-147500D01*
G01*
X81910000Y-97672500D01*
G75*
G02*
X81762500Y-97820000I-147500J0D01*
G01*
X81467500Y-97820000D01*
G75*
G02*
X81320000Y-97672500I0J147500D01*
G01*
G37*
G04 #@! TD.AperFunction*
G04 #@! TA.AperFunction,SMDPad,CuDef*
G36*
G01*
X65727500Y-97940000D02*
X66072500Y-97940000D01*
G75*
G02*
X66220000Y-98087500I0J-147500D01*
G01*
X66220000Y-98382500D01*
G75*
G02*
X66072500Y-98530000I-147500J0D01*
G01*
X65727500Y-98530000D01*
G75*
G02*
X65580000Y-98382500I0J147500D01*
G01*
X65580000Y-98087500D01*
G75*
G02*
X65727500Y-97940000I147500J0D01*
G01*
G37*
G04 #@! TD.AperFunction*
G04 #@! TA.AperFunction,SMDPad,CuDef*
G36*
G01*
X65727500Y-96970000D02*
X66072500Y-96970000D01*
G75*
G02*
X66220000Y-97117500I0J-147500D01*
G01*
X66220000Y-97412500D01*
G75*
G02*
X66072500Y-97560000I-147500J0D01*
G01*
X65727500Y-97560000D01*
G75*
G02*
X65580000Y-97412500I0J147500D01*
G01*
X65580000Y-97117500D01*
G75*
G02*
X65727500Y-96970000I147500J0D01*
G01*
G37*
G04 #@! TD.AperFunction*
G04 #@! TA.AperFunction,SMDPad,CuDef*
G36*
G01*
X65727500Y-95940000D02*
X66072500Y-95940000D01*
G75*
G02*
X66220000Y-96087500I0J-147500D01*
G01*
X66220000Y-96382500D01*
G75*
G02*
X66072500Y-96530000I-147500J0D01*
G01*
X65727500Y-96530000D01*
G75*
G02*
X65580000Y-96382500I0J147500D01*
G01*
X65580000Y-96087500D01*
G75*
G02*
X65727500Y-95940000I147500J0D01*
G01*
G37*
G04 #@! TD.AperFunction*
G04 #@! TA.AperFunction,SMDPad,CuDef*
G36*
G01*
X65727500Y-94970000D02*
X66072500Y-94970000D01*
G75*
G02*
X66220000Y-95117500I0J-147500D01*
G01*
X66220000Y-95412500D01*
G75*
G02*
X66072500Y-95560000I-147500J0D01*
G01*
X65727500Y-95560000D01*
G75*
G02*
X65580000Y-95412500I0J147500D01*
G01*
X65580000Y-95117500D01*
G75*
G02*
X65727500Y-94970000I147500J0D01*
G01*
G37*
G04 #@! TD.AperFunction*
G04 #@! TA.AperFunction,SMDPad,CuDef*
G36*
G01*
X73627500Y-97955000D02*
X73972500Y-97955000D01*
G75*
G02*
X74120000Y-98102500I0J-147500D01*
G01*
X74120000Y-98397500D01*
G75*
G02*
X73972500Y-98545000I-147500J0D01*
G01*
X73627500Y-98545000D01*
G75*
G02*
X73480000Y-98397500I0J147500D01*
G01*
X73480000Y-98102500D01*
G75*
G02*
X73627500Y-97955000I147500J0D01*
G01*
G37*
G04 #@! TD.AperFunction*
G04 #@! TA.AperFunction,SMDPad,CuDef*
G36*
G01*
X73627500Y-96985000D02*
X73972500Y-96985000D01*
G75*
G02*
X74120000Y-97132500I0J-147500D01*
G01*
X74120000Y-97427500D01*
G75*
G02*
X73972500Y-97575000I-147500J0D01*
G01*
X73627500Y-97575000D01*
G75*
G02*
X73480000Y-97427500I0J147500D01*
G01*
X73480000Y-97132500D01*
G75*
G02*
X73627500Y-96985000I147500J0D01*
G01*
G37*
G04 #@! TD.AperFunction*
G04 #@! TA.AperFunction,SMDPad,CuDef*
G36*
G01*
X72310000Y-91377500D02*
X72310000Y-91722500D01*
G75*
G02*
X72162500Y-91870000I-147500J0D01*
G01*
X71867500Y-91870000D01*
G75*
G02*
X71720000Y-91722500I0J147500D01*
G01*
X71720000Y-91377500D01*
G75*
G02*
X71867500Y-91230000I147500J0D01*
G01*
X72162500Y-91230000D01*
G75*
G02*
X72310000Y-91377500I0J-147500D01*
G01*
G37*
G04 #@! TD.AperFunction*
G04 #@! TA.AperFunction,SMDPad,CuDef*
G36*
G01*
X73280000Y-91377500D02*
X73280000Y-91722500D01*
G75*
G02*
X73132500Y-91870000I-147500J0D01*
G01*
X72837500Y-91870000D01*
G75*
G02*
X72690000Y-91722500I0J147500D01*
G01*
X72690000Y-91377500D01*
G75*
G02*
X72837500Y-91230000I147500J0D01*
G01*
X73132500Y-91230000D01*
G75*
G02*
X73280000Y-91377500I0J-147500D01*
G01*
G37*
G04 #@! TD.AperFunction*
G04 #@! TA.AperFunction,SMDPad,CuDef*
G36*
G01*
X67490000Y-91722500D02*
X67490000Y-91377500D01*
G75*
G02*
X67637500Y-91230000I147500J0D01*
G01*
X67932500Y-91230000D01*
G75*
G02*
X68080000Y-91377500I0J-147500D01*
G01*
X68080000Y-91722500D01*
G75*
G02*
X67932500Y-91870000I-147500J0D01*
G01*
X67637500Y-91870000D01*
G75*
G02*
X67490000Y-91722500I0J147500D01*
G01*
G37*
G04 #@! TD.AperFunction*
G04 #@! TA.AperFunction,SMDPad,CuDef*
G36*
G01*
X66520000Y-91722500D02*
X66520000Y-91377500D01*
G75*
G02*
X66667500Y-91230000I147500J0D01*
G01*
X66962500Y-91230000D01*
G75*
G02*
X67110000Y-91377500I0J-147500D01*
G01*
X67110000Y-91722500D01*
G75*
G02*
X66962500Y-91870000I-147500J0D01*
G01*
X66667500Y-91870000D01*
G75*
G02*
X66520000Y-91722500I0J147500D01*
G01*
G37*
G04 #@! TD.AperFunction*
G04 #@! TA.AperFunction,SMDPad,CuDef*
G36*
G01*
X65727500Y-93955000D02*
X66072500Y-93955000D01*
G75*
G02*
X66220000Y-94102500I0J-147500D01*
G01*
X66220000Y-94397500D01*
G75*
G02*
X66072500Y-94545000I-147500J0D01*
G01*
X65727500Y-94545000D01*
G75*
G02*
X65580000Y-94397500I0J147500D01*
G01*
X65580000Y-94102500D01*
G75*
G02*
X65727500Y-93955000I147500J0D01*
G01*
G37*
G04 #@! TD.AperFunction*
G04 #@! TA.AperFunction,SMDPad,CuDef*
G36*
G01*
X65727500Y-92985000D02*
X66072500Y-92985000D01*
G75*
G02*
X66220000Y-93132500I0J-147500D01*
G01*
X66220000Y-93427500D01*
G75*
G02*
X66072500Y-93575000I-147500J0D01*
G01*
X65727500Y-93575000D01*
G75*
G02*
X65580000Y-93427500I0J147500D01*
G01*
X65580000Y-93132500D01*
G75*
G02*
X65727500Y-92985000I147500J0D01*
G01*
G37*
G04 #@! TD.AperFunction*
G04 #@! TA.AperFunction,SMDPad,CuDef*
G36*
G01*
X68290000Y-99622500D02*
X68290000Y-99277500D01*
G75*
G02*
X68437500Y-99130000I147500J0D01*
G01*
X68732500Y-99130000D01*
G75*
G02*
X68880000Y-99277500I0J-147500D01*
G01*
X68880000Y-99622500D01*
G75*
G02*
X68732500Y-99770000I-147500J0D01*
G01*
X68437500Y-99770000D01*
G75*
G02*
X68290000Y-99622500I0J147500D01*
G01*
G37*
G04 #@! TD.AperFunction*
G04 #@! TA.AperFunction,SMDPad,CuDef*
G36*
G01*
X67320000Y-99622500D02*
X67320000Y-99277500D01*
G75*
G02*
X67467500Y-99130000I147500J0D01*
G01*
X67762500Y-99130000D01*
G75*
G02*
X67910000Y-99277500I0J-147500D01*
G01*
X67910000Y-99622500D01*
G75*
G02*
X67762500Y-99770000I-147500J0D01*
G01*
X67467500Y-99770000D01*
G75*
G02*
X67320000Y-99622500I0J147500D01*
G01*
G37*
G04 #@! TD.AperFunction*
G04 #@! TA.AperFunction,SMDPad,CuDef*
G36*
G01*
X87372500Y-95310000D02*
X87027500Y-95310000D01*
G75*
G02*
X86880000Y-95162500I0J147500D01*
G01*
X86880000Y-94867500D01*
G75*
G02*
X87027500Y-94720000I147500J0D01*
G01*
X87372500Y-94720000D01*
G75*
G02*
X87520000Y-94867500I0J-147500D01*
G01*
X87520000Y-95162500D01*
G75*
G02*
X87372500Y-95310000I-147500J0D01*
G01*
G37*
G04 #@! TD.AperFunction*
G04 #@! TA.AperFunction,SMDPad,CuDef*
G36*
G01*
X87372500Y-96280000D02*
X87027500Y-96280000D01*
G75*
G02*
X86880000Y-96132500I0J147500D01*
G01*
X86880000Y-95837500D01*
G75*
G02*
X87027500Y-95690000I147500J0D01*
G01*
X87372500Y-95690000D01*
G75*
G02*
X87520000Y-95837500I0J-147500D01*
G01*
X87520000Y-96132500D01*
G75*
G02*
X87372500Y-96280000I-147500J0D01*
G01*
G37*
G04 #@! TD.AperFunction*
G04 #@! TA.AperFunction,SMDPad,CuDef*
G36*
G01*
X76090000Y-110272500D02*
X76090000Y-109927500D01*
G75*
G02*
X76237500Y-109780000I147500J0D01*
G01*
X76532500Y-109780000D01*
G75*
G02*
X76680000Y-109927500I0J-147500D01*
G01*
X76680000Y-110272500D01*
G75*
G02*
X76532500Y-110420000I-147500J0D01*
G01*
X76237500Y-110420000D01*
G75*
G02*
X76090000Y-110272500I0J147500D01*
G01*
G37*
G04 #@! TD.AperFunction*
G04 #@! TA.AperFunction,SMDPad,CuDef*
G36*
G01*
X75120000Y-110272500D02*
X75120000Y-109927500D01*
G75*
G02*
X75267500Y-109780000I147500J0D01*
G01*
X75562500Y-109780000D01*
G75*
G02*
X75710000Y-109927500I0J-147500D01*
G01*
X75710000Y-110272500D01*
G75*
G02*
X75562500Y-110420000I-147500J0D01*
G01*
X75267500Y-110420000D01*
G75*
G02*
X75120000Y-110272500I0J147500D01*
G01*
G37*
G04 #@! TD.AperFunction*
G04 #@! TA.AperFunction,SMDPad,CuDef*
G36*
G01*
X72590000Y-110272500D02*
X72590000Y-109927500D01*
G75*
G02*
X72737500Y-109780000I147500J0D01*
G01*
X73032500Y-109780000D01*
G75*
G02*
X73180000Y-109927500I0J-147500D01*
G01*
X73180000Y-110272500D01*
G75*
G02*
X73032500Y-110420000I-147500J0D01*
G01*
X72737500Y-110420000D01*
G75*
G02*
X72590000Y-110272500I0J147500D01*
G01*
G37*
G04 #@! TD.AperFunction*
G04 #@! TA.AperFunction,SMDPad,CuDef*
G36*
G01*
X71620000Y-110272500D02*
X71620000Y-109927500D01*
G75*
G02*
X71767500Y-109780000I147500J0D01*
G01*
X72062500Y-109780000D01*
G75*
G02*
X72210000Y-109927500I0J-147500D01*
G01*
X72210000Y-110272500D01*
G75*
G02*
X72062500Y-110420000I-147500J0D01*
G01*
X71767500Y-110420000D01*
G75*
G02*
X71620000Y-110272500I0J147500D01*
G01*
G37*
G04 #@! TD.AperFunction*
G04 #@! TA.AperFunction,SMDPad,CuDef*
G36*
G01*
X100877500Y-105140000D02*
X101222500Y-105140000D01*
G75*
G02*
X101370000Y-105287500I0J-147500D01*
G01*
X101370000Y-105582500D01*
G75*
G02*
X101222500Y-105730000I-147500J0D01*
G01*
X100877500Y-105730000D01*
G75*
G02*
X100730000Y-105582500I0J147500D01*
G01*
X100730000Y-105287500D01*
G75*
G02*
X100877500Y-105140000I147500J0D01*
G01*
G37*
G04 #@! TD.AperFunction*
G04 #@! TA.AperFunction,SMDPad,CuDef*
G36*
G01*
X100877500Y-104170000D02*
X101222500Y-104170000D01*
G75*
G02*
X101370000Y-104317500I0J-147500D01*
G01*
X101370000Y-104612500D01*
G75*
G02*
X101222500Y-104760000I-147500J0D01*
G01*
X100877500Y-104760000D01*
G75*
G02*
X100730000Y-104612500I0J147500D01*
G01*
X100730000Y-104317500D01*
G75*
G02*
X100877500Y-104170000I147500J0D01*
G01*
G37*
G04 #@! TD.AperFunction*
G04 #@! TA.AperFunction,SMDPad,CuDef*
G36*
G01*
X100877500Y-102340000D02*
X101222500Y-102340000D01*
G75*
G02*
X101370000Y-102487500I0J-147500D01*
G01*
X101370000Y-102782500D01*
G75*
G02*
X101222500Y-102930000I-147500J0D01*
G01*
X100877500Y-102930000D01*
G75*
G02*
X100730000Y-102782500I0J147500D01*
G01*
X100730000Y-102487500D01*
G75*
G02*
X100877500Y-102340000I147500J0D01*
G01*
G37*
G04 #@! TD.AperFunction*
G04 #@! TA.AperFunction,SMDPad,CuDef*
G36*
G01*
X100877500Y-101370000D02*
X101222500Y-101370000D01*
G75*
G02*
X101370000Y-101517500I0J-147500D01*
G01*
X101370000Y-101812500D01*
G75*
G02*
X101222500Y-101960000I-147500J0D01*
G01*
X100877500Y-101960000D01*
G75*
G02*
X100730000Y-101812500I0J147500D01*
G01*
X100730000Y-101517500D01*
G75*
G02*
X100877500Y-101370000I147500J0D01*
G01*
G37*
G04 #@! TD.AperFunction*
G04 #@! TA.AperFunction,SMDPad,CuDef*
G36*
G01*
X87840000Y-98972500D02*
X87840000Y-98627500D01*
G75*
G02*
X87987500Y-98480000I147500J0D01*
G01*
X88282500Y-98480000D01*
G75*
G02*
X88430000Y-98627500I0J-147500D01*
G01*
X88430000Y-98972500D01*
G75*
G02*
X88282500Y-99120000I-147500J0D01*
G01*
X87987500Y-99120000D01*
G75*
G02*
X87840000Y-98972500I0J147500D01*
G01*
G37*
G04 #@! TD.AperFunction*
G04 #@! TA.AperFunction,SMDPad,CuDef*
G36*
G01*
X86870000Y-98972500D02*
X86870000Y-98627500D01*
G75*
G02*
X87017500Y-98480000I147500J0D01*
G01*
X87312500Y-98480000D01*
G75*
G02*
X87460000Y-98627500I0J-147500D01*
G01*
X87460000Y-98972500D01*
G75*
G02*
X87312500Y-99120000I-147500J0D01*
G01*
X87017500Y-99120000D01*
G75*
G02*
X86870000Y-98972500I0J147500D01*
G01*
G37*
G04 #@! TD.AperFunction*
G04 #@! TA.AperFunction,SMDPad,CuDef*
G36*
G01*
X85872500Y-94610000D02*
X85527500Y-94610000D01*
G75*
G02*
X85380000Y-94462500I0J147500D01*
G01*
X85380000Y-94167500D01*
G75*
G02*
X85527500Y-94020000I147500J0D01*
G01*
X85872500Y-94020000D01*
G75*
G02*
X86020000Y-94167500I0J-147500D01*
G01*
X86020000Y-94462500D01*
G75*
G02*
X85872500Y-94610000I-147500J0D01*
G01*
G37*
G04 #@! TD.AperFunction*
G04 #@! TA.AperFunction,SMDPad,CuDef*
G36*
G01*
X85872500Y-95580000D02*
X85527500Y-95580000D01*
G75*
G02*
X85380000Y-95432500I0J147500D01*
G01*
X85380000Y-95137500D01*
G75*
G02*
X85527500Y-94990000I147500J0D01*
G01*
X85872500Y-94990000D01*
G75*
G02*
X86020000Y-95137500I0J-147500D01*
G01*
X86020000Y-95432500D01*
G75*
G02*
X85872500Y-95580000I-147500J0D01*
G01*
G37*
G04 #@! TD.AperFunction*
G04 #@! TA.AperFunction,SMDPad,CuDef*
G36*
G01*
X85490000Y-93672500D02*
X85490000Y-93327500D01*
G75*
G02*
X85637500Y-93180000I147500J0D01*
G01*
X85932500Y-93180000D01*
G75*
G02*
X86080000Y-93327500I0J-147500D01*
G01*
X86080000Y-93672500D01*
G75*
G02*
X85932500Y-93820000I-147500J0D01*
G01*
X85637500Y-93820000D01*
G75*
G02*
X85490000Y-93672500I0J147500D01*
G01*
G37*
G04 #@! TD.AperFunction*
G04 #@! TA.AperFunction,SMDPad,CuDef*
G36*
G01*
X84520000Y-93672500D02*
X84520000Y-93327500D01*
G75*
G02*
X84667500Y-93180000I147500J0D01*
G01*
X84962500Y-93180000D01*
G75*
G02*
X85110000Y-93327500I0J-147500D01*
G01*
X85110000Y-93672500D01*
G75*
G02*
X84962500Y-93820000I-147500J0D01*
G01*
X84667500Y-93820000D01*
G75*
G02*
X84520000Y-93672500I0J147500D01*
G01*
G37*
G04 #@! TD.AperFunction*
G04 #@! TA.AperFunction,SMDPad,CuDef*
G36*
G01*
X100877500Y-99540000D02*
X101222500Y-99540000D01*
G75*
G02*
X101370000Y-99687500I0J-147500D01*
G01*
X101370000Y-99982500D01*
G75*
G02*
X101222500Y-100130000I-147500J0D01*
G01*
X100877500Y-100130000D01*
G75*
G02*
X100730000Y-99982500I0J147500D01*
G01*
X100730000Y-99687500D01*
G75*
G02*
X100877500Y-99540000I147500J0D01*
G01*
G37*
G04 #@! TD.AperFunction*
G04 #@! TA.AperFunction,SMDPad,CuDef*
G36*
G01*
X100877500Y-98570000D02*
X101222500Y-98570000D01*
G75*
G02*
X101370000Y-98717500I0J-147500D01*
G01*
X101370000Y-99012500D01*
G75*
G02*
X101222500Y-99160000I-147500J0D01*
G01*
X100877500Y-99160000D01*
G75*
G02*
X100730000Y-99012500I0J147500D01*
G01*
X100730000Y-98717500D01*
G75*
G02*
X100877500Y-98570000I147500J0D01*
G01*
G37*
G04 #@! TD.AperFunction*
G04 #@! TA.AperFunction,SMDPad,CuDef*
G36*
G01*
X100877500Y-96740000D02*
X101222500Y-96740000D01*
G75*
G02*
X101370000Y-96887500I0J-147500D01*
G01*
X101370000Y-97182500D01*
G75*
G02*
X101222500Y-97330000I-147500J0D01*
G01*
X100877500Y-97330000D01*
G75*
G02*
X100730000Y-97182500I0J147500D01*
G01*
X100730000Y-96887500D01*
G75*
G02*
X100877500Y-96740000I147500J0D01*
G01*
G37*
G04 #@! TD.AperFunction*
G04 #@! TA.AperFunction,SMDPad,CuDef*
G36*
G01*
X100877500Y-95770000D02*
X101222500Y-95770000D01*
G75*
G02*
X101370000Y-95917500I0J-147500D01*
G01*
X101370000Y-96212500D01*
G75*
G02*
X101222500Y-96360000I-147500J0D01*
G01*
X100877500Y-96360000D01*
G75*
G02*
X100730000Y-96212500I0J147500D01*
G01*
X100730000Y-95917500D01*
G75*
G02*
X100877500Y-95770000I147500J0D01*
G01*
G37*
G04 #@! TD.AperFunction*
G04 #@! TA.AperFunction,SMDPad,CuDef*
G36*
G01*
X98977500Y-105140000D02*
X99322500Y-105140000D01*
G75*
G02*
X99470000Y-105287500I0J-147500D01*
G01*
X99470000Y-105582500D01*
G75*
G02*
X99322500Y-105730000I-147500J0D01*
G01*
X98977500Y-105730000D01*
G75*
G02*
X98830000Y-105582500I0J147500D01*
G01*
X98830000Y-105287500D01*
G75*
G02*
X98977500Y-105140000I147500J0D01*
G01*
G37*
G04 #@! TD.AperFunction*
G04 #@! TA.AperFunction,SMDPad,CuDef*
G36*
G01*
X98977500Y-104170000D02*
X99322500Y-104170000D01*
G75*
G02*
X99470000Y-104317500I0J-147500D01*
G01*
X99470000Y-104612500D01*
G75*
G02*
X99322500Y-104760000I-147500J0D01*
G01*
X98977500Y-104760000D01*
G75*
G02*
X98830000Y-104612500I0J147500D01*
G01*
X98830000Y-104317500D01*
G75*
G02*
X98977500Y-104170000I147500J0D01*
G01*
G37*
G04 #@! TD.AperFunction*
G04 #@! TA.AperFunction,SMDPad,CuDef*
G36*
G01*
X98977500Y-102340000D02*
X99322500Y-102340000D01*
G75*
G02*
X99470000Y-102487500I0J-147500D01*
G01*
X99470000Y-102782500D01*
G75*
G02*
X99322500Y-102930000I-147500J0D01*
G01*
X98977500Y-102930000D01*
G75*
G02*
X98830000Y-102782500I0J147500D01*
G01*
X98830000Y-102487500D01*
G75*
G02*
X98977500Y-102340000I147500J0D01*
G01*
G37*
G04 #@! TD.AperFunction*
G04 #@! TA.AperFunction,SMDPad,CuDef*
G36*
G01*
X98977500Y-101370000D02*
X99322500Y-101370000D01*
G75*
G02*
X99470000Y-101517500I0J-147500D01*
G01*
X99470000Y-101812500D01*
G75*
G02*
X99322500Y-101960000I-147500J0D01*
G01*
X98977500Y-101960000D01*
G75*
G02*
X98830000Y-101812500I0J147500D01*
G01*
X98830000Y-101517500D01*
G75*
G02*
X98977500Y-101370000I147500J0D01*
G01*
G37*
G04 #@! TD.AperFunction*
G04 #@! TA.AperFunction,SMDPad,CuDef*
G36*
G01*
X98977500Y-99540000D02*
X99322500Y-99540000D01*
G75*
G02*
X99470000Y-99687500I0J-147500D01*
G01*
X99470000Y-99982500D01*
G75*
G02*
X99322500Y-100130000I-147500J0D01*
G01*
X98977500Y-100130000D01*
G75*
G02*
X98830000Y-99982500I0J147500D01*
G01*
X98830000Y-99687500D01*
G75*
G02*
X98977500Y-99540000I147500J0D01*
G01*
G37*
G04 #@! TD.AperFunction*
G04 #@! TA.AperFunction,SMDPad,CuDef*
G36*
G01*
X98977500Y-98570000D02*
X99322500Y-98570000D01*
G75*
G02*
X99470000Y-98717500I0J-147500D01*
G01*
X99470000Y-99012500D01*
G75*
G02*
X99322500Y-99160000I-147500J0D01*
G01*
X98977500Y-99160000D01*
G75*
G02*
X98830000Y-99012500I0J147500D01*
G01*
X98830000Y-98717500D01*
G75*
G02*
X98977500Y-98570000I147500J0D01*
G01*
G37*
G04 #@! TD.AperFunction*
G04 #@! TA.AperFunction,SMDPad,CuDef*
G36*
G01*
X98977500Y-96740000D02*
X99322500Y-96740000D01*
G75*
G02*
X99470000Y-96887500I0J-147500D01*
G01*
X99470000Y-97182500D01*
G75*
G02*
X99322500Y-97330000I-147500J0D01*
G01*
X98977500Y-97330000D01*
G75*
G02*
X98830000Y-97182500I0J147500D01*
G01*
X98830000Y-96887500D01*
G75*
G02*
X98977500Y-96740000I147500J0D01*
G01*
G37*
G04 #@! TD.AperFunction*
G04 #@! TA.AperFunction,SMDPad,CuDef*
G36*
G01*
X98977500Y-95770000D02*
X99322500Y-95770000D01*
G75*
G02*
X99470000Y-95917500I0J-147500D01*
G01*
X99470000Y-96212500D01*
G75*
G02*
X99322500Y-96360000I-147500J0D01*
G01*
X98977500Y-96360000D01*
G75*
G02*
X98830000Y-96212500I0J147500D01*
G01*
X98830000Y-95917500D01*
G75*
G02*
X98977500Y-95770000I147500J0D01*
G01*
G37*
G04 #@! TD.AperFunction*
G04 #@! TA.AperFunction,SMDPad,CuDef*
G36*
G01*
X96877500Y-91140000D02*
X97222500Y-91140000D01*
G75*
G02*
X97370000Y-91287500I0J-147500D01*
G01*
X97370000Y-91582500D01*
G75*
G02*
X97222500Y-91730000I-147500J0D01*
G01*
X96877500Y-91730000D01*
G75*
G02*
X96730000Y-91582500I0J147500D01*
G01*
X96730000Y-91287500D01*
G75*
G02*
X96877500Y-91140000I147500J0D01*
G01*
G37*
G04 #@! TD.AperFunction*
G04 #@! TA.AperFunction,SMDPad,CuDef*
G36*
G01*
X96877500Y-90170000D02*
X97222500Y-90170000D01*
G75*
G02*
X97370000Y-90317500I0J-147500D01*
G01*
X97370000Y-90612500D01*
G75*
G02*
X97222500Y-90760000I-147500J0D01*
G01*
X96877500Y-90760000D01*
G75*
G02*
X96730000Y-90612500I0J147500D01*
G01*
X96730000Y-90317500D01*
G75*
G02*
X96877500Y-90170000I147500J0D01*
G01*
G37*
G04 #@! TD.AperFunction*
G04 #@! TA.AperFunction,SMDPad,CuDef*
G36*
G01*
X96877500Y-96690000D02*
X97222500Y-96690000D01*
G75*
G02*
X97370000Y-96837500I0J-147500D01*
G01*
X97370000Y-97132500D01*
G75*
G02*
X97222500Y-97280000I-147500J0D01*
G01*
X96877500Y-97280000D01*
G75*
G02*
X96730000Y-97132500I0J147500D01*
G01*
X96730000Y-96837500D01*
G75*
G02*
X96877500Y-96690000I147500J0D01*
G01*
G37*
G04 #@! TD.AperFunction*
G04 #@! TA.AperFunction,SMDPad,CuDef*
G36*
G01*
X96877500Y-95720000D02*
X97222500Y-95720000D01*
G75*
G02*
X97370000Y-95867500I0J-147500D01*
G01*
X97370000Y-96162500D01*
G75*
G02*
X97222500Y-96310000I-147500J0D01*
G01*
X96877500Y-96310000D01*
G75*
G02*
X96730000Y-96162500I0J147500D01*
G01*
X96730000Y-95867500D01*
G75*
G02*
X96877500Y-95720000I147500J0D01*
G01*
G37*
G04 #@! TD.AperFunction*
G04 #@! TA.AperFunction,SMDPad,CuDef*
G36*
G01*
X94977500Y-96690000D02*
X95322500Y-96690000D01*
G75*
G02*
X95470000Y-96837500I0J-147500D01*
G01*
X95470000Y-97132500D01*
G75*
G02*
X95322500Y-97280000I-147500J0D01*
G01*
X94977500Y-97280000D01*
G75*
G02*
X94830000Y-97132500I0J147500D01*
G01*
X94830000Y-96837500D01*
G75*
G02*
X94977500Y-96690000I147500J0D01*
G01*
G37*
G04 #@! TD.AperFunction*
G04 #@! TA.AperFunction,SMDPad,CuDef*
G36*
G01*
X94977500Y-95720000D02*
X95322500Y-95720000D01*
G75*
G02*
X95470000Y-95867500I0J-147500D01*
G01*
X95470000Y-96162500D01*
G75*
G02*
X95322500Y-96310000I-147500J0D01*
G01*
X94977500Y-96310000D01*
G75*
G02*
X94830000Y-96162500I0J147500D01*
G01*
X94830000Y-95867500D01*
G75*
G02*
X94977500Y-95720000I147500J0D01*
G01*
G37*
G04 #@! TD.AperFunction*
G04 #@! TA.AperFunction,SMDPad,CuDef*
G36*
G01*
X100877500Y-93940000D02*
X101222500Y-93940000D01*
G75*
G02*
X101370000Y-94087500I0J-147500D01*
G01*
X101370000Y-94382500D01*
G75*
G02*
X101222500Y-94530000I-147500J0D01*
G01*
X100877500Y-94530000D01*
G75*
G02*
X100730000Y-94382500I0J147500D01*
G01*
X100730000Y-94087500D01*
G75*
G02*
X100877500Y-93940000I147500J0D01*
G01*
G37*
G04 #@! TD.AperFunction*
G04 #@! TA.AperFunction,SMDPad,CuDef*
G36*
G01*
X100877500Y-92970000D02*
X101222500Y-92970000D01*
G75*
G02*
X101370000Y-93117500I0J-147500D01*
G01*
X101370000Y-93412500D01*
G75*
G02*
X101222500Y-93560000I-147500J0D01*
G01*
X100877500Y-93560000D01*
G75*
G02*
X100730000Y-93412500I0J147500D01*
G01*
X100730000Y-93117500D01*
G75*
G02*
X100877500Y-92970000I147500J0D01*
G01*
G37*
G04 #@! TD.AperFunction*
G04 #@! TA.AperFunction,SMDPad,CuDef*
G36*
G01*
X100877500Y-91140000D02*
X101222500Y-91140000D01*
G75*
G02*
X101370000Y-91287500I0J-147500D01*
G01*
X101370000Y-91582500D01*
G75*
G02*
X101222500Y-91730000I-147500J0D01*
G01*
X100877500Y-91730000D01*
G75*
G02*
X100730000Y-91582500I0J147500D01*
G01*
X100730000Y-91287500D01*
G75*
G02*
X100877500Y-91140000I147500J0D01*
G01*
G37*
G04 #@! TD.AperFunction*
G04 #@! TA.AperFunction,SMDPad,CuDef*
G36*
G01*
X100877500Y-90170000D02*
X101222500Y-90170000D01*
G75*
G02*
X101370000Y-90317500I0J-147500D01*
G01*
X101370000Y-90612500D01*
G75*
G02*
X101222500Y-90760000I-147500J0D01*
G01*
X100877500Y-90760000D01*
G75*
G02*
X100730000Y-90612500I0J147500D01*
G01*
X100730000Y-90317500D01*
G75*
G02*
X100877500Y-90170000I147500J0D01*
G01*
G37*
G04 #@! TD.AperFunction*
G04 #@! TA.AperFunction,SMDPad,CuDef*
G36*
G01*
X100877500Y-88340000D02*
X101222500Y-88340000D01*
G75*
G02*
X101370000Y-88487500I0J-147500D01*
G01*
X101370000Y-88782500D01*
G75*
G02*
X101222500Y-88930000I-147500J0D01*
G01*
X100877500Y-88930000D01*
G75*
G02*
X100730000Y-88782500I0J147500D01*
G01*
X100730000Y-88487500D01*
G75*
G02*
X100877500Y-88340000I147500J0D01*
G01*
G37*
G04 #@! TD.AperFunction*
G04 #@! TA.AperFunction,SMDPad,CuDef*
G36*
G01*
X100877500Y-87370000D02*
X101222500Y-87370000D01*
G75*
G02*
X101370000Y-87517500I0J-147500D01*
G01*
X101370000Y-87812500D01*
G75*
G02*
X101222500Y-87960000I-147500J0D01*
G01*
X100877500Y-87960000D01*
G75*
G02*
X100730000Y-87812500I0J147500D01*
G01*
X100730000Y-87517500D01*
G75*
G02*
X100877500Y-87370000I147500J0D01*
G01*
G37*
G04 #@! TD.AperFunction*
G04 #@! TA.AperFunction,SMDPad,CuDef*
G36*
G01*
X100877500Y-85540000D02*
X101222500Y-85540000D01*
G75*
G02*
X101370000Y-85687500I0J-147500D01*
G01*
X101370000Y-85982500D01*
G75*
G02*
X101222500Y-86130000I-147500J0D01*
G01*
X100877500Y-86130000D01*
G75*
G02*
X100730000Y-85982500I0J147500D01*
G01*
X100730000Y-85687500D01*
G75*
G02*
X100877500Y-85540000I147500J0D01*
G01*
G37*
G04 #@! TD.AperFunction*
G04 #@! TA.AperFunction,SMDPad,CuDef*
G36*
G01*
X100877500Y-84570000D02*
X101222500Y-84570000D01*
G75*
G02*
X101370000Y-84717500I0J-147500D01*
G01*
X101370000Y-85012500D01*
G75*
G02*
X101222500Y-85160000I-147500J0D01*
G01*
X100877500Y-85160000D01*
G75*
G02*
X100730000Y-85012500I0J147500D01*
G01*
X100730000Y-84717500D01*
G75*
G02*
X100877500Y-84570000I147500J0D01*
G01*
G37*
G04 #@! TD.AperFunction*
G04 #@! TA.AperFunction,SMDPad,CuDef*
G36*
G01*
X98977500Y-93940000D02*
X99322500Y-93940000D01*
G75*
G02*
X99470000Y-94087500I0J-147500D01*
G01*
X99470000Y-94382500D01*
G75*
G02*
X99322500Y-94530000I-147500J0D01*
G01*
X98977500Y-94530000D01*
G75*
G02*
X98830000Y-94382500I0J147500D01*
G01*
X98830000Y-94087500D01*
G75*
G02*
X98977500Y-93940000I147500J0D01*
G01*
G37*
G04 #@! TD.AperFunction*
G04 #@! TA.AperFunction,SMDPad,CuDef*
G36*
G01*
X98977500Y-92970000D02*
X99322500Y-92970000D01*
G75*
G02*
X99470000Y-93117500I0J-147500D01*
G01*
X99470000Y-93412500D01*
G75*
G02*
X99322500Y-93560000I-147500J0D01*
G01*
X98977500Y-93560000D01*
G75*
G02*
X98830000Y-93412500I0J147500D01*
G01*
X98830000Y-93117500D01*
G75*
G02*
X98977500Y-92970000I147500J0D01*
G01*
G37*
G04 #@! TD.AperFunction*
G04 #@! TA.AperFunction,SMDPad,CuDef*
G36*
G01*
X83510000Y-96527500D02*
X83510000Y-96872500D01*
G75*
G02*
X83362500Y-97020000I-147500J0D01*
G01*
X83067500Y-97020000D01*
G75*
G02*
X82920000Y-96872500I0J147500D01*
G01*
X82920000Y-96527500D01*
G75*
G02*
X83067500Y-96380000I147500J0D01*
G01*
X83362500Y-96380000D01*
G75*
G02*
X83510000Y-96527500I0J-147500D01*
G01*
G37*
G04 #@! TD.AperFunction*
G04 #@! TA.AperFunction,SMDPad,CuDef*
G36*
G01*
X84480000Y-96527500D02*
X84480000Y-96872500D01*
G75*
G02*
X84332500Y-97020000I-147500J0D01*
G01*
X84037500Y-97020000D01*
G75*
G02*
X83890000Y-96872500I0J147500D01*
G01*
X83890000Y-96527500D01*
G75*
G02*
X84037500Y-96380000I147500J0D01*
G01*
X84332500Y-96380000D01*
G75*
G02*
X84480000Y-96527500I0J-147500D01*
G01*
G37*
G04 #@! TD.AperFunction*
G04 #@! TA.AperFunction,SMDPad,CuDef*
G36*
G01*
X85072500Y-95310000D02*
X84727500Y-95310000D01*
G75*
G02*
X84580000Y-95162500I0J147500D01*
G01*
X84580000Y-94867500D01*
G75*
G02*
X84727500Y-94720000I147500J0D01*
G01*
X85072500Y-94720000D01*
G75*
G02*
X85220000Y-94867500I0J-147500D01*
G01*
X85220000Y-95162500D01*
G75*
G02*
X85072500Y-95310000I-147500J0D01*
G01*
G37*
G04 #@! TD.AperFunction*
G04 #@! TA.AperFunction,SMDPad,CuDef*
G36*
G01*
X85072500Y-96280000D02*
X84727500Y-96280000D01*
G75*
G02*
X84580000Y-96132500I0J147500D01*
G01*
X84580000Y-95837500D01*
G75*
G02*
X84727500Y-95690000I147500J0D01*
G01*
X85072500Y-95690000D01*
G75*
G02*
X85220000Y-95837500I0J-147500D01*
G01*
X85220000Y-96132500D01*
G75*
G02*
X85072500Y-96280000I-147500J0D01*
G01*
G37*
G04 #@! TD.AperFunction*
G04 #@! TA.AperFunction,SMDPad,CuDef*
G36*
G01*
X81527500Y-94890000D02*
X81872500Y-94890000D01*
G75*
G02*
X82020000Y-95037500I0J-147500D01*
G01*
X82020000Y-95332500D01*
G75*
G02*
X81872500Y-95480000I-147500J0D01*
G01*
X81527500Y-95480000D01*
G75*
G02*
X81380000Y-95332500I0J147500D01*
G01*
X81380000Y-95037500D01*
G75*
G02*
X81527500Y-94890000I147500J0D01*
G01*
G37*
G04 #@! TD.AperFunction*
G04 #@! TA.AperFunction,SMDPad,CuDef*
G36*
G01*
X81527500Y-93920000D02*
X81872500Y-93920000D01*
G75*
G02*
X82020000Y-94067500I0J-147500D01*
G01*
X82020000Y-94362500D01*
G75*
G02*
X81872500Y-94510000I-147500J0D01*
G01*
X81527500Y-94510000D01*
G75*
G02*
X81380000Y-94362500I0J147500D01*
G01*
X81380000Y-94067500D01*
G75*
G02*
X81527500Y-93920000I147500J0D01*
G01*
G37*
G04 #@! TD.AperFunction*
D19*
X54000000Y-116000000D03*
D20*
X56625000Y-116000000D03*
X55856155Y-117856155D03*
X54000000Y-118625000D03*
X52143845Y-117856155D03*
X51375000Y-116000000D03*
X52143845Y-114143845D03*
X54000000Y-113375000D03*
X55856155Y-114143845D03*
D19*
X54000000Y-75000000D03*
D20*
X56625000Y-75000000D03*
X55856155Y-76856155D03*
X54000000Y-77625000D03*
X52143845Y-76856155D03*
X51375000Y-75000000D03*
X52143845Y-73143845D03*
X54000000Y-72375000D03*
X55856155Y-73143845D03*
D19*
X126000000Y-116000000D03*
D20*
X128625000Y-116000000D03*
X127856155Y-117856155D03*
X126000000Y-118625000D03*
X124143845Y-117856155D03*
X123375000Y-116000000D03*
X124143845Y-114143845D03*
X126000000Y-113375000D03*
X127856155Y-114143845D03*
D25*
X80900000Y-97500000D03*
D26*
X77400000Y-106700098D03*
X73900000Y-106700000D03*
X67899998Y-101500000D03*
X88300000Y-116000000D03*
X108200006Y-99700000D03*
X117000000Y-91300000D03*
X123300000Y-94500000D03*
X126700000Y-84000000D03*
X118100000Y-103700000D03*
X74150000Y-105400000D03*
D25*
X84100000Y-97500000D03*
X86500000Y-99100000D03*
X85700000Y-95900000D03*
X81700000Y-95900000D03*
D26*
X66800000Y-90450000D03*
X72600000Y-100450000D03*
X67600000Y-100450000D03*
X64900000Y-97250000D03*
X64900000Y-95250000D03*
X64900000Y-93250000D03*
X73800000Y-91550000D03*
X96100000Y-93450000D03*
X126500000Y-97400000D03*
X74800000Y-97300000D03*
X79200010Y-100000000D03*
X77600000Y-90300000D03*
X82800000Y-111000000D03*
X69550000Y-115950000D03*
X100093477Y-90643477D03*
X58800006Y-76500000D03*
X90800000Y-98900000D03*
X108350000Y-93500000D03*
X107550000Y-89850000D03*
X96100000Y-99050000D03*
X96100000Y-101850000D03*
X96100000Y-104650000D03*
X100100000Y-101850000D03*
X100100000Y-99050000D03*
X96100000Y-90650000D03*
X96100000Y-85050000D03*
X96100000Y-87850000D03*
X100100000Y-87850000D03*
X100100000Y-93450000D03*
X96100000Y-96350000D03*
X100100000Y-96350000D03*
X100093878Y-85173212D03*
X100100153Y-104640629D03*
X61989606Y-117508796D03*
X72000000Y-109300000D03*
X75500000Y-109300000D03*
X76100000Y-112500000D03*
X87650000Y-106350000D03*
X70600000Y-114285000D03*
X93599998Y-107300000D03*
X116975090Y-102400000D03*
X69543821Y-116450189D03*
X59700000Y-81000000D03*
X120100000Y-93600000D03*
X119900000Y-106300000D03*
X118800000Y-82900000D03*
X127800000Y-108100000D03*
X118200000Y-99500000D03*
X123500000Y-88000000D03*
X123500000Y-86600000D03*
X124700000Y-88000000D03*
X124700000Y-86600000D03*
X70000000Y-105800000D03*
X69200000Y-105800000D03*
X67200000Y-108400000D03*
X67200000Y-107800000D03*
X64600000Y-108400000D03*
X64600000Y-107800000D03*
D25*
X84100000Y-95100000D03*
X84100000Y-95900000D03*
X83300000Y-95900000D03*
X82500000Y-95100000D03*
X83300000Y-95100000D03*
D26*
X58150000Y-79550000D03*
X66800000Y-80400000D03*
X70600000Y-80400000D03*
X74400000Y-80400000D03*
X78200000Y-80400000D03*
X82000000Y-80400000D03*
X65500000Y-76500000D03*
X69299996Y-76500000D03*
X73100006Y-76500000D03*
X76899998Y-76500000D03*
X80800012Y-76500000D03*
X85800000Y-80400000D03*
X79100000Y-102200000D03*
X126500000Y-96400000D03*
X55050000Y-81000000D03*
X55050000Y-83000000D03*
X55050002Y-85000000D03*
X55049976Y-87000000D03*
X55050000Y-89000000D03*
X55050000Y-102000000D03*
X55050000Y-104000000D03*
X55050010Y-106000000D03*
X55050000Y-108000000D03*
X55050004Y-110000000D03*
X68500000Y-113450000D03*
X68500000Y-108350000D03*
X67850000Y-112250000D03*
X67200000Y-113500000D03*
X67200000Y-112900000D03*
X64600000Y-113500000D03*
X64600000Y-112900000D03*
X70800000Y-105800000D03*
X71600000Y-105800000D03*
X84200075Y-76500006D03*
X60799901Y-76500000D03*
X61900000Y-76500002D03*
X63024910Y-80408938D03*
X87799998Y-100168111D03*
X107550000Y-90800000D03*
X107300000Y-97600000D03*
X107300000Y-95100000D03*
X96100000Y-99800000D03*
X96100000Y-102600000D03*
X96100000Y-105400000D03*
X100100000Y-102600000D03*
X100100000Y-99800000D03*
X96100000Y-94200000D03*
X96100000Y-91400000D03*
X100100000Y-91400000D03*
X96100000Y-85800000D03*
X96100000Y-88600000D03*
X100100000Y-88600000D03*
X100100000Y-94200000D03*
X96100000Y-97100000D03*
X100100000Y-97100000D03*
X90800000Y-99650000D03*
X111100000Y-94500000D03*
X114300000Y-96600000D03*
X60650000Y-90200000D03*
X64000000Y-94350000D03*
D27*
X57900000Y-96800000D03*
D26*
X61720180Y-97749991D03*
X97300000Y-81700000D03*
D27*
X104450000Y-82350000D03*
D26*
X100013397Y-85918792D03*
X100087874Y-105390440D03*
D27*
X101450000Y-108650000D03*
D26*
X57800000Y-99199994D03*
X57600000Y-91600000D03*
X72900000Y-110900000D03*
X73800000Y-112500000D03*
X76400000Y-110900000D03*
X77200000Y-112500000D03*
X79000000Y-99269642D03*
X74250000Y-101050000D03*
D27*
X100450000Y-82350000D03*
D26*
X90800000Y-98000000D03*
D27*
X105450000Y-108650000D03*
D26*
X116100000Y-106400000D03*
X107400000Y-99700000D03*
X118024910Y-102400000D03*
X61900000Y-109800000D03*
X126650000Y-85150000D03*
X87200010Y-111000000D03*
X126000000Y-89100000D03*
X120100000Y-94600000D03*
X125400000Y-89100000D03*
X121200000Y-101900000D03*
X120600000Y-101900000D03*
X121900000Y-104400000D03*
X121900000Y-103000000D03*
X123100000Y-104400000D03*
X123100000Y-103000000D03*
X119900000Y-105400000D03*
X120800000Y-98000000D03*
X118800000Y-83900000D03*
X127800000Y-107100000D03*
X127500000Y-103500000D03*
X124500000Y-80500000D03*
X119200000Y-87600000D03*
X118700000Y-89800000D03*
X124300000Y-110500000D03*
X71280000Y-116310000D03*
X67850000Y-117225090D03*
D25*
X81700000Y-98300000D03*
D26*
X76700000Y-106400000D03*
X73200000Y-106400000D03*
X67000000Y-101500000D03*
X88300000Y-113500000D03*
X108500000Y-98900000D03*
X118100000Y-104500000D03*
X82800000Y-116000000D03*
X90700000Y-112000000D03*
X63700000Y-116999962D03*
X63700000Y-112050000D03*
X63700000Y-112600000D03*
X63700000Y-111500000D03*
X63700000Y-110950000D03*
X63700000Y-117550180D03*
X127100000Y-91900000D03*
X126600000Y-91900000D03*
X126100000Y-91900000D03*
X125600000Y-91900000D03*
X119500000Y-99100000D03*
X120000000Y-99100000D03*
X120500000Y-99100000D03*
X121000000Y-99100000D03*
X74700000Y-88900000D03*
X59400014Y-115000000D03*
X55500000Y-95250000D03*
X55500000Y-96300000D03*
X57900000Y-94700000D03*
X57900000Y-95794900D03*
D25*
X81700000Y-96700000D03*
D26*
X68750000Y-101500000D03*
D25*
X80900000Y-95900000D03*
D26*
X69599999Y-101500000D03*
D25*
X80900000Y-98300000D03*
D26*
X79700000Y-101300000D03*
X74899996Y-95125010D03*
X76600000Y-98700000D03*
X74902957Y-96185184D03*
X76000000Y-99300000D03*
X69550000Y-111550000D03*
X69550000Y-110850000D03*
D25*
X84900000Y-94300000D03*
X82500000Y-94300000D03*
X82500000Y-96700000D03*
X84900000Y-96700000D03*
D26*
X77300000Y-101400000D03*
X89100000Y-95500000D03*
X76803211Y-96984235D03*
X76737231Y-96237231D03*
X65900000Y-100499978D03*
D25*
X80900000Y-92700000D03*
D26*
X78600000Y-91300000D03*
X75973150Y-92194958D03*
X77541925Y-93841925D03*
X120299992Y-103900000D03*
X126300000Y-87100000D03*
X75900000Y-88199998D03*
X67600000Y-90450000D03*
X78600000Y-94400000D03*
X73100000Y-90450000D03*
D25*
X87300000Y-94300000D03*
D26*
X65050002Y-89650000D03*
X125700000Y-108500000D03*
X127600000Y-100800000D03*
X122600000Y-111300000D03*
X71450008Y-88050000D03*
X124100000Y-81800000D03*
D25*
X80900000Y-93500000D03*
D26*
X65042375Y-90456053D03*
D25*
X80900000Y-94300000D03*
D26*
X65800010Y-90450000D03*
D25*
X86500000Y-95900000D03*
X80900000Y-95100000D03*
X86500000Y-95100000D03*
D26*
X78100000Y-95500000D03*
X106962190Y-111575090D03*
X101200000Y-111500000D03*
X106147478Y-111552522D03*
X105200000Y-111537128D03*
X104400000Y-111500000D03*
X102800000Y-111500000D03*
X103600000Y-111500000D03*
X102000000Y-111500000D03*
X101200000Y-79500000D03*
X106800000Y-79500000D03*
X102000000Y-79500000D03*
X102800000Y-79500000D03*
X103600000Y-79500000D03*
X105200000Y-79500000D03*
X104400000Y-79500000D03*
X105981323Y-79476341D03*
X89500000Y-92000000D03*
X89600000Y-94150000D03*
D25*
X82500000Y-98300000D03*
D26*
X59700000Y-102000000D03*
X93500000Y-81800000D03*
X125000000Y-103000000D03*
X125000000Y-104400000D03*
X125000000Y-103700000D03*
X107300000Y-105400000D03*
X97850000Y-104650000D03*
X97850000Y-101850000D03*
X97850000Y-99050000D03*
X101850000Y-99050000D03*
X101850000Y-101850000D03*
X97850000Y-96350000D03*
X101850000Y-96350000D03*
X107750000Y-105400000D03*
X97500000Y-106950000D03*
X97050000Y-106950000D03*
X108250000Y-105400000D03*
X106200000Y-108650000D03*
X108100000Y-102200000D03*
X101700000Y-104200000D03*
X118600012Y-101000000D03*
X107400000Y-85600000D03*
X97850000Y-93450000D03*
X101850000Y-93450000D03*
X97850000Y-85050000D03*
X97850000Y-87850000D03*
X97850000Y-90650000D03*
X101850000Y-90650000D03*
X107900000Y-85600000D03*
X97850000Y-84550000D03*
X101828832Y-87871168D03*
X100134260Y-84424388D03*
X108400000Y-85600000D03*
X99700000Y-82350000D03*
X117000000Y-88700000D03*
X121600000Y-86600000D03*
X121600000Y-87300000D03*
X121600000Y-88000000D03*
D25*
X83300000Y-97500000D03*
D26*
X59700000Y-104000000D03*
X117500000Y-109600000D03*
D25*
X84900000Y-97500000D03*
D26*
X87499986Y-100900000D03*
X59700000Y-110000000D03*
D25*
X85700000Y-98300000D03*
D26*
X59700000Y-108000000D03*
D25*
X84900000Y-98300000D03*
D26*
X59700000Y-106000000D03*
D25*
X85700000Y-91900000D03*
D26*
X78200000Y-76500000D03*
X75700000Y-76500000D03*
D25*
X84900000Y-91900000D03*
X80900000Y-91900000D03*
D26*
X64250000Y-76500000D03*
D25*
X80100000Y-91900000D03*
D26*
X63114727Y-76505325D03*
X82000000Y-76500000D03*
D25*
X86500000Y-92700000D03*
X85700000Y-92700000D03*
D26*
X79500000Y-76500000D03*
X74400000Y-76500000D03*
D25*
X84900000Y-92700000D03*
X83300000Y-92700000D03*
D26*
X70600000Y-76500000D03*
D25*
X82500000Y-92700000D03*
D26*
X68050000Y-76500000D03*
D25*
X82500000Y-93500000D03*
D26*
X66785000Y-76485000D03*
D25*
X86500000Y-93500000D03*
D26*
X83295000Y-76495000D03*
X87650000Y-88600000D03*
X87050000Y-90000000D03*
D25*
X84100000Y-93500000D03*
D26*
X90900000Y-87300000D03*
D25*
X83300000Y-93500000D03*
D26*
X71850000Y-76500000D03*
D25*
X86500000Y-96700000D03*
D26*
X97850000Y-85800000D03*
X92350000Y-94600000D03*
X97850000Y-91400000D03*
X97850000Y-94200000D03*
X93450000Y-95100000D03*
D25*
X86500000Y-97500000D03*
D26*
X100208259Y-86644581D03*
X92100000Y-93849928D03*
X101850603Y-88620764D03*
X92045340Y-95350000D03*
X101850000Y-91400000D03*
X101850000Y-94200000D03*
X93150000Y-95800000D03*
X84799998Y-101249812D03*
X97850000Y-97100000D03*
X81800000Y-104000000D03*
X97850000Y-102600000D03*
X80600000Y-105200000D03*
X97850000Y-105400000D03*
X83600000Y-102200000D03*
X101850000Y-97100000D03*
X82400000Y-103400000D03*
X101850000Y-99800000D03*
X81200000Y-104600000D03*
X101850000Y-102600000D03*
X100100000Y-106150000D03*
X80000000Y-105650278D03*
D25*
X85700000Y-96700000D03*
D26*
X97850000Y-88600000D03*
X83000000Y-102800000D03*
X97850000Y-99800000D03*
X70607500Y-113307500D03*
X92650000Y-98500000D03*
D27*
X88600000Y-93200000D03*
D26*
X54400000Y-94550000D03*
X122800000Y-107100000D03*
X123800000Y-107100000D03*
X123800000Y-83900000D03*
X122800000Y-83900000D03*
X120400000Y-103100000D03*
X127600000Y-99800000D03*
X126200000Y-87900000D03*
X119000000Y-91200000D03*
X123200000Y-99350000D03*
X125000000Y-99350000D03*
X123200000Y-99950000D03*
X121600000Y-91650000D03*
X123400000Y-91050000D03*
X123400000Y-91650000D03*
X77150000Y-119450000D03*
X77150000Y-118650000D03*
X72150000Y-118650000D03*
X72150000Y-119450000D03*
X127800000Y-106200000D03*
X118800000Y-84800000D03*
X61300000Y-112800000D03*
X123300000Y-98400000D03*
X123300000Y-92600000D03*
D28*
X77100098Y-107000000D02*
X77400000Y-106700098D01*
X74200000Y-107000000D02*
X77100098Y-107000000D01*
X73900000Y-106700000D02*
X74200000Y-107000000D01*
X69299998Y-102900000D02*
X67899998Y-101500000D01*
X74450000Y-102900000D02*
X69299998Y-102900000D01*
X79157492Y-98744732D02*
X78605268Y-98744732D01*
X80402224Y-97500000D02*
X79157492Y-98744732D01*
X78605268Y-98744732D02*
X74450000Y-102900000D01*
X80900000Y-97500000D02*
X80402224Y-97500000D01*
X84675099Y-106475099D02*
X77624999Y-106475099D01*
X86300000Y-108100000D02*
X84675099Y-106475099D01*
X77624999Y-106475099D02*
X77400000Y-106700098D01*
X88300000Y-116000000D02*
X88300000Y-116000000D01*
X86300000Y-114000000D02*
X86300000Y-108100000D01*
X88300000Y-116000000D02*
X86300000Y-114000000D01*
X108200006Y-99700000D02*
X107900000Y-99399994D01*
X107900000Y-99399994D02*
X107900000Y-98700000D01*
X115300000Y-91300000D02*
X117000000Y-91300000D01*
X107900000Y-98700000D02*
X115300000Y-91300000D01*
X123300000Y-94500000D02*
X125824136Y-94500000D01*
X128075090Y-92249048D02*
X128075090Y-85375090D01*
X125824136Y-94500000D02*
X128075090Y-92249048D01*
X128075090Y-85375090D02*
X126700000Y-84000000D01*
X108899916Y-100399910D02*
X118875773Y-100399911D01*
X119200178Y-100724316D02*
X119200178Y-102599822D01*
X108200006Y-99700000D02*
X108899916Y-100399910D01*
X119200178Y-102599822D02*
X118100000Y-103700000D01*
X118875773Y-100399911D02*
X119200178Y-100724316D01*
D29*
X84100000Y-96785000D02*
X84185000Y-96700000D01*
X84100000Y-97500000D02*
X84100000Y-96785000D01*
X85700000Y-95900000D02*
X85700000Y-95285000D01*
X72985000Y-91550000D02*
X73800000Y-91550000D01*
X65870000Y-93250000D02*
X65900000Y-93280000D01*
X64900000Y-93250000D02*
X65870000Y-93250000D01*
X65885000Y-95250000D02*
X65900000Y-95265000D01*
X64900000Y-95250000D02*
X65885000Y-95250000D01*
X65885000Y-97250000D02*
X65900000Y-97265000D01*
X64900000Y-97250000D02*
X65885000Y-97250000D01*
X72600000Y-99465000D02*
X72585000Y-99450000D01*
X72600000Y-100450000D02*
X72600000Y-99465000D01*
X66800000Y-91535000D02*
X66815000Y-91550000D01*
X66800000Y-90450000D02*
X66800000Y-91535000D01*
X74780000Y-97280000D02*
X74800000Y-97300000D01*
X73820000Y-97300000D02*
X73800000Y-97280000D01*
X74800000Y-97300000D02*
X73820000Y-97300000D01*
X67600000Y-99465000D02*
X67615000Y-99450000D01*
X67600000Y-100600000D02*
X67600000Y-99465000D01*
X86800000Y-98800000D02*
X86500000Y-99100000D01*
X86800000Y-98800000D02*
X87165000Y-98800000D01*
D30*
X81500000Y-111000000D02*
X82800000Y-111000000D01*
D29*
X95915000Y-84865000D02*
X96100000Y-85050000D01*
X95150000Y-84865000D02*
X95915000Y-84865000D01*
X95915000Y-87665000D02*
X96100000Y-87850000D01*
X95150000Y-87665000D02*
X95915000Y-87665000D01*
X99915000Y-87665000D02*
X100100000Y-87850000D01*
X99150000Y-87665000D02*
X99915000Y-87665000D01*
X95915000Y-90465000D02*
X96100000Y-90650000D01*
X95150000Y-90465000D02*
X95915000Y-90465000D01*
X99915000Y-90465000D02*
X100093477Y-90643477D01*
X99150000Y-90465000D02*
X99915000Y-90465000D01*
X95915000Y-93265000D02*
X96100000Y-93450000D01*
X95150000Y-93265000D02*
X95915000Y-93265000D01*
X99915000Y-93265000D02*
X100100000Y-93450000D01*
X99150000Y-93265000D02*
X99915000Y-93265000D01*
X95915000Y-98865000D02*
X96100000Y-99050000D01*
X95150000Y-98865000D02*
X95915000Y-98865000D01*
X99915000Y-98865000D02*
X100100000Y-99050000D01*
X99150000Y-98865000D02*
X99915000Y-98865000D01*
X95915000Y-101665000D02*
X96100000Y-101850000D01*
X95150000Y-101665000D02*
X95915000Y-101665000D01*
X99915000Y-101665000D02*
X100100000Y-101850000D01*
X99150000Y-101665000D02*
X99915000Y-101665000D01*
X95915000Y-104465000D02*
X96100000Y-104650000D01*
X95150000Y-104465000D02*
X95915000Y-104465000D01*
X95765000Y-96015000D02*
X95150000Y-96015000D01*
X96100000Y-96350000D02*
X95765000Y-96015000D01*
X99815000Y-96065000D02*
X99150000Y-96065000D01*
X100100000Y-96350000D02*
X99815000Y-96065000D01*
X90865000Y-98765000D02*
X91000000Y-98900000D01*
X90665000Y-98765000D02*
X90800000Y-98900000D01*
X89800000Y-98765000D02*
X90665000Y-98765000D01*
X99458212Y-85173212D02*
X100093878Y-85173212D01*
X99150000Y-84865000D02*
X99458212Y-85173212D01*
X99150000Y-104465000D02*
X99924524Y-104465000D01*
X99924524Y-104465000D02*
X100100153Y-104640629D01*
D28*
X71915000Y-109385000D02*
X72000000Y-109300000D01*
X71915000Y-110100000D02*
X71915000Y-109385000D01*
X75415000Y-109385000D02*
X75500000Y-109300000D01*
X75415000Y-110100000D02*
X75415000Y-109385000D01*
D29*
X86012500Y-99100000D02*
X85112500Y-100000000D01*
X86500000Y-99100000D02*
X86012500Y-99100000D01*
X64612500Y-97537500D02*
X64900000Y-97250000D01*
X64612500Y-99500000D02*
X64612500Y-97537500D01*
X80035000Y-100000000D02*
X80050000Y-99985000D01*
X79200010Y-100000000D02*
X80035000Y-100000000D01*
X84100000Y-95100000D02*
X84100000Y-95900000D01*
X84100000Y-95900000D02*
X83300000Y-95900000D01*
X83300000Y-95900000D02*
X83300000Y-95100000D01*
X83300000Y-95100000D02*
X84100000Y-95100000D01*
X82500000Y-95100000D02*
X83300000Y-95100000D01*
X83300000Y-96615000D02*
X83215000Y-96700000D01*
X83300000Y-95900000D02*
X83300000Y-96615000D01*
X84815000Y-95100000D02*
X84900000Y-95015000D01*
X84100000Y-95100000D02*
X84815000Y-95100000D01*
X85000000Y-95015000D02*
X85700000Y-94315000D01*
X84900000Y-95015000D02*
X85000000Y-95015000D01*
X85700000Y-93585000D02*
X85785000Y-93500000D01*
X85700000Y-94315000D02*
X85700000Y-93585000D01*
X83215000Y-96754602D02*
X83215000Y-96700000D01*
X82585000Y-97384602D02*
X83215000Y-96754602D01*
X82585000Y-97500000D02*
X82585000Y-97384602D01*
X83300000Y-94385000D02*
X83215000Y-94300000D01*
X83300000Y-95100000D02*
X83300000Y-94385000D01*
X81785000Y-95100000D02*
X81700000Y-95185000D01*
X82500000Y-95100000D02*
X81785000Y-95100000D01*
X72090001Y-93259999D02*
X72390000Y-92960000D01*
X72015000Y-93335000D02*
X72090001Y-93259999D01*
X72015000Y-91550000D02*
X72015000Y-93335000D01*
X72600000Y-98250000D02*
X72390000Y-98040000D01*
X73800000Y-98250000D02*
X72600000Y-98250000D01*
X71615000Y-97265000D02*
X69850000Y-95500000D01*
X71615000Y-99450000D02*
X71615000Y-97265000D01*
X68585000Y-98045000D02*
X68580000Y-98040000D01*
X68585000Y-99450000D02*
X68585000Y-98045000D01*
X67115000Y-98235000D02*
X67310000Y-98040000D01*
X65900000Y-98235000D02*
X67115000Y-98235000D01*
X68045000Y-96235000D02*
X68580000Y-96770000D01*
X65900000Y-96235000D02*
X68045000Y-96235000D01*
X67785000Y-93435000D02*
X69850000Y-95500000D01*
X67785000Y-91550000D02*
X67785000Y-93435000D01*
X79100000Y-102200000D02*
X79200000Y-102100000D01*
X67290000Y-94250000D02*
X67310000Y-94230000D01*
X65900000Y-94250000D02*
X67290000Y-94250000D01*
X87796516Y-100164629D02*
X87799998Y-100168111D01*
X88135000Y-99833109D02*
X87799998Y-100168111D01*
X88135000Y-98800000D02*
X88135000Y-99833109D01*
X87635371Y-100164629D02*
X87796516Y-100164629D01*
X96065000Y-85835000D02*
X96100000Y-85800000D01*
X95150000Y-85835000D02*
X96065000Y-85835000D01*
X96135000Y-85835000D02*
X96100000Y-85800000D01*
X97050000Y-85835000D02*
X96135000Y-85835000D01*
X96065000Y-88635000D02*
X96100000Y-88600000D01*
X95150000Y-88635000D02*
X96065000Y-88635000D01*
X100065000Y-88635000D02*
X100100000Y-88600000D01*
X99150000Y-88635000D02*
X100065000Y-88635000D01*
X100135000Y-88635000D02*
X100100000Y-88600000D01*
X101050000Y-88635000D02*
X100135000Y-88635000D01*
X96065000Y-91435000D02*
X96100000Y-91400000D01*
X95150000Y-91435000D02*
X96065000Y-91435000D01*
X96135000Y-91435000D02*
X96100000Y-91400000D01*
X97050000Y-91435000D02*
X96135000Y-91435000D01*
X100065000Y-91435000D02*
X100100000Y-91400000D01*
X99150000Y-91435000D02*
X100065000Y-91435000D01*
X100135000Y-91435000D02*
X100100000Y-91400000D01*
X101050000Y-91435000D02*
X100135000Y-91435000D01*
X100065000Y-94235000D02*
X100100000Y-94200000D01*
X99150000Y-94235000D02*
X100065000Y-94235000D01*
X100135000Y-94235000D02*
X100100000Y-94200000D01*
X101050000Y-94235000D02*
X100135000Y-94235000D01*
X96135000Y-94235000D02*
X96100000Y-94200000D01*
X97050000Y-94235000D02*
X96135000Y-94235000D01*
X96065000Y-94235000D02*
X96100000Y-94200000D01*
X95150000Y-94235000D02*
X96065000Y-94235000D01*
X96065000Y-99835000D02*
X96100000Y-99800000D01*
X95150000Y-99835000D02*
X96065000Y-99835000D01*
X96135000Y-99835000D02*
X96100000Y-99800000D01*
X97050000Y-99835000D02*
X96135000Y-99835000D01*
X100065000Y-99835000D02*
X100100000Y-99800000D01*
X99150000Y-99835000D02*
X100065000Y-99835000D01*
X100135000Y-99835000D02*
X100100000Y-99800000D01*
X101050000Y-99835000D02*
X100135000Y-99835000D01*
X96065000Y-102635000D02*
X96100000Y-102600000D01*
X95150000Y-102635000D02*
X96065000Y-102635000D01*
X96135000Y-102635000D02*
X96100000Y-102600000D01*
X97050000Y-102635000D02*
X96135000Y-102635000D01*
X100065000Y-102635000D02*
X100100000Y-102600000D01*
X99150000Y-102635000D02*
X100065000Y-102635000D01*
X100135000Y-102635000D02*
X100100000Y-102600000D01*
X101050000Y-102635000D02*
X100135000Y-102635000D01*
X96065000Y-105435000D02*
X96100000Y-105400000D01*
X95150000Y-105435000D02*
X96065000Y-105435000D01*
X96135000Y-105435000D02*
X96100000Y-105400000D01*
X97050000Y-105435000D02*
X96135000Y-105435000D01*
X96215000Y-96985000D02*
X97050000Y-96985000D01*
X96100000Y-97100000D02*
X96215000Y-96985000D01*
X95985000Y-96985000D02*
X95150000Y-96985000D01*
X96100000Y-97100000D02*
X95985000Y-96985000D01*
X100100000Y-97100000D02*
X100165000Y-97035000D01*
X100165000Y-97035000D02*
X101050000Y-97035000D01*
X100035000Y-97035000D02*
X99150000Y-97035000D01*
X100100000Y-97100000D02*
X100035000Y-97035000D01*
X96135000Y-88635000D02*
X96100000Y-88600000D01*
X97050000Y-88635000D02*
X96135000Y-88635000D01*
X90715000Y-99735000D02*
X90800000Y-99650000D01*
X89800000Y-99735000D02*
X90715000Y-99735000D01*
X99929605Y-85835000D02*
X100013397Y-85918792D01*
X99150000Y-85835000D02*
X99929605Y-85835000D01*
X100097189Y-85835000D02*
X100013397Y-85918792D01*
X101050000Y-85835000D02*
X100097189Y-85835000D01*
X99150000Y-105435000D02*
X100043314Y-105435000D01*
X100043314Y-105435000D02*
X100087874Y-105390440D01*
X101050000Y-105435000D02*
X100132434Y-105435000D01*
X100132434Y-105435000D02*
X100087874Y-105390440D01*
D28*
X72885000Y-110885000D02*
X72900000Y-110900000D01*
X72885000Y-110100000D02*
X72885000Y-110885000D01*
X76385000Y-110885000D02*
X76400000Y-110900000D01*
X76385000Y-110100000D02*
X76385000Y-110885000D01*
D29*
X86855611Y-100168111D02*
X86687500Y-100000000D01*
X87799998Y-100168111D02*
X86855611Y-100168111D01*
X67310000Y-98040000D02*
X67310000Y-98090000D01*
X66187500Y-99212500D02*
X66187500Y-99500000D01*
X67310000Y-98090000D02*
X66187500Y-99212500D01*
X78237500Y-102200000D02*
X78150000Y-102112500D01*
X79100000Y-102200000D02*
X78237500Y-102200000D01*
X79795358Y-99269642D02*
X79000000Y-99269642D01*
X80050000Y-99015000D02*
X79795358Y-99269642D01*
D30*
X88250000Y-111000000D02*
X87200010Y-111000000D01*
D28*
X73450000Y-106150000D02*
X73200000Y-106400000D01*
X76450000Y-106150000D02*
X73450000Y-106150000D01*
X76700000Y-106400000D02*
X76450000Y-106150000D01*
X68700000Y-103200000D02*
X67000000Y-101500000D01*
X81700000Y-100450000D02*
X78950000Y-103200000D01*
X78950000Y-103200000D02*
X68700000Y-103200000D01*
X81700000Y-98300000D02*
X81700000Y-100450000D01*
X86600000Y-107900000D02*
X86600000Y-111800000D01*
X84875188Y-106175188D02*
X86600000Y-107900000D01*
X76700000Y-106400000D02*
X76924812Y-106175188D01*
X86600000Y-111800000D02*
X88300000Y-113500000D01*
X76924812Y-106175188D02*
X84875188Y-106175188D01*
X88300000Y-113500000D02*
X88300000Y-113500000D01*
X109700000Y-100100000D02*
X119000000Y-100100000D01*
X108500000Y-98900000D02*
X109700000Y-100100000D01*
X119500089Y-100600089D02*
X119500089Y-103099911D01*
X119000000Y-100100000D02*
X119500089Y-100600089D01*
X119500089Y-103099911D02*
X118100000Y-104500000D01*
D30*
X81500000Y-116000000D02*
X82800000Y-116000000D01*
D28*
X63500000Y-88900000D02*
X74700000Y-88900000D01*
X58800000Y-93600000D02*
X63500000Y-88900000D01*
X59400014Y-115000000D02*
X58800000Y-114399986D01*
X58800000Y-114399986D02*
X58800000Y-93600000D01*
D31*
X55500000Y-95250000D02*
X55500000Y-96300000D01*
X57900000Y-94700000D02*
X57900000Y-95794900D01*
D28*
X57800000Y-94600000D02*
X57900000Y-94700000D01*
X69850000Y-102600000D02*
X68750000Y-101500000D01*
X74300000Y-102600000D02*
X69850000Y-102600000D01*
X79033265Y-98444821D02*
X78455179Y-98444821D01*
X78455179Y-98444821D02*
X74300000Y-102600000D01*
X80778086Y-96700000D02*
X79033265Y-98444821D01*
X81700000Y-96700000D02*
X80778086Y-96700000D01*
X78330951Y-98144911D02*
X74175862Y-102300000D01*
X70399999Y-102300000D02*
X69599999Y-101500000D01*
X78909037Y-98144911D02*
X78330951Y-98144911D01*
X74175862Y-102300000D02*
X70399999Y-102300000D01*
X80500000Y-96553948D02*
X78909037Y-98144911D01*
X80500000Y-96300000D02*
X80500000Y-96553948D01*
X80900000Y-95900000D02*
X80500000Y-96300000D01*
X80900000Y-98300000D02*
X80900000Y-100100000D01*
X80900000Y-100100000D02*
X79700000Y-101300000D01*
X75800000Y-97900000D02*
X76600000Y-98700000D01*
X74899996Y-95125010D02*
X75800000Y-96025014D01*
X75800000Y-96025014D02*
X75800000Y-97900000D01*
X75399999Y-98699999D02*
X75399999Y-96682226D01*
X75399999Y-96682226D02*
X74902957Y-96185184D01*
X76000000Y-99300000D02*
X75399999Y-98699999D01*
D29*
X84900000Y-96700000D02*
X84900000Y-95985000D01*
X84900000Y-93585000D02*
X84815000Y-93500000D01*
X84900000Y-94300000D02*
X84900000Y-93585000D01*
X81785000Y-94300000D02*
X81700000Y-94215000D01*
X82500000Y-94300000D02*
X81785000Y-94300000D01*
D32*
X69900000Y-111200000D02*
X69550000Y-110850000D01*
X69900000Y-111200000D02*
X69550000Y-111550000D01*
X70650000Y-111200000D02*
X69900000Y-111200000D01*
X69550000Y-110850000D02*
X69550000Y-111550000D01*
D29*
X82467622Y-96700000D02*
X82500000Y-96700000D01*
X81667622Y-97500000D02*
X82467622Y-96700000D01*
X81615000Y-97500000D02*
X81667622Y-97500000D01*
X89335000Y-95265000D02*
X89850000Y-95265000D01*
X89100000Y-95500000D02*
X89335000Y-95265000D01*
X77218976Y-97400000D02*
X76803211Y-96984235D01*
X77530000Y-97400000D02*
X77218976Y-97400000D01*
D30*
X78150000Y-100450000D02*
X78150000Y-100550000D01*
X78150000Y-100550000D02*
X77300000Y-101400000D01*
D28*
X69824901Y-100974901D02*
X66374923Y-100974901D01*
X70850000Y-102000000D02*
X69824901Y-100974901D01*
X66374923Y-100974901D02*
X65900000Y-100499978D01*
X77200000Y-98400000D02*
X77200000Y-98850000D01*
X74050000Y-102000000D02*
X70850000Y-102000000D01*
X76200000Y-97400000D02*
X77200000Y-98400000D01*
X77200000Y-98850000D02*
X74050000Y-102000000D01*
X76200000Y-96774462D02*
X76200000Y-97400000D01*
X76737231Y-96237231D02*
X76200000Y-96774462D01*
X80900000Y-92700000D02*
X80000000Y-92700000D01*
X80000000Y-92700000D02*
X78600000Y-91300000D01*
X75973150Y-92194958D02*
X75973150Y-92273150D01*
X75973150Y-92273150D02*
X77541925Y-93841925D01*
X123000000Y-93900000D02*
X126000000Y-93900000D01*
X120299992Y-103900000D02*
X119800000Y-103400008D01*
X127775179Y-92124821D02*
X127775179Y-88575179D01*
X119800000Y-103400008D02*
X119800000Y-100400000D01*
X119800000Y-100400000D02*
X118900000Y-99500000D01*
X127775179Y-88575179D02*
X126300000Y-87100000D01*
X118900000Y-98000000D02*
X123000000Y-93900000D01*
X126000000Y-93900000D02*
X127775179Y-92124821D01*
X118900000Y-99500000D02*
X118900000Y-98000000D01*
X68600000Y-87100000D02*
X74800002Y-87100000D01*
X62500000Y-81000000D02*
X68600000Y-87100000D01*
X126100000Y-84600000D02*
X123500000Y-82000000D01*
X65563040Y-73300000D02*
X62500000Y-76363040D01*
X115976060Y-73300000D02*
X65563040Y-73300000D01*
X123500000Y-80823940D02*
X115976060Y-73300000D01*
X123500000Y-82000000D02*
X123500000Y-80823940D01*
X126100000Y-86900000D02*
X126100000Y-84600000D01*
X126300000Y-87100000D02*
X126100000Y-86900000D01*
X62500000Y-76363040D02*
X62500000Y-81000000D01*
X74800002Y-87100000D02*
X75900000Y-88199998D01*
X78600000Y-93700000D02*
X78600000Y-94400000D01*
X67600000Y-90450000D02*
X75350000Y-90450000D01*
X75350000Y-90450000D02*
X78600000Y-93700000D01*
X128075090Y-101275090D02*
X128075090Y-103824910D01*
X127600000Y-100800000D02*
X128075090Y-101275090D01*
X128075090Y-103824910D02*
X127300000Y-104600000D01*
X127300000Y-104600000D02*
X126768332Y-104600000D01*
X125700000Y-105668332D02*
X125700000Y-108500000D01*
X126768332Y-104600000D02*
X125700000Y-105668332D01*
X116300000Y-117600000D02*
X122600000Y-111300000D01*
X77423146Y-117600000D02*
X116300000Y-117600000D01*
X76773146Y-118250000D02*
X77423146Y-117600000D01*
X72600000Y-118250000D02*
X76773146Y-118250000D01*
X72425090Y-118075090D02*
X72600000Y-118250000D01*
X61779046Y-118075090D02*
X72425090Y-118075090D01*
X60000000Y-116296044D02*
X61779046Y-118075090D01*
X59100000Y-113900000D02*
X60000000Y-114800000D01*
X59100000Y-95600002D02*
X59100000Y-113900000D01*
X60000000Y-114800000D02*
X60000000Y-116296044D01*
X65050002Y-89650000D02*
X59100000Y-95600002D01*
X116150000Y-73000000D02*
X124100000Y-80950000D01*
X71450008Y-88050000D02*
X68650000Y-88050000D01*
X61324803Y-76325197D02*
X64650000Y-73000000D01*
X124100000Y-80950000D02*
X124100000Y-81800000D01*
X64650000Y-73000000D02*
X116150000Y-73000000D01*
X61324803Y-80724803D02*
X61324803Y-76325197D01*
X68650000Y-88050000D02*
X61324803Y-80724803D01*
X65948427Y-89550001D02*
X65042375Y-90456053D01*
X80900000Y-93500000D02*
X80022998Y-93500000D01*
X80022998Y-93500000D02*
X76072999Y-89550001D01*
X76072999Y-89550001D02*
X65948427Y-89550001D01*
X66350010Y-89900000D02*
X65800010Y-90450000D01*
X75600000Y-89900000D02*
X66350010Y-89900000D01*
X80900000Y-94300000D02*
X80000000Y-94300000D01*
X80000000Y-94300000D02*
X75600000Y-89900000D01*
D29*
X86500000Y-95900000D02*
X87115000Y-95900000D01*
X87115000Y-95900000D02*
X87200000Y-95985000D01*
X88097500Y-95985000D02*
X88400000Y-96287500D01*
X87200000Y-95985000D02*
X88097500Y-95985000D01*
X88452500Y-96235000D02*
X88400000Y-96287500D01*
X89850000Y-96235000D02*
X88452500Y-96235000D01*
X80700000Y-94900000D02*
X80900000Y-95100000D01*
X80300000Y-94900000D02*
X80700000Y-94900000D01*
X80300000Y-94900000D02*
X79700000Y-95500000D01*
X79387500Y-95812500D02*
X79700000Y-95500000D01*
X79387500Y-96400000D02*
X79387500Y-95812500D01*
X78385000Y-97402500D02*
X79387500Y-96400000D01*
X78385000Y-97600000D02*
X78385000Y-97402500D01*
X87115000Y-95100000D02*
X87200000Y-95015000D01*
X86500000Y-95100000D02*
X87115000Y-95100000D01*
X88097500Y-95015000D02*
X88400000Y-94712500D01*
X87200000Y-95015000D02*
X88097500Y-95015000D01*
X77950000Y-96500000D02*
X78100000Y-96350000D01*
X78730000Y-95500000D02*
X78100000Y-95500000D01*
X79330000Y-94900000D02*
X78730000Y-95500000D01*
X77812500Y-95787500D02*
X78100000Y-95500000D01*
X77812500Y-96400000D02*
X77812500Y-95787500D01*
D28*
X107237280Y-111300000D02*
X106962190Y-111575090D01*
X116700000Y-108500000D02*
X113900000Y-111300000D01*
X113900000Y-111300000D02*
X107237280Y-111300000D01*
X107100099Y-109199901D02*
X107800000Y-108500000D01*
X107800000Y-108500000D02*
X107810000Y-108500000D01*
X103500099Y-109199901D02*
X107100099Y-109199901D01*
X101200000Y-111500000D02*
X103500099Y-109199901D01*
X110700000Y-113230000D02*
X110350000Y-113230000D01*
X106700000Y-111000000D02*
X106147478Y-111552522D01*
X112930000Y-111000000D02*
X106700000Y-111000000D01*
X115430000Y-108500000D02*
X112930000Y-111000000D01*
X105239183Y-111537128D02*
X105200000Y-111537128D01*
X106076311Y-110700000D02*
X105239183Y-111537128D01*
X114160000Y-108500000D02*
X111960000Y-110700000D01*
X111960000Y-110700000D02*
X106076311Y-110700000D01*
X104400000Y-111500000D02*
X105500000Y-110400000D01*
X105500000Y-110400000D02*
X110990000Y-110400000D01*
X110990000Y-110400000D02*
X112890000Y-108500000D01*
X109050279Y-109799721D02*
X110350000Y-108500000D01*
X102800000Y-111500000D02*
X104500279Y-109799721D01*
X104500279Y-109799721D02*
X109050279Y-109799721D01*
X103600000Y-111500000D02*
X105000000Y-110100000D01*
X110020000Y-110100000D02*
X111620000Y-108500000D01*
X105000000Y-110100000D02*
X110020000Y-110100000D01*
X102000000Y-111500000D02*
X104000188Y-109499812D01*
X104000188Y-109499812D02*
X105676182Y-109499812D01*
X105676182Y-109499812D02*
X108080188Y-109499812D01*
X108080188Y-109499812D02*
X109080000Y-108500000D01*
X107800000Y-82500000D02*
X107810000Y-82500000D01*
X107166982Y-81866982D02*
X107800000Y-82500000D01*
X103566982Y-81866982D02*
X107166982Y-81866982D01*
X101200000Y-79500000D02*
X103566982Y-81866982D01*
X113900000Y-79700000D02*
X116700000Y-82500000D01*
X106800000Y-79500000D02*
X107000000Y-79700000D01*
X107000000Y-79700000D02*
X113900000Y-79700000D01*
X97300000Y-77770000D02*
X97650000Y-77770000D01*
X103150089Y-80650089D02*
X102000000Y-79500000D01*
X104067071Y-81567071D02*
X103150089Y-80650089D01*
X108217071Y-81567071D02*
X104067071Y-81567071D01*
X109080000Y-82430000D02*
X108217071Y-81567071D01*
X109080000Y-82500000D02*
X109080000Y-82430000D01*
X109117160Y-81267160D02*
X110350000Y-82500000D01*
X104567160Y-81267160D02*
X109117160Y-81267160D01*
X102800000Y-79500000D02*
X104567160Y-81267160D01*
X110070000Y-80950000D02*
X111620000Y-82500000D01*
X105050000Y-80950000D02*
X110070000Y-80950000D01*
X103600000Y-79500000D02*
X105050000Y-80950000D01*
X111984811Y-80324811D02*
X114160000Y-82500000D01*
X106024811Y-80324811D02*
X111984811Y-80324811D01*
X105200000Y-79500000D02*
X106024811Y-80324811D01*
X111014721Y-80624721D02*
X112890000Y-82500000D01*
X105524721Y-80624721D02*
X111014721Y-80624721D01*
X104400000Y-79500000D02*
X105524721Y-80624721D01*
X106529883Y-80024901D02*
X105981323Y-79476341D01*
X112954901Y-80024901D02*
X106529883Y-80024901D01*
X115430000Y-82500000D02*
X112954901Y-80024901D01*
X89500000Y-94050000D02*
X89500000Y-92000000D01*
X89600000Y-94150000D02*
X89500000Y-94050000D01*
X82500000Y-100151723D02*
X82500000Y-98300000D01*
X79151813Y-103499910D02*
X82500000Y-100151723D01*
X59700000Y-102000000D02*
X61199911Y-103499911D01*
X61199911Y-103499911D02*
X79151813Y-103499910D01*
X94200000Y-81100000D02*
X93500000Y-81800000D01*
X118685000Y-85585000D02*
X116400000Y-83300000D01*
X116400000Y-83300000D02*
X103800000Y-83300000D01*
X120800000Y-85585000D02*
X118685000Y-85585000D01*
X103800000Y-83300000D02*
X101600000Y-81100000D01*
X101600000Y-81100000D02*
X94200000Y-81100000D01*
D29*
X97665000Y-98865000D02*
X97850000Y-99050000D01*
X97050000Y-98865000D02*
X97665000Y-98865000D01*
X101665000Y-98865000D02*
X101850000Y-99050000D01*
X101050000Y-98865000D02*
X101665000Y-98865000D01*
X97665000Y-101665000D02*
X97850000Y-101850000D01*
X97050000Y-101665000D02*
X97665000Y-101665000D01*
X101665000Y-101665000D02*
X101850000Y-101850000D01*
X101050000Y-101665000D02*
X101665000Y-101665000D01*
X97665000Y-104465000D02*
X97850000Y-104650000D01*
X97050000Y-104465000D02*
X97665000Y-104465000D01*
X97850000Y-96350000D02*
X97515000Y-96015000D01*
X97515000Y-96015000D02*
X97050000Y-96015000D01*
X101565000Y-96065000D02*
X101050000Y-96065000D01*
X101850000Y-96350000D02*
X101565000Y-96065000D01*
D30*
X97500000Y-106950000D02*
X97050000Y-106950000D01*
D32*
X107750000Y-105400000D02*
X108250000Y-105400000D01*
X108250000Y-105400000D02*
X107300000Y-105400000D01*
D30*
X102150000Y-96350000D02*
X102700000Y-96900000D01*
X101850000Y-96350000D02*
X102150000Y-96350000D01*
X101800000Y-106950000D02*
X97500000Y-106950000D01*
X102700000Y-106050000D02*
X101800000Y-106950000D01*
X102700000Y-105400000D02*
X102700000Y-106050000D01*
D29*
X107883146Y-102200000D02*
X108100000Y-102200000D01*
X106900000Y-103183146D02*
X107883146Y-102200000D01*
X106900000Y-105400000D02*
X106900000Y-103183146D01*
X101315000Y-104200000D02*
X101050000Y-104465000D01*
X101700000Y-104200000D02*
X101315000Y-104200000D01*
D30*
X101700000Y-104200000D02*
X102700000Y-104200000D01*
X102700000Y-104200000D02*
X102700000Y-101850000D01*
X102700000Y-101850000D02*
X101850000Y-101850000D01*
X102700000Y-105400000D02*
X102700000Y-104200000D01*
X102700000Y-101850000D02*
X102700000Y-99050000D01*
X102700000Y-99050000D02*
X101850000Y-99050000D01*
X102700000Y-99050000D02*
X102700000Y-96900000D01*
X106200000Y-108650000D02*
X106200000Y-105400000D01*
X107300000Y-105400000D02*
X106200000Y-105400000D01*
X106200000Y-105400000D02*
X102700000Y-105400000D01*
D28*
X123800000Y-104437500D02*
X124050000Y-104187500D01*
X123800000Y-105415000D02*
X123800000Y-104437500D01*
D32*
X117500000Y-105400000D02*
X108250000Y-105400000D01*
X124200000Y-108800000D02*
X120900000Y-108800000D01*
X125000000Y-104400000D02*
X125000000Y-108000000D01*
X120900000Y-108800000D02*
X117500000Y-105400000D01*
X125000000Y-108000000D02*
X124200000Y-108800000D01*
D28*
X117500000Y-105400000D02*
X117500000Y-102100000D01*
X117500000Y-102100000D02*
X118600000Y-101000000D01*
X118600000Y-101000000D02*
X118600012Y-101000000D01*
D30*
X102700000Y-87800000D02*
X102700000Y-88850000D01*
X102700000Y-85600000D02*
X102700000Y-87800000D01*
X102700000Y-88850000D02*
X102700000Y-90200000D01*
X102700000Y-88850000D02*
X102700000Y-89800000D01*
X102700000Y-92600000D02*
X102700000Y-90200000D01*
X101850000Y-93450000D02*
X102700000Y-92600000D01*
X102100000Y-84000000D02*
X102700000Y-84600000D01*
X102700000Y-84600000D02*
X102700000Y-85600000D01*
X97850000Y-85050000D02*
X98900000Y-84000000D01*
D29*
X97665000Y-84865000D02*
X97850000Y-85050000D01*
X97050000Y-84865000D02*
X97665000Y-84865000D01*
X97665000Y-87665000D02*
X97850000Y-87850000D01*
X97050000Y-87665000D02*
X97665000Y-87665000D01*
X97665000Y-90465000D02*
X97050000Y-90465000D01*
X97850000Y-90650000D02*
X97665000Y-90465000D01*
D30*
X101850000Y-90650000D02*
X102700000Y-90650000D01*
D29*
X101665000Y-90465000D02*
X101850000Y-90650000D01*
X101050000Y-90465000D02*
X101665000Y-90465000D01*
X97665000Y-93265000D02*
X97850000Y-93450000D01*
X97050000Y-93265000D02*
X97665000Y-93265000D01*
X101665000Y-93265000D02*
X101850000Y-93450000D01*
X101050000Y-93265000D02*
X101665000Y-93265000D01*
D30*
X100100000Y-84000000D02*
X102100000Y-84000000D01*
D32*
X107400000Y-85600000D02*
X107800000Y-85600000D01*
D30*
X107800000Y-85600000D02*
X102700000Y-85600000D01*
X97850000Y-85050000D02*
X97850000Y-84550000D01*
D29*
X101050000Y-87665000D02*
X101622664Y-87665000D01*
D30*
X102628832Y-87871168D02*
X101828832Y-87871168D01*
D29*
X101622664Y-87665000D02*
X101828832Y-87871168D01*
D30*
X100100000Y-84000000D02*
X100100000Y-84390128D01*
D29*
X100765000Y-84865000D02*
X100324388Y-84424388D01*
X100324388Y-84424388D02*
X100134260Y-84424388D01*
D30*
X100100000Y-84390128D02*
X100134260Y-84424388D01*
D29*
X101050000Y-84865000D02*
X100765000Y-84865000D01*
D32*
X107900000Y-85600000D02*
X108450000Y-85600000D01*
X108450000Y-85600000D02*
X107800000Y-85600000D01*
D30*
X99700000Y-82350000D02*
X99700000Y-84000000D01*
X98900000Y-84000000D02*
X99700000Y-84000000D01*
X99700000Y-84000000D02*
X100100000Y-84000000D01*
D28*
X122800000Y-86562500D02*
X122550000Y-86812500D01*
X122800000Y-85585000D02*
X122800000Y-86562500D01*
D32*
X108400000Y-85600000D02*
X116400000Y-85600000D01*
X116400000Y-85600000D02*
X117475105Y-86675105D01*
D28*
X117475105Y-88224895D02*
X117475105Y-86675105D01*
X117000000Y-88700000D02*
X117475105Y-88224895D01*
D32*
X117475105Y-86675105D02*
X120512605Y-86675105D01*
X120512605Y-86675105D02*
X120650000Y-86812500D01*
D28*
X83300000Y-99813793D02*
X83300000Y-97500000D01*
X79313972Y-103799821D02*
X83300000Y-99813793D01*
X59700000Y-104000000D02*
X59900179Y-103799821D01*
X59900179Y-103799821D02*
X79313972Y-103799821D01*
X125400000Y-109600000D02*
X117500000Y-109600000D01*
X126300000Y-108700000D02*
X125400000Y-109600000D01*
X126300000Y-106115000D02*
X127000000Y-105415000D01*
X126300000Y-108700000D02*
X126300000Y-106115000D01*
X87299986Y-100700000D02*
X87499986Y-100900000D01*
X59700000Y-108800000D02*
X63800448Y-104699552D01*
X63800448Y-104699552D02*
X79724586Y-104699552D01*
X59700000Y-110000000D02*
X59700000Y-108800000D01*
X79724586Y-104699552D02*
X83724138Y-100700000D01*
X83724138Y-100700000D02*
X87299986Y-100700000D01*
X79600359Y-104399641D02*
X85700000Y-98300000D01*
X59700000Y-108000000D02*
X59700000Y-106900000D01*
X62200359Y-104399641D02*
X79600359Y-104399641D01*
X59700000Y-106900000D02*
X62200359Y-104399641D01*
X84900000Y-98300000D02*
X84900000Y-98650000D01*
X84900000Y-98650000D02*
X79450269Y-104099731D01*
X59700000Y-106000000D02*
X61600269Y-104099731D01*
X61600269Y-104099731D02*
X79450269Y-104099731D01*
D31*
X78680000Y-76980000D02*
X78200000Y-76500000D01*
X85552982Y-84498000D02*
X79907582Y-84498000D01*
X86130000Y-85075018D02*
X85552982Y-84498000D01*
X86130000Y-85360625D02*
X86130000Y-85075018D01*
X86142520Y-85471746D02*
X86130000Y-85360625D01*
X86179453Y-85577295D02*
X86142520Y-85471746D01*
X86122479Y-89866756D02*
X86130000Y-89800000D01*
X86017047Y-90034549D02*
X86064550Y-89987046D01*
X85563893Y-87300000D02*
X85452772Y-87287479D01*
X85896757Y-90092478D02*
X85960166Y-90070290D01*
X86100291Y-90869834D02*
X86064550Y-90812953D01*
X86064550Y-89987046D02*
X86100291Y-89930165D01*
X85663392Y-90129709D02*
X85726801Y-90107521D01*
X87176666Y-85967562D02*
X87154029Y-85931536D01*
X85793557Y-90100000D02*
X85830000Y-90100000D01*
X86122479Y-90933243D02*
X86100291Y-90869834D01*
X85252538Y-87191052D02*
X85173466Y-87111980D01*
X85501079Y-90333243D02*
X85523267Y-90269834D01*
X85347223Y-87250546D02*
X85252538Y-87191052D01*
X85493557Y-90400000D02*
X85501079Y-90333243D01*
X85501079Y-90466756D02*
X85493557Y-90400000D01*
X85559008Y-90212953D02*
X85606511Y-90165450D01*
X85606511Y-90165450D02*
X85663392Y-90129709D01*
X86629374Y-85860000D02*
X86518253Y-85847479D01*
X85663392Y-90670290D02*
X85606511Y-90634549D01*
X85452772Y-87287479D02*
X85347223Y-87250546D01*
X86100291Y-89930165D02*
X86122479Y-89866756D01*
X86111185Y-87407562D02*
X86088548Y-87371536D01*
X86130000Y-87490000D02*
X86125237Y-87447721D01*
X86130000Y-91000000D02*
X86122479Y-90933243D01*
X86130000Y-91789167D02*
X86130000Y-91000000D01*
X86019167Y-91900000D02*
X86130000Y-91789167D01*
X85830000Y-90100000D02*
X85896757Y-90092478D01*
X86412704Y-85810546D02*
X86318019Y-85751052D01*
X85064518Y-86800625D02*
X85064518Y-86739374D01*
X86064550Y-90812953D02*
X86017047Y-90765450D01*
X85830000Y-90700000D02*
X85793557Y-90700000D01*
X85726801Y-90107521D02*
X85793557Y-90100000D01*
X85700000Y-91900000D02*
X86019167Y-91900000D01*
X86022438Y-87318815D02*
X85982279Y-87304763D01*
X85077039Y-86628253D02*
X85113972Y-86522704D01*
X85960166Y-90729709D02*
X85896757Y-90707521D01*
X85523267Y-90269834D02*
X85559008Y-90212953D01*
X85606511Y-90634549D02*
X85559008Y-90587046D01*
X86518253Y-85847479D02*
X86412704Y-85810546D01*
X85960166Y-90070290D02*
X86017047Y-90034549D01*
X85896757Y-90707521D02*
X85830000Y-90700000D01*
X85793557Y-90700000D02*
X85726801Y-90692478D01*
X87005482Y-86240000D02*
X87047760Y-86235236D01*
X87176666Y-86132437D02*
X87190718Y-86092278D01*
X85523267Y-90530165D02*
X85501079Y-90466756D01*
X85559008Y-90587046D02*
X85523267Y-90530165D01*
X85252538Y-86348947D02*
X85347223Y-86289453D01*
X85982279Y-87304763D02*
X85940000Y-87300000D01*
X86058464Y-87341452D02*
X86022438Y-87318815D01*
X86088548Y-87371536D02*
X86058464Y-87341452D01*
X85173466Y-87111980D02*
X85113972Y-87017295D01*
X85113972Y-87017295D02*
X85077039Y-86911746D01*
X86017047Y-90765450D02*
X85960166Y-90729709D01*
X85077039Y-86911746D02*
X85064518Y-86800625D01*
X86125237Y-87447721D02*
X86111185Y-87407562D01*
X86130000Y-89800000D02*
X86130000Y-87490000D01*
X85064518Y-86739374D02*
X85077039Y-86628253D01*
X87005482Y-85860000D02*
X86629374Y-85860000D01*
X85726801Y-90692478D02*
X85663392Y-90670290D01*
X85347223Y-86289453D02*
X85452772Y-86252520D01*
X87047760Y-86235236D02*
X87087919Y-86221184D01*
X85452772Y-86252520D02*
X85563893Y-86240000D01*
X85563893Y-86240000D02*
X87005482Y-86240000D01*
X87123945Y-86198547D02*
X87154029Y-86168463D01*
X87190718Y-86092278D02*
X87195482Y-86050000D01*
X79907582Y-84498000D02*
X79280000Y-83870418D01*
X87154029Y-86168463D02*
X87176666Y-86132437D01*
X85940000Y-87300000D02*
X85563893Y-87300000D01*
X87154029Y-85931536D02*
X87123945Y-85901452D01*
X87195482Y-86050000D02*
X87190718Y-86007721D01*
X87190718Y-86007721D02*
X87176666Y-85967562D01*
X87087919Y-86221184D02*
X87123945Y-86198547D01*
X87123945Y-85901452D02*
X87087919Y-85878815D01*
X85173466Y-86428019D02*
X85252538Y-86348947D01*
X87087919Y-85878815D02*
X87047760Y-85864763D01*
X85113972Y-86522704D02*
X85173466Y-86428019D01*
X86318019Y-85751052D02*
X86238947Y-85671980D01*
X87047760Y-85864763D02*
X87005482Y-85860000D01*
X86238947Y-85671980D02*
X86179453Y-85577295D01*
X78680000Y-76980000D02*
X78680000Y-79620418D01*
X79280000Y-80220418D02*
X79280000Y-83870418D01*
X78680000Y-79620418D02*
X79280000Y-80220418D01*
X78246315Y-83107489D02*
X78224661Y-83129146D01*
X77297805Y-82001832D02*
X77228084Y-82089259D01*
X77852006Y-83560420D02*
X77852006Y-83602966D01*
X84288115Y-90087061D02*
X84330001Y-90139584D01*
X77852006Y-83602966D02*
X77861474Y-83644446D01*
X83660014Y-89377036D02*
X83727192Y-89377036D01*
X75870000Y-80129582D02*
X75870000Y-81679583D01*
X78224661Y-83129146D02*
X77906461Y-83447343D01*
X82268758Y-86973025D02*
X82356187Y-86903302D01*
X78246315Y-82401267D02*
X78316037Y-82488696D01*
X77879935Y-83682780D02*
X77906461Y-83716044D01*
X77906461Y-83716044D02*
X81581749Y-87391332D01*
X81653346Y-87436319D02*
X81694826Y-87445787D01*
X77861474Y-83644446D02*
X77879935Y-83682780D01*
X78389438Y-82810290D02*
X78364555Y-82919311D01*
X81737372Y-87445787D02*
X81778852Y-87436319D01*
X83905735Y-89291054D02*
X83928573Y-89268217D01*
X81778852Y-87436319D02*
X81817185Y-87417859D01*
X78364555Y-82919311D02*
X78316036Y-83020062D01*
X81850449Y-87391332D02*
X82268758Y-86973025D01*
X82456940Y-86854782D02*
X82565963Y-86829899D01*
X81694826Y-87445787D02*
X81737372Y-87445787D01*
X82677789Y-86829899D02*
X82786812Y-86854782D01*
X77906461Y-83447343D02*
X77879935Y-83480608D01*
X78316036Y-83020062D02*
X78246315Y-83107489D01*
X76478552Y-81339728D02*
X76565979Y-81270006D01*
X82356187Y-86903302D02*
X82456940Y-86854782D01*
X82887564Y-86903302D02*
X82974994Y-86973025D01*
X83018306Y-87016337D02*
X83088028Y-87103766D01*
X83088028Y-87103766D02*
X83136548Y-87204519D01*
X84300315Y-89226331D02*
X84352838Y-89268217D01*
X83136548Y-87204519D02*
X83161432Y-87313541D01*
X83928573Y-89268217D02*
X83981096Y-89226331D01*
X83161432Y-87313541D02*
X83161432Y-87425368D01*
X83088028Y-87635143D02*
X83018305Y-87722573D01*
X77001306Y-82752266D02*
X77043852Y-82752266D01*
X77861474Y-83518940D02*
X77852006Y-83560420D01*
X82565963Y-86829899D02*
X82677789Y-86829899D01*
X82555011Y-88212479D02*
X82545543Y-88253958D01*
X82974994Y-86973025D02*
X83018306Y-87016337D01*
X83161432Y-87425368D02*
X83136548Y-87534391D01*
X83481472Y-89291055D02*
X83533993Y-89332939D01*
X83018305Y-87722573D02*
X82599998Y-88140881D01*
X82545543Y-88253958D02*
X82545543Y-88296505D01*
X82545543Y-88296505D02*
X82555011Y-88337985D01*
X82786812Y-86854782D02*
X82887564Y-86903302D01*
X84107116Y-89182235D02*
X84174295Y-89182235D01*
X82573471Y-88376318D02*
X82599998Y-88409582D01*
X84438820Y-89446760D02*
X84438820Y-89513938D01*
X76843243Y-82626216D02*
X76861704Y-82664550D01*
X82599998Y-88140881D02*
X82573471Y-88174145D01*
X84394723Y-89320739D02*
X84423871Y-89381265D01*
X84330001Y-89715319D02*
X84288115Y-89767842D01*
X75903262Y-81706109D02*
X75941596Y-81724570D01*
X81817185Y-87417859D02*
X81850449Y-87391332D01*
X84174295Y-89182235D02*
X84239789Y-89197184D01*
X83792687Y-89362087D02*
X83853213Y-89332939D01*
X84438820Y-89513938D02*
X84423871Y-89579433D01*
X78316037Y-82488696D02*
X78364555Y-82589445D01*
X84352838Y-89692481D02*
X84330001Y-89715319D01*
X84580833Y-91900000D02*
X84900000Y-91900000D01*
X84288115Y-89767842D02*
X84258968Y-89828368D01*
X76843243Y-82500710D02*
X76833775Y-82542190D01*
X82599998Y-88409582D02*
X83481472Y-89291055D01*
X76833775Y-82542190D02*
X76833775Y-82584736D01*
X84394723Y-89639959D02*
X84352838Y-89692481D01*
X81581749Y-87391332D02*
X81615013Y-87417859D01*
X84258968Y-90026535D02*
X84288115Y-90087061D01*
X84470000Y-90279582D02*
X84470000Y-91789167D01*
X83981096Y-89226331D02*
X84041622Y-89197184D01*
X84330001Y-90139584D02*
X84470000Y-90279582D01*
X81615013Y-87417859D02*
X81653346Y-87436319D01*
X84423871Y-89579433D02*
X84394723Y-89639959D01*
X84470000Y-91789167D02*
X84580833Y-91900000D01*
X83727192Y-89377036D02*
X83792687Y-89362087D01*
X82573471Y-88174145D02*
X82555011Y-88212479D01*
X84423871Y-89381265D02*
X84438820Y-89446760D01*
X77879935Y-83480608D02*
X77861474Y-83518940D01*
X83136548Y-87534391D02*
X83088028Y-87635143D01*
X83853213Y-89332939D02*
X83905735Y-89291054D01*
X84239789Y-89197184D02*
X84300315Y-89226331D01*
X83594519Y-89362087D02*
X83660014Y-89377036D01*
X84041622Y-89197184D02*
X84107116Y-89182235D01*
X77496783Y-82357958D02*
X77584210Y-82288236D01*
X84352838Y-89268217D02*
X84394723Y-89320739D01*
X82555011Y-88337985D02*
X82573471Y-88376318D01*
X84258968Y-89828368D02*
X84244019Y-89893862D01*
X77156929Y-82697811D02*
X77496783Y-82357958D01*
X84244019Y-89961041D02*
X84258968Y-90026535D01*
X84244019Y-89893862D02*
X84244019Y-89961041D01*
X83533993Y-89332939D02*
X83594519Y-89362087D01*
X78115578Y-82288237D02*
X78203005Y-82357958D01*
X76067102Y-81724570D02*
X76105434Y-81706109D01*
X78389438Y-82698466D02*
X78389438Y-82810290D01*
X77206430Y-82110916D02*
X76888230Y-82429113D01*
X78364555Y-82589445D02*
X78389438Y-82698466D01*
X77123665Y-82724339D02*
X77156929Y-82697811D01*
X77371207Y-81792060D02*
X77346324Y-81901081D01*
X78203005Y-82357958D02*
X78246315Y-82401267D01*
X78014827Y-82239718D02*
X78115578Y-82288237D01*
X77905806Y-82214835D02*
X78014827Y-82239718D01*
X75941596Y-81724570D02*
X75983075Y-81734036D01*
X77793982Y-82214835D02*
X77905806Y-82214835D01*
X77684961Y-82239718D02*
X77793982Y-82214835D01*
X76888230Y-82429113D02*
X76861704Y-82462378D01*
X77584210Y-82288236D02*
X77684961Y-82239718D01*
X77085333Y-82742800D02*
X77123665Y-82724339D01*
X77043852Y-82752266D02*
X77085333Y-82742800D01*
X76861704Y-82462378D02*
X76843243Y-82500710D01*
X76959827Y-82742800D02*
X77001306Y-82752266D01*
X76921493Y-82724339D02*
X76959827Y-82742800D01*
X76888231Y-82697813D02*
X76921493Y-82724339D01*
X76996596Y-81221488D02*
X77097347Y-81270007D01*
X76861704Y-82664550D02*
X76888231Y-82697813D01*
X76833775Y-82584736D02*
X76843243Y-82626216D01*
X77297806Y-81470466D02*
X77346324Y-81571215D01*
X77228084Y-82089259D02*
X77206430Y-82110916D01*
X77346324Y-81901081D02*
X77297805Y-82001832D01*
X77371207Y-81680236D02*
X77371207Y-81792060D01*
X77346324Y-81571215D02*
X77371207Y-81680236D01*
X75700000Y-76500000D02*
X75220000Y-76980000D01*
X77228084Y-81383037D02*
X77297806Y-81470466D01*
X77184774Y-81339728D02*
X77228084Y-81383037D01*
X77097347Y-81270007D02*
X77184774Y-81339728D01*
X76887575Y-81196605D02*
X76996596Y-81221488D01*
X76775751Y-81196605D02*
X76887575Y-81196605D01*
X76666730Y-81221488D02*
X76775751Y-81196605D01*
X76565979Y-81270006D02*
X76666730Y-81221488D01*
X76138698Y-81679581D02*
X76478552Y-81339728D01*
X76105434Y-81706109D02*
X76138698Y-81679581D01*
X76025621Y-81734036D02*
X76067102Y-81724570D01*
X75983075Y-81734036D02*
X76025621Y-81734036D01*
X75870000Y-81679583D02*
X75903262Y-81706109D01*
X75220000Y-79479582D02*
X75870000Y-80129582D01*
X75220000Y-76980000D02*
X75220000Y-79479582D01*
X63795000Y-76955000D02*
X63795000Y-79891868D01*
X80670000Y-91339582D02*
X80670000Y-91670000D01*
X68790418Y-86050000D02*
X75380418Y-86050000D01*
X63795000Y-79891868D02*
X63909722Y-80006590D01*
X75380418Y-86050000D02*
X80670000Y-91339582D01*
X63909722Y-80006590D02*
X63909722Y-81169304D01*
X64250000Y-76500000D02*
X63795000Y-76955000D01*
X80670000Y-91670000D02*
X80900000Y-91900000D01*
X63909722Y-81169304D02*
X68790418Y-86050000D01*
X80330000Y-91670000D02*
X80330000Y-91480418D01*
X63455000Y-76845598D02*
X63114727Y-76505325D01*
X68649582Y-86390000D02*
X63569811Y-81310229D01*
X63569811Y-80147385D02*
X63455000Y-80032574D01*
X80330000Y-91480418D02*
X75239582Y-86390000D01*
X80100000Y-91900000D02*
X80330000Y-91670000D01*
X63569811Y-81310229D02*
X63569811Y-80147385D01*
X63455000Y-80032574D02*
X63455000Y-76845598D01*
X75239582Y-86390000D02*
X68649582Y-86390000D01*
X82480000Y-76980000D02*
X82000000Y-76500000D01*
X82480000Y-79620418D02*
X82480000Y-76980000D01*
X83130000Y-80270418D02*
X82480000Y-79620418D01*
X83130000Y-82887818D02*
X83130000Y-80270418D01*
X83800382Y-83558200D02*
X83130000Y-82887818D01*
X86848382Y-83558200D02*
X83800382Y-83558200D01*
X88185236Y-86792278D02*
X88190000Y-86750000D01*
X88171184Y-86832437D02*
X88185236Y-86792278D01*
X88190000Y-88879374D02*
X88202521Y-88768253D01*
X89306786Y-88272437D02*
X89320838Y-88232278D01*
X87163346Y-87811980D02*
X87103852Y-87717295D01*
X88182479Y-91206338D02*
X88190000Y-91139582D01*
X86650000Y-92550000D02*
X87979582Y-92550000D01*
X88190000Y-91139582D02*
X88190000Y-88879374D01*
X89306786Y-88107562D02*
X89284149Y-88071536D01*
X88160291Y-91269747D02*
X88182479Y-91206338D01*
X88077047Y-91374131D02*
X88124550Y-91326628D01*
X88190000Y-86750000D02*
X88190000Y-84899818D01*
X88020166Y-91409872D02*
X88077047Y-91374131D01*
X87163346Y-87128019D02*
X87242418Y-87048947D01*
X87890000Y-91439582D02*
X87956757Y-91432060D01*
X87793014Y-91447103D02*
X87859770Y-91439582D01*
X87956757Y-91432060D02*
X88020166Y-91409872D01*
X87589480Y-91869747D02*
X87567292Y-91806338D01*
X88160291Y-92209416D02*
X88124550Y-92152535D01*
X87242418Y-87891052D02*
X87163346Y-87811980D01*
X87567292Y-91806338D02*
X87559770Y-91739582D01*
X87729605Y-91469291D02*
X87793014Y-91447103D01*
X87553773Y-86940000D02*
X88000000Y-86940000D01*
X89284149Y-88308463D02*
X89306786Y-88272437D01*
X89320838Y-88147721D02*
X89306786Y-88107562D01*
X87979582Y-92550000D02*
X88190000Y-92339582D01*
X87859770Y-91439582D02*
X87890000Y-91439582D01*
X88077047Y-92105032D02*
X88020166Y-92069291D01*
X86500000Y-92700000D02*
X86650000Y-92550000D01*
X87672724Y-91505032D02*
X87729605Y-91469291D01*
X87890000Y-92039582D02*
X87859770Y-92039582D01*
X87054399Y-87439374D02*
X87066919Y-87328253D01*
X87066919Y-87611746D02*
X87054399Y-87500625D01*
X88020166Y-92069291D02*
X87956757Y-92047103D01*
X88298948Y-88568019D02*
X88378020Y-88488947D01*
X87859770Y-92039582D02*
X87793014Y-92032060D01*
X87442652Y-86952520D02*
X87553773Y-86940000D01*
X87589480Y-91609416D02*
X87625221Y-91552535D01*
X88472705Y-88429453D02*
X88578254Y-88392520D01*
X88190000Y-92339582D02*
X88182479Y-92272825D01*
X88124550Y-92152535D02*
X88077047Y-92105032D01*
X87956757Y-92047103D02*
X87890000Y-92039582D01*
X87672724Y-91974131D02*
X87625221Y-91926628D01*
X87103852Y-87717295D02*
X87066919Y-87611746D01*
X87567292Y-91672825D02*
X87589480Y-91609416D01*
X87103852Y-87222704D02*
X87163346Y-87128019D01*
X88182479Y-92272825D02*
X88160291Y-92209416D01*
X88239454Y-88662704D02*
X88298948Y-88568019D01*
X88378020Y-88488947D02*
X88472705Y-88429453D01*
X87242418Y-87048947D02*
X87337103Y-86989453D01*
X87559770Y-91739582D02*
X87567292Y-91672825D01*
X87793014Y-92032060D02*
X87729605Y-92009872D01*
X88689375Y-88380000D02*
X89135601Y-88380000D01*
X87553773Y-88000000D02*
X87442652Y-87987479D01*
X89135601Y-88380000D02*
X89177880Y-88375236D01*
X89177880Y-88375236D02*
X89218039Y-88361184D01*
X89218039Y-88361184D02*
X89254065Y-88338547D01*
X89254065Y-88338547D02*
X89284149Y-88308463D01*
X88124550Y-91326628D02*
X88160291Y-91269747D01*
X89320838Y-88232278D02*
X89325601Y-88190000D01*
X87729605Y-92009872D02*
X87672724Y-91974131D01*
X89177880Y-88004763D02*
X89135601Y-88000000D01*
X89325601Y-88190000D02*
X89320838Y-88147721D01*
X89284149Y-88071536D02*
X89254065Y-88041452D01*
X89254065Y-88041452D02*
X89218039Y-88018815D01*
X89218039Y-88018815D02*
X89177880Y-88004763D01*
X89135601Y-88000000D02*
X87553773Y-88000000D01*
X87066919Y-87328253D02*
X87103852Y-87222704D01*
X87442652Y-87987479D02*
X87337103Y-87950546D01*
X87625221Y-91552535D02*
X87672724Y-91505032D01*
X87337103Y-87950546D02*
X87242418Y-87891052D01*
X87054399Y-87500625D02*
X87054399Y-87439374D01*
X88202521Y-88768253D02*
X88239454Y-88662704D01*
X87337103Y-86989453D02*
X87442652Y-86952520D01*
X88578254Y-88392520D02*
X88689375Y-88380000D01*
X88042278Y-86935236D02*
X88082437Y-86921184D01*
X88190000Y-84899818D02*
X86848382Y-83558200D01*
X88082437Y-86921184D02*
X88118463Y-86898547D01*
X88118463Y-86898547D02*
X88148547Y-86868463D01*
X87625221Y-91926628D02*
X87589480Y-91869747D01*
X88000000Y-86940000D02*
X88042278Y-86935236D01*
X88148547Y-86868463D02*
X88171184Y-86832437D01*
X80048418Y-84158000D02*
X79620000Y-83729582D01*
X85693818Y-84158000D02*
X80048418Y-84158000D01*
X86470000Y-84934182D02*
X85693818Y-84158000D01*
X86577562Y-85501184D02*
X86541536Y-85478547D01*
X86660000Y-85520000D02*
X86617721Y-85515236D01*
X87036107Y-85520000D02*
X86660000Y-85520000D01*
X87252777Y-85569453D02*
X87147228Y-85532520D01*
X87426534Y-85708019D02*
X87347462Y-85628947D01*
X87522961Y-86191746D02*
X87535482Y-86080625D01*
X87486028Y-86297295D02*
X87522961Y-86191746D01*
X87347462Y-86471052D02*
X87426534Y-86391980D01*
X85594518Y-86580000D02*
X87036107Y-86580000D01*
X85552240Y-86584763D02*
X85594518Y-86580000D01*
X85476055Y-86621452D02*
X85512081Y-86598815D01*
X85404518Y-86770000D02*
X85409282Y-86727721D01*
X85409282Y-86812278D02*
X85404518Y-86770000D01*
X86511452Y-85448463D02*
X86488815Y-85412437D01*
X85423334Y-86852437D02*
X85409282Y-86812278D01*
X85445971Y-86888463D02*
X85423334Y-86852437D01*
X85476055Y-86918547D02*
X85445971Y-86888463D01*
X85594518Y-86960000D02*
X85552240Y-86955236D01*
X85970626Y-86960000D02*
X85594518Y-86960000D01*
X86081747Y-86972520D02*
X85970626Y-86960000D01*
X86281981Y-87068947D02*
X86187296Y-87009453D01*
X86420547Y-87242704D02*
X86361053Y-87148019D01*
X85552240Y-86955236D02*
X85512081Y-86941184D01*
X86470000Y-87459374D02*
X86457480Y-87348253D01*
X86457480Y-87348253D02*
X86420547Y-87242704D01*
X86470000Y-85330000D02*
X86470000Y-84934182D01*
X86617721Y-85515236D02*
X86577562Y-85501184D01*
X87486028Y-85802704D02*
X87426534Y-85708019D01*
X87426534Y-86391980D02*
X87486028Y-86297295D01*
X79020000Y-76980000D02*
X79500000Y-76500000D01*
X87347462Y-85628947D02*
X87252777Y-85569453D01*
X86470000Y-91930000D02*
X86470000Y-87459374D01*
X87522961Y-85908253D02*
X87486028Y-85802704D01*
X86541536Y-85478547D02*
X86511452Y-85448463D01*
X85423334Y-86687562D02*
X85445971Y-86651536D01*
X87252777Y-86530546D02*
X87347462Y-86471052D01*
X87535482Y-86019374D02*
X87522961Y-85908253D01*
X85409282Y-86727721D02*
X85423334Y-86687562D01*
X87036107Y-86580000D02*
X87147228Y-86567479D01*
X85700000Y-92700000D02*
X86470000Y-91930000D01*
X87535482Y-86080625D02*
X87535482Y-86019374D01*
X85445971Y-86651536D02*
X85476055Y-86621452D01*
X86474763Y-85372278D02*
X86470000Y-85330000D01*
X85512081Y-86941184D02*
X85476055Y-86918547D01*
X86361053Y-87148019D02*
X86281981Y-87068947D01*
X86488815Y-85412437D02*
X86474763Y-85372278D01*
X85512081Y-86598815D02*
X85552240Y-86584763D01*
X87147228Y-85532520D02*
X87036107Y-85520000D01*
X86187296Y-87009453D02*
X86081747Y-86972520D01*
X87147228Y-86567479D02*
X87252777Y-86530546D01*
X79020000Y-76980000D02*
X79020000Y-79479582D01*
X79020000Y-79479582D02*
X79620000Y-80079582D01*
X79620000Y-80079582D02*
X79620000Y-83729582D01*
X81881036Y-87771654D02*
X81981788Y-87723134D01*
X82722962Y-87208577D02*
X82756227Y-87235105D01*
X81772013Y-87796538D02*
X81881036Y-87771654D01*
X81660186Y-87796537D02*
X81772013Y-87796538D01*
X77574669Y-83847377D02*
X77644390Y-83934804D01*
X82756227Y-87503805D02*
X82337919Y-87922113D01*
X81981788Y-87723134D02*
X82069218Y-87653411D01*
X78010771Y-82855465D02*
X77984245Y-82888730D01*
X78038700Y-82775653D02*
X78029232Y-82817133D01*
X78010771Y-82653293D02*
X78029232Y-82691627D01*
X77501267Y-83637605D02*
X77526150Y-83746626D01*
X77501267Y-83525781D02*
X77501267Y-83637605D01*
X77950980Y-82593502D02*
X77984245Y-82620030D01*
X77748808Y-82593502D02*
X77787142Y-82575043D01*
X77828622Y-82565575D02*
X77871168Y-82565575D01*
X77715545Y-82620030D02*
X77748808Y-82593502D01*
X82069218Y-87653411D02*
X82487526Y-87235104D01*
X77984245Y-82888730D02*
X77644390Y-83228582D01*
X77375691Y-82959884D02*
X77715545Y-82620030D01*
X76507919Y-82398530D02*
X76483036Y-82507551D01*
X77526150Y-83746626D02*
X77574669Y-83847377D01*
X77288262Y-83029604D02*
X77375691Y-82959884D01*
X82194793Y-88331145D02*
X82219677Y-88440168D01*
X76669469Y-82959884D02*
X76756896Y-83029605D01*
X81362981Y-87653411D02*
X81450411Y-87723134D01*
X76756896Y-83029605D02*
X76857647Y-83078124D01*
X76626159Y-82916574D02*
X76669469Y-82959884D01*
X76060261Y-82084777D02*
X76169282Y-82059894D01*
X76768911Y-81556813D02*
X76810391Y-81547345D01*
X82782754Y-87268369D02*
X82801214Y-87306702D01*
X76556438Y-82829147D02*
X76626159Y-82916574D01*
X82219677Y-88110295D02*
X82194793Y-88219318D01*
X75839416Y-82059894D02*
X75948437Y-82084777D01*
X78029232Y-82817133D02*
X78010771Y-82855465D01*
X75530000Y-81820418D02*
X75651238Y-81941654D01*
X76626159Y-82210352D02*
X76556439Y-82297781D01*
X82337919Y-88628350D02*
X84129988Y-90420418D01*
X76483036Y-82507551D02*
X76483036Y-82619375D01*
X76730577Y-81575272D02*
X76768911Y-81556813D01*
X76697314Y-81601800D02*
X76730577Y-81575272D01*
X76857647Y-83078124D02*
X76966668Y-83103007D01*
X76966014Y-81870500D02*
X76626159Y-82210352D01*
X82801214Y-87432208D02*
X82782754Y-87470541D01*
X82268196Y-88540920D02*
X82337919Y-88628350D01*
X76270031Y-82011374D02*
X76357460Y-81941654D01*
X74880000Y-79620418D02*
X75530000Y-80270418D01*
X77871168Y-82565575D02*
X77912648Y-82575043D01*
X75738665Y-82011375D02*
X75839416Y-82059894D01*
X76507919Y-82728396D02*
X76556438Y-82829147D01*
X76483036Y-82619375D02*
X76507919Y-82728396D01*
X77526150Y-83416760D02*
X77501267Y-83525781D01*
X74880000Y-76980000D02*
X74880000Y-79620418D01*
X77644390Y-83228582D02*
X77574670Y-83316011D01*
X77020469Y-81757423D02*
X77011001Y-81798903D01*
X76357460Y-81941654D02*
X76697314Y-81601800D01*
X78029232Y-82691627D02*
X78038700Y-82733107D01*
X75530000Y-80270418D02*
X75530000Y-81820418D01*
X77644390Y-83934804D02*
X77644390Y-83934820D01*
X77011001Y-81798903D02*
X76992540Y-81837235D01*
X76932749Y-81575272D02*
X76966014Y-81601800D01*
X76992540Y-81635063D02*
X77011001Y-81673397D01*
X81450411Y-87723134D02*
X81551163Y-87771654D01*
X82600603Y-87180649D02*
X82643149Y-87180649D01*
X76992540Y-81837235D02*
X76966014Y-81870500D01*
X76810391Y-81547345D02*
X76852937Y-81547345D01*
X76894417Y-81556813D02*
X76932749Y-81575272D01*
X76169282Y-82059894D02*
X76270031Y-82011374D01*
X77574670Y-83316011D02*
X77526150Y-83416760D01*
X77984245Y-82620030D02*
X78010771Y-82653293D01*
X82337919Y-87922113D02*
X82268197Y-88009543D01*
X74400000Y-76500000D02*
X74880000Y-76980000D01*
X76556439Y-82297781D02*
X76507919Y-82398530D01*
X77011001Y-81673397D02*
X77020469Y-81714877D01*
X77644390Y-83934820D02*
X81362981Y-87653411D01*
X77912648Y-82575043D02*
X77950980Y-82593502D01*
X76852937Y-81547345D02*
X76894417Y-81556813D01*
X77020469Y-81714877D02*
X77020469Y-81757423D01*
X76966014Y-81601800D02*
X76992540Y-81635063D01*
X82559123Y-87190117D02*
X82600603Y-87180649D01*
X77187513Y-83078124D02*
X77288262Y-83029604D01*
X82520790Y-87208577D02*
X82559123Y-87190117D01*
X82219677Y-88440168D02*
X82268196Y-88540920D01*
X82643149Y-87180649D02*
X82684629Y-87190117D01*
X82684629Y-87190117D02*
X82722962Y-87208577D01*
X82756227Y-87235105D02*
X82782754Y-87268369D01*
X75948437Y-82084777D02*
X76060261Y-82084777D01*
X82801214Y-87306702D02*
X82810682Y-87348182D01*
X77078492Y-83103007D02*
X77187513Y-83078124D01*
X82810682Y-87348182D02*
X82810682Y-87390728D01*
X82810682Y-87390728D02*
X82801214Y-87432208D01*
X82782754Y-87470541D02*
X82756227Y-87503805D01*
X75651238Y-81941654D02*
X75738665Y-82011375D01*
X82268197Y-88009543D02*
X82219677Y-88110295D01*
X82194793Y-88219318D02*
X82194793Y-88331145D01*
X76966668Y-83103007D02*
X77078492Y-83103007D01*
X82487526Y-87235104D02*
X82520790Y-87208577D01*
X78038700Y-82733107D02*
X78038700Y-82775653D01*
X77787142Y-82575043D02*
X77828622Y-82565575D01*
X81551163Y-87771654D02*
X81660186Y-87796537D01*
X84129988Y-90420418D02*
X84130000Y-90420418D01*
X84130000Y-91930000D02*
X84900000Y-92700000D01*
X84130000Y-90420418D02*
X84130000Y-91930000D01*
X82234080Y-91026104D02*
X82249030Y-90960611D01*
X72845055Y-81415535D02*
X72820171Y-81306512D01*
X71679103Y-81574347D02*
X71570082Y-81599230D01*
X82278177Y-91219304D02*
X82249029Y-91158777D01*
X82493355Y-90344411D02*
X82451471Y-90291889D01*
X71484127Y-80131282D02*
X71457600Y-80098017D01*
X82320062Y-91271826D02*
X82278177Y-91219304D01*
X82928258Y-91098532D02*
X82875736Y-91140419D01*
X82988785Y-91069386D02*
X82928258Y-91098532D01*
X82565785Y-91357808D02*
X82498605Y-91357807D01*
X73231552Y-80243948D02*
X73190071Y-80234480D01*
X83186951Y-91069385D02*
X83121458Y-91054437D01*
X83300000Y-91140418D02*
X83247478Y-91098533D01*
X71512055Y-80253641D02*
X71512055Y-80211094D01*
X82744326Y-91271826D02*
X82691805Y-91313712D01*
X71502587Y-80169615D02*
X71484127Y-80131282D01*
X83054278Y-91054436D02*
X82988785Y-91069386D01*
X83300000Y-92700000D02*
X83300000Y-91140418D01*
X82433112Y-91342859D02*
X82372585Y-91313711D01*
X73348135Y-80486038D02*
X73357603Y-80444558D01*
X82249030Y-90960611D02*
X82278176Y-90900084D01*
X82875736Y-91140419D02*
X82744326Y-91271826D01*
X71248485Y-81525828D02*
X71161057Y-81456106D01*
X71117747Y-80706570D02*
X71457600Y-80366718D01*
X72963296Y-81603714D02*
X72893573Y-81516284D01*
X82320063Y-90847562D02*
X82451470Y-90716152D01*
X82234081Y-91093284D02*
X82234080Y-91026104D01*
X82372585Y-91313711D02*
X82320062Y-91271826D01*
X82522503Y-90404938D02*
X82493355Y-90344411D01*
X73329676Y-80524372D02*
X73348135Y-80486038D01*
X82249029Y-91158777D02*
X82234081Y-91093284D01*
X73303148Y-80288935D02*
X73269885Y-80262409D01*
X71512055Y-80211094D02*
X71502587Y-80169615D01*
X71484127Y-80333454D02*
X71502587Y-80295121D01*
X82498605Y-91357807D02*
X82433112Y-91342859D01*
X83247478Y-91098533D02*
X83186951Y-91069385D01*
X73067713Y-80262409D02*
X73034448Y-80288935D01*
X71080000Y-76980000D02*
X70600000Y-76500000D01*
X73106046Y-80243948D02*
X73067713Y-80262409D01*
X82691805Y-91313712D02*
X82631278Y-91342858D01*
X82631278Y-91342858D02*
X82565785Y-91357808D01*
X83121458Y-91054437D02*
X83054278Y-91054436D01*
X82278176Y-90900084D02*
X82320063Y-90847562D01*
X82451470Y-90716152D02*
X82493356Y-90663631D01*
X82493356Y-90663631D02*
X82522502Y-90603104D01*
X82522502Y-90603104D02*
X82537452Y-90537611D01*
X82537452Y-90537611D02*
X82537451Y-90470431D01*
X82537451Y-90470431D02*
X82522503Y-90404938D01*
X82451471Y-90291889D02*
X75319182Y-83159600D01*
X72893573Y-81516284D02*
X72845055Y-81415535D01*
X72820171Y-81306512D02*
X72820172Y-81194688D01*
X71048025Y-80793998D02*
X71117747Y-80706570D01*
X72820172Y-81194688D02*
X72845055Y-81085667D01*
X72845055Y-81085667D02*
X72893574Y-80984916D01*
X72893574Y-80984916D02*
X72963296Y-80897488D01*
X73303148Y-80557635D02*
X73329676Y-80524372D01*
X70974623Y-81003770D02*
X70999506Y-80894749D01*
X71457600Y-80366718D02*
X71484127Y-80333454D01*
X72963296Y-80897488D02*
X73303148Y-80557635D01*
X73357603Y-80444558D02*
X73357603Y-80402012D01*
X73357603Y-80402012D02*
X73348135Y-80360532D01*
X73348135Y-80360532D02*
X73329676Y-80322200D01*
X73329676Y-80322200D02*
X73303148Y-80288935D01*
X73190071Y-80234480D02*
X73147525Y-80234480D01*
X73269885Y-80262409D02*
X73231552Y-80243948D01*
X73147525Y-80234480D02*
X73106046Y-80243948D01*
X71080000Y-79720418D02*
X71080000Y-76980000D01*
X73034448Y-80288935D02*
X72461692Y-80861692D01*
X72461692Y-80861692D02*
X72461694Y-80861694D01*
X71048025Y-81325367D02*
X70999506Y-81224617D01*
X72461694Y-80861694D02*
X71867282Y-81456106D01*
X71867282Y-81456106D02*
X71779854Y-81525828D01*
X71779854Y-81525828D02*
X71679103Y-81574347D01*
X71570082Y-81599230D02*
X71458257Y-81599230D01*
X71458257Y-81599230D02*
X71349236Y-81574347D01*
X71349236Y-81574347D02*
X71248485Y-81525828D01*
X71161057Y-81456106D02*
X71117747Y-81412796D01*
X71117747Y-81412796D02*
X71048025Y-81325367D01*
X70999506Y-81224617D02*
X70974623Y-81115595D01*
X70974623Y-81115595D02*
X70974623Y-81003770D01*
X70999506Y-80894749D02*
X71048025Y-80793998D01*
X71502587Y-80295121D02*
X71512055Y-80253641D01*
X71457600Y-80098017D02*
X71080000Y-79720418D01*
X75299600Y-83159600D02*
X75290010Y-83150010D01*
X75319182Y-83159600D02*
X75299600Y-83159600D01*
X74509592Y-83150010D02*
X72963296Y-81603714D01*
X75290010Y-83150010D02*
X74509592Y-83150010D01*
X72170418Y-84129999D02*
X67570000Y-79529582D01*
X72355654Y-83982278D02*
X72341602Y-84022437D01*
X72360418Y-83939999D02*
X72355654Y-83982278D01*
X72372938Y-83348253D02*
X72360418Y-83459375D01*
X72469366Y-83148019D02*
X72409871Y-83242704D01*
X72548438Y-83068947D02*
X72469366Y-83148019D01*
X72409871Y-83242704D02*
X72372938Y-83348253D01*
X72921045Y-82959998D02*
X72859794Y-82959998D01*
X73032167Y-82972519D02*
X72921045Y-82959998D01*
X73137716Y-83009452D02*
X73032167Y-82972519D01*
X73311473Y-83148019D02*
X73232401Y-83068947D01*
X72360418Y-83459375D02*
X72360418Y-83939999D01*
X73370968Y-83242704D02*
X73311473Y-83148019D01*
X73407901Y-83348253D02*
X73370968Y-83242704D01*
X73439237Y-84022437D02*
X73425185Y-83982278D01*
X73527984Y-84111184D02*
X73491958Y-84088547D01*
X72288881Y-84088547D02*
X72252855Y-84111184D01*
X73568143Y-84125236D02*
X73527984Y-84111184D01*
X73610422Y-84129999D02*
X73568143Y-84125236D01*
X81408114Y-90627840D02*
X81450000Y-90575317D01*
X72252855Y-84111184D02*
X72212696Y-84125236D01*
X73420422Y-83459375D02*
X73407901Y-83348253D01*
X81378967Y-90688366D02*
X81408114Y-90627840D01*
X81469908Y-90555408D02*
X81511793Y-90502885D01*
X81364018Y-90753860D02*
X81378967Y-90688366D01*
X81378967Y-90886533D02*
X81364018Y-90821039D01*
X73461874Y-84058463D02*
X73439237Y-84022437D01*
X81511793Y-90502885D02*
X81540941Y-90442360D01*
X73420422Y-83939999D02*
X73420422Y-83459375D01*
X82500000Y-92700000D02*
X82180833Y-92700000D01*
X72318965Y-84058463D02*
X72288881Y-84088547D01*
X81450000Y-90575317D02*
X81469908Y-90555408D01*
X82070000Y-92589167D02*
X82070000Y-91619582D01*
X80714518Y-90222085D02*
X80653992Y-90192937D01*
X82070000Y-91619582D02*
X81450000Y-90999582D01*
X73425185Y-83982278D02*
X73420422Y-83939999D01*
X81540941Y-90442360D02*
X81555890Y-90376865D01*
X81158692Y-90060111D02*
X81098166Y-90089258D01*
X80653992Y-90192937D02*
X80601471Y-90151053D01*
X81450000Y-90999582D02*
X81408114Y-90947059D01*
X67570000Y-76980000D02*
X68050000Y-76500000D01*
X81417385Y-90089258D02*
X81356859Y-90060111D01*
X81025734Y-90151052D02*
X80973211Y-90192937D01*
X73232401Y-83068947D02*
X73137716Y-83009452D01*
X81364018Y-90821039D02*
X81364018Y-90753860D01*
X81555890Y-90376865D02*
X81555890Y-90309687D01*
X81408114Y-90947059D02*
X81378967Y-90886533D01*
X81540941Y-90244192D02*
X81511793Y-90183666D01*
X81045643Y-90131144D02*
X81025734Y-90151052D01*
X82180833Y-92700000D02*
X82070000Y-92589167D01*
X73491958Y-84088547D02*
X73461874Y-84058463D01*
X81555890Y-90309687D02*
X81540941Y-90244192D01*
X72748672Y-82972519D02*
X72643123Y-83009452D01*
X80780013Y-90237034D02*
X80714518Y-90222085D01*
X81511793Y-90183666D02*
X81469908Y-90131144D01*
X67570000Y-79529582D02*
X67570000Y-76980000D01*
X81469908Y-90131144D02*
X81417385Y-90089258D01*
X72212696Y-84125236D02*
X72170418Y-84129999D01*
X80912686Y-90222085D02*
X80847191Y-90237034D01*
X72341602Y-84022437D02*
X72318965Y-84058463D01*
X72859794Y-82959998D02*
X72748672Y-82972519D01*
X81291365Y-90045162D02*
X81224186Y-90045162D01*
X81356859Y-90060111D02*
X81291365Y-90045162D01*
X72643123Y-83009452D02*
X72548438Y-83068947D01*
X81224186Y-90045162D02*
X81158692Y-90060111D01*
X74580417Y-84129999D02*
X73610422Y-84129999D01*
X81098166Y-90089258D02*
X81045643Y-90131144D01*
X80973211Y-90192937D02*
X80912686Y-90222085D01*
X80847191Y-90237034D02*
X80780013Y-90237034D01*
X80601471Y-90151053D02*
X74580417Y-84129999D01*
X81730000Y-92730000D02*
X82500000Y-93500000D01*
X73363125Y-84420548D02*
X73468674Y-84457481D01*
X73268440Y-84361053D02*
X73363125Y-84420548D01*
X73189368Y-84281981D02*
X73268440Y-84361053D01*
X73129873Y-84187296D02*
X73189368Y-84281981D01*
X73080420Y-83490000D02*
X73080420Y-83970625D01*
X73075656Y-83447722D02*
X73080420Y-83490000D01*
X73061604Y-83407563D02*
X73075656Y-83447722D01*
X73038967Y-83371537D02*
X73061604Y-83407563D01*
X72848141Y-83304764D02*
X72890420Y-83300000D01*
X72807982Y-83318816D02*
X72848141Y-83304764D01*
X72771956Y-83341453D02*
X72807982Y-83318816D01*
X72741872Y-83371537D02*
X72771956Y-83341453D01*
X72700420Y-83490000D02*
X72705183Y-83447722D01*
X72700420Y-83970625D02*
X72700420Y-83490000D01*
X72687899Y-84081747D02*
X72700420Y-83970625D01*
X72650966Y-84187296D02*
X72687899Y-84081747D01*
X72932698Y-83304764D02*
X72972857Y-83318816D01*
X73092940Y-84081747D02*
X73129873Y-84187296D01*
X72417714Y-84420548D02*
X72512399Y-84361053D01*
X73008883Y-83341453D02*
X73038967Y-83371537D01*
X72705183Y-83447722D02*
X72719235Y-83407563D01*
X73080420Y-83970625D02*
X73092940Y-84081747D01*
X72312165Y-84457481D02*
X72417714Y-84420548D01*
X67230000Y-76930000D02*
X67230000Y-79670418D01*
X66785000Y-76485000D02*
X67230000Y-76930000D01*
X72719235Y-83407563D02*
X72741872Y-83371537D01*
X73468674Y-84457481D02*
X73579796Y-84470001D01*
X72201043Y-84470001D02*
X72312165Y-84457481D01*
X72512399Y-84361053D02*
X72591471Y-84281981D01*
X72890420Y-83300000D02*
X72932698Y-83304764D01*
X72972857Y-83318816D02*
X73008883Y-83341453D01*
X67230000Y-79670418D02*
X72029582Y-84470000D01*
X72029582Y-84470000D02*
X72201043Y-84470001D01*
X72591471Y-84281981D02*
X72650966Y-84187296D01*
X73579796Y-84470001D02*
X74439583Y-84470001D01*
X74439583Y-84470001D02*
X81730000Y-91760418D01*
X81730000Y-91760418D02*
X81730000Y-92730000D01*
X88534764Y-88867721D02*
X88530000Y-88910000D01*
X88530000Y-88910000D02*
X88530000Y-92480418D01*
X89277348Y-88707479D02*
X89166227Y-88720000D01*
X87100000Y-92900000D02*
X86500000Y-93500000D01*
X88571453Y-88791536D02*
X88548816Y-88827562D01*
X88677722Y-88724763D02*
X88637563Y-88738815D01*
X89556654Y-88531980D02*
X89477582Y-88611052D01*
X88110418Y-92900000D02*
X87100000Y-92900000D01*
X88601537Y-88761452D02*
X88571453Y-88791536D01*
X88720000Y-88720000D02*
X88677722Y-88724763D01*
X89616148Y-88437295D02*
X89556654Y-88531980D01*
X88530000Y-92480418D02*
X88110418Y-92900000D01*
X88637563Y-88738815D02*
X88601537Y-88761452D01*
X89166227Y-88720000D02*
X88720000Y-88720000D01*
X89653081Y-88331746D02*
X89616148Y-88437295D01*
X88548816Y-88827562D02*
X88534764Y-88867721D01*
X89477582Y-88611052D02*
X89382897Y-88670546D01*
X89665601Y-88220625D02*
X89653081Y-88331746D01*
X89665601Y-88159374D02*
X89665601Y-88220625D01*
X89653081Y-88048253D02*
X89665601Y-88159374D01*
X89616148Y-87942704D02*
X89653081Y-88048253D01*
X88141746Y-87267479D02*
X88030625Y-87280000D01*
X88421052Y-87091980D02*
X88341980Y-87171052D01*
X88480546Y-86997295D02*
X88421052Y-87091980D01*
X88530000Y-86780625D02*
X88517479Y-86891746D01*
X87584399Y-87660000D02*
X89166227Y-87660000D01*
X87465935Y-87618547D02*
X87501961Y-87641184D01*
X89556654Y-87848019D02*
X89616148Y-87942704D01*
X83470000Y-80129582D02*
X83470000Y-82746982D01*
X88247295Y-87230546D02*
X88141746Y-87267479D01*
X83295000Y-76495000D02*
X82820000Y-76970000D01*
X88530000Y-84758982D02*
X88530000Y-86780625D01*
X82820000Y-79479582D02*
X83470000Y-80129582D01*
X83470000Y-82746982D02*
X83941218Y-83218200D01*
X88030625Y-87280000D02*
X87584399Y-87280000D01*
X88517479Y-86891746D02*
X88480546Y-86997295D01*
X89166227Y-87660000D02*
X89277348Y-87672520D01*
X88341980Y-87171052D02*
X88247295Y-87230546D01*
X83941218Y-83218200D02*
X86989218Y-83218200D01*
X87501961Y-87298815D02*
X87465935Y-87321452D01*
X87465935Y-87321452D02*
X87435851Y-87351536D01*
X87435851Y-87351536D02*
X87413214Y-87387562D01*
X87542120Y-87284763D02*
X87501961Y-87298815D01*
X87542120Y-87655236D02*
X87584399Y-87660000D01*
X82820000Y-76970000D02*
X82820000Y-79479582D01*
X87413214Y-87552437D02*
X87435851Y-87588463D01*
X89277348Y-87672520D02*
X89382897Y-87709453D01*
X87413214Y-87387562D02*
X87399162Y-87427721D01*
X87399162Y-87427721D02*
X87394399Y-87470000D01*
X87394399Y-87470000D02*
X87399162Y-87512278D01*
X87399162Y-87512278D02*
X87413214Y-87552437D01*
X87435851Y-87588463D02*
X87465935Y-87618547D01*
X87584399Y-87280000D02*
X87542120Y-87284763D01*
X87501961Y-87641184D02*
X87542120Y-87655236D01*
X89382897Y-88670546D02*
X89277348Y-88707479D01*
X89382897Y-87709453D02*
X89477582Y-87768947D01*
X86989218Y-83218200D02*
X88530000Y-84758982D01*
X89477582Y-87768947D02*
X89556654Y-87848019D01*
D29*
X84100000Y-94315000D02*
X84085000Y-94300000D01*
X84100000Y-94215000D02*
X84185000Y-94300000D01*
X84100000Y-93500000D02*
X84100000Y-94215000D01*
X87050000Y-89200000D02*
X87650000Y-88600000D01*
X87050000Y-90000000D02*
X87050000Y-89200000D01*
D31*
X71420000Y-79579582D02*
X71420000Y-76930000D01*
X71719673Y-79879255D02*
X71420000Y-79579582D01*
X71862797Y-80288280D02*
X71862797Y-80176455D01*
X71837913Y-80397301D02*
X71862797Y-80288280D01*
X71789394Y-80498052D02*
X71837913Y-80397301D01*
X71719673Y-80585480D02*
X71789394Y-80498052D01*
X71379819Y-80925333D02*
X71719673Y-80585480D01*
X71353292Y-80958597D02*
X71379819Y-80925333D01*
X71325364Y-81038410D02*
X71334832Y-80996930D01*
X71325364Y-81080956D02*
X71325364Y-81038410D01*
X71353292Y-81160769D02*
X71334832Y-81122436D01*
X71451416Y-81239020D02*
X71413083Y-81220560D01*
X73170914Y-81271874D02*
X73170914Y-81229328D01*
X73003866Y-79908623D02*
X72903115Y-79957141D01*
X73225369Y-81116251D02*
X73565222Y-80776398D01*
X73180382Y-81313354D02*
X73170914Y-81271874D01*
X71862797Y-80176455D02*
X71837913Y-80067434D01*
X73224711Y-79883738D02*
X73112887Y-79883739D01*
X73198841Y-81351686D02*
X73180382Y-81313354D01*
X73333732Y-79908621D02*
X73224711Y-79883738D01*
X73225369Y-81384951D02*
X73198841Y-81351686D01*
X83640000Y-92307398D02*
X83640000Y-90999572D01*
X73565222Y-80776398D02*
X73634944Y-80688970D01*
X73198841Y-81149514D02*
X73225369Y-81116251D01*
X71379819Y-81194033D02*
X71353292Y-81160769D01*
X73634944Y-80688970D02*
X73683463Y-80588219D01*
X73634943Y-80157600D02*
X73565221Y-80070172D01*
X71789394Y-79966683D02*
X71719673Y-79879255D01*
X74650418Y-82810000D02*
X73225369Y-81384951D01*
X71420000Y-76930000D02*
X71850000Y-76500000D01*
X83795001Y-93004999D02*
X83795001Y-92462399D01*
X73180382Y-81187848D02*
X73198841Y-81149514D01*
X71334832Y-81122436D02*
X71325364Y-81080956D01*
X72903115Y-79957141D02*
X72815687Y-80026864D01*
X83300000Y-93500000D02*
X83795001Y-93004999D01*
X83795001Y-92462399D02*
X83640000Y-92307398D01*
X83640000Y-90999572D02*
X75450428Y-82810000D01*
X71837913Y-80067434D02*
X71789394Y-79966683D01*
X71413083Y-81220560D02*
X71379819Y-81194033D01*
X75450428Y-82810000D02*
X74650418Y-82810000D01*
X73683463Y-80588219D02*
X73708346Y-80479198D01*
X73683462Y-80258351D02*
X73634943Y-80157600D01*
X73708346Y-80479198D02*
X73708345Y-80367372D01*
X73112887Y-79883739D02*
X73003866Y-79908623D01*
X73708345Y-80367372D02*
X73683462Y-80258351D01*
X71576922Y-81239020D02*
X71535442Y-81248488D01*
X73565221Y-80070172D02*
X73521911Y-80026862D01*
X71334832Y-80996930D02*
X71353292Y-80958597D01*
X73170914Y-81229328D02*
X73180382Y-81187848D01*
X73521911Y-80026862D02*
X73434483Y-79957140D01*
X73434483Y-79957140D02*
X73333732Y-79908621D01*
X72815687Y-80026864D02*
X71648519Y-81194033D01*
X71648519Y-81194033D02*
X71615255Y-81220560D01*
X71615255Y-81220560D02*
X71576922Y-81239020D01*
X71535442Y-81248488D02*
X71492896Y-81248488D01*
X71492896Y-81248488D02*
X71451416Y-81239020D01*
D28*
X97850000Y-85900000D02*
X97850000Y-85800000D01*
X95050000Y-86400000D02*
X97350000Y-86400000D01*
X90900000Y-96050000D02*
X90900000Y-90550000D01*
X97350000Y-86400000D02*
X97850000Y-85900000D01*
X90900000Y-90550000D02*
X95050000Y-86400000D01*
X89650000Y-97300000D02*
X90900000Y-96050000D01*
X87100000Y-97300000D02*
X89650000Y-97300000D01*
X86500000Y-96700000D02*
X87100000Y-97300000D01*
X97350000Y-92000000D02*
X97850000Y-91500000D01*
X94150000Y-92000000D02*
X97350000Y-92000000D01*
X92650000Y-93500000D02*
X94150000Y-92000000D01*
X92650000Y-94300000D02*
X92650000Y-93500000D01*
X92350000Y-94600000D02*
X92650000Y-94300000D01*
X97850000Y-91400000D02*
X97850000Y-91500000D01*
X93450000Y-95100000D02*
X93750000Y-94800000D01*
X93750000Y-94800000D02*
X97350000Y-94800000D01*
X97850000Y-94300000D02*
X97850000Y-94200000D01*
X97350000Y-94800000D02*
X97850000Y-94300000D01*
X100244581Y-86644581D02*
X100208259Y-86644581D01*
X100300000Y-86700000D02*
X100244581Y-86644581D01*
X86500000Y-97500000D02*
X86749999Y-97749999D01*
X91200000Y-90800000D02*
X91200000Y-90700000D01*
X95200000Y-86700000D02*
X100152840Y-86700000D01*
X86749999Y-97749999D02*
X89650001Y-97749999D01*
X100152840Y-86700000D02*
X100208259Y-86644581D01*
X89650001Y-97749999D02*
X91199911Y-96200089D01*
X91199911Y-96200089D02*
X91199911Y-90800089D01*
X91199911Y-90800089D02*
X91200000Y-90800000D01*
X91200000Y-90700000D02*
X95200000Y-86700000D01*
X92100000Y-93849928D02*
X92100000Y-91850000D01*
X101850603Y-88699397D02*
X101850603Y-88620764D01*
X92100000Y-91850000D02*
X94450000Y-89500000D01*
X101050000Y-89500000D02*
X101850603Y-88699397D01*
X94450000Y-89500000D02*
X101050000Y-89500000D01*
X92949911Y-94850089D02*
X92450000Y-95350000D01*
X94300000Y-92300000D02*
X92949911Y-93650089D01*
X92949911Y-93650089D02*
X92949911Y-94850089D01*
X101050000Y-92300000D02*
X94300000Y-92300000D01*
X92450000Y-95350000D02*
X92045340Y-95350000D01*
X101850000Y-91500000D02*
X101050000Y-92300000D01*
X101850000Y-91400000D02*
X101850000Y-91500000D01*
X93150000Y-95800000D02*
X93500000Y-95800000D01*
X93500000Y-95800000D02*
X94200000Y-95100000D01*
X94200000Y-95100000D02*
X97700000Y-95100000D01*
X97700000Y-95100000D02*
X98000000Y-94800000D01*
X98000000Y-94800000D02*
X101350000Y-94800000D01*
X101850000Y-94300000D02*
X101850000Y-94200000D01*
X101350000Y-94800000D02*
X101850000Y-94300000D01*
X90100000Y-101800000D02*
X85350186Y-101800000D01*
X94250000Y-97650000D02*
X90100000Y-101800000D01*
X97250000Y-97650000D02*
X94250000Y-97650000D01*
X97850000Y-97100000D02*
X97800000Y-97100000D01*
X85350186Y-101800000D02*
X84799998Y-101249812D01*
X97800000Y-97100000D02*
X97250000Y-97650000D01*
X81924264Y-104000000D02*
X81949165Y-103975099D01*
X97850000Y-102700000D02*
X97850000Y-102600000D01*
X97350000Y-103200000D02*
X97850000Y-102700000D01*
X92200000Y-103200000D02*
X97350000Y-103200000D01*
X91400000Y-104000000D02*
X92200000Y-103200000D01*
X81800000Y-104000000D02*
X91400000Y-104000000D01*
X97850000Y-105500000D02*
X97850000Y-105400000D01*
X97350000Y-106000000D02*
X97850000Y-105500000D01*
X92100000Y-106000000D02*
X97350000Y-106000000D01*
X91300000Y-105200000D02*
X92100000Y-106000000D01*
X80600000Y-105200000D02*
X91300000Y-105200000D01*
X90150000Y-102200000D02*
X83600000Y-102200000D01*
X101850000Y-97100000D02*
X101000000Y-97950000D01*
X101000000Y-97950000D02*
X94400000Y-97950000D01*
X94400000Y-97950000D02*
X90150000Y-102200000D01*
X101850000Y-99900000D02*
X101850000Y-99800000D01*
X101050000Y-100700000D02*
X101850000Y-99900000D01*
X93200000Y-100700000D02*
X101050000Y-100700000D01*
X90500000Y-103400000D02*
X93200000Y-100700000D01*
X82400000Y-103400000D02*
X90500000Y-103400000D01*
X101050000Y-103500000D02*
X101850000Y-102700000D01*
X101850000Y-102700000D02*
X101850000Y-102600000D01*
X92400000Y-103500000D02*
X101050000Y-103500000D01*
X91300000Y-104600000D02*
X92400000Y-103500000D01*
X81200000Y-104600000D02*
X91300000Y-104600000D01*
X80149722Y-105800000D02*
X80000000Y-105650278D01*
X91400000Y-105800000D02*
X80149722Y-105800000D01*
X91900000Y-106300000D02*
X91400000Y-105800000D01*
X99950000Y-106300000D02*
X91900000Y-106300000D01*
X100100000Y-106150000D02*
X99950000Y-106300000D01*
X97850000Y-88700000D02*
X97850000Y-88600000D01*
X97350000Y-89200000D02*
X97850000Y-88700000D01*
X91500000Y-92000000D02*
X94300000Y-89200000D01*
X91500000Y-96350000D02*
X91500000Y-92000000D01*
X89654990Y-98195010D02*
X91500000Y-96350000D01*
X94300000Y-89200000D02*
X97350000Y-89200000D01*
X86395010Y-98195010D02*
X89654990Y-98195010D01*
X85700000Y-97500000D02*
X86395010Y-98195010D01*
X85700000Y-96700000D02*
X85700000Y-97500000D01*
X97850000Y-99900000D02*
X97850000Y-99800000D01*
X97350000Y-100400000D02*
X97850000Y-99900000D01*
X93050000Y-100400000D02*
X97350000Y-100400000D01*
X90650000Y-102800000D02*
X93050000Y-100400000D01*
X83000000Y-102800000D02*
X90650000Y-102800000D01*
X54700000Y-94250000D02*
X54400000Y-94550000D01*
X55500000Y-94250000D02*
X54700000Y-94250000D01*
X122800000Y-106385000D02*
X122800000Y-107100000D01*
X122800000Y-107785000D02*
X122815000Y-107800000D01*
X122800000Y-107100000D02*
X122800000Y-107785000D01*
X123800000Y-106385000D02*
X123800000Y-107100000D01*
X123800000Y-107785000D02*
X123785000Y-107800000D01*
X123800000Y-107100000D02*
X123800000Y-107785000D01*
X123800000Y-83215000D02*
X123785000Y-83200000D01*
X123800000Y-83900000D02*
X123800000Y-83215000D01*
X123800000Y-83900000D02*
X123800000Y-84615000D01*
X122800000Y-83900000D02*
X122800000Y-84615000D01*
X122800000Y-83215000D02*
X122815000Y-83200000D01*
X122800000Y-83900000D02*
X122800000Y-83215000D01*
X127600000Y-99800000D02*
X126800000Y-100600000D01*
X126800000Y-100600000D02*
X123400000Y-100600000D01*
X120900000Y-103100000D02*
X120400000Y-103100000D01*
X123400000Y-100600000D02*
X120900000Y-103100000D01*
X119000000Y-91200000D02*
X119800000Y-90400000D01*
X119800000Y-90400000D02*
X123200000Y-90400000D01*
X125700000Y-87900000D02*
X126200000Y-87900000D01*
X123200000Y-90400000D02*
X125700000Y-87900000D01*
X122500000Y-105115000D02*
X122500000Y-102700000D01*
X122800000Y-105415000D02*
X122500000Y-105115000D01*
X122800000Y-102400000D02*
X123837500Y-102400000D01*
X123837500Y-102400000D02*
X124050000Y-102612500D01*
X122500000Y-102700000D02*
X122800000Y-102400000D01*
X123800000Y-85585000D02*
X124100000Y-85885000D01*
X124100000Y-85885000D02*
X124100000Y-88300000D01*
X124100000Y-88300000D02*
X123800000Y-88600000D01*
X122762500Y-88600000D02*
X122550000Y-88387500D01*
X123800000Y-88600000D02*
X122762500Y-88600000D01*
X127185000Y-106200000D02*
X127000000Y-106385000D01*
X127800000Y-106200000D02*
X127185000Y-106200000D01*
X120615000Y-84800000D02*
X120800000Y-84615000D01*
X118800000Y-84800000D02*
X120615000Y-84800000D01*
X60800000Y-112800000D02*
X61300000Y-112800000D01*
X73150000Y-117380000D02*
X72780000Y-117750000D01*
X63150000Y-116750000D02*
X63150000Y-116900000D01*
X72780000Y-117750000D02*
X64500000Y-117750000D01*
X64250000Y-116750000D02*
X63950000Y-116450000D01*
X64500000Y-117750000D02*
X64250000Y-117500000D01*
X61100000Y-116950000D02*
X60300000Y-116150000D01*
X63450000Y-116450000D02*
X63150000Y-116750000D01*
X63150000Y-116900000D02*
X63100000Y-116950000D01*
X64250000Y-117500000D02*
X64250000Y-116750000D01*
X63950000Y-116450000D02*
X63450000Y-116450000D01*
X63100000Y-116950000D02*
X61100000Y-116950000D01*
X60300000Y-116150000D02*
X60300000Y-113300000D01*
X60300000Y-113300000D02*
X60800000Y-112800000D01*
X122000000Y-99700000D02*
X122000000Y-99800000D01*
X123300000Y-98400000D02*
X122000000Y-99700000D01*
X124600000Y-91300000D02*
X124600000Y-91200000D01*
X123300000Y-92600000D02*
X124600000Y-91300000D01*
D33*
X72273000Y-108788649D02*
X72168275Y-108745270D01*
X72056820Y-108723100D01*
X71943180Y-108723100D01*
X71831725Y-108745270D01*
X71726736Y-108788758D01*
X71632248Y-108851893D01*
X71551893Y-108932248D01*
X71488758Y-109026736D01*
X71445270Y-109131725D01*
X71423100Y-109243180D01*
X71423100Y-109356820D01*
X71445270Y-109468275D01*
X71488758Y-109573264D01*
X71503815Y-109595798D01*
X71466457Y-109626457D01*
X71413511Y-109690972D01*
X71374168Y-109764577D01*
X71349941Y-109844442D01*
X71341761Y-109927500D01*
X71341761Y-110272500D01*
X71349941Y-110355558D01*
X71374168Y-110435423D01*
X71413511Y-110509028D01*
X71466457Y-110573543D01*
X71530972Y-110626489D01*
X71604577Y-110665832D01*
X71684442Y-110690059D01*
X71767500Y-110698239D01*
X72062500Y-110698239D01*
X72145558Y-110690059D01*
X72225423Y-110665832D01*
X72273000Y-110640401D01*
X72273000Y-117398100D01*
X64645761Y-117398100D01*
X64601900Y-117354239D01*
X64601900Y-116767270D01*
X64603601Y-116749999D01*
X64601900Y-116732728D01*
X64601900Y-116732718D01*
X64596808Y-116681016D01*
X64576686Y-116614682D01*
X64544009Y-116553548D01*
X64511051Y-116513389D01*
X64511046Y-116513384D01*
X64500034Y-116499966D01*
X64486616Y-116488954D01*
X64391031Y-116393369D01*
X68966921Y-116393369D01*
X68966921Y-116507009D01*
X68989091Y-116618464D01*
X69032579Y-116723453D01*
X69095714Y-116817941D01*
X69176069Y-116898296D01*
X69270557Y-116961431D01*
X69375546Y-117004919D01*
X69487001Y-117027089D01*
X69600641Y-117027089D01*
X69712096Y-117004919D01*
X69817085Y-116961431D01*
X69911573Y-116898296D01*
X69991928Y-116817941D01*
X70055063Y-116723453D01*
X70098551Y-116618464D01*
X70120721Y-116507009D01*
X70120721Y-116393369D01*
X70098551Y-116281914D01*
X70067750Y-116207553D01*
X70104730Y-116118275D01*
X70126900Y-116006820D01*
X70126900Y-115893180D01*
X70104730Y-115781725D01*
X70061242Y-115676736D01*
X69998107Y-115582248D01*
X69917752Y-115501893D01*
X69823264Y-115438758D01*
X69718275Y-115395270D01*
X69606820Y-115373100D01*
X69493180Y-115373100D01*
X69381725Y-115395270D01*
X69276736Y-115438758D01*
X69182248Y-115501893D01*
X69101893Y-115582248D01*
X69038758Y-115676736D01*
X68995270Y-115781725D01*
X68973100Y-115893180D01*
X68973100Y-116006820D01*
X68995270Y-116118275D01*
X69026071Y-116192636D01*
X68989091Y-116281914D01*
X68966921Y-116393369D01*
X64391031Y-116393369D01*
X64211050Y-116213389D01*
X64200034Y-116199966D01*
X64146451Y-116155991D01*
X64085318Y-116123314D01*
X64018984Y-116103192D01*
X63967282Y-116098100D01*
X63967271Y-116098100D01*
X63950000Y-116096399D01*
X63932729Y-116098100D01*
X63467270Y-116098100D01*
X63449999Y-116096399D01*
X63432728Y-116098100D01*
X63432718Y-116098100D01*
X63381016Y-116103192D01*
X63331294Y-116118275D01*
X63314682Y-116123314D01*
X63253548Y-116155991D01*
X63213389Y-116188949D01*
X63213384Y-116188954D01*
X63199966Y-116199966D01*
X63188954Y-116213384D01*
X62913385Y-116488954D01*
X62899966Y-116499967D01*
X62888954Y-116513385D01*
X62888949Y-116513390D01*
X62855991Y-116553549D01*
X62839011Y-116585317D01*
X62832178Y-116598100D01*
X61245762Y-116598100D01*
X60651900Y-116004239D01*
X60651900Y-114228180D01*
X70023100Y-114228180D01*
X70023100Y-114341820D01*
X70045270Y-114453275D01*
X70088758Y-114558264D01*
X70151893Y-114652752D01*
X70232248Y-114733107D01*
X70326736Y-114796242D01*
X70431725Y-114839730D01*
X70543180Y-114861900D01*
X70656820Y-114861900D01*
X70768275Y-114839730D01*
X70873264Y-114796242D01*
X70967752Y-114733107D01*
X71048107Y-114652752D01*
X71111242Y-114558264D01*
X71154730Y-114453275D01*
X71176900Y-114341820D01*
X71176900Y-114228180D01*
X71154730Y-114116725D01*
X71111242Y-114011736D01*
X71048107Y-113917248D01*
X70967752Y-113836893D01*
X70910676Y-113798756D01*
X70975252Y-113755607D01*
X71055607Y-113675252D01*
X71118742Y-113580764D01*
X71162230Y-113475775D01*
X71184400Y-113364320D01*
X71184400Y-113250680D01*
X71162230Y-113139225D01*
X71118742Y-113034236D01*
X71055607Y-112939748D01*
X70975252Y-112859393D01*
X70880764Y-112796258D01*
X70775775Y-112752770D01*
X70664320Y-112730600D01*
X70550680Y-112730600D01*
X70439225Y-112752770D01*
X70334236Y-112796258D01*
X70239748Y-112859393D01*
X70159393Y-112939748D01*
X70096258Y-113034236D01*
X70052770Y-113139225D01*
X70030600Y-113250680D01*
X70030600Y-113364320D01*
X70052770Y-113475775D01*
X70096258Y-113580764D01*
X70159393Y-113675252D01*
X70239748Y-113755607D01*
X70296824Y-113793744D01*
X70232248Y-113836893D01*
X70151893Y-113917248D01*
X70088758Y-114011736D01*
X70045270Y-114116725D01*
X70023100Y-114228180D01*
X60651900Y-114228180D01*
X60651900Y-113445761D01*
X60890901Y-113206760D01*
X60932248Y-113248107D01*
X61026736Y-113311242D01*
X61131725Y-113354730D01*
X61243180Y-113376900D01*
X61356820Y-113376900D01*
X61468275Y-113354730D01*
X61573264Y-113311242D01*
X61667752Y-113248107D01*
X61748107Y-113167752D01*
X61811242Y-113073264D01*
X61854730Y-112968275D01*
X61876900Y-112856820D01*
X61876900Y-112743180D01*
X61854730Y-112631725D01*
X61811242Y-112526736D01*
X61748107Y-112432248D01*
X61667752Y-112351893D01*
X61573264Y-112288758D01*
X61468275Y-112245270D01*
X61356820Y-112223100D01*
X61243180Y-112223100D01*
X61131725Y-112245270D01*
X61026736Y-112288758D01*
X60932248Y-112351893D01*
X60851893Y-112432248D01*
X60841301Y-112448100D01*
X60817271Y-112448100D01*
X60800000Y-112446399D01*
X60782729Y-112448100D01*
X60782718Y-112448100D01*
X60731016Y-112453192D01*
X60664682Y-112473314D01*
X60603548Y-112505991D01*
X60563389Y-112538949D01*
X60563384Y-112538954D01*
X60549966Y-112549966D01*
X60538954Y-112563384D01*
X60527000Y-112575338D01*
X60527000Y-110893180D01*
X63123100Y-110893180D01*
X63123100Y-111006820D01*
X63145270Y-111118275D01*
X63188758Y-111223264D01*
X63189918Y-111225000D01*
X63188758Y-111226736D01*
X63145270Y-111331725D01*
X63123100Y-111443180D01*
X63123100Y-111556820D01*
X63145270Y-111668275D01*
X63188758Y-111773264D01*
X63189918Y-111775000D01*
X63188758Y-111776736D01*
X63145270Y-111881725D01*
X63123100Y-111993180D01*
X63123100Y-112106820D01*
X63145270Y-112218275D01*
X63188758Y-112323264D01*
X63189918Y-112325000D01*
X63188758Y-112326736D01*
X63145270Y-112431725D01*
X63123100Y-112543180D01*
X63123100Y-112656820D01*
X63145270Y-112768275D01*
X63188758Y-112873264D01*
X63251893Y-112967752D01*
X63332248Y-113048107D01*
X63426736Y-113111242D01*
X63531725Y-113154730D01*
X63643180Y-113176900D01*
X63756820Y-113176900D01*
X63868275Y-113154730D01*
X63973264Y-113111242D01*
X64067752Y-113048107D01*
X64148107Y-112967752D01*
X64211242Y-112873264D01*
X64254730Y-112768275D01*
X64276900Y-112656820D01*
X64276900Y-112543180D01*
X64254730Y-112431725D01*
X64211242Y-112326736D01*
X64210082Y-112325000D01*
X64211242Y-112323264D01*
X64254730Y-112218275D01*
X64276900Y-112106820D01*
X64276900Y-111993180D01*
X64254730Y-111881725D01*
X64211242Y-111776736D01*
X64210082Y-111775000D01*
X64211242Y-111773264D01*
X64254730Y-111668275D01*
X64276900Y-111556820D01*
X64276900Y-111443180D01*
X64254730Y-111331725D01*
X64211242Y-111226736D01*
X64210082Y-111225000D01*
X64211242Y-111223264D01*
X64254730Y-111118275D01*
X64276900Y-111006820D01*
X64276900Y-110893180D01*
X64268311Y-110850000D01*
X68894947Y-110850000D01*
X68898100Y-110882014D01*
X68898100Y-111517986D01*
X68894947Y-111550000D01*
X68898100Y-111582014D01*
X68898100Y-111582022D01*
X68907533Y-111677795D01*
X68908884Y-111682248D01*
X68944810Y-111800678D01*
X69005343Y-111913928D01*
X69086807Y-112013193D01*
X69164435Y-112076900D01*
X69186072Y-112094657D01*
X69299323Y-112155191D01*
X69422206Y-112192467D01*
X69550000Y-112205054D01*
X69677795Y-112192467D01*
X69800678Y-112155191D01*
X69913929Y-112094657D01*
X70013193Y-112013193D01*
X70033613Y-111988311D01*
X70170024Y-111851900D01*
X70227254Y-111851900D01*
X70282000Y-111888480D01*
X70423387Y-111947044D01*
X70573482Y-111976900D01*
X70726518Y-111976900D01*
X70876613Y-111947044D01*
X71018000Y-111888480D01*
X71145245Y-111803458D01*
X71253458Y-111695245D01*
X71338480Y-111568000D01*
X71397044Y-111426613D01*
X71426900Y-111276518D01*
X71426900Y-111123482D01*
X71397044Y-110973387D01*
X71338480Y-110832000D01*
X71253458Y-110704755D01*
X71145245Y-110596542D01*
X71018000Y-110511520D01*
X70876613Y-110452956D01*
X70726518Y-110423100D01*
X70573482Y-110423100D01*
X70423387Y-110452956D01*
X70282000Y-110511520D01*
X70227254Y-110548100D01*
X70170024Y-110548100D01*
X70033613Y-110411689D01*
X70013193Y-110386807D01*
X69913928Y-110305343D01*
X69800677Y-110244809D01*
X69677794Y-110207533D01*
X69550000Y-110194946D01*
X69422205Y-110207533D01*
X69299322Y-110244809D01*
X69186071Y-110305343D01*
X69086807Y-110386807D01*
X69005343Y-110486072D01*
X68944809Y-110599323D01*
X68907533Y-110722206D01*
X68898100Y-110817979D01*
X68898100Y-110817986D01*
X68894947Y-110850000D01*
X64268311Y-110850000D01*
X64254730Y-110781725D01*
X64211242Y-110676736D01*
X64148107Y-110582248D01*
X64067752Y-110501893D01*
X63973264Y-110438758D01*
X63868275Y-110395270D01*
X63756820Y-110373100D01*
X63643180Y-110373100D01*
X63531725Y-110395270D01*
X63426736Y-110438758D01*
X63332248Y-110501893D01*
X63251893Y-110582248D01*
X63188758Y-110676736D01*
X63145270Y-110781725D01*
X63123100Y-110893180D01*
X60527000Y-110893180D01*
X60527000Y-108470661D01*
X61670661Y-107327000D01*
X72273000Y-107327000D01*
X72273000Y-108788649D01*
G04 #@! TA.AperFunction,Conductor*
D34*
G36*
X72273000Y-108788649D02*
G01*
X72168275Y-108745270D01*
X72056820Y-108723100D01*
X71943180Y-108723100D01*
X71831725Y-108745270D01*
X71726736Y-108788758D01*
X71632248Y-108851893D01*
X71551893Y-108932248D01*
X71488758Y-109026736D01*
X71445270Y-109131725D01*
X71423100Y-109243180D01*
X71423100Y-109356820D01*
X71445270Y-109468275D01*
X71488758Y-109573264D01*
X71503815Y-109595798D01*
X71466457Y-109626457D01*
X71413511Y-109690972D01*
X71374168Y-109764577D01*
X71349941Y-109844442D01*
X71341761Y-109927500D01*
X71341761Y-110272500D01*
X71349941Y-110355558D01*
X71374168Y-110435423D01*
X71413511Y-110509028D01*
X71466457Y-110573543D01*
X71530972Y-110626489D01*
X71604577Y-110665832D01*
X71684442Y-110690059D01*
X71767500Y-110698239D01*
X72062500Y-110698239D01*
X72145558Y-110690059D01*
X72225423Y-110665832D01*
X72273000Y-110640401D01*
X72273000Y-117398100D01*
X64645761Y-117398100D01*
X64601900Y-117354239D01*
X64601900Y-116767270D01*
X64603601Y-116749999D01*
X64601900Y-116732728D01*
X64601900Y-116732718D01*
X64596808Y-116681016D01*
X64576686Y-116614682D01*
X64544009Y-116553548D01*
X64511051Y-116513389D01*
X64511046Y-116513384D01*
X64500034Y-116499966D01*
X64486616Y-116488954D01*
X64391031Y-116393369D01*
X68966921Y-116393369D01*
X68966921Y-116507009D01*
X68989091Y-116618464D01*
X69032579Y-116723453D01*
X69095714Y-116817941D01*
X69176069Y-116898296D01*
X69270557Y-116961431D01*
X69375546Y-117004919D01*
X69487001Y-117027089D01*
X69600641Y-117027089D01*
X69712096Y-117004919D01*
X69817085Y-116961431D01*
X69911573Y-116898296D01*
X69991928Y-116817941D01*
X70055063Y-116723453D01*
X70098551Y-116618464D01*
X70120721Y-116507009D01*
X70120721Y-116393369D01*
X70098551Y-116281914D01*
X70067750Y-116207553D01*
X70104730Y-116118275D01*
X70126900Y-116006820D01*
X70126900Y-115893180D01*
X70104730Y-115781725D01*
X70061242Y-115676736D01*
X69998107Y-115582248D01*
X69917752Y-115501893D01*
X69823264Y-115438758D01*
X69718275Y-115395270D01*
X69606820Y-115373100D01*
X69493180Y-115373100D01*
X69381725Y-115395270D01*
X69276736Y-115438758D01*
X69182248Y-115501893D01*
X69101893Y-115582248D01*
X69038758Y-115676736D01*
X68995270Y-115781725D01*
X68973100Y-115893180D01*
X68973100Y-116006820D01*
X68995270Y-116118275D01*
X69026071Y-116192636D01*
X68989091Y-116281914D01*
X68966921Y-116393369D01*
X64391031Y-116393369D01*
X64211050Y-116213389D01*
X64200034Y-116199966D01*
X64146451Y-116155991D01*
X64085318Y-116123314D01*
X64018984Y-116103192D01*
X63967282Y-116098100D01*
X63967271Y-116098100D01*
X63950000Y-116096399D01*
X63932729Y-116098100D01*
X63467270Y-116098100D01*
X63449999Y-116096399D01*
X63432728Y-116098100D01*
X63432718Y-116098100D01*
X63381016Y-116103192D01*
X63331294Y-116118275D01*
X63314682Y-116123314D01*
X63253548Y-116155991D01*
X63213389Y-116188949D01*
X63213384Y-116188954D01*
X63199966Y-116199966D01*
X63188954Y-116213384D01*
X62913385Y-116488954D01*
X62899966Y-116499967D01*
X62888954Y-116513385D01*
X62888949Y-116513390D01*
X62855991Y-116553549D01*
X62839011Y-116585317D01*
X62832178Y-116598100D01*
X61245762Y-116598100D01*
X60651900Y-116004239D01*
X60651900Y-114228180D01*
X70023100Y-114228180D01*
X70023100Y-114341820D01*
X70045270Y-114453275D01*
X70088758Y-114558264D01*
X70151893Y-114652752D01*
X70232248Y-114733107D01*
X70326736Y-114796242D01*
X70431725Y-114839730D01*
X70543180Y-114861900D01*
X70656820Y-114861900D01*
X70768275Y-114839730D01*
X70873264Y-114796242D01*
X70967752Y-114733107D01*
X71048107Y-114652752D01*
X71111242Y-114558264D01*
X71154730Y-114453275D01*
X71176900Y-114341820D01*
X71176900Y-114228180D01*
X71154730Y-114116725D01*
X71111242Y-114011736D01*
X71048107Y-113917248D01*
X70967752Y-113836893D01*
X70910676Y-113798756D01*
X70975252Y-113755607D01*
X71055607Y-113675252D01*
X71118742Y-113580764D01*
X71162230Y-113475775D01*
X71184400Y-113364320D01*
X71184400Y-113250680D01*
X71162230Y-113139225D01*
X71118742Y-113034236D01*
X71055607Y-112939748D01*
X70975252Y-112859393D01*
X70880764Y-112796258D01*
X70775775Y-112752770D01*
X70664320Y-112730600D01*
X70550680Y-112730600D01*
X70439225Y-112752770D01*
X70334236Y-112796258D01*
X70239748Y-112859393D01*
X70159393Y-112939748D01*
X70096258Y-113034236D01*
X70052770Y-113139225D01*
X70030600Y-113250680D01*
X70030600Y-113364320D01*
X70052770Y-113475775D01*
X70096258Y-113580764D01*
X70159393Y-113675252D01*
X70239748Y-113755607D01*
X70296824Y-113793744D01*
X70232248Y-113836893D01*
X70151893Y-113917248D01*
X70088758Y-114011736D01*
X70045270Y-114116725D01*
X70023100Y-114228180D01*
X60651900Y-114228180D01*
X60651900Y-113445761D01*
X60890901Y-113206760D01*
X60932248Y-113248107D01*
X61026736Y-113311242D01*
X61131725Y-113354730D01*
X61243180Y-113376900D01*
X61356820Y-113376900D01*
X61468275Y-113354730D01*
X61573264Y-113311242D01*
X61667752Y-113248107D01*
X61748107Y-113167752D01*
X61811242Y-113073264D01*
X61854730Y-112968275D01*
X61876900Y-112856820D01*
X61876900Y-112743180D01*
X61854730Y-112631725D01*
X61811242Y-112526736D01*
X61748107Y-112432248D01*
X61667752Y-112351893D01*
X61573264Y-112288758D01*
X61468275Y-112245270D01*
X61356820Y-112223100D01*
X61243180Y-112223100D01*
X61131725Y-112245270D01*
X61026736Y-112288758D01*
X60932248Y-112351893D01*
X60851893Y-112432248D01*
X60841301Y-112448100D01*
X60817271Y-112448100D01*
X60800000Y-112446399D01*
X60782729Y-112448100D01*
X60782718Y-112448100D01*
X60731016Y-112453192D01*
X60664682Y-112473314D01*
X60603548Y-112505991D01*
X60563389Y-112538949D01*
X60563384Y-112538954D01*
X60549966Y-112549966D01*
X60538954Y-112563384D01*
X60527000Y-112575338D01*
X60527000Y-110893180D01*
X63123100Y-110893180D01*
X63123100Y-111006820D01*
X63145270Y-111118275D01*
X63188758Y-111223264D01*
X63189918Y-111225000D01*
X63188758Y-111226736D01*
X63145270Y-111331725D01*
X63123100Y-111443180D01*
X63123100Y-111556820D01*
X63145270Y-111668275D01*
X63188758Y-111773264D01*
X63189918Y-111775000D01*
X63188758Y-111776736D01*
X63145270Y-111881725D01*
X63123100Y-111993180D01*
X63123100Y-112106820D01*
X63145270Y-112218275D01*
X63188758Y-112323264D01*
X63189918Y-112325000D01*
X63188758Y-112326736D01*
X63145270Y-112431725D01*
X63123100Y-112543180D01*
X63123100Y-112656820D01*
X63145270Y-112768275D01*
X63188758Y-112873264D01*
X63251893Y-112967752D01*
X63332248Y-113048107D01*
X63426736Y-113111242D01*
X63531725Y-113154730D01*
X63643180Y-113176900D01*
X63756820Y-113176900D01*
X63868275Y-113154730D01*
X63973264Y-113111242D01*
X64067752Y-113048107D01*
X64148107Y-112967752D01*
X64211242Y-112873264D01*
X64254730Y-112768275D01*
X64276900Y-112656820D01*
X64276900Y-112543180D01*
X64254730Y-112431725D01*
X64211242Y-112326736D01*
X64210082Y-112325000D01*
X64211242Y-112323264D01*
X64254730Y-112218275D01*
X64276900Y-112106820D01*
X64276900Y-111993180D01*
X64254730Y-111881725D01*
X64211242Y-111776736D01*
X64210082Y-111775000D01*
X64211242Y-111773264D01*
X64254730Y-111668275D01*
X64276900Y-111556820D01*
X64276900Y-111443180D01*
X64254730Y-111331725D01*
X64211242Y-111226736D01*
X64210082Y-111225000D01*
X64211242Y-111223264D01*
X64254730Y-111118275D01*
X64276900Y-111006820D01*
X64276900Y-110893180D01*
X64268311Y-110850000D01*
X68894947Y-110850000D01*
X68898100Y-110882014D01*
X68898100Y-111517986D01*
X68894947Y-111550000D01*
X68898100Y-111582014D01*
X68898100Y-111582022D01*
X68907533Y-111677795D01*
X68908884Y-111682248D01*
X68944810Y-111800678D01*
X69005343Y-111913928D01*
X69086807Y-112013193D01*
X69164435Y-112076900D01*
X69186072Y-112094657D01*
X69299323Y-112155191D01*
X69422206Y-112192467D01*
X69550000Y-112205054D01*
X69677795Y-112192467D01*
X69800678Y-112155191D01*
X69913929Y-112094657D01*
X70013193Y-112013193D01*
X70033613Y-111988311D01*
X70170024Y-111851900D01*
X70227254Y-111851900D01*
X70282000Y-111888480D01*
X70423387Y-111947044D01*
X70573482Y-111976900D01*
X70726518Y-111976900D01*
X70876613Y-111947044D01*
X71018000Y-111888480D01*
X71145245Y-111803458D01*
X71253458Y-111695245D01*
X71338480Y-111568000D01*
X71397044Y-111426613D01*
X71426900Y-111276518D01*
X71426900Y-111123482D01*
X71397044Y-110973387D01*
X71338480Y-110832000D01*
X71253458Y-110704755D01*
X71145245Y-110596542D01*
X71018000Y-110511520D01*
X70876613Y-110452956D01*
X70726518Y-110423100D01*
X70573482Y-110423100D01*
X70423387Y-110452956D01*
X70282000Y-110511520D01*
X70227254Y-110548100D01*
X70170024Y-110548100D01*
X70033613Y-110411689D01*
X70013193Y-110386807D01*
X69913928Y-110305343D01*
X69800677Y-110244809D01*
X69677794Y-110207533D01*
X69550000Y-110194946D01*
X69422205Y-110207533D01*
X69299322Y-110244809D01*
X69186071Y-110305343D01*
X69086807Y-110386807D01*
X69005343Y-110486072D01*
X68944809Y-110599323D01*
X68907533Y-110722206D01*
X68898100Y-110817979D01*
X68898100Y-110817986D01*
X68894947Y-110850000D01*
X64268311Y-110850000D01*
X64254730Y-110781725D01*
X64211242Y-110676736D01*
X64148107Y-110582248D01*
X64067752Y-110501893D01*
X63973264Y-110438758D01*
X63868275Y-110395270D01*
X63756820Y-110373100D01*
X63643180Y-110373100D01*
X63531725Y-110395270D01*
X63426736Y-110438758D01*
X63332248Y-110501893D01*
X63251893Y-110582248D01*
X63188758Y-110676736D01*
X63145270Y-110781725D01*
X63123100Y-110893180D01*
X60527000Y-110893180D01*
X60527000Y-108470661D01*
X61670661Y-107327000D01*
X72273000Y-107327000D01*
X72273000Y-108788649D01*
G37*
G04 #@! TD.AperFunction*
D35*
X72358967Y-118468444D02*
X72369149Y-118480851D01*
X72418622Y-118521452D01*
X72475065Y-118551621D01*
X72517729Y-118564563D01*
X72536307Y-118570199D01*
X72599999Y-118576472D01*
X72615960Y-118574900D01*
X76757185Y-118574900D01*
X76773146Y-118576472D01*
X76789107Y-118574900D01*
X76836838Y-118570199D01*
X76898081Y-118551621D01*
X76954524Y-118521452D01*
X77003997Y-118480851D01*
X77014179Y-118468444D01*
X77072248Y-118410375D01*
X77103307Y-118414464D01*
X77199567Y-118454336D01*
X77282232Y-118517768D01*
X77345664Y-118600433D01*
X77385536Y-118696693D01*
X77400000Y-118806559D01*
X77400000Y-119293441D01*
X77385536Y-119403307D01*
X77345664Y-119499567D01*
X77282232Y-119582232D01*
X77199567Y-119645664D01*
X77103307Y-119685536D01*
X76993441Y-119700000D01*
X72306559Y-119700000D01*
X72196693Y-119685536D01*
X72100433Y-119645664D01*
X72017768Y-119582232D01*
X71954336Y-119499567D01*
X71914464Y-119403307D01*
X71900000Y-119293441D01*
X71900000Y-118806559D01*
X71914464Y-118696693D01*
X71954336Y-118600433D01*
X72017768Y-118517768D01*
X72100433Y-118454336D01*
X72196693Y-118414464D01*
X72292389Y-118401866D01*
X72358967Y-118468444D01*
G04 #@! TA.AperFunction,Conductor*
D34*
G36*
X72358967Y-118468444D02*
G01*
X72369149Y-118480851D01*
X72418622Y-118521452D01*
X72475065Y-118551621D01*
X72517729Y-118564563D01*
X72536307Y-118570199D01*
X72599999Y-118576472D01*
X72615960Y-118574900D01*
X76757185Y-118574900D01*
X76773146Y-118576472D01*
X76789107Y-118574900D01*
X76836838Y-118570199D01*
X76898081Y-118551621D01*
X76954524Y-118521452D01*
X77003997Y-118480851D01*
X77014179Y-118468444D01*
X77072248Y-118410375D01*
X77103307Y-118414464D01*
X77199567Y-118454336D01*
X77282232Y-118517768D01*
X77345664Y-118600433D01*
X77385536Y-118696693D01*
X77400000Y-118806559D01*
X77400000Y-119293441D01*
X77385536Y-119403307D01*
X77345664Y-119499567D01*
X77282232Y-119582232D01*
X77199567Y-119645664D01*
X77103307Y-119685536D01*
X76993441Y-119700000D01*
X72306559Y-119700000D01*
X72196693Y-119685536D01*
X72100433Y-119645664D01*
X72017768Y-119582232D01*
X71954336Y-119499567D01*
X71914464Y-119403307D01*
X71900000Y-119293441D01*
X71900000Y-118806559D01*
X71914464Y-118696693D01*
X71954336Y-118600433D01*
X72017768Y-118517768D01*
X72100433Y-118454336D01*
X72196693Y-118414464D01*
X72292389Y-118401866D01*
X72358967Y-118468444D01*
G37*
G04 #@! TD.AperFunction*
D35*
X56403307Y-90814464D02*
X56499567Y-90854336D01*
X56582232Y-90917768D01*
X56645664Y-91000433D01*
X56685536Y-91096693D01*
X56700000Y-91206559D01*
X56700000Y-99793441D01*
X56685536Y-99903307D01*
X56645664Y-99999567D01*
X56582232Y-100082232D01*
X56499567Y-100145664D01*
X56403307Y-100185536D01*
X56293441Y-100200000D01*
X50506559Y-100200000D01*
X50396693Y-100185536D01*
X50300433Y-100145664D01*
X50250000Y-100106965D01*
X50250000Y-98333377D01*
X54675100Y-98333377D01*
X54675100Y-98446623D01*
X54697193Y-98557692D01*
X54740530Y-98662317D01*
X54803446Y-98756478D01*
X54883522Y-98836554D01*
X54977683Y-98899470D01*
X55082308Y-98942807D01*
X55193377Y-98964900D01*
X55306623Y-98964900D01*
X55417692Y-98942807D01*
X55522317Y-98899470D01*
X55616478Y-98836554D01*
X55696554Y-98756478D01*
X55759470Y-98662317D01*
X55802807Y-98557692D01*
X55824900Y-98446623D01*
X55824900Y-98333377D01*
X55802807Y-98222308D01*
X55759470Y-98117683D01*
X55696554Y-98023522D01*
X55616478Y-97943446D01*
X55522317Y-97880530D01*
X55417692Y-97837193D01*
X55306623Y-97815100D01*
X55193377Y-97815100D01*
X55082308Y-97837193D01*
X54977683Y-97880530D01*
X54883522Y-97943446D01*
X54803446Y-98023522D01*
X54740530Y-98117683D01*
X54697193Y-98222308D01*
X54675100Y-98333377D01*
X50250000Y-98333377D01*
X50250000Y-94495840D01*
X53850100Y-94495840D01*
X53850100Y-94604160D01*
X53871232Y-94710400D01*
X53912685Y-94810475D01*
X53972865Y-94900541D01*
X54049459Y-94977135D01*
X54139525Y-95037315D01*
X54239600Y-95078768D01*
X54345840Y-95099900D01*
X54454160Y-95099900D01*
X54560400Y-95078768D01*
X54660475Y-95037315D01*
X54750541Y-94977135D01*
X54827135Y-94900541D01*
X54887315Y-94810475D01*
X54920307Y-94730825D01*
X55021967Y-94832485D01*
X55092626Y-94879698D01*
X55072865Y-94899459D01*
X55012685Y-94989525D01*
X54971232Y-95089600D01*
X54950100Y-95195840D01*
X54950100Y-95304160D01*
X54971232Y-95410400D01*
X55012685Y-95510475D01*
X55072865Y-95600541D01*
X55122599Y-95650275D01*
X55021967Y-95717515D01*
X54917515Y-95821967D01*
X54835448Y-95944789D01*
X54778919Y-96081262D01*
X54750100Y-96226141D01*
X54750100Y-96373859D01*
X54778919Y-96518738D01*
X54835448Y-96655211D01*
X54917515Y-96778033D01*
X55021967Y-96882485D01*
X55144789Y-96964552D01*
X55281262Y-97021081D01*
X55426141Y-97049900D01*
X55573859Y-97049900D01*
X55718738Y-97021081D01*
X55855211Y-96964552D01*
X55978033Y-96882485D01*
X56082485Y-96778033D01*
X56164552Y-96655211D01*
X56221081Y-96518738D01*
X56249900Y-96373859D01*
X56249900Y-96226141D01*
X56221081Y-96081262D01*
X56164552Y-95944789D01*
X56082485Y-95821967D01*
X55978033Y-95717515D01*
X55877401Y-95650275D01*
X55927135Y-95600541D01*
X55987315Y-95510475D01*
X56028768Y-95410400D01*
X56049900Y-95304160D01*
X56049900Y-95195840D01*
X56028768Y-95089600D01*
X55987315Y-94989525D01*
X55927135Y-94899459D01*
X55907374Y-94879698D01*
X55978033Y-94832485D01*
X56082485Y-94728033D01*
X56164552Y-94605211D01*
X56221081Y-94468738D01*
X56249900Y-94323859D01*
X56249900Y-94176141D01*
X56221081Y-94031262D01*
X56164552Y-93894789D01*
X56082485Y-93771967D01*
X55978033Y-93667515D01*
X55855211Y-93585448D01*
X55718738Y-93528919D01*
X55573859Y-93500100D01*
X55426141Y-93500100D01*
X55281262Y-93528919D01*
X55144789Y-93585448D01*
X55021967Y-93667515D01*
X54917515Y-93771967D01*
X54835448Y-93894789D01*
X54822893Y-93925100D01*
X54715960Y-93925100D01*
X54699999Y-93923528D01*
X54636308Y-93929801D01*
X54575065Y-93948379D01*
X54518622Y-93978548D01*
X54484908Y-94006216D01*
X54454160Y-94000100D01*
X54345840Y-94000100D01*
X54239600Y-94021232D01*
X54139525Y-94062685D01*
X54049459Y-94122865D01*
X53972865Y-94199459D01*
X53912685Y-94289525D01*
X53871232Y-94389600D01*
X53850100Y-94495840D01*
X50250000Y-94495840D01*
X50250000Y-92553377D01*
X54675100Y-92553377D01*
X54675100Y-92666623D01*
X54697193Y-92777692D01*
X54740530Y-92882317D01*
X54803446Y-92976478D01*
X54883522Y-93056554D01*
X54977683Y-93119470D01*
X55082308Y-93162807D01*
X55193377Y-93184900D01*
X55306623Y-93184900D01*
X55417692Y-93162807D01*
X55522317Y-93119470D01*
X55616478Y-93056554D01*
X55696554Y-92976478D01*
X55759470Y-92882317D01*
X55802807Y-92777692D01*
X55824900Y-92666623D01*
X55824900Y-92553377D01*
X55802807Y-92442308D01*
X55759470Y-92337683D01*
X55696554Y-92243522D01*
X55616478Y-92163446D01*
X55522317Y-92100530D01*
X55417692Y-92057193D01*
X55306623Y-92035100D01*
X55193377Y-92035100D01*
X55082308Y-92057193D01*
X54977683Y-92100530D01*
X54883522Y-92163446D01*
X54803446Y-92243522D01*
X54740530Y-92337683D01*
X54697193Y-92442308D01*
X54675100Y-92553377D01*
X50250000Y-92553377D01*
X50250000Y-90893035D01*
X50300433Y-90854336D01*
X50396693Y-90814464D01*
X50506559Y-90800000D01*
X56293441Y-90800000D01*
X56403307Y-90814464D01*
G04 #@! TA.AperFunction,Conductor*
D34*
G36*
X56403307Y-90814464D02*
G01*
X56499567Y-90854336D01*
X56582232Y-90917768D01*
X56645664Y-91000433D01*
X56685536Y-91096693D01*
X56700000Y-91206559D01*
X56700000Y-99793441D01*
X56685536Y-99903307D01*
X56645664Y-99999567D01*
X56582232Y-100082232D01*
X56499567Y-100145664D01*
X56403307Y-100185536D01*
X56293441Y-100200000D01*
X50506559Y-100200000D01*
X50396693Y-100185536D01*
X50300433Y-100145664D01*
X50250000Y-100106965D01*
X50250000Y-98333377D01*
X54675100Y-98333377D01*
X54675100Y-98446623D01*
X54697193Y-98557692D01*
X54740530Y-98662317D01*
X54803446Y-98756478D01*
X54883522Y-98836554D01*
X54977683Y-98899470D01*
X55082308Y-98942807D01*
X55193377Y-98964900D01*
X55306623Y-98964900D01*
X55417692Y-98942807D01*
X55522317Y-98899470D01*
X55616478Y-98836554D01*
X55696554Y-98756478D01*
X55759470Y-98662317D01*
X55802807Y-98557692D01*
X55824900Y-98446623D01*
X55824900Y-98333377D01*
X55802807Y-98222308D01*
X55759470Y-98117683D01*
X55696554Y-98023522D01*
X55616478Y-97943446D01*
X55522317Y-97880530D01*
X55417692Y-97837193D01*
X55306623Y-97815100D01*
X55193377Y-97815100D01*
X55082308Y-97837193D01*
X54977683Y-97880530D01*
X54883522Y-97943446D01*
X54803446Y-98023522D01*
X54740530Y-98117683D01*
X54697193Y-98222308D01*
X54675100Y-98333377D01*
X50250000Y-98333377D01*
X50250000Y-94495840D01*
X53850100Y-94495840D01*
X53850100Y-94604160D01*
X53871232Y-94710400D01*
X53912685Y-94810475D01*
X53972865Y-94900541D01*
X54049459Y-94977135D01*
X54139525Y-95037315D01*
X54239600Y-95078768D01*
X54345840Y-95099900D01*
X54454160Y-95099900D01*
X54560400Y-95078768D01*
X54660475Y-95037315D01*
X54750541Y-94977135D01*
X54827135Y-94900541D01*
X54887315Y-94810475D01*
X54920307Y-94730825D01*
X55021967Y-94832485D01*
X55092626Y-94879698D01*
X55072865Y-94899459D01*
X55012685Y-94989525D01*
X54971232Y-95089600D01*
X54950100Y-95195840D01*
X54950100Y-95304160D01*
X54971232Y-95410400D01*
X55012685Y-95510475D01*
X55072865Y-95600541D01*
X55122599Y-95650275D01*
X55021967Y-95717515D01*
X54917515Y-95821967D01*
X54835448Y-95944789D01*
X54778919Y-96081262D01*
X54750100Y-96226141D01*
X54750100Y-96373859D01*
X54778919Y-96518738D01*
X54835448Y-96655211D01*
X54917515Y-96778033D01*
X55021967Y-96882485D01*
X55144789Y-96964552D01*
X55281262Y-97021081D01*
X55426141Y-97049900D01*
X55573859Y-97049900D01*
X55718738Y-97021081D01*
X55855211Y-96964552D01*
X55978033Y-96882485D01*
X56082485Y-96778033D01*
X56164552Y-96655211D01*
X56221081Y-96518738D01*
X56249900Y-96373859D01*
X56249900Y-96226141D01*
X56221081Y-96081262D01*
X56164552Y-95944789D01*
X56082485Y-95821967D01*
X55978033Y-95717515D01*
X55877401Y-95650275D01*
X55927135Y-95600541D01*
X55987315Y-95510475D01*
X56028768Y-95410400D01*
X56049900Y-95304160D01*
X56049900Y-95195840D01*
X56028768Y-95089600D01*
X55987315Y-94989525D01*
X55927135Y-94899459D01*
X55907374Y-94879698D01*
X55978033Y-94832485D01*
X56082485Y-94728033D01*
X56164552Y-94605211D01*
X56221081Y-94468738D01*
X56249900Y-94323859D01*
X56249900Y-94176141D01*
X56221081Y-94031262D01*
X56164552Y-93894789D01*
X56082485Y-93771967D01*
X55978033Y-93667515D01*
X55855211Y-93585448D01*
X55718738Y-93528919D01*
X55573859Y-93500100D01*
X55426141Y-93500100D01*
X55281262Y-93528919D01*
X55144789Y-93585448D01*
X55021967Y-93667515D01*
X54917515Y-93771967D01*
X54835448Y-93894789D01*
X54822893Y-93925100D01*
X54715960Y-93925100D01*
X54699999Y-93923528D01*
X54636308Y-93929801D01*
X54575065Y-93948379D01*
X54518622Y-93978548D01*
X54484908Y-94006216D01*
X54454160Y-94000100D01*
X54345840Y-94000100D01*
X54239600Y-94021232D01*
X54139525Y-94062685D01*
X54049459Y-94122865D01*
X53972865Y-94199459D01*
X53912685Y-94289525D01*
X53871232Y-94389600D01*
X53850100Y-94495840D01*
X50250000Y-94495840D01*
X50250000Y-92553377D01*
X54675100Y-92553377D01*
X54675100Y-92666623D01*
X54697193Y-92777692D01*
X54740530Y-92882317D01*
X54803446Y-92976478D01*
X54883522Y-93056554D01*
X54977683Y-93119470D01*
X55082308Y-93162807D01*
X55193377Y-93184900D01*
X55306623Y-93184900D01*
X55417692Y-93162807D01*
X55522317Y-93119470D01*
X55616478Y-93056554D01*
X55696554Y-92976478D01*
X55759470Y-92882317D01*
X55802807Y-92777692D01*
X55824900Y-92666623D01*
X55824900Y-92553377D01*
X55802807Y-92442308D01*
X55759470Y-92337683D01*
X55696554Y-92243522D01*
X55616478Y-92163446D01*
X55522317Y-92100530D01*
X55417692Y-92057193D01*
X55306623Y-92035100D01*
X55193377Y-92035100D01*
X55082308Y-92057193D01*
X54977683Y-92100530D01*
X54883522Y-92163446D01*
X54803446Y-92243522D01*
X54740530Y-92337683D01*
X54697193Y-92442308D01*
X54675100Y-92553377D01*
X50250000Y-92553377D01*
X50250000Y-90893035D01*
X50300433Y-90854336D01*
X50396693Y-90814464D01*
X50506559Y-90800000D01*
X56293441Y-90800000D01*
X56403307Y-90814464D01*
G37*
G04 #@! TD.AperFunction*
D36*
X121137300Y-88100000D02*
X121140426Y-88131742D01*
X121149685Y-88162263D01*
X121208264Y-88303684D01*
X121223299Y-88331812D01*
X121243532Y-88356467D01*
X121268187Y-88376701D01*
X121296316Y-88391736D01*
X121437737Y-88450315D01*
X121468259Y-88459574D01*
X121500000Y-88462700D01*
X121700000Y-88462700D01*
X121731742Y-88459574D01*
X121762263Y-88450315D01*
X121903684Y-88391736D01*
X121931812Y-88376701D01*
X121956467Y-88356468D01*
X121976701Y-88331813D01*
X121991736Y-88303684D01*
X122050315Y-88162263D01*
X122059574Y-88131741D01*
X122062700Y-88100000D01*
X122062700Y-87962800D01*
X122847453Y-87962800D01*
X122981624Y-88018376D01*
X123037200Y-88152547D01*
X123037200Y-89847453D01*
X122981624Y-89981624D01*
X122847453Y-90037200D01*
X120352547Y-90037200D01*
X120218376Y-89981624D01*
X120162800Y-89847453D01*
X120162800Y-88152547D01*
X120218376Y-88018376D01*
X120352547Y-87962800D01*
X121137300Y-87962800D01*
X121137300Y-88100000D01*
G04 #@! TA.AperFunction,Conductor*
D34*
G36*
X121137300Y-88100000D02*
G01*
X121140426Y-88131742D01*
X121149685Y-88162263D01*
X121208264Y-88303684D01*
X121223299Y-88331812D01*
X121243532Y-88356467D01*
X121268187Y-88376701D01*
X121296316Y-88391736D01*
X121437737Y-88450315D01*
X121468259Y-88459574D01*
X121500000Y-88462700D01*
X121700000Y-88462700D01*
X121731742Y-88459574D01*
X121762263Y-88450315D01*
X121903684Y-88391736D01*
X121931812Y-88376701D01*
X121956467Y-88356468D01*
X121976701Y-88331813D01*
X121991736Y-88303684D01*
X122050315Y-88162263D01*
X122059574Y-88131741D01*
X122062700Y-88100000D01*
X122062700Y-87962800D01*
X122847453Y-87962800D01*
X122981624Y-88018376D01*
X123037200Y-88152547D01*
X123037200Y-89847453D01*
X122981624Y-89981624D01*
X122847453Y-90037200D01*
X120352547Y-90037200D01*
X120218376Y-89981624D01*
X120162800Y-89847453D01*
X120162800Y-88152547D01*
X120218376Y-88018376D01*
X120352547Y-87962800D01*
X121137300Y-87962800D01*
X121137300Y-88100000D01*
G37*
G04 #@! TD.AperFunction*
D36*
X122981624Y-86368376D02*
X123037200Y-86502547D01*
X123037200Y-87097453D01*
X122981624Y-87231624D01*
X122847453Y-87287200D01*
X122100000Y-87287200D01*
X122097503Y-87287446D01*
X122095102Y-87288174D01*
X121953681Y-87346753D01*
X121951468Y-87347936D01*
X121949528Y-87349528D01*
X121947936Y-87351468D01*
X121946753Y-87353681D01*
X121888174Y-87495102D01*
X121887446Y-87497503D01*
X121887200Y-87500000D01*
X121887200Y-88097453D01*
X121831624Y-88231624D01*
X121697453Y-88287200D01*
X121502547Y-88287200D01*
X121368376Y-88231624D01*
X121312800Y-88097453D01*
X121312800Y-87500000D01*
X121312554Y-87497503D01*
X121311826Y-87495102D01*
X121253247Y-87353681D01*
X121252064Y-87351468D01*
X121250472Y-87349528D01*
X121248532Y-87347936D01*
X121246319Y-87346753D01*
X121104898Y-87288174D01*
X121102497Y-87287446D01*
X121100000Y-87287200D01*
X120352547Y-87287200D01*
X120218376Y-87231624D01*
X120162800Y-87097453D01*
X120162800Y-86502547D01*
X120218376Y-86368376D01*
X120352547Y-86312800D01*
X122847453Y-86312800D01*
X122981624Y-86368376D01*
G04 #@! TA.AperFunction,Conductor*
D34*
G36*
X122981624Y-86368376D02*
G01*
X123037200Y-86502547D01*
X123037200Y-87097453D01*
X122981624Y-87231624D01*
X122847453Y-87287200D01*
X122100000Y-87287200D01*
X122097503Y-87287446D01*
X122095102Y-87288174D01*
X121953681Y-87346753D01*
X121951468Y-87347936D01*
X121949528Y-87349528D01*
X121947936Y-87351468D01*
X121946753Y-87353681D01*
X121888174Y-87495102D01*
X121887446Y-87497503D01*
X121887200Y-87500000D01*
X121887200Y-88097453D01*
X121831624Y-88231624D01*
X121697453Y-88287200D01*
X121502547Y-88287200D01*
X121368376Y-88231624D01*
X121312800Y-88097453D01*
X121312800Y-87500000D01*
X121312554Y-87497503D01*
X121311826Y-87495102D01*
X121253247Y-87353681D01*
X121252064Y-87351468D01*
X121250472Y-87349528D01*
X121248532Y-87347936D01*
X121246319Y-87346753D01*
X121104898Y-87288174D01*
X121102497Y-87287446D01*
X121100000Y-87287200D01*
X120352547Y-87287200D01*
X120218376Y-87231624D01*
X120162800Y-87097453D01*
X120162800Y-86502547D01*
X120218376Y-86368376D01*
X120352547Y-86312800D01*
X122847453Y-86312800D01*
X122981624Y-86368376D01*
G37*
G04 #@! TD.AperFunction*
D36*
X125202335Y-102797665D02*
X125287200Y-103002547D01*
X125287200Y-103400000D01*
X125287446Y-103402497D01*
X125288174Y-103404898D01*
X125376042Y-103617030D01*
X125377225Y-103619243D01*
X125378817Y-103621183D01*
X125380757Y-103622775D01*
X125382970Y-103623958D01*
X125595102Y-103711826D01*
X125597503Y-103712554D01*
X125600000Y-103712800D01*
X126147453Y-103712800D01*
X126352335Y-103797665D01*
X126437200Y-104002547D01*
X126437200Y-104397453D01*
X126352335Y-104602335D01*
X126147453Y-104687200D01*
X123852547Y-104687200D01*
X123647665Y-104602335D01*
X123562800Y-104397453D01*
X123562800Y-104002547D01*
X123647665Y-103797665D01*
X123852547Y-103712800D01*
X124400000Y-103712800D01*
X124402497Y-103712554D01*
X124404898Y-103711826D01*
X124617030Y-103623958D01*
X124619243Y-103622775D01*
X124621183Y-103621183D01*
X124622775Y-103619243D01*
X124623958Y-103617030D01*
X124711826Y-103404898D01*
X124712554Y-103402497D01*
X124712800Y-103400000D01*
X124712800Y-103002547D01*
X124797665Y-102797665D01*
X125000000Y-102713855D01*
X125202335Y-102797665D01*
G04 #@! TA.AperFunction,Conductor*
D34*
G36*
X125202335Y-102797665D02*
G01*
X125287200Y-103002547D01*
X125287200Y-103400000D01*
X125287446Y-103402497D01*
X125288174Y-103404898D01*
X125376042Y-103617030D01*
X125377225Y-103619243D01*
X125378817Y-103621183D01*
X125380757Y-103622775D01*
X125382970Y-103623958D01*
X125595102Y-103711826D01*
X125597503Y-103712554D01*
X125600000Y-103712800D01*
X126147453Y-103712800D01*
X126352335Y-103797665D01*
X126437200Y-104002547D01*
X126437200Y-104397453D01*
X126352335Y-104602335D01*
X126147453Y-104687200D01*
X123852547Y-104687200D01*
X123647665Y-104602335D01*
X123562800Y-104397453D01*
X123562800Y-104002547D01*
X123647665Y-103797665D01*
X123852547Y-103712800D01*
X124400000Y-103712800D01*
X124402497Y-103712554D01*
X124404898Y-103711826D01*
X124617030Y-103623958D01*
X124619243Y-103622775D01*
X124621183Y-103621183D01*
X124622775Y-103619243D01*
X124623958Y-103617030D01*
X124711826Y-103404898D01*
X124712554Y-103402497D01*
X124712800Y-103400000D01*
X124712800Y-103002547D01*
X124797665Y-102797665D01*
X125000000Y-102713855D01*
X125202335Y-102797665D01*
G37*
G04 #@! TD.AperFunction*
D36*
X126381624Y-101018376D02*
X126437200Y-101152547D01*
X126437200Y-102847453D01*
X126381624Y-102981624D01*
X126247453Y-103037200D01*
X125462700Y-103037200D01*
X125462700Y-102954428D01*
X125444919Y-102865035D01*
X125410040Y-102780829D01*
X125359403Y-102705046D01*
X125294954Y-102640597D01*
X125219171Y-102589960D01*
X125134965Y-102555081D01*
X125045572Y-102537300D01*
X124954428Y-102537300D01*
X124865035Y-102555081D01*
X124780829Y-102589960D01*
X124705046Y-102640597D01*
X124640597Y-102705046D01*
X124589960Y-102780829D01*
X124555081Y-102865035D01*
X124537300Y-102954428D01*
X124537300Y-103037200D01*
X123752547Y-103037200D01*
X123618376Y-102981624D01*
X123562800Y-102847453D01*
X123562800Y-101152547D01*
X123618376Y-101018376D01*
X123752547Y-100962800D01*
X126247453Y-100962800D01*
X126381624Y-101018376D01*
G04 #@! TA.AperFunction,Conductor*
D34*
G36*
X126381624Y-101018376D02*
G01*
X126437200Y-101152547D01*
X126437200Y-102847453D01*
X126381624Y-102981624D01*
X126247453Y-103037200D01*
X125462700Y-103037200D01*
X125462700Y-102954428D01*
X125444919Y-102865035D01*
X125410040Y-102780829D01*
X125359403Y-102705046D01*
X125294954Y-102640597D01*
X125219171Y-102589960D01*
X125134965Y-102555081D01*
X125045572Y-102537300D01*
X124954428Y-102537300D01*
X124865035Y-102555081D01*
X124780829Y-102589960D01*
X124705046Y-102640597D01*
X124640597Y-102705046D01*
X124589960Y-102780829D01*
X124555081Y-102865035D01*
X124537300Y-102954428D01*
X124537300Y-103037200D01*
X123752547Y-103037200D01*
X123618376Y-102981624D01*
X123562800Y-102847453D01*
X123562800Y-101152547D01*
X123618376Y-101018376D01*
X123752547Y-100962800D01*
X126247453Y-100962800D01*
X126381624Y-101018376D01*
G37*
G04 #@! TD.AperFunction*
D36*
X123602335Y-90847665D02*
X123687200Y-91052547D01*
X123687200Y-91647453D01*
X123602335Y-91852335D01*
X123397453Y-91937200D01*
X120452547Y-91937200D01*
X120247665Y-91852335D01*
X120162800Y-91647453D01*
X120162800Y-91052547D01*
X120247665Y-90847665D01*
X120452547Y-90762800D01*
X123397453Y-90762800D01*
X123602335Y-90847665D01*
G04 #@! TA.AperFunction,Conductor*
D34*
G36*
X123602335Y-90847665D02*
G01*
X123687200Y-91052547D01*
X123687200Y-91647453D01*
X123602335Y-91852335D01*
X123397453Y-91937200D01*
X120452547Y-91937200D01*
X120247665Y-91852335D01*
X120162800Y-91647453D01*
X120162800Y-91052547D01*
X120247665Y-90847665D01*
X120452547Y-90762800D01*
X123397453Y-90762800D01*
X123602335Y-90847665D01*
G37*
G04 #@! TD.AperFunction*
D36*
X126352335Y-99147665D02*
X126437200Y-99352547D01*
X126437200Y-99947453D01*
X126352335Y-100152335D01*
X126147453Y-100237200D01*
X123202547Y-100237200D01*
X122997665Y-100152335D01*
X122912800Y-99947453D01*
X122912800Y-99352547D01*
X122997665Y-99147665D01*
X123202547Y-99062800D01*
X126147453Y-99062800D01*
X126352335Y-99147665D01*
G04 #@! TA.AperFunction,Conductor*
D34*
G36*
X126352335Y-99147665D02*
G01*
X126437200Y-99352547D01*
X126437200Y-99947453D01*
X126352335Y-100152335D01*
X126147453Y-100237200D01*
X123202547Y-100237200D01*
X122997665Y-100152335D01*
X122912800Y-99947453D01*
X122912800Y-99352547D01*
X122997665Y-99147665D01*
X123202547Y-99062800D01*
X126147453Y-99062800D01*
X126352335Y-99147665D01*
G37*
G04 #@! TD.AperFunction*
M02*
