G04 #@! TF.GenerationSoftware,KiCad,Pcbnew,5.1.8*
G04 #@! TF.CreationDate,2020-12-26T16:11:21-08:00*
G04 #@! TF.ProjectId,glasgow,676c6173-676f-4772-9e6b-696361645f70,C2*
G04 #@! TF.SameCoordinates,Original*
G04 #@! TF.FileFunction,Other,Fab,Bot*
%FSLAX46Y46*%
G04 Gerber Fmt 4.6, Leading zero omitted, Abs format (unit mm)*
G04 Created by KiCad (PCBNEW 5.1.8) date 2020-12-26 16:11:21*
%MOMM*%
%LPD*%
G01*
G04 APERTURE LIST*
%ADD10C,0.200000*%
%ADD11C,0.300000*%
%ADD12C,0.100000*%
%ADD13C,0.050000*%
%ADD14C,0.060000*%
%ADD15C,0.040000*%
G04 APERTURE END LIST*
D10*
X109150000Y-99900000D02*
X109150000Y-91100000D01*
X101400000Y-89100000D02*
X101400000Y-101900000D01*
X104300000Y-89100000D02*
X101400000Y-89100000D01*
X101400000Y-101900000D02*
X104300000Y-101900000D01*
D11*
X117814285Y-68578571D02*
X117457142Y-70078571D01*
X117171428Y-69007142D01*
X116885714Y-70078571D01*
X116528571Y-68578571D01*
X115314285Y-70078571D02*
X115314285Y-69292857D01*
X115385714Y-69150000D01*
X115528571Y-69078571D01*
X115814285Y-69078571D01*
X115957142Y-69150000D01*
X115314285Y-70007142D02*
X115457142Y-70078571D01*
X115814285Y-70078571D01*
X115957142Y-70007142D01*
X116028571Y-69864285D01*
X116028571Y-69721428D01*
X115957142Y-69578571D01*
X115814285Y-69507142D01*
X115457142Y-69507142D01*
X115314285Y-69435714D01*
X114742857Y-69078571D02*
X114385714Y-70078571D01*
X114028571Y-69078571D01*
X112885714Y-70007142D02*
X113028571Y-70078571D01*
X113314285Y-70078571D01*
X113457142Y-70007142D01*
X113528571Y-69864285D01*
X113528571Y-69292857D01*
X113457142Y-69150000D01*
X113314285Y-69078571D01*
X113028571Y-69078571D01*
X112885714Y-69150000D01*
X112814285Y-69292857D01*
X112814285Y-69435714D01*
X113528571Y-69578571D01*
X111100000Y-70007142D02*
X110957142Y-70078571D01*
X110671428Y-70078571D01*
X110528571Y-70007142D01*
X110457142Y-69864285D01*
X110457142Y-69792857D01*
X110528571Y-69650000D01*
X110671428Y-69578571D01*
X110885714Y-69578571D01*
X111028571Y-69507142D01*
X111100000Y-69364285D01*
X111100000Y-69292857D01*
X111028571Y-69150000D01*
X110885714Y-69078571D01*
X110671428Y-69078571D01*
X110528571Y-69150000D01*
X109600000Y-70078571D02*
X109742857Y-70007142D01*
X109814285Y-69935714D01*
X109885714Y-69792857D01*
X109885714Y-69364285D01*
X109814285Y-69221428D01*
X109742857Y-69150000D01*
X109600000Y-69078571D01*
X109385714Y-69078571D01*
X109242857Y-69150000D01*
X109171428Y-69221428D01*
X109100000Y-69364285D01*
X109100000Y-69792857D01*
X109171428Y-69935714D01*
X109242857Y-70007142D01*
X109385714Y-70078571D01*
X109600000Y-70078571D01*
X108242857Y-70078571D02*
X108385714Y-70007142D01*
X108457142Y-69864285D01*
X108457142Y-68578571D01*
X107028571Y-70078571D02*
X107028571Y-68578571D01*
X107028571Y-70007142D02*
X107171428Y-70078571D01*
X107457142Y-70078571D01*
X107600000Y-70007142D01*
X107671428Y-69935714D01*
X107742857Y-69792857D01*
X107742857Y-69364285D01*
X107671428Y-69221428D01*
X107600000Y-69150000D01*
X107457142Y-69078571D01*
X107171428Y-69078571D01*
X107028571Y-69150000D01*
X105742857Y-70007142D02*
X105885714Y-70078571D01*
X106171428Y-70078571D01*
X106314285Y-70007142D01*
X106385714Y-69864285D01*
X106385714Y-69292857D01*
X106314285Y-69150000D01*
X106171428Y-69078571D01*
X105885714Y-69078571D01*
X105742857Y-69150000D01*
X105671428Y-69292857D01*
X105671428Y-69435714D01*
X106385714Y-69578571D01*
X105028571Y-70078571D02*
X105028571Y-69078571D01*
X105028571Y-69364285D02*
X104957142Y-69221428D01*
X104885714Y-69150000D01*
X104742857Y-69078571D01*
X104600000Y-69078571D01*
X104100000Y-70078571D02*
X104100000Y-69078571D01*
X104100000Y-68578571D02*
X104171428Y-68650000D01*
X104100000Y-68721428D01*
X104028571Y-68650000D01*
X104100000Y-68578571D01*
X104100000Y-68721428D01*
X103385714Y-69078571D02*
X103385714Y-70078571D01*
X103385714Y-69221428D02*
X103314285Y-69150000D01*
X103171428Y-69078571D01*
X102957142Y-69078571D01*
X102814285Y-69150000D01*
X102742857Y-69292857D01*
X102742857Y-70078571D01*
X101385714Y-69078571D02*
X101385714Y-70292857D01*
X101457142Y-70435714D01*
X101528571Y-70507142D01*
X101671428Y-70578571D01*
X101885714Y-70578571D01*
X102028571Y-70507142D01*
X101385714Y-70007142D02*
X101528571Y-70078571D01*
X101814285Y-70078571D01*
X101957142Y-70007142D01*
X102028571Y-69935714D01*
X102100000Y-69792857D01*
X102100000Y-69364285D01*
X102028571Y-69221428D01*
X101957142Y-69150000D01*
X101814285Y-69078571D01*
X101528571Y-69078571D01*
X101385714Y-69150000D01*
X99528571Y-70078571D02*
X99528571Y-68578571D01*
X99385714Y-69507142D02*
X98957142Y-70078571D01*
X98957142Y-69078571D02*
X99528571Y-69650000D01*
X97742857Y-70007142D02*
X97885714Y-70078571D01*
X98171428Y-70078571D01*
X98314285Y-70007142D01*
X98385714Y-69864285D01*
X98385714Y-69292857D01*
X98314285Y-69150000D01*
X98171428Y-69078571D01*
X97885714Y-69078571D01*
X97742857Y-69150000D01*
X97671428Y-69292857D01*
X97671428Y-69435714D01*
X98385714Y-69578571D01*
X96457142Y-70007142D02*
X96600000Y-70078571D01*
X96885714Y-70078571D01*
X97028571Y-70007142D01*
X97100000Y-69864285D01*
X97100000Y-69292857D01*
X97028571Y-69150000D01*
X96885714Y-69078571D01*
X96600000Y-69078571D01*
X96457142Y-69150000D01*
X96385714Y-69292857D01*
X96385714Y-69435714D01*
X97100000Y-69578571D01*
X95742857Y-69078571D02*
X95742857Y-70578571D01*
X95742857Y-69150000D02*
X95600000Y-69078571D01*
X95314285Y-69078571D01*
X95171428Y-69150000D01*
X95100000Y-69221428D01*
X95028571Y-69364285D01*
X95028571Y-69792857D01*
X95100000Y-69935714D01*
X95171428Y-70007142D01*
X95314285Y-70078571D01*
X95600000Y-70078571D01*
X95742857Y-70007142D01*
X94171428Y-70078571D02*
X94314285Y-70007142D01*
X94385714Y-69935714D01*
X94457142Y-69792857D01*
X94457142Y-69364285D01*
X94385714Y-69221428D01*
X94314285Y-69150000D01*
X94171428Y-69078571D01*
X93957142Y-69078571D01*
X93814285Y-69150000D01*
X93742857Y-69221428D01*
X93671428Y-69364285D01*
X93671428Y-69792857D01*
X93742857Y-69935714D01*
X93814285Y-70007142D01*
X93957142Y-70078571D01*
X94171428Y-70078571D01*
X92385714Y-69078571D02*
X92385714Y-70078571D01*
X93028571Y-69078571D02*
X93028571Y-69864285D01*
X92957142Y-70007142D01*
X92814285Y-70078571D01*
X92600000Y-70078571D01*
X92457142Y-70007142D01*
X92385714Y-69935714D01*
X91885714Y-69078571D02*
X91314285Y-69078571D01*
X91671428Y-68578571D02*
X91671428Y-69864285D01*
X91600000Y-70007142D01*
X91457142Y-70078571D01*
X91314285Y-70078571D01*
D10*
X120200000Y-91100000D02*
X120200000Y-71000000D01*
X88700000Y-81600000D02*
X88700000Y-71000000D01*
X104300000Y-81600000D02*
X88700000Y-81600000D01*
X120200000Y-91100000D02*
X109150000Y-91100000D01*
X104300000Y-89100000D02*
X104300000Y-81600000D01*
X77700000Y-104500000D02*
X77700000Y-120000000D01*
X87900000Y-104500000D02*
X77700000Y-104500000D01*
X87900000Y-109400000D02*
X87900000Y-104500000D01*
D11*
X117814285Y-120478571D02*
X117457142Y-121978571D01*
X117171428Y-120907142D01*
X116885714Y-121978571D01*
X116528571Y-120478571D01*
X115314285Y-121978571D02*
X115314285Y-121192857D01*
X115385714Y-121050000D01*
X115528571Y-120978571D01*
X115814285Y-120978571D01*
X115957142Y-121050000D01*
X115314285Y-121907142D02*
X115457142Y-121978571D01*
X115814285Y-121978571D01*
X115957142Y-121907142D01*
X116028571Y-121764285D01*
X116028571Y-121621428D01*
X115957142Y-121478571D01*
X115814285Y-121407142D01*
X115457142Y-121407142D01*
X115314285Y-121335714D01*
X114742857Y-120978571D02*
X114385714Y-121978571D01*
X114028571Y-120978571D01*
X112885714Y-121907142D02*
X113028571Y-121978571D01*
X113314285Y-121978571D01*
X113457142Y-121907142D01*
X113528571Y-121764285D01*
X113528571Y-121192857D01*
X113457142Y-121050000D01*
X113314285Y-120978571D01*
X113028571Y-120978571D01*
X112885714Y-121050000D01*
X112814285Y-121192857D01*
X112814285Y-121335714D01*
X113528571Y-121478571D01*
X111100000Y-121907142D02*
X110957142Y-121978571D01*
X110671428Y-121978571D01*
X110528571Y-121907142D01*
X110457142Y-121764285D01*
X110457142Y-121692857D01*
X110528571Y-121550000D01*
X110671428Y-121478571D01*
X110885714Y-121478571D01*
X111028571Y-121407142D01*
X111100000Y-121264285D01*
X111100000Y-121192857D01*
X111028571Y-121050000D01*
X110885714Y-120978571D01*
X110671428Y-120978571D01*
X110528571Y-121050000D01*
X109600000Y-121978571D02*
X109742857Y-121907142D01*
X109814285Y-121835714D01*
X109885714Y-121692857D01*
X109885714Y-121264285D01*
X109814285Y-121121428D01*
X109742857Y-121050000D01*
X109600000Y-120978571D01*
X109385714Y-120978571D01*
X109242857Y-121050000D01*
X109171428Y-121121428D01*
X109100000Y-121264285D01*
X109100000Y-121692857D01*
X109171428Y-121835714D01*
X109242857Y-121907142D01*
X109385714Y-121978571D01*
X109600000Y-121978571D01*
X108242857Y-121978571D02*
X108385714Y-121907142D01*
X108457142Y-121764285D01*
X108457142Y-120478571D01*
X107028571Y-121978571D02*
X107028571Y-120478571D01*
X107028571Y-121907142D02*
X107171428Y-121978571D01*
X107457142Y-121978571D01*
X107600000Y-121907142D01*
X107671428Y-121835714D01*
X107742857Y-121692857D01*
X107742857Y-121264285D01*
X107671428Y-121121428D01*
X107600000Y-121050000D01*
X107457142Y-120978571D01*
X107171428Y-120978571D01*
X107028571Y-121050000D01*
X105742857Y-121907142D02*
X105885714Y-121978571D01*
X106171428Y-121978571D01*
X106314285Y-121907142D01*
X106385714Y-121764285D01*
X106385714Y-121192857D01*
X106314285Y-121050000D01*
X106171428Y-120978571D01*
X105885714Y-120978571D01*
X105742857Y-121050000D01*
X105671428Y-121192857D01*
X105671428Y-121335714D01*
X106385714Y-121478571D01*
X105028571Y-121978571D02*
X105028571Y-120978571D01*
X105028571Y-121264285D02*
X104957142Y-121121428D01*
X104885714Y-121050000D01*
X104742857Y-120978571D01*
X104600000Y-120978571D01*
X104100000Y-121978571D02*
X104100000Y-120978571D01*
X104100000Y-120478571D02*
X104171428Y-120550000D01*
X104100000Y-120621428D01*
X104028571Y-120550000D01*
X104100000Y-120478571D01*
X104100000Y-120621428D01*
X103385714Y-120978571D02*
X103385714Y-121978571D01*
X103385714Y-121121428D02*
X103314285Y-121050000D01*
X103171428Y-120978571D01*
X102957142Y-120978571D01*
X102814285Y-121050000D01*
X102742857Y-121192857D01*
X102742857Y-121978571D01*
X101385714Y-120978571D02*
X101385714Y-122192857D01*
X101457142Y-122335714D01*
X101528571Y-122407142D01*
X101671428Y-122478571D01*
X101885714Y-122478571D01*
X102028571Y-122407142D01*
X101385714Y-121907142D02*
X101528571Y-121978571D01*
X101814285Y-121978571D01*
X101957142Y-121907142D01*
X102028571Y-121835714D01*
X102100000Y-121692857D01*
X102100000Y-121264285D01*
X102028571Y-121121428D01*
X101957142Y-121050000D01*
X101814285Y-120978571D01*
X101528571Y-120978571D01*
X101385714Y-121050000D01*
X99528571Y-121978571D02*
X99528571Y-120478571D01*
X99385714Y-121407142D02*
X98957142Y-121978571D01*
X98957142Y-120978571D02*
X99528571Y-121550000D01*
X97742857Y-121907142D02*
X97885714Y-121978571D01*
X98171428Y-121978571D01*
X98314285Y-121907142D01*
X98385714Y-121764285D01*
X98385714Y-121192857D01*
X98314285Y-121050000D01*
X98171428Y-120978571D01*
X97885714Y-120978571D01*
X97742857Y-121050000D01*
X97671428Y-121192857D01*
X97671428Y-121335714D01*
X98385714Y-121478571D01*
X96457142Y-121907142D02*
X96600000Y-121978571D01*
X96885714Y-121978571D01*
X97028571Y-121907142D01*
X97100000Y-121764285D01*
X97100000Y-121192857D01*
X97028571Y-121050000D01*
X96885714Y-120978571D01*
X96600000Y-120978571D01*
X96457142Y-121050000D01*
X96385714Y-121192857D01*
X96385714Y-121335714D01*
X97100000Y-121478571D01*
X95742857Y-120978571D02*
X95742857Y-122478571D01*
X95742857Y-121050000D02*
X95600000Y-120978571D01*
X95314285Y-120978571D01*
X95171428Y-121050000D01*
X95100000Y-121121428D01*
X95028571Y-121264285D01*
X95028571Y-121692857D01*
X95100000Y-121835714D01*
X95171428Y-121907142D01*
X95314285Y-121978571D01*
X95600000Y-121978571D01*
X95742857Y-121907142D01*
X94171428Y-121978571D02*
X94314285Y-121907142D01*
X94385714Y-121835714D01*
X94457142Y-121692857D01*
X94457142Y-121264285D01*
X94385714Y-121121428D01*
X94314285Y-121050000D01*
X94171428Y-120978571D01*
X93957142Y-120978571D01*
X93814285Y-121050000D01*
X93742857Y-121121428D01*
X93671428Y-121264285D01*
X93671428Y-121692857D01*
X93742857Y-121835714D01*
X93814285Y-121907142D01*
X93957142Y-121978571D01*
X94171428Y-121978571D01*
X92385714Y-120978571D02*
X92385714Y-121978571D01*
X93028571Y-120978571D02*
X93028571Y-121764285D01*
X92957142Y-121907142D01*
X92814285Y-121978571D01*
X92600000Y-121978571D01*
X92457142Y-121907142D01*
X92385714Y-121835714D01*
X91885714Y-120978571D02*
X91314285Y-120978571D01*
X91671428Y-120478571D02*
X91671428Y-121764285D01*
X91600000Y-121907142D01*
X91457142Y-121978571D01*
X91314285Y-121978571D01*
D10*
X104300000Y-109400000D02*
X87900000Y-109400000D01*
X104300000Y-101900000D02*
X104300000Y-109400000D01*
X120200000Y-99900000D02*
X109150000Y-99900000D01*
X120200000Y-99900000D02*
X120200000Y-120000000D01*
D12*
X122750000Y-118500000D02*
G75*
G03*
X122750000Y-118500000I-750000J0D01*
G01*
X122750000Y-72500000D02*
G75*
G03*
X122750000Y-72500000I-750000J0D01*
G01*
X58750000Y-118500000D02*
G75*
G03*
X58750000Y-118500000I-750000J0D01*
G01*
X120250000Y-88400000D02*
X121050000Y-88400000D01*
X121050000Y-88400000D02*
X121050000Y-86800000D01*
X121050000Y-86800000D02*
X120250000Y-86800000D01*
X120250000Y-86800000D02*
X120250000Y-88400000D01*
X126350000Y-102600000D02*
X125550000Y-102600000D01*
X125550000Y-102600000D02*
X125550000Y-104200000D01*
X125550000Y-104200000D02*
X126350000Y-104200000D01*
X126350000Y-104200000D02*
X126350000Y-102600000D01*
X120250000Y-91200000D02*
X121050000Y-91200000D01*
X121050000Y-91200000D02*
X121050000Y-89600000D01*
X121050000Y-89600000D02*
X120250000Y-89600000D01*
X120250000Y-89600000D02*
X120250000Y-91200000D01*
X126350000Y-99800000D02*
X125550000Y-99800000D01*
X125550000Y-99800000D02*
X125550000Y-101400000D01*
X125550000Y-101400000D02*
X126350000Y-101400000D01*
X126350000Y-101400000D02*
X126350000Y-99800000D01*
X124450000Y-104200000D02*
X124450000Y-102600000D01*
X123650000Y-104200000D02*
X124450000Y-104200000D01*
X123650000Y-102600000D02*
X123650000Y-104200000D01*
X124450000Y-102600000D02*
X123650000Y-102600000D01*
X122150000Y-86800000D02*
X122150000Y-88400000D01*
X122950000Y-86800000D02*
X122150000Y-86800000D01*
X122950000Y-88400000D02*
X122950000Y-86800000D01*
X122150000Y-88400000D02*
X122950000Y-88400000D01*
X124450000Y-101400000D02*
X124450000Y-99800000D01*
X123650000Y-101400000D02*
X124450000Y-101400000D01*
X123650000Y-99800000D02*
X123650000Y-101400000D01*
X124450000Y-99800000D02*
X123650000Y-99800000D01*
X122150000Y-89600000D02*
X122150000Y-91200000D01*
X122950000Y-89600000D02*
X122150000Y-89600000D01*
X122950000Y-91200000D02*
X122950000Y-89600000D01*
X122150000Y-91200000D02*
X122950000Y-91200000D01*
X121050000Y-85600000D02*
X121050000Y-84600000D01*
X120550000Y-85600000D02*
X121050000Y-85600000D01*
X120550000Y-84600000D02*
X120550000Y-85600000D01*
X121050000Y-84600000D02*
X120550000Y-84600000D01*
X126750000Y-105400000D02*
X126750000Y-106400000D01*
X127250000Y-105400000D02*
X126750000Y-105400000D01*
X127250000Y-106400000D02*
X127250000Y-105400000D01*
X126750000Y-106400000D02*
X127250000Y-106400000D01*
X88000000Y-94700000D02*
X88000000Y-96300000D01*
X88800000Y-94700000D02*
X88000000Y-94700000D01*
X88800000Y-96300000D02*
X88800000Y-94700000D01*
X88000000Y-96300000D02*
X88800000Y-96300000D01*
X77800000Y-96800000D02*
X79400000Y-96800000D01*
X77800000Y-96000000D02*
X77800000Y-96800000D01*
X79400000Y-96000000D02*
X77800000Y-96000000D01*
X79400000Y-96800000D02*
X79400000Y-96000000D01*
X86700000Y-99600000D02*
X85100000Y-99600000D01*
X86700000Y-100400000D02*
X86700000Y-99600000D01*
X85100000Y-100400000D02*
X86700000Y-100400000D01*
X85100000Y-99600000D02*
X85100000Y-100400000D01*
X78550000Y-102125000D02*
X78550000Y-100525000D01*
X77750000Y-102125000D02*
X78550000Y-102125000D01*
X77750000Y-100525000D02*
X77750000Y-102125000D01*
X78550000Y-100525000D02*
X77750000Y-100525000D01*
X66200000Y-99100000D02*
X64600000Y-99100000D01*
X66200000Y-99900000D02*
X66200000Y-99100000D01*
X64600000Y-99900000D02*
X66200000Y-99900000D01*
X64600000Y-99100000D02*
X64600000Y-99900000D01*
X122550000Y-84600000D02*
X122550000Y-85600000D01*
X123050000Y-84600000D02*
X122550000Y-84600000D01*
X123050000Y-85600000D02*
X123050000Y-84600000D01*
X122550000Y-85600000D02*
X123050000Y-85600000D01*
X123550000Y-84600000D02*
X123550000Y-85600000D01*
X124050000Y-84600000D02*
X123550000Y-84600000D01*
X124050000Y-85600000D02*
X124050000Y-84600000D01*
X123550000Y-85600000D02*
X124050000Y-85600000D01*
X124050000Y-106400000D02*
X124050000Y-105400000D01*
X123550000Y-106400000D02*
X124050000Y-106400000D01*
X123550000Y-105400000D02*
X123550000Y-106400000D01*
X124050000Y-105400000D02*
X123550000Y-105400000D01*
X123050000Y-106400000D02*
X123050000Y-105400000D01*
X122550000Y-106400000D02*
X123050000Y-106400000D01*
X122550000Y-105400000D02*
X122550000Y-106400000D01*
X123050000Y-105400000D02*
X122550000Y-105400000D01*
X123800000Y-82950000D02*
X122800000Y-82950000D01*
X123800000Y-83450000D02*
X123800000Y-82950000D01*
X122800000Y-83450000D02*
X123800000Y-83450000D01*
X122800000Y-82950000D02*
X122800000Y-83450000D01*
X122800000Y-108050000D02*
X123800000Y-108050000D01*
X122800000Y-107550000D02*
X122800000Y-108050000D01*
X123800000Y-107550000D02*
X122800000Y-107550000D01*
X123800000Y-108050000D02*
X123800000Y-107550000D01*
X90050000Y-99750000D02*
X90050000Y-98750000D01*
X89550000Y-99750000D02*
X90050000Y-99750000D01*
X89550000Y-98750000D02*
X89550000Y-99750000D01*
X90050000Y-98750000D02*
X89550000Y-98750000D01*
X97300000Y-94250000D02*
X97300000Y-93250000D01*
X96800000Y-94250000D02*
X97300000Y-94250000D01*
X96800000Y-93250000D02*
X96800000Y-94250000D01*
X97300000Y-93250000D02*
X96800000Y-93250000D01*
X99400000Y-91450000D02*
X99400000Y-90450000D01*
X98900000Y-91450000D02*
X99400000Y-91450000D01*
X98900000Y-90450000D02*
X98900000Y-91450000D01*
X99400000Y-90450000D02*
X98900000Y-90450000D01*
X99400000Y-88650000D02*
X99400000Y-87650000D01*
X98900000Y-88650000D02*
X99400000Y-88650000D01*
X98900000Y-87650000D02*
X98900000Y-88650000D01*
X99400000Y-87650000D02*
X98900000Y-87650000D01*
X99400000Y-85850000D02*
X99400000Y-84850000D01*
X98900000Y-85850000D02*
X99400000Y-85850000D01*
X98900000Y-84850000D02*
X98900000Y-85850000D01*
X99400000Y-84850000D02*
X98900000Y-84850000D01*
X97300000Y-88650000D02*
X97300000Y-87650000D01*
X96800000Y-88650000D02*
X97300000Y-88650000D01*
X96800000Y-87650000D02*
X96800000Y-88650000D01*
X97300000Y-87650000D02*
X96800000Y-87650000D01*
X95400000Y-91450000D02*
X95400000Y-90450000D01*
X94900000Y-91450000D02*
X95400000Y-91450000D01*
X94900000Y-90450000D02*
X94900000Y-91450000D01*
X95400000Y-90450000D02*
X94900000Y-90450000D01*
X95400000Y-94250000D02*
X95400000Y-93250000D01*
X94900000Y-94250000D02*
X95400000Y-94250000D01*
X94900000Y-93250000D02*
X94900000Y-94250000D01*
X95400000Y-93250000D02*
X94900000Y-93250000D01*
X95400000Y-88650000D02*
X95400000Y-87650000D01*
X94900000Y-88650000D02*
X95400000Y-88650000D01*
X94900000Y-87650000D02*
X94900000Y-88650000D01*
X95400000Y-87650000D02*
X94900000Y-87650000D01*
X95400000Y-85850000D02*
X95400000Y-84850000D01*
X94900000Y-85850000D02*
X95400000Y-85850000D01*
X94900000Y-84850000D02*
X94900000Y-85850000D01*
X95400000Y-84850000D02*
X94900000Y-84850000D01*
X97300000Y-85850000D02*
X97300000Y-84850000D01*
X96800000Y-85850000D02*
X97300000Y-85850000D01*
X96800000Y-84850000D02*
X96800000Y-85850000D01*
X97300000Y-84850000D02*
X96800000Y-84850000D01*
X97300000Y-105450000D02*
X97300000Y-104450000D01*
X96800000Y-105450000D02*
X97300000Y-105450000D01*
X96800000Y-104450000D02*
X96800000Y-105450000D01*
X97300000Y-104450000D02*
X96800000Y-104450000D01*
X95400000Y-105450000D02*
X95400000Y-104450000D01*
X94900000Y-105450000D02*
X95400000Y-105450000D01*
X94900000Y-104450000D02*
X94900000Y-105450000D01*
X95400000Y-104450000D02*
X94900000Y-104450000D01*
X97300000Y-102650000D02*
X97300000Y-101650000D01*
X96800000Y-102650000D02*
X97300000Y-102650000D01*
X96800000Y-101650000D02*
X96800000Y-102650000D01*
X97300000Y-101650000D02*
X96800000Y-101650000D01*
X95400000Y-102650000D02*
X95400000Y-101650000D01*
X94900000Y-102650000D02*
X95400000Y-102650000D01*
X94900000Y-101650000D02*
X94900000Y-102650000D01*
X95400000Y-101650000D02*
X94900000Y-101650000D01*
X95400000Y-99850000D02*
X95400000Y-98850000D01*
X94900000Y-99850000D02*
X95400000Y-99850000D01*
X94900000Y-98850000D02*
X94900000Y-99850000D01*
X95400000Y-98850000D02*
X94900000Y-98850000D01*
X97300000Y-99850000D02*
X97300000Y-98850000D01*
X96800000Y-99850000D02*
X97300000Y-99850000D01*
X96800000Y-98850000D02*
X96800000Y-99850000D01*
X97300000Y-98850000D02*
X96800000Y-98850000D01*
X79800000Y-99000000D02*
X79800000Y-100000000D01*
X80300000Y-99000000D02*
X79800000Y-99000000D01*
X80300000Y-100000000D02*
X80300000Y-99000000D01*
X79800000Y-100000000D02*
X80300000Y-100000000D01*
X79315000Y-95150000D02*
X80315000Y-95150000D01*
X79315000Y-94650000D02*
X79315000Y-95150000D01*
X80315000Y-94650000D02*
X79315000Y-94650000D01*
X80315000Y-95150000D02*
X80315000Y-94650000D01*
X77400000Y-97850000D02*
X78400000Y-97850000D01*
X77400000Y-97350000D02*
X77400000Y-97850000D01*
X78400000Y-97350000D02*
X77400000Y-97350000D01*
X78400000Y-97850000D02*
X78400000Y-97350000D01*
X89600000Y-95250000D02*
X89600000Y-96250000D01*
X90100000Y-95250000D02*
X89600000Y-95250000D01*
X90100000Y-96250000D02*
X90100000Y-95250000D01*
X89600000Y-96250000D02*
X90100000Y-96250000D01*
X71600000Y-99700000D02*
X72600000Y-99700000D01*
X71600000Y-99200000D02*
X71600000Y-99700000D01*
X72600000Y-99200000D02*
X71600000Y-99200000D01*
X72600000Y-99700000D02*
X72600000Y-99200000D01*
X83200000Y-94550000D02*
X84200000Y-94550000D01*
X83200000Y-94050000D02*
X83200000Y-94550000D01*
X84200000Y-94050000D02*
X83200000Y-94050000D01*
X84200000Y-94550000D02*
X84200000Y-94050000D01*
X82600000Y-97250000D02*
X81600000Y-97250000D01*
X82600000Y-97750000D02*
X82600000Y-97250000D01*
X81600000Y-97750000D02*
X82600000Y-97750000D01*
X81600000Y-97250000D02*
X81600000Y-97750000D01*
X66150000Y-98250000D02*
X66150000Y-97250000D01*
X65650000Y-98250000D02*
X66150000Y-98250000D01*
X65650000Y-97250000D02*
X65650000Y-98250000D01*
X66150000Y-97250000D02*
X65650000Y-97250000D01*
X66150000Y-96250000D02*
X66150000Y-95250000D01*
X65650000Y-96250000D02*
X66150000Y-96250000D01*
X65650000Y-95250000D02*
X65650000Y-96250000D01*
X66150000Y-95250000D02*
X65650000Y-95250000D01*
X74050000Y-98265000D02*
X74050000Y-97265000D01*
X73550000Y-98265000D02*
X74050000Y-98265000D01*
X73550000Y-97265000D02*
X73550000Y-98265000D01*
X74050000Y-97265000D02*
X73550000Y-97265000D01*
X72000000Y-91800000D02*
X73000000Y-91800000D01*
X72000000Y-91300000D02*
X72000000Y-91800000D01*
X73000000Y-91300000D02*
X72000000Y-91300000D01*
X73000000Y-91800000D02*
X73000000Y-91300000D01*
X67800000Y-91300000D02*
X66800000Y-91300000D01*
X67800000Y-91800000D02*
X67800000Y-91300000D01*
X66800000Y-91800000D02*
X67800000Y-91800000D01*
X66800000Y-91300000D02*
X66800000Y-91800000D01*
X66150000Y-94265000D02*
X66150000Y-93265000D01*
X65650000Y-94265000D02*
X66150000Y-94265000D01*
X65650000Y-93265000D02*
X65650000Y-94265000D01*
X66150000Y-93265000D02*
X65650000Y-93265000D01*
X68600000Y-99200000D02*
X67600000Y-99200000D01*
X68600000Y-99700000D02*
X68600000Y-99200000D01*
X67600000Y-99700000D02*
X68600000Y-99700000D01*
X67600000Y-99200000D02*
X67600000Y-99700000D01*
X86950000Y-95000000D02*
X86950000Y-96000000D01*
X87450000Y-95000000D02*
X86950000Y-95000000D01*
X87450000Y-96000000D02*
X87450000Y-95000000D01*
X86950000Y-96000000D02*
X87450000Y-96000000D01*
X76400000Y-109850000D02*
X75400000Y-109850000D01*
X76400000Y-110350000D02*
X76400000Y-109850000D01*
X75400000Y-110350000D02*
X76400000Y-110350000D01*
X75400000Y-109850000D02*
X75400000Y-110350000D01*
X72900000Y-109850000D02*
X71900000Y-109850000D01*
X72900000Y-110350000D02*
X72900000Y-109850000D01*
X71900000Y-110350000D02*
X72900000Y-110350000D01*
X71900000Y-109850000D02*
X71900000Y-110350000D01*
X101300000Y-105450000D02*
X101300000Y-104450000D01*
X100800000Y-105450000D02*
X101300000Y-105450000D01*
X100800000Y-104450000D02*
X100800000Y-105450000D01*
X101300000Y-104450000D02*
X100800000Y-104450000D01*
X101300000Y-102650000D02*
X101300000Y-101650000D01*
X100800000Y-102650000D02*
X101300000Y-102650000D01*
X100800000Y-101650000D02*
X100800000Y-102650000D01*
X101300000Y-101650000D02*
X100800000Y-101650000D01*
X88150000Y-98550000D02*
X87150000Y-98550000D01*
X88150000Y-99050000D02*
X88150000Y-98550000D01*
X87150000Y-99050000D02*
X88150000Y-99050000D01*
X87150000Y-98550000D02*
X87150000Y-99050000D01*
X85450000Y-94300000D02*
X85450000Y-95300000D01*
X85950000Y-94300000D02*
X85450000Y-94300000D01*
X85950000Y-95300000D02*
X85950000Y-94300000D01*
X85450000Y-95300000D02*
X85950000Y-95300000D01*
X85800000Y-93250000D02*
X84800000Y-93250000D01*
X85800000Y-93750000D02*
X85800000Y-93250000D01*
X84800000Y-93750000D02*
X85800000Y-93750000D01*
X84800000Y-93250000D02*
X84800000Y-93750000D01*
X101300000Y-99850000D02*
X101300000Y-98850000D01*
X100800000Y-99850000D02*
X101300000Y-99850000D01*
X100800000Y-98850000D02*
X100800000Y-99850000D01*
X101300000Y-98850000D02*
X100800000Y-98850000D01*
X101300000Y-97050000D02*
X101300000Y-96050000D01*
X100800000Y-97050000D02*
X101300000Y-97050000D01*
X100800000Y-96050000D02*
X100800000Y-97050000D01*
X101300000Y-96050000D02*
X100800000Y-96050000D01*
X99400000Y-105450000D02*
X99400000Y-104450000D01*
X98900000Y-105450000D02*
X99400000Y-105450000D01*
X98900000Y-104450000D02*
X98900000Y-105450000D01*
X99400000Y-104450000D02*
X98900000Y-104450000D01*
X99400000Y-102650000D02*
X99400000Y-101650000D01*
X98900000Y-102650000D02*
X99400000Y-102650000D01*
X98900000Y-101650000D02*
X98900000Y-102650000D01*
X99400000Y-101650000D02*
X98900000Y-101650000D01*
X99400000Y-99850000D02*
X99400000Y-98850000D01*
X98900000Y-99850000D02*
X99400000Y-99850000D01*
X98900000Y-98850000D02*
X98900000Y-99850000D01*
X99400000Y-98850000D02*
X98900000Y-98850000D01*
X99400000Y-97050000D02*
X99400000Y-96050000D01*
X98900000Y-97050000D02*
X99400000Y-97050000D01*
X98900000Y-96050000D02*
X98900000Y-97050000D01*
X99400000Y-96050000D02*
X98900000Y-96050000D01*
X97300000Y-91450000D02*
X97300000Y-90450000D01*
X96800000Y-91450000D02*
X97300000Y-91450000D01*
X96800000Y-90450000D02*
X96800000Y-91450000D01*
X97300000Y-90450000D02*
X96800000Y-90450000D01*
X97300000Y-97000000D02*
X97300000Y-96000000D01*
X96800000Y-97000000D02*
X97300000Y-97000000D01*
X96800000Y-96000000D02*
X96800000Y-97000000D01*
X97300000Y-96000000D02*
X96800000Y-96000000D01*
X95400000Y-97000000D02*
X95400000Y-96000000D01*
X94900000Y-97000000D02*
X95400000Y-97000000D01*
X94900000Y-96000000D02*
X94900000Y-97000000D01*
X95400000Y-96000000D02*
X94900000Y-96000000D01*
X101300000Y-94250000D02*
X101300000Y-93250000D01*
X100800000Y-94250000D02*
X101300000Y-94250000D01*
X100800000Y-93250000D02*
X100800000Y-94250000D01*
X101300000Y-93250000D02*
X100800000Y-93250000D01*
X101300000Y-91450000D02*
X101300000Y-90450000D01*
X100800000Y-91450000D02*
X101300000Y-91450000D01*
X100800000Y-90450000D02*
X100800000Y-91450000D01*
X101300000Y-90450000D02*
X100800000Y-90450000D01*
X101300000Y-88650000D02*
X101300000Y-87650000D01*
X100800000Y-88650000D02*
X101300000Y-88650000D01*
X100800000Y-87650000D02*
X100800000Y-88650000D01*
X101300000Y-87650000D02*
X100800000Y-87650000D01*
X101300000Y-85850000D02*
X101300000Y-84850000D01*
X100800000Y-85850000D02*
X101300000Y-85850000D01*
X100800000Y-84850000D02*
X100800000Y-85850000D01*
X101300000Y-84850000D02*
X100800000Y-84850000D01*
X99400000Y-94250000D02*
X99400000Y-93250000D01*
X98900000Y-94250000D02*
X99400000Y-94250000D01*
X98900000Y-93250000D02*
X98900000Y-94250000D01*
X99400000Y-93250000D02*
X98900000Y-93250000D01*
X83200000Y-96950000D02*
X84200000Y-96950000D01*
X83200000Y-96450000D02*
X83200000Y-96950000D01*
X84200000Y-96450000D02*
X83200000Y-96450000D01*
X84200000Y-96950000D02*
X84200000Y-96450000D01*
X84650000Y-95000000D02*
X84650000Y-96000000D01*
X85150000Y-95000000D02*
X84650000Y-95000000D01*
X85150000Y-96000000D02*
X85150000Y-95000000D01*
X84650000Y-96000000D02*
X85150000Y-96000000D01*
X81950000Y-95200000D02*
X81950000Y-94200000D01*
X81450000Y-95200000D02*
X81950000Y-95200000D01*
X81450000Y-94200000D02*
X81450000Y-95200000D01*
X81950000Y-94200000D02*
X81450000Y-94200000D01*
D13*
X122321428Y-118478571D02*
X122421428Y-118478571D01*
X122421428Y-118635714D02*
X122421428Y-118335714D01*
X122278571Y-118335714D01*
X122164285Y-118635714D02*
X122164285Y-118335714D01*
X122021428Y-118635714D02*
X122021428Y-118335714D01*
X121950000Y-118335714D01*
X121907142Y-118350000D01*
X121878571Y-118378571D01*
X121864285Y-118407142D01*
X121850000Y-118464285D01*
X121850000Y-118507142D01*
X121864285Y-118564285D01*
X121878571Y-118592857D01*
X121907142Y-118621428D01*
X121950000Y-118635714D01*
X122021428Y-118635714D01*
X121592857Y-118335714D02*
X121650000Y-118335714D01*
X121678571Y-118350000D01*
X121692857Y-118364285D01*
X121721428Y-118407142D01*
X121735714Y-118464285D01*
X121735714Y-118578571D01*
X121721428Y-118607142D01*
X121707142Y-118621428D01*
X121678571Y-118635714D01*
X121621428Y-118635714D01*
X121592857Y-118621428D01*
X121578571Y-118607142D01*
X121564285Y-118578571D01*
X121564285Y-118507142D01*
X121578571Y-118478571D01*
X121592857Y-118464285D01*
X121621428Y-118450000D01*
X121678571Y-118450000D01*
X121707142Y-118464285D01*
X121721428Y-118478571D01*
X121735714Y-118507142D01*
X122321428Y-72478571D02*
X122421428Y-72478571D01*
X122421428Y-72635714D02*
X122421428Y-72335714D01*
X122278571Y-72335714D01*
X122164285Y-72635714D02*
X122164285Y-72335714D01*
X122021428Y-72635714D02*
X122021428Y-72335714D01*
X121950000Y-72335714D01*
X121907142Y-72350000D01*
X121878571Y-72378571D01*
X121864285Y-72407142D01*
X121850000Y-72464285D01*
X121850000Y-72507142D01*
X121864285Y-72564285D01*
X121878571Y-72592857D01*
X121907142Y-72621428D01*
X121950000Y-72635714D01*
X122021428Y-72635714D01*
X121578571Y-72335714D02*
X121721428Y-72335714D01*
X121735714Y-72478571D01*
X121721428Y-72464285D01*
X121692857Y-72450000D01*
X121621428Y-72450000D01*
X121592857Y-72464285D01*
X121578571Y-72478571D01*
X121564285Y-72507142D01*
X121564285Y-72578571D01*
X121578571Y-72607142D01*
X121592857Y-72621428D01*
X121621428Y-72635714D01*
X121692857Y-72635714D01*
X121721428Y-72621428D01*
X121735714Y-72607142D01*
X58321428Y-118478571D02*
X58421428Y-118478571D01*
X58421428Y-118635714D02*
X58421428Y-118335714D01*
X58278571Y-118335714D01*
X58164285Y-118635714D02*
X58164285Y-118335714D01*
X58021428Y-118635714D02*
X58021428Y-118335714D01*
X57950000Y-118335714D01*
X57907142Y-118350000D01*
X57878571Y-118378571D01*
X57864285Y-118407142D01*
X57850000Y-118464285D01*
X57850000Y-118507142D01*
X57864285Y-118564285D01*
X57878571Y-118592857D01*
X57907142Y-118621428D01*
X57950000Y-118635714D01*
X58021428Y-118635714D01*
X57592857Y-118435714D02*
X57592857Y-118635714D01*
X57664285Y-118321428D02*
X57735714Y-118535714D01*
X57550000Y-118535714D01*
D14*
X120830952Y-87342857D02*
X120640476Y-87209523D01*
X120830952Y-87114285D02*
X120430952Y-87114285D01*
X120430952Y-87266666D01*
X120450000Y-87304761D01*
X120469047Y-87323809D01*
X120507142Y-87342857D01*
X120564285Y-87342857D01*
X120602380Y-87323809D01*
X120621428Y-87304761D01*
X120640476Y-87266666D01*
X120640476Y-87114285D01*
X120430952Y-87704761D02*
X120430952Y-87514285D01*
X120621428Y-87495238D01*
X120602380Y-87514285D01*
X120583333Y-87552380D01*
X120583333Y-87647619D01*
X120602380Y-87685714D01*
X120621428Y-87704761D01*
X120659523Y-87723809D01*
X120754761Y-87723809D01*
X120792857Y-87704761D01*
X120811904Y-87685714D01*
X120830952Y-87647619D01*
X120830952Y-87552380D01*
X120811904Y-87514285D01*
X120792857Y-87495238D01*
X120830952Y-88104761D02*
X120830952Y-87876190D01*
X120830952Y-87990476D02*
X120430952Y-87990476D01*
X120488095Y-87952380D01*
X120526190Y-87914285D01*
X120545238Y-87876190D01*
X126130952Y-103142857D02*
X125940476Y-103009523D01*
X126130952Y-102914285D02*
X125730952Y-102914285D01*
X125730952Y-103066666D01*
X125750000Y-103104761D01*
X125769047Y-103123809D01*
X125807142Y-103142857D01*
X125864285Y-103142857D01*
X125902380Y-103123809D01*
X125921428Y-103104761D01*
X125940476Y-103066666D01*
X125940476Y-102914285D01*
X125730952Y-103504761D02*
X125730952Y-103314285D01*
X125921428Y-103295238D01*
X125902380Y-103314285D01*
X125883333Y-103352380D01*
X125883333Y-103447619D01*
X125902380Y-103485714D01*
X125921428Y-103504761D01*
X125959523Y-103523809D01*
X126054761Y-103523809D01*
X126092857Y-103504761D01*
X126111904Y-103485714D01*
X126130952Y-103447619D01*
X126130952Y-103352380D01*
X126111904Y-103314285D01*
X126092857Y-103295238D01*
X125730952Y-103771428D02*
X125730952Y-103809523D01*
X125750000Y-103847619D01*
X125769047Y-103866666D01*
X125807142Y-103885714D01*
X125883333Y-103904761D01*
X125978571Y-103904761D01*
X126054761Y-103885714D01*
X126092857Y-103866666D01*
X126111904Y-103847619D01*
X126130952Y-103809523D01*
X126130952Y-103771428D01*
X126111904Y-103733333D01*
X126092857Y-103714285D01*
X126054761Y-103695238D01*
X125978571Y-103676190D01*
X125883333Y-103676190D01*
X125807142Y-103695238D01*
X125769047Y-103714285D01*
X125750000Y-103733333D01*
X125730952Y-103771428D01*
X120830952Y-90333333D02*
X120640476Y-90200000D01*
X120830952Y-90104761D02*
X120430952Y-90104761D01*
X120430952Y-90257142D01*
X120450000Y-90295238D01*
X120469047Y-90314285D01*
X120507142Y-90333333D01*
X120564285Y-90333333D01*
X120602380Y-90314285D01*
X120621428Y-90295238D01*
X120640476Y-90257142D01*
X120640476Y-90104761D01*
X120602380Y-90561904D02*
X120583333Y-90523809D01*
X120564285Y-90504761D01*
X120526190Y-90485714D01*
X120507142Y-90485714D01*
X120469047Y-90504761D01*
X120450000Y-90523809D01*
X120430952Y-90561904D01*
X120430952Y-90638095D01*
X120450000Y-90676190D01*
X120469047Y-90695238D01*
X120507142Y-90714285D01*
X120526190Y-90714285D01*
X120564285Y-90695238D01*
X120583333Y-90676190D01*
X120602380Y-90638095D01*
X120602380Y-90561904D01*
X120621428Y-90523809D01*
X120640476Y-90504761D01*
X120678571Y-90485714D01*
X120754761Y-90485714D01*
X120792857Y-90504761D01*
X120811904Y-90523809D01*
X120830952Y-90561904D01*
X120830952Y-90638095D01*
X120811904Y-90676190D01*
X120792857Y-90695238D01*
X120754761Y-90714285D01*
X120678571Y-90714285D01*
X120640476Y-90695238D01*
X120621428Y-90676190D01*
X120602380Y-90638095D01*
X126130952Y-100533333D02*
X125940476Y-100400000D01*
X126130952Y-100304761D02*
X125730952Y-100304761D01*
X125730952Y-100457142D01*
X125750000Y-100495238D01*
X125769047Y-100514285D01*
X125807142Y-100533333D01*
X125864285Y-100533333D01*
X125902380Y-100514285D01*
X125921428Y-100495238D01*
X125940476Y-100457142D01*
X125940476Y-100304761D01*
X125730952Y-100876190D02*
X125730952Y-100800000D01*
X125750000Y-100761904D01*
X125769047Y-100742857D01*
X125826190Y-100704761D01*
X125902380Y-100685714D01*
X126054761Y-100685714D01*
X126092857Y-100704761D01*
X126111904Y-100723809D01*
X126130952Y-100761904D01*
X126130952Y-100838095D01*
X126111904Y-100876190D01*
X126092857Y-100895238D01*
X126054761Y-100914285D01*
X125959523Y-100914285D01*
X125921428Y-100895238D01*
X125902380Y-100876190D01*
X125883333Y-100838095D01*
X125883333Y-100761904D01*
X125902380Y-100723809D01*
X125921428Y-100704761D01*
X125959523Y-100685714D01*
X124230952Y-103142857D02*
X124040476Y-103009523D01*
X124230952Y-102914285D02*
X123830952Y-102914285D01*
X123830952Y-103066666D01*
X123850000Y-103104761D01*
X123869047Y-103123809D01*
X123907142Y-103142857D01*
X123964285Y-103142857D01*
X124002380Y-103123809D01*
X124021428Y-103104761D01*
X124040476Y-103066666D01*
X124040476Y-102914285D01*
X123964285Y-103485714D02*
X124230952Y-103485714D01*
X123811904Y-103390476D02*
X124097619Y-103295238D01*
X124097619Y-103542857D01*
X124002380Y-103752380D02*
X123983333Y-103714285D01*
X123964285Y-103695238D01*
X123926190Y-103676190D01*
X123907142Y-103676190D01*
X123869047Y-103695238D01*
X123850000Y-103714285D01*
X123830952Y-103752380D01*
X123830952Y-103828571D01*
X123850000Y-103866666D01*
X123869047Y-103885714D01*
X123907142Y-103904761D01*
X123926190Y-103904761D01*
X123964285Y-103885714D01*
X123983333Y-103866666D01*
X124002380Y-103828571D01*
X124002380Y-103752380D01*
X124021428Y-103714285D01*
X124040476Y-103695238D01*
X124078571Y-103676190D01*
X124154761Y-103676190D01*
X124192857Y-103695238D01*
X124211904Y-103714285D01*
X124230952Y-103752380D01*
X124230952Y-103828571D01*
X124211904Y-103866666D01*
X124192857Y-103885714D01*
X124154761Y-103904761D01*
X124078571Y-103904761D01*
X124040476Y-103885714D01*
X124021428Y-103866666D01*
X124002380Y-103828571D01*
X122730952Y-87342857D02*
X122540476Y-87209523D01*
X122730952Y-87114285D02*
X122330952Y-87114285D01*
X122330952Y-87266666D01*
X122350000Y-87304761D01*
X122369047Y-87323809D01*
X122407142Y-87342857D01*
X122464285Y-87342857D01*
X122502380Y-87323809D01*
X122521428Y-87304761D01*
X122540476Y-87266666D01*
X122540476Y-87114285D01*
X122464285Y-87685714D02*
X122730952Y-87685714D01*
X122311904Y-87590476D02*
X122597619Y-87495238D01*
X122597619Y-87742857D01*
X122730952Y-87914285D02*
X122730952Y-87990476D01*
X122711904Y-88028571D01*
X122692857Y-88047619D01*
X122635714Y-88085714D01*
X122559523Y-88104761D01*
X122407142Y-88104761D01*
X122369047Y-88085714D01*
X122350000Y-88066666D01*
X122330952Y-88028571D01*
X122330952Y-87952380D01*
X122350000Y-87914285D01*
X122369047Y-87895238D01*
X122407142Y-87876190D01*
X122502380Y-87876190D01*
X122540476Y-87895238D01*
X122559523Y-87914285D01*
X122578571Y-87952380D01*
X122578571Y-88028571D01*
X122559523Y-88066666D01*
X122540476Y-88085714D01*
X122502380Y-88104761D01*
X124230952Y-100533333D02*
X124040476Y-100400000D01*
X124230952Y-100304761D02*
X123830952Y-100304761D01*
X123830952Y-100457142D01*
X123850000Y-100495238D01*
X123869047Y-100514285D01*
X123907142Y-100533333D01*
X123964285Y-100533333D01*
X124002380Y-100514285D01*
X124021428Y-100495238D01*
X124040476Y-100457142D01*
X124040476Y-100304761D01*
X123830952Y-100666666D02*
X123830952Y-100933333D01*
X124230952Y-100761904D01*
X122730952Y-90142857D02*
X122540476Y-90009523D01*
X122730952Y-89914285D02*
X122330952Y-89914285D01*
X122330952Y-90066666D01*
X122350000Y-90104761D01*
X122369047Y-90123809D01*
X122407142Y-90142857D01*
X122464285Y-90142857D01*
X122502380Y-90123809D01*
X122521428Y-90104761D01*
X122540476Y-90066666D01*
X122540476Y-89914285D01*
X122330952Y-90504761D02*
X122330952Y-90314285D01*
X122521428Y-90295238D01*
X122502380Y-90314285D01*
X122483333Y-90352380D01*
X122483333Y-90447619D01*
X122502380Y-90485714D01*
X122521428Y-90504761D01*
X122559523Y-90523809D01*
X122654761Y-90523809D01*
X122692857Y-90504761D01*
X122711904Y-90485714D01*
X122730952Y-90447619D01*
X122730952Y-90352380D01*
X122711904Y-90314285D01*
X122692857Y-90295238D01*
X122330952Y-90866666D02*
X122330952Y-90790476D01*
X122350000Y-90752380D01*
X122369047Y-90733333D01*
X122426190Y-90695238D01*
X122502380Y-90676190D01*
X122654761Y-90676190D01*
X122692857Y-90695238D01*
X122711904Y-90714285D01*
X122730952Y-90752380D01*
X122730952Y-90828571D01*
X122711904Y-90866666D01*
X122692857Y-90885714D01*
X122654761Y-90904761D01*
X122559523Y-90904761D01*
X122521428Y-90885714D01*
X122502380Y-90866666D01*
X122483333Y-90828571D01*
X122483333Y-90752380D01*
X122502380Y-90714285D01*
X122521428Y-90695238D01*
X122559523Y-90676190D01*
D15*
X120913095Y-84939285D02*
X120794047Y-84855952D01*
X120913095Y-84796428D02*
X120663095Y-84796428D01*
X120663095Y-84891666D01*
X120675000Y-84915476D01*
X120686904Y-84927380D01*
X120710714Y-84939285D01*
X120746428Y-84939285D01*
X120770238Y-84927380D01*
X120782142Y-84915476D01*
X120794047Y-84891666D01*
X120794047Y-84796428D01*
X120663095Y-85153571D02*
X120663095Y-85105952D01*
X120675000Y-85082142D01*
X120686904Y-85070238D01*
X120722619Y-85046428D01*
X120770238Y-85034523D01*
X120865476Y-85034523D01*
X120889285Y-85046428D01*
X120901190Y-85058333D01*
X120913095Y-85082142D01*
X120913095Y-85129761D01*
X120901190Y-85153571D01*
X120889285Y-85165476D01*
X120865476Y-85177380D01*
X120805952Y-85177380D01*
X120782142Y-85165476D01*
X120770238Y-85153571D01*
X120758333Y-85129761D01*
X120758333Y-85082142D01*
X120770238Y-85058333D01*
X120782142Y-85046428D01*
X120805952Y-85034523D01*
X120663095Y-85332142D02*
X120663095Y-85355952D01*
X120675000Y-85379761D01*
X120686904Y-85391666D01*
X120710714Y-85403571D01*
X120758333Y-85415476D01*
X120817857Y-85415476D01*
X120865476Y-85403571D01*
X120889285Y-85391666D01*
X120901190Y-85379761D01*
X120913095Y-85355952D01*
X120913095Y-85332142D01*
X120901190Y-85308333D01*
X120889285Y-85296428D01*
X120865476Y-85284523D01*
X120817857Y-85272619D01*
X120758333Y-85272619D01*
X120710714Y-85284523D01*
X120686904Y-85296428D01*
X120675000Y-85308333D01*
X120663095Y-85332142D01*
X127113095Y-105739285D02*
X126994047Y-105655952D01*
X127113095Y-105596428D02*
X126863095Y-105596428D01*
X126863095Y-105691666D01*
X126875000Y-105715476D01*
X126886904Y-105727380D01*
X126910714Y-105739285D01*
X126946428Y-105739285D01*
X126970238Y-105727380D01*
X126982142Y-105715476D01*
X126994047Y-105691666D01*
X126994047Y-105596428D01*
X126863095Y-105965476D02*
X126863095Y-105846428D01*
X126982142Y-105834523D01*
X126970238Y-105846428D01*
X126958333Y-105870238D01*
X126958333Y-105929761D01*
X126970238Y-105953571D01*
X126982142Y-105965476D01*
X127005952Y-105977380D01*
X127065476Y-105977380D01*
X127089285Y-105965476D01*
X127101190Y-105953571D01*
X127113095Y-105929761D01*
X127113095Y-105870238D01*
X127101190Y-105846428D01*
X127089285Y-105834523D01*
X127113095Y-106096428D02*
X127113095Y-106144047D01*
X127101190Y-106167857D01*
X127089285Y-106179761D01*
X127053571Y-106203571D01*
X127005952Y-106215476D01*
X126910714Y-106215476D01*
X126886904Y-106203571D01*
X126875000Y-106191666D01*
X126863095Y-106167857D01*
X126863095Y-106120238D01*
X126875000Y-106096428D01*
X126886904Y-106084523D01*
X126910714Y-106072619D01*
X126970238Y-106072619D01*
X126994047Y-106084523D01*
X127005952Y-106096428D01*
X127017857Y-106120238D01*
X127017857Y-106167857D01*
X127005952Y-106191666D01*
X126994047Y-106203571D01*
X126970238Y-106215476D01*
D14*
X88542857Y-95242857D02*
X88561904Y-95223809D01*
X88580952Y-95166666D01*
X88580952Y-95128571D01*
X88561904Y-95071428D01*
X88523809Y-95033333D01*
X88485714Y-95014285D01*
X88409523Y-94995238D01*
X88352380Y-94995238D01*
X88276190Y-95014285D01*
X88238095Y-95033333D01*
X88200000Y-95071428D01*
X88180952Y-95128571D01*
X88180952Y-95166666D01*
X88200000Y-95223809D01*
X88219047Y-95242857D01*
X88352380Y-95471428D02*
X88333333Y-95433333D01*
X88314285Y-95414285D01*
X88276190Y-95395238D01*
X88257142Y-95395238D01*
X88219047Y-95414285D01*
X88200000Y-95433333D01*
X88180952Y-95471428D01*
X88180952Y-95547619D01*
X88200000Y-95585714D01*
X88219047Y-95604761D01*
X88257142Y-95623809D01*
X88276190Y-95623809D01*
X88314285Y-95604761D01*
X88333333Y-95585714D01*
X88352380Y-95547619D01*
X88352380Y-95471428D01*
X88371428Y-95433333D01*
X88390476Y-95414285D01*
X88428571Y-95395238D01*
X88504761Y-95395238D01*
X88542857Y-95414285D01*
X88561904Y-95433333D01*
X88580952Y-95471428D01*
X88580952Y-95547619D01*
X88561904Y-95585714D01*
X88542857Y-95604761D01*
X88504761Y-95623809D01*
X88428571Y-95623809D01*
X88390476Y-95604761D01*
X88371428Y-95585714D01*
X88352380Y-95547619D01*
X88180952Y-95871428D02*
X88180952Y-95909523D01*
X88200000Y-95947619D01*
X88219047Y-95966666D01*
X88257142Y-95985714D01*
X88333333Y-96004761D01*
X88428571Y-96004761D01*
X88504761Y-95985714D01*
X88542857Y-95966666D01*
X88561904Y-95947619D01*
X88580952Y-95909523D01*
X88580952Y-95871428D01*
X88561904Y-95833333D01*
X88542857Y-95814285D01*
X88504761Y-95795238D01*
X88428571Y-95776190D01*
X88333333Y-95776190D01*
X88257142Y-95795238D01*
X88219047Y-95814285D01*
X88200000Y-95833333D01*
X88180952Y-95871428D01*
X78857142Y-96542857D02*
X78876190Y-96561904D01*
X78933333Y-96580952D01*
X78971428Y-96580952D01*
X79028571Y-96561904D01*
X79066666Y-96523809D01*
X79085714Y-96485714D01*
X79104761Y-96409523D01*
X79104761Y-96352380D01*
X79085714Y-96276190D01*
X79066666Y-96238095D01*
X79028571Y-96200000D01*
X78971428Y-96180952D01*
X78933333Y-96180952D01*
X78876190Y-96200000D01*
X78857142Y-96219047D01*
X78723809Y-96180952D02*
X78457142Y-96180952D01*
X78628571Y-96580952D01*
X78133333Y-96180952D02*
X78209523Y-96180952D01*
X78247619Y-96200000D01*
X78266666Y-96219047D01*
X78304761Y-96276190D01*
X78323809Y-96352380D01*
X78323809Y-96504761D01*
X78304761Y-96542857D01*
X78285714Y-96561904D01*
X78247619Y-96580952D01*
X78171428Y-96580952D01*
X78133333Y-96561904D01*
X78114285Y-96542857D01*
X78095238Y-96504761D01*
X78095238Y-96409523D01*
X78114285Y-96371428D01*
X78133333Y-96352380D01*
X78171428Y-96333333D01*
X78247619Y-96333333D01*
X78285714Y-96352380D01*
X78304761Y-96371428D01*
X78323809Y-96409523D01*
X86157142Y-100142857D02*
X86176190Y-100161904D01*
X86233333Y-100180952D01*
X86271428Y-100180952D01*
X86328571Y-100161904D01*
X86366666Y-100123809D01*
X86385714Y-100085714D01*
X86404761Y-100009523D01*
X86404761Y-99952380D01*
X86385714Y-99876190D01*
X86366666Y-99838095D01*
X86328571Y-99800000D01*
X86271428Y-99780952D01*
X86233333Y-99780952D01*
X86176190Y-99800000D01*
X86157142Y-99819047D01*
X85776190Y-100180952D02*
X86004761Y-100180952D01*
X85890476Y-100180952D02*
X85890476Y-99780952D01*
X85928571Y-99838095D01*
X85966666Y-99876190D01*
X86004761Y-99895238D01*
X85585714Y-100180952D02*
X85509523Y-100180952D01*
X85471428Y-100161904D01*
X85452380Y-100142857D01*
X85414285Y-100085714D01*
X85395238Y-100009523D01*
X85395238Y-99857142D01*
X85414285Y-99819047D01*
X85433333Y-99800000D01*
X85471428Y-99780952D01*
X85547619Y-99780952D01*
X85585714Y-99800000D01*
X85604761Y-99819047D01*
X85623809Y-99857142D01*
X85623809Y-99952380D01*
X85604761Y-99990476D01*
X85585714Y-100009523D01*
X85547619Y-100028571D01*
X85471428Y-100028571D01*
X85433333Y-100009523D01*
X85414285Y-99990476D01*
X85395238Y-99952380D01*
X78292857Y-101067857D02*
X78311904Y-101048809D01*
X78330952Y-100991666D01*
X78330952Y-100953571D01*
X78311904Y-100896428D01*
X78273809Y-100858333D01*
X78235714Y-100839285D01*
X78159523Y-100820238D01*
X78102380Y-100820238D01*
X78026190Y-100839285D01*
X77988095Y-100858333D01*
X77950000Y-100896428D01*
X77930952Y-100953571D01*
X77930952Y-100991666D01*
X77950000Y-101048809D01*
X77969047Y-101067857D01*
X78330952Y-101448809D02*
X78330952Y-101220238D01*
X78330952Y-101334523D02*
X77930952Y-101334523D01*
X77988095Y-101296428D01*
X78026190Y-101258333D01*
X78045238Y-101220238D01*
X78064285Y-101791666D02*
X78330952Y-101791666D01*
X77911904Y-101696428D02*
X78197619Y-101601190D01*
X78197619Y-101848809D01*
X65466666Y-99642857D02*
X65485714Y-99661904D01*
X65542857Y-99680952D01*
X65580952Y-99680952D01*
X65638095Y-99661904D01*
X65676190Y-99623809D01*
X65695238Y-99585714D01*
X65714285Y-99509523D01*
X65714285Y-99452380D01*
X65695238Y-99376190D01*
X65676190Y-99338095D01*
X65638095Y-99300000D01*
X65580952Y-99280952D01*
X65542857Y-99280952D01*
X65485714Y-99300000D01*
X65466666Y-99319047D01*
X65085714Y-99680952D02*
X65314285Y-99680952D01*
X65200000Y-99680952D02*
X65200000Y-99280952D01*
X65238095Y-99338095D01*
X65276190Y-99376190D01*
X65314285Y-99395238D01*
D15*
X122913095Y-84939285D02*
X122794047Y-84855952D01*
X122913095Y-84796428D02*
X122663095Y-84796428D01*
X122663095Y-84891666D01*
X122675000Y-84915476D01*
X122686904Y-84927380D01*
X122710714Y-84939285D01*
X122746428Y-84939285D01*
X122770238Y-84927380D01*
X122782142Y-84915476D01*
X122794047Y-84891666D01*
X122794047Y-84796428D01*
X122663095Y-85165476D02*
X122663095Y-85046428D01*
X122782142Y-85034523D01*
X122770238Y-85046428D01*
X122758333Y-85070238D01*
X122758333Y-85129761D01*
X122770238Y-85153571D01*
X122782142Y-85165476D01*
X122805952Y-85177380D01*
X122865476Y-85177380D01*
X122889285Y-85165476D01*
X122901190Y-85153571D01*
X122913095Y-85129761D01*
X122913095Y-85070238D01*
X122901190Y-85046428D01*
X122889285Y-85034523D01*
X122746428Y-85391666D02*
X122913095Y-85391666D01*
X122651190Y-85332142D02*
X122829761Y-85272619D01*
X122829761Y-85427380D01*
X123913095Y-84939285D02*
X123794047Y-84855952D01*
X123913095Y-84796428D02*
X123663095Y-84796428D01*
X123663095Y-84891666D01*
X123675000Y-84915476D01*
X123686904Y-84927380D01*
X123710714Y-84939285D01*
X123746428Y-84939285D01*
X123770238Y-84927380D01*
X123782142Y-84915476D01*
X123794047Y-84891666D01*
X123794047Y-84796428D01*
X123663095Y-85022619D02*
X123663095Y-85177380D01*
X123758333Y-85094047D01*
X123758333Y-85129761D01*
X123770238Y-85153571D01*
X123782142Y-85165476D01*
X123805952Y-85177380D01*
X123865476Y-85177380D01*
X123889285Y-85165476D01*
X123901190Y-85153571D01*
X123913095Y-85129761D01*
X123913095Y-85058333D01*
X123901190Y-85034523D01*
X123889285Y-85022619D01*
X123663095Y-85332142D02*
X123663095Y-85355952D01*
X123675000Y-85379761D01*
X123686904Y-85391666D01*
X123710714Y-85403571D01*
X123758333Y-85415476D01*
X123817857Y-85415476D01*
X123865476Y-85403571D01*
X123889285Y-85391666D01*
X123901190Y-85379761D01*
X123913095Y-85355952D01*
X123913095Y-85332142D01*
X123901190Y-85308333D01*
X123889285Y-85296428D01*
X123865476Y-85284523D01*
X123817857Y-85272619D01*
X123758333Y-85272619D01*
X123710714Y-85284523D01*
X123686904Y-85296428D01*
X123675000Y-85308333D01*
X123663095Y-85332142D01*
X123913095Y-105739285D02*
X123794047Y-105655952D01*
X123913095Y-105596428D02*
X123663095Y-105596428D01*
X123663095Y-105691666D01*
X123675000Y-105715476D01*
X123686904Y-105727380D01*
X123710714Y-105739285D01*
X123746428Y-105739285D01*
X123770238Y-105727380D01*
X123782142Y-105715476D01*
X123794047Y-105691666D01*
X123794047Y-105596428D01*
X123686904Y-105834523D02*
X123675000Y-105846428D01*
X123663095Y-105870238D01*
X123663095Y-105929761D01*
X123675000Y-105953571D01*
X123686904Y-105965476D01*
X123710714Y-105977380D01*
X123734523Y-105977380D01*
X123770238Y-105965476D01*
X123913095Y-105822619D01*
X123913095Y-105977380D01*
X123663095Y-106203571D02*
X123663095Y-106084523D01*
X123782142Y-106072619D01*
X123770238Y-106084523D01*
X123758333Y-106108333D01*
X123758333Y-106167857D01*
X123770238Y-106191666D01*
X123782142Y-106203571D01*
X123805952Y-106215476D01*
X123865476Y-106215476D01*
X123889285Y-106203571D01*
X123901190Y-106191666D01*
X123913095Y-106167857D01*
X123913095Y-106108333D01*
X123901190Y-106084523D01*
X123889285Y-106072619D01*
X122913095Y-105739285D02*
X122794047Y-105655952D01*
X122913095Y-105596428D02*
X122663095Y-105596428D01*
X122663095Y-105691666D01*
X122675000Y-105715476D01*
X122686904Y-105727380D01*
X122710714Y-105739285D01*
X122746428Y-105739285D01*
X122770238Y-105727380D01*
X122782142Y-105715476D01*
X122794047Y-105691666D01*
X122794047Y-105596428D01*
X122686904Y-105834523D02*
X122675000Y-105846428D01*
X122663095Y-105870238D01*
X122663095Y-105929761D01*
X122675000Y-105953571D01*
X122686904Y-105965476D01*
X122710714Y-105977380D01*
X122734523Y-105977380D01*
X122770238Y-105965476D01*
X122913095Y-105822619D01*
X122913095Y-105977380D01*
X122746428Y-106191666D02*
X122913095Y-106191666D01*
X122651190Y-106132142D02*
X122829761Y-106072619D01*
X122829761Y-106227380D01*
X123460714Y-83289285D02*
X123472619Y-83301190D01*
X123508333Y-83313095D01*
X123532142Y-83313095D01*
X123567857Y-83301190D01*
X123591666Y-83277380D01*
X123603571Y-83253571D01*
X123615476Y-83205952D01*
X123615476Y-83170238D01*
X123603571Y-83122619D01*
X123591666Y-83098809D01*
X123567857Y-83075000D01*
X123532142Y-83063095D01*
X123508333Y-83063095D01*
X123472619Y-83075000D01*
X123460714Y-83086904D01*
X123234523Y-83063095D02*
X123353571Y-83063095D01*
X123365476Y-83182142D01*
X123353571Y-83170238D01*
X123329761Y-83158333D01*
X123270238Y-83158333D01*
X123246428Y-83170238D01*
X123234523Y-83182142D01*
X123222619Y-83205952D01*
X123222619Y-83265476D01*
X123234523Y-83289285D01*
X123246428Y-83301190D01*
X123270238Y-83313095D01*
X123329761Y-83313095D01*
X123353571Y-83301190D01*
X123365476Y-83289285D01*
X123079761Y-83170238D02*
X123103571Y-83158333D01*
X123115476Y-83146428D01*
X123127380Y-83122619D01*
X123127380Y-83110714D01*
X123115476Y-83086904D01*
X123103571Y-83075000D01*
X123079761Y-83063095D01*
X123032142Y-83063095D01*
X123008333Y-83075000D01*
X122996428Y-83086904D01*
X122984523Y-83110714D01*
X122984523Y-83122619D01*
X122996428Y-83146428D01*
X123008333Y-83158333D01*
X123032142Y-83170238D01*
X123079761Y-83170238D01*
X123103571Y-83182142D01*
X123115476Y-83194047D01*
X123127380Y-83217857D01*
X123127380Y-83265476D01*
X123115476Y-83289285D01*
X123103571Y-83301190D01*
X123079761Y-83313095D01*
X123032142Y-83313095D01*
X123008333Y-83301190D01*
X122996428Y-83289285D01*
X122984523Y-83265476D01*
X122984523Y-83217857D01*
X122996428Y-83194047D01*
X123008333Y-83182142D01*
X123032142Y-83170238D01*
X123460714Y-107889285D02*
X123472619Y-107901190D01*
X123508333Y-107913095D01*
X123532142Y-107913095D01*
X123567857Y-107901190D01*
X123591666Y-107877380D01*
X123603571Y-107853571D01*
X123615476Y-107805952D01*
X123615476Y-107770238D01*
X123603571Y-107722619D01*
X123591666Y-107698809D01*
X123567857Y-107675000D01*
X123532142Y-107663095D01*
X123508333Y-107663095D01*
X123472619Y-107675000D01*
X123460714Y-107686904D01*
X123246428Y-107746428D02*
X123246428Y-107913095D01*
X123305952Y-107651190D02*
X123365476Y-107829761D01*
X123210714Y-107829761D01*
X123008333Y-107746428D02*
X123008333Y-107913095D01*
X123067857Y-107651190D02*
X123127380Y-107829761D01*
X122972619Y-107829761D01*
X89889285Y-99089285D02*
X89901190Y-99077380D01*
X89913095Y-99041666D01*
X89913095Y-99017857D01*
X89901190Y-98982142D01*
X89877380Y-98958333D01*
X89853571Y-98946428D01*
X89805952Y-98934523D01*
X89770238Y-98934523D01*
X89722619Y-98946428D01*
X89698809Y-98958333D01*
X89675000Y-98982142D01*
X89663095Y-99017857D01*
X89663095Y-99041666D01*
X89675000Y-99077380D01*
X89686904Y-99089285D01*
X89770238Y-99232142D02*
X89758333Y-99208333D01*
X89746428Y-99196428D01*
X89722619Y-99184523D01*
X89710714Y-99184523D01*
X89686904Y-99196428D01*
X89675000Y-99208333D01*
X89663095Y-99232142D01*
X89663095Y-99279761D01*
X89675000Y-99303571D01*
X89686904Y-99315476D01*
X89710714Y-99327380D01*
X89722619Y-99327380D01*
X89746428Y-99315476D01*
X89758333Y-99303571D01*
X89770238Y-99279761D01*
X89770238Y-99232142D01*
X89782142Y-99208333D01*
X89794047Y-99196428D01*
X89817857Y-99184523D01*
X89865476Y-99184523D01*
X89889285Y-99196428D01*
X89901190Y-99208333D01*
X89913095Y-99232142D01*
X89913095Y-99279761D01*
X89901190Y-99303571D01*
X89889285Y-99315476D01*
X89865476Y-99327380D01*
X89817857Y-99327380D01*
X89794047Y-99315476D01*
X89782142Y-99303571D01*
X89770238Y-99279761D01*
X89663095Y-99553571D02*
X89663095Y-99434523D01*
X89782142Y-99422619D01*
X89770238Y-99434523D01*
X89758333Y-99458333D01*
X89758333Y-99517857D01*
X89770238Y-99541666D01*
X89782142Y-99553571D01*
X89805952Y-99565476D01*
X89865476Y-99565476D01*
X89889285Y-99553571D01*
X89901190Y-99541666D01*
X89913095Y-99517857D01*
X89913095Y-99458333D01*
X89901190Y-99434523D01*
X89889285Y-99422619D01*
X97139285Y-93589285D02*
X97151190Y-93577380D01*
X97163095Y-93541666D01*
X97163095Y-93517857D01*
X97151190Y-93482142D01*
X97127380Y-93458333D01*
X97103571Y-93446428D01*
X97055952Y-93434523D01*
X97020238Y-93434523D01*
X96972619Y-93446428D01*
X96948809Y-93458333D01*
X96925000Y-93482142D01*
X96913095Y-93517857D01*
X96913095Y-93541666D01*
X96925000Y-93577380D01*
X96936904Y-93589285D01*
X96996428Y-93803571D02*
X97163095Y-93803571D01*
X96901190Y-93744047D02*
X97079761Y-93684523D01*
X97079761Y-93839285D01*
X97163095Y-94065476D02*
X97163095Y-93922619D01*
X97163095Y-93994047D02*
X96913095Y-93994047D01*
X96948809Y-93970238D01*
X96972619Y-93946428D01*
X96984523Y-93922619D01*
X99239285Y-90789285D02*
X99251190Y-90777380D01*
X99263095Y-90741666D01*
X99263095Y-90717857D01*
X99251190Y-90682142D01*
X99227380Y-90658333D01*
X99203571Y-90646428D01*
X99155952Y-90634523D01*
X99120238Y-90634523D01*
X99072619Y-90646428D01*
X99048809Y-90658333D01*
X99025000Y-90682142D01*
X99013095Y-90717857D01*
X99013095Y-90741666D01*
X99025000Y-90777380D01*
X99036904Y-90789285D01*
X99096428Y-91003571D02*
X99263095Y-91003571D01*
X99001190Y-90944047D02*
X99179761Y-90884523D01*
X99179761Y-91039285D01*
X99013095Y-91110714D02*
X99013095Y-91277380D01*
X99263095Y-91170238D01*
X99239285Y-87989285D02*
X99251190Y-87977380D01*
X99263095Y-87941666D01*
X99263095Y-87917857D01*
X99251190Y-87882142D01*
X99227380Y-87858333D01*
X99203571Y-87846428D01*
X99155952Y-87834523D01*
X99120238Y-87834523D01*
X99072619Y-87846428D01*
X99048809Y-87858333D01*
X99025000Y-87882142D01*
X99013095Y-87917857D01*
X99013095Y-87941666D01*
X99025000Y-87977380D01*
X99036904Y-87989285D01*
X99096428Y-88203571D02*
X99263095Y-88203571D01*
X99001190Y-88144047D02*
X99179761Y-88084523D01*
X99179761Y-88239285D01*
X99013095Y-88310714D02*
X99013095Y-88465476D01*
X99108333Y-88382142D01*
X99108333Y-88417857D01*
X99120238Y-88441666D01*
X99132142Y-88453571D01*
X99155952Y-88465476D01*
X99215476Y-88465476D01*
X99239285Y-88453571D01*
X99251190Y-88441666D01*
X99263095Y-88417857D01*
X99263095Y-88346428D01*
X99251190Y-88322619D01*
X99239285Y-88310714D01*
X99239285Y-85189285D02*
X99251190Y-85177380D01*
X99263095Y-85141666D01*
X99263095Y-85117857D01*
X99251190Y-85082142D01*
X99227380Y-85058333D01*
X99203571Y-85046428D01*
X99155952Y-85034523D01*
X99120238Y-85034523D01*
X99072619Y-85046428D01*
X99048809Y-85058333D01*
X99025000Y-85082142D01*
X99013095Y-85117857D01*
X99013095Y-85141666D01*
X99025000Y-85177380D01*
X99036904Y-85189285D01*
X99096428Y-85403571D02*
X99263095Y-85403571D01*
X99001190Y-85344047D02*
X99179761Y-85284523D01*
X99179761Y-85439285D01*
X99036904Y-85522619D02*
X99025000Y-85534523D01*
X99013095Y-85558333D01*
X99013095Y-85617857D01*
X99025000Y-85641666D01*
X99036904Y-85653571D01*
X99060714Y-85665476D01*
X99084523Y-85665476D01*
X99120238Y-85653571D01*
X99263095Y-85510714D01*
X99263095Y-85665476D01*
X97139285Y-87989285D02*
X97151190Y-87977380D01*
X97163095Y-87941666D01*
X97163095Y-87917857D01*
X97151190Y-87882142D01*
X97127380Y-87858333D01*
X97103571Y-87846428D01*
X97055952Y-87834523D01*
X97020238Y-87834523D01*
X96972619Y-87846428D01*
X96948809Y-87858333D01*
X96925000Y-87882142D01*
X96913095Y-87917857D01*
X96913095Y-87941666D01*
X96925000Y-87977380D01*
X96936904Y-87989285D01*
X96913095Y-88072619D02*
X96913095Y-88227380D01*
X97008333Y-88144047D01*
X97008333Y-88179761D01*
X97020238Y-88203571D01*
X97032142Y-88215476D01*
X97055952Y-88227380D01*
X97115476Y-88227380D01*
X97139285Y-88215476D01*
X97151190Y-88203571D01*
X97163095Y-88179761D01*
X97163095Y-88108333D01*
X97151190Y-88084523D01*
X97139285Y-88072619D01*
X97163095Y-88346428D02*
X97163095Y-88394047D01*
X97151190Y-88417857D01*
X97139285Y-88429761D01*
X97103571Y-88453571D01*
X97055952Y-88465476D01*
X96960714Y-88465476D01*
X96936904Y-88453571D01*
X96925000Y-88441666D01*
X96913095Y-88417857D01*
X96913095Y-88370238D01*
X96925000Y-88346428D01*
X96936904Y-88334523D01*
X96960714Y-88322619D01*
X97020238Y-88322619D01*
X97044047Y-88334523D01*
X97055952Y-88346428D01*
X97067857Y-88370238D01*
X97067857Y-88417857D01*
X97055952Y-88441666D01*
X97044047Y-88453571D01*
X97020238Y-88465476D01*
X95239285Y-90789285D02*
X95251190Y-90777380D01*
X95263095Y-90741666D01*
X95263095Y-90717857D01*
X95251190Y-90682142D01*
X95227380Y-90658333D01*
X95203571Y-90646428D01*
X95155952Y-90634523D01*
X95120238Y-90634523D01*
X95072619Y-90646428D01*
X95048809Y-90658333D01*
X95025000Y-90682142D01*
X95013095Y-90717857D01*
X95013095Y-90741666D01*
X95025000Y-90777380D01*
X95036904Y-90789285D01*
X95013095Y-90872619D02*
X95013095Y-91027380D01*
X95108333Y-90944047D01*
X95108333Y-90979761D01*
X95120238Y-91003571D01*
X95132142Y-91015476D01*
X95155952Y-91027380D01*
X95215476Y-91027380D01*
X95239285Y-91015476D01*
X95251190Y-91003571D01*
X95263095Y-90979761D01*
X95263095Y-90908333D01*
X95251190Y-90884523D01*
X95239285Y-90872619D01*
X95013095Y-91241666D02*
X95013095Y-91194047D01*
X95025000Y-91170238D01*
X95036904Y-91158333D01*
X95072619Y-91134523D01*
X95120238Y-91122619D01*
X95215476Y-91122619D01*
X95239285Y-91134523D01*
X95251190Y-91146428D01*
X95263095Y-91170238D01*
X95263095Y-91217857D01*
X95251190Y-91241666D01*
X95239285Y-91253571D01*
X95215476Y-91265476D01*
X95155952Y-91265476D01*
X95132142Y-91253571D01*
X95120238Y-91241666D01*
X95108333Y-91217857D01*
X95108333Y-91170238D01*
X95120238Y-91146428D01*
X95132142Y-91134523D01*
X95155952Y-91122619D01*
X95239285Y-93589285D02*
X95251190Y-93577380D01*
X95263095Y-93541666D01*
X95263095Y-93517857D01*
X95251190Y-93482142D01*
X95227380Y-93458333D01*
X95203571Y-93446428D01*
X95155952Y-93434523D01*
X95120238Y-93434523D01*
X95072619Y-93446428D01*
X95048809Y-93458333D01*
X95025000Y-93482142D01*
X95013095Y-93517857D01*
X95013095Y-93541666D01*
X95025000Y-93577380D01*
X95036904Y-93589285D01*
X95013095Y-93672619D02*
X95013095Y-93827380D01*
X95108333Y-93744047D01*
X95108333Y-93779761D01*
X95120238Y-93803571D01*
X95132142Y-93815476D01*
X95155952Y-93827380D01*
X95215476Y-93827380D01*
X95239285Y-93815476D01*
X95251190Y-93803571D01*
X95263095Y-93779761D01*
X95263095Y-93708333D01*
X95251190Y-93684523D01*
X95239285Y-93672619D01*
X95013095Y-93910714D02*
X95013095Y-94077380D01*
X95263095Y-93970238D01*
X95239285Y-87989285D02*
X95251190Y-87977380D01*
X95263095Y-87941666D01*
X95263095Y-87917857D01*
X95251190Y-87882142D01*
X95227380Y-87858333D01*
X95203571Y-87846428D01*
X95155952Y-87834523D01*
X95120238Y-87834523D01*
X95072619Y-87846428D01*
X95048809Y-87858333D01*
X95025000Y-87882142D01*
X95013095Y-87917857D01*
X95013095Y-87941666D01*
X95025000Y-87977380D01*
X95036904Y-87989285D01*
X95013095Y-88072619D02*
X95013095Y-88227380D01*
X95108333Y-88144047D01*
X95108333Y-88179761D01*
X95120238Y-88203571D01*
X95132142Y-88215476D01*
X95155952Y-88227380D01*
X95215476Y-88227380D01*
X95239285Y-88215476D01*
X95251190Y-88203571D01*
X95263095Y-88179761D01*
X95263095Y-88108333D01*
X95251190Y-88084523D01*
X95239285Y-88072619D01*
X95013095Y-88453571D02*
X95013095Y-88334523D01*
X95132142Y-88322619D01*
X95120238Y-88334523D01*
X95108333Y-88358333D01*
X95108333Y-88417857D01*
X95120238Y-88441666D01*
X95132142Y-88453571D01*
X95155952Y-88465476D01*
X95215476Y-88465476D01*
X95239285Y-88453571D01*
X95251190Y-88441666D01*
X95263095Y-88417857D01*
X95263095Y-88358333D01*
X95251190Y-88334523D01*
X95239285Y-88322619D01*
X95239285Y-85189285D02*
X95251190Y-85177380D01*
X95263095Y-85141666D01*
X95263095Y-85117857D01*
X95251190Y-85082142D01*
X95227380Y-85058333D01*
X95203571Y-85046428D01*
X95155952Y-85034523D01*
X95120238Y-85034523D01*
X95072619Y-85046428D01*
X95048809Y-85058333D01*
X95025000Y-85082142D01*
X95013095Y-85117857D01*
X95013095Y-85141666D01*
X95025000Y-85177380D01*
X95036904Y-85189285D01*
X95013095Y-85272619D02*
X95013095Y-85427380D01*
X95108333Y-85344047D01*
X95108333Y-85379761D01*
X95120238Y-85403571D01*
X95132142Y-85415476D01*
X95155952Y-85427380D01*
X95215476Y-85427380D01*
X95239285Y-85415476D01*
X95251190Y-85403571D01*
X95263095Y-85379761D01*
X95263095Y-85308333D01*
X95251190Y-85284523D01*
X95239285Y-85272619D01*
X95096428Y-85641666D02*
X95263095Y-85641666D01*
X95001190Y-85582142D02*
X95179761Y-85522619D01*
X95179761Y-85677380D01*
X97139285Y-85189285D02*
X97151190Y-85177380D01*
X97163095Y-85141666D01*
X97163095Y-85117857D01*
X97151190Y-85082142D01*
X97127380Y-85058333D01*
X97103571Y-85046428D01*
X97055952Y-85034523D01*
X97020238Y-85034523D01*
X96972619Y-85046428D01*
X96948809Y-85058333D01*
X96925000Y-85082142D01*
X96913095Y-85117857D01*
X96913095Y-85141666D01*
X96925000Y-85177380D01*
X96936904Y-85189285D01*
X96913095Y-85272619D02*
X96913095Y-85427380D01*
X97008333Y-85344047D01*
X97008333Y-85379761D01*
X97020238Y-85403571D01*
X97032142Y-85415476D01*
X97055952Y-85427380D01*
X97115476Y-85427380D01*
X97139285Y-85415476D01*
X97151190Y-85403571D01*
X97163095Y-85379761D01*
X97163095Y-85308333D01*
X97151190Y-85284523D01*
X97139285Y-85272619D01*
X97020238Y-85570238D02*
X97008333Y-85546428D01*
X96996428Y-85534523D01*
X96972619Y-85522619D01*
X96960714Y-85522619D01*
X96936904Y-85534523D01*
X96925000Y-85546428D01*
X96913095Y-85570238D01*
X96913095Y-85617857D01*
X96925000Y-85641666D01*
X96936904Y-85653571D01*
X96960714Y-85665476D01*
X96972619Y-85665476D01*
X96996428Y-85653571D01*
X97008333Y-85641666D01*
X97020238Y-85617857D01*
X97020238Y-85570238D01*
X97032142Y-85546428D01*
X97044047Y-85534523D01*
X97067857Y-85522619D01*
X97115476Y-85522619D01*
X97139285Y-85534523D01*
X97151190Y-85546428D01*
X97163095Y-85570238D01*
X97163095Y-85617857D01*
X97151190Y-85641666D01*
X97139285Y-85653571D01*
X97115476Y-85665476D01*
X97067857Y-85665476D01*
X97044047Y-85653571D01*
X97032142Y-85641666D01*
X97020238Y-85617857D01*
X97139285Y-104789285D02*
X97151190Y-104777380D01*
X97163095Y-104741666D01*
X97163095Y-104717857D01*
X97151190Y-104682142D01*
X97127380Y-104658333D01*
X97103571Y-104646428D01*
X97055952Y-104634523D01*
X97020238Y-104634523D01*
X96972619Y-104646428D01*
X96948809Y-104658333D01*
X96925000Y-104682142D01*
X96913095Y-104717857D01*
X96913095Y-104741666D01*
X96925000Y-104777380D01*
X96936904Y-104789285D01*
X96913095Y-105003571D02*
X96913095Y-104955952D01*
X96925000Y-104932142D01*
X96936904Y-104920238D01*
X96972619Y-104896428D01*
X97020238Y-104884523D01*
X97115476Y-104884523D01*
X97139285Y-104896428D01*
X97151190Y-104908333D01*
X97163095Y-104932142D01*
X97163095Y-104979761D01*
X97151190Y-105003571D01*
X97139285Y-105015476D01*
X97115476Y-105027380D01*
X97055952Y-105027380D01*
X97032142Y-105015476D01*
X97020238Y-105003571D01*
X97008333Y-104979761D01*
X97008333Y-104932142D01*
X97020238Y-104908333D01*
X97032142Y-104896428D01*
X97055952Y-104884523D01*
X96913095Y-105110714D02*
X96913095Y-105277380D01*
X97163095Y-105170238D01*
X95239285Y-104789285D02*
X95251190Y-104777380D01*
X95263095Y-104741666D01*
X95263095Y-104717857D01*
X95251190Y-104682142D01*
X95227380Y-104658333D01*
X95203571Y-104646428D01*
X95155952Y-104634523D01*
X95120238Y-104634523D01*
X95072619Y-104646428D01*
X95048809Y-104658333D01*
X95025000Y-104682142D01*
X95013095Y-104717857D01*
X95013095Y-104741666D01*
X95025000Y-104777380D01*
X95036904Y-104789285D01*
X95013095Y-105003571D02*
X95013095Y-104955952D01*
X95025000Y-104932142D01*
X95036904Y-104920238D01*
X95072619Y-104896428D01*
X95120238Y-104884523D01*
X95215476Y-104884523D01*
X95239285Y-104896428D01*
X95251190Y-104908333D01*
X95263095Y-104932142D01*
X95263095Y-104979761D01*
X95251190Y-105003571D01*
X95239285Y-105015476D01*
X95215476Y-105027380D01*
X95155952Y-105027380D01*
X95132142Y-105015476D01*
X95120238Y-105003571D01*
X95108333Y-104979761D01*
X95108333Y-104932142D01*
X95120238Y-104908333D01*
X95132142Y-104896428D01*
X95155952Y-104884523D01*
X95013095Y-105110714D02*
X95013095Y-105265476D01*
X95108333Y-105182142D01*
X95108333Y-105217857D01*
X95120238Y-105241666D01*
X95132142Y-105253571D01*
X95155952Y-105265476D01*
X95215476Y-105265476D01*
X95239285Y-105253571D01*
X95251190Y-105241666D01*
X95263095Y-105217857D01*
X95263095Y-105146428D01*
X95251190Y-105122619D01*
X95239285Y-105110714D01*
X97139285Y-101989285D02*
X97151190Y-101977380D01*
X97163095Y-101941666D01*
X97163095Y-101917857D01*
X97151190Y-101882142D01*
X97127380Y-101858333D01*
X97103571Y-101846428D01*
X97055952Y-101834523D01*
X97020238Y-101834523D01*
X96972619Y-101846428D01*
X96948809Y-101858333D01*
X96925000Y-101882142D01*
X96913095Y-101917857D01*
X96913095Y-101941666D01*
X96925000Y-101977380D01*
X96936904Y-101989285D01*
X96913095Y-102203571D02*
X96913095Y-102155952D01*
X96925000Y-102132142D01*
X96936904Y-102120238D01*
X96972619Y-102096428D01*
X97020238Y-102084523D01*
X97115476Y-102084523D01*
X97139285Y-102096428D01*
X97151190Y-102108333D01*
X97163095Y-102132142D01*
X97163095Y-102179761D01*
X97151190Y-102203571D01*
X97139285Y-102215476D01*
X97115476Y-102227380D01*
X97055952Y-102227380D01*
X97032142Y-102215476D01*
X97020238Y-102203571D01*
X97008333Y-102179761D01*
X97008333Y-102132142D01*
X97020238Y-102108333D01*
X97032142Y-102096428D01*
X97055952Y-102084523D01*
X96913095Y-102441666D02*
X96913095Y-102394047D01*
X96925000Y-102370238D01*
X96936904Y-102358333D01*
X96972619Y-102334523D01*
X97020238Y-102322619D01*
X97115476Y-102322619D01*
X97139285Y-102334523D01*
X97151190Y-102346428D01*
X97163095Y-102370238D01*
X97163095Y-102417857D01*
X97151190Y-102441666D01*
X97139285Y-102453571D01*
X97115476Y-102465476D01*
X97055952Y-102465476D01*
X97032142Y-102453571D01*
X97020238Y-102441666D01*
X97008333Y-102417857D01*
X97008333Y-102370238D01*
X97020238Y-102346428D01*
X97032142Y-102334523D01*
X97055952Y-102322619D01*
X95239285Y-101989285D02*
X95251190Y-101977380D01*
X95263095Y-101941666D01*
X95263095Y-101917857D01*
X95251190Y-101882142D01*
X95227380Y-101858333D01*
X95203571Y-101846428D01*
X95155952Y-101834523D01*
X95120238Y-101834523D01*
X95072619Y-101846428D01*
X95048809Y-101858333D01*
X95025000Y-101882142D01*
X95013095Y-101917857D01*
X95013095Y-101941666D01*
X95025000Y-101977380D01*
X95036904Y-101989285D01*
X95013095Y-102203571D02*
X95013095Y-102155952D01*
X95025000Y-102132142D01*
X95036904Y-102120238D01*
X95072619Y-102096428D01*
X95120238Y-102084523D01*
X95215476Y-102084523D01*
X95239285Y-102096428D01*
X95251190Y-102108333D01*
X95263095Y-102132142D01*
X95263095Y-102179761D01*
X95251190Y-102203571D01*
X95239285Y-102215476D01*
X95215476Y-102227380D01*
X95155952Y-102227380D01*
X95132142Y-102215476D01*
X95120238Y-102203571D01*
X95108333Y-102179761D01*
X95108333Y-102132142D01*
X95120238Y-102108333D01*
X95132142Y-102096428D01*
X95155952Y-102084523D01*
X95036904Y-102322619D02*
X95025000Y-102334523D01*
X95013095Y-102358333D01*
X95013095Y-102417857D01*
X95025000Y-102441666D01*
X95036904Y-102453571D01*
X95060714Y-102465476D01*
X95084523Y-102465476D01*
X95120238Y-102453571D01*
X95263095Y-102310714D01*
X95263095Y-102465476D01*
X95239285Y-99189285D02*
X95251190Y-99177380D01*
X95263095Y-99141666D01*
X95263095Y-99117857D01*
X95251190Y-99082142D01*
X95227380Y-99058333D01*
X95203571Y-99046428D01*
X95155952Y-99034523D01*
X95120238Y-99034523D01*
X95072619Y-99046428D01*
X95048809Y-99058333D01*
X95025000Y-99082142D01*
X95013095Y-99117857D01*
X95013095Y-99141666D01*
X95025000Y-99177380D01*
X95036904Y-99189285D01*
X95013095Y-99403571D02*
X95013095Y-99355952D01*
X95025000Y-99332142D01*
X95036904Y-99320238D01*
X95072619Y-99296428D01*
X95120238Y-99284523D01*
X95215476Y-99284523D01*
X95239285Y-99296428D01*
X95251190Y-99308333D01*
X95263095Y-99332142D01*
X95263095Y-99379761D01*
X95251190Y-99403571D01*
X95239285Y-99415476D01*
X95215476Y-99427380D01*
X95155952Y-99427380D01*
X95132142Y-99415476D01*
X95120238Y-99403571D01*
X95108333Y-99379761D01*
X95108333Y-99332142D01*
X95120238Y-99308333D01*
X95132142Y-99296428D01*
X95155952Y-99284523D01*
X95263095Y-99665476D02*
X95263095Y-99522619D01*
X95263095Y-99594047D02*
X95013095Y-99594047D01*
X95048809Y-99570238D01*
X95072619Y-99546428D01*
X95084523Y-99522619D01*
X97139285Y-99189285D02*
X97151190Y-99177380D01*
X97163095Y-99141666D01*
X97163095Y-99117857D01*
X97151190Y-99082142D01*
X97127380Y-99058333D01*
X97103571Y-99046428D01*
X97055952Y-99034523D01*
X97020238Y-99034523D01*
X96972619Y-99046428D01*
X96948809Y-99058333D01*
X96925000Y-99082142D01*
X96913095Y-99117857D01*
X96913095Y-99141666D01*
X96925000Y-99177380D01*
X96936904Y-99189285D01*
X96913095Y-99403571D02*
X96913095Y-99355952D01*
X96925000Y-99332142D01*
X96936904Y-99320238D01*
X96972619Y-99296428D01*
X97020238Y-99284523D01*
X97115476Y-99284523D01*
X97139285Y-99296428D01*
X97151190Y-99308333D01*
X97163095Y-99332142D01*
X97163095Y-99379761D01*
X97151190Y-99403571D01*
X97139285Y-99415476D01*
X97115476Y-99427380D01*
X97055952Y-99427380D01*
X97032142Y-99415476D01*
X97020238Y-99403571D01*
X97008333Y-99379761D01*
X97008333Y-99332142D01*
X97020238Y-99308333D01*
X97032142Y-99296428D01*
X97055952Y-99284523D01*
X96913095Y-99653571D02*
X96913095Y-99534523D01*
X97032142Y-99522619D01*
X97020238Y-99534523D01*
X97008333Y-99558333D01*
X97008333Y-99617857D01*
X97020238Y-99641666D01*
X97032142Y-99653571D01*
X97055952Y-99665476D01*
X97115476Y-99665476D01*
X97139285Y-99653571D01*
X97151190Y-99641666D01*
X97163095Y-99617857D01*
X97163095Y-99558333D01*
X97151190Y-99534523D01*
X97139285Y-99522619D01*
X80139285Y-99339285D02*
X80151190Y-99327380D01*
X80163095Y-99291666D01*
X80163095Y-99267857D01*
X80151190Y-99232142D01*
X80127380Y-99208333D01*
X80103571Y-99196428D01*
X80055952Y-99184523D01*
X80020238Y-99184523D01*
X79972619Y-99196428D01*
X79948809Y-99208333D01*
X79925000Y-99232142D01*
X79913095Y-99267857D01*
X79913095Y-99291666D01*
X79925000Y-99327380D01*
X79936904Y-99339285D01*
X80020238Y-99482142D02*
X80008333Y-99458333D01*
X79996428Y-99446428D01*
X79972619Y-99434523D01*
X79960714Y-99434523D01*
X79936904Y-99446428D01*
X79925000Y-99458333D01*
X79913095Y-99482142D01*
X79913095Y-99529761D01*
X79925000Y-99553571D01*
X79936904Y-99565476D01*
X79960714Y-99577380D01*
X79972619Y-99577380D01*
X79996428Y-99565476D01*
X80008333Y-99553571D01*
X80020238Y-99529761D01*
X80020238Y-99482142D01*
X80032142Y-99458333D01*
X80044047Y-99446428D01*
X80067857Y-99434523D01*
X80115476Y-99434523D01*
X80139285Y-99446428D01*
X80151190Y-99458333D01*
X80163095Y-99482142D01*
X80163095Y-99529761D01*
X80151190Y-99553571D01*
X80139285Y-99565476D01*
X80115476Y-99577380D01*
X80067857Y-99577380D01*
X80044047Y-99565476D01*
X80032142Y-99553571D01*
X80020238Y-99529761D01*
X80163095Y-99815476D02*
X80163095Y-99672619D01*
X80163095Y-99744047D02*
X79913095Y-99744047D01*
X79948809Y-99720238D01*
X79972619Y-99696428D01*
X79984523Y-99672619D01*
X79975714Y-94989285D02*
X79987619Y-95001190D01*
X80023333Y-95013095D01*
X80047142Y-95013095D01*
X80082857Y-95001190D01*
X80106666Y-94977380D01*
X80118571Y-94953571D01*
X80130476Y-94905952D01*
X80130476Y-94870238D01*
X80118571Y-94822619D01*
X80106666Y-94798809D01*
X80082857Y-94775000D01*
X80047142Y-94763095D01*
X80023333Y-94763095D01*
X79987619Y-94775000D01*
X79975714Y-94786904D01*
X79892380Y-94763095D02*
X79725714Y-94763095D01*
X79832857Y-95013095D01*
X79594761Y-94870238D02*
X79618571Y-94858333D01*
X79630476Y-94846428D01*
X79642380Y-94822619D01*
X79642380Y-94810714D01*
X79630476Y-94786904D01*
X79618571Y-94775000D01*
X79594761Y-94763095D01*
X79547142Y-94763095D01*
X79523333Y-94775000D01*
X79511428Y-94786904D01*
X79499523Y-94810714D01*
X79499523Y-94822619D01*
X79511428Y-94846428D01*
X79523333Y-94858333D01*
X79547142Y-94870238D01*
X79594761Y-94870238D01*
X79618571Y-94882142D01*
X79630476Y-94894047D01*
X79642380Y-94917857D01*
X79642380Y-94965476D01*
X79630476Y-94989285D01*
X79618571Y-95001190D01*
X79594761Y-95013095D01*
X79547142Y-95013095D01*
X79523333Y-95001190D01*
X79511428Y-94989285D01*
X79499523Y-94965476D01*
X79499523Y-94917857D01*
X79511428Y-94894047D01*
X79523333Y-94882142D01*
X79547142Y-94870238D01*
X78060714Y-97713095D02*
X78144047Y-97594047D01*
X78203571Y-97713095D02*
X78203571Y-97463095D01*
X78108333Y-97463095D01*
X78084523Y-97475000D01*
X78072619Y-97486904D01*
X78060714Y-97510714D01*
X78060714Y-97546428D01*
X78072619Y-97570238D01*
X78084523Y-97582142D01*
X78108333Y-97594047D01*
X78203571Y-97594047D01*
X77977380Y-97463095D02*
X77822619Y-97463095D01*
X77905952Y-97558333D01*
X77870238Y-97558333D01*
X77846428Y-97570238D01*
X77834523Y-97582142D01*
X77822619Y-97605952D01*
X77822619Y-97665476D01*
X77834523Y-97689285D01*
X77846428Y-97701190D01*
X77870238Y-97713095D01*
X77941666Y-97713095D01*
X77965476Y-97701190D01*
X77977380Y-97689285D01*
X77584523Y-97713095D02*
X77727380Y-97713095D01*
X77655952Y-97713095D02*
X77655952Y-97463095D01*
X77679761Y-97498809D01*
X77703571Y-97522619D01*
X77727380Y-97534523D01*
X89963095Y-95589285D02*
X89844047Y-95505952D01*
X89963095Y-95446428D02*
X89713095Y-95446428D01*
X89713095Y-95541666D01*
X89725000Y-95565476D01*
X89736904Y-95577380D01*
X89760714Y-95589285D01*
X89796428Y-95589285D01*
X89820238Y-95577380D01*
X89832142Y-95565476D01*
X89844047Y-95541666D01*
X89844047Y-95446428D01*
X89713095Y-95672619D02*
X89713095Y-95827380D01*
X89808333Y-95744047D01*
X89808333Y-95779761D01*
X89820238Y-95803571D01*
X89832142Y-95815476D01*
X89855952Y-95827380D01*
X89915476Y-95827380D01*
X89939285Y-95815476D01*
X89951190Y-95803571D01*
X89963095Y-95779761D01*
X89963095Y-95708333D01*
X89951190Y-95684523D01*
X89939285Y-95672619D01*
X89736904Y-95922619D02*
X89725000Y-95934523D01*
X89713095Y-95958333D01*
X89713095Y-96017857D01*
X89725000Y-96041666D01*
X89736904Y-96053571D01*
X89760714Y-96065476D01*
X89784523Y-96065476D01*
X89820238Y-96053571D01*
X89963095Y-95910714D01*
X89963095Y-96065476D01*
X72141666Y-99539285D02*
X72153571Y-99551190D01*
X72189285Y-99563095D01*
X72213095Y-99563095D01*
X72248809Y-99551190D01*
X72272619Y-99527380D01*
X72284523Y-99503571D01*
X72296428Y-99455952D01*
X72296428Y-99420238D01*
X72284523Y-99372619D01*
X72272619Y-99348809D01*
X72248809Y-99325000D01*
X72213095Y-99313095D01*
X72189285Y-99313095D01*
X72153571Y-99325000D01*
X72141666Y-99336904D01*
X71927380Y-99313095D02*
X71975000Y-99313095D01*
X71998809Y-99325000D01*
X72010714Y-99336904D01*
X72034523Y-99372619D01*
X72046428Y-99420238D01*
X72046428Y-99515476D01*
X72034523Y-99539285D01*
X72022619Y-99551190D01*
X71998809Y-99563095D01*
X71951190Y-99563095D01*
X71927380Y-99551190D01*
X71915476Y-99539285D01*
X71903571Y-99515476D01*
X71903571Y-99455952D01*
X71915476Y-99432142D01*
X71927380Y-99420238D01*
X71951190Y-99408333D01*
X71998809Y-99408333D01*
X72022619Y-99420238D01*
X72034523Y-99432142D01*
X72046428Y-99455952D01*
X83860714Y-94389285D02*
X83872619Y-94401190D01*
X83908333Y-94413095D01*
X83932142Y-94413095D01*
X83967857Y-94401190D01*
X83991666Y-94377380D01*
X84003571Y-94353571D01*
X84015476Y-94305952D01*
X84015476Y-94270238D01*
X84003571Y-94222619D01*
X83991666Y-94198809D01*
X83967857Y-94175000D01*
X83932142Y-94163095D01*
X83908333Y-94163095D01*
X83872619Y-94175000D01*
X83860714Y-94186904D01*
X83777380Y-94163095D02*
X83622619Y-94163095D01*
X83705952Y-94258333D01*
X83670238Y-94258333D01*
X83646428Y-94270238D01*
X83634523Y-94282142D01*
X83622619Y-94305952D01*
X83622619Y-94365476D01*
X83634523Y-94389285D01*
X83646428Y-94401190D01*
X83670238Y-94413095D01*
X83741666Y-94413095D01*
X83765476Y-94401190D01*
X83777380Y-94389285D01*
X83539285Y-94163095D02*
X83384523Y-94163095D01*
X83467857Y-94258333D01*
X83432142Y-94258333D01*
X83408333Y-94270238D01*
X83396428Y-94282142D01*
X83384523Y-94305952D01*
X83384523Y-94365476D01*
X83396428Y-94389285D01*
X83408333Y-94401190D01*
X83432142Y-94413095D01*
X83503571Y-94413095D01*
X83527380Y-94401190D01*
X83539285Y-94389285D01*
X82260714Y-97589285D02*
X82272619Y-97601190D01*
X82308333Y-97613095D01*
X82332142Y-97613095D01*
X82367857Y-97601190D01*
X82391666Y-97577380D01*
X82403571Y-97553571D01*
X82415476Y-97505952D01*
X82415476Y-97470238D01*
X82403571Y-97422619D01*
X82391666Y-97398809D01*
X82367857Y-97375000D01*
X82332142Y-97363095D01*
X82308333Y-97363095D01*
X82272619Y-97375000D01*
X82260714Y-97386904D01*
X82022619Y-97613095D02*
X82165476Y-97613095D01*
X82094047Y-97613095D02*
X82094047Y-97363095D01*
X82117857Y-97398809D01*
X82141666Y-97422619D01*
X82165476Y-97434523D01*
X81879761Y-97470238D02*
X81903571Y-97458333D01*
X81915476Y-97446428D01*
X81927380Y-97422619D01*
X81927380Y-97410714D01*
X81915476Y-97386904D01*
X81903571Y-97375000D01*
X81879761Y-97363095D01*
X81832142Y-97363095D01*
X81808333Y-97375000D01*
X81796428Y-97386904D01*
X81784523Y-97410714D01*
X81784523Y-97422619D01*
X81796428Y-97446428D01*
X81808333Y-97458333D01*
X81832142Y-97470238D01*
X81879761Y-97470238D01*
X81903571Y-97482142D01*
X81915476Y-97494047D01*
X81927380Y-97517857D01*
X81927380Y-97565476D01*
X81915476Y-97589285D01*
X81903571Y-97601190D01*
X81879761Y-97613095D01*
X81832142Y-97613095D01*
X81808333Y-97601190D01*
X81796428Y-97589285D01*
X81784523Y-97565476D01*
X81784523Y-97517857D01*
X81796428Y-97494047D01*
X81808333Y-97482142D01*
X81832142Y-97470238D01*
X65989285Y-97708333D02*
X66001190Y-97696428D01*
X66013095Y-97660714D01*
X66013095Y-97636904D01*
X66001190Y-97601190D01*
X65977380Y-97577380D01*
X65953571Y-97565476D01*
X65905952Y-97553571D01*
X65870238Y-97553571D01*
X65822619Y-97565476D01*
X65798809Y-97577380D01*
X65775000Y-97601190D01*
X65763095Y-97636904D01*
X65763095Y-97660714D01*
X65775000Y-97696428D01*
X65786904Y-97708333D01*
X65786904Y-97803571D02*
X65775000Y-97815476D01*
X65763095Y-97839285D01*
X65763095Y-97898809D01*
X65775000Y-97922619D01*
X65786904Y-97934523D01*
X65810714Y-97946428D01*
X65834523Y-97946428D01*
X65870238Y-97934523D01*
X66013095Y-97791666D01*
X66013095Y-97946428D01*
X65989285Y-95708333D02*
X66001190Y-95696428D01*
X66013095Y-95660714D01*
X66013095Y-95636904D01*
X66001190Y-95601190D01*
X65977380Y-95577380D01*
X65953571Y-95565476D01*
X65905952Y-95553571D01*
X65870238Y-95553571D01*
X65822619Y-95565476D01*
X65798809Y-95577380D01*
X65775000Y-95601190D01*
X65763095Y-95636904D01*
X65763095Y-95660714D01*
X65775000Y-95696428D01*
X65786904Y-95708333D01*
X65763095Y-95791666D02*
X65763095Y-95946428D01*
X65858333Y-95863095D01*
X65858333Y-95898809D01*
X65870238Y-95922619D01*
X65882142Y-95934523D01*
X65905952Y-95946428D01*
X65965476Y-95946428D01*
X65989285Y-95934523D01*
X66001190Y-95922619D01*
X66013095Y-95898809D01*
X66013095Y-95827380D01*
X66001190Y-95803571D01*
X65989285Y-95791666D01*
X73889285Y-97723333D02*
X73901190Y-97711428D01*
X73913095Y-97675714D01*
X73913095Y-97651904D01*
X73901190Y-97616190D01*
X73877380Y-97592380D01*
X73853571Y-97580476D01*
X73805952Y-97568571D01*
X73770238Y-97568571D01*
X73722619Y-97580476D01*
X73698809Y-97592380D01*
X73675000Y-97616190D01*
X73663095Y-97651904D01*
X73663095Y-97675714D01*
X73675000Y-97711428D01*
X73686904Y-97723333D01*
X73746428Y-97937619D02*
X73913095Y-97937619D01*
X73651190Y-97878095D02*
X73829761Y-97818571D01*
X73829761Y-97973333D01*
X72541666Y-91639285D02*
X72553571Y-91651190D01*
X72589285Y-91663095D01*
X72613095Y-91663095D01*
X72648809Y-91651190D01*
X72672619Y-91627380D01*
X72684523Y-91603571D01*
X72696428Y-91555952D01*
X72696428Y-91520238D01*
X72684523Y-91472619D01*
X72672619Y-91448809D01*
X72648809Y-91425000D01*
X72613095Y-91413095D01*
X72589285Y-91413095D01*
X72553571Y-91425000D01*
X72541666Y-91436904D01*
X72315476Y-91413095D02*
X72434523Y-91413095D01*
X72446428Y-91532142D01*
X72434523Y-91520238D01*
X72410714Y-91508333D01*
X72351190Y-91508333D01*
X72327380Y-91520238D01*
X72315476Y-91532142D01*
X72303571Y-91555952D01*
X72303571Y-91615476D01*
X72315476Y-91639285D01*
X72327380Y-91651190D01*
X72351190Y-91663095D01*
X72410714Y-91663095D01*
X72434523Y-91651190D01*
X72446428Y-91639285D01*
X67341666Y-91639285D02*
X67353571Y-91651190D01*
X67389285Y-91663095D01*
X67413095Y-91663095D01*
X67448809Y-91651190D01*
X67472619Y-91627380D01*
X67484523Y-91603571D01*
X67496428Y-91555952D01*
X67496428Y-91520238D01*
X67484523Y-91472619D01*
X67472619Y-91448809D01*
X67448809Y-91425000D01*
X67413095Y-91413095D01*
X67389285Y-91413095D01*
X67353571Y-91425000D01*
X67341666Y-91436904D01*
X67258333Y-91413095D02*
X67091666Y-91413095D01*
X67198809Y-91663095D01*
X65989285Y-93723333D02*
X66001190Y-93711428D01*
X66013095Y-93675714D01*
X66013095Y-93651904D01*
X66001190Y-93616190D01*
X65977380Y-93592380D01*
X65953571Y-93580476D01*
X65905952Y-93568571D01*
X65870238Y-93568571D01*
X65822619Y-93580476D01*
X65798809Y-93592380D01*
X65775000Y-93616190D01*
X65763095Y-93651904D01*
X65763095Y-93675714D01*
X65775000Y-93711428D01*
X65786904Y-93723333D01*
X66013095Y-93842380D02*
X66013095Y-93890000D01*
X66001190Y-93913809D01*
X65989285Y-93925714D01*
X65953571Y-93949523D01*
X65905952Y-93961428D01*
X65810714Y-93961428D01*
X65786904Y-93949523D01*
X65775000Y-93937619D01*
X65763095Y-93913809D01*
X65763095Y-93866190D01*
X65775000Y-93842380D01*
X65786904Y-93830476D01*
X65810714Y-93818571D01*
X65870238Y-93818571D01*
X65894047Y-93830476D01*
X65905952Y-93842380D01*
X65917857Y-93866190D01*
X65917857Y-93913809D01*
X65905952Y-93937619D01*
X65894047Y-93949523D01*
X65870238Y-93961428D01*
X68260714Y-99539285D02*
X68272619Y-99551190D01*
X68308333Y-99563095D01*
X68332142Y-99563095D01*
X68367857Y-99551190D01*
X68391666Y-99527380D01*
X68403571Y-99503571D01*
X68415476Y-99455952D01*
X68415476Y-99420238D01*
X68403571Y-99372619D01*
X68391666Y-99348809D01*
X68367857Y-99325000D01*
X68332142Y-99313095D01*
X68308333Y-99313095D01*
X68272619Y-99325000D01*
X68260714Y-99336904D01*
X68022619Y-99563095D02*
X68165476Y-99563095D01*
X68094047Y-99563095D02*
X68094047Y-99313095D01*
X68117857Y-99348809D01*
X68141666Y-99372619D01*
X68165476Y-99384523D01*
X67867857Y-99313095D02*
X67844047Y-99313095D01*
X67820238Y-99325000D01*
X67808333Y-99336904D01*
X67796428Y-99360714D01*
X67784523Y-99408333D01*
X67784523Y-99467857D01*
X67796428Y-99515476D01*
X67808333Y-99539285D01*
X67820238Y-99551190D01*
X67844047Y-99563095D01*
X67867857Y-99563095D01*
X67891666Y-99551190D01*
X67903571Y-99539285D01*
X67915476Y-99515476D01*
X67927380Y-99467857D01*
X67927380Y-99408333D01*
X67915476Y-99360714D01*
X67903571Y-99336904D01*
X67891666Y-99325000D01*
X67867857Y-99313095D01*
X87289285Y-95339285D02*
X87301190Y-95327380D01*
X87313095Y-95291666D01*
X87313095Y-95267857D01*
X87301190Y-95232142D01*
X87277380Y-95208333D01*
X87253571Y-95196428D01*
X87205952Y-95184523D01*
X87170238Y-95184523D01*
X87122619Y-95196428D01*
X87098809Y-95208333D01*
X87075000Y-95232142D01*
X87063095Y-95267857D01*
X87063095Y-95291666D01*
X87075000Y-95327380D01*
X87086904Y-95339285D01*
X87063095Y-95422619D02*
X87063095Y-95589285D01*
X87313095Y-95482142D01*
X87313095Y-95696428D02*
X87313095Y-95744047D01*
X87301190Y-95767857D01*
X87289285Y-95779761D01*
X87253571Y-95803571D01*
X87205952Y-95815476D01*
X87110714Y-95815476D01*
X87086904Y-95803571D01*
X87075000Y-95791666D01*
X87063095Y-95767857D01*
X87063095Y-95720238D01*
X87075000Y-95696428D01*
X87086904Y-95684523D01*
X87110714Y-95672619D01*
X87170238Y-95672619D01*
X87194047Y-95684523D01*
X87205952Y-95696428D01*
X87217857Y-95720238D01*
X87217857Y-95767857D01*
X87205952Y-95791666D01*
X87194047Y-95803571D01*
X87170238Y-95815476D01*
X76060714Y-110189285D02*
X76072619Y-110201190D01*
X76108333Y-110213095D01*
X76132142Y-110213095D01*
X76167857Y-110201190D01*
X76191666Y-110177380D01*
X76203571Y-110153571D01*
X76215476Y-110105952D01*
X76215476Y-110070238D01*
X76203571Y-110022619D01*
X76191666Y-109998809D01*
X76167857Y-109975000D01*
X76132142Y-109963095D01*
X76108333Y-109963095D01*
X76072619Y-109975000D01*
X76060714Y-109986904D01*
X75822619Y-110213095D02*
X75965476Y-110213095D01*
X75894047Y-110213095D02*
X75894047Y-109963095D01*
X75917857Y-109998809D01*
X75941666Y-110022619D01*
X75965476Y-110034523D01*
X75739285Y-109963095D02*
X75572619Y-109963095D01*
X75679761Y-110213095D01*
X72560714Y-110189285D02*
X72572619Y-110201190D01*
X72608333Y-110213095D01*
X72632142Y-110213095D01*
X72667857Y-110201190D01*
X72691666Y-110177380D01*
X72703571Y-110153571D01*
X72715476Y-110105952D01*
X72715476Y-110070238D01*
X72703571Y-110022619D01*
X72691666Y-109998809D01*
X72667857Y-109975000D01*
X72632142Y-109963095D01*
X72608333Y-109963095D01*
X72572619Y-109975000D01*
X72560714Y-109986904D01*
X72322619Y-110213095D02*
X72465476Y-110213095D01*
X72394047Y-110213095D02*
X72394047Y-109963095D01*
X72417857Y-109998809D01*
X72441666Y-110022619D01*
X72465476Y-110034523D01*
X72096428Y-109963095D02*
X72215476Y-109963095D01*
X72227380Y-110082142D01*
X72215476Y-110070238D01*
X72191666Y-110058333D01*
X72132142Y-110058333D01*
X72108333Y-110070238D01*
X72096428Y-110082142D01*
X72084523Y-110105952D01*
X72084523Y-110165476D01*
X72096428Y-110189285D01*
X72108333Y-110201190D01*
X72132142Y-110213095D01*
X72191666Y-110213095D01*
X72215476Y-110201190D01*
X72227380Y-110189285D01*
X101139285Y-104789285D02*
X101151190Y-104777380D01*
X101163095Y-104741666D01*
X101163095Y-104717857D01*
X101151190Y-104682142D01*
X101127380Y-104658333D01*
X101103571Y-104646428D01*
X101055952Y-104634523D01*
X101020238Y-104634523D01*
X100972619Y-104646428D01*
X100948809Y-104658333D01*
X100925000Y-104682142D01*
X100913095Y-104717857D01*
X100913095Y-104741666D01*
X100925000Y-104777380D01*
X100936904Y-104789285D01*
X100913095Y-104872619D02*
X100913095Y-105039285D01*
X101163095Y-104932142D01*
X100913095Y-105253571D02*
X100913095Y-105134523D01*
X101032142Y-105122619D01*
X101020238Y-105134523D01*
X101008333Y-105158333D01*
X101008333Y-105217857D01*
X101020238Y-105241666D01*
X101032142Y-105253571D01*
X101055952Y-105265476D01*
X101115476Y-105265476D01*
X101139285Y-105253571D01*
X101151190Y-105241666D01*
X101163095Y-105217857D01*
X101163095Y-105158333D01*
X101151190Y-105134523D01*
X101139285Y-105122619D01*
X101139285Y-101989285D02*
X101151190Y-101977380D01*
X101163095Y-101941666D01*
X101163095Y-101917857D01*
X101151190Y-101882142D01*
X101127380Y-101858333D01*
X101103571Y-101846428D01*
X101055952Y-101834523D01*
X101020238Y-101834523D01*
X100972619Y-101846428D01*
X100948809Y-101858333D01*
X100925000Y-101882142D01*
X100913095Y-101917857D01*
X100913095Y-101941666D01*
X100925000Y-101977380D01*
X100936904Y-101989285D01*
X100913095Y-102072619D02*
X100913095Y-102239285D01*
X101163095Y-102132142D01*
X100996428Y-102441666D02*
X101163095Y-102441666D01*
X100901190Y-102382142D02*
X101079761Y-102322619D01*
X101079761Y-102477380D01*
X87810714Y-98889285D02*
X87822619Y-98901190D01*
X87858333Y-98913095D01*
X87882142Y-98913095D01*
X87917857Y-98901190D01*
X87941666Y-98877380D01*
X87953571Y-98853571D01*
X87965476Y-98805952D01*
X87965476Y-98770238D01*
X87953571Y-98722619D01*
X87941666Y-98698809D01*
X87917857Y-98675000D01*
X87882142Y-98663095D01*
X87858333Y-98663095D01*
X87822619Y-98675000D01*
X87810714Y-98686904D01*
X87715476Y-98686904D02*
X87703571Y-98675000D01*
X87679761Y-98663095D01*
X87620238Y-98663095D01*
X87596428Y-98675000D01*
X87584523Y-98686904D01*
X87572619Y-98710714D01*
X87572619Y-98734523D01*
X87584523Y-98770238D01*
X87727380Y-98913095D01*
X87572619Y-98913095D01*
X87417857Y-98663095D02*
X87394047Y-98663095D01*
X87370238Y-98675000D01*
X87358333Y-98686904D01*
X87346428Y-98710714D01*
X87334523Y-98758333D01*
X87334523Y-98817857D01*
X87346428Y-98865476D01*
X87358333Y-98889285D01*
X87370238Y-98901190D01*
X87394047Y-98913095D01*
X87417857Y-98913095D01*
X87441666Y-98901190D01*
X87453571Y-98889285D01*
X87465476Y-98865476D01*
X87477380Y-98817857D01*
X87477380Y-98758333D01*
X87465476Y-98710714D01*
X87453571Y-98686904D01*
X87441666Y-98675000D01*
X87417857Y-98663095D01*
X85789285Y-94639285D02*
X85801190Y-94627380D01*
X85813095Y-94591666D01*
X85813095Y-94567857D01*
X85801190Y-94532142D01*
X85777380Y-94508333D01*
X85753571Y-94496428D01*
X85705952Y-94484523D01*
X85670238Y-94484523D01*
X85622619Y-94496428D01*
X85598809Y-94508333D01*
X85575000Y-94532142D01*
X85563095Y-94567857D01*
X85563095Y-94591666D01*
X85575000Y-94627380D01*
X85586904Y-94639285D01*
X85586904Y-94734523D02*
X85575000Y-94746428D01*
X85563095Y-94770238D01*
X85563095Y-94829761D01*
X85575000Y-94853571D01*
X85586904Y-94865476D01*
X85610714Y-94877380D01*
X85634523Y-94877380D01*
X85670238Y-94865476D01*
X85813095Y-94722619D01*
X85813095Y-94877380D01*
X85813095Y-95115476D02*
X85813095Y-94972619D01*
X85813095Y-95044047D02*
X85563095Y-95044047D01*
X85598809Y-95020238D01*
X85622619Y-94996428D01*
X85634523Y-94972619D01*
X85460714Y-93589285D02*
X85472619Y-93601190D01*
X85508333Y-93613095D01*
X85532142Y-93613095D01*
X85567857Y-93601190D01*
X85591666Y-93577380D01*
X85603571Y-93553571D01*
X85615476Y-93505952D01*
X85615476Y-93470238D01*
X85603571Y-93422619D01*
X85591666Y-93398809D01*
X85567857Y-93375000D01*
X85532142Y-93363095D01*
X85508333Y-93363095D01*
X85472619Y-93375000D01*
X85460714Y-93386904D01*
X85365476Y-93386904D02*
X85353571Y-93375000D01*
X85329761Y-93363095D01*
X85270238Y-93363095D01*
X85246428Y-93375000D01*
X85234523Y-93386904D01*
X85222619Y-93410714D01*
X85222619Y-93434523D01*
X85234523Y-93470238D01*
X85377380Y-93613095D01*
X85222619Y-93613095D01*
X85008333Y-93446428D02*
X85008333Y-93613095D01*
X85067857Y-93351190D02*
X85127380Y-93529761D01*
X84972619Y-93529761D01*
X101139285Y-99189285D02*
X101151190Y-99177380D01*
X101163095Y-99141666D01*
X101163095Y-99117857D01*
X101151190Y-99082142D01*
X101127380Y-99058333D01*
X101103571Y-99046428D01*
X101055952Y-99034523D01*
X101020238Y-99034523D01*
X100972619Y-99046428D01*
X100948809Y-99058333D01*
X100925000Y-99082142D01*
X100913095Y-99117857D01*
X100913095Y-99141666D01*
X100925000Y-99177380D01*
X100936904Y-99189285D01*
X100913095Y-99272619D02*
X100913095Y-99439285D01*
X101163095Y-99332142D01*
X100913095Y-99510714D02*
X100913095Y-99665476D01*
X101008333Y-99582142D01*
X101008333Y-99617857D01*
X101020238Y-99641666D01*
X101032142Y-99653571D01*
X101055952Y-99665476D01*
X101115476Y-99665476D01*
X101139285Y-99653571D01*
X101151190Y-99641666D01*
X101163095Y-99617857D01*
X101163095Y-99546428D01*
X101151190Y-99522619D01*
X101139285Y-99510714D01*
X101139285Y-96389285D02*
X101151190Y-96377380D01*
X101163095Y-96341666D01*
X101163095Y-96317857D01*
X101151190Y-96282142D01*
X101127380Y-96258333D01*
X101103571Y-96246428D01*
X101055952Y-96234523D01*
X101020238Y-96234523D01*
X100972619Y-96246428D01*
X100948809Y-96258333D01*
X100925000Y-96282142D01*
X100913095Y-96317857D01*
X100913095Y-96341666D01*
X100925000Y-96377380D01*
X100936904Y-96389285D01*
X100913095Y-96472619D02*
X100913095Y-96639285D01*
X101163095Y-96532142D01*
X100936904Y-96722619D02*
X100925000Y-96734523D01*
X100913095Y-96758333D01*
X100913095Y-96817857D01*
X100925000Y-96841666D01*
X100936904Y-96853571D01*
X100960714Y-96865476D01*
X100984523Y-96865476D01*
X101020238Y-96853571D01*
X101163095Y-96710714D01*
X101163095Y-96865476D01*
X99239285Y-104789285D02*
X99251190Y-104777380D01*
X99263095Y-104741666D01*
X99263095Y-104717857D01*
X99251190Y-104682142D01*
X99227380Y-104658333D01*
X99203571Y-104646428D01*
X99155952Y-104634523D01*
X99120238Y-104634523D01*
X99072619Y-104646428D01*
X99048809Y-104658333D01*
X99025000Y-104682142D01*
X99013095Y-104717857D01*
X99013095Y-104741666D01*
X99025000Y-104777380D01*
X99036904Y-104789285D01*
X99013095Y-104872619D02*
X99013095Y-105039285D01*
X99263095Y-104932142D01*
X99263095Y-105265476D02*
X99263095Y-105122619D01*
X99263095Y-105194047D02*
X99013095Y-105194047D01*
X99048809Y-105170238D01*
X99072619Y-105146428D01*
X99084523Y-105122619D01*
X99239285Y-101989285D02*
X99251190Y-101977380D01*
X99263095Y-101941666D01*
X99263095Y-101917857D01*
X99251190Y-101882142D01*
X99227380Y-101858333D01*
X99203571Y-101846428D01*
X99155952Y-101834523D01*
X99120238Y-101834523D01*
X99072619Y-101846428D01*
X99048809Y-101858333D01*
X99025000Y-101882142D01*
X99013095Y-101917857D01*
X99013095Y-101941666D01*
X99025000Y-101977380D01*
X99036904Y-101989285D01*
X99013095Y-102072619D02*
X99013095Y-102239285D01*
X99263095Y-102132142D01*
X99013095Y-102382142D02*
X99013095Y-102405952D01*
X99025000Y-102429761D01*
X99036904Y-102441666D01*
X99060714Y-102453571D01*
X99108333Y-102465476D01*
X99167857Y-102465476D01*
X99215476Y-102453571D01*
X99239285Y-102441666D01*
X99251190Y-102429761D01*
X99263095Y-102405952D01*
X99263095Y-102382142D01*
X99251190Y-102358333D01*
X99239285Y-102346428D01*
X99215476Y-102334523D01*
X99167857Y-102322619D01*
X99108333Y-102322619D01*
X99060714Y-102334523D01*
X99036904Y-102346428D01*
X99025000Y-102358333D01*
X99013095Y-102382142D01*
X99239285Y-99189285D02*
X99251190Y-99177380D01*
X99263095Y-99141666D01*
X99263095Y-99117857D01*
X99251190Y-99082142D01*
X99227380Y-99058333D01*
X99203571Y-99046428D01*
X99155952Y-99034523D01*
X99120238Y-99034523D01*
X99072619Y-99046428D01*
X99048809Y-99058333D01*
X99025000Y-99082142D01*
X99013095Y-99117857D01*
X99013095Y-99141666D01*
X99025000Y-99177380D01*
X99036904Y-99189285D01*
X99013095Y-99403571D02*
X99013095Y-99355952D01*
X99025000Y-99332142D01*
X99036904Y-99320238D01*
X99072619Y-99296428D01*
X99120238Y-99284523D01*
X99215476Y-99284523D01*
X99239285Y-99296428D01*
X99251190Y-99308333D01*
X99263095Y-99332142D01*
X99263095Y-99379761D01*
X99251190Y-99403571D01*
X99239285Y-99415476D01*
X99215476Y-99427380D01*
X99155952Y-99427380D01*
X99132142Y-99415476D01*
X99120238Y-99403571D01*
X99108333Y-99379761D01*
X99108333Y-99332142D01*
X99120238Y-99308333D01*
X99132142Y-99296428D01*
X99155952Y-99284523D01*
X99263095Y-99546428D02*
X99263095Y-99594047D01*
X99251190Y-99617857D01*
X99239285Y-99629761D01*
X99203571Y-99653571D01*
X99155952Y-99665476D01*
X99060714Y-99665476D01*
X99036904Y-99653571D01*
X99025000Y-99641666D01*
X99013095Y-99617857D01*
X99013095Y-99570238D01*
X99025000Y-99546428D01*
X99036904Y-99534523D01*
X99060714Y-99522619D01*
X99120238Y-99522619D01*
X99144047Y-99534523D01*
X99155952Y-99546428D01*
X99167857Y-99570238D01*
X99167857Y-99617857D01*
X99155952Y-99641666D01*
X99144047Y-99653571D01*
X99120238Y-99665476D01*
X99239285Y-96389285D02*
X99251190Y-96377380D01*
X99263095Y-96341666D01*
X99263095Y-96317857D01*
X99251190Y-96282142D01*
X99227380Y-96258333D01*
X99203571Y-96246428D01*
X99155952Y-96234523D01*
X99120238Y-96234523D01*
X99072619Y-96246428D01*
X99048809Y-96258333D01*
X99025000Y-96282142D01*
X99013095Y-96317857D01*
X99013095Y-96341666D01*
X99025000Y-96377380D01*
X99036904Y-96389285D01*
X99013095Y-96603571D02*
X99013095Y-96555952D01*
X99025000Y-96532142D01*
X99036904Y-96520238D01*
X99072619Y-96496428D01*
X99120238Y-96484523D01*
X99215476Y-96484523D01*
X99239285Y-96496428D01*
X99251190Y-96508333D01*
X99263095Y-96532142D01*
X99263095Y-96579761D01*
X99251190Y-96603571D01*
X99239285Y-96615476D01*
X99215476Y-96627380D01*
X99155952Y-96627380D01*
X99132142Y-96615476D01*
X99120238Y-96603571D01*
X99108333Y-96579761D01*
X99108333Y-96532142D01*
X99120238Y-96508333D01*
X99132142Y-96496428D01*
X99155952Y-96484523D01*
X99120238Y-96770238D02*
X99108333Y-96746428D01*
X99096428Y-96734523D01*
X99072619Y-96722619D01*
X99060714Y-96722619D01*
X99036904Y-96734523D01*
X99025000Y-96746428D01*
X99013095Y-96770238D01*
X99013095Y-96817857D01*
X99025000Y-96841666D01*
X99036904Y-96853571D01*
X99060714Y-96865476D01*
X99072619Y-96865476D01*
X99096428Y-96853571D01*
X99108333Y-96841666D01*
X99120238Y-96817857D01*
X99120238Y-96770238D01*
X99132142Y-96746428D01*
X99144047Y-96734523D01*
X99167857Y-96722619D01*
X99215476Y-96722619D01*
X99239285Y-96734523D01*
X99251190Y-96746428D01*
X99263095Y-96770238D01*
X99263095Y-96817857D01*
X99251190Y-96841666D01*
X99239285Y-96853571D01*
X99215476Y-96865476D01*
X99167857Y-96865476D01*
X99144047Y-96853571D01*
X99132142Y-96841666D01*
X99120238Y-96817857D01*
X97139285Y-90789285D02*
X97151190Y-90777380D01*
X97163095Y-90741666D01*
X97163095Y-90717857D01*
X97151190Y-90682142D01*
X97127380Y-90658333D01*
X97103571Y-90646428D01*
X97055952Y-90634523D01*
X97020238Y-90634523D01*
X96972619Y-90646428D01*
X96948809Y-90658333D01*
X96925000Y-90682142D01*
X96913095Y-90717857D01*
X96913095Y-90741666D01*
X96925000Y-90777380D01*
X96936904Y-90789285D01*
X96996428Y-91003571D02*
X97163095Y-91003571D01*
X96901190Y-90944047D02*
X97079761Y-90884523D01*
X97079761Y-91039285D01*
X96913095Y-91182142D02*
X96913095Y-91205952D01*
X96925000Y-91229761D01*
X96936904Y-91241666D01*
X96960714Y-91253571D01*
X97008333Y-91265476D01*
X97067857Y-91265476D01*
X97115476Y-91253571D01*
X97139285Y-91241666D01*
X97151190Y-91229761D01*
X97163095Y-91205952D01*
X97163095Y-91182142D01*
X97151190Y-91158333D01*
X97139285Y-91146428D01*
X97115476Y-91134523D01*
X97067857Y-91122619D01*
X97008333Y-91122619D01*
X96960714Y-91134523D01*
X96936904Y-91146428D01*
X96925000Y-91158333D01*
X96913095Y-91182142D01*
X97139285Y-96339285D02*
X97151190Y-96327380D01*
X97163095Y-96291666D01*
X97163095Y-96267857D01*
X97151190Y-96232142D01*
X97127380Y-96208333D01*
X97103571Y-96196428D01*
X97055952Y-96184523D01*
X97020238Y-96184523D01*
X96972619Y-96196428D01*
X96948809Y-96208333D01*
X96925000Y-96232142D01*
X96913095Y-96267857D01*
X96913095Y-96291666D01*
X96925000Y-96327380D01*
X96936904Y-96339285D01*
X96913095Y-96553571D02*
X96913095Y-96505952D01*
X96925000Y-96482142D01*
X96936904Y-96470238D01*
X96972619Y-96446428D01*
X97020238Y-96434523D01*
X97115476Y-96434523D01*
X97139285Y-96446428D01*
X97151190Y-96458333D01*
X97163095Y-96482142D01*
X97163095Y-96529761D01*
X97151190Y-96553571D01*
X97139285Y-96565476D01*
X97115476Y-96577380D01*
X97055952Y-96577380D01*
X97032142Y-96565476D01*
X97020238Y-96553571D01*
X97008333Y-96529761D01*
X97008333Y-96482142D01*
X97020238Y-96458333D01*
X97032142Y-96446428D01*
X97055952Y-96434523D01*
X96996428Y-96791666D02*
X97163095Y-96791666D01*
X96901190Y-96732142D02*
X97079761Y-96672619D01*
X97079761Y-96827380D01*
X95239285Y-96339285D02*
X95251190Y-96327380D01*
X95263095Y-96291666D01*
X95263095Y-96267857D01*
X95251190Y-96232142D01*
X95227380Y-96208333D01*
X95203571Y-96196428D01*
X95155952Y-96184523D01*
X95120238Y-96184523D01*
X95072619Y-96196428D01*
X95048809Y-96208333D01*
X95025000Y-96232142D01*
X95013095Y-96267857D01*
X95013095Y-96291666D01*
X95025000Y-96327380D01*
X95036904Y-96339285D01*
X95013095Y-96553571D02*
X95013095Y-96505952D01*
X95025000Y-96482142D01*
X95036904Y-96470238D01*
X95072619Y-96446428D01*
X95120238Y-96434523D01*
X95215476Y-96434523D01*
X95239285Y-96446428D01*
X95251190Y-96458333D01*
X95263095Y-96482142D01*
X95263095Y-96529761D01*
X95251190Y-96553571D01*
X95239285Y-96565476D01*
X95215476Y-96577380D01*
X95155952Y-96577380D01*
X95132142Y-96565476D01*
X95120238Y-96553571D01*
X95108333Y-96529761D01*
X95108333Y-96482142D01*
X95120238Y-96458333D01*
X95132142Y-96446428D01*
X95155952Y-96434523D01*
X95013095Y-96732142D02*
X95013095Y-96755952D01*
X95025000Y-96779761D01*
X95036904Y-96791666D01*
X95060714Y-96803571D01*
X95108333Y-96815476D01*
X95167857Y-96815476D01*
X95215476Y-96803571D01*
X95239285Y-96791666D01*
X95251190Y-96779761D01*
X95263095Y-96755952D01*
X95263095Y-96732142D01*
X95251190Y-96708333D01*
X95239285Y-96696428D01*
X95215476Y-96684523D01*
X95167857Y-96672619D01*
X95108333Y-96672619D01*
X95060714Y-96684523D01*
X95036904Y-96696428D01*
X95025000Y-96708333D01*
X95013095Y-96732142D01*
X101139285Y-93589285D02*
X101151190Y-93577380D01*
X101163095Y-93541666D01*
X101163095Y-93517857D01*
X101151190Y-93482142D01*
X101127380Y-93458333D01*
X101103571Y-93446428D01*
X101055952Y-93434523D01*
X101020238Y-93434523D01*
X100972619Y-93446428D01*
X100948809Y-93458333D01*
X100925000Y-93482142D01*
X100913095Y-93517857D01*
X100913095Y-93541666D01*
X100925000Y-93577380D01*
X100936904Y-93589285D01*
X100913095Y-93815476D02*
X100913095Y-93696428D01*
X101032142Y-93684523D01*
X101020238Y-93696428D01*
X101008333Y-93720238D01*
X101008333Y-93779761D01*
X101020238Y-93803571D01*
X101032142Y-93815476D01*
X101055952Y-93827380D01*
X101115476Y-93827380D01*
X101139285Y-93815476D01*
X101151190Y-93803571D01*
X101163095Y-93779761D01*
X101163095Y-93720238D01*
X101151190Y-93696428D01*
X101139285Y-93684523D01*
X100936904Y-93922619D02*
X100925000Y-93934523D01*
X100913095Y-93958333D01*
X100913095Y-94017857D01*
X100925000Y-94041666D01*
X100936904Y-94053571D01*
X100960714Y-94065476D01*
X100984523Y-94065476D01*
X101020238Y-94053571D01*
X101163095Y-93910714D01*
X101163095Y-94065476D01*
X101139285Y-90789285D02*
X101151190Y-90777380D01*
X101163095Y-90741666D01*
X101163095Y-90717857D01*
X101151190Y-90682142D01*
X101127380Y-90658333D01*
X101103571Y-90646428D01*
X101055952Y-90634523D01*
X101020238Y-90634523D01*
X100972619Y-90646428D01*
X100948809Y-90658333D01*
X100925000Y-90682142D01*
X100913095Y-90717857D01*
X100913095Y-90741666D01*
X100925000Y-90777380D01*
X100936904Y-90789285D01*
X100913095Y-91015476D02*
X100913095Y-90896428D01*
X101032142Y-90884523D01*
X101020238Y-90896428D01*
X101008333Y-90920238D01*
X101008333Y-90979761D01*
X101020238Y-91003571D01*
X101032142Y-91015476D01*
X101055952Y-91027380D01*
X101115476Y-91027380D01*
X101139285Y-91015476D01*
X101151190Y-91003571D01*
X101163095Y-90979761D01*
X101163095Y-90920238D01*
X101151190Y-90896428D01*
X101139285Y-90884523D01*
X101163095Y-91265476D02*
X101163095Y-91122619D01*
X101163095Y-91194047D02*
X100913095Y-91194047D01*
X100948809Y-91170238D01*
X100972619Y-91146428D01*
X100984523Y-91122619D01*
X101139285Y-87989285D02*
X101151190Y-87977380D01*
X101163095Y-87941666D01*
X101163095Y-87917857D01*
X101151190Y-87882142D01*
X101127380Y-87858333D01*
X101103571Y-87846428D01*
X101055952Y-87834523D01*
X101020238Y-87834523D01*
X100972619Y-87846428D01*
X100948809Y-87858333D01*
X100925000Y-87882142D01*
X100913095Y-87917857D01*
X100913095Y-87941666D01*
X100925000Y-87977380D01*
X100936904Y-87989285D01*
X100913095Y-88215476D02*
X100913095Y-88096428D01*
X101032142Y-88084523D01*
X101020238Y-88096428D01*
X101008333Y-88120238D01*
X101008333Y-88179761D01*
X101020238Y-88203571D01*
X101032142Y-88215476D01*
X101055952Y-88227380D01*
X101115476Y-88227380D01*
X101139285Y-88215476D01*
X101151190Y-88203571D01*
X101163095Y-88179761D01*
X101163095Y-88120238D01*
X101151190Y-88096428D01*
X101139285Y-88084523D01*
X100913095Y-88382142D02*
X100913095Y-88405952D01*
X100925000Y-88429761D01*
X100936904Y-88441666D01*
X100960714Y-88453571D01*
X101008333Y-88465476D01*
X101067857Y-88465476D01*
X101115476Y-88453571D01*
X101139285Y-88441666D01*
X101151190Y-88429761D01*
X101163095Y-88405952D01*
X101163095Y-88382142D01*
X101151190Y-88358333D01*
X101139285Y-88346428D01*
X101115476Y-88334523D01*
X101067857Y-88322619D01*
X101008333Y-88322619D01*
X100960714Y-88334523D01*
X100936904Y-88346428D01*
X100925000Y-88358333D01*
X100913095Y-88382142D01*
X101139285Y-85189285D02*
X101151190Y-85177380D01*
X101163095Y-85141666D01*
X101163095Y-85117857D01*
X101151190Y-85082142D01*
X101127380Y-85058333D01*
X101103571Y-85046428D01*
X101055952Y-85034523D01*
X101020238Y-85034523D01*
X100972619Y-85046428D01*
X100948809Y-85058333D01*
X100925000Y-85082142D01*
X100913095Y-85117857D01*
X100913095Y-85141666D01*
X100925000Y-85177380D01*
X100936904Y-85189285D01*
X100996428Y-85403571D02*
X101163095Y-85403571D01*
X100901190Y-85344047D02*
X101079761Y-85284523D01*
X101079761Y-85439285D01*
X101163095Y-85546428D02*
X101163095Y-85594047D01*
X101151190Y-85617857D01*
X101139285Y-85629761D01*
X101103571Y-85653571D01*
X101055952Y-85665476D01*
X100960714Y-85665476D01*
X100936904Y-85653571D01*
X100925000Y-85641666D01*
X100913095Y-85617857D01*
X100913095Y-85570238D01*
X100925000Y-85546428D01*
X100936904Y-85534523D01*
X100960714Y-85522619D01*
X101020238Y-85522619D01*
X101044047Y-85534523D01*
X101055952Y-85546428D01*
X101067857Y-85570238D01*
X101067857Y-85617857D01*
X101055952Y-85641666D01*
X101044047Y-85653571D01*
X101020238Y-85665476D01*
X99239285Y-93589285D02*
X99251190Y-93577380D01*
X99263095Y-93541666D01*
X99263095Y-93517857D01*
X99251190Y-93482142D01*
X99227380Y-93458333D01*
X99203571Y-93446428D01*
X99155952Y-93434523D01*
X99120238Y-93434523D01*
X99072619Y-93446428D01*
X99048809Y-93458333D01*
X99025000Y-93482142D01*
X99013095Y-93517857D01*
X99013095Y-93541666D01*
X99025000Y-93577380D01*
X99036904Y-93589285D01*
X99096428Y-93803571D02*
X99263095Y-93803571D01*
X99001190Y-93744047D02*
X99179761Y-93684523D01*
X99179761Y-93839285D01*
X99120238Y-93970238D02*
X99108333Y-93946428D01*
X99096428Y-93934523D01*
X99072619Y-93922619D01*
X99060714Y-93922619D01*
X99036904Y-93934523D01*
X99025000Y-93946428D01*
X99013095Y-93970238D01*
X99013095Y-94017857D01*
X99025000Y-94041666D01*
X99036904Y-94053571D01*
X99060714Y-94065476D01*
X99072619Y-94065476D01*
X99096428Y-94053571D01*
X99108333Y-94041666D01*
X99120238Y-94017857D01*
X99120238Y-93970238D01*
X99132142Y-93946428D01*
X99144047Y-93934523D01*
X99167857Y-93922619D01*
X99215476Y-93922619D01*
X99239285Y-93934523D01*
X99251190Y-93946428D01*
X99263095Y-93970238D01*
X99263095Y-94017857D01*
X99251190Y-94041666D01*
X99239285Y-94053571D01*
X99215476Y-94065476D01*
X99167857Y-94065476D01*
X99144047Y-94053571D01*
X99132142Y-94041666D01*
X99120238Y-94017857D01*
X83860714Y-96789285D02*
X83872619Y-96801190D01*
X83908333Y-96813095D01*
X83932142Y-96813095D01*
X83967857Y-96801190D01*
X83991666Y-96777380D01*
X84003571Y-96753571D01*
X84015476Y-96705952D01*
X84015476Y-96670238D01*
X84003571Y-96622619D01*
X83991666Y-96598809D01*
X83967857Y-96575000D01*
X83932142Y-96563095D01*
X83908333Y-96563095D01*
X83872619Y-96575000D01*
X83860714Y-96586904D01*
X83765476Y-96586904D02*
X83753571Y-96575000D01*
X83729761Y-96563095D01*
X83670238Y-96563095D01*
X83646428Y-96575000D01*
X83634523Y-96586904D01*
X83622619Y-96610714D01*
X83622619Y-96634523D01*
X83634523Y-96670238D01*
X83777380Y-96813095D01*
X83622619Y-96813095D01*
X83539285Y-96563095D02*
X83384523Y-96563095D01*
X83467857Y-96658333D01*
X83432142Y-96658333D01*
X83408333Y-96670238D01*
X83396428Y-96682142D01*
X83384523Y-96705952D01*
X83384523Y-96765476D01*
X83396428Y-96789285D01*
X83408333Y-96801190D01*
X83432142Y-96813095D01*
X83503571Y-96813095D01*
X83527380Y-96801190D01*
X83539285Y-96789285D01*
X84989285Y-95339285D02*
X85001190Y-95327380D01*
X85013095Y-95291666D01*
X85013095Y-95267857D01*
X85001190Y-95232142D01*
X84977380Y-95208333D01*
X84953571Y-95196428D01*
X84905952Y-95184523D01*
X84870238Y-95184523D01*
X84822619Y-95196428D01*
X84798809Y-95208333D01*
X84775000Y-95232142D01*
X84763095Y-95267857D01*
X84763095Y-95291666D01*
X84775000Y-95327380D01*
X84786904Y-95339285D01*
X84763095Y-95422619D02*
X84763095Y-95589285D01*
X85013095Y-95482142D01*
X84763095Y-95660714D02*
X84763095Y-95827380D01*
X85013095Y-95720238D01*
X81789285Y-94539285D02*
X81801190Y-94527380D01*
X81813095Y-94491666D01*
X81813095Y-94467857D01*
X81801190Y-94432142D01*
X81777380Y-94408333D01*
X81753571Y-94396428D01*
X81705952Y-94384523D01*
X81670238Y-94384523D01*
X81622619Y-94396428D01*
X81598809Y-94408333D01*
X81575000Y-94432142D01*
X81563095Y-94467857D01*
X81563095Y-94491666D01*
X81575000Y-94527380D01*
X81586904Y-94539285D01*
X81586904Y-94634523D02*
X81575000Y-94646428D01*
X81563095Y-94670238D01*
X81563095Y-94729761D01*
X81575000Y-94753571D01*
X81586904Y-94765476D01*
X81610714Y-94777380D01*
X81634523Y-94777380D01*
X81670238Y-94765476D01*
X81813095Y-94622619D01*
X81813095Y-94777380D01*
X81563095Y-95003571D02*
X81563095Y-94884523D01*
X81682142Y-94872619D01*
X81670238Y-94884523D01*
X81658333Y-94908333D01*
X81658333Y-94967857D01*
X81670238Y-94991666D01*
X81682142Y-95003571D01*
X81705952Y-95015476D01*
X81765476Y-95015476D01*
X81789285Y-95003571D01*
X81801190Y-94991666D01*
X81813095Y-94967857D01*
X81813095Y-94908333D01*
X81801190Y-94884523D01*
X81789285Y-94872619D01*
M02*
