M48
; DRILL file {KiCad 5.1.8} date Sat Dec 26 16:11:07 2020
; FORMAT={-:-/ absolute / inch / decimal}
; #@! TF.CreationDate,2020-12-26T16:11:07-08:00
; #@! TF.GenerationSoftware,Kicad,Pcbnew,5.1.8
FMAT,2
INCH
T1C0.0079
T2C0.0118
T3C0.0197
T4C0.0236
T5C0.0276
T6C0.0315
T7C0.0394
T8C0.0472
T9C0.1378
T10C0.0256
T11C0.0433
%
G90
G05
T1
X3.1535Y-3.6181
X3.185Y-3.6181
X3.185Y-3.6496
X3.185Y-3.6811
X3.185Y-3.7126
X3.185Y-3.7441
X3.185Y-3.7756
X3.185Y-3.8386
X3.185Y-3.8701
X3.2165Y-3.7756
X3.2165Y-3.8071
X3.2165Y-3.8701
X3.248Y-3.6496
X3.248Y-3.6811
X3.248Y-3.7126
X3.248Y-3.7441
X3.248Y-3.8071
X3.248Y-3.8701
X3.2795Y-3.6496
X3.2795Y-3.6811
X3.2795Y-3.7441
X3.2795Y-3.7756
X3.2795Y-3.8386
X3.311Y-3.6811
X3.311Y-3.7441
X3.311Y-3.7756
X3.311Y-3.8386
X3.3425Y-3.6181
X3.3425Y-3.6496
X3.3425Y-3.7126
X3.3425Y-3.8071
X3.3425Y-3.8386
X3.3425Y-3.8701
X3.374Y-3.6181
X3.374Y-3.6496
X3.374Y-3.7756
X3.374Y-3.8071
X3.374Y-3.8701
X3.4055Y-3.6496
X3.4055Y-3.6811
X3.4055Y-3.7441
X3.4055Y-3.7756
X3.4055Y-3.8071
X3.4055Y-3.8386
X3.4055Y-3.9016
X3.437Y-3.7126
T2
X2.1417Y-3.7224
X2.1673Y-3.4252
X2.1673Y-3.189
X2.1673Y-3.2677
X2.1673Y-3.5039
X2.1673Y-4.0157
X2.1673Y-4.0945
X2.1673Y-4.252
X2.1673Y-3.3465
X2.1673Y-4.3307
X2.1673Y-4.1732
X2.185Y-3.75
X2.185Y-3.7913
X2.2677Y-3.6063
X2.2756Y-3.9055
X2.2795Y-3.7283
X2.2795Y-3.7715
X2.2795Y-3.811
X2.2894Y-3.1319
X2.315Y-3.0118
X2.3386Y-4.5276
X2.3504Y-3.189
X2.3504Y-4.0157
X2.3504Y-4.0945
X2.3504Y-4.1732
X2.3504Y-4.252
X2.3504Y-4.3307
X2.3878Y-3.5512
X2.3937Y-3.0118
X2.4134Y-4.4409
X2.4299Y-3.8484
X2.437Y-3.0118
X2.437Y-4.3228
X2.4405Y-4.6263
X2.4813Y-3.1657
X2.4848Y-3.012
X2.5079Y-4.3681
X2.5079Y-4.3898
X2.5079Y-4.4114
X2.5079Y-4.4331
X2.5079Y-4.6063
X2.5079Y-4.628
X2.5197Y-3.7146
X2.5295Y-3.0118
X2.5433Y-4.2441
X2.5433Y-4.2677
X2.5433Y-4.4449
X2.5433Y-4.4685
X2.5551Y-3.6713
X2.5551Y-3.75
X2.5551Y-3.8287
X2.5607Y-3.5613
X2.561Y-3.5295
X2.5787Y-3.0118
X2.5906Y-3.561
X2.5945Y-3.9567
X2.6293Y-3.0112
X2.6299Y-3.1654
X2.6299Y-3.561
X2.6378Y-3.9961
X2.6457Y-4.2441
X2.6457Y-4.2677
X2.6457Y-4.4449
X2.6457Y-4.4685
X2.6614Y-3.561
X2.6614Y-3.9547
X2.6713Y-4.4193
X2.6713Y-4.6152
X2.6732Y-3.9961
X2.6791Y-3.0118
X2.6969Y-4.2657
X2.6969Y-4.4665
X2.7067Y-3.9961
X2.7244Y-4.1654
X2.7283Y-3.0118
X2.7379Y-4.5847
X2.7382Y-4.3642
X2.7382Y-4.3917
X2.7382Y-4.565
X2.7402Y-3.9961
X2.7559Y-4.1654
X2.7795Y-3.0118
X2.7795Y-3.1654
X2.7795Y-4.4994
X2.7798Y-4.4609
X2.7874Y-4.1654
X2.8063Y-4.5791
X2.813Y-3.4665
X2.8189Y-4.1654
X2.8287Y-3.0118
X2.8346Y-4.3031
X2.8406Y-4.6713
X2.8406Y-4.7028
X2.8583Y-3.9547
X2.8701Y-4.3661
X2.878Y-3.561
X2.878Y-3.0118
X2.8819Y-4.189
X2.9055Y-3.6043
X2.9055Y-4.4291
X2.9094Y-4.2008
X2.9193Y-4.1496
X2.9232Y-3.9783
X2.9291Y-3.0118
X2.9291Y-3.1654
X2.9409Y-3.5
X2.9449Y-3.8307
X2.9488Y-3.7451
X2.9489Y-3.7868
X2.9724Y-4.3031
X2.9803Y-3.0118
X2.9882Y-3.4724
X2.9911Y-3.6297
X2.9921Y-3.9094
X2.9961Y-4.4291
X3.0079Y-4.3661
X3.0157Y-3.8858
X3.0197Y-4.189
X3.0212Y-3.7889
X3.0237Y-3.8183
X3.0276Y-3.0118
X3.0374Y-4.6713
X3.0374Y-4.7028
X3.0394Y-4.4291
X3.0433Y-3.9921
X3.0472Y-4.2008
X3.0528Y-3.6946
X3.0551Y-3.5551
X3.0748Y-3.7598
X3.0787Y-3.0118
X3.0787Y-3.1654
X3.0945Y-3.5945
X3.0945Y-3.7165
X3.1102Y-3.9083
X3.1142Y-4.0236
X3.1181Y-3.937
X3.1299Y-3.0118
X3.1378Y-3.9882
X3.1496Y-4.1595
X3.1732Y-4.1417
X3.1811Y-3.0118
X3.1969Y-4.1181
X3.2205Y-4.0945
X3.2283Y-3.0118
X3.2283Y-3.1654
X3.2441Y-4.0709
X3.2598Y-4.3701
X3.2598Y-4.5669
X3.2677Y-4.0472
X3.2793Y-3.0116
X3.2913Y-4.0236
X3.315Y-3.0118
X3.3386Y-3.9862
X3.378Y-3.1654
X3.4272Y-3.5433
X3.4331Y-4.3701
X3.4449Y-3.9724
X3.4508Y-3.4882
X3.4508Y-4.187
X3.4567Y-3.9436
X3.4764Y-4.4685
X3.4764Y-4.5669
X3.4882Y-3.6693
X3.5079Y-3.7598
X3.5236Y-3.622
X3.5276Y-3.7067
X3.5709Y-4.4094
X3.5748Y-3.8583
X3.5748Y-3.8937
X3.5748Y-3.9232
X3.5787Y-3.437
X3.6238Y-3.7539
X3.626Y-3.6949
X3.6358Y-3.7244
X3.6476Y-3.878
X3.6673Y-3.7717
X3.6791Y-3.7441
X3.6811Y-3.2205
X3.685Y-4.2244
X3.7835Y-3.3484
X3.7835Y-3.378
X3.7835Y-3.4587
X3.7835Y-3.4882
X3.7835Y-3.5689
X3.7835Y-3.5984
X3.7835Y-3.6791
X3.7835Y-3.7087
X3.7835Y-3.7933
X3.7835Y-3.8228
X3.7835Y-3.8996
X3.7835Y-3.9291
X3.7835Y-4.0098
X3.7835Y-4.0394
X3.7835Y-4.1201
X3.7835Y-4.1496
X3.8209Y-4.2106
X3.8307Y-3.2165
X3.8386Y-4.2106
X3.8524Y-3.3287
X3.8524Y-3.3484
X3.8524Y-3.378
X3.8524Y-3.4587
X3.8524Y-3.4882
X3.8524Y-3.5689
X3.8524Y-3.5984
X3.8524Y-3.6791
X3.8524Y-3.7087
X3.8524Y-3.7933
X3.8524Y-3.8228
X3.8524Y-3.8996
X3.8524Y-3.9291
X3.8524Y-4.0098
X3.8524Y-4.0394
X3.8524Y-4.1201
X3.8524Y-4.1496
X3.9252Y-3.2421
X3.9375Y-3.3826
X3.9405Y-4.1492
X3.9407Y-3.5686
X3.9407Y-3.3533
X3.9409Y-3.4587
X3.9409Y-3.4882
X3.9409Y-3.5984
X3.9409Y-3.6791
X3.9409Y-3.7087
X3.9409Y-3.7933
X3.9409Y-3.8228
X3.9409Y-3.8996
X3.9409Y-3.9291
X3.9409Y-4.0098
X3.9409Y-4.0394
X3.9409Y-4.1791
X3.941Y-4.1197
X3.9423Y-3.3238
X3.9452Y-3.4112
X3.9547Y-3.2421
X3.9843Y-3.1299
X3.9843Y-4.3898
X3.9941Y-4.2776
X4.0039Y-4.1024
X4.009Y-3.4595
X4.0098Y-3.5689
X4.0098Y-3.5984
X4.0098Y-3.6791
X4.0098Y-3.7087
X4.0098Y-3.7933
X4.0098Y-3.8228
X4.0098Y-3.8996
X4.0098Y-3.9291
X4.0098Y-4.0098
X4.0098Y-4.0394
X4.0099Y-3.489
X4.0157Y-3.1299
X4.0157Y-4.3898
X4.0472Y-3.1299
X4.0472Y-4.3898
X4.0787Y-3.1299
X4.0787Y-4.3898
X4.1102Y-3.1299
X4.1102Y-4.3898
X4.1122Y-3.2421
X4.1417Y-3.1299
X4.1417Y-4.3912
X4.1516Y-4.2776
X4.1725Y-3.129
X4.179Y-4.3918
X4.1811Y-4.2776
X4.2047Y-3.1299
X4.2111Y-4.3927
X4.2244Y-3.7441
X4.2244Y-3.8425
X4.2244Y-4.1496
X4.2283Y-3.3701
X4.2283Y-3.9252
X4.2343Y-3.5374
X4.2343Y-3.5748
X4.2421Y-4.1496
X4.248Y-3.3701
X4.2559Y-4.0236
X4.2598Y-3.9252
X4.2618Y-4.1496
X4.2657Y-3.6811
X4.2677Y-3.3701
X4.2717Y-3.8937
X4.374Y-3.7205
X4.5Y-3.8031
X4.5709Y-4.189
X4.6053Y-4.0315
X4.6063Y-3.4921
X4.6063Y-3.5945
X4.626Y-4.315
X4.6467Y-4.0315
X4.6496Y-4.0827
X4.6496Y-4.1142
X4.6535Y-3.9173
X4.6693Y-3.9764
X4.6732Y-3.5354
X4.6772Y-3.2638
X4.6772Y-3.3031
X4.6772Y-3.3386
X4.685Y-3.5906
X4.6929Y-3.4488
X4.7047Y-3.9016
X4.7205Y-4.1496
X4.7205Y-4.185
X4.7244Y-3.9016
X4.7283Y-3.685
X4.7283Y-3.7244
X4.7362Y-4.0906
X4.7402Y-4.0591
X4.7441Y-3.9016
X4.748Y-4.0118
X4.7559Y-3.8583
X4.7638Y-3.9016
X4.7717Y-4.0118
X4.7874Y-3.4094
X4.7874Y-3.437
X4.7874Y-3.4646
X4.7874Y-3.6083
X4.7992Y-4.0551
X4.7992Y-4.1102
X4.8268Y-4.3819
X4.8346Y-3.3031
X4.8346Y-4.2165
X4.8465Y-4.0551
X4.8465Y-4.1102
X4.8504Y-3.9114
X4.8504Y-3.935
X4.8543Y-3.6457
X4.8543Y-3.7205
X4.8543Y-3.874
X4.8583Y-3.5846
X4.8583Y-3.6083
X4.8622Y-3.4094
X4.8622Y-3.4646
X4.874Y-3.3031
X4.874Y-4.2165
X4.8858Y-3.2205
X4.8937Y-4.3504
X4.9016Y-3.1693
X4.9094Y-3.4094
X4.9094Y-3.4646
X4.9213Y-3.9114
X4.9213Y-4.0551
X4.9213Y-4.0827
X4.9213Y-4.1102
X4.937Y-3.5079
X4.9449Y-3.6181
X4.9488Y-4.2717
X4.9606Y-3.5079
X4.9646Y-3.6181
X4.9685Y-3.4606
X4.9724Y-3.4291
X4.9803Y-3.7953
X4.9803Y-3.8346
X4.9843Y-3.6181
X4.9862Y-3.3524
X4.9882Y-3.3071
X5.0039Y-3.6181
X5.0197Y-4.0748
X5.0236Y-3.9291
X5.0236Y-3.9685
X5.0315Y-4.1811
X5.0315Y-4.2165
X5.0315Y-4.2559
X2.5945Y-4.3051
X2.5945Y-4.3484
X2.65Y-3.6598
X2.65Y-3.7098
X2.65Y-3.7598
X2.65Y-3.8098
X2.65Y-3.8598
X2.7Y-3.6598
X2.7Y-3.7098
X2.7Y-3.7598
X2.7Y-3.8098
X2.7Y-3.8598
X2.75Y-3.6598
X2.75Y-3.7098
X2.75Y-3.7598
X2.75Y-3.8098
X2.75Y-3.8598
X2.8Y-3.6598
X2.8Y-3.7098
X2.8Y-3.7598
X2.8Y-3.8098
X2.8Y-3.8598
X2.85Y-3.6598
X2.85Y-3.7098
X2.85Y-3.7598
X2.85Y-3.8098
X2.85Y-3.8598
X2.5945Y-4.5059
X2.5945Y-4.5492
T3
X4.8573Y-2.9528
X4.8876Y-2.8797
X4.8876Y-3.0258
X4.9606Y-2.8494
X4.9606Y-3.0561
X5.0337Y-2.8797
X5.0337Y-3.0258
X5.064Y-2.9528
X4.8573Y-4.5669
X4.8876Y-4.4939
X4.8876Y-4.64
X4.9606Y-4.4636
X4.9606Y-4.6703
X5.0337Y-4.4939
X5.0337Y-4.64
X5.064Y-4.5669
X2.0226Y-4.5669
X2.0529Y-4.4939
X2.0529Y-4.64
X2.126Y-4.4636
X2.126Y-4.6703
X2.1991Y-4.4939
X2.1991Y-4.64
X2.2293Y-4.5669
X2.0226Y-2.9528
X2.0529Y-2.8797
X2.0529Y-3.0258
X2.126Y-2.8494
X2.126Y-3.0561
X2.1991Y-2.8797
X2.1991Y-3.0258
X2.2293Y-2.9528
T5
X4.2441Y-3.4488
X4.2941Y-3.4488
X4.3441Y-3.4488
X4.3941Y-3.4488
X4.4441Y-3.4488
X4.4941Y-3.4488
X4.5441Y-3.4488
X4.5941Y-3.4488
X4.2445Y-4.0717
X4.2945Y-4.0717
X4.3445Y-4.0717
X4.3945Y-4.0717
X4.4445Y-4.0717
X4.4945Y-4.0717
X4.5445Y-4.0717
X4.5945Y-4.0717
X4.2441Y-3.248
X4.2941Y-3.248
X4.3441Y-3.248
X4.3941Y-3.248
X4.4441Y-3.248
X4.4941Y-3.248
X4.5441Y-3.248
X4.5941Y-3.248
X4.2445Y-4.2717
X4.2945Y-4.2717
X4.3445Y-4.2717
X4.3945Y-4.2717
X4.4445Y-4.2717
X4.4945Y-4.2717
X4.5445Y-4.2717
X4.5945Y-4.2717
T6
X2.8799Y-4.6213
X2.939Y-4.6941
X2.998Y-4.6213
T7
X3.6445Y-2.9598
X3.6445Y-3.0598
X3.7445Y-2.9598
X3.7445Y-3.0598
X3.8445Y-2.9598
X3.8445Y-3.0598
X3.9445Y-2.9598
X3.9445Y-3.0598
X4.0445Y-2.9598
X4.0445Y-3.0598
X4.1445Y-2.9598
X4.1445Y-3.0598
X4.2445Y-2.9598
X4.2445Y-3.0598
X4.3445Y-2.9598
X4.3445Y-3.0598
X4.4445Y-2.9598
X4.4445Y-3.0598
X4.5445Y-2.9598
X4.5445Y-3.0598
X3.6445Y-4.4598
X3.6445Y-4.5598
X3.7445Y-4.4598
X3.7445Y-4.5598
X3.8445Y-4.4598
X3.8445Y-4.5598
X3.9445Y-4.4598
X3.9445Y-4.5598
X4.0445Y-4.4598
X4.0445Y-4.5598
X4.1445Y-4.4598
X4.1445Y-4.5598
X4.2445Y-4.4598
X4.2445Y-4.5598
X4.3445Y-4.4598
X4.3445Y-4.5598
X4.4445Y-4.4598
X4.4445Y-4.5598
X4.5445Y-4.4598
X4.5445Y-4.5598
X4.1445Y-3.6598
X4.1445Y-3.7598
X4.1445Y-3.8598
T8
X3.211Y-4.2677
X3.311Y-4.2677
T9
X4.9606Y-2.9528
X4.9606Y-4.5669
X2.126Y-4.5669
X2.126Y-2.9528
T10
X2.1752Y-3.6461
X2.1752Y-3.8736
T11
X2.3543Y-3.0118
X3.3543Y-3.0118
T4
G00X2.0433Y-3.5898
M15
G01X2.0197Y-3.5898
M16
G05
G00X2.0433Y-3.9299
M15
G01X2.0197Y-3.9299
M16
G05
G00X2.2177Y-3.5898
M15
G01X2.1744Y-3.5898
M16
G05
G00X2.2177Y-3.9299
M15
G01X2.1744Y-3.9299
M16
G05
T0
M30
