G04 #@! TF.GenerationSoftware,KiCad,Pcbnew,5.0.0-rc3-6a2723a~65~ubuntu18.04.1*
G04 #@! TF.CreationDate,2018-07-21T07:19:33+00:00*
G04 #@! TF.ProjectId,glasgow,676C6173676F772E6B696361645F7063,rev?*
G04 #@! TF.SameCoordinates,Original*
G04 #@! TF.FileFunction,Copper,L4,Bot,Signal*
G04 #@! TF.FilePolarity,Positive*
%FSLAX46Y46*%
G04 Gerber Fmt 4.6, Leading zero omitted, Abs format (unit mm)*
G04 Created by KiCad (PCBNEW 5.0.0-rc3-6a2723a~65~ubuntu18.04.1) date Sat Jul 21 07:19:33 2018*
%MOMM*%
%LPD*%
G01*
G04 APERTURE LIST*
G04 #@! TA.AperFunction,ViaPad*
%ADD10C,0.600000*%
G04 #@! TD*
G04 #@! TA.AperFunction,Conductor*
%ADD11R,6.100000X6.100000*%
G04 #@! TD*
G04 #@! TA.AperFunction,SMDPad,CuDef*
%ADD12R,1.000000X0.995000*%
G04 #@! TD*
G04 #@! TA.AperFunction,BGAPad,CuDef*
%ADD13C,0.750000*%
G04 #@! TD*
G04 #@! TA.AperFunction,ComponentPad*
%ADD14C,0.600000*%
G04 #@! TD*
G04 #@! TA.AperFunction,Conductor*
%ADD15R,2.800000X2.540000*%
G04 #@! TD*
G04 #@! TA.AperFunction,SMDPad,CuDef*
%ADD16R,0.995000X1.000000*%
G04 #@! TD*
G04 #@! TA.AperFunction,ComponentPad*
%ADD17R,1.700000X1.700000*%
G04 #@! TD*
G04 #@! TA.AperFunction,ComponentPad*
%ADD18O,1.700000X1.700000*%
G04 #@! TD*
G04 #@! TA.AperFunction,ComponentPad*
%ADD19C,6.400000*%
G04 #@! TD*
G04 #@! TA.AperFunction,ViaPad*
%ADD20C,0.700000*%
G04 #@! TD*
G04 #@! TA.AperFunction,Conductor*
%ADD21C,0.160000*%
G04 #@! TD*
G04 #@! TA.AperFunction,Conductor*
%ADD22C,0.250000*%
G04 #@! TD*
G04 #@! TA.AperFunction,Conductor*
%ADD23C,0.450000*%
G04 #@! TD*
G04 #@! TA.AperFunction,Conductor*
%ADD24C,0.750000*%
G04 #@! TD*
G04 #@! TA.AperFunction,Conductor*
%ADD25C,0.254000*%
G04 #@! TD*
G04 APERTURE END LIST*
D10*
G04 #@! TO.N,GND*
G04 #@! TO.C,U1*
X69000000Y-95500000D03*
X70270000Y-95500000D03*
X71540000Y-95500000D03*
X67730000Y-95500000D03*
X66460000Y-95500000D03*
X66460000Y-94230000D03*
X67730000Y-94230000D03*
X69000000Y-94230000D03*
X70270000Y-94230000D03*
X71540000Y-94230000D03*
X71540000Y-92960000D03*
X70270000Y-92960000D03*
X69000000Y-92960000D03*
X67730000Y-92960000D03*
X66460000Y-92960000D03*
X66460000Y-96770000D03*
X67730000Y-96770000D03*
X69000000Y-96770000D03*
X70270000Y-96770000D03*
X71540000Y-96770000D03*
X71540000Y-98040000D03*
X70270000Y-98040000D03*
X69000000Y-98040000D03*
X67730000Y-98040000D03*
X66460000Y-98040000D03*
D11*
X69000000Y-95500000D03*
G04 #@! TD*
D12*
G04 #@! TO.P,C8,1*
G04 #@! TO.N,/VUSB*
X58450000Y-97037500D03*
G04 #@! TO.P,C8,2*
G04 #@! TO.N,GND*
X58450000Y-98812500D03*
G04 #@! TD*
D13*
G04 #@! TO.P,FID4,~*
G04 #@! TO.N,N/C*
X119750000Y-75000000D03*
G04 #@! TD*
G04 #@! TO.P,FID1,~*
G04 #@! TO.N,N/C*
X60250000Y-116000000D03*
G04 #@! TD*
D14*
G04 #@! TO.P,U8,9*
G04 #@! TO.N,GND*
X73266581Y-79750000D03*
X72266581Y-79750000D03*
X72266581Y-78750000D03*
X73266581Y-78750000D03*
D15*
G04 #@! TD*
G04 #@! TO.N,GND*
G04 #@! TO.C,U8*
X72766581Y-79250000D03*
D16*
G04 #@! TO.P,C30,1*
G04 #@! TO.N,+3V3*
X100137500Y-89750000D03*
G04 #@! TO.P,C30,2*
G04 #@! TO.N,GND*
X98362500Y-89750000D03*
G04 #@! TD*
D12*
G04 #@! TO.P,R30,1*
G04 #@! TO.N,/VCCPLL*
X92250000Y-96887500D03*
G04 #@! TO.P,R30,2*
G04 #@! TO.N,+1V2*
X92250000Y-95112500D03*
G04 #@! TD*
G04 #@! TO.P,C34,2*
G04 #@! TO.N,GND*
X93250000Y-86887500D03*
G04 #@! TO.P,C34,1*
G04 #@! TO.N,+3V3*
X93250000Y-85112500D03*
G04 #@! TD*
G04 #@! TO.P,C35,1*
G04 #@! TO.N,+3V3*
X91250000Y-85112500D03*
G04 #@! TO.P,C35,2*
G04 #@! TO.N,GND*
X91250000Y-86887500D03*
G04 #@! TD*
D16*
G04 #@! TO.P,C36,2*
G04 #@! TO.N,GND*
X110612500Y-89000000D03*
G04 #@! TO.P,C36,1*
G04 #@! TO.N,+3V3*
X112387500Y-89000000D03*
G04 #@! TD*
G04 #@! TO.P,C38,1*
G04 #@! TO.N,+5V*
X112387500Y-83000000D03*
G04 #@! TO.P,C38,2*
G04 #@! TO.N,GND*
X110612500Y-83000000D03*
G04 #@! TD*
G04 #@! TO.P,C47,2*
G04 #@! TO.N,GND*
X108887500Y-103750000D03*
G04 #@! TO.P,C47,1*
G04 #@! TO.N,/IOBufferB/VIO*
X107112500Y-103750000D03*
G04 #@! TD*
G04 #@! TO.P,C46,1*
G04 #@! TO.N,/IOBufferB/VIO*
X107112500Y-105500000D03*
G04 #@! TO.P,C46,2*
G04 #@! TO.N,GND*
X108887500Y-105500000D03*
G04 #@! TD*
G04 #@! TO.P,C45,1*
G04 #@! TO.N,+5V*
X95612500Y-108000000D03*
G04 #@! TO.P,C45,2*
G04 #@! TO.N,GND*
X97387500Y-108000000D03*
G04 #@! TD*
G04 #@! TO.P,C43,1*
G04 #@! TO.N,+3V3*
X91637500Y-108000000D03*
G04 #@! TO.P,C43,2*
G04 #@! TO.N,GND*
X89862500Y-108000000D03*
G04 #@! TD*
D12*
G04 #@! TO.P,C42,1*
G04 #@! TO.N,+3V3*
X116000000Y-105637500D03*
G04 #@! TO.P,C42,2*
G04 #@! TO.N,GND*
X116000000Y-103862500D03*
G04 #@! TD*
G04 #@! TO.P,C41,2*
G04 #@! TO.N,GND*
X114000000Y-103862500D03*
G04 #@! TO.P,C41,1*
G04 #@! TO.N,+3V3*
X114000000Y-105637500D03*
G04 #@! TD*
D16*
G04 #@! TO.P,C40,1*
G04 #@! TO.N,/IOBufferA/VIO*
X100137500Y-87250000D03*
G04 #@! TO.P,C40,2*
G04 #@! TO.N,GND*
X98362500Y-87250000D03*
G04 #@! TD*
G04 #@! TO.P,C39,1*
G04 #@! TO.N,/IOBufferA/VIO*
X100137500Y-85450000D03*
G04 #@! TO.P,C39,2*
G04 #@! TO.N,GND*
X98362500Y-85450000D03*
G04 #@! TD*
G04 #@! TO.P,C33,1*
G04 #@! TO.N,/VCCPLL*
X89612500Y-98500000D03*
G04 #@! TO.P,C33,2*
G04 #@! TO.N,GND*
X91387500Y-98500000D03*
G04 #@! TD*
G04 #@! TO.P,C31,2*
G04 #@! TO.N,GND*
X108887500Y-101250000D03*
G04 #@! TO.P,C31,1*
G04 #@! TO.N,+3V3*
X107112500Y-101250000D03*
G04 #@! TD*
G04 #@! TO.P,C32,1*
G04 #@! TO.N,+3V3*
X107112500Y-99500000D03*
G04 #@! TO.P,C32,2*
G04 #@! TO.N,GND*
X108887500Y-99500000D03*
G04 #@! TD*
G04 #@! TO.P,C29,2*
G04 #@! TO.N,GND*
X98362500Y-91500000D03*
G04 #@! TO.P,C29,1*
G04 #@! TO.N,+3V3*
X100137500Y-91500000D03*
G04 #@! TD*
D17*
G04 #@! TO.P,J4,1*
G04 #@! TO.N,GND*
X79750000Y-83250000D03*
D18*
G04 #@! TO.P,J4,2*
G04 #@! TO.N,/~SYNC*
X82290000Y-83250000D03*
G04 #@! TD*
D16*
G04 #@! TO.P,C22,1*
G04 #@! TO.N,+3V3*
X79362500Y-92750000D03*
G04 #@! TO.P,C22,2*
G04 #@! TO.N,GND*
X81137500Y-92750000D03*
G04 #@! TD*
G04 #@! TO.P,C25,2*
G04 #@! TO.N,GND*
X81137500Y-94750000D03*
G04 #@! TO.P,C25,1*
G04 #@! TO.N,+1V2*
X79362500Y-94750000D03*
G04 #@! TD*
G04 #@! TO.P,C24,1*
G04 #@! TO.N,+1V2*
X90637500Y-95250000D03*
G04 #@! TO.P,C24,2*
G04 #@! TO.N,GND*
X88862500Y-95250000D03*
G04 #@! TD*
G04 #@! TO.P,C23,2*
G04 #@! TO.N,GND*
X88862500Y-93750000D03*
G04 #@! TO.P,C23,1*
G04 #@! TO.N,+3V3*
X90637500Y-93750000D03*
G04 #@! TD*
G04 #@! TO.P,C19,1*
G04 #@! TO.N,+3V3*
X89612500Y-100000000D03*
G04 #@! TO.P,C19,2*
G04 #@! TO.N,GND*
X91387500Y-100000000D03*
G04 #@! TD*
D12*
G04 #@! TO.P,C20,2*
G04 #@! TO.N,GND*
X88000000Y-99362500D03*
G04 #@! TO.P,C20,1*
G04 #@! TO.N,+3V3*
X88000000Y-101137500D03*
G04 #@! TD*
G04 #@! TO.P,C21,1*
G04 #@! TO.N,+3V3*
X86500000Y-101137500D03*
G04 #@! TO.P,C21,2*
G04 #@! TO.N,GND*
X86500000Y-99362500D03*
G04 #@! TD*
D18*
G04 #@! TO.P,J2,20*
G04 #@! TO.N,GND*
X115430000Y-75190000D03*
G04 #@! TO.P,J2,19*
G04 #@! TO.N,Net-(J2-Pad19)*
X115430000Y-77730000D03*
G04 #@! TO.P,J2,18*
G04 #@! TO.N,GND*
X112890000Y-75190000D03*
G04 #@! TO.P,J2,17*
G04 #@! TO.N,/IOBufferA/Z7*
X112890000Y-77730000D03*
G04 #@! TO.P,J2,16*
G04 #@! TO.N,GND*
X110350000Y-75190000D03*
G04 #@! TO.P,J2,15*
G04 #@! TO.N,/IOBufferA/Z6*
X110350000Y-77730000D03*
G04 #@! TO.P,J2,14*
G04 #@! TO.N,GND*
X107810000Y-75190000D03*
G04 #@! TO.P,J2,13*
G04 #@! TO.N,/IOBufferA/Z5*
X107810000Y-77730000D03*
G04 #@! TO.P,J2,12*
G04 #@! TO.N,GND*
X105270000Y-75190000D03*
G04 #@! TO.P,J2,11*
G04 #@! TO.N,/IOBufferA/Z4*
X105270000Y-77730000D03*
G04 #@! TO.P,J2,10*
G04 #@! TO.N,GND*
X102730000Y-75190000D03*
G04 #@! TO.P,J2,9*
G04 #@! TO.N,/IOBufferA/Z3*
X102730000Y-77730000D03*
G04 #@! TO.P,J2,8*
G04 #@! TO.N,GND*
X100190000Y-75190000D03*
G04 #@! TO.P,J2,7*
G04 #@! TO.N,/IOBufferA/Z2*
X100190000Y-77730000D03*
G04 #@! TO.P,J2,6*
G04 #@! TO.N,GND*
X97650000Y-75190000D03*
G04 #@! TO.P,J2,5*
G04 #@! TO.N,/IOBufferA/Z1*
X97650000Y-77730000D03*
G04 #@! TO.P,J2,4*
G04 #@! TO.N,GND*
X95110000Y-75190000D03*
G04 #@! TO.P,J2,3*
G04 #@! TO.N,/IOBufferA/Z0*
X95110000Y-77730000D03*
G04 #@! TO.P,J2,2*
G04 #@! TO.N,/IOBufferA/VIO*
X92570000Y-75190000D03*
D17*
G04 #@! TO.P,J2,1*
G04 #@! TO.N,/IOBufferA/VSENSE*
X92570000Y-77730000D03*
G04 #@! TD*
G04 #@! TO.P,J3,1*
G04 #@! TO.N,/IOBufferB/VSENSE*
X115430000Y-113190000D03*
D18*
G04 #@! TO.P,J3,2*
G04 #@! TO.N,/IOBufferB/VIO*
X115430000Y-115730000D03*
G04 #@! TO.P,J3,3*
G04 #@! TO.N,/IOBufferB/Z0*
X112890000Y-113190000D03*
G04 #@! TO.P,J3,4*
G04 #@! TO.N,GND*
X112890000Y-115730000D03*
G04 #@! TO.P,J3,5*
G04 #@! TO.N,/IOBufferB/Z1*
X110350000Y-113190000D03*
G04 #@! TO.P,J3,6*
G04 #@! TO.N,GND*
X110350000Y-115730000D03*
G04 #@! TO.P,J3,7*
G04 #@! TO.N,/IOBufferB/Z2*
X107810000Y-113190000D03*
G04 #@! TO.P,J3,8*
G04 #@! TO.N,GND*
X107810000Y-115730000D03*
G04 #@! TO.P,J3,9*
G04 #@! TO.N,/IOBufferB/Z3*
X105270000Y-113190000D03*
G04 #@! TO.P,J3,10*
G04 #@! TO.N,GND*
X105270000Y-115730000D03*
G04 #@! TO.P,J3,11*
G04 #@! TO.N,/IOBufferB/Z4*
X102730000Y-113190000D03*
G04 #@! TO.P,J3,12*
G04 #@! TO.N,GND*
X102730000Y-115730000D03*
G04 #@! TO.P,J3,13*
G04 #@! TO.N,/IOBufferB/Z5*
X100190000Y-113190000D03*
G04 #@! TO.P,J3,14*
G04 #@! TO.N,GND*
X100190000Y-115730000D03*
G04 #@! TO.P,J3,15*
G04 #@! TO.N,/IOBufferB/Z6*
X97650000Y-113190000D03*
G04 #@! TO.P,J3,16*
G04 #@! TO.N,GND*
X97650000Y-115730000D03*
G04 #@! TO.P,J3,17*
G04 #@! TO.N,/IOBufferB/Z7*
X95110000Y-113190000D03*
G04 #@! TO.P,J3,18*
G04 #@! TO.N,GND*
X95110000Y-115730000D03*
G04 #@! TO.P,J3,19*
G04 #@! TO.N,Net-(J3-Pad19)*
X92570000Y-113190000D03*
G04 #@! TO.P,J3,20*
G04 #@! TO.N,GND*
X92570000Y-115730000D03*
G04 #@! TD*
D16*
G04 #@! TO.P,C16,2*
G04 #@! TO.N,GND*
X82787500Y-112450000D03*
G04 #@! TO.P,C16,1*
G04 #@! TO.N,+3V3*
X81012500Y-112450000D03*
G04 #@! TD*
G04 #@! TO.P,C18,1*
G04 #@! TO.N,/VCCPLL*
X90637500Y-96750000D03*
G04 #@! TO.P,C18,2*
G04 #@! TO.N,GND*
X88862500Y-96750000D03*
G04 #@! TD*
G04 #@! TO.P,C17,2*
G04 #@! TO.N,GND*
X82787500Y-113950000D03*
G04 #@! TO.P,C17,1*
G04 #@! TO.N,+3V3*
X81012500Y-113950000D03*
G04 #@! TD*
D12*
G04 #@! TO.P,C1,1*
G04 #@! TO.N,+3V3*
X74750000Y-89862500D03*
G04 #@! TO.P,C1,2*
G04 #@! TO.N,GND*
X74750000Y-91637500D03*
G04 #@! TD*
D16*
G04 #@! TO.P,C15,2*
G04 #@! TO.N,GND*
X73287500Y-113950000D03*
G04 #@! TO.P,C15,1*
G04 #@! TO.N,+3V3*
X71512500Y-113950000D03*
G04 #@! TD*
G04 #@! TO.P,C14,1*
G04 #@! TO.N,+3V3*
X71512500Y-112450000D03*
G04 #@! TO.P,C14,2*
G04 #@! TO.N,GND*
X73287500Y-112450000D03*
G04 #@! TD*
D12*
G04 #@! TO.P,C10,1*
G04 #@! TO.N,+3V3*
X71750000Y-101137500D03*
G04 #@! TO.P,C10,2*
G04 #@! TO.N,GND*
X71750000Y-99362500D03*
G04 #@! TD*
G04 #@! TO.P,C9,2*
G04 #@! TO.N,GND*
X66250000Y-91637500D03*
G04 #@! TO.P,C9,1*
G04 #@! TO.N,+3V3*
X66250000Y-89862500D03*
G04 #@! TD*
G04 #@! TO.P,C7,2*
G04 #@! TO.N,GND*
X72250000Y-91637500D03*
G04 #@! TO.P,C7,1*
G04 #@! TO.N,+3V3*
X72250000Y-89862500D03*
G04 #@! TD*
D16*
G04 #@! TO.P,C6,1*
G04 #@! TO.N,+3V3*
X74637500Y-97250000D03*
G04 #@! TO.P,C6,2*
G04 #@! TO.N,GND*
X72862500Y-97250000D03*
G04 #@! TD*
G04 #@! TO.P,C5,2*
G04 #@! TO.N,GND*
X65137500Y-93250000D03*
G04 #@! TO.P,C5,1*
G04 #@! TO.N,+3V3*
X63362500Y-93250000D03*
G04 #@! TD*
G04 #@! TO.P,C4,1*
G04 #@! TO.N,+3V3*
X63362500Y-95250000D03*
G04 #@! TO.P,C4,2*
G04 #@! TO.N,GND*
X65137500Y-95250000D03*
G04 #@! TD*
G04 #@! TO.P,C3,2*
G04 #@! TO.N,GND*
X65137500Y-97250000D03*
G04 #@! TO.P,C3,1*
G04 #@! TO.N,+3V3*
X63362500Y-97250000D03*
G04 #@! TD*
D12*
G04 #@! TO.P,C2,1*
G04 #@! TO.N,+3V3*
X66750000Y-101137500D03*
G04 #@! TO.P,C2,2*
G04 #@! TO.N,GND*
X66750000Y-99362500D03*
G04 #@! TD*
D19*
G04 #@! TO.P,MK1,1*
G04 #@! TO.N,GND*
X54000000Y-116000000D03*
G04 #@! TD*
G04 #@! TO.P,MK2,1*
G04 #@! TO.N,GND*
X54000000Y-75000000D03*
G04 #@! TD*
G04 #@! TO.P,MK3,1*
G04 #@! TO.N,GND*
X126000000Y-75000000D03*
G04 #@! TD*
G04 #@! TO.P,MK4,1*
G04 #@! TO.N,GND*
X126000000Y-116000000D03*
G04 #@! TD*
D20*
G04 #@! TO.N,/SDA*
X86500000Y-90250000D03*
X65750000Y-100500000D03*
X65750000Y-101830010D03*
X87700000Y-111950000D03*
X92200000Y-88350000D03*
X110550000Y-93000002D03*
X112050000Y-96600000D03*
X114200000Y-96600000D03*
G04 #@! TO.N,+3V3*
X64189870Y-103510130D03*
X72000000Y-107412500D03*
X68000000Y-107400000D03*
X70000000Y-107387500D03*
X72250000Y-90639998D03*
X64500000Y-86750000D03*
X74250000Y-83000000D03*
X74250000Y-99750000D03*
X90860002Y-108000000D03*
X115000000Y-105750000D03*
X107000000Y-102000000D03*
X111610002Y-89000000D03*
X100250000Y-89000000D03*
X92250000Y-85000000D03*
X89750000Y-100750000D03*
X71796041Y-100360012D03*
X81500000Y-86500000D03*
X67500000Y-82750000D03*
X66250000Y-90639998D03*
X64139998Y-93250000D03*
X64139998Y-95250000D03*
X64139998Y-97250000D03*
X66750000Y-100360002D03*
X73860002Y-97250000D03*
X73750000Y-89750000D03*
X80139998Y-92750000D03*
X89860002Y-93750000D03*
X88000000Y-100360002D03*
X86500000Y-100360002D03*
X80900000Y-115200000D03*
X71400000Y-115200000D03*
X76700000Y-114800000D03*
X86055000Y-115105000D03*
G04 #@! TO.N,GND*
X59450000Y-98000000D03*
X59250000Y-102000000D03*
X100500000Y-102000000D03*
X52862500Y-101112500D03*
X71000000Y-75000000D03*
X56500000Y-96800000D03*
X100250000Y-107250000D03*
X108500000Y-84750000D03*
X88750000Y-83250002D03*
X91750000Y-110500000D03*
X89000000Y-108000000D03*
X76000000Y-83000000D03*
X70500000Y-83000000D03*
X76250000Y-96750000D03*
X96610002Y-108000000D03*
X99250000Y-104250000D03*
X118500000Y-107750000D03*
X110964870Y-104535130D03*
X115000000Y-104000000D03*
X110500000Y-106610002D03*
X109000000Y-102000000D03*
X109000000Y-103000000D03*
X108750000Y-87000000D03*
X96750000Y-83889998D03*
X111389998Y-83000000D03*
X109750000Y-89000000D03*
X98250000Y-88000000D03*
X92250000Y-86750000D03*
X91500000Y-99250000D03*
X55650000Y-110500000D03*
X55650000Y-108750000D03*
X55650000Y-107000002D03*
X55650000Y-105250002D03*
X55650000Y-103500002D03*
X60250000Y-84250000D03*
X63500000Y-79750000D03*
X87050002Y-96750000D03*
X86250000Y-97550002D03*
X87050000Y-97550000D03*
X87060000Y-95500000D03*
X85000000Y-97560000D03*
X82940000Y-97560000D03*
X85000000Y-95500000D03*
X82940000Y-95500000D03*
X87060000Y-93440000D03*
X85000000Y-93440000D03*
X82940000Y-93440000D03*
X82900000Y-111200000D03*
X73400000Y-111200000D03*
X58750000Y-89000000D03*
X62250000Y-95000000D03*
X65000000Y-99500000D03*
X65000000Y-91500000D03*
X73000000Y-99500000D03*
X106800000Y-89100000D03*
X98473822Y-89101737D03*
X73749998Y-91640000D03*
G04 #@! TO.N,/SCL*
X77750000Y-110250000D03*
X77734999Y-113095001D03*
X64750000Y-100500000D03*
X64750000Y-101830010D03*
X86850000Y-113200000D03*
X87500000Y-90600000D03*
X95069990Y-90599996D03*
X96950000Y-90600000D03*
X111500000Y-92400004D03*
G04 #@! TO.N,+5V*
X94500000Y-108000000D03*
X77500000Y-81750000D03*
X77500000Y-80250000D03*
X77500000Y-81000000D03*
X113500000Y-83000000D03*
G04 #@! TO.N,/~CY_RESET*
X78330010Y-91490604D03*
X72260246Y-86549950D03*
G04 #@! TO.N,/USB_P*
X57592402Y-95500000D03*
X56392402Y-95500000D03*
G04 #@! TO.N,/FPGA_DONE*
X77500000Y-95250000D03*
X76250000Y-94750000D03*
G04 #@! TO.N,/~FPGA_RESET*
X70530055Y-90500000D03*
X78110002Y-96750000D03*
G04 #@! TO.N,/VCCPLL*
X89860002Y-96750000D03*
G04 #@! TO.N,+1V2*
X78000000Y-87250000D03*
X72250000Y-83000000D03*
X80139998Y-94750000D03*
X89860044Y-95250000D03*
G04 #@! TO.N,/3V3EN*
X66750000Y-81000000D03*
X66750000Y-79500000D03*
G04 #@! TO.N,/FLAGD*
X74500000Y-96000016D03*
X77000000Y-92500000D03*
G04 #@! TO.N,/VUSB*
X59375000Y-97050000D03*
X56859000Y-94200000D03*
G04 #@! TO.N,/~SYNC*
X85749993Y-91000007D03*
X85750000Y-87750000D03*
G04 #@! TO.N,/LED_CY*
X62410002Y-105250000D03*
X70000000Y-88500000D03*
G04 #@! TO.N,/LED_ERR*
X64200000Y-110500000D03*
X68750000Y-90500000D03*
G04 #@! TO.N,/LED_ACT*
X64200000Y-108750000D03*
X68750000Y-89000000D03*
G04 #@! TO.N,/LED_FPGA*
X64200000Y-107000000D03*
X69542346Y-89467060D03*
G04 #@! TO.N,/~OEQ*
X68600000Y-103000000D03*
X104150000Y-94200000D03*
X99550000Y-102750000D03*
X67589989Y-90597772D03*
G04 #@! TO.N,/~ALERT*
X75500000Y-96000000D03*
X77750000Y-99750000D03*
X94649996Y-95650000D03*
X96300002Y-95650000D03*
X96300000Y-89200000D03*
G04 #@! TO.N,/CLKREF*
X84178928Y-90750000D03*
X82000000Y-90750000D03*
G04 #@! TO.N,/IOBufferA/VIO*
X95750000Y-79750000D03*
X100250000Y-88000000D03*
X114500000Y-83000000D03*
G04 #@! TO.N,/IOBufferB/VIO*
X107000000Y-103000000D03*
X93500000Y-108000000D03*
G04 #@! TO.N,/ENVB*
X89250000Y-114000000D03*
X67750000Y-89750000D03*
G04 #@! TO.N,/ENVA*
X88500000Y-85700000D03*
X71250000Y-88500000D03*
X108500000Y-82889998D03*
X73050000Y-85750000D03*
G04 #@! TD*
D21*
G04 #@! TO.N,/SDA*
X86500000Y-90250000D02*
X87000000Y-89750000D01*
X65750000Y-100500000D02*
X65750000Y-101830010D01*
X87700000Y-111950000D02*
X87700000Y-108441598D01*
X91705026Y-88350000D02*
X92200000Y-88350000D01*
X88400000Y-88350000D02*
X91705026Y-88350000D01*
X86500000Y-90250000D02*
X88400000Y-88350000D01*
X103141596Y-93000002D02*
X110055026Y-93000002D01*
X110055026Y-93000002D02*
X110550000Y-93000002D01*
X92694974Y-88350000D02*
X92200000Y-88350000D01*
X94950000Y-88350000D02*
X92694974Y-88350000D01*
X95650000Y-89050000D02*
X94950000Y-88350000D01*
X97641598Y-98500000D02*
X98141598Y-98000000D01*
X95650000Y-98500000D02*
X97641598Y-98500000D01*
X98141598Y-98000000D02*
X103141596Y-93000002D01*
X95650000Y-98500000D02*
X95650000Y-89050000D01*
X95650000Y-100491598D02*
X95650000Y-98500000D01*
X87700000Y-108441598D02*
X95650000Y-100491598D01*
X112050000Y-96600000D02*
X114200000Y-96600000D01*
D22*
G04 #@! TO.N,+3V3*
X72250000Y-90639998D02*
X72250000Y-89862500D01*
X107112500Y-99500000D02*
X107112500Y-101250000D01*
X91637500Y-108000000D02*
X90860002Y-108000000D01*
X115000000Y-105750000D02*
X114112500Y-105750000D01*
X114112500Y-105750000D02*
X114000000Y-105637500D01*
X115000000Y-105750000D02*
X115887500Y-105750000D01*
X115887500Y-105750000D02*
X116000000Y-105637500D01*
X111610002Y-89000000D02*
X112387500Y-89000000D01*
X100250000Y-89000000D02*
X100250000Y-89637500D01*
X100250000Y-89637500D02*
X100137500Y-89750000D01*
X100137500Y-91500000D02*
X100137500Y-89750000D01*
X92250000Y-85000000D02*
X91362500Y-85000000D01*
X91362500Y-85000000D02*
X91250000Y-85112500D01*
X92250000Y-85000000D02*
X93137500Y-85000000D01*
X93137500Y-85000000D02*
X93250000Y-85112500D01*
X89612500Y-100612500D02*
X89750000Y-100750000D01*
X89612500Y-100000000D02*
X89612500Y-100612500D01*
X71750000Y-100390000D02*
X71779988Y-100360012D01*
X71750000Y-101137500D02*
X71750000Y-100390000D01*
X71779988Y-100360012D02*
X71796041Y-100360012D01*
X66250000Y-90639998D02*
X66250000Y-89862500D01*
X64139998Y-93250000D02*
X63362500Y-93250000D01*
X64139998Y-95250000D02*
X63362500Y-95250000D01*
X64139998Y-97250000D02*
X63362500Y-97250000D01*
X66750000Y-100360002D02*
X66750000Y-101137500D01*
X73860002Y-97250000D02*
X74637500Y-97250000D01*
X73862500Y-89862500D02*
X73750000Y-89750000D01*
X74750000Y-89862500D02*
X73862500Y-89862500D01*
X80139998Y-92750000D02*
X79362500Y-92750000D01*
X89860002Y-93750000D02*
X90637500Y-93750000D01*
X88000000Y-100360002D02*
X88000000Y-101137500D01*
X86500000Y-100360002D02*
X86500000Y-101137500D01*
X81012500Y-113950000D02*
X81012500Y-112450000D01*
X80937500Y-115162500D02*
X80900000Y-115200000D01*
X80937500Y-113950000D02*
X80937500Y-115162500D01*
X71437500Y-115162500D02*
X71400000Y-115200000D01*
X71437500Y-113950000D02*
X71437500Y-115162500D01*
X71437500Y-113950000D02*
X71437500Y-112450000D01*
X107112500Y-101887500D02*
X107000000Y-102000000D01*
X107112500Y-101250000D02*
X107112500Y-101887500D01*
G04 #@! TO.N,GND*
X72250000Y-91637500D02*
X72250000Y-92250000D01*
X72250000Y-92250000D02*
X71540000Y-92960000D01*
X89862500Y-108000000D02*
X89000000Y-108000000D01*
X97387500Y-108000000D02*
X96610002Y-108000000D01*
X116000000Y-103862500D02*
X115137500Y-103862500D01*
X115137500Y-103862500D02*
X115000000Y-104000000D01*
X114862500Y-103862500D02*
X115000000Y-104000000D01*
X114000000Y-103862500D02*
X114862500Y-103862500D01*
X108887500Y-103750000D02*
X108887500Y-105500000D01*
X108887500Y-101887500D02*
X109000000Y-102000000D01*
X108887500Y-101250000D02*
X108887500Y-101887500D01*
X108887500Y-103112500D02*
X109000000Y-103000000D01*
X108887500Y-103750000D02*
X108887500Y-103112500D01*
X108887500Y-99500000D02*
X108887500Y-101250000D01*
X71750000Y-92750000D02*
X71540000Y-92960000D01*
X110612500Y-83000000D02*
X111389998Y-83000000D01*
X110612500Y-89000000D02*
X109750000Y-89000000D01*
X98362500Y-87887500D02*
X98250000Y-88000000D01*
X98362500Y-87250000D02*
X98362500Y-87887500D01*
X98362500Y-91500000D02*
X98362500Y-89750000D01*
X98362500Y-85500000D02*
X98362500Y-87250000D01*
X92250000Y-86750000D02*
X91387500Y-86750000D01*
X91387500Y-86750000D02*
X91250000Y-86887500D01*
X92250000Y-86750000D02*
X93112500Y-86750000D01*
X93112500Y-86750000D02*
X93250000Y-86887500D01*
X66250000Y-91637500D02*
X66250000Y-92500000D01*
X65137500Y-93250000D02*
X66000000Y-93250000D01*
X65137500Y-95250000D02*
X66000000Y-95250000D01*
X65137500Y-97250000D02*
X66000000Y-97250000D01*
X66750000Y-99362500D02*
X66750000Y-98500000D01*
X71750000Y-99362500D02*
X71750000Y-98500000D01*
X72862500Y-97250000D02*
X72000000Y-97250000D01*
X91387500Y-100000000D02*
X91387500Y-99362500D01*
X91387500Y-99362500D02*
X91500000Y-99250000D01*
X91387500Y-99137500D02*
X91500000Y-99250000D01*
X91387500Y-98500000D02*
X91387500Y-99137500D01*
X81137500Y-94750000D02*
X82190000Y-94750000D01*
X82190000Y-94750000D02*
X82940000Y-95500000D01*
X88862500Y-96750000D02*
X87050000Y-96750000D01*
X87050000Y-96750000D02*
X87050002Y-96750000D01*
X86500000Y-99362500D02*
X86500000Y-97800002D01*
X86500000Y-97800002D02*
X86250000Y-97550002D01*
X88000000Y-99112500D02*
X88000000Y-98500000D01*
X87997500Y-99112500D02*
X88000000Y-99112500D01*
X88000000Y-98500000D02*
X87050000Y-97550000D01*
X81137500Y-92750000D02*
X82250000Y-92750000D01*
X82250000Y-92750000D02*
X82940000Y-93440000D01*
X88000000Y-93750000D02*
X87690000Y-93440000D01*
X88862500Y-93750000D02*
X88000000Y-93750000D01*
X87690000Y-93440000D02*
X87060000Y-93440000D01*
X87900000Y-95250000D02*
X87650000Y-95500000D01*
X87650000Y-95500000D02*
X87060000Y-95500000D01*
X88862500Y-95250000D02*
X87900000Y-95250000D01*
X82787500Y-113950000D02*
X82787500Y-112450000D01*
X82862500Y-111237500D02*
X82900000Y-111200000D01*
X82862500Y-112450000D02*
X82862500Y-111237500D01*
X73362500Y-111237500D02*
X73400000Y-111200000D01*
X73362500Y-112450000D02*
X73362500Y-111237500D01*
X73362500Y-113950000D02*
X73362500Y-112450000D01*
D23*
X59262500Y-98000000D02*
X58450000Y-98812500D01*
X59450000Y-98000000D02*
X59262500Y-98000000D01*
D22*
X98473822Y-89596711D02*
X98473822Y-89101737D01*
X98473822Y-89638678D02*
X98473822Y-89596711D01*
X98362500Y-89750000D02*
X98473822Y-89638678D01*
X73752498Y-91637500D02*
X73749998Y-91640000D01*
X74750000Y-91637500D02*
X73752498Y-91637500D01*
D21*
G04 #@! TO.N,/SCL*
X64750000Y-100500000D02*
X64750000Y-101830010D01*
X77734999Y-113095001D02*
X77734999Y-110234993D01*
X95269990Y-99680010D02*
X95269990Y-91294970D01*
X87500000Y-90600000D02*
X95069986Y-90600000D01*
X86850000Y-113200000D02*
X86850000Y-108100000D01*
X95269990Y-91294970D02*
X95069990Y-91094970D01*
X95069990Y-91094970D02*
X95069990Y-90599996D01*
X86850000Y-108100000D02*
X95269990Y-99680010D01*
X95069986Y-90600000D02*
X95069990Y-90599996D01*
X96950000Y-90600000D02*
X96950000Y-91700000D01*
X96950000Y-91700000D02*
X97650004Y-92400004D01*
X97650004Y-92400004D02*
X110241594Y-92400004D01*
X110241594Y-92400004D02*
X111500000Y-92400004D01*
D24*
G04 #@! TO.N,+5V*
X112387500Y-81500000D02*
X111887500Y-81000000D01*
X112387500Y-83000000D02*
X112387500Y-81500000D01*
X111887500Y-81000000D02*
X77994974Y-81000000D01*
X77994974Y-81000000D02*
X77500000Y-81000000D01*
X95612500Y-108000000D02*
X94500000Y-108000000D01*
X77500000Y-81000000D02*
X77500000Y-81750000D01*
X77500000Y-81000000D02*
X77500000Y-80250000D01*
X112387500Y-83000000D02*
X113500000Y-83000000D01*
X96362500Y-106000000D02*
X95612500Y-106750000D01*
X99550000Y-106000000D02*
X96362500Y-106000000D01*
X103850000Y-101700000D02*
X99550000Y-106000000D01*
X103850000Y-98800000D02*
X103850000Y-101700000D01*
X112387500Y-84250000D02*
X113950000Y-85812500D01*
X112387500Y-83000000D02*
X112387500Y-84250000D01*
X95612500Y-106750000D02*
X95612500Y-108000000D01*
X113950000Y-85812500D02*
X113950000Y-93095000D01*
X113950000Y-93095000D02*
X110345000Y-96700000D01*
X110345000Y-96700000D02*
X105950000Y-96700000D01*
X105950000Y-96700000D02*
X103850000Y-98800000D01*
D21*
G04 #@! TO.N,/~CY_RESET*
X74299950Y-86549950D02*
X72755220Y-86549950D01*
X72755220Y-86549950D02*
X72260246Y-86549950D01*
X78330010Y-90580010D02*
X74299950Y-86549950D01*
X78330010Y-91490604D02*
X78330010Y-90580010D01*
G04 #@! TO.N,/USB_P*
X56392402Y-95500000D02*
X56887376Y-95500000D01*
X56887376Y-95500000D02*
X57592402Y-95500000D01*
G04 #@! TO.N,/FPGA_DONE*
X76250000Y-94750000D02*
X77000000Y-94750000D01*
X77000000Y-94750000D02*
X77500000Y-95250000D01*
G04 #@! TO.N,/~FPGA_RESET*
X78110002Y-96750000D02*
X78110002Y-92968406D01*
X78110002Y-92968406D02*
X77750000Y-92608404D01*
X76129003Y-89080001D02*
X77750000Y-90700998D01*
X71205202Y-89080001D02*
X76129003Y-89080001D01*
X77750000Y-90700998D02*
X77750000Y-92608404D01*
X70530055Y-89755148D02*
X71205202Y-89080001D01*
X70530055Y-90500000D02*
X70530055Y-89755148D01*
D22*
G04 #@! TO.N,/VCCPLL*
X91637500Y-96887500D02*
X91500000Y-96750000D01*
X91500000Y-96750000D02*
X90637500Y-96750000D01*
X92250000Y-96887500D02*
X91637500Y-96887500D01*
X89500000Y-97604976D02*
X89500000Y-98137500D01*
X89500000Y-98137500D02*
X89612500Y-98250000D01*
X89860002Y-96750000D02*
X89860002Y-97244974D01*
X89860002Y-97244974D02*
X89500000Y-97604976D01*
X89860002Y-96750000D02*
X90637500Y-96750000D01*
G04 #@! TO.N,+1V2*
X91637500Y-95112500D02*
X91500000Y-95250000D01*
X91500000Y-95250000D02*
X90637500Y-95250000D01*
X92250000Y-95112500D02*
X91637500Y-95112500D01*
X80139998Y-94750000D02*
X79362500Y-94750000D01*
X90637500Y-95250000D02*
X89860044Y-95250000D01*
D21*
G04 #@! TO.N,/3V3EN*
X66750000Y-79500000D02*
X66750000Y-81000000D01*
G04 #@! TO.N,/FLAGD*
X74500000Y-95000000D02*
X74500000Y-95505042D01*
X77000000Y-92500000D02*
X74500000Y-95000000D01*
X74500000Y-95505042D02*
X74500000Y-96000016D01*
D23*
G04 #@! TO.N,/VUSB*
X57703973Y-94549999D02*
X57715403Y-94549999D01*
X57353974Y-94200000D02*
X57703973Y-94549999D01*
X56859000Y-94200000D02*
X57353974Y-94200000D01*
X59375000Y-96209596D02*
X58665404Y-95500000D01*
X59375000Y-97050000D02*
X59375000Y-96209596D01*
X57715403Y-94549999D02*
X58665404Y-95500000D01*
X59362500Y-97037500D02*
X59375000Y-97050000D01*
X58450000Y-97037500D02*
X59362500Y-97037500D01*
D21*
G04 #@! TO.N,/~SYNC*
X85749993Y-91000007D02*
X85749993Y-87750007D01*
X85749993Y-87750007D02*
X85750000Y-87750000D01*
G04 #@! TO.N,/LED_CY*
X60119944Y-102000000D02*
X62410002Y-104290058D01*
X62410002Y-104290058D02*
X62410002Y-105250000D01*
X62410002Y-105250000D02*
X62250000Y-105089998D01*
X60119944Y-96670451D02*
X60119944Y-102000000D01*
X60119944Y-92187951D02*
X64857950Y-87449945D01*
X69500000Y-88000000D02*
X70000000Y-88500000D01*
X64857950Y-87449945D02*
X68949945Y-87449945D01*
X68949945Y-87449945D02*
X69500000Y-88000000D01*
X60119946Y-96670453D02*
X60119944Y-96670451D01*
X60119944Y-96670451D02*
X60119944Y-92187951D01*
G04 #@! TO.N,/LED_ERR*
X65800000Y-108900000D02*
X65800000Y-106050000D01*
X65800000Y-106050000D02*
X61049977Y-101299977D01*
X64200000Y-110500000D02*
X65800000Y-108900000D01*
X61049977Y-101299977D02*
X61049977Y-96200000D01*
X61049977Y-92573181D02*
X65243180Y-88379978D01*
X68089985Y-89231583D02*
X68750000Y-89891598D01*
X68089985Y-88942513D02*
X68089985Y-89231583D01*
X67527450Y-88379978D02*
X68089985Y-88942513D01*
X68750000Y-89891598D02*
X68750000Y-90005026D01*
X68750000Y-90005026D02*
X68750000Y-90500000D01*
X65243180Y-88379978D02*
X67527450Y-88379978D01*
X61049977Y-96285221D02*
X61049977Y-96200000D01*
X61049977Y-96200000D02*
X61049977Y-92573181D01*
X65000000Y-109700000D02*
X64200000Y-110500000D01*
X65090011Y-109609989D02*
X65000000Y-109700000D01*
G04 #@! TO.N,/LED_ACT*
X65000000Y-107950000D02*
X65000000Y-105750000D01*
X64200000Y-108750000D02*
X65000000Y-107950000D01*
X65000000Y-105750000D02*
X60739966Y-101489966D01*
X60739966Y-101489966D02*
X60739966Y-100000000D01*
X60739966Y-100000000D02*
X60739966Y-96050000D01*
X67819967Y-88069967D02*
X68400001Y-88650001D01*
X68400001Y-88650001D02*
X68750000Y-89000000D01*
X65114770Y-88069967D02*
X67819967Y-88069967D01*
X60739966Y-92444771D02*
X65114770Y-88069967D01*
X60739966Y-96050000D02*
X60739966Y-92444771D01*
X60739966Y-96413631D02*
X60739966Y-96050000D01*
X64549999Y-108400001D02*
X64200000Y-108750000D01*
X64780001Y-108169999D02*
X64549999Y-108400001D01*
G04 #@! TO.N,/LED_FPGA*
X60429957Y-92316360D02*
X60429957Y-101679957D01*
X64986360Y-87759957D02*
X60429957Y-92316360D01*
X60429957Y-101679957D02*
X64200000Y-105450000D01*
X64200000Y-105450000D02*
X64200000Y-107000000D01*
X69542346Y-88972086D02*
X69542346Y-89467060D01*
X68330216Y-87759956D02*
X69542346Y-88972086D01*
X60429955Y-92316361D02*
X64986360Y-87759956D01*
X64986360Y-87759956D02*
X68330216Y-87759956D01*
X60429955Y-96542041D02*
X60429955Y-92316361D01*
G04 #@! TO.N,/~OEQ*
X99550000Y-98800000D02*
X99550000Y-102750000D01*
X104150000Y-94200000D02*
X99550000Y-98800000D01*
X65000000Y-103000000D02*
X61669999Y-99669999D01*
X61669999Y-99669999D02*
X61669999Y-92830002D01*
X61669999Y-92830002D02*
X65500000Y-89000001D01*
X68600000Y-103000000D02*
X65000000Y-103000000D01*
X67239990Y-90247773D02*
X67589989Y-90597772D01*
X67150001Y-90157784D02*
X67239990Y-90247773D01*
X65500000Y-89000001D02*
X66859980Y-89000001D01*
X67150001Y-89290022D02*
X67150001Y-90157784D01*
X66859980Y-89000001D02*
X67150001Y-89290022D01*
G04 #@! TO.N,/~ALERT*
X77750000Y-99750000D02*
X75500000Y-97500000D01*
X75500000Y-96000000D02*
X75500000Y-97500000D01*
X94649996Y-98850004D02*
X94649996Y-96144974D01*
X94649996Y-96144974D02*
X94649996Y-95650000D01*
X91250000Y-102250000D02*
X94649996Y-98850004D01*
X80250000Y-102250000D02*
X91250000Y-102250000D01*
X77750000Y-99750000D02*
X80250000Y-102250000D01*
X96300002Y-89200002D02*
X96300000Y-89200000D01*
X96300002Y-95650000D02*
X96300002Y-89200002D01*
G04 #@! TO.N,/CLKREF*
X82000000Y-90750000D02*
X84178928Y-90750000D01*
X82500000Y-90750000D02*
X84178928Y-90750000D01*
D24*
G04 #@! TO.N,/IOBufferA/VIO*
X95750000Y-79750000D02*
X91000000Y-79750000D01*
X113000000Y-79750000D02*
X95750000Y-79750000D01*
D22*
X100137500Y-85500000D02*
X100137500Y-87250000D01*
X100250000Y-88000000D02*
X100250000Y-87362500D01*
X100250000Y-87362500D02*
X100137500Y-87250000D01*
D24*
X90250000Y-79000000D02*
X90250000Y-76297919D01*
X91000000Y-79750000D02*
X90250000Y-79000000D01*
X114500000Y-83000000D02*
X114500000Y-81250000D01*
X90250000Y-76297919D02*
X91047919Y-75500000D01*
X91047919Y-75500000D02*
X92250000Y-75500000D01*
X114500000Y-81250000D02*
X113000000Y-79750000D01*
D22*
G04 #@! TO.N,/IOBufferB/VIO*
X107112500Y-104250000D02*
X107112500Y-104887500D01*
D24*
X107250000Y-111000000D02*
X117000000Y-111000000D01*
X94500000Y-111000000D02*
X107250000Y-111000000D01*
D22*
X107112500Y-103750000D02*
X107112500Y-105500000D01*
D24*
X117750000Y-114750000D02*
X117000000Y-115500000D01*
X117750000Y-111750000D02*
X117750000Y-114750000D01*
X117000000Y-111000000D02*
X117750000Y-111750000D01*
X93500000Y-108250000D02*
X93500000Y-110000000D01*
X93500000Y-110000000D02*
X94500000Y-111000000D01*
X117000000Y-115500000D02*
X115430000Y-115500000D01*
D22*
X107112500Y-110862500D02*
X107250000Y-111000000D01*
X107000000Y-106000000D02*
X107112500Y-106112500D01*
X107112500Y-106112500D02*
X107112500Y-110862500D01*
X107112500Y-103750000D02*
X107112500Y-103112500D01*
X107112500Y-103112500D02*
X107000000Y-103000000D01*
X107112500Y-105500000D02*
X107112500Y-103112500D01*
D21*
G04 #@! TO.N,/ENVB*
X66500000Y-114250000D02*
X66500000Y-105000000D01*
X68030001Y-115780001D02*
X66500000Y-114250000D01*
X89250000Y-114000000D02*
X87469999Y-115780001D01*
X87469999Y-115780001D02*
X68030001Y-115780001D01*
X66500000Y-105000000D02*
X61359990Y-99859990D01*
X61359990Y-99859990D02*
X61359990Y-92701590D01*
X61359990Y-92701590D02*
X65371590Y-88689990D01*
X65371590Y-88689990D02*
X66988390Y-88689991D01*
X65371590Y-88689989D02*
X67184963Y-88689989D01*
X61359988Y-92701591D02*
X65371590Y-88689989D01*
X67750000Y-89255026D02*
X67750000Y-89750000D01*
X67184963Y-88689989D02*
X67750000Y-89255026D01*
G04 #@! TO.N,/ENVA*
X91310002Y-82889998D02*
X108500000Y-82889998D01*
X88500000Y-85700000D02*
X91310002Y-82889998D01*
X72555026Y-85750000D02*
X73050000Y-85750000D01*
X71950000Y-85750000D02*
X72555026Y-85750000D01*
X71250000Y-88500000D02*
X71250000Y-86450000D01*
X71250000Y-86450000D02*
X71950000Y-85750000D01*
G04 #@! TD*
D25*
G04 #@! TO.N,GND*
G36*
X76873000Y-80060106D02*
X76848000Y-80185786D01*
X76848000Y-80935786D01*
X76835227Y-81000000D01*
X76848000Y-81064213D01*
X76848000Y-81814214D01*
X76873000Y-81939894D01*
X76873000Y-84873000D01*
X68627000Y-84873000D01*
X68627000Y-82875282D01*
X71623000Y-82875282D01*
X71623000Y-83124718D01*
X71718455Y-83355167D01*
X71894833Y-83531545D01*
X72125282Y-83627000D01*
X72374718Y-83627000D01*
X72605167Y-83531545D01*
X72781545Y-83355167D01*
X72877000Y-83124718D01*
X72877000Y-82875282D01*
X73623000Y-82875282D01*
X73623000Y-83124718D01*
X73718455Y-83355167D01*
X73894833Y-83531545D01*
X74125282Y-83627000D01*
X74374718Y-83627000D01*
X74605167Y-83531545D01*
X74781545Y-83355167D01*
X74877000Y-83124718D01*
X74877000Y-82875282D01*
X74781545Y-82644833D01*
X74605167Y-82468455D01*
X74374718Y-82373000D01*
X74125282Y-82373000D01*
X73894833Y-82468455D01*
X73718455Y-82644833D01*
X73623000Y-82875282D01*
X72877000Y-82875282D01*
X72781545Y-82644833D01*
X72605167Y-82468455D01*
X72374718Y-82373000D01*
X72125282Y-82373000D01*
X71894833Y-82468455D01*
X71718455Y-82644833D01*
X71623000Y-82875282D01*
X68627000Y-82875282D01*
X68627000Y-74127000D01*
X76873000Y-74127000D01*
X76873000Y-80060106D01*
X76873000Y-80060106D01*
G37*
X76873000Y-80060106D02*
X76848000Y-80185786D01*
X76848000Y-80935786D01*
X76835227Y-81000000D01*
X76848000Y-81064213D01*
X76848000Y-81814214D01*
X76873000Y-81939894D01*
X76873000Y-84873000D01*
X68627000Y-84873000D01*
X68627000Y-82875282D01*
X71623000Y-82875282D01*
X71623000Y-83124718D01*
X71718455Y-83355167D01*
X71894833Y-83531545D01*
X72125282Y-83627000D01*
X72374718Y-83627000D01*
X72605167Y-83531545D01*
X72781545Y-83355167D01*
X72877000Y-83124718D01*
X72877000Y-82875282D01*
X73623000Y-82875282D01*
X73623000Y-83124718D01*
X73718455Y-83355167D01*
X73894833Y-83531545D01*
X74125282Y-83627000D01*
X74374718Y-83627000D01*
X74605167Y-83531545D01*
X74781545Y-83355167D01*
X74877000Y-83124718D01*
X74877000Y-82875282D01*
X74781545Y-82644833D01*
X74605167Y-82468455D01*
X74374718Y-82373000D01*
X74125282Y-82373000D01*
X73894833Y-82468455D01*
X73718455Y-82644833D01*
X73623000Y-82875282D01*
X72877000Y-82875282D01*
X72781545Y-82644833D01*
X72605167Y-82468455D01*
X72374718Y-82373000D01*
X72125282Y-82373000D01*
X71894833Y-82468455D01*
X71718455Y-82644833D01*
X71623000Y-82875282D01*
X68627000Y-82875282D01*
X68627000Y-74127000D01*
X76873000Y-74127000D01*
X76873000Y-80060106D01*
G04 #@! TD*
M02*
