G04 #@! TF.GenerationSoftware,KiCad,Pcbnew,5.0.0-rc3-6a2723a~65~ubuntu18.04.1*
G04 #@! TF.CreationDate,2018-07-21T07:19:33+00:00*
G04 #@! TF.ProjectId,glasgow,676C6173676F772E6B696361645F7063,rev?*
G04 #@! TF.SameCoordinates,Original*
G04 #@! TF.FileFunction,Legend,Bot*
G04 #@! TF.FilePolarity,Positive*
%FSLAX46Y46*%
G04 Gerber Fmt 4.6, Leading zero omitted, Abs format (unit mm)*
G04 Created by KiCad (PCBNEW 5.0.0-rc3-6a2723a~65~ubuntu18.04.1) date Sat Jul 21 07:19:33 2018*
%MOMM*%
%LPD*%
G01*
G04 APERTURE LIST*
%ADD10C,0.150000*%
G04 APERTURE END LIST*
G04 #@! TO.C,C8*
D10*
X57357142Y-97758333D02*
X57404761Y-97710714D01*
X57452380Y-97567857D01*
X57452380Y-97472619D01*
X57404761Y-97329761D01*
X57309523Y-97234523D01*
X57214285Y-97186904D01*
X57023809Y-97139285D01*
X56880952Y-97139285D01*
X56690476Y-97186904D01*
X56595238Y-97234523D01*
X56500000Y-97329761D01*
X56452380Y-97472619D01*
X56452380Y-97567857D01*
X56500000Y-97710714D01*
X56547619Y-97758333D01*
X56880952Y-98329761D02*
X56833333Y-98234523D01*
X56785714Y-98186904D01*
X56690476Y-98139285D01*
X56642857Y-98139285D01*
X56547619Y-98186904D01*
X56500000Y-98234523D01*
X56452380Y-98329761D01*
X56452380Y-98520238D01*
X56500000Y-98615476D01*
X56547619Y-98663095D01*
X56642857Y-98710714D01*
X56690476Y-98710714D01*
X56785714Y-98663095D01*
X56833333Y-98615476D01*
X56880952Y-98520238D01*
X56880952Y-98329761D01*
X56928571Y-98234523D01*
X56976190Y-98186904D01*
X57071428Y-98139285D01*
X57261904Y-98139285D01*
X57357142Y-98186904D01*
X57404761Y-98234523D01*
X57452380Y-98329761D01*
X57452380Y-98520238D01*
X57404761Y-98615476D01*
X57357142Y-98663095D01*
X57261904Y-98710714D01*
X57071428Y-98710714D01*
X56976190Y-98663095D01*
X56928571Y-98615476D01*
X56880952Y-98520238D01*
G04 #@! TO.C,C30*
X103142857Y-90107142D02*
X103190476Y-90154761D01*
X103333333Y-90202380D01*
X103428571Y-90202380D01*
X103571428Y-90154761D01*
X103666666Y-90059523D01*
X103714285Y-89964285D01*
X103761904Y-89773809D01*
X103761904Y-89630952D01*
X103714285Y-89440476D01*
X103666666Y-89345238D01*
X103571428Y-89250000D01*
X103428571Y-89202380D01*
X103333333Y-89202380D01*
X103190476Y-89250000D01*
X103142857Y-89297619D01*
X102809523Y-89202380D02*
X102190476Y-89202380D01*
X102523809Y-89583333D01*
X102380952Y-89583333D01*
X102285714Y-89630952D01*
X102238095Y-89678571D01*
X102190476Y-89773809D01*
X102190476Y-90011904D01*
X102238095Y-90107142D01*
X102285714Y-90154761D01*
X102380952Y-90202380D01*
X102666666Y-90202380D01*
X102761904Y-90154761D01*
X102809523Y-90107142D01*
X101571428Y-89202380D02*
X101476190Y-89202380D01*
X101380952Y-89250000D01*
X101333333Y-89297619D01*
X101285714Y-89392857D01*
X101238095Y-89583333D01*
X101238095Y-89821428D01*
X101285714Y-90011904D01*
X101333333Y-90107142D01*
X101380952Y-90154761D01*
X101476190Y-90202380D01*
X101571428Y-90202380D01*
X101666666Y-90154761D01*
X101714285Y-90107142D01*
X101761904Y-90011904D01*
X101809523Y-89821428D01*
X101809523Y-89583333D01*
X101761904Y-89392857D01*
X101714285Y-89297619D01*
X101666666Y-89250000D01*
X101571428Y-89202380D01*
G04 #@! TO.C,R30*
X94202380Y-95357142D02*
X93726190Y-95023809D01*
X94202380Y-94785714D02*
X93202380Y-94785714D01*
X93202380Y-95166666D01*
X93250000Y-95261904D01*
X93297619Y-95309523D01*
X93392857Y-95357142D01*
X93535714Y-95357142D01*
X93630952Y-95309523D01*
X93678571Y-95261904D01*
X93726190Y-95166666D01*
X93726190Y-94785714D01*
X93202380Y-95690476D02*
X93202380Y-96309523D01*
X93583333Y-95976190D01*
X93583333Y-96119047D01*
X93630952Y-96214285D01*
X93678571Y-96261904D01*
X93773809Y-96309523D01*
X94011904Y-96309523D01*
X94107142Y-96261904D01*
X94154761Y-96214285D01*
X94202380Y-96119047D01*
X94202380Y-95833333D01*
X94154761Y-95738095D01*
X94107142Y-95690476D01*
X93202380Y-96928571D02*
X93202380Y-97023809D01*
X93250000Y-97119047D01*
X93297619Y-97166666D01*
X93392857Y-97214285D01*
X93583333Y-97261904D01*
X93821428Y-97261904D01*
X94011904Y-97214285D01*
X94107142Y-97166666D01*
X94154761Y-97119047D01*
X94202380Y-97023809D01*
X94202380Y-96928571D01*
X94154761Y-96833333D01*
X94107142Y-96785714D01*
X94011904Y-96738095D01*
X93821428Y-96690476D01*
X93583333Y-96690476D01*
X93392857Y-96738095D01*
X93297619Y-96785714D01*
X93250000Y-96833333D01*
X93202380Y-96928571D01*
G04 #@! TO.C,C34*
X93607142Y-88857142D02*
X93654761Y-88809523D01*
X93702380Y-88666666D01*
X93702380Y-88571428D01*
X93654761Y-88428571D01*
X93559523Y-88333333D01*
X93464285Y-88285714D01*
X93273809Y-88238095D01*
X93130952Y-88238095D01*
X92940476Y-88285714D01*
X92845238Y-88333333D01*
X92750000Y-88428571D01*
X92702380Y-88571428D01*
X92702380Y-88666666D01*
X92750000Y-88809523D01*
X92797619Y-88857142D01*
X92702380Y-89190476D02*
X92702380Y-89809523D01*
X93083333Y-89476190D01*
X93083333Y-89619047D01*
X93130952Y-89714285D01*
X93178571Y-89761904D01*
X93273809Y-89809523D01*
X93511904Y-89809523D01*
X93607142Y-89761904D01*
X93654761Y-89714285D01*
X93702380Y-89619047D01*
X93702380Y-89333333D01*
X93654761Y-89238095D01*
X93607142Y-89190476D01*
X93035714Y-90666666D02*
X93702380Y-90666666D01*
X92654761Y-90428571D02*
X93369047Y-90190476D01*
X93369047Y-90809523D01*
G04 #@! TO.C,C35*
X91644268Y-88888144D02*
X91691887Y-88840525D01*
X91739506Y-88697668D01*
X91739506Y-88602430D01*
X91691887Y-88459573D01*
X91596649Y-88364335D01*
X91501411Y-88316716D01*
X91310935Y-88269097D01*
X91168078Y-88269097D01*
X90977602Y-88316716D01*
X90882364Y-88364335D01*
X90787126Y-88459573D01*
X90739506Y-88602430D01*
X90739506Y-88697668D01*
X90787126Y-88840525D01*
X90834745Y-88888144D01*
X90739506Y-89221478D02*
X90739506Y-89840525D01*
X91120459Y-89507192D01*
X91120459Y-89650049D01*
X91168078Y-89745287D01*
X91215697Y-89792906D01*
X91310935Y-89840525D01*
X91549030Y-89840525D01*
X91644268Y-89792906D01*
X91691887Y-89745287D01*
X91739506Y-89650049D01*
X91739506Y-89364335D01*
X91691887Y-89269097D01*
X91644268Y-89221478D01*
X90739506Y-90745287D02*
X90739506Y-90269097D01*
X91215697Y-90221478D01*
X91168078Y-90269097D01*
X91120459Y-90364335D01*
X91120459Y-90602430D01*
X91168078Y-90697668D01*
X91215697Y-90745287D01*
X91310935Y-90792906D01*
X91549030Y-90792906D01*
X91644268Y-90745287D01*
X91691887Y-90697668D01*
X91739506Y-90602430D01*
X91739506Y-90364335D01*
X91691887Y-90269097D01*
X91644268Y-90221478D01*
G04 #@! TO.C,C36*
X108892857Y-89357142D02*
X108940476Y-89404761D01*
X109083333Y-89452380D01*
X109178571Y-89452380D01*
X109321428Y-89404761D01*
X109416666Y-89309523D01*
X109464285Y-89214285D01*
X109511904Y-89023809D01*
X109511904Y-88880952D01*
X109464285Y-88690476D01*
X109416666Y-88595238D01*
X109321428Y-88500000D01*
X109178571Y-88452380D01*
X109083333Y-88452380D01*
X108940476Y-88500000D01*
X108892857Y-88547619D01*
X108559523Y-88452380D02*
X107940476Y-88452380D01*
X108273809Y-88833333D01*
X108130952Y-88833333D01*
X108035714Y-88880952D01*
X107988095Y-88928571D01*
X107940476Y-89023809D01*
X107940476Y-89261904D01*
X107988095Y-89357142D01*
X108035714Y-89404761D01*
X108130952Y-89452380D01*
X108416666Y-89452380D01*
X108511904Y-89404761D01*
X108559523Y-89357142D01*
X107083333Y-88452380D02*
X107273809Y-88452380D01*
X107369047Y-88500000D01*
X107416666Y-88547619D01*
X107511904Y-88690476D01*
X107559523Y-88880952D01*
X107559523Y-89261904D01*
X107511904Y-89357142D01*
X107464285Y-89404761D01*
X107369047Y-89452380D01*
X107178571Y-89452380D01*
X107083333Y-89404761D01*
X107035714Y-89357142D01*
X106988095Y-89261904D01*
X106988095Y-89023809D01*
X107035714Y-88928571D01*
X107083333Y-88880952D01*
X107178571Y-88833333D01*
X107369047Y-88833333D01*
X107464285Y-88880952D01*
X107511904Y-88928571D01*
X107559523Y-89023809D01*
G04 #@! TO.C,C38*
X108892857Y-83357142D02*
X108940476Y-83404761D01*
X109083333Y-83452380D01*
X109178571Y-83452380D01*
X109321428Y-83404761D01*
X109416666Y-83309523D01*
X109464285Y-83214285D01*
X109511904Y-83023809D01*
X109511904Y-82880952D01*
X109464285Y-82690476D01*
X109416666Y-82595238D01*
X109321428Y-82500000D01*
X109178571Y-82452380D01*
X109083333Y-82452380D01*
X108940476Y-82500000D01*
X108892857Y-82547619D01*
X108559523Y-82452380D02*
X107940476Y-82452380D01*
X108273809Y-82833333D01*
X108130952Y-82833333D01*
X108035714Y-82880952D01*
X107988095Y-82928571D01*
X107940476Y-83023809D01*
X107940476Y-83261904D01*
X107988095Y-83357142D01*
X108035714Y-83404761D01*
X108130952Y-83452380D01*
X108416666Y-83452380D01*
X108511904Y-83404761D01*
X108559523Y-83357142D01*
X107369047Y-82880952D02*
X107464285Y-82833333D01*
X107511904Y-82785714D01*
X107559523Y-82690476D01*
X107559523Y-82642857D01*
X107511904Y-82547619D01*
X107464285Y-82500000D01*
X107369047Y-82452380D01*
X107178571Y-82452380D01*
X107083333Y-82500000D01*
X107035714Y-82547619D01*
X106988095Y-82642857D01*
X106988095Y-82690476D01*
X107035714Y-82785714D01*
X107083333Y-82833333D01*
X107178571Y-82880952D01*
X107369047Y-82880952D01*
X107464285Y-82928571D01*
X107511904Y-82976190D01*
X107559523Y-83071428D01*
X107559523Y-83261904D01*
X107511904Y-83357142D01*
X107464285Y-83404761D01*
X107369047Y-83452380D01*
X107178571Y-83452380D01*
X107083333Y-83404761D01*
X107035714Y-83357142D01*
X106988095Y-83261904D01*
X106988095Y-83071428D01*
X107035714Y-82976190D01*
X107083333Y-82928571D01*
X107178571Y-82880952D01*
G04 #@! TO.C,C47*
X105392857Y-104107142D02*
X105440476Y-104154761D01*
X105583333Y-104202380D01*
X105678571Y-104202380D01*
X105821428Y-104154761D01*
X105916666Y-104059523D01*
X105964285Y-103964285D01*
X106011904Y-103773809D01*
X106011904Y-103630952D01*
X105964285Y-103440476D01*
X105916666Y-103345238D01*
X105821428Y-103250000D01*
X105678571Y-103202380D01*
X105583333Y-103202380D01*
X105440476Y-103250000D01*
X105392857Y-103297619D01*
X104535714Y-103535714D02*
X104535714Y-104202380D01*
X104773809Y-103154761D02*
X105011904Y-103869047D01*
X104392857Y-103869047D01*
X104107142Y-103202380D02*
X103440476Y-103202380D01*
X103869047Y-104202380D01*
G04 #@! TO.C,C46*
X105392857Y-105857142D02*
X105440476Y-105904761D01*
X105583333Y-105952380D01*
X105678571Y-105952380D01*
X105821428Y-105904761D01*
X105916666Y-105809523D01*
X105964285Y-105714285D01*
X106011904Y-105523809D01*
X106011904Y-105380952D01*
X105964285Y-105190476D01*
X105916666Y-105095238D01*
X105821428Y-105000000D01*
X105678571Y-104952380D01*
X105583333Y-104952380D01*
X105440476Y-105000000D01*
X105392857Y-105047619D01*
X104535714Y-105285714D02*
X104535714Y-105952380D01*
X104773809Y-104904761D02*
X105011904Y-105619047D01*
X104392857Y-105619047D01*
X103583333Y-104952380D02*
X103773809Y-104952380D01*
X103869047Y-105000000D01*
X103916666Y-105047619D01*
X104011904Y-105190476D01*
X104059523Y-105380952D01*
X104059523Y-105761904D01*
X104011904Y-105857142D01*
X103964285Y-105904761D01*
X103869047Y-105952380D01*
X103678571Y-105952380D01*
X103583333Y-105904761D01*
X103535714Y-105857142D01*
X103488095Y-105761904D01*
X103488095Y-105523809D01*
X103535714Y-105428571D01*
X103583333Y-105380952D01*
X103678571Y-105333333D01*
X103869047Y-105333333D01*
X103964285Y-105380952D01*
X104011904Y-105428571D01*
X104059523Y-105523809D01*
G04 #@! TO.C,C45*
X97142857Y-109807142D02*
X97190476Y-109854761D01*
X97333333Y-109902380D01*
X97428571Y-109902380D01*
X97571428Y-109854761D01*
X97666666Y-109759523D01*
X97714285Y-109664285D01*
X97761904Y-109473809D01*
X97761904Y-109330952D01*
X97714285Y-109140476D01*
X97666666Y-109045238D01*
X97571428Y-108950000D01*
X97428571Y-108902380D01*
X97333333Y-108902380D01*
X97190476Y-108950000D01*
X97142857Y-108997619D01*
X96285714Y-109235714D02*
X96285714Y-109902380D01*
X96523809Y-108854761D02*
X96761904Y-109569047D01*
X96142857Y-109569047D01*
X95285714Y-108902380D02*
X95761904Y-108902380D01*
X95809523Y-109378571D01*
X95761904Y-109330952D01*
X95666666Y-109283333D01*
X95428571Y-109283333D01*
X95333333Y-109330952D01*
X95285714Y-109378571D01*
X95238095Y-109473809D01*
X95238095Y-109711904D01*
X95285714Y-109807142D01*
X95333333Y-109854761D01*
X95428571Y-109902380D01*
X95666666Y-109902380D01*
X95761904Y-109854761D01*
X95809523Y-109807142D01*
G04 #@! TO.C,C43*
X91392857Y-106907142D02*
X91440476Y-106954761D01*
X91583333Y-107002380D01*
X91678571Y-107002380D01*
X91821428Y-106954761D01*
X91916666Y-106859523D01*
X91964285Y-106764285D01*
X92011904Y-106573809D01*
X92011904Y-106430952D01*
X91964285Y-106240476D01*
X91916666Y-106145238D01*
X91821428Y-106050000D01*
X91678571Y-106002380D01*
X91583333Y-106002380D01*
X91440476Y-106050000D01*
X91392857Y-106097619D01*
X90535714Y-106335714D02*
X90535714Y-107002380D01*
X90773809Y-105954761D02*
X91011904Y-106669047D01*
X90392857Y-106669047D01*
X90107142Y-106002380D02*
X89488095Y-106002380D01*
X89821428Y-106383333D01*
X89678571Y-106383333D01*
X89583333Y-106430952D01*
X89535714Y-106478571D01*
X89488095Y-106573809D01*
X89488095Y-106811904D01*
X89535714Y-106907142D01*
X89583333Y-106954761D01*
X89678571Y-107002380D01*
X89964285Y-107002380D01*
X90059523Y-106954761D01*
X90107142Y-106907142D01*
G04 #@! TO.C,C42*
X116357142Y-100857142D02*
X116404761Y-100809523D01*
X116452380Y-100666666D01*
X116452380Y-100571428D01*
X116404761Y-100428571D01*
X116309523Y-100333333D01*
X116214285Y-100285714D01*
X116023809Y-100238095D01*
X115880952Y-100238095D01*
X115690476Y-100285714D01*
X115595238Y-100333333D01*
X115500000Y-100428571D01*
X115452380Y-100571428D01*
X115452380Y-100666666D01*
X115500000Y-100809523D01*
X115547619Y-100857142D01*
X115785714Y-101714285D02*
X116452380Y-101714285D01*
X115404761Y-101476190D02*
X116119047Y-101238095D01*
X116119047Y-101857142D01*
X115547619Y-102190476D02*
X115500000Y-102238095D01*
X115452380Y-102333333D01*
X115452380Y-102571428D01*
X115500000Y-102666666D01*
X115547619Y-102714285D01*
X115642857Y-102761904D01*
X115738095Y-102761904D01*
X115880952Y-102714285D01*
X116452380Y-102142857D01*
X116452380Y-102761904D01*
G04 #@! TO.C,C41*
X114357142Y-100857142D02*
X114404761Y-100809523D01*
X114452380Y-100666666D01*
X114452380Y-100571428D01*
X114404761Y-100428571D01*
X114309523Y-100333333D01*
X114214285Y-100285714D01*
X114023809Y-100238095D01*
X113880952Y-100238095D01*
X113690476Y-100285714D01*
X113595238Y-100333333D01*
X113500000Y-100428571D01*
X113452380Y-100571428D01*
X113452380Y-100666666D01*
X113500000Y-100809523D01*
X113547619Y-100857142D01*
X113785714Y-101714285D02*
X114452380Y-101714285D01*
X113404761Y-101476190D02*
X114119047Y-101238095D01*
X114119047Y-101857142D01*
X114452380Y-102761904D02*
X114452380Y-102190476D01*
X114452380Y-102476190D02*
X113452380Y-102476190D01*
X113595238Y-102380952D01*
X113690476Y-102285714D01*
X113738095Y-102190476D01*
G04 #@! TO.C,C40*
X103142857Y-87607142D02*
X103190476Y-87654761D01*
X103333333Y-87702380D01*
X103428571Y-87702380D01*
X103571428Y-87654761D01*
X103666666Y-87559523D01*
X103714285Y-87464285D01*
X103761904Y-87273809D01*
X103761904Y-87130952D01*
X103714285Y-86940476D01*
X103666666Y-86845238D01*
X103571428Y-86750000D01*
X103428571Y-86702380D01*
X103333333Y-86702380D01*
X103190476Y-86750000D01*
X103142857Y-86797619D01*
X102285714Y-87035714D02*
X102285714Y-87702380D01*
X102523809Y-86654761D02*
X102761904Y-87369047D01*
X102142857Y-87369047D01*
X101571428Y-86702380D02*
X101476190Y-86702380D01*
X101380952Y-86750000D01*
X101333333Y-86797619D01*
X101285714Y-86892857D01*
X101238095Y-87083333D01*
X101238095Y-87321428D01*
X101285714Y-87511904D01*
X101333333Y-87607142D01*
X101380952Y-87654761D01*
X101476190Y-87702380D01*
X101571428Y-87702380D01*
X101666666Y-87654761D01*
X101714285Y-87607142D01*
X101761904Y-87511904D01*
X101809523Y-87321428D01*
X101809523Y-87083333D01*
X101761904Y-86892857D01*
X101714285Y-86797619D01*
X101666666Y-86750000D01*
X101571428Y-86702380D01*
G04 #@! TO.C,C39*
X103142857Y-85807142D02*
X103190476Y-85854761D01*
X103333333Y-85902380D01*
X103428571Y-85902380D01*
X103571428Y-85854761D01*
X103666666Y-85759523D01*
X103714285Y-85664285D01*
X103761904Y-85473809D01*
X103761904Y-85330952D01*
X103714285Y-85140476D01*
X103666666Y-85045238D01*
X103571428Y-84950000D01*
X103428571Y-84902380D01*
X103333333Y-84902380D01*
X103190476Y-84950000D01*
X103142857Y-84997619D01*
X102809523Y-84902380D02*
X102190476Y-84902380D01*
X102523809Y-85283333D01*
X102380952Y-85283333D01*
X102285714Y-85330952D01*
X102238095Y-85378571D01*
X102190476Y-85473809D01*
X102190476Y-85711904D01*
X102238095Y-85807142D01*
X102285714Y-85854761D01*
X102380952Y-85902380D01*
X102666666Y-85902380D01*
X102761904Y-85854761D01*
X102809523Y-85807142D01*
X101714285Y-85902380D02*
X101523809Y-85902380D01*
X101428571Y-85854761D01*
X101380952Y-85807142D01*
X101285714Y-85664285D01*
X101238095Y-85473809D01*
X101238095Y-85092857D01*
X101285714Y-84997619D01*
X101333333Y-84950000D01*
X101428571Y-84902380D01*
X101619047Y-84902380D01*
X101714285Y-84950000D01*
X101761904Y-84997619D01*
X101809523Y-85092857D01*
X101809523Y-85330952D01*
X101761904Y-85426190D01*
X101714285Y-85473809D01*
X101619047Y-85521428D01*
X101428571Y-85521428D01*
X101333333Y-85473809D01*
X101285714Y-85426190D01*
X101238095Y-85330952D01*
G04 #@! TO.C,C33*
X94392857Y-98857142D02*
X94440476Y-98904761D01*
X94583333Y-98952380D01*
X94678571Y-98952380D01*
X94821428Y-98904761D01*
X94916666Y-98809523D01*
X94964285Y-98714285D01*
X95011904Y-98523809D01*
X95011904Y-98380952D01*
X94964285Y-98190476D01*
X94916666Y-98095238D01*
X94821428Y-98000000D01*
X94678571Y-97952380D01*
X94583333Y-97952380D01*
X94440476Y-98000000D01*
X94392857Y-98047619D01*
X94059523Y-97952380D02*
X93440476Y-97952380D01*
X93773809Y-98333333D01*
X93630952Y-98333333D01*
X93535714Y-98380952D01*
X93488095Y-98428571D01*
X93440476Y-98523809D01*
X93440476Y-98761904D01*
X93488095Y-98857142D01*
X93535714Y-98904761D01*
X93630952Y-98952380D01*
X93916666Y-98952380D01*
X94011904Y-98904761D01*
X94059523Y-98857142D01*
X93107142Y-97952380D02*
X92488095Y-97952380D01*
X92821428Y-98333333D01*
X92678571Y-98333333D01*
X92583333Y-98380952D01*
X92535714Y-98428571D01*
X92488095Y-98523809D01*
X92488095Y-98761904D01*
X92535714Y-98857142D01*
X92583333Y-98904761D01*
X92678571Y-98952380D01*
X92964285Y-98952380D01*
X93059523Y-98904761D01*
X93107142Y-98857142D01*
G04 #@! TO.C,C31*
X105392857Y-101607142D02*
X105440476Y-101654761D01*
X105583333Y-101702380D01*
X105678571Y-101702380D01*
X105821428Y-101654761D01*
X105916666Y-101559523D01*
X105964285Y-101464285D01*
X106011904Y-101273809D01*
X106011904Y-101130952D01*
X105964285Y-100940476D01*
X105916666Y-100845238D01*
X105821428Y-100750000D01*
X105678571Y-100702380D01*
X105583333Y-100702380D01*
X105440476Y-100750000D01*
X105392857Y-100797619D01*
X105059523Y-100702380D02*
X104440476Y-100702380D01*
X104773809Y-101083333D01*
X104630952Y-101083333D01*
X104535714Y-101130952D01*
X104488095Y-101178571D01*
X104440476Y-101273809D01*
X104440476Y-101511904D01*
X104488095Y-101607142D01*
X104535714Y-101654761D01*
X104630952Y-101702380D01*
X104916666Y-101702380D01*
X105011904Y-101654761D01*
X105059523Y-101607142D01*
X103488095Y-101702380D02*
X104059523Y-101702380D01*
X103773809Y-101702380D02*
X103773809Y-100702380D01*
X103869047Y-100845238D01*
X103964285Y-100940476D01*
X104059523Y-100988095D01*
G04 #@! TO.C,C32*
X105392857Y-99857142D02*
X105440476Y-99904761D01*
X105583333Y-99952380D01*
X105678571Y-99952380D01*
X105821428Y-99904761D01*
X105916666Y-99809523D01*
X105964285Y-99714285D01*
X106011904Y-99523809D01*
X106011904Y-99380952D01*
X105964285Y-99190476D01*
X105916666Y-99095238D01*
X105821428Y-99000000D01*
X105678571Y-98952380D01*
X105583333Y-98952380D01*
X105440476Y-99000000D01*
X105392857Y-99047619D01*
X105059523Y-98952380D02*
X104440476Y-98952380D01*
X104773809Y-99333333D01*
X104630952Y-99333333D01*
X104535714Y-99380952D01*
X104488095Y-99428571D01*
X104440476Y-99523809D01*
X104440476Y-99761904D01*
X104488095Y-99857142D01*
X104535714Y-99904761D01*
X104630952Y-99952380D01*
X104916666Y-99952380D01*
X105011904Y-99904761D01*
X105059523Y-99857142D01*
X104059523Y-99047619D02*
X104011904Y-99000000D01*
X103916666Y-98952380D01*
X103678571Y-98952380D01*
X103583333Y-99000000D01*
X103535714Y-99047619D01*
X103488095Y-99142857D01*
X103488095Y-99238095D01*
X103535714Y-99380952D01*
X104107142Y-99952380D01*
X103488095Y-99952380D01*
G04 #@! TO.C,C29*
X103142857Y-91857142D02*
X103190476Y-91904761D01*
X103333333Y-91952380D01*
X103428571Y-91952380D01*
X103571428Y-91904761D01*
X103666666Y-91809523D01*
X103714285Y-91714285D01*
X103761904Y-91523809D01*
X103761904Y-91380952D01*
X103714285Y-91190476D01*
X103666666Y-91095238D01*
X103571428Y-91000000D01*
X103428571Y-90952380D01*
X103333333Y-90952380D01*
X103190476Y-91000000D01*
X103142857Y-91047619D01*
X102761904Y-91047619D02*
X102714285Y-91000000D01*
X102619047Y-90952380D01*
X102380952Y-90952380D01*
X102285714Y-91000000D01*
X102238095Y-91047619D01*
X102190476Y-91142857D01*
X102190476Y-91238095D01*
X102238095Y-91380952D01*
X102809523Y-91952380D01*
X102190476Y-91952380D01*
X101714285Y-91952380D02*
X101523809Y-91952380D01*
X101428571Y-91904761D01*
X101380952Y-91857142D01*
X101285714Y-91714285D01*
X101238095Y-91523809D01*
X101238095Y-91142857D01*
X101285714Y-91047619D01*
X101333333Y-91000000D01*
X101428571Y-90952380D01*
X101619047Y-90952380D01*
X101714285Y-91000000D01*
X101761904Y-91047619D01*
X101809523Y-91142857D01*
X101809523Y-91380952D01*
X101761904Y-91476190D01*
X101714285Y-91523809D01*
X101619047Y-91571428D01*
X101428571Y-91571428D01*
X101333333Y-91523809D01*
X101285714Y-91476190D01*
X101238095Y-91380952D01*
G04 #@! TO.C,C22*
X77642857Y-93107142D02*
X77690476Y-93154761D01*
X77833333Y-93202380D01*
X77928571Y-93202380D01*
X78071428Y-93154761D01*
X78166666Y-93059523D01*
X78214285Y-92964285D01*
X78261904Y-92773809D01*
X78261904Y-92630952D01*
X78214285Y-92440476D01*
X78166666Y-92345238D01*
X78071428Y-92250000D01*
X77928571Y-92202380D01*
X77833333Y-92202380D01*
X77690476Y-92250000D01*
X77642857Y-92297619D01*
X77261904Y-92297619D02*
X77214285Y-92250000D01*
X77119047Y-92202380D01*
X76880952Y-92202380D01*
X76785714Y-92250000D01*
X76738095Y-92297619D01*
X76690476Y-92392857D01*
X76690476Y-92488095D01*
X76738095Y-92630952D01*
X77309523Y-93202380D01*
X76690476Y-93202380D01*
X76309523Y-92297619D02*
X76261904Y-92250000D01*
X76166666Y-92202380D01*
X75928571Y-92202380D01*
X75833333Y-92250000D01*
X75785714Y-92297619D01*
X75738095Y-92392857D01*
X75738095Y-92488095D01*
X75785714Y-92630952D01*
X76357142Y-93202380D01*
X75738095Y-93202380D01*
G04 #@! TO.C,C25*
X77642857Y-95107142D02*
X77690476Y-95154761D01*
X77833333Y-95202380D01*
X77928571Y-95202380D01*
X78071428Y-95154761D01*
X78166666Y-95059523D01*
X78214285Y-94964285D01*
X78261904Y-94773809D01*
X78261904Y-94630952D01*
X78214285Y-94440476D01*
X78166666Y-94345238D01*
X78071428Y-94250000D01*
X77928571Y-94202380D01*
X77833333Y-94202380D01*
X77690476Y-94250000D01*
X77642857Y-94297619D01*
X77261904Y-94297619D02*
X77214285Y-94250000D01*
X77119047Y-94202380D01*
X76880952Y-94202380D01*
X76785714Y-94250000D01*
X76738095Y-94297619D01*
X76690476Y-94392857D01*
X76690476Y-94488095D01*
X76738095Y-94630952D01*
X77309523Y-95202380D01*
X76690476Y-95202380D01*
X75785714Y-94202380D02*
X76261904Y-94202380D01*
X76309523Y-94678571D01*
X76261904Y-94630952D01*
X76166666Y-94583333D01*
X75928571Y-94583333D01*
X75833333Y-94630952D01*
X75785714Y-94678571D01*
X75738095Y-94773809D01*
X75738095Y-95011904D01*
X75785714Y-95107142D01*
X75833333Y-95154761D01*
X75928571Y-95202380D01*
X76166666Y-95202380D01*
X76261904Y-95154761D01*
X76309523Y-95107142D01*
G04 #@! TO.C,C24*
X87142857Y-95607142D02*
X87190476Y-95654761D01*
X87333333Y-95702380D01*
X87428571Y-95702380D01*
X87571428Y-95654761D01*
X87666666Y-95559523D01*
X87714285Y-95464285D01*
X87761904Y-95273809D01*
X87761904Y-95130952D01*
X87714285Y-94940476D01*
X87666666Y-94845238D01*
X87571428Y-94750000D01*
X87428571Y-94702380D01*
X87333333Y-94702380D01*
X87190476Y-94750000D01*
X87142857Y-94797619D01*
X86761904Y-94797619D02*
X86714285Y-94750000D01*
X86619047Y-94702380D01*
X86380952Y-94702380D01*
X86285714Y-94750000D01*
X86238095Y-94797619D01*
X86190476Y-94892857D01*
X86190476Y-94988095D01*
X86238095Y-95130952D01*
X86809523Y-95702380D01*
X86190476Y-95702380D01*
X85333333Y-95035714D02*
X85333333Y-95702380D01*
X85571428Y-94654761D02*
X85809523Y-95369047D01*
X85190476Y-95369047D01*
G04 #@! TO.C,C23*
X87142857Y-94107142D02*
X87190476Y-94154761D01*
X87333333Y-94202380D01*
X87428571Y-94202380D01*
X87571428Y-94154761D01*
X87666666Y-94059523D01*
X87714285Y-93964285D01*
X87761904Y-93773809D01*
X87761904Y-93630952D01*
X87714285Y-93440476D01*
X87666666Y-93345238D01*
X87571428Y-93250000D01*
X87428571Y-93202380D01*
X87333333Y-93202380D01*
X87190476Y-93250000D01*
X87142857Y-93297619D01*
X86761904Y-93297619D02*
X86714285Y-93250000D01*
X86619047Y-93202380D01*
X86380952Y-93202380D01*
X86285714Y-93250000D01*
X86238095Y-93297619D01*
X86190476Y-93392857D01*
X86190476Y-93488095D01*
X86238095Y-93630952D01*
X86809523Y-94202380D01*
X86190476Y-94202380D01*
X85857142Y-93202380D02*
X85238095Y-93202380D01*
X85571428Y-93583333D01*
X85428571Y-93583333D01*
X85333333Y-93630952D01*
X85285714Y-93678571D01*
X85238095Y-93773809D01*
X85238095Y-94011904D01*
X85285714Y-94107142D01*
X85333333Y-94154761D01*
X85428571Y-94202380D01*
X85714285Y-94202380D01*
X85809523Y-94154761D01*
X85857142Y-94107142D01*
G04 #@! TO.C,C19*
X94392857Y-100357142D02*
X94440476Y-100404761D01*
X94583333Y-100452380D01*
X94678571Y-100452380D01*
X94821428Y-100404761D01*
X94916666Y-100309523D01*
X94964285Y-100214285D01*
X95011904Y-100023809D01*
X95011904Y-99880952D01*
X94964285Y-99690476D01*
X94916666Y-99595238D01*
X94821428Y-99500000D01*
X94678571Y-99452380D01*
X94583333Y-99452380D01*
X94440476Y-99500000D01*
X94392857Y-99547619D01*
X93440476Y-100452380D02*
X94011904Y-100452380D01*
X93726190Y-100452380D02*
X93726190Y-99452380D01*
X93821428Y-99595238D01*
X93916666Y-99690476D01*
X94011904Y-99738095D01*
X92964285Y-100452380D02*
X92773809Y-100452380D01*
X92678571Y-100404761D01*
X92630952Y-100357142D01*
X92535714Y-100214285D01*
X92488095Y-100023809D01*
X92488095Y-99642857D01*
X92535714Y-99547619D01*
X92583333Y-99500000D01*
X92678571Y-99452380D01*
X92869047Y-99452380D01*
X92964285Y-99500000D01*
X93011904Y-99547619D01*
X93059523Y-99642857D01*
X93059523Y-99880952D01*
X93011904Y-99976190D01*
X92964285Y-100023809D01*
X92869047Y-100071428D01*
X92678571Y-100071428D01*
X92583333Y-100023809D01*
X92535714Y-99976190D01*
X92488095Y-99880952D01*
G04 #@! TO.C,C20*
X88357142Y-102857142D02*
X88404761Y-102809523D01*
X88452380Y-102666666D01*
X88452380Y-102571428D01*
X88404761Y-102428571D01*
X88309523Y-102333333D01*
X88214285Y-102285714D01*
X88023809Y-102238095D01*
X87880952Y-102238095D01*
X87690476Y-102285714D01*
X87595238Y-102333333D01*
X87500000Y-102428571D01*
X87452380Y-102571428D01*
X87452380Y-102666666D01*
X87500000Y-102809523D01*
X87547619Y-102857142D01*
X87547619Y-103238095D02*
X87500000Y-103285714D01*
X87452380Y-103380952D01*
X87452380Y-103619047D01*
X87500000Y-103714285D01*
X87547619Y-103761904D01*
X87642857Y-103809523D01*
X87738095Y-103809523D01*
X87880952Y-103761904D01*
X88452380Y-103190476D01*
X88452380Y-103809523D01*
X87452380Y-104428571D02*
X87452380Y-104523809D01*
X87500000Y-104619047D01*
X87547619Y-104666666D01*
X87642857Y-104714285D01*
X87833333Y-104761904D01*
X88071428Y-104761904D01*
X88261904Y-104714285D01*
X88357142Y-104666666D01*
X88404761Y-104619047D01*
X88452380Y-104523809D01*
X88452380Y-104428571D01*
X88404761Y-104333333D01*
X88357142Y-104285714D01*
X88261904Y-104238095D01*
X88071428Y-104190476D01*
X87833333Y-104190476D01*
X87642857Y-104238095D01*
X87547619Y-104285714D01*
X87500000Y-104333333D01*
X87452380Y-104428571D01*
G04 #@! TO.C,C21*
X86857142Y-102857142D02*
X86904761Y-102809523D01*
X86952380Y-102666666D01*
X86952380Y-102571428D01*
X86904761Y-102428571D01*
X86809523Y-102333333D01*
X86714285Y-102285714D01*
X86523809Y-102238095D01*
X86380952Y-102238095D01*
X86190476Y-102285714D01*
X86095238Y-102333333D01*
X86000000Y-102428571D01*
X85952380Y-102571428D01*
X85952380Y-102666666D01*
X86000000Y-102809523D01*
X86047619Y-102857142D01*
X86047619Y-103238095D02*
X86000000Y-103285714D01*
X85952380Y-103380952D01*
X85952380Y-103619047D01*
X86000000Y-103714285D01*
X86047619Y-103761904D01*
X86142857Y-103809523D01*
X86238095Y-103809523D01*
X86380952Y-103761904D01*
X86952380Y-103190476D01*
X86952380Y-103809523D01*
X86952380Y-104761904D02*
X86952380Y-104190476D01*
X86952380Y-104476190D02*
X85952380Y-104476190D01*
X86095238Y-104380952D01*
X86190476Y-104285714D01*
X86238095Y-104190476D01*
G04 #@! TO.C,C16*
X85792857Y-112807142D02*
X85840476Y-112854761D01*
X85983333Y-112902380D01*
X86078571Y-112902380D01*
X86221428Y-112854761D01*
X86316666Y-112759523D01*
X86364285Y-112664285D01*
X86411904Y-112473809D01*
X86411904Y-112330952D01*
X86364285Y-112140476D01*
X86316666Y-112045238D01*
X86221428Y-111950000D01*
X86078571Y-111902380D01*
X85983333Y-111902380D01*
X85840476Y-111950000D01*
X85792857Y-111997619D01*
X84840476Y-112902380D02*
X85411904Y-112902380D01*
X85126190Y-112902380D02*
X85126190Y-111902380D01*
X85221428Y-112045238D01*
X85316666Y-112140476D01*
X85411904Y-112188095D01*
X83983333Y-111902380D02*
X84173809Y-111902380D01*
X84269047Y-111950000D01*
X84316666Y-111997619D01*
X84411904Y-112140476D01*
X84459523Y-112330952D01*
X84459523Y-112711904D01*
X84411904Y-112807142D01*
X84364285Y-112854761D01*
X84269047Y-112902380D01*
X84078571Y-112902380D01*
X83983333Y-112854761D01*
X83935714Y-112807142D01*
X83888095Y-112711904D01*
X83888095Y-112473809D01*
X83935714Y-112378571D01*
X83983333Y-112330952D01*
X84078571Y-112283333D01*
X84269047Y-112283333D01*
X84364285Y-112330952D01*
X84411904Y-112378571D01*
X84459523Y-112473809D01*
G04 #@! TO.C,C18*
X87142857Y-97107142D02*
X87190476Y-97154761D01*
X87333333Y-97202380D01*
X87428571Y-97202380D01*
X87571428Y-97154761D01*
X87666666Y-97059523D01*
X87714285Y-96964285D01*
X87761904Y-96773809D01*
X87761904Y-96630952D01*
X87714285Y-96440476D01*
X87666666Y-96345238D01*
X87571428Y-96250000D01*
X87428571Y-96202380D01*
X87333333Y-96202380D01*
X87190476Y-96250000D01*
X87142857Y-96297619D01*
X86190476Y-97202380D02*
X86761904Y-97202380D01*
X86476190Y-97202380D02*
X86476190Y-96202380D01*
X86571428Y-96345238D01*
X86666666Y-96440476D01*
X86761904Y-96488095D01*
X85619047Y-96630952D02*
X85714285Y-96583333D01*
X85761904Y-96535714D01*
X85809523Y-96440476D01*
X85809523Y-96392857D01*
X85761904Y-96297619D01*
X85714285Y-96250000D01*
X85619047Y-96202380D01*
X85428571Y-96202380D01*
X85333333Y-96250000D01*
X85285714Y-96297619D01*
X85238095Y-96392857D01*
X85238095Y-96440476D01*
X85285714Y-96535714D01*
X85333333Y-96583333D01*
X85428571Y-96630952D01*
X85619047Y-96630952D01*
X85714285Y-96678571D01*
X85761904Y-96726190D01*
X85809523Y-96821428D01*
X85809523Y-97011904D01*
X85761904Y-97107142D01*
X85714285Y-97154761D01*
X85619047Y-97202380D01*
X85428571Y-97202380D01*
X85333333Y-97154761D01*
X85285714Y-97107142D01*
X85238095Y-97011904D01*
X85238095Y-96821428D01*
X85285714Y-96726190D01*
X85333333Y-96678571D01*
X85428571Y-96630952D01*
G04 #@! TO.C,C17*
X85792857Y-114307142D02*
X85840476Y-114354761D01*
X85983333Y-114402380D01*
X86078571Y-114402380D01*
X86221428Y-114354761D01*
X86316666Y-114259523D01*
X86364285Y-114164285D01*
X86411904Y-113973809D01*
X86411904Y-113830952D01*
X86364285Y-113640476D01*
X86316666Y-113545238D01*
X86221428Y-113450000D01*
X86078571Y-113402380D01*
X85983333Y-113402380D01*
X85840476Y-113450000D01*
X85792857Y-113497619D01*
X84840476Y-114402380D02*
X85411904Y-114402380D01*
X85126190Y-114402380D02*
X85126190Y-113402380D01*
X85221428Y-113545238D01*
X85316666Y-113640476D01*
X85411904Y-113688095D01*
X84507142Y-113402380D02*
X83840476Y-113402380D01*
X84269047Y-114402380D01*
G04 #@! TO.C,C1*
X76607142Y-90583333D02*
X76654761Y-90535714D01*
X76702380Y-90392857D01*
X76702380Y-90297619D01*
X76654761Y-90154761D01*
X76559523Y-90059523D01*
X76464285Y-90011904D01*
X76273809Y-89964285D01*
X76130952Y-89964285D01*
X75940476Y-90011904D01*
X75845238Y-90059523D01*
X75750000Y-90154761D01*
X75702380Y-90297619D01*
X75702380Y-90392857D01*
X75750000Y-90535714D01*
X75797619Y-90583333D01*
X76702380Y-91535714D02*
X76702380Y-90964285D01*
X76702380Y-91250000D02*
X75702380Y-91250000D01*
X75845238Y-91154761D01*
X75940476Y-91059523D01*
X75988095Y-90964285D01*
G04 #@! TO.C,C15*
X76292857Y-114307142D02*
X76340476Y-114354761D01*
X76483333Y-114402380D01*
X76578571Y-114402380D01*
X76721428Y-114354761D01*
X76816666Y-114259523D01*
X76864285Y-114164285D01*
X76911904Y-113973809D01*
X76911904Y-113830952D01*
X76864285Y-113640476D01*
X76816666Y-113545238D01*
X76721428Y-113450000D01*
X76578571Y-113402380D01*
X76483333Y-113402380D01*
X76340476Y-113450000D01*
X76292857Y-113497619D01*
X75340476Y-114402380D02*
X75911904Y-114402380D01*
X75626190Y-114402380D02*
X75626190Y-113402380D01*
X75721428Y-113545238D01*
X75816666Y-113640476D01*
X75911904Y-113688095D01*
X74435714Y-113402380D02*
X74911904Y-113402380D01*
X74959523Y-113878571D01*
X74911904Y-113830952D01*
X74816666Y-113783333D01*
X74578571Y-113783333D01*
X74483333Y-113830952D01*
X74435714Y-113878571D01*
X74388095Y-113973809D01*
X74388095Y-114211904D01*
X74435714Y-114307142D01*
X74483333Y-114354761D01*
X74578571Y-114402380D01*
X74816666Y-114402380D01*
X74911904Y-114354761D01*
X74959523Y-114307142D01*
G04 #@! TO.C,C14*
X76292857Y-112807142D02*
X76340476Y-112854761D01*
X76483333Y-112902380D01*
X76578571Y-112902380D01*
X76721428Y-112854761D01*
X76816666Y-112759523D01*
X76864285Y-112664285D01*
X76911904Y-112473809D01*
X76911904Y-112330952D01*
X76864285Y-112140476D01*
X76816666Y-112045238D01*
X76721428Y-111950000D01*
X76578571Y-111902380D01*
X76483333Y-111902380D01*
X76340476Y-111950000D01*
X76292857Y-111997619D01*
X75340476Y-112902380D02*
X75911904Y-112902380D01*
X75626190Y-112902380D02*
X75626190Y-111902380D01*
X75721428Y-112045238D01*
X75816666Y-112140476D01*
X75911904Y-112188095D01*
X74483333Y-112235714D02*
X74483333Y-112902380D01*
X74721428Y-111854761D02*
X74959523Y-112569047D01*
X74340476Y-112569047D01*
G04 #@! TO.C,C10*
X72107142Y-102857142D02*
X72154761Y-102809523D01*
X72202380Y-102666666D01*
X72202380Y-102571428D01*
X72154761Y-102428571D01*
X72059523Y-102333333D01*
X71964285Y-102285714D01*
X71773809Y-102238095D01*
X71630952Y-102238095D01*
X71440476Y-102285714D01*
X71345238Y-102333333D01*
X71250000Y-102428571D01*
X71202380Y-102571428D01*
X71202380Y-102666666D01*
X71250000Y-102809523D01*
X71297619Y-102857142D01*
X72202380Y-103809523D02*
X72202380Y-103238095D01*
X72202380Y-103523809D02*
X71202380Y-103523809D01*
X71345238Y-103428571D01*
X71440476Y-103333333D01*
X71488095Y-103238095D01*
X71202380Y-104428571D02*
X71202380Y-104523809D01*
X71250000Y-104619047D01*
X71297619Y-104666666D01*
X71392857Y-104714285D01*
X71583333Y-104761904D01*
X71821428Y-104761904D01*
X72011904Y-104714285D01*
X72107142Y-104666666D01*
X72154761Y-104619047D01*
X72202380Y-104523809D01*
X72202380Y-104428571D01*
X72154761Y-104333333D01*
X72107142Y-104285714D01*
X72011904Y-104238095D01*
X71821428Y-104190476D01*
X71583333Y-104190476D01*
X71392857Y-104238095D01*
X71297619Y-104285714D01*
X71250000Y-104333333D01*
X71202380Y-104428571D01*
G04 #@! TO.C,C9*
X66607142Y-87833333D02*
X66654761Y-87785714D01*
X66702380Y-87642857D01*
X66702380Y-87547619D01*
X66654761Y-87404761D01*
X66559523Y-87309523D01*
X66464285Y-87261904D01*
X66273809Y-87214285D01*
X66130952Y-87214285D01*
X65940476Y-87261904D01*
X65845238Y-87309523D01*
X65750000Y-87404761D01*
X65702380Y-87547619D01*
X65702380Y-87642857D01*
X65750000Y-87785714D01*
X65797619Y-87833333D01*
X66702380Y-88309523D02*
X66702380Y-88500000D01*
X66654761Y-88595238D01*
X66607142Y-88642857D01*
X66464285Y-88738095D01*
X66273809Y-88785714D01*
X65892857Y-88785714D01*
X65797619Y-88738095D01*
X65750000Y-88690476D01*
X65702380Y-88595238D01*
X65702380Y-88404761D01*
X65750000Y-88309523D01*
X65797619Y-88261904D01*
X65892857Y-88214285D01*
X66130952Y-88214285D01*
X66226190Y-88261904D01*
X66273809Y-88309523D01*
X66321428Y-88404761D01*
X66321428Y-88595238D01*
X66273809Y-88690476D01*
X66226190Y-88738095D01*
X66130952Y-88785714D01*
G04 #@! TO.C,C7*
X72607142Y-87833333D02*
X72654761Y-87785714D01*
X72702380Y-87642857D01*
X72702380Y-87547619D01*
X72654761Y-87404761D01*
X72559523Y-87309523D01*
X72464285Y-87261904D01*
X72273809Y-87214285D01*
X72130952Y-87214285D01*
X71940476Y-87261904D01*
X71845238Y-87309523D01*
X71750000Y-87404761D01*
X71702380Y-87547619D01*
X71702380Y-87642857D01*
X71750000Y-87785714D01*
X71797619Y-87833333D01*
X71702380Y-88166666D02*
X71702380Y-88833333D01*
X72702380Y-88404761D01*
G04 #@! TO.C,C6*
X76666666Y-97607142D02*
X76714285Y-97654761D01*
X76857142Y-97702380D01*
X76952380Y-97702380D01*
X77095238Y-97654761D01*
X77190476Y-97559523D01*
X77238095Y-97464285D01*
X77285714Y-97273809D01*
X77285714Y-97130952D01*
X77238095Y-96940476D01*
X77190476Y-96845238D01*
X77095238Y-96750000D01*
X76952380Y-96702380D01*
X76857142Y-96702380D01*
X76714285Y-96750000D01*
X76666666Y-96797619D01*
X75809523Y-96702380D02*
X76000000Y-96702380D01*
X76095238Y-96750000D01*
X76142857Y-96797619D01*
X76238095Y-96940476D01*
X76285714Y-97130952D01*
X76285714Y-97511904D01*
X76238095Y-97607142D01*
X76190476Y-97654761D01*
X76095238Y-97702380D01*
X75904761Y-97702380D01*
X75809523Y-97654761D01*
X75761904Y-97607142D01*
X75714285Y-97511904D01*
X75714285Y-97273809D01*
X75761904Y-97178571D01*
X75809523Y-97130952D01*
X75904761Y-97083333D01*
X76095238Y-97083333D01*
X76190476Y-97130952D01*
X76238095Y-97178571D01*
X76285714Y-97273809D01*
G04 #@! TO.C,C5*
X61166666Y-93607142D02*
X61214285Y-93654761D01*
X61357142Y-93702380D01*
X61452380Y-93702380D01*
X61595238Y-93654761D01*
X61690476Y-93559523D01*
X61738095Y-93464285D01*
X61785714Y-93273809D01*
X61785714Y-93130952D01*
X61738095Y-92940476D01*
X61690476Y-92845238D01*
X61595238Y-92750000D01*
X61452380Y-92702380D01*
X61357142Y-92702380D01*
X61214285Y-92750000D01*
X61166666Y-92797619D01*
X60261904Y-92702380D02*
X60738095Y-92702380D01*
X60785714Y-93178571D01*
X60738095Y-93130952D01*
X60642857Y-93083333D01*
X60404761Y-93083333D01*
X60309523Y-93130952D01*
X60261904Y-93178571D01*
X60214285Y-93273809D01*
X60214285Y-93511904D01*
X60261904Y-93607142D01*
X60309523Y-93654761D01*
X60404761Y-93702380D01*
X60642857Y-93702380D01*
X60738095Y-93654761D01*
X60785714Y-93607142D01*
G04 #@! TO.C,C4*
X61166666Y-95607142D02*
X61214285Y-95654761D01*
X61357142Y-95702380D01*
X61452380Y-95702380D01*
X61595238Y-95654761D01*
X61690476Y-95559523D01*
X61738095Y-95464285D01*
X61785714Y-95273809D01*
X61785714Y-95130952D01*
X61738095Y-94940476D01*
X61690476Y-94845238D01*
X61595238Y-94750000D01*
X61452380Y-94702380D01*
X61357142Y-94702380D01*
X61214285Y-94750000D01*
X61166666Y-94797619D01*
X60309523Y-95035714D02*
X60309523Y-95702380D01*
X60547619Y-94654761D02*
X60785714Y-95369047D01*
X60166666Y-95369047D01*
G04 #@! TO.C,C3*
X61166666Y-97607142D02*
X61214285Y-97654761D01*
X61357142Y-97702380D01*
X61452380Y-97702380D01*
X61595238Y-97654761D01*
X61690476Y-97559523D01*
X61738095Y-97464285D01*
X61785714Y-97273809D01*
X61785714Y-97130952D01*
X61738095Y-96940476D01*
X61690476Y-96845238D01*
X61595238Y-96750000D01*
X61452380Y-96702380D01*
X61357142Y-96702380D01*
X61214285Y-96750000D01*
X61166666Y-96797619D01*
X60833333Y-96702380D02*
X60214285Y-96702380D01*
X60547619Y-97083333D01*
X60404761Y-97083333D01*
X60309523Y-97130952D01*
X60261904Y-97178571D01*
X60214285Y-97273809D01*
X60214285Y-97511904D01*
X60261904Y-97607142D01*
X60309523Y-97654761D01*
X60404761Y-97702380D01*
X60690476Y-97702380D01*
X60785714Y-97654761D01*
X60833333Y-97607142D01*
G04 #@! TO.C,C2*
X67107142Y-102833333D02*
X67154761Y-102785714D01*
X67202380Y-102642857D01*
X67202380Y-102547619D01*
X67154761Y-102404761D01*
X67059523Y-102309523D01*
X66964285Y-102261904D01*
X66773809Y-102214285D01*
X66630952Y-102214285D01*
X66440476Y-102261904D01*
X66345238Y-102309523D01*
X66250000Y-102404761D01*
X66202380Y-102547619D01*
X66202380Y-102642857D01*
X66250000Y-102785714D01*
X66297619Y-102833333D01*
X66297619Y-103214285D02*
X66250000Y-103261904D01*
X66202380Y-103357142D01*
X66202380Y-103595238D01*
X66250000Y-103690476D01*
X66297619Y-103738095D01*
X66392857Y-103785714D01*
X66488095Y-103785714D01*
X66630952Y-103738095D01*
X67202380Y-103166666D01*
X67202380Y-103785714D01*
G04 #@! TD*
M02*
