G04 #@! TF.GenerationSoftware,KiCad,Pcbnew,5.0.0-rc3-6a2723a~65~ubuntu18.04.1*
G04 #@! TF.CreationDate,2018-07-21T07:19:33+00:00*
G04 #@! TF.ProjectId,glasgow,676C6173676F772E6B696361645F7063,rev?*
G04 #@! TF.SameCoordinates,Original*
G04 #@! TF.FileFunction,Copper,L1,Top,Signal*
G04 #@! TF.FilePolarity,Positive*
%FSLAX46Y46*%
G04 Gerber Fmt 4.6, Leading zero omitted, Abs format (unit mm)*
G04 Created by KiCad (PCBNEW 5.0.0-rc3-6a2723a~65~ubuntu18.04.1) date Sat Jul 21 07:19:33 2018*
%MOMM*%
%LPD*%
G01*
G04 APERTURE LIST*
G04 #@! TA.AperFunction,SMDPad,CuDef*
%ADD10O,1.000000X0.280000*%
G04 #@! TD*
G04 #@! TA.AperFunction,SMDPad,CuDef*
%ADD11O,0.280000X1.000000*%
G04 #@! TD*
G04 #@! TA.AperFunction,Conductor*
%ADD12R,6.220000X6.220000*%
G04 #@! TD*
G04 #@! TA.AperFunction,ViaPad*
%ADD13C,0.600000*%
G04 #@! TD*
G04 #@! TA.AperFunction,SMDPad,CuDef*
%ADD14R,0.800000X0.300000*%
G04 #@! TD*
G04 #@! TA.AperFunction,SMDPad,CuDef*
%ADD15R,1.060000X0.650000*%
G04 #@! TD*
G04 #@! TA.AperFunction,BGAPad,CuDef*
%ADD16C,0.750000*%
G04 #@! TD*
G04 #@! TA.AperFunction,SMDPad,CuDef*
%ADD17R,0.400000X1.260000*%
G04 #@! TD*
G04 #@! TA.AperFunction,SMDPad,CuDef*
%ADD18R,2.800000X2.540000*%
G04 #@! TD*
G04 #@! TA.AperFunction,ComponentPad*
%ADD19C,0.600000*%
G04 #@! TD*
G04 #@! TA.AperFunction,SMDPad,CuDef*
%ADD20R,0.300000X0.800000*%
G04 #@! TD*
G04 #@! TA.AperFunction,BGAPad,CuDef*
%ADD21C,1.000000*%
G04 #@! TD*
G04 #@! TA.AperFunction,SMDPad,CuDef*
%ADD22R,1.400000X1.200000*%
G04 #@! TD*
G04 #@! TA.AperFunction,SMDPad,CuDef*
%ADD23R,0.820000X1.000000*%
G04 #@! TD*
G04 #@! TA.AperFunction,SMDPad,CuDef*
%ADD24R,1.000000X0.995000*%
G04 #@! TD*
G04 #@! TA.AperFunction,SMDPad,CuDef*
%ADD25R,1.450000X0.450000*%
G04 #@! TD*
G04 #@! TA.AperFunction,SMDPad,CuDef*
%ADD26R,0.650000X1.060000*%
G04 #@! TD*
G04 #@! TA.AperFunction,SMDPad,CuDef*
%ADD27R,0.995000X1.000000*%
G04 #@! TD*
G04 #@! TA.AperFunction,ComponentPad*
%ADD28R,1.700000X1.700000*%
G04 #@! TD*
G04 #@! TA.AperFunction,ComponentPad*
%ADD29O,1.700000X1.700000*%
G04 #@! TD*
G04 #@! TA.AperFunction,SMDPad,CuDef*
%ADD30R,2.900000X1.000000*%
G04 #@! TD*
G04 #@! TA.AperFunction,SMDPad,CuDef*
%ADD31R,0.240000X0.900000*%
G04 #@! TD*
G04 #@! TA.AperFunction,SMDPad,CuDef*
%ADD32R,0.900000X0.240000*%
G04 #@! TD*
G04 #@! TA.AperFunction,SMDPad,CuDef*
%ADD33R,0.700000X0.250000*%
G04 #@! TD*
G04 #@! TA.AperFunction,SMDPad,CuDef*
%ADD34R,0.250000X0.700000*%
G04 #@! TD*
G04 #@! TA.AperFunction,SMDPad,CuDef*
%ADD35R,5.150000X5.150000*%
G04 #@! TD*
G04 #@! TA.AperFunction,SMDPad,CuDef*
%ADD36R,1.550000X0.600000*%
G04 #@! TD*
G04 #@! TA.AperFunction,SMDPad,CuDef*
%ADD37R,1.380000X0.450000*%
G04 #@! TD*
G04 #@! TA.AperFunction,SMDPad,CuDef*
%ADD38R,2.100000X1.475000*%
G04 #@! TD*
G04 #@! TA.AperFunction,SMDPad,CuDef*
%ADD39R,1.900000X2.375000*%
G04 #@! TD*
G04 #@! TA.AperFunction,SMDPad,CuDef*
%ADD40R,1.900000X1.175000*%
G04 #@! TD*
G04 #@! TA.AperFunction,ComponentPad*
%ADD41C,6.400000*%
G04 #@! TD*
G04 #@! TA.AperFunction,ViaPad*
%ADD42C,0.700000*%
G04 #@! TD*
G04 #@! TA.AperFunction,Conductor*
%ADD43C,0.160000*%
G04 #@! TD*
G04 #@! TA.AperFunction,Conductor*
%ADD44C,0.250000*%
G04 #@! TD*
G04 #@! TA.AperFunction,Conductor*
%ADD45C,0.450000*%
G04 #@! TD*
G04 #@! TA.AperFunction,Conductor*
%ADD46C,0.750000*%
G04 #@! TD*
G04 #@! TA.AperFunction,Conductor*
%ADD47C,0.254000*%
G04 #@! TD*
G04 APERTURE END LIST*
D10*
G04 #@! TO.P,U1,1*
G04 #@! TO.N,/RD*
X65000000Y-92250000D03*
G04 #@! TO.P,U1,2*
G04 #@! TO.N,/WR*
X65000000Y-92750000D03*
G04 #@! TO.P,U1,3*
G04 #@! TO.N,+3V3*
X65000000Y-93250000D03*
G04 #@! TO.P,U1,4*
G04 #@! TO.N,/XTALOUT*
X65000000Y-93750000D03*
G04 #@! TO.P,U1,5*
G04 #@! TO.N,/XTALIN*
X65000000Y-94250000D03*
G04 #@! TO.P,U1,6*
G04 #@! TO.N,GND*
X65000000Y-94750000D03*
G04 #@! TO.P,U1,7*
G04 #@! TO.N,+3V3*
X65000000Y-95250000D03*
G04 #@! TO.P,U1,8*
G04 #@! TO.N,/USB_P*
X65000000Y-95750000D03*
G04 #@! TO.P,U1,9*
G04 #@! TO.N,/USB_N*
X65000000Y-96250000D03*
G04 #@! TO.P,U1,10*
G04 #@! TO.N,GND*
X65000000Y-96750000D03*
G04 #@! TO.P,U1,11*
G04 #@! TO.N,+3V3*
X65000000Y-97250000D03*
G04 #@! TO.P,U1,12*
G04 #@! TO.N,GND*
X65000000Y-97750000D03*
G04 #@! TO.P,U1,13*
G04 #@! TO.N,/CLKIF*
X65000000Y-98250000D03*
G04 #@! TO.P,U1,14*
G04 #@! TO.N,GND*
X65000000Y-98750000D03*
D11*
G04 #@! TO.P,U1,15*
G04 #@! TO.N,/SCL*
X65750000Y-99500000D03*
G04 #@! TO.P,U1,16*
G04 #@! TO.N,/SDA*
X66250000Y-99500000D03*
G04 #@! TO.P,U1,17*
G04 #@! TO.N,+3V3*
X66750000Y-99500000D03*
G04 #@! TO.P,U1,18*
G04 #@! TO.N,/D0*
X67250000Y-99500000D03*
G04 #@! TO.P,U1,19*
G04 #@! TO.N,/D1*
X67750000Y-99500000D03*
G04 #@! TO.P,U1,20*
G04 #@! TO.N,/D2*
X68250000Y-99500000D03*
G04 #@! TO.P,U1,21*
G04 #@! TO.N,/D3*
X68750000Y-99500000D03*
G04 #@! TO.P,U1,22*
G04 #@! TO.N,/D4*
X69250000Y-99500000D03*
G04 #@! TO.P,U1,23*
G04 #@! TO.N,/D5*
X69750000Y-99500000D03*
G04 #@! TO.P,U1,24*
G04 #@! TO.N,/D6*
X70250000Y-99500000D03*
G04 #@! TO.P,U1,25*
G04 #@! TO.N,/D7*
X70750000Y-99500000D03*
G04 #@! TO.P,U1,26*
G04 #@! TO.N,GND*
X71250000Y-99500000D03*
G04 #@! TO.P,U1,27*
G04 #@! TO.N,+3V3*
X71750000Y-99500000D03*
G04 #@! TO.P,U1,28*
G04 #@! TO.N,GND*
X72250000Y-99500000D03*
D10*
G04 #@! TO.P,U1,29*
G04 #@! TO.N,/FLAGA*
X73000000Y-98750000D03*
G04 #@! TO.P,U1,30*
G04 #@! TO.N,/FLAGB*
X73000000Y-98250000D03*
G04 #@! TO.P,U1,31*
G04 #@! TO.N,/FLAGC*
X73000000Y-97750000D03*
G04 #@! TO.P,U1,32*
G04 #@! TO.N,+3V3*
X73000000Y-97250000D03*
G04 #@! TO.P,U1,33*
G04 #@! TO.N,/~ALERT*
X73000000Y-96750000D03*
G04 #@! TO.P,U1,34*
G04 #@! TO.N,/FLAGD*
X73000000Y-96250000D03*
G04 #@! TO.P,U1,35*
G04 #@! TO.N,/OE*
X73000000Y-95750000D03*
G04 #@! TO.P,U1,36*
G04 #@! TO.N,/FPGA_DONE*
X73000000Y-95250000D03*
G04 #@! TO.P,U1,37*
G04 #@! TO.N,/A0*
X73000000Y-94750000D03*
G04 #@! TO.P,U1,38*
G04 #@! TO.N,/A1*
X73000000Y-94250000D03*
G04 #@! TO.P,U1,39*
G04 #@! TO.N,/PKTEND*
X73000000Y-93750000D03*
G04 #@! TO.P,U1,40*
G04 #@! TO.N,/FLAGD*
X73000000Y-93250000D03*
G04 #@! TO.P,U1,41*
G04 #@! TO.N,GND*
X73000000Y-92750000D03*
G04 #@! TO.P,U1,42*
G04 #@! TO.N,/~CY_RESET*
X73000000Y-92250000D03*
D11*
G04 #@! TO.P,U1,43*
G04 #@! TO.N,+3V3*
X72250000Y-91500000D03*
G04 #@! TO.P,U1,44*
X71750000Y-91500000D03*
G04 #@! TO.P,U1,45*
G04 #@! TO.N,/ENVA*
X71250000Y-91500000D03*
G04 #@! TO.P,U1,46*
G04 #@! TO.N,/~FPGA_RESET*
X70750000Y-91500000D03*
G04 #@! TO.P,U1,47*
G04 #@! TO.N,/LED_CY*
X70250000Y-91500000D03*
G04 #@! TO.P,U1,48*
G04 #@! TO.N,/LED_FPGA*
X69750000Y-91500000D03*
G04 #@! TO.P,U1,49*
G04 #@! TO.N,/LED_ACT*
X69250000Y-91500000D03*
G04 #@! TO.P,U1,50*
G04 #@! TO.N,/LED_ERR*
X68750000Y-91500000D03*
G04 #@! TO.P,U1,51*
G04 #@! TO.N,/ENVB*
X68250000Y-91500000D03*
G04 #@! TO.P,U1,52*
G04 #@! TO.N,/~OEQ*
X67750000Y-91500000D03*
G04 #@! TO.P,U1,53*
G04 #@! TO.N,GND*
X67250000Y-91500000D03*
G04 #@! TO.P,U1,54*
G04 #@! TO.N,/CLKREF*
X66750000Y-91500000D03*
G04 #@! TO.P,U1,55*
G04 #@! TO.N,+3V3*
X66250000Y-91500000D03*
G04 #@! TO.P,U1,56*
G04 #@! TO.N,GND*
X65750000Y-91500000D03*
D12*
G04 #@! TD*
G04 #@! TO.N,GND*
G04 #@! TO.C,U1*
X69000000Y-95500000D03*
D13*
G04 #@! TO.N,GND*
G04 #@! TO.C,U1*
X69000000Y-95500000D03*
X70270000Y-95500000D03*
X71540000Y-95500000D03*
X67730000Y-95500000D03*
X66460000Y-95500000D03*
X66460000Y-94230000D03*
X67730000Y-94230000D03*
X69000000Y-94230000D03*
X70270000Y-94230000D03*
X71540000Y-94230000D03*
X71540000Y-92960000D03*
X70270000Y-92960000D03*
X69000000Y-92960000D03*
X67730000Y-92960000D03*
X66460000Y-92960000D03*
X66460000Y-96770000D03*
X67730000Y-96770000D03*
X69000000Y-96770000D03*
X70270000Y-96770000D03*
X71540000Y-96770000D03*
X71540000Y-98040000D03*
X70270000Y-98040000D03*
X69000000Y-98040000D03*
X67730000Y-98040000D03*
X66460000Y-98040000D03*
G04 #@! TD*
D14*
G04 #@! TO.P,RN3,10*
G04 #@! TO.N,/IOBufferA/X6*
X100250000Y-94250000D03*
G04 #@! TO.P,RN3,12*
G04 #@! TO.N,/IOBufferA/X4*
X100250000Y-93250000D03*
G04 #@! TO.P,RN3,11*
G04 #@! TO.N,/IOBufferA/X5*
X100250000Y-93750000D03*
G04 #@! TO.P,RN3,13*
G04 #@! TO.N,/IOBufferA/X3*
X100250000Y-92750000D03*
G04 #@! TO.P,RN3,14*
G04 #@! TO.N,/IOBufferA/X2*
X100250000Y-92250000D03*
G04 #@! TO.P,RN3,15*
G04 #@! TO.N,/IOBufferA/X1*
X100250000Y-91750000D03*
G04 #@! TO.P,RN3,7*
G04 #@! TO.N,/QA6*
X98450000Y-94250000D03*
G04 #@! TO.P,RN3,6*
G04 #@! TO.N,/QA5*
X98450000Y-93750000D03*
G04 #@! TO.P,RN3,5*
G04 #@! TO.N,/QA4*
X98450000Y-93250000D03*
G04 #@! TO.P,RN3,4*
G04 #@! TO.N,/QA3*
X98450000Y-92750000D03*
G04 #@! TO.P,RN3,3*
G04 #@! TO.N,/QA2*
X98450000Y-92250000D03*
G04 #@! TO.P,RN3,2*
G04 #@! TO.N,/QA1*
X98450000Y-91750000D03*
G04 #@! TO.P,RN3,9*
G04 #@! TO.N,/IOBufferA/X7*
X100250000Y-94750000D03*
G04 #@! TO.P,RN3,8*
G04 #@! TO.N,/QA7*
X98450000Y-94750000D03*
G04 #@! TO.P,RN3,16*
G04 #@! TO.N,/IOBufferA/X0*
X100250000Y-91250000D03*
G04 #@! TO.P,RN3,1*
G04 #@! TO.N,/QA0*
X98450000Y-91250000D03*
G04 #@! TD*
G04 #@! TO.P,RN4,1*
G04 #@! TO.N,/QB0*
X98450000Y-96250000D03*
G04 #@! TO.P,RN4,16*
G04 #@! TO.N,/IOBufferB/X0*
X100250000Y-96250000D03*
G04 #@! TO.P,RN4,8*
G04 #@! TO.N,/QB7*
X98450000Y-99750000D03*
G04 #@! TO.P,RN4,9*
G04 #@! TO.N,/IOBufferB/X7*
X100250000Y-99750000D03*
G04 #@! TO.P,RN4,2*
G04 #@! TO.N,/QB1*
X98450000Y-96750000D03*
G04 #@! TO.P,RN4,3*
G04 #@! TO.N,/QB2*
X98450000Y-97250000D03*
G04 #@! TO.P,RN4,4*
G04 #@! TO.N,/QB3*
X98450000Y-97750000D03*
G04 #@! TO.P,RN4,5*
G04 #@! TO.N,/QB4*
X98450000Y-98250000D03*
G04 #@! TO.P,RN4,6*
G04 #@! TO.N,/QB5*
X98450000Y-98750000D03*
G04 #@! TO.P,RN4,7*
G04 #@! TO.N,/QB6*
X98450000Y-99250000D03*
G04 #@! TO.P,RN4,15*
G04 #@! TO.N,/IOBufferB/X1*
X100250000Y-96750000D03*
G04 #@! TO.P,RN4,14*
G04 #@! TO.N,/IOBufferB/X2*
X100250000Y-97250000D03*
G04 #@! TO.P,RN4,13*
G04 #@! TO.N,/IOBufferB/X3*
X100250000Y-97750000D03*
G04 #@! TO.P,RN4,11*
G04 #@! TO.N,/IOBufferB/X5*
X100250000Y-98750000D03*
G04 #@! TO.P,RN4,12*
G04 #@! TO.N,/IOBufferB/X4*
X100250000Y-98250000D03*
G04 #@! TO.P,RN4,10*
G04 #@! TO.N,/IOBufferB/X6*
X100250000Y-99250000D03*
G04 #@! TD*
D15*
G04 #@! TO.P,U15,5*
G04 #@! TO.N,/USB_P*
X58300000Y-98000000D03*
G04 #@! TO.P,U15,6*
G04 #@! TO.N,/USB_N*
X58300000Y-98950000D03*
G04 #@! TO.P,U15,4*
G04 #@! TO.N,+5V*
X58300000Y-97050000D03*
G04 #@! TO.P,U15,3*
G04 #@! TO.N,/VUSB*
X60500000Y-97050000D03*
G04 #@! TO.P,U15,2*
G04 #@! TO.N,GND*
X60500000Y-98000000D03*
G04 #@! TO.P,U15,1*
G04 #@! TO.N,/VUSB*
X60500000Y-98950000D03*
G04 #@! TD*
D16*
G04 #@! TO.P,FID2,~*
G04 #@! TO.N,N/C*
X119750000Y-75000000D03*
G04 #@! TD*
G04 #@! TO.P,FID1,~*
G04 #@! TO.N,N/C*
X60250000Y-116000000D03*
G04 #@! TD*
D17*
G04 #@! TO.P,U8,8*
G04 #@! TO.N,+3V3*
X73741581Y-81650000D03*
D18*
G04 #@! TO.P,U8,9*
G04 #@! TO.N,GND*
X72766581Y-79250000D03*
D17*
G04 #@! TO.P,U8,7*
G04 #@! TO.N,+1V2*
X73091581Y-81650000D03*
G04 #@! TO.P,U8,3*
G04 #@! TO.N,Net-(U8-Pad3)*
X72441581Y-76850000D03*
G04 #@! TO.P,U8,2*
G04 #@! TO.N,GND*
X73091581Y-76850000D03*
G04 #@! TO.P,U8,6*
G04 #@! TO.N,Net-(U8-Pad6)*
X72441581Y-81650000D03*
G04 #@! TO.P,U8,4*
G04 #@! TO.N,/1V2EN*
X71791581Y-76850000D03*
G04 #@! TO.P,U8,1*
G04 #@! TO.N,+5V*
X73741581Y-76850000D03*
G04 #@! TO.P,U8,5*
G04 #@! TO.N,/3V3EN*
X71791581Y-81650000D03*
D19*
G04 #@! TO.P,U8,9*
G04 #@! TO.N,GND*
X73266581Y-79750000D03*
X72266581Y-79750000D03*
X72266581Y-78750000D03*
X73266581Y-78750000D03*
G04 #@! TD*
D20*
G04 #@! TO.P,RN2,10*
G04 #@! TO.N,/IOBufferB/Z6*
X102500000Y-107650000D03*
G04 #@! TO.P,RN2,12*
G04 #@! TO.N,/IOBufferB/Z4*
X103500000Y-107650000D03*
G04 #@! TO.P,RN2,11*
G04 #@! TO.N,/IOBufferB/Z5*
X103000000Y-107650000D03*
G04 #@! TO.P,RN2,13*
G04 #@! TO.N,/IOBufferB/Z3*
X104000000Y-107650000D03*
G04 #@! TO.P,RN2,14*
G04 #@! TO.N,/IOBufferB/Z2*
X104500000Y-107650000D03*
G04 #@! TO.P,RN2,15*
G04 #@! TO.N,/IOBufferB/Z1*
X105000000Y-107650000D03*
G04 #@! TO.P,RN2,7*
G04 #@! TO.N,/IOBufferB/Y6*
X102500000Y-105850000D03*
G04 #@! TO.P,RN2,6*
G04 #@! TO.N,/IOBufferB/Y5*
X103000000Y-105850000D03*
G04 #@! TO.P,RN2,5*
G04 #@! TO.N,/IOBufferB/Y4*
X103500000Y-105850000D03*
G04 #@! TO.P,RN2,4*
G04 #@! TO.N,/IOBufferB/Y3*
X104000000Y-105850000D03*
G04 #@! TO.P,RN2,3*
G04 #@! TO.N,/IOBufferB/Y2*
X104500000Y-105850000D03*
G04 #@! TO.P,RN2,2*
G04 #@! TO.N,/IOBufferB/Y1*
X105000000Y-105850000D03*
G04 #@! TO.P,RN2,9*
G04 #@! TO.N,/IOBufferB/Z7*
X102000000Y-107650000D03*
G04 #@! TO.P,RN2,8*
G04 #@! TO.N,/IOBufferB/Y7*
X102000000Y-105850000D03*
G04 #@! TO.P,RN2,16*
G04 #@! TO.N,/IOBufferB/Z0*
X105500000Y-107650000D03*
G04 #@! TO.P,RN2,1*
G04 #@! TO.N,/IOBufferB/Y0*
X105500000Y-105850000D03*
G04 #@! TD*
G04 #@! TO.P,RN1,1*
G04 #@! TO.N,/IOBufferA/Y0*
X101750000Y-85150000D03*
G04 #@! TO.P,RN1,16*
G04 #@! TO.N,/IOBufferA/Z0*
X101750000Y-83350000D03*
G04 #@! TO.P,RN1,8*
G04 #@! TO.N,/IOBufferA/Y7*
X105250000Y-85150000D03*
G04 #@! TO.P,RN1,9*
G04 #@! TO.N,/IOBufferA/Z7*
X105250000Y-83350000D03*
G04 #@! TO.P,RN1,2*
G04 #@! TO.N,/IOBufferA/Y1*
X102250000Y-85150000D03*
G04 #@! TO.P,RN1,3*
G04 #@! TO.N,/IOBufferA/Y2*
X102750000Y-85150000D03*
G04 #@! TO.P,RN1,4*
G04 #@! TO.N,/IOBufferA/Y3*
X103250000Y-85150000D03*
G04 #@! TO.P,RN1,5*
G04 #@! TO.N,/IOBufferA/Y4*
X103750000Y-85150000D03*
G04 #@! TO.P,RN1,6*
G04 #@! TO.N,/IOBufferA/Y5*
X104250000Y-85150000D03*
G04 #@! TO.P,RN1,7*
G04 #@! TO.N,/IOBufferA/Y6*
X104750000Y-85150000D03*
G04 #@! TO.P,RN1,15*
G04 #@! TO.N,/IOBufferA/Z1*
X102250000Y-83350000D03*
G04 #@! TO.P,RN1,14*
G04 #@! TO.N,/IOBufferA/Z2*
X102750000Y-83350000D03*
G04 #@! TO.P,RN1,13*
G04 #@! TO.N,/IOBufferA/Z3*
X103250000Y-83350000D03*
G04 #@! TO.P,RN1,11*
G04 #@! TO.N,/IOBufferA/Z5*
X104250000Y-83350000D03*
G04 #@! TO.P,RN1,12*
G04 #@! TO.N,/IOBufferA/Z4*
X103750000Y-83350000D03*
G04 #@! TO.P,RN1,10*
G04 #@! TO.N,/IOBufferA/Z6*
X104750000Y-83350000D03*
G04 #@! TD*
D21*
G04 #@! TO.P,TP7,1*
G04 #@! TO.N,/CLKIF*
X84250000Y-103000000D03*
G04 #@! TD*
D22*
G04 #@! TO.P,Y1,4*
G04 #@! TO.N,GND*
X59400000Y-91150000D03*
G04 #@! TO.P,Y1,3*
G04 #@! TO.N,/XTALOUT*
X61600000Y-91150000D03*
G04 #@! TO.P,Y1,2*
G04 #@! TO.N,GND*
X61600000Y-92850000D03*
G04 #@! TO.P,Y1,1*
G04 #@! TO.N,/XTALIN*
X59400000Y-92850000D03*
G04 #@! TD*
D23*
G04 #@! TO.P,D5,2*
G04 #@! TO.N,Net-(D5-Pad2)*
X57950000Y-110500000D03*
G04 #@! TO.P,D5,1*
G04 #@! TO.N,GND*
X56350000Y-110500000D03*
G04 #@! TD*
G04 #@! TO.P,D4,2*
G04 #@! TO.N,Net-(D4-Pad2)*
X57950000Y-108750000D03*
G04 #@! TO.P,D4,1*
G04 #@! TO.N,GND*
X56350000Y-108750000D03*
G04 #@! TD*
G04 #@! TO.P,D3,2*
G04 #@! TO.N,Net-(D3-Pad2)*
X57950000Y-107000000D03*
G04 #@! TO.P,D3,1*
G04 #@! TO.N,GND*
X56350000Y-107000000D03*
G04 #@! TD*
G04 #@! TO.P,D2,2*
G04 #@! TO.N,Net-(D2-Pad2)*
X57950000Y-105250000D03*
G04 #@! TO.P,D2,1*
G04 #@! TO.N,GND*
X56350000Y-105250000D03*
G04 #@! TD*
G04 #@! TO.P,D1,2*
G04 #@! TO.N,Net-(D1-Pad2)*
X57950000Y-103500000D03*
G04 #@! TO.P,D1,1*
G04 #@! TO.N,GND*
X56350000Y-103500000D03*
G04 #@! TD*
D21*
G04 #@! TO.P,TP6,1*
G04 #@! TO.N,/CLKREF*
X80500000Y-90750000D03*
G04 #@! TD*
G04 #@! TO.P,TP4,1*
G04 #@! TO.N,/SDA*
X80500000Y-107000000D03*
G04 #@! TD*
G04 #@! TO.P,TP5,1*
G04 #@! TO.N,/SCL*
X76750000Y-107000000D03*
G04 #@! TD*
D24*
G04 #@! TO.P,C44,1*
G04 #@! TO.N,/IOBufferB/VSAMP*
X110500000Y-105612500D03*
G04 #@! TO.P,C44,2*
G04 #@! TO.N,GND*
X110500000Y-107387500D03*
G04 #@! TD*
G04 #@! TO.P,C37,2*
G04 #@! TO.N,GND*
X96750000Y-83112500D03*
G04 #@! TO.P,C37,1*
G04 #@! TO.N,/IOBufferA/VSAMP*
X96750000Y-84887500D03*
G04 #@! TD*
D25*
G04 #@! TO.P,U12,8*
G04 #@! TO.N,/SDA*
X117200000Y-103775000D03*
G04 #@! TO.P,U12,7*
G04 #@! TO.N,GND*
X117200000Y-104425000D03*
G04 #@! TO.P,U12,6*
X117200000Y-105075000D03*
G04 #@! TO.P,U12,5*
G04 #@! TO.N,+3V3*
X117200000Y-105725000D03*
G04 #@! TO.P,U12,4*
G04 #@! TO.N,/IOBufferB/VSAMP*
X112800000Y-105725000D03*
G04 #@! TO.P,U12,3*
G04 #@! TO.N,GND*
X112800000Y-105075000D03*
G04 #@! TO.P,U12,2*
G04 #@! TO.N,/~ALERT*
X112800000Y-104425000D03*
G04 #@! TO.P,U12,1*
G04 #@! TO.N,/SCL*
X112800000Y-103775000D03*
G04 #@! TD*
G04 #@! TO.P,U9,1*
G04 #@! TO.N,/SCL*
X94450000Y-86975000D03*
G04 #@! TO.P,U9,2*
G04 #@! TO.N,/~ALERT*
X94450000Y-86325000D03*
G04 #@! TO.P,U9,3*
G04 #@! TO.N,/IOBufferA/ADRADC*
X94450000Y-85675000D03*
G04 #@! TO.P,U9,4*
G04 #@! TO.N,/IOBufferA/VSAMP*
X94450000Y-85025000D03*
G04 #@! TO.P,U9,5*
G04 #@! TO.N,+3V3*
X90050000Y-85025000D03*
G04 #@! TO.P,U9,6*
G04 #@! TO.N,GND*
X90050000Y-85675000D03*
G04 #@! TO.P,U9,7*
X90050000Y-86325000D03*
G04 #@! TO.P,U9,8*
G04 #@! TO.N,/SDA*
X90050000Y-86975000D03*
G04 #@! TD*
D26*
G04 #@! TO.P,U11,5*
G04 #@! TO.N,/IOBufferA/VIO*
X112450000Y-84100000D03*
G04 #@! TO.P,U11,4*
G04 #@! TO.N,/IOBufferA/VFB*
X110550000Y-84100000D03*
G04 #@! TO.P,U11,3*
G04 #@! TO.N,/ENVA*
X110550000Y-81900000D03*
G04 #@! TO.P,U11,2*
G04 #@! TO.N,GND*
X111500000Y-81900000D03*
G04 #@! TO.P,U11,1*
G04 #@! TO.N,+5V*
X112450000Y-81900000D03*
G04 #@! TD*
G04 #@! TO.P,U14,5*
G04 #@! TO.N,/IOBufferB/VIO*
X95550000Y-106900000D03*
G04 #@! TO.P,U14,4*
G04 #@! TO.N,/IOBufferB/VFB*
X97450000Y-106900000D03*
G04 #@! TO.P,U14,3*
G04 #@! TO.N,/ENVB*
X97450000Y-109100000D03*
G04 #@! TO.P,U14,2*
G04 #@! TO.N,GND*
X96500000Y-109100000D03*
G04 #@! TO.P,U14,1*
G04 #@! TO.N,+5V*
X95550000Y-109100000D03*
G04 #@! TD*
G04 #@! TO.P,U13,1*
G04 #@! TO.N,Net-(R27-Pad1)*
X91700000Y-106900000D03*
G04 #@! TO.P,U13,2*
G04 #@! TO.N,+3V3*
X90750000Y-106900000D03*
G04 #@! TO.P,U13,3*
G04 #@! TO.N,GND*
X89800000Y-106900000D03*
G04 #@! TO.P,U13,4*
G04 #@! TO.N,/SDA*
X89800000Y-109100000D03*
G04 #@! TO.P,U13,6*
G04 #@! TO.N,GND*
X91700000Y-109100000D03*
G04 #@! TO.P,U13,5*
G04 #@! TO.N,/SCL*
X90750000Y-109100000D03*
G04 #@! TD*
G04 #@! TO.P,U10,1*
G04 #@! TO.N,Net-(R22-Pad1)*
X112450000Y-87900000D03*
G04 #@! TO.P,U10,2*
G04 #@! TO.N,+3V3*
X111500000Y-87900000D03*
G04 #@! TO.P,U10,3*
G04 #@! TO.N,GND*
X110550000Y-87900000D03*
G04 #@! TO.P,U10,4*
G04 #@! TO.N,/SDA*
X110550000Y-90100000D03*
G04 #@! TO.P,U10,6*
G04 #@! TO.N,/IOBufferA/ADRDAC*
X112450000Y-90100000D03*
G04 #@! TO.P,U10,5*
G04 #@! TO.N,/SCL*
X111500000Y-90100000D03*
G04 #@! TD*
D27*
G04 #@! TO.P,R24,2*
G04 #@! TO.N,/IOBufferA/VFB*
X110637500Y-86000000D03*
G04 #@! TO.P,R24,1*
G04 #@! TO.N,GND*
X108862500Y-86000000D03*
G04 #@! TD*
D24*
G04 #@! TO.P,R18,1*
G04 #@! TO.N,/ENVA*
X108500000Y-82112500D03*
G04 #@! TO.P,R18,2*
G04 #@! TO.N,GND*
X108500000Y-83887500D03*
G04 #@! TD*
D27*
G04 #@! TO.P,R20,2*
G04 #@! TO.N,/IOBufferA/VSENSE*
X94887500Y-83250000D03*
G04 #@! TO.P,R20,1*
G04 #@! TO.N,/IOBufferA/VSAMP*
X93112500Y-83250000D03*
G04 #@! TD*
G04 #@! TO.P,R21,1*
G04 #@! TO.N,GND*
X89612500Y-83250000D03*
G04 #@! TO.P,R21,2*
G04 #@! TO.N,/IOBufferA/VSAMP*
X91387500Y-83250000D03*
G04 #@! TD*
D24*
G04 #@! TO.P,R22,2*
G04 #@! TO.N,/IOBufferA/VFB*
X114500000Y-88112500D03*
G04 #@! TO.P,R22,1*
G04 #@! TO.N,Net-(R22-Pad1)*
X114500000Y-89887500D03*
G04 #@! TD*
G04 #@! TO.P,R19,2*
G04 #@! TO.N,GND*
X99500000Y-107112500D03*
G04 #@! TO.P,R19,1*
G04 #@! TO.N,/ENVB*
X99500000Y-108887500D03*
G04 #@! TD*
D27*
G04 #@! TO.P,R23,2*
G04 #@! TO.N,/IOBufferA/VIO*
X114137500Y-86000000D03*
G04 #@! TO.P,R23,1*
G04 #@! TO.N,/IOBufferA/VFB*
X112362500Y-86000000D03*
G04 #@! TD*
G04 #@! TO.P,R25,1*
G04 #@! TO.N,/IOBufferB/VSAMP*
X114137500Y-107496000D03*
G04 #@! TO.P,R25,2*
G04 #@! TO.N,/IOBufferB/VSENSE*
X112362500Y-107496000D03*
G04 #@! TD*
G04 #@! TO.P,R26,2*
G04 #@! TO.N,/IOBufferB/VSAMP*
X115862500Y-107496000D03*
G04 #@! TO.P,R26,1*
G04 #@! TO.N,GND*
X117637500Y-107496000D03*
G04 #@! TD*
G04 #@! TO.P,R27,2*
G04 #@! TO.N,/IOBufferB/VFB*
X91637500Y-105000000D03*
G04 #@! TO.P,R27,1*
G04 #@! TO.N,Net-(R27-Pad1)*
X89862500Y-105000000D03*
G04 #@! TD*
G04 #@! TO.P,R28,1*
G04 #@! TO.N,/IOBufferB/VFB*
X95637500Y-105000000D03*
G04 #@! TO.P,R28,2*
G04 #@! TO.N,/IOBufferB/VIO*
X93862500Y-105000000D03*
G04 #@! TD*
G04 #@! TO.P,R29,2*
G04 #@! TO.N,/IOBufferB/VFB*
X97362500Y-105000000D03*
G04 #@! TO.P,R29,1*
G04 #@! TO.N,GND*
X99137500Y-105000000D03*
G04 #@! TD*
D21*
G04 #@! TO.P,TP3,1*
G04 #@! TO.N,+3V3*
X65250000Y-86750000D03*
G04 #@! TD*
G04 #@! TO.P,TP1,1*
G04 #@! TO.N,+5V*
X53500000Y-87500000D03*
G04 #@! TD*
G04 #@! TO.P,TP2,1*
G04 #@! TO.N,+1V2*
X77500000Y-87750000D03*
G04 #@! TD*
D27*
G04 #@! TO.P,R17,2*
G04 #@! TO.N,+3V3*
X75112500Y-99750000D03*
G04 #@! TO.P,R17,1*
G04 #@! TO.N,/~ALERT*
X76887500Y-99750000D03*
G04 #@! TD*
G04 #@! TO.P,R12,1*
G04 #@! TO.N,+3V3*
X63187500Y-103500000D03*
G04 #@! TO.P,R12,2*
G04 #@! TO.N,Net-(D1-Pad2)*
X61412500Y-103500000D03*
G04 #@! TD*
G04 #@! TO.P,R14,2*
G04 #@! TO.N,Net-(D3-Pad2)*
X61412500Y-107000000D03*
G04 #@! TO.P,R14,1*
G04 #@! TO.N,/LED_FPGA*
X63187500Y-107000000D03*
G04 #@! TD*
G04 #@! TO.P,R15,1*
G04 #@! TO.N,/LED_ACT*
X63187500Y-108750000D03*
G04 #@! TO.P,R15,2*
G04 #@! TO.N,Net-(D4-Pad2)*
X61412500Y-108750000D03*
G04 #@! TD*
G04 #@! TO.P,R16,2*
G04 #@! TO.N,Net-(D5-Pad2)*
X61412500Y-110500000D03*
G04 #@! TO.P,R16,1*
G04 #@! TO.N,/LED_ERR*
X63187500Y-110500000D03*
G04 #@! TD*
G04 #@! TO.P,R13,1*
G04 #@! TO.N,/LED_CY*
X63187500Y-105250000D03*
G04 #@! TO.P,R13,2*
G04 #@! TO.N,Net-(D2-Pad2)*
X61412500Y-105250000D03*
G04 #@! TD*
D24*
G04 #@! TO.P,R11,1*
G04 #@! TO.N,/~OEQ*
X72000000Y-104712500D03*
G04 #@! TO.P,R11,2*
G04 #@! TO.N,+3V3*
X72000000Y-106487500D03*
G04 #@! TD*
D28*
G04 #@! TO.P,J4,1*
G04 #@! TO.N,GND*
X79750000Y-83250000D03*
D29*
G04 #@! TO.P,J4,2*
G04 #@! TO.N,/~SYNC*
X82290000Y-83250000D03*
G04 #@! TD*
D27*
G04 #@! TO.P,R10,1*
G04 #@! TO.N,/~SYNC*
X84137500Y-86500000D03*
G04 #@! TO.P,R10,2*
G04 #@! TO.N,+3V3*
X82362500Y-86500000D03*
G04 #@! TD*
G04 #@! TO.P,R9,1*
G04 #@! TO.N,GND*
X77112500Y-96750000D03*
G04 #@! TO.P,R9,2*
G04 #@! TO.N,/~FPGA_RESET*
X78887500Y-96750000D03*
G04 #@! TD*
D24*
G04 #@! TO.P,R7,2*
G04 #@! TO.N,+5V*
X66750000Y-76612500D03*
G04 #@! TO.P,R7,1*
G04 #@! TO.N,/3V3EN*
X66750000Y-78387500D03*
G04 #@! TD*
D27*
G04 #@! TO.P,C27,1*
G04 #@! TO.N,+1V2*
X72275000Y-84000000D03*
G04 #@! TO.P,C27,2*
G04 #@! TO.N,GND*
X70500000Y-84000000D03*
G04 #@! TD*
G04 #@! TO.P,C28,2*
G04 #@! TO.N,GND*
X76000000Y-84000000D03*
G04 #@! TO.P,C28,1*
G04 #@! TO.N,+3V3*
X74225000Y-84000000D03*
G04 #@! TD*
G04 #@! TO.P,C26,1*
G04 #@! TO.N,+5V*
X73637500Y-75000000D03*
G04 #@! TO.P,C26,2*
G04 #@! TO.N,GND*
X71862500Y-75000000D03*
G04 #@! TD*
D15*
G04 #@! TO.P,U7,1*
G04 #@! TO.N,+5V*
X62400000Y-78800000D03*
G04 #@! TO.P,U7,2*
G04 #@! TO.N,GND*
X62400000Y-79750000D03*
G04 #@! TO.P,U7,3*
G04 #@! TO.N,/PGOOD*
X62400000Y-80700000D03*
G04 #@! TO.P,U7,4*
G04 #@! TO.N,/~CY_RESET*
X64600000Y-80700000D03*
G04 #@! TO.P,U7,6*
G04 #@! TO.N,/1V2EN*
X64600000Y-78800000D03*
G04 #@! TO.P,U7,5*
G04 #@! TO.N,/3V3EN*
X64600000Y-79750000D03*
G04 #@! TD*
D27*
G04 #@! TO.P,R4,1*
G04 #@! TO.N,/~CY_RESET*
X64612500Y-82750000D03*
G04 #@! TO.P,R4,2*
G04 #@! TO.N,+3V3*
X66387500Y-82750000D03*
G04 #@! TD*
D24*
G04 #@! TO.P,R5,2*
G04 #@! TO.N,+5V*
X60232324Y-78112500D03*
G04 #@! TO.P,R5,1*
G04 #@! TO.N,/PGOOD*
X60232324Y-79887500D03*
G04 #@! TD*
G04 #@! TO.P,R6,1*
G04 #@! TO.N,GND*
X60232324Y-83387500D03*
G04 #@! TO.P,R6,2*
G04 #@! TO.N,/PGOOD*
X60232324Y-81612500D03*
G04 #@! TD*
G04 #@! TO.P,R8,1*
G04 #@! TO.N,/1V2EN*
X68750000Y-78387500D03*
G04 #@! TO.P,R8,2*
G04 #@! TO.N,+5V*
X68750000Y-76612500D03*
G04 #@! TD*
D29*
G04 #@! TO.P,J2,20*
G04 #@! TO.N,GND*
X115430000Y-75190000D03*
G04 #@! TO.P,J2,19*
G04 #@! TO.N,Net-(J2-Pad19)*
X115430000Y-77730000D03*
G04 #@! TO.P,J2,18*
G04 #@! TO.N,GND*
X112890000Y-75190000D03*
G04 #@! TO.P,J2,17*
G04 #@! TO.N,/IOBufferA/Z7*
X112890000Y-77730000D03*
G04 #@! TO.P,J2,16*
G04 #@! TO.N,GND*
X110350000Y-75190000D03*
G04 #@! TO.P,J2,15*
G04 #@! TO.N,/IOBufferA/Z6*
X110350000Y-77730000D03*
G04 #@! TO.P,J2,14*
G04 #@! TO.N,GND*
X107810000Y-75190000D03*
G04 #@! TO.P,J2,13*
G04 #@! TO.N,/IOBufferA/Z5*
X107810000Y-77730000D03*
G04 #@! TO.P,J2,12*
G04 #@! TO.N,GND*
X105270000Y-75190000D03*
G04 #@! TO.P,J2,11*
G04 #@! TO.N,/IOBufferA/Z4*
X105270000Y-77730000D03*
G04 #@! TO.P,J2,10*
G04 #@! TO.N,GND*
X102730000Y-75190000D03*
G04 #@! TO.P,J2,9*
G04 #@! TO.N,/IOBufferA/Z3*
X102730000Y-77730000D03*
G04 #@! TO.P,J2,8*
G04 #@! TO.N,GND*
X100190000Y-75190000D03*
G04 #@! TO.P,J2,7*
G04 #@! TO.N,/IOBufferA/Z2*
X100190000Y-77730000D03*
G04 #@! TO.P,J2,6*
G04 #@! TO.N,GND*
X97650000Y-75190000D03*
G04 #@! TO.P,J2,5*
G04 #@! TO.N,/IOBufferA/Z1*
X97650000Y-77730000D03*
G04 #@! TO.P,J2,4*
G04 #@! TO.N,GND*
X95110000Y-75190000D03*
G04 #@! TO.P,J2,3*
G04 #@! TO.N,/IOBufferA/Z0*
X95110000Y-77730000D03*
G04 #@! TO.P,J2,2*
G04 #@! TO.N,/IOBufferA/VIO*
X92570000Y-75190000D03*
D28*
G04 #@! TO.P,J2,1*
G04 #@! TO.N,/IOBufferA/VSENSE*
X92570000Y-77730000D03*
G04 #@! TD*
G04 #@! TO.P,J3,1*
G04 #@! TO.N,/IOBufferB/VSENSE*
X115430000Y-113190000D03*
D29*
G04 #@! TO.P,J3,2*
G04 #@! TO.N,/IOBufferB/VIO*
X115430000Y-115730000D03*
G04 #@! TO.P,J3,3*
G04 #@! TO.N,/IOBufferB/Z0*
X112890000Y-113190000D03*
G04 #@! TO.P,J3,4*
G04 #@! TO.N,GND*
X112890000Y-115730000D03*
G04 #@! TO.P,J3,5*
G04 #@! TO.N,/IOBufferB/Z1*
X110350000Y-113190000D03*
G04 #@! TO.P,J3,6*
G04 #@! TO.N,GND*
X110350000Y-115730000D03*
G04 #@! TO.P,J3,7*
G04 #@! TO.N,/IOBufferB/Z2*
X107810000Y-113190000D03*
G04 #@! TO.P,J3,8*
G04 #@! TO.N,GND*
X107810000Y-115730000D03*
G04 #@! TO.P,J3,9*
G04 #@! TO.N,/IOBufferB/Z3*
X105270000Y-113190000D03*
G04 #@! TO.P,J3,10*
G04 #@! TO.N,GND*
X105270000Y-115730000D03*
G04 #@! TO.P,J3,11*
G04 #@! TO.N,/IOBufferB/Z4*
X102730000Y-113190000D03*
G04 #@! TO.P,J3,12*
G04 #@! TO.N,GND*
X102730000Y-115730000D03*
G04 #@! TO.P,J3,13*
G04 #@! TO.N,/IOBufferB/Z5*
X100190000Y-113190000D03*
G04 #@! TO.P,J3,14*
G04 #@! TO.N,GND*
X100190000Y-115730000D03*
G04 #@! TO.P,J3,15*
G04 #@! TO.N,/IOBufferB/Z6*
X97650000Y-113190000D03*
G04 #@! TO.P,J3,16*
G04 #@! TO.N,GND*
X97650000Y-115730000D03*
G04 #@! TO.P,J3,17*
G04 #@! TO.N,/IOBufferB/Z7*
X95110000Y-113190000D03*
G04 #@! TO.P,J3,18*
G04 #@! TO.N,GND*
X95110000Y-115730000D03*
G04 #@! TO.P,J3,19*
G04 #@! TO.N,Net-(J3-Pad19)*
X92570000Y-113190000D03*
G04 #@! TO.P,J3,20*
G04 #@! TO.N,GND*
X92570000Y-115730000D03*
G04 #@! TD*
D30*
G04 #@! TO.P,U5,21*
G04 #@! TO.N,Net-(U5-Pad21)*
X103500000Y-88500000D03*
D31*
G04 #@! TO.P,U5,12*
G04 #@! TO.N,/IOBufferA/Y7*
X105250000Y-87200000D03*
G04 #@! TO.P,U5,13*
G04 #@! TO.N,/IOBufferA/Y6*
X104750000Y-87200000D03*
G04 #@! TO.P,U5,14*
G04 #@! TO.N,/IOBufferA/Y5*
X104250000Y-87200000D03*
G04 #@! TO.P,U5,15*
G04 #@! TO.N,/IOBufferA/Y4*
X103750000Y-87200000D03*
G04 #@! TO.P,U5,16*
G04 #@! TO.N,/IOBufferA/Y3*
X103250000Y-87200000D03*
G04 #@! TO.P,U5,17*
G04 #@! TO.N,/IOBufferA/Y2*
X102750000Y-87200000D03*
G04 #@! TO.P,U5,18*
G04 #@! TO.N,/IOBufferA/Y1*
X102250000Y-87200000D03*
G04 #@! TO.P,U5,19*
G04 #@! TO.N,/IOBufferA/Y0*
X101750000Y-87200000D03*
G04 #@! TO.P,U5,9*
G04 #@! TO.N,/IOBufferA/X7*
X105250000Y-89800000D03*
G04 #@! TO.P,U5,8*
G04 #@! TO.N,/IOBufferA/X6*
X104750000Y-89800000D03*
G04 #@! TO.P,U5,7*
G04 #@! TO.N,/IOBufferA/X5*
X104250000Y-89800000D03*
G04 #@! TO.P,U5,6*
G04 #@! TO.N,/IOBufferA/X4*
X103750000Y-89800000D03*
G04 #@! TO.P,U5,5*
G04 #@! TO.N,/IOBufferA/X3*
X103250000Y-89800000D03*
G04 #@! TO.P,U5,4*
G04 #@! TO.N,/IOBufferA/X2*
X102750000Y-89800000D03*
G04 #@! TO.P,U5,3*
G04 #@! TO.N,/IOBufferA/X1*
X102250000Y-89800000D03*
G04 #@! TO.P,U5,2*
G04 #@! TO.N,/IOBufferA/X0*
X101750000Y-89800000D03*
D32*
G04 #@! TO.P,U5,11*
G04 #@! TO.N,/~OEQ*
X105800000Y-88250000D03*
G04 #@! TO.P,U5,10*
G04 #@! TO.N,GND*
X105800000Y-88750000D03*
G04 #@! TO.P,U5,20*
G04 #@! TO.N,/IOBufferA/VIO*
X101200000Y-88250000D03*
G04 #@! TO.P,U5,1*
G04 #@! TO.N,+3V3*
X101200000Y-88750000D03*
G04 #@! TD*
G04 #@! TO.P,U6,1*
G04 #@! TO.N,+3V3*
X106050000Y-102250000D03*
G04 #@! TO.P,U6,20*
G04 #@! TO.N,/IOBufferB/VIO*
X106050000Y-102750000D03*
G04 #@! TO.P,U6,10*
G04 #@! TO.N,GND*
X101450000Y-102250000D03*
G04 #@! TO.P,U6,11*
G04 #@! TO.N,/~OEQ*
X101450000Y-102750000D03*
D31*
G04 #@! TO.P,U6,2*
G04 #@! TO.N,/IOBufferB/X0*
X105500000Y-101200000D03*
G04 #@! TO.P,U6,3*
G04 #@! TO.N,/IOBufferB/X1*
X105000000Y-101200000D03*
G04 #@! TO.P,U6,4*
G04 #@! TO.N,/IOBufferB/X2*
X104500000Y-101200000D03*
G04 #@! TO.P,U6,5*
G04 #@! TO.N,/IOBufferB/X3*
X104000000Y-101200000D03*
G04 #@! TO.P,U6,6*
G04 #@! TO.N,/IOBufferB/X4*
X103500000Y-101200000D03*
G04 #@! TO.P,U6,7*
G04 #@! TO.N,/IOBufferB/X5*
X103000000Y-101200000D03*
G04 #@! TO.P,U6,8*
G04 #@! TO.N,/IOBufferB/X6*
X102500000Y-101200000D03*
G04 #@! TO.P,U6,9*
G04 #@! TO.N,/IOBufferB/X7*
X102000000Y-101200000D03*
G04 #@! TO.P,U6,19*
G04 #@! TO.N,/IOBufferB/Y0*
X105500000Y-103800000D03*
G04 #@! TO.P,U6,18*
G04 #@! TO.N,/IOBufferB/Y1*
X105000000Y-103800000D03*
G04 #@! TO.P,U6,17*
G04 #@! TO.N,/IOBufferB/Y2*
X104500000Y-103800000D03*
G04 #@! TO.P,U6,16*
G04 #@! TO.N,/IOBufferB/Y3*
X104000000Y-103800000D03*
G04 #@! TO.P,U6,15*
G04 #@! TO.N,/IOBufferB/Y4*
X103500000Y-103800000D03*
G04 #@! TO.P,U6,14*
G04 #@! TO.N,/IOBufferB/Y5*
X103000000Y-103800000D03*
G04 #@! TO.P,U6,13*
G04 #@! TO.N,/IOBufferB/Y6*
X102500000Y-103800000D03*
G04 #@! TO.P,U6,12*
G04 #@! TO.N,/IOBufferB/Y7*
X102000000Y-103800000D03*
D30*
G04 #@! TO.P,U6,21*
G04 #@! TO.N,Net-(U6-Pad21)*
X103750000Y-102500000D03*
G04 #@! TD*
D33*
G04 #@! TO.P,U4,1*
G04 #@! TO.N,+3V3*
X81600000Y-92750000D03*
G04 #@! TO.P,U4,2*
G04 #@! TO.N,/PKTEND*
X81600000Y-93250000D03*
G04 #@! TO.P,U4,3*
G04 #@! TO.N,/A1*
X81600000Y-93750000D03*
G04 #@! TO.P,U4,4*
G04 #@! TO.N,/A0*
X81600000Y-94250000D03*
G04 #@! TO.P,U4,5*
G04 #@! TO.N,+1V2*
X81600000Y-94750000D03*
G04 #@! TO.P,U4,6*
G04 #@! TO.N,/OE*
X81600000Y-95250000D03*
G04 #@! TO.P,U4,7*
G04 #@! TO.N,/FPGA_DONE*
X81600000Y-95750000D03*
G04 #@! TO.P,U4,8*
G04 #@! TO.N,/~FPGA_RESET*
X81600000Y-96250000D03*
G04 #@! TO.P,U4,9*
G04 #@! TO.N,/FLAGC*
X81600000Y-96750000D03*
G04 #@! TO.P,U4,10*
G04 #@! TO.N,/FLAGB*
X81600000Y-97250000D03*
G04 #@! TO.P,U4,11*
G04 #@! TO.N,/FLAGA*
X81600000Y-97750000D03*
G04 #@! TO.P,U4,12*
G04 #@! TO.N,/D7*
X81600000Y-98250000D03*
D34*
G04 #@! TO.P,U4,13*
G04 #@! TO.N,/D6*
X82250000Y-98900000D03*
G04 #@! TO.P,U4,14*
G04 #@! TO.N,/D5*
X82750000Y-98900000D03*
G04 #@! TO.P,U4,15*
G04 #@! TO.N,/D4*
X83250000Y-98900000D03*
G04 #@! TO.P,U4,16*
G04 #@! TO.N,/D3*
X83750000Y-98900000D03*
G04 #@! TO.P,U4,17*
G04 #@! TO.N,/D2*
X84250000Y-98900000D03*
G04 #@! TO.P,U4,18*
G04 #@! TO.N,/D1*
X84750000Y-98900000D03*
G04 #@! TO.P,U4,19*
G04 #@! TO.N,/D0*
X85250000Y-98900000D03*
G04 #@! TO.P,U4,20*
G04 #@! TO.N,/CLKIF*
X85750000Y-98900000D03*
G04 #@! TO.P,U4,21*
G04 #@! TO.N,/QB7*
X86250000Y-98900000D03*
G04 #@! TO.P,U4,22*
G04 #@! TO.N,+3V3*
X86750000Y-98900000D03*
G04 #@! TO.P,U4,23*
G04 #@! TO.N,/QB6*
X87250000Y-98900000D03*
G04 #@! TO.P,U4,24*
G04 #@! TO.N,+3V3*
X87750000Y-98900000D03*
D33*
G04 #@! TO.P,U4,25*
G04 #@! TO.N,/QB5*
X88400000Y-98250000D03*
G04 #@! TO.P,U4,26*
G04 #@! TO.N,/QB4*
X88400000Y-97750000D03*
G04 #@! TO.P,U4,27*
G04 #@! TO.N,/QB3*
X88400000Y-97250000D03*
G04 #@! TO.P,U4,28*
G04 #@! TO.N,/QB2*
X88400000Y-96750000D03*
G04 #@! TO.P,U4,29*
G04 #@! TO.N,/VCCPLL*
X88400000Y-96250000D03*
G04 #@! TO.P,U4,30*
G04 #@! TO.N,+1V2*
X88400000Y-95750000D03*
G04 #@! TO.P,U4,31*
G04 #@! TO.N,/QB1*
X88400000Y-95250000D03*
G04 #@! TO.P,U4,32*
G04 #@! TO.N,/QB0*
X88400000Y-94750000D03*
G04 #@! TO.P,U4,33*
G04 #@! TO.N,+3V3*
X88400000Y-94250000D03*
G04 #@! TO.P,U4,34*
G04 #@! TO.N,/QA7*
X88400000Y-93750000D03*
G04 #@! TO.P,U4,35*
G04 #@! TO.N,/QA6*
X88400000Y-93250000D03*
G04 #@! TO.P,U4,36*
G04 #@! TO.N,/QA5*
X88400000Y-92750000D03*
D34*
G04 #@! TO.P,U4,37*
G04 #@! TO.N,/QA4*
X87750000Y-92100000D03*
G04 #@! TO.P,U4,38*
G04 #@! TO.N,/QA3*
X87250000Y-92100000D03*
G04 #@! TO.P,U4,39*
G04 #@! TO.N,/SCL*
X86750000Y-92100000D03*
G04 #@! TO.P,U4,40*
G04 #@! TO.N,/SDA*
X86250000Y-92100000D03*
G04 #@! TO.P,U4,41*
G04 #@! TO.N,/~SYNC*
X85750000Y-92100000D03*
G04 #@! TO.P,U4,42*
G04 #@! TO.N,/QA2*
X85250000Y-92100000D03*
G04 #@! TO.P,U4,43*
G04 #@! TO.N,/QA1*
X84750000Y-92100000D03*
G04 #@! TO.P,U4,44*
G04 #@! TO.N,/CLKREF*
X84250000Y-92100000D03*
G04 #@! TO.P,U4,45*
G04 #@! TO.N,/QA0*
X83750000Y-92100000D03*
G04 #@! TO.P,U4,46*
G04 #@! TO.N,/WR*
X83250000Y-92100000D03*
G04 #@! TO.P,U4,47*
G04 #@! TO.N,/RD*
X82750000Y-92100000D03*
G04 #@! TO.P,U4,48*
G04 #@! TO.N,/FLAGD*
X82250000Y-92100000D03*
D35*
G04 #@! TO.P,U4,49*
G04 #@! TO.N,GND*
X85000000Y-95500000D03*
G04 #@! TD*
D36*
G04 #@! TO.P,U2,8*
G04 #@! TO.N,+3V3*
X69700000Y-115105000D03*
G04 #@! TO.P,U2,7*
G04 #@! TO.N,Net-(U2-Pad7)*
X69700000Y-113835000D03*
G04 #@! TO.P,U2,6*
G04 #@! TO.N,/SCL*
X69700000Y-112565000D03*
G04 #@! TO.P,U2,5*
G04 #@! TO.N,/SDA*
X69700000Y-111295000D03*
G04 #@! TO.P,U2,4*
G04 #@! TO.N,GND*
X75100000Y-111295000D03*
G04 #@! TO.P,U2,3*
G04 #@! TO.N,Net-(U2-Pad3)*
X75100000Y-112565000D03*
G04 #@! TO.P,U2,2*
G04 #@! TO.N,+3V3*
X75100000Y-113835000D03*
G04 #@! TO.P,U2,1*
G04 #@! TO.N,Net-(U2-Pad1)*
X75100000Y-115105000D03*
G04 #@! TD*
D37*
G04 #@! TO.P,J1,1*
G04 #@! TO.N,/VUSB*
X55310000Y-94200000D03*
G04 #@! TO.P,J1,2*
G04 #@! TO.N,/USB_N*
X55310000Y-94850000D03*
G04 #@! TO.P,J1,3*
G04 #@! TO.N,/USB_P*
X55310000Y-95500000D03*
G04 #@! TO.P,J1,4*
G04 #@! TO.N,Net-(J1-Pad4)*
X55310000Y-96150000D03*
G04 #@! TO.P,J1,5*
G04 #@! TO.N,GND*
X55310000Y-96800000D03*
D38*
G04 #@! TO.P,J1,6*
G04 #@! TO.N,/SHLD*
X54950000Y-93037500D03*
X54950000Y-97962500D03*
D39*
X52650000Y-92590000D03*
X52650000Y-98410000D03*
D40*
X52650000Y-94660000D03*
X52650000Y-96340000D03*
G04 #@! TD*
D27*
G04 #@! TO.P,C13,2*
G04 #@! TO.N,GND*
X59137500Y-101000000D03*
G04 #@! TO.P,C13,1*
G04 #@! TO.N,/SHLD*
X57362500Y-101000000D03*
G04 #@! TD*
G04 #@! TO.P,C12,1*
G04 #@! TO.N,/XTALIN*
X59612500Y-95000000D03*
G04 #@! TO.P,C12,2*
G04 #@! TO.N,GND*
X61387500Y-95000000D03*
G04 #@! TD*
G04 #@! TO.P,C11,2*
G04 #@! TO.N,GND*
X59612500Y-89000000D03*
G04 #@! TO.P,C11,1*
G04 #@! TO.N,/XTALOUT*
X61387500Y-89000000D03*
G04 #@! TD*
G04 #@! TO.P,R3,1*
G04 #@! TO.N,/SHLD*
X55637500Y-101000000D03*
G04 #@! TO.P,R3,2*
G04 #@! TO.N,GND*
X53862500Y-101000000D03*
G04 #@! TD*
D24*
G04 #@! TO.P,R1,2*
G04 #@! TO.N,+3V3*
X70000000Y-106487500D03*
G04 #@! TO.P,R1,1*
G04 #@! TO.N,/SDA*
X70000000Y-104712500D03*
G04 #@! TD*
G04 #@! TO.P,R2,1*
G04 #@! TO.N,/SCL*
X68000000Y-104712500D03*
G04 #@! TO.P,R2,2*
G04 #@! TO.N,+3V3*
X68000000Y-106487500D03*
G04 #@! TD*
D41*
G04 #@! TO.P,MK1,1*
G04 #@! TO.N,GND*
X54000000Y-116000000D03*
G04 #@! TD*
G04 #@! TO.P,MK2,1*
G04 #@! TO.N,GND*
X54000000Y-75000000D03*
G04 #@! TD*
G04 #@! TO.P,MK3,1*
G04 #@! TO.N,GND*
X126000000Y-75000000D03*
G04 #@! TD*
G04 #@! TO.P,MK4,1*
G04 #@! TO.N,GND*
X126000000Y-116000000D03*
G04 #@! TD*
D36*
G04 #@! TO.P,U3,1*
G04 #@! TO.N,+3V3*
X84600000Y-115105000D03*
G04 #@! TO.P,U3,2*
G04 #@! TO.N,Net-(U3-Pad2)*
X84600000Y-113835000D03*
G04 #@! TO.P,U3,3*
G04 #@! TO.N,Net-(U3-Pad3)*
X84600000Y-112565000D03*
G04 #@! TO.P,U3,4*
G04 #@! TO.N,GND*
X84600000Y-111295000D03*
G04 #@! TO.P,U3,5*
G04 #@! TO.N,/SDA*
X79200000Y-111295000D03*
G04 #@! TO.P,U3,6*
G04 #@! TO.N,/SCL*
X79200000Y-112565000D03*
G04 #@! TO.P,U3,7*
G04 #@! TO.N,Net-(U3-Pad7)*
X79200000Y-113835000D03*
G04 #@! TO.P,U3,8*
G04 #@! TO.N,+3V3*
X79200000Y-115105000D03*
G04 #@! TD*
D42*
G04 #@! TO.N,/SDA*
X86500000Y-90250000D03*
X65750000Y-100500000D03*
X65750000Y-101830010D03*
X87700000Y-111950000D03*
X92200000Y-88350000D03*
X110550000Y-93000002D03*
X112050000Y-96600000D03*
X114200000Y-96600000D03*
G04 #@! TO.N,+3V3*
X64189870Y-103510130D03*
X72000000Y-107412500D03*
X68000000Y-107400000D03*
X70000000Y-107387500D03*
X72250000Y-90639998D03*
X64500000Y-86750000D03*
X74250000Y-83000000D03*
X74250000Y-99750000D03*
X90860002Y-108000000D03*
X115000000Y-105750000D03*
X107000000Y-102000000D03*
X111610002Y-89000000D03*
X100250000Y-89000000D03*
X92250000Y-85000000D03*
X89750000Y-100750000D03*
X71796041Y-100360012D03*
X81500000Y-86500000D03*
X67500000Y-82750000D03*
X66250000Y-90639998D03*
X64139998Y-93250000D03*
X64139998Y-95250000D03*
X64139998Y-97250000D03*
X66750000Y-100360002D03*
X73860002Y-97250000D03*
X73750000Y-89750000D03*
X80139998Y-92750000D03*
X89860002Y-93750000D03*
X88000000Y-100360002D03*
X86500000Y-100360002D03*
X80900000Y-115200000D03*
X71400000Y-115200000D03*
X76700000Y-114800000D03*
X86055000Y-115105000D03*
G04 #@! TO.N,GND*
X59450000Y-98000000D03*
X59250000Y-102000000D03*
X100500000Y-102000000D03*
X52862500Y-101112500D03*
X71000000Y-75000000D03*
X56500000Y-96800000D03*
X100250000Y-107250000D03*
X108500000Y-84750000D03*
X88750000Y-83250002D03*
X91750000Y-110500000D03*
X89000000Y-108000000D03*
X76000000Y-83000000D03*
X70500000Y-83000000D03*
X76250000Y-96750000D03*
X96610002Y-108000000D03*
X99250000Y-104250000D03*
X118500000Y-107750000D03*
X110964870Y-104535130D03*
X115000000Y-104000000D03*
X110500000Y-106610002D03*
X109000000Y-102000000D03*
X109000000Y-103000000D03*
X108750000Y-87000000D03*
X96750000Y-83889998D03*
X111389998Y-83000000D03*
X109750000Y-89000000D03*
X98250000Y-88000000D03*
X92250000Y-86750000D03*
X91500000Y-99250000D03*
X55650000Y-110500000D03*
X55650000Y-108750000D03*
X55650000Y-107000002D03*
X55650000Y-105250002D03*
X55650000Y-103500002D03*
X60250000Y-84250000D03*
X63500000Y-79750000D03*
X87050002Y-96750000D03*
X86250000Y-97550002D03*
X87050000Y-97550000D03*
X87060000Y-95500000D03*
X85000000Y-97560000D03*
X82940000Y-97560000D03*
X85000000Y-95500000D03*
X82940000Y-95500000D03*
X87060000Y-93440000D03*
X85000000Y-93440000D03*
X82940000Y-93440000D03*
X82900000Y-111200000D03*
X73400000Y-111200000D03*
X58750000Y-89000000D03*
X62250000Y-95000000D03*
X65000000Y-99500000D03*
X65000000Y-91500000D03*
X73000000Y-99500000D03*
X106800000Y-89100000D03*
X98473822Y-89101737D03*
X73749998Y-91640000D03*
G04 #@! TO.N,/SCL*
X77750000Y-110250000D03*
X77734999Y-113095001D03*
X64750000Y-100500000D03*
X64750000Y-101830010D03*
X86850000Y-113200000D03*
X87500000Y-90600000D03*
X95069990Y-90599996D03*
X96950000Y-90600000D03*
X111500000Y-92400004D03*
G04 #@! TO.N,+5V*
X94500000Y-108000000D03*
X77500000Y-81750000D03*
X77500000Y-80250000D03*
X77500000Y-81000000D03*
X113500000Y-83000000D03*
G04 #@! TO.N,/~CY_RESET*
X78330010Y-91490604D03*
X72260246Y-86549950D03*
G04 #@! TO.N,/USB_P*
X57592402Y-95500000D03*
X56392402Y-95500000D03*
G04 #@! TO.N,/FPGA_DONE*
X77500000Y-95250000D03*
X76250000Y-94750000D03*
G04 #@! TO.N,/~FPGA_RESET*
X70530055Y-90500000D03*
X78110002Y-96750000D03*
G04 #@! TO.N,/VCCPLL*
X89860002Y-96750000D03*
G04 #@! TO.N,+1V2*
X78000000Y-87250000D03*
X72250000Y-83000000D03*
X80139998Y-94750000D03*
X89860044Y-95250000D03*
G04 #@! TO.N,/3V3EN*
X66750000Y-81000000D03*
X66750000Y-79500000D03*
G04 #@! TO.N,/FLAGD*
X74500000Y-96000016D03*
X77000000Y-92500000D03*
G04 #@! TO.N,/VUSB*
X59375000Y-97050000D03*
X56859000Y-94200000D03*
G04 #@! TO.N,/~SYNC*
X85749993Y-91000007D03*
X85750000Y-87750000D03*
G04 #@! TO.N,/LED_CY*
X62410002Y-105250000D03*
X70000000Y-88500000D03*
G04 #@! TO.N,/LED_ERR*
X64200000Y-110500000D03*
X68750000Y-90500000D03*
G04 #@! TO.N,/LED_ACT*
X64200000Y-108750000D03*
X68750000Y-89000000D03*
G04 #@! TO.N,/LED_FPGA*
X64200000Y-107000000D03*
X69542346Y-89467060D03*
G04 #@! TO.N,/~OEQ*
X68600000Y-103000000D03*
X104150000Y-94200000D03*
X99550000Y-102750000D03*
X67589989Y-90597772D03*
G04 #@! TO.N,/~ALERT*
X75500000Y-96000000D03*
X77750000Y-99750000D03*
X94649996Y-95650000D03*
X96300002Y-95650000D03*
X96300000Y-89200000D03*
G04 #@! TO.N,/CLKREF*
X84178928Y-90750000D03*
X82000000Y-90750000D03*
G04 #@! TO.N,/IOBufferA/VIO*
X95750000Y-79750000D03*
X100250000Y-88000000D03*
X114500000Y-83000000D03*
G04 #@! TO.N,/IOBufferB/VIO*
X107000000Y-103000000D03*
X93500000Y-108000000D03*
G04 #@! TO.N,/ENVB*
X89250000Y-114000000D03*
X67750000Y-89750000D03*
G04 #@! TO.N,/ENVA*
X88500000Y-85700000D03*
X71250000Y-88500000D03*
X108500000Y-82889998D03*
X73050000Y-85750000D03*
G04 #@! TD*
D43*
G04 #@! TO.N,/SDA*
X117200000Y-101450000D02*
X117200000Y-103775000D01*
X69037500Y-103750000D02*
X67669990Y-103750000D01*
X70000000Y-104712500D02*
X69037500Y-103750000D01*
X67669990Y-103750000D02*
X67499991Y-103580001D01*
X110550000Y-91200000D02*
X110550000Y-90100000D01*
X86250000Y-91590000D02*
X86330008Y-91509992D01*
X86250000Y-92100000D02*
X86250000Y-91590000D01*
X86500000Y-90744974D02*
X86500000Y-90250000D01*
X86330008Y-90914966D02*
X86500000Y-90744974D01*
X86330008Y-91509992D02*
X86330008Y-90914966D01*
X65750000Y-101830010D02*
X65750000Y-102000000D01*
X66250000Y-99891598D02*
X65750000Y-100391598D01*
X65750000Y-100391598D02*
X65750000Y-100500000D01*
X66250000Y-99335000D02*
X66250000Y-99891598D01*
X69700000Y-111295000D02*
X70635000Y-111295000D01*
X70635000Y-111295000D02*
X71165001Y-111825001D01*
X71165001Y-111825001D02*
X77734999Y-111825001D01*
X78265000Y-111295000D02*
X79200000Y-111295000D01*
X77734999Y-111825001D02*
X78265000Y-111295000D01*
X65730001Y-101810011D02*
X67499991Y-103580001D01*
X65750000Y-101830010D02*
X67499991Y-103580001D01*
X69997500Y-104712500D02*
X70000000Y-104712500D01*
X69000000Y-105710000D02*
X69997500Y-104712500D01*
X69700000Y-110835000D02*
X69700000Y-111295000D01*
X69000000Y-110135000D02*
X69700000Y-110835000D01*
X69000000Y-105710000D02*
X69000000Y-110135000D01*
X81345000Y-111295000D02*
X81800000Y-111750000D01*
X79200000Y-111295000D02*
X81345000Y-111295000D01*
X79200000Y-108300000D02*
X80500000Y-107000000D01*
X79200000Y-111295000D02*
X79200000Y-108300000D01*
X89800000Y-109100000D02*
X89800000Y-109850000D01*
X89800000Y-109850000D02*
X88049999Y-111600001D01*
X88049999Y-111600001D02*
X87700000Y-111950000D01*
X87205026Y-111950000D02*
X87700000Y-111950000D01*
X82000000Y-111950000D02*
X87205026Y-111950000D01*
X81345000Y-111295000D02*
X82000000Y-111950000D01*
X90050000Y-87360000D02*
X90050000Y-86975000D01*
X91040000Y-88350000D02*
X90050000Y-87360000D01*
X92200000Y-88350000D02*
X91040000Y-88350000D01*
X110550000Y-90100000D02*
X110550000Y-93000002D01*
X110550000Y-95100000D02*
X111700001Y-96250001D01*
X111700001Y-96250001D02*
X112050000Y-96600000D01*
X110550000Y-93000002D02*
X110550000Y-95100000D01*
X117200000Y-103775000D02*
X117200000Y-99600000D01*
X117200000Y-99600000D02*
X114549999Y-96949999D01*
X114549999Y-96949999D02*
X114200000Y-96600000D01*
D44*
G04 #@! TO.N,+3V3*
X100500000Y-88750000D02*
X100250000Y-89000000D01*
X101200000Y-88750000D02*
X100500000Y-88750000D01*
X72000000Y-106500000D02*
X72000000Y-107412500D01*
X68000000Y-106487500D02*
X68000000Y-107400000D01*
X70000000Y-106475000D02*
X70000000Y-107387500D01*
X63187500Y-103500000D02*
X64100000Y-103500000D01*
X71750000Y-91665000D02*
X72250000Y-91665000D01*
X72250000Y-91665000D02*
X72250000Y-90639998D01*
X65250000Y-86750000D02*
X64500000Y-86750000D01*
X73741581Y-82741581D02*
X74000000Y-83000000D01*
X73741581Y-81761916D02*
X73741581Y-82741581D01*
X74000000Y-83000000D02*
X74250000Y-83000000D01*
X74225000Y-83750000D02*
X74250000Y-83725000D01*
X74250000Y-83725000D02*
X74250000Y-83494974D01*
X74250000Y-83494974D02*
X74250000Y-83000000D01*
X75112500Y-99750000D02*
X74250000Y-99750000D01*
X90750000Y-106900000D02*
X90750000Y-107889998D01*
X90750000Y-107889998D02*
X90860002Y-108000000D01*
X115025000Y-105725000D02*
X115000000Y-105750000D01*
X117200000Y-105725000D02*
X115025000Y-105725000D01*
X111500000Y-88889998D02*
X111610002Y-89000000D01*
X111500000Y-87900000D02*
X111500000Y-88889998D01*
X92225000Y-85025000D02*
X92250000Y-85000000D01*
X90050000Y-85025000D02*
X92225000Y-85025000D01*
X71750000Y-99335000D02*
X71750000Y-100313971D01*
X71750000Y-100313971D02*
X71796041Y-100360012D01*
X82362500Y-86500000D02*
X81500000Y-86500000D01*
X66387500Y-82750000D02*
X67500000Y-82750000D01*
X66250000Y-91665000D02*
X66250000Y-90639998D01*
X65165000Y-93250000D02*
X64139998Y-93250000D01*
X65165000Y-95250000D02*
X64139998Y-95250000D01*
X65165000Y-97250000D02*
X64139998Y-97250000D01*
X66750000Y-99335000D02*
X66750000Y-100360002D01*
X72835000Y-97250000D02*
X73860002Y-97250000D01*
X81600000Y-92750000D02*
X80139998Y-92750000D01*
X88400000Y-94250000D02*
X89061129Y-94250000D01*
X89561129Y-93750000D02*
X89860002Y-93750000D01*
X89061129Y-94250000D02*
X89561129Y-93750000D01*
X87750000Y-98900000D02*
X87750000Y-100110002D01*
X87750000Y-100110002D02*
X88000000Y-100360002D01*
X86750000Y-98900000D02*
X86750000Y-100110002D01*
X86750000Y-100110002D02*
X86500000Y-100360002D01*
X80305000Y-115105000D02*
X80400000Y-115200000D01*
X80400000Y-115200000D02*
X80900000Y-115200000D01*
X79200000Y-115105000D02*
X80305000Y-115105000D01*
X70805000Y-115105000D02*
X70900000Y-115200000D01*
X70900000Y-115200000D02*
X71400000Y-115200000D01*
X69700000Y-115105000D02*
X70805000Y-115105000D01*
X84600000Y-115105000D02*
X86055000Y-115105000D01*
X86055000Y-115105000D02*
X86055000Y-115105000D01*
X75100000Y-113835000D02*
X76125000Y-113835000D01*
X76700000Y-114800000D02*
X76700000Y-114305026D01*
X76229974Y-113835000D02*
X76125000Y-113835000D01*
X76700000Y-114305026D02*
X76229974Y-113835000D01*
X106750000Y-102250000D02*
X107000000Y-102000000D01*
X106050000Y-102250000D02*
X106750000Y-102250000D01*
D45*
G04 #@! TO.N,GND*
X59137500Y-101887500D02*
X59250000Y-102000000D01*
X59137500Y-101000000D02*
X59137500Y-101887500D01*
D44*
X101450000Y-102250000D02*
X100750000Y-102250000D01*
X100750000Y-102250000D02*
X100500000Y-102000000D01*
X71862500Y-75000000D02*
X71000000Y-75000000D01*
X73091581Y-77551916D02*
X73091581Y-76850000D01*
X59612500Y-89887500D02*
X59612500Y-89000000D01*
X59612500Y-89887500D02*
X59400000Y-90100000D01*
X59400000Y-90100000D02*
X59400000Y-91150000D01*
X61387500Y-94112500D02*
X61387500Y-95000000D01*
X100112500Y-107112500D02*
X100250000Y-107250000D01*
X99500000Y-107112500D02*
X100112500Y-107112500D01*
X108500000Y-83887500D02*
X108500000Y-84750000D01*
X91750000Y-109400000D02*
X91750000Y-110005026D01*
X91750000Y-110005026D02*
X91750000Y-110500000D01*
X91700000Y-109350000D02*
X91750000Y-109400000D01*
X89000000Y-108000000D02*
X89494974Y-108000000D01*
X89494974Y-108000000D02*
X89500000Y-107994974D01*
X89500000Y-107994974D02*
X89500000Y-107980000D01*
X76000000Y-83750000D02*
X76000000Y-83000000D01*
X70500000Y-83750000D02*
X70500000Y-83000000D01*
X77112500Y-96750000D02*
X76250000Y-96750000D01*
X89800000Y-106900000D02*
X89800000Y-107680000D01*
X89800000Y-107680000D02*
X89500000Y-107980000D01*
X96500000Y-109100000D02*
X96500000Y-108110002D01*
X96500000Y-108110002D02*
X96610002Y-108000000D01*
X99137500Y-104362500D02*
X99250000Y-104250000D01*
X99137500Y-105250000D02*
X99137500Y-104362500D01*
X117637500Y-107496000D02*
X118500000Y-107496000D01*
X111504740Y-105075000D02*
X111314869Y-104885129D01*
X111314869Y-104885129D02*
X110964870Y-104535130D01*
X112800000Y-105075000D02*
X111504740Y-105075000D01*
X117200000Y-104425000D02*
X115425000Y-104425000D01*
X115425000Y-104425000D02*
X115000000Y-104000000D01*
X117200000Y-104425000D02*
X117200000Y-105075000D01*
X110500000Y-107387500D02*
X110500000Y-106610002D01*
X108862500Y-86887500D02*
X108750000Y-87000000D01*
X108862500Y-86000000D02*
X108862500Y-86887500D01*
X96750000Y-83112500D02*
X96750000Y-83889998D01*
X111500000Y-82889998D02*
X111389998Y-83000000D01*
X111500000Y-81900000D02*
X111500000Y-82889998D01*
X110550000Y-87900000D02*
X110550000Y-88680000D01*
X110250000Y-88980000D02*
X110250000Y-89000000D01*
X110550000Y-88680000D02*
X110250000Y-88980000D01*
X109750000Y-89000000D02*
X110250000Y-89000000D01*
X89612500Y-83250000D02*
X88750000Y-83250000D01*
X91825000Y-86325000D02*
X92250000Y-86750000D01*
X90050000Y-86325000D02*
X91825000Y-86325000D01*
X90050000Y-85675000D02*
X90050000Y-86325000D01*
X73091581Y-77551916D02*
X73091581Y-78981916D01*
X73091581Y-78981916D02*
X73266581Y-79156916D01*
X56350000Y-110500000D02*
X55650000Y-110500000D01*
X56350000Y-108750000D02*
X55650000Y-108750000D01*
X56350000Y-107000000D02*
X55650000Y-107000000D01*
X56350000Y-105250000D02*
X55650000Y-105250000D01*
X56350000Y-103500000D02*
X55650000Y-103500000D01*
X60232324Y-84232324D02*
X60250000Y-84250000D01*
X60232324Y-83387500D02*
X60232324Y-84232324D01*
X62400000Y-79750000D02*
X63500000Y-79750000D01*
X71000000Y-98490000D02*
X71000000Y-95500000D01*
X71250000Y-99335000D02*
X71250000Y-98740000D01*
X71250000Y-98740000D02*
X71000000Y-98490000D01*
X83495000Y-111295000D02*
X83400000Y-111200000D01*
X83400000Y-111200000D02*
X82900000Y-111200000D01*
X84600000Y-111295000D02*
X83495000Y-111295000D01*
X73995000Y-111295000D02*
X73900000Y-111200000D01*
X73900000Y-111200000D02*
X73400000Y-111200000D01*
X75100000Y-111295000D02*
X73995000Y-111295000D01*
X59537500Y-89000000D02*
X58750000Y-89000000D01*
X61462500Y-95000000D02*
X62250000Y-95000000D01*
X65165000Y-91665000D02*
X65000000Y-91500000D01*
X65750000Y-91665000D02*
X65165000Y-91665000D01*
X72835000Y-99335000D02*
X73000000Y-99500000D01*
X72250000Y-99335000D02*
X72835000Y-99335000D01*
X72835000Y-92750000D02*
X72240000Y-92750000D01*
X71740000Y-93250000D02*
X71000000Y-93250000D01*
X67250000Y-91665000D02*
X67250000Y-93000000D01*
X65165000Y-97750000D02*
X67000000Y-97750000D01*
X65165000Y-96750000D02*
X65760000Y-96750000D01*
X65760000Y-96750000D02*
X67000000Y-96750000D01*
X65165000Y-94750000D02*
X67000000Y-94750000D01*
X61600000Y-93900000D02*
X61600000Y-92850000D01*
X61387500Y-94112500D02*
X61600000Y-93900000D01*
X106800000Y-89050000D02*
X106800000Y-89100000D01*
X105800000Y-88750000D02*
X106500000Y-88750000D01*
X106500000Y-88750000D02*
X106800000Y-89050000D01*
D45*
X52975000Y-101000000D02*
X52862500Y-101112500D01*
X53862500Y-101000000D02*
X52975000Y-101000000D01*
X60500000Y-98000000D02*
X59625000Y-98000000D01*
X55310000Y-96800000D02*
X56500000Y-96800000D01*
D44*
X71750000Y-92750000D02*
X71540000Y-92960000D01*
X73000000Y-92750000D02*
X71750000Y-92750000D01*
X65000000Y-98750000D02*
X65000000Y-99500000D01*
D43*
G04 #@! TO.N,/SCL*
X111500000Y-91250000D02*
X111500000Y-90100000D01*
X77750000Y-108000000D02*
X77750000Y-110250000D01*
X76750000Y-107000000D02*
X77750000Y-108000000D01*
X64858402Y-100500000D02*
X64750000Y-100500000D01*
X65750000Y-99335000D02*
X65750000Y-99608402D01*
X65750000Y-99608402D02*
X64858402Y-100500000D01*
X69700000Y-112565000D02*
X70635000Y-112565000D01*
X70635000Y-112565000D02*
X71165001Y-113095001D01*
X71165001Y-113095001D02*
X77734999Y-113095001D01*
X77734999Y-113095001D02*
X78265000Y-112565000D01*
X78265000Y-112565000D02*
X79200000Y-112565000D01*
X69225000Y-112565000D02*
X69700000Y-112565000D01*
X64750000Y-101830010D02*
X66719990Y-103800000D01*
X67085000Y-103800000D02*
X67997500Y-104712500D01*
X66719990Y-103800000D02*
X67085000Y-103800000D01*
X68000000Y-104712500D02*
X67997500Y-104712500D01*
X68725000Y-112565000D02*
X69700000Y-112565000D01*
X66900000Y-110740000D02*
X68725000Y-112565000D01*
X67997500Y-104712500D02*
X66900000Y-105810000D01*
X66900000Y-105810000D02*
X66900000Y-110740000D01*
X80770000Y-113200000D02*
X86355026Y-113200000D01*
X80135000Y-112565000D02*
X80770000Y-113200000D01*
X79200000Y-112565000D02*
X80135000Y-112565000D01*
X86355026Y-113200000D02*
X86850000Y-113200000D01*
X90750000Y-109790000D02*
X87340000Y-113200000D01*
X90750000Y-109100000D02*
X90750000Y-109790000D01*
X87340000Y-113200000D02*
X86850000Y-113200000D01*
X87150001Y-90949999D02*
X87500000Y-90600000D01*
X86750000Y-91350000D02*
X87150001Y-90949999D01*
X86750000Y-92100000D02*
X86750000Y-91350000D01*
X94450000Y-86975000D02*
X94450000Y-89980006D01*
X94450000Y-89980006D02*
X94719991Y-90249997D01*
X94719991Y-90249997D02*
X95069990Y-90599996D01*
X95069990Y-90599996D02*
X96949996Y-90599996D01*
X96949996Y-90599996D02*
X96950000Y-90600000D01*
X112800000Y-103775000D02*
X112800000Y-98200000D01*
X112800000Y-98200000D02*
X112800000Y-97950000D01*
X112800000Y-93700004D02*
X111849999Y-92750003D01*
X111500000Y-90100000D02*
X111500000Y-92400004D01*
X111849999Y-92750003D02*
X111500000Y-92400004D01*
X112800000Y-98200000D02*
X112800000Y-93700004D01*
D46*
G04 #@! TO.N,+5V*
X94850000Y-109100000D02*
X94500000Y-108750000D01*
X95550000Y-109100000D02*
X94850000Y-109100000D01*
X94500000Y-108750000D02*
X94500000Y-108000000D01*
X113150000Y-81900000D02*
X113500000Y-82250000D01*
X113500000Y-82250000D02*
X113500000Y-83000000D01*
X112450000Y-81900000D02*
X113150000Y-81900000D01*
X58467403Y-96882597D02*
X58467403Y-94167403D01*
X58467403Y-94167403D02*
X57150000Y-92850000D01*
D43*
G04 #@! TO.N,/~CY_RESET*
X73599999Y-90900001D02*
X76905027Y-90900001D01*
X77835036Y-91490604D02*
X78330010Y-91490604D01*
X76905027Y-90900001D02*
X77495630Y-91490604D01*
X77495630Y-91490604D02*
X77835036Y-91490604D01*
X64612500Y-82750000D02*
X64612500Y-80712500D01*
X64612500Y-80712500D02*
X64600000Y-80700000D01*
X64612500Y-82750000D02*
X64612500Y-82752500D01*
X64612500Y-82752500D02*
X68409950Y-86549950D01*
X71765272Y-86549950D02*
X72260246Y-86549950D01*
X68409950Y-86549950D02*
X71765272Y-86549950D01*
X73000000Y-91500000D02*
X73599999Y-90900001D01*
X73000000Y-92250000D02*
X73000000Y-91500000D01*
G04 #@! TO.N,/SHLD*
X54950000Y-97962500D02*
X55622500Y-97962500D01*
X54450000Y-97962500D02*
X52597500Y-97962500D01*
X52597500Y-97962500D02*
X52150000Y-98410000D01*
X54450000Y-93037500D02*
X52597500Y-93037500D01*
X52597500Y-93037500D02*
X52150000Y-92590000D01*
X52150000Y-94660000D02*
X52150000Y-92590000D01*
X52150000Y-96340000D02*
X52150000Y-94660000D01*
X52150000Y-98410000D02*
X52150000Y-96340000D01*
X52100000Y-98460000D02*
X52150000Y-98410000D01*
X54450000Y-97962500D02*
X54762500Y-97962500D01*
D45*
X57362500Y-101000000D02*
X55637500Y-101000000D01*
X54950000Y-100312500D02*
X55637500Y-101000000D01*
X54950000Y-97962500D02*
X54950000Y-100312500D01*
D43*
G04 #@! TO.N,/USB_P*
X55460000Y-95500000D02*
X55490000Y-95530000D01*
X55310000Y-95500000D02*
X56392402Y-95500000D01*
X57592402Y-95500000D02*
X57592402Y-95582598D01*
X57592402Y-95607598D02*
X57312393Y-95887607D01*
X57610000Y-98000000D02*
X58300000Y-98000000D01*
X57312393Y-95887607D02*
X57312393Y-96273173D01*
X57312393Y-96273173D02*
X57419991Y-96380771D01*
X57592402Y-95500000D02*
X57592402Y-95607598D01*
X57419991Y-96380771D02*
X57419991Y-97809991D01*
X57419991Y-97809991D02*
X57610000Y-98000000D01*
X64660000Y-95750000D02*
X65165000Y-95750000D01*
X59060001Y-98440999D02*
X59060001Y-98779003D01*
X59060001Y-98779003D02*
X59785999Y-99505001D01*
X58300000Y-98000000D02*
X58619002Y-98000000D01*
X59785999Y-99505001D02*
X61214001Y-99505001D01*
X58619002Y-98000000D02*
X59060001Y-98440999D01*
X61214001Y-99505001D02*
X62025000Y-98694002D01*
X64498400Y-95750000D02*
X64408400Y-95840000D01*
X65000000Y-95750000D02*
X64498400Y-95750000D01*
X64408400Y-95840000D02*
X63710000Y-95840000D01*
X62025000Y-97525000D02*
X62025000Y-97525977D01*
X63710000Y-95840000D02*
X62025000Y-97525000D01*
X62025000Y-98694002D02*
X62025000Y-97525977D01*
X62025000Y-97525977D02*
X62025000Y-97625000D01*
G04 #@! TO.N,/XTALOUT*
X62460000Y-91150000D02*
X61910010Y-91150000D01*
X63500000Y-93500000D02*
X63830001Y-93830001D01*
X63830001Y-93830001D02*
X64418399Y-93830001D01*
X64418399Y-93830001D02*
X64498400Y-93750000D01*
X64498400Y-93750000D02*
X65165000Y-93750000D01*
X63500000Y-92190000D02*
X63500000Y-93400000D01*
X62460000Y-91150000D02*
X63500000Y-92190000D01*
X63500000Y-92550000D02*
X63500000Y-93400000D01*
X63500000Y-93400000D02*
X63500000Y-93500000D01*
X61387500Y-89887500D02*
X61387500Y-89000000D01*
X61387500Y-89887500D02*
X61600000Y-90100000D01*
X61600000Y-90100000D02*
X61600000Y-91150000D01*
X61600000Y-91150000D02*
X61500000Y-91150000D01*
G04 #@! TO.N,/XTALIN*
X62511580Y-92000000D02*
X60350000Y-92000000D01*
X63189989Y-92678409D02*
X62511580Y-92000000D01*
X60350000Y-92000000D02*
X59500000Y-92850000D01*
X63189989Y-93628410D02*
X63189989Y-92678409D01*
X63811579Y-94250000D02*
X63189989Y-93628410D01*
X65165000Y-94250000D02*
X63811579Y-94250000D01*
X59500000Y-92850000D02*
X59400000Y-92850000D01*
X59612500Y-94112500D02*
X59400000Y-93900000D01*
X59612500Y-95000000D02*
X59612500Y-94112500D01*
X59400000Y-93900000D02*
X59400000Y-92850000D01*
G04 #@! TO.N,/USB_N*
X56600804Y-94850000D02*
X56972403Y-95221599D01*
X56972403Y-95221599D02*
X56972403Y-96414001D01*
X55310000Y-94850000D02*
X56600804Y-94850000D01*
X56972403Y-96414001D02*
X57080001Y-96521599D01*
X57080001Y-96650000D02*
X57080001Y-96775000D01*
X57080001Y-96521599D02*
X57080001Y-96650000D01*
X57080001Y-98049003D02*
X57080001Y-97850000D01*
X57980998Y-98950000D02*
X57080001Y-98049003D01*
X58300000Y-98950000D02*
X57980998Y-98950000D01*
X57080001Y-96650000D02*
X57080001Y-97850000D01*
X57080001Y-97850000D02*
X57080001Y-97955001D01*
X62364990Y-97765828D02*
X63880818Y-96250000D01*
X62364990Y-98834830D02*
X62364990Y-97765828D01*
X61354830Y-99844990D02*
X62364990Y-98834830D01*
X60555009Y-99844991D02*
X61354830Y-99844990D01*
X58750000Y-98950000D02*
X59325000Y-99525000D01*
X58300000Y-98950000D02*
X58750000Y-98950000D01*
X59325000Y-99525000D02*
X59325180Y-99525000D01*
X59325180Y-99525000D02*
X59650180Y-99850000D01*
X59650180Y-99850000D02*
X60550000Y-99850000D01*
X60550000Y-99850000D02*
X60555009Y-99844991D01*
X65000000Y-96250000D02*
X63980000Y-96250000D01*
X63880818Y-96250000D02*
X63980000Y-96250000D01*
X63980000Y-96250000D02*
X65165000Y-96250000D01*
G04 #@! TO.N,/D0*
X85250000Y-99410000D02*
X85250000Y-98900000D01*
X85250000Y-99630526D02*
X85250000Y-99410000D01*
X81770445Y-103110081D02*
X85250000Y-99630526D01*
X70320081Y-103110081D02*
X81770445Y-103110081D01*
X67250000Y-99335000D02*
X67250000Y-100040000D01*
X67250000Y-100040000D02*
X70320081Y-103110081D01*
G04 #@! TO.N,/D1*
X70449544Y-102800070D02*
X81642035Y-102800070D01*
X84750000Y-99692105D02*
X84750000Y-99410000D01*
X81642035Y-102800070D02*
X84750000Y-99692105D01*
X84750000Y-99410000D02*
X84750000Y-98900000D01*
X67750000Y-99335000D02*
X67750000Y-100100526D01*
X67750000Y-100100526D02*
X70449544Y-102800070D01*
G04 #@! TO.N,/D2*
X68250000Y-99335000D02*
X68250000Y-100162105D01*
X81513625Y-102490059D02*
X84250000Y-99753684D01*
X84250000Y-99753684D02*
X84250000Y-99410000D01*
X70577954Y-102490059D02*
X81513625Y-102490059D01*
X68250000Y-100162105D02*
X70577954Y-102490059D01*
X84250000Y-99410000D02*
X84250000Y-98900000D01*
G04 #@! TO.N,/D3*
X81385215Y-102180048D02*
X83750000Y-99815263D01*
X83750000Y-99815263D02*
X83750000Y-99410000D01*
X83750000Y-99410000D02*
X83750000Y-98900000D01*
X68750000Y-99335000D02*
X68750000Y-100223684D01*
X70706364Y-102180048D02*
X81385215Y-102180048D01*
X68750000Y-100223684D02*
X70706364Y-102180048D01*
G04 #@! TO.N,/D4*
X83250000Y-99876842D02*
X83250000Y-99410000D01*
X81256805Y-101870037D02*
X83250000Y-99876842D01*
X69250000Y-100285263D02*
X70834774Y-101870037D01*
X69250000Y-99335000D02*
X69250000Y-100285263D01*
X70834774Y-101870037D02*
X81256805Y-101870037D01*
X83250000Y-99410000D02*
X83250000Y-98900000D01*
G04 #@! TO.N,/D5*
X82750000Y-99410000D02*
X82750000Y-98900000D01*
X81128395Y-101560026D02*
X82750000Y-99938421D01*
X82750000Y-99938421D02*
X82750000Y-99410000D01*
X70963184Y-101560026D02*
X81128395Y-101560026D01*
X69750000Y-99335000D02*
X69750000Y-100346842D01*
X69750000Y-100346842D02*
X70963184Y-101560026D01*
G04 #@! TO.N,/D6*
X80999985Y-101250015D02*
X82250000Y-100000000D01*
X82250000Y-99410000D02*
X82250000Y-98900000D01*
X82250000Y-100000000D02*
X82250000Y-99410000D01*
X71091594Y-101250015D02*
X80999985Y-101250015D01*
X70250000Y-100408421D02*
X71091594Y-101250015D01*
X70250000Y-99335000D02*
X70250000Y-100408421D01*
G04 #@! TO.N,/D7*
X72074443Y-100940014D02*
X72074453Y-100940004D01*
X70750000Y-99335000D02*
X70750000Y-100470000D01*
X80809996Y-100940004D02*
X81600000Y-100150000D01*
X71220014Y-100940014D02*
X72074443Y-100940014D01*
X81600000Y-100150000D02*
X81600000Y-98250000D01*
X70750000Y-100470000D02*
X71220014Y-100940014D01*
X72074453Y-100940004D02*
X80809996Y-100940004D01*
G04 #@! TO.N,/FLAGA*
X72835000Y-98750000D02*
X80210998Y-98750000D01*
X80210998Y-98750000D02*
X81210998Y-97750000D01*
X81210998Y-97750000D02*
X81600000Y-97750000D01*
G04 #@! TO.N,/FLAGB*
X72835000Y-98250000D02*
X80210998Y-98250000D01*
X80210998Y-98250000D02*
X81210998Y-97250000D01*
X81210998Y-97250000D02*
X81600000Y-97250000D01*
G04 #@! TO.N,/FLAGC*
X72835000Y-97750000D02*
X73391598Y-97750000D01*
X73391598Y-97750000D02*
X73471599Y-97830001D01*
X80009999Y-97830001D02*
X81090000Y-96750000D01*
X81090000Y-96750000D02*
X81600000Y-96750000D01*
X73471599Y-97830001D02*
X80009999Y-97830001D01*
G04 #@! TO.N,/OE*
X75830002Y-95330002D02*
X76561596Y-95330002D01*
X74141598Y-95250000D02*
X75750000Y-95250000D01*
X76561596Y-95330002D02*
X77221599Y-94669999D01*
X75750000Y-95250000D02*
X75830002Y-95330002D01*
X72835000Y-95750000D02*
X73641598Y-95750000D01*
X73641598Y-95750000D02*
X74141598Y-95250000D01*
X77221599Y-94669999D02*
X78278402Y-94669998D01*
X78278402Y-94669998D02*
X78938405Y-95330001D01*
X81009999Y-95330001D02*
X81090000Y-95250000D01*
X78938405Y-95330001D02*
X81009999Y-95330001D01*
X81090000Y-95250000D02*
X81600000Y-95250000D01*
G04 #@! TO.N,/A0*
X81090000Y-94250000D02*
X81600000Y-94250000D01*
X80990000Y-94150000D02*
X81090000Y-94250000D01*
X74260000Y-94150000D02*
X80990000Y-94150000D01*
X72835000Y-94750000D02*
X73660000Y-94750000D01*
X73660000Y-94750000D02*
X74260000Y-94150000D01*
G04 #@! TO.N,/A1*
X73720000Y-94250000D02*
X72835000Y-94250000D01*
X81600000Y-93750000D02*
X74220000Y-93750000D01*
X74220000Y-93750000D02*
X73720000Y-94250000D01*
G04 #@! TO.N,/PKTEND*
X81090000Y-93250000D02*
X81600000Y-93250000D01*
X80960022Y-93379978D02*
X81090000Y-93250000D01*
X74150022Y-93379978D02*
X80960022Y-93379978D01*
X72835000Y-93750000D02*
X73780000Y-93750000D01*
X73780000Y-93750000D02*
X74150022Y-93379978D01*
G04 #@! TO.N,/FPGA_DONE*
X77849999Y-95599999D02*
X77500000Y-95250000D01*
X81600000Y-95750000D02*
X78000000Y-95750000D01*
X78000000Y-95750000D02*
X77849999Y-95599999D01*
X75755026Y-94750000D02*
X76250000Y-94750000D01*
X74127027Y-94750000D02*
X75755026Y-94750000D01*
X73627027Y-95250000D02*
X74127027Y-94750000D01*
X72835000Y-95250000D02*
X73627027Y-95250000D01*
G04 #@! TO.N,/~FPGA_RESET*
X70750000Y-91214919D02*
X70750000Y-91665000D01*
X70530055Y-90469965D02*
X70530055Y-90500000D01*
X78887500Y-96750000D02*
X78110002Y-96750000D01*
X80250000Y-96250000D02*
X79750000Y-96750000D01*
X79750000Y-96750000D02*
X78637500Y-96750000D01*
X81600000Y-96250000D02*
X80250000Y-96250000D01*
X70750000Y-90719945D02*
X70750000Y-91500000D01*
X70530055Y-90500000D02*
X70750000Y-90719945D01*
G04 #@! TO.N,/QB0*
X97890000Y-96250000D02*
X98450000Y-96250000D01*
X93000000Y-96250000D02*
X97890000Y-96250000D01*
X91109988Y-94359988D02*
X93000000Y-96250000D01*
X89453201Y-94359988D02*
X91109988Y-94359988D01*
X88400000Y-94750000D02*
X89063189Y-94750000D01*
X89063189Y-94750000D02*
X89453201Y-94359988D01*
G04 #@! TO.N,/QB1*
X88910000Y-95250000D02*
X88400000Y-95250000D01*
X89001610Y-95250000D02*
X88910000Y-95250000D01*
X89581611Y-94669999D02*
X89001610Y-95250000D01*
X90719999Y-94669999D02*
X89581611Y-94669999D01*
X98450000Y-96750000D02*
X92800000Y-96750000D01*
X92800000Y-96750000D02*
X90719999Y-94669999D01*
G04 #@! TO.N,/QB2*
X95900000Y-97250000D02*
X98450000Y-97250000D01*
X95819999Y-97330001D02*
X95900000Y-97250000D01*
X89490001Y-97330001D02*
X95819999Y-97330001D01*
X88400000Y-96750000D02*
X88910000Y-96750000D01*
X88910000Y-96750000D02*
X89490001Y-97330001D01*
G04 #@! TO.N,/QB3*
X88876841Y-97250000D02*
X88400000Y-97250000D01*
X89376841Y-97750000D02*
X88876841Y-97250000D01*
X98450000Y-97750000D02*
X89376841Y-97750000D01*
G04 #@! TO.N,/QB4*
X88938421Y-97750000D02*
X88910000Y-97750000D01*
X89308443Y-98120022D02*
X88938421Y-97750000D01*
X88910000Y-97750000D02*
X88400000Y-97750000D01*
X89438421Y-98250000D02*
X88938421Y-97750000D01*
X98450000Y-98250000D02*
X89438421Y-98250000D01*
G04 #@! TO.N,/QB5*
X88910000Y-98250000D02*
X88400000Y-98250000D01*
X89310000Y-98650000D02*
X88910000Y-98250000D01*
X95800000Y-98650000D02*
X89310000Y-98650000D01*
X98450000Y-98750000D02*
X95900000Y-98750000D01*
X95900000Y-98750000D02*
X95800000Y-98650000D01*
G04 #@! TO.N,/QB6*
X88181596Y-101400000D02*
X94650000Y-101400000D01*
X87250000Y-98900000D02*
X87250000Y-100468404D01*
X87250000Y-100468404D02*
X88181596Y-101400000D01*
X96800000Y-99250000D02*
X98450000Y-99250000D01*
X94650000Y-101400000D02*
X96800000Y-99250000D01*
G04 #@! TO.N,/QB7*
X97050000Y-99750000D02*
X98450000Y-99750000D01*
X86250000Y-98900000D02*
X86250000Y-99750000D01*
X85919986Y-100080014D02*
X85919986Y-100819986D01*
X86250000Y-99750000D02*
X85919986Y-100080014D01*
X85919986Y-100819986D02*
X86900000Y-101800000D01*
X86900000Y-101800000D02*
X95000000Y-101800000D01*
X95000000Y-101800000D02*
X97050000Y-99750000D01*
G04 #@! TO.N,/QA7*
X88400000Y-93750000D02*
X89001598Y-93750000D01*
X88400000Y-93750000D02*
X89001600Y-93750000D01*
X89001600Y-93750000D02*
X89651600Y-93100000D01*
X90450000Y-93100000D02*
X89651600Y-93100000D01*
X92100000Y-94750000D02*
X90450000Y-93100000D01*
X98450000Y-94750000D02*
X92100000Y-94750000D01*
G04 #@! TO.N,/QA6*
X88910000Y-93250000D02*
X88400000Y-93250000D01*
X89410000Y-92750000D02*
X88910000Y-93250000D01*
X90850000Y-92750000D02*
X89410000Y-92750000D01*
X98450000Y-94250000D02*
X92350000Y-94250000D01*
X92350000Y-94250000D02*
X90850000Y-92750000D01*
G04 #@! TO.N,/QA5*
X88625000Y-92750000D02*
X88400000Y-92750000D01*
X88975000Y-92400000D02*
X88625000Y-92750000D01*
X91250000Y-92400000D02*
X88975000Y-92400000D01*
X98450000Y-93750000D02*
X92600000Y-93750000D01*
X92600000Y-93750000D02*
X91250000Y-92400000D01*
G04 #@! TO.N,/QA4*
X88500000Y-92100000D02*
X88260000Y-92100000D01*
X87750000Y-92100000D02*
X88500000Y-92100000D01*
X87750000Y-92100000D02*
X88035000Y-92100000D01*
X88035000Y-92100000D02*
X88045011Y-92089989D01*
X88045011Y-92089989D02*
X90100000Y-92089989D01*
X90100000Y-92089989D02*
X91639989Y-92089989D01*
X91689989Y-92089989D02*
X90100000Y-92089989D01*
X98450000Y-93250000D02*
X92850000Y-93250000D01*
X92850000Y-93250000D02*
X91689989Y-92089989D01*
G04 #@! TO.N,/QA3*
X87250000Y-91590000D02*
X87250000Y-92100000D01*
X91449998Y-91480002D02*
X87640002Y-91480002D01*
X87359998Y-91480002D02*
X87250000Y-91590000D01*
X93150000Y-92750000D02*
X91880002Y-91480002D01*
X87640002Y-91480002D02*
X87359998Y-91480002D01*
X98450000Y-92750000D02*
X93150000Y-92750000D01*
X91880002Y-91480002D02*
X87640002Y-91480002D01*
G04 #@! TO.N,/QA2*
X85250000Y-91560502D02*
X85250000Y-91590000D01*
X85250000Y-91590000D02*
X85250000Y-92100000D01*
X85068949Y-91379451D02*
X85250000Y-91560502D01*
X85068949Y-90822647D02*
X85068949Y-91379451D01*
X86221598Y-89669998D02*
X85068949Y-90822647D01*
X87278402Y-89669998D02*
X87100000Y-89669998D01*
X87100000Y-89669998D02*
X86221598Y-89669998D01*
X90569998Y-89669998D02*
X87100000Y-89669998D01*
X94984750Y-92250000D02*
X92404748Y-89669998D01*
X92404748Y-89669998D02*
X86221598Y-89669998D01*
X98450000Y-92250000D02*
X94984750Y-92250000D01*
G04 #@! TO.N,/QA1*
X94923171Y-91750000D02*
X92423171Y-89250000D01*
X92423171Y-89250000D02*
X85953175Y-89250000D01*
X85953175Y-89250000D02*
X84758938Y-90444237D01*
X98450000Y-91750000D02*
X94923171Y-91750000D01*
X84758938Y-91581062D02*
X84750000Y-91590000D01*
X84750000Y-91590000D02*
X84750000Y-92100000D01*
X84758938Y-90444237D02*
X84758938Y-91581062D01*
G04 #@! TO.N,/QA0*
X83598927Y-91028401D02*
X83598927Y-90471599D01*
X83750000Y-91179474D02*
X83598927Y-91028401D01*
X83750000Y-92100000D02*
X83750000Y-91179474D01*
X83598927Y-90471599D02*
X84950000Y-89120526D01*
X84950000Y-89120526D02*
X85020550Y-89049976D01*
X98450000Y-91250000D02*
X94861592Y-91250000D01*
X92551581Y-88939989D02*
X91189989Y-88939989D01*
X91189989Y-88939989D02*
X91100000Y-88850000D01*
X85220526Y-88850000D02*
X84950000Y-89120526D01*
X91100000Y-88850000D02*
X85220526Y-88850000D01*
X94861592Y-91250000D02*
X92551581Y-88939989D01*
D44*
G04 #@! TO.N,/VCCPLL*
X88400000Y-96250000D02*
X89360002Y-96250000D01*
X89360002Y-96250000D02*
X89860002Y-96750000D01*
D43*
G04 #@! TO.N,/IOBufferB/Y0*
X105500000Y-104410000D02*
X105500000Y-106100000D01*
X105500000Y-103800000D02*
X105500000Y-104410000D01*
G04 #@! TO.N,/IOBufferB/Y1*
X105000000Y-104410000D02*
X105000000Y-106100000D01*
X105000000Y-103800000D02*
X105000000Y-104410000D01*
G04 #@! TO.N,/IOBufferB/Y2*
X104500000Y-103800000D02*
X104500000Y-106100000D01*
G04 #@! TO.N,/IOBufferB/Y3*
X104000000Y-103800000D02*
X104000000Y-106100000D01*
G04 #@! TO.N,/IOBufferB/Y4*
X103500000Y-104410000D02*
X103500000Y-106100000D01*
X103500000Y-103800000D02*
X103500000Y-104410000D01*
G04 #@! TO.N,/IOBufferB/Y5*
X103000000Y-103800000D02*
X103000000Y-106100000D01*
G04 #@! TO.N,/IOBufferB/Y6*
X102500000Y-103800000D02*
X102500000Y-106100000D01*
G04 #@! TO.N,/IOBufferB/Y7*
X102000000Y-105540000D02*
X102000000Y-103800000D01*
X102000000Y-106100000D02*
X102000000Y-105540000D01*
G04 #@! TO.N,/IOBufferA/Y7*
X105250000Y-87410000D02*
X105250000Y-86800000D01*
X105250000Y-87200000D02*
X105250000Y-84900000D01*
G04 #@! TO.N,/IOBufferA/Y6*
X104750000Y-86800000D02*
X104750000Y-87410000D01*
X104750000Y-87200000D02*
X104750000Y-84900000D01*
G04 #@! TO.N,/IOBufferA/Y5*
X104250000Y-86800000D02*
X104250000Y-87410000D01*
X104250000Y-86590000D02*
X104250000Y-84900000D01*
X104250000Y-87200000D02*
X104250000Y-86590000D01*
G04 #@! TO.N,/IOBufferA/Y4*
X103750000Y-87410000D02*
X103750000Y-86800000D01*
X103750000Y-85460000D02*
X103750000Y-87200000D01*
X103750000Y-84900000D02*
X103750000Y-85460000D01*
G04 #@! TO.N,/IOBufferA/Y3*
X103250000Y-87410000D02*
X103250000Y-86800000D01*
X103250000Y-87200000D02*
X103250000Y-84900000D01*
G04 #@! TO.N,/IOBufferA/Y2*
X102750000Y-87410000D02*
X102750000Y-86800000D01*
X102750000Y-87200000D02*
X102750000Y-84900000D01*
G04 #@! TO.N,/IOBufferA/Y1*
X102250000Y-87410000D02*
X102250000Y-86800000D01*
X102250000Y-86590000D02*
X102250000Y-84900000D01*
X102250000Y-87200000D02*
X102250000Y-86590000D01*
G04 #@! TO.N,/IOBufferA/Y0*
X101750000Y-86800000D02*
X101750000Y-87650000D01*
X101750000Y-86590000D02*
X101750000Y-84900000D01*
X101750000Y-87200000D02*
X101750000Y-86590000D01*
D44*
G04 #@! TO.N,+1V2*
X77500000Y-87750000D02*
X78000000Y-87250000D01*
X73091581Y-82658419D02*
X72750000Y-83000000D01*
X73091581Y-81761916D02*
X73091581Y-82658419D01*
X72750000Y-83000000D02*
X72250000Y-83000000D01*
X72250000Y-83494974D02*
X72250000Y-83000000D01*
X72250000Y-83725000D02*
X72250000Y-83494974D01*
X72275000Y-83750000D02*
X72250000Y-83725000D01*
X81600000Y-94750000D02*
X80139998Y-94750000D01*
X89510045Y-95599999D02*
X89860044Y-95250000D01*
X89360044Y-95750000D02*
X89510045Y-95599999D01*
X88400000Y-95750000D02*
X89360044Y-95750000D01*
D43*
G04 #@! TO.N,/1V2EN*
X71431581Y-76850000D02*
X70750000Y-77531581D01*
X71791581Y-76850000D02*
X71431581Y-76850000D01*
X70750000Y-77531581D02*
X70750000Y-79250000D01*
X70750000Y-79250000D02*
X69919999Y-80080001D01*
X69919999Y-80080001D02*
X68750000Y-80080001D01*
X66471599Y-80080001D02*
X68750000Y-80080001D01*
X68750000Y-78637500D02*
X68750000Y-80080001D01*
X64600000Y-78800000D02*
X65191598Y-78800000D01*
X65191598Y-78800000D02*
X66471599Y-80080001D01*
G04 #@! TO.N,/3V3EN*
X71150000Y-81650000D02*
X69890013Y-80390013D01*
X71791581Y-81650000D02*
X71150000Y-81650000D01*
X69890013Y-80390013D02*
X66750000Y-80390013D01*
X66343188Y-80390013D02*
X66750000Y-80390013D01*
X66750000Y-81000000D02*
X66750000Y-80390013D01*
X64600000Y-79750000D02*
X65703175Y-79750000D01*
X65703175Y-79750000D02*
X66343188Y-80390013D01*
X66750000Y-78637500D02*
X66750000Y-79500000D01*
G04 #@! TO.N,/PGOOD*
X62400000Y-80700000D02*
X60259660Y-80700000D01*
X60259660Y-80700000D02*
X60232324Y-80672664D01*
X60232324Y-80877664D02*
X60232324Y-81740164D01*
X60232324Y-80672664D02*
X60232324Y-80877664D01*
X60232324Y-80015164D02*
X60232324Y-80672664D01*
G04 #@! TO.N,/CLKIF*
X85750000Y-98900000D02*
X85750000Y-99750000D01*
X82079908Y-103420092D02*
X81900000Y-103420092D01*
X84400000Y-101100000D02*
X85600000Y-99900000D01*
X85750000Y-99750000D02*
X85600000Y-99900000D01*
X84250000Y-101250000D02*
X85750000Y-99750000D01*
X84250000Y-103000000D02*
X84250000Y-101250000D01*
X83542894Y-103000000D02*
X84250000Y-103000000D01*
X83122802Y-103420092D02*
X83542894Y-103000000D01*
X78100000Y-103420092D02*
X83122802Y-103420092D01*
X81900000Y-103420092D02*
X78100000Y-103420092D01*
X64460000Y-98250000D02*
X65165000Y-98250000D01*
X78100000Y-103420092D02*
X70070092Y-103420092D01*
X67900000Y-101250000D02*
X64641596Y-101250000D01*
X64641596Y-101250000D02*
X64169998Y-100778402D01*
X70070092Y-103420092D02*
X67900000Y-101250000D01*
X64169998Y-100778402D02*
X64169998Y-98540002D01*
X64169998Y-98540002D02*
X64460000Y-98250000D01*
G04 #@! TO.N,/FLAGD*
X73755042Y-96250000D02*
X72835000Y-96250000D01*
X74500000Y-96000016D02*
X74005026Y-96000016D01*
X74005026Y-96000016D02*
X73755042Y-96250000D01*
X77000000Y-93069967D02*
X77000000Y-92500000D01*
X77000000Y-93069967D02*
X78961629Y-93069967D01*
X78961629Y-93069967D02*
X79931596Y-92100000D01*
X79931596Y-92100000D02*
X81965000Y-92100000D01*
X81965000Y-92100000D02*
X82250000Y-92100000D01*
X76430033Y-93069967D02*
X77000000Y-93069967D01*
X74020033Y-93069967D02*
X76430033Y-93069967D01*
X72835000Y-93250000D02*
X73840000Y-93250000D01*
X73840000Y-93250000D02*
X74020033Y-93069967D01*
D45*
G04 #@! TO.N,/VUSB*
X60500000Y-97050000D02*
X59625000Y-97050000D01*
X55335000Y-94200000D02*
X56859000Y-94200000D01*
D44*
X60900002Y-98950000D02*
X60500000Y-98950000D01*
X61305001Y-98545001D02*
X60900002Y-98950000D01*
X61305001Y-97825000D02*
X61305001Y-98545001D01*
X61305001Y-97454999D02*
X61305001Y-97825000D01*
X60900002Y-97050000D02*
X61305001Y-97454999D01*
X60500000Y-97050000D02*
X60900002Y-97050000D01*
D43*
G04 #@! TO.N,/~SYNC*
X82290000Y-83250000D02*
X82290000Y-84652500D01*
X82290000Y-84652500D02*
X83477500Y-85840000D01*
X84137500Y-86497500D02*
X84137500Y-86500000D01*
X83477500Y-85840000D02*
X83480000Y-85840000D01*
X83480000Y-85840000D02*
X84137500Y-86497500D01*
X85750000Y-87000000D02*
X85250000Y-86500000D01*
X85250000Y-86500000D02*
X84137500Y-86500000D01*
X85750000Y-87750000D02*
X85750000Y-87000000D01*
X85750000Y-92100000D02*
X85750000Y-91000014D01*
X85750000Y-91000014D02*
X85749993Y-91000007D01*
G04 #@! TO.N,/LED_CY*
X63187500Y-105250000D02*
X62410002Y-105250000D01*
X70250000Y-91160000D02*
X70250000Y-91665000D01*
X70349999Y-88849999D02*
X70349999Y-89564803D01*
X70000000Y-88500000D02*
X70349999Y-88849999D01*
X69950054Y-89964748D02*
X70349999Y-89564803D01*
X69950054Y-90778401D02*
X69950054Y-89964748D01*
X70250000Y-91078347D02*
X69950054Y-90778401D01*
X70250000Y-91500000D02*
X70250000Y-91078347D01*
G04 #@! TO.N,Net-(D2-Pad2)*
X57950000Y-105250000D02*
X59912500Y-105250000D01*
X59912500Y-105250000D02*
X61412500Y-105250000D01*
G04 #@! TO.N,Net-(D5-Pad2)*
X59912500Y-110500000D02*
X61412500Y-110500000D01*
X57950000Y-110500000D02*
X59912500Y-110500000D01*
G04 #@! TO.N,/LED_ERR*
X63187500Y-110500000D02*
X64200000Y-110500000D01*
X68750000Y-91000000D02*
X68750000Y-91665000D01*
X68750000Y-90500000D02*
X68750000Y-91000000D01*
G04 #@! TO.N,/LED_ACT*
X63187500Y-108750000D02*
X64200000Y-108750000D01*
X69250000Y-91160000D02*
X69250000Y-91665000D01*
X69330001Y-91079999D02*
X69250000Y-91160000D01*
X68750000Y-89641598D02*
X69330001Y-90221599D01*
X68750000Y-89000000D02*
X68750000Y-89641598D01*
X69330001Y-90221599D02*
X69330001Y-91079999D01*
G04 #@! TO.N,Net-(D4-Pad2)*
X57950000Y-108750000D02*
X59912500Y-108750000D01*
X59912500Y-108750000D02*
X61412500Y-108750000D01*
G04 #@! TO.N,Net-(D3-Pad2)*
X59912500Y-107000000D02*
X61412500Y-107000000D01*
X57950000Y-107000000D02*
X59912500Y-107000000D01*
G04 #@! TO.N,/LED_FPGA*
X63187500Y-107000000D02*
X64200000Y-107000000D01*
X69750000Y-91160000D02*
X69750000Y-91665000D01*
X69542346Y-89962034D02*
X69640012Y-90059700D01*
X69542346Y-89962034D02*
X69542346Y-89467060D01*
X69640011Y-90059699D02*
X69542346Y-89962034D01*
X69750000Y-91500000D02*
X69750000Y-91440000D01*
X69750000Y-91080000D02*
X69640011Y-90970011D01*
X69750000Y-91500000D02*
X69750000Y-91080000D01*
X69640011Y-90970011D02*
X69640011Y-90059699D01*
G04 #@! TO.N,Net-(D1-Pad2)*
X59912500Y-103500000D02*
X57950000Y-103500000D01*
X59912500Y-103500000D02*
X61412500Y-103500000D01*
G04 #@! TO.N,/~OEQ*
X72000000Y-103730102D02*
X85269898Y-103730102D01*
X101450000Y-102750000D02*
X100250000Y-102750000D01*
X72000000Y-103750000D02*
X72000000Y-103730102D01*
X72000000Y-104712500D02*
X72000000Y-103750000D01*
X106410000Y-88250000D02*
X105800000Y-88250000D01*
X107008404Y-88250000D02*
X106410000Y-88250000D01*
X107380002Y-88621598D02*
X107008404Y-88250000D01*
X107380002Y-90119998D02*
X107380002Y-88621598D01*
X85269898Y-103730102D02*
X86250000Y-102750000D01*
X107380002Y-90119998D02*
X107380002Y-90969998D01*
X107380002Y-90969998D02*
X104150000Y-94200000D01*
X86250000Y-102750000D02*
X99550000Y-102750000D01*
X99550000Y-102750000D02*
X101450000Y-102750000D01*
X67750000Y-91665000D02*
X67750000Y-90757783D01*
X67750000Y-90757783D02*
X67589989Y-90597772D01*
X69780102Y-103730102D02*
X72000000Y-103730102D01*
X68600000Y-103000000D02*
X69050000Y-103000000D01*
X69050000Y-103000000D02*
X69780102Y-103730102D01*
G04 #@! TO.N,/~ALERT*
X73501600Y-96750000D02*
X73581601Y-96669999D01*
X74830001Y-96669999D02*
X75500000Y-96000000D01*
X72835000Y-96750000D02*
X73501600Y-96750000D01*
X73581601Y-96669999D02*
X74830001Y-96669999D01*
X77750000Y-99750000D02*
X76887500Y-99750000D01*
X112800000Y-104425000D02*
X111915000Y-104425000D01*
X94649996Y-95650000D02*
X96300002Y-95650000D01*
X110600000Y-102500000D02*
X103750000Y-95650000D01*
X96794976Y-95650000D02*
X96300002Y-95650000D01*
X110600000Y-103110000D02*
X110600000Y-102500000D01*
X111915000Y-104425000D02*
X110600000Y-103110000D01*
X103750000Y-95650000D02*
X96794976Y-95650000D01*
X96300000Y-87290000D02*
X96300000Y-88705026D01*
X96300000Y-88705026D02*
X96300000Y-89200000D01*
X94450000Y-86325000D02*
X95335000Y-86325000D01*
X95335000Y-86325000D02*
X96300000Y-87290000D01*
G04 #@! TO.N,Net-(R27-Pad1)*
X91700000Y-106200000D02*
X91500000Y-106000000D01*
X91500000Y-106000000D02*
X90860000Y-106000000D01*
X91700000Y-106900000D02*
X91700000Y-106200000D01*
X89862500Y-105002500D02*
X89862500Y-105000000D01*
X90860000Y-106000000D02*
X89862500Y-105002500D01*
G04 #@! TO.N,Net-(R22-Pad1)*
X112450000Y-87900000D02*
X112450000Y-88105000D01*
X112450000Y-88105000D02*
X114232500Y-89887500D01*
X114232500Y-89887500D02*
X114500000Y-89887500D01*
G04 #@! TO.N,/IOBufferA/VFB*
X112362500Y-86000000D02*
X112362500Y-86002500D01*
X114472500Y-88112500D02*
X114500000Y-88112500D01*
X112362500Y-86002500D02*
X114472500Y-88112500D01*
X110637500Y-86000000D02*
X112362500Y-86000000D01*
X110550000Y-84800000D02*
X110637500Y-84887500D01*
X110637500Y-84887500D02*
X110637500Y-86000000D01*
X110550000Y-84100000D02*
X110550000Y-84800000D01*
G04 #@! TO.N,/IOBufferB/VSAMP*
X112800000Y-105725000D02*
X112800000Y-106158500D01*
X112800000Y-106158500D02*
X113477500Y-106836000D01*
X113477500Y-106836000D02*
X113480000Y-106836000D01*
X113480000Y-106836000D02*
X114137500Y-107493500D01*
X114137500Y-107493500D02*
X114137500Y-107496000D01*
X114137500Y-107496000D02*
X115862500Y-107496000D01*
X112800000Y-105725000D02*
X110612500Y-105725000D01*
X110612500Y-105725000D02*
X110500000Y-105612500D01*
G04 #@! TO.N,/IOBufferB/VFB*
X92295000Y-105000000D02*
X93025001Y-104269999D01*
X93025001Y-104269999D02*
X94909999Y-104269999D01*
X94909999Y-104269999D02*
X95637500Y-104997500D01*
X95637500Y-104997500D02*
X95637500Y-105000000D01*
X92295000Y-105000000D02*
X91637500Y-105000000D01*
X97450000Y-106050000D02*
X97362500Y-105962500D01*
X97362500Y-105962500D02*
X97362500Y-105000000D01*
X97450000Y-106900000D02*
X97450000Y-106050000D01*
X95637500Y-105000000D02*
X97362500Y-105000000D01*
G04 #@! TO.N,/IOBufferA/VSAMP*
X93112500Y-83250000D02*
X93112500Y-83252500D01*
X93112500Y-83252500D02*
X94450000Y-84590000D01*
X94450000Y-84590000D02*
X94450000Y-84640000D01*
X94450000Y-84640000D02*
X94450000Y-85025000D01*
X94450000Y-85025000D02*
X96612500Y-85025000D01*
X96612500Y-85025000D02*
X96750000Y-84887500D01*
X91387500Y-83250000D02*
X93112500Y-83250000D01*
G04 #@! TO.N,/CLKREF*
X79750000Y-90750000D02*
X81505026Y-90750000D01*
X79500000Y-90750000D02*
X79750000Y-90750000D01*
X80500000Y-90750000D02*
X79750000Y-90750000D01*
X73533177Y-87768423D02*
X73551600Y-87750000D01*
X66830001Y-91079999D02*
X66830001Y-89221608D01*
X66830001Y-89221608D02*
X68301609Y-87750000D01*
X73514755Y-87750000D02*
X73533177Y-87768423D01*
X73551600Y-87750000D02*
X74474153Y-87750000D01*
X66750000Y-91665000D02*
X66750000Y-91160000D01*
X66750000Y-91160000D02*
X66830001Y-91079999D01*
X68301609Y-87750000D02*
X73514755Y-87750000D01*
X74474153Y-87750000D02*
X77474153Y-90750000D01*
X77474153Y-90750000D02*
X79500000Y-90750000D01*
X81505026Y-90750000D02*
X82000000Y-90750000D01*
X84250000Y-90821072D02*
X84178928Y-90750000D01*
X84250000Y-92100000D02*
X84250000Y-90821072D01*
D44*
G04 #@! TO.N,/IOBufferA/VIO*
X100500000Y-88250000D02*
X100250000Y-88000000D01*
X101200000Y-88250000D02*
X100500000Y-88250000D01*
X100250000Y-85000000D02*
X100250000Y-84250000D01*
D46*
X114250000Y-83750000D02*
X114500000Y-83500000D01*
X113900000Y-84100000D02*
X114250000Y-83750000D01*
D44*
X114137500Y-86000000D02*
X114137500Y-83862500D01*
X114137500Y-83862500D02*
X114250000Y-83750000D01*
D46*
X114500000Y-83500000D02*
X114500000Y-83000000D01*
X112450000Y-84100000D02*
X113900000Y-84100000D01*
D44*
X100250000Y-84250000D02*
X95750000Y-79750000D01*
X100250000Y-88000000D02*
X100250000Y-84250000D01*
G04 #@! TO.N,/IOBufferB/VSENSE*
X115430000Y-113190000D02*
X115430000Y-111680000D01*
X115430000Y-111680000D02*
X112362500Y-108612500D01*
X112362500Y-107496000D02*
X112362500Y-108612500D01*
G04 #@! TO.N,/IOBufferB/VIO*
X106050000Y-102750000D02*
X106750000Y-102750000D01*
X106750000Y-102750000D02*
X107000000Y-103000000D01*
D46*
X93755026Y-107250000D02*
X93500000Y-107505026D01*
X94105026Y-106900000D02*
X93755026Y-107250000D01*
D44*
X93862500Y-105000000D02*
X93862500Y-107142526D01*
X93862500Y-107142526D02*
X93755026Y-107250000D01*
D46*
X93500000Y-107505026D02*
X93500000Y-108000000D01*
X95550000Y-106900000D02*
X94105026Y-106900000D01*
D44*
G04 #@! TO.N,/IOBufferA/VSENSE*
X94887500Y-82500000D02*
X94887500Y-83250000D01*
X92500000Y-79000000D02*
X92500000Y-78290000D01*
X94000000Y-80500000D02*
X92500000Y-79000000D01*
X92500000Y-78290000D02*
X92250000Y-78040000D01*
X94887500Y-81387500D02*
X94000000Y-80500000D01*
X94887500Y-82500000D02*
X94887500Y-81387500D01*
D43*
G04 #@! TO.N,/ENVB*
X89250000Y-114000000D02*
X92750000Y-110500000D01*
X92750000Y-110500000D02*
X96990000Y-110500000D01*
X96990000Y-110500000D02*
X97450000Y-110040000D01*
X97450000Y-110040000D02*
X97450000Y-109790000D01*
X97450000Y-109790000D02*
X97450000Y-109100000D01*
X98612500Y-108887500D02*
X98400000Y-109100000D01*
X98400000Y-109100000D02*
X97450000Y-109100000D01*
X99500000Y-108887500D02*
X98612500Y-108887500D01*
X68169999Y-90169999D02*
X68099999Y-90099999D01*
X68169999Y-91584999D02*
X68169999Y-90169999D01*
X68099999Y-90099999D02*
X67750000Y-89750000D01*
X68250000Y-91665000D02*
X68169999Y-91584999D01*
G04 #@! TO.N,/ENVA*
X71250000Y-91665000D02*
X71250000Y-88500000D01*
X108500000Y-82889998D02*
X108500000Y-82112500D01*
X110550000Y-81900000D02*
X110065000Y-81900000D01*
X109852500Y-82112500D02*
X109387500Y-82112500D01*
X110065000Y-81900000D02*
X109852500Y-82112500D01*
X108500000Y-82112500D02*
X109387500Y-82112500D01*
X88500000Y-86194974D02*
X86194974Y-88500000D01*
X86194974Y-88500000D02*
X80641598Y-88500000D01*
X73544974Y-85750000D02*
X73050000Y-85750000D01*
X88500000Y-85700000D02*
X88500000Y-86194974D01*
X80641598Y-88500000D02*
X77891598Y-85750000D01*
X77891598Y-85750000D02*
X73544974Y-85750000D01*
G04 #@! TO.N,/WR*
X64660000Y-92750000D02*
X65165000Y-92750000D01*
X64269990Y-92403263D02*
X64486737Y-92620010D01*
X63970000Y-91030000D02*
X63970000Y-92060000D01*
X83250000Y-90703175D02*
X81986814Y-89439989D01*
X83250000Y-92100000D02*
X83250000Y-90703175D01*
X81986814Y-89439989D02*
X77040984Y-89439989D01*
X77040984Y-89439989D02*
X74730973Y-87129978D01*
X74730973Y-87129978D02*
X67870022Y-87129978D01*
X67870022Y-87129978D02*
X63970000Y-91030000D01*
X63970000Y-92103273D02*
X63970000Y-91030000D01*
X64616727Y-92750000D02*
X63970000Y-92103273D01*
X65000000Y-92750000D02*
X64616727Y-92750000D01*
G04 #@! TO.N,/RD*
X82750000Y-90641596D02*
X82750000Y-91590000D01*
X65165000Y-92250000D02*
X64660000Y-92250000D01*
X76912574Y-89750000D02*
X81858404Y-89750000D01*
X68060011Y-87439989D02*
X74602563Y-87439989D01*
X74602563Y-87439989D02*
X76912574Y-89750000D01*
X81858404Y-89750000D02*
X82750000Y-90641596D01*
X82750000Y-91590000D02*
X82750000Y-92100000D01*
X64280010Y-91219990D02*
X64640000Y-90860000D01*
X64280010Y-91890010D02*
X64280010Y-91219990D01*
X64640000Y-92250000D02*
X64280010Y-91890010D01*
X65000000Y-92250000D02*
X64640000Y-92250000D01*
X64419999Y-91080001D02*
X64640000Y-90860000D01*
X64640000Y-90860000D02*
X68060011Y-87439989D01*
G04 #@! TO.N,/IOBufferA/Z0*
X99000000Y-80000000D02*
X97500000Y-80000000D01*
X97500000Y-80000000D02*
X95540000Y-78040000D01*
X95540000Y-78040000D02*
X94790000Y-78040000D01*
X99210000Y-80000000D02*
X99000000Y-80000000D01*
X101750000Y-82540000D02*
X99210000Y-80000000D01*
X101750000Y-83100000D02*
X101750000Y-82540000D01*
G04 #@! TO.N,/IOBufferA/Z7*
X108000000Y-80000000D02*
X110500000Y-80000000D01*
X110500000Y-80000000D02*
X112460000Y-78040000D01*
X112460000Y-78040000D02*
X112570000Y-78040000D01*
X107790000Y-80000000D02*
X108000000Y-80000000D01*
X105250000Y-83100000D02*
X105250000Y-82540000D01*
X105250000Y-82540000D02*
X107790000Y-80000000D01*
G04 #@! TO.N,/IOBufferA/Z1*
X102250000Y-82250000D02*
X98040000Y-78040000D01*
X98040000Y-78040000D02*
X97330000Y-78040000D01*
X102250000Y-83100000D02*
X102250000Y-82250000D01*
G04 #@! TO.N,/IOBufferA/Z2*
X100540000Y-78040000D02*
X99870000Y-78040000D01*
X102750000Y-83100000D02*
X102750000Y-80250000D01*
X102750000Y-80250000D02*
X100540000Y-78040000D01*
G04 #@! TO.N,/IOBufferA/Z3*
X102500000Y-78130000D02*
X102410000Y-78040000D01*
X102500000Y-79000000D02*
X102500000Y-78130000D01*
X103250000Y-83100000D02*
X103250000Y-79750000D01*
X103250000Y-79750000D02*
X102500000Y-79000000D01*
G04 #@! TO.N,/IOBufferA/Z5*
X107460000Y-78040000D02*
X107490000Y-78040000D01*
X104250000Y-83100000D02*
X104250000Y-81250000D01*
X104250000Y-81250000D02*
X107460000Y-78040000D01*
G04 #@! TO.N,/IOBufferA/Z4*
X103750000Y-79250000D02*
X104950000Y-78050000D01*
X104950000Y-78050000D02*
X104950000Y-78040000D01*
X103750000Y-83100000D02*
X103750000Y-79250000D01*
G04 #@! TO.N,/IOBufferA/Z6*
X108570000Y-79500000D02*
X110030000Y-78040000D01*
X107561579Y-79500000D02*
X108570000Y-79500000D01*
X104750000Y-83100000D02*
X104750000Y-82311579D01*
X104750000Y-82311579D02*
X107561579Y-79500000D01*
G04 #@! TO.N,/IOBufferB/Z6*
X97650000Y-112960000D02*
X98730001Y-111879999D01*
X98290000Y-112960000D02*
X97580000Y-112960000D01*
X99080001Y-111879999D02*
X98730001Y-111879999D01*
X102500000Y-108460000D02*
X99080001Y-111879999D01*
X102500000Y-107900000D02*
X102500000Y-108460000D01*
G04 #@! TO.N,/IOBufferB/Z4*
X102660000Y-112590000D02*
X102660000Y-112960000D01*
X103500000Y-112420000D02*
X102730000Y-113190000D01*
X103500000Y-107900000D02*
X103500000Y-112420000D01*
G04 #@! TO.N,/IOBufferB/Z5*
X100120000Y-112630000D02*
X100120000Y-112960000D01*
X103000000Y-110380000D02*
X100190000Y-113190000D01*
X103000000Y-107900000D02*
X103000000Y-110380000D01*
G04 #@! TO.N,/IOBufferB/Z3*
X104000000Y-111920000D02*
X105270000Y-113190000D01*
X104000000Y-107900000D02*
X104000000Y-111920000D01*
G04 #@! TO.N,/IOBufferB/Z2*
X104500000Y-109650000D02*
X105950000Y-111100000D01*
X104500000Y-107900000D02*
X104500000Y-109650000D01*
X105950000Y-111100000D02*
X107810000Y-112960000D01*
G04 #@! TO.N,/IOBufferB/Z1*
X110350000Y-112960000D02*
X108890000Y-111500000D01*
X108040000Y-111500000D02*
X108100000Y-111500000D01*
X105000000Y-108460000D02*
X108040000Y-111500000D01*
X105000000Y-107900000D02*
X105000000Y-108460000D01*
X108890000Y-111500000D02*
X108100000Y-111500000D01*
G04 #@! TO.N,/IOBufferB/Z7*
X97000000Y-111000000D02*
X95040000Y-112960000D01*
X99460000Y-111000000D02*
X97400000Y-111000000D01*
X102000000Y-108460000D02*
X99460000Y-111000000D01*
X102000000Y-107900000D02*
X102000000Y-108460000D01*
X99250000Y-111000000D02*
X97400000Y-111000000D01*
X97400000Y-111000000D02*
X97000000Y-111000000D01*
G04 #@! TO.N,/IOBufferB/Z0*
X110860000Y-111000000D02*
X112820000Y-112960000D01*
X108350000Y-111000000D02*
X108650000Y-111000000D01*
X105500000Y-108150000D02*
X108350000Y-111000000D01*
X105500000Y-107900000D02*
X105500000Y-108150000D01*
X108500000Y-111000000D02*
X108650000Y-111000000D01*
X108650000Y-111000000D02*
X110860000Y-111000000D01*
G04 #@! TO.N,/IOBufferB/X0*
X105500000Y-100590000D02*
X105500000Y-101200000D01*
X101160000Y-96250000D02*
X105500000Y-100590000D01*
X100250000Y-96250000D02*
X101160000Y-96250000D01*
G04 #@! TO.N,/IOBufferB/X7*
X100250000Y-99750000D02*
X101300000Y-99750000D01*
X102000000Y-100450000D02*
X102000000Y-101200000D01*
X101300000Y-99750000D02*
X102000000Y-100450000D01*
G04 #@! TO.N,/IOBufferB/X1*
X105000000Y-100590000D02*
X105000000Y-101200000D01*
X101160000Y-96750000D02*
X105000000Y-100590000D01*
X100250000Y-96750000D02*
X101160000Y-96750000D01*
G04 #@! TO.N,/IOBufferB/X2*
X104500000Y-100590000D02*
X104500000Y-101200000D01*
X101160000Y-97250000D02*
X104500000Y-100590000D01*
X100250000Y-97250000D02*
X101160000Y-97250000D01*
G04 #@! TO.N,/IOBufferB/X3*
X104000000Y-100590000D02*
X104000000Y-101200000D01*
X101160000Y-97750000D02*
X104000000Y-100590000D01*
X100250000Y-97750000D02*
X101160000Y-97750000D01*
G04 #@! TO.N,/IOBufferB/X5*
X103000000Y-100590000D02*
X103000000Y-101200000D01*
X103000000Y-100573160D02*
X103000000Y-100590000D01*
X101176840Y-98750000D02*
X103000000Y-100573160D01*
X100250000Y-98750000D02*
X101176840Y-98750000D01*
G04 #@! TO.N,/IOBufferB/X4*
X103500000Y-100590000D02*
X103500000Y-101200000D01*
X101160000Y-98250000D02*
X103500000Y-100590000D01*
X100250000Y-98250000D02*
X101160000Y-98250000D01*
G04 #@! TO.N,/IOBufferB/X6*
X102500000Y-100590000D02*
X102500000Y-101200000D01*
X102500000Y-100511580D02*
X102500000Y-100590000D01*
X101238420Y-99250000D02*
X102500000Y-100511580D01*
X100250000Y-99250000D02*
X101238420Y-99250000D01*
G04 #@! TO.N,/IOBufferA/X6*
X100938420Y-94250000D02*
X104750000Y-90438420D01*
X100250000Y-94250000D02*
X100938420Y-94250000D01*
X104750000Y-90438420D02*
X104750000Y-89800000D01*
G04 #@! TO.N,/IOBufferA/X4*
X103750000Y-90410000D02*
X103750000Y-89800000D01*
X100910000Y-93250000D02*
X103750000Y-90410000D01*
X100250000Y-93250000D02*
X100910000Y-93250000D01*
G04 #@! TO.N,/IOBufferA/X5*
X104250000Y-90410000D02*
X104250000Y-89800000D01*
X100910000Y-93750000D02*
X104250000Y-90410000D01*
X100250000Y-93750000D02*
X100910000Y-93750000D01*
G04 #@! TO.N,/IOBufferA/X3*
X103250000Y-90410000D02*
X103250000Y-89800000D01*
X103250000Y-90465260D02*
X103250000Y-90410000D01*
X100965260Y-92750000D02*
X103250000Y-90465260D01*
X100250000Y-92750000D02*
X100965260Y-92750000D01*
G04 #@! TO.N,/IOBufferA/X2*
X102750000Y-90410000D02*
X102750000Y-89800000D01*
X102750000Y-90526840D02*
X102750000Y-90410000D01*
X101026840Y-92250000D02*
X102750000Y-90526840D01*
X100250000Y-92250000D02*
X101026840Y-92250000D01*
G04 #@! TO.N,/IOBufferA/X1*
X102250000Y-90410000D02*
X102250000Y-89800000D01*
X102250000Y-90588420D02*
X102250000Y-90410000D01*
X101088420Y-91750000D02*
X102250000Y-90588420D01*
X100250000Y-91750000D02*
X101088420Y-91750000D01*
G04 #@! TO.N,/IOBufferA/X7*
X105250000Y-90410000D02*
X105250000Y-89800000D01*
X105250000Y-90438420D02*
X105250000Y-90410000D01*
X100938420Y-94750000D02*
X105250000Y-90438420D01*
X100250000Y-94750000D02*
X100938420Y-94750000D01*
G04 #@! TO.N,/IOBufferA/X0*
X100250000Y-91250000D02*
X101150000Y-91250000D01*
X101750000Y-90650000D02*
X101750000Y-89800000D01*
X101150000Y-91250000D02*
X101750000Y-90650000D01*
G04 #@! TD*
D47*
G04 #@! TO.N,+5V*
G36*
X77623000Y-84873000D02*
X67237875Y-84873000D01*
X65897300Y-83532426D01*
X66885000Y-83532426D01*
X66993080Y-83510928D01*
X67009434Y-83500000D01*
X69720074Y-83500000D01*
X69720074Y-84500000D01*
X69741572Y-84608080D01*
X69802795Y-84699705D01*
X69894420Y-84760928D01*
X70002500Y-84782426D01*
X70997500Y-84782426D01*
X71105580Y-84760928D01*
X71197205Y-84699705D01*
X71258428Y-84608080D01*
X71279926Y-84500000D01*
X71279926Y-83500000D01*
X71258428Y-83391920D01*
X71197205Y-83300295D01*
X71105580Y-83239072D01*
X71081608Y-83234304D01*
X71127000Y-83124718D01*
X71127000Y-82875282D01*
X71031545Y-82644833D01*
X70855167Y-82468455D01*
X70624718Y-82373000D01*
X70375282Y-82373000D01*
X70144833Y-82468455D01*
X69968455Y-82644833D01*
X69873000Y-82875282D01*
X69873000Y-83124718D01*
X69918392Y-83234304D01*
X69894420Y-83239072D01*
X69802795Y-83300295D01*
X69741572Y-83391920D01*
X69720074Y-83500000D01*
X67009434Y-83500000D01*
X67084705Y-83449705D01*
X67145928Y-83358080D01*
X67159909Y-83287790D01*
X67375282Y-83377000D01*
X67624718Y-83377000D01*
X67855167Y-83281545D01*
X68031545Y-83105167D01*
X68127000Y-82874718D01*
X68127000Y-82625282D01*
X68031545Y-82394833D01*
X67855167Y-82218455D01*
X67624718Y-82123000D01*
X67375282Y-82123000D01*
X67159909Y-82212210D01*
X67145928Y-82141920D01*
X67084705Y-82050295D01*
X66993080Y-81989072D01*
X66885000Y-81967574D01*
X65890000Y-81967574D01*
X65781920Y-81989072D01*
X65690295Y-82050295D01*
X65629072Y-82141920D01*
X65607574Y-82250000D01*
X65607574Y-83242701D01*
X65392426Y-83027553D01*
X65392426Y-82250000D01*
X65370928Y-82141920D01*
X65309705Y-82050295D01*
X65218080Y-81989072D01*
X65110000Y-81967574D01*
X64969500Y-81967574D01*
X64969500Y-81307426D01*
X65130000Y-81307426D01*
X65238080Y-81285928D01*
X65329705Y-81224705D01*
X65390928Y-81133080D01*
X65412426Y-81025000D01*
X65412426Y-80375000D01*
X65390928Y-80266920D01*
X65362917Y-80225000D01*
X65390928Y-80183080D01*
X65406061Y-80107000D01*
X65555302Y-80107000D01*
X66065886Y-80617585D01*
X66085805Y-80647396D01*
X66130617Y-80677338D01*
X66188869Y-80716261D01*
X66123000Y-80875282D01*
X66123000Y-81124718D01*
X66218455Y-81355167D01*
X66394833Y-81531545D01*
X66625282Y-81627000D01*
X66874718Y-81627000D01*
X67105167Y-81531545D01*
X67281545Y-81355167D01*
X67377000Y-81124718D01*
X67377000Y-80875282D01*
X67323869Y-80747013D01*
X69742140Y-80747013D01*
X70872698Y-81877572D01*
X70892617Y-81907383D01*
X71010706Y-81986287D01*
X71114838Y-82007000D01*
X71114839Y-82007000D01*
X71150000Y-82013994D01*
X71185161Y-82007000D01*
X71309155Y-82007000D01*
X71309155Y-82280000D01*
X71330653Y-82388080D01*
X71391876Y-82479705D01*
X71483501Y-82540928D01*
X71591581Y-82562426D01*
X71800862Y-82562426D01*
X71718455Y-82644833D01*
X71623000Y-82875282D01*
X71623000Y-83124718D01*
X71670295Y-83238898D01*
X71669420Y-83239072D01*
X71577795Y-83300295D01*
X71516572Y-83391920D01*
X71495074Y-83500000D01*
X71495074Y-84500000D01*
X71516572Y-84608080D01*
X71577795Y-84699705D01*
X71669420Y-84760928D01*
X71777500Y-84782426D01*
X72772500Y-84782426D01*
X72880580Y-84760928D01*
X72972205Y-84699705D01*
X73033428Y-84608080D01*
X73054926Y-84500000D01*
X73054926Y-83500000D01*
X73033428Y-83391920D01*
X72988240Y-83324293D01*
X73039825Y-83289825D01*
X73062251Y-83256262D01*
X73347843Y-82970670D01*
X73381406Y-82948244D01*
X73388798Y-82937182D01*
X73429330Y-82997843D01*
X73429333Y-82997846D01*
X73451757Y-83031406D01*
X73485317Y-83053830D01*
X73662074Y-83230588D01*
X73619420Y-83239072D01*
X73527795Y-83300295D01*
X73466572Y-83391920D01*
X73445074Y-83500000D01*
X73445074Y-84500000D01*
X73466572Y-84608080D01*
X73527795Y-84699705D01*
X73619420Y-84760928D01*
X73727500Y-84782426D01*
X74722500Y-84782426D01*
X74830580Y-84760928D01*
X74922205Y-84699705D01*
X74983428Y-84608080D01*
X75004926Y-84500000D01*
X75004926Y-83500000D01*
X75220074Y-83500000D01*
X75220074Y-84500000D01*
X75241572Y-84608080D01*
X75302795Y-84699705D01*
X75394420Y-84760928D01*
X75502500Y-84782426D01*
X76497500Y-84782426D01*
X76605580Y-84760928D01*
X76697205Y-84699705D01*
X76758428Y-84608080D01*
X76779926Y-84500000D01*
X76779926Y-83500000D01*
X76758428Y-83391920D01*
X76697205Y-83300295D01*
X76605580Y-83239072D01*
X76581608Y-83234304D01*
X76627000Y-83124718D01*
X76627000Y-82875282D01*
X76531545Y-82644833D01*
X76355167Y-82468455D01*
X76124718Y-82373000D01*
X75875282Y-82373000D01*
X75644833Y-82468455D01*
X75468455Y-82644833D01*
X75373000Y-82875282D01*
X75373000Y-83124718D01*
X75418392Y-83234304D01*
X75394420Y-83239072D01*
X75302795Y-83300295D01*
X75241572Y-83391920D01*
X75220074Y-83500000D01*
X75004926Y-83500000D01*
X74983428Y-83391920D01*
X74922205Y-83300295D01*
X74830580Y-83239072D01*
X74829705Y-83238898D01*
X74877000Y-83124718D01*
X74877000Y-82875282D01*
X74781545Y-82644833D01*
X74605167Y-82468455D01*
X74374718Y-82373000D01*
X74205509Y-82373000D01*
X74224007Y-82280000D01*
X74224007Y-81020000D01*
X74202509Y-80911920D01*
X74141286Y-80820295D01*
X74114544Y-80802426D01*
X74166581Y-80802426D01*
X74274661Y-80780928D01*
X74366286Y-80719705D01*
X74427509Y-80628080D01*
X74449007Y-80520000D01*
X74449007Y-77980000D01*
X74430857Y-77888750D01*
X74479908Y-77839698D01*
X74576581Y-77606309D01*
X74576581Y-77135750D01*
X74417831Y-76977000D01*
X73841581Y-76977000D01*
X73841581Y-76997000D01*
X73641581Y-76997000D01*
X73641581Y-76977000D01*
X73594581Y-76977000D01*
X73594581Y-76723000D01*
X73641581Y-76723000D01*
X73641581Y-76135000D01*
X73764502Y-76135000D01*
X73764502Y-75976252D01*
X73841581Y-76053331D01*
X73841581Y-76723000D01*
X74417831Y-76723000D01*
X74576581Y-76564250D01*
X74576581Y-76093691D01*
X74536382Y-75996643D01*
X74673327Y-75859699D01*
X74770000Y-75626310D01*
X74770000Y-75285750D01*
X74611250Y-75127000D01*
X73764500Y-75127000D01*
X73764500Y-75147000D01*
X73510500Y-75147000D01*
X73510500Y-75127000D01*
X73490500Y-75127000D01*
X73490500Y-74873000D01*
X73510500Y-74873000D01*
X73510500Y-74023750D01*
X73764500Y-74023750D01*
X73764500Y-74873000D01*
X74611250Y-74873000D01*
X74770000Y-74714250D01*
X74770000Y-74373690D01*
X74673327Y-74140301D01*
X74494698Y-73961673D01*
X74261309Y-73865000D01*
X73923250Y-73865000D01*
X73764500Y-74023750D01*
X73510500Y-74023750D01*
X73351750Y-73865000D01*
X73013691Y-73865000D01*
X72780302Y-73961673D01*
X72601673Y-74140301D01*
X72540670Y-74287576D01*
X72468080Y-74239072D01*
X72360000Y-74217574D01*
X71365000Y-74217574D01*
X71256920Y-74239072D01*
X71165295Y-74300295D01*
X71116714Y-74373000D01*
X70875282Y-74373000D01*
X70644833Y-74468455D01*
X70468455Y-74644833D01*
X70373000Y-74875282D01*
X70373000Y-75124718D01*
X70468455Y-75355167D01*
X70644833Y-75531545D01*
X70875282Y-75627000D01*
X71116714Y-75627000D01*
X71165295Y-75699705D01*
X71256920Y-75760928D01*
X71365000Y-75782426D01*
X72360000Y-75782426D01*
X72468080Y-75760928D01*
X72540670Y-75712424D01*
X72601673Y-75859699D01*
X72688976Y-75947001D01*
X72641581Y-75937574D01*
X72241581Y-75937574D01*
X72133501Y-75959072D01*
X72116581Y-75970378D01*
X72099661Y-75959072D01*
X71991581Y-75937574D01*
X71591581Y-75937574D01*
X71483501Y-75959072D01*
X71391876Y-76020295D01*
X71330653Y-76111920D01*
X71309155Y-76220000D01*
X71309155Y-76510358D01*
X71292287Y-76513713D01*
X71292286Y-76513714D01*
X71292285Y-76513714D01*
X71260537Y-76534928D01*
X71174198Y-76592617D01*
X71154279Y-76622428D01*
X70522428Y-77254280D01*
X70492617Y-77274199D01*
X70413713Y-77392288D01*
X70393000Y-77496419D01*
X70386006Y-77531581D01*
X70393000Y-77566742D01*
X70393001Y-79102125D01*
X69772126Y-79723001D01*
X69107000Y-79723001D01*
X69107000Y-79167426D01*
X69250000Y-79167426D01*
X69358080Y-79145928D01*
X69449705Y-79084705D01*
X69510928Y-78993080D01*
X69532426Y-78885000D01*
X69532426Y-77890000D01*
X69510928Y-77781920D01*
X69462424Y-77709330D01*
X69609699Y-77648327D01*
X69788327Y-77469698D01*
X69885000Y-77236309D01*
X69885000Y-76898250D01*
X69726250Y-76739500D01*
X68877000Y-76739500D01*
X68877000Y-76759500D01*
X68623000Y-76759500D01*
X68623000Y-76739500D01*
X67773750Y-76739500D01*
X67750000Y-76763250D01*
X67726250Y-76739500D01*
X66877000Y-76739500D01*
X66877000Y-76759500D01*
X66623000Y-76759500D01*
X66623000Y-76739500D01*
X65773750Y-76739500D01*
X65615000Y-76898250D01*
X65615000Y-77236309D01*
X65711673Y-77469698D01*
X65890301Y-77648327D01*
X66037576Y-77709330D01*
X65989072Y-77781920D01*
X65967574Y-77890000D01*
X65967574Y-78885000D01*
X65989072Y-78993080D01*
X66050295Y-79084705D01*
X66141920Y-79145928D01*
X66212210Y-79159909D01*
X66166569Y-79270097D01*
X65468902Y-78572431D01*
X65448981Y-78542617D01*
X65412426Y-78518192D01*
X65412426Y-78475000D01*
X65390928Y-78366920D01*
X65329705Y-78275295D01*
X65238080Y-78214072D01*
X65130000Y-78192574D01*
X64070000Y-78192574D01*
X63961920Y-78214072D01*
X63870295Y-78275295D01*
X63809072Y-78366920D01*
X63787574Y-78475000D01*
X63787574Y-79125000D01*
X63801763Y-79196334D01*
X63624718Y-79123000D01*
X63565000Y-79123000D01*
X63565000Y-79085750D01*
X63406250Y-78927000D01*
X62527000Y-78927000D01*
X62527000Y-78947000D01*
X62273000Y-78947000D01*
X62273000Y-78927000D01*
X62253000Y-78927000D01*
X62253000Y-78673000D01*
X62273000Y-78673000D01*
X62273000Y-77998750D01*
X62527000Y-77998750D01*
X62527000Y-78673000D01*
X63406250Y-78673000D01*
X63565000Y-78514250D01*
X63565000Y-78348690D01*
X63468327Y-78115301D01*
X63289698Y-77936673D01*
X63056309Y-77840000D01*
X62685750Y-77840000D01*
X62527000Y-77998750D01*
X62273000Y-77998750D01*
X62114250Y-77840000D01*
X61743691Y-77840000D01*
X61510302Y-77936673D01*
X61367324Y-78079650D01*
X61367324Y-77985498D01*
X61208576Y-77985498D01*
X61367324Y-77826750D01*
X61367324Y-77488691D01*
X61270651Y-77255302D01*
X61092023Y-77076673D01*
X60858634Y-76980000D01*
X60518074Y-76980000D01*
X60359324Y-77138750D01*
X60359324Y-77985500D01*
X60379324Y-77985500D01*
X60379324Y-78239500D01*
X60359324Y-78239500D01*
X60359324Y-78259500D01*
X60105324Y-78259500D01*
X60105324Y-78239500D01*
X59256074Y-78239500D01*
X59097324Y-78398250D01*
X59097324Y-78736309D01*
X59193997Y-78969698D01*
X59372625Y-79148327D01*
X59519900Y-79209330D01*
X59471396Y-79281920D01*
X59449898Y-79390000D01*
X59449898Y-80385000D01*
X59471396Y-80493080D01*
X59532619Y-80584705D01*
X59624244Y-80645928D01*
X59732324Y-80667426D01*
X59869372Y-80667426D01*
X59868330Y-80672664D01*
X59875324Y-80707825D01*
X59875324Y-80832574D01*
X59732324Y-80832574D01*
X59624244Y-80854072D01*
X59532619Y-80915295D01*
X59471396Y-81006920D01*
X59449898Y-81115000D01*
X59449898Y-82110000D01*
X59471396Y-82218080D01*
X59532619Y-82309705D01*
X59624244Y-82370928D01*
X59732324Y-82392426D01*
X60732324Y-82392426D01*
X60840404Y-82370928D01*
X60932029Y-82309705D01*
X60993252Y-82218080D01*
X61014750Y-82110000D01*
X61014750Y-81115000D01*
X61003213Y-81057000D01*
X61593939Y-81057000D01*
X61609072Y-81133080D01*
X61670295Y-81224705D01*
X61761920Y-81285928D01*
X61870000Y-81307426D01*
X62930000Y-81307426D01*
X63038080Y-81285928D01*
X63129705Y-81224705D01*
X63190928Y-81133080D01*
X63212426Y-81025000D01*
X63212426Y-80375000D01*
X63198237Y-80303666D01*
X63375282Y-80377000D01*
X63624718Y-80377000D01*
X63801763Y-80303666D01*
X63787574Y-80375000D01*
X63787574Y-81025000D01*
X63809072Y-81133080D01*
X63870295Y-81224705D01*
X63961920Y-81285928D01*
X64070000Y-81307426D01*
X64255501Y-81307426D01*
X64255500Y-81967574D01*
X64115000Y-81967574D01*
X64006920Y-81989072D01*
X63915295Y-82050295D01*
X63854072Y-82141920D01*
X63832574Y-82250000D01*
X63832574Y-83250000D01*
X63854072Y-83358080D01*
X63915295Y-83449705D01*
X64006920Y-83510928D01*
X64115000Y-83532426D01*
X64887553Y-83532426D01*
X66228126Y-84873000D01*
X60384375Y-84873000D01*
X60605167Y-84781545D01*
X60781545Y-84605167D01*
X60877000Y-84374718D01*
X60877000Y-84125282D01*
X60875765Y-84122300D01*
X60932029Y-84084705D01*
X60993252Y-83993080D01*
X61014750Y-83885000D01*
X61014750Y-82890000D01*
X60993252Y-82781920D01*
X60932029Y-82690295D01*
X60840404Y-82629072D01*
X60732324Y-82607574D01*
X59732324Y-82607574D01*
X59624244Y-82629072D01*
X59532619Y-82690295D01*
X59471396Y-82781920D01*
X59449898Y-82890000D01*
X59449898Y-83885000D01*
X59471396Y-83993080D01*
X59532619Y-84084705D01*
X59623000Y-84145097D01*
X59623000Y-84374718D01*
X59718455Y-84605167D01*
X59894833Y-84781545D01*
X60115625Y-84873000D01*
X58250000Y-84873000D01*
X58201399Y-84882667D01*
X58160197Y-84910197D01*
X58132667Y-84951399D01*
X58123000Y-85000000D01*
X58123000Y-93373000D01*
X56852000Y-93373000D01*
X56852000Y-90650000D01*
X56842333Y-90601399D01*
X56814803Y-90560197D01*
X56773601Y-90532667D01*
X56725000Y-90523000D01*
X51877000Y-90523000D01*
X51877000Y-88290104D01*
X52889501Y-88290104D01*
X52926648Y-88505217D01*
X53354972Y-88648112D01*
X53805375Y-88616217D01*
X54073352Y-88505217D01*
X54110499Y-88290104D01*
X53500000Y-87679605D01*
X52889501Y-88290104D01*
X51877000Y-88290104D01*
X51877000Y-87354972D01*
X52351888Y-87354972D01*
X52383783Y-87805375D01*
X52494783Y-88073352D01*
X52709896Y-88110499D01*
X53320395Y-87500000D01*
X53679605Y-87500000D01*
X54290104Y-88110499D01*
X54505217Y-88073352D01*
X54648112Y-87645028D01*
X54616217Y-87194625D01*
X54505217Y-86926648D01*
X54290104Y-86889501D01*
X53679605Y-87500000D01*
X53320395Y-87500000D01*
X52709896Y-86889501D01*
X52494783Y-86926648D01*
X52351888Y-87354972D01*
X51877000Y-87354972D01*
X51877000Y-86709896D01*
X52889501Y-86709896D01*
X53500000Y-87320395D01*
X54110499Y-86709896D01*
X54073352Y-86494783D01*
X53645028Y-86351888D01*
X53194625Y-86383783D01*
X52926648Y-86494783D01*
X52889501Y-86709896D01*
X51877000Y-86709896D01*
X51877000Y-77794220D01*
X52030438Y-77947658D01*
X53308382Y-78477000D01*
X54691618Y-78477000D01*
X55969562Y-77947658D01*
X56428529Y-77488691D01*
X59097324Y-77488691D01*
X59097324Y-77826750D01*
X59256074Y-77985500D01*
X60105324Y-77985500D01*
X60105324Y-77138750D01*
X59946574Y-76980000D01*
X59606014Y-76980000D01*
X59372625Y-77076673D01*
X59193997Y-77255302D01*
X59097324Y-77488691D01*
X56428529Y-77488691D01*
X56947658Y-76969562D01*
X57353948Y-75988691D01*
X65615000Y-75988691D01*
X65615000Y-76326750D01*
X65773750Y-76485500D01*
X66623000Y-76485500D01*
X66623000Y-75638750D01*
X66877000Y-75638750D01*
X66877000Y-76485500D01*
X67726250Y-76485500D01*
X67750000Y-76461750D01*
X67773750Y-76485500D01*
X68623000Y-76485500D01*
X68623000Y-75638750D01*
X68877000Y-75638750D01*
X68877000Y-76485500D01*
X69726250Y-76485500D01*
X69885000Y-76326750D01*
X69885000Y-75988691D01*
X69788327Y-75755302D01*
X69609699Y-75576673D01*
X69376310Y-75480000D01*
X69035750Y-75480000D01*
X68877000Y-75638750D01*
X68623000Y-75638750D01*
X68464250Y-75480000D01*
X68123690Y-75480000D01*
X67890301Y-75576673D01*
X67750000Y-75716975D01*
X67609699Y-75576673D01*
X67376310Y-75480000D01*
X67035750Y-75480000D01*
X66877000Y-75638750D01*
X66623000Y-75638750D01*
X66464250Y-75480000D01*
X66123690Y-75480000D01*
X65890301Y-75576673D01*
X65711673Y-75755302D01*
X65615000Y-75988691D01*
X57353948Y-75988691D01*
X57477000Y-75691618D01*
X57477000Y-74308382D01*
X56947658Y-73030438D01*
X56794220Y-72877000D01*
X77623000Y-72877000D01*
X77623000Y-84873000D01*
X77623000Y-84873000D01*
G37*
X77623000Y-84873000D02*
X67237875Y-84873000D01*
X65897300Y-83532426D01*
X66885000Y-83532426D01*
X66993080Y-83510928D01*
X67009434Y-83500000D01*
X69720074Y-83500000D01*
X69720074Y-84500000D01*
X69741572Y-84608080D01*
X69802795Y-84699705D01*
X69894420Y-84760928D01*
X70002500Y-84782426D01*
X70997500Y-84782426D01*
X71105580Y-84760928D01*
X71197205Y-84699705D01*
X71258428Y-84608080D01*
X71279926Y-84500000D01*
X71279926Y-83500000D01*
X71258428Y-83391920D01*
X71197205Y-83300295D01*
X71105580Y-83239072D01*
X71081608Y-83234304D01*
X71127000Y-83124718D01*
X71127000Y-82875282D01*
X71031545Y-82644833D01*
X70855167Y-82468455D01*
X70624718Y-82373000D01*
X70375282Y-82373000D01*
X70144833Y-82468455D01*
X69968455Y-82644833D01*
X69873000Y-82875282D01*
X69873000Y-83124718D01*
X69918392Y-83234304D01*
X69894420Y-83239072D01*
X69802795Y-83300295D01*
X69741572Y-83391920D01*
X69720074Y-83500000D01*
X67009434Y-83500000D01*
X67084705Y-83449705D01*
X67145928Y-83358080D01*
X67159909Y-83287790D01*
X67375282Y-83377000D01*
X67624718Y-83377000D01*
X67855167Y-83281545D01*
X68031545Y-83105167D01*
X68127000Y-82874718D01*
X68127000Y-82625282D01*
X68031545Y-82394833D01*
X67855167Y-82218455D01*
X67624718Y-82123000D01*
X67375282Y-82123000D01*
X67159909Y-82212210D01*
X67145928Y-82141920D01*
X67084705Y-82050295D01*
X66993080Y-81989072D01*
X66885000Y-81967574D01*
X65890000Y-81967574D01*
X65781920Y-81989072D01*
X65690295Y-82050295D01*
X65629072Y-82141920D01*
X65607574Y-82250000D01*
X65607574Y-83242701D01*
X65392426Y-83027553D01*
X65392426Y-82250000D01*
X65370928Y-82141920D01*
X65309705Y-82050295D01*
X65218080Y-81989072D01*
X65110000Y-81967574D01*
X64969500Y-81967574D01*
X64969500Y-81307426D01*
X65130000Y-81307426D01*
X65238080Y-81285928D01*
X65329705Y-81224705D01*
X65390928Y-81133080D01*
X65412426Y-81025000D01*
X65412426Y-80375000D01*
X65390928Y-80266920D01*
X65362917Y-80225000D01*
X65390928Y-80183080D01*
X65406061Y-80107000D01*
X65555302Y-80107000D01*
X66065886Y-80617585D01*
X66085805Y-80647396D01*
X66130617Y-80677338D01*
X66188869Y-80716261D01*
X66123000Y-80875282D01*
X66123000Y-81124718D01*
X66218455Y-81355167D01*
X66394833Y-81531545D01*
X66625282Y-81627000D01*
X66874718Y-81627000D01*
X67105167Y-81531545D01*
X67281545Y-81355167D01*
X67377000Y-81124718D01*
X67377000Y-80875282D01*
X67323869Y-80747013D01*
X69742140Y-80747013D01*
X70872698Y-81877572D01*
X70892617Y-81907383D01*
X71010706Y-81986287D01*
X71114838Y-82007000D01*
X71114839Y-82007000D01*
X71150000Y-82013994D01*
X71185161Y-82007000D01*
X71309155Y-82007000D01*
X71309155Y-82280000D01*
X71330653Y-82388080D01*
X71391876Y-82479705D01*
X71483501Y-82540928D01*
X71591581Y-82562426D01*
X71800862Y-82562426D01*
X71718455Y-82644833D01*
X71623000Y-82875282D01*
X71623000Y-83124718D01*
X71670295Y-83238898D01*
X71669420Y-83239072D01*
X71577795Y-83300295D01*
X71516572Y-83391920D01*
X71495074Y-83500000D01*
X71495074Y-84500000D01*
X71516572Y-84608080D01*
X71577795Y-84699705D01*
X71669420Y-84760928D01*
X71777500Y-84782426D01*
X72772500Y-84782426D01*
X72880580Y-84760928D01*
X72972205Y-84699705D01*
X73033428Y-84608080D01*
X73054926Y-84500000D01*
X73054926Y-83500000D01*
X73033428Y-83391920D01*
X72988240Y-83324293D01*
X73039825Y-83289825D01*
X73062251Y-83256262D01*
X73347843Y-82970670D01*
X73381406Y-82948244D01*
X73388798Y-82937182D01*
X73429330Y-82997843D01*
X73429333Y-82997846D01*
X73451757Y-83031406D01*
X73485317Y-83053830D01*
X73662074Y-83230588D01*
X73619420Y-83239072D01*
X73527795Y-83300295D01*
X73466572Y-83391920D01*
X73445074Y-83500000D01*
X73445074Y-84500000D01*
X73466572Y-84608080D01*
X73527795Y-84699705D01*
X73619420Y-84760928D01*
X73727500Y-84782426D01*
X74722500Y-84782426D01*
X74830580Y-84760928D01*
X74922205Y-84699705D01*
X74983428Y-84608080D01*
X75004926Y-84500000D01*
X75004926Y-83500000D01*
X75220074Y-83500000D01*
X75220074Y-84500000D01*
X75241572Y-84608080D01*
X75302795Y-84699705D01*
X75394420Y-84760928D01*
X75502500Y-84782426D01*
X76497500Y-84782426D01*
X76605580Y-84760928D01*
X76697205Y-84699705D01*
X76758428Y-84608080D01*
X76779926Y-84500000D01*
X76779926Y-83500000D01*
X76758428Y-83391920D01*
X76697205Y-83300295D01*
X76605580Y-83239072D01*
X76581608Y-83234304D01*
X76627000Y-83124718D01*
X76627000Y-82875282D01*
X76531545Y-82644833D01*
X76355167Y-82468455D01*
X76124718Y-82373000D01*
X75875282Y-82373000D01*
X75644833Y-82468455D01*
X75468455Y-82644833D01*
X75373000Y-82875282D01*
X75373000Y-83124718D01*
X75418392Y-83234304D01*
X75394420Y-83239072D01*
X75302795Y-83300295D01*
X75241572Y-83391920D01*
X75220074Y-83500000D01*
X75004926Y-83500000D01*
X74983428Y-83391920D01*
X74922205Y-83300295D01*
X74830580Y-83239072D01*
X74829705Y-83238898D01*
X74877000Y-83124718D01*
X74877000Y-82875282D01*
X74781545Y-82644833D01*
X74605167Y-82468455D01*
X74374718Y-82373000D01*
X74205509Y-82373000D01*
X74224007Y-82280000D01*
X74224007Y-81020000D01*
X74202509Y-80911920D01*
X74141286Y-80820295D01*
X74114544Y-80802426D01*
X74166581Y-80802426D01*
X74274661Y-80780928D01*
X74366286Y-80719705D01*
X74427509Y-80628080D01*
X74449007Y-80520000D01*
X74449007Y-77980000D01*
X74430857Y-77888750D01*
X74479908Y-77839698D01*
X74576581Y-77606309D01*
X74576581Y-77135750D01*
X74417831Y-76977000D01*
X73841581Y-76977000D01*
X73841581Y-76997000D01*
X73641581Y-76997000D01*
X73641581Y-76977000D01*
X73594581Y-76977000D01*
X73594581Y-76723000D01*
X73641581Y-76723000D01*
X73641581Y-76135000D01*
X73764502Y-76135000D01*
X73764502Y-75976252D01*
X73841581Y-76053331D01*
X73841581Y-76723000D01*
X74417831Y-76723000D01*
X74576581Y-76564250D01*
X74576581Y-76093691D01*
X74536382Y-75996643D01*
X74673327Y-75859699D01*
X74770000Y-75626310D01*
X74770000Y-75285750D01*
X74611250Y-75127000D01*
X73764500Y-75127000D01*
X73764500Y-75147000D01*
X73510500Y-75147000D01*
X73510500Y-75127000D01*
X73490500Y-75127000D01*
X73490500Y-74873000D01*
X73510500Y-74873000D01*
X73510500Y-74023750D01*
X73764500Y-74023750D01*
X73764500Y-74873000D01*
X74611250Y-74873000D01*
X74770000Y-74714250D01*
X74770000Y-74373690D01*
X74673327Y-74140301D01*
X74494698Y-73961673D01*
X74261309Y-73865000D01*
X73923250Y-73865000D01*
X73764500Y-74023750D01*
X73510500Y-74023750D01*
X73351750Y-73865000D01*
X73013691Y-73865000D01*
X72780302Y-73961673D01*
X72601673Y-74140301D01*
X72540670Y-74287576D01*
X72468080Y-74239072D01*
X72360000Y-74217574D01*
X71365000Y-74217574D01*
X71256920Y-74239072D01*
X71165295Y-74300295D01*
X71116714Y-74373000D01*
X70875282Y-74373000D01*
X70644833Y-74468455D01*
X70468455Y-74644833D01*
X70373000Y-74875282D01*
X70373000Y-75124718D01*
X70468455Y-75355167D01*
X70644833Y-75531545D01*
X70875282Y-75627000D01*
X71116714Y-75627000D01*
X71165295Y-75699705D01*
X71256920Y-75760928D01*
X71365000Y-75782426D01*
X72360000Y-75782426D01*
X72468080Y-75760928D01*
X72540670Y-75712424D01*
X72601673Y-75859699D01*
X72688976Y-75947001D01*
X72641581Y-75937574D01*
X72241581Y-75937574D01*
X72133501Y-75959072D01*
X72116581Y-75970378D01*
X72099661Y-75959072D01*
X71991581Y-75937574D01*
X71591581Y-75937574D01*
X71483501Y-75959072D01*
X71391876Y-76020295D01*
X71330653Y-76111920D01*
X71309155Y-76220000D01*
X71309155Y-76510358D01*
X71292287Y-76513713D01*
X71292286Y-76513714D01*
X71292285Y-76513714D01*
X71260537Y-76534928D01*
X71174198Y-76592617D01*
X71154279Y-76622428D01*
X70522428Y-77254280D01*
X70492617Y-77274199D01*
X70413713Y-77392288D01*
X70393000Y-77496419D01*
X70386006Y-77531581D01*
X70393000Y-77566742D01*
X70393001Y-79102125D01*
X69772126Y-79723001D01*
X69107000Y-79723001D01*
X69107000Y-79167426D01*
X69250000Y-79167426D01*
X69358080Y-79145928D01*
X69449705Y-79084705D01*
X69510928Y-78993080D01*
X69532426Y-78885000D01*
X69532426Y-77890000D01*
X69510928Y-77781920D01*
X69462424Y-77709330D01*
X69609699Y-77648327D01*
X69788327Y-77469698D01*
X69885000Y-77236309D01*
X69885000Y-76898250D01*
X69726250Y-76739500D01*
X68877000Y-76739500D01*
X68877000Y-76759500D01*
X68623000Y-76759500D01*
X68623000Y-76739500D01*
X67773750Y-76739500D01*
X67750000Y-76763250D01*
X67726250Y-76739500D01*
X66877000Y-76739500D01*
X66877000Y-76759500D01*
X66623000Y-76759500D01*
X66623000Y-76739500D01*
X65773750Y-76739500D01*
X65615000Y-76898250D01*
X65615000Y-77236309D01*
X65711673Y-77469698D01*
X65890301Y-77648327D01*
X66037576Y-77709330D01*
X65989072Y-77781920D01*
X65967574Y-77890000D01*
X65967574Y-78885000D01*
X65989072Y-78993080D01*
X66050295Y-79084705D01*
X66141920Y-79145928D01*
X66212210Y-79159909D01*
X66166569Y-79270097D01*
X65468902Y-78572431D01*
X65448981Y-78542617D01*
X65412426Y-78518192D01*
X65412426Y-78475000D01*
X65390928Y-78366920D01*
X65329705Y-78275295D01*
X65238080Y-78214072D01*
X65130000Y-78192574D01*
X64070000Y-78192574D01*
X63961920Y-78214072D01*
X63870295Y-78275295D01*
X63809072Y-78366920D01*
X63787574Y-78475000D01*
X63787574Y-79125000D01*
X63801763Y-79196334D01*
X63624718Y-79123000D01*
X63565000Y-79123000D01*
X63565000Y-79085750D01*
X63406250Y-78927000D01*
X62527000Y-78927000D01*
X62527000Y-78947000D01*
X62273000Y-78947000D01*
X62273000Y-78927000D01*
X62253000Y-78927000D01*
X62253000Y-78673000D01*
X62273000Y-78673000D01*
X62273000Y-77998750D01*
X62527000Y-77998750D01*
X62527000Y-78673000D01*
X63406250Y-78673000D01*
X63565000Y-78514250D01*
X63565000Y-78348690D01*
X63468327Y-78115301D01*
X63289698Y-77936673D01*
X63056309Y-77840000D01*
X62685750Y-77840000D01*
X62527000Y-77998750D01*
X62273000Y-77998750D01*
X62114250Y-77840000D01*
X61743691Y-77840000D01*
X61510302Y-77936673D01*
X61367324Y-78079650D01*
X61367324Y-77985498D01*
X61208576Y-77985498D01*
X61367324Y-77826750D01*
X61367324Y-77488691D01*
X61270651Y-77255302D01*
X61092023Y-77076673D01*
X60858634Y-76980000D01*
X60518074Y-76980000D01*
X60359324Y-77138750D01*
X60359324Y-77985500D01*
X60379324Y-77985500D01*
X60379324Y-78239500D01*
X60359324Y-78239500D01*
X60359324Y-78259500D01*
X60105324Y-78259500D01*
X60105324Y-78239500D01*
X59256074Y-78239500D01*
X59097324Y-78398250D01*
X59097324Y-78736309D01*
X59193997Y-78969698D01*
X59372625Y-79148327D01*
X59519900Y-79209330D01*
X59471396Y-79281920D01*
X59449898Y-79390000D01*
X59449898Y-80385000D01*
X59471396Y-80493080D01*
X59532619Y-80584705D01*
X59624244Y-80645928D01*
X59732324Y-80667426D01*
X59869372Y-80667426D01*
X59868330Y-80672664D01*
X59875324Y-80707825D01*
X59875324Y-80832574D01*
X59732324Y-80832574D01*
X59624244Y-80854072D01*
X59532619Y-80915295D01*
X59471396Y-81006920D01*
X59449898Y-81115000D01*
X59449898Y-82110000D01*
X59471396Y-82218080D01*
X59532619Y-82309705D01*
X59624244Y-82370928D01*
X59732324Y-82392426D01*
X60732324Y-82392426D01*
X60840404Y-82370928D01*
X60932029Y-82309705D01*
X60993252Y-82218080D01*
X61014750Y-82110000D01*
X61014750Y-81115000D01*
X61003213Y-81057000D01*
X61593939Y-81057000D01*
X61609072Y-81133080D01*
X61670295Y-81224705D01*
X61761920Y-81285928D01*
X61870000Y-81307426D01*
X62930000Y-81307426D01*
X63038080Y-81285928D01*
X63129705Y-81224705D01*
X63190928Y-81133080D01*
X63212426Y-81025000D01*
X63212426Y-80375000D01*
X63198237Y-80303666D01*
X63375282Y-80377000D01*
X63624718Y-80377000D01*
X63801763Y-80303666D01*
X63787574Y-80375000D01*
X63787574Y-81025000D01*
X63809072Y-81133080D01*
X63870295Y-81224705D01*
X63961920Y-81285928D01*
X64070000Y-81307426D01*
X64255501Y-81307426D01*
X64255500Y-81967574D01*
X64115000Y-81967574D01*
X64006920Y-81989072D01*
X63915295Y-82050295D01*
X63854072Y-82141920D01*
X63832574Y-82250000D01*
X63832574Y-83250000D01*
X63854072Y-83358080D01*
X63915295Y-83449705D01*
X64006920Y-83510928D01*
X64115000Y-83532426D01*
X64887553Y-83532426D01*
X66228126Y-84873000D01*
X60384375Y-84873000D01*
X60605167Y-84781545D01*
X60781545Y-84605167D01*
X60877000Y-84374718D01*
X60877000Y-84125282D01*
X60875765Y-84122300D01*
X60932029Y-84084705D01*
X60993252Y-83993080D01*
X61014750Y-83885000D01*
X61014750Y-82890000D01*
X60993252Y-82781920D01*
X60932029Y-82690295D01*
X60840404Y-82629072D01*
X60732324Y-82607574D01*
X59732324Y-82607574D01*
X59624244Y-82629072D01*
X59532619Y-82690295D01*
X59471396Y-82781920D01*
X59449898Y-82890000D01*
X59449898Y-83885000D01*
X59471396Y-83993080D01*
X59532619Y-84084705D01*
X59623000Y-84145097D01*
X59623000Y-84374718D01*
X59718455Y-84605167D01*
X59894833Y-84781545D01*
X60115625Y-84873000D01*
X58250000Y-84873000D01*
X58201399Y-84882667D01*
X58160197Y-84910197D01*
X58132667Y-84951399D01*
X58123000Y-85000000D01*
X58123000Y-93373000D01*
X56852000Y-93373000D01*
X56852000Y-90650000D01*
X56842333Y-90601399D01*
X56814803Y-90560197D01*
X56773601Y-90532667D01*
X56725000Y-90523000D01*
X51877000Y-90523000D01*
X51877000Y-88290104D01*
X52889501Y-88290104D01*
X52926648Y-88505217D01*
X53354972Y-88648112D01*
X53805375Y-88616217D01*
X54073352Y-88505217D01*
X54110499Y-88290104D01*
X53500000Y-87679605D01*
X52889501Y-88290104D01*
X51877000Y-88290104D01*
X51877000Y-87354972D01*
X52351888Y-87354972D01*
X52383783Y-87805375D01*
X52494783Y-88073352D01*
X52709896Y-88110499D01*
X53320395Y-87500000D01*
X53679605Y-87500000D01*
X54290104Y-88110499D01*
X54505217Y-88073352D01*
X54648112Y-87645028D01*
X54616217Y-87194625D01*
X54505217Y-86926648D01*
X54290104Y-86889501D01*
X53679605Y-87500000D01*
X53320395Y-87500000D01*
X52709896Y-86889501D01*
X52494783Y-86926648D01*
X52351888Y-87354972D01*
X51877000Y-87354972D01*
X51877000Y-86709896D01*
X52889501Y-86709896D01*
X53500000Y-87320395D01*
X54110499Y-86709896D01*
X54073352Y-86494783D01*
X53645028Y-86351888D01*
X53194625Y-86383783D01*
X52926648Y-86494783D01*
X52889501Y-86709896D01*
X51877000Y-86709896D01*
X51877000Y-77794220D01*
X52030438Y-77947658D01*
X53308382Y-78477000D01*
X54691618Y-78477000D01*
X55969562Y-77947658D01*
X56428529Y-77488691D01*
X59097324Y-77488691D01*
X59097324Y-77826750D01*
X59256074Y-77985500D01*
X60105324Y-77985500D01*
X60105324Y-77138750D01*
X59946574Y-76980000D01*
X59606014Y-76980000D01*
X59372625Y-77076673D01*
X59193997Y-77255302D01*
X59097324Y-77488691D01*
X56428529Y-77488691D01*
X56947658Y-76969562D01*
X57353948Y-75988691D01*
X65615000Y-75988691D01*
X65615000Y-76326750D01*
X65773750Y-76485500D01*
X66623000Y-76485500D01*
X66623000Y-75638750D01*
X66877000Y-75638750D01*
X66877000Y-76485500D01*
X67726250Y-76485500D01*
X67750000Y-76461750D01*
X67773750Y-76485500D01*
X68623000Y-76485500D01*
X68623000Y-75638750D01*
X68877000Y-75638750D01*
X68877000Y-76485500D01*
X69726250Y-76485500D01*
X69885000Y-76326750D01*
X69885000Y-75988691D01*
X69788327Y-75755302D01*
X69609699Y-75576673D01*
X69376310Y-75480000D01*
X69035750Y-75480000D01*
X68877000Y-75638750D01*
X68623000Y-75638750D01*
X68464250Y-75480000D01*
X68123690Y-75480000D01*
X67890301Y-75576673D01*
X67750000Y-75716975D01*
X67609699Y-75576673D01*
X67376310Y-75480000D01*
X67035750Y-75480000D01*
X66877000Y-75638750D01*
X66623000Y-75638750D01*
X66464250Y-75480000D01*
X66123690Y-75480000D01*
X65890301Y-75576673D01*
X65711673Y-75755302D01*
X65615000Y-75988691D01*
X57353948Y-75988691D01*
X57477000Y-75691618D01*
X57477000Y-74308382D01*
X56947658Y-73030438D01*
X56794220Y-72877000D01*
X77623000Y-72877000D01*
X77623000Y-84873000D01*
G04 #@! TD*
M02*
