M48
;DRILL file {KiCad 5.0.0-rc3-6a2723a~65~ubuntu18.04.1} date Sat Jul 21 07:19:47 2018
;FORMAT={-:-/ absolute / metric / decimal}
FMAT,2
METRIC,TZ
T1C0.300
T2C1.000
T3C3.200
T4C2.500
%
G90
G05
M71
T1
X52.862Y-101.112
X55.65Y-103.5
X55.65Y-105.25
X55.65Y-107.
X55.65Y-108.75
X55.65Y-110.5
X56.392Y-95.5
X56.5Y-96.8
X56.859Y-94.2
X57.592Y-95.5
X58.75Y-89.
X59.25Y-102.
X59.375Y-97.05
X59.45Y-98.
X60.25Y-84.25
X62.25Y-95.
X62.41Y-105.25
X63.5Y-79.75
X64.14Y-93.25
X64.14Y-95.25
X64.14Y-97.25
X64.19Y-103.51
X64.2Y-107.
X64.2Y-108.75
X64.2Y-110.5
X64.5Y-86.75
X64.75Y-100.5
X64.75Y-101.83
X65.Y-91.5
X65.Y-99.5
X65.75Y-100.5
X65.75Y-101.83
X66.25Y-90.64
X66.75Y-79.5
X66.75Y-81.
X66.75Y-100.36
X67.5Y-82.75
X67.59Y-90.598
X67.75Y-89.75
X68.Y-107.4
X68.6Y-103.
X68.75Y-89.
X68.75Y-90.5
X69.542Y-89.467
X70.Y-88.5
X70.Y-107.387
X70.5Y-83.
X70.53Y-90.5
X71.Y-75.
X71.25Y-88.5
X71.4Y-115.2
X71.796Y-100.36
X72.Y-107.412
X72.25Y-83.
X72.25Y-90.64
X72.26Y-86.55
X73.Y-99.5
X73.05Y-85.75
X73.4Y-111.2
X73.75Y-91.64
X73.75Y-89.75
X73.86Y-97.25
X74.25Y-83.
X74.25Y-99.75
X74.5Y-96.
X75.5Y-96.
X76.Y-83.
X76.25Y-94.75
X76.25Y-96.75
X76.7Y-114.8
X77.Y-92.5
X77.5Y-80.25
X77.5Y-81.
X77.5Y-81.75
X77.5Y-95.25
X77.735Y-113.095
X77.75Y-99.75
X77.75Y-110.25
X78.Y-87.25
X78.11Y-96.75
X78.33Y-91.491
X80.14Y-92.75
X80.14Y-94.75
X80.9Y-115.2
X81.5Y-86.5
X82.Y-90.75
X82.9Y-111.2
X82.94Y-93.44
X82.94Y-95.5
X82.94Y-97.56
X84.179Y-90.75
X85.Y-93.44
X85.Y-95.5
X85.Y-97.56
X85.75Y-91.
X85.75Y-87.75
X86.055Y-115.105
X86.25Y-97.55
X86.5Y-90.25
X86.5Y-100.36
X86.85Y-113.2
X87.05Y-97.55
X87.05Y-96.75
X87.06Y-93.44
X87.06Y-95.5
X87.5Y-90.6
X87.7Y-111.95
X88.Y-100.36
X88.5Y-85.7
X88.75Y-83.25
X89.Y-108.
X89.25Y-114.
X89.75Y-100.75
X89.86Y-93.75
X89.86Y-96.75
X89.86Y-95.25
X90.86Y-108.
X91.5Y-99.25
X91.75Y-110.5
X92.2Y-88.35
X92.25Y-85.
X92.25Y-86.75
X93.5Y-108.
X94.5Y-108.
X94.65Y-95.65
X95.07Y-90.6
X95.75Y-79.75
X96.3Y-89.2
X96.3Y-95.65
X96.61Y-108.
X96.75Y-83.89
X96.95Y-90.6
X98.25Y-88.
X98.474Y-89.102
X99.25Y-104.25
X99.55Y-102.75
X100.25Y-88.
X100.25Y-89.
X100.25Y-107.25
X100.5Y-102.
X104.15Y-94.2
X106.8Y-89.1
X107.Y-102.
X107.Y-103.
X108.5Y-82.89
X108.5Y-84.75
X108.75Y-87.
X109.Y-102.
X109.Y-103.
X109.75Y-89.
X110.5Y-106.61
X110.55Y-93.
X110.965Y-104.535
X111.39Y-83.
X111.5Y-92.4
X111.61Y-89.
X112.05Y-96.6
X113.5Y-83.
X114.2Y-96.6
X114.5Y-83.
X115.Y-104.
X115.Y-105.75
X118.5Y-107.75
X72.267Y-78.75
X72.267Y-79.75
X73.267Y-78.75
X73.267Y-79.75
X66.46Y-92.96
X66.46Y-94.23
X66.46Y-95.5
X66.46Y-96.77
X66.46Y-98.04
X67.73Y-92.96
X67.73Y-94.23
X67.73Y-95.5
X67.73Y-96.77
X67.73Y-98.04
X69.Y-92.96
X69.Y-94.23
X69.Y-95.5
X69.Y-96.77
X69.Y-98.04
X70.27Y-92.96
X70.27Y-94.23
X70.27Y-95.5
X70.27Y-96.77
X70.27Y-98.04
X71.54Y-92.96
X71.54Y-94.23
X71.54Y-95.5
X71.54Y-96.77
X71.54Y-98.04
T2
X92.57Y-75.19
X92.57Y-77.73
X95.11Y-75.19
X95.11Y-77.73
X97.65Y-75.19
X97.65Y-77.73
X100.19Y-75.19
X100.19Y-77.73
X102.73Y-75.19
X102.73Y-77.73
X105.27Y-75.19
X105.27Y-77.73
X107.81Y-75.19
X107.81Y-77.73
X110.35Y-75.19
X110.35Y-77.73
X112.89Y-75.19
X112.89Y-77.73
X115.43Y-75.19
X115.43Y-77.73
X79.75Y-83.25
X82.29Y-83.25
X92.57Y-113.19
X92.57Y-115.73
X95.11Y-113.19
X95.11Y-115.73
X97.65Y-113.19
X97.65Y-115.73
X100.19Y-113.19
X100.19Y-115.73
X102.73Y-113.19
X102.73Y-115.73
X105.27Y-113.19
X105.27Y-115.73
X107.81Y-113.19
X107.81Y-115.73
X110.35Y-113.19
X110.35Y-115.73
X112.89Y-113.19
X112.89Y-115.73
X115.43Y-113.19
X115.43Y-115.73
T3
X126.Y-116.
X126.Y-75.
X54.Y-116.
X54.Y-75.
T4
X122.5Y-85.
X122.5Y-105.
T0
M30
