G04 #@! TF.GenerationSoftware,KiCad,Pcbnew,5.0.0-rc3-6a2723a~65~ubuntu18.04.1*
G04 #@! TF.CreationDate,2018-07-21T07:19:33+00:00*
G04 #@! TF.ProjectId,glasgow,676C6173676F772E6B696361645F7063,rev?*
G04 #@! TF.SameCoordinates,Original*
G04 #@! TF.FileFunction,Paste,Top*
G04 #@! TF.FilePolarity,Positive*
%FSLAX46Y46*%
G04 Gerber Fmt 4.6, Leading zero omitted, Abs format (unit mm)*
G04 Created by KiCad (PCBNEW 5.0.0-rc3-6a2723a~65~ubuntu18.04.1) date Sat Jul 21 07:19:33 2018*
%MOMM*%
%LPD*%
G01*
G04 APERTURE LIST*
%ADD10C,0.100000*%
%ADD11O,1.000000X0.280000*%
%ADD12O,0.280000X1.000000*%
%ADD13R,2.600000X2.600000*%
%ADD14R,0.800000X0.300000*%
%ADD15R,1.060000X0.650000*%
%ADD16R,0.400000X1.260000*%
%ADD17R,0.650000X2.400000*%
%ADD18R,0.300000X0.800000*%
%ADD19R,1.400000X1.200000*%
%ADD20R,0.820000X1.000000*%
%ADD21R,1.000000X0.995000*%
%ADD22R,1.450000X0.450000*%
%ADD23R,0.650000X1.060000*%
%ADD24R,0.995000X1.000000*%
%ADD25C,2.500000*%
%ADD26R,0.800000X0.800000*%
%ADD27R,0.240000X0.900000*%
%ADD28R,0.900000X0.240000*%
%ADD29R,0.700000X0.250000*%
%ADD30R,0.250000X0.700000*%
%ADD31R,0.830000X0.830000*%
%ADD32R,1.550000X0.600000*%
%ADD33R,1.380000X0.450000*%
%ADD34R,2.100000X1.475000*%
%ADD35R,1.900000X2.375000*%
%ADD36R,1.900000X1.175000*%
G04 APERTURE END LIST*
D10*
G36*
X72560000Y-79350000D02*
X72960000Y-79350000D01*
X72960000Y-79950000D01*
X72560000Y-79950000D01*
X72560000Y-79350000D01*
G37*
D11*
G04 #@! TO.C,U1*
X65000000Y-92250000D03*
X65000000Y-92750000D03*
X65000000Y-93250000D03*
X65000000Y-93750000D03*
X65000000Y-94250000D03*
X65000000Y-94750000D03*
X65000000Y-95250000D03*
X65000000Y-95750000D03*
X65000000Y-96250000D03*
X65000000Y-96750000D03*
X65000000Y-97250000D03*
X65000000Y-97750000D03*
X65000000Y-98250000D03*
X65000000Y-98750000D03*
D12*
X65750000Y-99500000D03*
X66250000Y-99500000D03*
X66750000Y-99500000D03*
X67250000Y-99500000D03*
X67750000Y-99500000D03*
X68250000Y-99500000D03*
X68750000Y-99500000D03*
X69250000Y-99500000D03*
X69750000Y-99500000D03*
X70250000Y-99500000D03*
X70750000Y-99500000D03*
X71250000Y-99500000D03*
X71750000Y-99500000D03*
X72250000Y-99500000D03*
D11*
X73000000Y-98750000D03*
X73000000Y-98250000D03*
X73000000Y-97750000D03*
X73000000Y-97250000D03*
X73000000Y-96750000D03*
X73000000Y-96250000D03*
X73000000Y-95750000D03*
X73000000Y-95250000D03*
X73000000Y-94750000D03*
X73000000Y-94250000D03*
X73000000Y-93750000D03*
X73000000Y-93250000D03*
X73000000Y-92750000D03*
X73000000Y-92250000D03*
D12*
X72250000Y-91500000D03*
X71750000Y-91500000D03*
X71250000Y-91500000D03*
X70750000Y-91500000D03*
X70250000Y-91500000D03*
X69750000Y-91500000D03*
X69250000Y-91500000D03*
X68750000Y-91500000D03*
X68250000Y-91500000D03*
X67750000Y-91500000D03*
X67250000Y-91500000D03*
X66750000Y-91500000D03*
X66250000Y-91500000D03*
X65750000Y-91500000D03*
D13*
X67445000Y-97055000D03*
X70555000Y-97055000D03*
X67445000Y-93945000D03*
X70555000Y-93945000D03*
G04 #@! TD*
D14*
G04 #@! TO.C,RN3*
X100250000Y-94250000D03*
X100250000Y-93250000D03*
X100250000Y-93750000D03*
X100250000Y-92750000D03*
X100250000Y-92250000D03*
X100250000Y-91750000D03*
X98450000Y-94250000D03*
X98450000Y-93750000D03*
X98450000Y-93250000D03*
X98450000Y-92750000D03*
X98450000Y-92250000D03*
X98450000Y-91750000D03*
X100250000Y-94750000D03*
X98450000Y-94750000D03*
X100250000Y-91250000D03*
X98450000Y-91250000D03*
G04 #@! TD*
G04 #@! TO.C,RN4*
X98450000Y-96250000D03*
X100250000Y-96250000D03*
X98450000Y-99750000D03*
X100250000Y-99750000D03*
X98450000Y-96750000D03*
X98450000Y-97250000D03*
X98450000Y-97750000D03*
X98450000Y-98250000D03*
X98450000Y-98750000D03*
X98450000Y-99250000D03*
X100250000Y-96750000D03*
X100250000Y-97250000D03*
X100250000Y-97750000D03*
X100250000Y-98750000D03*
X100250000Y-98250000D03*
X100250000Y-99250000D03*
G04 #@! TD*
D15*
G04 #@! TO.C,U15*
X58300000Y-98000000D03*
X58300000Y-98950000D03*
X58300000Y-97050000D03*
X60500000Y-97050000D03*
X60500000Y-98000000D03*
X60500000Y-98950000D03*
G04 #@! TD*
D16*
G04 #@! TO.C,U8*
X73741581Y-81650000D03*
X73091581Y-81650000D03*
X72441581Y-76850000D03*
X73091581Y-76850000D03*
X72441581Y-81650000D03*
X71791581Y-76850000D03*
X73741581Y-76850000D03*
X71791581Y-81650000D03*
D17*
X72766581Y-79250000D03*
X71741581Y-79250000D03*
X73791581Y-79250000D03*
G04 #@! TD*
D18*
G04 #@! TO.C,RN2*
X102500000Y-107650000D03*
X103500000Y-107650000D03*
X103000000Y-107650000D03*
X104000000Y-107650000D03*
X104500000Y-107650000D03*
X105000000Y-107650000D03*
X102500000Y-105850000D03*
X103000000Y-105850000D03*
X103500000Y-105850000D03*
X104000000Y-105850000D03*
X104500000Y-105850000D03*
X105000000Y-105850000D03*
X102000000Y-107650000D03*
X102000000Y-105850000D03*
X105500000Y-107650000D03*
X105500000Y-105850000D03*
G04 #@! TD*
G04 #@! TO.C,RN1*
X101750000Y-85150000D03*
X101750000Y-83350000D03*
X105250000Y-85150000D03*
X105250000Y-83350000D03*
X102250000Y-85150000D03*
X102750000Y-85150000D03*
X103250000Y-85150000D03*
X103750000Y-85150000D03*
X104250000Y-85150000D03*
X104750000Y-85150000D03*
X102250000Y-83350000D03*
X102750000Y-83350000D03*
X103250000Y-83350000D03*
X104250000Y-83350000D03*
X103750000Y-83350000D03*
X104750000Y-83350000D03*
G04 #@! TD*
D19*
G04 #@! TO.C,Y1*
X59400000Y-91150000D03*
X61600000Y-91150000D03*
X61600000Y-92850000D03*
X59400000Y-92850000D03*
G04 #@! TD*
D20*
G04 #@! TO.C,D5*
X57950000Y-110500000D03*
X56350000Y-110500000D03*
G04 #@! TD*
G04 #@! TO.C,D4*
X57950000Y-108750000D03*
X56350000Y-108750000D03*
G04 #@! TD*
G04 #@! TO.C,D3*
X57950000Y-107000000D03*
X56350000Y-107000000D03*
G04 #@! TD*
G04 #@! TO.C,D2*
X57950000Y-105250000D03*
X56350000Y-105250000D03*
G04 #@! TD*
G04 #@! TO.C,D1*
X57950000Y-103500000D03*
X56350000Y-103500000D03*
G04 #@! TD*
D21*
G04 #@! TO.C,C44*
X110500000Y-105612500D03*
X110500000Y-107387500D03*
G04 #@! TD*
G04 #@! TO.C,C37*
X96750000Y-83112500D03*
X96750000Y-84887500D03*
G04 #@! TD*
D22*
G04 #@! TO.C,U12*
X117200000Y-103775000D03*
X117200000Y-104425000D03*
X117200000Y-105075000D03*
X117200000Y-105725000D03*
X112800000Y-105725000D03*
X112800000Y-105075000D03*
X112800000Y-104425000D03*
X112800000Y-103775000D03*
G04 #@! TD*
G04 #@! TO.C,U9*
X94450000Y-86975000D03*
X94450000Y-86325000D03*
X94450000Y-85675000D03*
X94450000Y-85025000D03*
X90050000Y-85025000D03*
X90050000Y-85675000D03*
X90050000Y-86325000D03*
X90050000Y-86975000D03*
G04 #@! TD*
D23*
G04 #@! TO.C,U11*
X112450000Y-84100000D03*
X110550000Y-84100000D03*
X110550000Y-81900000D03*
X111500000Y-81900000D03*
X112450000Y-81900000D03*
G04 #@! TD*
G04 #@! TO.C,U14*
X95550000Y-106900000D03*
X97450000Y-106900000D03*
X97450000Y-109100000D03*
X96500000Y-109100000D03*
X95550000Y-109100000D03*
G04 #@! TD*
G04 #@! TO.C,U13*
X91700000Y-106900000D03*
X90750000Y-106900000D03*
X89800000Y-106900000D03*
X89800000Y-109100000D03*
X91700000Y-109100000D03*
X90750000Y-109100000D03*
G04 #@! TD*
G04 #@! TO.C,U10*
X112450000Y-87900000D03*
X111500000Y-87900000D03*
X110550000Y-87900000D03*
X110550000Y-90100000D03*
X112450000Y-90100000D03*
X111500000Y-90100000D03*
G04 #@! TD*
D24*
G04 #@! TO.C,R24*
X110637500Y-86000000D03*
X108862500Y-86000000D03*
G04 #@! TD*
D21*
G04 #@! TO.C,R18*
X108500000Y-82112500D03*
X108500000Y-83887500D03*
G04 #@! TD*
D24*
G04 #@! TO.C,R20*
X94887500Y-83250000D03*
X93112500Y-83250000D03*
G04 #@! TD*
G04 #@! TO.C,R21*
X89612500Y-83250000D03*
X91387500Y-83250000D03*
G04 #@! TD*
D21*
G04 #@! TO.C,R22*
X114500000Y-88112500D03*
X114500000Y-89887500D03*
G04 #@! TD*
G04 #@! TO.C,R19*
X99500000Y-107112500D03*
X99500000Y-108887500D03*
G04 #@! TD*
D24*
G04 #@! TO.C,R23*
X114137500Y-86000000D03*
X112362500Y-86000000D03*
G04 #@! TD*
G04 #@! TO.C,R25*
X114137500Y-107496000D03*
X112362500Y-107496000D03*
G04 #@! TD*
G04 #@! TO.C,R26*
X115862500Y-107496000D03*
X117637500Y-107496000D03*
G04 #@! TD*
G04 #@! TO.C,R27*
X91637500Y-105000000D03*
X89862500Y-105000000D03*
G04 #@! TD*
G04 #@! TO.C,R28*
X95637500Y-105000000D03*
X93862500Y-105000000D03*
G04 #@! TD*
G04 #@! TO.C,R29*
X97362500Y-105000000D03*
X99137500Y-105000000D03*
G04 #@! TD*
D25*
G04 #@! TO.C,MK5*
X122500000Y-105000000D03*
G04 #@! TD*
G04 #@! TO.C,MK6*
X122500000Y-85000000D03*
G04 #@! TD*
D24*
G04 #@! TO.C,R17*
X75112500Y-99750000D03*
X76887500Y-99750000D03*
G04 #@! TD*
G04 #@! TO.C,R12*
X63187500Y-103500000D03*
X61412500Y-103500000D03*
G04 #@! TD*
G04 #@! TO.C,R14*
X61412500Y-107000000D03*
X63187500Y-107000000D03*
G04 #@! TD*
G04 #@! TO.C,R15*
X63187500Y-108750000D03*
X61412500Y-108750000D03*
G04 #@! TD*
G04 #@! TO.C,R16*
X61412500Y-110500000D03*
X63187500Y-110500000D03*
G04 #@! TD*
G04 #@! TO.C,R13*
X63187500Y-105250000D03*
X61412500Y-105250000D03*
G04 #@! TD*
D21*
G04 #@! TO.C,R11*
X72000000Y-104712500D03*
X72000000Y-106487500D03*
G04 #@! TD*
D24*
G04 #@! TO.C,R10*
X84137500Y-86500000D03*
X82362500Y-86500000D03*
G04 #@! TD*
G04 #@! TO.C,R9*
X77112500Y-96750000D03*
X78887500Y-96750000D03*
G04 #@! TD*
D21*
G04 #@! TO.C,R7*
X66750000Y-76612500D03*
X66750000Y-78387500D03*
G04 #@! TD*
D24*
G04 #@! TO.C,C27*
X72275000Y-84000000D03*
X70500000Y-84000000D03*
G04 #@! TD*
G04 #@! TO.C,C28*
X76000000Y-84000000D03*
X74225000Y-84000000D03*
G04 #@! TD*
G04 #@! TO.C,C26*
X73637500Y-75000000D03*
X71862500Y-75000000D03*
G04 #@! TD*
D15*
G04 #@! TO.C,U7*
X62400000Y-78800000D03*
X62400000Y-79750000D03*
X62400000Y-80700000D03*
X64600000Y-80700000D03*
X64600000Y-78800000D03*
X64600000Y-79750000D03*
G04 #@! TD*
D24*
G04 #@! TO.C,R4*
X64612500Y-82750000D03*
X66387500Y-82750000D03*
G04 #@! TD*
D21*
G04 #@! TO.C,R5*
X60232324Y-78112500D03*
X60232324Y-79887500D03*
G04 #@! TD*
G04 #@! TO.C,R6*
X60232324Y-83387500D03*
X60232324Y-81612500D03*
G04 #@! TD*
G04 #@! TO.C,R8*
X68750000Y-78387500D03*
X68750000Y-76612500D03*
G04 #@! TD*
D26*
G04 #@! TO.C,U5*
X102550000Y-88500000D03*
X104450000Y-88500000D03*
X103500000Y-88500000D03*
D27*
X105250000Y-87200000D03*
X104750000Y-87200000D03*
X104250000Y-87200000D03*
X103750000Y-87200000D03*
X103250000Y-87200000D03*
X102750000Y-87200000D03*
X102250000Y-87200000D03*
X101750000Y-87200000D03*
X105250000Y-89800000D03*
X104750000Y-89800000D03*
X104250000Y-89800000D03*
X103750000Y-89800000D03*
X103250000Y-89800000D03*
X102750000Y-89800000D03*
X102250000Y-89800000D03*
X101750000Y-89800000D03*
D28*
X105800000Y-88250000D03*
X105800000Y-88750000D03*
X101200000Y-88250000D03*
X101200000Y-88750000D03*
G04 #@! TD*
G04 #@! TO.C,U6*
X106050000Y-102250000D03*
X106050000Y-102750000D03*
X101450000Y-102250000D03*
X101450000Y-102750000D03*
D27*
X105500000Y-101200000D03*
X105000000Y-101200000D03*
X104500000Y-101200000D03*
X104000000Y-101200000D03*
X103500000Y-101200000D03*
X103000000Y-101200000D03*
X102500000Y-101200000D03*
X102000000Y-101200000D03*
X105500000Y-103800000D03*
X105000000Y-103800000D03*
X104500000Y-103800000D03*
X104000000Y-103800000D03*
X103500000Y-103800000D03*
X103000000Y-103800000D03*
X102500000Y-103800000D03*
X102000000Y-103800000D03*
D26*
X103750000Y-102500000D03*
X102800000Y-102500000D03*
X104700000Y-102500000D03*
G04 #@! TD*
D29*
G04 #@! TO.C,U4*
X81600000Y-92750000D03*
X81600000Y-93250000D03*
X81600000Y-93750000D03*
X81600000Y-94250000D03*
X81600000Y-94750000D03*
X81600000Y-95250000D03*
X81600000Y-95750000D03*
X81600000Y-96250000D03*
X81600000Y-96750000D03*
X81600000Y-97250000D03*
X81600000Y-97750000D03*
X81600000Y-98250000D03*
D30*
X82250000Y-98900000D03*
X82750000Y-98900000D03*
X83250000Y-98900000D03*
X83750000Y-98900000D03*
X84250000Y-98900000D03*
X84750000Y-98900000D03*
X85250000Y-98900000D03*
X85750000Y-98900000D03*
X86250000Y-98900000D03*
X86750000Y-98900000D03*
X87250000Y-98900000D03*
X87750000Y-98900000D03*
D29*
X88400000Y-98250000D03*
X88400000Y-97750000D03*
X88400000Y-97250000D03*
X88400000Y-96750000D03*
X88400000Y-96250000D03*
X88400000Y-95750000D03*
X88400000Y-95250000D03*
X88400000Y-94750000D03*
X88400000Y-94250000D03*
X88400000Y-93750000D03*
X88400000Y-93250000D03*
X88400000Y-92750000D03*
D30*
X87750000Y-92100000D03*
X87250000Y-92100000D03*
X86750000Y-92100000D03*
X86250000Y-92100000D03*
X85750000Y-92100000D03*
X85250000Y-92100000D03*
X84750000Y-92100000D03*
X84250000Y-92100000D03*
X83750000Y-92100000D03*
X83250000Y-92100000D03*
X82750000Y-92100000D03*
X82250000Y-92100000D03*
D31*
X87060000Y-97560000D03*
X86030000Y-97560000D03*
X85000000Y-97560000D03*
X83970000Y-97560000D03*
X82940000Y-97560000D03*
X82940000Y-96530000D03*
X83970000Y-96530000D03*
X85000000Y-96530000D03*
X86030000Y-96530000D03*
X87060000Y-96530000D03*
X82940000Y-95500000D03*
X83970000Y-95500000D03*
X85000000Y-95500000D03*
X86030000Y-95500000D03*
X87060000Y-95500000D03*
X82940000Y-94470000D03*
X83970000Y-94470000D03*
X85000000Y-94470000D03*
X86030000Y-94470000D03*
X87060000Y-94470000D03*
X82940000Y-93440000D03*
X83970000Y-93440000D03*
X85000000Y-93440000D03*
X86030000Y-93440000D03*
X87060000Y-93440000D03*
G04 #@! TD*
D32*
G04 #@! TO.C,U2*
X69700000Y-115105000D03*
X69700000Y-113835000D03*
X69700000Y-112565000D03*
X69700000Y-111295000D03*
X75100000Y-111295000D03*
X75100000Y-112565000D03*
X75100000Y-113835000D03*
X75100000Y-115105000D03*
G04 #@! TD*
D33*
G04 #@! TO.C,J1*
X55310000Y-94200000D03*
X55310000Y-94850000D03*
X55310000Y-95500000D03*
X55310000Y-96150000D03*
X55310000Y-96800000D03*
D34*
X54950000Y-93037500D03*
X54950000Y-97962500D03*
D35*
X52650000Y-92590000D03*
X52650000Y-98410000D03*
D36*
X52650000Y-94660000D03*
X52650000Y-96340000D03*
G04 #@! TD*
D24*
G04 #@! TO.C,C13*
X59137500Y-101000000D03*
X57362500Y-101000000D03*
G04 #@! TD*
G04 #@! TO.C,C12*
X59612500Y-95000000D03*
X61387500Y-95000000D03*
G04 #@! TD*
G04 #@! TO.C,C11*
X59612500Y-89000000D03*
X61387500Y-89000000D03*
G04 #@! TD*
G04 #@! TO.C,R3*
X55637500Y-101000000D03*
X53862500Y-101000000D03*
G04 #@! TD*
D21*
G04 #@! TO.C,R1*
X70000000Y-106487500D03*
X70000000Y-104712500D03*
G04 #@! TD*
G04 #@! TO.C,R2*
X68000000Y-104712500D03*
X68000000Y-106487500D03*
G04 #@! TD*
D32*
G04 #@! TO.C,U3*
X84600000Y-115105000D03*
X84600000Y-113835000D03*
X84600000Y-112565000D03*
X84600000Y-111295000D03*
X79200000Y-111295000D03*
X79200000Y-112565000D03*
X79200000Y-113835000D03*
X79200000Y-115105000D03*
G04 #@! TD*
M02*
