G04 #@! TF.GenerationSoftware,KiCad,Pcbnew,5.0.0-rc3-6a2723a~65~ubuntu18.04.1*
G04 #@! TF.CreationDate,2018-07-21T07:19:33+00:00*
G04 #@! TF.ProjectId,glasgow,676C6173676F772E6B696361645F7063,rev?*
G04 #@! TF.SameCoordinates,Original*
G04 #@! TF.FileFunction,Paste,Bot*
G04 #@! TF.FilePolarity,Positive*
%FSLAX46Y46*%
G04 Gerber Fmt 4.6, Leading zero omitted, Abs format (unit mm)*
G04 Created by KiCad (PCBNEW 5.0.0-rc3-6a2723a~65~ubuntu18.04.1) date Sat Jul 21 07:19:33 2018*
%MOMM*%
%LPD*%
G01*
G04 APERTURE LIST*
%ADD10R,1.000000X0.995000*%
%ADD11R,0.995000X1.000000*%
%ADD12C,2.500000*%
G04 APERTURE END LIST*
D10*
G04 #@! TO.C,C8*
X58450000Y-97037500D03*
X58450000Y-98812500D03*
G04 #@! TD*
D11*
G04 #@! TO.C,C30*
X100137500Y-89750000D03*
X98362500Y-89750000D03*
G04 #@! TD*
D10*
G04 #@! TO.C,R30*
X92250000Y-96887500D03*
X92250000Y-95112500D03*
G04 #@! TD*
G04 #@! TO.C,C34*
X93250000Y-86887500D03*
X93250000Y-85112500D03*
G04 #@! TD*
G04 #@! TO.C,C35*
X91250000Y-85112500D03*
X91250000Y-86887500D03*
G04 #@! TD*
D11*
G04 #@! TO.C,C36*
X110612500Y-89000000D03*
X112387500Y-89000000D03*
G04 #@! TD*
G04 #@! TO.C,C38*
X112387500Y-83000000D03*
X110612500Y-83000000D03*
G04 #@! TD*
G04 #@! TO.C,C47*
X108887500Y-103750000D03*
X107112500Y-103750000D03*
G04 #@! TD*
G04 #@! TO.C,C46*
X107112500Y-105500000D03*
X108887500Y-105500000D03*
G04 #@! TD*
G04 #@! TO.C,C45*
X95612500Y-108000000D03*
X97387500Y-108000000D03*
G04 #@! TD*
G04 #@! TO.C,C43*
X91637500Y-108000000D03*
X89862500Y-108000000D03*
G04 #@! TD*
D10*
G04 #@! TO.C,C42*
X116000000Y-105637500D03*
X116000000Y-103862500D03*
G04 #@! TD*
G04 #@! TO.C,C41*
X114000000Y-103862500D03*
X114000000Y-105637500D03*
G04 #@! TD*
D11*
G04 #@! TO.C,C40*
X100137500Y-87250000D03*
X98362500Y-87250000D03*
G04 #@! TD*
G04 #@! TO.C,C39*
X100137500Y-85450000D03*
X98362500Y-85450000D03*
G04 #@! TD*
D12*
G04 #@! TO.C,MK5*
X122500000Y-105000000D03*
G04 #@! TD*
G04 #@! TO.C,MK6*
X122500000Y-85000000D03*
G04 #@! TD*
D11*
G04 #@! TO.C,C33*
X89612500Y-98500000D03*
X91387500Y-98500000D03*
G04 #@! TD*
G04 #@! TO.C,C31*
X108887500Y-101250000D03*
X107112500Y-101250000D03*
G04 #@! TD*
G04 #@! TO.C,C32*
X107112500Y-99500000D03*
X108887500Y-99500000D03*
G04 #@! TD*
G04 #@! TO.C,C29*
X98362500Y-91500000D03*
X100137500Y-91500000D03*
G04 #@! TD*
G04 #@! TO.C,C22*
X79362500Y-92750000D03*
X81137500Y-92750000D03*
G04 #@! TD*
G04 #@! TO.C,C25*
X81137500Y-94750000D03*
X79362500Y-94750000D03*
G04 #@! TD*
G04 #@! TO.C,C24*
X90637500Y-95250000D03*
X88862500Y-95250000D03*
G04 #@! TD*
G04 #@! TO.C,C23*
X88862500Y-93750000D03*
X90637500Y-93750000D03*
G04 #@! TD*
G04 #@! TO.C,C19*
X89612500Y-100000000D03*
X91387500Y-100000000D03*
G04 #@! TD*
D10*
G04 #@! TO.C,C20*
X88000000Y-99362500D03*
X88000000Y-101137500D03*
G04 #@! TD*
G04 #@! TO.C,C21*
X86500000Y-101137500D03*
X86500000Y-99362500D03*
G04 #@! TD*
D11*
G04 #@! TO.C,C16*
X82787500Y-112450000D03*
X81012500Y-112450000D03*
G04 #@! TD*
G04 #@! TO.C,C18*
X90637500Y-96750000D03*
X88862500Y-96750000D03*
G04 #@! TD*
G04 #@! TO.C,C17*
X82787500Y-113950000D03*
X81012500Y-113950000D03*
G04 #@! TD*
D10*
G04 #@! TO.C,C1*
X74750000Y-89862500D03*
X74750000Y-91637500D03*
G04 #@! TD*
D11*
G04 #@! TO.C,C15*
X73287500Y-113950000D03*
X71512500Y-113950000D03*
G04 #@! TD*
G04 #@! TO.C,C14*
X71512500Y-112450000D03*
X73287500Y-112450000D03*
G04 #@! TD*
D10*
G04 #@! TO.C,C10*
X71750000Y-101137500D03*
X71750000Y-99362500D03*
G04 #@! TD*
G04 #@! TO.C,C9*
X66250000Y-91637500D03*
X66250000Y-89862500D03*
G04 #@! TD*
G04 #@! TO.C,C7*
X72250000Y-91637500D03*
X72250000Y-89862500D03*
G04 #@! TD*
D11*
G04 #@! TO.C,C6*
X74637500Y-97250000D03*
X72862500Y-97250000D03*
G04 #@! TD*
G04 #@! TO.C,C5*
X65137500Y-93250000D03*
X63362500Y-93250000D03*
G04 #@! TD*
G04 #@! TO.C,C4*
X63362500Y-95250000D03*
X65137500Y-95250000D03*
G04 #@! TD*
G04 #@! TO.C,C3*
X65137500Y-97250000D03*
X63362500Y-97250000D03*
G04 #@! TD*
D10*
G04 #@! TO.C,C2*
X66750000Y-101137500D03*
X66750000Y-99362500D03*
G04 #@! TD*
M02*
