G04 #@! TF.GenerationSoftware,KiCad,Pcbnew,5.0.0-rc3-6a2723a~65~ubuntu18.04.1*
G04 #@! TF.CreationDate,2018-07-21T07:19:33+00:00*
G04 #@! TF.ProjectId,glasgow,676C6173676F772E6B696361645F7063,rev?*
G04 #@! TF.SameCoordinates,Original*
G04 #@! TF.FileFunction,Soldermask,Top*
G04 #@! TF.FilePolarity,Negative*
%FSLAX46Y46*%
G04 Gerber Fmt 4.6, Leading zero omitted, Abs format (unit mm)*
G04 Created by KiCad (PCBNEW 5.0.0-rc3-6a2723a~65~ubuntu18.04.1) date Sat Jul 21 07:19:33 2018*
%MOMM*%
%LPD*%
G01*
G04 APERTURE LIST*
%ADD10C,0.200000*%
%ADD11C,0.863600*%
%ADD12C,0.100000*%
G04 APERTURE END LIST*
D10*
G04 #@! TO.C,U1*
X69300000Y-95500000D02*
G75*
G03X69300000Y-95500000I-300000J0D01*
G01*
D11*
X67095000Y-92960000D02*
X67095000Y-98040000D01*
X68365000Y-92960000D02*
X68365000Y-98040000D01*
X69635000Y-92960000D02*
X69635000Y-98040000D01*
X70905000Y-92960000D02*
X70905000Y-98040000D01*
X66460000Y-97405000D02*
X71540000Y-97405000D01*
X66460000Y-96135000D02*
X71540000Y-96135000D01*
X66460000Y-94865000D02*
X71540000Y-94865000D01*
X66460000Y-93595000D02*
X71540000Y-93595000D01*
D12*
G36*
X72110000Y-92390000D02*
X72110000Y-92750000D01*
X65890000Y-92750000D01*
X65890000Y-92390000D01*
X72110000Y-92390000D01*
G37*
G36*
X65890000Y-92390000D02*
X66250000Y-92390000D01*
X66250000Y-98610000D01*
X65890000Y-98610000D01*
X65890000Y-92390000D01*
G37*
G36*
X65890000Y-98610000D02*
X65890000Y-98250000D01*
X72110000Y-98250000D01*
X72110000Y-98610000D01*
X65890000Y-98610000D01*
G37*
G36*
X72110000Y-98610000D02*
X71750000Y-98610000D01*
X71750000Y-92390000D01*
X72110000Y-92390000D01*
X72110000Y-98610000D01*
G37*
D10*
X70570000Y-95500000D02*
G75*
G03X70570000Y-95500000I-300000J0D01*
G01*
X71840000Y-95500000D02*
G75*
G03X71840000Y-95500000I-300000J0D01*
G01*
X68030000Y-95500000D02*
G75*
G03X68030000Y-95500000I-300000J0D01*
G01*
X66760000Y-95500000D02*
G75*
G03X66760000Y-95500000I-300000J0D01*
G01*
X66760000Y-94230000D02*
G75*
G03X66760000Y-94230000I-300000J0D01*
G01*
X68030000Y-94230000D02*
G75*
G03X68030000Y-94230000I-300000J0D01*
G01*
X69300000Y-94230000D02*
G75*
G03X69300000Y-94230000I-300000J0D01*
G01*
X70570000Y-94230000D02*
G75*
G03X70570000Y-94230000I-300000J0D01*
G01*
X71840000Y-94230000D02*
G75*
G03X71840000Y-94230000I-300000J0D01*
G01*
X71840000Y-92960000D02*
G75*
G03X71840000Y-92960000I-300000J0D01*
G01*
X70570000Y-92960000D02*
G75*
G03X70570000Y-92960000I-300000J0D01*
G01*
X69300000Y-92960000D02*
G75*
G03X69300000Y-92960000I-300000J0D01*
G01*
X68030000Y-92960000D02*
G75*
G03X68030000Y-92960000I-300000J0D01*
G01*
X66760000Y-92960000D02*
G75*
G03X66760000Y-92960000I-300000J0D01*
G01*
X66760000Y-96770000D02*
G75*
G03X66760000Y-96770000I-300000J0D01*
G01*
X68030000Y-96770000D02*
G75*
G03X68030000Y-96770000I-300000J0D01*
G01*
X69300000Y-96770000D02*
G75*
G03X69300000Y-96770000I-300000J0D01*
G01*
X70570000Y-96770000D02*
G75*
G03X70570000Y-96770000I-300000J0D01*
G01*
X71840000Y-96770000D02*
G75*
G03X71840000Y-96770000I-300000J0D01*
G01*
X71840000Y-98040000D02*
G75*
G03X71840000Y-98040000I-300000J0D01*
G01*
X70570000Y-98040000D02*
G75*
G03X70570000Y-98040000I-300000J0D01*
G01*
X69300000Y-98040000D02*
G75*
G03X69300000Y-98040000I-300000J0D01*
G01*
X68030000Y-98040000D02*
G75*
G03X68030000Y-98040000I-300000J0D01*
G01*
X66760000Y-98040000D02*
G75*
G03X66760000Y-98040000I-300000J0D01*
G01*
D12*
G36*
X126933402Y-112922974D02*
X126933404Y-112922975D01*
X126933405Y-112922975D01*
X127175783Y-113023371D01*
X127515770Y-113164198D01*
X128039880Y-113514397D01*
X128485603Y-113960120D01*
X128835802Y-114484230D01*
X129077026Y-115066598D01*
X129200000Y-115684825D01*
X129200000Y-116315175D01*
X129077026Y-116933402D01*
X128835802Y-117515770D01*
X128485603Y-118039880D01*
X128039880Y-118485603D01*
X127515770Y-118835802D01*
X127515769Y-118835803D01*
X127515768Y-118835803D01*
X126933405Y-119077025D01*
X126933404Y-119077025D01*
X126933402Y-119077026D01*
X126315175Y-119200000D01*
X125684825Y-119200000D01*
X125066598Y-119077026D01*
X125066596Y-119077025D01*
X125066595Y-119077025D01*
X124484232Y-118835803D01*
X124484231Y-118835803D01*
X124484230Y-118835802D01*
X123960120Y-118485603D01*
X123514397Y-118039880D01*
X123164198Y-117515770D01*
X122922974Y-116933402D01*
X122800000Y-116315175D01*
X122800000Y-115684825D01*
X122922974Y-115066598D01*
X123164198Y-114484230D01*
X123514397Y-113960120D01*
X123960120Y-113514397D01*
X124484230Y-113164198D01*
X124824217Y-113023371D01*
X125066595Y-112922975D01*
X125066596Y-112922975D01*
X125066598Y-112922974D01*
X125684825Y-112800000D01*
X126315175Y-112800000D01*
X126933402Y-112922974D01*
X126933402Y-112922974D01*
G37*
G36*
X54933402Y-112922974D02*
X54933404Y-112922975D01*
X54933405Y-112922975D01*
X55175783Y-113023371D01*
X55515770Y-113164198D01*
X56039880Y-113514397D01*
X56485603Y-113960120D01*
X56835802Y-114484230D01*
X57077026Y-115066598D01*
X57200000Y-115684825D01*
X57200000Y-116315175D01*
X57077026Y-116933402D01*
X56835802Y-117515770D01*
X56485603Y-118039880D01*
X56039880Y-118485603D01*
X55515770Y-118835802D01*
X55515769Y-118835803D01*
X55515768Y-118835803D01*
X54933405Y-119077025D01*
X54933404Y-119077025D01*
X54933402Y-119077026D01*
X54315175Y-119200000D01*
X53684825Y-119200000D01*
X53066598Y-119077026D01*
X53066596Y-119077025D01*
X53066595Y-119077025D01*
X52484232Y-118835803D01*
X52484231Y-118835803D01*
X52484230Y-118835802D01*
X51960120Y-118485603D01*
X51514397Y-118039880D01*
X51164198Y-117515770D01*
X50922974Y-116933402D01*
X50800000Y-116315175D01*
X50800000Y-115684825D01*
X50922974Y-115066598D01*
X51164198Y-114484230D01*
X51514397Y-113960120D01*
X51960120Y-113514397D01*
X52484230Y-113164198D01*
X52824217Y-113023371D01*
X53066595Y-112922975D01*
X53066596Y-112922975D01*
X53066598Y-112922974D01*
X53684825Y-112800000D01*
X54315175Y-112800000D01*
X54933402Y-112922974D01*
X54933402Y-112922974D01*
G37*
G36*
X60468763Y-115278821D02*
X60468764Y-115278821D01*
X60468767Y-115278822D01*
X60605258Y-115335359D01*
X60605260Y-115335360D01*
X60709484Y-115405000D01*
X60728097Y-115417437D01*
X60832563Y-115521903D01*
X60914641Y-115644742D01*
X60971178Y-115781233D01*
X61000000Y-115926131D01*
X61000000Y-116073869D01*
X60971178Y-116218767D01*
X60931245Y-116315172D01*
X60914640Y-116355260D01*
X60832564Y-116478096D01*
X60728096Y-116582564D01*
X60605260Y-116664640D01*
X60605259Y-116664641D01*
X60605258Y-116664641D01*
X60468767Y-116721178D01*
X60468764Y-116721179D01*
X60468763Y-116721179D01*
X60323871Y-116750000D01*
X60176129Y-116750000D01*
X60031237Y-116721179D01*
X60031236Y-116721179D01*
X60031233Y-116721178D01*
X59894742Y-116664641D01*
X59894741Y-116664641D01*
X59894740Y-116664640D01*
X59771904Y-116582564D01*
X59667436Y-116478096D01*
X59585360Y-116355260D01*
X59568755Y-116315172D01*
X59528822Y-116218767D01*
X59500000Y-116073869D01*
X59500000Y-115926131D01*
X59528822Y-115781233D01*
X59585359Y-115644742D01*
X59667437Y-115521903D01*
X59771903Y-115417437D01*
X59790516Y-115405000D01*
X59894740Y-115335360D01*
X59894742Y-115335359D01*
X60031233Y-115278822D01*
X60031236Y-115278821D01*
X60031237Y-115278821D01*
X60176129Y-115250000D01*
X60323871Y-115250000D01*
X60468763Y-115278821D01*
X60468763Y-115278821D01*
G37*
G36*
X110516629Y-114892299D02*
X110676855Y-114940903D01*
X110824519Y-115019830D01*
X110953948Y-115126052D01*
X111060170Y-115255481D01*
X111139097Y-115403145D01*
X111187701Y-115563371D01*
X111204113Y-115730000D01*
X111187701Y-115896629D01*
X111139097Y-116056855D01*
X111060170Y-116204519D01*
X110953948Y-116333948D01*
X110824519Y-116440170D01*
X110676855Y-116519097D01*
X110516629Y-116567701D01*
X110391756Y-116580000D01*
X110308244Y-116580000D01*
X110183371Y-116567701D01*
X110023145Y-116519097D01*
X109875481Y-116440170D01*
X109746052Y-116333948D01*
X109639830Y-116204519D01*
X109560903Y-116056855D01*
X109512299Y-115896629D01*
X109495887Y-115730000D01*
X109512299Y-115563371D01*
X109560903Y-115403145D01*
X109639830Y-115255481D01*
X109746052Y-115126052D01*
X109875481Y-115019830D01*
X110023145Y-114940903D01*
X110183371Y-114892299D01*
X110308244Y-114880000D01*
X110391756Y-114880000D01*
X110516629Y-114892299D01*
X110516629Y-114892299D01*
G37*
G36*
X115596629Y-114892299D02*
X115756855Y-114940903D01*
X115904519Y-115019830D01*
X116033948Y-115126052D01*
X116140170Y-115255481D01*
X116219097Y-115403145D01*
X116267701Y-115563371D01*
X116284113Y-115730000D01*
X116267701Y-115896629D01*
X116219097Y-116056855D01*
X116140170Y-116204519D01*
X116033948Y-116333948D01*
X115904519Y-116440170D01*
X115756855Y-116519097D01*
X115596629Y-116567701D01*
X115471756Y-116580000D01*
X115388244Y-116580000D01*
X115263371Y-116567701D01*
X115103145Y-116519097D01*
X114955481Y-116440170D01*
X114826052Y-116333948D01*
X114719830Y-116204519D01*
X114640903Y-116056855D01*
X114592299Y-115896629D01*
X114575887Y-115730000D01*
X114592299Y-115563371D01*
X114640903Y-115403145D01*
X114719830Y-115255481D01*
X114826052Y-115126052D01*
X114955481Y-115019830D01*
X115103145Y-114940903D01*
X115263371Y-114892299D01*
X115388244Y-114880000D01*
X115471756Y-114880000D01*
X115596629Y-114892299D01*
X115596629Y-114892299D01*
G37*
G36*
X113056629Y-114892299D02*
X113216855Y-114940903D01*
X113364519Y-115019830D01*
X113493948Y-115126052D01*
X113600170Y-115255481D01*
X113679097Y-115403145D01*
X113727701Y-115563371D01*
X113744113Y-115730000D01*
X113727701Y-115896629D01*
X113679097Y-116056855D01*
X113600170Y-116204519D01*
X113493948Y-116333948D01*
X113364519Y-116440170D01*
X113216855Y-116519097D01*
X113056629Y-116567701D01*
X112931756Y-116580000D01*
X112848244Y-116580000D01*
X112723371Y-116567701D01*
X112563145Y-116519097D01*
X112415481Y-116440170D01*
X112286052Y-116333948D01*
X112179830Y-116204519D01*
X112100903Y-116056855D01*
X112052299Y-115896629D01*
X112035887Y-115730000D01*
X112052299Y-115563371D01*
X112100903Y-115403145D01*
X112179830Y-115255481D01*
X112286052Y-115126052D01*
X112415481Y-115019830D01*
X112563145Y-114940903D01*
X112723371Y-114892299D01*
X112848244Y-114880000D01*
X112931756Y-114880000D01*
X113056629Y-114892299D01*
X113056629Y-114892299D01*
G37*
G36*
X107976629Y-114892299D02*
X108136855Y-114940903D01*
X108284519Y-115019830D01*
X108413948Y-115126052D01*
X108520170Y-115255481D01*
X108599097Y-115403145D01*
X108647701Y-115563371D01*
X108664113Y-115730000D01*
X108647701Y-115896629D01*
X108599097Y-116056855D01*
X108520170Y-116204519D01*
X108413948Y-116333948D01*
X108284519Y-116440170D01*
X108136855Y-116519097D01*
X107976629Y-116567701D01*
X107851756Y-116580000D01*
X107768244Y-116580000D01*
X107643371Y-116567701D01*
X107483145Y-116519097D01*
X107335481Y-116440170D01*
X107206052Y-116333948D01*
X107099830Y-116204519D01*
X107020903Y-116056855D01*
X106972299Y-115896629D01*
X106955887Y-115730000D01*
X106972299Y-115563371D01*
X107020903Y-115403145D01*
X107099830Y-115255481D01*
X107206052Y-115126052D01*
X107335481Y-115019830D01*
X107483145Y-114940903D01*
X107643371Y-114892299D01*
X107768244Y-114880000D01*
X107851756Y-114880000D01*
X107976629Y-114892299D01*
X107976629Y-114892299D01*
G37*
G36*
X105436629Y-114892299D02*
X105596855Y-114940903D01*
X105744519Y-115019830D01*
X105873948Y-115126052D01*
X105980170Y-115255481D01*
X106059097Y-115403145D01*
X106107701Y-115563371D01*
X106124113Y-115730000D01*
X106107701Y-115896629D01*
X106059097Y-116056855D01*
X105980170Y-116204519D01*
X105873948Y-116333948D01*
X105744519Y-116440170D01*
X105596855Y-116519097D01*
X105436629Y-116567701D01*
X105311756Y-116580000D01*
X105228244Y-116580000D01*
X105103371Y-116567701D01*
X104943145Y-116519097D01*
X104795481Y-116440170D01*
X104666052Y-116333948D01*
X104559830Y-116204519D01*
X104480903Y-116056855D01*
X104432299Y-115896629D01*
X104415887Y-115730000D01*
X104432299Y-115563371D01*
X104480903Y-115403145D01*
X104559830Y-115255481D01*
X104666052Y-115126052D01*
X104795481Y-115019830D01*
X104943145Y-114940903D01*
X105103371Y-114892299D01*
X105228244Y-114880000D01*
X105311756Y-114880000D01*
X105436629Y-114892299D01*
X105436629Y-114892299D01*
G37*
G36*
X102896629Y-114892299D02*
X103056855Y-114940903D01*
X103204519Y-115019830D01*
X103333948Y-115126052D01*
X103440170Y-115255481D01*
X103519097Y-115403145D01*
X103567701Y-115563371D01*
X103584113Y-115730000D01*
X103567701Y-115896629D01*
X103519097Y-116056855D01*
X103440170Y-116204519D01*
X103333948Y-116333948D01*
X103204519Y-116440170D01*
X103056855Y-116519097D01*
X102896629Y-116567701D01*
X102771756Y-116580000D01*
X102688244Y-116580000D01*
X102563371Y-116567701D01*
X102403145Y-116519097D01*
X102255481Y-116440170D01*
X102126052Y-116333948D01*
X102019830Y-116204519D01*
X101940903Y-116056855D01*
X101892299Y-115896629D01*
X101875887Y-115730000D01*
X101892299Y-115563371D01*
X101940903Y-115403145D01*
X102019830Y-115255481D01*
X102126052Y-115126052D01*
X102255481Y-115019830D01*
X102403145Y-114940903D01*
X102563371Y-114892299D01*
X102688244Y-114880000D01*
X102771756Y-114880000D01*
X102896629Y-114892299D01*
X102896629Y-114892299D01*
G37*
G36*
X100356629Y-114892299D02*
X100516855Y-114940903D01*
X100664519Y-115019830D01*
X100793948Y-115126052D01*
X100900170Y-115255481D01*
X100979097Y-115403145D01*
X101027701Y-115563371D01*
X101044113Y-115730000D01*
X101027701Y-115896629D01*
X100979097Y-116056855D01*
X100900170Y-116204519D01*
X100793948Y-116333948D01*
X100664519Y-116440170D01*
X100516855Y-116519097D01*
X100356629Y-116567701D01*
X100231756Y-116580000D01*
X100148244Y-116580000D01*
X100023371Y-116567701D01*
X99863145Y-116519097D01*
X99715481Y-116440170D01*
X99586052Y-116333948D01*
X99479830Y-116204519D01*
X99400903Y-116056855D01*
X99352299Y-115896629D01*
X99335887Y-115730000D01*
X99352299Y-115563371D01*
X99400903Y-115403145D01*
X99479830Y-115255481D01*
X99586052Y-115126052D01*
X99715481Y-115019830D01*
X99863145Y-114940903D01*
X100023371Y-114892299D01*
X100148244Y-114880000D01*
X100231756Y-114880000D01*
X100356629Y-114892299D01*
X100356629Y-114892299D01*
G37*
G36*
X97816629Y-114892299D02*
X97976855Y-114940903D01*
X98124519Y-115019830D01*
X98253948Y-115126052D01*
X98360170Y-115255481D01*
X98439097Y-115403145D01*
X98487701Y-115563371D01*
X98504113Y-115730000D01*
X98487701Y-115896629D01*
X98439097Y-116056855D01*
X98360170Y-116204519D01*
X98253948Y-116333948D01*
X98124519Y-116440170D01*
X97976855Y-116519097D01*
X97816629Y-116567701D01*
X97691756Y-116580000D01*
X97608244Y-116580000D01*
X97483371Y-116567701D01*
X97323145Y-116519097D01*
X97175481Y-116440170D01*
X97046052Y-116333948D01*
X96939830Y-116204519D01*
X96860903Y-116056855D01*
X96812299Y-115896629D01*
X96795887Y-115730000D01*
X96812299Y-115563371D01*
X96860903Y-115403145D01*
X96939830Y-115255481D01*
X97046052Y-115126052D01*
X97175481Y-115019830D01*
X97323145Y-114940903D01*
X97483371Y-114892299D01*
X97608244Y-114880000D01*
X97691756Y-114880000D01*
X97816629Y-114892299D01*
X97816629Y-114892299D01*
G37*
G36*
X95276629Y-114892299D02*
X95436855Y-114940903D01*
X95584519Y-115019830D01*
X95713948Y-115126052D01*
X95820170Y-115255481D01*
X95899097Y-115403145D01*
X95947701Y-115563371D01*
X95964113Y-115730000D01*
X95947701Y-115896629D01*
X95899097Y-116056855D01*
X95820170Y-116204519D01*
X95713948Y-116333948D01*
X95584519Y-116440170D01*
X95436855Y-116519097D01*
X95276629Y-116567701D01*
X95151756Y-116580000D01*
X95068244Y-116580000D01*
X94943371Y-116567701D01*
X94783145Y-116519097D01*
X94635481Y-116440170D01*
X94506052Y-116333948D01*
X94399830Y-116204519D01*
X94320903Y-116056855D01*
X94272299Y-115896629D01*
X94255887Y-115730000D01*
X94272299Y-115563371D01*
X94320903Y-115403145D01*
X94399830Y-115255481D01*
X94506052Y-115126052D01*
X94635481Y-115019830D01*
X94783145Y-114940903D01*
X94943371Y-114892299D01*
X95068244Y-114880000D01*
X95151756Y-114880000D01*
X95276629Y-114892299D01*
X95276629Y-114892299D01*
G37*
G36*
X92736629Y-114892299D02*
X92896855Y-114940903D01*
X93044519Y-115019830D01*
X93173948Y-115126052D01*
X93280170Y-115255481D01*
X93359097Y-115403145D01*
X93407701Y-115563371D01*
X93424113Y-115730000D01*
X93407701Y-115896629D01*
X93359097Y-116056855D01*
X93280170Y-116204519D01*
X93173948Y-116333948D01*
X93044519Y-116440170D01*
X92896855Y-116519097D01*
X92736629Y-116567701D01*
X92611756Y-116580000D01*
X92528244Y-116580000D01*
X92403371Y-116567701D01*
X92243145Y-116519097D01*
X92095481Y-116440170D01*
X91966052Y-116333948D01*
X91859830Y-116204519D01*
X91780903Y-116056855D01*
X91732299Y-115896629D01*
X91715887Y-115730000D01*
X91732299Y-115563371D01*
X91780903Y-115403145D01*
X91859830Y-115255481D01*
X91966052Y-115126052D01*
X92095481Y-115019830D01*
X92243145Y-114940903D01*
X92403371Y-114892299D01*
X92528244Y-114880000D01*
X92611756Y-114880000D01*
X92736629Y-114892299D01*
X92736629Y-114892299D01*
G37*
G36*
X70475000Y-115405000D02*
X68925000Y-115405000D01*
X68925000Y-114805000D01*
X70475000Y-114805000D01*
X70475000Y-115405000D01*
X70475000Y-115405000D01*
G37*
G36*
X85375000Y-115405000D02*
X83825000Y-115405000D01*
X83825000Y-114805000D01*
X85375000Y-114805000D01*
X85375000Y-115405000D01*
X85375000Y-115405000D01*
G37*
G36*
X79975000Y-115405000D02*
X78425000Y-115405000D01*
X78425000Y-114805000D01*
X79975000Y-114805000D01*
X79975000Y-115405000D01*
X79975000Y-115405000D01*
G37*
G36*
X75875000Y-115405000D02*
X74325000Y-115405000D01*
X74325000Y-114805000D01*
X75875000Y-114805000D01*
X75875000Y-115405000D01*
X75875000Y-115405000D01*
G37*
G36*
X70475000Y-114135000D02*
X68925000Y-114135000D01*
X68925000Y-113535000D01*
X70475000Y-113535000D01*
X70475000Y-114135000D01*
X70475000Y-114135000D01*
G37*
G36*
X75875000Y-114135000D02*
X74325000Y-114135000D01*
X74325000Y-113535000D01*
X75875000Y-113535000D01*
X75875000Y-114135000D01*
X75875000Y-114135000D01*
G37*
G36*
X79975000Y-114135000D02*
X78425000Y-114135000D01*
X78425000Y-113535000D01*
X79975000Y-113535000D01*
X79975000Y-114135000D01*
X79975000Y-114135000D01*
G37*
G36*
X85375000Y-114135000D02*
X83825000Y-114135000D01*
X83825000Y-113535000D01*
X85375000Y-113535000D01*
X85375000Y-114135000D01*
X85375000Y-114135000D01*
G37*
G36*
X92736629Y-112352299D02*
X92896855Y-112400903D01*
X93044519Y-112479830D01*
X93173948Y-112586052D01*
X93280170Y-112715481D01*
X93359097Y-112863145D01*
X93407701Y-113023371D01*
X93424113Y-113190000D01*
X93407701Y-113356629D01*
X93359097Y-113516855D01*
X93280170Y-113664519D01*
X93173948Y-113793948D01*
X93044519Y-113900170D01*
X92896855Y-113979097D01*
X92736629Y-114027701D01*
X92611756Y-114040000D01*
X92528244Y-114040000D01*
X92403371Y-114027701D01*
X92243145Y-113979097D01*
X92095481Y-113900170D01*
X91966052Y-113793948D01*
X91859830Y-113664519D01*
X91780903Y-113516855D01*
X91732299Y-113356629D01*
X91715887Y-113190000D01*
X91732299Y-113023371D01*
X91780903Y-112863145D01*
X91859830Y-112715481D01*
X91966052Y-112586052D01*
X92095481Y-112479830D01*
X92243145Y-112400903D01*
X92403371Y-112352299D01*
X92528244Y-112340000D01*
X92611756Y-112340000D01*
X92736629Y-112352299D01*
X92736629Y-112352299D01*
G37*
G36*
X116280000Y-114040000D02*
X114580000Y-114040000D01*
X114580000Y-112340000D01*
X116280000Y-112340000D01*
X116280000Y-114040000D01*
X116280000Y-114040000D01*
G37*
G36*
X97816629Y-112352299D02*
X97976855Y-112400903D01*
X98124519Y-112479830D01*
X98253948Y-112586052D01*
X98360170Y-112715481D01*
X98439097Y-112863145D01*
X98487701Y-113023371D01*
X98504113Y-113190000D01*
X98487701Y-113356629D01*
X98439097Y-113516855D01*
X98360170Y-113664519D01*
X98253948Y-113793948D01*
X98124519Y-113900170D01*
X97976855Y-113979097D01*
X97816629Y-114027701D01*
X97691756Y-114040000D01*
X97608244Y-114040000D01*
X97483371Y-114027701D01*
X97323145Y-113979097D01*
X97175481Y-113900170D01*
X97046052Y-113793948D01*
X96939830Y-113664519D01*
X96860903Y-113516855D01*
X96812299Y-113356629D01*
X96795887Y-113190000D01*
X96812299Y-113023371D01*
X96860903Y-112863145D01*
X96939830Y-112715481D01*
X97046052Y-112586052D01*
X97175481Y-112479830D01*
X97323145Y-112400903D01*
X97483371Y-112352299D01*
X97608244Y-112340000D01*
X97691756Y-112340000D01*
X97816629Y-112352299D01*
X97816629Y-112352299D01*
G37*
G36*
X113056629Y-112352299D02*
X113216855Y-112400903D01*
X113364519Y-112479830D01*
X113493948Y-112586052D01*
X113600170Y-112715481D01*
X113679097Y-112863145D01*
X113727701Y-113023371D01*
X113744113Y-113190000D01*
X113727701Y-113356629D01*
X113679097Y-113516855D01*
X113600170Y-113664519D01*
X113493948Y-113793948D01*
X113364519Y-113900170D01*
X113216855Y-113979097D01*
X113056629Y-114027701D01*
X112931756Y-114040000D01*
X112848244Y-114040000D01*
X112723371Y-114027701D01*
X112563145Y-113979097D01*
X112415481Y-113900170D01*
X112286052Y-113793948D01*
X112179830Y-113664519D01*
X112100903Y-113516855D01*
X112052299Y-113356629D01*
X112035887Y-113190000D01*
X112052299Y-113023371D01*
X112100903Y-112863145D01*
X112179830Y-112715481D01*
X112286052Y-112586052D01*
X112415481Y-112479830D01*
X112563145Y-112400903D01*
X112723371Y-112352299D01*
X112848244Y-112340000D01*
X112931756Y-112340000D01*
X113056629Y-112352299D01*
X113056629Y-112352299D01*
G37*
G36*
X95276629Y-112352299D02*
X95436855Y-112400903D01*
X95584519Y-112479830D01*
X95713948Y-112586052D01*
X95820170Y-112715481D01*
X95899097Y-112863145D01*
X95947701Y-113023371D01*
X95964113Y-113190000D01*
X95947701Y-113356629D01*
X95899097Y-113516855D01*
X95820170Y-113664519D01*
X95713948Y-113793948D01*
X95584519Y-113900170D01*
X95436855Y-113979097D01*
X95276629Y-114027701D01*
X95151756Y-114040000D01*
X95068244Y-114040000D01*
X94943371Y-114027701D01*
X94783145Y-113979097D01*
X94635481Y-113900170D01*
X94506052Y-113793948D01*
X94399830Y-113664519D01*
X94320903Y-113516855D01*
X94272299Y-113356629D01*
X94255887Y-113190000D01*
X94272299Y-113023371D01*
X94320903Y-112863145D01*
X94399830Y-112715481D01*
X94506052Y-112586052D01*
X94635481Y-112479830D01*
X94783145Y-112400903D01*
X94943371Y-112352299D01*
X95068244Y-112340000D01*
X95151756Y-112340000D01*
X95276629Y-112352299D01*
X95276629Y-112352299D01*
G37*
G36*
X100356629Y-112352299D02*
X100516855Y-112400903D01*
X100664519Y-112479830D01*
X100793948Y-112586052D01*
X100900170Y-112715481D01*
X100979097Y-112863145D01*
X101027701Y-113023371D01*
X101044113Y-113190000D01*
X101027701Y-113356629D01*
X100979097Y-113516855D01*
X100900170Y-113664519D01*
X100793948Y-113793948D01*
X100664519Y-113900170D01*
X100516855Y-113979097D01*
X100356629Y-114027701D01*
X100231756Y-114040000D01*
X100148244Y-114040000D01*
X100023371Y-114027701D01*
X99863145Y-113979097D01*
X99715481Y-113900170D01*
X99586052Y-113793948D01*
X99479830Y-113664519D01*
X99400903Y-113516855D01*
X99352299Y-113356629D01*
X99335887Y-113190000D01*
X99352299Y-113023371D01*
X99400903Y-112863145D01*
X99479830Y-112715481D01*
X99586052Y-112586052D01*
X99715481Y-112479830D01*
X99863145Y-112400903D01*
X100023371Y-112352299D01*
X100148244Y-112340000D01*
X100231756Y-112340000D01*
X100356629Y-112352299D01*
X100356629Y-112352299D01*
G37*
G36*
X102896629Y-112352299D02*
X103056855Y-112400903D01*
X103204519Y-112479830D01*
X103333948Y-112586052D01*
X103440170Y-112715481D01*
X103519097Y-112863145D01*
X103567701Y-113023371D01*
X103584113Y-113190000D01*
X103567701Y-113356629D01*
X103519097Y-113516855D01*
X103440170Y-113664519D01*
X103333948Y-113793948D01*
X103204519Y-113900170D01*
X103056855Y-113979097D01*
X102896629Y-114027701D01*
X102771756Y-114040000D01*
X102688244Y-114040000D01*
X102563371Y-114027701D01*
X102403145Y-113979097D01*
X102255481Y-113900170D01*
X102126052Y-113793948D01*
X102019830Y-113664519D01*
X101940903Y-113516855D01*
X101892299Y-113356629D01*
X101875887Y-113190000D01*
X101892299Y-113023371D01*
X101940903Y-112863145D01*
X102019830Y-112715481D01*
X102126052Y-112586052D01*
X102255481Y-112479830D01*
X102403145Y-112400903D01*
X102563371Y-112352299D01*
X102688244Y-112340000D01*
X102771756Y-112340000D01*
X102896629Y-112352299D01*
X102896629Y-112352299D01*
G37*
G36*
X107976629Y-112352299D02*
X108136855Y-112400903D01*
X108284519Y-112479830D01*
X108413948Y-112586052D01*
X108520170Y-112715481D01*
X108599097Y-112863145D01*
X108647701Y-113023371D01*
X108664113Y-113190000D01*
X108647701Y-113356629D01*
X108599097Y-113516855D01*
X108520170Y-113664519D01*
X108413948Y-113793948D01*
X108284519Y-113900170D01*
X108136855Y-113979097D01*
X107976629Y-114027701D01*
X107851756Y-114040000D01*
X107768244Y-114040000D01*
X107643371Y-114027701D01*
X107483145Y-113979097D01*
X107335481Y-113900170D01*
X107206052Y-113793948D01*
X107099830Y-113664519D01*
X107020903Y-113516855D01*
X106972299Y-113356629D01*
X106955887Y-113190000D01*
X106972299Y-113023371D01*
X107020903Y-112863145D01*
X107099830Y-112715481D01*
X107206052Y-112586052D01*
X107335481Y-112479830D01*
X107483145Y-112400903D01*
X107643371Y-112352299D01*
X107768244Y-112340000D01*
X107851756Y-112340000D01*
X107976629Y-112352299D01*
X107976629Y-112352299D01*
G37*
G36*
X105436629Y-112352299D02*
X105596855Y-112400903D01*
X105744519Y-112479830D01*
X105873948Y-112586052D01*
X105980170Y-112715481D01*
X106059097Y-112863145D01*
X106107701Y-113023371D01*
X106124113Y-113190000D01*
X106107701Y-113356629D01*
X106059097Y-113516855D01*
X105980170Y-113664519D01*
X105873948Y-113793948D01*
X105744519Y-113900170D01*
X105596855Y-113979097D01*
X105436629Y-114027701D01*
X105311756Y-114040000D01*
X105228244Y-114040000D01*
X105103371Y-114027701D01*
X104943145Y-113979097D01*
X104795481Y-113900170D01*
X104666052Y-113793948D01*
X104559830Y-113664519D01*
X104480903Y-113516855D01*
X104432299Y-113356629D01*
X104415887Y-113190000D01*
X104432299Y-113023371D01*
X104480903Y-112863145D01*
X104559830Y-112715481D01*
X104666052Y-112586052D01*
X104795481Y-112479830D01*
X104943145Y-112400903D01*
X105103371Y-112352299D01*
X105228244Y-112340000D01*
X105311756Y-112340000D01*
X105436629Y-112352299D01*
X105436629Y-112352299D01*
G37*
G36*
X110516629Y-112352299D02*
X110676855Y-112400903D01*
X110824519Y-112479830D01*
X110953948Y-112586052D01*
X111060170Y-112715481D01*
X111139097Y-112863145D01*
X111187701Y-113023371D01*
X111204113Y-113190000D01*
X111187701Y-113356629D01*
X111139097Y-113516855D01*
X111060170Y-113664519D01*
X110953948Y-113793948D01*
X110824519Y-113900170D01*
X110676855Y-113979097D01*
X110516629Y-114027701D01*
X110391756Y-114040000D01*
X110308244Y-114040000D01*
X110183371Y-114027701D01*
X110023145Y-113979097D01*
X109875481Y-113900170D01*
X109746052Y-113793948D01*
X109639830Y-113664519D01*
X109560903Y-113516855D01*
X109512299Y-113356629D01*
X109495887Y-113190000D01*
X109512299Y-113023371D01*
X109560903Y-112863145D01*
X109639830Y-112715481D01*
X109746052Y-112586052D01*
X109875481Y-112479830D01*
X110023145Y-112400903D01*
X110183371Y-112352299D01*
X110308244Y-112340000D01*
X110391756Y-112340000D01*
X110516629Y-112352299D01*
X110516629Y-112352299D01*
G37*
G36*
X70475000Y-112865000D02*
X68925000Y-112865000D01*
X68925000Y-112265000D01*
X70475000Y-112265000D01*
X70475000Y-112865000D01*
X70475000Y-112865000D01*
G37*
G36*
X75875000Y-112865000D02*
X74325000Y-112865000D01*
X74325000Y-112265000D01*
X75875000Y-112265000D01*
X75875000Y-112865000D01*
X75875000Y-112865000D01*
G37*
G36*
X85375000Y-112865000D02*
X83825000Y-112865000D01*
X83825000Y-112265000D01*
X85375000Y-112265000D01*
X85375000Y-112865000D01*
X85375000Y-112865000D01*
G37*
G36*
X79975000Y-112865000D02*
X78425000Y-112865000D01*
X78425000Y-112265000D01*
X79975000Y-112265000D01*
X79975000Y-112865000D01*
X79975000Y-112865000D01*
G37*
G36*
X79975000Y-111595000D02*
X78425000Y-111595000D01*
X78425000Y-110995000D01*
X79975000Y-110995000D01*
X79975000Y-111595000D01*
X79975000Y-111595000D01*
G37*
G36*
X85375000Y-111595000D02*
X83825000Y-111595000D01*
X83825000Y-110995000D01*
X85375000Y-110995000D01*
X85375000Y-111595000D01*
X85375000Y-111595000D01*
G37*
G36*
X75875000Y-111595000D02*
X74325000Y-111595000D01*
X74325000Y-110995000D01*
X75875000Y-110995000D01*
X75875000Y-111595000D01*
X75875000Y-111595000D01*
G37*
G36*
X70475000Y-111595000D02*
X68925000Y-111595000D01*
X68925000Y-110995000D01*
X70475000Y-110995000D01*
X70475000Y-111595000D01*
X70475000Y-111595000D01*
G37*
G36*
X61910000Y-111000000D02*
X60915000Y-111000000D01*
X60915000Y-110000000D01*
X61910000Y-110000000D01*
X61910000Y-111000000D01*
X61910000Y-111000000D01*
G37*
G36*
X63685000Y-111000000D02*
X62690000Y-111000000D01*
X62690000Y-110000000D01*
X63685000Y-110000000D01*
X63685000Y-111000000D01*
X63685000Y-111000000D01*
G37*
G36*
X56760000Y-111000000D02*
X55940000Y-111000000D01*
X55940000Y-110000000D01*
X56760000Y-110000000D01*
X56760000Y-111000000D01*
X56760000Y-111000000D01*
G37*
G36*
X58360000Y-111000000D02*
X57540000Y-111000000D01*
X57540000Y-110000000D01*
X58360000Y-110000000D01*
X58360000Y-111000000D01*
X58360000Y-111000000D01*
G37*
G36*
X97775000Y-109630000D02*
X97125000Y-109630000D01*
X97125000Y-108570000D01*
X97775000Y-108570000D01*
X97775000Y-109630000D01*
X97775000Y-109630000D01*
G37*
G36*
X96825000Y-109630000D02*
X96175000Y-109630000D01*
X96175000Y-108570000D01*
X96825000Y-108570000D01*
X96825000Y-109630000D01*
X96825000Y-109630000D01*
G37*
G36*
X95875000Y-109630000D02*
X95225000Y-109630000D01*
X95225000Y-108570000D01*
X95875000Y-108570000D01*
X95875000Y-109630000D01*
X95875000Y-109630000D01*
G37*
G36*
X90125000Y-109630000D02*
X89475000Y-109630000D01*
X89475000Y-108570000D01*
X90125000Y-108570000D01*
X90125000Y-109630000D01*
X90125000Y-109630000D01*
G37*
G36*
X92025000Y-109630000D02*
X91375000Y-109630000D01*
X91375000Y-108570000D01*
X92025000Y-108570000D01*
X92025000Y-109630000D01*
X92025000Y-109630000D01*
G37*
G36*
X91075000Y-109630000D02*
X90425000Y-109630000D01*
X90425000Y-108570000D01*
X91075000Y-108570000D01*
X91075000Y-109630000D01*
X91075000Y-109630000D01*
G37*
G36*
X100000000Y-109385000D02*
X99000000Y-109385000D01*
X99000000Y-108390000D01*
X100000000Y-108390000D01*
X100000000Y-109385000D01*
X100000000Y-109385000D01*
G37*
G36*
X56760000Y-109250000D02*
X55940000Y-109250000D01*
X55940000Y-108250000D01*
X56760000Y-108250000D01*
X56760000Y-109250000D01*
X56760000Y-109250000D01*
G37*
G36*
X58360000Y-109250000D02*
X57540000Y-109250000D01*
X57540000Y-108250000D01*
X58360000Y-108250000D01*
X58360000Y-109250000D01*
X58360000Y-109250000D01*
G37*
G36*
X61910000Y-109250000D02*
X60915000Y-109250000D01*
X60915000Y-108250000D01*
X61910000Y-108250000D01*
X61910000Y-109250000D01*
X61910000Y-109250000D01*
G37*
G36*
X63685000Y-109250000D02*
X62690000Y-109250000D01*
X62690000Y-108250000D01*
X63685000Y-108250000D01*
X63685000Y-109250000D01*
X63685000Y-109250000D01*
G37*
G36*
X104150000Y-108050000D02*
X103850000Y-108050000D01*
X103850000Y-107250000D01*
X104150000Y-107250000D01*
X104150000Y-108050000D01*
X104150000Y-108050000D01*
G37*
G36*
X103650000Y-108050000D02*
X103350000Y-108050000D01*
X103350000Y-107250000D01*
X103650000Y-107250000D01*
X103650000Y-108050000D01*
X103650000Y-108050000D01*
G37*
G36*
X102650000Y-108050000D02*
X102350000Y-108050000D01*
X102350000Y-107250000D01*
X102650000Y-107250000D01*
X102650000Y-108050000D01*
X102650000Y-108050000D01*
G37*
G36*
X103150000Y-108050000D02*
X102850000Y-108050000D01*
X102850000Y-107250000D01*
X103150000Y-107250000D01*
X103150000Y-108050000D01*
X103150000Y-108050000D01*
G37*
G36*
X105650000Y-108050000D02*
X105350000Y-108050000D01*
X105350000Y-107250000D01*
X105650000Y-107250000D01*
X105650000Y-108050000D01*
X105650000Y-108050000D01*
G37*
G36*
X104650000Y-108050000D02*
X104350000Y-108050000D01*
X104350000Y-107250000D01*
X104650000Y-107250000D01*
X104650000Y-108050000D01*
X104650000Y-108050000D01*
G37*
G36*
X105150000Y-108050000D02*
X104850000Y-108050000D01*
X104850000Y-107250000D01*
X105150000Y-107250000D01*
X105150000Y-108050000D01*
X105150000Y-108050000D01*
G37*
G36*
X102150000Y-108050000D02*
X101850000Y-108050000D01*
X101850000Y-107250000D01*
X102150000Y-107250000D01*
X102150000Y-108050000D01*
X102150000Y-108050000D01*
G37*
G36*
X118135000Y-107996000D02*
X117140000Y-107996000D01*
X117140000Y-106996000D01*
X118135000Y-106996000D01*
X118135000Y-107996000D01*
X118135000Y-107996000D01*
G37*
G36*
X116360000Y-107996000D02*
X115365000Y-107996000D01*
X115365000Y-106996000D01*
X116360000Y-106996000D01*
X116360000Y-107996000D01*
X116360000Y-107996000D01*
G37*
G36*
X114635000Y-107996000D02*
X113640000Y-107996000D01*
X113640000Y-106996000D01*
X114635000Y-106996000D01*
X114635000Y-107996000D01*
X114635000Y-107996000D01*
G37*
G36*
X112860000Y-107996000D02*
X111865000Y-107996000D01*
X111865000Y-106996000D01*
X112860000Y-106996000D01*
X112860000Y-107996000D01*
X112860000Y-107996000D01*
G37*
G36*
X111000000Y-107885000D02*
X110000000Y-107885000D01*
X110000000Y-106890000D01*
X111000000Y-106890000D01*
X111000000Y-107885000D01*
X111000000Y-107885000D01*
G37*
G36*
X100000000Y-107610000D02*
X99000000Y-107610000D01*
X99000000Y-106615000D01*
X100000000Y-106615000D01*
X100000000Y-107610000D01*
X100000000Y-107610000D01*
G37*
G36*
X61910000Y-107500000D02*
X60915000Y-107500000D01*
X60915000Y-106500000D01*
X61910000Y-106500000D01*
X61910000Y-107500000D01*
X61910000Y-107500000D01*
G37*
G36*
X63685000Y-107500000D02*
X62690000Y-107500000D01*
X62690000Y-106500000D01*
X63685000Y-106500000D01*
X63685000Y-107500000D01*
X63685000Y-107500000D01*
G37*
G36*
X76895841Y-106519214D02*
X76895842Y-106519214D01*
X76895845Y-106519215D01*
X76986839Y-106556906D01*
X77068731Y-106611625D01*
X77138375Y-106681269D01*
X77193094Y-106763161D01*
X77230785Y-106854155D01*
X77250000Y-106950754D01*
X77250000Y-107049246D01*
X77230785Y-107145845D01*
X77193094Y-107236839D01*
X77138375Y-107318731D01*
X77068731Y-107388375D01*
X76986839Y-107443094D01*
X76895845Y-107480785D01*
X76895842Y-107480786D01*
X76895841Y-107480786D01*
X76799248Y-107500000D01*
X76700752Y-107500000D01*
X76604159Y-107480786D01*
X76604158Y-107480786D01*
X76604155Y-107480785D01*
X76513161Y-107443094D01*
X76431269Y-107388375D01*
X76361625Y-107318731D01*
X76306906Y-107236839D01*
X76269215Y-107145845D01*
X76250000Y-107049246D01*
X76250000Y-106950754D01*
X76269215Y-106854155D01*
X76306906Y-106763161D01*
X76361625Y-106681269D01*
X76431269Y-106611625D01*
X76513161Y-106556906D01*
X76604155Y-106519215D01*
X76604158Y-106519214D01*
X76604159Y-106519214D01*
X76700752Y-106500000D01*
X76799248Y-106500000D01*
X76895841Y-106519214D01*
X76895841Y-106519214D01*
G37*
G36*
X80645841Y-106519214D02*
X80645842Y-106519214D01*
X80645845Y-106519215D01*
X80736839Y-106556906D01*
X80818731Y-106611625D01*
X80888375Y-106681269D01*
X80943094Y-106763161D01*
X80980785Y-106854155D01*
X81000000Y-106950754D01*
X81000000Y-107049246D01*
X80980785Y-107145845D01*
X80943094Y-107236839D01*
X80888375Y-107318731D01*
X80818731Y-107388375D01*
X80736839Y-107443094D01*
X80645845Y-107480785D01*
X80645842Y-107480786D01*
X80645841Y-107480786D01*
X80549248Y-107500000D01*
X80450752Y-107500000D01*
X80354159Y-107480786D01*
X80354158Y-107480786D01*
X80354155Y-107480785D01*
X80263161Y-107443094D01*
X80181269Y-107388375D01*
X80111625Y-107318731D01*
X80056906Y-107236839D01*
X80019215Y-107145845D01*
X80000000Y-107049246D01*
X80000000Y-106950754D01*
X80019215Y-106854155D01*
X80056906Y-106763161D01*
X80111625Y-106681269D01*
X80181269Y-106611625D01*
X80263161Y-106556906D01*
X80354155Y-106519215D01*
X80354158Y-106519214D01*
X80354159Y-106519214D01*
X80450752Y-106500000D01*
X80549248Y-106500000D01*
X80645841Y-106519214D01*
X80645841Y-106519214D01*
G37*
G36*
X56760000Y-107500000D02*
X55940000Y-107500000D01*
X55940000Y-106500000D01*
X56760000Y-106500000D01*
X56760000Y-107500000D01*
X56760000Y-107500000D01*
G37*
G36*
X58360000Y-107500000D02*
X57540000Y-107500000D01*
X57540000Y-106500000D01*
X58360000Y-106500000D01*
X58360000Y-107500000D01*
X58360000Y-107500000D01*
G37*
G36*
X92025000Y-107430000D02*
X91375000Y-107430000D01*
X91375000Y-106370000D01*
X92025000Y-106370000D01*
X92025000Y-107430000D01*
X92025000Y-107430000D01*
G37*
G36*
X91075000Y-107430000D02*
X90425000Y-107430000D01*
X90425000Y-106370000D01*
X91075000Y-106370000D01*
X91075000Y-107430000D01*
X91075000Y-107430000D01*
G37*
G36*
X90125000Y-107430000D02*
X89475000Y-107430000D01*
X89475000Y-106370000D01*
X90125000Y-106370000D01*
X90125000Y-107430000D01*
X90125000Y-107430000D01*
G37*
G36*
X97775000Y-107430000D02*
X97125000Y-107430000D01*
X97125000Y-106370000D01*
X97775000Y-106370000D01*
X97775000Y-107430000D01*
X97775000Y-107430000D01*
G37*
G36*
X95875000Y-107430000D02*
X95225000Y-107430000D01*
X95225000Y-106370000D01*
X95875000Y-106370000D01*
X95875000Y-107430000D01*
X95875000Y-107430000D01*
G37*
G36*
X68500000Y-106985000D02*
X67500000Y-106985000D01*
X67500000Y-105990000D01*
X68500000Y-105990000D01*
X68500000Y-106985000D01*
X68500000Y-106985000D01*
G37*
G36*
X72500000Y-106985000D02*
X71500000Y-106985000D01*
X71500000Y-105990000D01*
X72500000Y-105990000D01*
X72500000Y-106985000D01*
X72500000Y-106985000D01*
G37*
G36*
X70500000Y-106985000D02*
X69500000Y-106985000D01*
X69500000Y-105990000D01*
X70500000Y-105990000D01*
X70500000Y-106985000D01*
X70500000Y-106985000D01*
G37*
G36*
X103650000Y-106250000D02*
X103350000Y-106250000D01*
X103350000Y-105450000D01*
X103650000Y-105450000D01*
X103650000Y-106250000D01*
X103650000Y-106250000D01*
G37*
G36*
X105150000Y-106250000D02*
X104850000Y-106250000D01*
X104850000Y-105450000D01*
X105150000Y-105450000D01*
X105150000Y-106250000D01*
X105150000Y-106250000D01*
G37*
G36*
X104650000Y-106250000D02*
X104350000Y-106250000D01*
X104350000Y-105450000D01*
X104650000Y-105450000D01*
X104650000Y-106250000D01*
X104650000Y-106250000D01*
G37*
G36*
X104150000Y-106250000D02*
X103850000Y-106250000D01*
X103850000Y-105450000D01*
X104150000Y-105450000D01*
X104150000Y-106250000D01*
X104150000Y-106250000D01*
G37*
G36*
X103150000Y-106250000D02*
X102850000Y-106250000D01*
X102850000Y-105450000D01*
X103150000Y-105450000D01*
X103150000Y-106250000D01*
X103150000Y-106250000D01*
G37*
G36*
X122864608Y-103798036D02*
X122864610Y-103798037D01*
X122864611Y-103798037D01*
X123092097Y-103892265D01*
X123092099Y-103892266D01*
X123296827Y-104029061D01*
X123470939Y-104203173D01*
X123607734Y-104407901D01*
X123701964Y-104635392D01*
X123750000Y-104876884D01*
X123750000Y-105123116D01*
X123732718Y-105210000D01*
X123701963Y-105364611D01*
X123645883Y-105500000D01*
X123607734Y-105592099D01*
X123470939Y-105796827D01*
X123296827Y-105970939D01*
X123092099Y-106107734D01*
X123092098Y-106107735D01*
X123092097Y-106107735D01*
X122864611Y-106201963D01*
X122864610Y-106201963D01*
X122864608Y-106201964D01*
X122623116Y-106250000D01*
X122376884Y-106250000D01*
X122135392Y-106201964D01*
X122135390Y-106201963D01*
X122135389Y-106201963D01*
X121907903Y-106107735D01*
X121907902Y-106107735D01*
X121907901Y-106107734D01*
X121703173Y-105970939D01*
X121529061Y-105796827D01*
X121392266Y-105592099D01*
X121354117Y-105500000D01*
X121298037Y-105364611D01*
X121267283Y-105210000D01*
X121250000Y-105123116D01*
X121250000Y-104876884D01*
X121298036Y-104635392D01*
X121392266Y-104407901D01*
X121529061Y-104203173D01*
X121703173Y-104029061D01*
X121907901Y-103892266D01*
X121907903Y-103892265D01*
X122135389Y-103798037D01*
X122135390Y-103798037D01*
X122135392Y-103798036D01*
X122376884Y-103750000D01*
X122623116Y-103750000D01*
X122864608Y-103798036D01*
X122864608Y-103798036D01*
G37*
G36*
X102150000Y-106250000D02*
X101850000Y-106250000D01*
X101850000Y-105450000D01*
X102150000Y-105450000D01*
X102150000Y-106250000D01*
X102150000Y-106250000D01*
G37*
G36*
X105650000Y-106250000D02*
X105350000Y-106250000D01*
X105350000Y-105450000D01*
X105650000Y-105450000D01*
X105650000Y-106250000D01*
X105650000Y-106250000D01*
G37*
G36*
X102650000Y-106250000D02*
X102350000Y-106250000D01*
X102350000Y-105450000D01*
X102650000Y-105450000D01*
X102650000Y-106250000D01*
X102650000Y-106250000D01*
G37*
G36*
X111000000Y-106110000D02*
X110000000Y-106110000D01*
X110000000Y-105115000D01*
X111000000Y-105115000D01*
X111000000Y-106110000D01*
X111000000Y-106110000D01*
G37*
G36*
X113525000Y-105950000D02*
X112075000Y-105950000D01*
X112075000Y-105500000D01*
X113525000Y-105500000D01*
X113525000Y-105950000D01*
X113525000Y-105950000D01*
G37*
G36*
X117925000Y-105950000D02*
X116475000Y-105950000D01*
X116475000Y-105500000D01*
X117925000Y-105500000D01*
X117925000Y-105950000D01*
X117925000Y-105950000D01*
G37*
G36*
X58360000Y-105750000D02*
X57540000Y-105750000D01*
X57540000Y-104750000D01*
X58360000Y-104750000D01*
X58360000Y-105750000D01*
X58360000Y-105750000D01*
G37*
G36*
X56760000Y-105750000D02*
X55940000Y-105750000D01*
X55940000Y-104750000D01*
X56760000Y-104750000D01*
X56760000Y-105750000D01*
X56760000Y-105750000D01*
G37*
G36*
X61910000Y-105750000D02*
X60915000Y-105750000D01*
X60915000Y-104750000D01*
X61910000Y-104750000D01*
X61910000Y-105750000D01*
X61910000Y-105750000D01*
G37*
G36*
X63685000Y-105750000D02*
X62690000Y-105750000D01*
X62690000Y-104750000D01*
X63685000Y-104750000D01*
X63685000Y-105750000D01*
X63685000Y-105750000D01*
G37*
G36*
X94360000Y-105500000D02*
X93365000Y-105500000D01*
X93365000Y-104500000D01*
X94360000Y-104500000D01*
X94360000Y-105500000D01*
X94360000Y-105500000D01*
G37*
G36*
X99635000Y-105500000D02*
X98640000Y-105500000D01*
X98640000Y-104500000D01*
X99635000Y-104500000D01*
X99635000Y-105500000D01*
X99635000Y-105500000D01*
G37*
G36*
X96135000Y-105500000D02*
X95140000Y-105500000D01*
X95140000Y-104500000D01*
X96135000Y-104500000D01*
X96135000Y-105500000D01*
X96135000Y-105500000D01*
G37*
G36*
X92135000Y-105500000D02*
X91140000Y-105500000D01*
X91140000Y-104500000D01*
X92135000Y-104500000D01*
X92135000Y-105500000D01*
X92135000Y-105500000D01*
G37*
G36*
X90360000Y-105500000D02*
X89365000Y-105500000D01*
X89365000Y-104500000D01*
X90360000Y-104500000D01*
X90360000Y-105500000D01*
X90360000Y-105500000D01*
G37*
G36*
X97860000Y-105500000D02*
X96865000Y-105500000D01*
X96865000Y-104500000D01*
X97860000Y-104500000D01*
X97860000Y-105500000D01*
X97860000Y-105500000D01*
G37*
G36*
X117925000Y-105300000D02*
X116475000Y-105300000D01*
X116475000Y-104850000D01*
X117925000Y-104850000D01*
X117925000Y-105300000D01*
X117925000Y-105300000D01*
G37*
G36*
X113525000Y-105300000D02*
X112075000Y-105300000D01*
X112075000Y-104850000D01*
X113525000Y-104850000D01*
X113525000Y-105300000D01*
X113525000Y-105300000D01*
G37*
G36*
X70500000Y-105210000D02*
X69500000Y-105210000D01*
X69500000Y-104215000D01*
X70500000Y-104215000D01*
X70500000Y-105210000D01*
X70500000Y-105210000D01*
G37*
G36*
X68500000Y-105210000D02*
X67500000Y-105210000D01*
X67500000Y-104215000D01*
X68500000Y-104215000D01*
X68500000Y-105210000D01*
X68500000Y-105210000D01*
G37*
G36*
X72500000Y-105210000D02*
X71500000Y-105210000D01*
X71500000Y-104215000D01*
X72500000Y-104215000D01*
X72500000Y-105210000D01*
X72500000Y-105210000D01*
G37*
G36*
X117925000Y-104650000D02*
X116475000Y-104650000D01*
X116475000Y-104200000D01*
X117925000Y-104200000D01*
X117925000Y-104650000D01*
X117925000Y-104650000D01*
G37*
G36*
X113525000Y-104650000D02*
X112075000Y-104650000D01*
X112075000Y-104200000D01*
X113525000Y-104200000D01*
X113525000Y-104650000D01*
X113525000Y-104650000D01*
G37*
G36*
X102620000Y-104250000D02*
X102380000Y-104250000D01*
X102380000Y-103350000D01*
X102620000Y-103350000D01*
X102620000Y-104250000D01*
X102620000Y-104250000D01*
G37*
G36*
X105120000Y-104250000D02*
X104880000Y-104250000D01*
X104880000Y-103350000D01*
X105120000Y-103350000D01*
X105120000Y-104250000D01*
X105120000Y-104250000D01*
G37*
G36*
X104620000Y-104250000D02*
X104380000Y-104250000D01*
X104380000Y-103350000D01*
X104620000Y-103350000D01*
X104620000Y-104250000D01*
X104620000Y-104250000D01*
G37*
G36*
X104120000Y-104250000D02*
X103880000Y-104250000D01*
X103880000Y-103350000D01*
X104120000Y-103350000D01*
X104120000Y-104250000D01*
X104120000Y-104250000D01*
G37*
G36*
X103620000Y-104250000D02*
X103380000Y-104250000D01*
X103380000Y-103350000D01*
X103620000Y-103350000D01*
X103620000Y-104250000D01*
X103620000Y-104250000D01*
G37*
G36*
X105620000Y-104250000D02*
X105380000Y-104250000D01*
X105380000Y-103350000D01*
X105620000Y-103350000D01*
X105620000Y-104250000D01*
X105620000Y-104250000D01*
G37*
G36*
X102120000Y-104250000D02*
X101880000Y-104250000D01*
X101880000Y-103350000D01*
X102120000Y-103350000D01*
X102120000Y-104250000D01*
X102120000Y-104250000D01*
G37*
G36*
X103120000Y-104250000D02*
X102880000Y-104250000D01*
X102880000Y-103350000D01*
X103120000Y-103350000D01*
X103120000Y-104250000D01*
X103120000Y-104250000D01*
G37*
G36*
X56760000Y-104000000D02*
X55940000Y-104000000D01*
X55940000Y-103000000D01*
X56760000Y-103000000D01*
X56760000Y-104000000D01*
X56760000Y-104000000D01*
G37*
G36*
X61910000Y-104000000D02*
X60915000Y-104000000D01*
X60915000Y-103000000D01*
X61910000Y-103000000D01*
X61910000Y-104000000D01*
X61910000Y-104000000D01*
G37*
G36*
X63685000Y-104000000D02*
X62690000Y-104000000D01*
X62690000Y-103000000D01*
X63685000Y-103000000D01*
X63685000Y-104000000D01*
X63685000Y-104000000D01*
G37*
G36*
X58360000Y-104000000D02*
X57540000Y-104000000D01*
X57540000Y-103000000D01*
X58360000Y-103000000D01*
X58360000Y-104000000D01*
X58360000Y-104000000D01*
G37*
G36*
X117925000Y-104000000D02*
X116475000Y-104000000D01*
X116475000Y-103550000D01*
X117925000Y-103550000D01*
X117925000Y-104000000D01*
X117925000Y-104000000D01*
G37*
G36*
X113525000Y-104000000D02*
X112075000Y-104000000D01*
X112075000Y-103550000D01*
X113525000Y-103550000D01*
X113525000Y-104000000D01*
X113525000Y-104000000D01*
G37*
G36*
X84395841Y-102519214D02*
X84395842Y-102519214D01*
X84395845Y-102519215D01*
X84486839Y-102556906D01*
X84568731Y-102611625D01*
X84638375Y-102681269D01*
X84693094Y-102763161D01*
X84730785Y-102854155D01*
X84750000Y-102950754D01*
X84750000Y-103049246D01*
X84730785Y-103145845D01*
X84693094Y-103236839D01*
X84638375Y-103318731D01*
X84568731Y-103388375D01*
X84486839Y-103443094D01*
X84395845Y-103480785D01*
X84395842Y-103480786D01*
X84395841Y-103480786D01*
X84299248Y-103500000D01*
X84200752Y-103500000D01*
X84104159Y-103480786D01*
X84104158Y-103480786D01*
X84104155Y-103480785D01*
X84013161Y-103443094D01*
X83931269Y-103388375D01*
X83861625Y-103318731D01*
X83806906Y-103236839D01*
X83769215Y-103145845D01*
X83750000Y-103049246D01*
X83750000Y-102950754D01*
X83769215Y-102854155D01*
X83806906Y-102763161D01*
X83861625Y-102681269D01*
X83931269Y-102611625D01*
X84013161Y-102556906D01*
X84104155Y-102519215D01*
X84104158Y-102519214D01*
X84104159Y-102519214D01*
X84200752Y-102500000D01*
X84299248Y-102500000D01*
X84395841Y-102519214D01*
X84395841Y-102519214D01*
G37*
G36*
X105200000Y-103000000D02*
X102300000Y-103000000D01*
X102300000Y-102000000D01*
X105200000Y-102000000D01*
X105200000Y-103000000D01*
X105200000Y-103000000D01*
G37*
G36*
X101900000Y-102870000D02*
X101000000Y-102870000D01*
X101000000Y-102630000D01*
X101900000Y-102630000D01*
X101900000Y-102870000D01*
X101900000Y-102870000D01*
G37*
G36*
X106500000Y-102870000D02*
X105600000Y-102870000D01*
X105600000Y-102630000D01*
X106500000Y-102630000D01*
X106500000Y-102870000D01*
X106500000Y-102870000D01*
G37*
G36*
X101900000Y-102370000D02*
X101000000Y-102370000D01*
X101000000Y-102130000D01*
X101900000Y-102130000D01*
X101900000Y-102370000D01*
X101900000Y-102370000D01*
G37*
G36*
X106500000Y-102370000D02*
X105600000Y-102370000D01*
X105600000Y-102130000D01*
X106500000Y-102130000D01*
X106500000Y-102370000D01*
X106500000Y-102370000D01*
G37*
G36*
X104120000Y-101650000D02*
X103880000Y-101650000D01*
X103880000Y-100750000D01*
X104120000Y-100750000D01*
X104120000Y-101650000D01*
X104120000Y-101650000D01*
G37*
G36*
X105620000Y-101650000D02*
X105380000Y-101650000D01*
X105380000Y-100750000D01*
X105620000Y-100750000D01*
X105620000Y-101650000D01*
X105620000Y-101650000D01*
G37*
G36*
X105120000Y-101650000D02*
X104880000Y-101650000D01*
X104880000Y-100750000D01*
X105120000Y-100750000D01*
X105120000Y-101650000D01*
X105120000Y-101650000D01*
G37*
G36*
X103620000Y-101650000D02*
X103380000Y-101650000D01*
X103380000Y-100750000D01*
X103620000Y-100750000D01*
X103620000Y-101650000D01*
X103620000Y-101650000D01*
G37*
G36*
X104620000Y-101650000D02*
X104380000Y-101650000D01*
X104380000Y-100750000D01*
X104620000Y-100750000D01*
X104620000Y-101650000D01*
X104620000Y-101650000D01*
G37*
G36*
X103120000Y-101650000D02*
X102880000Y-101650000D01*
X102880000Y-100750000D01*
X103120000Y-100750000D01*
X103120000Y-101650000D01*
X103120000Y-101650000D01*
G37*
G36*
X102620000Y-101650000D02*
X102380000Y-101650000D01*
X102380000Y-100750000D01*
X102620000Y-100750000D01*
X102620000Y-101650000D01*
X102620000Y-101650000D01*
G37*
G36*
X102120000Y-101650000D02*
X101880000Y-101650000D01*
X101880000Y-100750000D01*
X102120000Y-100750000D01*
X102120000Y-101650000D01*
X102120000Y-101650000D01*
G37*
G36*
X59635000Y-101500000D02*
X58640000Y-101500000D01*
X58640000Y-100500000D01*
X59635000Y-100500000D01*
X59635000Y-101500000D01*
X59635000Y-101500000D01*
G37*
G36*
X57860000Y-101500000D02*
X56865000Y-101500000D01*
X56865000Y-100500000D01*
X57860000Y-100500000D01*
X57860000Y-101500000D01*
X57860000Y-101500000D01*
G37*
G36*
X56135000Y-101500000D02*
X55140000Y-101500000D01*
X55140000Y-100500000D01*
X56135000Y-100500000D01*
X56135000Y-101500000D01*
X56135000Y-101500000D01*
G37*
G36*
X54360000Y-101500000D02*
X53365000Y-101500000D01*
X53365000Y-100500000D01*
X54360000Y-100500000D01*
X54360000Y-101500000D01*
X54360000Y-101500000D01*
G37*
G36*
X75610000Y-100250000D02*
X74615000Y-100250000D01*
X74615000Y-99250000D01*
X75610000Y-99250000D01*
X75610000Y-100250000D01*
X75610000Y-100250000D01*
G37*
G36*
X77385000Y-100250000D02*
X76390000Y-100250000D01*
X76390000Y-99250000D01*
X77385000Y-99250000D01*
X77385000Y-100250000D01*
X77385000Y-100250000D01*
G37*
G36*
X71777440Y-99002025D02*
X71777443Y-99002026D01*
X71777444Y-99002026D01*
X71790639Y-99006028D01*
X71803838Y-99010032D01*
X71828155Y-99023030D01*
X71849474Y-99040526D01*
X71866970Y-99061845D01*
X71879968Y-99086161D01*
X71887975Y-99112559D01*
X71890000Y-99133121D01*
X71890000Y-99866879D01*
X71887975Y-99887441D01*
X71879968Y-99913839D01*
X71866970Y-99938155D01*
X71849474Y-99959474D01*
X71828155Y-99976970D01*
X71803839Y-99989968D01*
X71790640Y-99993972D01*
X71777445Y-99997974D01*
X71777444Y-99997974D01*
X71777441Y-99997975D01*
X71750000Y-100000678D01*
X71722560Y-99997975D01*
X71722557Y-99997974D01*
X71722556Y-99997974D01*
X71709361Y-99993972D01*
X71696162Y-99989968D01*
X71671846Y-99976970D01*
X71650527Y-99959474D01*
X71633031Y-99938155D01*
X71620033Y-99913839D01*
X71612026Y-99887441D01*
X71610001Y-99866879D01*
X71610000Y-99133122D01*
X71612025Y-99112560D01*
X71612027Y-99112555D01*
X71620031Y-99086166D01*
X71620032Y-99086162D01*
X71633030Y-99061845D01*
X71650526Y-99040526D01*
X71671845Y-99023030D01*
X71696161Y-99010032D01*
X71709360Y-99006028D01*
X71722555Y-99002026D01*
X71722556Y-99002026D01*
X71722559Y-99002025D01*
X71750000Y-98999322D01*
X71777440Y-99002025D01*
X71777440Y-99002025D01*
G37*
G36*
X65777440Y-99002025D02*
X65777443Y-99002026D01*
X65777444Y-99002026D01*
X65790639Y-99006028D01*
X65803838Y-99010032D01*
X65828155Y-99023030D01*
X65849474Y-99040526D01*
X65866970Y-99061845D01*
X65879968Y-99086161D01*
X65887975Y-99112559D01*
X65890000Y-99133121D01*
X65890000Y-99866879D01*
X65887975Y-99887441D01*
X65879968Y-99913839D01*
X65866970Y-99938155D01*
X65849474Y-99959474D01*
X65828155Y-99976970D01*
X65803839Y-99989968D01*
X65790640Y-99993972D01*
X65777445Y-99997974D01*
X65777444Y-99997974D01*
X65777441Y-99997975D01*
X65750000Y-100000678D01*
X65722560Y-99997975D01*
X65722557Y-99997974D01*
X65722556Y-99997974D01*
X65709361Y-99993972D01*
X65696162Y-99989968D01*
X65671846Y-99976970D01*
X65650527Y-99959474D01*
X65633031Y-99938155D01*
X65620033Y-99913839D01*
X65612026Y-99887441D01*
X65610001Y-99866879D01*
X65610000Y-99133122D01*
X65612025Y-99112560D01*
X65612027Y-99112555D01*
X65620031Y-99086166D01*
X65620032Y-99086162D01*
X65633030Y-99061845D01*
X65650526Y-99040526D01*
X65671845Y-99023030D01*
X65696161Y-99010032D01*
X65709360Y-99006028D01*
X65722555Y-99002026D01*
X65722556Y-99002026D01*
X65722559Y-99002025D01*
X65750000Y-98999322D01*
X65777440Y-99002025D01*
X65777440Y-99002025D01*
G37*
G36*
X68777440Y-99002025D02*
X68777443Y-99002026D01*
X68777444Y-99002026D01*
X68790639Y-99006028D01*
X68803838Y-99010032D01*
X68828155Y-99023030D01*
X68849474Y-99040526D01*
X68866970Y-99061845D01*
X68879968Y-99086161D01*
X68887975Y-99112559D01*
X68890000Y-99133121D01*
X68890000Y-99866879D01*
X68887975Y-99887441D01*
X68879968Y-99913839D01*
X68866970Y-99938155D01*
X68849474Y-99959474D01*
X68828155Y-99976970D01*
X68803839Y-99989968D01*
X68790640Y-99993972D01*
X68777445Y-99997974D01*
X68777444Y-99997974D01*
X68777441Y-99997975D01*
X68750000Y-100000678D01*
X68722560Y-99997975D01*
X68722557Y-99997974D01*
X68722556Y-99997974D01*
X68709361Y-99993972D01*
X68696162Y-99989968D01*
X68671846Y-99976970D01*
X68650527Y-99959474D01*
X68633031Y-99938155D01*
X68620033Y-99913839D01*
X68612026Y-99887441D01*
X68610001Y-99866879D01*
X68610000Y-99133122D01*
X68612025Y-99112560D01*
X68612027Y-99112555D01*
X68620031Y-99086166D01*
X68620032Y-99086162D01*
X68633030Y-99061845D01*
X68650526Y-99040526D01*
X68671845Y-99023030D01*
X68696161Y-99010032D01*
X68709360Y-99006028D01*
X68722555Y-99002026D01*
X68722556Y-99002026D01*
X68722559Y-99002025D01*
X68750000Y-98999322D01*
X68777440Y-99002025D01*
X68777440Y-99002025D01*
G37*
G36*
X66277440Y-99002025D02*
X66277443Y-99002026D01*
X66277444Y-99002026D01*
X66290639Y-99006028D01*
X66303838Y-99010032D01*
X66328155Y-99023030D01*
X66349474Y-99040526D01*
X66366970Y-99061845D01*
X66379968Y-99086161D01*
X66387975Y-99112559D01*
X66390000Y-99133121D01*
X66390000Y-99866879D01*
X66387975Y-99887441D01*
X66379968Y-99913839D01*
X66366970Y-99938155D01*
X66349474Y-99959474D01*
X66328155Y-99976970D01*
X66303839Y-99989968D01*
X66290640Y-99993972D01*
X66277445Y-99997974D01*
X66277444Y-99997974D01*
X66277441Y-99997975D01*
X66250000Y-100000678D01*
X66222560Y-99997975D01*
X66222557Y-99997974D01*
X66222556Y-99997974D01*
X66209361Y-99993972D01*
X66196162Y-99989968D01*
X66171846Y-99976970D01*
X66150527Y-99959474D01*
X66133031Y-99938155D01*
X66120033Y-99913839D01*
X66112026Y-99887441D01*
X66110001Y-99866879D01*
X66110000Y-99133122D01*
X66112025Y-99112560D01*
X66112027Y-99112555D01*
X66120031Y-99086166D01*
X66120032Y-99086162D01*
X66133030Y-99061845D01*
X66150526Y-99040526D01*
X66171845Y-99023030D01*
X66196161Y-99010032D01*
X66209360Y-99006028D01*
X66222555Y-99002026D01*
X66222556Y-99002026D01*
X66222559Y-99002025D01*
X66250000Y-98999322D01*
X66277440Y-99002025D01*
X66277440Y-99002025D01*
G37*
G36*
X66777440Y-99002025D02*
X66777443Y-99002026D01*
X66777444Y-99002026D01*
X66790639Y-99006028D01*
X66803838Y-99010032D01*
X66828155Y-99023030D01*
X66849474Y-99040526D01*
X66866970Y-99061845D01*
X66879968Y-99086161D01*
X66887975Y-99112559D01*
X66890000Y-99133121D01*
X66890000Y-99866879D01*
X66887975Y-99887441D01*
X66879968Y-99913839D01*
X66866970Y-99938155D01*
X66849474Y-99959474D01*
X66828155Y-99976970D01*
X66803839Y-99989968D01*
X66790640Y-99993972D01*
X66777445Y-99997974D01*
X66777444Y-99997974D01*
X66777441Y-99997975D01*
X66750000Y-100000678D01*
X66722560Y-99997975D01*
X66722557Y-99997974D01*
X66722556Y-99997974D01*
X66709361Y-99993972D01*
X66696162Y-99989968D01*
X66671846Y-99976970D01*
X66650527Y-99959474D01*
X66633031Y-99938155D01*
X66620033Y-99913839D01*
X66612026Y-99887441D01*
X66610001Y-99866879D01*
X66610000Y-99133122D01*
X66612025Y-99112560D01*
X66612027Y-99112555D01*
X66620031Y-99086166D01*
X66620032Y-99086162D01*
X66633030Y-99061845D01*
X66650526Y-99040526D01*
X66671845Y-99023030D01*
X66696161Y-99010032D01*
X66709360Y-99006028D01*
X66722555Y-99002026D01*
X66722556Y-99002026D01*
X66722559Y-99002025D01*
X66750000Y-98999322D01*
X66777440Y-99002025D01*
X66777440Y-99002025D01*
G37*
G36*
X67277440Y-99002025D02*
X67277443Y-99002026D01*
X67277444Y-99002026D01*
X67290639Y-99006028D01*
X67303838Y-99010032D01*
X67328155Y-99023030D01*
X67349474Y-99040526D01*
X67366970Y-99061845D01*
X67379968Y-99086161D01*
X67387975Y-99112559D01*
X67390000Y-99133121D01*
X67390000Y-99866879D01*
X67387975Y-99887441D01*
X67379968Y-99913839D01*
X67366970Y-99938155D01*
X67349474Y-99959474D01*
X67328155Y-99976970D01*
X67303839Y-99989968D01*
X67290640Y-99993972D01*
X67277445Y-99997974D01*
X67277444Y-99997974D01*
X67277441Y-99997975D01*
X67250000Y-100000678D01*
X67222560Y-99997975D01*
X67222557Y-99997974D01*
X67222556Y-99997974D01*
X67209361Y-99993972D01*
X67196162Y-99989968D01*
X67171846Y-99976970D01*
X67150527Y-99959474D01*
X67133031Y-99938155D01*
X67120033Y-99913839D01*
X67112026Y-99887441D01*
X67110001Y-99866879D01*
X67110000Y-99133122D01*
X67112025Y-99112560D01*
X67112027Y-99112555D01*
X67120031Y-99086166D01*
X67120032Y-99086162D01*
X67133030Y-99061845D01*
X67150526Y-99040526D01*
X67171845Y-99023030D01*
X67196161Y-99010032D01*
X67209360Y-99006028D01*
X67222555Y-99002026D01*
X67222556Y-99002026D01*
X67222559Y-99002025D01*
X67250000Y-98999322D01*
X67277440Y-99002025D01*
X67277440Y-99002025D01*
G37*
G36*
X67777440Y-99002025D02*
X67777443Y-99002026D01*
X67777444Y-99002026D01*
X67790639Y-99006028D01*
X67803838Y-99010032D01*
X67828155Y-99023030D01*
X67849474Y-99040526D01*
X67866970Y-99061845D01*
X67879968Y-99086161D01*
X67887975Y-99112559D01*
X67890000Y-99133121D01*
X67890000Y-99866879D01*
X67887975Y-99887441D01*
X67879968Y-99913839D01*
X67866970Y-99938155D01*
X67849474Y-99959474D01*
X67828155Y-99976970D01*
X67803839Y-99989968D01*
X67790640Y-99993972D01*
X67777445Y-99997974D01*
X67777444Y-99997974D01*
X67777441Y-99997975D01*
X67750000Y-100000678D01*
X67722560Y-99997975D01*
X67722557Y-99997974D01*
X67722556Y-99997974D01*
X67709361Y-99993972D01*
X67696162Y-99989968D01*
X67671846Y-99976970D01*
X67650527Y-99959474D01*
X67633031Y-99938155D01*
X67620033Y-99913839D01*
X67612026Y-99887441D01*
X67610001Y-99866879D01*
X67610000Y-99133122D01*
X67612025Y-99112560D01*
X67612027Y-99112555D01*
X67620031Y-99086166D01*
X67620032Y-99086162D01*
X67633030Y-99061845D01*
X67650526Y-99040526D01*
X67671845Y-99023030D01*
X67696161Y-99010032D01*
X67709360Y-99006028D01*
X67722555Y-99002026D01*
X67722556Y-99002026D01*
X67722559Y-99002025D01*
X67750000Y-98999322D01*
X67777440Y-99002025D01*
X67777440Y-99002025D01*
G37*
G36*
X69277440Y-99002025D02*
X69277443Y-99002026D01*
X69277444Y-99002026D01*
X69290639Y-99006028D01*
X69303838Y-99010032D01*
X69328155Y-99023030D01*
X69349474Y-99040526D01*
X69366970Y-99061845D01*
X69379968Y-99086161D01*
X69387975Y-99112559D01*
X69390000Y-99133121D01*
X69390000Y-99866879D01*
X69387975Y-99887441D01*
X69379968Y-99913839D01*
X69366970Y-99938155D01*
X69349474Y-99959474D01*
X69328155Y-99976970D01*
X69303839Y-99989968D01*
X69290640Y-99993972D01*
X69277445Y-99997974D01*
X69277444Y-99997974D01*
X69277441Y-99997975D01*
X69250000Y-100000678D01*
X69222560Y-99997975D01*
X69222557Y-99997974D01*
X69222556Y-99997974D01*
X69209361Y-99993972D01*
X69196162Y-99989968D01*
X69171846Y-99976970D01*
X69150527Y-99959474D01*
X69133031Y-99938155D01*
X69120033Y-99913839D01*
X69112026Y-99887441D01*
X69110001Y-99866879D01*
X69110000Y-99133122D01*
X69112025Y-99112560D01*
X69112027Y-99112555D01*
X69120031Y-99086166D01*
X69120032Y-99086162D01*
X69133030Y-99061845D01*
X69150526Y-99040526D01*
X69171845Y-99023030D01*
X69196161Y-99010032D01*
X69209360Y-99006028D01*
X69222555Y-99002026D01*
X69222556Y-99002026D01*
X69222559Y-99002025D01*
X69250000Y-98999322D01*
X69277440Y-99002025D01*
X69277440Y-99002025D01*
G37*
G36*
X69777440Y-99002025D02*
X69777443Y-99002026D01*
X69777444Y-99002026D01*
X69790639Y-99006028D01*
X69803838Y-99010032D01*
X69828155Y-99023030D01*
X69849474Y-99040526D01*
X69866970Y-99061845D01*
X69879968Y-99086161D01*
X69887975Y-99112559D01*
X69890000Y-99133121D01*
X69890000Y-99866879D01*
X69887975Y-99887441D01*
X69879968Y-99913839D01*
X69866970Y-99938155D01*
X69849474Y-99959474D01*
X69828155Y-99976970D01*
X69803839Y-99989968D01*
X69790640Y-99993972D01*
X69777445Y-99997974D01*
X69777444Y-99997974D01*
X69777441Y-99997975D01*
X69750000Y-100000678D01*
X69722560Y-99997975D01*
X69722557Y-99997974D01*
X69722556Y-99997974D01*
X69709361Y-99993972D01*
X69696162Y-99989968D01*
X69671846Y-99976970D01*
X69650527Y-99959474D01*
X69633031Y-99938155D01*
X69620033Y-99913839D01*
X69612026Y-99887441D01*
X69610001Y-99866879D01*
X69610000Y-99133122D01*
X69612025Y-99112560D01*
X69612027Y-99112555D01*
X69620031Y-99086166D01*
X69620032Y-99086162D01*
X69633030Y-99061845D01*
X69650526Y-99040526D01*
X69671845Y-99023030D01*
X69696161Y-99010032D01*
X69709360Y-99006028D01*
X69722555Y-99002026D01*
X69722556Y-99002026D01*
X69722559Y-99002025D01*
X69750000Y-98999322D01*
X69777440Y-99002025D01*
X69777440Y-99002025D01*
G37*
G36*
X70277440Y-99002025D02*
X70277443Y-99002026D01*
X70277444Y-99002026D01*
X70290639Y-99006028D01*
X70303838Y-99010032D01*
X70328155Y-99023030D01*
X70349474Y-99040526D01*
X70366970Y-99061845D01*
X70379968Y-99086161D01*
X70387975Y-99112559D01*
X70390000Y-99133121D01*
X70390000Y-99866879D01*
X70387975Y-99887441D01*
X70379968Y-99913839D01*
X70366970Y-99938155D01*
X70349474Y-99959474D01*
X70328155Y-99976970D01*
X70303839Y-99989968D01*
X70290640Y-99993972D01*
X70277445Y-99997974D01*
X70277444Y-99997974D01*
X70277441Y-99997975D01*
X70250000Y-100000678D01*
X70222560Y-99997975D01*
X70222557Y-99997974D01*
X70222556Y-99997974D01*
X70209361Y-99993972D01*
X70196162Y-99989968D01*
X70171846Y-99976970D01*
X70150527Y-99959474D01*
X70133031Y-99938155D01*
X70120033Y-99913839D01*
X70112026Y-99887441D01*
X70110001Y-99866879D01*
X70110000Y-99133122D01*
X70112025Y-99112560D01*
X70112027Y-99112555D01*
X70120031Y-99086166D01*
X70120032Y-99086162D01*
X70133030Y-99061845D01*
X70150526Y-99040526D01*
X70171845Y-99023030D01*
X70196161Y-99010032D01*
X70209360Y-99006028D01*
X70222555Y-99002026D01*
X70222556Y-99002026D01*
X70222559Y-99002025D01*
X70250000Y-98999322D01*
X70277440Y-99002025D01*
X70277440Y-99002025D01*
G37*
G36*
X70777440Y-99002025D02*
X70777443Y-99002026D01*
X70777444Y-99002026D01*
X70790639Y-99006028D01*
X70803838Y-99010032D01*
X70828155Y-99023030D01*
X70849474Y-99040526D01*
X70866970Y-99061845D01*
X70879968Y-99086161D01*
X70887975Y-99112559D01*
X70890000Y-99133121D01*
X70890000Y-99866879D01*
X70887975Y-99887441D01*
X70879968Y-99913839D01*
X70866970Y-99938155D01*
X70849474Y-99959474D01*
X70828155Y-99976970D01*
X70803839Y-99989968D01*
X70790640Y-99993972D01*
X70777445Y-99997974D01*
X70777444Y-99997974D01*
X70777441Y-99997975D01*
X70750000Y-100000678D01*
X70722560Y-99997975D01*
X70722557Y-99997974D01*
X70722556Y-99997974D01*
X70709361Y-99993972D01*
X70696162Y-99989968D01*
X70671846Y-99976970D01*
X70650527Y-99959474D01*
X70633031Y-99938155D01*
X70620033Y-99913839D01*
X70612026Y-99887441D01*
X70610001Y-99866879D01*
X70610000Y-99133122D01*
X70612025Y-99112560D01*
X70612027Y-99112555D01*
X70620031Y-99086166D01*
X70620032Y-99086162D01*
X70633030Y-99061845D01*
X70650526Y-99040526D01*
X70671845Y-99023030D01*
X70696161Y-99010032D01*
X70709360Y-99006028D01*
X70722555Y-99002026D01*
X70722556Y-99002026D01*
X70722559Y-99002025D01*
X70750000Y-98999322D01*
X70777440Y-99002025D01*
X70777440Y-99002025D01*
G37*
G36*
X71277440Y-99002025D02*
X71277443Y-99002026D01*
X71277444Y-99002026D01*
X71290639Y-99006028D01*
X71303838Y-99010032D01*
X71328155Y-99023030D01*
X71349474Y-99040526D01*
X71366970Y-99061845D01*
X71379968Y-99086161D01*
X71387975Y-99112559D01*
X71390000Y-99133121D01*
X71390000Y-99866879D01*
X71387975Y-99887441D01*
X71379968Y-99913839D01*
X71366970Y-99938155D01*
X71349474Y-99959474D01*
X71328155Y-99976970D01*
X71303839Y-99989968D01*
X71290640Y-99993972D01*
X71277445Y-99997974D01*
X71277444Y-99997974D01*
X71277441Y-99997975D01*
X71250000Y-100000678D01*
X71222560Y-99997975D01*
X71222557Y-99997974D01*
X71222556Y-99997974D01*
X71209361Y-99993972D01*
X71196162Y-99989968D01*
X71171846Y-99976970D01*
X71150527Y-99959474D01*
X71133031Y-99938155D01*
X71120033Y-99913839D01*
X71112026Y-99887441D01*
X71110001Y-99866879D01*
X71110000Y-99133122D01*
X71112025Y-99112560D01*
X71112027Y-99112555D01*
X71120031Y-99086166D01*
X71120032Y-99086162D01*
X71133030Y-99061845D01*
X71150526Y-99040526D01*
X71171845Y-99023030D01*
X71196161Y-99010032D01*
X71209360Y-99006028D01*
X71222555Y-99002026D01*
X71222556Y-99002026D01*
X71222559Y-99002025D01*
X71250000Y-98999322D01*
X71277440Y-99002025D01*
X71277440Y-99002025D01*
G37*
G36*
X72277440Y-99002025D02*
X72277443Y-99002026D01*
X72277444Y-99002026D01*
X72290639Y-99006028D01*
X72303838Y-99010032D01*
X72328155Y-99023030D01*
X72349474Y-99040526D01*
X72366970Y-99061845D01*
X72379968Y-99086161D01*
X72387975Y-99112559D01*
X72390000Y-99133121D01*
X72390000Y-99866879D01*
X72387975Y-99887441D01*
X72379968Y-99913839D01*
X72366970Y-99938155D01*
X72349474Y-99959474D01*
X72328155Y-99976970D01*
X72303839Y-99989968D01*
X72290640Y-99993972D01*
X72277445Y-99997974D01*
X72277444Y-99997974D01*
X72277441Y-99997975D01*
X72250000Y-100000678D01*
X72222560Y-99997975D01*
X72222557Y-99997974D01*
X72222556Y-99997974D01*
X72209361Y-99993972D01*
X72196162Y-99989968D01*
X72171846Y-99976970D01*
X72150527Y-99959474D01*
X72133031Y-99938155D01*
X72120033Y-99913839D01*
X72112026Y-99887441D01*
X72110001Y-99866879D01*
X72110000Y-99133122D01*
X72112025Y-99112560D01*
X72112027Y-99112555D01*
X72120031Y-99086166D01*
X72120032Y-99086162D01*
X72133030Y-99061845D01*
X72150526Y-99040526D01*
X72171845Y-99023030D01*
X72196161Y-99010032D01*
X72209360Y-99006028D01*
X72222555Y-99002026D01*
X72222556Y-99002026D01*
X72222559Y-99002025D01*
X72250000Y-98999322D01*
X72277440Y-99002025D01*
X72277440Y-99002025D01*
G37*
G36*
X68277440Y-99002025D02*
X68277443Y-99002026D01*
X68277444Y-99002026D01*
X68290639Y-99006028D01*
X68303838Y-99010032D01*
X68328155Y-99023030D01*
X68349474Y-99040526D01*
X68366970Y-99061845D01*
X68379968Y-99086161D01*
X68387975Y-99112559D01*
X68390000Y-99133121D01*
X68390000Y-99866879D01*
X68387975Y-99887441D01*
X68379968Y-99913839D01*
X68366970Y-99938155D01*
X68349474Y-99959474D01*
X68328155Y-99976970D01*
X68303839Y-99989968D01*
X68290640Y-99993972D01*
X68277445Y-99997974D01*
X68277444Y-99997974D01*
X68277441Y-99997975D01*
X68250000Y-100000678D01*
X68222560Y-99997975D01*
X68222557Y-99997974D01*
X68222556Y-99997974D01*
X68209361Y-99993972D01*
X68196162Y-99989968D01*
X68171846Y-99976970D01*
X68150527Y-99959474D01*
X68133031Y-99938155D01*
X68120033Y-99913839D01*
X68112026Y-99887441D01*
X68110001Y-99866879D01*
X68110000Y-99133122D01*
X68112025Y-99112560D01*
X68112027Y-99112555D01*
X68120031Y-99086166D01*
X68120032Y-99086162D01*
X68133030Y-99061845D01*
X68150526Y-99040526D01*
X68171845Y-99023030D01*
X68196161Y-99010032D01*
X68209360Y-99006028D01*
X68222555Y-99002026D01*
X68222556Y-99002026D01*
X68222559Y-99002025D01*
X68250000Y-98999322D01*
X68277440Y-99002025D01*
X68277440Y-99002025D01*
G37*
G36*
X100650000Y-99900000D02*
X99850000Y-99900000D01*
X99850000Y-99600000D01*
X100650000Y-99600000D01*
X100650000Y-99900000D01*
X100650000Y-99900000D01*
G37*
G36*
X98850000Y-99900000D02*
X98050000Y-99900000D01*
X98050000Y-99600000D01*
X98850000Y-99600000D01*
X98850000Y-99900000D01*
X98850000Y-99900000D01*
G37*
G36*
X53600000Y-99597500D02*
X51700000Y-99597500D01*
X51700000Y-97222500D01*
X53600000Y-97222500D01*
X53600000Y-99597500D01*
X53600000Y-99597500D01*
G37*
G36*
X100650000Y-99400000D02*
X99850000Y-99400000D01*
X99850000Y-99100000D01*
X100650000Y-99100000D01*
X100650000Y-99400000D01*
X100650000Y-99400000D01*
G37*
G36*
X98850000Y-99400000D02*
X98050000Y-99400000D01*
X98050000Y-99100000D01*
X98850000Y-99100000D01*
X98850000Y-99400000D01*
X98850000Y-99400000D01*
G37*
G36*
X61030000Y-99275000D02*
X59970000Y-99275000D01*
X59970000Y-98625000D01*
X61030000Y-98625000D01*
X61030000Y-99275000D01*
X61030000Y-99275000D01*
G37*
G36*
X58830000Y-99275000D02*
X57770000Y-99275000D01*
X57770000Y-98625000D01*
X58830000Y-98625000D01*
X58830000Y-99275000D01*
X58830000Y-99275000D01*
G37*
G36*
X86875000Y-99250000D02*
X86625000Y-99250000D01*
X86625000Y-98550000D01*
X86875000Y-98550000D01*
X86875000Y-99250000D01*
X86875000Y-99250000D01*
G37*
G36*
X87375000Y-99250000D02*
X87125000Y-99250000D01*
X87125000Y-98550000D01*
X87375000Y-98550000D01*
X87375000Y-99250000D01*
X87375000Y-99250000D01*
G37*
G36*
X84375000Y-99250000D02*
X84125000Y-99250000D01*
X84125000Y-98550000D01*
X84375000Y-98550000D01*
X84375000Y-99250000D01*
X84375000Y-99250000D01*
G37*
G36*
X87875000Y-99250000D02*
X87625000Y-99250000D01*
X87625000Y-98550000D01*
X87875000Y-98550000D01*
X87875000Y-99250000D01*
X87875000Y-99250000D01*
G37*
G36*
X86375000Y-99250000D02*
X86125000Y-99250000D01*
X86125000Y-98550000D01*
X86375000Y-98550000D01*
X86375000Y-99250000D01*
X86375000Y-99250000D01*
G37*
G36*
X85875000Y-99250000D02*
X85625000Y-99250000D01*
X85625000Y-98550000D01*
X85875000Y-98550000D01*
X85875000Y-99250000D01*
X85875000Y-99250000D01*
G37*
G36*
X82875000Y-99250000D02*
X82625000Y-99250000D01*
X82625000Y-98550000D01*
X82875000Y-98550000D01*
X82875000Y-99250000D01*
X82875000Y-99250000D01*
G37*
G36*
X82375000Y-99250000D02*
X82125000Y-99250000D01*
X82125000Y-98550000D01*
X82375000Y-98550000D01*
X82375000Y-99250000D01*
X82375000Y-99250000D01*
G37*
G36*
X85375000Y-99250000D02*
X85125000Y-99250000D01*
X85125000Y-98550000D01*
X85375000Y-98550000D01*
X85375000Y-99250000D01*
X85375000Y-99250000D01*
G37*
G36*
X84875000Y-99250000D02*
X84625000Y-99250000D01*
X84625000Y-98550000D01*
X84875000Y-98550000D01*
X84875000Y-99250000D01*
X84875000Y-99250000D01*
G37*
G36*
X83375000Y-99250000D02*
X83125000Y-99250000D01*
X83125000Y-98550000D01*
X83375000Y-98550000D01*
X83375000Y-99250000D01*
X83375000Y-99250000D01*
G37*
G36*
X83875000Y-99250000D02*
X83625000Y-99250000D01*
X83625000Y-98550000D01*
X83875000Y-98550000D01*
X83875000Y-99250000D01*
X83875000Y-99250000D01*
G37*
G36*
X98850000Y-98900000D02*
X98050000Y-98900000D01*
X98050000Y-98600000D01*
X98850000Y-98600000D01*
X98850000Y-98900000D01*
X98850000Y-98900000D01*
G37*
G36*
X100650000Y-98900000D02*
X99850000Y-98900000D01*
X99850000Y-98600000D01*
X100650000Y-98600000D01*
X100650000Y-98900000D01*
X100650000Y-98900000D01*
G37*
G36*
X65387441Y-98612025D02*
X65387444Y-98612026D01*
X65387445Y-98612026D01*
X65400640Y-98616029D01*
X65413839Y-98620032D01*
X65438155Y-98633030D01*
X65459474Y-98650526D01*
X65476970Y-98671845D01*
X65489968Y-98696161D01*
X65497975Y-98722559D01*
X65500678Y-98750000D01*
X65497975Y-98777441D01*
X65489968Y-98803839D01*
X65476970Y-98828155D01*
X65459474Y-98849474D01*
X65438155Y-98866970D01*
X65413839Y-98879968D01*
X65400640Y-98883971D01*
X65387445Y-98887974D01*
X65387444Y-98887974D01*
X65387441Y-98887975D01*
X65366879Y-98890000D01*
X64633121Y-98890000D01*
X64612559Y-98887975D01*
X64612556Y-98887974D01*
X64612555Y-98887974D01*
X64599360Y-98883971D01*
X64586161Y-98879968D01*
X64561845Y-98866970D01*
X64540526Y-98849474D01*
X64523030Y-98828155D01*
X64510032Y-98803839D01*
X64502025Y-98777441D01*
X64499322Y-98750000D01*
X64502025Y-98722559D01*
X64510032Y-98696161D01*
X64523030Y-98671845D01*
X64540526Y-98650526D01*
X64561845Y-98633030D01*
X64586161Y-98620032D01*
X64599360Y-98616029D01*
X64612555Y-98612026D01*
X64612556Y-98612026D01*
X64612559Y-98612025D01*
X64633121Y-98610000D01*
X65366879Y-98610000D01*
X65387441Y-98612025D01*
X65387441Y-98612025D01*
G37*
G36*
X73387441Y-98612025D02*
X73387444Y-98612026D01*
X73387445Y-98612026D01*
X73400640Y-98616029D01*
X73413839Y-98620032D01*
X73438155Y-98633030D01*
X73459474Y-98650526D01*
X73476970Y-98671845D01*
X73489968Y-98696161D01*
X73497975Y-98722559D01*
X73500678Y-98750000D01*
X73497975Y-98777441D01*
X73489968Y-98803839D01*
X73476970Y-98828155D01*
X73459474Y-98849474D01*
X73438155Y-98866970D01*
X73413839Y-98879968D01*
X73400640Y-98883971D01*
X73387445Y-98887974D01*
X73387444Y-98887974D01*
X73387441Y-98887975D01*
X73366879Y-98890000D01*
X72633121Y-98890000D01*
X72612559Y-98887975D01*
X72612556Y-98887974D01*
X72612555Y-98887974D01*
X72599360Y-98883971D01*
X72586161Y-98879968D01*
X72561845Y-98866970D01*
X72540526Y-98849474D01*
X72523030Y-98828155D01*
X72510032Y-98803839D01*
X72502025Y-98777441D01*
X72499322Y-98750000D01*
X72502025Y-98722559D01*
X72510032Y-98696161D01*
X72523030Y-98671845D01*
X72540526Y-98650526D01*
X72561845Y-98633030D01*
X72586161Y-98620032D01*
X72599360Y-98616029D01*
X72612555Y-98612026D01*
X72612556Y-98612026D01*
X72612559Y-98612025D01*
X72633121Y-98610000D01*
X73366879Y-98610000D01*
X73387441Y-98612025D01*
X73387441Y-98612025D01*
G37*
G36*
X56000000Y-98700000D02*
X53900000Y-98700000D01*
X53900000Y-97225000D01*
X56000000Y-97225000D01*
X56000000Y-98700000D01*
X56000000Y-98700000D01*
G37*
G36*
X100650000Y-98400000D02*
X99850000Y-98400000D01*
X99850000Y-98100000D01*
X100650000Y-98100000D01*
X100650000Y-98400000D01*
X100650000Y-98400000D01*
G37*
G36*
X98850000Y-98400000D02*
X98050000Y-98400000D01*
X98050000Y-98100000D01*
X98850000Y-98100000D01*
X98850000Y-98400000D01*
X98850000Y-98400000D01*
G37*
G36*
X65387441Y-98112025D02*
X65387444Y-98112026D01*
X65387445Y-98112026D01*
X65400640Y-98116029D01*
X65413839Y-98120032D01*
X65438155Y-98133030D01*
X65459474Y-98150526D01*
X65476970Y-98171845D01*
X65489968Y-98196161D01*
X65497975Y-98222559D01*
X65500678Y-98250000D01*
X65497975Y-98277441D01*
X65489968Y-98303839D01*
X65476970Y-98328155D01*
X65459474Y-98349474D01*
X65438155Y-98366970D01*
X65413839Y-98379968D01*
X65400640Y-98383972D01*
X65387445Y-98387974D01*
X65387444Y-98387974D01*
X65387441Y-98387975D01*
X65366879Y-98390000D01*
X64633121Y-98390000D01*
X64612559Y-98387975D01*
X64612556Y-98387974D01*
X64612555Y-98387974D01*
X64599360Y-98383972D01*
X64586161Y-98379968D01*
X64561845Y-98366970D01*
X64540526Y-98349474D01*
X64523030Y-98328155D01*
X64510032Y-98303839D01*
X64502025Y-98277441D01*
X64499322Y-98250000D01*
X64502025Y-98222559D01*
X64510032Y-98196161D01*
X64523030Y-98171845D01*
X64540526Y-98150526D01*
X64561845Y-98133030D01*
X64586161Y-98120032D01*
X64599360Y-98116029D01*
X64612555Y-98112026D01*
X64612556Y-98112026D01*
X64612559Y-98112025D01*
X64633121Y-98110000D01*
X65366879Y-98110000D01*
X65387441Y-98112025D01*
X65387441Y-98112025D01*
G37*
G36*
X73387441Y-98112025D02*
X73387444Y-98112026D01*
X73387445Y-98112026D01*
X73400640Y-98116029D01*
X73413839Y-98120032D01*
X73438155Y-98133030D01*
X73459474Y-98150526D01*
X73476970Y-98171845D01*
X73489968Y-98196161D01*
X73497975Y-98222559D01*
X73500678Y-98250000D01*
X73497975Y-98277441D01*
X73489968Y-98303839D01*
X73476970Y-98328155D01*
X73459474Y-98349474D01*
X73438155Y-98366970D01*
X73413839Y-98379968D01*
X73400640Y-98383972D01*
X73387445Y-98387974D01*
X73387444Y-98387974D01*
X73387441Y-98387975D01*
X73366879Y-98390000D01*
X72633121Y-98390000D01*
X72612559Y-98387975D01*
X72612556Y-98387974D01*
X72612555Y-98387974D01*
X72599360Y-98383972D01*
X72586161Y-98379968D01*
X72561845Y-98366970D01*
X72540526Y-98349474D01*
X72523030Y-98328155D01*
X72510032Y-98303839D01*
X72502025Y-98277441D01*
X72499322Y-98250000D01*
X72502025Y-98222559D01*
X72510032Y-98196161D01*
X72523030Y-98171845D01*
X72540526Y-98150526D01*
X72561845Y-98133030D01*
X72586161Y-98120032D01*
X72599360Y-98116029D01*
X72612555Y-98112026D01*
X72612556Y-98112026D01*
X72612559Y-98112025D01*
X72633121Y-98110000D01*
X73366879Y-98110000D01*
X73387441Y-98112025D01*
X73387441Y-98112025D01*
G37*
G36*
X81950000Y-98375000D02*
X81250000Y-98375000D01*
X81250000Y-98125000D01*
X81950000Y-98125000D01*
X81950000Y-98375000D01*
X81950000Y-98375000D01*
G37*
G36*
X88750000Y-98375000D02*
X88050000Y-98375000D01*
X88050000Y-98125000D01*
X88750000Y-98125000D01*
X88750000Y-98375000D01*
X88750000Y-98375000D01*
G37*
G36*
X58830000Y-98325000D02*
X57770000Y-98325000D01*
X57770000Y-97675000D01*
X58830000Y-97675000D01*
X58830000Y-98325000D01*
X58830000Y-98325000D01*
G37*
G36*
X61030000Y-98325000D02*
X59970000Y-98325000D01*
X59970000Y-97675000D01*
X61030000Y-97675000D01*
X61030000Y-98325000D01*
X61030000Y-98325000D01*
G37*
G36*
X87575000Y-98075000D02*
X82425000Y-98075000D01*
X82425000Y-92925000D01*
X87575000Y-92925000D01*
X87575000Y-98075000D01*
X87575000Y-98075000D01*
G37*
G36*
X98850000Y-97900000D02*
X98050000Y-97900000D01*
X98050000Y-97600000D01*
X98850000Y-97600000D01*
X98850000Y-97900000D01*
X98850000Y-97900000D01*
G37*
G36*
X100650000Y-97900000D02*
X99850000Y-97900000D01*
X99850000Y-97600000D01*
X100650000Y-97600000D01*
X100650000Y-97900000D01*
X100650000Y-97900000D01*
G37*
G36*
X65387441Y-97612025D02*
X65387444Y-97612026D01*
X65387445Y-97612026D01*
X65400640Y-97616028D01*
X65413839Y-97620032D01*
X65438155Y-97633030D01*
X65459474Y-97650526D01*
X65476970Y-97671845D01*
X65489968Y-97696161D01*
X65497975Y-97722559D01*
X65500678Y-97750000D01*
X65497975Y-97777441D01*
X65489968Y-97803839D01*
X65476970Y-97828155D01*
X65459474Y-97849474D01*
X65438155Y-97866970D01*
X65413839Y-97879968D01*
X65400640Y-97883971D01*
X65387445Y-97887974D01*
X65387444Y-97887974D01*
X65387441Y-97887975D01*
X65366879Y-97890000D01*
X64633121Y-97890000D01*
X64612559Y-97887975D01*
X64612556Y-97887974D01*
X64612555Y-97887974D01*
X64599360Y-97883971D01*
X64586161Y-97879968D01*
X64561845Y-97866970D01*
X64540526Y-97849474D01*
X64523030Y-97828155D01*
X64510032Y-97803839D01*
X64502025Y-97777441D01*
X64499322Y-97750000D01*
X64502025Y-97722559D01*
X64510032Y-97696161D01*
X64523030Y-97671845D01*
X64540526Y-97650526D01*
X64561845Y-97633030D01*
X64586161Y-97620032D01*
X64599360Y-97616028D01*
X64612555Y-97612026D01*
X64612556Y-97612026D01*
X64612559Y-97612025D01*
X64633121Y-97610000D01*
X65366879Y-97610000D01*
X65387441Y-97612025D01*
X65387441Y-97612025D01*
G37*
G36*
X73387441Y-97612025D02*
X73387444Y-97612026D01*
X73387445Y-97612026D01*
X73400640Y-97616028D01*
X73413839Y-97620032D01*
X73438155Y-97633030D01*
X73459474Y-97650526D01*
X73476970Y-97671845D01*
X73489968Y-97696161D01*
X73497975Y-97722559D01*
X73500678Y-97750000D01*
X73497975Y-97777441D01*
X73489968Y-97803839D01*
X73476970Y-97828155D01*
X73459474Y-97849474D01*
X73438155Y-97866970D01*
X73413839Y-97879968D01*
X73400640Y-97883971D01*
X73387445Y-97887974D01*
X73387444Y-97887974D01*
X73387441Y-97887975D01*
X73366879Y-97890000D01*
X72633121Y-97890000D01*
X72612559Y-97887975D01*
X72612556Y-97887974D01*
X72612555Y-97887974D01*
X72599360Y-97883971D01*
X72586161Y-97879968D01*
X72561845Y-97866970D01*
X72540526Y-97849474D01*
X72523030Y-97828155D01*
X72510032Y-97803839D01*
X72502025Y-97777441D01*
X72499322Y-97750000D01*
X72502025Y-97722559D01*
X72510032Y-97696161D01*
X72523030Y-97671845D01*
X72540526Y-97650526D01*
X72561845Y-97633030D01*
X72586161Y-97620032D01*
X72599360Y-97616028D01*
X72612555Y-97612026D01*
X72612556Y-97612026D01*
X72612559Y-97612025D01*
X72633121Y-97610000D01*
X73366879Y-97610000D01*
X73387441Y-97612025D01*
X73387441Y-97612025D01*
G37*
G36*
X81950000Y-97875000D02*
X81250000Y-97875000D01*
X81250000Y-97625000D01*
X81950000Y-97625000D01*
X81950000Y-97875000D01*
X81950000Y-97875000D01*
G37*
G36*
X88750000Y-97875000D02*
X88050000Y-97875000D01*
X88050000Y-97625000D01*
X88750000Y-97625000D01*
X88750000Y-97875000D01*
X88750000Y-97875000D01*
G37*
G36*
X100650000Y-97400000D02*
X99850000Y-97400000D01*
X99850000Y-97100000D01*
X100650000Y-97100000D01*
X100650000Y-97400000D01*
X100650000Y-97400000D01*
G37*
G36*
X98850000Y-97400000D02*
X98050000Y-97400000D01*
X98050000Y-97100000D01*
X98850000Y-97100000D01*
X98850000Y-97400000D01*
X98850000Y-97400000D01*
G37*
G36*
X73387441Y-97112025D02*
X73387444Y-97112026D01*
X73387445Y-97112026D01*
X73400640Y-97116029D01*
X73413839Y-97120032D01*
X73438155Y-97133030D01*
X73459474Y-97150526D01*
X73476970Y-97171845D01*
X73489968Y-97196161D01*
X73497975Y-97222559D01*
X73500678Y-97250000D01*
X73497975Y-97277441D01*
X73489968Y-97303839D01*
X73476970Y-97328155D01*
X73459474Y-97349474D01*
X73438155Y-97366970D01*
X73413839Y-97379968D01*
X73400640Y-97383972D01*
X73387445Y-97387974D01*
X73387444Y-97387974D01*
X73387441Y-97387975D01*
X73366879Y-97390000D01*
X72633121Y-97390000D01*
X72612559Y-97387975D01*
X72612556Y-97387974D01*
X72612555Y-97387974D01*
X72599360Y-97383972D01*
X72586161Y-97379968D01*
X72561845Y-97366970D01*
X72540526Y-97349474D01*
X72523030Y-97328155D01*
X72510032Y-97303839D01*
X72502025Y-97277441D01*
X72499322Y-97250000D01*
X72502025Y-97222559D01*
X72510032Y-97196161D01*
X72523030Y-97171845D01*
X72540526Y-97150526D01*
X72561845Y-97133030D01*
X72586161Y-97120032D01*
X72599360Y-97116029D01*
X72612555Y-97112026D01*
X72612556Y-97112026D01*
X72612559Y-97112025D01*
X72633121Y-97110000D01*
X73366879Y-97110000D01*
X73387441Y-97112025D01*
X73387441Y-97112025D01*
G37*
G36*
X65387441Y-97112025D02*
X65387444Y-97112026D01*
X65387445Y-97112026D01*
X65400640Y-97116029D01*
X65413839Y-97120032D01*
X65438155Y-97133030D01*
X65459474Y-97150526D01*
X65476970Y-97171845D01*
X65489968Y-97196161D01*
X65497975Y-97222559D01*
X65500678Y-97250000D01*
X65497975Y-97277441D01*
X65489968Y-97303839D01*
X65476970Y-97328155D01*
X65459474Y-97349474D01*
X65438155Y-97366970D01*
X65413839Y-97379968D01*
X65400640Y-97383972D01*
X65387445Y-97387974D01*
X65387444Y-97387974D01*
X65387441Y-97387975D01*
X65366879Y-97390000D01*
X64633121Y-97390000D01*
X64612559Y-97387975D01*
X64612556Y-97387974D01*
X64612555Y-97387974D01*
X64599360Y-97383972D01*
X64586161Y-97379968D01*
X64561845Y-97366970D01*
X64540526Y-97349474D01*
X64523030Y-97328155D01*
X64510032Y-97303839D01*
X64502025Y-97277441D01*
X64499322Y-97250000D01*
X64502025Y-97222559D01*
X64510032Y-97196161D01*
X64523030Y-97171845D01*
X64540526Y-97150526D01*
X64561845Y-97133030D01*
X64586161Y-97120032D01*
X64599360Y-97116029D01*
X64612555Y-97112026D01*
X64612556Y-97112026D01*
X64612559Y-97112025D01*
X64633121Y-97110000D01*
X65366879Y-97110000D01*
X65387441Y-97112025D01*
X65387441Y-97112025D01*
G37*
G36*
X81950000Y-97375000D02*
X81250000Y-97375000D01*
X81250000Y-97125000D01*
X81950000Y-97125000D01*
X81950000Y-97375000D01*
X81950000Y-97375000D01*
G37*
G36*
X88750000Y-97375000D02*
X88050000Y-97375000D01*
X88050000Y-97125000D01*
X88750000Y-97125000D01*
X88750000Y-97375000D01*
X88750000Y-97375000D01*
G37*
G36*
X61030000Y-97375000D02*
X59970000Y-97375000D01*
X59970000Y-96725000D01*
X61030000Y-96725000D01*
X61030000Y-97375000D01*
X61030000Y-97375000D01*
G37*
G36*
X58830000Y-97375000D02*
X57770000Y-97375000D01*
X57770000Y-96725000D01*
X58830000Y-96725000D01*
X58830000Y-97375000D01*
X58830000Y-97375000D01*
G37*
G36*
X77610000Y-97250000D02*
X76615000Y-97250000D01*
X76615000Y-96250000D01*
X77610000Y-96250000D01*
X77610000Y-97250000D01*
X77610000Y-97250000D01*
G37*
G36*
X79385000Y-97250000D02*
X78390000Y-97250000D01*
X78390000Y-96250000D01*
X79385000Y-96250000D01*
X79385000Y-97250000D01*
X79385000Y-97250000D01*
G37*
G36*
X56000000Y-97025000D02*
X54620000Y-97025000D01*
X54620000Y-96575000D01*
X56000000Y-96575000D01*
X56000000Y-97025000D01*
X56000000Y-97025000D01*
G37*
G36*
X53600000Y-96927500D02*
X51700000Y-96927500D01*
X51700000Y-95752500D01*
X53600000Y-95752500D01*
X53600000Y-96927500D01*
X53600000Y-96927500D01*
G37*
G36*
X98850000Y-96900000D02*
X98050000Y-96900000D01*
X98050000Y-96600000D01*
X98850000Y-96600000D01*
X98850000Y-96900000D01*
X98850000Y-96900000D01*
G37*
G36*
X100650000Y-96900000D02*
X99850000Y-96900000D01*
X99850000Y-96600000D01*
X100650000Y-96600000D01*
X100650000Y-96900000D01*
X100650000Y-96900000D01*
G37*
G36*
X65387441Y-96612025D02*
X65387444Y-96612026D01*
X65387445Y-96612026D01*
X65400640Y-96616028D01*
X65413839Y-96620032D01*
X65438155Y-96633030D01*
X65459474Y-96650526D01*
X65476970Y-96671845D01*
X65489968Y-96696161D01*
X65497975Y-96722559D01*
X65500678Y-96750000D01*
X65497975Y-96777441D01*
X65489968Y-96803839D01*
X65476970Y-96828155D01*
X65459474Y-96849474D01*
X65438155Y-96866970D01*
X65413839Y-96879968D01*
X65400640Y-96883972D01*
X65387445Y-96887974D01*
X65387444Y-96887974D01*
X65387441Y-96887975D01*
X65366879Y-96890000D01*
X64633121Y-96890000D01*
X64612559Y-96887975D01*
X64612556Y-96887974D01*
X64612555Y-96887974D01*
X64599360Y-96883972D01*
X64586161Y-96879968D01*
X64561845Y-96866970D01*
X64540526Y-96849474D01*
X64523030Y-96828155D01*
X64510032Y-96803839D01*
X64502025Y-96777441D01*
X64499322Y-96750000D01*
X64502025Y-96722559D01*
X64510032Y-96696161D01*
X64523030Y-96671845D01*
X64540526Y-96650526D01*
X64561845Y-96633030D01*
X64586161Y-96620032D01*
X64599360Y-96616028D01*
X64612555Y-96612026D01*
X64612556Y-96612026D01*
X64612559Y-96612025D01*
X64633121Y-96610000D01*
X65366879Y-96610000D01*
X65387441Y-96612025D01*
X65387441Y-96612025D01*
G37*
G36*
X73387441Y-96612025D02*
X73387444Y-96612026D01*
X73387445Y-96612026D01*
X73400640Y-96616028D01*
X73413839Y-96620032D01*
X73438155Y-96633030D01*
X73459474Y-96650526D01*
X73476970Y-96671845D01*
X73489968Y-96696161D01*
X73497975Y-96722559D01*
X73500678Y-96750000D01*
X73497975Y-96777441D01*
X73489968Y-96803839D01*
X73476970Y-96828155D01*
X73459474Y-96849474D01*
X73438155Y-96866970D01*
X73413839Y-96879968D01*
X73400640Y-96883972D01*
X73387445Y-96887974D01*
X73387444Y-96887974D01*
X73387441Y-96887975D01*
X73366879Y-96890000D01*
X72633121Y-96890000D01*
X72612559Y-96887975D01*
X72612556Y-96887974D01*
X72612555Y-96887974D01*
X72599360Y-96883972D01*
X72586161Y-96879968D01*
X72561845Y-96866970D01*
X72540526Y-96849474D01*
X72523030Y-96828155D01*
X72510032Y-96803839D01*
X72502025Y-96777441D01*
X72499322Y-96750000D01*
X72502025Y-96722559D01*
X72510032Y-96696161D01*
X72523030Y-96671845D01*
X72540526Y-96650526D01*
X72561845Y-96633030D01*
X72586161Y-96620032D01*
X72599360Y-96616028D01*
X72612555Y-96612026D01*
X72612556Y-96612026D01*
X72612559Y-96612025D01*
X72633121Y-96610000D01*
X73366879Y-96610000D01*
X73387441Y-96612025D01*
X73387441Y-96612025D01*
G37*
G36*
X81950000Y-96875000D02*
X81250000Y-96875000D01*
X81250000Y-96625000D01*
X81950000Y-96625000D01*
X81950000Y-96875000D01*
X81950000Y-96875000D01*
G37*
G36*
X88750000Y-96875000D02*
X88050000Y-96875000D01*
X88050000Y-96625000D01*
X88750000Y-96625000D01*
X88750000Y-96875000D01*
X88750000Y-96875000D01*
G37*
G36*
X98850000Y-96400000D02*
X98050000Y-96400000D01*
X98050000Y-96100000D01*
X98850000Y-96100000D01*
X98850000Y-96400000D01*
X98850000Y-96400000D01*
G37*
G36*
X100650000Y-96400000D02*
X99850000Y-96400000D01*
X99850000Y-96100000D01*
X100650000Y-96100000D01*
X100650000Y-96400000D01*
X100650000Y-96400000D01*
G37*
G36*
X65387441Y-96112025D02*
X65387444Y-96112026D01*
X65387445Y-96112026D01*
X65400640Y-96116028D01*
X65413839Y-96120032D01*
X65438155Y-96133030D01*
X65459474Y-96150526D01*
X65476970Y-96171845D01*
X65489968Y-96196161D01*
X65497975Y-96222559D01*
X65500678Y-96250000D01*
X65497975Y-96277441D01*
X65489968Y-96303839D01*
X65476970Y-96328155D01*
X65459474Y-96349474D01*
X65438155Y-96366970D01*
X65413839Y-96379968D01*
X65400640Y-96383971D01*
X65387445Y-96387974D01*
X65387444Y-96387974D01*
X65387441Y-96387975D01*
X65366879Y-96390000D01*
X64633121Y-96390000D01*
X64612559Y-96387975D01*
X64612556Y-96387974D01*
X64612555Y-96387974D01*
X64599360Y-96383971D01*
X64586161Y-96379968D01*
X64561845Y-96366970D01*
X64540526Y-96349474D01*
X64523030Y-96328155D01*
X64510032Y-96303839D01*
X64502025Y-96277441D01*
X64499322Y-96250000D01*
X64502025Y-96222559D01*
X64510032Y-96196161D01*
X64523030Y-96171845D01*
X64540526Y-96150526D01*
X64561845Y-96133030D01*
X64586161Y-96120032D01*
X64599360Y-96116028D01*
X64612555Y-96112026D01*
X64612556Y-96112026D01*
X64612559Y-96112025D01*
X64633121Y-96110000D01*
X65366879Y-96110000D01*
X65387441Y-96112025D01*
X65387441Y-96112025D01*
G37*
G36*
X73387441Y-96112025D02*
X73387444Y-96112026D01*
X73387445Y-96112026D01*
X73400640Y-96116028D01*
X73413839Y-96120032D01*
X73438155Y-96133030D01*
X73459474Y-96150526D01*
X73476970Y-96171845D01*
X73489968Y-96196161D01*
X73497975Y-96222559D01*
X73500678Y-96250000D01*
X73497975Y-96277441D01*
X73489968Y-96303839D01*
X73476970Y-96328155D01*
X73459474Y-96349474D01*
X73438155Y-96366970D01*
X73413839Y-96379968D01*
X73400640Y-96383971D01*
X73387445Y-96387974D01*
X73387444Y-96387974D01*
X73387441Y-96387975D01*
X73366879Y-96390000D01*
X72633121Y-96390000D01*
X72612559Y-96387975D01*
X72612556Y-96387974D01*
X72612555Y-96387974D01*
X72599360Y-96383971D01*
X72586161Y-96379968D01*
X72561845Y-96366970D01*
X72540526Y-96349474D01*
X72523030Y-96328155D01*
X72510032Y-96303839D01*
X72502025Y-96277441D01*
X72499322Y-96250000D01*
X72502025Y-96222559D01*
X72510032Y-96196161D01*
X72523030Y-96171845D01*
X72540526Y-96150526D01*
X72561845Y-96133030D01*
X72586161Y-96120032D01*
X72599360Y-96116028D01*
X72612555Y-96112026D01*
X72612556Y-96112026D01*
X72612559Y-96112025D01*
X72633121Y-96110000D01*
X73366879Y-96110000D01*
X73387441Y-96112025D01*
X73387441Y-96112025D01*
G37*
G36*
X81950000Y-96375000D02*
X81250000Y-96375000D01*
X81250000Y-96125000D01*
X81950000Y-96125000D01*
X81950000Y-96375000D01*
X81950000Y-96375000D01*
G37*
G36*
X88750000Y-96375000D02*
X88050000Y-96375000D01*
X88050000Y-96125000D01*
X88750000Y-96125000D01*
X88750000Y-96375000D01*
X88750000Y-96375000D01*
G37*
G36*
X56000000Y-96375000D02*
X54620000Y-96375000D01*
X54620000Y-95925000D01*
X56000000Y-95925000D01*
X56000000Y-96375000D01*
X56000000Y-96375000D01*
G37*
G36*
X73387441Y-95612025D02*
X73387444Y-95612026D01*
X73387445Y-95612026D01*
X73400640Y-95616029D01*
X73413839Y-95620032D01*
X73438155Y-95633030D01*
X73459474Y-95650526D01*
X73476970Y-95671845D01*
X73489968Y-95696161D01*
X73497975Y-95722559D01*
X73500678Y-95750000D01*
X73497975Y-95777441D01*
X73489968Y-95803839D01*
X73476970Y-95828155D01*
X73459474Y-95849474D01*
X73438155Y-95866970D01*
X73413839Y-95879968D01*
X73400640Y-95883972D01*
X73387445Y-95887974D01*
X73387444Y-95887974D01*
X73387441Y-95887975D01*
X73366879Y-95890000D01*
X72633121Y-95890000D01*
X72612559Y-95887975D01*
X72612556Y-95887974D01*
X72612555Y-95887974D01*
X72599360Y-95883972D01*
X72586161Y-95879968D01*
X72561845Y-95866970D01*
X72540526Y-95849474D01*
X72523030Y-95828155D01*
X72510032Y-95803839D01*
X72502025Y-95777441D01*
X72499322Y-95750000D01*
X72502025Y-95722559D01*
X72510032Y-95696161D01*
X72523030Y-95671845D01*
X72540526Y-95650526D01*
X72561845Y-95633030D01*
X72586161Y-95620032D01*
X72599360Y-95616029D01*
X72612555Y-95612026D01*
X72612556Y-95612026D01*
X72612559Y-95612025D01*
X72633121Y-95610000D01*
X73366879Y-95610000D01*
X73387441Y-95612025D01*
X73387441Y-95612025D01*
G37*
G36*
X65387441Y-95612025D02*
X65387444Y-95612026D01*
X65387445Y-95612026D01*
X65400640Y-95616029D01*
X65413839Y-95620032D01*
X65438155Y-95633030D01*
X65459474Y-95650526D01*
X65476970Y-95671845D01*
X65489968Y-95696161D01*
X65497975Y-95722559D01*
X65500678Y-95750000D01*
X65497975Y-95777441D01*
X65489968Y-95803839D01*
X65476970Y-95828155D01*
X65459474Y-95849474D01*
X65438155Y-95866970D01*
X65413839Y-95879968D01*
X65400640Y-95883972D01*
X65387445Y-95887974D01*
X65387444Y-95887974D01*
X65387441Y-95887975D01*
X65366879Y-95890000D01*
X64633121Y-95890000D01*
X64612559Y-95887975D01*
X64612556Y-95887974D01*
X64612555Y-95887974D01*
X64599360Y-95883972D01*
X64586161Y-95879968D01*
X64561845Y-95866970D01*
X64540526Y-95849474D01*
X64523030Y-95828155D01*
X64510032Y-95803839D01*
X64502025Y-95777441D01*
X64499322Y-95750000D01*
X64502025Y-95722559D01*
X64510032Y-95696161D01*
X64523030Y-95671845D01*
X64540526Y-95650526D01*
X64561845Y-95633030D01*
X64586161Y-95620032D01*
X64599360Y-95616029D01*
X64612555Y-95612026D01*
X64612556Y-95612026D01*
X64612559Y-95612025D01*
X64633121Y-95610000D01*
X65366879Y-95610000D01*
X65387441Y-95612025D01*
X65387441Y-95612025D01*
G37*
G36*
X81950000Y-95875000D02*
X81250000Y-95875000D01*
X81250000Y-95625000D01*
X81950000Y-95625000D01*
X81950000Y-95875000D01*
X81950000Y-95875000D01*
G37*
G36*
X88750000Y-95875000D02*
X88050000Y-95875000D01*
X88050000Y-95625000D01*
X88750000Y-95625000D01*
X88750000Y-95875000D01*
X88750000Y-95875000D01*
G37*
G36*
X56000000Y-95725000D02*
X54620000Y-95725000D01*
X54620000Y-95275000D01*
X56000000Y-95275000D01*
X56000000Y-95725000D01*
X56000000Y-95725000D01*
G37*
G36*
X60110000Y-95500000D02*
X59115000Y-95500000D01*
X59115000Y-94500000D01*
X60110000Y-94500000D01*
X60110000Y-95500000D01*
X60110000Y-95500000D01*
G37*
G36*
X61885000Y-95500000D02*
X60890000Y-95500000D01*
X60890000Y-94500000D01*
X61885000Y-94500000D01*
X61885000Y-95500000D01*
X61885000Y-95500000D01*
G37*
G36*
X73387441Y-95112025D02*
X73387444Y-95112026D01*
X73387445Y-95112026D01*
X73400640Y-95116028D01*
X73413839Y-95120032D01*
X73438155Y-95133030D01*
X73459474Y-95150526D01*
X73476970Y-95171845D01*
X73489968Y-95196161D01*
X73497975Y-95222559D01*
X73500678Y-95250000D01*
X73497975Y-95277441D01*
X73489968Y-95303839D01*
X73476970Y-95328155D01*
X73459474Y-95349474D01*
X73438155Y-95366970D01*
X73413839Y-95379968D01*
X73400640Y-95383972D01*
X73387445Y-95387974D01*
X73387444Y-95387974D01*
X73387441Y-95387975D01*
X73366879Y-95390000D01*
X72633121Y-95390000D01*
X72612559Y-95387975D01*
X72612556Y-95387974D01*
X72612555Y-95387974D01*
X72599360Y-95383972D01*
X72586161Y-95379968D01*
X72561845Y-95366970D01*
X72540526Y-95349474D01*
X72523030Y-95328155D01*
X72510032Y-95303839D01*
X72502025Y-95277441D01*
X72499322Y-95250000D01*
X72502025Y-95222559D01*
X72510032Y-95196161D01*
X72523030Y-95171845D01*
X72540526Y-95150526D01*
X72561845Y-95133030D01*
X72586161Y-95120032D01*
X72599360Y-95116028D01*
X72612555Y-95112026D01*
X72612556Y-95112026D01*
X72612559Y-95112025D01*
X72633121Y-95110000D01*
X73366879Y-95110000D01*
X73387441Y-95112025D01*
X73387441Y-95112025D01*
G37*
G36*
X65387441Y-95112025D02*
X65387444Y-95112026D01*
X65387445Y-95112026D01*
X65400640Y-95116028D01*
X65413839Y-95120032D01*
X65438155Y-95133030D01*
X65459474Y-95150526D01*
X65476970Y-95171845D01*
X65489968Y-95196161D01*
X65497975Y-95222559D01*
X65500678Y-95250000D01*
X65497975Y-95277441D01*
X65489968Y-95303839D01*
X65476970Y-95328155D01*
X65459474Y-95349474D01*
X65438155Y-95366970D01*
X65413839Y-95379968D01*
X65400640Y-95383972D01*
X65387445Y-95387974D01*
X65387444Y-95387974D01*
X65387441Y-95387975D01*
X65366879Y-95390000D01*
X64633121Y-95390000D01*
X64612559Y-95387975D01*
X64612556Y-95387974D01*
X64612555Y-95387974D01*
X64599360Y-95383972D01*
X64586161Y-95379968D01*
X64561845Y-95366970D01*
X64540526Y-95349474D01*
X64523030Y-95328155D01*
X64510032Y-95303839D01*
X64502025Y-95277441D01*
X64499322Y-95250000D01*
X64502025Y-95222559D01*
X64510032Y-95196161D01*
X64523030Y-95171845D01*
X64540526Y-95150526D01*
X64561845Y-95133030D01*
X64586161Y-95120032D01*
X64599360Y-95116028D01*
X64612555Y-95112026D01*
X64612556Y-95112026D01*
X64612559Y-95112025D01*
X64633121Y-95110000D01*
X65366879Y-95110000D01*
X65387441Y-95112025D01*
X65387441Y-95112025D01*
G37*
G36*
X88750000Y-95375000D02*
X88050000Y-95375000D01*
X88050000Y-95125000D01*
X88750000Y-95125000D01*
X88750000Y-95375000D01*
X88750000Y-95375000D01*
G37*
G36*
X81950000Y-95375000D02*
X81250000Y-95375000D01*
X81250000Y-95125000D01*
X81950000Y-95125000D01*
X81950000Y-95375000D01*
X81950000Y-95375000D01*
G37*
G36*
X53600000Y-95247500D02*
X51700000Y-95247500D01*
X51700000Y-94072500D01*
X53600000Y-94072500D01*
X53600000Y-95247500D01*
X53600000Y-95247500D01*
G37*
G36*
X56000000Y-95075000D02*
X54620000Y-95075000D01*
X54620000Y-94625000D01*
X56000000Y-94625000D01*
X56000000Y-95075000D01*
X56000000Y-95075000D01*
G37*
G36*
X100650000Y-94900000D02*
X99850000Y-94900000D01*
X99850000Y-94600000D01*
X100650000Y-94600000D01*
X100650000Y-94900000D01*
X100650000Y-94900000D01*
G37*
G36*
X98850000Y-94900000D02*
X98050000Y-94900000D01*
X98050000Y-94600000D01*
X98850000Y-94600000D01*
X98850000Y-94900000D01*
X98850000Y-94900000D01*
G37*
G36*
X73387441Y-94612025D02*
X73387444Y-94612026D01*
X73387445Y-94612026D01*
X73400640Y-94616028D01*
X73413839Y-94620032D01*
X73438155Y-94633030D01*
X73459474Y-94650526D01*
X73476970Y-94671845D01*
X73489968Y-94696161D01*
X73497975Y-94722559D01*
X73500678Y-94750000D01*
X73497975Y-94777441D01*
X73489968Y-94803839D01*
X73476970Y-94828155D01*
X73459474Y-94849474D01*
X73438155Y-94866970D01*
X73413839Y-94879968D01*
X73400640Y-94883971D01*
X73387445Y-94887974D01*
X73387444Y-94887974D01*
X73387441Y-94887975D01*
X73366879Y-94890000D01*
X72633121Y-94890000D01*
X72612559Y-94887975D01*
X72612556Y-94887974D01*
X72612555Y-94887974D01*
X72599360Y-94883971D01*
X72586161Y-94879968D01*
X72561845Y-94866970D01*
X72540526Y-94849474D01*
X72523030Y-94828155D01*
X72510032Y-94803839D01*
X72502025Y-94777441D01*
X72499322Y-94750000D01*
X72502025Y-94722559D01*
X72510032Y-94696161D01*
X72523030Y-94671845D01*
X72540526Y-94650526D01*
X72561845Y-94633030D01*
X72586161Y-94620032D01*
X72599360Y-94616028D01*
X72612555Y-94612026D01*
X72612556Y-94612026D01*
X72612559Y-94612025D01*
X72633121Y-94610000D01*
X73366879Y-94610000D01*
X73387441Y-94612025D01*
X73387441Y-94612025D01*
G37*
G36*
X65387441Y-94612025D02*
X65387444Y-94612026D01*
X65387445Y-94612026D01*
X65400640Y-94616028D01*
X65413839Y-94620032D01*
X65438155Y-94633030D01*
X65459474Y-94650526D01*
X65476970Y-94671845D01*
X65489968Y-94696161D01*
X65497975Y-94722559D01*
X65500678Y-94750000D01*
X65497975Y-94777441D01*
X65489968Y-94803839D01*
X65476970Y-94828155D01*
X65459474Y-94849474D01*
X65438155Y-94866970D01*
X65413839Y-94879968D01*
X65400640Y-94883971D01*
X65387445Y-94887974D01*
X65387444Y-94887974D01*
X65387441Y-94887975D01*
X65366879Y-94890000D01*
X64633121Y-94890000D01*
X64612559Y-94887975D01*
X64612556Y-94887974D01*
X64612555Y-94887974D01*
X64599360Y-94883971D01*
X64586161Y-94879968D01*
X64561845Y-94866970D01*
X64540526Y-94849474D01*
X64523030Y-94828155D01*
X64510032Y-94803839D01*
X64502025Y-94777441D01*
X64499322Y-94750000D01*
X64502025Y-94722559D01*
X64510032Y-94696161D01*
X64523030Y-94671845D01*
X64540526Y-94650526D01*
X64561845Y-94633030D01*
X64586161Y-94620032D01*
X64599360Y-94616028D01*
X64612555Y-94612026D01*
X64612556Y-94612026D01*
X64612559Y-94612025D01*
X64633121Y-94610000D01*
X65366879Y-94610000D01*
X65387441Y-94612025D01*
X65387441Y-94612025D01*
G37*
G36*
X88750000Y-94875000D02*
X88050000Y-94875000D01*
X88050000Y-94625000D01*
X88750000Y-94625000D01*
X88750000Y-94875000D01*
X88750000Y-94875000D01*
G37*
G36*
X81950000Y-94875000D02*
X81250000Y-94875000D01*
X81250000Y-94625000D01*
X81950000Y-94625000D01*
X81950000Y-94875000D01*
X81950000Y-94875000D01*
G37*
G36*
X56000000Y-94425000D02*
X54620000Y-94425000D01*
X54620000Y-93975000D01*
X56000000Y-93975000D01*
X56000000Y-94425000D01*
X56000000Y-94425000D01*
G37*
G36*
X100650000Y-94400000D02*
X99850000Y-94400000D01*
X99850000Y-94100000D01*
X100650000Y-94100000D01*
X100650000Y-94400000D01*
X100650000Y-94400000D01*
G37*
G36*
X98850000Y-94400000D02*
X98050000Y-94400000D01*
X98050000Y-94100000D01*
X98850000Y-94100000D01*
X98850000Y-94400000D01*
X98850000Y-94400000D01*
G37*
G36*
X65387441Y-94112025D02*
X65387444Y-94112026D01*
X65387445Y-94112026D01*
X65400640Y-94116029D01*
X65413839Y-94120032D01*
X65438155Y-94133030D01*
X65459474Y-94150526D01*
X65476970Y-94171845D01*
X65489968Y-94196161D01*
X65497975Y-94222559D01*
X65500678Y-94250000D01*
X65497975Y-94277441D01*
X65489968Y-94303839D01*
X65476970Y-94328155D01*
X65459474Y-94349474D01*
X65438155Y-94366970D01*
X65413839Y-94379968D01*
X65400640Y-94383972D01*
X65387445Y-94387974D01*
X65387444Y-94387974D01*
X65387441Y-94387975D01*
X65366879Y-94390000D01*
X64633121Y-94390000D01*
X64612559Y-94387975D01*
X64612556Y-94387974D01*
X64612555Y-94387974D01*
X64599360Y-94383972D01*
X64586161Y-94379968D01*
X64561845Y-94366970D01*
X64540526Y-94349474D01*
X64523030Y-94328155D01*
X64510032Y-94303839D01*
X64502025Y-94277441D01*
X64499322Y-94250000D01*
X64502025Y-94222559D01*
X64510032Y-94196161D01*
X64523030Y-94171845D01*
X64540526Y-94150526D01*
X64561845Y-94133030D01*
X64586161Y-94120032D01*
X64599360Y-94116029D01*
X64612555Y-94112026D01*
X64612556Y-94112026D01*
X64612559Y-94112025D01*
X64633121Y-94110000D01*
X65366879Y-94110000D01*
X65387441Y-94112025D01*
X65387441Y-94112025D01*
G37*
G36*
X73387441Y-94112025D02*
X73387444Y-94112026D01*
X73387445Y-94112026D01*
X73400640Y-94116029D01*
X73413839Y-94120032D01*
X73438155Y-94133030D01*
X73459474Y-94150526D01*
X73476970Y-94171845D01*
X73489968Y-94196161D01*
X73497975Y-94222559D01*
X73500678Y-94250000D01*
X73497975Y-94277441D01*
X73489968Y-94303839D01*
X73476970Y-94328155D01*
X73459474Y-94349474D01*
X73438155Y-94366970D01*
X73413839Y-94379968D01*
X73400640Y-94383972D01*
X73387445Y-94387974D01*
X73387444Y-94387974D01*
X73387441Y-94387975D01*
X73366879Y-94390000D01*
X72633121Y-94390000D01*
X72612559Y-94387975D01*
X72612556Y-94387974D01*
X72612555Y-94387974D01*
X72599360Y-94383972D01*
X72586161Y-94379968D01*
X72561845Y-94366970D01*
X72540526Y-94349474D01*
X72523030Y-94328155D01*
X72510032Y-94303839D01*
X72502025Y-94277441D01*
X72499322Y-94250000D01*
X72502025Y-94222559D01*
X72510032Y-94196161D01*
X72523030Y-94171845D01*
X72540526Y-94150526D01*
X72561845Y-94133030D01*
X72586161Y-94120032D01*
X72599360Y-94116029D01*
X72612555Y-94112026D01*
X72612556Y-94112026D01*
X72612559Y-94112025D01*
X72633121Y-94110000D01*
X73366879Y-94110000D01*
X73387441Y-94112025D01*
X73387441Y-94112025D01*
G37*
G36*
X81950000Y-94375000D02*
X81250000Y-94375000D01*
X81250000Y-94125000D01*
X81950000Y-94125000D01*
X81950000Y-94375000D01*
X81950000Y-94375000D01*
G37*
G36*
X88750000Y-94375000D02*
X88050000Y-94375000D01*
X88050000Y-94125000D01*
X88750000Y-94125000D01*
X88750000Y-94375000D01*
X88750000Y-94375000D01*
G37*
G36*
X100650000Y-93900000D02*
X99850000Y-93900000D01*
X99850000Y-93600000D01*
X100650000Y-93600000D01*
X100650000Y-93900000D01*
X100650000Y-93900000D01*
G37*
G36*
X98850000Y-93900000D02*
X98050000Y-93900000D01*
X98050000Y-93600000D01*
X98850000Y-93600000D01*
X98850000Y-93900000D01*
X98850000Y-93900000D01*
G37*
G36*
X65387441Y-93612025D02*
X65387444Y-93612026D01*
X65387445Y-93612026D01*
X65400640Y-93616028D01*
X65413839Y-93620032D01*
X65438155Y-93633030D01*
X65459474Y-93650526D01*
X65476970Y-93671845D01*
X65489968Y-93696161D01*
X65497975Y-93722559D01*
X65500678Y-93750000D01*
X65497975Y-93777441D01*
X65489968Y-93803839D01*
X65476970Y-93828155D01*
X65459474Y-93849474D01*
X65438155Y-93866970D01*
X65413839Y-93879968D01*
X65400640Y-93883971D01*
X65387445Y-93887974D01*
X65387444Y-93887974D01*
X65387441Y-93887975D01*
X65366879Y-93890000D01*
X64633121Y-93890000D01*
X64612559Y-93887975D01*
X64612556Y-93887974D01*
X64612555Y-93887974D01*
X64599360Y-93883971D01*
X64586161Y-93879968D01*
X64561845Y-93866970D01*
X64540526Y-93849474D01*
X64523030Y-93828155D01*
X64510032Y-93803839D01*
X64502025Y-93777441D01*
X64499322Y-93750000D01*
X64502025Y-93722559D01*
X64510032Y-93696161D01*
X64523030Y-93671845D01*
X64540526Y-93650526D01*
X64561845Y-93633030D01*
X64586161Y-93620032D01*
X64599360Y-93616028D01*
X64612555Y-93612026D01*
X64612556Y-93612026D01*
X64612559Y-93612025D01*
X64633121Y-93610000D01*
X65366879Y-93610000D01*
X65387441Y-93612025D01*
X65387441Y-93612025D01*
G37*
G36*
X73387441Y-93612025D02*
X73387444Y-93612026D01*
X73387445Y-93612026D01*
X73400640Y-93616028D01*
X73413839Y-93620032D01*
X73438155Y-93633030D01*
X73459474Y-93650526D01*
X73476970Y-93671845D01*
X73489968Y-93696161D01*
X73497975Y-93722559D01*
X73500678Y-93750000D01*
X73497975Y-93777441D01*
X73489968Y-93803839D01*
X73476970Y-93828155D01*
X73459474Y-93849474D01*
X73438155Y-93866970D01*
X73413839Y-93879968D01*
X73400640Y-93883971D01*
X73387445Y-93887974D01*
X73387444Y-93887974D01*
X73387441Y-93887975D01*
X73366879Y-93890000D01*
X72633121Y-93890000D01*
X72612559Y-93887975D01*
X72612556Y-93887974D01*
X72612555Y-93887974D01*
X72599360Y-93883971D01*
X72586161Y-93879968D01*
X72561845Y-93866970D01*
X72540526Y-93849474D01*
X72523030Y-93828155D01*
X72510032Y-93803839D01*
X72502025Y-93777441D01*
X72499322Y-93750000D01*
X72502025Y-93722559D01*
X72510032Y-93696161D01*
X72523030Y-93671845D01*
X72540526Y-93650526D01*
X72561845Y-93633030D01*
X72586161Y-93620032D01*
X72599360Y-93616028D01*
X72612555Y-93612026D01*
X72612556Y-93612026D01*
X72612559Y-93612025D01*
X72633121Y-93610000D01*
X73366879Y-93610000D01*
X73387441Y-93612025D01*
X73387441Y-93612025D01*
G37*
G36*
X81950000Y-93875000D02*
X81250000Y-93875000D01*
X81250000Y-93625000D01*
X81950000Y-93625000D01*
X81950000Y-93875000D01*
X81950000Y-93875000D01*
G37*
G36*
X88750000Y-93875000D02*
X88050000Y-93875000D01*
X88050000Y-93625000D01*
X88750000Y-93625000D01*
X88750000Y-93875000D01*
X88750000Y-93875000D01*
G37*
G36*
X53600000Y-93777500D02*
X51700000Y-93777500D01*
X51700000Y-91402500D01*
X53600000Y-91402500D01*
X53600000Y-93777500D01*
X53600000Y-93777500D01*
G37*
G36*
X56000000Y-93775000D02*
X53900000Y-93775000D01*
X53900000Y-92300000D01*
X56000000Y-92300000D01*
X56000000Y-93775000D01*
X56000000Y-93775000D01*
G37*
G36*
X62300000Y-93450000D02*
X60900000Y-93450000D01*
X60900000Y-92250000D01*
X62300000Y-92250000D01*
X62300000Y-93450000D01*
X62300000Y-93450000D01*
G37*
G36*
X60100000Y-93450000D02*
X58700000Y-93450000D01*
X58700000Y-92250000D01*
X60100000Y-92250000D01*
X60100000Y-93450000D01*
X60100000Y-93450000D01*
G37*
G36*
X98850000Y-93400000D02*
X98050000Y-93400000D01*
X98050000Y-93100000D01*
X98850000Y-93100000D01*
X98850000Y-93400000D01*
X98850000Y-93400000D01*
G37*
G36*
X100650000Y-93400000D02*
X99850000Y-93400000D01*
X99850000Y-93100000D01*
X100650000Y-93100000D01*
X100650000Y-93400000D01*
X100650000Y-93400000D01*
G37*
G36*
X65387441Y-93112025D02*
X65387444Y-93112026D01*
X65387445Y-93112026D01*
X65400640Y-93116029D01*
X65413839Y-93120032D01*
X65438155Y-93133030D01*
X65459474Y-93150526D01*
X65476970Y-93171845D01*
X65489968Y-93196161D01*
X65497975Y-93222559D01*
X65500678Y-93250000D01*
X65497975Y-93277441D01*
X65489968Y-93303839D01*
X65476970Y-93328155D01*
X65459474Y-93349474D01*
X65438155Y-93366970D01*
X65413839Y-93379968D01*
X65400640Y-93383971D01*
X65387445Y-93387974D01*
X65387444Y-93387974D01*
X65387441Y-93387975D01*
X65366879Y-93390000D01*
X64633121Y-93390000D01*
X64612559Y-93387975D01*
X64612556Y-93387974D01*
X64612555Y-93387974D01*
X64599360Y-93383971D01*
X64586161Y-93379968D01*
X64561845Y-93366970D01*
X64540526Y-93349474D01*
X64523030Y-93328155D01*
X64510032Y-93303839D01*
X64502025Y-93277441D01*
X64499322Y-93250000D01*
X64502025Y-93222559D01*
X64510032Y-93196161D01*
X64523030Y-93171845D01*
X64540526Y-93150526D01*
X64561845Y-93133030D01*
X64586161Y-93120032D01*
X64599360Y-93116029D01*
X64612555Y-93112026D01*
X64612556Y-93112026D01*
X64612559Y-93112025D01*
X64633121Y-93110000D01*
X65366879Y-93110000D01*
X65387441Y-93112025D01*
X65387441Y-93112025D01*
G37*
G36*
X73387441Y-93112025D02*
X73387444Y-93112026D01*
X73387445Y-93112026D01*
X73400640Y-93116029D01*
X73413839Y-93120032D01*
X73438155Y-93133030D01*
X73459474Y-93150526D01*
X73476970Y-93171845D01*
X73489968Y-93196161D01*
X73497975Y-93222559D01*
X73500678Y-93250000D01*
X73497975Y-93277441D01*
X73489968Y-93303839D01*
X73476970Y-93328155D01*
X73459474Y-93349474D01*
X73438155Y-93366970D01*
X73413839Y-93379968D01*
X73400640Y-93383971D01*
X73387445Y-93387974D01*
X73387444Y-93387974D01*
X73387441Y-93387975D01*
X73366879Y-93390000D01*
X72633121Y-93390000D01*
X72612559Y-93387975D01*
X72612556Y-93387974D01*
X72612555Y-93387974D01*
X72599360Y-93383971D01*
X72586161Y-93379968D01*
X72561845Y-93366970D01*
X72540526Y-93349474D01*
X72523030Y-93328155D01*
X72510032Y-93303839D01*
X72502025Y-93277441D01*
X72499322Y-93250000D01*
X72502025Y-93222559D01*
X72510032Y-93196161D01*
X72523030Y-93171845D01*
X72540526Y-93150526D01*
X72561845Y-93133030D01*
X72586161Y-93120032D01*
X72599360Y-93116029D01*
X72612555Y-93112026D01*
X72612556Y-93112026D01*
X72612559Y-93112025D01*
X72633121Y-93110000D01*
X73366879Y-93110000D01*
X73387441Y-93112025D01*
X73387441Y-93112025D01*
G37*
G36*
X88750000Y-93375000D02*
X88050000Y-93375000D01*
X88050000Y-93125000D01*
X88750000Y-93125000D01*
X88750000Y-93375000D01*
X88750000Y-93375000D01*
G37*
G36*
X81950000Y-93375000D02*
X81250000Y-93375000D01*
X81250000Y-93125000D01*
X81950000Y-93125000D01*
X81950000Y-93375000D01*
X81950000Y-93375000D01*
G37*
G36*
X100650000Y-92900000D02*
X99850000Y-92900000D01*
X99850000Y-92600000D01*
X100650000Y-92600000D01*
X100650000Y-92900000D01*
X100650000Y-92900000D01*
G37*
G36*
X98850000Y-92900000D02*
X98050000Y-92900000D01*
X98050000Y-92600000D01*
X98850000Y-92600000D01*
X98850000Y-92900000D01*
X98850000Y-92900000D01*
G37*
G36*
X65387441Y-92612025D02*
X65387444Y-92612026D01*
X65387445Y-92612026D01*
X65400640Y-92616029D01*
X65413839Y-92620032D01*
X65438155Y-92633030D01*
X65459474Y-92650526D01*
X65476970Y-92671845D01*
X65489968Y-92696161D01*
X65497975Y-92722559D01*
X65500678Y-92750000D01*
X65497975Y-92777441D01*
X65489968Y-92803839D01*
X65476970Y-92828155D01*
X65459474Y-92849474D01*
X65438155Y-92866970D01*
X65413839Y-92879968D01*
X65400640Y-92883971D01*
X65387445Y-92887974D01*
X65387444Y-92887974D01*
X65387441Y-92887975D01*
X65366879Y-92890000D01*
X64633121Y-92890000D01*
X64612559Y-92887975D01*
X64612556Y-92887974D01*
X64612555Y-92887974D01*
X64599360Y-92883971D01*
X64586161Y-92879968D01*
X64561845Y-92866970D01*
X64540526Y-92849474D01*
X64523030Y-92828155D01*
X64510032Y-92803839D01*
X64502025Y-92777441D01*
X64499322Y-92750000D01*
X64502025Y-92722559D01*
X64510032Y-92696161D01*
X64523030Y-92671845D01*
X64540526Y-92650526D01*
X64561845Y-92633030D01*
X64586161Y-92620032D01*
X64599360Y-92616029D01*
X64612555Y-92612026D01*
X64612556Y-92612026D01*
X64612559Y-92612025D01*
X64633121Y-92610000D01*
X65366879Y-92610000D01*
X65387441Y-92612025D01*
X65387441Y-92612025D01*
G37*
G36*
X73387441Y-92612025D02*
X73387444Y-92612026D01*
X73387445Y-92612026D01*
X73400640Y-92616029D01*
X73413839Y-92620032D01*
X73438155Y-92633030D01*
X73459474Y-92650526D01*
X73476970Y-92671845D01*
X73489968Y-92696161D01*
X73497975Y-92722559D01*
X73500678Y-92750000D01*
X73497975Y-92777441D01*
X73489968Y-92803839D01*
X73476970Y-92828155D01*
X73459474Y-92849474D01*
X73438155Y-92866970D01*
X73413839Y-92879968D01*
X73400640Y-92883971D01*
X73387445Y-92887974D01*
X73387444Y-92887974D01*
X73387441Y-92887975D01*
X73366879Y-92890000D01*
X72633121Y-92890000D01*
X72612559Y-92887975D01*
X72612556Y-92887974D01*
X72612555Y-92887974D01*
X72599360Y-92883971D01*
X72586161Y-92879968D01*
X72561845Y-92866970D01*
X72540526Y-92849474D01*
X72523030Y-92828155D01*
X72510032Y-92803839D01*
X72502025Y-92777441D01*
X72499322Y-92750000D01*
X72502025Y-92722559D01*
X72510032Y-92696161D01*
X72523030Y-92671845D01*
X72540526Y-92650526D01*
X72561845Y-92633030D01*
X72586161Y-92620032D01*
X72599360Y-92616029D01*
X72612555Y-92612026D01*
X72612556Y-92612026D01*
X72612559Y-92612025D01*
X72633121Y-92610000D01*
X73366879Y-92610000D01*
X73387441Y-92612025D01*
X73387441Y-92612025D01*
G37*
G36*
X81950000Y-92875000D02*
X81250000Y-92875000D01*
X81250000Y-92625000D01*
X81950000Y-92625000D01*
X81950000Y-92875000D01*
X81950000Y-92875000D01*
G37*
G36*
X88750000Y-92875000D02*
X88050000Y-92875000D01*
X88050000Y-92625000D01*
X88750000Y-92625000D01*
X88750000Y-92875000D01*
X88750000Y-92875000D01*
G37*
G36*
X82375000Y-92450000D02*
X82125000Y-92450000D01*
X82125000Y-91750000D01*
X82375000Y-91750000D01*
X82375000Y-92450000D01*
X82375000Y-92450000D01*
G37*
G36*
X83375000Y-92450000D02*
X83125000Y-92450000D01*
X83125000Y-91750000D01*
X83375000Y-91750000D01*
X83375000Y-92450000D01*
X83375000Y-92450000D01*
G37*
G36*
X82875000Y-92450000D02*
X82625000Y-92450000D01*
X82625000Y-91750000D01*
X82875000Y-91750000D01*
X82875000Y-92450000D01*
X82875000Y-92450000D01*
G37*
G36*
X84875000Y-92450000D02*
X84625000Y-92450000D01*
X84625000Y-91750000D01*
X84875000Y-91750000D01*
X84875000Y-92450000D01*
X84875000Y-92450000D01*
G37*
G36*
X87875000Y-92450000D02*
X87625000Y-92450000D01*
X87625000Y-91750000D01*
X87875000Y-91750000D01*
X87875000Y-92450000D01*
X87875000Y-92450000D01*
G37*
G36*
X87375000Y-92450000D02*
X87125000Y-92450000D01*
X87125000Y-91750000D01*
X87375000Y-91750000D01*
X87375000Y-92450000D01*
X87375000Y-92450000D01*
G37*
G36*
X86375000Y-92450000D02*
X86125000Y-92450000D01*
X86125000Y-91750000D01*
X86375000Y-91750000D01*
X86375000Y-92450000D01*
X86375000Y-92450000D01*
G37*
G36*
X86875000Y-92450000D02*
X86625000Y-92450000D01*
X86625000Y-91750000D01*
X86875000Y-91750000D01*
X86875000Y-92450000D01*
X86875000Y-92450000D01*
G37*
G36*
X84375000Y-92450000D02*
X84125000Y-92450000D01*
X84125000Y-91750000D01*
X84375000Y-91750000D01*
X84375000Y-92450000D01*
X84375000Y-92450000D01*
G37*
G36*
X83875000Y-92450000D02*
X83625000Y-92450000D01*
X83625000Y-91750000D01*
X83875000Y-91750000D01*
X83875000Y-92450000D01*
X83875000Y-92450000D01*
G37*
G36*
X85875000Y-92450000D02*
X85625000Y-92450000D01*
X85625000Y-91750000D01*
X85875000Y-91750000D01*
X85875000Y-92450000D01*
X85875000Y-92450000D01*
G37*
G36*
X85375000Y-92450000D02*
X85125000Y-92450000D01*
X85125000Y-91750000D01*
X85375000Y-91750000D01*
X85375000Y-92450000D01*
X85375000Y-92450000D01*
G37*
G36*
X100650000Y-92400000D02*
X99850000Y-92400000D01*
X99850000Y-92100000D01*
X100650000Y-92100000D01*
X100650000Y-92400000D01*
X100650000Y-92400000D01*
G37*
G36*
X98850000Y-92400000D02*
X98050000Y-92400000D01*
X98050000Y-92100000D01*
X98850000Y-92100000D01*
X98850000Y-92400000D01*
X98850000Y-92400000D01*
G37*
G36*
X65387441Y-92112025D02*
X65387444Y-92112026D01*
X65387445Y-92112026D01*
X65400640Y-92116028D01*
X65413839Y-92120032D01*
X65438155Y-92133030D01*
X65459474Y-92150526D01*
X65476970Y-92171845D01*
X65489968Y-92196161D01*
X65497975Y-92222559D01*
X65500678Y-92250000D01*
X65497975Y-92277441D01*
X65489968Y-92303839D01*
X65476970Y-92328155D01*
X65459474Y-92349474D01*
X65438155Y-92366970D01*
X65413839Y-92379968D01*
X65400640Y-92383971D01*
X65387445Y-92387974D01*
X65387444Y-92387974D01*
X65387441Y-92387975D01*
X65366879Y-92390000D01*
X64633121Y-92390000D01*
X64612559Y-92387975D01*
X64612556Y-92387974D01*
X64612555Y-92387974D01*
X64599360Y-92383971D01*
X64586161Y-92379968D01*
X64561845Y-92366970D01*
X64540526Y-92349474D01*
X64523030Y-92328155D01*
X64510032Y-92303839D01*
X64502025Y-92277441D01*
X64499322Y-92250000D01*
X64502025Y-92222559D01*
X64510032Y-92196161D01*
X64523030Y-92171845D01*
X64540526Y-92150526D01*
X64561845Y-92133030D01*
X64586161Y-92120032D01*
X64599360Y-92116028D01*
X64612555Y-92112026D01*
X64612556Y-92112026D01*
X64612559Y-92112025D01*
X64633121Y-92110000D01*
X65366879Y-92110000D01*
X65387441Y-92112025D01*
X65387441Y-92112025D01*
G37*
G36*
X73387441Y-92112025D02*
X73387444Y-92112026D01*
X73387445Y-92112026D01*
X73400640Y-92116028D01*
X73413839Y-92120032D01*
X73438155Y-92133030D01*
X73459474Y-92150526D01*
X73476970Y-92171845D01*
X73489968Y-92196161D01*
X73497975Y-92222559D01*
X73500678Y-92250000D01*
X73497975Y-92277441D01*
X73489968Y-92303839D01*
X73476970Y-92328155D01*
X73459474Y-92349474D01*
X73438155Y-92366970D01*
X73413839Y-92379968D01*
X73400640Y-92383971D01*
X73387445Y-92387974D01*
X73387444Y-92387974D01*
X73387441Y-92387975D01*
X73366879Y-92390000D01*
X72633121Y-92390000D01*
X72612559Y-92387975D01*
X72612556Y-92387974D01*
X72612555Y-92387974D01*
X72599360Y-92383971D01*
X72586161Y-92379968D01*
X72561845Y-92366970D01*
X72540526Y-92349474D01*
X72523030Y-92328155D01*
X72510032Y-92303839D01*
X72502025Y-92277441D01*
X72499322Y-92250000D01*
X72502025Y-92222559D01*
X72510032Y-92196161D01*
X72523030Y-92171845D01*
X72540526Y-92150526D01*
X72561845Y-92133030D01*
X72586161Y-92120032D01*
X72599360Y-92116028D01*
X72612555Y-92112026D01*
X72612556Y-92112026D01*
X72612559Y-92112025D01*
X72633121Y-92110000D01*
X73366879Y-92110000D01*
X73387441Y-92112025D01*
X73387441Y-92112025D01*
G37*
G36*
X70277440Y-91002025D02*
X70277443Y-91002026D01*
X70277444Y-91002026D01*
X70290639Y-91006028D01*
X70303838Y-91010032D01*
X70328155Y-91023030D01*
X70349474Y-91040526D01*
X70366970Y-91061845D01*
X70379968Y-91086161D01*
X70387975Y-91112559D01*
X70390000Y-91133121D01*
X70390000Y-91866879D01*
X70387975Y-91887441D01*
X70379968Y-91913839D01*
X70366970Y-91938155D01*
X70349474Y-91959474D01*
X70328155Y-91976970D01*
X70303839Y-91989968D01*
X70290640Y-91993971D01*
X70277445Y-91997974D01*
X70277444Y-91997974D01*
X70277441Y-91997975D01*
X70250000Y-92000678D01*
X70222560Y-91997975D01*
X70222557Y-91997974D01*
X70222556Y-91997974D01*
X70209361Y-91993971D01*
X70196162Y-91989968D01*
X70171846Y-91976970D01*
X70150527Y-91959474D01*
X70133031Y-91938155D01*
X70120033Y-91913839D01*
X70112026Y-91887441D01*
X70110001Y-91866879D01*
X70110000Y-91133122D01*
X70112025Y-91112560D01*
X70112027Y-91112555D01*
X70120031Y-91086166D01*
X70120032Y-91086162D01*
X70133030Y-91061845D01*
X70150526Y-91040526D01*
X70171845Y-91023030D01*
X70196161Y-91010032D01*
X70209360Y-91006028D01*
X70222555Y-91002026D01*
X70222556Y-91002026D01*
X70222559Y-91002025D01*
X70250000Y-90999322D01*
X70277440Y-91002025D01*
X70277440Y-91002025D01*
G37*
G36*
X65777440Y-91002025D02*
X65777443Y-91002026D01*
X65777444Y-91002026D01*
X65790639Y-91006028D01*
X65803838Y-91010032D01*
X65828155Y-91023030D01*
X65849474Y-91040526D01*
X65866970Y-91061845D01*
X65879968Y-91086161D01*
X65887975Y-91112559D01*
X65890000Y-91133121D01*
X65890000Y-91866879D01*
X65887975Y-91887441D01*
X65879968Y-91913839D01*
X65866970Y-91938155D01*
X65849474Y-91959474D01*
X65828155Y-91976970D01*
X65803839Y-91989968D01*
X65790640Y-91993971D01*
X65777445Y-91997974D01*
X65777444Y-91997974D01*
X65777441Y-91997975D01*
X65750000Y-92000678D01*
X65722560Y-91997975D01*
X65722557Y-91997974D01*
X65722556Y-91997974D01*
X65709361Y-91993971D01*
X65696162Y-91989968D01*
X65671846Y-91976970D01*
X65650527Y-91959474D01*
X65633031Y-91938155D01*
X65620033Y-91913839D01*
X65612026Y-91887441D01*
X65610001Y-91866879D01*
X65610000Y-91133122D01*
X65612025Y-91112560D01*
X65612027Y-91112555D01*
X65620031Y-91086166D01*
X65620032Y-91086162D01*
X65633030Y-91061845D01*
X65650526Y-91040526D01*
X65671845Y-91023030D01*
X65696161Y-91010032D01*
X65709360Y-91006028D01*
X65722555Y-91002026D01*
X65722556Y-91002026D01*
X65722559Y-91002025D01*
X65750000Y-90999322D01*
X65777440Y-91002025D01*
X65777440Y-91002025D01*
G37*
G36*
X69277440Y-91002025D02*
X69277443Y-91002026D01*
X69277444Y-91002026D01*
X69290639Y-91006028D01*
X69303838Y-91010032D01*
X69328155Y-91023030D01*
X69349474Y-91040526D01*
X69366970Y-91061845D01*
X69379968Y-91086161D01*
X69387975Y-91112559D01*
X69390000Y-91133121D01*
X69390000Y-91866879D01*
X69387975Y-91887441D01*
X69379968Y-91913839D01*
X69366970Y-91938155D01*
X69349474Y-91959474D01*
X69328155Y-91976970D01*
X69303839Y-91989968D01*
X69290640Y-91993971D01*
X69277445Y-91997974D01*
X69277444Y-91997974D01*
X69277441Y-91997975D01*
X69250000Y-92000678D01*
X69222560Y-91997975D01*
X69222557Y-91997974D01*
X69222556Y-91997974D01*
X69209361Y-91993971D01*
X69196162Y-91989968D01*
X69171846Y-91976970D01*
X69150527Y-91959474D01*
X69133031Y-91938155D01*
X69120033Y-91913839D01*
X69112026Y-91887441D01*
X69110001Y-91866879D01*
X69110000Y-91133122D01*
X69112025Y-91112560D01*
X69112027Y-91112555D01*
X69120031Y-91086166D01*
X69120032Y-91086162D01*
X69133030Y-91061845D01*
X69150526Y-91040526D01*
X69171845Y-91023030D01*
X69196161Y-91010032D01*
X69209360Y-91006028D01*
X69222555Y-91002026D01*
X69222556Y-91002026D01*
X69222559Y-91002025D01*
X69250000Y-90999322D01*
X69277440Y-91002025D01*
X69277440Y-91002025D01*
G37*
G36*
X70777440Y-91002025D02*
X70777443Y-91002026D01*
X70777444Y-91002026D01*
X70790639Y-91006028D01*
X70803838Y-91010032D01*
X70828155Y-91023030D01*
X70849474Y-91040526D01*
X70866970Y-91061845D01*
X70879968Y-91086161D01*
X70887975Y-91112559D01*
X70890000Y-91133121D01*
X70890000Y-91866879D01*
X70887975Y-91887441D01*
X70879968Y-91913839D01*
X70866970Y-91938155D01*
X70849474Y-91959474D01*
X70828155Y-91976970D01*
X70803839Y-91989968D01*
X70790640Y-91993971D01*
X70777445Y-91997974D01*
X70777444Y-91997974D01*
X70777441Y-91997975D01*
X70750000Y-92000678D01*
X70722560Y-91997975D01*
X70722557Y-91997974D01*
X70722556Y-91997974D01*
X70709361Y-91993971D01*
X70696162Y-91989968D01*
X70671846Y-91976970D01*
X70650527Y-91959474D01*
X70633031Y-91938155D01*
X70620033Y-91913839D01*
X70612026Y-91887441D01*
X70610001Y-91866879D01*
X70610000Y-91133122D01*
X70612025Y-91112560D01*
X70612027Y-91112555D01*
X70620031Y-91086166D01*
X70620032Y-91086162D01*
X70633030Y-91061845D01*
X70650526Y-91040526D01*
X70671845Y-91023030D01*
X70696161Y-91010032D01*
X70709360Y-91006028D01*
X70722555Y-91002026D01*
X70722556Y-91002026D01*
X70722559Y-91002025D01*
X70750000Y-90999322D01*
X70777440Y-91002025D01*
X70777440Y-91002025D01*
G37*
G36*
X69777440Y-91002025D02*
X69777443Y-91002026D01*
X69777444Y-91002026D01*
X69790639Y-91006028D01*
X69803838Y-91010032D01*
X69828155Y-91023030D01*
X69849474Y-91040526D01*
X69866970Y-91061845D01*
X69879968Y-91086161D01*
X69887975Y-91112559D01*
X69890000Y-91133121D01*
X69890000Y-91866879D01*
X69887975Y-91887441D01*
X69879968Y-91913839D01*
X69866970Y-91938155D01*
X69849474Y-91959474D01*
X69828155Y-91976970D01*
X69803839Y-91989968D01*
X69790640Y-91993971D01*
X69777445Y-91997974D01*
X69777444Y-91997974D01*
X69777441Y-91997975D01*
X69750000Y-92000678D01*
X69722560Y-91997975D01*
X69722557Y-91997974D01*
X69722556Y-91997974D01*
X69709361Y-91993971D01*
X69696162Y-91989968D01*
X69671846Y-91976970D01*
X69650527Y-91959474D01*
X69633031Y-91938155D01*
X69620033Y-91913839D01*
X69612026Y-91887441D01*
X69610001Y-91866879D01*
X69610000Y-91133122D01*
X69612025Y-91112560D01*
X69612027Y-91112555D01*
X69620031Y-91086166D01*
X69620032Y-91086162D01*
X69633030Y-91061845D01*
X69650526Y-91040526D01*
X69671845Y-91023030D01*
X69696161Y-91010032D01*
X69709360Y-91006028D01*
X69722555Y-91002026D01*
X69722556Y-91002026D01*
X69722559Y-91002025D01*
X69750000Y-90999322D01*
X69777440Y-91002025D01*
X69777440Y-91002025D01*
G37*
G36*
X68777440Y-91002025D02*
X68777443Y-91002026D01*
X68777444Y-91002026D01*
X68790639Y-91006028D01*
X68803838Y-91010032D01*
X68828155Y-91023030D01*
X68849474Y-91040526D01*
X68866970Y-91061845D01*
X68879968Y-91086161D01*
X68887975Y-91112559D01*
X68890000Y-91133121D01*
X68890000Y-91866879D01*
X68887975Y-91887441D01*
X68879968Y-91913839D01*
X68866970Y-91938155D01*
X68849474Y-91959474D01*
X68828155Y-91976970D01*
X68803839Y-91989968D01*
X68790640Y-91993971D01*
X68777445Y-91997974D01*
X68777444Y-91997974D01*
X68777441Y-91997975D01*
X68750000Y-92000678D01*
X68722560Y-91997975D01*
X68722557Y-91997974D01*
X68722556Y-91997974D01*
X68709361Y-91993971D01*
X68696162Y-91989968D01*
X68671846Y-91976970D01*
X68650527Y-91959474D01*
X68633031Y-91938155D01*
X68620033Y-91913839D01*
X68612026Y-91887441D01*
X68610001Y-91866879D01*
X68610000Y-91133122D01*
X68612025Y-91112560D01*
X68612027Y-91112555D01*
X68620031Y-91086166D01*
X68620032Y-91086162D01*
X68633030Y-91061845D01*
X68650526Y-91040526D01*
X68671845Y-91023030D01*
X68696161Y-91010032D01*
X68709360Y-91006028D01*
X68722555Y-91002026D01*
X68722556Y-91002026D01*
X68722559Y-91002025D01*
X68750000Y-90999322D01*
X68777440Y-91002025D01*
X68777440Y-91002025D01*
G37*
G36*
X68277440Y-91002025D02*
X68277443Y-91002026D01*
X68277444Y-91002026D01*
X68290639Y-91006028D01*
X68303838Y-91010032D01*
X68328155Y-91023030D01*
X68349474Y-91040526D01*
X68366970Y-91061845D01*
X68379968Y-91086161D01*
X68387975Y-91112559D01*
X68390000Y-91133121D01*
X68390000Y-91866879D01*
X68387975Y-91887441D01*
X68379968Y-91913839D01*
X68366970Y-91938155D01*
X68349474Y-91959474D01*
X68328155Y-91976970D01*
X68303839Y-91989968D01*
X68290640Y-91993971D01*
X68277445Y-91997974D01*
X68277444Y-91997974D01*
X68277441Y-91997975D01*
X68250000Y-92000678D01*
X68222560Y-91997975D01*
X68222557Y-91997974D01*
X68222556Y-91997974D01*
X68209361Y-91993971D01*
X68196162Y-91989968D01*
X68171846Y-91976970D01*
X68150527Y-91959474D01*
X68133031Y-91938155D01*
X68120033Y-91913839D01*
X68112026Y-91887441D01*
X68110001Y-91866879D01*
X68110000Y-91133122D01*
X68112025Y-91112560D01*
X68112027Y-91112555D01*
X68120031Y-91086166D01*
X68120032Y-91086162D01*
X68133030Y-91061845D01*
X68150526Y-91040526D01*
X68171845Y-91023030D01*
X68196161Y-91010032D01*
X68209360Y-91006028D01*
X68222555Y-91002026D01*
X68222556Y-91002026D01*
X68222559Y-91002025D01*
X68250000Y-90999322D01*
X68277440Y-91002025D01*
X68277440Y-91002025D01*
G37*
G36*
X67777440Y-91002025D02*
X67777443Y-91002026D01*
X67777444Y-91002026D01*
X67790639Y-91006028D01*
X67803838Y-91010032D01*
X67828155Y-91023030D01*
X67849474Y-91040526D01*
X67866970Y-91061845D01*
X67879968Y-91086161D01*
X67887975Y-91112559D01*
X67890000Y-91133121D01*
X67890000Y-91866879D01*
X67887975Y-91887441D01*
X67879968Y-91913839D01*
X67866970Y-91938155D01*
X67849474Y-91959474D01*
X67828155Y-91976970D01*
X67803839Y-91989968D01*
X67790640Y-91993971D01*
X67777445Y-91997974D01*
X67777444Y-91997974D01*
X67777441Y-91997975D01*
X67750000Y-92000678D01*
X67722560Y-91997975D01*
X67722557Y-91997974D01*
X67722556Y-91997974D01*
X67709361Y-91993971D01*
X67696162Y-91989968D01*
X67671846Y-91976970D01*
X67650527Y-91959474D01*
X67633031Y-91938155D01*
X67620033Y-91913839D01*
X67612026Y-91887441D01*
X67610001Y-91866879D01*
X67610000Y-91133122D01*
X67612025Y-91112560D01*
X67612027Y-91112555D01*
X67620031Y-91086166D01*
X67620032Y-91086162D01*
X67633030Y-91061845D01*
X67650526Y-91040526D01*
X67671845Y-91023030D01*
X67696161Y-91010032D01*
X67709360Y-91006028D01*
X67722555Y-91002026D01*
X67722556Y-91002026D01*
X67722559Y-91002025D01*
X67750000Y-90999322D01*
X67777440Y-91002025D01*
X67777440Y-91002025D01*
G37*
G36*
X67277440Y-91002025D02*
X67277443Y-91002026D01*
X67277444Y-91002026D01*
X67290639Y-91006028D01*
X67303838Y-91010032D01*
X67328155Y-91023030D01*
X67349474Y-91040526D01*
X67366970Y-91061845D01*
X67379968Y-91086161D01*
X67387975Y-91112559D01*
X67390000Y-91133121D01*
X67390000Y-91866879D01*
X67387975Y-91887441D01*
X67379968Y-91913839D01*
X67366970Y-91938155D01*
X67349474Y-91959474D01*
X67328155Y-91976970D01*
X67303839Y-91989968D01*
X67290640Y-91993971D01*
X67277445Y-91997974D01*
X67277444Y-91997974D01*
X67277441Y-91997975D01*
X67250000Y-92000678D01*
X67222560Y-91997975D01*
X67222557Y-91997974D01*
X67222556Y-91997974D01*
X67209361Y-91993971D01*
X67196162Y-91989968D01*
X67171846Y-91976970D01*
X67150527Y-91959474D01*
X67133031Y-91938155D01*
X67120033Y-91913839D01*
X67112026Y-91887441D01*
X67110001Y-91866879D01*
X67110000Y-91133122D01*
X67112025Y-91112560D01*
X67112027Y-91112555D01*
X67120031Y-91086166D01*
X67120032Y-91086162D01*
X67133030Y-91061845D01*
X67150526Y-91040526D01*
X67171845Y-91023030D01*
X67196161Y-91010032D01*
X67209360Y-91006028D01*
X67222555Y-91002026D01*
X67222556Y-91002026D01*
X67222559Y-91002025D01*
X67250000Y-90999322D01*
X67277440Y-91002025D01*
X67277440Y-91002025D01*
G37*
G36*
X72277440Y-91002025D02*
X72277443Y-91002026D01*
X72277444Y-91002026D01*
X72290639Y-91006028D01*
X72303838Y-91010032D01*
X72328155Y-91023030D01*
X72349474Y-91040526D01*
X72366970Y-91061845D01*
X72379968Y-91086161D01*
X72387975Y-91112559D01*
X72390000Y-91133121D01*
X72390000Y-91866879D01*
X72387975Y-91887441D01*
X72379968Y-91913839D01*
X72366970Y-91938155D01*
X72349474Y-91959474D01*
X72328155Y-91976970D01*
X72303839Y-91989968D01*
X72290640Y-91993971D01*
X72277445Y-91997974D01*
X72277444Y-91997974D01*
X72277441Y-91997975D01*
X72250000Y-92000678D01*
X72222560Y-91997975D01*
X72222557Y-91997974D01*
X72222556Y-91997974D01*
X72209361Y-91993971D01*
X72196162Y-91989968D01*
X72171846Y-91976970D01*
X72150527Y-91959474D01*
X72133031Y-91938155D01*
X72120033Y-91913839D01*
X72112026Y-91887441D01*
X72110001Y-91866879D01*
X72110000Y-91133122D01*
X72112025Y-91112560D01*
X72112027Y-91112555D01*
X72120031Y-91086166D01*
X72120032Y-91086162D01*
X72133030Y-91061845D01*
X72150526Y-91040526D01*
X72171845Y-91023030D01*
X72196161Y-91010032D01*
X72209360Y-91006028D01*
X72222555Y-91002026D01*
X72222556Y-91002026D01*
X72222559Y-91002025D01*
X72250000Y-90999322D01*
X72277440Y-91002025D01*
X72277440Y-91002025D01*
G37*
G36*
X66777440Y-91002025D02*
X66777443Y-91002026D01*
X66777444Y-91002026D01*
X66790639Y-91006028D01*
X66803838Y-91010032D01*
X66828155Y-91023030D01*
X66849474Y-91040526D01*
X66866970Y-91061845D01*
X66879968Y-91086161D01*
X66887975Y-91112559D01*
X66890000Y-91133121D01*
X66890000Y-91866879D01*
X66887975Y-91887441D01*
X66879968Y-91913839D01*
X66866970Y-91938155D01*
X66849474Y-91959474D01*
X66828155Y-91976970D01*
X66803839Y-91989968D01*
X66790640Y-91993971D01*
X66777445Y-91997974D01*
X66777444Y-91997974D01*
X66777441Y-91997975D01*
X66750000Y-92000678D01*
X66722560Y-91997975D01*
X66722557Y-91997974D01*
X66722556Y-91997974D01*
X66709361Y-91993971D01*
X66696162Y-91989968D01*
X66671846Y-91976970D01*
X66650527Y-91959474D01*
X66633031Y-91938155D01*
X66620033Y-91913839D01*
X66612026Y-91887441D01*
X66610001Y-91866879D01*
X66610000Y-91133122D01*
X66612025Y-91112560D01*
X66612027Y-91112555D01*
X66620031Y-91086166D01*
X66620032Y-91086162D01*
X66633030Y-91061845D01*
X66650526Y-91040526D01*
X66671845Y-91023030D01*
X66696161Y-91010032D01*
X66709360Y-91006028D01*
X66722555Y-91002026D01*
X66722556Y-91002026D01*
X66722559Y-91002025D01*
X66750000Y-90999322D01*
X66777440Y-91002025D01*
X66777440Y-91002025D01*
G37*
G36*
X71777440Y-91002025D02*
X71777443Y-91002026D01*
X71777444Y-91002026D01*
X71790639Y-91006028D01*
X71803838Y-91010032D01*
X71828155Y-91023030D01*
X71849474Y-91040526D01*
X71866970Y-91061845D01*
X71879968Y-91086161D01*
X71887975Y-91112559D01*
X71890000Y-91133121D01*
X71890000Y-91866879D01*
X71887975Y-91887441D01*
X71879968Y-91913839D01*
X71866970Y-91938155D01*
X71849474Y-91959474D01*
X71828155Y-91976970D01*
X71803839Y-91989968D01*
X71790640Y-91993971D01*
X71777445Y-91997974D01*
X71777444Y-91997974D01*
X71777441Y-91997975D01*
X71750000Y-92000678D01*
X71722560Y-91997975D01*
X71722557Y-91997974D01*
X71722556Y-91997974D01*
X71709361Y-91993971D01*
X71696162Y-91989968D01*
X71671846Y-91976970D01*
X71650527Y-91959474D01*
X71633031Y-91938155D01*
X71620033Y-91913839D01*
X71612026Y-91887441D01*
X71610001Y-91866879D01*
X71610000Y-91133122D01*
X71612025Y-91112560D01*
X71612027Y-91112555D01*
X71620031Y-91086166D01*
X71620032Y-91086162D01*
X71633030Y-91061845D01*
X71650526Y-91040526D01*
X71671845Y-91023030D01*
X71696161Y-91010032D01*
X71709360Y-91006028D01*
X71722555Y-91002026D01*
X71722556Y-91002026D01*
X71722559Y-91002025D01*
X71750000Y-90999322D01*
X71777440Y-91002025D01*
X71777440Y-91002025D01*
G37*
G36*
X71277440Y-91002025D02*
X71277443Y-91002026D01*
X71277444Y-91002026D01*
X71290639Y-91006028D01*
X71303838Y-91010032D01*
X71328155Y-91023030D01*
X71349474Y-91040526D01*
X71366970Y-91061845D01*
X71379968Y-91086161D01*
X71387975Y-91112559D01*
X71390000Y-91133121D01*
X71390000Y-91866879D01*
X71387975Y-91887441D01*
X71379968Y-91913839D01*
X71366970Y-91938155D01*
X71349474Y-91959474D01*
X71328155Y-91976970D01*
X71303839Y-91989968D01*
X71290640Y-91993971D01*
X71277445Y-91997974D01*
X71277444Y-91997974D01*
X71277441Y-91997975D01*
X71250000Y-92000678D01*
X71222560Y-91997975D01*
X71222557Y-91997974D01*
X71222556Y-91997974D01*
X71209361Y-91993971D01*
X71196162Y-91989968D01*
X71171846Y-91976970D01*
X71150527Y-91959474D01*
X71133031Y-91938155D01*
X71120033Y-91913839D01*
X71112026Y-91887441D01*
X71110001Y-91866879D01*
X71110000Y-91133122D01*
X71112025Y-91112560D01*
X71112027Y-91112555D01*
X71120031Y-91086166D01*
X71120032Y-91086162D01*
X71133030Y-91061845D01*
X71150526Y-91040526D01*
X71171845Y-91023030D01*
X71196161Y-91010032D01*
X71209360Y-91006028D01*
X71222555Y-91002026D01*
X71222556Y-91002026D01*
X71222559Y-91002025D01*
X71250000Y-90999322D01*
X71277440Y-91002025D01*
X71277440Y-91002025D01*
G37*
G36*
X66277440Y-91002025D02*
X66277443Y-91002026D01*
X66277444Y-91002026D01*
X66290639Y-91006028D01*
X66303838Y-91010032D01*
X66328155Y-91023030D01*
X66349474Y-91040526D01*
X66366970Y-91061845D01*
X66379968Y-91086161D01*
X66387975Y-91112559D01*
X66390000Y-91133121D01*
X66390000Y-91866879D01*
X66387975Y-91887441D01*
X66379968Y-91913839D01*
X66366970Y-91938155D01*
X66349474Y-91959474D01*
X66328155Y-91976970D01*
X66303839Y-91989968D01*
X66290640Y-91993971D01*
X66277445Y-91997974D01*
X66277444Y-91997974D01*
X66277441Y-91997975D01*
X66250000Y-92000678D01*
X66222560Y-91997975D01*
X66222557Y-91997974D01*
X66222556Y-91997974D01*
X66209361Y-91993971D01*
X66196162Y-91989968D01*
X66171846Y-91976970D01*
X66150527Y-91959474D01*
X66133031Y-91938155D01*
X66120033Y-91913839D01*
X66112026Y-91887441D01*
X66110001Y-91866879D01*
X66110000Y-91133122D01*
X66112025Y-91112560D01*
X66112027Y-91112555D01*
X66120031Y-91086166D01*
X66120032Y-91086162D01*
X66133030Y-91061845D01*
X66150526Y-91040526D01*
X66171845Y-91023030D01*
X66196161Y-91010032D01*
X66209360Y-91006028D01*
X66222555Y-91002026D01*
X66222556Y-91002026D01*
X66222559Y-91002025D01*
X66250000Y-90999322D01*
X66277440Y-91002025D01*
X66277440Y-91002025D01*
G37*
G36*
X100650000Y-91900000D02*
X99850000Y-91900000D01*
X99850000Y-91600000D01*
X100650000Y-91600000D01*
X100650000Y-91900000D01*
X100650000Y-91900000D01*
G37*
G36*
X98850000Y-91900000D02*
X98050000Y-91900000D01*
X98050000Y-91600000D01*
X98850000Y-91600000D01*
X98850000Y-91900000D01*
X98850000Y-91900000D01*
G37*
G36*
X62300000Y-91750000D02*
X60900000Y-91750000D01*
X60900000Y-90550000D01*
X62300000Y-90550000D01*
X62300000Y-91750000D01*
X62300000Y-91750000D01*
G37*
G36*
X60100000Y-91750000D02*
X58700000Y-91750000D01*
X58700000Y-90550000D01*
X60100000Y-90550000D01*
X60100000Y-91750000D01*
X60100000Y-91750000D01*
G37*
G36*
X100650000Y-91400000D02*
X99850000Y-91400000D01*
X99850000Y-91100000D01*
X100650000Y-91100000D01*
X100650000Y-91400000D01*
X100650000Y-91400000D01*
G37*
G36*
X98850000Y-91400000D02*
X98050000Y-91400000D01*
X98050000Y-91100000D01*
X98850000Y-91100000D01*
X98850000Y-91400000D01*
X98850000Y-91400000D01*
G37*
G36*
X80645841Y-90269214D02*
X80645842Y-90269214D01*
X80645845Y-90269215D01*
X80736839Y-90306906D01*
X80818731Y-90361625D01*
X80888375Y-90431269D01*
X80943094Y-90513161D01*
X80980785Y-90604155D01*
X81000000Y-90700754D01*
X81000000Y-90799246D01*
X80980785Y-90895845D01*
X80943094Y-90986839D01*
X80888375Y-91068731D01*
X80818731Y-91138375D01*
X80736839Y-91193094D01*
X80645845Y-91230785D01*
X80645842Y-91230786D01*
X80645841Y-91230786D01*
X80549248Y-91250000D01*
X80450752Y-91250000D01*
X80354159Y-91230786D01*
X80354158Y-91230786D01*
X80354155Y-91230785D01*
X80263161Y-91193094D01*
X80181269Y-91138375D01*
X80111625Y-91068731D01*
X80056906Y-90986839D01*
X80019215Y-90895845D01*
X80000000Y-90799246D01*
X80000000Y-90700754D01*
X80019215Y-90604155D01*
X80056906Y-90513161D01*
X80111625Y-90431269D01*
X80181269Y-90361625D01*
X80263161Y-90306906D01*
X80354155Y-90269215D01*
X80354158Y-90269214D01*
X80354159Y-90269214D01*
X80450752Y-90250000D01*
X80549248Y-90250000D01*
X80645841Y-90269214D01*
X80645841Y-90269214D01*
G37*
G36*
X111825000Y-90630000D02*
X111175000Y-90630000D01*
X111175000Y-89570000D01*
X111825000Y-89570000D01*
X111825000Y-90630000D01*
X111825000Y-90630000D01*
G37*
G36*
X110875000Y-90630000D02*
X110225000Y-90630000D01*
X110225000Y-89570000D01*
X110875000Y-89570000D01*
X110875000Y-90630000D01*
X110875000Y-90630000D01*
G37*
G36*
X112775000Y-90630000D02*
X112125000Y-90630000D01*
X112125000Y-89570000D01*
X112775000Y-89570000D01*
X112775000Y-90630000D01*
X112775000Y-90630000D01*
G37*
G36*
X115000000Y-90385000D02*
X114000000Y-90385000D01*
X114000000Y-89390000D01*
X115000000Y-89390000D01*
X115000000Y-90385000D01*
X115000000Y-90385000D01*
G37*
G36*
X102370000Y-90250000D02*
X102130000Y-90250000D01*
X102130000Y-89350000D01*
X102370000Y-89350000D01*
X102370000Y-90250000D01*
X102370000Y-90250000D01*
G37*
G36*
X102870000Y-90250000D02*
X102630000Y-90250000D01*
X102630000Y-89350000D01*
X102870000Y-89350000D01*
X102870000Y-90250000D01*
X102870000Y-90250000D01*
G37*
G36*
X103370000Y-90250000D02*
X103130000Y-90250000D01*
X103130000Y-89350000D01*
X103370000Y-89350000D01*
X103370000Y-90250000D01*
X103370000Y-90250000D01*
G37*
G36*
X103870000Y-90250000D02*
X103630000Y-90250000D01*
X103630000Y-89350000D01*
X103870000Y-89350000D01*
X103870000Y-90250000D01*
X103870000Y-90250000D01*
G37*
G36*
X104870000Y-90250000D02*
X104630000Y-90250000D01*
X104630000Y-89350000D01*
X104870000Y-89350000D01*
X104870000Y-90250000D01*
X104870000Y-90250000D01*
G37*
G36*
X105370000Y-90250000D02*
X105130000Y-90250000D01*
X105130000Y-89350000D01*
X105370000Y-89350000D01*
X105370000Y-90250000D01*
X105370000Y-90250000D01*
G37*
G36*
X101870000Y-90250000D02*
X101630000Y-90250000D01*
X101630000Y-89350000D01*
X101870000Y-89350000D01*
X101870000Y-90250000D01*
X101870000Y-90250000D01*
G37*
G36*
X104370000Y-90250000D02*
X104130000Y-90250000D01*
X104130000Y-89350000D01*
X104370000Y-89350000D01*
X104370000Y-90250000D01*
X104370000Y-90250000D01*
G37*
G36*
X61885000Y-89500000D02*
X60890000Y-89500000D01*
X60890000Y-88500000D01*
X61885000Y-88500000D01*
X61885000Y-89500000D01*
X61885000Y-89500000D01*
G37*
G36*
X60110000Y-89500000D02*
X59115000Y-89500000D01*
X59115000Y-88500000D01*
X60110000Y-88500000D01*
X60110000Y-89500000D01*
X60110000Y-89500000D01*
G37*
G36*
X104950000Y-89000000D02*
X102050000Y-89000000D01*
X102050000Y-88000000D01*
X104950000Y-88000000D01*
X104950000Y-89000000D01*
X104950000Y-89000000D01*
G37*
G36*
X106250000Y-88870000D02*
X105350000Y-88870000D01*
X105350000Y-88630000D01*
X106250000Y-88630000D01*
X106250000Y-88870000D01*
X106250000Y-88870000D01*
G37*
G36*
X101650000Y-88870000D02*
X100750000Y-88870000D01*
X100750000Y-88630000D01*
X101650000Y-88630000D01*
X101650000Y-88870000D01*
X101650000Y-88870000D01*
G37*
G36*
X115000000Y-88610000D02*
X114000000Y-88610000D01*
X114000000Y-87615000D01*
X115000000Y-87615000D01*
X115000000Y-88610000D01*
X115000000Y-88610000D01*
G37*
G36*
X110875000Y-88430000D02*
X110225000Y-88430000D01*
X110225000Y-87370000D01*
X110875000Y-87370000D01*
X110875000Y-88430000D01*
X110875000Y-88430000D01*
G37*
G36*
X112775000Y-88430000D02*
X112125000Y-88430000D01*
X112125000Y-87370000D01*
X112775000Y-87370000D01*
X112775000Y-88430000D01*
X112775000Y-88430000D01*
G37*
G36*
X111825000Y-88430000D02*
X111175000Y-88430000D01*
X111175000Y-87370000D01*
X111825000Y-87370000D01*
X111825000Y-88430000D01*
X111825000Y-88430000D01*
G37*
G36*
X101650000Y-88370000D02*
X100750000Y-88370000D01*
X100750000Y-88130000D01*
X101650000Y-88130000D01*
X101650000Y-88370000D01*
X101650000Y-88370000D01*
G37*
G36*
X106250000Y-88370000D02*
X105350000Y-88370000D01*
X105350000Y-88130000D01*
X106250000Y-88130000D01*
X106250000Y-88370000D01*
X106250000Y-88370000D01*
G37*
G36*
X77645841Y-87269214D02*
X77645842Y-87269214D01*
X77645845Y-87269215D01*
X77736839Y-87306906D01*
X77736840Y-87306907D01*
X77807558Y-87354159D01*
X77818731Y-87361625D01*
X77888375Y-87431269D01*
X77943094Y-87513161D01*
X77980785Y-87604155D01*
X77980786Y-87604158D01*
X77980786Y-87604159D01*
X78000000Y-87700752D01*
X78000000Y-87799248D01*
X77996124Y-87818731D01*
X77980785Y-87895845D01*
X77943094Y-87986839D01*
X77888375Y-88068731D01*
X77818731Y-88138375D01*
X77736839Y-88193094D01*
X77645845Y-88230785D01*
X77645842Y-88230786D01*
X77645841Y-88230786D01*
X77549248Y-88250000D01*
X77450752Y-88250000D01*
X77354159Y-88230786D01*
X77354158Y-88230786D01*
X77354155Y-88230785D01*
X77263161Y-88193094D01*
X77181269Y-88138375D01*
X77111625Y-88068731D01*
X77056906Y-87986839D01*
X77019215Y-87895845D01*
X77003876Y-87818731D01*
X77000000Y-87799248D01*
X77000000Y-87700752D01*
X77019214Y-87604159D01*
X77019214Y-87604158D01*
X77019215Y-87604155D01*
X77056906Y-87513161D01*
X77111625Y-87431269D01*
X77181269Y-87361625D01*
X77192443Y-87354159D01*
X77263160Y-87306907D01*
X77263161Y-87306906D01*
X77354155Y-87269215D01*
X77354158Y-87269214D01*
X77354159Y-87269214D01*
X77450752Y-87250000D01*
X77549248Y-87250000D01*
X77645841Y-87269214D01*
X77645841Y-87269214D01*
G37*
G36*
X53645841Y-87019214D02*
X53645842Y-87019214D01*
X53645845Y-87019215D01*
X53736839Y-87056906D01*
X53754536Y-87068731D01*
X53818730Y-87111624D01*
X53888376Y-87181270D01*
X53900891Y-87200000D01*
X53943094Y-87263161D01*
X53980785Y-87354155D01*
X53980786Y-87354158D01*
X53980786Y-87354159D01*
X53996125Y-87431270D01*
X54000000Y-87450754D01*
X54000000Y-87549246D01*
X53980785Y-87645845D01*
X53943094Y-87736839D01*
X53943093Y-87736840D01*
X53888376Y-87818730D01*
X53818730Y-87888376D01*
X53777785Y-87915735D01*
X53736839Y-87943094D01*
X53645845Y-87980785D01*
X53645842Y-87980786D01*
X53645841Y-87980786D01*
X53549248Y-88000000D01*
X53450752Y-88000000D01*
X53354159Y-87980786D01*
X53354158Y-87980786D01*
X53354155Y-87980785D01*
X53263161Y-87943094D01*
X53222215Y-87915735D01*
X53181270Y-87888376D01*
X53111624Y-87818730D01*
X53056907Y-87736840D01*
X53056906Y-87736839D01*
X53019215Y-87645845D01*
X53000000Y-87549246D01*
X53000000Y-87450754D01*
X53003876Y-87431270D01*
X53019214Y-87354159D01*
X53019214Y-87354158D01*
X53019215Y-87354155D01*
X53056906Y-87263161D01*
X53099109Y-87200000D01*
X53111624Y-87181270D01*
X53181270Y-87111624D01*
X53245464Y-87068731D01*
X53263161Y-87056906D01*
X53354155Y-87019215D01*
X53354158Y-87019214D01*
X53354159Y-87019214D01*
X53450752Y-87000000D01*
X53549248Y-87000000D01*
X53645841Y-87019214D01*
X53645841Y-87019214D01*
G37*
G36*
X102370000Y-87650000D02*
X102130000Y-87650000D01*
X102130000Y-86750000D01*
X102370000Y-86750000D01*
X102370000Y-87650000D01*
X102370000Y-87650000D01*
G37*
G36*
X102870000Y-87650000D02*
X102630000Y-87650000D01*
X102630000Y-86750000D01*
X102870000Y-86750000D01*
X102870000Y-87650000D01*
X102870000Y-87650000D01*
G37*
G36*
X103370000Y-87650000D02*
X103130000Y-87650000D01*
X103130000Y-86750000D01*
X103370000Y-86750000D01*
X103370000Y-87650000D01*
X103370000Y-87650000D01*
G37*
G36*
X103870000Y-87650000D02*
X103630000Y-87650000D01*
X103630000Y-86750000D01*
X103870000Y-86750000D01*
X103870000Y-87650000D01*
X103870000Y-87650000D01*
G37*
G36*
X104370000Y-87650000D02*
X104130000Y-87650000D01*
X104130000Y-86750000D01*
X104370000Y-86750000D01*
X104370000Y-87650000D01*
X104370000Y-87650000D01*
G37*
G36*
X104870000Y-87650000D02*
X104630000Y-87650000D01*
X104630000Y-86750000D01*
X104870000Y-86750000D01*
X104870000Y-87650000D01*
X104870000Y-87650000D01*
G37*
G36*
X105370000Y-87650000D02*
X105130000Y-87650000D01*
X105130000Y-86750000D01*
X105370000Y-86750000D01*
X105370000Y-87650000D01*
X105370000Y-87650000D01*
G37*
G36*
X101870000Y-87650000D02*
X101630000Y-87650000D01*
X101630000Y-86750000D01*
X101870000Y-86750000D01*
X101870000Y-87650000D01*
X101870000Y-87650000D01*
G37*
G36*
X65395841Y-86269214D02*
X65395842Y-86269214D01*
X65395845Y-86269215D01*
X65486839Y-86306906D01*
X65568731Y-86361625D01*
X65638375Y-86431269D01*
X65693094Y-86513161D01*
X65730785Y-86604155D01*
X65750000Y-86700754D01*
X65750000Y-86799246D01*
X65730785Y-86895845D01*
X65693094Y-86986839D01*
X65671461Y-87019215D01*
X65646277Y-87056906D01*
X65638375Y-87068731D01*
X65568731Y-87138375D01*
X65486839Y-87193094D01*
X65395845Y-87230785D01*
X65395842Y-87230786D01*
X65395841Y-87230786D01*
X65299248Y-87250000D01*
X65200752Y-87250000D01*
X65104159Y-87230786D01*
X65104158Y-87230786D01*
X65104155Y-87230785D01*
X65013161Y-87193094D01*
X64931269Y-87138375D01*
X64861625Y-87068731D01*
X64853724Y-87056906D01*
X64828539Y-87019215D01*
X64806906Y-86986839D01*
X64769215Y-86895845D01*
X64750000Y-86799246D01*
X64750000Y-86700754D01*
X64769215Y-86604155D01*
X64806906Y-86513161D01*
X64861625Y-86431269D01*
X64931269Y-86361625D01*
X65013161Y-86306906D01*
X65104155Y-86269215D01*
X65104158Y-86269214D01*
X65104159Y-86269214D01*
X65200752Y-86250000D01*
X65299248Y-86250000D01*
X65395841Y-86269214D01*
X65395841Y-86269214D01*
G37*
G36*
X95175000Y-87200000D02*
X93725000Y-87200000D01*
X93725000Y-86750000D01*
X95175000Y-86750000D01*
X95175000Y-87200000D01*
X95175000Y-87200000D01*
G37*
G36*
X90775000Y-87200000D02*
X89325000Y-87200000D01*
X89325000Y-86750000D01*
X90775000Y-86750000D01*
X90775000Y-87200000D01*
X90775000Y-87200000D01*
G37*
G36*
X84635000Y-87000000D02*
X83640000Y-87000000D01*
X83640000Y-86000000D01*
X84635000Y-86000000D01*
X84635000Y-87000000D01*
X84635000Y-87000000D01*
G37*
G36*
X82860000Y-87000000D02*
X81865000Y-87000000D01*
X81865000Y-86000000D01*
X82860000Y-86000000D01*
X82860000Y-87000000D01*
X82860000Y-87000000D01*
G37*
G36*
X95175000Y-86550000D02*
X93725000Y-86550000D01*
X93725000Y-86100000D01*
X95175000Y-86100000D01*
X95175000Y-86550000D01*
X95175000Y-86550000D01*
G37*
G36*
X90775000Y-86550000D02*
X89325000Y-86550000D01*
X89325000Y-86100000D01*
X90775000Y-86100000D01*
X90775000Y-86550000D01*
X90775000Y-86550000D01*
G37*
G36*
X114635000Y-86500000D02*
X113640000Y-86500000D01*
X113640000Y-85500000D01*
X114635000Y-85500000D01*
X114635000Y-86500000D01*
X114635000Y-86500000D01*
G37*
G36*
X112860000Y-86500000D02*
X111865000Y-86500000D01*
X111865000Y-85500000D01*
X112860000Y-85500000D01*
X112860000Y-86500000D01*
X112860000Y-86500000D01*
G37*
G36*
X111135000Y-86500000D02*
X110140000Y-86500000D01*
X110140000Y-85500000D01*
X111135000Y-85500000D01*
X111135000Y-86500000D01*
X111135000Y-86500000D01*
G37*
G36*
X109360000Y-86500000D02*
X108365000Y-86500000D01*
X108365000Y-85500000D01*
X109360000Y-85500000D01*
X109360000Y-86500000D01*
X109360000Y-86500000D01*
G37*
G36*
X122864608Y-83798036D02*
X122864610Y-83798037D01*
X122864611Y-83798037D01*
X123092097Y-83892265D01*
X123092099Y-83892266D01*
X123296827Y-84029061D01*
X123470939Y-84203173D01*
X123607734Y-84407901D01*
X123701964Y-84635392D01*
X123750000Y-84876884D01*
X123750000Y-85123114D01*
X123701963Y-85364611D01*
X123645883Y-85500000D01*
X123607734Y-85592099D01*
X123470939Y-85796827D01*
X123296827Y-85970939D01*
X123092099Y-86107734D01*
X123092098Y-86107735D01*
X123092097Y-86107735D01*
X122864611Y-86201963D01*
X122864610Y-86201963D01*
X122864608Y-86201964D01*
X122623116Y-86250000D01*
X122376884Y-86250000D01*
X122135392Y-86201964D01*
X122135390Y-86201963D01*
X122135389Y-86201963D01*
X121907903Y-86107735D01*
X121907902Y-86107735D01*
X121907901Y-86107734D01*
X121703173Y-85970939D01*
X121529061Y-85796827D01*
X121392266Y-85592099D01*
X121354117Y-85500000D01*
X121298037Y-85364611D01*
X121250000Y-85123114D01*
X121250000Y-84876884D01*
X121298036Y-84635392D01*
X121392266Y-84407901D01*
X121529061Y-84203173D01*
X121703173Y-84029061D01*
X121907901Y-83892266D01*
X121907903Y-83892265D01*
X122135389Y-83798037D01*
X122135390Y-83798037D01*
X122135392Y-83798036D01*
X122376884Y-83750000D01*
X122623116Y-83750000D01*
X122864608Y-83798036D01*
X122864608Y-83798036D01*
G37*
G36*
X95175000Y-85900000D02*
X93725000Y-85900000D01*
X93725000Y-85450000D01*
X95175000Y-85450000D01*
X95175000Y-85900000D01*
X95175000Y-85900000D01*
G37*
G36*
X90775000Y-85900000D02*
X89325000Y-85900000D01*
X89325000Y-85450000D01*
X90775000Y-85450000D01*
X90775000Y-85900000D01*
X90775000Y-85900000D01*
G37*
G36*
X105400000Y-85550000D02*
X105100000Y-85550000D01*
X105100000Y-84750000D01*
X105400000Y-84750000D01*
X105400000Y-85550000D01*
X105400000Y-85550000D01*
G37*
G36*
X104400000Y-85550000D02*
X104100000Y-85550000D01*
X104100000Y-84750000D01*
X104400000Y-84750000D01*
X104400000Y-85550000D01*
X104400000Y-85550000D01*
G37*
G36*
X104900000Y-85550000D02*
X104600000Y-85550000D01*
X104600000Y-84750000D01*
X104900000Y-84750000D01*
X104900000Y-85550000D01*
X104900000Y-85550000D01*
G37*
G36*
X103900000Y-85550000D02*
X103600000Y-85550000D01*
X103600000Y-84750000D01*
X103900000Y-84750000D01*
X103900000Y-85550000D01*
X103900000Y-85550000D01*
G37*
G36*
X102900000Y-85550000D02*
X102600000Y-85550000D01*
X102600000Y-84750000D01*
X102900000Y-84750000D01*
X102900000Y-85550000D01*
X102900000Y-85550000D01*
G37*
G36*
X101900000Y-85550000D02*
X101600000Y-85550000D01*
X101600000Y-84750000D01*
X101900000Y-84750000D01*
X101900000Y-85550000D01*
X101900000Y-85550000D01*
G37*
G36*
X102400000Y-85550000D02*
X102100000Y-85550000D01*
X102100000Y-84750000D01*
X102400000Y-84750000D01*
X102400000Y-85550000D01*
X102400000Y-85550000D01*
G37*
G36*
X103400000Y-85550000D02*
X103100000Y-85550000D01*
X103100000Y-84750000D01*
X103400000Y-84750000D01*
X103400000Y-85550000D01*
X103400000Y-85550000D01*
G37*
G36*
X97250000Y-85385000D02*
X96250000Y-85385000D01*
X96250000Y-84390000D01*
X97250000Y-84390000D01*
X97250000Y-85385000D01*
X97250000Y-85385000D01*
G37*
G36*
X90775000Y-85250000D02*
X89325000Y-85250000D01*
X89325000Y-84800000D01*
X90775000Y-84800000D01*
X90775000Y-85250000D01*
X90775000Y-85250000D01*
G37*
G36*
X95175000Y-85250000D02*
X93725000Y-85250000D01*
X93725000Y-84800000D01*
X95175000Y-84800000D01*
X95175000Y-85250000D01*
X95175000Y-85250000D01*
G37*
G36*
X112775000Y-84630000D02*
X112125000Y-84630000D01*
X112125000Y-83570000D01*
X112775000Y-83570000D01*
X112775000Y-84630000D01*
X112775000Y-84630000D01*
G37*
G36*
X110875000Y-84630000D02*
X110225000Y-84630000D01*
X110225000Y-83570000D01*
X110875000Y-83570000D01*
X110875000Y-84630000D01*
X110875000Y-84630000D01*
G37*
G36*
X76497500Y-84500000D02*
X75502500Y-84500000D01*
X75502500Y-83500000D01*
X76497500Y-83500000D01*
X76497500Y-84500000D01*
X76497500Y-84500000D01*
G37*
G36*
X70997500Y-84500000D02*
X70002500Y-84500000D01*
X70002500Y-83500000D01*
X70997500Y-83500000D01*
X70997500Y-84500000D01*
X70997500Y-84500000D01*
G37*
G36*
X74722500Y-84500000D02*
X73727500Y-84500000D01*
X73727500Y-83500000D01*
X74722500Y-83500000D01*
X74722500Y-84500000D01*
X74722500Y-84500000D01*
G37*
G36*
X72772500Y-84500000D02*
X71777500Y-84500000D01*
X71777500Y-83500000D01*
X72772500Y-83500000D01*
X72772500Y-84500000D01*
X72772500Y-84500000D01*
G37*
G36*
X109000000Y-84385000D02*
X108000000Y-84385000D01*
X108000000Y-83390000D01*
X109000000Y-83390000D01*
X109000000Y-84385000D01*
X109000000Y-84385000D01*
G37*
G36*
X82456629Y-82412299D02*
X82616855Y-82460903D01*
X82764519Y-82539830D01*
X82893948Y-82646052D01*
X83000170Y-82775481D01*
X83079097Y-82923145D01*
X83127701Y-83083371D01*
X83144113Y-83250000D01*
X83127701Y-83416629D01*
X83079097Y-83576855D01*
X83000170Y-83724519D01*
X82893948Y-83853948D01*
X82764519Y-83960170D01*
X82616855Y-84039097D01*
X82456629Y-84087701D01*
X82331756Y-84100000D01*
X82248244Y-84100000D01*
X82123371Y-84087701D01*
X81963145Y-84039097D01*
X81815481Y-83960170D01*
X81686052Y-83853948D01*
X81579830Y-83724519D01*
X81500903Y-83576855D01*
X81452299Y-83416629D01*
X81435887Y-83250000D01*
X81452299Y-83083371D01*
X81500903Y-82923145D01*
X81579830Y-82775481D01*
X81686052Y-82646052D01*
X81815481Y-82539830D01*
X81963145Y-82460903D01*
X82123371Y-82412299D01*
X82248244Y-82400000D01*
X82331756Y-82400000D01*
X82456629Y-82412299D01*
X82456629Y-82412299D01*
G37*
G36*
X80600000Y-84100000D02*
X78900000Y-84100000D01*
X78900000Y-82400000D01*
X80600000Y-82400000D01*
X80600000Y-84100000D01*
X80600000Y-84100000D01*
G37*
G36*
X60732324Y-83885000D02*
X59732324Y-83885000D01*
X59732324Y-82890000D01*
X60732324Y-82890000D01*
X60732324Y-83885000D01*
X60732324Y-83885000D01*
G37*
G36*
X91885000Y-83750000D02*
X90890000Y-83750000D01*
X90890000Y-82750000D01*
X91885000Y-82750000D01*
X91885000Y-83750000D01*
X91885000Y-83750000D01*
G37*
G36*
X93610000Y-83750000D02*
X92615000Y-83750000D01*
X92615000Y-82750000D01*
X93610000Y-82750000D01*
X93610000Y-83750000D01*
X93610000Y-83750000D01*
G37*
G36*
X95385000Y-83750000D02*
X94390000Y-83750000D01*
X94390000Y-82750000D01*
X95385000Y-82750000D01*
X95385000Y-83750000D01*
X95385000Y-83750000D01*
G37*
G36*
X101900000Y-83750000D02*
X101600000Y-83750000D01*
X101600000Y-82950000D01*
X101900000Y-82950000D01*
X101900000Y-83750000D01*
X101900000Y-83750000D01*
G37*
G36*
X103400000Y-83750000D02*
X103100000Y-83750000D01*
X103100000Y-82950000D01*
X103400000Y-82950000D01*
X103400000Y-83750000D01*
X103400000Y-83750000D01*
G37*
G36*
X103900000Y-83750000D02*
X103600000Y-83750000D01*
X103600000Y-82950000D01*
X103900000Y-82950000D01*
X103900000Y-83750000D01*
X103900000Y-83750000D01*
G37*
G36*
X104900000Y-83750000D02*
X104600000Y-83750000D01*
X104600000Y-82950000D01*
X104900000Y-82950000D01*
X104900000Y-83750000D01*
X104900000Y-83750000D01*
G37*
G36*
X104400000Y-83750000D02*
X104100000Y-83750000D01*
X104100000Y-82950000D01*
X104400000Y-82950000D01*
X104400000Y-83750000D01*
X104400000Y-83750000D01*
G37*
G36*
X90110000Y-83750000D02*
X89115000Y-83750000D01*
X89115000Y-82750000D01*
X90110000Y-82750000D01*
X90110000Y-83750000D01*
X90110000Y-83750000D01*
G37*
G36*
X102900000Y-83750000D02*
X102600000Y-83750000D01*
X102600000Y-82950000D01*
X102900000Y-82950000D01*
X102900000Y-83750000D01*
X102900000Y-83750000D01*
G37*
G36*
X102400000Y-83750000D02*
X102100000Y-83750000D01*
X102100000Y-82950000D01*
X102400000Y-82950000D01*
X102400000Y-83750000D01*
X102400000Y-83750000D01*
G37*
G36*
X105400000Y-83750000D02*
X105100000Y-83750000D01*
X105100000Y-82950000D01*
X105400000Y-82950000D01*
X105400000Y-83750000D01*
X105400000Y-83750000D01*
G37*
G36*
X97250000Y-83610000D02*
X96250000Y-83610000D01*
X96250000Y-82615000D01*
X97250000Y-82615000D01*
X97250000Y-83610000D01*
X97250000Y-83610000D01*
G37*
G36*
X66885000Y-83250000D02*
X65890000Y-83250000D01*
X65890000Y-82250000D01*
X66885000Y-82250000D01*
X66885000Y-83250000D01*
X66885000Y-83250000D01*
G37*
G36*
X65110000Y-83250000D02*
X64115000Y-83250000D01*
X64115000Y-82250000D01*
X65110000Y-82250000D01*
X65110000Y-83250000D01*
X65110000Y-83250000D01*
G37*
G36*
X109000000Y-82610000D02*
X108000000Y-82610000D01*
X108000000Y-81615000D01*
X109000000Y-81615000D01*
X109000000Y-82610000D01*
X109000000Y-82610000D01*
G37*
G36*
X112775000Y-82430000D02*
X112125000Y-82430000D01*
X112125000Y-81370000D01*
X112775000Y-81370000D01*
X112775000Y-82430000D01*
X112775000Y-82430000D01*
G37*
G36*
X111825000Y-82430000D02*
X111175000Y-82430000D01*
X111175000Y-81370000D01*
X111825000Y-81370000D01*
X111825000Y-82430000D01*
X111825000Y-82430000D01*
G37*
G36*
X110875000Y-82430000D02*
X110225000Y-82430000D01*
X110225000Y-81370000D01*
X110875000Y-81370000D01*
X110875000Y-82430000D01*
X110875000Y-82430000D01*
G37*
G36*
X72641581Y-82280000D02*
X72241581Y-82280000D01*
X72241581Y-81020000D01*
X72641581Y-81020000D01*
X72641581Y-82280000D01*
X72641581Y-82280000D01*
G37*
G36*
X73291581Y-82280000D02*
X72891581Y-82280000D01*
X72891581Y-81020000D01*
X73291581Y-81020000D01*
X73291581Y-82280000D01*
X73291581Y-82280000D01*
G37*
G36*
X71991581Y-82280000D02*
X71591581Y-82280000D01*
X71591581Y-81020000D01*
X71991581Y-81020000D01*
X71991581Y-82280000D01*
X71991581Y-82280000D01*
G37*
G36*
X73941581Y-82280000D02*
X73541581Y-82280000D01*
X73541581Y-81020000D01*
X73941581Y-81020000D01*
X73941581Y-82280000D01*
X73941581Y-82280000D01*
G37*
G36*
X60732324Y-82110000D02*
X59732324Y-82110000D01*
X59732324Y-81115000D01*
X60732324Y-81115000D01*
X60732324Y-82110000D01*
X60732324Y-82110000D01*
G37*
G36*
X65130000Y-81025000D02*
X64070000Y-81025000D01*
X64070000Y-80375000D01*
X65130000Y-80375000D01*
X65130000Y-81025000D01*
X65130000Y-81025000D01*
G37*
G36*
X62930000Y-81025000D02*
X61870000Y-81025000D01*
X61870000Y-80375000D01*
X62930000Y-80375000D01*
X62930000Y-81025000D01*
X62930000Y-81025000D01*
G37*
G36*
X74166581Y-80520000D02*
X71366581Y-80520000D01*
X71366581Y-77980000D01*
X74166581Y-77980000D01*
X74166581Y-80520000D01*
X74166581Y-80520000D01*
G37*
G36*
X60732324Y-80385000D02*
X59732324Y-80385000D01*
X59732324Y-79390000D01*
X60732324Y-79390000D01*
X60732324Y-80385000D01*
X60732324Y-80385000D01*
G37*
G36*
X62930000Y-80075000D02*
X61870000Y-80075000D01*
X61870000Y-79425000D01*
X62930000Y-79425000D01*
X62930000Y-80075000D01*
X62930000Y-80075000D01*
G37*
G36*
X65130000Y-80075000D02*
X64070000Y-80075000D01*
X64070000Y-79425000D01*
X65130000Y-79425000D01*
X65130000Y-80075000D01*
X65130000Y-80075000D01*
G37*
G36*
X62930000Y-79125000D02*
X61870000Y-79125000D01*
X61870000Y-78475000D01*
X62930000Y-78475000D01*
X62930000Y-79125000D01*
X62930000Y-79125000D01*
G37*
G36*
X65130000Y-79125000D02*
X64070000Y-79125000D01*
X64070000Y-78475000D01*
X65130000Y-78475000D01*
X65130000Y-79125000D01*
X65130000Y-79125000D01*
G37*
G36*
X67250000Y-78885000D02*
X66250000Y-78885000D01*
X66250000Y-77890000D01*
X67250000Y-77890000D01*
X67250000Y-78885000D01*
X67250000Y-78885000D01*
G37*
G36*
X69250000Y-78885000D02*
X68250000Y-78885000D01*
X68250000Y-77890000D01*
X69250000Y-77890000D01*
X69250000Y-78885000D01*
X69250000Y-78885000D01*
G37*
G36*
X60732324Y-78610000D02*
X59732324Y-78610000D01*
X59732324Y-77615000D01*
X60732324Y-77615000D01*
X60732324Y-78610000D01*
X60732324Y-78610000D01*
G37*
G36*
X115596629Y-76892299D02*
X115756855Y-76940903D01*
X115904519Y-77019830D01*
X116033948Y-77126052D01*
X116140170Y-77255481D01*
X116219097Y-77403145D01*
X116267701Y-77563371D01*
X116284113Y-77730000D01*
X116267701Y-77896629D01*
X116219097Y-78056855D01*
X116140170Y-78204519D01*
X116033948Y-78333948D01*
X115904519Y-78440170D01*
X115756855Y-78519097D01*
X115596629Y-78567701D01*
X115471756Y-78580000D01*
X115388244Y-78580000D01*
X115263371Y-78567701D01*
X115103145Y-78519097D01*
X114955481Y-78440170D01*
X114826052Y-78333948D01*
X114719830Y-78204519D01*
X114640903Y-78056855D01*
X114592299Y-77896629D01*
X114575887Y-77730000D01*
X114592299Y-77563371D01*
X114640903Y-77403145D01*
X114719830Y-77255481D01*
X114826052Y-77126052D01*
X114955481Y-77019830D01*
X115103145Y-76940903D01*
X115263371Y-76892299D01*
X115388244Y-76880000D01*
X115471756Y-76880000D01*
X115596629Y-76892299D01*
X115596629Y-76892299D01*
G37*
G36*
X93420000Y-78580000D02*
X91720000Y-78580000D01*
X91720000Y-76880000D01*
X93420000Y-76880000D01*
X93420000Y-78580000D01*
X93420000Y-78580000D01*
G37*
G36*
X113056629Y-76892299D02*
X113216855Y-76940903D01*
X113364519Y-77019830D01*
X113493948Y-77126052D01*
X113600170Y-77255481D01*
X113679097Y-77403145D01*
X113727701Y-77563371D01*
X113744113Y-77730000D01*
X113727701Y-77896629D01*
X113679097Y-78056855D01*
X113600170Y-78204519D01*
X113493948Y-78333948D01*
X113364519Y-78440170D01*
X113216855Y-78519097D01*
X113056629Y-78567701D01*
X112931756Y-78580000D01*
X112848244Y-78580000D01*
X112723371Y-78567701D01*
X112563145Y-78519097D01*
X112415481Y-78440170D01*
X112286052Y-78333948D01*
X112179830Y-78204519D01*
X112100903Y-78056855D01*
X112052299Y-77896629D01*
X112035887Y-77730000D01*
X112052299Y-77563371D01*
X112100903Y-77403145D01*
X112179830Y-77255481D01*
X112286052Y-77126052D01*
X112415481Y-77019830D01*
X112563145Y-76940903D01*
X112723371Y-76892299D01*
X112848244Y-76880000D01*
X112931756Y-76880000D01*
X113056629Y-76892299D01*
X113056629Y-76892299D01*
G37*
G36*
X110516629Y-76892299D02*
X110676855Y-76940903D01*
X110824519Y-77019830D01*
X110953948Y-77126052D01*
X111060170Y-77255481D01*
X111139097Y-77403145D01*
X111187701Y-77563371D01*
X111204113Y-77730000D01*
X111187701Y-77896629D01*
X111139097Y-78056855D01*
X111060170Y-78204519D01*
X110953948Y-78333948D01*
X110824519Y-78440170D01*
X110676855Y-78519097D01*
X110516629Y-78567701D01*
X110391756Y-78580000D01*
X110308244Y-78580000D01*
X110183371Y-78567701D01*
X110023145Y-78519097D01*
X109875481Y-78440170D01*
X109746052Y-78333948D01*
X109639830Y-78204519D01*
X109560903Y-78056855D01*
X109512299Y-77896629D01*
X109495887Y-77730000D01*
X109512299Y-77563371D01*
X109560903Y-77403145D01*
X109639830Y-77255481D01*
X109746052Y-77126052D01*
X109875481Y-77019830D01*
X110023145Y-76940903D01*
X110183371Y-76892299D01*
X110308244Y-76880000D01*
X110391756Y-76880000D01*
X110516629Y-76892299D01*
X110516629Y-76892299D01*
G37*
G36*
X107976629Y-76892299D02*
X108136855Y-76940903D01*
X108284519Y-77019830D01*
X108413948Y-77126052D01*
X108520170Y-77255481D01*
X108599097Y-77403145D01*
X108647701Y-77563371D01*
X108664113Y-77730000D01*
X108647701Y-77896629D01*
X108599097Y-78056855D01*
X108520170Y-78204519D01*
X108413948Y-78333948D01*
X108284519Y-78440170D01*
X108136855Y-78519097D01*
X107976629Y-78567701D01*
X107851756Y-78580000D01*
X107768244Y-78580000D01*
X107643371Y-78567701D01*
X107483145Y-78519097D01*
X107335481Y-78440170D01*
X107206052Y-78333948D01*
X107099830Y-78204519D01*
X107020903Y-78056855D01*
X106972299Y-77896629D01*
X106955887Y-77730000D01*
X106972299Y-77563371D01*
X107020903Y-77403145D01*
X107099830Y-77255481D01*
X107206052Y-77126052D01*
X107335481Y-77019830D01*
X107483145Y-76940903D01*
X107643371Y-76892299D01*
X107768244Y-76880000D01*
X107851756Y-76880000D01*
X107976629Y-76892299D01*
X107976629Y-76892299D01*
G37*
G36*
X100356629Y-76892299D02*
X100516855Y-76940903D01*
X100664519Y-77019830D01*
X100793948Y-77126052D01*
X100900170Y-77255481D01*
X100979097Y-77403145D01*
X101027701Y-77563371D01*
X101044113Y-77730000D01*
X101027701Y-77896629D01*
X100979097Y-78056855D01*
X100900170Y-78204519D01*
X100793948Y-78333948D01*
X100664519Y-78440170D01*
X100516855Y-78519097D01*
X100356629Y-78567701D01*
X100231756Y-78580000D01*
X100148244Y-78580000D01*
X100023371Y-78567701D01*
X99863145Y-78519097D01*
X99715481Y-78440170D01*
X99586052Y-78333948D01*
X99479830Y-78204519D01*
X99400903Y-78056855D01*
X99352299Y-77896629D01*
X99335887Y-77730000D01*
X99352299Y-77563371D01*
X99400903Y-77403145D01*
X99479830Y-77255481D01*
X99586052Y-77126052D01*
X99715481Y-77019830D01*
X99863145Y-76940903D01*
X100023371Y-76892299D01*
X100148244Y-76880000D01*
X100231756Y-76880000D01*
X100356629Y-76892299D01*
X100356629Y-76892299D01*
G37*
G36*
X97816629Y-76892299D02*
X97976855Y-76940903D01*
X98124519Y-77019830D01*
X98253948Y-77126052D01*
X98360170Y-77255481D01*
X98439097Y-77403145D01*
X98487701Y-77563371D01*
X98504113Y-77730000D01*
X98487701Y-77896629D01*
X98439097Y-78056855D01*
X98360170Y-78204519D01*
X98253948Y-78333948D01*
X98124519Y-78440170D01*
X97976855Y-78519097D01*
X97816629Y-78567701D01*
X97691756Y-78580000D01*
X97608244Y-78580000D01*
X97483371Y-78567701D01*
X97323145Y-78519097D01*
X97175481Y-78440170D01*
X97046052Y-78333948D01*
X96939830Y-78204519D01*
X96860903Y-78056855D01*
X96812299Y-77896629D01*
X96795887Y-77730000D01*
X96812299Y-77563371D01*
X96860903Y-77403145D01*
X96939830Y-77255481D01*
X97046052Y-77126052D01*
X97175481Y-77019830D01*
X97323145Y-76940903D01*
X97483371Y-76892299D01*
X97608244Y-76880000D01*
X97691756Y-76880000D01*
X97816629Y-76892299D01*
X97816629Y-76892299D01*
G37*
G36*
X95276629Y-76892299D02*
X95436855Y-76940903D01*
X95584519Y-77019830D01*
X95713948Y-77126052D01*
X95820170Y-77255481D01*
X95899097Y-77403145D01*
X95947701Y-77563371D01*
X95964113Y-77730000D01*
X95947701Y-77896629D01*
X95899097Y-78056855D01*
X95820170Y-78204519D01*
X95713948Y-78333948D01*
X95584519Y-78440170D01*
X95436855Y-78519097D01*
X95276629Y-78567701D01*
X95151756Y-78580000D01*
X95068244Y-78580000D01*
X94943371Y-78567701D01*
X94783145Y-78519097D01*
X94635481Y-78440170D01*
X94506052Y-78333948D01*
X94399830Y-78204519D01*
X94320903Y-78056855D01*
X94272299Y-77896629D01*
X94255887Y-77730000D01*
X94272299Y-77563371D01*
X94320903Y-77403145D01*
X94399830Y-77255481D01*
X94506052Y-77126052D01*
X94635481Y-77019830D01*
X94783145Y-76940903D01*
X94943371Y-76892299D01*
X95068244Y-76880000D01*
X95151756Y-76880000D01*
X95276629Y-76892299D01*
X95276629Y-76892299D01*
G37*
G36*
X105436629Y-76892299D02*
X105596855Y-76940903D01*
X105744519Y-77019830D01*
X105873948Y-77126052D01*
X105980170Y-77255481D01*
X106059097Y-77403145D01*
X106107701Y-77563371D01*
X106124113Y-77730000D01*
X106107701Y-77896629D01*
X106059097Y-78056855D01*
X105980170Y-78204519D01*
X105873948Y-78333948D01*
X105744519Y-78440170D01*
X105596855Y-78519097D01*
X105436629Y-78567701D01*
X105311756Y-78580000D01*
X105228244Y-78580000D01*
X105103371Y-78567701D01*
X104943145Y-78519097D01*
X104795481Y-78440170D01*
X104666052Y-78333948D01*
X104559830Y-78204519D01*
X104480903Y-78056855D01*
X104432299Y-77896629D01*
X104415887Y-77730000D01*
X104432299Y-77563371D01*
X104480903Y-77403145D01*
X104559830Y-77255481D01*
X104666052Y-77126052D01*
X104795481Y-77019830D01*
X104943145Y-76940903D01*
X105103371Y-76892299D01*
X105228244Y-76880000D01*
X105311756Y-76880000D01*
X105436629Y-76892299D01*
X105436629Y-76892299D01*
G37*
G36*
X102896629Y-76892299D02*
X103056855Y-76940903D01*
X103204519Y-77019830D01*
X103333948Y-77126052D01*
X103440170Y-77255481D01*
X103519097Y-77403145D01*
X103567701Y-77563371D01*
X103584113Y-77730000D01*
X103567701Y-77896629D01*
X103519097Y-78056855D01*
X103440170Y-78204519D01*
X103333948Y-78333948D01*
X103204519Y-78440170D01*
X103056855Y-78519097D01*
X102896629Y-78567701D01*
X102771756Y-78580000D01*
X102688244Y-78580000D01*
X102563371Y-78567701D01*
X102403145Y-78519097D01*
X102255481Y-78440170D01*
X102126052Y-78333948D01*
X102019830Y-78204519D01*
X101940903Y-78056855D01*
X101892299Y-77896629D01*
X101875887Y-77730000D01*
X101892299Y-77563371D01*
X101940903Y-77403145D01*
X102019830Y-77255481D01*
X102126052Y-77126052D01*
X102255481Y-77019830D01*
X102403145Y-76940903D01*
X102563371Y-76892299D01*
X102688244Y-76880000D01*
X102771756Y-76880000D01*
X102896629Y-76892299D01*
X102896629Y-76892299D01*
G37*
G36*
X54933402Y-71922974D02*
X54933404Y-71922975D01*
X54933405Y-71922975D01*
X55515768Y-72164197D01*
X55515770Y-72164198D01*
X56039880Y-72514397D01*
X56485603Y-72960120D01*
X56835802Y-73484230D01*
X57077026Y-74066598D01*
X57200000Y-74684825D01*
X57200000Y-75315175D01*
X57077026Y-75933402D01*
X56835802Y-76515770D01*
X56485603Y-77039880D01*
X56039880Y-77485603D01*
X55515770Y-77835802D01*
X55515769Y-77835803D01*
X55515768Y-77835803D01*
X54933405Y-78077025D01*
X54933404Y-78077025D01*
X54933402Y-78077026D01*
X54315175Y-78200000D01*
X53684825Y-78200000D01*
X53066598Y-78077026D01*
X53066596Y-78077025D01*
X53066595Y-78077025D01*
X52484232Y-77835803D01*
X52484231Y-77835803D01*
X52484230Y-77835802D01*
X51960120Y-77485603D01*
X51514397Y-77039880D01*
X51164198Y-76515770D01*
X50922974Y-75933402D01*
X50800000Y-75315175D01*
X50800000Y-74684825D01*
X50922974Y-74066598D01*
X51164198Y-73484230D01*
X51514397Y-72960120D01*
X51960120Y-72514397D01*
X52484230Y-72164198D01*
X52484232Y-72164197D01*
X53066595Y-71922975D01*
X53066596Y-71922975D01*
X53066598Y-71922974D01*
X53684825Y-71800000D01*
X54315175Y-71800000D01*
X54933402Y-71922974D01*
X54933402Y-71922974D01*
G37*
G36*
X126933402Y-71922974D02*
X126933404Y-71922975D01*
X126933405Y-71922975D01*
X127515768Y-72164197D01*
X127515770Y-72164198D01*
X128039880Y-72514397D01*
X128485603Y-72960120D01*
X128835802Y-73484230D01*
X129077026Y-74066598D01*
X129200000Y-74684825D01*
X129200000Y-75315175D01*
X129077026Y-75933402D01*
X128835802Y-76515770D01*
X128485603Y-77039880D01*
X128039880Y-77485603D01*
X127515770Y-77835802D01*
X127515769Y-77835803D01*
X127515768Y-77835803D01*
X126933405Y-78077025D01*
X126933404Y-78077025D01*
X126933402Y-78077026D01*
X126315175Y-78200000D01*
X125684825Y-78200000D01*
X125066598Y-78077026D01*
X125066596Y-78077025D01*
X125066595Y-78077025D01*
X124484232Y-77835803D01*
X124484231Y-77835803D01*
X124484230Y-77835802D01*
X123960120Y-77485603D01*
X123514397Y-77039880D01*
X123164198Y-76515770D01*
X122922974Y-75933402D01*
X122800000Y-75315175D01*
X122800000Y-74684825D01*
X122922974Y-74066598D01*
X123164198Y-73484230D01*
X123514397Y-72960120D01*
X123960120Y-72514397D01*
X124484230Y-72164198D01*
X124484232Y-72164197D01*
X125066595Y-71922975D01*
X125066596Y-71922975D01*
X125066598Y-71922974D01*
X125684825Y-71800000D01*
X126315175Y-71800000D01*
X126933402Y-71922974D01*
X126933402Y-71922974D01*
G37*
G36*
X73941581Y-77480000D02*
X73541581Y-77480000D01*
X73541581Y-76220000D01*
X73941581Y-76220000D01*
X73941581Y-77480000D01*
X73941581Y-77480000D01*
G37*
G36*
X73291581Y-77480000D02*
X72891581Y-77480000D01*
X72891581Y-76220000D01*
X73291581Y-76220000D01*
X73291581Y-77480000D01*
X73291581Y-77480000D01*
G37*
G36*
X72641581Y-77480000D02*
X72241581Y-77480000D01*
X72241581Y-76220000D01*
X72641581Y-76220000D01*
X72641581Y-77480000D01*
X72641581Y-77480000D01*
G37*
G36*
X71991581Y-77480000D02*
X71591581Y-77480000D01*
X71591581Y-76220000D01*
X71991581Y-76220000D01*
X71991581Y-77480000D01*
X71991581Y-77480000D01*
G37*
G36*
X69250000Y-77110000D02*
X68250000Y-77110000D01*
X68250000Y-76115000D01*
X69250000Y-76115000D01*
X69250000Y-77110000D01*
X69250000Y-77110000D01*
G37*
G36*
X67250000Y-77110000D02*
X66250000Y-77110000D01*
X66250000Y-76115000D01*
X67250000Y-76115000D01*
X67250000Y-77110000D01*
X67250000Y-77110000D01*
G37*
G36*
X115596629Y-74352299D02*
X115756855Y-74400903D01*
X115904519Y-74479830D01*
X116033948Y-74586052D01*
X116140170Y-74715481D01*
X116219097Y-74863145D01*
X116267701Y-75023371D01*
X116284113Y-75190000D01*
X116267701Y-75356629D01*
X116219097Y-75516855D01*
X116140170Y-75664519D01*
X116033948Y-75793948D01*
X115904519Y-75900170D01*
X115756855Y-75979097D01*
X115596629Y-76027701D01*
X115471756Y-76040000D01*
X115388244Y-76040000D01*
X115263371Y-76027701D01*
X115103145Y-75979097D01*
X114955481Y-75900170D01*
X114826052Y-75793948D01*
X114719830Y-75664519D01*
X114640903Y-75516855D01*
X114592299Y-75356629D01*
X114575887Y-75190000D01*
X114592299Y-75023371D01*
X114640903Y-74863145D01*
X114719830Y-74715481D01*
X114826052Y-74586052D01*
X114955481Y-74479830D01*
X115103145Y-74400903D01*
X115263371Y-74352299D01*
X115388244Y-74340000D01*
X115471756Y-74340000D01*
X115596629Y-74352299D01*
X115596629Y-74352299D01*
G37*
G36*
X100356629Y-74352299D02*
X100516855Y-74400903D01*
X100664519Y-74479830D01*
X100793948Y-74586052D01*
X100900170Y-74715481D01*
X100979097Y-74863145D01*
X101027701Y-75023371D01*
X101044113Y-75190000D01*
X101027701Y-75356629D01*
X100979097Y-75516855D01*
X100900170Y-75664519D01*
X100793948Y-75793948D01*
X100664519Y-75900170D01*
X100516855Y-75979097D01*
X100356629Y-76027701D01*
X100231756Y-76040000D01*
X100148244Y-76040000D01*
X100023371Y-76027701D01*
X99863145Y-75979097D01*
X99715481Y-75900170D01*
X99586052Y-75793948D01*
X99479830Y-75664519D01*
X99400903Y-75516855D01*
X99352299Y-75356629D01*
X99335887Y-75190000D01*
X99352299Y-75023371D01*
X99400903Y-74863145D01*
X99479830Y-74715481D01*
X99586052Y-74586052D01*
X99715481Y-74479830D01*
X99863145Y-74400903D01*
X100023371Y-74352299D01*
X100148244Y-74340000D01*
X100231756Y-74340000D01*
X100356629Y-74352299D01*
X100356629Y-74352299D01*
G37*
G36*
X97816629Y-74352299D02*
X97976855Y-74400903D01*
X98124519Y-74479830D01*
X98253948Y-74586052D01*
X98360170Y-74715481D01*
X98439097Y-74863145D01*
X98487701Y-75023371D01*
X98504113Y-75190000D01*
X98487701Y-75356629D01*
X98439097Y-75516855D01*
X98360170Y-75664519D01*
X98253948Y-75793948D01*
X98124519Y-75900170D01*
X97976855Y-75979097D01*
X97816629Y-76027701D01*
X97691756Y-76040000D01*
X97608244Y-76040000D01*
X97483371Y-76027701D01*
X97323145Y-75979097D01*
X97175481Y-75900170D01*
X97046052Y-75793948D01*
X96939830Y-75664519D01*
X96860903Y-75516855D01*
X96812299Y-75356629D01*
X96795887Y-75190000D01*
X96812299Y-75023371D01*
X96860903Y-74863145D01*
X96939830Y-74715481D01*
X97046052Y-74586052D01*
X97175481Y-74479830D01*
X97323145Y-74400903D01*
X97483371Y-74352299D01*
X97608244Y-74340000D01*
X97691756Y-74340000D01*
X97816629Y-74352299D01*
X97816629Y-74352299D01*
G37*
G36*
X102896629Y-74352299D02*
X103056855Y-74400903D01*
X103204519Y-74479830D01*
X103333948Y-74586052D01*
X103440170Y-74715481D01*
X103519097Y-74863145D01*
X103567701Y-75023371D01*
X103584113Y-75190000D01*
X103567701Y-75356629D01*
X103519097Y-75516855D01*
X103440170Y-75664519D01*
X103333948Y-75793948D01*
X103204519Y-75900170D01*
X103056855Y-75979097D01*
X102896629Y-76027701D01*
X102771756Y-76040000D01*
X102688244Y-76040000D01*
X102563371Y-76027701D01*
X102403145Y-75979097D01*
X102255481Y-75900170D01*
X102126052Y-75793948D01*
X102019830Y-75664519D01*
X101940903Y-75516855D01*
X101892299Y-75356629D01*
X101875887Y-75190000D01*
X101892299Y-75023371D01*
X101940903Y-74863145D01*
X102019830Y-74715481D01*
X102126052Y-74586052D01*
X102255481Y-74479830D01*
X102403145Y-74400903D01*
X102563371Y-74352299D01*
X102688244Y-74340000D01*
X102771756Y-74340000D01*
X102896629Y-74352299D01*
X102896629Y-74352299D01*
G37*
G36*
X105436629Y-74352299D02*
X105596855Y-74400903D01*
X105744519Y-74479830D01*
X105873948Y-74586052D01*
X105980170Y-74715481D01*
X106059097Y-74863145D01*
X106107701Y-75023371D01*
X106124113Y-75190000D01*
X106107701Y-75356629D01*
X106059097Y-75516855D01*
X105980170Y-75664519D01*
X105873948Y-75793948D01*
X105744519Y-75900170D01*
X105596855Y-75979097D01*
X105436629Y-76027701D01*
X105311756Y-76040000D01*
X105228244Y-76040000D01*
X105103371Y-76027701D01*
X104943145Y-75979097D01*
X104795481Y-75900170D01*
X104666052Y-75793948D01*
X104559830Y-75664519D01*
X104480903Y-75516855D01*
X104432299Y-75356629D01*
X104415887Y-75190000D01*
X104432299Y-75023371D01*
X104480903Y-74863145D01*
X104559830Y-74715481D01*
X104666052Y-74586052D01*
X104795481Y-74479830D01*
X104943145Y-74400903D01*
X105103371Y-74352299D01*
X105228244Y-74340000D01*
X105311756Y-74340000D01*
X105436629Y-74352299D01*
X105436629Y-74352299D01*
G37*
G36*
X95276629Y-74352299D02*
X95436855Y-74400903D01*
X95584519Y-74479830D01*
X95713948Y-74586052D01*
X95820170Y-74715481D01*
X95899097Y-74863145D01*
X95947701Y-75023371D01*
X95964113Y-75190000D01*
X95947701Y-75356629D01*
X95899097Y-75516855D01*
X95820170Y-75664519D01*
X95713948Y-75793948D01*
X95584519Y-75900170D01*
X95436855Y-75979097D01*
X95276629Y-76027701D01*
X95151756Y-76040000D01*
X95068244Y-76040000D01*
X94943371Y-76027701D01*
X94783145Y-75979097D01*
X94635481Y-75900170D01*
X94506052Y-75793948D01*
X94399830Y-75664519D01*
X94320903Y-75516855D01*
X94272299Y-75356629D01*
X94255887Y-75190000D01*
X94272299Y-75023371D01*
X94320903Y-74863145D01*
X94399830Y-74715481D01*
X94506052Y-74586052D01*
X94635481Y-74479830D01*
X94783145Y-74400903D01*
X94943371Y-74352299D01*
X95068244Y-74340000D01*
X95151756Y-74340000D01*
X95276629Y-74352299D01*
X95276629Y-74352299D01*
G37*
G36*
X92736629Y-74352299D02*
X92896855Y-74400903D01*
X93044519Y-74479830D01*
X93173948Y-74586052D01*
X93280170Y-74715481D01*
X93359097Y-74863145D01*
X93407701Y-75023371D01*
X93424113Y-75190000D01*
X93407701Y-75356629D01*
X93359097Y-75516855D01*
X93280170Y-75664519D01*
X93173948Y-75793948D01*
X93044519Y-75900170D01*
X92896855Y-75979097D01*
X92736629Y-76027701D01*
X92611756Y-76040000D01*
X92528244Y-76040000D01*
X92403371Y-76027701D01*
X92243145Y-75979097D01*
X92095481Y-75900170D01*
X91966052Y-75793948D01*
X91859830Y-75664519D01*
X91780903Y-75516855D01*
X91732299Y-75356629D01*
X91715887Y-75190000D01*
X91732299Y-75023371D01*
X91780903Y-74863145D01*
X91859830Y-74715481D01*
X91966052Y-74586052D01*
X92095481Y-74479830D01*
X92243145Y-74400903D01*
X92403371Y-74352299D01*
X92528244Y-74340000D01*
X92611756Y-74340000D01*
X92736629Y-74352299D01*
X92736629Y-74352299D01*
G37*
G36*
X107976629Y-74352299D02*
X108136855Y-74400903D01*
X108284519Y-74479830D01*
X108413948Y-74586052D01*
X108520170Y-74715481D01*
X108599097Y-74863145D01*
X108647701Y-75023371D01*
X108664113Y-75190000D01*
X108647701Y-75356629D01*
X108599097Y-75516855D01*
X108520170Y-75664519D01*
X108413948Y-75793948D01*
X108284519Y-75900170D01*
X108136855Y-75979097D01*
X107976629Y-76027701D01*
X107851756Y-76040000D01*
X107768244Y-76040000D01*
X107643371Y-76027701D01*
X107483145Y-75979097D01*
X107335481Y-75900170D01*
X107206052Y-75793948D01*
X107099830Y-75664519D01*
X107020903Y-75516855D01*
X106972299Y-75356629D01*
X106955887Y-75190000D01*
X106972299Y-75023371D01*
X107020903Y-74863145D01*
X107099830Y-74715481D01*
X107206052Y-74586052D01*
X107335481Y-74479830D01*
X107483145Y-74400903D01*
X107643371Y-74352299D01*
X107768244Y-74340000D01*
X107851756Y-74340000D01*
X107976629Y-74352299D01*
X107976629Y-74352299D01*
G37*
G36*
X110516629Y-74352299D02*
X110676855Y-74400903D01*
X110824519Y-74479830D01*
X110953948Y-74586052D01*
X111060170Y-74715481D01*
X111139097Y-74863145D01*
X111187701Y-75023371D01*
X111204113Y-75190000D01*
X111187701Y-75356629D01*
X111139097Y-75516855D01*
X111060170Y-75664519D01*
X110953948Y-75793948D01*
X110824519Y-75900170D01*
X110676855Y-75979097D01*
X110516629Y-76027701D01*
X110391756Y-76040000D01*
X110308244Y-76040000D01*
X110183371Y-76027701D01*
X110023145Y-75979097D01*
X109875481Y-75900170D01*
X109746052Y-75793948D01*
X109639830Y-75664519D01*
X109560903Y-75516855D01*
X109512299Y-75356629D01*
X109495887Y-75190000D01*
X109512299Y-75023371D01*
X109560903Y-74863145D01*
X109639830Y-74715481D01*
X109746052Y-74586052D01*
X109875481Y-74479830D01*
X110023145Y-74400903D01*
X110183371Y-74352299D01*
X110308244Y-74340000D01*
X110391756Y-74340000D01*
X110516629Y-74352299D01*
X110516629Y-74352299D01*
G37*
G36*
X113056629Y-74352299D02*
X113216855Y-74400903D01*
X113364519Y-74479830D01*
X113493948Y-74586052D01*
X113600170Y-74715481D01*
X113679097Y-74863145D01*
X113727701Y-75023371D01*
X113744113Y-75190000D01*
X113727701Y-75356629D01*
X113679097Y-75516855D01*
X113600170Y-75664519D01*
X113493948Y-75793948D01*
X113364519Y-75900170D01*
X113216855Y-75979097D01*
X113056629Y-76027701D01*
X112931756Y-76040000D01*
X112848244Y-76040000D01*
X112723371Y-76027701D01*
X112563145Y-75979097D01*
X112415481Y-75900170D01*
X112286052Y-75793948D01*
X112179830Y-75664519D01*
X112100903Y-75516855D01*
X112052299Y-75356629D01*
X112035887Y-75190000D01*
X112052299Y-75023371D01*
X112100903Y-74863145D01*
X112179830Y-74715481D01*
X112286052Y-74586052D01*
X112415481Y-74479830D01*
X112563145Y-74400903D01*
X112723371Y-74352299D01*
X112848244Y-74340000D01*
X112931756Y-74340000D01*
X113056629Y-74352299D01*
X113056629Y-74352299D01*
G37*
G36*
X119968763Y-74278821D02*
X119968764Y-74278821D01*
X119968767Y-74278822D01*
X120105258Y-74335359D01*
X120105260Y-74335360D01*
X120203352Y-74400903D01*
X120228097Y-74417437D01*
X120332563Y-74521903D01*
X120414641Y-74644742D01*
X120471178Y-74781233D01*
X120471179Y-74781236D01*
X120471179Y-74781237D01*
X120487472Y-74863145D01*
X120500000Y-74926131D01*
X120500000Y-75073869D01*
X120471178Y-75218767D01*
X120431245Y-75315172D01*
X120414640Y-75355260D01*
X120332564Y-75478096D01*
X120228096Y-75582564D01*
X120105260Y-75664640D01*
X120105259Y-75664641D01*
X120105258Y-75664641D01*
X119968767Y-75721178D01*
X119968764Y-75721179D01*
X119968763Y-75721179D01*
X119823871Y-75750000D01*
X119676129Y-75750000D01*
X119531237Y-75721179D01*
X119531236Y-75721179D01*
X119531233Y-75721178D01*
X119394742Y-75664641D01*
X119394741Y-75664641D01*
X119394740Y-75664640D01*
X119271904Y-75582564D01*
X119167436Y-75478096D01*
X119085360Y-75355260D01*
X119068755Y-75315172D01*
X119028822Y-75218767D01*
X119000000Y-75073869D01*
X119000000Y-74926131D01*
X119012529Y-74863145D01*
X119028821Y-74781237D01*
X119028821Y-74781236D01*
X119028822Y-74781233D01*
X119085359Y-74644742D01*
X119167437Y-74521903D01*
X119271903Y-74417437D01*
X119296648Y-74400903D01*
X119394740Y-74335360D01*
X119394742Y-74335359D01*
X119531233Y-74278822D01*
X119531236Y-74278821D01*
X119531237Y-74278821D01*
X119676129Y-74250000D01*
X119823871Y-74250000D01*
X119968763Y-74278821D01*
X119968763Y-74278821D01*
G37*
G36*
X72360000Y-75500000D02*
X71365000Y-75500000D01*
X71365000Y-74500000D01*
X72360000Y-74500000D01*
X72360000Y-75500000D01*
X72360000Y-75500000D01*
G37*
G36*
X74135000Y-75500000D02*
X73140000Y-75500000D01*
X73140000Y-74500000D01*
X74135000Y-74500000D01*
X74135000Y-75500000D01*
X74135000Y-75500000D01*
G37*
M02*
