G04 #@! TF.GenerationSoftware,KiCad,Pcbnew,7.0.7+dfsg-1*
G04 #@! TF.CreationDate,2023-10-06T03:56:53+00:00*
G04 #@! TF.ProjectId,glasgow,676c6173-676f-4772-9e6b-696361645f70,C3*
G04 #@! TF.SameCoordinates,Original*
G04 #@! TF.FileFunction,Copper,L4,Bot*
G04 #@! TF.FilePolarity,Positive*
%FSLAX46Y46*%
G04 Gerber Fmt 4.6, Leading zero omitted, Abs format (unit mm)*
G04 Created by KiCad (PCBNEW 7.0.7+dfsg-1) date 2023-10-06 03:56:53*
%MOMM*%
%LPD*%
G01*
G04 APERTURE LIST*
G04 Aperture macros list*
%AMRoundRect*
0 Rectangle with rounded corners*
0 $1 Rounding radius*
0 $2 $3 $4 $5 $6 $7 $8 $9 X,Y pos of 4 corners*
0 Add a 4 corners polygon primitive as box body*
4,1,4,$2,$3,$4,$5,$6,$7,$8,$9,$2,$3,0*
0 Add four circle primitives for the rounded corners*
1,1,$1+$1,$2,$3*
1,1,$1+$1,$4,$5*
1,1,$1+$1,$6,$7*
1,1,$1+$1,$8,$9*
0 Add four rect primitives between the rounded corners*
20,1,$1+$1,$2,$3,$4,$5,0*
20,1,$1+$1,$4,$5,$6,$7,0*
20,1,$1+$1,$6,$7,$8,$9,0*
20,1,$1+$1,$8,$9,$2,$3,0*%
G04 Aperture macros list end*
G04 #@! TA.AperFunction,ComponentPad*
%ADD10C,0.600000*%
G04 #@! TD*
G04 #@! TA.AperFunction,SMDPad,CuDef*
%ADD11R,6.100000X6.100000*%
G04 #@! TD*
G04 #@! TA.AperFunction,ComponentPad*
%ADD12C,1.000000*%
G04 #@! TD*
G04 #@! TA.AperFunction,ComponentPad*
%ADD13O,1.000000X1.000000*%
G04 #@! TD*
G04 #@! TA.AperFunction,ComponentPad*
%ADD14RoundRect,0.425000X0.425000X0.425000X-0.425000X0.425000X-0.425000X-0.425000X0.425000X-0.425000X0*%
G04 #@! TD*
G04 #@! TA.AperFunction,ComponentPad*
%ADD15O,1.700000X1.700000*%
G04 #@! TD*
G04 #@! TA.AperFunction,ComponentPad*
%ADD16C,0.800000*%
G04 #@! TD*
G04 #@! TA.AperFunction,ComponentPad*
%ADD17C,7.000000*%
G04 #@! TD*
G04 #@! TA.AperFunction,ComponentPad*
%ADD18RoundRect,0.250000X0.600000X-0.600000X0.600000X0.600000X-0.600000X0.600000X-0.600000X-0.600000X0*%
G04 #@! TD*
G04 #@! TA.AperFunction,ComponentPad*
%ADD19C,1.700000*%
G04 #@! TD*
G04 #@! TA.AperFunction,ComponentPad*
%ADD20O,2.100000X1.000000*%
G04 #@! TD*
G04 #@! TA.AperFunction,ComponentPad*
%ADD21O,1.600000X1.000000*%
G04 #@! TD*
G04 #@! TA.AperFunction,ComponentPad*
%ADD22RoundRect,0.249999X0.620001X0.850001X-0.620001X0.850001X-0.620001X-0.850001X0.620001X-0.850001X0*%
G04 #@! TD*
G04 #@! TA.AperFunction,ComponentPad*
%ADD23O,1.740000X2.200000*%
G04 #@! TD*
G04 #@! TA.AperFunction,ComponentPad*
%ADD24C,0.500000*%
G04 #@! TD*
G04 #@! TA.AperFunction,SMDPad,CuDef*
%ADD25RoundRect,0.050000X0.450000X0.750000X-0.450000X0.750000X-0.450000X-0.750000X0.450000X-0.750000X0*%
G04 #@! TD*
G04 #@! TA.AperFunction,ComponentPad*
%ADD26RoundRect,0.250000X-0.600000X0.600000X-0.600000X-0.600000X0.600000X-0.600000X0.600000X0.600000X0*%
G04 #@! TD*
G04 #@! TA.AperFunction,ComponentPad*
%ADD27C,1.200000*%
G04 #@! TD*
G04 #@! TA.AperFunction,SMDPad,CuDef*
%ADD28C,0.750000*%
G04 #@! TD*
G04 #@! TA.AperFunction,SMDPad,CuDef*
%ADD29RoundRect,0.147500X0.147500X0.172500X-0.147500X0.172500X-0.147500X-0.172500X0.147500X-0.172500X0*%
G04 #@! TD*
G04 #@! TA.AperFunction,SMDPad,CuDef*
%ADD30RoundRect,0.147500X0.172500X-0.147500X0.172500X0.147500X-0.172500X0.147500X-0.172500X-0.147500X0*%
G04 #@! TD*
G04 #@! TA.AperFunction,SMDPad,CuDef*
%ADD31RoundRect,0.147500X-0.172500X0.147500X-0.172500X-0.147500X0.172500X-0.147500X0.172500X0.147500X0*%
G04 #@! TD*
G04 #@! TA.AperFunction,SMDPad,CuDef*
%ADD32RoundRect,0.147500X-0.147500X-0.172500X0.147500X-0.172500X0.147500X0.172500X-0.147500X0.172500X0*%
G04 #@! TD*
G04 #@! TA.AperFunction,SMDPad,CuDef*
%ADD33RoundRect,0.218750X0.218750X0.256250X-0.218750X0.256250X-0.218750X-0.256250X0.218750X-0.256250X0*%
G04 #@! TD*
G04 #@! TA.AperFunction,SMDPad,CuDef*
%ADD34RoundRect,0.218750X-0.218750X-0.256250X0.218750X-0.256250X0.218750X0.256250X-0.218750X0.256250X0*%
G04 #@! TD*
G04 #@! TA.AperFunction,SMDPad,CuDef*
%ADD35C,1.000000*%
G04 #@! TD*
G04 #@! TA.AperFunction,SMDPad,CuDef*
%ADD36RoundRect,0.218750X0.256250X-0.218750X0.256250X0.218750X-0.256250X0.218750X-0.256250X-0.218750X0*%
G04 #@! TD*
G04 #@! TA.AperFunction,SMDPad,CuDef*
%ADD37RoundRect,0.218750X-0.256250X0.218750X-0.256250X-0.218750X0.256250X-0.218750X0.256250X0.218750X0*%
G04 #@! TD*
G04 #@! TA.AperFunction,ViaPad*
%ADD38C,0.600000*%
G04 #@! TD*
G04 #@! TA.AperFunction,ViaPad*
%ADD39C,0.400000*%
G04 #@! TD*
G04 #@! TA.AperFunction,ViaPad*
%ADD40C,0.500000*%
G04 #@! TD*
G04 #@! TA.AperFunction,Conductor*
%ADD41C,0.150000*%
G04 #@! TD*
G04 #@! TA.AperFunction,Conductor*
%ADD42C,0.250000*%
G04 #@! TD*
G04 #@! TA.AperFunction,Conductor*
%ADD43C,0.450000*%
G04 #@! TD*
G04 #@! TA.AperFunction,Conductor*
%ADD44C,0.190000*%
G04 #@! TD*
G04 #@! TA.AperFunction,Conductor*
%ADD45C,0.750000*%
G04 #@! TD*
G04 APERTURE END LIST*
D10*
X67310000Y-92960000D03*
X67310000Y-94230000D03*
X67310000Y-95500000D03*
X67310000Y-96770000D03*
X67310000Y-98040000D03*
X68580000Y-92960000D03*
X68580000Y-94230000D03*
X68580000Y-95500000D03*
X68580000Y-96770000D03*
X68580000Y-98040000D03*
X69850000Y-92960000D03*
X69850000Y-94230000D03*
X69850000Y-95500000D03*
D11*
X69850000Y-95500000D03*
D10*
X69850000Y-96770000D03*
X69850000Y-98040000D03*
X71120000Y-92960000D03*
X71120000Y-94230000D03*
X71120000Y-95500000D03*
X71120000Y-96770000D03*
X71120000Y-98040000D03*
X72390000Y-92960000D03*
X72390000Y-94230000D03*
X72390000Y-95500000D03*
X72390000Y-96770000D03*
X72390000Y-98040000D03*
D12*
X107800000Y-87600000D03*
D13*
X109070000Y-87600000D03*
X110340000Y-87600000D03*
X111610000Y-87600000D03*
X112880000Y-87600000D03*
X114150000Y-87600000D03*
X115420000Y-87600000D03*
X116690000Y-87600000D03*
D12*
X116700000Y-108500000D03*
D13*
X115430000Y-108500000D03*
X114160000Y-108500000D03*
X112890000Y-108500000D03*
X111620000Y-108500000D03*
X110350000Y-108500000D03*
X109080000Y-108500000D03*
X107810000Y-108500000D03*
D12*
X116700000Y-103420000D03*
D13*
X115430000Y-103420000D03*
X114160000Y-103420000D03*
X112890000Y-103420000D03*
X111620000Y-103420000D03*
X110350000Y-103420000D03*
X109080000Y-103420000D03*
X107810000Y-103420000D03*
D14*
X105270000Y-98040000D03*
D15*
X105270000Y-95500000D03*
X105270000Y-92960000D03*
D16*
X51375000Y-116000000D03*
X52143845Y-114143845D03*
X52143845Y-117856155D03*
X54000000Y-113375000D03*
D17*
X54000000Y-116000000D03*
D16*
X54000000Y-118625000D03*
X55856155Y-114143845D03*
X55856155Y-117856155D03*
X56625000Y-116000000D03*
X51375000Y-75000000D03*
X52143845Y-73143845D03*
X52143845Y-76856155D03*
X54000000Y-72375000D03*
D17*
X54000000Y-75000000D03*
D16*
X54000000Y-77625000D03*
X55856155Y-73143845D03*
X55856155Y-76856155D03*
X56625000Y-75000000D03*
X123375000Y-116000000D03*
X124143845Y-114143845D03*
X124143845Y-117856155D03*
X126000000Y-113375000D03*
D17*
X126000000Y-116000000D03*
D16*
X126000000Y-118625000D03*
X127856155Y-114143845D03*
X127856155Y-117856155D03*
X128625000Y-116000000D03*
X123375000Y-75000000D03*
X124143845Y-73143845D03*
X124143845Y-76856155D03*
X126000000Y-72375000D03*
D17*
X126000000Y-75000000D03*
D16*
X126000000Y-77625000D03*
X127856155Y-73143845D03*
X127856155Y-76856155D03*
X128625000Y-75000000D03*
D12*
X107800000Y-82500000D03*
D13*
X109070000Y-82500000D03*
X110340000Y-82500000D03*
X111610000Y-82500000D03*
X112880000Y-82500000D03*
X114150000Y-82500000D03*
X115420000Y-82500000D03*
X116690000Y-82500000D03*
D18*
X92570000Y-77720000D03*
D19*
X92570000Y-75180000D03*
X95110000Y-77720000D03*
X95110000Y-75180000D03*
X97650000Y-77720000D03*
X97650000Y-75180000D03*
X100190000Y-77720000D03*
X100190000Y-75180000D03*
X102730000Y-77720000D03*
X102730000Y-75180000D03*
X105270000Y-77720000D03*
X105270000Y-75180000D03*
X107810000Y-77720000D03*
X107810000Y-75180000D03*
X110350000Y-77720000D03*
X110350000Y-75180000D03*
X112890000Y-77720000D03*
X112890000Y-75180000D03*
X115430000Y-77720000D03*
X115430000Y-75180000D03*
D20*
X55780000Y-91180000D03*
D21*
X51600000Y-91180000D03*
D20*
X55780000Y-99820000D03*
D21*
X51600000Y-99820000D03*
D22*
X84100000Y-108400000D03*
D23*
X81560000Y-108400000D03*
D24*
X65900000Y-115550000D03*
D25*
X65900000Y-115000000D03*
D24*
X65900000Y-114450000D03*
X65900000Y-110450000D03*
D25*
X65900000Y-109900000D03*
D24*
X65900000Y-109350000D03*
D26*
X115430000Y-113280000D03*
D19*
X115430000Y-115820000D03*
X112890000Y-113280000D03*
X112890000Y-115820000D03*
X110350000Y-113280000D03*
X110350000Y-115820000D03*
X107810000Y-113280000D03*
X107810000Y-115820000D03*
X105270000Y-113280000D03*
X105270000Y-115820000D03*
X102730000Y-113280000D03*
X102730000Y-115820000D03*
X100190000Y-113280000D03*
X100190000Y-115820000D03*
X97650000Y-113280000D03*
X97650000Y-115820000D03*
X95110000Y-113280000D03*
X95110000Y-115820000D03*
X92570000Y-113280000D03*
X92570000Y-115820000D03*
D27*
X76150000Y-117380000D03*
X73150000Y-117380000D03*
X74650000Y-119230000D03*
D28*
X58000000Y-118500000D03*
X122000000Y-72500000D03*
D29*
X84185000Y-96700000D03*
X83215000Y-96700000D03*
D30*
X84900000Y-95985000D03*
X84900000Y-95015000D03*
D31*
X99150000Y-93265000D03*
X99150000Y-94235000D03*
X101050000Y-84865000D03*
X101050000Y-85835000D03*
X101050000Y-93265000D03*
X101050000Y-94235000D03*
X97050000Y-96015000D03*
X97050000Y-96985000D03*
X97050000Y-90465000D03*
X97050000Y-91435000D03*
X99150000Y-96065000D03*
X99150000Y-97035000D03*
X99150000Y-98865000D03*
X99150000Y-99835000D03*
X99150000Y-101665000D03*
X99150000Y-102635000D03*
X99150000Y-104465000D03*
X99150000Y-105435000D03*
X101050000Y-96065000D03*
X101050000Y-97035000D03*
X101050000Y-98865000D03*
X101050000Y-99835000D03*
X101050000Y-101665000D03*
X101050000Y-102635000D03*
D32*
X81615000Y-97500000D03*
X82585000Y-97500000D03*
D29*
X84185000Y-94300000D03*
X83215000Y-94300000D03*
X80300000Y-94900000D03*
X79330000Y-94900000D03*
X78385000Y-97600000D03*
X77415000Y-97600000D03*
D33*
X79387500Y-96400000D03*
X77812500Y-96400000D03*
D32*
X84815000Y-93500000D03*
X85785000Y-93500000D03*
X66815000Y-91550000D03*
X67785000Y-91550000D03*
D29*
X72585000Y-99450000D03*
X71615000Y-99450000D03*
D31*
X65900000Y-93280000D03*
X65900000Y-94250000D03*
D32*
X67615000Y-99450000D03*
X68585000Y-99450000D03*
D29*
X72985000Y-91550000D03*
X72015000Y-91550000D03*
D34*
X64612500Y-99500000D03*
X66187500Y-99500000D03*
D31*
X65900000Y-97265000D03*
X65900000Y-98235000D03*
X65900000Y-95265000D03*
X65900000Y-96235000D03*
X73800000Y-97280000D03*
X73800000Y-98250000D03*
D30*
X80050000Y-99985000D03*
X80050000Y-99015000D03*
X89850000Y-96235000D03*
X89850000Y-95265000D03*
D31*
X97050000Y-84865000D03*
X97050000Y-85835000D03*
X95150000Y-84865000D03*
X95150000Y-85835000D03*
X95150000Y-96015000D03*
X95150000Y-96985000D03*
X97050000Y-98865000D03*
X97050000Y-99835000D03*
X95150000Y-98865000D03*
X95150000Y-99835000D03*
X95150000Y-101665000D03*
X95150000Y-102635000D03*
X97050000Y-101665000D03*
X97050000Y-102635000D03*
X95150000Y-104465000D03*
X95150000Y-105435000D03*
X97050000Y-104465000D03*
X97050000Y-105435000D03*
X95150000Y-87665000D03*
X95150000Y-88635000D03*
X95150000Y-93265000D03*
X95150000Y-94235000D03*
X95150000Y-90465000D03*
X95150000Y-91435000D03*
X81700000Y-94215000D03*
X81700000Y-95185000D03*
X99150000Y-84865000D03*
X99150000Y-85835000D03*
X99150000Y-87665000D03*
X99150000Y-88635000D03*
X99150000Y-90465000D03*
X99150000Y-91435000D03*
X97050000Y-93265000D03*
X97050000Y-94235000D03*
D28*
X122000000Y-118500000D03*
D34*
X85112500Y-100000000D03*
X86687500Y-100000000D03*
D35*
X88300000Y-111000000D03*
X88300000Y-113500000D03*
X88300000Y-116000000D03*
X81500000Y-116000000D03*
X81500000Y-111000000D03*
X55500000Y-94250000D03*
X57900000Y-96800000D03*
X57900000Y-94700000D03*
X55500000Y-96300000D03*
D36*
X88400000Y-96287500D03*
X88400000Y-94712500D03*
D31*
X89800000Y-98765000D03*
X89800000Y-99735000D03*
D30*
X85700000Y-95285000D03*
X85700000Y-94315000D03*
X87200000Y-95985000D03*
X87200000Y-95015000D03*
D35*
X70650000Y-111200000D03*
D37*
X124050000Y-102612500D03*
X124050000Y-104187500D03*
D36*
X122550000Y-88387500D03*
X122550000Y-86812500D03*
D35*
X122000000Y-99800000D03*
X124600000Y-91200000D03*
D31*
X101050000Y-104465000D03*
X101050000Y-105435000D03*
X101050000Y-90465000D03*
X101050000Y-91435000D03*
X97050000Y-87665000D03*
X97050000Y-88635000D03*
X101050000Y-87665000D03*
X101050000Y-88635000D03*
D29*
X123785000Y-107800000D03*
X122815000Y-107800000D03*
D32*
X122815000Y-83200000D03*
X123785000Y-83200000D03*
D31*
X123800000Y-105415000D03*
X123800000Y-106385000D03*
D30*
X122800000Y-85585000D03*
X122800000Y-84615000D03*
D37*
X125950000Y-99812500D03*
X125950000Y-101387500D03*
X124050000Y-99812500D03*
X124050000Y-101387500D03*
D36*
X120650000Y-91187500D03*
X120650000Y-89612500D03*
X122550000Y-91187500D03*
X122550000Y-89612500D03*
D32*
X75415000Y-110100000D03*
X76385000Y-110100000D03*
X71915000Y-110100000D03*
X72885000Y-110100000D03*
X87165000Y-98800000D03*
X88135000Y-98800000D03*
D37*
X78150000Y-100537500D03*
X78150000Y-102112500D03*
D31*
X122800000Y-105415000D03*
X122800000Y-106385000D03*
D30*
X123800000Y-85585000D03*
X123800000Y-84615000D03*
X127000000Y-106385000D03*
X127000000Y-105415000D03*
D31*
X120800000Y-84615000D03*
X120800000Y-85585000D03*
D37*
X125950000Y-102612500D03*
X125950000Y-104187500D03*
D36*
X120650000Y-88387500D03*
X120650000Y-86812500D03*
D38*
X77400000Y-106700098D03*
X88300000Y-116000000D03*
X126700000Y-84000000D03*
X67899998Y-101500000D03*
X73900000Y-106700000D03*
X118100000Y-103700000D03*
X108200006Y-99700000D03*
X123300000Y-94500000D03*
D39*
X80900000Y-97500000D03*
D38*
X117000000Y-91300000D03*
D39*
X84100000Y-97500000D03*
D38*
X67600000Y-100450000D03*
X64900000Y-93250000D03*
X72600000Y-100450000D03*
X64900000Y-97250000D03*
X66800000Y-90450000D03*
X73800000Y-91550000D03*
X64900000Y-95250000D03*
X96100000Y-93450000D03*
X69550000Y-115950000D03*
X126500000Y-97400000D03*
X93599998Y-107300000D03*
X100100000Y-99050000D03*
D39*
X81700000Y-95900000D03*
D38*
X59600000Y-73000000D03*
X118800000Y-82900000D03*
X75500000Y-109300000D03*
X108350000Y-93500000D03*
X118200000Y-99500000D03*
X96100000Y-90650000D03*
D39*
X86500000Y-99100000D03*
D38*
X96100000Y-101850000D03*
X87650000Y-106350000D03*
X100100153Y-104640629D03*
X116975090Y-102400000D03*
X127800000Y-108100000D03*
X100100000Y-87850000D03*
X77600000Y-90300000D03*
X100100000Y-101850000D03*
X59700000Y-81000000D03*
X74150000Y-105400000D03*
X100100000Y-93450000D03*
X120100000Y-93600000D03*
X96100000Y-96350000D03*
X61989606Y-117508796D03*
X70600000Y-114285000D03*
X100100000Y-96350000D03*
X96100000Y-104650000D03*
X96100000Y-99050000D03*
X96100000Y-87850000D03*
D39*
X85700000Y-95900000D03*
D38*
X58800006Y-76500000D03*
X82800000Y-111000000D03*
X100093878Y-85173212D03*
X90800000Y-98900000D03*
X100093477Y-90643477D03*
X74800000Y-97300000D03*
X76100000Y-112500000D03*
X69543821Y-116450189D03*
X72000000Y-109300000D03*
X96100000Y-85050000D03*
X79200010Y-100000000D03*
X119900000Y-106300000D03*
X107550000Y-89850000D03*
X67200000Y-108400000D03*
X67200000Y-107800000D03*
X64600000Y-108400000D03*
X64600000Y-107800000D03*
X70000000Y-105800000D03*
X69200000Y-105800000D03*
X70800000Y-105800000D03*
X71600000Y-105800000D03*
X107300000Y-95100000D03*
X58150000Y-79550000D03*
X64600000Y-112900000D03*
X68500000Y-113450000D03*
X67200000Y-112900000D03*
X67850000Y-112250000D03*
X67200000Y-113500000D03*
X64600000Y-113500000D03*
D40*
X104450000Y-82350000D03*
D38*
X124700000Y-88000000D03*
X126500000Y-96400000D03*
X123500000Y-86600000D03*
X123500000Y-88000000D03*
X120600000Y-101900000D03*
X55050010Y-106000000D03*
X100100000Y-102600000D03*
X100100000Y-97100000D03*
X111100000Y-94500000D03*
X55049976Y-87000000D03*
X100100000Y-91400000D03*
X90800000Y-99650000D03*
X69299996Y-76500000D03*
X76400000Y-110900000D03*
D39*
X83300000Y-95900000D03*
D38*
X87200010Y-111000000D03*
X79100000Y-102200000D03*
X100087874Y-105390440D03*
X73100006Y-76500000D03*
X57800000Y-99199994D03*
X64000000Y-94350000D03*
X61900000Y-76500002D03*
X125400000Y-89100000D03*
X78200000Y-80400000D03*
D39*
X82500000Y-95100000D03*
D38*
X96100000Y-94200000D03*
X55050000Y-104000000D03*
X124700000Y-86600000D03*
X55050004Y-110000000D03*
X96100000Y-85800000D03*
D40*
X100450000Y-82350000D03*
D38*
X96100000Y-97100000D03*
X57600000Y-91600000D03*
X68500000Y-108350000D03*
X73800000Y-112500000D03*
X120800000Y-98000000D03*
X123100000Y-104400000D03*
D39*
X84100000Y-95100000D03*
D38*
X55050000Y-89000000D03*
X55050002Y-85000000D03*
X65500000Y-76500000D03*
X121900000Y-103000000D03*
X55050000Y-83000000D03*
X60799901Y-76500000D03*
X100013397Y-85918792D03*
D40*
X57900000Y-96800000D03*
D38*
X55050000Y-108000000D03*
X107300000Y-97600000D03*
X85800000Y-80400000D03*
X97300000Y-81700000D03*
X100100000Y-88600000D03*
X61720180Y-97749991D03*
X90800000Y-98000000D03*
X123100000Y-103000000D03*
X77200000Y-112500000D03*
X74250000Y-101050000D03*
X118800000Y-83900000D03*
X96100000Y-99800000D03*
X114300000Y-96600000D03*
X127500000Y-103500000D03*
X96100000Y-88600000D03*
X87799998Y-100168111D03*
X80800012Y-76500000D03*
X124500000Y-80500000D03*
X116100000Y-106400000D03*
X93200000Y-85200000D03*
X121900000Y-104400000D03*
D39*
X83300000Y-95100000D03*
D38*
X96100000Y-105400000D03*
X71280000Y-116310000D03*
X60650000Y-90200000D03*
X70600000Y-80400000D03*
X92700000Y-85200000D03*
X61900000Y-109800000D03*
X124300000Y-110500000D03*
X72900000Y-110900000D03*
X55050000Y-81000000D03*
X76899998Y-76500000D03*
X67850000Y-117225090D03*
X107400000Y-99700000D03*
X82000000Y-80400000D03*
X118700000Y-89800000D03*
X74400000Y-80400000D03*
D40*
X105450000Y-108650000D03*
X101450000Y-108650000D03*
D38*
X79000000Y-99269642D03*
X100100000Y-99800000D03*
X119200000Y-87600000D03*
X126650000Y-85150000D03*
X121200000Y-101900000D03*
X55050000Y-102000000D03*
X63024910Y-80408938D03*
X100100000Y-94200000D03*
X120100000Y-94600000D03*
X107550000Y-90800000D03*
X66800000Y-80400000D03*
X96100000Y-91400000D03*
X127800000Y-107100000D03*
X84200075Y-76500006D03*
X126000000Y-89100000D03*
D39*
X84100000Y-95900000D03*
D38*
X118024910Y-102400000D03*
X96100000Y-102600000D03*
X119900000Y-105400000D03*
X67000000Y-101500000D03*
X118100000Y-104500000D03*
X73200000Y-106400000D03*
D39*
X81700000Y-98300000D03*
D38*
X88300000Y-113500000D03*
X108500000Y-98900000D03*
X76700000Y-106400000D03*
X63700000Y-112050000D03*
X63700000Y-116999962D03*
X63700000Y-112600000D03*
X90700000Y-112000000D03*
X126600000Y-91900000D03*
X127100000Y-91900000D03*
X63700000Y-117550180D03*
X126100000Y-91900000D03*
X121000000Y-99100000D03*
X125600000Y-91900000D03*
X63700000Y-110950000D03*
X119500000Y-99100000D03*
X82800000Y-116000000D03*
X63700000Y-111500000D03*
X120500000Y-99100000D03*
X120000000Y-99100000D03*
X74700000Y-88900000D03*
X59400014Y-115000000D03*
X55500000Y-95250000D03*
X55500000Y-96300000D03*
X57900000Y-94700000D03*
X57900000Y-95794900D03*
D39*
X81700000Y-96700000D03*
D38*
X68750000Y-101500000D03*
X69599999Y-101500000D03*
D39*
X80900000Y-95900000D03*
D38*
X79700000Y-101300000D03*
D39*
X80900000Y-98300000D03*
D38*
X76600000Y-98700000D03*
X74899996Y-95125010D03*
X76000000Y-99300000D03*
X74902957Y-96185184D03*
X69550000Y-111550000D03*
X69550000Y-110850000D03*
X77300000Y-101400000D03*
D39*
X84900000Y-94300000D03*
X82500000Y-94300000D03*
X84900000Y-96700000D03*
D38*
X89100000Y-95500000D03*
D39*
X82500000Y-96700000D03*
D38*
X76803211Y-96984235D03*
X76737231Y-96237231D03*
X65900000Y-100499978D03*
D39*
X80900000Y-92700000D03*
D38*
X78600000Y-91300000D03*
X126300000Y-87100000D03*
X77541925Y-93841925D03*
X75900000Y-88199998D03*
X75973150Y-92194958D03*
X120299992Y-103900000D03*
X67600000Y-90450000D03*
D39*
X87300000Y-94300000D03*
D38*
X73100000Y-90450000D03*
X78600000Y-94400000D03*
X125700000Y-108500000D03*
X65050002Y-89650000D03*
X127600000Y-100800000D03*
X122600000Y-111300000D03*
X124100000Y-81800000D03*
X71450008Y-88050000D03*
D39*
X80900000Y-93500000D03*
D38*
X65042375Y-90456053D03*
X65800010Y-90450000D03*
D39*
X80900000Y-94300000D03*
X86500000Y-95900000D03*
X80900000Y-95100000D03*
X86500000Y-95100000D03*
D38*
X78100000Y-95500000D03*
X106962190Y-111575090D03*
X101200000Y-111500000D03*
X106147478Y-111552522D03*
X105200000Y-111537128D03*
X104400000Y-111500000D03*
X102800000Y-111500000D03*
X103600000Y-111500000D03*
X102000000Y-111500000D03*
X101200000Y-79500000D03*
X106800000Y-79500000D03*
X102000000Y-79500000D03*
X102800000Y-79500000D03*
X103600000Y-79500000D03*
X105200000Y-79500000D03*
X104400000Y-79500000D03*
X105981323Y-79476341D03*
X89600000Y-94150000D03*
X89500000Y-92000000D03*
D39*
X82500000Y-98300000D03*
D38*
X59700000Y-102000000D03*
X93500000Y-81800000D03*
X125000000Y-103000000D03*
X125000000Y-104400000D03*
X125000000Y-103700000D03*
X97050000Y-106950000D03*
X101850000Y-99050000D03*
X97850000Y-104650000D03*
X101850000Y-101850000D03*
X97850000Y-101850000D03*
X108250000Y-105400000D03*
X101700000Y-104124400D03*
X101850000Y-96350000D03*
X107750000Y-105400000D03*
X108100000Y-102200000D03*
X97500000Y-106950000D03*
X97850000Y-96350000D03*
X106200000Y-108650000D03*
X118600012Y-101000000D03*
X107300000Y-105400000D03*
X97850000Y-99050000D03*
X99700000Y-82350000D03*
X121600000Y-86600000D03*
X117000000Y-88700000D03*
X101828832Y-87871168D03*
X97850000Y-85050000D03*
X107900000Y-85600000D03*
X97850000Y-84550000D03*
X97850000Y-93450000D03*
X107400000Y-85600000D03*
X121600000Y-87300000D03*
X101850000Y-90650000D03*
X97850000Y-87850000D03*
X97850000Y-90650000D03*
X101850000Y-93450000D03*
X100134260Y-84424388D03*
X121600000Y-88000000D03*
X108400000Y-85600000D03*
D39*
X83300000Y-97500000D03*
D38*
X59700000Y-104000000D03*
X117500000Y-109600000D03*
X59700000Y-110000000D03*
D39*
X84900000Y-97500000D03*
D38*
X87499986Y-100900000D03*
X59700000Y-108000000D03*
D39*
X85700000Y-98300000D03*
X84900000Y-98300000D03*
D38*
X59700000Y-106000000D03*
X78200000Y-76500000D03*
D39*
X85700000Y-91900000D03*
X84900000Y-91900000D03*
D38*
X75700000Y-76500000D03*
D39*
X80900000Y-91900000D03*
D38*
X64250000Y-76500000D03*
X63114727Y-76505325D03*
D39*
X80100000Y-91900000D03*
X86500000Y-92700000D03*
D38*
X82000000Y-76500000D03*
X79500000Y-76500000D03*
D39*
X85700000Y-92700000D03*
D38*
X74400000Y-76500000D03*
D39*
X84900000Y-92700000D03*
X83300000Y-92700000D03*
D38*
X70600000Y-76500000D03*
X68050000Y-76500000D03*
D39*
X82500000Y-92700000D03*
X82500000Y-93500000D03*
D38*
X66785000Y-76485000D03*
D39*
X86500000Y-93500000D03*
D38*
X83295000Y-76495000D03*
X87050000Y-90000000D03*
X91050000Y-87300000D03*
X91550000Y-87300000D03*
X87150000Y-88600000D03*
D39*
X84100000Y-93500000D03*
D38*
X87650000Y-88600000D03*
D39*
X83300000Y-93500000D03*
D38*
X71850000Y-76500000D03*
D39*
X86500000Y-96700000D03*
D38*
X97850000Y-85800000D03*
X97850000Y-91400000D03*
X92350000Y-94600000D03*
X97850000Y-94200000D03*
X93450000Y-95100000D03*
D39*
X86500000Y-97500000D03*
D38*
X100208259Y-86644581D03*
X92100000Y-93849928D03*
X101850603Y-88620764D03*
X92045340Y-95350000D03*
X101850000Y-91400000D03*
X93150000Y-95800000D03*
X101850000Y-94200000D03*
X84799998Y-101249812D03*
X97850000Y-97100000D03*
X81800000Y-104000000D03*
X97850000Y-102600000D03*
X97850000Y-105400000D03*
X80600000Y-105200000D03*
X83600000Y-102200000D03*
X101850000Y-97100000D03*
X82400000Y-103400000D03*
X101850000Y-99800000D03*
X81200000Y-104600000D03*
X101850000Y-102600000D03*
X100100000Y-106150000D03*
X80000000Y-105650278D03*
X97850000Y-88600000D03*
D39*
X85700000Y-96700000D03*
D38*
X83000000Y-102800000D03*
X97850000Y-99800000D03*
X70607500Y-113307500D03*
X92650000Y-98500000D03*
D40*
X88600000Y-93200000D03*
D38*
X54400000Y-94600000D03*
X122800000Y-107100000D03*
X123800000Y-107100000D03*
X123800000Y-83900000D03*
X122800000Y-83900000D03*
X127600000Y-99800000D03*
X120400000Y-103100000D03*
X126200000Y-87900000D03*
X119000000Y-91200000D03*
X123200000Y-99950000D03*
X123200000Y-99350000D03*
X125000000Y-99350000D03*
X123400000Y-91650000D03*
X121600000Y-91650000D03*
X123400000Y-91050000D03*
X72150000Y-118650000D03*
X77150000Y-118650000D03*
X72150000Y-119450000D03*
X77150000Y-119450000D03*
X127800000Y-106200000D03*
X118800000Y-84800000D03*
X61300000Y-112800000D03*
X123300000Y-98400000D03*
X120900000Y-92600000D03*
D41*
X115300000Y-91300000D02*
X117000000Y-91300000D01*
X69299998Y-102900000D02*
X67899998Y-101500000D01*
X86300000Y-108100000D02*
X84675099Y-106475099D01*
X107900000Y-99399994D02*
X107900000Y-98700000D01*
X74450000Y-102900000D02*
X69299998Y-102900000D01*
X108200006Y-99700000D02*
X108899916Y-100399910D01*
X84675099Y-106475099D02*
X77624999Y-106475099D01*
X78605268Y-98744732D02*
X74450000Y-102900000D01*
X125824136Y-94500000D02*
X128075090Y-92249048D01*
X108899916Y-100399910D02*
X118875773Y-100399911D01*
X80402224Y-97500000D02*
X79157492Y-98744732D01*
X73900000Y-106700000D02*
X74200000Y-107000000D01*
X79157492Y-98744732D02*
X78605268Y-98744732D01*
X77100098Y-107000000D02*
X77400000Y-106700098D01*
X80900000Y-97500000D02*
X80402224Y-97500000D01*
X128075090Y-85375090D02*
X126700000Y-84000000D01*
X86300000Y-114000000D02*
X86300000Y-108100000D01*
X118875773Y-100399911D02*
X119200178Y-100724316D01*
X107900000Y-98700000D02*
X115300000Y-91300000D01*
X123300000Y-94500000D02*
X125824136Y-94500000D01*
X119200178Y-102599822D02*
X118100000Y-103700000D01*
X77624999Y-106475099D02*
X77400000Y-106700098D01*
X74200000Y-107000000D02*
X77100098Y-107000000D01*
X128075090Y-92249048D02*
X128075090Y-85375090D01*
X108200006Y-99700000D02*
X107900000Y-99399994D01*
X119200178Y-100724316D02*
X119200178Y-102599822D01*
X88300000Y-116000000D02*
X86300000Y-114000000D01*
D42*
X64900000Y-95250000D02*
X65885000Y-95250000D01*
X72600000Y-100450000D02*
X72600000Y-99465000D01*
X64900000Y-93250000D02*
X65870000Y-93250000D01*
X66800000Y-90450000D02*
X66800000Y-91535000D01*
X65885000Y-97250000D02*
X65900000Y-97265000D01*
X64900000Y-97250000D02*
X65885000Y-97250000D01*
X65870000Y-93250000D02*
X65900000Y-93280000D01*
X72985000Y-91550000D02*
X73800000Y-91550000D01*
X72600000Y-99465000D02*
X72585000Y-99450000D01*
X66800000Y-91535000D02*
X66815000Y-91550000D01*
X65885000Y-95250000D02*
X65900000Y-95265000D01*
X99815000Y-96065000D02*
X99150000Y-96065000D01*
X74800000Y-97300000D02*
X73820000Y-97300000D01*
X95915000Y-93265000D02*
X96100000Y-93450000D01*
X99915000Y-101665000D02*
X100100000Y-101850000D01*
X96100000Y-96350000D02*
X95765000Y-96015000D01*
X99150000Y-104465000D02*
X99924524Y-104465000D01*
X99150000Y-101665000D02*
X99915000Y-101665000D01*
X99150000Y-98865000D02*
X99915000Y-98865000D01*
X99150000Y-87665000D02*
X99915000Y-87665000D01*
X99915000Y-98865000D02*
X100100000Y-99050000D01*
X64612500Y-99500000D02*
X64612500Y-97537500D01*
D41*
X71915000Y-110100000D02*
X71915000Y-109385000D01*
X75415000Y-110100000D02*
X75415000Y-109385000D01*
D42*
X67600000Y-100600000D02*
X67600000Y-99465000D01*
X95150000Y-90465000D02*
X95915000Y-90465000D01*
X99915000Y-93265000D02*
X100100000Y-93450000D01*
X95915000Y-87665000D02*
X96100000Y-87850000D01*
X95150000Y-101665000D02*
X95915000Y-101665000D01*
X90665000Y-98765000D02*
X90800000Y-98900000D01*
X84100000Y-96785000D02*
X84185000Y-96700000D01*
X79200010Y-100000000D02*
X80035000Y-100000000D01*
X95915000Y-84865000D02*
X96100000Y-85050000D01*
X99458212Y-85173212D02*
X100093878Y-85173212D01*
X86800000Y-98800000D02*
X86500000Y-99100000D01*
X99915000Y-90465000D02*
X100093477Y-90643477D01*
X95915000Y-98865000D02*
X96100000Y-99050000D01*
X86012500Y-99100000D02*
X85112500Y-100000000D01*
X99150000Y-93265000D02*
X99915000Y-93265000D01*
X95150000Y-93265000D02*
X95915000Y-93265000D01*
X95915000Y-101665000D02*
X96100000Y-101850000D01*
X64612500Y-97537500D02*
X64900000Y-97250000D01*
X100100000Y-96350000D02*
X99815000Y-96065000D01*
X67600000Y-99465000D02*
X67615000Y-99450000D01*
X95150000Y-104465000D02*
X95915000Y-104465000D01*
X86500000Y-99100000D02*
X86012500Y-99100000D01*
X95150000Y-84865000D02*
X95915000Y-84865000D01*
X95915000Y-104465000D02*
X96100000Y-104650000D01*
X73820000Y-97300000D02*
X73800000Y-97280000D01*
X84100000Y-97500000D02*
X84100000Y-96785000D01*
X95765000Y-96015000D02*
X95150000Y-96015000D01*
X95150000Y-87665000D02*
X95915000Y-87665000D01*
D43*
X81500000Y-111000000D02*
X82800000Y-111000000D01*
D42*
X80035000Y-100000000D02*
X80050000Y-99985000D01*
X95915000Y-90465000D02*
X96100000Y-90650000D01*
X99150000Y-84865000D02*
X99458212Y-85173212D01*
X95150000Y-98865000D02*
X95915000Y-98865000D01*
X89800000Y-98765000D02*
X90665000Y-98765000D01*
X86800000Y-98800000D02*
X87165000Y-98800000D01*
X99915000Y-87665000D02*
X100100000Y-87850000D01*
X85700000Y-95900000D02*
X85700000Y-95285000D01*
D41*
X71915000Y-109385000D02*
X72000000Y-109300000D01*
X75415000Y-109385000D02*
X75500000Y-109300000D01*
D42*
X99924524Y-104465000D02*
X100100153Y-104640629D01*
X99150000Y-90465000D02*
X99915000Y-90465000D01*
X68585000Y-98045000D02*
X68580000Y-98040000D01*
X67785000Y-91550000D02*
X67785000Y-93435000D01*
X65900000Y-98235000D02*
X67115000Y-98235000D01*
X67115000Y-98235000D02*
X67310000Y-98040000D01*
X67785000Y-93435000D02*
X69850000Y-95500000D01*
X72015000Y-91550000D02*
X72015000Y-93335000D01*
X72600000Y-98250000D02*
X72390000Y-98040000D01*
X71615000Y-97265000D02*
X69850000Y-95500000D01*
X68585000Y-99450000D02*
X68585000Y-98045000D01*
X65900000Y-96235000D02*
X68045000Y-96235000D01*
X68045000Y-96235000D02*
X68580000Y-96770000D01*
X72015000Y-93335000D02*
X72090001Y-93259999D01*
X72090001Y-93259999D02*
X72390000Y-92960000D01*
X71615000Y-99450000D02*
X71615000Y-97265000D01*
X73800000Y-98250000D02*
X72600000Y-98250000D01*
X100065000Y-102635000D02*
X100100000Y-102600000D01*
X101050000Y-102635000D02*
X100135000Y-102635000D01*
X84815000Y-95100000D02*
X84900000Y-95015000D01*
X81785000Y-95100000D02*
X81700000Y-95185000D01*
X96135000Y-94235000D02*
X96100000Y-94200000D01*
X84100000Y-95100000D02*
X84815000Y-95100000D01*
X83215000Y-96754602D02*
X83215000Y-96700000D01*
X100065000Y-91435000D02*
X100100000Y-91400000D01*
X95150000Y-91435000D02*
X96065000Y-91435000D01*
X66187500Y-99212500D02*
X66187500Y-99500000D01*
X100135000Y-88635000D02*
X100100000Y-88600000D01*
X67310000Y-98040000D02*
X67310000Y-98090000D01*
X96135000Y-91435000D02*
X96100000Y-91400000D01*
X100065000Y-99835000D02*
X100100000Y-99800000D01*
X96065000Y-88635000D02*
X96100000Y-88600000D01*
X100135000Y-94235000D02*
X100100000Y-94200000D01*
X82585000Y-97500000D02*
X82585000Y-97384602D01*
X88135000Y-98800000D02*
X88135000Y-99833109D01*
X99150000Y-99835000D02*
X100065000Y-99835000D01*
X100065000Y-94235000D02*
X100100000Y-94200000D01*
X87635371Y-100164629D02*
X87796516Y-100164629D01*
X96065000Y-99835000D02*
X96100000Y-99800000D01*
X100135000Y-91435000D02*
X100100000Y-91400000D01*
X97050000Y-85835000D02*
X96135000Y-85835000D01*
X85700000Y-93585000D02*
X85785000Y-93500000D01*
D41*
X76385000Y-110100000D02*
X76385000Y-110885000D01*
D42*
X82585000Y-97384602D02*
X83215000Y-96754602D01*
X99150000Y-102635000D02*
X100065000Y-102635000D01*
X79100000Y-102200000D02*
X78237500Y-102200000D01*
X89800000Y-99735000D02*
X90715000Y-99735000D01*
X79795358Y-99269642D02*
X79000000Y-99269642D01*
X96135000Y-102635000D02*
X96100000Y-102600000D01*
X87799998Y-100168111D02*
X87631887Y-100000000D01*
X95985000Y-96985000D02*
X95150000Y-96985000D01*
D41*
X72885000Y-110100000D02*
X72885000Y-110885000D01*
D42*
X97050000Y-94235000D02*
X96135000Y-94235000D01*
X99929605Y-85835000D02*
X100013397Y-85918792D01*
X96135000Y-99835000D02*
X96100000Y-99800000D01*
X65900000Y-94250000D02*
X67290000Y-94250000D01*
X97050000Y-105435000D02*
X96135000Y-105435000D01*
X97050000Y-88635000D02*
X96135000Y-88635000D01*
X83300000Y-95900000D02*
X83300000Y-95100000D01*
X96065000Y-102635000D02*
X96100000Y-102600000D01*
X83300000Y-96615000D02*
X83215000Y-96700000D01*
X100132434Y-105435000D02*
X100087874Y-105390440D01*
X100043314Y-105435000D02*
X100087874Y-105390440D01*
D41*
X72885000Y-110885000D02*
X72900000Y-110900000D01*
D42*
X96065000Y-91435000D02*
X96100000Y-91400000D01*
X83300000Y-94385000D02*
X83215000Y-94300000D01*
X96135000Y-105435000D02*
X96100000Y-105400000D01*
X100100000Y-97100000D02*
X100035000Y-97035000D01*
X101050000Y-85835000D02*
X100097189Y-85835000D01*
X99150000Y-105435000D02*
X100043314Y-105435000D01*
X96100000Y-97100000D02*
X95985000Y-96985000D01*
X100135000Y-102635000D02*
X100100000Y-102600000D01*
X82500000Y-95100000D02*
X81785000Y-95100000D01*
X95150000Y-105435000D02*
X96065000Y-105435000D01*
X97050000Y-91435000D02*
X96135000Y-91435000D01*
X82500000Y-95100000D02*
X83300000Y-95100000D01*
X101050000Y-105435000D02*
X100132434Y-105435000D01*
X95150000Y-94235000D02*
X96065000Y-94235000D01*
X99150000Y-91435000D02*
X100065000Y-91435000D01*
X83300000Y-95900000D02*
X83300000Y-96615000D01*
X84900000Y-95015000D02*
X85000000Y-95015000D01*
X100135000Y-99835000D02*
X100100000Y-99800000D01*
X67310000Y-98090000D02*
X66187500Y-99212500D01*
X96135000Y-88635000D02*
X96100000Y-88600000D01*
X101050000Y-91435000D02*
X100135000Y-91435000D01*
X97050000Y-99835000D02*
X96135000Y-99835000D01*
X100097189Y-85835000D02*
X100013397Y-85918792D01*
D41*
X76385000Y-110885000D02*
X76400000Y-110900000D01*
D42*
X90715000Y-99735000D02*
X90800000Y-99650000D01*
X96065000Y-85835000D02*
X96100000Y-85800000D01*
X100035000Y-97035000D02*
X99150000Y-97035000D01*
X100065000Y-88635000D02*
X100100000Y-88600000D01*
X101050000Y-99835000D02*
X100135000Y-99835000D01*
X83300000Y-95100000D02*
X84100000Y-95100000D01*
X99150000Y-94235000D02*
X100065000Y-94235000D01*
X99150000Y-85835000D02*
X99929605Y-85835000D01*
X100165000Y-97035000D02*
X101050000Y-97035000D01*
X67290000Y-94250000D02*
X67310000Y-94230000D01*
X96215000Y-96985000D02*
X97050000Y-96985000D01*
X84100000Y-95900000D02*
X83300000Y-95900000D01*
X80050000Y-99015000D02*
X79795358Y-99269642D01*
X95150000Y-102635000D02*
X96065000Y-102635000D01*
X99150000Y-88635000D02*
X100065000Y-88635000D01*
X85700000Y-94315000D02*
X85700000Y-93585000D01*
X96065000Y-94235000D02*
X96100000Y-94200000D01*
X95150000Y-85835000D02*
X96065000Y-85835000D01*
X96065000Y-105435000D02*
X96100000Y-105400000D01*
X96135000Y-85835000D02*
X96100000Y-85800000D01*
X101050000Y-94235000D02*
X100135000Y-94235000D01*
X101050000Y-88635000D02*
X100135000Y-88635000D01*
X83300000Y-95100000D02*
X83300000Y-94385000D01*
X87631887Y-100000000D02*
X86687500Y-100000000D01*
X84100000Y-95100000D02*
X84100000Y-95900000D01*
X96100000Y-97100000D02*
X96215000Y-96985000D01*
X95150000Y-88635000D02*
X96065000Y-88635000D01*
X88135000Y-99833109D02*
X87799998Y-100168111D01*
X100100000Y-97100000D02*
X100165000Y-97035000D01*
X85000000Y-95015000D02*
X85700000Y-94315000D01*
D43*
X88250000Y-111000000D02*
X87200010Y-111000000D01*
D42*
X87796516Y-100164629D02*
X87799998Y-100168111D01*
X78237500Y-102200000D02*
X78150000Y-102112500D01*
X97050000Y-102635000D02*
X96135000Y-102635000D01*
X95150000Y-99835000D02*
X96065000Y-99835000D01*
D41*
X88300000Y-113500000D02*
X88300000Y-113500000D01*
X76700000Y-106400000D02*
X76924812Y-106175188D01*
X73450000Y-106150000D02*
X73200000Y-106400000D01*
X119500089Y-103099911D02*
X118100000Y-104500000D01*
X84875188Y-106175188D02*
X86600000Y-107900000D01*
X86600000Y-107900000D02*
X86600000Y-111800000D01*
X76924812Y-106175188D02*
X84875188Y-106175188D01*
X109700000Y-100100000D02*
X119000000Y-100100000D01*
X108500000Y-98900000D02*
X109700000Y-100100000D01*
X81700000Y-100450000D02*
X78950000Y-103200000D01*
X119500089Y-100600089D02*
X119500089Y-103099911D01*
X76450000Y-106150000D02*
X73450000Y-106150000D01*
X76700000Y-106400000D02*
X76450000Y-106150000D01*
X81700000Y-98300000D02*
X81700000Y-100450000D01*
X86600000Y-111800000D02*
X88300000Y-113500000D01*
X78950000Y-103200000D02*
X68700000Y-103200000D01*
X119000000Y-100100000D02*
X119500089Y-100600089D01*
X68700000Y-103200000D02*
X67000000Y-101500000D01*
D43*
X81500000Y-116000000D02*
X82800000Y-116000000D01*
D41*
X63500000Y-88900000D02*
X74700000Y-88900000D01*
X58800000Y-114399986D02*
X58800000Y-93600000D01*
X58800000Y-93600000D02*
X63500000Y-88900000D01*
X59400014Y-115000000D02*
X58800000Y-114399986D01*
D44*
X55500000Y-95250000D02*
X55500000Y-96300000D01*
X57900000Y-94700000D02*
X57900000Y-95794900D01*
D41*
X74300000Y-102600000D02*
X69850000Y-102600000D01*
X80778086Y-96700000D02*
X79033265Y-98444821D01*
X69850000Y-102600000D02*
X68750000Y-101500000D01*
X81700000Y-96700000D02*
X80778086Y-96700000D01*
X78455179Y-98444821D02*
X74300000Y-102600000D01*
X79033265Y-98444821D02*
X78455179Y-98444821D01*
X80500000Y-96553948D02*
X78909037Y-98144911D01*
X70399999Y-102300000D02*
X69599999Y-101500000D01*
X78909037Y-98144911D02*
X78330951Y-98144911D01*
X74175862Y-102300000D02*
X70399999Y-102300000D01*
X80500000Y-96300000D02*
X80500000Y-96553948D01*
X78330951Y-98144911D02*
X74175862Y-102300000D01*
X80900000Y-95900000D02*
X80500000Y-96300000D01*
X80900000Y-100100000D02*
X79700000Y-101300000D01*
X80900000Y-98300000D02*
X80900000Y-100100000D01*
X74899996Y-95125010D02*
X75800000Y-96025014D01*
X75800000Y-96025014D02*
X75800000Y-97900000D01*
X75800000Y-97900000D02*
X76600000Y-98700000D01*
X75399999Y-98699999D02*
X75399999Y-96682226D01*
X75399999Y-96682226D02*
X74902957Y-96185184D01*
X76000000Y-99300000D02*
X75399999Y-98699999D01*
D45*
X69550000Y-110850000D02*
X69550000Y-111550000D01*
D42*
X81667622Y-97500000D02*
X82467622Y-96700000D01*
X77218976Y-97400000D02*
X76803211Y-96984235D01*
X89100000Y-95500000D02*
X89335000Y-95265000D01*
X81615000Y-97500000D02*
X81667622Y-97500000D01*
X84900000Y-94300000D02*
X84900000Y-93585000D01*
D43*
X78150000Y-100537500D02*
X78150000Y-100550000D01*
X78150000Y-100550000D02*
X77300000Y-101400000D01*
D42*
X84900000Y-93585000D02*
X84815000Y-93500000D01*
X89335000Y-95265000D02*
X89850000Y-95265000D01*
D45*
X69900000Y-111200000D02*
X69550000Y-111550000D01*
D42*
X84900000Y-96700000D02*
X84900000Y-95985000D01*
D45*
X69900000Y-111200000D02*
X69550000Y-110850000D01*
D42*
X81785000Y-94300000D02*
X81700000Y-94215000D01*
X77530000Y-97400000D02*
X77218976Y-97400000D01*
X82500000Y-94300000D02*
X81785000Y-94300000D01*
D45*
X70650000Y-111200000D02*
X69900000Y-111200000D01*
D42*
X82467622Y-96700000D02*
X82500000Y-96700000D01*
D41*
X66374923Y-100974901D02*
X65900000Y-100499978D01*
X74050000Y-102000000D02*
X70850000Y-102000000D01*
X77200000Y-98400000D02*
X77200000Y-98850000D01*
X77200000Y-98850000D02*
X74050000Y-102000000D01*
X69824901Y-100974901D02*
X66374923Y-100974901D01*
X70850000Y-102000000D02*
X69824901Y-100974901D01*
X76200000Y-96774462D02*
X76200000Y-97400000D01*
X76737231Y-96237231D02*
X76200000Y-96774462D01*
X76200000Y-97400000D02*
X77200000Y-98400000D01*
X80900000Y-92700000D02*
X80000000Y-92700000D01*
X80000000Y-92700000D02*
X78600000Y-91300000D01*
X115976060Y-73300000D02*
X65563040Y-73300000D01*
X65563040Y-73300000D02*
X62500000Y-76363040D01*
X127775179Y-92124821D02*
X127775179Y-88575179D01*
X123500000Y-80823940D02*
X115976060Y-73300000D01*
X126300000Y-87100000D02*
X126100000Y-86900000D01*
X123000000Y-93900000D02*
X126000000Y-93900000D01*
X74800002Y-87100000D02*
X75900000Y-88199998D01*
X120299992Y-103900000D02*
X119800000Y-103400008D01*
X126100000Y-84600000D02*
X123500000Y-82000000D01*
X126000000Y-93900000D02*
X127775179Y-92124821D01*
X118900000Y-99500000D02*
X118900000Y-98000000D01*
X119800000Y-103400008D02*
X119800000Y-100400000D01*
X127775179Y-88575179D02*
X126300000Y-87100000D01*
X123500000Y-82000000D02*
X123500000Y-80823940D01*
X119800000Y-100400000D02*
X118900000Y-99500000D01*
X75973150Y-92194958D02*
X75973150Y-92273150D01*
X62500000Y-81000000D02*
X68600000Y-87100000D01*
X68600000Y-87100000D02*
X74800002Y-87100000D01*
X118900000Y-98000000D02*
X123000000Y-93900000D01*
X62500000Y-76363040D02*
X62500000Y-81000000D01*
X126100000Y-86900000D02*
X126100000Y-84600000D01*
X75973150Y-92273150D02*
X77541925Y-93841925D01*
X75350000Y-90450000D02*
X78600000Y-93700000D01*
X67600000Y-90450000D02*
X75350000Y-90450000D01*
X78600000Y-93700000D02*
X78600000Y-94400000D01*
X60000000Y-116296044D02*
X61779046Y-118075090D01*
X128075090Y-101275090D02*
X128075090Y-103824910D01*
X59100000Y-113900000D02*
X60000000Y-114800000D01*
X128075090Y-103824910D02*
X127300000Y-104600000D01*
X72600000Y-118250000D02*
X76773146Y-118250000D01*
X65050002Y-89650000D02*
X59100000Y-95600002D01*
X125700000Y-105668332D02*
X125700000Y-108500000D01*
X61779046Y-118075090D02*
X72425090Y-118075090D01*
X72425090Y-118075090D02*
X72600000Y-118250000D01*
X77423146Y-117600000D02*
X116300000Y-117600000D01*
X127300000Y-104600000D02*
X126768332Y-104600000D01*
X116300000Y-117600000D02*
X122600000Y-111300000D01*
X126768332Y-104600000D02*
X125700000Y-105668332D01*
X127600000Y-100800000D02*
X128075090Y-101275090D01*
X59100000Y-95600002D02*
X59100000Y-113900000D01*
X60000000Y-114800000D02*
X60000000Y-116296044D01*
X76773146Y-118250000D02*
X77423146Y-117600000D01*
X71450008Y-88050000D02*
X68650000Y-88050000D01*
X68650000Y-88050000D02*
X61324803Y-80724803D01*
X116150000Y-73000000D02*
X124100000Y-80950000D01*
X64650000Y-73000000D02*
X116150000Y-73000000D01*
X124100000Y-80950000D02*
X124100000Y-81800000D01*
X61324803Y-80724803D02*
X61324803Y-76325197D01*
X61324803Y-76325197D02*
X64650000Y-73000000D01*
X65948427Y-89550001D02*
X65042375Y-90456053D01*
X76072999Y-89550001D02*
X65948427Y-89550001D01*
X80900000Y-93500000D02*
X80022998Y-93500000D01*
X80022998Y-93500000D02*
X76072999Y-89550001D01*
X75600000Y-89900000D02*
X66350010Y-89900000D01*
X80000000Y-94300000D02*
X75600000Y-89900000D01*
X66350010Y-89900000D02*
X65800010Y-90450000D01*
X80900000Y-94300000D02*
X80000000Y-94300000D01*
D42*
X87115000Y-95900000D02*
X87200000Y-95985000D01*
X88452500Y-96235000D02*
X88400000Y-96287500D01*
X86500000Y-95900000D02*
X87115000Y-95900000D01*
X87200000Y-95985000D02*
X88097500Y-95985000D01*
X88097500Y-95985000D02*
X88400000Y-96287500D01*
X89850000Y-96235000D02*
X88452500Y-96235000D01*
X78385000Y-97600000D02*
X78385000Y-97402500D01*
X78385000Y-97402500D02*
X79387500Y-96400000D01*
X80300000Y-94900000D02*
X80700000Y-94900000D01*
X80700000Y-94900000D02*
X80900000Y-95100000D01*
X79387500Y-96400000D02*
X79387500Y-95812500D01*
X80300000Y-94900000D02*
X79700000Y-95500000D01*
X79387500Y-95812500D02*
X79700000Y-95500000D01*
X86500000Y-95100000D02*
X87115000Y-95100000D01*
X87200000Y-95015000D02*
X88097500Y-95015000D01*
X87115000Y-95100000D02*
X87200000Y-95015000D01*
X88097500Y-95015000D02*
X88400000Y-94712500D01*
X77812500Y-95787500D02*
X78100000Y-95500000D01*
X79330000Y-94900000D02*
X78730000Y-95500000D01*
X78730000Y-95500000D02*
X78100000Y-95500000D01*
X77812500Y-96400000D02*
X77812500Y-95787500D01*
D41*
X113900000Y-111300000D02*
X107237280Y-111300000D01*
X107237280Y-111300000D02*
X106962190Y-111575090D01*
X116700000Y-108500000D02*
X113900000Y-111300000D01*
X101200000Y-111500000D02*
X103500099Y-109199901D01*
X103500099Y-109199901D02*
X107100099Y-109199901D01*
X107800000Y-108500000D02*
X107810000Y-108500000D01*
X107100099Y-109199901D02*
X107800000Y-108500000D01*
X106700000Y-111000000D02*
X106147478Y-111552522D01*
X115430000Y-108500000D02*
X112930000Y-111000000D01*
X112930000Y-111000000D02*
X106700000Y-111000000D01*
X111960000Y-110700000D02*
X106076311Y-110700000D01*
X106076311Y-110700000D02*
X105239183Y-111537128D01*
X114160000Y-108500000D02*
X111960000Y-110700000D01*
X105239183Y-111537128D02*
X105200000Y-111537128D01*
X104400000Y-111500000D02*
X105500000Y-110400000D01*
X110990000Y-110400000D02*
X112890000Y-108500000D01*
X105500000Y-110400000D02*
X110990000Y-110400000D01*
X102800000Y-111500000D02*
X104500279Y-109799721D01*
X109050279Y-109799721D02*
X110350000Y-108500000D01*
X104500279Y-109799721D02*
X109050279Y-109799721D01*
X103600000Y-111500000D02*
X105000000Y-110100000D01*
X105000000Y-110100000D02*
X110020000Y-110100000D01*
X110020000Y-110100000D02*
X111620000Y-108500000D01*
X102000000Y-111500000D02*
X104000000Y-109500000D01*
X108080000Y-109500000D02*
X109080000Y-108500000D01*
X104000000Y-109500000D02*
X108080000Y-109500000D01*
X101200000Y-79500000D02*
X103566982Y-81866982D01*
X107166982Y-81866982D02*
X107800000Y-82500000D01*
X103566982Y-81866982D02*
X107166982Y-81866982D01*
X113900000Y-79700000D02*
X116700000Y-82500000D01*
X106800000Y-79500000D02*
X107000000Y-79700000D01*
X107000000Y-79700000D02*
X113900000Y-79700000D01*
X108217071Y-81567071D02*
X104067071Y-81567071D01*
X103150089Y-80650089D02*
X102000000Y-79500000D01*
X109080000Y-82430000D02*
X108217071Y-81567071D01*
X104067071Y-81567071D02*
X103150089Y-80650089D01*
X109080000Y-82500000D02*
X109080000Y-82430000D01*
X102800000Y-79500000D02*
X104567160Y-81267160D01*
X104567160Y-81267160D02*
X109117160Y-81267160D01*
X109117160Y-81267160D02*
X110350000Y-82500000D01*
X103600000Y-79500000D02*
X105050000Y-80950000D01*
X105050000Y-80950000D02*
X110070000Y-80950000D01*
X110070000Y-80950000D02*
X111620000Y-82500000D01*
X106024811Y-80324811D02*
X111984811Y-80324811D01*
X111984811Y-80324811D02*
X114160000Y-82500000D01*
X105200000Y-79500000D02*
X106024811Y-80324811D01*
X105524721Y-80624721D02*
X111014721Y-80624721D01*
X111014721Y-80624721D02*
X112890000Y-82500000D01*
X104400000Y-79500000D02*
X105524721Y-80624721D01*
X106529883Y-80024901D02*
X105981323Y-79476341D01*
X115430000Y-82500000D02*
X112954901Y-80024901D01*
X112954901Y-80024901D02*
X106529883Y-80024901D01*
X89600000Y-94150000D02*
X89500000Y-94050000D01*
X89500000Y-94050000D02*
X89500000Y-92000000D01*
X79151813Y-103499910D02*
X82500000Y-100151723D01*
X59700000Y-102000000D02*
X61199911Y-103499911D01*
X82500000Y-100151723D02*
X82500000Y-98300000D01*
X61199911Y-103499911D02*
X79151813Y-103499910D01*
X94200000Y-81100000D02*
X93500000Y-81800000D01*
X103800000Y-83300000D02*
X101600000Y-81100000D01*
X101600000Y-81100000D02*
X94200000Y-81100000D01*
X116400000Y-83300000D02*
X103800000Y-83300000D01*
X118685000Y-85585000D02*
X116400000Y-83300000D01*
X120800000Y-85585000D02*
X118685000Y-85585000D01*
D42*
X97665000Y-101665000D02*
X97850000Y-101850000D01*
X97665000Y-104465000D02*
X97850000Y-104650000D01*
D45*
X125000000Y-108000000D02*
X124200000Y-108800000D01*
D43*
X106200000Y-105400000D02*
X102700000Y-105400000D01*
D42*
X97665000Y-98865000D02*
X97850000Y-99050000D01*
D43*
X102700000Y-99050000D02*
X102700000Y-96900000D01*
X102700000Y-101850000D02*
X102700000Y-99050000D01*
D42*
X97050000Y-104465000D02*
X97665000Y-104465000D01*
D43*
X102675600Y-104124400D02*
X102700000Y-104100000D01*
X102700000Y-105400000D02*
X102700000Y-106050000D01*
D42*
X97515000Y-96015000D02*
X97050000Y-96015000D01*
D43*
X107300000Y-105400000D02*
X106200000Y-105400000D01*
D42*
X101050000Y-98865000D02*
X101665000Y-98865000D01*
D43*
X102700000Y-106050000D02*
X101800000Y-106950000D01*
X101850000Y-96350000D02*
X102150000Y-96350000D01*
D42*
X106900000Y-105400000D02*
X106900000Y-103183146D01*
D41*
X123800000Y-104437500D02*
X124050000Y-104187500D01*
D43*
X102700000Y-99050000D02*
X101850000Y-99050000D01*
D45*
X124200000Y-108800000D02*
X120900000Y-108800000D01*
X120900000Y-108800000D02*
X117500000Y-105400000D01*
X117500000Y-105400000D02*
X108250000Y-105400000D01*
D42*
X101390600Y-104124400D02*
X101050000Y-104465000D01*
D41*
X123800000Y-105415000D02*
X123800000Y-104437500D01*
X117500000Y-105400000D02*
X117500000Y-102100000D01*
D43*
X101700000Y-104124400D02*
X102675600Y-104124400D01*
D41*
X117500000Y-102100000D02*
X118600000Y-101000000D01*
D43*
X97500000Y-106950000D02*
X97050000Y-106950000D01*
D42*
X107883146Y-102200000D02*
X108100000Y-102200000D01*
X101850000Y-96350000D02*
X101565000Y-96065000D01*
D43*
X102700000Y-101850000D02*
X101850000Y-101850000D01*
D42*
X97050000Y-98865000D02*
X97665000Y-98865000D01*
D43*
X102150000Y-96350000D02*
X102700000Y-96900000D01*
D42*
X101050000Y-101665000D02*
X101665000Y-101665000D01*
X101700000Y-104124400D02*
X101390600Y-104124400D01*
D45*
X125000000Y-104400000D02*
X125000000Y-108000000D01*
D42*
X101665000Y-101665000D02*
X101850000Y-101850000D01*
D43*
X101800000Y-106950000D02*
X97500000Y-106950000D01*
D42*
X101665000Y-98865000D02*
X101850000Y-99050000D01*
X101565000Y-96065000D02*
X101050000Y-96065000D01*
D45*
X107750000Y-105400000D02*
X108250000Y-105400000D01*
X108250000Y-105400000D02*
X107300000Y-105400000D01*
D42*
X97050000Y-101665000D02*
X97665000Y-101665000D01*
X106900000Y-103183146D02*
X107883146Y-102200000D01*
D43*
X102700000Y-104100000D02*
X102700000Y-101850000D01*
D42*
X97850000Y-96350000D02*
X97515000Y-96015000D01*
D43*
X106200000Y-108650000D02*
X106200000Y-105400000D01*
D41*
X118600000Y-101000000D02*
X118600012Y-101000000D01*
D43*
X102700000Y-105400000D02*
X102700000Y-104100000D01*
X102700000Y-88850000D02*
X102700000Y-89800000D01*
X102700000Y-87800000D02*
X102700000Y-88850000D01*
X102700000Y-88850000D02*
X102700000Y-90200000D01*
D42*
X101665000Y-90465000D02*
X101850000Y-90650000D01*
D41*
X117475105Y-88224895D02*
X117475105Y-86675105D01*
D43*
X98900000Y-84000000D02*
X99700000Y-84000000D01*
D42*
X100765000Y-84865000D02*
X100324388Y-84424388D01*
D45*
X120512605Y-86675105D02*
X120650000Y-86812500D01*
D43*
X99700000Y-82350000D02*
X99700000Y-84000000D01*
X102700000Y-92600000D02*
X102700000Y-90200000D01*
X99700000Y-84000000D02*
X100100000Y-84000000D01*
D45*
X107400000Y-85600000D02*
X107800000Y-85600000D01*
D42*
X97665000Y-90465000D02*
X97050000Y-90465000D01*
D43*
X97850000Y-85050000D02*
X98900000Y-84000000D01*
X100100000Y-84000000D02*
X102100000Y-84000000D01*
X101850000Y-93450000D02*
X102700000Y-92600000D01*
D42*
X101665000Y-93265000D02*
X101850000Y-93450000D01*
D43*
X102700000Y-84600000D02*
X102700000Y-85600000D01*
D45*
X117475105Y-86675105D02*
X120512605Y-86675105D01*
D43*
X97850000Y-85050000D02*
X97850000Y-84550000D01*
X100100000Y-84390128D02*
X100134260Y-84424388D01*
D45*
X107900000Y-85600000D02*
X108450000Y-85600000D01*
D41*
X122800000Y-86562500D02*
X122550000Y-86812500D01*
D42*
X97050000Y-93265000D02*
X97665000Y-93265000D01*
D41*
X122800000Y-85585000D02*
X122800000Y-86562500D01*
D42*
X97665000Y-84865000D02*
X97850000Y-85050000D01*
D43*
X101850000Y-90650000D02*
X102700000Y-90650000D01*
D42*
X100324388Y-84424388D02*
X100134260Y-84424388D01*
D43*
X102700000Y-85600000D02*
X102700000Y-87800000D01*
X107800000Y-85600000D02*
X102700000Y-85600000D01*
D42*
X101050000Y-90465000D02*
X101665000Y-90465000D01*
X101050000Y-84865000D02*
X100765000Y-84865000D01*
X101622664Y-87665000D02*
X101828832Y-87871168D01*
X97050000Y-84865000D02*
X97665000Y-84865000D01*
X101050000Y-93265000D02*
X101665000Y-93265000D01*
D45*
X108400000Y-85600000D02*
X116400000Y-85600000D01*
D42*
X97850000Y-90650000D02*
X97665000Y-90465000D01*
D43*
X102100000Y-84000000D02*
X102700000Y-84600000D01*
D45*
X116400000Y-85600000D02*
X117475105Y-86675105D01*
D43*
X100100000Y-84000000D02*
X100100000Y-84390128D01*
D45*
X108450000Y-85600000D02*
X107800000Y-85600000D01*
D42*
X97050000Y-87665000D02*
X97665000Y-87665000D01*
X101050000Y-87665000D02*
X101622664Y-87665000D01*
D43*
X102628832Y-87871168D02*
X101828832Y-87871168D01*
D42*
X97665000Y-93265000D02*
X97850000Y-93450000D01*
D41*
X117000000Y-88700000D02*
X117475105Y-88224895D01*
D42*
X97665000Y-87665000D02*
X97850000Y-87850000D01*
D41*
X59700000Y-104000000D02*
X59900179Y-103799821D01*
X79313972Y-103799821D02*
X83300000Y-99813793D01*
X83300000Y-99813793D02*
X83300000Y-97500000D01*
X59900179Y-103799821D02*
X79313972Y-103799821D01*
X126300000Y-106115000D02*
X127000000Y-105415000D01*
X126300000Y-108700000D02*
X125400000Y-109600000D01*
X126300000Y-108700000D02*
X126300000Y-106115000D01*
X125400000Y-109600000D02*
X117500000Y-109600000D01*
X59700000Y-110000000D02*
X59700000Y-108800000D01*
X59700000Y-108800000D02*
X63800448Y-104699552D01*
X87299986Y-100700000D02*
X87499986Y-100900000D01*
X83724138Y-100700000D02*
X87299986Y-100700000D01*
X63800448Y-104699552D02*
X79724586Y-104699552D01*
X79724586Y-104699552D02*
X83724138Y-100700000D01*
X59700000Y-108000000D02*
X59700000Y-106900000D01*
X62200359Y-104399641D02*
X79600359Y-104399641D01*
X79600359Y-104399641D02*
X85700000Y-98300000D01*
X59700000Y-106900000D02*
X62200359Y-104399641D01*
X61600269Y-104099731D02*
X79450269Y-104099731D01*
X59700000Y-106000000D02*
X61600269Y-104099731D01*
X84900000Y-98650000D02*
X79450269Y-104099731D01*
X84900000Y-98300000D02*
X84900000Y-98650000D01*
D44*
X87154029Y-86168463D02*
X87176666Y-86132437D01*
X87195482Y-86050000D02*
X87190718Y-86007721D01*
X85452772Y-86252520D02*
X85563893Y-86240000D01*
X86017047Y-90034549D02*
X86064550Y-89987046D01*
X85347223Y-86289453D02*
X85452772Y-86252520D01*
X87154029Y-85931536D02*
X87123945Y-85901452D01*
X85896757Y-90092478D02*
X85960166Y-90070290D01*
X87190718Y-86092278D02*
X87195482Y-86050000D01*
X85982279Y-87304763D02*
X85940000Y-87300000D01*
X86629374Y-85860000D02*
X86518253Y-85847479D01*
X85064518Y-86739374D02*
X85077039Y-86628253D01*
X86130000Y-85360625D02*
X86130000Y-85075018D01*
X86130000Y-91000000D02*
X86122479Y-90933243D01*
X79907582Y-84498000D02*
X79280000Y-83870418D01*
X85793557Y-90700000D02*
X85726801Y-90692478D01*
X86318019Y-85751052D02*
X86238947Y-85671980D01*
X86122479Y-89866756D02*
X86130000Y-89800000D01*
X86142520Y-85471746D02*
X86130000Y-85360625D01*
X86179453Y-85577295D02*
X86142520Y-85471746D01*
X86125237Y-87447721D02*
X86111185Y-87407562D01*
X87005482Y-85860000D02*
X86629374Y-85860000D01*
X87047760Y-85864763D02*
X87005482Y-85860000D01*
X87123945Y-85901452D02*
X87087919Y-85878815D01*
X86130000Y-91789167D02*
X86130000Y-91000000D01*
X85606511Y-90634549D02*
X85559008Y-90587046D01*
X87005482Y-86240000D02*
X87047760Y-86235236D01*
X85606511Y-90165450D02*
X85663392Y-90129709D01*
X85960166Y-90070290D02*
X86017047Y-90034549D01*
X86058464Y-87341452D02*
X86022438Y-87318815D01*
X86122479Y-90933243D02*
X86100291Y-90869834D01*
X85663392Y-90129709D02*
X85726801Y-90107521D01*
X78680000Y-79620418D02*
X79280000Y-80220418D01*
X85252538Y-86348947D02*
X85347223Y-86289453D01*
X85940000Y-87300000D02*
X85563893Y-87300000D01*
X86088548Y-87371536D02*
X86058464Y-87341452D01*
X85077039Y-86911746D02*
X85064518Y-86800625D01*
X85452772Y-87287479D02*
X85347223Y-87250546D01*
X85559008Y-90212953D02*
X85606511Y-90165450D01*
X85064518Y-86800625D02*
X85064518Y-86739374D01*
X85700000Y-91900000D02*
X86019167Y-91900000D01*
X86022438Y-87318815D02*
X85982279Y-87304763D01*
X86111185Y-87407562D02*
X86088548Y-87371536D01*
X86518253Y-85847479D02*
X86412704Y-85810546D01*
X85559008Y-90587046D02*
X85523267Y-90530165D01*
X86238947Y-85671980D02*
X86179453Y-85577295D01*
X86412704Y-85810546D02*
X86318019Y-85751052D01*
X85347223Y-87250546D02*
X85252538Y-87191052D01*
X85726801Y-90692478D02*
X85663392Y-90670290D01*
X86100291Y-90869834D02*
X86064550Y-90812953D01*
X79280000Y-80220418D02*
X79280000Y-83870418D01*
X87176666Y-85967562D02*
X87154029Y-85931536D01*
X86130000Y-85075018D02*
X85552982Y-84498000D01*
X87190718Y-86007721D02*
X87176666Y-85967562D01*
X86017047Y-90765450D02*
X85960166Y-90729709D01*
X85113972Y-87017295D02*
X85077039Y-86911746D01*
X87123945Y-86198547D02*
X87154029Y-86168463D01*
X85501079Y-90466756D02*
X85493557Y-90400000D01*
X86064550Y-89987046D02*
X86100291Y-89930165D01*
X86019167Y-91900000D02*
X86130000Y-91789167D01*
X85896757Y-90707521D02*
X85830000Y-90700000D01*
X85830000Y-90700000D02*
X85793557Y-90700000D01*
X78680000Y-76980000D02*
X78680000Y-79620418D01*
X86130000Y-89800000D02*
X86130000Y-87490000D01*
X78680000Y-76980000D02*
X78200000Y-76500000D01*
X85663392Y-90670290D02*
X85606511Y-90634549D01*
X85173466Y-86428019D02*
X85252538Y-86348947D01*
X85960166Y-90729709D02*
X85896757Y-90707521D01*
X85563893Y-86240000D02*
X87005482Y-86240000D01*
X85726801Y-90107521D02*
X85793557Y-90100000D01*
X85173466Y-87111980D02*
X85113972Y-87017295D01*
X87176666Y-86132437D02*
X87190718Y-86092278D01*
X87087919Y-85878815D02*
X87047760Y-85864763D01*
X87087919Y-86221184D02*
X87123945Y-86198547D01*
X85793557Y-90100000D02*
X85830000Y-90100000D01*
X86064550Y-90812953D02*
X86017047Y-90765450D01*
X87047760Y-86235236D02*
X87087919Y-86221184D01*
X85830000Y-90100000D02*
X85896757Y-90092478D01*
X85493557Y-90400000D02*
X85501079Y-90333243D01*
X85501079Y-90333243D02*
X85523267Y-90269834D01*
X86100291Y-89930165D02*
X86122479Y-89866756D01*
X85077039Y-86628253D02*
X85113972Y-86522704D01*
X85523267Y-90530165D02*
X85501079Y-90466756D01*
X85552982Y-84498000D02*
X79907582Y-84498000D01*
X86130000Y-87490000D02*
X86125237Y-87447721D01*
X85563893Y-87300000D02*
X85452772Y-87287479D01*
X85252538Y-87191052D02*
X85173466Y-87111980D01*
X85113972Y-86522704D02*
X85173466Y-86428019D01*
X85523267Y-90269834D02*
X85559008Y-90212953D01*
X77852006Y-83602966D02*
X77861474Y-83644446D01*
X81615013Y-87417859D02*
X81653346Y-87436319D01*
X76887575Y-81196605D02*
X76996596Y-81221488D01*
X76565979Y-81270006D02*
X76666730Y-81221488D01*
X77371207Y-81792060D02*
X77346324Y-81901081D01*
X77879935Y-83682780D02*
X77906461Y-83716044D01*
X83136548Y-87204519D02*
X83161432Y-87313541D01*
X76861704Y-82664550D02*
X76888231Y-82697813D01*
X83088028Y-87103766D02*
X83136548Y-87204519D01*
X77906461Y-83716044D02*
X81581749Y-87391332D01*
X83792687Y-89362087D02*
X83853213Y-89332939D01*
X75220000Y-76980000D02*
X75220000Y-79479582D01*
X82573471Y-88174145D02*
X82555011Y-88212479D01*
X77043852Y-82752266D02*
X77085333Y-82742800D01*
X83161432Y-87425368D02*
X83136548Y-87534391D01*
X77001306Y-82752266D02*
X77043852Y-82752266D01*
X83594519Y-89362087D02*
X83660014Y-89377036D01*
X78224661Y-83129146D02*
X77906461Y-83447343D01*
X77097347Y-81270007D02*
X77184774Y-81339728D01*
X77085333Y-82742800D02*
X77123665Y-82724339D01*
X84423871Y-89579433D02*
X84394723Y-89639959D01*
X77852006Y-83560420D02*
X77852006Y-83602966D01*
X83018305Y-87722573D02*
X82599998Y-88140881D01*
X82555011Y-88337985D02*
X82573471Y-88376318D01*
X84470000Y-91789167D02*
X84580833Y-91900000D01*
X81653346Y-87436319D02*
X81694826Y-87445787D01*
X83533993Y-89332939D02*
X83594519Y-89362087D01*
X77228084Y-81383037D02*
X77297806Y-81470466D01*
X82545543Y-88296505D02*
X82555011Y-88337985D01*
X76888231Y-82697813D02*
X76921493Y-82724339D01*
X76996596Y-81221488D02*
X77097347Y-81270007D01*
X76833775Y-82584736D02*
X76843243Y-82626216D01*
X77906461Y-83447343D02*
X77879935Y-83480608D01*
X81850449Y-87391332D02*
X82268758Y-86973025D01*
X83905735Y-89291054D02*
X83928573Y-89268217D01*
X77793982Y-82214835D02*
X77905806Y-82214835D01*
X76138698Y-81679581D02*
X76478552Y-81339728D01*
X83928573Y-89268217D02*
X83981096Y-89226331D01*
X76025621Y-81734036D02*
X76067102Y-81724570D01*
X77346324Y-81901081D02*
X77297805Y-82001832D01*
X82565963Y-86829899D02*
X82677789Y-86829899D01*
X84244019Y-89893862D02*
X84244019Y-89961041D01*
X81817185Y-87417859D02*
X81850449Y-87391332D01*
X77156929Y-82697811D02*
X77496783Y-82357958D01*
X82599998Y-88409582D02*
X83481472Y-89291055D01*
X76843243Y-82500710D02*
X76833775Y-82542190D01*
X81694826Y-87445787D02*
X81737372Y-87445787D01*
X75870000Y-80129582D02*
X75870000Y-81679583D01*
X83088028Y-87635143D02*
X83018305Y-87722573D01*
X82456940Y-86854782D02*
X82565963Y-86829899D01*
X77584210Y-82288236D02*
X77684961Y-82239718D01*
X84423871Y-89381265D02*
X84438820Y-89446760D01*
X82677789Y-86829899D02*
X82786812Y-86854782D01*
X76105434Y-81706109D02*
X76138698Y-81679581D01*
X82786812Y-86854782D02*
X82887564Y-86903302D01*
X77297805Y-82001832D02*
X77228084Y-82089259D01*
X78014827Y-82239718D02*
X78115578Y-82288237D01*
X78316037Y-82488696D02*
X78364555Y-82589445D01*
X84330001Y-90139584D02*
X84470000Y-90279582D01*
X77861474Y-83644446D02*
X77879935Y-83682780D01*
X83853213Y-89332939D02*
X83905735Y-89291054D01*
X82887564Y-86903302D02*
X82974994Y-86973025D01*
X84330001Y-89715319D02*
X84288115Y-89767842D01*
X84300315Y-89226331D02*
X84352838Y-89268217D01*
X83481472Y-89291055D02*
X83533993Y-89332939D01*
X83018306Y-87016337D02*
X83088028Y-87103766D01*
X76067102Y-81724570D02*
X76105434Y-81706109D01*
X84174295Y-89182235D02*
X84239789Y-89197184D01*
X83136548Y-87534391D02*
X83088028Y-87635143D01*
X77861474Y-83518940D02*
X77852006Y-83560420D01*
X84352838Y-89692481D02*
X84330001Y-89715319D01*
X77297806Y-81470466D02*
X77346324Y-81571215D01*
X84394723Y-89320739D02*
X84423871Y-89381265D01*
X76833775Y-82542190D02*
X76833775Y-82584736D01*
X78364555Y-82919311D02*
X78316036Y-83020062D01*
X78389438Y-82810290D02*
X78364555Y-82919311D01*
X75700000Y-76500000D02*
X75220000Y-76980000D01*
X84041622Y-89197184D02*
X84107116Y-89182235D01*
X84580833Y-91900000D02*
X84900000Y-91900000D01*
X84288115Y-90087061D02*
X84330001Y-90139584D01*
X84438820Y-89513938D02*
X84423871Y-89579433D01*
X84239789Y-89197184D02*
X84300315Y-89226331D01*
X83660014Y-89377036D02*
X83727192Y-89377036D01*
X77879935Y-83480608D02*
X77861474Y-83518940D01*
X77123665Y-82724339D02*
X77156929Y-82697811D01*
X78389438Y-82698466D02*
X78389438Y-82810290D01*
X82974994Y-86973025D02*
X83018306Y-87016337D01*
X83727192Y-89377036D02*
X83792687Y-89362087D01*
X77684961Y-82239718D02*
X77793982Y-82214835D01*
X75903262Y-81706109D02*
X75941596Y-81724570D01*
X76888230Y-82429113D02*
X76861704Y-82462378D01*
X76478552Y-81339728D02*
X76565979Y-81270006D01*
X76861704Y-82462378D02*
X76843243Y-82500710D01*
X77184774Y-81339728D02*
X77228084Y-81383037D01*
X82555011Y-88212479D02*
X82545543Y-88253958D01*
X78246315Y-83107489D02*
X78224661Y-83129146D01*
X81737372Y-87445787D02*
X81778852Y-87436319D01*
X77228084Y-82089259D02*
X77206430Y-82110916D01*
X81778852Y-87436319D02*
X81817185Y-87417859D01*
X84244019Y-89961041D02*
X84258968Y-90026535D01*
X82268758Y-86973025D02*
X82356187Y-86903302D01*
X76921493Y-82724339D02*
X76959827Y-82742800D01*
X84288115Y-89767842D02*
X84258968Y-89828368D01*
X84258968Y-90026535D02*
X84288115Y-90087061D01*
X77206430Y-82110916D02*
X76888230Y-82429113D01*
X82545543Y-88253958D02*
X82545543Y-88296505D01*
X75220000Y-79479582D02*
X75870000Y-80129582D01*
X84352838Y-89268217D02*
X84394723Y-89320739D01*
X78364555Y-82589445D02*
X78389438Y-82698466D01*
X82599998Y-88140881D02*
X82573471Y-88174145D01*
X78203005Y-82357958D02*
X78246315Y-82401267D01*
X76959827Y-82742800D02*
X77001306Y-82752266D01*
X84258968Y-89828368D02*
X84244019Y-89893862D01*
X77905806Y-82214835D02*
X78014827Y-82239718D01*
X84470000Y-90279582D02*
X84470000Y-91789167D01*
X76843243Y-82626216D02*
X76861704Y-82664550D01*
X84107116Y-89182235D02*
X84174295Y-89182235D01*
X78115578Y-82288237D02*
X78203005Y-82357958D01*
X77496783Y-82357958D02*
X77584210Y-82288236D01*
X77371207Y-81680236D02*
X77371207Y-81792060D01*
X76666730Y-81221488D02*
X76775751Y-81196605D01*
X78246315Y-82401267D02*
X78316037Y-82488696D01*
X81581749Y-87391332D02*
X81615013Y-87417859D01*
X84438820Y-89446760D02*
X84438820Y-89513938D01*
X82356187Y-86903302D02*
X82456940Y-86854782D01*
X78316036Y-83020062D02*
X78246315Y-83107489D01*
X83981096Y-89226331D02*
X84041622Y-89197184D01*
X84394723Y-89639959D02*
X84352838Y-89692481D01*
X75941596Y-81724570D02*
X75983075Y-81734036D01*
X82573471Y-88376318D02*
X82599998Y-88409582D01*
X75870000Y-81679583D02*
X75903262Y-81706109D01*
X75983075Y-81734036D02*
X76025621Y-81734036D01*
X77346324Y-81571215D02*
X77371207Y-81680236D01*
X76775751Y-81196605D02*
X76887575Y-81196605D01*
X83161432Y-87313541D02*
X83161432Y-87425368D01*
X63909722Y-81169304D02*
X68790418Y-86050000D01*
X80670000Y-91339582D02*
X80670000Y-91670000D01*
X80670000Y-91670000D02*
X80900000Y-91900000D01*
X63795000Y-76955000D02*
X63795000Y-79891868D01*
X63795000Y-79891868D02*
X63909722Y-80006590D01*
X75380418Y-86050000D02*
X80670000Y-91339582D01*
X64250000Y-76500000D02*
X63795000Y-76955000D01*
X63909722Y-80006590D02*
X63909722Y-81169304D01*
X68790418Y-86050000D02*
X75380418Y-86050000D01*
X75239582Y-86390000D02*
X68649582Y-86390000D01*
X68649582Y-86390000D02*
X63569811Y-81310229D01*
X63455000Y-76845598D02*
X63114727Y-76505325D01*
X63455000Y-80032574D02*
X63455000Y-76845598D01*
X63569811Y-81310229D02*
X63569811Y-80147385D01*
X80100000Y-91900000D02*
X80330000Y-91670000D01*
X80330000Y-91480418D02*
X75239582Y-86390000D01*
X80330000Y-91670000D02*
X80330000Y-91480418D01*
X63569811Y-80147385D02*
X63455000Y-80032574D01*
X87103852Y-87222704D02*
X87163346Y-87128019D01*
X87979582Y-92550000D02*
X88190000Y-92339582D01*
X88190000Y-92339582D02*
X88182479Y-92272825D01*
X86500000Y-92700000D02*
X86650000Y-92550000D01*
X87956757Y-92047103D02*
X87890000Y-92039582D01*
X89135601Y-88000000D02*
X87553773Y-88000000D01*
X88689375Y-88380000D02*
X89135601Y-88380000D01*
X88378020Y-88488947D02*
X88472705Y-88429453D01*
X87553773Y-88000000D02*
X87442652Y-87987479D01*
X87859770Y-91439582D02*
X87890000Y-91439582D01*
X88020166Y-91409872D02*
X88077047Y-91374131D01*
X89177880Y-88004763D02*
X89135601Y-88000000D01*
X87163346Y-87128019D02*
X87242418Y-87048947D01*
X86650000Y-92550000D02*
X87979582Y-92550000D01*
X87890000Y-91439582D02*
X87956757Y-91432060D01*
X88182479Y-92272825D02*
X88160291Y-92209416D01*
X89254065Y-88338547D02*
X89284149Y-88308463D01*
X88160291Y-91269747D02*
X88182479Y-91206338D01*
X88000000Y-86940000D02*
X88042278Y-86935236D01*
X87054399Y-87500625D02*
X87054399Y-87439374D01*
X87793014Y-92032060D02*
X87729605Y-92009872D01*
X87442652Y-87987479D02*
X87337103Y-87950546D01*
X87066919Y-87611746D02*
X87054399Y-87500625D01*
X88118463Y-86898547D02*
X88148547Y-86868463D01*
X83130000Y-80270418D02*
X82480000Y-79620418D01*
X88077047Y-91374131D02*
X88124550Y-91326628D01*
X88190000Y-91139582D02*
X88190000Y-88879374D01*
X88202521Y-88768253D02*
X88239454Y-88662704D01*
X82480000Y-79620418D02*
X82480000Y-76980000D01*
X88082437Y-86921184D02*
X88118463Y-86898547D01*
X88472705Y-88429453D02*
X88578254Y-88392520D01*
X89177880Y-88375236D02*
X89218039Y-88361184D01*
X87625221Y-91552535D02*
X87672724Y-91505032D01*
X88148547Y-86868463D02*
X88171184Y-86832437D01*
X88124550Y-92152535D02*
X88077047Y-92105032D01*
X88077047Y-92105032D02*
X88020166Y-92069291D01*
X87242418Y-87048947D02*
X87337103Y-86989453D01*
X87553773Y-86940000D02*
X88000000Y-86940000D01*
X88042278Y-86935236D02*
X88082437Y-86921184D01*
X88239454Y-88662704D02*
X88298948Y-88568019D01*
X87672724Y-91974131D02*
X87625221Y-91926628D01*
X88190000Y-88879374D02*
X88202521Y-88768253D01*
X89135601Y-88380000D02*
X89177880Y-88375236D01*
X83130000Y-82887818D02*
X83130000Y-80270418D01*
X87337103Y-87950546D02*
X87242418Y-87891052D01*
X87672724Y-91505032D02*
X87729605Y-91469291D01*
X87793014Y-91447103D02*
X87859770Y-91439582D01*
X88020166Y-92069291D02*
X87956757Y-92047103D01*
X89218039Y-88018815D02*
X89177880Y-88004763D01*
X87589480Y-91869747D02*
X87567292Y-91806338D01*
X87066919Y-87328253D02*
X87103852Y-87222704D01*
X89306786Y-88107562D02*
X89284149Y-88071536D01*
X87442652Y-86952520D02*
X87553773Y-86940000D01*
X88298948Y-88568019D02*
X88378020Y-88488947D01*
X87103852Y-87717295D02*
X87066919Y-87611746D01*
X88190000Y-84899818D02*
X86848382Y-83558200D01*
X89254065Y-88041452D02*
X89218039Y-88018815D01*
X82480000Y-76980000D02*
X82000000Y-76500000D01*
X87890000Y-92039582D02*
X87859770Y-92039582D01*
X87729605Y-92009872D02*
X87672724Y-91974131D01*
X87625221Y-91926628D02*
X87589480Y-91869747D01*
X89320838Y-88232278D02*
X89325601Y-88190000D01*
X89306786Y-88272437D02*
X89320838Y-88232278D01*
X89284149Y-88308463D02*
X89306786Y-88272437D01*
X87567292Y-91672825D02*
X87589480Y-91609416D01*
X88124550Y-91326628D02*
X88160291Y-91269747D01*
X87242418Y-87891052D02*
X87163346Y-87811980D01*
X88160291Y-92209416D02*
X88124550Y-92152535D01*
X87567292Y-91806338D02*
X87559770Y-91739582D01*
X89325601Y-88190000D02*
X89320838Y-88147721D01*
X88171184Y-86832437D02*
X88185236Y-86792278D01*
X87956757Y-91432060D02*
X88020166Y-91409872D01*
X87559770Y-91739582D02*
X87567292Y-91672825D01*
X88578254Y-88392520D02*
X88689375Y-88380000D01*
X87054399Y-87439374D02*
X87066919Y-87328253D01*
X87729605Y-91469291D02*
X87793014Y-91447103D01*
X88185236Y-86792278D02*
X88190000Y-86750000D01*
X87163346Y-87811980D02*
X87103852Y-87717295D01*
X87859770Y-92039582D02*
X87793014Y-92032060D01*
X88190000Y-86750000D02*
X88190000Y-84899818D01*
X87337103Y-86989453D02*
X87442652Y-86952520D01*
X86848382Y-83558200D02*
X83800382Y-83558200D01*
X89320838Y-88147721D02*
X89306786Y-88107562D01*
X89218039Y-88361184D02*
X89254065Y-88338547D01*
X88182479Y-91206338D02*
X88190000Y-91139582D01*
X89284149Y-88071536D02*
X89254065Y-88041452D01*
X87589480Y-91609416D02*
X87625221Y-91552535D01*
X83800382Y-83558200D02*
X83130000Y-82887818D01*
X86470000Y-84934182D02*
X85693818Y-84158000D01*
X79020000Y-76980000D02*
X79020000Y-79479582D01*
X80048418Y-84158000D02*
X79620000Y-83729582D01*
X79020000Y-79479582D02*
X79620000Y-80079582D01*
X86617721Y-85515236D02*
X86577562Y-85501184D01*
X86457480Y-87348253D02*
X86420547Y-87242704D01*
X85700000Y-92700000D02*
X86470000Y-91930000D01*
X87535482Y-86019374D02*
X87522961Y-85908253D01*
X86081747Y-86972520D02*
X85970626Y-86960000D01*
X85423334Y-86852437D02*
X85409282Y-86812278D01*
X86511452Y-85448463D02*
X86488815Y-85412437D01*
X87486028Y-86297295D02*
X87522961Y-86191746D01*
X87347462Y-86471052D02*
X87426534Y-86391980D01*
X86577562Y-85501184D02*
X86541536Y-85478547D01*
X86361053Y-87148019D02*
X86281981Y-87068947D01*
X85512081Y-86598815D02*
X85552240Y-86584763D01*
X86660000Y-85520000D02*
X86617721Y-85515236D01*
X86470000Y-85330000D02*
X86470000Y-84934182D01*
X85552240Y-86955236D02*
X85512081Y-86941184D01*
X85404518Y-86770000D02*
X85409282Y-86727721D01*
X87147228Y-86567479D02*
X87252777Y-86530546D01*
X85445971Y-86651536D02*
X85476055Y-86621452D01*
X87252777Y-85569453D02*
X87147228Y-85532520D01*
X87036107Y-86580000D02*
X87147228Y-86567479D01*
X85594518Y-86960000D02*
X85552240Y-86955236D01*
X87486028Y-85802704D02*
X87426534Y-85708019D01*
X86488815Y-85412437D02*
X86474763Y-85372278D01*
X86420547Y-87242704D02*
X86361053Y-87148019D01*
X85594518Y-86580000D02*
X87036107Y-86580000D01*
X87426534Y-85708019D02*
X87347462Y-85628947D01*
X79620000Y-80079582D02*
X79620000Y-83729582D01*
X86470000Y-87459374D02*
X86457480Y-87348253D01*
X87426534Y-86391980D02*
X87486028Y-86297295D01*
X85476055Y-86621452D02*
X85512081Y-86598815D01*
X85445971Y-86888463D02*
X85423334Y-86852437D01*
X86541536Y-85478547D02*
X86511452Y-85448463D01*
X87522961Y-85908253D02*
X87486028Y-85802704D01*
X85423334Y-86687562D02*
X85445971Y-86651536D01*
X86470000Y-91930000D02*
X86470000Y-87459374D01*
X85409282Y-86812278D02*
X85404518Y-86770000D01*
X85693818Y-84158000D02*
X80048418Y-84158000D01*
X86474763Y-85372278D02*
X86470000Y-85330000D01*
X87522961Y-86191746D02*
X87535482Y-86080625D01*
X85552240Y-86584763D02*
X85594518Y-86580000D01*
X87036107Y-85520000D02*
X86660000Y-85520000D01*
X86281981Y-87068947D02*
X86187296Y-87009453D01*
X85512081Y-86941184D02*
X85476055Y-86918547D01*
X87147228Y-85532520D02*
X87036107Y-85520000D01*
X85476055Y-86918547D02*
X85445971Y-86888463D01*
X86187296Y-87009453D02*
X86081747Y-86972520D01*
X85970626Y-86960000D02*
X85594518Y-86960000D01*
X79020000Y-76980000D02*
X79500000Y-76500000D01*
X85409282Y-86727721D02*
X85423334Y-86687562D01*
X87535482Y-86080625D02*
X87535482Y-86019374D01*
X87252777Y-86530546D02*
X87347462Y-86471052D01*
X87347462Y-85628947D02*
X87252777Y-85569453D01*
X77501267Y-83637605D02*
X77526150Y-83746626D01*
X82194793Y-88331145D02*
X82219677Y-88440168D01*
X77984245Y-82888730D02*
X77644390Y-83228582D01*
X76852937Y-81547345D02*
X76894417Y-81556813D01*
X77526150Y-83746626D02*
X77574669Y-83847377D01*
X76730577Y-81575272D02*
X76768911Y-81556813D01*
X81660186Y-87796537D02*
X81772013Y-87796538D01*
X77020469Y-81714877D02*
X77020469Y-81757423D01*
X82268196Y-88540920D02*
X82337919Y-88628350D01*
X77574670Y-83316011D02*
X77526150Y-83416760D01*
X75530000Y-81820418D02*
X75651238Y-81941654D01*
X74400000Y-76500000D02*
X74880000Y-76980000D01*
X76966014Y-81601800D02*
X76992540Y-81635063D01*
X77748808Y-82593502D02*
X77787142Y-82575043D01*
X81981788Y-87723134D02*
X82069218Y-87653411D01*
X77574669Y-83847377D02*
X77644390Y-83934804D01*
X76483036Y-82507551D02*
X76483036Y-82619375D01*
X76556438Y-82829147D02*
X76626159Y-82916574D01*
X82810682Y-87348182D02*
X82810682Y-87390728D01*
X76966014Y-81870500D02*
X76626159Y-82210352D01*
X76894417Y-81556813D02*
X76932749Y-81575272D01*
X77187513Y-83078124D02*
X77288262Y-83029604D01*
X77787142Y-82575043D02*
X77828622Y-82565575D01*
X82722962Y-87208577D02*
X82756227Y-87235105D01*
X77950980Y-82593502D02*
X77984245Y-82620030D01*
X82219677Y-88110295D02*
X82194793Y-88219318D01*
X77526150Y-83416760D02*
X77501267Y-83525781D01*
X76669469Y-82959884D02*
X76756896Y-83029605D01*
X76756896Y-83029605D02*
X76857647Y-83078124D01*
X82194793Y-88219318D02*
X82194793Y-88331145D01*
X78010771Y-82653293D02*
X78029232Y-82691627D01*
X77288262Y-83029604D02*
X77375691Y-82959884D01*
X81772013Y-87796538D02*
X81881036Y-87771654D01*
X74880000Y-76980000D02*
X74880000Y-79620418D01*
X76060261Y-82084777D02*
X76169282Y-82059894D01*
X75948437Y-82084777D02*
X76060261Y-82084777D01*
X78038700Y-82775653D02*
X78029232Y-82817133D01*
X76932749Y-81575272D02*
X76966014Y-81601800D01*
X82810682Y-87390728D02*
X82801214Y-87432208D01*
X77644390Y-83228582D02*
X77574670Y-83316011D01*
X76169282Y-82059894D02*
X76270031Y-82011374D01*
X82782754Y-87470541D02*
X82756227Y-87503805D01*
X84130000Y-90420418D02*
X84130000Y-91930000D01*
X77501267Y-83525781D02*
X77501267Y-83637605D01*
X76626159Y-82916574D02*
X76669469Y-82959884D01*
X81450411Y-87723134D02*
X81551163Y-87771654D01*
X76992540Y-81837235D02*
X76966014Y-81870500D01*
X75530000Y-80270418D02*
X75530000Y-81820418D01*
X77011001Y-81673397D02*
X77020469Y-81714877D01*
X82337919Y-88628350D02*
X84129988Y-90420418D01*
X75839416Y-82059894D02*
X75948437Y-82084777D01*
X77375691Y-82959884D02*
X77715545Y-82620030D01*
X77644390Y-83934804D02*
X77644390Y-83934820D01*
X77011001Y-81798903D02*
X76992540Y-81837235D01*
X75651238Y-81941654D02*
X75738665Y-82011375D01*
X78029232Y-82817133D02*
X78010771Y-82855465D01*
X76992540Y-81635063D02*
X77011001Y-81673397D01*
X76507919Y-82728396D02*
X76556438Y-82829147D01*
X84129988Y-90420418D02*
X84130000Y-90420418D01*
X81881036Y-87771654D02*
X81981788Y-87723134D01*
X76507919Y-82398530D02*
X76483036Y-82507551D01*
X76270031Y-82011374D02*
X76357460Y-81941654D01*
X82520790Y-87208577D02*
X82559123Y-87190117D01*
X76357460Y-81941654D02*
X76697314Y-81601800D01*
X82559123Y-87190117D02*
X82600603Y-87180649D01*
X82782754Y-87268369D02*
X82801214Y-87306702D01*
X77828622Y-82565575D02*
X77871168Y-82565575D01*
X77912648Y-82575043D02*
X77950980Y-82593502D01*
X82268197Y-88009543D02*
X82219677Y-88110295D01*
X82801214Y-87306702D02*
X82810682Y-87348182D01*
X76857647Y-83078124D02*
X76966668Y-83103007D01*
X82684629Y-87190117D02*
X82722962Y-87208577D01*
X78010771Y-82855465D02*
X77984245Y-82888730D01*
X82801214Y-87432208D02*
X82782754Y-87470541D01*
X82643149Y-87180649D02*
X82684629Y-87190117D01*
X77020469Y-81757423D02*
X77011001Y-81798903D01*
X77715545Y-82620030D02*
X77748808Y-82593502D01*
X81551163Y-87771654D02*
X81660186Y-87796537D01*
X82219677Y-88440168D02*
X82268196Y-88540920D01*
X81362981Y-87653411D02*
X81450411Y-87723134D01*
X76556439Y-82297781D02*
X76507919Y-82398530D01*
X82487526Y-87235104D02*
X82520790Y-87208577D01*
X76626159Y-82210352D02*
X76556439Y-82297781D01*
X74880000Y-79620418D02*
X75530000Y-80270418D01*
X82069218Y-87653411D02*
X82487526Y-87235104D01*
X82756227Y-87235105D02*
X82782754Y-87268369D01*
X75738665Y-82011375D02*
X75839416Y-82059894D01*
X76697314Y-81601800D02*
X76730577Y-81575272D01*
X78038700Y-82733107D02*
X78038700Y-82775653D01*
X76966668Y-83103007D02*
X77078492Y-83103007D01*
X76483036Y-82619375D02*
X76507919Y-82728396D01*
X77984245Y-82620030D02*
X78010771Y-82653293D01*
X78029232Y-82691627D02*
X78038700Y-82733107D01*
X76768911Y-81556813D02*
X76810391Y-81547345D01*
X82600603Y-87180649D02*
X82643149Y-87180649D01*
X77871168Y-82565575D02*
X77912648Y-82575043D01*
X77644390Y-83934820D02*
X81362981Y-87653411D01*
X82337919Y-87922113D02*
X82268197Y-88009543D01*
X76810391Y-81547345D02*
X76852937Y-81547345D01*
X77078492Y-83103007D02*
X77187513Y-83078124D01*
X82756227Y-87503805D02*
X82337919Y-87922113D01*
X84130000Y-91930000D02*
X84900000Y-92700000D01*
X72963296Y-81603714D02*
X72893573Y-81516284D01*
X73269885Y-80262409D02*
X73231552Y-80243948D01*
X82522503Y-90404938D02*
X82493355Y-90344411D01*
X82493356Y-90663631D02*
X82522502Y-90603104D01*
X75299600Y-83159600D02*
X75290010Y-83150010D01*
X82234081Y-91093284D02*
X82234080Y-91026104D01*
X72963296Y-80897488D02*
X73303148Y-80557635D01*
X71502587Y-80169615D02*
X71484127Y-80131282D01*
X82451470Y-90716152D02*
X82493356Y-90663631D01*
X73348135Y-80360532D02*
X73329676Y-80322200D01*
X72461694Y-80861694D02*
X71867282Y-81456106D01*
X82744326Y-91271826D02*
X82691805Y-91313712D01*
X71484127Y-80131282D02*
X71457600Y-80098017D01*
X82522502Y-90603104D02*
X82537452Y-90537611D01*
X72893574Y-80984916D02*
X72963296Y-80897488D01*
X73147525Y-80234480D02*
X73106046Y-80243948D01*
X82320063Y-90847562D02*
X82451470Y-90716152D01*
X83300000Y-91140418D02*
X83247478Y-91098533D01*
X71779854Y-81525828D02*
X71679103Y-81574347D01*
X82691805Y-91313712D02*
X82631278Y-91342858D01*
X71512055Y-80253641D02*
X71512055Y-80211094D01*
X82372585Y-91313711D02*
X82320062Y-91271826D01*
X71502587Y-80295121D02*
X71512055Y-80253641D01*
X73329676Y-80322200D02*
X73303148Y-80288935D01*
X83300000Y-92700000D02*
X83300000Y-91140418D01*
X73357603Y-80402012D02*
X73348135Y-80360532D01*
X72461692Y-80861692D02*
X72461694Y-80861694D01*
X73106046Y-80243948D02*
X73067713Y-80262409D01*
X82249029Y-91158777D02*
X82234081Y-91093284D01*
X82249030Y-90960611D02*
X82278176Y-90900084D01*
X71458257Y-81599230D02*
X71349236Y-81574347D01*
X82451471Y-90291889D02*
X75319182Y-83159600D01*
X73190071Y-80234480D02*
X73147525Y-80234480D01*
X73303148Y-80557635D02*
X73329676Y-80524372D01*
X73329676Y-80524372D02*
X73348135Y-80486038D01*
X70974623Y-81003770D02*
X70999506Y-80894749D01*
X74509592Y-83150010D02*
X72963296Y-81603714D01*
X72820172Y-81194688D02*
X72845055Y-81085667D01*
X82928258Y-91098532D02*
X82875736Y-91140419D01*
X82537451Y-90470431D02*
X82522503Y-90404938D01*
X82433112Y-91342859D02*
X82372585Y-91313711D01*
X70999506Y-81224617D02*
X70974623Y-81115595D01*
X71570082Y-81599230D02*
X71458257Y-81599230D01*
X83054278Y-91054436D02*
X82988785Y-91069386D01*
X71117747Y-80706570D02*
X71457600Y-80366718D01*
X72893573Y-81516284D02*
X72845055Y-81415535D01*
X71867282Y-81456106D02*
X71779854Y-81525828D01*
X82278176Y-90900084D02*
X82320063Y-90847562D01*
X71457600Y-80098017D02*
X71080000Y-79720418D01*
X82988785Y-91069386D02*
X82928258Y-91098532D01*
X73067713Y-80262409D02*
X73034448Y-80288935D01*
X83121458Y-91054437D02*
X83054278Y-91054436D01*
X72845055Y-81085667D02*
X72893574Y-80984916D01*
X73357603Y-80444558D02*
X73357603Y-80402012D01*
X71512055Y-80211094D02*
X71502587Y-80169615D01*
X71048025Y-80793998D02*
X71117747Y-80706570D01*
X82278177Y-91219304D02*
X82249029Y-91158777D01*
X82234080Y-91026104D02*
X82249030Y-90960611D01*
X73303148Y-80288935D02*
X73269885Y-80262409D01*
X71080000Y-76980000D02*
X70600000Y-76500000D01*
X71484127Y-80333454D02*
X71502587Y-80295121D01*
X70974623Y-81115595D02*
X70974623Y-81003770D01*
X71679103Y-81574347D02*
X71570082Y-81599230D01*
X71349236Y-81574347D02*
X71248485Y-81525828D01*
X82493355Y-90344411D02*
X82451471Y-90291889D01*
X73231552Y-80243948D02*
X73190071Y-80234480D01*
X72845055Y-81415535D02*
X72820171Y-81306512D01*
X75319182Y-83159600D02*
X75299600Y-83159600D01*
X82537452Y-90537611D02*
X82537451Y-90470431D01*
X70999506Y-80894749D02*
X71048025Y-80793998D01*
X73034448Y-80288935D02*
X72461692Y-80861692D01*
X71117747Y-81412796D02*
X71048025Y-81325367D01*
X82498605Y-91357807D02*
X82433112Y-91342859D01*
X73348135Y-80486038D02*
X73357603Y-80444558D01*
X82875736Y-91140419D02*
X82744326Y-91271826D01*
X71457600Y-80366718D02*
X71484127Y-80333454D01*
X71248485Y-81525828D02*
X71161057Y-81456106D01*
X82565785Y-91357808D02*
X82498605Y-91357807D01*
X82631278Y-91342858D02*
X82565785Y-91357808D01*
X72820171Y-81306512D02*
X72820172Y-81194688D01*
X83186951Y-91069385D02*
X83121458Y-91054437D01*
X71080000Y-79720418D02*
X71080000Y-76980000D01*
X71161057Y-81456106D02*
X71117747Y-81412796D01*
X82320062Y-91271826D02*
X82278177Y-91219304D01*
X71048025Y-81325367D02*
X70999506Y-81224617D01*
X83247478Y-91098533D02*
X83186951Y-91069385D01*
X75290010Y-83150010D02*
X74509592Y-83150010D01*
X73232401Y-83068947D02*
X73137716Y-83009452D01*
X81469908Y-90555408D02*
X81511793Y-90502885D01*
X72355654Y-83982278D02*
X72341602Y-84022437D01*
X72372938Y-83348253D02*
X72360418Y-83459375D01*
X80912686Y-90222085D02*
X80847191Y-90237034D01*
X80653992Y-90192937D02*
X80601471Y-90151053D01*
X72341602Y-84022437D02*
X72318965Y-84058463D01*
X81540941Y-90442360D02*
X81555890Y-90376865D01*
X73425185Y-83982278D02*
X73420422Y-83939999D01*
X74580417Y-84129999D02*
X73610422Y-84129999D01*
X81511793Y-90183666D02*
X81469908Y-90131144D01*
X67570000Y-79529582D02*
X67570000Y-76980000D01*
X72548438Y-83068947D02*
X72469366Y-83148019D01*
X82070000Y-91619582D02*
X81450000Y-90999582D01*
X82180833Y-92700000D02*
X82070000Y-92589167D01*
X81408114Y-90627840D02*
X81450000Y-90575317D01*
X81469908Y-90131144D02*
X81417385Y-90089258D01*
X72318965Y-84058463D02*
X72288881Y-84088547D01*
X73137716Y-83009452D02*
X73032167Y-82972519D01*
X72748672Y-82972519D02*
X72643123Y-83009452D01*
X81098166Y-90089258D02*
X81045643Y-90131144D01*
X73370968Y-83242704D02*
X73311473Y-83148019D01*
X73610422Y-84129999D02*
X73568143Y-84125236D01*
X82500000Y-92700000D02*
X82180833Y-92700000D01*
X73420422Y-83459375D02*
X73407901Y-83348253D01*
X72288881Y-84088547D02*
X72252855Y-84111184D01*
X72252855Y-84111184D02*
X72212696Y-84125236D01*
X81045643Y-90131144D02*
X81025734Y-90151052D01*
X73568143Y-84125236D02*
X73527984Y-84111184D01*
X72921045Y-82959998D02*
X72859794Y-82959998D01*
X73461874Y-84058463D02*
X73439237Y-84022437D01*
X81450000Y-90999582D02*
X81408114Y-90947059D01*
X72469366Y-83148019D02*
X72409871Y-83242704D01*
X80847191Y-90237034D02*
X80780013Y-90237034D01*
X72643123Y-83009452D02*
X72548438Y-83068947D01*
X81224186Y-90045162D02*
X81158692Y-90060111D01*
X72409871Y-83242704D02*
X72372938Y-83348253D01*
X81378967Y-90688366D02*
X81408114Y-90627840D01*
X80601471Y-90151053D02*
X74580417Y-84129999D01*
X73032167Y-82972519D02*
X72921045Y-82959998D01*
X80714518Y-90222085D02*
X80653992Y-90192937D01*
X82070000Y-92589167D02*
X82070000Y-91619582D01*
X73311473Y-83148019D02*
X73232401Y-83068947D01*
X73420422Y-83939999D02*
X73420422Y-83459375D01*
X73407901Y-83348253D02*
X73370968Y-83242704D01*
X72170418Y-84129999D02*
X67570000Y-79529582D01*
X80973211Y-90192937D02*
X80912686Y-90222085D01*
X72212696Y-84125236D02*
X72170418Y-84129999D01*
X73491958Y-84088547D02*
X73461874Y-84058463D01*
X81025734Y-90151052D02*
X80973211Y-90192937D01*
X81450000Y-90575317D02*
X81469908Y-90555408D01*
X81378967Y-90886533D02*
X81364018Y-90821039D01*
X72859794Y-82959998D02*
X72748672Y-82972519D01*
X81291365Y-90045162D02*
X81224186Y-90045162D01*
X81364018Y-90821039D02*
X81364018Y-90753860D01*
X72360418Y-83939999D02*
X72355654Y-83982278D01*
X73439237Y-84022437D02*
X73425185Y-83982278D01*
X81356859Y-90060111D02*
X81291365Y-90045162D01*
X73527984Y-84111184D02*
X73491958Y-84088547D01*
X81408114Y-90947059D02*
X81378967Y-90886533D01*
X81555890Y-90376865D02*
X81555890Y-90309687D01*
X81158692Y-90060111D02*
X81098166Y-90089258D01*
X81364018Y-90753860D02*
X81378967Y-90688366D01*
X81540941Y-90244192D02*
X81511793Y-90183666D01*
X81417385Y-90089258D02*
X81356859Y-90060111D01*
X80780013Y-90237034D02*
X80714518Y-90222085D01*
X72360418Y-83459375D02*
X72360418Y-83939999D01*
X81511793Y-90502885D02*
X81540941Y-90442360D01*
X81555890Y-90309687D02*
X81540941Y-90244192D01*
X67570000Y-76980000D02*
X68050000Y-76500000D01*
X72890420Y-83300000D02*
X72932698Y-83304764D01*
X72029582Y-84470000D02*
X72201043Y-84470001D01*
X72972857Y-83318816D02*
X73008883Y-83341453D01*
X72771956Y-83341453D02*
X72807982Y-83318816D01*
X72417714Y-84420548D02*
X72512399Y-84361053D01*
X72650966Y-84187296D02*
X72687899Y-84081747D01*
X67230000Y-79670418D02*
X72029582Y-84470000D01*
X72807982Y-83318816D02*
X72848141Y-83304764D01*
X72719235Y-83407563D02*
X72741872Y-83371537D01*
X72700420Y-83970625D02*
X72700420Y-83490000D01*
X73468674Y-84457481D02*
X73579796Y-84470001D01*
X81730000Y-91760418D02*
X81730000Y-92730000D01*
X72512399Y-84361053D02*
X72591471Y-84281981D01*
X73038967Y-83371537D02*
X73061604Y-83407563D01*
X72700420Y-83490000D02*
X72705183Y-83447722D01*
X72687899Y-84081747D02*
X72700420Y-83970625D01*
X72932698Y-83304764D02*
X72972857Y-83318816D01*
X72312165Y-84457481D02*
X72417714Y-84420548D01*
X72201043Y-84470001D02*
X72312165Y-84457481D01*
X73061604Y-83407563D02*
X73075656Y-83447722D01*
X72705183Y-83447722D02*
X72719235Y-83407563D01*
X73268440Y-84361053D02*
X73363125Y-84420548D01*
X72591471Y-84281981D02*
X72650966Y-84187296D01*
X73129873Y-84187296D02*
X73189368Y-84281981D01*
X74439583Y-84470001D02*
X81730000Y-91760418D01*
X66785000Y-76485000D02*
X67230000Y-76930000D01*
X73363125Y-84420548D02*
X73468674Y-84457481D01*
X73189368Y-84281981D02*
X73268440Y-84361053D01*
X67230000Y-76930000D02*
X67230000Y-79670418D01*
X73080420Y-83490000D02*
X73080420Y-83970625D01*
X72848141Y-83304764D02*
X72890420Y-83300000D01*
X73008883Y-83341453D02*
X73038967Y-83371537D01*
X81730000Y-92730000D02*
X82500000Y-93500000D01*
X73080420Y-83970625D02*
X73092940Y-84081747D01*
X72741872Y-83371537D02*
X72771956Y-83341453D01*
X73092940Y-84081747D02*
X73129873Y-84187296D01*
X73075656Y-83447722D02*
X73080420Y-83490000D01*
X73579796Y-84470001D02*
X74439583Y-84470001D01*
X87399162Y-87512278D02*
X87413214Y-87552437D01*
X88601537Y-88761452D02*
X88571453Y-88791536D01*
X83295000Y-76495000D02*
X82820000Y-76970000D01*
X87100000Y-92900000D02*
X86500000Y-93500000D01*
X87394399Y-87470000D02*
X87399162Y-87512278D01*
X89616148Y-88437295D02*
X89556654Y-88531980D01*
X89166227Y-88720000D02*
X88720000Y-88720000D01*
X88571453Y-88791536D02*
X88548816Y-88827562D01*
X88480546Y-86997295D02*
X88421052Y-87091980D01*
X89477582Y-88611052D02*
X89382897Y-88670546D01*
X88548816Y-88827562D02*
X88534764Y-88867721D01*
X88530000Y-84758982D02*
X88530000Y-86780625D01*
X88517479Y-86891746D02*
X88480546Y-86997295D01*
X87465935Y-87618547D02*
X87501961Y-87641184D01*
X88530000Y-88910000D02*
X88530000Y-92480418D01*
X89665601Y-88220625D02*
X89653081Y-88331746D01*
X86989218Y-83218200D02*
X88530000Y-84758982D01*
X88141746Y-87267479D02*
X88030625Y-87280000D01*
X88720000Y-88720000D02*
X88677722Y-88724763D01*
X87501961Y-87641184D02*
X87542120Y-87655236D01*
X89653081Y-88048253D02*
X89665601Y-88159374D01*
X88247295Y-87230546D02*
X88141746Y-87267479D01*
X87435851Y-87588463D02*
X87465935Y-87618547D01*
X88110418Y-92900000D02*
X87100000Y-92900000D01*
X88677722Y-88724763D02*
X88637563Y-88738815D01*
X89382897Y-87709453D02*
X89477582Y-87768947D01*
X87399162Y-87427721D02*
X87394399Y-87470000D01*
X82820000Y-76970000D02*
X82820000Y-79479582D01*
X89382897Y-88670546D02*
X89277348Y-88707479D01*
X87584399Y-87660000D02*
X89166227Y-87660000D01*
X89277348Y-87672520D02*
X89382897Y-87709453D01*
X87465935Y-87321452D02*
X87435851Y-87351536D01*
X88341980Y-87171052D02*
X88247295Y-87230546D01*
X89556654Y-88531980D02*
X89477582Y-88611052D01*
X88530000Y-86780625D02*
X88517479Y-86891746D01*
X87542120Y-87284763D02*
X87501961Y-87298815D01*
X89277348Y-88707479D02*
X89166227Y-88720000D01*
X83470000Y-82746982D02*
X83941218Y-83218200D01*
X83941218Y-83218200D02*
X86989218Y-83218200D01*
X88530000Y-92480418D02*
X88110418Y-92900000D01*
X87584399Y-87280000D02*
X87542120Y-87284763D01*
X89556654Y-87848019D02*
X89616148Y-87942704D01*
X87435851Y-87351536D02*
X87413214Y-87387562D01*
X89653081Y-88331746D02*
X89616148Y-88437295D01*
X87542120Y-87655236D02*
X87584399Y-87660000D01*
X88637563Y-88738815D02*
X88601537Y-88761452D01*
X87501961Y-87298815D02*
X87465935Y-87321452D01*
X87413214Y-87552437D02*
X87435851Y-87588463D01*
X88030625Y-87280000D02*
X87584399Y-87280000D01*
X82820000Y-79479582D02*
X83470000Y-80129582D01*
X89616148Y-87942704D02*
X89653081Y-88048253D01*
X83470000Y-80129582D02*
X83470000Y-82746982D01*
X88534764Y-88867721D02*
X88530000Y-88910000D01*
X89665601Y-88159374D02*
X89665601Y-88220625D01*
X89477582Y-87768947D02*
X89556654Y-87848019D01*
X88421052Y-87091980D02*
X88341980Y-87171052D01*
X89166227Y-87660000D02*
X89277348Y-87672520D01*
X87413214Y-87387562D02*
X87399162Y-87427721D01*
D42*
X87050000Y-89200000D02*
X87650000Y-88600000D01*
X84100000Y-93500000D02*
X84100000Y-94215000D01*
X87150000Y-88600000D02*
X87150000Y-89100000D01*
X84100000Y-94315000D02*
X84085000Y-94300000D01*
X87650000Y-88600000D02*
X87150000Y-88600000D01*
X84100000Y-94215000D02*
X84185000Y-94300000D01*
X87150000Y-89100000D02*
X87050000Y-89200000D01*
X87050000Y-90000000D02*
X87050000Y-89200000D01*
D44*
X74650418Y-82810000D02*
X73225369Y-81384951D01*
X73565221Y-80070172D02*
X73521911Y-80026862D01*
X73180382Y-81313354D02*
X73170914Y-81271874D01*
X73333732Y-79908621D02*
X73224711Y-79883738D01*
X83640000Y-90999572D02*
X75450428Y-82810000D01*
X71648519Y-81194033D02*
X71615255Y-81220560D01*
X71379819Y-80925333D02*
X71719673Y-80585480D01*
X71837913Y-80067434D02*
X71789394Y-79966683D01*
X73565222Y-80776398D02*
X73634944Y-80688970D01*
X73198841Y-81351686D02*
X73180382Y-81313354D01*
X71862797Y-80176455D02*
X71837913Y-80067434D01*
X83795001Y-92462399D02*
X83640000Y-92307398D01*
X71789394Y-80498052D02*
X71837913Y-80397301D01*
X73434483Y-79957140D02*
X73333732Y-79908621D01*
X83795001Y-93004999D02*
X83795001Y-92462399D01*
X71719673Y-79879255D02*
X71420000Y-79579582D01*
X71334832Y-81122436D02*
X71325364Y-81080956D01*
X71789394Y-79966683D02*
X71719673Y-79879255D01*
X71420000Y-76930000D02*
X71850000Y-76500000D01*
X73683463Y-80588219D02*
X73708346Y-80479198D01*
X71535442Y-81248488D02*
X71492896Y-81248488D01*
X73198841Y-81149514D02*
X73225369Y-81116251D01*
X73683462Y-80258351D02*
X73634943Y-80157600D01*
X73003866Y-79908623D02*
X72903115Y-79957141D01*
X71862797Y-80288280D02*
X71862797Y-80176455D01*
X73170914Y-81229328D02*
X73180382Y-81187848D01*
X71492896Y-81248488D02*
X71451416Y-81239020D01*
X71576922Y-81239020D02*
X71535442Y-81248488D01*
X71353292Y-80958597D02*
X71379819Y-80925333D01*
X73708345Y-80367372D02*
X73683462Y-80258351D01*
X72815687Y-80026864D02*
X71648519Y-81194033D01*
X73634943Y-80157600D02*
X73565221Y-80070172D01*
X71420000Y-79579582D02*
X71420000Y-76930000D01*
X73224711Y-79883738D02*
X73112887Y-79883739D01*
X71353292Y-81160769D02*
X71334832Y-81122436D01*
X73634944Y-80688970D02*
X73683463Y-80588219D01*
X83300000Y-93500000D02*
X83795001Y-93004999D01*
X73225369Y-81116251D02*
X73565222Y-80776398D01*
X71615255Y-81220560D02*
X71576922Y-81239020D01*
X72903115Y-79957141D02*
X72815687Y-80026864D01*
X71719673Y-80585480D02*
X71789394Y-80498052D01*
X83640000Y-92307398D02*
X83640000Y-90999572D01*
X73170914Y-81271874D02*
X73170914Y-81229328D01*
X73112887Y-79883739D02*
X73003866Y-79908623D01*
X71325364Y-81038410D02*
X71334832Y-80996930D01*
X71413083Y-81220560D02*
X71379819Y-81194033D01*
X73180382Y-81187848D02*
X73198841Y-81149514D01*
X73521911Y-80026862D02*
X73434483Y-79957140D01*
X71837913Y-80397301D02*
X71862797Y-80288280D01*
X71379819Y-81194033D02*
X71353292Y-81160769D01*
X73225369Y-81384951D02*
X73198841Y-81351686D01*
X73708346Y-80479198D02*
X73708345Y-80367372D01*
X71325364Y-81080956D02*
X71325364Y-81038410D01*
X71334832Y-80996930D02*
X71353292Y-80958597D01*
X71451416Y-81239020D02*
X71413083Y-81220560D01*
X75450428Y-82810000D02*
X74650418Y-82810000D01*
D41*
X95050000Y-86400000D02*
X97350000Y-86400000D01*
X89650000Y-97300000D02*
X90900000Y-96050000D01*
X90900000Y-90550000D02*
X95050000Y-86400000D01*
X97850000Y-85900000D02*
X97850000Y-85800000D01*
X86500000Y-96700000D02*
X87100000Y-97300000D01*
X87100000Y-97300000D02*
X89650000Y-97300000D01*
X90900000Y-96050000D02*
X90900000Y-90550000D01*
X97350000Y-86400000D02*
X97850000Y-85900000D01*
X92350000Y-94600000D02*
X92650000Y-94300000D01*
X94150000Y-92000000D02*
X97350000Y-92000000D01*
X97850000Y-91400000D02*
X97850000Y-91500000D01*
X97350000Y-92000000D02*
X97850000Y-91500000D01*
X92650000Y-93500000D02*
X94150000Y-92000000D01*
X92650000Y-94300000D02*
X92650000Y-93500000D01*
X93750000Y-94800000D02*
X97350000Y-94800000D01*
X97350000Y-94800000D02*
X97850000Y-94300000D01*
X93450000Y-95100000D02*
X93750000Y-94800000D01*
X97850000Y-94300000D02*
X97850000Y-94200000D01*
X86500000Y-97500000D02*
X86749999Y-97749999D01*
X91199911Y-90800089D02*
X91200000Y-90800000D01*
X91200000Y-90800000D02*
X91200000Y-90700000D01*
X91200000Y-90700000D02*
X95200000Y-86700000D01*
X91199911Y-96200089D02*
X91199911Y-90800089D01*
X100152840Y-86700000D02*
X100208259Y-86644581D01*
X86749999Y-97749999D02*
X89650001Y-97749999D01*
X89650001Y-97749999D02*
X91199911Y-96200089D01*
X95200000Y-86700000D02*
X100152840Y-86700000D01*
X92100000Y-91850000D02*
X94450000Y-89500000D01*
X92100000Y-93849928D02*
X92100000Y-91850000D01*
X94450000Y-89500000D02*
X101050000Y-89500000D01*
X101050000Y-89500000D02*
X101850603Y-88699397D01*
X101850603Y-88699397D02*
X101850603Y-88620764D01*
X92450000Y-95350000D02*
X92045340Y-95350000D01*
X92949911Y-93650089D02*
X92949911Y-94850089D01*
X101850000Y-91500000D02*
X101050000Y-92300000D01*
X94300000Y-92300000D02*
X92949911Y-93650089D01*
X101850000Y-91400000D02*
X101850000Y-91500000D01*
X101050000Y-92300000D02*
X94300000Y-92300000D01*
X92949911Y-94850089D02*
X92450000Y-95350000D01*
X93150000Y-95800000D02*
X93500000Y-95800000D01*
X101850000Y-94300000D02*
X101850000Y-94200000D01*
X98000000Y-94800000D02*
X101350000Y-94800000D01*
X93500000Y-95800000D02*
X94200000Y-95100000D01*
X97700000Y-95100000D02*
X98000000Y-94800000D01*
X94200000Y-95100000D02*
X97700000Y-95100000D01*
X101350000Y-94800000D02*
X101850000Y-94300000D01*
X97800000Y-97100000D02*
X97250000Y-97650000D01*
X97850000Y-97100000D02*
X97800000Y-97100000D01*
X90100000Y-101800000D02*
X85350186Y-101800000D01*
X85350186Y-101800000D02*
X84799998Y-101249812D01*
X97250000Y-97650000D02*
X94250000Y-97650000D01*
X94250000Y-97650000D02*
X90100000Y-101800000D01*
X97850000Y-102700000D02*
X97850000Y-102600000D01*
X92200000Y-103200000D02*
X97350000Y-103200000D01*
X91400000Y-104000000D02*
X92200000Y-103200000D01*
X97350000Y-103200000D02*
X97850000Y-102700000D01*
X81800000Y-104000000D02*
X91400000Y-104000000D01*
X97350000Y-106000000D02*
X97850000Y-105500000D01*
X91300000Y-105200000D02*
X92100000Y-106000000D01*
X97850000Y-105500000D02*
X97850000Y-105400000D01*
X80600000Y-105200000D02*
X91300000Y-105200000D01*
X92100000Y-106000000D02*
X97350000Y-106000000D01*
X101000000Y-97950000D02*
X94400000Y-97950000D01*
X101850000Y-97100000D02*
X101000000Y-97950000D01*
X94400000Y-97950000D02*
X90150000Y-102200000D01*
X90150000Y-102200000D02*
X83600000Y-102200000D01*
X82400000Y-103400000D02*
X90500000Y-103400000D01*
X90500000Y-103400000D02*
X93200000Y-100700000D01*
X101850000Y-99900000D02*
X101850000Y-99800000D01*
X101050000Y-100700000D02*
X101850000Y-99900000D01*
X93200000Y-100700000D02*
X101050000Y-100700000D01*
X92400000Y-103500000D02*
X101050000Y-103500000D01*
X81200000Y-104600000D02*
X91300000Y-104600000D01*
X91300000Y-104600000D02*
X92400000Y-103500000D01*
X101850000Y-102700000D02*
X101850000Y-102600000D01*
X101050000Y-103500000D02*
X101850000Y-102700000D01*
X80149722Y-105800000D02*
X80000000Y-105650278D01*
X100100000Y-106150000D02*
X99950000Y-106300000D01*
X91900000Y-106300000D02*
X91400000Y-105800000D01*
X99950000Y-106300000D02*
X91900000Y-106300000D01*
X91400000Y-105800000D02*
X80149722Y-105800000D01*
X85700000Y-97500000D02*
X86395010Y-98195010D01*
X86395010Y-98195010D02*
X89654990Y-98195010D01*
X97850000Y-88700000D02*
X97850000Y-88600000D01*
X91500000Y-96350000D02*
X91500000Y-92000000D01*
X85700000Y-96700000D02*
X85700000Y-97500000D01*
X89654990Y-98195010D02*
X91500000Y-96350000D01*
X94300000Y-89200000D02*
X97350000Y-89200000D01*
X91500000Y-92000000D02*
X94300000Y-89200000D01*
X97350000Y-89200000D02*
X97850000Y-88700000D01*
X90650000Y-102800000D02*
X93050000Y-100400000D01*
X93050000Y-100400000D02*
X97350000Y-100400000D01*
X97350000Y-100400000D02*
X97850000Y-99900000D01*
X97850000Y-99900000D02*
X97850000Y-99800000D01*
X83000000Y-102800000D02*
X90650000Y-102800000D01*
X54750000Y-94250000D02*
X55500000Y-94250000D01*
X54400000Y-94600000D02*
X54750000Y-94250000D01*
X122800000Y-106385000D02*
X122800000Y-107100000D01*
X122800000Y-107100000D02*
X122800000Y-107785000D01*
X122800000Y-107785000D02*
X122815000Y-107800000D01*
X123800000Y-107785000D02*
X123785000Y-107800000D01*
X123800000Y-107100000D02*
X123800000Y-107785000D01*
X123800000Y-106385000D02*
X123800000Y-107100000D01*
X123800000Y-83900000D02*
X123800000Y-83215000D01*
X123800000Y-83900000D02*
X123800000Y-84615000D01*
X123800000Y-83215000D02*
X123785000Y-83200000D01*
X122800000Y-83900000D02*
X122800000Y-83215000D01*
X122800000Y-83900000D02*
X122800000Y-84615000D01*
X122800000Y-83215000D02*
X122815000Y-83200000D01*
X126800000Y-100600000D02*
X123400000Y-100600000D01*
X127600000Y-99800000D02*
X126800000Y-100600000D01*
X120900000Y-103100000D02*
X120400000Y-103100000D01*
X123400000Y-100600000D02*
X120900000Y-103100000D01*
X119000000Y-91200000D02*
X119800000Y-90400000D01*
X125700000Y-87900000D02*
X126200000Y-87900000D01*
X123200000Y-90400000D02*
X125700000Y-87900000D01*
X119800000Y-90400000D02*
X123200000Y-90400000D01*
X122800000Y-105415000D02*
X122500000Y-105115000D01*
X123837500Y-102400000D02*
X124050000Y-102612500D01*
X122500000Y-105115000D02*
X122500000Y-102700000D01*
X122500000Y-102700000D02*
X122800000Y-102400000D01*
X122800000Y-102400000D02*
X123837500Y-102400000D01*
X123800000Y-85585000D02*
X124100000Y-85885000D01*
X123800000Y-88600000D02*
X122762500Y-88600000D01*
X122762500Y-88600000D02*
X122550000Y-88387500D01*
X124100000Y-88300000D02*
X123800000Y-88600000D01*
X124100000Y-85885000D02*
X124100000Y-88300000D01*
X127185000Y-106200000D02*
X127000000Y-106385000D01*
X127800000Y-106200000D02*
X127185000Y-106200000D01*
X118800000Y-84800000D02*
X120615000Y-84800000D01*
X120615000Y-84800000D02*
X120800000Y-84615000D01*
X63450000Y-116450000D02*
X63150000Y-116750000D01*
X63950000Y-116450000D02*
X63450000Y-116450000D01*
X60300000Y-116150000D02*
X60300000Y-113300000D01*
X61100000Y-116950000D02*
X60300000Y-116150000D01*
X64250000Y-116750000D02*
X63950000Y-116450000D01*
X63100000Y-116950000D02*
X61100000Y-116950000D01*
X60300000Y-113300000D02*
X60800000Y-112800000D01*
X63150000Y-116900000D02*
X63100000Y-116950000D01*
X60800000Y-112800000D02*
X61300000Y-112800000D01*
X64500000Y-117750000D02*
X64250000Y-117500000D01*
X64250000Y-117500000D02*
X64250000Y-116750000D01*
X73150000Y-117380000D02*
X72780000Y-117750000D01*
X72780000Y-117750000D02*
X64500000Y-117750000D01*
X63150000Y-116750000D02*
X63150000Y-116900000D01*
X122000000Y-99700000D02*
X122000000Y-99800000D01*
X123300000Y-98400000D02*
X122000000Y-99700000D01*
X123300000Y-92600000D02*
X124600000Y-91300000D01*
X124600000Y-91300000D02*
X124600000Y-91200000D01*
X120900000Y-92600000D02*
X123300000Y-92600000D01*
G04 #@! TA.AperFunction,Conductor*
G36*
X126151141Y-99050227D02*
G01*
X126262502Y-99072378D01*
X126266756Y-99074140D01*
X126360180Y-99136564D01*
X126363435Y-99139819D01*
X126425859Y-99233243D01*
X126427621Y-99237497D01*
X126449773Y-99348858D01*
X126450000Y-99351160D01*
X126450000Y-99948839D01*
X126449773Y-99951141D01*
X126427621Y-100062502D01*
X126425859Y-100066756D01*
X126363435Y-100160180D01*
X126360180Y-100163435D01*
X126266756Y-100225859D01*
X126262502Y-100227621D01*
X126151141Y-100249773D01*
X126148839Y-100250000D01*
X123201161Y-100250000D01*
X123198859Y-100249773D01*
X123087497Y-100227621D01*
X123083243Y-100225859D01*
X122989819Y-100163435D01*
X122986564Y-100160180D01*
X122924140Y-100066756D01*
X122922378Y-100062502D01*
X122900227Y-99951141D01*
X122900000Y-99948839D01*
X122900000Y-99351160D01*
X122900227Y-99348858D01*
X122922378Y-99237497D01*
X122924140Y-99233243D01*
X122986564Y-99139819D01*
X122989817Y-99136565D01*
X123083244Y-99074139D01*
X123087496Y-99072378D01*
X123198858Y-99050227D01*
X123201161Y-99050000D01*
X126148839Y-99050000D01*
X126151141Y-99050227D01*
G37*
G04 #@! TD.AperFunction*
G04 #@! TA.AperFunction,Conductor*
G36*
X123401141Y-90750227D02*
G01*
X123512502Y-90772378D01*
X123516756Y-90774140D01*
X123610180Y-90836564D01*
X123613435Y-90839819D01*
X123675859Y-90933243D01*
X123677621Y-90937497D01*
X123699773Y-91048858D01*
X123700000Y-91051160D01*
X123700000Y-91648839D01*
X123699773Y-91651141D01*
X123677621Y-91762502D01*
X123675859Y-91766756D01*
X123613435Y-91860180D01*
X123610180Y-91863435D01*
X123516756Y-91925859D01*
X123512502Y-91927621D01*
X123401141Y-91949773D01*
X123398839Y-91950000D01*
X120451161Y-91950000D01*
X120448859Y-91949773D01*
X120337497Y-91927621D01*
X120333243Y-91925859D01*
X120239819Y-91863435D01*
X120236564Y-91860180D01*
X120174140Y-91766756D01*
X120172378Y-91762502D01*
X120150227Y-91651141D01*
X120150000Y-91648839D01*
X120150000Y-91051160D01*
X120150227Y-91048858D01*
X120172378Y-90937497D01*
X120174140Y-90933243D01*
X120236564Y-90839819D01*
X120239817Y-90836565D01*
X120333244Y-90774139D01*
X120337496Y-90772378D01*
X120448858Y-90750227D01*
X120451161Y-90750000D01*
X123398839Y-90750000D01*
X123401141Y-90750227D01*
G37*
G04 #@! TD.AperFunction*
G04 #@! TA.AperFunction,Conductor*
G36*
X126251141Y-100950227D02*
G01*
X126324234Y-100964766D01*
X126328488Y-100966528D01*
X126389469Y-101007275D01*
X126392724Y-101010530D01*
X126433471Y-101071511D01*
X126435233Y-101075765D01*
X126449773Y-101148858D01*
X126450000Y-101151160D01*
X126450000Y-102848839D01*
X126449773Y-102851141D01*
X126435233Y-102924234D01*
X126433471Y-102928488D01*
X126392724Y-102989469D01*
X126389469Y-102992724D01*
X126328488Y-103033471D01*
X126324234Y-103035233D01*
X126251141Y-103049773D01*
X126248839Y-103050000D01*
X125467200Y-103050000D01*
X125458856Y-103046544D01*
X125455400Y-103038200D01*
X125455400Y-102997338D01*
X125455026Y-102989723D01*
X125455026Y-102989722D01*
X125454050Y-102979827D01*
X125454050Y-102979824D01*
X125454049Y-102979816D01*
X125452930Y-102972277D01*
X125446157Y-102938233D01*
X125446111Y-102937959D01*
X125444749Y-102928488D01*
X125436600Y-102871803D01*
X125432797Y-102863477D01*
X125430424Y-102858279D01*
X125430145Y-102857540D01*
X125421195Y-102828037D01*
X125421193Y-102828031D01*
X125421193Y-102828030D01*
X125419431Y-102823776D01*
X125405069Y-102796907D01*
X125397152Y-102785058D01*
X125396230Y-102783406D01*
X125396228Y-102783401D01*
X125382797Y-102753991D01*
X125355060Y-102721981D01*
X125354613Y-102721394D01*
X125348129Y-102711691D01*
X125342645Y-102703483D01*
X125323319Y-102679935D01*
X125320064Y-102676680D01*
X125306094Y-102665214D01*
X125304669Y-102663826D01*
X125304666Y-102663822D01*
X125297983Y-102656110D01*
X125210814Y-102600090D01*
X125203092Y-102594930D01*
X125203079Y-102594923D01*
X125203076Y-102594921D01*
X125201476Y-102594066D01*
X125201068Y-102593826D01*
X125189027Y-102586088D01*
X125189024Y-102586087D01*
X125184691Y-102584815D01*
X125182456Y-102583900D01*
X125176232Y-102580572D01*
X125176225Y-102580569D01*
X125176223Y-102580568D01*
X125171969Y-102578806D01*
X125171968Y-102578805D01*
X125171961Y-102578803D01*
X125142815Y-102569962D01*
X125129872Y-102567388D01*
X125125787Y-102566575D01*
X125116071Y-102564642D01*
X125115570Y-102564519D01*
X125064759Y-102549600D01*
X125064758Y-102549600D01*
X125041604Y-102549600D01*
X125039302Y-102549373D01*
X125038273Y-102549168D01*
X125032614Y-102548042D01*
X125002303Y-102545057D01*
X125002298Y-102545057D01*
X124997702Y-102545057D01*
X124997697Y-102545057D01*
X124967385Y-102548042D01*
X124961547Y-102549204D01*
X124960697Y-102549373D01*
X124958396Y-102549600D01*
X124935240Y-102549600D01*
X124884427Y-102564520D01*
X124883915Y-102564646D01*
X124857183Y-102569962D01*
X124828040Y-102578801D01*
X124828018Y-102578809D01*
X124823784Y-102580563D01*
X124823762Y-102580574D01*
X124817531Y-102583903D01*
X124815299Y-102584816D01*
X124810973Y-102586087D01*
X124798940Y-102593819D01*
X124798535Y-102594057D01*
X124796917Y-102594922D01*
X124796917Y-102594923D01*
X124789146Y-102600115D01*
X124702014Y-102656112D01*
X124702013Y-102656112D01*
X124695332Y-102663822D01*
X124693902Y-102665214D01*
X124679921Y-102676691D01*
X124676658Y-102679955D01*
X124657359Y-102703475D01*
X124657347Y-102703492D01*
X124645381Y-102721400D01*
X124644934Y-102721986D01*
X124617203Y-102753990D01*
X124603771Y-102783401D01*
X124602849Y-102785054D01*
X124594932Y-102796904D01*
X124580566Y-102823779D01*
X124578808Y-102828024D01*
X124578805Y-102828031D01*
X124569854Y-102857538D01*
X124569575Y-102858276D01*
X124563400Y-102871800D01*
X124563399Y-102871804D01*
X124553887Y-102937957D01*
X124553834Y-102938268D01*
X124550035Y-102957372D01*
X124547071Y-102972272D01*
X124547071Y-102972271D01*
X124545950Y-102979824D01*
X124545950Y-102979825D01*
X124544974Y-102989722D01*
X124544974Y-102989723D01*
X124544600Y-102997338D01*
X124544600Y-103038200D01*
X124541144Y-103046544D01*
X124532800Y-103050000D01*
X123751161Y-103050000D01*
X123748859Y-103049773D01*
X123675765Y-103035233D01*
X123671511Y-103033471D01*
X123610530Y-102992724D01*
X123607275Y-102989469D01*
X123566528Y-102928488D01*
X123564766Y-102924234D01*
X123550227Y-102851141D01*
X123550000Y-102848839D01*
X123550000Y-101151160D01*
X123550227Y-101148858D01*
X123564766Y-101075765D01*
X123566528Y-101071511D01*
X123607275Y-101010530D01*
X123610528Y-101007276D01*
X123671512Y-100966527D01*
X123675764Y-100964766D01*
X123748858Y-100950227D01*
X123751161Y-100950000D01*
X126248839Y-100950000D01*
X126251141Y-100950227D01*
G37*
G04 #@! TD.AperFunction*
G04 #@! TA.AperFunction,Conductor*
G36*
X125099553Y-102719802D02*
G01*
X125112502Y-102722378D01*
X125116756Y-102724140D01*
X125210180Y-102786564D01*
X125213435Y-102789819D01*
X125275859Y-102883243D01*
X125277621Y-102887497D01*
X125299773Y-102998858D01*
X125300000Y-103001160D01*
X125300000Y-103700000D01*
X126148839Y-103700000D01*
X126151141Y-103700227D01*
X126262502Y-103722378D01*
X126266756Y-103724140D01*
X126360180Y-103786564D01*
X126363435Y-103789819D01*
X126425859Y-103883243D01*
X126427621Y-103887497D01*
X126449773Y-103998858D01*
X126450000Y-104001160D01*
X126450000Y-104398839D01*
X126449773Y-104401141D01*
X126427621Y-104512502D01*
X126425859Y-104516756D01*
X126363435Y-104610180D01*
X126360180Y-104613435D01*
X126266756Y-104675859D01*
X126262502Y-104677621D01*
X126151141Y-104699773D01*
X126148839Y-104700000D01*
X123851161Y-104700000D01*
X123848859Y-104699773D01*
X123737497Y-104677621D01*
X123733243Y-104675859D01*
X123639819Y-104613435D01*
X123636564Y-104610180D01*
X123574140Y-104516756D01*
X123572378Y-104512502D01*
X123570840Y-104504770D01*
X123553313Y-104416659D01*
X123553207Y-104412691D01*
X123555032Y-104400000D01*
X123550120Y-104365835D01*
X123550000Y-104364156D01*
X123550000Y-104001160D01*
X123550227Y-103998858D01*
X123572378Y-103887497D01*
X123574140Y-103883243D01*
X123636564Y-103789819D01*
X123639817Y-103786565D01*
X123733244Y-103724139D01*
X123737496Y-103722378D01*
X123848858Y-103700227D01*
X123851161Y-103700000D01*
X124399995Y-103700000D01*
X124400000Y-103700000D01*
X124700000Y-103700000D01*
X124700000Y-103001160D01*
X124700227Y-102998858D01*
X124722378Y-102887497D01*
X124724140Y-102883243D01*
X124786564Y-102789819D01*
X124789817Y-102786565D01*
X124883244Y-102724139D01*
X124887496Y-102722378D01*
X124997702Y-102700457D01*
X125002298Y-102700457D01*
X125099553Y-102719802D01*
G37*
G04 #@! TD.AperFunction*
G04 #@! TA.AperFunction,Conductor*
G36*
X122851141Y-86300227D02*
G01*
X122924234Y-86314766D01*
X122928488Y-86316528D01*
X122989469Y-86357275D01*
X122992724Y-86360530D01*
X123033471Y-86421511D01*
X123035233Y-86425765D01*
X123049773Y-86498858D01*
X123050000Y-86501160D01*
X123050000Y-86564156D01*
X123049880Y-86565835D01*
X123044968Y-86599999D01*
X123049880Y-86634163D01*
X123050000Y-86635842D01*
X123050000Y-87098839D01*
X123049773Y-87101141D01*
X123035233Y-87174234D01*
X123033471Y-87178488D01*
X122992724Y-87239469D01*
X122989469Y-87242724D01*
X122928488Y-87283471D01*
X122924234Y-87285233D01*
X122851141Y-87299773D01*
X122848839Y-87300000D01*
X121900000Y-87300000D01*
X121900000Y-87499997D01*
X121900000Y-88098839D01*
X121899773Y-88101141D01*
X121885233Y-88174234D01*
X121883471Y-88178488D01*
X121842724Y-88239469D01*
X121839469Y-88242724D01*
X121778488Y-88283471D01*
X121774234Y-88285233D01*
X121701141Y-88299773D01*
X121698839Y-88300000D01*
X121501161Y-88300000D01*
X121498859Y-88299773D01*
X121425765Y-88285233D01*
X121421511Y-88283471D01*
X121360530Y-88242724D01*
X121357275Y-88239469D01*
X121316528Y-88178488D01*
X121314766Y-88174234D01*
X121300227Y-88101141D01*
X121300000Y-88098839D01*
X121300000Y-87500004D01*
X121300000Y-87500000D01*
X121300000Y-87300000D01*
X121100002Y-87300000D01*
X120351161Y-87300000D01*
X120348859Y-87299773D01*
X120275765Y-87285233D01*
X120271511Y-87283471D01*
X120210530Y-87242724D01*
X120207275Y-87239469D01*
X120166528Y-87178488D01*
X120164766Y-87174234D01*
X120150227Y-87101141D01*
X120150000Y-87098839D01*
X120150000Y-86501160D01*
X120150227Y-86498858D01*
X120164766Y-86425765D01*
X120166528Y-86421511D01*
X120207275Y-86360530D01*
X120210528Y-86357276D01*
X120271512Y-86316527D01*
X120275764Y-86314766D01*
X120348858Y-86300227D01*
X120351161Y-86300000D01*
X122848839Y-86300000D01*
X122851141Y-86300227D01*
G37*
G04 #@! TD.AperFunction*
G04 #@! TA.AperFunction,Conductor*
G36*
X121141144Y-87953456D02*
G01*
X121144600Y-87961800D01*
X121144600Y-88102658D01*
X121144975Y-88110288D01*
X121145951Y-88120183D01*
X121147070Y-88127721D01*
X121151732Y-88151160D01*
X121162350Y-88204546D01*
X121171191Y-88233693D01*
X121171196Y-88233706D01*
X121172954Y-88237949D01*
X121172957Y-88237957D01*
X121187318Y-88264826D01*
X121227238Y-88324569D01*
X121228065Y-88325806D01*
X121228069Y-88325811D01*
X121228072Y-88325815D01*
X121247386Y-88349348D01*
X121250650Y-88352612D01*
X121274183Y-88371926D01*
X121274193Y-88371934D01*
X121305095Y-88392582D01*
X121335172Y-88412680D01*
X121335174Y-88412681D01*
X121362044Y-88427043D01*
X121366298Y-88428805D01*
X121395447Y-88437647D01*
X121395452Y-88437648D01*
X121395451Y-88437648D01*
X121435460Y-88445606D01*
X121472278Y-88452930D01*
X121472281Y-88452930D01*
X121472289Y-88452932D01*
X121475058Y-88453342D01*
X121479817Y-88454049D01*
X121489712Y-88455025D01*
X121489713Y-88455025D01*
X121489723Y-88455026D01*
X121489724Y-88455026D01*
X121497339Y-88455400D01*
X121497342Y-88455400D01*
X121702661Y-88455400D01*
X121710276Y-88455026D01*
X121710277Y-88455026D01*
X121710286Y-88455025D01*
X121710288Y-88455025D01*
X121720183Y-88454049D01*
X121724942Y-88453342D01*
X121727711Y-88452932D01*
X121727718Y-88452930D01*
X121727722Y-88452930D01*
X121804553Y-88437647D01*
X121833701Y-88428805D01*
X121837955Y-88427043D01*
X121864825Y-88412681D01*
X121925806Y-88371934D01*
X121949353Y-88352608D01*
X121952608Y-88349353D01*
X121971934Y-88325806D01*
X122012681Y-88264825D01*
X122027043Y-88237955D01*
X122028805Y-88233701D01*
X122037647Y-88204553D01*
X122052930Y-88127722D01*
X122052933Y-88127707D01*
X122053342Y-88124942D01*
X122054049Y-88120183D01*
X122055025Y-88110288D01*
X122055400Y-88102658D01*
X122055400Y-87961800D01*
X122058856Y-87953456D01*
X122067200Y-87950000D01*
X122848839Y-87950000D01*
X122851141Y-87950227D01*
X122924234Y-87964766D01*
X122928488Y-87966528D01*
X122989469Y-88007275D01*
X122992724Y-88010530D01*
X123033471Y-88071511D01*
X123035233Y-88075765D01*
X123049773Y-88148858D01*
X123050000Y-88151160D01*
X123050000Y-89848839D01*
X123049773Y-89851141D01*
X123035233Y-89924234D01*
X123033471Y-89928488D01*
X122992724Y-89989469D01*
X122989469Y-89992724D01*
X122928488Y-90033471D01*
X122924234Y-90035233D01*
X122851141Y-90049773D01*
X122848839Y-90050000D01*
X120351161Y-90050000D01*
X120348859Y-90049773D01*
X120275765Y-90035233D01*
X120271511Y-90033471D01*
X120210530Y-89992724D01*
X120207275Y-89989469D01*
X120166528Y-89928488D01*
X120164766Y-89924234D01*
X120150227Y-89851141D01*
X120150000Y-89848839D01*
X120150000Y-88151160D01*
X120150227Y-88148858D01*
X120154434Y-88127711D01*
X120164766Y-88075764D01*
X120166528Y-88071511D01*
X120207275Y-88010530D01*
X120210528Y-88007276D01*
X120271512Y-87966527D01*
X120275764Y-87964766D01*
X120348858Y-87950227D01*
X120351161Y-87950000D01*
X121132800Y-87950000D01*
X121141144Y-87953456D01*
G37*
G04 #@! TD.AperFunction*
G04 #@! TA.AperFunction,Conductor*
G36*
X56303220Y-90700424D02*
G01*
X56318306Y-90702410D01*
X56416489Y-90715336D01*
X56441447Y-90722023D01*
X56537960Y-90762000D01*
X56560336Y-90774918D01*
X56643216Y-90838515D01*
X56661484Y-90856783D01*
X56725079Y-90939660D01*
X56738001Y-90962042D01*
X56777975Y-91058548D01*
X56784664Y-91083512D01*
X56799576Y-91196779D01*
X56800000Y-91203247D01*
X56800000Y-99796752D01*
X56799576Y-99803220D01*
X56784664Y-99916487D01*
X56777975Y-99941451D01*
X56738001Y-100037957D01*
X56725079Y-100060339D01*
X56661487Y-100143213D01*
X56643213Y-100161487D01*
X56560339Y-100225079D01*
X56537957Y-100238001D01*
X56441451Y-100277975D01*
X56416487Y-100284664D01*
X56303221Y-100299576D01*
X56296753Y-100300000D01*
X50503247Y-100300000D01*
X50496779Y-100299576D01*
X50383512Y-100284664D01*
X50358548Y-100277975D01*
X50262042Y-100238001D01*
X50239660Y-100225079D01*
X50156783Y-100161484D01*
X50138512Y-100143212D01*
X50074920Y-100060337D01*
X50061997Y-100037953D01*
X50058035Y-100028387D01*
X50050500Y-99990504D01*
X50050500Y-98390000D01*
X54669534Y-98390000D01*
X54689313Y-98540236D01*
X54747302Y-98680233D01*
X54839549Y-98800451D01*
X54959767Y-98892698D01*
X55099764Y-98950687D01*
X55212280Y-98965500D01*
X55212281Y-98965500D01*
X55287719Y-98965500D01*
X55287720Y-98965500D01*
X55400236Y-98950687D01*
X55540233Y-98892698D01*
X55660451Y-98800451D01*
X55752698Y-98680233D01*
X55810687Y-98540236D01*
X55830466Y-98390000D01*
X55810687Y-98239764D01*
X55752698Y-98099767D01*
X55660451Y-97979549D01*
X55540233Y-97887302D01*
X55400236Y-97829313D01*
X55400234Y-97829312D01*
X55400232Y-97829312D01*
X55287720Y-97814500D01*
X55212280Y-97814500D01*
X55212279Y-97814500D01*
X55099767Y-97829312D01*
X55099761Y-97829314D01*
X54959768Y-97887301D01*
X54839551Y-97979547D01*
X54839547Y-97979551D01*
X54747301Y-98099768D01*
X54689314Y-98239761D01*
X54689312Y-98239767D01*
X54669534Y-98389999D01*
X54669534Y-98390000D01*
X50050500Y-98390000D01*
X50050500Y-94600002D01*
X53944968Y-94600002D01*
X53963398Y-94728191D01*
X53963399Y-94728194D01*
X53963399Y-94728195D01*
X53963400Y-94728197D01*
X53993657Y-94794450D01*
X54017204Y-94846011D01*
X54102014Y-94943888D01*
X54102016Y-94943889D01*
X54102017Y-94943890D01*
X54210973Y-95013912D01*
X54335242Y-95050400D01*
X54335244Y-95050400D01*
X54464756Y-95050400D01*
X54464758Y-95050400D01*
X54589027Y-95013912D01*
X54697983Y-94943890D01*
X54782797Y-94846009D01*
X54836600Y-94728197D01*
X54836600Y-94728191D01*
X54838596Y-94721400D01*
X54841568Y-94722272D01*
X54862691Y-94679214D01*
X54916779Y-94650612D01*
X54977350Y-94659265D01*
X55007848Y-94682494D01*
X55009593Y-94684464D01*
X55127812Y-94789197D01*
X55127815Y-94789199D01*
X55127817Y-94789200D01*
X55137822Y-94794451D01*
X55180561Y-94838234D01*
X55189402Y-94898777D01*
X55166635Y-94946941D01*
X55117204Y-95003988D01*
X55063399Y-95121805D01*
X55063398Y-95121808D01*
X55044968Y-95249997D01*
X55044968Y-95250002D01*
X55063398Y-95378191D01*
X55063399Y-95378194D01*
X55117204Y-95496011D01*
X55196416Y-95587426D01*
X55220234Y-95643785D01*
X55206376Y-95703380D01*
X55167606Y-95739916D01*
X55127815Y-95760800D01*
X55127813Y-95760801D01*
X55009594Y-95865534D01*
X55009593Y-95865536D01*
X54919869Y-95995525D01*
X54919867Y-95995528D01*
X54863863Y-96143198D01*
X54863860Y-96143207D01*
X54844823Y-96299998D01*
X54844823Y-96300001D01*
X54863860Y-96456792D01*
X54863863Y-96456801D01*
X54919867Y-96604471D01*
X54919869Y-96604474D01*
X55009593Y-96734463D01*
X55009594Y-96734465D01*
X55127812Y-96839197D01*
X55127815Y-96839199D01*
X55127817Y-96839200D01*
X55267671Y-96912601D01*
X55421027Y-96950400D01*
X55421030Y-96950400D01*
X55578970Y-96950400D01*
X55578973Y-96950400D01*
X55732329Y-96912601D01*
X55872183Y-96839200D01*
X55872185Y-96839197D01*
X55872187Y-96839197D01*
X55990405Y-96734465D01*
X55990405Y-96734464D01*
X55990407Y-96734463D01*
X56080130Y-96604476D01*
X56136139Y-96456794D01*
X56155177Y-96300000D01*
X56136139Y-96143206D01*
X56080130Y-95995524D01*
X55990407Y-95865537D01*
X55990406Y-95865536D01*
X55990405Y-95865534D01*
X55872187Y-95760802D01*
X55832394Y-95739917D01*
X55789655Y-95696132D01*
X55780815Y-95635589D01*
X55803580Y-95587429D01*
X55882797Y-95496009D01*
X55936600Y-95378197D01*
X55955032Y-95250000D01*
X55936600Y-95121803D01*
X55882797Y-95003991D01*
X55833364Y-94946942D01*
X55809547Y-94890582D01*
X55823406Y-94830987D01*
X55862177Y-94794451D01*
X55872183Y-94789200D01*
X55990407Y-94684463D01*
X56080130Y-94554476D01*
X56136139Y-94406794D01*
X56155177Y-94250000D01*
X56136139Y-94093206D01*
X56115766Y-94039488D01*
X56080132Y-93945528D01*
X56080130Y-93945525D01*
X56080130Y-93945524D01*
X55990407Y-93815537D01*
X55990406Y-93815536D01*
X55990405Y-93815534D01*
X55872187Y-93710802D01*
X55732327Y-93637398D01*
X55578975Y-93599600D01*
X55578973Y-93599600D01*
X55421027Y-93599600D01*
X55421024Y-93599600D01*
X55267672Y-93637398D01*
X55127812Y-93710802D01*
X55009594Y-93815534D01*
X55009593Y-93815536D01*
X54919869Y-93945524D01*
X54914113Y-93960705D01*
X54875800Y-94008410D01*
X54821546Y-94024600D01*
X54757200Y-94024600D01*
X54754617Y-94024532D01*
X54746467Y-94024105D01*
X54713951Y-94022400D01*
X54713949Y-94022400D01*
X54693056Y-94030420D01*
X54678171Y-94034830D01*
X54656274Y-94039485D01*
X54656268Y-94039488D01*
X54652056Y-94042548D01*
X54629361Y-94054871D01*
X54624498Y-94056737D01*
X54608670Y-94072565D01*
X54596863Y-94082648D01*
X54578755Y-94095805D01*
X54578752Y-94095808D01*
X54576149Y-94100317D01*
X54560421Y-94120813D01*
X54557990Y-94123244D01*
X54503473Y-94151021D01*
X54471999Y-94149000D01*
X54471768Y-94150608D01*
X54464759Y-94149600D01*
X54464758Y-94149600D01*
X54335242Y-94149600D01*
X54335239Y-94149600D01*
X54210975Y-94186087D01*
X54210972Y-94186088D01*
X54102014Y-94256111D01*
X54017204Y-94353988D01*
X53963399Y-94471805D01*
X53963398Y-94471808D01*
X53944968Y-94599997D01*
X53944968Y-94600002D01*
X50050500Y-94600002D01*
X50050500Y-92610000D01*
X54669534Y-92610000D01*
X54689313Y-92760236D01*
X54747302Y-92900233D01*
X54839549Y-93020451D01*
X54959767Y-93112698D01*
X55099764Y-93170687D01*
X55212280Y-93185500D01*
X55212281Y-93185500D01*
X55287719Y-93185500D01*
X55287720Y-93185500D01*
X55400236Y-93170687D01*
X55540233Y-93112698D01*
X55660451Y-93020451D01*
X55752698Y-92900233D01*
X55810687Y-92760236D01*
X55830466Y-92610000D01*
X55810687Y-92459764D01*
X55752698Y-92319767D01*
X55660451Y-92199549D01*
X55540233Y-92107302D01*
X55400236Y-92049313D01*
X55400234Y-92049312D01*
X55400232Y-92049312D01*
X55287720Y-92034500D01*
X55212280Y-92034500D01*
X55212279Y-92034500D01*
X55099767Y-92049312D01*
X55099761Y-92049314D01*
X54959768Y-92107301D01*
X54839551Y-92199547D01*
X54839547Y-92199551D01*
X54747301Y-92319768D01*
X54689314Y-92459761D01*
X54689312Y-92459767D01*
X54669534Y-92609999D01*
X54669534Y-92610000D01*
X50050500Y-92610000D01*
X50050500Y-91009495D01*
X50058033Y-90971616D01*
X50061999Y-90962041D01*
X50074916Y-90939666D01*
X50138518Y-90856779D01*
X50156779Y-90838518D01*
X50239666Y-90774916D01*
X50262035Y-90762001D01*
X50358554Y-90722022D01*
X50383508Y-90715336D01*
X50484332Y-90702062D01*
X50496780Y-90700424D01*
X50503247Y-90700000D01*
X56296753Y-90700000D01*
X56303220Y-90700424D01*
G37*
G04 #@! TD.AperFunction*
G04 #@! TA.AperFunction,Conductor*
G36*
X72339359Y-118313888D02*
G01*
X72362124Y-118330887D01*
X72435514Y-118404278D01*
X72437298Y-118406158D01*
X72464551Y-118436426D01*
X72464552Y-118436426D01*
X72464553Y-118436427D01*
X72484999Y-118445530D01*
X72498636Y-118452933D01*
X72517419Y-118465131D01*
X72522559Y-118465945D01*
X72547336Y-118473284D01*
X72551140Y-118474977D01*
X72552090Y-118475400D01*
X72574468Y-118475400D01*
X72589954Y-118476618D01*
X72612060Y-118480120D01*
X72612060Y-118480119D01*
X72612061Y-118480120D01*
X72617086Y-118478774D01*
X72642710Y-118475400D01*
X76765946Y-118475400D01*
X76768528Y-118475467D01*
X76796734Y-118476945D01*
X76809192Y-118477599D01*
X76809192Y-118477598D01*
X76809194Y-118477599D01*
X76830093Y-118469575D01*
X76844971Y-118465168D01*
X76866873Y-118460514D01*
X76871086Y-118457452D01*
X76893801Y-118445120D01*
X76898650Y-118443259D01*
X76914473Y-118427434D01*
X76926278Y-118417352D01*
X76944393Y-118404192D01*
X76946996Y-118399681D01*
X76962724Y-118379183D01*
X77002513Y-118339394D01*
X77057025Y-118311619D01*
X77085430Y-118311247D01*
X77116491Y-118315336D01*
X77141447Y-118322023D01*
X77237960Y-118362000D01*
X77260336Y-118374918D01*
X77343216Y-118438515D01*
X77361484Y-118456783D01*
X77378359Y-118478774D01*
X77425079Y-118539660D01*
X77438001Y-118562042D01*
X77477975Y-118658548D01*
X77484664Y-118683512D01*
X77499576Y-118796779D01*
X77500000Y-118803247D01*
X77500000Y-119296752D01*
X77499576Y-119303220D01*
X77484664Y-119416487D01*
X77477975Y-119441451D01*
X77438001Y-119537957D01*
X77425079Y-119560339D01*
X77361487Y-119643213D01*
X77343213Y-119661487D01*
X77260339Y-119725079D01*
X77237957Y-119738001D01*
X77141451Y-119777975D01*
X77116487Y-119784664D01*
X77003221Y-119799576D01*
X76996753Y-119800000D01*
X72303247Y-119800000D01*
X72296779Y-119799576D01*
X72183512Y-119784664D01*
X72158548Y-119777975D01*
X72062042Y-119738001D01*
X72039660Y-119725079D01*
X71956783Y-119661484D01*
X71938515Y-119643216D01*
X71874918Y-119560336D01*
X71862000Y-119537960D01*
X71822023Y-119441447D01*
X71815336Y-119416489D01*
X71800424Y-119303219D01*
X71800000Y-119296752D01*
X71800000Y-118803247D01*
X71800424Y-118796780D01*
X71802062Y-118784332D01*
X71815336Y-118683508D01*
X71822022Y-118658554D01*
X71862001Y-118562035D01*
X71874916Y-118539666D01*
X71938518Y-118456779D01*
X71956779Y-118438518D01*
X72039666Y-118374916D01*
X72062035Y-118362001D01*
X72158554Y-118322022D01*
X72183506Y-118315336D01*
X72279199Y-118302738D01*
X72339359Y-118313888D01*
G37*
G04 #@! TD.AperFunction*
G04 #@! TA.AperFunction,Conductor*
G36*
X72342121Y-107220002D02*
G01*
X72388614Y-107273658D01*
X72400000Y-107326000D01*
X72400000Y-108790920D01*
X72379998Y-108859041D01*
X72326342Y-108905534D01*
X72256068Y-108915638D01*
X72205880Y-108896918D01*
X72189032Y-108886090D01*
X72189025Y-108886087D01*
X72064758Y-108849600D01*
X71935242Y-108849600D01*
X71810974Y-108886087D01*
X71810971Y-108886089D01*
X71702016Y-108956110D01*
X71702014Y-108956111D01*
X71617206Y-109053986D01*
X71617203Y-109053990D01*
X71563400Y-109171802D01*
X71563398Y-109171809D01*
X71544968Y-109299996D01*
X71544968Y-109300003D01*
X71563398Y-109428190D01*
X71563400Y-109428197D01*
X71615502Y-109542284D01*
X71625605Y-109612558D01*
X71596112Y-109677139D01*
X71589984Y-109683721D01*
X71517475Y-109756229D01*
X71472489Y-109858114D01*
X71469600Y-109883018D01*
X71469600Y-110316981D01*
X71472489Y-110341885D01*
X71517476Y-110443770D01*
X71517477Y-110443772D01*
X71596227Y-110522522D01*
X71596229Y-110522523D01*
X71596230Y-110522524D01*
X71698114Y-110567510D01*
X71723019Y-110570399D01*
X71723021Y-110570400D01*
X71723024Y-110570400D01*
X72106979Y-110570400D01*
X72106979Y-110570399D01*
X72131886Y-110567510D01*
X72223107Y-110527231D01*
X72293501Y-110518014D01*
X72357705Y-110548319D01*
X72395334Y-110608524D01*
X72400000Y-110642496D01*
X72400000Y-117330766D01*
X72399604Y-117337824D01*
X72397811Y-117353743D01*
X72394852Y-117380001D01*
X72394852Y-117380004D01*
X72395358Y-117384497D01*
X72383106Y-117454429D01*
X72334992Y-117506635D01*
X72270150Y-117524600D01*
X64645554Y-117524600D01*
X64577433Y-117504598D01*
X64556459Y-117487695D01*
X64512305Y-117443541D01*
X64478279Y-117381229D01*
X64475400Y-117354446D01*
X64475400Y-116757554D01*
X64475485Y-116754282D01*
X64477599Y-116713952D01*
X64470338Y-116695039D01*
X64464726Y-116676091D01*
X64460514Y-116656273D01*
X64460513Y-116656272D01*
X64460513Y-116656270D01*
X64460512Y-116656269D01*
X64459541Y-116654932D01*
X64443847Y-116626027D01*
X64443260Y-116624499D01*
X64443259Y-116624496D01*
X64428937Y-116610174D01*
X64416101Y-116595145D01*
X64404192Y-116578753D01*
X64404190Y-116578752D01*
X64404191Y-116578752D01*
X64402756Y-116577924D01*
X64376664Y-116557901D01*
X64268955Y-116450192D01*
X69088789Y-116450192D01*
X69107219Y-116578379D01*
X69107221Y-116578386D01*
X69161024Y-116696198D01*
X69161027Y-116696202D01*
X69245835Y-116794077D01*
X69245837Y-116794078D01*
X69245838Y-116794079D01*
X69354794Y-116864101D01*
X69479063Y-116900589D01*
X69608579Y-116900589D01*
X69732848Y-116864101D01*
X69841804Y-116794079D01*
X69845684Y-116789602D01*
X69876311Y-116754256D01*
X69926618Y-116696198D01*
X69980421Y-116578386D01*
X69980693Y-116576490D01*
X69998853Y-116450192D01*
X69998853Y-116450185D01*
X69980422Y-116321998D01*
X69980421Y-116321997D01*
X69980421Y-116321992D01*
X69951745Y-116259202D01*
X69941641Y-116188929D01*
X69951745Y-116154518D01*
X69957925Y-116140986D01*
X69986600Y-116078197D01*
X70005032Y-115950000D01*
X70005032Y-115949996D01*
X69986601Y-115821809D01*
X69986600Y-115821808D01*
X69986600Y-115821803D01*
X69932797Y-115703991D01*
X69932793Y-115703986D01*
X69847985Y-115606111D01*
X69847983Y-115606110D01*
X69847982Y-115606109D01*
X69739027Y-115536088D01*
X69739026Y-115536087D01*
X69739025Y-115536087D01*
X69614758Y-115499600D01*
X69485242Y-115499600D01*
X69360974Y-115536087D01*
X69360971Y-115536089D01*
X69252016Y-115606110D01*
X69252014Y-115606111D01*
X69167206Y-115703986D01*
X69167203Y-115703990D01*
X69113400Y-115821802D01*
X69113398Y-115821809D01*
X69094968Y-115949996D01*
X69094968Y-115950003D01*
X69113398Y-116078190D01*
X69113400Y-116078197D01*
X69142075Y-116140986D01*
X69152178Y-116211260D01*
X69142075Y-116245669D01*
X69107222Y-116321988D01*
X69107219Y-116321998D01*
X69088789Y-116450185D01*
X69088789Y-116450192D01*
X64268955Y-116450192D01*
X64261640Y-116442877D01*
X64114727Y-116295964D01*
X64112475Y-116293591D01*
X64085447Y-116263573D01*
X64085446Y-116263572D01*
X64066944Y-116255335D01*
X64049571Y-116245902D01*
X64032581Y-116234869D01*
X64032576Y-116234867D01*
X64030939Y-116234608D01*
X63999421Y-116225272D01*
X63997913Y-116224601D01*
X63997911Y-116224600D01*
X63997910Y-116224600D01*
X63997909Y-116224600D01*
X63977658Y-116224600D01*
X63957950Y-116223049D01*
X63948006Y-116221474D01*
X63937940Y-116219880D01*
X63937939Y-116219880D01*
X63936346Y-116220307D01*
X63903736Y-116224600D01*
X63457555Y-116224600D01*
X63454281Y-116224514D01*
X63413952Y-116222401D01*
X63413950Y-116222401D01*
X63395043Y-116229659D01*
X63376091Y-116235273D01*
X63356272Y-116239486D01*
X63354930Y-116240461D01*
X63326040Y-116256147D01*
X63324501Y-116256737D01*
X63324495Y-116256741D01*
X63310173Y-116271063D01*
X63295146Y-116283896D01*
X63289569Y-116287949D01*
X63278752Y-116295808D01*
X63278748Y-116295812D01*
X63277920Y-116297248D01*
X63257902Y-116323333D01*
X62995973Y-116585263D01*
X62993581Y-116587533D01*
X62963576Y-116614548D01*
X62963572Y-116614555D01*
X62955332Y-116633060D01*
X62945906Y-116650422D01*
X62942978Y-116654932D01*
X62934999Y-116667218D01*
X62881128Y-116713458D01*
X62829323Y-116724600D01*
X61245553Y-116724600D01*
X61177432Y-116704598D01*
X61156458Y-116687695D01*
X60562305Y-116093542D01*
X60528279Y-116031230D01*
X60525400Y-116004447D01*
X60525400Y-114285003D01*
X70144968Y-114285003D01*
X70163398Y-114413190D01*
X70163400Y-114413197D01*
X70217203Y-114531009D01*
X70217206Y-114531013D01*
X70302014Y-114628888D01*
X70302016Y-114628889D01*
X70302017Y-114628890D01*
X70410973Y-114698912D01*
X70535242Y-114735400D01*
X70664758Y-114735400D01*
X70789027Y-114698912D01*
X70897983Y-114628890D01*
X70982797Y-114531009D01*
X71036600Y-114413197D01*
X71055032Y-114285000D01*
X71055032Y-114284996D01*
X71036601Y-114156809D01*
X71036600Y-114156808D01*
X71036600Y-114156803D01*
X70982797Y-114038991D01*
X70982793Y-114038986D01*
X70897985Y-113941111D01*
X70897979Y-113941106D01*
X70841262Y-113904656D01*
X70794769Y-113851001D01*
X70784666Y-113780726D01*
X70814159Y-113716146D01*
X70841258Y-113692664D01*
X70905483Y-113651390D01*
X70990297Y-113553509D01*
X71044100Y-113435697D01*
X71059344Y-113329675D01*
X71062532Y-113307503D01*
X71062532Y-113307496D01*
X71044101Y-113179309D01*
X71044100Y-113179308D01*
X71044100Y-113179303D01*
X70990297Y-113061491D01*
X70980687Y-113050400D01*
X70905485Y-112963611D01*
X70905483Y-112963610D01*
X70874798Y-112943890D01*
X70796527Y-112893588D01*
X70796526Y-112893587D01*
X70796525Y-112893587D01*
X70672258Y-112857100D01*
X70542742Y-112857100D01*
X70418474Y-112893587D01*
X70418471Y-112893589D01*
X70309516Y-112963610D01*
X70309514Y-112963611D01*
X70224706Y-113061486D01*
X70224703Y-113061490D01*
X70170900Y-113179302D01*
X70170898Y-113179309D01*
X70152468Y-113307496D01*
X70152468Y-113307503D01*
X70170898Y-113435690D01*
X70170900Y-113435697D01*
X70224703Y-113553509D01*
X70224706Y-113553513D01*
X70309514Y-113651388D01*
X70309516Y-113651389D01*
X70309517Y-113651390D01*
X70338288Y-113669880D01*
X70366237Y-113687842D01*
X70412730Y-113741498D01*
X70422833Y-113811772D01*
X70393340Y-113876353D01*
X70366237Y-113899838D01*
X70302016Y-113941110D01*
X70302014Y-113941111D01*
X70217206Y-114038986D01*
X70217203Y-114038990D01*
X70163400Y-114156802D01*
X70163398Y-114156809D01*
X70144968Y-114284996D01*
X70144968Y-114285003D01*
X60525400Y-114285003D01*
X60525400Y-113445554D01*
X60545402Y-113377433D01*
X60562305Y-113356459D01*
X60800873Y-113117891D01*
X60863185Y-113083865D01*
X60934000Y-113088930D01*
X60985192Y-113124473D01*
X61002017Y-113143890D01*
X61110973Y-113213912D01*
X61235242Y-113250400D01*
X61364758Y-113250400D01*
X61489027Y-113213912D01*
X61597983Y-113143890D01*
X61682797Y-113046009D01*
X61736600Y-112928197D01*
X61746822Y-112857100D01*
X61755032Y-112800003D01*
X61755032Y-112799996D01*
X61736601Y-112671809D01*
X61736600Y-112671808D01*
X61736600Y-112671803D01*
X61703810Y-112600003D01*
X63244968Y-112600003D01*
X63263398Y-112728190D01*
X63263400Y-112728197D01*
X63317203Y-112846009D01*
X63317206Y-112846013D01*
X63402014Y-112943888D01*
X63402016Y-112943889D01*
X63402017Y-112943890D01*
X63510973Y-113013912D01*
X63635242Y-113050400D01*
X63764758Y-113050400D01*
X63889027Y-113013912D01*
X63997983Y-112943890D01*
X64082797Y-112846009D01*
X64136600Y-112728197D01*
X64142986Y-112683783D01*
X64155032Y-112600003D01*
X64155032Y-112599996D01*
X64136601Y-112471809D01*
X64136600Y-112471808D01*
X64136600Y-112471803D01*
X64093460Y-112377341D01*
X64083356Y-112307069D01*
X64093461Y-112272658D01*
X64136600Y-112178197D01*
X64136872Y-112176301D01*
X64155032Y-112050003D01*
X64155032Y-112049996D01*
X64136601Y-111921809D01*
X64136600Y-111921808D01*
X64136600Y-111921803D01*
X64093460Y-111827341D01*
X64083356Y-111757069D01*
X64093461Y-111722658D01*
X64136600Y-111628197D01*
X64145240Y-111568103D01*
X69019968Y-111568103D01*
X69019969Y-111568107D01*
X69030714Y-111630428D01*
X69038547Y-111687416D01*
X69039327Y-111693092D01*
X69041651Y-111701386D01*
X69041106Y-111701538D01*
X69041361Y-111702391D01*
X69041901Y-111702220D01*
X69044506Y-111710427D01*
X69044508Y-111710432D01*
X69044509Y-111710435D01*
X69071668Y-111767543D01*
X69087500Y-111803991D01*
X69096867Y-111825556D01*
X69101344Y-111832918D01*
X69100860Y-111833212D01*
X69101341Y-111833973D01*
X69101815Y-111833663D01*
X69106539Y-111840866D01*
X69148104Y-111888535D01*
X69188015Y-111937592D01*
X69188019Y-111937595D01*
X69194312Y-111943472D01*
X69193922Y-111943888D01*
X69194588Y-111944490D01*
X69194963Y-111944061D01*
X69201458Y-111949723D01*
X69201459Y-111949725D01*
X69236302Y-111972578D01*
X69254352Y-111984417D01*
X69306007Y-112020880D01*
X69313660Y-112024845D01*
X69313396Y-112025354D01*
X69314196Y-112025751D01*
X69314442Y-112025235D01*
X69322224Y-112028936D01*
X69322226Y-112028936D01*
X69322227Y-112028937D01*
X69382525Y-112048074D01*
X69442099Y-112069247D01*
X69442101Y-112069247D01*
X69450536Y-112071000D01*
X69450419Y-112071560D01*
X69451294Y-112071726D01*
X69451391Y-112071164D01*
X69459885Y-112072628D01*
X69459887Y-112072628D01*
X69459890Y-112072629D01*
X69523108Y-112074788D01*
X69532119Y-112075404D01*
X69586186Y-112079104D01*
X69586188Y-112079103D01*
X69586192Y-112079104D01*
X69586194Y-112079103D01*
X69594788Y-112078515D01*
X69594827Y-112079089D01*
X69595715Y-112079013D01*
X69595657Y-112078441D01*
X69604226Y-112077559D01*
X69604235Y-112077560D01*
X69665680Y-112062586D01*
X69727600Y-112049719D01*
X69727608Y-112049714D01*
X69735722Y-112046832D01*
X69735914Y-112047373D01*
X69736745Y-112047061D01*
X69736535Y-112046528D01*
X69744552Y-112043365D01*
X69744558Y-112043364D01*
X69784545Y-112020880D01*
X69799682Y-112012369D01*
X69814230Y-112004830D01*
X69855837Y-111983272D01*
X69855842Y-111983266D01*
X69862883Y-111978298D01*
X69863214Y-111978767D01*
X69863925Y-111978247D01*
X69863578Y-111977789D01*
X69870446Y-111972580D01*
X69870450Y-111972578D01*
X69915160Y-111927867D01*
X69961391Y-111884691D01*
X69961392Y-111884687D01*
X69966832Y-111878003D01*
X69967274Y-111878363D01*
X69976828Y-111866198D01*
X70080723Y-111762304D01*
X70143037Y-111728279D01*
X70169819Y-111725400D01*
X70220466Y-111725400D01*
X70279021Y-111739832D01*
X70417671Y-111812601D01*
X70571027Y-111850400D01*
X70571028Y-111850400D01*
X70728972Y-111850400D01*
X70728973Y-111850400D01*
X70882329Y-111812601D01*
X71022183Y-111739200D01*
X71140407Y-111634463D01*
X71230130Y-111504476D01*
X71286139Y-111356794D01*
X71286139Y-111356793D01*
X71286140Y-111356791D01*
X71305177Y-111200003D01*
X71305177Y-111199996D01*
X71286140Y-111043208D01*
X71236685Y-110912809D01*
X71230130Y-110895524D01*
X71230128Y-110895522D01*
X71230128Y-110895520D01*
X71140409Y-110765539D01*
X71134037Y-110759894D01*
X71022183Y-110660800D01*
X70882329Y-110587399D01*
X70882328Y-110587398D01*
X70882327Y-110587398D01*
X70728974Y-110549600D01*
X70728973Y-110549600D01*
X70571027Y-110549600D01*
X70571025Y-110549600D01*
X70417673Y-110587398D01*
X70417672Y-110587398D01*
X70279021Y-110660168D01*
X70220466Y-110674600D01*
X70169818Y-110674600D01*
X70101697Y-110654598D01*
X70080723Y-110637695D01*
X70012361Y-110569333D01*
X69942842Y-110499814D01*
X69938527Y-110495033D01*
X69911986Y-110462409D01*
X69911985Y-110462408D01*
X69860322Y-110425940D01*
X69809924Y-110387722D01*
X69802414Y-110383499D01*
X69802692Y-110383004D01*
X69801904Y-110382579D01*
X69801643Y-110383084D01*
X69793993Y-110379120D01*
X69793991Y-110379119D01*
X69734414Y-110357945D01*
X69685830Y-110338786D01*
X69675564Y-110334738D01*
X69667192Y-110332698D01*
X69667326Y-110332145D01*
X69666457Y-110331948D01*
X69666341Y-110332507D01*
X69657898Y-110330752D01*
X69599810Y-110326778D01*
X69594812Y-110326437D01*
X69590539Y-110325997D01*
X69531897Y-110319968D01*
X69523282Y-110320263D01*
X69523262Y-110319699D01*
X69522363Y-110319745D01*
X69522402Y-110320308D01*
X69513812Y-110320895D01*
X69451882Y-110333764D01*
X69389570Y-110344507D01*
X69381356Y-110347115D01*
X69381184Y-110346574D01*
X69380330Y-110346862D01*
X69380520Y-110347395D01*
X69372402Y-110350279D01*
X69344840Y-110364560D01*
X69316241Y-110379380D01*
X69277538Y-110397785D01*
X69259133Y-110406539D01*
X69251934Y-110411261D01*
X69251626Y-110410792D01*
X69250877Y-110411302D01*
X69251200Y-110411760D01*
X69244163Y-110416727D01*
X69197942Y-110459895D01*
X69150277Y-110501456D01*
X69144614Y-110507951D01*
X69144188Y-110507580D01*
X69143608Y-110508269D01*
X69144046Y-110508626D01*
X69138606Y-110515312D01*
X69105756Y-110569333D01*
X69071062Y-110622227D01*
X69067362Y-110630008D01*
X69066852Y-110629765D01*
X69066480Y-110630584D01*
X69066998Y-110630809D01*
X69063564Y-110638713D01*
X69046506Y-110699596D01*
X69027369Y-110759894D01*
X69025905Y-110768386D01*
X69025348Y-110768290D01*
X69025211Y-110769172D01*
X69025773Y-110769250D01*
X69024600Y-110777786D01*
X69024600Y-110841005D01*
X69022440Y-110904240D01*
X69023321Y-110912809D01*
X69022754Y-110912867D01*
X69024600Y-110928230D01*
X69024600Y-111519831D01*
X69024269Y-111526279D01*
X69019968Y-111568103D01*
X64145240Y-111568103D01*
X64154388Y-111504479D01*
X64155032Y-111500003D01*
X64155032Y-111499996D01*
X64136601Y-111371809D01*
X64136600Y-111371808D01*
X64136600Y-111371803D01*
X64093460Y-111277341D01*
X64083356Y-111207069D01*
X64093461Y-111172658D01*
X64136600Y-111078197D01*
X64155032Y-110950000D01*
X64155032Y-110949996D01*
X64136601Y-110821809D01*
X64136600Y-110821808D01*
X64136600Y-110821803D01*
X64082797Y-110703991D01*
X64057330Y-110674600D01*
X63997985Y-110606111D01*
X63997983Y-110606110D01*
X63942417Y-110570400D01*
X63889027Y-110536088D01*
X63889026Y-110536087D01*
X63889025Y-110536087D01*
X63764758Y-110499600D01*
X63635242Y-110499600D01*
X63510974Y-110536087D01*
X63510971Y-110536089D01*
X63402016Y-110606110D01*
X63402014Y-110606111D01*
X63317206Y-110703986D01*
X63317203Y-110703990D01*
X63263400Y-110821802D01*
X63263398Y-110821809D01*
X63244968Y-110949996D01*
X63244968Y-110950003D01*
X63263398Y-111078190D01*
X63263400Y-111078197D01*
X63306538Y-111172657D01*
X63306539Y-111172658D01*
X63316642Y-111242932D01*
X63306539Y-111277341D01*
X63301771Y-111287781D01*
X63263400Y-111371802D01*
X63263398Y-111371809D01*
X63244968Y-111499996D01*
X63244968Y-111500003D01*
X63263398Y-111628190D01*
X63263400Y-111628197D01*
X63306538Y-111722657D01*
X63306539Y-111722658D01*
X63316642Y-111792932D01*
X63306539Y-111827341D01*
X63304124Y-111832630D01*
X63263400Y-111921802D01*
X63263398Y-111921809D01*
X63244968Y-112049996D01*
X63244968Y-112050003D01*
X63263398Y-112178190D01*
X63263400Y-112178197D01*
X63306538Y-112272657D01*
X63306539Y-112272658D01*
X63316642Y-112342932D01*
X63306539Y-112377341D01*
X63302545Y-112386087D01*
X63263400Y-112471802D01*
X63263398Y-112471809D01*
X63244968Y-112599996D01*
X63244968Y-112600003D01*
X61703810Y-112600003D01*
X61682797Y-112553991D01*
X61682793Y-112553986D01*
X61597985Y-112456111D01*
X61597983Y-112456110D01*
X61597981Y-112456109D01*
X61489027Y-112386088D01*
X61489026Y-112386087D01*
X61489025Y-112386087D01*
X61364758Y-112349600D01*
X61235242Y-112349600D01*
X61110974Y-112386087D01*
X61110971Y-112386089D01*
X61002017Y-112456109D01*
X60937028Y-112531112D01*
X60877302Y-112569496D01*
X60841803Y-112574600D01*
X60807555Y-112574600D01*
X60804281Y-112574514D01*
X60763952Y-112572401D01*
X60763951Y-112572401D01*
X60763949Y-112572401D01*
X60745041Y-112579659D01*
X60726093Y-112585272D01*
X60706272Y-112589486D01*
X60704933Y-112590459D01*
X60676041Y-112606146D01*
X60674499Y-112606737D01*
X60674494Y-112606741D01*
X60660173Y-112621062D01*
X60645143Y-112633899D01*
X60628753Y-112645807D01*
X60619893Y-112655648D01*
X60616470Y-112652566D01*
X60583722Y-112683783D01*
X60514006Y-112697210D01*
X60448099Y-112670814D01*
X60406924Y-112612977D01*
X60400000Y-112571782D01*
X60400000Y-108470953D01*
X60420002Y-108402832D01*
X60436905Y-108381858D01*
X61581858Y-107236905D01*
X61644170Y-107202879D01*
X61670953Y-107200000D01*
X72274000Y-107200000D01*
X72342121Y-107220002D01*
G37*
G04 #@! TD.AperFunction*
M02*
