G04 #@! TF.GenerationSoftware,KiCad,Pcbnew,7.0.7+dfsg-1*
G04 #@! TF.CreationDate,2023-10-06T03:56:53+00:00*
G04 #@! TF.ProjectId,glasgow,676c6173-676f-4772-9e6b-696361645f70,C3*
G04 #@! TF.SameCoordinates,Original*
G04 #@! TF.FileFunction,Other,User*
%FSLAX46Y46*%
G04 Gerber Fmt 4.6, Leading zero omitted, Abs format (unit mm)*
G04 Created by KiCad (PCBNEW 7.0.7+dfsg-1) date 2023-10-06 03:56:53*
%MOMM*%
%LPD*%
G01*
G04 APERTURE LIST*
%ADD10C,0.050000*%
%ADD11C,0.120000*%
G04 APERTURE END LIST*
D10*
X77400000Y-105000000D02*
G75*
G03*
X77400000Y-105000000I-1000000J0D01*
G01*
X77400000Y-103300000D02*
G75*
G03*
X77400000Y-103300000I-1000000J0D01*
G01*
X59000000Y-118500000D02*
G75*
G03*
X59000000Y-118500000I-1000000J0D01*
G01*
X123000000Y-72500000D02*
G75*
G03*
X123000000Y-72500000I-1000000J0D01*
G01*
X126530000Y-108530000D02*
X126530000Y-106670000D01*
X127470000Y-108530000D02*
X126530000Y-108530000D01*
X126530000Y-106670000D02*
X127470000Y-106670000D01*
X127470000Y-106670000D02*
X127470000Y-108530000D01*
X59470000Y-107070000D02*
X59470000Y-108930000D01*
X58530000Y-107070000D02*
X59470000Y-107070000D01*
X59470000Y-108930000D02*
X58530000Y-108930000D01*
X58530000Y-108930000D02*
X58530000Y-107070000D01*
X59470000Y-109070000D02*
X59470000Y-110930000D01*
X58530000Y-109070000D02*
X59470000Y-109070000D01*
X59470000Y-110930000D02*
X58530000Y-110930000D01*
X58530000Y-110930000D02*
X58530000Y-109070000D01*
X74100000Y-89000000D02*
G75*
G03*
X74100000Y-89000000I-1000000J0D01*
G01*
X74560051Y-100825269D02*
X75875269Y-99510051D01*
X75224731Y-101489949D02*
X74560051Y-100825269D01*
X75875269Y-99510051D02*
X76539949Y-100174731D01*
X76539949Y-100174731D02*
X75224731Y-101489949D01*
X65420000Y-91070000D02*
X74280000Y-91070000D01*
X65420000Y-99930000D02*
X65420000Y-91070000D01*
X74280000Y-91070000D02*
X74280000Y-99930000D01*
X74280000Y-99930000D02*
X65420000Y-99930000D01*
X120430000Y-91630000D02*
X120430000Y-89770000D01*
X121370000Y-91630000D02*
X120430000Y-91630000D01*
X120430000Y-89770000D02*
X121370000Y-89770000D01*
X121370000Y-89770000D02*
X121370000Y-91630000D01*
X55520000Y-101270000D02*
X58480000Y-101270000D01*
X55520000Y-102730000D02*
X55520000Y-101270000D01*
X58480000Y-101270000D02*
X58480000Y-102730000D01*
X58480000Y-102730000D02*
X55520000Y-102730000D01*
X55520000Y-105270000D02*
X58480000Y-105270000D01*
X55520000Y-106730000D02*
X55520000Y-105270000D01*
X58480000Y-105270000D02*
X58480000Y-106730000D01*
X58480000Y-106730000D02*
X55520000Y-106730000D01*
X55520000Y-88270000D02*
X58480000Y-88270000D01*
X55520000Y-89730000D02*
X55520000Y-88270000D01*
X58480000Y-88270000D02*
X58480000Y-89730000D01*
X58480000Y-89730000D02*
X55520000Y-89730000D01*
X55520000Y-86270000D02*
X58480000Y-86270000D01*
X55520000Y-87730000D02*
X55520000Y-86270000D01*
X58480000Y-86270000D02*
X58480000Y-87730000D01*
X58480000Y-87730000D02*
X55520000Y-87730000D01*
X55520000Y-84270000D02*
X58480000Y-84270000D01*
X55520000Y-85730000D02*
X55520000Y-84270000D01*
X58480000Y-84270000D02*
X58480000Y-85730000D01*
X58480000Y-85730000D02*
X55520000Y-85730000D01*
X55520000Y-82270000D02*
X58480000Y-82270000D01*
X55520000Y-83730000D02*
X55520000Y-82270000D01*
X58480000Y-82270000D02*
X58480000Y-83730000D01*
X58480000Y-83730000D02*
X55520000Y-83730000D01*
X58530000Y-85930000D02*
X58530000Y-84070000D01*
X59470000Y-85930000D02*
X58530000Y-85930000D01*
X58530000Y-84070000D02*
X59470000Y-84070000D01*
X59470000Y-84070000D02*
X59470000Y-85930000D01*
X58530000Y-87930000D02*
X58530000Y-86070000D01*
X59470000Y-87930000D02*
X58530000Y-87930000D01*
X58530000Y-86070000D02*
X59470000Y-86070000D01*
X59470000Y-86070000D02*
X59470000Y-87930000D01*
X59470000Y-103070000D02*
X59470000Y-104930000D01*
X58530000Y-103070000D02*
X59470000Y-103070000D01*
X59470000Y-104930000D02*
X58530000Y-104930000D01*
X58530000Y-104930000D02*
X58530000Y-103070000D01*
X98500000Y-98300000D02*
X98500000Y-101100000D01*
X98500000Y-98300000D02*
X101700000Y-98300000D01*
X98500000Y-101100000D02*
X101700000Y-101100000D01*
X101700000Y-101100000D02*
X101700000Y-98300000D01*
X98500000Y-95500000D02*
X98500000Y-98300000D01*
X98500000Y-95500000D02*
X101700000Y-95500000D01*
X98500000Y-98300000D02*
X101700000Y-98300000D01*
X101700000Y-98300000D02*
X101700000Y-95500000D01*
X98500000Y-89900000D02*
X98500000Y-92700000D01*
X98500000Y-89900000D02*
X101700000Y-89900000D01*
X98500000Y-92700000D02*
X101700000Y-92700000D01*
X101700000Y-92700000D02*
X101700000Y-89900000D01*
X94500000Y-92700000D02*
X94500000Y-95500000D01*
X94500000Y-92700000D02*
X97700000Y-92700000D01*
X94500000Y-95500000D02*
X97700000Y-95500000D01*
X97700000Y-95500000D02*
X97700000Y-92700000D01*
X94500000Y-89900000D02*
X94500000Y-92700000D01*
X94500000Y-89900000D02*
X97700000Y-89900000D01*
X94500000Y-92700000D02*
X97700000Y-92700000D01*
X97700000Y-92700000D02*
X97700000Y-89900000D01*
X94500000Y-87100000D02*
X94500000Y-89900000D01*
X94500000Y-87100000D02*
X97700000Y-87100000D01*
X94500000Y-89900000D02*
X97700000Y-89900000D01*
X97700000Y-89900000D02*
X97700000Y-87100000D01*
X94500000Y-95500000D02*
X94500000Y-98300000D01*
X94500000Y-95500000D02*
X97700000Y-95500000D01*
X94500000Y-98300000D02*
X97700000Y-98300000D01*
X97700000Y-98300000D02*
X97700000Y-95500000D01*
X94500000Y-101100000D02*
X94500000Y-103900000D01*
X94500000Y-101100000D02*
X97700000Y-101100000D01*
X94500000Y-103900000D02*
X97700000Y-103900000D01*
X97700000Y-103900000D02*
X97700000Y-101100000D01*
X94500000Y-103900000D02*
X94500000Y-106700000D01*
X94500000Y-103900000D02*
X97700000Y-103900000D01*
X94500000Y-106700000D02*
X97700000Y-106700000D01*
X97700000Y-106700000D02*
X97700000Y-103900000D01*
X121330000Y-87870000D02*
X119470000Y-87870000D01*
X121330000Y-86930000D02*
X121330000Y-87870000D01*
X119470000Y-87870000D02*
X119470000Y-86930000D01*
X119470000Y-86930000D02*
X121330000Y-86930000D01*
X55520000Y-80270000D02*
X58480000Y-80270000D01*
X55520000Y-81730000D02*
X55520000Y-80270000D01*
X58480000Y-80270000D02*
X58480000Y-81730000D01*
X58480000Y-81730000D02*
X55520000Y-81730000D01*
X106650000Y-89400000D02*
X106650000Y-85850000D01*
X117850000Y-89400000D02*
X106650000Y-89400000D01*
X106650000Y-85850000D02*
X117850000Y-85850000D01*
X117850000Y-85850000D02*
X117850000Y-89400000D01*
X117850000Y-106700000D02*
X117850000Y-110250000D01*
X106650000Y-106700000D02*
X117850000Y-106700000D01*
X117850000Y-110250000D02*
X106650000Y-110250000D01*
X106650000Y-110250000D02*
X106650000Y-106700000D01*
X126170000Y-91780000D02*
X126170000Y-88820000D01*
X127630000Y-91780000D02*
X126170000Y-91780000D01*
X126170000Y-88820000D02*
X127630000Y-88820000D01*
X127630000Y-88820000D02*
X127630000Y-91780000D01*
X120430000Y-99220000D02*
X120430000Y-102180000D01*
X118970000Y-99220000D02*
X120430000Y-99220000D01*
X120430000Y-102180000D02*
X118970000Y-102180000D01*
X118970000Y-102180000D02*
X118970000Y-99220000D01*
X124780000Y-104430000D02*
X121820000Y-104430000D01*
X124780000Y-102970000D02*
X124780000Y-104430000D01*
X121820000Y-104430000D02*
X121820000Y-102970000D01*
X121820000Y-102970000D02*
X124780000Y-102970000D01*
X126170000Y-101270000D02*
X126170000Y-103130000D01*
X125230000Y-101270000D02*
X126170000Y-101270000D01*
X126170000Y-103130000D02*
X125230000Y-103130000D01*
X125230000Y-103130000D02*
X125230000Y-101270000D01*
X126170000Y-99370000D02*
X126170000Y-101230000D01*
X125230000Y-99370000D02*
X126170000Y-99370000D01*
X126170000Y-101230000D02*
X125230000Y-101230000D01*
X125230000Y-101230000D02*
X125230000Y-99370000D01*
X123000000Y-118500000D02*
G75*
G03*
X123000000Y-118500000I-1000000J0D01*
G01*
X79350000Y-90400000D02*
G75*
G03*
X79350000Y-90400000I-750000J0D01*
G01*
X125230000Y-91230000D02*
X125230000Y-89370000D01*
X126170000Y-91230000D02*
X125230000Y-91230000D01*
X125230000Y-89370000D02*
X126170000Y-89370000D01*
X126170000Y-89370000D02*
X126170000Y-91230000D01*
X120430000Y-89730000D02*
X120430000Y-87870000D01*
X121370000Y-89730000D02*
X120430000Y-89730000D01*
X120430000Y-87870000D02*
X121370000Y-87870000D01*
X121370000Y-87870000D02*
X121370000Y-89730000D01*
X58880000Y-94080000D02*
X58880000Y-92220000D01*
X59820000Y-94080000D02*
X58880000Y-94080000D01*
X58880000Y-92220000D02*
X59820000Y-92220000D01*
X59820000Y-92220000D02*
X59820000Y-94080000D01*
X58530000Y-89930000D02*
X58530000Y-88070000D01*
X59470000Y-89930000D02*
X58530000Y-89930000D01*
X58530000Y-88070000D02*
X59470000Y-88070000D01*
X59470000Y-88070000D02*
X59470000Y-89930000D01*
X75470000Y-89830000D02*
X77330000Y-89830000D01*
X75470000Y-90770000D02*
X75470000Y-89830000D01*
X77330000Y-89830000D02*
X77330000Y-90770000D01*
X77330000Y-90770000D02*
X75470000Y-90770000D01*
X58530000Y-81930000D02*
X58530000Y-80070000D01*
X59470000Y-81930000D02*
X58530000Y-81930000D01*
X58530000Y-80070000D02*
X59470000Y-80070000D01*
X59470000Y-80070000D02*
X59470000Y-81930000D01*
X58530000Y-83930000D02*
X58530000Y-82070000D01*
X59470000Y-83930000D02*
X58530000Y-83930000D01*
X58530000Y-82070000D02*
X59470000Y-82070000D01*
X59470000Y-82070000D02*
X59470000Y-83930000D01*
X59800000Y-90700000D02*
X59800000Y-94100000D01*
X59800000Y-94100000D02*
X64000000Y-94100000D01*
X64000000Y-90700000D02*
X59800000Y-90700000D01*
X64000000Y-94100000D02*
X64000000Y-90700000D01*
X89200000Y-90000000D02*
X78200000Y-90000000D01*
X89200000Y-90000000D02*
X89200000Y-101000000D01*
X89200000Y-101000000D02*
X78200000Y-101000000D01*
X78200000Y-101000000D02*
X78200000Y-90000000D01*
X59780000Y-92170000D02*
X57920000Y-92170000D01*
X59780000Y-91230000D02*
X59780000Y-92170000D01*
X57920000Y-92170000D02*
X57920000Y-91230000D01*
X57920000Y-91230000D02*
X59780000Y-91230000D01*
X98500000Y-87100000D02*
X98500000Y-89900000D01*
X98500000Y-87100000D02*
X101700000Y-87100000D01*
X98500000Y-89900000D02*
X101700000Y-89900000D01*
X101700000Y-89900000D02*
X101700000Y-87100000D01*
X98500000Y-84300000D02*
X98500000Y-87100000D01*
X98500000Y-84300000D02*
X101700000Y-84300000D01*
X98500000Y-87100000D02*
X101700000Y-87100000D01*
X101700000Y-87100000D02*
X101700000Y-84300000D01*
X59470000Y-105070000D02*
X59470000Y-106930000D01*
X58530000Y-105070000D02*
X59470000Y-105070000D01*
X59470000Y-106930000D02*
X58530000Y-106930000D01*
X58530000Y-106930000D02*
X58530000Y-105070000D01*
X55520000Y-107270000D02*
X58480000Y-107270000D01*
X55520000Y-108730000D02*
X55520000Y-107270000D01*
X58480000Y-107270000D02*
X58480000Y-108730000D01*
X58480000Y-108730000D02*
X55520000Y-108730000D01*
X59470000Y-101070000D02*
X59470000Y-102930000D01*
X58530000Y-101070000D02*
X59470000Y-101070000D01*
X59470000Y-102930000D02*
X58530000Y-102930000D01*
X58530000Y-102930000D02*
X58530000Y-101070000D01*
X55520000Y-103270000D02*
X58480000Y-103270000D01*
X55520000Y-104730000D02*
X55520000Y-103270000D01*
X58480000Y-103270000D02*
X58480000Y-104730000D01*
X58480000Y-104730000D02*
X55520000Y-104730000D01*
X55520000Y-109270000D02*
X58480000Y-109270000D01*
X55520000Y-110730000D02*
X55520000Y-109270000D01*
X58480000Y-109270000D02*
X58480000Y-110730000D01*
X58480000Y-110730000D02*
X55520000Y-110730000D01*
X124830000Y-82330000D02*
X124830000Y-80470000D01*
X125770000Y-82330000D02*
X124830000Y-82330000D01*
X124830000Y-80470000D02*
X125770000Y-80470000D01*
X125770000Y-80470000D02*
X125770000Y-82330000D01*
X117850000Y-101620000D02*
X117850000Y-105170000D01*
X106650000Y-101620000D02*
X117850000Y-101620000D01*
X117850000Y-105170000D02*
X106650000Y-105170000D01*
X106650000Y-105170000D02*
X106650000Y-101620000D01*
X121400000Y-99400000D02*
X125200000Y-99400000D01*
X121400000Y-103000000D02*
X121400000Y-99400000D01*
X125200000Y-99400000D02*
X125200000Y-103000000D01*
X125200000Y-103000000D02*
X121400000Y-103000000D01*
X108830000Y-101870000D02*
X106970000Y-101870000D01*
X108830000Y-100930000D02*
X108830000Y-101870000D01*
X106970000Y-101870000D02*
X106970000Y-100930000D01*
X106970000Y-100930000D02*
X108830000Y-100930000D01*
X125270000Y-103130000D02*
X127130000Y-103130000D01*
X125270000Y-104070000D02*
X125270000Y-103130000D01*
X127130000Y-103130000D02*
X127130000Y-104070000D01*
X127130000Y-104070000D02*
X125270000Y-104070000D01*
X125570000Y-108670000D02*
X125570000Y-110530000D01*
X124630000Y-108670000D02*
X125570000Y-108670000D01*
X125570000Y-110530000D02*
X124630000Y-110530000D01*
X124630000Y-110530000D02*
X124630000Y-108670000D01*
X98500000Y-92700000D02*
X98500000Y-95500000D01*
X98500000Y-92700000D02*
X101700000Y-92700000D01*
X98500000Y-95500000D02*
X101700000Y-95500000D01*
X101700000Y-95500000D02*
X101700000Y-92700000D01*
X71070000Y-112870000D02*
X71070000Y-114730000D01*
X70130000Y-112870000D02*
X71070000Y-112870000D01*
X71070000Y-114730000D02*
X70130000Y-114730000D01*
X70130000Y-114730000D02*
X70130000Y-112870000D01*
X108850000Y-89450000D02*
X108850000Y-94950000D01*
X108850000Y-94950000D02*
X116550000Y-94950000D01*
X116550000Y-89450000D02*
X108850000Y-89450000D01*
X116550000Y-94950000D02*
X116550000Y-89450000D01*
X102530000Y-97680000D02*
X102530000Y-95820000D01*
X103470000Y-97680000D02*
X102530000Y-97680000D01*
X102530000Y-95820000D02*
X103470000Y-95820000D01*
X103470000Y-95820000D02*
X103470000Y-97680000D01*
X103470000Y-93970000D02*
X103470000Y-95830000D01*
X102530000Y-93970000D02*
X103470000Y-93970000D01*
X103470000Y-95830000D02*
X102530000Y-95830000D01*
X102530000Y-95830000D02*
X102530000Y-93970000D01*
X98500000Y-101100000D02*
X98500000Y-103900000D01*
X98500000Y-101100000D02*
X101700000Y-101100000D01*
X98500000Y-103900000D02*
X101700000Y-103900000D01*
X101700000Y-103900000D02*
X101700000Y-101100000D01*
X94500000Y-98300000D02*
X94500000Y-101100000D01*
X94500000Y-98300000D02*
X97700000Y-98300000D01*
X94500000Y-101100000D02*
X97700000Y-101100000D01*
X97700000Y-101100000D02*
X97700000Y-98300000D01*
X116585000Y-101130000D02*
X118445000Y-101130000D01*
X116585000Y-102070000D02*
X116585000Y-101130000D01*
X118445000Y-101130000D02*
X118445000Y-102070000D01*
X118445000Y-102070000D02*
X116585000Y-102070000D01*
X85880000Y-108580000D02*
X85880000Y-106720000D01*
X86820000Y-108580000D02*
X85880000Y-108580000D01*
X85880000Y-106720000D02*
X86820000Y-106720000D01*
X86820000Y-106720000D02*
X86820000Y-108580000D01*
X116570000Y-99930000D02*
X118430000Y-99930000D01*
X116570000Y-100870000D02*
X116570000Y-99930000D01*
X118430000Y-99930000D02*
X118430000Y-100870000D01*
X118430000Y-100870000D02*
X116570000Y-100870000D01*
X106970000Y-100030000D02*
X108830000Y-100030000D01*
X106970000Y-100970000D02*
X106970000Y-100030000D01*
X108830000Y-100030000D02*
X108830000Y-100970000D01*
X108830000Y-100970000D02*
X106970000Y-100970000D01*
X108820000Y-89420000D02*
X108820000Y-91280000D01*
X107880000Y-89420000D02*
X108820000Y-89420000D01*
X108820000Y-91280000D02*
X107880000Y-91280000D01*
X107880000Y-91280000D02*
X107880000Y-89420000D01*
X121370000Y-99770000D02*
X121370000Y-101630000D01*
X120430000Y-99770000D02*
X121370000Y-99770000D01*
X121370000Y-101630000D02*
X120430000Y-101630000D01*
X120430000Y-101630000D02*
X120430000Y-99770000D01*
X116550000Y-101550000D02*
X116550000Y-96050000D01*
X116550000Y-96050000D02*
X108850000Y-96050000D01*
X108850000Y-101550000D02*
X116550000Y-101550000D01*
X108850000Y-96050000D02*
X108850000Y-101550000D01*
X118430000Y-90970000D02*
X116570000Y-90970000D01*
X118430000Y-90030000D02*
X118430000Y-90970000D01*
X116570000Y-90970000D02*
X116570000Y-90030000D01*
X116570000Y-90030000D02*
X118430000Y-90030000D01*
X120370000Y-87870000D02*
X120370000Y-89730000D01*
X119430000Y-87870000D02*
X120370000Y-87870000D01*
X120370000Y-89730000D02*
X119430000Y-89730000D01*
X119430000Y-89730000D02*
X119430000Y-87870000D01*
X126230000Y-103130000D02*
X126230000Y-101270000D01*
X127170000Y-103130000D02*
X126230000Y-103130000D01*
X126230000Y-101270000D02*
X127170000Y-101270000D01*
X127170000Y-101270000D02*
X127170000Y-103130000D01*
X92930000Y-98170000D02*
X91070000Y-98170000D01*
X92930000Y-97230000D02*
X92930000Y-98170000D01*
X91070000Y-98170000D02*
X91070000Y-97230000D01*
X91070000Y-97230000D02*
X92930000Y-97230000D01*
X95700000Y-107300000D02*
G75*
G03*
X95700000Y-107300000I-1000000J0D01*
G01*
X95700000Y-109000000D02*
G75*
G03*
X95700000Y-109000000I-1000000J0D01*
G01*
X74430000Y-106830000D02*
X74430000Y-104970000D01*
X75370000Y-106830000D02*
X74430000Y-106830000D01*
X74430000Y-104970000D02*
X75370000Y-104970000D01*
X75370000Y-104970000D02*
X75370000Y-106830000D01*
X108500000Y-96350000D02*
X108500000Y-98850000D01*
X107100000Y-96350000D02*
X108500000Y-96350000D01*
X108500000Y-98850000D02*
X107100000Y-98850000D01*
X107100000Y-98850000D02*
X107100000Y-96350000D01*
X89480000Y-101970000D02*
X87620000Y-101970000D01*
X89480000Y-101030000D02*
X89480000Y-101970000D01*
X87620000Y-101970000D02*
X87620000Y-101030000D01*
X87620000Y-101030000D02*
X89480000Y-101030000D01*
X107070000Y-99840000D02*
X107070000Y-91190000D01*
X107070000Y-91190000D02*
X103470000Y-91190000D01*
X103470000Y-99840000D02*
X107070000Y-99840000D01*
X103470000Y-91190000D02*
X103470000Y-99840000D01*
X57750000Y-116000000D02*
G75*
G03*
X57750000Y-116000000I-3750000J0D01*
G01*
D11*
X59000000Y-116000000D02*
G75*
G03*
X59000000Y-116000000I-5000000J0D01*
G01*
D10*
X57750000Y-75000000D02*
G75*
G03*
X57750000Y-75000000I-3750000J0D01*
G01*
D11*
X59000000Y-75000000D02*
G75*
G03*
X59000000Y-75000000I-5000000J0D01*
G01*
D10*
X129750000Y-116000000D02*
G75*
G03*
X129750000Y-116000000I-3750000J0D01*
G01*
D11*
X131000000Y-116000000D02*
G75*
G03*
X131000000Y-116000000I-5000000J0D01*
G01*
D10*
X121820000Y-86570000D02*
X124780000Y-86570000D01*
X121820000Y-88030000D02*
X121820000Y-86570000D01*
X124780000Y-86570000D02*
X124780000Y-88030000D01*
X124780000Y-88030000D02*
X121820000Y-88030000D01*
X129750000Y-75000000D02*
G75*
G03*
X129750000Y-75000000I-3750000J0D01*
G01*
D11*
X131000000Y-75000000D02*
G75*
G03*
X131000000Y-75000000I-5000000J0D01*
G01*
D10*
X106650000Y-84300000D02*
X106650000Y-80750000D01*
X117850000Y-84300000D02*
X106650000Y-84300000D01*
X106650000Y-80750000D02*
X117850000Y-80750000D01*
X117850000Y-80750000D02*
X117850000Y-84300000D01*
X124080000Y-81230000D02*
X121120000Y-81230000D01*
X124080000Y-79770000D02*
X124080000Y-81230000D01*
X121120000Y-81230000D02*
X121120000Y-79770000D01*
X121120000Y-79770000D02*
X124080000Y-79770000D01*
X120070000Y-82470000D02*
X120070000Y-84330000D01*
X119130000Y-82470000D02*
X120070000Y-82470000D01*
X120070000Y-84330000D02*
X119130000Y-84330000D01*
X119130000Y-84330000D02*
X119130000Y-82470000D01*
X86970000Y-81400000D02*
X121030000Y-81400000D01*
X121030000Y-81400000D02*
X121030000Y-71500000D01*
X86970000Y-71500000D02*
X86970000Y-81400000D01*
X121030000Y-71500000D02*
X86970000Y-71500000D01*
X123530000Y-109670000D02*
X121670000Y-109670000D01*
X123530000Y-108730000D02*
X123530000Y-109670000D01*
X121670000Y-109670000D02*
X121670000Y-108730000D01*
X121670000Y-108730000D02*
X123530000Y-108730000D01*
X123530000Y-82270000D02*
X121670000Y-82270000D01*
X123530000Y-81330000D02*
X123530000Y-82270000D01*
X121670000Y-82270000D02*
X121670000Y-81330000D01*
X121670000Y-81330000D02*
X123530000Y-81330000D01*
X78300000Y-101400000D02*
G75*
G03*
X78300000Y-101400000I-1000000J0D01*
G01*
X124080000Y-111230000D02*
X121120000Y-111230000D01*
X124080000Y-109770000D02*
X124080000Y-111230000D01*
X121120000Y-111230000D02*
X121120000Y-109770000D01*
X121120000Y-109770000D02*
X124080000Y-109770000D01*
X125200000Y-91600000D02*
X121400000Y-91600000D01*
X125200000Y-88000000D02*
X125200000Y-91600000D01*
X121400000Y-91600000D02*
X121400000Y-88000000D01*
X121400000Y-88000000D02*
X125200000Y-88000000D01*
X87100000Y-108850000D02*
X87100000Y-111350000D01*
X85700000Y-108850000D02*
X87100000Y-108850000D01*
X87100000Y-111350000D02*
X85700000Y-111350000D01*
X85700000Y-111350000D02*
X85700000Y-108850000D01*
X75370000Y-102870000D02*
X75370000Y-104730000D01*
X74430000Y-102870000D02*
X75370000Y-102870000D01*
X75370000Y-104730000D02*
X74430000Y-104730000D01*
X74430000Y-104730000D02*
X74430000Y-102870000D01*
X106950000Y-104000000D02*
X104450000Y-104000000D01*
X106950000Y-104000000D02*
X106950000Y-106000000D01*
X104450000Y-104000000D02*
X104450000Y-106000000D01*
X106950000Y-106000000D02*
X104450000Y-106000000D01*
X104450000Y-104000000D02*
X101950000Y-104000000D01*
X104450000Y-104000000D02*
X104450000Y-106000000D01*
X101950000Y-104000000D02*
X101950000Y-106000000D01*
X104450000Y-106000000D02*
X101950000Y-106000000D01*
X112150000Y-107000000D02*
X114650000Y-107000000D01*
X112150000Y-107000000D02*
X112150000Y-105000000D01*
X114650000Y-107000000D02*
X114650000Y-105000000D01*
X112150000Y-105000000D02*
X114650000Y-105000000D01*
X109650000Y-107000000D02*
X112150000Y-107000000D01*
X109650000Y-107000000D02*
X109650000Y-105000000D01*
X112150000Y-107000000D02*
X112150000Y-105000000D01*
X109650000Y-105000000D02*
X112150000Y-105000000D01*
X89800000Y-89050000D02*
X89800000Y-91550000D01*
X89800000Y-89050000D02*
X91800000Y-89050000D01*
X89800000Y-91550000D02*
X91800000Y-91550000D01*
X91800000Y-89050000D02*
X91800000Y-91550000D01*
X89800000Y-91550000D02*
X89800000Y-94050000D01*
X89800000Y-91550000D02*
X91800000Y-91550000D01*
X89800000Y-94050000D02*
X91800000Y-94050000D01*
X91800000Y-91550000D02*
X91800000Y-94050000D01*
X104450000Y-87000000D02*
X106950000Y-87000000D01*
X104450000Y-87000000D02*
X104450000Y-85000000D01*
X106950000Y-87000000D02*
X106950000Y-85000000D01*
X104450000Y-85000000D02*
X106950000Y-85000000D01*
X112150000Y-84000000D02*
X109650000Y-84000000D01*
X112150000Y-84000000D02*
X112150000Y-86000000D01*
X109650000Y-84000000D02*
X109650000Y-86000000D01*
X112150000Y-86000000D02*
X109650000Y-86000000D01*
X114650000Y-84000000D02*
X112150000Y-84000000D01*
X114650000Y-84000000D02*
X114650000Y-86000000D01*
X112150000Y-84000000D02*
X112150000Y-86000000D01*
X114650000Y-86000000D02*
X112150000Y-86000000D01*
X94500000Y-84300000D02*
X94500000Y-87100000D01*
X94500000Y-84300000D02*
X97700000Y-84300000D01*
X94500000Y-87100000D02*
X97700000Y-87100000D01*
X97700000Y-87100000D02*
X97700000Y-84300000D01*
X89200000Y-98200000D02*
X89200000Y-101000000D01*
X89200000Y-98200000D02*
X92400000Y-98200000D01*
X89200000Y-101000000D02*
X92400000Y-101000000D01*
X92400000Y-101000000D02*
X92400000Y-98200000D01*
X98500000Y-103900000D02*
X98500000Y-106700000D01*
X98500000Y-103900000D02*
X101700000Y-103900000D01*
X98500000Y-106700000D02*
X101700000Y-106700000D01*
X101700000Y-106700000D02*
X101700000Y-103900000D01*
X108500000Y-93850000D02*
X108500000Y-96350000D01*
X107100000Y-93850000D02*
X108500000Y-93850000D01*
X108500000Y-96350000D02*
X107100000Y-96350000D01*
X107100000Y-96350000D02*
X107100000Y-93850000D01*
X89800000Y-104150000D02*
X89800000Y-106650000D01*
X89800000Y-104150000D02*
X91800000Y-104150000D01*
X89800000Y-106650000D02*
X91800000Y-106650000D01*
X91800000Y-104150000D02*
X91800000Y-106650000D01*
X89800000Y-101650000D02*
X89800000Y-104150000D01*
X89800000Y-101650000D02*
X91800000Y-101650000D01*
X89800000Y-104150000D02*
X91800000Y-104150000D01*
X91800000Y-101650000D02*
X91800000Y-104150000D01*
X108820000Y-91320000D02*
X108820000Y-93180000D01*
X107880000Y-91320000D02*
X108820000Y-91320000D01*
X108820000Y-93180000D02*
X107880000Y-93180000D01*
X107880000Y-93180000D02*
X107880000Y-91320000D01*
X57920000Y-90180000D02*
X48500000Y-90180000D01*
X57920000Y-90180000D02*
X57920000Y-100820000D01*
X48500000Y-90180000D02*
X48500000Y-100820000D01*
X57920000Y-100820000D02*
X48500000Y-100820000D01*
X62830000Y-90670000D02*
X60970000Y-90670000D01*
X62830000Y-89730000D02*
X62830000Y-90670000D01*
X60970000Y-90670000D02*
X60970000Y-89730000D01*
X60970000Y-89730000D02*
X62830000Y-89730000D01*
X58870000Y-92220000D02*
X58870000Y-94080000D01*
X57930000Y-92220000D02*
X58870000Y-92220000D01*
X58870000Y-94080000D02*
X57930000Y-94080000D01*
X57930000Y-94080000D02*
X57930000Y-92220000D01*
X59980000Y-96770000D02*
X58120000Y-96770000D01*
X59980000Y-95830000D02*
X59980000Y-96770000D01*
X58120000Y-96770000D02*
X58120000Y-95830000D01*
X58120000Y-95830000D02*
X59980000Y-95830000D01*
X58120000Y-97730000D02*
X59980000Y-97730000D01*
X58120000Y-98670000D02*
X58120000Y-97730000D01*
X59980000Y-97730000D02*
X59980000Y-98670000D01*
X59980000Y-98670000D02*
X58120000Y-98670000D01*
X60000000Y-95500000D02*
X60000000Y-99100000D01*
X60000000Y-99100000D02*
X63800000Y-99100000D01*
X63800000Y-95500000D02*
X60000000Y-95500000D01*
X63800000Y-99100000D02*
X63800000Y-95500000D01*
X59980000Y-97720000D02*
X58120000Y-97720000D01*
X59980000Y-96780000D02*
X59980000Y-97720000D01*
X58120000Y-97720000D02*
X58120000Y-96780000D01*
X58120000Y-96780000D02*
X59980000Y-96780000D01*
X118100000Y-106950000D02*
X118100000Y-105050000D01*
X118100000Y-106950000D02*
X114650000Y-106950000D01*
X118100000Y-105050000D02*
X114650000Y-105050000D01*
X114650000Y-106950000D02*
X114650000Y-105050000D01*
X93900000Y-81750000D02*
X93900000Y-83650000D01*
X93900000Y-81750000D02*
X97350000Y-81750000D01*
X93900000Y-83650000D02*
X97350000Y-83650000D01*
X97350000Y-81750000D02*
X97350000Y-83650000D01*
X121800000Y-104600000D02*
X118400000Y-104600000D01*
X121800000Y-102000000D02*
X121800000Y-104600000D01*
X118400000Y-104600000D02*
X118400000Y-102000000D01*
X118400000Y-102000000D02*
X121800000Y-102000000D01*
X124800000Y-86400000D02*
X128200000Y-86400000D01*
X124800000Y-89000000D02*
X124800000Y-86400000D01*
X128200000Y-86400000D02*
X128200000Y-89000000D01*
X128200000Y-89000000D02*
X124800000Y-89000000D01*
X127170000Y-99370000D02*
X127170000Y-101230000D01*
X126230000Y-99370000D02*
X127170000Y-99370000D01*
X127170000Y-101230000D02*
X126230000Y-101230000D01*
X126230000Y-101230000D02*
X126230000Y-99370000D01*
X120120000Y-104850000D02*
X120120000Y-108350000D01*
X120120000Y-108350000D02*
X126480000Y-108350000D01*
X126480000Y-104850000D02*
X120120000Y-104850000D01*
X126480000Y-108350000D02*
X126480000Y-104850000D01*
X98950000Y-109725000D02*
X102950000Y-109725000D01*
X98950000Y-109725000D02*
X98950000Y-107575000D01*
X102950000Y-109725000D02*
X102950000Y-107575000D01*
X98950000Y-107575000D02*
X102950000Y-107575000D01*
X106950000Y-81275000D02*
X102950000Y-81275000D01*
X106950000Y-81275000D02*
X106950000Y-83425000D01*
X102950000Y-81275000D02*
X102950000Y-83425000D01*
X106950000Y-83425000D02*
X102950000Y-83425000D01*
X63330000Y-111070000D02*
X61470000Y-111070000D01*
X63330000Y-110130000D02*
X63330000Y-111070000D01*
X61470000Y-111070000D02*
X61470000Y-110130000D01*
X61470000Y-110130000D02*
X63330000Y-110130000D01*
X74430000Y-91915000D02*
X74430000Y-90055000D01*
X75370000Y-91915000D02*
X74430000Y-91915000D01*
X74430000Y-90055000D02*
X75370000Y-90055000D01*
X75370000Y-90055000D02*
X75370000Y-91915000D01*
X62400000Y-117150000D02*
X59000000Y-117150000D01*
X62400000Y-114550000D02*
X62400000Y-117150000D01*
X59000000Y-117150000D02*
X59000000Y-114550000D01*
X59000000Y-114550000D02*
X62400000Y-114550000D01*
X62330000Y-118415000D02*
X62330000Y-116555000D01*
X63270000Y-118415000D02*
X62330000Y-118415000D01*
X62330000Y-116555000D02*
X63270000Y-116555000D01*
X63270000Y-116555000D02*
X63270000Y-118415000D01*
X62330000Y-116515000D02*
X62330000Y-114655000D01*
X63270000Y-116515000D02*
X62330000Y-116515000D01*
X62330000Y-114655000D02*
X63270000Y-114655000D01*
X63270000Y-114655000D02*
X63270000Y-116515000D01*
X106970000Y-100020000D02*
X106970000Y-101880000D01*
X106030000Y-100020000D02*
X106970000Y-100020000D01*
X106970000Y-101880000D02*
X106030000Y-101880000D01*
X106030000Y-101880000D02*
X106030000Y-100020000D01*
X117530000Y-89130000D02*
X117530000Y-87270000D01*
X118470000Y-89130000D02*
X117530000Y-89130000D01*
X117530000Y-87270000D02*
X118470000Y-87270000D01*
X118470000Y-87270000D02*
X118470000Y-89130000D01*
X86830000Y-108580000D02*
X86830000Y-106720000D01*
X87770000Y-108580000D02*
X86830000Y-108580000D01*
X86830000Y-106720000D02*
X87770000Y-106720000D01*
X87770000Y-106720000D02*
X87770000Y-108580000D01*
X58000000Y-80800000D02*
X87000000Y-80800000D01*
X87000000Y-80800000D02*
X87000000Y-72200000D01*
X58000000Y-72200000D02*
X58000000Y-80800000D01*
X87000000Y-72200000D02*
X58000000Y-72200000D01*
X59980000Y-99620000D02*
X58120000Y-99620000D01*
X59980000Y-98680000D02*
X59980000Y-99620000D01*
X58120000Y-99620000D02*
X58120000Y-98680000D01*
X58120000Y-98680000D02*
X59980000Y-98680000D01*
X65400000Y-99900000D02*
G75*
G03*
X65400000Y-99900000I-1000000J0D01*
G01*
X62800000Y-103150000D02*
X62800000Y-105250000D01*
X62800000Y-105250000D02*
X64050000Y-105250000D01*
X64050000Y-101800000D02*
X64050000Y-103150000D01*
X64050000Y-101800000D02*
X65200000Y-100650000D01*
X64050000Y-103150000D02*
X62800000Y-103150000D01*
X64050000Y-105250000D02*
X64050000Y-106600000D01*
X64050000Y-106600000D02*
X65200000Y-107750000D01*
X65200000Y-100650000D02*
X71150000Y-100650000D01*
X65200000Y-107750000D02*
X71150000Y-107750000D01*
X71150000Y-100650000D02*
X71150000Y-103150000D01*
X71150000Y-103150000D02*
X72400000Y-103150000D01*
X71150000Y-105250000D02*
X71150000Y-107750000D01*
X72400000Y-103150000D02*
X72400000Y-105250000D01*
X72400000Y-105250000D02*
X71150000Y-105250000D01*
X74650000Y-114750000D02*
X78150000Y-114750000D01*
X78150000Y-114750000D02*
X78150000Y-107050000D01*
X74650000Y-107050000D02*
X74650000Y-114750000D01*
X78150000Y-107050000D02*
X74650000Y-107050000D01*
X71150000Y-114750000D02*
X74650000Y-114750000D01*
X74650000Y-114750000D02*
X74650000Y-107050000D01*
X71150000Y-107050000D02*
X71150000Y-114750000D01*
X74650000Y-107050000D02*
X71150000Y-107050000D01*
X79782000Y-106749000D02*
X79782000Y-121481000D01*
X79782000Y-121481000D02*
X85870000Y-121481000D01*
X85870000Y-106749000D02*
X79782000Y-106749000D01*
X85878000Y-121481000D02*
X85870000Y-106749000D01*
X67550000Y-116250000D02*
X67550000Y-113750000D01*
X67550000Y-116250000D02*
X64250000Y-116250000D01*
X67550000Y-113750000D02*
X64250000Y-113750000D01*
X64250000Y-116250000D02*
X64250000Y-113750000D01*
X67550000Y-111150000D02*
X67550000Y-108650000D01*
X67550000Y-111150000D02*
X64250000Y-111150000D01*
X67550000Y-108650000D02*
X64250000Y-108650000D01*
X64250000Y-111150000D02*
X64250000Y-108650000D01*
X67380000Y-112630000D02*
X64420000Y-112630000D01*
X67380000Y-111170000D02*
X67380000Y-112630000D01*
X64420000Y-112630000D02*
X64420000Y-111170000D01*
X64420000Y-111170000D02*
X67380000Y-111170000D01*
X67380000Y-117730000D02*
X64420000Y-117730000D01*
X67380000Y-116270000D02*
X67380000Y-117730000D01*
X64420000Y-117730000D02*
X64420000Y-116270000D01*
X64420000Y-116270000D02*
X67380000Y-116270000D01*
X67770000Y-111780000D02*
X67770000Y-108820000D01*
X69230000Y-111780000D02*
X67770000Y-111780000D01*
X67770000Y-108820000D02*
X69230000Y-108820000D01*
X69230000Y-108820000D02*
X69230000Y-111780000D01*
X67770000Y-116880000D02*
X67770000Y-113920000D01*
X69230000Y-116880000D02*
X67770000Y-116880000D01*
X67770000Y-113920000D02*
X69230000Y-113920000D01*
X69230000Y-113920000D02*
X69230000Y-116880000D01*
X121030000Y-109600000D02*
X86970000Y-109600000D01*
X86970000Y-109600000D02*
X86970000Y-119500000D01*
X121030000Y-119500000D02*
X121030000Y-109600000D01*
X86970000Y-119500000D02*
X121030000Y-119500000D01*
X59600000Y-114550000D02*
X59600000Y-111050000D01*
X59600000Y-114550000D02*
X62800000Y-114550000D01*
X62800000Y-111050000D02*
X59600000Y-111050000D01*
X62800000Y-111050000D02*
X62800000Y-114550000D01*
X102950000Y-109725000D02*
X106950000Y-109725000D01*
X102950000Y-109725000D02*
X102950000Y-107575000D01*
X106950000Y-109725000D02*
X106950000Y-107575000D01*
X102950000Y-107575000D02*
X106950000Y-107575000D01*
X101950000Y-87000000D02*
X104450000Y-87000000D01*
X101950000Y-87000000D02*
X101950000Y-85000000D01*
X104450000Y-87000000D02*
X104450000Y-85000000D01*
X101950000Y-85000000D02*
X104450000Y-85000000D01*
X126480000Y-86150000D02*
X126480000Y-82650000D01*
X126480000Y-82650000D02*
X120120000Y-82650000D01*
X120120000Y-86150000D02*
X126480000Y-86150000D01*
X120120000Y-82650000D02*
X120120000Y-86150000D01*
X73180000Y-116020000D02*
X71320000Y-116020000D01*
X73180000Y-115080000D02*
X73180000Y-116020000D01*
X71320000Y-116020000D02*
X71320000Y-115080000D01*
X71320000Y-115080000D02*
X73180000Y-115080000D01*
X127460000Y-104790000D02*
X127460000Y-106610000D01*
X126540000Y-104790000D02*
X127460000Y-104790000D01*
X127460000Y-106610000D02*
X126540000Y-106610000D01*
X126540000Y-106610000D02*
X126540000Y-104790000D01*
X119140000Y-86210000D02*
X119140000Y-84390000D01*
X120060000Y-86210000D02*
X119140000Y-86210000D01*
X119140000Y-84390000D02*
X120060000Y-84390000D01*
X120060000Y-84390000D02*
X120060000Y-86210000D01*
X102950000Y-81275000D02*
X98950000Y-81275000D01*
X102950000Y-81275000D02*
X102950000Y-83425000D01*
X98950000Y-81275000D02*
X98950000Y-83425000D01*
X102950000Y-83425000D02*
X98950000Y-83425000D01*
X121370000Y-93170000D02*
X121370000Y-95030000D01*
X120430000Y-93170000D02*
X121370000Y-93170000D01*
X121370000Y-95030000D02*
X120430000Y-95030000D01*
X120430000Y-95030000D02*
X120430000Y-93170000D01*
X121400000Y-91800000D02*
X121400000Y-95400000D01*
X121400000Y-95400000D02*
X125200000Y-95400000D01*
X125200000Y-91800000D02*
X121400000Y-91800000D01*
X125200000Y-95400000D02*
X125200000Y-91800000D01*
X119430000Y-91630000D02*
X119430000Y-89770000D01*
X120370000Y-91630000D02*
X119430000Y-91630000D01*
X119430000Y-89770000D02*
X120370000Y-89770000D01*
X120370000Y-89770000D02*
X120370000Y-91630000D01*
X125200000Y-99200000D02*
X125200000Y-95600000D01*
X125200000Y-95600000D02*
X121400000Y-95600000D01*
X121400000Y-99200000D02*
X125200000Y-99200000D01*
X121400000Y-95600000D02*
X121400000Y-99200000D01*
X125230000Y-97815000D02*
X125230000Y-95955000D01*
X126170000Y-97815000D02*
X125230000Y-97815000D01*
X125230000Y-95955000D02*
X126170000Y-95955000D01*
X126170000Y-95955000D02*
X126170000Y-97815000D01*
X77150000Y-119480000D02*
X72150000Y-119480000D01*
X77150000Y-116180000D02*
X77150000Y-119480000D01*
X72150000Y-119480000D02*
X72150000Y-116180000D01*
X72150000Y-116180000D02*
X77150000Y-116180000D01*
X116570000Y-89130000D02*
X118430000Y-89130000D01*
X116570000Y-90070000D02*
X116570000Y-89130000D01*
X118430000Y-89130000D02*
X118430000Y-90070000D01*
X118430000Y-90070000D02*
X116570000Y-90070000D01*
X90745000Y-85520000D02*
X93705000Y-85520000D01*
X90745000Y-86980000D02*
X90745000Y-85520000D01*
X93705000Y-85520000D02*
X93705000Y-86980000D01*
X93705000Y-86980000D02*
X90745000Y-86980000D01*
M02*
