M48
; DRILL file {KiCad 7.0.7+dfsg-1} date Fri 06 Oct 2023 03:57:00 AM UTC
; FORMAT={-:-/ absolute / metric / decimal}
; #@! TF.CreationDate,2023-10-06T03:57:00+00:00
; #@! TF.GenerationSoftware,Kicad,Pcbnew,7.0.7+dfsg-1
; #@! TF.FileFunction,MixedPlating,1,4
FMAT,2
METRIC
; #@! TA.AperFunction,Plated,PTH,ViaDrill
T1C0.200
; #@! TA.AperFunction,Plated,PTH,ViaDrill
T2C0.300
; #@! TA.AperFunction,Plated,PTH,ComponentDrill
T3C0.300
; #@! TA.AperFunction,Plated,PTH,ComponentDrill
T4C0.500
; #@! TA.AperFunction,Plated,PTH,ComponentDrill
T5C0.600
; #@! TA.AperFunction,Plated,PTH,ComponentDrill
T6C0.700
; #@! TA.AperFunction,Plated,PTH,ComponentDrill
T7C0.800
; #@! TA.AperFunction,Plated,PTH,ComponentDrill
T8C1.000
; #@! TA.AperFunction,Plated,PTH,ComponentDrill
T9C1.200
; #@! TA.AperFunction,Plated,PTH,ComponentDrill
T10C3.500
; #@! TA.AperFunction,NonPlated,NPTH,ComponentDrill
T11C0.650
; #@! TA.AperFunction,NonPlated,NPTH,ComponentDrill
T12C0.760
%
G90
G05
T1
X80.1Y-91.9
X80.9Y-91.9
X80.9Y-92.7
X80.9Y-93.5
X80.9Y-94.3
X80.9Y-95.1
X80.9Y-95.9
X80.9Y-97.5
X80.9Y-98.3
X81.7Y-95.9
X81.7Y-96.7
X81.7Y-98.3
X82.5Y-92.7
X82.5Y-93.5
X82.5Y-94.3
X82.5Y-95.1
X82.5Y-96.7
X82.5Y-98.3
X83.3Y-92.7
X83.3Y-93.5
X83.3Y-95.1
X83.3Y-95.9
X83.3Y-97.5
X84.1Y-93.5
X84.1Y-95.1
X84.1Y-95.9
X84.1Y-97.5
X84.9Y-91.9
X84.9Y-92.7
X84.9Y-94.3
X84.9Y-96.7
X84.9Y-97.5
X84.9Y-98.3
X85.7Y-91.9
X85.7Y-92.7
X85.7Y-95.9
X85.7Y-96.7
X85.7Y-98.3
X86.5Y-92.7
X86.5Y-93.5
X86.5Y-95.1
X86.5Y-95.9
X86.5Y-96.7
X86.5Y-97.5
X86.5Y-99.1
X87.3Y-94.3
T2
X54.4Y-94.6
X55.05Y-87.0
X55.05Y-81.0
X55.05Y-83.0
X55.05Y-89.0
X55.05Y-102.0
X55.05Y-104.0
X55.05Y-108.0
X55.05Y-85.0
X55.05Y-110.0
X55.05Y-106.0
X55.5Y-95.25
X55.5Y-96.3
X57.6Y-91.6
X57.8Y-99.2
X57.9Y-94.7
X57.9Y-95.795
X57.9Y-96.8
X58.15Y-79.55
X58.8Y-76.5
X59.4Y-115.0
X59.6Y-73.0
X59.7Y-81.0
X59.7Y-102.0
X59.7Y-104.0
X59.7Y-106.0
X59.7Y-108.0
X59.7Y-110.0
X60.65Y-90.2
X60.8Y-76.5
X61.3Y-112.8
X61.72Y-97.75
X61.9Y-76.5
X61.9Y-109.8
X61.99Y-117.509
X63.025Y-80.409
X63.115Y-76.505
X63.7Y-110.95
X63.7Y-111.5
X63.7Y-112.05
X63.7Y-112.6
X63.7Y-117.0
X63.7Y-117.55
X64.0Y-94.35
X64.25Y-76.5
X64.6Y-107.8
X64.6Y-108.4
X64.6Y-112.9
X64.6Y-113.5
X64.9Y-93.25
X64.9Y-95.25
X64.9Y-97.25
X65.042Y-90.456
X65.05Y-89.65
X65.5Y-76.5
X65.8Y-90.45
X65.9Y-100.5
X66.785Y-76.485
X66.8Y-80.4
X66.8Y-90.45
X67.0Y-101.5
X67.2Y-107.8
X67.2Y-108.4
X67.2Y-112.9
X67.2Y-113.5
X67.6Y-90.45
X67.6Y-100.45
X67.85Y-112.25
X67.85Y-117.225
X67.9Y-101.5
X68.05Y-76.5
X68.5Y-108.35
X68.5Y-113.45
X68.75Y-101.5
X69.2Y-105.8
X69.3Y-76.5
X69.544Y-116.45
X69.55Y-110.85
X69.55Y-111.55
X69.55Y-115.95
X69.6Y-101.5
X70.0Y-105.8
X70.6Y-76.5
X70.6Y-80.4
X70.6Y-114.285
X70.608Y-113.307
X70.8Y-105.8
X71.28Y-116.31
X71.45Y-88.05
X71.6Y-105.8
X71.85Y-76.5
X72.0Y-109.3
X72.15Y-118.65
X72.15Y-119.45
X72.6Y-100.45
X72.9Y-110.9
X73.1Y-90.45
X73.1Y-76.5
X73.2Y-106.4
X73.8Y-91.55
X73.8Y-112.5
X73.9Y-106.7
X74.15Y-105.4
X74.25Y-101.05
X74.4Y-76.5
X74.4Y-80.4
X74.7Y-88.9
X74.8Y-97.3
X74.9Y-95.125
X74.903Y-96.185
X75.5Y-109.3
X75.7Y-76.5
X75.9Y-88.2
X75.973Y-92.195
X76.0Y-99.3
X76.1Y-112.5
X76.4Y-110.9
X76.6Y-98.7
X76.7Y-106.4
X76.737Y-96.237
X76.803Y-96.984
X76.9Y-76.5
X77.15Y-118.65
X77.15Y-119.45
X77.2Y-112.5
X77.3Y-101.4
X77.4Y-106.7
X77.542Y-93.842
X77.6Y-90.3
X78.1Y-95.5
X78.2Y-76.5
X78.2Y-80.4
X78.6Y-91.3
X78.6Y-94.4
X79.0Y-99.27
X79.1Y-102.2
X79.2Y-100.0
X79.5Y-76.5
X79.7Y-101.3
X80.0Y-105.65
X80.6Y-105.2
X80.8Y-76.5
X81.2Y-104.6
X81.8Y-104.0
X82.0Y-76.5
X82.0Y-80.4
X82.4Y-103.4
X82.8Y-111.0
X82.8Y-116.0
X83.0Y-102.8
X83.295Y-76.495
X83.6Y-102.2
X84.2Y-76.5
X84.8Y-101.25
X85.8Y-80.4
X87.05Y-90.0
X87.15Y-88.6
X87.2Y-111.0
X87.5Y-100.9
X87.65Y-88.6
X87.65Y-106.35
X87.8Y-100.168
X88.3Y-113.5
X88.3Y-116.0
X88.6Y-93.2
X89.1Y-95.5
X89.5Y-92.0
X89.6Y-94.15
X90.7Y-112.0
X90.8Y-98.0
X90.8Y-98.9
X90.8Y-99.65
X91.05Y-87.3
X91.55Y-87.3
X92.045Y-95.35
X92.1Y-93.85
X92.35Y-94.6
X92.65Y-98.5
X92.7Y-85.2
X93.15Y-95.8
X93.2Y-85.2
X93.45Y-95.1
X93.5Y-81.8
X93.6Y-107.3
X96.1Y-85.05
X96.1Y-85.8
X96.1Y-87.85
X96.1Y-88.6
X96.1Y-90.65
X96.1Y-91.4
X96.1Y-93.45
X96.1Y-94.2
X96.1Y-96.35
X96.1Y-97.1
X96.1Y-99.05
X96.1Y-99.8
X96.1Y-101.85
X96.1Y-102.6
X96.1Y-104.65
X96.1Y-105.4
X97.05Y-106.95
X97.3Y-81.7
X97.5Y-106.95
X97.85Y-84.55
X97.85Y-85.05
X97.85Y-85.8
X97.85Y-87.85
X97.85Y-88.6
X97.85Y-90.65
X97.85Y-91.4
X97.85Y-93.45
X97.85Y-94.2
X97.85Y-96.35
X97.85Y-97.1
X97.85Y-99.05
X97.85Y-99.8
X97.85Y-101.85
X97.85Y-102.6
X97.85Y-104.65
X97.85Y-105.4
X99.7Y-82.35
X100.013Y-85.919
X100.088Y-105.39
X100.093Y-90.643
X100.094Y-85.173
X100.1Y-87.85
X100.1Y-88.6
X100.1Y-91.4
X100.1Y-93.45
X100.1Y-94.2
X100.1Y-96.35
X100.1Y-97.1
X100.1Y-99.05
X100.1Y-99.8
X100.1Y-101.85
X100.1Y-102.6
X100.1Y-106.15
X100.1Y-104.641
X100.134Y-84.424
X100.208Y-86.645
X100.45Y-82.35
X101.2Y-79.5
X101.2Y-111.5
X101.45Y-108.65
X101.7Y-104.124
X101.829Y-87.871
X101.85Y-90.65
X101.85Y-91.4
X101.85Y-93.45
X101.85Y-94.2
X101.85Y-96.35
X101.85Y-97.1
X101.85Y-99.05
X101.85Y-99.8
X101.85Y-101.85
X101.85Y-102.6
X101.851Y-88.621
X102.0Y-79.5
X102.0Y-111.5
X102.8Y-79.5
X102.8Y-111.5
X103.6Y-79.5
X103.6Y-111.5
X104.4Y-79.5
X104.4Y-111.5
X104.45Y-82.35
X105.2Y-79.5
X105.2Y-111.537
X105.45Y-108.65
X105.981Y-79.476
X106.147Y-111.553
X106.2Y-108.65
X106.8Y-79.5
X106.962Y-111.575
X107.3Y-95.1
X107.3Y-97.6
X107.3Y-105.4
X107.4Y-85.6
X107.4Y-99.7
X107.55Y-89.85
X107.55Y-90.8
X107.75Y-105.4
X107.9Y-85.6
X108.1Y-102.2
X108.2Y-99.7
X108.25Y-105.4
X108.35Y-93.5
X108.4Y-85.6
X108.5Y-98.9
X111.1Y-94.5
X114.3Y-96.6
X116.1Y-106.4
X116.975Y-102.4
X117.0Y-88.7
X117.0Y-91.3
X117.5Y-109.6
X118.025Y-102.4
X118.1Y-103.7
X118.1Y-104.5
X118.2Y-99.5
X118.6Y-101.0
X118.7Y-89.8
X118.8Y-82.9
X118.8Y-83.9
X118.8Y-84.8
X119.0Y-91.2
X119.2Y-87.6
X119.5Y-99.1
X119.9Y-105.4
X119.9Y-106.3
X120.0Y-99.1
X120.1Y-93.6
X120.1Y-94.6
X120.3Y-103.9
X120.4Y-103.1
X120.5Y-99.1
X120.6Y-101.9
X120.8Y-98.0
X120.9Y-92.6
X121.0Y-99.1
X121.2Y-101.9
X121.6Y-86.6
X121.6Y-87.3
X121.6Y-88.0
X121.6Y-91.65
X121.9Y-103.0
X121.9Y-104.4
X122.6Y-111.3
X122.8Y-83.9
X122.8Y-107.1
X123.1Y-103.0
X123.1Y-104.4
X123.2Y-99.35
X123.2Y-99.95
X123.3Y-94.5
X123.3Y-98.4
X123.4Y-91.05
X123.4Y-91.65
X123.5Y-86.6
X123.5Y-88.0
X123.8Y-83.9
X123.8Y-107.1
X124.1Y-81.8
X124.3Y-110.5
X124.5Y-80.5
X124.7Y-86.6
X124.7Y-88.0
X125.0Y-99.35
X125.0Y-103.0
X125.0Y-103.7
X125.0Y-104.4
X125.4Y-89.1
X125.6Y-91.9
X125.7Y-108.5
X126.0Y-89.1
X126.1Y-91.9
X126.2Y-87.9
X126.3Y-87.1
X126.5Y-96.4
X126.5Y-97.4
X126.6Y-91.9
X126.65Y-85.15
X126.7Y-84.0
X127.1Y-91.9
X127.5Y-103.5
X127.6Y-99.8
X127.6Y-100.8
X127.8Y-106.2
X127.8Y-107.1
X127.8Y-108.1
T3
X65.9Y-109.35
X65.9Y-110.45
X65.9Y-114.45
X65.9Y-115.55
X67.31Y-92.96
X67.31Y-94.23
X67.31Y-95.5
X67.31Y-96.77
X67.31Y-98.04
X68.58Y-92.96
X68.58Y-94.23
X68.58Y-95.5
X68.58Y-96.77
X68.58Y-98.04
X69.85Y-92.96
X69.85Y-94.23
X69.85Y-95.5
X69.85Y-96.77
X69.85Y-98.04
X71.12Y-92.96
X71.12Y-94.23
X71.12Y-95.5
X71.12Y-96.77
X71.12Y-98.04
X72.39Y-92.96
X72.39Y-94.23
X72.39Y-95.5
X72.39Y-96.77
X72.39Y-98.04
T4
X51.375Y-75.0
X51.375Y-116.0
X52.144Y-73.144
X52.144Y-76.856
X52.144Y-114.144
X52.144Y-117.856
X54.0Y-72.375
X54.0Y-77.625
X54.0Y-113.375
X54.0Y-118.625
X55.856Y-73.144
X55.856Y-76.856
X55.856Y-114.144
X55.856Y-117.856
X56.625Y-75.0
X56.625Y-116.0
X123.375Y-75.0
X123.375Y-116.0
X124.144Y-73.144
X124.144Y-76.856
X124.144Y-114.144
X124.144Y-117.856
X126.0Y-72.375
X126.0Y-77.625
X126.0Y-113.375
X126.0Y-118.625
X127.856Y-73.144
X127.856Y-76.856
X127.856Y-114.144
X127.856Y-117.856
X128.625Y-75.0
X128.625Y-116.0
T6
X107.8Y-82.5
X107.8Y-87.6
X107.81Y-103.42
X107.81Y-108.5
X109.07Y-82.5
X109.07Y-87.6
X109.08Y-103.42
X109.08Y-108.5
X110.34Y-82.5
X110.34Y-87.6
X110.35Y-103.42
X110.35Y-108.5
X111.61Y-82.5
X111.61Y-87.6
X111.62Y-103.42
X111.62Y-108.5
X112.88Y-82.5
X112.88Y-87.6
X112.89Y-103.42
X112.89Y-108.5
X114.15Y-82.5
X114.15Y-87.6
X114.16Y-103.42
X114.16Y-108.5
X115.42Y-82.5
X115.42Y-87.6
X115.43Y-103.42
X115.43Y-108.5
X116.69Y-82.5
X116.69Y-87.6
X116.7Y-103.42
X116.7Y-108.5
T7
X73.15Y-117.38
X74.65Y-119.23
X76.15Y-117.38
T8
X92.57Y-75.18
X92.57Y-77.72
X92.57Y-113.28
X92.57Y-115.82
X95.11Y-75.18
X95.11Y-77.72
X95.11Y-113.28
X95.11Y-115.82
X97.65Y-75.18
X97.65Y-77.72
X97.65Y-113.28
X97.65Y-115.82
X100.19Y-75.18
X100.19Y-77.72
X100.19Y-113.28
X100.19Y-115.82
X102.73Y-75.18
X102.73Y-77.72
X102.73Y-113.28
X102.73Y-115.82
X105.27Y-75.18
X105.27Y-77.72
X105.27Y-92.96
X105.27Y-95.5
X105.27Y-98.04
X105.27Y-113.28
X105.27Y-115.82
X107.81Y-75.18
X107.81Y-77.72
X107.81Y-113.28
X107.81Y-115.82
X110.35Y-75.18
X110.35Y-77.72
X110.35Y-113.28
X110.35Y-115.82
X112.89Y-75.18
X112.89Y-77.72
X112.89Y-113.28
X112.89Y-115.82
X115.43Y-75.18
X115.43Y-77.72
X115.43Y-113.28
X115.43Y-115.82
T9
X81.56Y-108.4
X84.1Y-108.4
T10
X54.0Y-75.0
X54.0Y-116.0
X126.0Y-75.0
X126.0Y-116.0
T11
X55.25Y-92.61
X55.25Y-98.39
T12
X59.8Y-76.5
X85.2Y-76.5
T5
G00X51.9Y-91.18
M15
G01X51.3Y-91.18
M16
G05
G00X51.9Y-99.82
M15
G01X51.3Y-99.82
M16
G05
G00X56.33Y-91.18
M15
G01X55.23Y-91.18
M16
G05
G00X56.33Y-99.82
M15
G01X55.23Y-99.82
M16
G05
T0
M30
