G04 #@! TF.GenerationSoftware,KiCad,Pcbnew,7.0.7+dfsg-1*
G04 #@! TF.CreationDate,2023-10-06T03:56:53+00:00*
G04 #@! TF.ProjectId,glasgow,676c6173-676f-4772-9e6b-696361645f70,C3*
G04 #@! TF.SameCoordinates,Original*
G04 #@! TF.FileFunction,Other,User*
%FSLAX46Y46*%
G04 Gerber Fmt 4.6, Leading zero omitted, Abs format (unit mm)*
G04 Created by KiCad (PCBNEW 7.0.7+dfsg-1) date 2023-10-06 03:56:53*
%MOMM*%
%LPD*%
G01*
G04 APERTURE LIST*
%ADD10C,0.050000*%
G04 APERTURE END LIST*
D10*
X59000000Y-118500000D02*
G75*
G03*
X59000000Y-118500000I-1000000J0D01*
G01*
X123000000Y-72500000D02*
G75*
G03*
X123000000Y-72500000I-1000000J0D01*
G01*
X84630000Y-97170000D02*
X84630000Y-96230000D01*
X84630000Y-96230000D02*
X82770000Y-96230000D01*
X82770000Y-97170000D02*
X84630000Y-97170000D01*
X82770000Y-96230000D02*
X82770000Y-97170000D01*
X84430000Y-96430000D02*
X85370000Y-96430000D01*
X85370000Y-96430000D02*
X85370000Y-94570000D01*
X84430000Y-94570000D02*
X84430000Y-96430000D01*
X85370000Y-94570000D02*
X84430000Y-94570000D01*
X99620000Y-92820000D02*
X98680000Y-92820000D01*
X98680000Y-92820000D02*
X98680000Y-94680000D01*
X99620000Y-94680000D02*
X99620000Y-92820000D01*
X98680000Y-94680000D02*
X99620000Y-94680000D01*
X101520000Y-84420000D02*
X100580000Y-84420000D01*
X100580000Y-84420000D02*
X100580000Y-86280000D01*
X101520000Y-86280000D02*
X101520000Y-84420000D01*
X100580000Y-86280000D02*
X101520000Y-86280000D01*
X101520000Y-92820000D02*
X100580000Y-92820000D01*
X100580000Y-92820000D02*
X100580000Y-94680000D01*
X101520000Y-94680000D02*
X101520000Y-92820000D01*
X100580000Y-94680000D02*
X101520000Y-94680000D01*
X97520000Y-95570000D02*
X96580000Y-95570000D01*
X96580000Y-95570000D02*
X96580000Y-97430000D01*
X97520000Y-97430000D02*
X97520000Y-95570000D01*
X96580000Y-97430000D02*
X97520000Y-97430000D01*
X97520000Y-90020000D02*
X96580000Y-90020000D01*
X96580000Y-90020000D02*
X96580000Y-91880000D01*
X97520000Y-91880000D02*
X97520000Y-90020000D01*
X96580000Y-91880000D02*
X97520000Y-91880000D01*
X99620000Y-95620000D02*
X98680000Y-95620000D01*
X98680000Y-95620000D02*
X98680000Y-97480000D01*
X99620000Y-97480000D02*
X99620000Y-95620000D01*
X98680000Y-97480000D02*
X99620000Y-97480000D01*
X99620000Y-98420000D02*
X98680000Y-98420000D01*
X98680000Y-98420000D02*
X98680000Y-100280000D01*
X99620000Y-100280000D02*
X99620000Y-98420000D01*
X98680000Y-100280000D02*
X99620000Y-100280000D01*
X99620000Y-101220000D02*
X98680000Y-101220000D01*
X98680000Y-101220000D02*
X98680000Y-103080000D01*
X99620000Y-103080000D02*
X99620000Y-101220000D01*
X98680000Y-103080000D02*
X99620000Y-103080000D01*
X99620000Y-104020000D02*
X98680000Y-104020000D01*
X98680000Y-104020000D02*
X98680000Y-105880000D01*
X99620000Y-105880000D02*
X99620000Y-104020000D01*
X98680000Y-105880000D02*
X99620000Y-105880000D01*
X101520000Y-95620000D02*
X100580000Y-95620000D01*
X100580000Y-95620000D02*
X100580000Y-97480000D01*
X101520000Y-97480000D02*
X101520000Y-95620000D01*
X100580000Y-97480000D02*
X101520000Y-97480000D01*
X101520000Y-98420000D02*
X100580000Y-98420000D01*
X100580000Y-98420000D02*
X100580000Y-100280000D01*
X101520000Y-100280000D02*
X101520000Y-98420000D01*
X100580000Y-100280000D02*
X101520000Y-100280000D01*
X101520000Y-101220000D02*
X100580000Y-101220000D01*
X100580000Y-101220000D02*
X100580000Y-103080000D01*
X101520000Y-103080000D02*
X101520000Y-101220000D01*
X100580000Y-103080000D02*
X101520000Y-103080000D01*
X81170000Y-97030000D02*
X81170000Y-97970000D01*
X81170000Y-97970000D02*
X83030000Y-97970000D01*
X83030000Y-97030000D02*
X81170000Y-97030000D01*
X83030000Y-97970000D02*
X83030000Y-97030000D01*
X84630000Y-94770000D02*
X84630000Y-93830000D01*
X84630000Y-93830000D02*
X82770000Y-93830000D01*
X82770000Y-94770000D02*
X84630000Y-94770000D01*
X82770000Y-93830000D02*
X82770000Y-94770000D01*
X80745000Y-95370000D02*
X80745000Y-94430000D01*
X80745000Y-94430000D02*
X78885000Y-94430000D01*
X78885000Y-95370000D02*
X80745000Y-95370000D01*
X78885000Y-94430000D02*
X78885000Y-95370000D01*
X78830000Y-98070000D02*
X78830000Y-97130000D01*
X78830000Y-97130000D02*
X76970000Y-97130000D01*
X76970000Y-98070000D02*
X78830000Y-98070000D01*
X76970000Y-97130000D02*
X76970000Y-98070000D01*
X80080000Y-97130000D02*
X80080000Y-95670000D01*
X80080000Y-95670000D02*
X77120000Y-95670000D01*
X77120000Y-97130000D02*
X80080000Y-97130000D01*
X77120000Y-95670000D02*
X77120000Y-97130000D01*
X84370000Y-93030000D02*
X84370000Y-93970000D01*
X84370000Y-93970000D02*
X86230000Y-93970000D01*
X86230000Y-93030000D02*
X84370000Y-93030000D01*
X86230000Y-93970000D02*
X86230000Y-93030000D01*
X66370000Y-91080000D02*
X66370000Y-92020000D01*
X66370000Y-92020000D02*
X68230000Y-92020000D01*
X68230000Y-91080000D02*
X66370000Y-91080000D01*
X68230000Y-92020000D02*
X68230000Y-91080000D01*
X73030000Y-99920000D02*
X73030000Y-98980000D01*
X73030000Y-98980000D02*
X71170000Y-98980000D01*
X71170000Y-99920000D02*
X73030000Y-99920000D01*
X71170000Y-98980000D02*
X71170000Y-99920000D01*
X66370000Y-92835000D02*
X65430000Y-92835000D01*
X65430000Y-92835000D02*
X65430000Y-94695000D01*
X66370000Y-94695000D02*
X66370000Y-92835000D01*
X65430000Y-94695000D02*
X66370000Y-94695000D01*
X67170000Y-98980000D02*
X67170000Y-99920000D01*
X67170000Y-99920000D02*
X69030000Y-99920000D01*
X69030000Y-98980000D02*
X67170000Y-98980000D01*
X69030000Y-99920000D02*
X69030000Y-98980000D01*
X73430000Y-92020000D02*
X73430000Y-91080000D01*
X73430000Y-91080000D02*
X71570000Y-91080000D01*
X71570000Y-92020000D02*
X73430000Y-92020000D01*
X71570000Y-91080000D02*
X71570000Y-92020000D01*
X63920000Y-98770000D02*
X63920000Y-100230000D01*
X63920000Y-100230000D02*
X66880000Y-100230000D01*
X66880000Y-98770000D02*
X63920000Y-98770000D01*
X66880000Y-100230000D02*
X66880000Y-98770000D01*
X66370000Y-96820000D02*
X65430000Y-96820000D01*
X65430000Y-96820000D02*
X65430000Y-98680000D01*
X66370000Y-98680000D02*
X66370000Y-96820000D01*
X65430000Y-98680000D02*
X66370000Y-98680000D01*
X66370000Y-94820000D02*
X65430000Y-94820000D01*
X65430000Y-94820000D02*
X65430000Y-96680000D01*
X66370000Y-96680000D02*
X66370000Y-94820000D01*
X65430000Y-96680000D02*
X66370000Y-96680000D01*
X74270000Y-96835000D02*
X73330000Y-96835000D01*
X73330000Y-96835000D02*
X73330000Y-98695000D01*
X74270000Y-98695000D02*
X74270000Y-96835000D01*
X73330000Y-98695000D02*
X74270000Y-98695000D01*
X79580000Y-100430000D02*
X80520000Y-100430000D01*
X80520000Y-100430000D02*
X80520000Y-98570000D01*
X79580000Y-98570000D02*
X79580000Y-100430000D01*
X80520000Y-98570000D02*
X79580000Y-98570000D01*
X89380000Y-96680000D02*
X90320000Y-96680000D01*
X90320000Y-96680000D02*
X90320000Y-94820000D01*
X89380000Y-94820000D02*
X89380000Y-96680000D01*
X90320000Y-94820000D02*
X89380000Y-94820000D01*
X97520000Y-84420000D02*
X96580000Y-84420000D01*
X96580000Y-84420000D02*
X96580000Y-86280000D01*
X97520000Y-86280000D02*
X97520000Y-84420000D01*
X96580000Y-86280000D02*
X97520000Y-86280000D01*
X95620000Y-84420000D02*
X94680000Y-84420000D01*
X94680000Y-84420000D02*
X94680000Y-86280000D01*
X95620000Y-86280000D02*
X95620000Y-84420000D01*
X94680000Y-86280000D02*
X95620000Y-86280000D01*
X95620000Y-95570000D02*
X94680000Y-95570000D01*
X94680000Y-95570000D02*
X94680000Y-97430000D01*
X95620000Y-97430000D02*
X95620000Y-95570000D01*
X94680000Y-97430000D02*
X95620000Y-97430000D01*
X97520000Y-98420000D02*
X96580000Y-98420000D01*
X96580000Y-98420000D02*
X96580000Y-100280000D01*
X97520000Y-100280000D02*
X97520000Y-98420000D01*
X96580000Y-100280000D02*
X97520000Y-100280000D01*
X95620000Y-98420000D02*
X94680000Y-98420000D01*
X94680000Y-98420000D02*
X94680000Y-100280000D01*
X95620000Y-100280000D02*
X95620000Y-98420000D01*
X94680000Y-100280000D02*
X95620000Y-100280000D01*
X95620000Y-101220000D02*
X94680000Y-101220000D01*
X94680000Y-101220000D02*
X94680000Y-103080000D01*
X95620000Y-103080000D02*
X95620000Y-101220000D01*
X94680000Y-103080000D02*
X95620000Y-103080000D01*
X97520000Y-101220000D02*
X96580000Y-101220000D01*
X96580000Y-101220000D02*
X96580000Y-103080000D01*
X97520000Y-103080000D02*
X97520000Y-101220000D01*
X96580000Y-103080000D02*
X97520000Y-103080000D01*
X95620000Y-104020000D02*
X94680000Y-104020000D01*
X94680000Y-104020000D02*
X94680000Y-105880000D01*
X95620000Y-105880000D02*
X95620000Y-104020000D01*
X94680000Y-105880000D02*
X95620000Y-105880000D01*
X97520000Y-104020000D02*
X96580000Y-104020000D01*
X96580000Y-104020000D02*
X96580000Y-105880000D01*
X97520000Y-105880000D02*
X97520000Y-104020000D01*
X96580000Y-105880000D02*
X97520000Y-105880000D01*
X95620000Y-87220000D02*
X94680000Y-87220000D01*
X94680000Y-87220000D02*
X94680000Y-89080000D01*
X95620000Y-89080000D02*
X95620000Y-87220000D01*
X94680000Y-89080000D02*
X95620000Y-89080000D01*
X95620000Y-92820000D02*
X94680000Y-92820000D01*
X94680000Y-92820000D02*
X94680000Y-94680000D01*
X95620000Y-94680000D02*
X95620000Y-92820000D01*
X94680000Y-94680000D02*
X95620000Y-94680000D01*
X95620000Y-90020000D02*
X94680000Y-90020000D01*
X94680000Y-90020000D02*
X94680000Y-91880000D01*
X95620000Y-91880000D02*
X95620000Y-90020000D01*
X94680000Y-91880000D02*
X95620000Y-91880000D01*
X82170000Y-93770000D02*
X81230000Y-93770000D01*
X81230000Y-93770000D02*
X81230000Y-95630000D01*
X82170000Y-95630000D02*
X82170000Y-93770000D01*
X81230000Y-95630000D02*
X82170000Y-95630000D01*
X99620000Y-84420000D02*
X98680000Y-84420000D01*
X98680000Y-84420000D02*
X98680000Y-86280000D01*
X99620000Y-86280000D02*
X99620000Y-84420000D01*
X98680000Y-86280000D02*
X99620000Y-86280000D01*
X99620000Y-87220000D02*
X98680000Y-87220000D01*
X98680000Y-87220000D02*
X98680000Y-89080000D01*
X99620000Y-89080000D02*
X99620000Y-87220000D01*
X98680000Y-89080000D02*
X99620000Y-89080000D01*
X99620000Y-90020000D02*
X98680000Y-90020000D01*
X98680000Y-90020000D02*
X98680000Y-91880000D01*
X99620000Y-91880000D02*
X99620000Y-90020000D01*
X98680000Y-91880000D02*
X99620000Y-91880000D01*
X97520000Y-92820000D02*
X96580000Y-92820000D01*
X96580000Y-92820000D02*
X96580000Y-94680000D01*
X97520000Y-94680000D02*
X97520000Y-92820000D01*
X96580000Y-94680000D02*
X97520000Y-94680000D01*
X123000000Y-118500000D02*
G75*
G03*
X123000000Y-118500000I-1000000J0D01*
G01*
X84420000Y-99270000D02*
X84420000Y-100730000D01*
X84420000Y-100730000D02*
X87380000Y-100730000D01*
X87380000Y-99270000D02*
X84420000Y-99270000D01*
X87380000Y-100730000D02*
X87380000Y-99270000D01*
X89300000Y-111000000D02*
G75*
G03*
X89300000Y-111000000I-1000000J0D01*
G01*
X89300000Y-113500000D02*
G75*
G03*
X89300000Y-113500000I-1000000J0D01*
G01*
X89300000Y-116000000D02*
G75*
G03*
X89300000Y-116000000I-1000000J0D01*
G01*
X82500000Y-116000000D02*
G75*
G03*
X82500000Y-116000000I-1000000J0D01*
G01*
X82500000Y-111000000D02*
G75*
G03*
X82500000Y-111000000I-1000000J0D01*
G01*
X56500000Y-94250000D02*
G75*
G03*
X56500000Y-94250000I-1000000J0D01*
G01*
X58900000Y-96800000D02*
G75*
G03*
X58900000Y-96800000I-1000000J0D01*
G01*
X58900000Y-94700000D02*
G75*
G03*
X58900000Y-94700000I-1000000J0D01*
G01*
X56500000Y-96300000D02*
G75*
G03*
X56500000Y-96300000I-1000000J0D01*
G01*
X87670000Y-96980000D02*
X89130000Y-96980000D01*
X89130000Y-96980000D02*
X89130000Y-94020000D01*
X87670000Y-94020000D02*
X87670000Y-96980000D01*
X89130000Y-94020000D02*
X87670000Y-94020000D01*
X90270000Y-98320000D02*
X89330000Y-98320000D01*
X89330000Y-98320000D02*
X89330000Y-100180000D01*
X90270000Y-100180000D02*
X90270000Y-98320000D01*
X89330000Y-100180000D02*
X90270000Y-100180000D01*
X85230000Y-95730000D02*
X86170000Y-95730000D01*
X86170000Y-95730000D02*
X86170000Y-93870000D01*
X85230000Y-93870000D02*
X85230000Y-95730000D01*
X86170000Y-93870000D02*
X85230000Y-93870000D01*
X86730000Y-96430000D02*
X87670000Y-96430000D01*
X87670000Y-96430000D02*
X87670000Y-94570000D01*
X86730000Y-94570000D02*
X86730000Y-96430000D01*
X87670000Y-94570000D02*
X86730000Y-94570000D01*
X71650000Y-111200000D02*
G75*
G03*
X71650000Y-111200000I-1000000J0D01*
G01*
X124780000Y-101920000D02*
X123320000Y-101920000D01*
X123320000Y-101920000D02*
X123320000Y-104880000D01*
X124780000Y-104880000D02*
X124780000Y-101920000D01*
X123320000Y-104880000D02*
X124780000Y-104880000D01*
X121820000Y-89080000D02*
X123280000Y-89080000D01*
X123280000Y-89080000D02*
X123280000Y-86120000D01*
X121820000Y-86120000D02*
X121820000Y-89080000D01*
X123280000Y-86120000D02*
X121820000Y-86120000D01*
X123000000Y-99800000D02*
G75*
G03*
X123000000Y-99800000I-1000000J0D01*
G01*
X125600000Y-91200000D02*
G75*
G03*
X125600000Y-91200000I-1000000J0D01*
G01*
X101520000Y-104020000D02*
X100580000Y-104020000D01*
X100580000Y-104020000D02*
X100580000Y-105880000D01*
X101520000Y-105880000D02*
X101520000Y-104020000D01*
X100580000Y-105880000D02*
X101520000Y-105880000D01*
X101520000Y-90020000D02*
X100580000Y-90020000D01*
X100580000Y-90020000D02*
X100580000Y-91880000D01*
X101520000Y-91880000D02*
X101520000Y-90020000D01*
X100580000Y-91880000D02*
X101520000Y-91880000D01*
X97520000Y-87220000D02*
X96580000Y-87220000D01*
X96580000Y-87220000D02*
X96580000Y-89080000D01*
X97520000Y-89080000D02*
X97520000Y-87220000D01*
X96580000Y-89080000D02*
X97520000Y-89080000D01*
X101520000Y-87220000D02*
X100580000Y-87220000D01*
X100580000Y-87220000D02*
X100580000Y-89080000D01*
X101520000Y-89080000D02*
X101520000Y-87220000D01*
X100580000Y-89080000D02*
X101520000Y-89080000D01*
X124230000Y-108270000D02*
X124230000Y-107330000D01*
X124230000Y-107330000D02*
X122370000Y-107330000D01*
X122370000Y-108270000D02*
X124230000Y-108270000D01*
X122370000Y-107330000D02*
X122370000Y-108270000D01*
X122370000Y-82730000D02*
X122370000Y-83670000D01*
X122370000Y-83670000D02*
X124230000Y-83670000D01*
X124230000Y-82730000D02*
X122370000Y-82730000D01*
X124230000Y-83670000D02*
X124230000Y-82730000D01*
X124270000Y-104970000D02*
X123330000Y-104970000D01*
X123330000Y-104970000D02*
X123330000Y-106830000D01*
X124270000Y-106830000D02*
X124270000Y-104970000D01*
X123330000Y-106830000D02*
X124270000Y-106830000D01*
X122330000Y-86030000D02*
X123270000Y-86030000D01*
X123270000Y-86030000D02*
X123270000Y-84170000D01*
X122330000Y-84170000D02*
X122330000Y-86030000D01*
X123270000Y-84170000D02*
X122330000Y-84170000D01*
X126680000Y-99120000D02*
X125220000Y-99120000D01*
X125220000Y-99120000D02*
X125220000Y-102080000D01*
X126680000Y-102080000D02*
X126680000Y-99120000D01*
X125220000Y-102080000D02*
X126680000Y-102080000D01*
X124780000Y-99120000D02*
X123320000Y-99120000D01*
X123320000Y-99120000D02*
X123320000Y-102080000D01*
X124780000Y-102080000D02*
X124780000Y-99120000D01*
X123320000Y-102080000D02*
X124780000Y-102080000D01*
X119920000Y-91880000D02*
X121380000Y-91880000D01*
X121380000Y-91880000D02*
X121380000Y-88920000D01*
X119920000Y-88920000D02*
X119920000Y-91880000D01*
X121380000Y-88920000D02*
X119920000Y-88920000D01*
X121820000Y-91880000D02*
X123280000Y-91880000D01*
X123280000Y-91880000D02*
X123280000Y-88920000D01*
X121820000Y-88920000D02*
X121820000Y-91880000D01*
X123280000Y-88920000D02*
X121820000Y-88920000D01*
X74970000Y-109630000D02*
X74970000Y-110570000D01*
X74970000Y-110570000D02*
X76830000Y-110570000D01*
X76830000Y-109630000D02*
X74970000Y-109630000D01*
X76830000Y-110570000D02*
X76830000Y-109630000D01*
X71470000Y-109630000D02*
X71470000Y-110570000D01*
X71470000Y-110570000D02*
X73330000Y-110570000D01*
X73330000Y-109630000D02*
X71470000Y-109630000D01*
X73330000Y-110570000D02*
X73330000Y-109630000D01*
X86720000Y-98330000D02*
X86720000Y-99270000D01*
X86720000Y-99270000D02*
X88580000Y-99270000D01*
X88580000Y-98330000D02*
X86720000Y-98330000D01*
X88580000Y-99270000D02*
X88580000Y-98330000D01*
X78880000Y-99845000D02*
X77420000Y-99845000D01*
X77420000Y-99845000D02*
X77420000Y-102805000D01*
X78880000Y-102805000D02*
X78880000Y-99845000D01*
X77420000Y-102805000D02*
X78880000Y-102805000D01*
X123270000Y-104970000D02*
X122330000Y-104970000D01*
X122330000Y-104970000D02*
X122330000Y-106830000D01*
X123270000Y-106830000D02*
X123270000Y-104970000D01*
X122330000Y-106830000D02*
X123270000Y-106830000D01*
X123330000Y-86030000D02*
X124270000Y-86030000D01*
X124270000Y-86030000D02*
X124270000Y-84170000D01*
X123330000Y-84170000D02*
X123330000Y-86030000D01*
X124270000Y-84170000D02*
X123330000Y-84170000D01*
X126530000Y-106830000D02*
X127470000Y-106830000D01*
X127470000Y-106830000D02*
X127470000Y-104970000D01*
X126530000Y-104970000D02*
X126530000Y-106830000D01*
X127470000Y-104970000D02*
X126530000Y-104970000D01*
X121270000Y-84170000D02*
X120330000Y-84170000D01*
X120330000Y-84170000D02*
X120330000Y-86030000D01*
X121270000Y-86030000D02*
X121270000Y-84170000D01*
X120330000Y-86030000D02*
X121270000Y-86030000D01*
X126680000Y-101920000D02*
X125220000Y-101920000D01*
X125220000Y-101920000D02*
X125220000Y-104880000D01*
X126680000Y-104880000D02*
X126680000Y-101920000D01*
X125220000Y-104880000D02*
X126680000Y-104880000D01*
X119920000Y-89080000D02*
X121380000Y-89080000D01*
X121380000Y-89080000D02*
X121380000Y-86120000D01*
X119920000Y-86120000D02*
X119920000Y-89080000D01*
X121380000Y-86120000D02*
X119920000Y-86120000D01*
M02*
