G04 #@! TF.GenerationSoftware,KiCad,Pcbnew,7.0.7+dfsg-1*
G04 #@! TF.CreationDate,2023-10-06T03:56:53+00:00*
G04 #@! TF.ProjectId,glasgow,676c6173-676f-4772-9e6b-696361645f70,C3*
G04 #@! TF.SameCoordinates,Original*
G04 #@! TF.FileFunction,Soldermask,Top*
G04 #@! TF.FilePolarity,Negative*
%FSLAX46Y46*%
G04 Gerber Fmt 4.6, Leading zero omitted, Abs format (unit mm)*
G04 Created by KiCad (PCBNEW 7.0.7+dfsg-1) date 2023-10-06 03:56:53*
%MOMM*%
%LPD*%
G01*
G04 APERTURE LIST*
G04 Aperture macros list*
%AMRoundRect*
0 Rectangle with rounded corners*
0 $1 Rounding radius*
0 $2 $3 $4 $5 $6 $7 $8 $9 X,Y pos of 4 corners*
0 Add a 4 corners polygon primitive as box body*
4,1,4,$2,$3,$4,$5,$6,$7,$8,$9,$2,$3,0*
0 Add four circle primitives for the rounded corners*
1,1,$1+$1,$2,$3*
1,1,$1+$1,$4,$5*
1,1,$1+$1,$6,$7*
1,1,$1+$1,$8,$9*
0 Add four rect primitives between the rounded corners*
20,1,$1+$1,$2,$3,$4,$5,0*
20,1,$1+$1,$4,$5,$6,$7,0*
20,1,$1+$1,$6,$7,$8,$9,0*
20,1,$1+$1,$8,$9,$2,$3,0*%
G04 Aperture macros list end*
%ADD10C,0.863600*%
%ADD11C,0.200000*%
%ADD12C,1.000000*%
%ADD13C,1.500000*%
%ADD14RoundRect,0.147500X0.172500X-0.147500X0.172500X0.147500X-0.172500X0.147500X-0.172500X-0.147500X0*%
%ADD15RoundRect,0.147500X-0.172500X0.147500X-0.172500X-0.147500X0.172500X-0.147500X0.172500X0.147500X0*%
%ADD16RoundRect,0.147500X0.017678X-0.226274X0.226274X-0.017678X-0.017678X0.226274X-0.226274X0.017678X0*%
%ADD17O,1.000000X0.280000*%
%ADD18O,0.280000X1.000000*%
%ADD19RoundRect,0.218750X-0.218750X-0.256250X0.218750X-0.256250X0.218750X0.256250X-0.218750X0.256250X0*%
%ADD20RoundRect,0.100000X-0.225000X-0.100000X0.225000X-0.100000X0.225000X0.100000X-0.225000X0.100000X0*%
%ADD21RoundRect,0.147500X0.147500X0.172500X-0.147500X0.172500X-0.147500X-0.172500X0.147500X-0.172500X0*%
%ADD22O,1.000000X1.000000*%
%ADD23RoundRect,0.218750X0.256250X-0.218750X0.256250X0.218750X-0.256250X0.218750X-0.256250X-0.218750X0*%
%ADD24RoundRect,0.218750X-0.256250X0.218750X-0.256250X-0.218750X0.256250X-0.218750X0.256250X0.218750X0*%
%ADD25RoundRect,0.218750X0.218750X0.256250X-0.218750X0.256250X-0.218750X-0.256250X0.218750X-0.256250X0*%
%ADD26RoundRect,0.147500X-0.147500X-0.172500X0.147500X-0.172500X0.147500X0.172500X-0.147500X0.172500X0*%
%ADD27RoundRect,0.300000X-0.400000X-0.300000X0.400000X-0.300000X0.400000X0.300000X-0.400000X0.300000X0*%
%ADD28C,0.500000*%
%ADD29RoundRect,0.162500X-0.367500X-0.162500X0.367500X-0.162500X0.367500X0.162500X-0.367500X0.162500X0*%
%ADD30RoundRect,0.100000X-0.637500X-0.100000X0.637500X-0.100000X0.637500X0.100000X-0.637500X0.100000X0*%
%ADD31RoundRect,0.100000X0.637500X0.100000X-0.637500X0.100000X-0.637500X-0.100000X0.637500X-0.100000X0*%
%ADD32RoundRect,0.150000X0.200000X-0.150000X0.200000X0.150000X-0.200000X0.150000X-0.200000X-0.150000X0*%
%ADD33RoundRect,0.425000X0.425000X0.425000X-0.425000X0.425000X-0.425000X-0.425000X0.425000X-0.425000X0*%
%ADD34O,1.700000X1.700000*%
%ADD35C,0.800000*%
%ADD36C,7.000000*%
%ADD37RoundRect,0.250000X0.600000X-0.600000X0.600000X0.600000X-0.600000X0.600000X-0.600000X-0.600000X0*%
%ADD38C,1.700000*%
%ADD39RoundRect,0.162500X0.367500X0.162500X-0.367500X0.162500X-0.367500X-0.162500X0.367500X-0.162500X0*%
%ADD40RoundRect,0.122500X-0.122500X0.127500X-0.122500X-0.127500X0.122500X-0.127500X0.122500X0.127500X0*%
%ADD41RoundRect,0.070000X-0.070000X0.180000X-0.070000X-0.180000X0.070000X-0.180000X0.070000X0.180000X0*%
%ADD42RoundRect,0.122500X0.122500X-0.127500X0.122500X0.127500X-0.122500X0.127500X-0.122500X-0.127500X0*%
%ADD43RoundRect,0.070000X0.070000X-0.180000X0.070000X0.180000X-0.070000X0.180000X-0.070000X-0.180000X0*%
%ADD44RoundRect,0.122500X-0.127500X-0.122500X0.127500X-0.122500X0.127500X0.122500X-0.127500X0.122500X0*%
%ADD45RoundRect,0.070000X-0.180000X-0.070000X0.180000X-0.070000X0.180000X0.070000X-0.180000X0.070000X0*%
%ADD46C,0.650000*%
%ADD47RoundRect,0.147500X-0.577500X0.147500X-0.577500X-0.147500X0.577500X-0.147500X0.577500X0.147500X0*%
%ADD48RoundRect,0.070000X-0.655000X0.070000X-0.655000X-0.070000X0.655000X-0.070000X0.655000X0.070000X0*%
%ADD49O,2.100000X1.000000*%
%ADD50O,1.600000X1.000000*%
%ADD51RoundRect,0.150000X0.300000X0.150000X-0.300000X0.150000X-0.300000X-0.150000X0.300000X-0.150000X0*%
%ADD52RoundRect,0.150000X-0.300000X-0.150000X0.300000X-0.150000X0.300000X0.150000X-0.300000X0.150000X0*%
%ADD53RoundRect,0.112500X0.237500X-0.112500X0.237500X0.112500X-0.237500X0.112500X-0.237500X-0.112500X0*%
%ADD54RoundRect,0.112500X-0.237500X0.112500X-0.237500X-0.112500X0.237500X-0.112500X0.237500X0.112500X0*%
%ADD55RoundRect,0.070000X-0.655000X-0.070000X0.655000X-0.070000X0.655000X0.070000X-0.655000X0.070000X0*%
%ADD56C,0.760000*%
%ADD57RoundRect,0.190000X0.190000X-1.185000X0.190000X1.185000X-0.190000X1.185000X-0.190000X-1.185000X0*%
%ADD58RoundRect,0.250000X-1.500000X-0.550000X1.500000X-0.550000X1.500000X0.550000X-1.500000X0.550000X0*%
%ADD59RoundRect,0.100000X0.100000X-0.637500X0.100000X0.637500X-0.100000X0.637500X-0.100000X-0.637500X0*%
%ADD60RoundRect,0.249999X0.620001X0.850001X-0.620001X0.850001X-0.620001X-0.850001X0.620001X-0.850001X0*%
%ADD61O,1.740000X2.200000*%
%ADD62RoundRect,0.042900X0.182100X0.107100X-0.182100X0.107100X-0.182100X-0.107100X0.182100X-0.107100X0*%
%ADD63RoundRect,0.050000X0.450000X0.750000X-0.450000X0.750000X-0.450000X-0.750000X0.450000X-0.750000X0*%
%ADD64RoundRect,0.250000X-0.600000X0.600000X-0.600000X-0.600000X0.600000X-0.600000X0.600000X0.600000X0*%
%ADD65RoundRect,0.175000X-0.175000X-0.325000X0.175000X-0.325000X0.175000X0.325000X-0.175000X0.325000X0*%
%ADD66RoundRect,0.150000X-0.200000X-0.150000X0.200000X-0.150000X0.200000X0.150000X-0.200000X0.150000X0*%
%ADD67RoundRect,0.070000X0.655000X0.070000X-0.655000X0.070000X-0.655000X-0.070000X0.655000X-0.070000X0*%
%ADD68RoundRect,0.140000X-0.170000X0.140000X-0.170000X-0.140000X0.170000X-0.140000X0.170000X0.140000X0*%
%ADD69RoundRect,0.140000X0.170000X-0.140000X0.170000X0.140000X-0.170000X0.140000X-0.170000X-0.140000X0*%
%ADD70C,1.200000*%
%ADD71RoundRect,0.225000X-0.225000X-0.250000X0.225000X-0.250000X0.225000X0.250000X-0.225000X0.250000X0*%
G04 APERTURE END LIST*
D10*
X67310000Y-93595000D02*
X72390000Y-93595000D01*
X67310000Y-94865000D02*
X72390000Y-94865000D01*
X67310000Y-96135000D02*
X72390000Y-96135000D01*
X67310000Y-97405000D02*
X72390000Y-97405000D01*
X67945000Y-92960000D02*
X67945000Y-98040000D01*
X69215000Y-92960000D02*
X69215000Y-98040000D01*
X70485000Y-92960000D02*
X70485000Y-98040000D01*
X71755000Y-92960000D02*
X71755000Y-98040000D01*
D11*
X67610000Y-92960000D02*
G75*
G03*
X67610000Y-92960000I-300000J0D01*
G01*
X67610000Y-94230000D02*
G75*
G03*
X67610000Y-94230000I-300000J0D01*
G01*
X67610000Y-95500000D02*
G75*
G03*
X67610000Y-95500000I-300000J0D01*
G01*
X67610000Y-96770000D02*
G75*
G03*
X67610000Y-96770000I-300000J0D01*
G01*
X67610000Y-98040000D02*
G75*
G03*
X67610000Y-98040000I-300000J0D01*
G01*
X68880000Y-92960000D02*
G75*
G03*
X68880000Y-92960000I-300000J0D01*
G01*
X68880000Y-94230000D02*
G75*
G03*
X68880000Y-94230000I-300000J0D01*
G01*
X68880000Y-95500000D02*
G75*
G03*
X68880000Y-95500000I-300000J0D01*
G01*
X68880000Y-96770000D02*
G75*
G03*
X68880000Y-96770000I-300000J0D01*
G01*
X68880000Y-98040000D02*
G75*
G03*
X68880000Y-98040000I-300000J0D01*
G01*
X70150000Y-92960000D02*
G75*
G03*
X70150000Y-92960000I-300000J0D01*
G01*
X70150000Y-94230000D02*
G75*
G03*
X70150000Y-94230000I-300000J0D01*
G01*
X70150000Y-95500000D02*
G75*
G03*
X70150000Y-95500000I-300000J0D01*
G01*
X70150000Y-96770000D02*
G75*
G03*
X70150000Y-96770000I-300000J0D01*
G01*
X70150000Y-98040000D02*
G75*
G03*
X70150000Y-98040000I-300000J0D01*
G01*
X71420000Y-92960000D02*
G75*
G03*
X71420000Y-92960000I-300000J0D01*
G01*
X71420000Y-94230000D02*
G75*
G03*
X71420000Y-94230000I-300000J0D01*
G01*
X71420000Y-95500000D02*
G75*
G03*
X71420000Y-95500000I-300000J0D01*
G01*
X71420000Y-96770000D02*
G75*
G03*
X71420000Y-96770000I-300000J0D01*
G01*
X71420000Y-98040000D02*
G75*
G03*
X71420000Y-98040000I-300000J0D01*
G01*
X72690000Y-92960000D02*
G75*
G03*
X72690000Y-92960000I-300000J0D01*
G01*
X72690000Y-94230000D02*
G75*
G03*
X72690000Y-94230000I-300000J0D01*
G01*
X72690000Y-95500000D02*
G75*
G03*
X72690000Y-95500000I-300000J0D01*
G01*
X72690000Y-96770000D02*
G75*
G03*
X72690000Y-96770000I-300000J0D01*
G01*
X72690000Y-98040000D02*
G75*
G03*
X72690000Y-98040000I-300000J0D01*
G01*
G36*
X67100000Y-98610000D02*
G01*
X66740000Y-98610000D01*
X66740000Y-92390000D01*
X67100000Y-92390000D01*
X67100000Y-98610000D01*
G37*
G36*
X72960000Y-98610000D02*
G01*
X66740000Y-98610000D01*
X66740000Y-98250000D01*
X72960000Y-98250000D01*
X72960000Y-98610000D01*
G37*
G36*
X72960000Y-92750000D02*
G01*
X66740000Y-92750000D01*
X66740000Y-92390000D01*
X72960000Y-92390000D01*
X72960000Y-92750000D01*
G37*
G36*
X72960000Y-98610000D02*
G01*
X72600000Y-98610000D01*
X72600000Y-92390000D01*
X72960000Y-92390000D01*
X72960000Y-98610000D01*
G37*
D12*
X76400000Y-105000000D03*
X76400000Y-103300000D03*
D13*
X58000000Y-118500000D03*
X122000000Y-72500000D03*
D14*
X127000000Y-108085000D03*
X127000000Y-107115000D03*
D15*
X59000000Y-107515000D03*
X59000000Y-108485000D03*
X59000000Y-109515000D03*
X59000000Y-110485000D03*
D12*
X73100000Y-89000000D03*
D16*
X75207053Y-100842947D03*
X75892947Y-100157053D03*
D17*
X65850000Y-92250000D03*
X65850000Y-92750000D03*
X65850000Y-93250000D03*
X65850000Y-93750000D03*
X65850000Y-94250000D03*
X65850000Y-94750000D03*
X65850000Y-95250000D03*
X65850000Y-95750000D03*
X65850000Y-96250000D03*
X65850000Y-96750000D03*
X65850000Y-97250000D03*
X65850000Y-97750000D03*
X65850000Y-98250000D03*
X65850000Y-98750000D03*
D18*
X66600000Y-99500000D03*
X67100000Y-99500000D03*
X67600000Y-99500000D03*
X68100000Y-99500000D03*
X68600000Y-99500000D03*
X69100000Y-99500000D03*
X69600000Y-99500000D03*
X70100000Y-99500000D03*
X70600000Y-99500000D03*
X71100000Y-99500000D03*
X71600000Y-99500000D03*
X72100000Y-99500000D03*
X72600000Y-99500000D03*
X73100000Y-99500000D03*
D17*
X73850000Y-98750000D03*
X73850000Y-98250000D03*
X73850000Y-97750000D03*
X73850000Y-97250000D03*
X73850000Y-96750000D03*
X73850000Y-96250000D03*
X73850000Y-95750000D03*
X73850000Y-95250000D03*
X73850000Y-94750000D03*
X73850000Y-94250000D03*
X73850000Y-93750000D03*
X73850000Y-93250000D03*
X73850000Y-92750000D03*
X73850000Y-92250000D03*
D18*
X73100000Y-91500000D03*
X72600000Y-91500000D03*
X72100000Y-91500000D03*
X71600000Y-91500000D03*
X71100000Y-91500000D03*
X70600000Y-91500000D03*
X70100000Y-91500000D03*
X69600000Y-91500000D03*
X69100000Y-91500000D03*
X68600000Y-91500000D03*
X68100000Y-91500000D03*
X67600000Y-91500000D03*
X67100000Y-91500000D03*
X66600000Y-91500000D03*
D14*
X120900000Y-91185000D03*
X120900000Y-90215000D03*
D19*
X56212500Y-102000000D03*
X57787500Y-102000000D03*
X56212500Y-106000000D03*
X57787500Y-106000000D03*
X56212500Y-89000000D03*
X57787500Y-89000000D03*
X56212500Y-87000000D03*
X57787500Y-87000000D03*
X56212500Y-85000000D03*
X57787500Y-85000000D03*
X56212500Y-83000000D03*
X57787500Y-83000000D03*
D14*
X59000000Y-85485000D03*
X59000000Y-84515000D03*
X59000000Y-87485000D03*
X59000000Y-86515000D03*
D15*
X59000000Y-103515000D03*
X59000000Y-104485000D03*
D20*
X99150000Y-99050000D03*
X99150000Y-99700000D03*
X99150000Y-100350000D03*
X101050000Y-100350000D03*
X101050000Y-99700000D03*
X101050000Y-99050000D03*
X99150000Y-96250000D03*
X99150000Y-96900000D03*
X99150000Y-97550000D03*
X101050000Y-97550000D03*
X101050000Y-96900000D03*
X101050000Y-96250000D03*
X99150000Y-90650000D03*
X99150000Y-91300000D03*
X99150000Y-91950000D03*
X101050000Y-91950000D03*
X101050000Y-91300000D03*
X101050000Y-90650000D03*
X95150000Y-93450000D03*
X95150000Y-94100000D03*
X95150000Y-94750000D03*
X97050000Y-94750000D03*
X97050000Y-94100000D03*
X97050000Y-93450000D03*
X95150000Y-90650000D03*
X95150000Y-91300000D03*
X95150000Y-91950000D03*
X97050000Y-91950000D03*
X97050000Y-91300000D03*
X97050000Y-90650000D03*
X95150000Y-87850000D03*
X95150000Y-88500000D03*
X95150000Y-89150000D03*
X97050000Y-89150000D03*
X97050000Y-88500000D03*
X97050000Y-87850000D03*
X95150000Y-96250000D03*
X95150000Y-96900000D03*
X95150000Y-97550000D03*
X97050000Y-97550000D03*
X97050000Y-96900000D03*
X97050000Y-96250000D03*
X95150000Y-101850000D03*
X95150000Y-102500000D03*
X95150000Y-103150000D03*
X97050000Y-103150000D03*
X97050000Y-102500000D03*
X97050000Y-101850000D03*
X95150000Y-104650000D03*
X95150000Y-105300000D03*
X95150000Y-105950000D03*
X97050000Y-105950000D03*
X97050000Y-105300000D03*
X97050000Y-104650000D03*
D21*
X120885000Y-87400000D03*
X119915000Y-87400000D03*
D19*
X56212500Y-81000000D03*
X57787500Y-81000000D03*
D12*
X107800000Y-87600000D03*
D22*
X109070000Y-87600000D03*
X110340000Y-87600000D03*
X111610000Y-87600000D03*
X112880000Y-87600000D03*
X114150000Y-87600000D03*
X115420000Y-87600000D03*
X116690000Y-87600000D03*
D12*
X116700000Y-108500000D03*
D22*
X115430000Y-108500000D03*
X114160000Y-108500000D03*
X112890000Y-108500000D03*
X111620000Y-108500000D03*
X110350000Y-108500000D03*
X109080000Y-108500000D03*
X107810000Y-108500000D03*
D23*
X126900000Y-91087500D03*
X126900000Y-89512500D03*
D24*
X119700000Y-99912500D03*
X119700000Y-101487500D03*
D25*
X124087500Y-103700000D03*
X122512500Y-103700000D03*
D15*
X125700000Y-101715000D03*
X125700000Y-102685000D03*
X125700000Y-99815000D03*
X125700000Y-100785000D03*
D13*
X122000000Y-118500000D03*
D12*
X78600000Y-90400000D03*
D14*
X125700000Y-90785000D03*
X125700000Y-89815000D03*
X120900000Y-89285000D03*
X120900000Y-88315000D03*
X59350000Y-93635000D03*
X59350000Y-92665000D03*
X59000000Y-89485000D03*
X59000000Y-88515000D03*
D26*
X75915000Y-90300000D03*
X76885000Y-90300000D03*
D14*
X59000000Y-81485000D03*
X59000000Y-80515000D03*
X59000000Y-83485000D03*
X59000000Y-82515000D03*
D27*
X60800000Y-93250000D03*
X63000000Y-93250000D03*
X63000000Y-91550000D03*
X60800000Y-91550000D03*
D28*
X87700000Y-91500000D03*
X87700000Y-92300000D03*
X87700000Y-93100000D03*
X87700000Y-93900000D03*
X87700000Y-94700000D03*
X87700000Y-95500000D03*
X87700000Y-96300000D03*
X87700000Y-97100000D03*
X87700000Y-97900000D03*
X87700000Y-98700000D03*
X87700000Y-99500000D03*
X86900000Y-91500000D03*
X86900000Y-92300000D03*
X86900000Y-93100000D03*
X86900000Y-93900000D03*
X86900000Y-94700000D03*
X86900000Y-95500000D03*
X86900000Y-96300000D03*
X86900000Y-97100000D03*
X86900000Y-97900000D03*
X86900000Y-98700000D03*
X86900000Y-99500000D03*
X86100000Y-91500000D03*
X86100000Y-92300000D03*
X86100000Y-93100000D03*
X86100000Y-93900000D03*
X86100000Y-94700000D03*
X86100000Y-95500000D03*
X86100000Y-96300000D03*
X86100000Y-97100000D03*
X86100000Y-97900000D03*
X86100000Y-98700000D03*
X86100000Y-99500000D03*
X85300000Y-91500000D03*
X85300000Y-92300000D03*
X85300000Y-93100000D03*
X85300000Y-93900000D03*
X85300000Y-94700000D03*
X85300000Y-95500000D03*
X85300000Y-96300000D03*
X85300000Y-97100000D03*
X85300000Y-97900000D03*
X85300000Y-98700000D03*
X85300000Y-99500000D03*
X84500000Y-91500000D03*
X84500000Y-92300000D03*
X84500000Y-93100000D03*
X84500000Y-93900000D03*
X84500000Y-94700000D03*
X84500000Y-95500000D03*
X84500000Y-96300000D03*
X84500000Y-97100000D03*
X84500000Y-97900000D03*
X84500000Y-98700000D03*
X84500000Y-99500000D03*
X83700000Y-91500000D03*
X83700000Y-92300000D03*
X83700000Y-93100000D03*
X83700000Y-93900000D03*
X83700000Y-94700000D03*
X83700000Y-95500000D03*
X83700000Y-96300000D03*
X83700000Y-97100000D03*
X83700000Y-97900000D03*
X83700000Y-98700000D03*
X83700000Y-99500000D03*
X82900000Y-91500000D03*
X82900000Y-92300000D03*
X82900000Y-93100000D03*
X82900000Y-93900000D03*
X82900000Y-94700000D03*
X82900000Y-95500000D03*
X82900000Y-96300000D03*
X82900000Y-97100000D03*
X82900000Y-97900000D03*
X82900000Y-98700000D03*
X82900000Y-99500000D03*
X82100000Y-91500000D03*
X82100000Y-92300000D03*
X82100000Y-93100000D03*
X82100000Y-93900000D03*
X82100000Y-94700000D03*
X82100000Y-95500000D03*
X82100000Y-96300000D03*
X82100000Y-97100000D03*
X82100000Y-97900000D03*
X82100000Y-98700000D03*
X82100000Y-99500000D03*
X81300000Y-91500000D03*
X81300000Y-92300000D03*
X81300000Y-93100000D03*
X81300000Y-93900000D03*
X81300000Y-94700000D03*
X81300000Y-95500000D03*
X81300000Y-96300000D03*
X81300000Y-97100000D03*
X81300000Y-97900000D03*
X81300000Y-98700000D03*
X81300000Y-99500000D03*
X80500000Y-91500000D03*
X80500000Y-92300000D03*
X80500000Y-93100000D03*
X80500000Y-93900000D03*
X80500000Y-94700000D03*
X80500000Y-95500000D03*
X80500000Y-96300000D03*
X80500000Y-97100000D03*
X80500000Y-97900000D03*
X80500000Y-98700000D03*
X80500000Y-99500000D03*
X79700000Y-91500000D03*
X79700000Y-92300000D03*
X79700000Y-93100000D03*
X79700000Y-93900000D03*
X79700000Y-94700000D03*
X79700000Y-95500000D03*
X79700000Y-96300000D03*
X79700000Y-97100000D03*
X79700000Y-97900000D03*
X79700000Y-98700000D03*
X79700000Y-99500000D03*
D21*
X59335000Y-91700000D03*
X58365000Y-91700000D03*
D20*
X99150000Y-87850000D03*
X99150000Y-88500000D03*
X99150000Y-89150000D03*
X101050000Y-89150000D03*
X101050000Y-88500000D03*
X101050000Y-87850000D03*
X99150000Y-85050000D03*
X99150000Y-85700000D03*
X99150000Y-86350000D03*
X101050000Y-86350000D03*
X101050000Y-85700000D03*
X101050000Y-85050000D03*
D15*
X59000000Y-105515000D03*
X59000000Y-106485000D03*
D19*
X56212500Y-108000000D03*
X57787500Y-108000000D03*
D15*
X59000000Y-101515000D03*
X59000000Y-102485000D03*
D19*
X56212500Y-104000000D03*
X57787500Y-104000000D03*
X56212500Y-110000000D03*
X57787500Y-110000000D03*
D14*
X125300000Y-81885000D03*
X125300000Y-80915000D03*
D12*
X116700000Y-103420000D03*
D22*
X115430000Y-103420000D03*
X114160000Y-103420000D03*
X112890000Y-103420000D03*
X111620000Y-103420000D03*
X110350000Y-103420000D03*
X109080000Y-103420000D03*
X107810000Y-103420000D03*
D29*
X122200000Y-100250000D03*
X122200000Y-101200000D03*
X122200000Y-102150000D03*
X124400000Y-102150000D03*
X124400000Y-100250000D03*
D21*
X108385000Y-101400000D03*
X107415000Y-101400000D03*
D26*
X125715000Y-103600000D03*
X126685000Y-103600000D03*
D15*
X125100000Y-109115000D03*
X125100000Y-110085000D03*
D20*
X99150000Y-93450000D03*
X99150000Y-94100000D03*
X99150000Y-94750000D03*
X101050000Y-94750000D03*
X101050000Y-94100000D03*
X101050000Y-93450000D03*
D15*
X70600000Y-113315000D03*
X70600000Y-114285000D03*
D30*
X109837500Y-89925000D03*
X109837500Y-90575000D03*
X109837500Y-91225000D03*
X109837500Y-91875000D03*
X109837500Y-92525000D03*
X109837500Y-93175000D03*
X109837500Y-93825000D03*
X109837500Y-94475000D03*
X115562500Y-94475000D03*
X115562500Y-93825000D03*
X115562500Y-93175000D03*
X115562500Y-92525000D03*
X115562500Y-91875000D03*
X115562500Y-91225000D03*
X115562500Y-90575000D03*
X115562500Y-89925000D03*
D14*
X103000000Y-97235000D03*
X103000000Y-96265000D03*
D15*
X103000000Y-94415000D03*
X103000000Y-95385000D03*
D20*
X99150000Y-101850000D03*
X99150000Y-102500000D03*
X99150000Y-103150000D03*
X101050000Y-103150000D03*
X101050000Y-102500000D03*
X101050000Y-101850000D03*
X95150000Y-99050000D03*
X95150000Y-99700000D03*
X95150000Y-100350000D03*
X97050000Y-100350000D03*
X97050000Y-99700000D03*
X97050000Y-99050000D03*
D26*
X117030000Y-101600000D03*
X118000000Y-101600000D03*
D14*
X86350000Y-108135000D03*
X86350000Y-107165000D03*
D26*
X117015000Y-100400000D03*
X117985000Y-100400000D03*
X107415000Y-100500000D03*
X108385000Y-100500000D03*
D15*
X108350000Y-89865000D03*
X108350000Y-90835000D03*
X120900000Y-100215000D03*
X120900000Y-101185000D03*
D31*
X115562500Y-101075000D03*
X115562500Y-100425000D03*
X115562500Y-99775000D03*
X115562500Y-99125000D03*
X115562500Y-98475000D03*
X115562500Y-97825000D03*
X115562500Y-97175000D03*
X115562500Y-96525000D03*
X109837500Y-96525000D03*
X109837500Y-97175000D03*
X109837500Y-97825000D03*
X109837500Y-98475000D03*
X109837500Y-99125000D03*
X109837500Y-99775000D03*
X109837500Y-100425000D03*
X109837500Y-101075000D03*
D21*
X117985000Y-90500000D03*
X117015000Y-90500000D03*
D15*
X119900000Y-88315000D03*
X119900000Y-89285000D03*
D14*
X126700000Y-102685000D03*
X126700000Y-101715000D03*
D21*
X92485000Y-97700000D03*
X91515000Y-97700000D03*
D12*
X94700000Y-107300000D03*
X94700000Y-109000000D03*
D14*
X74900000Y-106385000D03*
X74900000Y-105415000D03*
D32*
X107800000Y-96900000D03*
X107800000Y-98300000D03*
D21*
X89035000Y-101500000D03*
X88065000Y-101500000D03*
D33*
X105270000Y-98040000D03*
D34*
X105270000Y-95500000D03*
X105270000Y-92960000D03*
D35*
X51375000Y-116000000D03*
X52143845Y-114143845D03*
X52143845Y-117856155D03*
X54000000Y-113375000D03*
D36*
X54000000Y-116000000D03*
D35*
X54000000Y-118625000D03*
X55856155Y-114143845D03*
X55856155Y-117856155D03*
X56625000Y-116000000D03*
X51375000Y-75000000D03*
X52143845Y-73143845D03*
X52143845Y-76856155D03*
X54000000Y-72375000D03*
D36*
X54000000Y-75000000D03*
D35*
X54000000Y-77625000D03*
X55856155Y-73143845D03*
X55856155Y-76856155D03*
X56625000Y-75000000D03*
X123375000Y-116000000D03*
X124143845Y-114143845D03*
X124143845Y-117856155D03*
X126000000Y-113375000D03*
D36*
X126000000Y-116000000D03*
D35*
X126000000Y-118625000D03*
X127856155Y-114143845D03*
X127856155Y-117856155D03*
X128625000Y-116000000D03*
D19*
X122512500Y-87300000D03*
X124087500Y-87300000D03*
D35*
X123375000Y-75000000D03*
X124143845Y-73143845D03*
X124143845Y-76856155D03*
X126000000Y-72375000D03*
D36*
X126000000Y-75000000D03*
D35*
X126000000Y-77625000D03*
X127856155Y-73143845D03*
X127856155Y-76856155D03*
X128625000Y-75000000D03*
D12*
X107800000Y-82500000D03*
D22*
X109070000Y-82500000D03*
X110340000Y-82500000D03*
X111610000Y-82500000D03*
X112880000Y-82500000D03*
X114150000Y-82500000D03*
X115420000Y-82500000D03*
X116690000Y-82500000D03*
D25*
X123387500Y-80500000D03*
X121812500Y-80500000D03*
D15*
X119600000Y-82915000D03*
X119600000Y-83885000D03*
D37*
X92570000Y-77720000D03*
D38*
X92570000Y-75180000D03*
X95110000Y-77720000D03*
X95110000Y-75180000D03*
X97650000Y-77720000D03*
X97650000Y-75180000D03*
X100190000Y-77720000D03*
X100190000Y-75180000D03*
X102730000Y-77720000D03*
X102730000Y-75180000D03*
X105270000Y-77720000D03*
X105270000Y-75180000D03*
X107810000Y-77720000D03*
X107810000Y-75180000D03*
X110350000Y-77720000D03*
X110350000Y-75180000D03*
X112890000Y-77720000D03*
X112890000Y-75180000D03*
X115430000Y-77720000D03*
X115430000Y-75180000D03*
D21*
X123085000Y-109200000D03*
X122115000Y-109200000D03*
X123085000Y-81800000D03*
X122115000Y-81800000D03*
D12*
X77300000Y-101400000D03*
D25*
X123387500Y-110500000D03*
X121812500Y-110500000D03*
D39*
X124400000Y-90750000D03*
X124400000Y-89800000D03*
X124400000Y-88850000D03*
X122200000Y-88850000D03*
X122200000Y-90750000D03*
D32*
X86400000Y-109400000D03*
X86400000Y-110800000D03*
D15*
X74900000Y-103315000D03*
X74900000Y-104285000D03*
D40*
X106555000Y-104500000D03*
D41*
X105950000Y-104500000D03*
X105450000Y-104500000D03*
D40*
X104845000Y-104500000D03*
X104845000Y-105500000D03*
D41*
X105450000Y-105500000D03*
X105950000Y-105500000D03*
D40*
X106555000Y-105500000D03*
X104055000Y-104500000D03*
D41*
X103450000Y-104500000D03*
X102950000Y-104500000D03*
D40*
X102345000Y-104500000D03*
X102345000Y-105500000D03*
D41*
X102950000Y-105500000D03*
X103450000Y-105500000D03*
D40*
X104055000Y-105500000D03*
D42*
X112545000Y-106500000D03*
D43*
X113150000Y-106500000D03*
X113650000Y-106500000D03*
D42*
X114255000Y-106500000D03*
X114255000Y-105500000D03*
D43*
X113650000Y-105500000D03*
X113150000Y-105500000D03*
D42*
X112545000Y-105500000D03*
X110045000Y-106500000D03*
D43*
X110650000Y-106500000D03*
X111150000Y-106500000D03*
D42*
X111755000Y-106500000D03*
X111755000Y-105500000D03*
D43*
X111150000Y-105500000D03*
X110650000Y-105500000D03*
D42*
X110045000Y-105500000D03*
D44*
X90300000Y-89445000D03*
D45*
X90300000Y-90050000D03*
X90300000Y-90550000D03*
D44*
X90300000Y-91155000D03*
X91300000Y-91155000D03*
D45*
X91300000Y-90550000D03*
X91300000Y-90050000D03*
D44*
X91300000Y-89445000D03*
X90300000Y-91945000D03*
D45*
X90300000Y-92550000D03*
X90300000Y-93050000D03*
D44*
X90300000Y-93655000D03*
X91300000Y-93655000D03*
D45*
X91300000Y-93050000D03*
X91300000Y-92550000D03*
D44*
X91300000Y-91945000D03*
D42*
X104845000Y-86500000D03*
D43*
X105450000Y-86500000D03*
X105950000Y-86500000D03*
D42*
X106555000Y-86500000D03*
X106555000Y-85500000D03*
D43*
X105950000Y-85500000D03*
X105450000Y-85500000D03*
D42*
X104845000Y-85500000D03*
D40*
X111755000Y-84500000D03*
D41*
X111150000Y-84500000D03*
X110650000Y-84500000D03*
D40*
X110045000Y-84500000D03*
X110045000Y-85500000D03*
D41*
X110650000Y-85500000D03*
X111150000Y-85500000D03*
D40*
X111755000Y-85500000D03*
X114255000Y-84500000D03*
D41*
X113650000Y-84500000D03*
X113150000Y-84500000D03*
D40*
X112545000Y-84500000D03*
X112545000Y-85500000D03*
D41*
X113150000Y-85500000D03*
X113650000Y-85500000D03*
D40*
X114255000Y-85500000D03*
D20*
X95150000Y-85050000D03*
X95150000Y-85700000D03*
X95150000Y-86350000D03*
X97050000Y-86350000D03*
X97050000Y-85700000D03*
X97050000Y-85050000D03*
X89850000Y-98950000D03*
X89850000Y-99600000D03*
X89850000Y-100250000D03*
X91750000Y-100250000D03*
X91750000Y-99600000D03*
X91750000Y-98950000D03*
X99150000Y-104650000D03*
X99150000Y-105300000D03*
X99150000Y-105950000D03*
X101050000Y-105950000D03*
X101050000Y-105300000D03*
X101050000Y-104650000D03*
D32*
X107800000Y-94400000D03*
X107800000Y-95800000D03*
D44*
X90300000Y-104545000D03*
D45*
X90300000Y-105150000D03*
X90300000Y-105650000D03*
D44*
X90300000Y-106255000D03*
X91300000Y-106255000D03*
D45*
X91300000Y-105650000D03*
X91300000Y-105150000D03*
D44*
X91300000Y-104545000D03*
X90300000Y-102045000D03*
D45*
X90300000Y-102650000D03*
X90300000Y-103150000D03*
D44*
X90300000Y-103755000D03*
X91300000Y-103755000D03*
D45*
X91300000Y-103150000D03*
X91300000Y-102650000D03*
D44*
X91300000Y-102045000D03*
D15*
X108350000Y-91765000D03*
X108350000Y-92735000D03*
D46*
X55250000Y-92610000D03*
X55250000Y-98390000D03*
D47*
X56695000Y-92245000D03*
X56695000Y-93055000D03*
D48*
X56695000Y-94250000D03*
X56695000Y-95250000D03*
X56695000Y-95750000D03*
X56695000Y-96750000D03*
D47*
X56695000Y-97945000D03*
X56695000Y-98755000D03*
X56695000Y-98755000D03*
X56695000Y-97945000D03*
D48*
X56695000Y-97250000D03*
X56695000Y-96250000D03*
X56695000Y-94750000D03*
X56695000Y-93750000D03*
D47*
X56695000Y-93055000D03*
X56695000Y-92245000D03*
D49*
X55780000Y-91180000D03*
D50*
X51600000Y-91180000D03*
D49*
X55780000Y-99820000D03*
D50*
X51600000Y-99820000D03*
D21*
X62385000Y-90200000D03*
X61415000Y-90200000D03*
D15*
X58400000Y-92665000D03*
X58400000Y-93635000D03*
D21*
X59535000Y-96300000D03*
X58565000Y-96300000D03*
D26*
X58565000Y-98200000D03*
X59535000Y-98200000D03*
D29*
X60800000Y-96350000D03*
X60800000Y-97300000D03*
X60800000Y-98250000D03*
X63000000Y-98250000D03*
X63000000Y-97300000D03*
X63000000Y-96350000D03*
D21*
X59535000Y-97250000D03*
X58565000Y-97250000D03*
D51*
X117500000Y-106000000D03*
X115200000Y-106000000D03*
D52*
X94500000Y-82700000D03*
X96800000Y-82700000D03*
D53*
X121100000Y-103950000D03*
X121100000Y-102650000D03*
X119100000Y-103300000D03*
D54*
X125500000Y-87050000D03*
X125500000Y-88350000D03*
X127500000Y-87700000D03*
D15*
X126700000Y-99815000D03*
X126700000Y-100785000D03*
D55*
X121100000Y-105600000D03*
X121100000Y-106100000D03*
X121100000Y-106600000D03*
X121100000Y-107100000D03*
X121100000Y-107600000D03*
X125500000Y-107600000D03*
X125500000Y-107100000D03*
X125500000Y-106600000D03*
X125500000Y-106100000D03*
X125500000Y-105600000D03*
D43*
X99450000Y-109225000D03*
X99950000Y-109225000D03*
X100450000Y-109225000D03*
X100950000Y-109225000D03*
X101450000Y-109225000D03*
X101950000Y-109225000D03*
X102450000Y-109225000D03*
X102450000Y-108075000D03*
X101950000Y-108075000D03*
X101450000Y-108075000D03*
X100950000Y-108075000D03*
X100450000Y-108075000D03*
X99950000Y-108075000D03*
X99450000Y-108075000D03*
D41*
X106450000Y-81775000D03*
X105950000Y-81775000D03*
X105450000Y-81775000D03*
X104950000Y-81775000D03*
X104450000Y-81775000D03*
X103950000Y-81775000D03*
X103450000Y-81775000D03*
X103450000Y-82925000D03*
X103950000Y-82925000D03*
X104450000Y-82925000D03*
X104950000Y-82925000D03*
X105450000Y-82925000D03*
X105950000Y-82925000D03*
X106450000Y-82925000D03*
D21*
X62885000Y-110600000D03*
X61915000Y-110600000D03*
D14*
X74900000Y-91470000D03*
X74900000Y-90500000D03*
D53*
X61700000Y-116500000D03*
X61700000Y-115200000D03*
X59700000Y-115850000D03*
D14*
X62800000Y-117970000D03*
X62800000Y-117000000D03*
X62800000Y-116070000D03*
X62800000Y-115100000D03*
D15*
X106500000Y-100465000D03*
X106500000Y-101435000D03*
D14*
X118000000Y-88685000D03*
X118000000Y-87715000D03*
X87300000Y-108135000D03*
X87300000Y-107165000D03*
D56*
X59800000Y-76500000D03*
X85200000Y-76500000D03*
D57*
X59165000Y-78375000D03*
X59165000Y-74625000D03*
X60435000Y-78375000D03*
X60435000Y-74625000D03*
X61705000Y-78375000D03*
X61705000Y-74625000D03*
X62975000Y-78375000D03*
X62975000Y-74625000D03*
X64245000Y-78375000D03*
X64245000Y-74625000D03*
X65515000Y-78375000D03*
X65515000Y-74625000D03*
X66785000Y-78375000D03*
X66785000Y-74625000D03*
X68055000Y-78375000D03*
X68055000Y-74625000D03*
X69325000Y-78375000D03*
X69325000Y-74625000D03*
X70595000Y-78375000D03*
X70595000Y-74625000D03*
X71865000Y-78375000D03*
X71865000Y-74625000D03*
X73135000Y-78375000D03*
X73135000Y-74625000D03*
X74405000Y-78375000D03*
X74405000Y-74625000D03*
X75675000Y-78375000D03*
X75675000Y-74625000D03*
X76945000Y-78375000D03*
X76945000Y-74625000D03*
X78215000Y-78375000D03*
X78215000Y-74625000D03*
X79485000Y-78375000D03*
X79485000Y-74625000D03*
X80755000Y-78375000D03*
X80755000Y-74625000D03*
X82025000Y-78375000D03*
X82025000Y-74625000D03*
X83295000Y-78375000D03*
X83295000Y-74625000D03*
X84565000Y-78375000D03*
X84565000Y-74625000D03*
X85835000Y-78375000D03*
X85835000Y-74625000D03*
D21*
X59535000Y-99150000D03*
X58565000Y-99150000D03*
D12*
X64400000Y-99900000D03*
D58*
X64800000Y-104200000D03*
X70400000Y-104200000D03*
D59*
X75425000Y-113762500D03*
X76075000Y-113762500D03*
X76725000Y-113762500D03*
X77375000Y-113762500D03*
X77375000Y-108037500D03*
X76725000Y-108037500D03*
X76075000Y-108037500D03*
X75425000Y-108037500D03*
X71925000Y-113762500D03*
X72575000Y-113762500D03*
X73225000Y-113762500D03*
X73875000Y-113762500D03*
X73875000Y-108037500D03*
X73225000Y-108037500D03*
X72575000Y-108037500D03*
X71925000Y-108037500D03*
D60*
X84100000Y-108400000D03*
D61*
X81560000Y-108400000D03*
D62*
X66950000Y-115650000D03*
X66950000Y-115000000D03*
X66950000Y-114350000D03*
X64850000Y-114350000D03*
X64850000Y-115000000D03*
X64850000Y-115650000D03*
D63*
X65900000Y-115000000D03*
D62*
X66950000Y-110550000D03*
X66950000Y-109900000D03*
X66950000Y-109250000D03*
X64850000Y-109250000D03*
X64850000Y-109900000D03*
X64850000Y-110550000D03*
D63*
X65900000Y-109900000D03*
D25*
X66687500Y-111900000D03*
X65112500Y-111900000D03*
X66687500Y-117000000D03*
X65112500Y-117000000D03*
D23*
X68500000Y-111087500D03*
X68500000Y-109512500D03*
X68500000Y-116187500D03*
X68500000Y-114612500D03*
D64*
X115430000Y-113280000D03*
D38*
X115430000Y-115820000D03*
X112890000Y-113280000D03*
X112890000Y-115820000D03*
X110350000Y-113280000D03*
X110350000Y-115820000D03*
X107810000Y-113280000D03*
X107810000Y-115820000D03*
X105270000Y-113280000D03*
X105270000Y-115820000D03*
X102730000Y-113280000D03*
X102730000Y-115820000D03*
X100190000Y-113280000D03*
X100190000Y-115820000D03*
X97650000Y-113280000D03*
X97650000Y-115820000D03*
X95110000Y-113280000D03*
X95110000Y-115820000D03*
X92570000Y-113280000D03*
X92570000Y-115820000D03*
D65*
X60200000Y-112050000D03*
D66*
X60200000Y-113750000D03*
X62200000Y-113750000D03*
X62200000Y-111850000D03*
D43*
X103450000Y-109225000D03*
X103950000Y-109225000D03*
X104450000Y-109225000D03*
X104950000Y-109225000D03*
X105450000Y-109225000D03*
X105950000Y-109225000D03*
X106450000Y-109225000D03*
X106450000Y-108075000D03*
X105950000Y-108075000D03*
X105450000Y-108075000D03*
X104950000Y-108075000D03*
X104450000Y-108075000D03*
X103950000Y-108075000D03*
X103450000Y-108075000D03*
D42*
X102345000Y-86500000D03*
D43*
X102950000Y-86500000D03*
X103450000Y-86500000D03*
D42*
X104055000Y-86500000D03*
X104055000Y-85500000D03*
D43*
X103450000Y-85500000D03*
X102950000Y-85500000D03*
D42*
X102345000Y-85500000D03*
D67*
X125500000Y-85400000D03*
X125500000Y-84900000D03*
X125500000Y-84400000D03*
X125500000Y-83900000D03*
X125500000Y-83400000D03*
X121100000Y-83400000D03*
X121100000Y-83900000D03*
X121100000Y-84400000D03*
X121100000Y-84900000D03*
X121100000Y-85400000D03*
D21*
X72735000Y-115550000D03*
X71765000Y-115550000D03*
D68*
X127000000Y-105220000D03*
X127000000Y-106180000D03*
D69*
X119600000Y-85780000D03*
X119600000Y-84820000D03*
D41*
X102450000Y-81775000D03*
X101950000Y-81775000D03*
X101450000Y-81775000D03*
X100950000Y-81775000D03*
X100450000Y-81775000D03*
X99950000Y-81775000D03*
X99450000Y-81775000D03*
X99450000Y-82925000D03*
X99950000Y-82925000D03*
X100450000Y-82925000D03*
X100950000Y-82925000D03*
X101450000Y-82925000D03*
X101950000Y-82925000D03*
X102450000Y-82925000D03*
D15*
X120900000Y-93615000D03*
X120900000Y-94585000D03*
D29*
X122200000Y-92650000D03*
X122200000Y-93600000D03*
X122200000Y-94550000D03*
X124400000Y-94550000D03*
X124400000Y-93600000D03*
X124400000Y-92650000D03*
D14*
X119900000Y-91185000D03*
X119900000Y-90215000D03*
D39*
X124400000Y-98350000D03*
X124400000Y-97400000D03*
X124400000Y-96450000D03*
X122200000Y-96450000D03*
X122200000Y-97400000D03*
X122200000Y-98350000D03*
D14*
X125700000Y-97370000D03*
X125700000Y-96400000D03*
D70*
X76150000Y-117380000D03*
X73150000Y-117380000D03*
X74650000Y-119230000D03*
D26*
X117015000Y-89600000D03*
X117985000Y-89600000D03*
D71*
X91450000Y-86250000D03*
X93000000Y-86250000D03*
M02*
