G04 #@! TF.GenerationSoftware,KiCad,Pcbnew,5.0.0-rc1-44a33f2~62~ubuntu18.04.1*
G04 #@! TF.CreationDate,2018-04-18T04:45:04+00:00*
G04 #@! TF.ProjectId,glasgow,676C6173676F772E6B696361645F7063,rev?*
G04 #@! TF.SameCoordinates,Original*
G04 #@! TF.FileFunction,Paste,Bot*
G04 #@! TF.FilePolarity,Positive*
%FSLAX46Y46*%
G04 Gerber Fmt 4.6, Leading zero omitted, Abs format (unit mm)*
G04 Created by KiCad (PCBNEW 5.0.0-rc1-44a33f2~62~ubuntu18.04.1) date Wed Apr 18 04:45:04 2018*
%MOMM*%
%LPD*%
G01*
G04 APERTURE LIST*
%ADD10C,0.750000*%
%ADD11R,0.995000X1.000000*%
%ADD12R,1.000000X0.995000*%
%ADD13C,2.500000*%
G04 APERTURE END LIST*
D10*
X119750000Y-75000000D03*
X60250000Y-116000000D03*
D11*
X100137500Y-86750000D03*
X98362500Y-86750000D03*
D12*
X92250000Y-96887500D03*
X92250000Y-95112500D03*
X93250000Y-86887500D03*
X93250000Y-85112500D03*
X91250000Y-85112500D03*
X91250000Y-86887500D03*
D11*
X110612500Y-89000000D03*
X112387500Y-89000000D03*
X112387500Y-83000000D03*
X110612500Y-83000000D03*
X108887500Y-106750000D03*
X107112500Y-106750000D03*
X107112500Y-108500000D03*
X108887500Y-108500000D03*
X95612500Y-108000000D03*
X97387500Y-108000000D03*
X91637500Y-108000000D03*
X89862500Y-108000000D03*
D12*
X116000000Y-105637500D03*
X116000000Y-103862500D03*
X114000000Y-103862500D03*
X114000000Y-105637500D03*
D11*
X100137500Y-84250000D03*
X98362500Y-84250000D03*
X100137500Y-82500000D03*
X98362500Y-82500000D03*
D13*
X122500000Y-105000000D03*
X122500000Y-85000000D03*
D11*
X89612500Y-98500000D03*
X91387500Y-98500000D03*
X59787500Y-103500000D03*
X58012500Y-103500000D03*
X58012500Y-107000000D03*
X59787500Y-107000000D03*
X59787500Y-108750000D03*
X58012500Y-108750000D03*
X58012500Y-110500000D03*
X59787500Y-110500000D03*
X59787500Y-105250000D03*
X58012500Y-105250000D03*
X108887500Y-104250000D03*
X107112500Y-104250000D03*
X107112500Y-102500000D03*
X108887500Y-102500000D03*
X98362500Y-88500000D03*
X100137500Y-88500000D03*
X79362500Y-92750000D03*
X81137500Y-92750000D03*
X81137500Y-94750000D03*
X79362500Y-94750000D03*
X90637500Y-95250000D03*
X88862500Y-95250000D03*
X88862500Y-93750000D03*
X90637500Y-93750000D03*
X89612500Y-100000000D03*
X91387500Y-100000000D03*
D12*
X88000000Y-99362500D03*
X88000000Y-101137500D03*
X86500000Y-101137500D03*
X86500000Y-99362500D03*
D11*
X79887500Y-112250000D03*
X78112500Y-112250000D03*
X90637500Y-96750000D03*
X88862500Y-96750000D03*
X79887500Y-113750000D03*
X78112500Y-113750000D03*
D12*
X74750000Y-89862500D03*
X74750000Y-91637500D03*
D11*
X70387500Y-113750000D03*
X68612500Y-113750000D03*
X68612500Y-112250000D03*
X70387500Y-112250000D03*
D12*
X71750000Y-101137500D03*
X71750000Y-99362500D03*
X66250000Y-91637500D03*
X66250000Y-89862500D03*
X72250000Y-91637500D03*
X72250000Y-89862500D03*
D11*
X74637500Y-97250000D03*
X72862500Y-97250000D03*
X65137500Y-93250000D03*
X63362500Y-93250000D03*
X63362500Y-95250000D03*
X65137500Y-95250000D03*
X65137500Y-97250000D03*
X63362500Y-97250000D03*
D12*
X66750000Y-101137500D03*
X66750000Y-99362500D03*
M02*
