G04 #@! TF.GenerationSoftware,KiCad,Pcbnew,5.0.0-rc1-44a33f2~62~ubuntu18.04.1*
G04 #@! TF.CreationDate,2018-04-18T04:45:03+00:00*
G04 #@! TF.ProjectId,glasgow,676C6173676F772E6B696361645F7063,rev?*
G04 #@! TF.SameCoordinates,Original*
G04 #@! TF.FileFunction,Copper,L1,Top,Signal*
G04 #@! TF.FilePolarity,Positive*
%FSLAX46Y46*%
G04 Gerber Fmt 4.6, Leading zero omitted, Abs format (unit mm)*
G04 Created by KiCad (PCBNEW 5.0.0-rc1-44a33f2~62~ubuntu18.04.1) date Wed Apr 18 04:45:03 2018*
%MOMM*%
%LPD*%
G01*
G04 APERTURE LIST*
%ADD10C,0.750000*%
%ADD11C,1.000000*%
%ADD12R,1.000000X0.995000*%
%ADD13R,1.450000X0.450000*%
%ADD14R,0.650000X1.060000*%
%ADD15R,0.995000X1.000000*%
%ADD16R,0.400000X1.260000*%
%ADD17R,2.800000X2.540000*%
%ADD18C,0.600000*%
%ADD19C,0.558800*%
%ADD20R,6.100000X6.100000*%
%ADD21R,0.280000X0.690000*%
%ADD22R,0.690000X0.280000*%
%ADD23R,0.820000X1.000000*%
%ADD24R,1.700000X1.700000*%
%ADD25O,1.700000X1.700000*%
%ADD26R,1.060000X0.650000*%
%ADD27R,2.900000X1.000000*%
%ADD28R,0.240000X0.900000*%
%ADD29R,0.900000X0.240000*%
%ADD30R,0.700000X0.250000*%
%ADD31R,0.250000X0.700000*%
%ADD32R,5.150000X5.150000*%
%ADD33R,1.550000X0.600000*%
%ADD34R,1.380000X0.450000*%
%ADD35R,2.100000X1.475000*%
%ADD36R,1.900000X2.375000*%
%ADD37R,1.900000X1.175000*%
%ADD38C,6.400000*%
%ADD39R,1.800000X2.100000*%
%ADD40C,0.700000*%
%ADD41C,0.160000*%
%ADD42C,0.250000*%
%ADD43C,0.750000*%
%ADD44C,0.450000*%
%ADD45C,0.254000*%
G04 APERTURE END LIST*
D10*
X119750000Y-75000000D03*
D11*
X80500000Y-90750000D03*
X80500000Y-107000000D03*
X76750000Y-107000000D03*
D12*
X110500000Y-105612500D03*
X110500000Y-107387500D03*
X96750000Y-83112500D03*
X96750000Y-84887500D03*
D13*
X117200000Y-103775000D03*
X117200000Y-104425000D03*
X117200000Y-105075000D03*
X117200000Y-105725000D03*
X112800000Y-105725000D03*
X112800000Y-105075000D03*
X112800000Y-104425000D03*
X112800000Y-103775000D03*
X94450000Y-86975000D03*
X94450000Y-86325000D03*
X94450000Y-85675000D03*
X94450000Y-85025000D03*
X90050000Y-85025000D03*
X90050000Y-85675000D03*
X90050000Y-86325000D03*
X90050000Y-86975000D03*
D14*
X112450000Y-84100000D03*
X110550000Y-84100000D03*
X110550000Y-81900000D03*
X111500000Y-81900000D03*
X112450000Y-81900000D03*
X95550000Y-106900000D03*
X97450000Y-106900000D03*
X97450000Y-109100000D03*
X96500000Y-109100000D03*
X95550000Y-109100000D03*
X91700000Y-106900000D03*
X90750000Y-106900000D03*
X89800000Y-106900000D03*
X89800000Y-109100000D03*
X91700000Y-109100000D03*
X90750000Y-109100000D03*
X112450000Y-87900000D03*
X111500000Y-87900000D03*
X110550000Y-87900000D03*
X110550000Y-90100000D03*
X112450000Y-90100000D03*
X111500000Y-90100000D03*
D15*
X110637500Y-86000000D03*
X108862500Y-86000000D03*
D12*
X108500000Y-82112500D03*
X108500000Y-83887500D03*
D15*
X94887500Y-83250000D03*
X93112500Y-83250000D03*
X89612500Y-83250000D03*
X91387500Y-83250000D03*
D12*
X114500000Y-88112500D03*
X114500000Y-89887500D03*
X99500000Y-107112500D03*
X99500000Y-108887500D03*
D15*
X114137500Y-86000000D03*
X112362500Y-86000000D03*
X114137500Y-107496000D03*
X112362500Y-107496000D03*
X115862500Y-107496000D03*
X117637500Y-107496000D03*
X91637500Y-105000000D03*
X89862500Y-105000000D03*
X95637500Y-105000000D03*
X93862500Y-105000000D03*
X97362500Y-105000000D03*
X99137500Y-105000000D03*
D16*
X72441581Y-81761916D03*
D17*
X72766581Y-79656916D03*
D16*
X73741581Y-81761916D03*
X73741581Y-77551916D03*
X71791581Y-77551916D03*
X73091581Y-81761916D03*
X71791581Y-81761916D03*
X73091581Y-77551916D03*
X72441581Y-77551916D03*
D18*
X73266581Y-79156916D03*
X73266581Y-80156916D03*
X72266581Y-80156916D03*
X72266581Y-79156916D03*
D19*
X66460000Y-98040000D03*
X67730000Y-98040000D03*
X69000000Y-98040000D03*
X70270000Y-98040000D03*
X71540000Y-98040000D03*
X71540000Y-96770000D03*
X70270000Y-96770000D03*
X69000000Y-96770000D03*
X67730000Y-96770000D03*
X66460000Y-96770000D03*
X66460000Y-92960000D03*
X67730000Y-92960000D03*
X69000000Y-92960000D03*
X70270000Y-92960000D03*
X71540000Y-92960000D03*
X71540000Y-94230000D03*
X70270000Y-94230000D03*
X69000000Y-94230000D03*
X67730000Y-94230000D03*
X66460000Y-94230000D03*
X66460000Y-95500000D03*
X67730000Y-95500000D03*
X71540000Y-95500000D03*
X70270000Y-95500000D03*
X69000000Y-95500000D03*
D20*
X69000000Y-95500000D03*
D21*
X65750000Y-91665000D03*
X66250000Y-91665000D03*
X66750000Y-91665000D03*
X67250000Y-91665000D03*
X67750000Y-91665000D03*
X68250000Y-91665000D03*
X68750000Y-91665000D03*
X69250000Y-91665000D03*
X69750000Y-91665000D03*
X70250000Y-91665000D03*
X70750000Y-91665000D03*
X71250000Y-91665000D03*
X71750000Y-91665000D03*
X72250000Y-91665000D03*
D22*
X72835000Y-92250000D03*
X72835000Y-92750000D03*
X72835000Y-93250000D03*
X72835000Y-93750000D03*
X72835000Y-94250000D03*
X72835000Y-94750000D03*
X72835000Y-95250000D03*
X72835000Y-95750000D03*
X72835000Y-96250000D03*
X72835000Y-96750000D03*
X72835000Y-97250000D03*
X72835000Y-97750000D03*
X72835000Y-98250000D03*
X72835000Y-98750000D03*
D21*
X72250000Y-99335000D03*
X71750000Y-99335000D03*
X71250000Y-99335000D03*
X70750000Y-99335000D03*
X70250000Y-99335000D03*
X69750000Y-99335000D03*
X69250000Y-99335000D03*
X68750000Y-99335000D03*
X68250000Y-99335000D03*
X67750000Y-99335000D03*
X67250000Y-99335000D03*
X66750000Y-99335000D03*
X66250000Y-99335000D03*
X65750000Y-99335000D03*
D22*
X65165000Y-98750000D03*
X65165000Y-98250000D03*
X65165000Y-97750000D03*
X65165000Y-97250000D03*
X65165000Y-96750000D03*
X65165000Y-96250000D03*
X65165000Y-95750000D03*
X65165000Y-95250000D03*
X65165000Y-94750000D03*
X65165000Y-94250000D03*
X65165000Y-93750000D03*
X65165000Y-93250000D03*
X65165000Y-92750000D03*
X65165000Y-92250000D03*
D11*
X65250000Y-86750000D03*
X53500000Y-87500000D03*
X77500000Y-87750000D03*
D23*
X56350000Y-110500000D03*
X57950000Y-110500000D03*
X57950000Y-108750000D03*
X56350000Y-108750000D03*
X56350000Y-107000000D03*
X57950000Y-107000000D03*
X57950000Y-105250000D03*
X56350000Y-105250000D03*
X56350000Y-103500000D03*
X57950000Y-103500000D03*
D15*
X75112500Y-99750000D03*
X76887500Y-99750000D03*
D12*
X68500000Y-103112500D03*
X68500000Y-104887500D03*
D24*
X79750000Y-83250000D03*
D25*
X82290000Y-83250000D03*
D15*
X82137500Y-86500000D03*
X80362500Y-86500000D03*
D12*
X56250000Y-90137500D03*
X56250000Y-88362500D03*
D15*
X77112500Y-96750000D03*
X78887500Y-96750000D03*
D12*
X66750000Y-76612500D03*
X66750000Y-78387500D03*
D15*
X72275000Y-84000000D03*
X70500000Y-84000000D03*
X76000000Y-84000000D03*
X74225000Y-84000000D03*
X73608081Y-75906916D03*
X71833081Y-75906916D03*
D26*
X62400000Y-78800000D03*
X62400000Y-79750000D03*
X62400000Y-80700000D03*
X64600000Y-80700000D03*
X64600000Y-78800000D03*
X64600000Y-79750000D03*
D15*
X64612500Y-82750000D03*
X66387500Y-82750000D03*
D12*
X60232324Y-78112500D03*
X60232324Y-79887500D03*
X60232324Y-83387500D03*
X60232324Y-81612500D03*
X68750000Y-78387500D03*
X68750000Y-76612500D03*
D25*
X115430000Y-75190000D03*
X115430000Y-77730000D03*
X112890000Y-75190000D03*
X112890000Y-77730000D03*
X110350000Y-75190000D03*
X110350000Y-77730000D03*
X107810000Y-75190000D03*
X107810000Y-77730000D03*
X105270000Y-75190000D03*
X105270000Y-77730000D03*
X102730000Y-75190000D03*
X102730000Y-77730000D03*
X100190000Y-75190000D03*
X100190000Y-77730000D03*
X97650000Y-75190000D03*
X97650000Y-77730000D03*
X95110000Y-75190000D03*
X95110000Y-77730000D03*
X92570000Y-75190000D03*
D24*
X92570000Y-77730000D03*
X115430000Y-113190000D03*
D25*
X115430000Y-115730000D03*
X112890000Y-113190000D03*
X112890000Y-115730000D03*
X110350000Y-113190000D03*
X110350000Y-115730000D03*
X107810000Y-113190000D03*
X107810000Y-115730000D03*
X105270000Y-113190000D03*
X105270000Y-115730000D03*
X102730000Y-113190000D03*
X102730000Y-115730000D03*
X100190000Y-113190000D03*
X100190000Y-115730000D03*
X97650000Y-113190000D03*
X97650000Y-115730000D03*
X95110000Y-113190000D03*
X95110000Y-115730000D03*
X92570000Y-113190000D03*
X92570000Y-115730000D03*
D27*
X103500000Y-85500000D03*
D28*
X105250000Y-84200000D03*
X104750000Y-84200000D03*
X104250000Y-84200000D03*
X103750000Y-84200000D03*
X103250000Y-84200000D03*
X102750000Y-84200000D03*
X102250000Y-84200000D03*
X101750000Y-84200000D03*
X105250000Y-86800000D03*
X104750000Y-86800000D03*
X104250000Y-86800000D03*
X103750000Y-86800000D03*
X103250000Y-86800000D03*
X102750000Y-86800000D03*
X102250000Y-86800000D03*
X101750000Y-86800000D03*
D29*
X105800000Y-85250000D03*
X105800000Y-85750000D03*
X101200000Y-85250000D03*
X101200000Y-85750000D03*
X106050000Y-105250000D03*
X106050000Y-105750000D03*
X101450000Y-105250000D03*
X101450000Y-105750000D03*
D28*
X105500000Y-104200000D03*
X105000000Y-104200000D03*
X104500000Y-104200000D03*
X104000000Y-104200000D03*
X103500000Y-104200000D03*
X103000000Y-104200000D03*
X102500000Y-104200000D03*
X102000000Y-104200000D03*
X105500000Y-106800000D03*
X105000000Y-106800000D03*
X104500000Y-106800000D03*
X104000000Y-106800000D03*
X103500000Y-106800000D03*
X103000000Y-106800000D03*
X102500000Y-106800000D03*
X102000000Y-106800000D03*
D27*
X103750000Y-105500000D03*
D30*
X81600000Y-92750000D03*
X81600000Y-93250000D03*
X81600000Y-93750000D03*
X81600000Y-94250000D03*
X81600000Y-94750000D03*
X81600000Y-95250000D03*
X81600000Y-95750000D03*
X81600000Y-96250000D03*
X81600000Y-96750000D03*
X81600000Y-97250000D03*
X81600000Y-97750000D03*
X81600000Y-98250000D03*
D31*
X82250000Y-98900000D03*
X82750000Y-98900000D03*
X83250000Y-98900000D03*
X83750000Y-98900000D03*
X84250000Y-98900000D03*
X84750000Y-98900000D03*
X85250000Y-98900000D03*
X85750000Y-98900000D03*
X86250000Y-98900000D03*
X86750000Y-98900000D03*
X87250000Y-98900000D03*
X87750000Y-98900000D03*
D30*
X88400000Y-98250000D03*
X88400000Y-97750000D03*
X88400000Y-97250000D03*
X88400000Y-96750000D03*
X88400000Y-96250000D03*
X88400000Y-95750000D03*
X88400000Y-95250000D03*
X88400000Y-94750000D03*
X88400000Y-94250000D03*
X88400000Y-93750000D03*
X88400000Y-93250000D03*
X88400000Y-92750000D03*
D31*
X87750000Y-92100000D03*
X87250000Y-92100000D03*
X86750000Y-92100000D03*
X86250000Y-92100000D03*
X85750000Y-92100000D03*
X85250000Y-92100000D03*
X84750000Y-92100000D03*
X84250000Y-92100000D03*
X83750000Y-92100000D03*
X83250000Y-92100000D03*
X82750000Y-92100000D03*
X82250000Y-92100000D03*
D32*
X85000000Y-95500000D03*
D33*
X66800000Y-114905000D03*
X66800000Y-113635000D03*
X66800000Y-112365000D03*
X66800000Y-111095000D03*
X72200000Y-111095000D03*
X72200000Y-112365000D03*
X72200000Y-113635000D03*
X72200000Y-114905000D03*
D34*
X55460000Y-94200000D03*
X55460000Y-94850000D03*
X55460000Y-95500000D03*
X55460000Y-96150000D03*
X55460000Y-96800000D03*
D35*
X55100000Y-93037500D03*
X55100000Y-97962500D03*
D36*
X52800000Y-92590000D03*
X52800000Y-98410000D03*
D37*
X52800000Y-94660000D03*
X52800000Y-96340000D03*
D12*
X59750000Y-101137500D03*
X59750000Y-99362500D03*
D15*
X59612500Y-95750000D03*
X61387500Y-95750000D03*
X59612500Y-88250000D03*
X61387500Y-88250000D03*
D12*
X57750000Y-99362500D03*
X57750000Y-101137500D03*
X66500000Y-104887500D03*
X66500000Y-103112500D03*
X64250000Y-103112500D03*
X64250000Y-104887500D03*
D38*
X54000000Y-116000000D03*
X54000000Y-75000000D03*
X126000000Y-75000000D03*
X126000000Y-116000000D03*
D39*
X61650000Y-93450000D03*
X61650000Y-90550000D03*
X59350000Y-90550000D03*
X59350000Y-93450000D03*
D33*
X81700000Y-114905000D03*
X81700000Y-113635000D03*
X81700000Y-112365000D03*
X81700000Y-111095000D03*
X76300000Y-111095000D03*
X76300000Y-112365000D03*
X76300000Y-113635000D03*
X76300000Y-114905000D03*
D10*
X60250000Y-116000000D03*
D40*
X109749990Y-94000000D03*
X108750000Y-93000000D03*
X72250000Y-90639998D03*
X100250000Y-107250000D03*
X64500000Y-86750000D03*
X74250000Y-83000000D03*
X88750000Y-83250002D03*
X91750000Y-110500000D03*
X89000000Y-108000000D03*
X76000000Y-83000000D03*
X70500000Y-83000000D03*
X75500000Y-107999994D03*
X72250000Y-86500000D03*
X77500000Y-95250000D03*
X76250000Y-94750000D03*
X70530055Y-90500000D03*
X78000000Y-87250000D03*
X72250000Y-83000000D03*
X86750000Y-111750000D03*
X94750000Y-93000000D03*
X92000000Y-88750000D03*
X86500000Y-90250000D03*
X94750000Y-88750000D03*
X74250000Y-99750000D03*
X90860002Y-108000000D03*
X115000000Y-105750000D03*
X107000000Y-105000000D03*
X108500000Y-84750000D03*
X111610002Y-89000000D03*
X100250000Y-86000000D03*
X92250000Y-85000000D03*
X89750000Y-100750000D03*
X60500000Y-103500000D03*
X68500000Y-105750000D03*
X66500000Y-105750000D03*
X64250000Y-105750000D03*
X76250000Y-96750000D03*
X96610002Y-108000000D03*
X99250000Y-104250000D03*
X118500000Y-107750000D03*
X110964870Y-104535130D03*
X115000000Y-104000000D03*
X110500000Y-106610002D03*
X109000000Y-105000000D03*
X109000000Y-106000000D03*
X108750000Y-87000000D03*
X96750000Y-83889998D03*
X111389998Y-83000000D03*
X109750000Y-89000000D03*
X98250000Y-85000000D03*
X98250000Y-86000000D03*
X92250000Y-86750000D03*
X91500000Y-99250000D03*
X55650000Y-110500000D03*
X55650000Y-108750000D03*
X71796041Y-100360012D03*
X79500000Y-86500000D03*
X67500000Y-82750000D03*
X66250000Y-90639998D03*
X64139998Y-93250000D03*
X64139998Y-95250000D03*
X64139998Y-97250000D03*
X66750000Y-100360002D03*
X73860002Y-97250000D03*
X73750000Y-89750000D03*
X80139998Y-92750000D03*
X89860002Y-93750000D03*
X88000000Y-100360002D03*
X86500000Y-100360002D03*
X55650000Y-107000002D03*
X55650000Y-105250002D03*
X55650000Y-103500002D03*
X100500000Y-105249998D03*
X60250000Y-84250000D03*
X87894999Y-112895001D03*
X74834999Y-112895001D03*
X95750000Y-93750000D03*
X87250000Y-90750000D03*
X95750000Y-88750000D03*
X94500000Y-108000000D03*
X77500000Y-81750000D03*
X77500000Y-80250000D03*
X77500000Y-81000000D03*
X113500000Y-83000000D03*
X78330010Y-91490604D03*
X72610579Y-76000000D03*
X63500000Y-79750000D03*
X87050002Y-96750000D03*
X86250000Y-97550002D03*
X73750000Y-91750000D03*
X87050000Y-97550000D03*
X87060000Y-95500000D03*
X65750000Y-100500000D03*
X65750000Y-101830010D03*
X85000000Y-97560000D03*
X82940000Y-97560000D03*
X85000000Y-95500000D03*
X82940000Y-95500000D03*
X87060000Y-93440000D03*
X85000000Y-93440000D03*
X82940000Y-93440000D03*
X56750000Y-95500000D03*
X58000000Y-95500000D03*
X78110002Y-96750000D03*
X107000000Y-106000000D03*
X95750000Y-79750000D03*
X100250000Y-85000000D03*
X89860002Y-96750000D03*
X78000000Y-115000000D03*
X68500000Y-115000000D03*
X73750000Y-113750000D03*
X83250000Y-115000000D03*
X107000000Y-86000000D03*
X80000000Y-111000000D03*
X70500000Y-111000000D03*
X56500000Y-96750000D03*
X58750000Y-88250000D03*
X62250000Y-95750000D03*
X65000000Y-99500000D03*
X65000000Y-91500000D03*
X73000000Y-99500000D03*
X58750000Y-101212500D03*
X64750000Y-100500000D03*
X64750000Y-101830010D03*
X80139998Y-94750000D03*
X89860044Y-95250000D03*
X66750000Y-81000000D03*
X66750000Y-79500000D03*
X74500000Y-96000016D03*
X70000000Y-88500000D03*
X68750000Y-90500000D03*
X68750000Y-89000000D03*
X69542346Y-89467060D03*
X67750000Y-103000000D03*
X67500000Y-90750000D03*
X75500000Y-96000000D03*
X77750000Y-99750000D03*
X67750000Y-89750000D03*
X85750000Y-114000000D03*
X71250000Y-85750000D03*
X71250000Y-88500000D03*
X84178928Y-90750000D03*
X82000000Y-90750000D03*
X77000000Y-92500000D03*
X85750000Y-87750000D03*
X85749993Y-91000007D03*
X58750000Y-105250000D03*
X58750000Y-110500000D03*
X58750000Y-108750000D03*
X58750000Y-107000000D03*
X58750000Y-103500000D03*
X97999974Y-92750000D03*
X97500000Y-102750000D03*
X94000000Y-94500000D03*
X96750000Y-88749992D03*
X96750000Y-94500000D03*
X108500000Y-82889998D03*
X88500000Y-88500000D03*
X114500000Y-83000000D03*
X93500000Y-108000000D03*
D41*
X117200000Y-103775000D02*
X117200000Y-103390000D01*
X117200000Y-103390000D02*
X116310000Y-102500000D01*
X109749990Y-94494974D02*
X109749990Y-94000000D01*
X116310000Y-102500000D02*
X111250000Y-102500000D01*
X111250000Y-102500000D02*
X109749990Y-100999990D01*
X109749990Y-100999990D02*
X109749990Y-94494974D01*
X108750000Y-93000000D02*
X110550000Y-91200000D01*
X110550000Y-91200000D02*
X110550000Y-90100000D01*
X108349999Y-93349999D02*
X108400001Y-93349999D01*
X108400001Y-93349999D02*
X108750000Y-93000000D01*
X94750000Y-93000000D02*
X96750000Y-93000000D01*
X97099999Y-93349999D02*
X108400001Y-93349999D01*
X96750000Y-93000000D02*
X97099999Y-93349999D01*
X90050000Y-86975000D02*
X90050000Y-87360000D01*
X90050000Y-87360000D02*
X91440000Y-88750000D01*
X91440000Y-88750000D02*
X91505026Y-88750000D01*
X91505026Y-88750000D02*
X92000000Y-88750000D01*
X89800000Y-110040000D02*
X88090000Y-111750000D01*
X89800000Y-109100000D02*
X89800000Y-110040000D01*
X88090000Y-111750000D02*
X87250000Y-111750000D01*
X80000000Y-107500000D02*
X80500000Y-107000000D01*
D42*
X71750000Y-91665000D02*
X72250000Y-91665000D01*
X72250000Y-91665000D02*
X72250000Y-90639998D01*
X100112500Y-107112500D02*
X100250000Y-107250000D01*
X65250000Y-86750000D02*
X64500000Y-86750000D01*
X73741581Y-82741581D02*
X74000000Y-83000000D01*
X73741581Y-81761916D02*
X73741581Y-82741581D01*
X74000000Y-83000000D02*
X74250000Y-83000000D01*
X74225000Y-83750000D02*
X74250000Y-83725000D01*
X74250000Y-83725000D02*
X74250000Y-83494974D01*
X74250000Y-83494974D02*
X74250000Y-83000000D01*
X91750000Y-109400000D02*
X91750000Y-110005026D01*
X91750000Y-110005026D02*
X91750000Y-110500000D01*
X91700000Y-109350000D02*
X91750000Y-109400000D01*
X89000000Y-108000000D02*
X89494974Y-108000000D01*
X89494974Y-108000000D02*
X89500000Y-107994974D01*
X89500000Y-107994974D02*
X89500000Y-107980000D01*
X76000000Y-83750000D02*
X76000000Y-83000000D01*
X70500000Y-83750000D02*
X70500000Y-83000000D01*
D41*
X111500000Y-91250000D02*
X111500000Y-90100000D01*
X95750000Y-87750000D02*
X94975000Y-86975000D01*
X95750000Y-88750000D02*
X95750000Y-87750000D01*
X94975000Y-86975000D02*
X94450000Y-86975000D01*
X109000000Y-101000000D02*
X109000000Y-93750000D01*
X90750000Y-109100000D02*
X90750000Y-110040000D01*
X90750000Y-110040000D02*
X87894999Y-112895001D01*
X76750000Y-107000000D02*
X75750006Y-107999994D01*
X75750006Y-107999994D02*
X75500000Y-107999994D01*
X64612500Y-82750000D02*
X64612500Y-82752500D01*
X64612500Y-82752500D02*
X68360000Y-86500000D01*
X71755026Y-86500000D02*
X72250000Y-86500000D01*
X68360000Y-86500000D02*
X71755026Y-86500000D01*
X72835000Y-91665000D02*
X73599999Y-90900001D01*
X73599999Y-90900001D02*
X76905027Y-90900001D01*
X77835036Y-91490604D02*
X78330010Y-91490604D01*
X72835000Y-92250000D02*
X72835000Y-91665000D01*
X76905027Y-90900001D02*
X77495630Y-91490604D01*
X77495630Y-91490604D02*
X77835036Y-91490604D01*
X63189989Y-93628410D02*
X63811579Y-94250000D01*
X63189989Y-92678409D02*
X63189989Y-93628410D01*
X62511580Y-92000000D02*
X63189989Y-92678409D01*
X60650000Y-92000000D02*
X62511580Y-92000000D01*
X59350000Y-93450000D02*
X59350000Y-93300000D01*
X59350000Y-93300000D02*
X60650000Y-92000000D01*
X63811579Y-94250000D02*
X64660000Y-94250000D01*
X64660000Y-94250000D02*
X65165000Y-94250000D01*
X64660000Y-92250000D02*
X64419999Y-92009999D01*
X82750000Y-90641596D02*
X82750000Y-91590000D01*
X65165000Y-92250000D02*
X64660000Y-92250000D01*
X64419999Y-91080001D02*
X68060011Y-87439989D01*
X76912574Y-89750000D02*
X81858404Y-89750000D01*
X68060011Y-87439989D02*
X74602563Y-87439989D01*
X64419999Y-92009999D02*
X64419999Y-91080001D01*
X74602563Y-87439989D02*
X76912574Y-89750000D01*
X81858404Y-89750000D02*
X82750000Y-90641596D01*
X82750000Y-91590000D02*
X82750000Y-92100000D01*
X83250000Y-90703175D02*
X81986814Y-89439989D01*
X83250000Y-92100000D02*
X83250000Y-90703175D01*
X81986814Y-89439989D02*
X77040984Y-89439989D01*
X77040984Y-89439989D02*
X74730973Y-87129978D01*
X64109988Y-92199988D02*
X64660000Y-92750000D01*
X64660000Y-92750000D02*
X65165000Y-92750000D01*
X64109988Y-90890012D02*
X64109988Y-92199988D01*
X67870022Y-87129978D02*
X64109988Y-90890012D01*
X74730973Y-87129978D02*
X67870022Y-87129978D01*
X75830002Y-95330002D02*
X76561596Y-95330002D01*
X74141598Y-95250000D02*
X75750000Y-95250000D01*
X76561596Y-95330002D02*
X77221599Y-94669999D01*
X75750000Y-95250000D02*
X75830002Y-95330002D01*
X72835000Y-95750000D02*
X73641598Y-95750000D01*
X73641598Y-95750000D02*
X74141598Y-95250000D01*
X77221599Y-94669999D02*
X78278402Y-94669998D01*
X78278402Y-94669998D02*
X78938405Y-95330001D01*
X81009999Y-95330001D02*
X81090000Y-95250000D01*
X78938405Y-95330001D02*
X81009999Y-95330001D01*
X81090000Y-95250000D02*
X81600000Y-95250000D01*
X77849999Y-95599999D02*
X77500000Y-95250000D01*
X81600000Y-95750000D02*
X78000000Y-95750000D01*
X78000000Y-95750000D02*
X77849999Y-95599999D01*
X75755026Y-94750000D02*
X76250000Y-94750000D01*
X74127027Y-94750000D02*
X75755026Y-94750000D01*
X73627027Y-95250000D02*
X74127027Y-94750000D01*
X72835000Y-95250000D02*
X73627027Y-95250000D01*
X70750000Y-91214919D02*
X70750000Y-91665000D01*
X70530055Y-90500000D02*
X70530055Y-90994974D01*
X70530055Y-90994974D02*
X70750000Y-91214919D01*
X70530055Y-90469965D02*
X70530055Y-90500000D01*
X102500000Y-104200000D02*
X102500000Y-103561579D01*
X87250000Y-100468404D02*
X87250000Y-99410000D01*
X96451061Y-101689989D02*
X88471585Y-101689989D01*
X100628488Y-101690067D02*
X96451139Y-101690067D01*
X88471585Y-101689989D02*
X87250000Y-100468404D01*
X102500000Y-103561579D02*
X100628488Y-101690067D01*
X87250000Y-99410000D02*
X87250000Y-98900000D01*
X96451139Y-101690067D02*
X96451061Y-101689989D01*
X86250000Y-99750000D02*
X86250000Y-98900000D01*
X85919986Y-100080014D02*
X86250000Y-99750000D01*
X85919986Y-100638392D02*
X85919986Y-100080014D01*
X102000000Y-104200000D02*
X102000000Y-103500000D01*
X102000000Y-103500000D02*
X100500078Y-102000078D01*
X100500078Y-102000078D02*
X96322729Y-102000078D01*
X87281594Y-102000000D02*
X85919986Y-100638392D01*
X96322729Y-102000078D02*
X96322651Y-102000000D01*
X96322651Y-102000000D02*
X87281594Y-102000000D01*
X105500000Y-108000000D02*
X108500000Y-111000000D01*
X108500000Y-111000000D02*
X110860000Y-111000000D01*
X105500000Y-106800000D02*
X105500000Y-108000000D01*
X110860000Y-111000000D02*
X112820000Y-112960000D01*
X108890000Y-111500000D02*
X108000000Y-111500000D01*
X110350000Y-112960000D02*
X108890000Y-111500000D01*
X108000000Y-111500000D02*
X105000000Y-108500000D01*
X105000000Y-107410000D02*
X105000000Y-106800000D01*
X105000000Y-108500000D02*
X105000000Y-107410000D01*
X104500000Y-106800000D02*
X104500000Y-109650000D01*
X104500000Y-109650000D02*
X107810000Y-112960000D01*
X104000000Y-106800000D02*
X104000000Y-111690000D01*
X104000000Y-111690000D02*
X105270000Y-112960000D01*
X103500000Y-106800000D02*
X103500000Y-112190000D01*
X103500000Y-112190000D02*
X102730000Y-112960000D01*
X102500000Y-108750000D02*
X99370001Y-111879999D01*
X97650000Y-112960000D02*
X98730001Y-111879999D01*
X98730001Y-111879999D02*
X99370001Y-111879999D01*
X98290000Y-112960000D02*
X97580000Y-112960000D01*
X102500000Y-106800000D02*
X102500000Y-108750000D01*
X102000000Y-108250000D02*
X99250000Y-111000000D01*
X102000000Y-106800000D02*
X102000000Y-108250000D01*
X99250000Y-111000000D02*
X97000000Y-111000000D01*
X97000000Y-111000000D02*
X95040000Y-112960000D01*
D42*
X77500000Y-87750000D02*
X78000000Y-87250000D01*
X73091581Y-82658419D02*
X72750000Y-83000000D01*
X73091581Y-81761916D02*
X73091581Y-82658419D01*
X72750000Y-83000000D02*
X72250000Y-83000000D01*
X72250000Y-83494974D02*
X72250000Y-83000000D01*
X72250000Y-83725000D02*
X72250000Y-83494974D01*
X72275000Y-83750000D02*
X72250000Y-83725000D01*
D41*
X87250000Y-111750000D02*
X84250000Y-111750000D01*
X86750000Y-111750000D02*
X87250000Y-111750000D01*
X79000000Y-111750000D02*
X84250000Y-111750000D01*
X77890000Y-111750000D02*
X79000000Y-111750000D01*
X79000000Y-111750000D02*
X79000000Y-108500000D01*
X79000000Y-108500000D02*
X80000000Y-107500000D01*
X76300000Y-111095000D02*
X77235000Y-111095000D01*
X77235000Y-111095000D02*
X77890000Y-111750000D01*
X92000000Y-88750000D02*
X94750000Y-88750000D01*
X86250000Y-91590000D02*
X86330008Y-91509992D01*
X86250000Y-92100000D02*
X86250000Y-91590000D01*
X86500000Y-90744974D02*
X86500000Y-90250000D01*
X86330008Y-90914966D02*
X86500000Y-90744974D01*
X86330008Y-91509992D02*
X86330008Y-90914966D01*
X65500000Y-104250000D02*
X65500000Y-103000000D01*
D42*
X75112500Y-99750000D02*
X74250000Y-99750000D01*
X99500000Y-107112500D02*
X100112500Y-107112500D01*
X90750000Y-106900000D02*
X90750000Y-107889998D01*
X90750000Y-107889998D02*
X90860002Y-108000000D01*
X115025000Y-105725000D02*
X115000000Y-105750000D01*
X117200000Y-105725000D02*
X115025000Y-105725000D01*
X106050000Y-105250000D02*
X106750000Y-105250000D01*
X106750000Y-105250000D02*
X107000000Y-105000000D01*
X108500000Y-83887500D02*
X108500000Y-84750000D01*
X111500000Y-88889998D02*
X111610002Y-89000000D01*
X111500000Y-87900000D02*
X111500000Y-88889998D01*
X100500000Y-85750000D02*
X100250000Y-86000000D01*
X101200000Y-85750000D02*
X100500000Y-85750000D01*
X92225000Y-85025000D02*
X92250000Y-85000000D01*
X90050000Y-85025000D02*
X92225000Y-85025000D01*
X68500000Y-104887500D02*
X68500000Y-105750000D01*
X66500000Y-104887500D02*
X66500000Y-105750000D01*
X64250000Y-104887500D02*
X64250000Y-105750000D01*
X77112500Y-96750000D02*
X76250000Y-96750000D01*
X89800000Y-106900000D02*
X89800000Y-107680000D01*
X89800000Y-107680000D02*
X89500000Y-107980000D01*
X96500000Y-109100000D02*
X96500000Y-108110002D01*
X96500000Y-108110002D02*
X96610002Y-108000000D01*
X99137500Y-104362500D02*
X99250000Y-104250000D01*
X99137500Y-105250000D02*
X99137500Y-104362500D01*
X117637500Y-107496000D02*
X118500000Y-107496000D01*
X111504740Y-105075000D02*
X111314869Y-104885129D01*
X111314869Y-104885129D02*
X110964870Y-104535130D01*
X112800000Y-105075000D02*
X111504740Y-105075000D01*
X117200000Y-104425000D02*
X115425000Y-104425000D01*
X115425000Y-104425000D02*
X115000000Y-104000000D01*
X117200000Y-104425000D02*
X117200000Y-105075000D01*
X110500000Y-107387500D02*
X110500000Y-106610002D01*
X108862500Y-86887500D02*
X108750000Y-87000000D01*
X108862500Y-86000000D02*
X108862500Y-86887500D01*
X96750000Y-83112500D02*
X96750000Y-83889998D01*
X111500000Y-82889998D02*
X111389998Y-83000000D01*
X111500000Y-81900000D02*
X111500000Y-82889998D01*
X110550000Y-87900000D02*
X110550000Y-88680000D01*
X110250000Y-88980000D02*
X110250000Y-89000000D01*
X110550000Y-88680000D02*
X110250000Y-88980000D01*
X109750000Y-89000000D02*
X110250000Y-89000000D01*
X89612500Y-83250000D02*
X88750000Y-83250000D01*
X91825000Y-86325000D02*
X92250000Y-86750000D01*
X90050000Y-86325000D02*
X91825000Y-86325000D01*
X90050000Y-85675000D02*
X90050000Y-86325000D01*
X73091581Y-77551916D02*
X73091581Y-78981916D01*
X73091581Y-78981916D02*
X73266581Y-79156916D01*
D41*
X65500000Y-110730000D02*
X65865000Y-111095000D01*
X65500000Y-104250000D02*
X65500000Y-110730000D01*
X65865000Y-111095000D02*
X66800000Y-111095000D01*
X65845000Y-111095000D02*
X66800000Y-111095000D01*
X65500000Y-110750000D02*
X65845000Y-111095000D01*
D42*
X71750000Y-99335000D02*
X71750000Y-100313971D01*
X71750000Y-100313971D02*
X71796041Y-100360012D01*
X80362500Y-86500000D02*
X79500000Y-86500000D01*
X66387500Y-82750000D02*
X67500000Y-82750000D01*
X66250000Y-91665000D02*
X66250000Y-90639998D01*
X65165000Y-93250000D02*
X64139998Y-93250000D01*
X65165000Y-95250000D02*
X64139998Y-95250000D01*
X65165000Y-97250000D02*
X64139998Y-97250000D01*
X66750000Y-99335000D02*
X66750000Y-100360002D01*
X72835000Y-97250000D02*
X73860002Y-97250000D01*
X81600000Y-92750000D02*
X80139998Y-92750000D01*
X88400000Y-94250000D02*
X89061129Y-94250000D01*
X89561129Y-93750000D02*
X89860002Y-93750000D01*
X89061129Y-94250000D02*
X89561129Y-93750000D01*
X87750000Y-98900000D02*
X87750000Y-100110002D01*
X87750000Y-100110002D02*
X88000000Y-100360002D01*
X86750000Y-98900000D02*
X86750000Y-100110002D01*
X86750000Y-100110002D02*
X86500000Y-100360002D01*
X56350000Y-110500000D02*
X55650000Y-110500000D01*
X56350000Y-108750000D02*
X55650000Y-108750000D01*
X56350000Y-107000000D02*
X55650000Y-107000000D01*
X56350000Y-105250000D02*
X55650000Y-105250000D01*
X56350000Y-103500000D02*
X55650000Y-103500000D01*
X101450000Y-105250000D02*
X100500002Y-105250000D01*
X100500002Y-105250000D02*
X100500000Y-105249998D01*
X60232324Y-84232324D02*
X60250000Y-84250000D01*
X60232324Y-83387500D02*
X60232324Y-84232324D01*
D41*
X76300000Y-112365000D02*
X77235000Y-112365000D01*
X77235000Y-112365000D02*
X77765001Y-112895001D01*
X77765001Y-112895001D02*
X87894999Y-112895001D01*
X111775000Y-103775000D02*
X109000000Y-101000000D01*
X112800000Y-103775000D02*
X111775000Y-103775000D01*
X109000000Y-93750000D02*
X111500000Y-91250000D01*
X95750000Y-93750000D02*
X109000000Y-93750000D01*
X86750000Y-92100000D02*
X86750000Y-91250000D01*
X86750000Y-91250000D02*
X86900001Y-91099999D01*
X86900001Y-91099999D02*
X87250000Y-90750000D01*
X65615000Y-112365000D02*
X65189990Y-111939990D01*
X66800000Y-112365000D02*
X65615000Y-112365000D01*
X65189990Y-111939990D02*
X65189990Y-103075000D01*
X65189990Y-103075000D02*
X65152490Y-103037500D01*
D43*
X94850000Y-109100000D02*
X94500000Y-108750000D01*
X95550000Y-109100000D02*
X94850000Y-109100000D01*
X94500000Y-108750000D02*
X94500000Y-108000000D01*
X113150000Y-81900000D02*
X113500000Y-82250000D01*
X113500000Y-82250000D02*
X113500000Y-83000000D01*
X112450000Y-81900000D02*
X113150000Y-81900000D01*
D41*
X55602500Y-99362500D02*
X57750000Y-99362500D01*
X55602500Y-99362500D02*
X55100000Y-98860000D01*
X55100000Y-98860000D02*
X55100000Y-97962500D01*
X73391550Y-94750000D02*
X74081539Y-94060011D01*
X72835000Y-94750000D02*
X73391550Y-94750000D01*
X74081539Y-94060011D02*
X80900011Y-94060011D01*
X81090000Y-94250000D02*
X81600000Y-94250000D01*
X80900011Y-94060011D02*
X81090000Y-94250000D01*
X81600000Y-93750000D02*
X73840000Y-93750000D01*
X73840000Y-93750000D02*
X73340000Y-94250000D01*
X73340000Y-94250000D02*
X72835000Y-94250000D01*
X72835000Y-93750000D02*
X73340000Y-93750000D01*
X73340000Y-93750000D02*
X73710022Y-93379978D01*
X81090000Y-93250000D02*
X81600000Y-93250000D01*
X80960022Y-93379978D02*
X81090000Y-93250000D01*
X73710022Y-93379978D02*
X80960022Y-93379978D01*
D42*
X72517495Y-75906916D02*
X72610579Y-76000000D01*
X71833081Y-75906916D02*
X72517495Y-75906916D01*
X62400000Y-79750000D02*
X63500000Y-79750000D01*
D41*
X65500000Y-102250000D02*
X65500000Y-103000000D01*
X66500000Y-103037500D02*
X65537500Y-103037500D01*
X65537500Y-103037500D02*
X65500000Y-103000000D01*
X65750000Y-101830010D02*
X65750000Y-102000000D01*
X65750000Y-102000000D02*
X65500000Y-102250000D01*
X66250000Y-99891598D02*
X65750000Y-100391598D01*
X65750000Y-100391598D02*
X65750000Y-100500000D01*
X66250000Y-99335000D02*
X66250000Y-99891598D01*
X66800000Y-111095000D02*
X67735000Y-111095000D01*
X67735000Y-111095000D02*
X68265001Y-111625001D01*
X68265001Y-111625001D02*
X74834999Y-111625001D01*
X75365000Y-111095000D02*
X76300000Y-111095000D01*
X74834999Y-111625001D02*
X75365000Y-111095000D01*
X64612500Y-82750000D02*
X64612500Y-80712500D01*
X64612500Y-80712500D02*
X64600000Y-80700000D01*
X64660000Y-95750000D02*
X65165000Y-95750000D01*
X58000000Y-96000000D02*
X58480001Y-96480001D01*
X64499991Y-95910009D02*
X64660000Y-95750000D01*
X58000000Y-95500000D02*
X58000000Y-96000000D01*
X62789181Y-96480001D02*
X63359172Y-95910009D01*
X58480001Y-96480001D02*
X62789181Y-96480001D01*
X63359172Y-95910009D02*
X64499991Y-95910009D01*
X55460000Y-95500000D02*
X56750000Y-95500000D01*
X63500000Y-93500000D02*
X63830001Y-93830001D01*
X61650000Y-90550000D02*
X61650000Y-90700000D01*
X61650000Y-90700000D02*
X63500000Y-92550000D01*
X63830001Y-93830001D02*
X64418399Y-93830001D01*
X63500000Y-92550000D02*
X63500000Y-93500000D01*
X64418399Y-93830001D02*
X64498400Y-93750000D01*
X64498400Y-93750000D02*
X65165000Y-93750000D01*
X64660000Y-96250000D02*
X65165000Y-96250000D01*
X62930009Y-96819992D02*
X63500001Y-96250000D01*
X58339173Y-96819992D02*
X62930009Y-96819992D01*
X57419999Y-95311595D02*
X57419999Y-95900818D01*
X55460000Y-94850000D02*
X56958404Y-94850000D01*
X56958404Y-94850000D02*
X57419999Y-95311595D01*
X57419999Y-95900818D02*
X58339173Y-96819992D01*
X63500001Y-96250000D02*
X64660000Y-96250000D01*
X85250000Y-99410000D02*
X85250000Y-98900000D01*
X67250000Y-99741329D02*
X70618752Y-103110081D01*
X85250000Y-99630526D02*
X85250000Y-99410000D01*
X67250000Y-99335000D02*
X67250000Y-99741329D01*
X70618752Y-103110081D02*
X81770445Y-103110081D01*
X81770445Y-103110081D02*
X85250000Y-99630526D01*
X67750000Y-99335000D02*
X67750000Y-99802920D01*
X70747150Y-102800070D02*
X81642035Y-102800070D01*
X84750000Y-99692105D02*
X84750000Y-99410000D01*
X81642035Y-102800070D02*
X84750000Y-99692105D01*
X67750000Y-99802920D02*
X70747150Y-102800070D01*
X84750000Y-99410000D02*
X84750000Y-98900000D01*
X81513625Y-102490059D02*
X84250000Y-99753684D01*
X70875560Y-102490059D02*
X81513625Y-102490059D01*
X68250000Y-99335000D02*
X68250000Y-99864499D01*
X84250000Y-99410000D02*
X84250000Y-98900000D01*
X68250000Y-99864499D02*
X70875560Y-102490059D01*
X84250000Y-99753684D02*
X84250000Y-99410000D01*
X83750000Y-99815263D02*
X83750000Y-99410000D01*
X71003970Y-102180048D02*
X81385215Y-102180048D01*
X83750000Y-99410000D02*
X83750000Y-98900000D01*
X68750000Y-99926078D02*
X71003970Y-102180048D01*
X81385215Y-102180048D02*
X83750000Y-99815263D01*
X68750000Y-99335000D02*
X68750000Y-99926078D01*
X83250000Y-99876842D02*
X83250000Y-99410000D01*
X81256805Y-101870037D02*
X83250000Y-99876842D01*
X71132392Y-101870037D02*
X81256805Y-101870037D01*
X69250000Y-99987645D02*
X71132392Y-101870037D01*
X69250000Y-99335000D02*
X69250000Y-99987645D01*
X83250000Y-99410000D02*
X83250000Y-98900000D01*
X69750000Y-99335000D02*
X69750000Y-100049217D01*
X82750000Y-99410000D02*
X82750000Y-98900000D01*
X71260809Y-101560026D02*
X81128395Y-101560026D01*
X69750000Y-100049217D02*
X71260809Y-101560026D01*
X82750000Y-99938421D02*
X82750000Y-99410000D01*
X81128395Y-101560026D02*
X82750000Y-99938421D01*
X70250000Y-99335000D02*
X70250000Y-100110796D01*
X82250000Y-99410000D02*
X82250000Y-98900000D01*
X82250000Y-100000000D02*
X82250000Y-99410000D01*
X70250000Y-100110796D02*
X71389219Y-101250015D01*
X80999985Y-101250015D02*
X82250000Y-100000000D01*
X71389219Y-101250015D02*
X80999985Y-101250015D01*
X80809996Y-100940004D02*
X81600000Y-100150000D01*
X72074453Y-100940004D02*
X80809996Y-100940004D01*
X81600000Y-100150000D02*
X81600000Y-98250000D01*
X72074443Y-100940014D02*
X72074453Y-100940004D01*
X70750000Y-99335000D02*
X70750000Y-100172375D01*
X71517639Y-100940014D02*
X72074443Y-100940014D01*
X70750000Y-100172375D02*
X71517639Y-100940014D01*
X78887500Y-96750000D02*
X78110002Y-96750000D01*
X80250000Y-96250000D02*
X79750000Y-96750000D01*
X79750000Y-96750000D02*
X78637500Y-96750000D01*
X81600000Y-96250000D02*
X80250000Y-96250000D01*
X95876746Y-99829923D02*
X90406811Y-94359988D01*
X97221599Y-99830001D02*
X97221521Y-99829923D01*
X89453201Y-94359988D02*
X89063189Y-94750000D01*
X90406811Y-94359988D02*
X89453201Y-94359988D01*
X101740001Y-99830001D02*
X97221599Y-99830001D01*
X105500000Y-103590000D02*
X101740001Y-99830001D01*
X105500000Y-104200000D02*
X105500000Y-103590000D01*
X89063189Y-94750000D02*
X88910000Y-94750000D01*
X88910000Y-94750000D02*
X88400000Y-94750000D01*
X97221521Y-99829923D02*
X95876746Y-99829923D01*
X105000000Y-103590000D02*
X105000000Y-104200000D01*
X95748336Y-100139934D02*
X97093111Y-100139934D01*
X90278401Y-94669999D02*
X95748336Y-100139934D01*
X101550012Y-100140012D02*
X105000000Y-103590000D01*
X97093111Y-100139934D02*
X97093189Y-100140012D01*
X97093189Y-100140012D02*
X101550012Y-100140012D01*
X89581611Y-94669999D02*
X90278401Y-94669999D01*
X88400000Y-95250000D02*
X89001610Y-95250000D01*
X89001610Y-95250000D02*
X89581611Y-94669999D01*
X104500000Y-104200000D02*
X104500000Y-103590000D01*
X101360023Y-100450023D02*
X96964779Y-100450023D01*
X92669981Y-97500000D02*
X89660000Y-97500000D01*
X89660000Y-97500000D02*
X88910000Y-96750000D01*
X96964779Y-100450023D02*
X96964701Y-100449945D01*
X96964701Y-100449945D02*
X95619926Y-100449945D01*
X95619926Y-100449945D02*
X92669981Y-97500000D01*
X104500000Y-103590000D02*
X101360023Y-100450023D01*
X88910000Y-96750000D02*
X88400000Y-96750000D01*
X96836369Y-100760034D02*
X96836291Y-100759956D01*
X101170034Y-100760034D02*
X96836369Y-100760034D01*
X89470011Y-97810011D02*
X88910000Y-97250000D01*
X104000000Y-103590000D02*
X101170034Y-100760034D01*
X96836291Y-100759956D02*
X95491516Y-100759956D01*
X95491516Y-100759956D02*
X92541571Y-97810011D01*
X104000000Y-104200000D02*
X104000000Y-103590000D01*
X92541571Y-97810011D02*
X89470011Y-97810011D01*
X88910000Y-97250000D02*
X88400000Y-97250000D01*
X103500000Y-103590000D02*
X100980045Y-101070045D01*
X100980045Y-101070045D02*
X96707959Y-101070045D01*
X88938421Y-97750000D02*
X88910000Y-97750000D01*
X89308443Y-98120022D02*
X88938421Y-97750000D01*
X96707881Y-101069967D02*
X95363106Y-101069967D01*
X96707959Y-101070045D02*
X96707881Y-101069967D01*
X92413161Y-98120022D02*
X89308443Y-98120022D01*
X103500000Y-104200000D02*
X103500000Y-103590000D01*
X88910000Y-97750000D02*
X88400000Y-97750000D01*
X95363106Y-101069967D02*
X92413161Y-98120022D01*
X95234696Y-101379978D02*
X92354718Y-98500000D01*
X96579549Y-101380056D02*
X96579471Y-101379978D01*
X96579471Y-101379978D02*
X95234696Y-101379978D01*
X103000000Y-103590000D02*
X100790056Y-101380056D01*
X100790056Y-101380056D02*
X96579549Y-101380056D01*
X103000000Y-104200000D02*
X103000000Y-103590000D01*
X92354718Y-98500000D02*
X89250000Y-98500000D01*
X89250000Y-98500000D02*
X89000000Y-98250000D01*
X89000000Y-98250000D02*
X88400000Y-98250000D01*
X100660000Y-92000000D02*
X105250000Y-87410000D01*
X105250000Y-87410000D02*
X105250000Y-86800000D01*
X88400000Y-93750000D02*
X89001598Y-93750000D01*
X89001598Y-93750000D02*
X90751598Y-92000000D01*
X90751598Y-92000000D02*
X100660000Y-92000000D01*
X90470011Y-91689989D02*
X88910000Y-93250000D01*
X88910000Y-93250000D02*
X88400000Y-93250000D01*
X100470011Y-91689989D02*
X90470011Y-91689989D01*
X104750000Y-87410000D02*
X100470011Y-91689989D01*
X104750000Y-86800000D02*
X104750000Y-87410000D01*
X104250000Y-86800000D02*
X104250000Y-87410000D01*
X104250000Y-87410000D02*
X100280022Y-91379978D01*
X88910000Y-92750000D02*
X88400000Y-92750000D01*
X100280022Y-91379978D02*
X90280022Y-91379978D01*
X90280022Y-91379978D02*
X88910000Y-92750000D01*
X100160000Y-91000000D02*
X103750000Y-87410000D01*
X88340000Y-91000000D02*
X100160000Y-91000000D01*
X87750000Y-92100000D02*
X87750000Y-91590000D01*
X87750000Y-91590000D02*
X88340000Y-91000000D01*
X103750000Y-87410000D02*
X103750000Y-86800000D01*
X103250000Y-87410000D02*
X103250000Y-86800000D01*
X103250000Y-87465263D02*
X103250000Y-87410000D01*
X88240000Y-90600000D02*
X100115263Y-90600000D01*
X87250000Y-92100000D02*
X87250000Y-91590000D01*
X100115263Y-90600000D02*
X103250000Y-87465263D01*
X87250000Y-91590000D02*
X88240000Y-90600000D01*
X102750000Y-87410000D02*
X102750000Y-86800000D01*
X86221598Y-89669998D02*
X87278402Y-89669998D01*
X85250000Y-92100000D02*
X85250000Y-91560502D01*
X85068949Y-91379451D02*
X85068949Y-90822647D01*
X100076841Y-90200000D02*
X102750000Y-87526841D01*
X87808404Y-90200000D02*
X100076841Y-90200000D01*
X85250000Y-91560502D02*
X85068949Y-91379451D01*
X85068949Y-90822647D02*
X86221598Y-89669998D01*
X87278402Y-89669998D02*
X87808404Y-90200000D01*
X102750000Y-87526841D02*
X102750000Y-87410000D01*
X87846824Y-89800000D02*
X100038420Y-89800000D01*
X100038420Y-89800000D02*
X102250000Y-87588420D01*
X84758938Y-90444237D02*
X85843188Y-89359987D01*
X84750000Y-91590000D02*
X84758938Y-91581062D01*
X84758938Y-91581062D02*
X84758938Y-90444237D01*
X87406811Y-89359987D02*
X87846824Y-89800000D01*
X85843188Y-89359987D02*
X87406811Y-89359987D01*
X102250000Y-87588420D02*
X102250000Y-87410000D01*
X84750000Y-92100000D02*
X84750000Y-91590000D01*
X102250000Y-87410000D02*
X102250000Y-86800000D01*
X83598927Y-91028401D02*
X83598927Y-90471599D01*
X83598927Y-90471599D02*
X85020550Y-89049976D01*
X83750000Y-92100000D02*
X83750000Y-91179474D01*
X83750000Y-91179474D02*
X83598927Y-91028401D01*
X85020550Y-89049976D02*
X87535222Y-89049976D01*
X87535222Y-89049976D02*
X87885246Y-89400000D01*
X87885246Y-89400000D02*
X99300000Y-89400000D01*
X105250000Y-82750000D02*
X108000000Y-80000000D01*
X105250000Y-84200000D02*
X105250000Y-82750000D01*
X108000000Y-80000000D02*
X110500000Y-80000000D01*
X110500000Y-80000000D02*
X112460000Y-78040000D01*
X112460000Y-78040000D02*
X112570000Y-78040000D01*
X104750000Y-82311579D02*
X107561579Y-79500000D01*
X104750000Y-84200000D02*
X104750000Y-82311579D01*
X107561579Y-79500000D02*
X108570000Y-79500000D01*
X108570000Y-79500000D02*
X110030000Y-78040000D01*
X104250000Y-81250000D02*
X107460000Y-78040000D01*
X104250000Y-84200000D02*
X104250000Y-81250000D01*
X107460000Y-78040000D02*
X107490000Y-78040000D01*
X103750000Y-79250000D02*
X104950000Y-78050000D01*
X103750000Y-84200000D02*
X103750000Y-79250000D01*
X104950000Y-78050000D02*
X104950000Y-78040000D01*
X103250000Y-79750000D02*
X102500000Y-79000000D01*
X103250000Y-84200000D02*
X103250000Y-79750000D01*
X102500000Y-79000000D02*
X102500000Y-78130000D01*
X102500000Y-78130000D02*
X102410000Y-78040000D01*
X102750000Y-80250000D02*
X100540000Y-78040000D01*
X102750000Y-84200000D02*
X102750000Y-80250000D01*
X100540000Y-78040000D02*
X99870000Y-78040000D01*
X102250000Y-82250000D02*
X98040000Y-78040000D01*
X102250000Y-84200000D02*
X102250000Y-82250000D01*
X98040000Y-78040000D02*
X97330000Y-78040000D01*
X101750000Y-82750000D02*
X99000000Y-80000000D01*
X101750000Y-84200000D02*
X101750000Y-82750000D01*
X99000000Y-80000000D02*
X97500000Y-80000000D01*
X97500000Y-80000000D02*
X95540000Y-78040000D01*
X95540000Y-78040000D02*
X94790000Y-78040000D01*
D42*
X115430000Y-113190000D02*
X115430000Y-111680000D01*
X115430000Y-111680000D02*
X112362500Y-108612500D01*
X112362500Y-107496000D02*
X112362500Y-108612500D01*
X106050000Y-105750000D02*
X106750000Y-105750000D01*
X106750000Y-105750000D02*
X107000000Y-106000000D01*
X94887500Y-82500000D02*
X94887500Y-83250000D01*
X92500000Y-79000000D02*
X92500000Y-78290000D01*
X94000000Y-80500000D02*
X92500000Y-79000000D01*
X92500000Y-78290000D02*
X92250000Y-78040000D01*
X100250000Y-85000000D02*
X100250000Y-84250000D01*
X100250000Y-84250000D02*
X95750000Y-79750000D01*
X100500000Y-85250000D02*
X100250000Y-85000000D01*
X101200000Y-85250000D02*
X100500000Y-85250000D01*
X94887500Y-81387500D02*
X94000000Y-80500000D01*
X94887500Y-82500000D02*
X94887500Y-81387500D01*
X88400000Y-96250000D02*
X89360002Y-96250000D01*
X89360002Y-96250000D02*
X89860002Y-96750000D01*
X77405000Y-114905000D02*
X77500000Y-115000000D01*
X77500000Y-115000000D02*
X78000000Y-115000000D01*
X76300000Y-114905000D02*
X77405000Y-114905000D01*
X67905000Y-114905000D02*
X68000000Y-115000000D01*
X68000000Y-115000000D02*
X68500000Y-115000000D01*
X66800000Y-114905000D02*
X67905000Y-114905000D01*
X73635000Y-113635000D02*
X73750000Y-113750000D01*
X72200000Y-113635000D02*
X73635000Y-113635000D01*
X83155000Y-114905000D02*
X83250000Y-115000000D01*
X81700000Y-114905000D02*
X83155000Y-114905000D01*
X105800000Y-85750000D02*
X107000000Y-85750000D01*
X71000000Y-98490000D02*
X71000000Y-95500000D01*
X71250000Y-99335000D02*
X71250000Y-98740000D01*
X71250000Y-98740000D02*
X71000000Y-98490000D01*
X80595000Y-111095000D02*
X80500000Y-111000000D01*
X80500000Y-111000000D02*
X80000000Y-111000000D01*
X81700000Y-111095000D02*
X80595000Y-111095000D01*
X71095000Y-111095000D02*
X71000000Y-111000000D01*
X71000000Y-111000000D02*
X70500000Y-111000000D01*
X72200000Y-111095000D02*
X71095000Y-111095000D01*
X56450000Y-96800000D02*
X56500000Y-96750000D01*
X55460000Y-96800000D02*
X56450000Y-96800000D01*
X59537500Y-88250000D02*
X58750000Y-88250000D01*
X61462500Y-95750000D02*
X62250000Y-95750000D01*
X61462500Y-95750000D02*
X61462500Y-93637500D01*
X61462500Y-93637500D02*
X61650000Y-93450000D01*
X59537500Y-88250000D02*
X59537500Y-90362500D01*
X59537500Y-90362500D02*
X59350000Y-90550000D01*
X65165000Y-99335000D02*
X65000000Y-99500000D01*
X65165000Y-98750000D02*
X65165000Y-99335000D01*
X65165000Y-91665000D02*
X65000000Y-91500000D01*
X65750000Y-91665000D02*
X65165000Y-91665000D01*
X72835000Y-99335000D02*
X73000000Y-99500000D01*
X72250000Y-99335000D02*
X72835000Y-99335000D01*
X72835000Y-92750000D02*
X72240000Y-92750000D01*
X72240000Y-92750000D02*
X71740000Y-93250000D01*
X71740000Y-93250000D02*
X71000000Y-93250000D01*
X67250000Y-91665000D02*
X67250000Y-93000000D01*
X65165000Y-97750000D02*
X67000000Y-97750000D01*
X65165000Y-96750000D02*
X65760000Y-96750000D01*
X65760000Y-96750000D02*
X67000000Y-96750000D01*
X65165000Y-94750000D02*
X67000000Y-94750000D01*
X57750000Y-101212500D02*
X58750000Y-101212500D01*
X58750000Y-101212500D02*
X59750000Y-101212500D01*
D41*
X65189990Y-103000000D02*
X65189990Y-102270000D01*
X65152490Y-103037500D02*
X65189990Y-103000000D01*
X64250000Y-103037500D02*
X65152490Y-103037500D01*
X65189990Y-102270000D02*
X64750000Y-101830010D01*
X64858402Y-100500000D02*
X64750000Y-100500000D01*
X65750000Y-99335000D02*
X65750000Y-99608402D01*
X65750000Y-99608402D02*
X64858402Y-100500000D01*
X66800000Y-112365000D02*
X67735000Y-112365000D01*
X67735000Y-112365000D02*
X68265001Y-112895001D01*
X68265001Y-112895001D02*
X74834999Y-112895001D01*
X74834999Y-112895001D02*
X75365000Y-112365000D01*
X75365000Y-112365000D02*
X76300000Y-112365000D01*
X55100000Y-97962500D02*
X53247500Y-97962500D01*
X53247500Y-97962500D02*
X52800000Y-98410000D01*
X55100000Y-93037500D02*
X53247500Y-93037500D01*
X53247500Y-93037500D02*
X52800000Y-92590000D01*
X52800000Y-94660000D02*
X52800000Y-92590000D01*
X52800000Y-96340000D02*
X52800000Y-94660000D01*
X52800000Y-98410000D02*
X52800000Y-96340000D01*
X52750000Y-98460000D02*
X52800000Y-98410000D01*
X59750000Y-99287500D02*
X57750000Y-99287500D01*
X61462500Y-88250000D02*
X61462500Y-90362500D01*
X61462500Y-90362500D02*
X61650000Y-90550000D01*
X59537500Y-95750000D02*
X59537500Y-93637500D01*
X59537500Y-93637500D02*
X59350000Y-93450000D01*
X72835000Y-98750000D02*
X80210998Y-98750000D01*
X80210998Y-98750000D02*
X81210998Y-97750000D01*
X81210998Y-97750000D02*
X81600000Y-97750000D01*
X72835000Y-98250000D02*
X80210998Y-98250000D01*
X80210998Y-98250000D02*
X81210998Y-97250000D01*
X81210998Y-97250000D02*
X81600000Y-97250000D01*
X72835000Y-97750000D02*
X73391598Y-97750000D01*
X73391598Y-97750000D02*
X73471599Y-97830001D01*
X80009999Y-97830001D02*
X81090000Y-96750000D01*
X81090000Y-96750000D02*
X81600000Y-96750000D01*
X73471599Y-97830001D02*
X80009999Y-97830001D01*
X99300000Y-89400000D02*
X99400000Y-89400000D01*
X101750000Y-87650000D02*
X100000000Y-89400000D01*
X100000000Y-89400000D02*
X99300000Y-89400000D01*
X101750000Y-86800000D02*
X101750000Y-87650000D01*
X102660000Y-112590000D02*
X102660000Y-112960000D01*
X103000000Y-109750000D02*
X100120000Y-112630000D01*
X103000000Y-106800000D02*
X103000000Y-109750000D01*
X100120000Y-112630000D02*
X100120000Y-112960000D01*
D42*
X81600000Y-94750000D02*
X80139998Y-94750000D01*
X89510045Y-95599999D02*
X89860044Y-95250000D01*
X89360044Y-95750000D02*
X89510045Y-95599999D01*
X88400000Y-95750000D02*
X89360044Y-95750000D01*
D41*
X69919999Y-80080001D02*
X70750000Y-79250000D01*
X70750000Y-79250000D02*
X70750000Y-78000000D01*
X68750000Y-80080001D02*
X69919999Y-80080001D01*
X70750000Y-78000000D02*
X71198084Y-77551916D01*
X71198084Y-77551916D02*
X71791581Y-77551916D01*
X66471599Y-80080001D02*
X68750000Y-80080001D01*
X68750000Y-78637500D02*
X68750000Y-80080001D01*
X64600000Y-78800000D02*
X65191598Y-78800000D01*
X65191598Y-78800000D02*
X66471599Y-80080001D01*
X66750000Y-80390013D02*
X69890013Y-80390013D01*
X66343188Y-80390013D02*
X66750000Y-80390013D01*
X66750000Y-81000000D02*
X66750000Y-80390013D01*
X71261916Y-81761916D02*
X71421581Y-81761916D01*
X64600000Y-79750000D02*
X65703175Y-79750000D01*
X71421581Y-81761916D02*
X71791581Y-81761916D01*
X69890013Y-80390013D02*
X71261916Y-81761916D01*
X65703175Y-79750000D02*
X66343188Y-80390013D01*
X66750000Y-78637500D02*
X66750000Y-79500000D01*
X62400000Y-80700000D02*
X60259660Y-80700000D01*
X60259660Y-80700000D02*
X60232324Y-80672664D01*
X60232324Y-80877664D02*
X60232324Y-81740164D01*
X60232324Y-80672664D02*
X60232324Y-80877664D01*
X60232324Y-80015164D02*
X60232324Y-80672664D01*
X64641596Y-101250000D02*
X64169998Y-100778402D01*
X85750000Y-98900000D02*
X85750000Y-99750000D01*
X68320257Y-101250000D02*
X64641596Y-101250000D01*
X70490349Y-103420092D02*
X68320257Y-101250000D01*
X64169998Y-100778402D02*
X64169998Y-98740002D01*
X64660000Y-98250000D02*
X65165000Y-98250000D01*
X82079908Y-103420092D02*
X70490349Y-103420092D01*
X85750000Y-99750000D02*
X82079908Y-103420092D01*
X64169998Y-98740002D02*
X64660000Y-98250000D01*
X73755042Y-96250000D02*
X72835000Y-96250000D01*
X74500000Y-96000016D02*
X74005026Y-96000016D01*
X74005026Y-96000016D02*
X73755042Y-96250000D01*
D44*
X56600000Y-94200000D02*
X57000000Y-93800000D01*
X55460000Y-94200000D02*
X56600000Y-94200000D01*
X57000000Y-93800000D02*
X57000000Y-92000000D01*
X57000000Y-92000000D02*
X56250000Y-91250000D01*
X56250000Y-91250000D02*
X56250000Y-90137500D01*
D41*
X82290000Y-83250000D02*
X82290000Y-86347500D01*
X82290000Y-86347500D02*
X82137500Y-86500000D01*
X70349999Y-89564803D02*
X69950029Y-89964773D01*
X69950029Y-89964773D02*
X69950023Y-90049831D01*
X69950023Y-90049831D02*
X69950023Y-90860023D01*
X69950023Y-90860023D02*
X70250000Y-91160000D01*
X70250000Y-91160000D02*
X70250000Y-91665000D01*
X70349999Y-88849999D02*
X70349999Y-89564803D01*
X70000000Y-88500000D02*
X70349999Y-88849999D01*
X68750000Y-91000000D02*
X68750000Y-91665000D01*
X68750000Y-90500000D02*
X68750000Y-91000000D01*
X69250000Y-91160000D02*
X69250000Y-91665000D01*
X69330001Y-91079999D02*
X69250000Y-91160000D01*
X68750000Y-89641598D02*
X69330001Y-90221599D01*
X68750000Y-89000000D02*
X68750000Y-89641598D01*
X69330001Y-90221599D02*
X69330001Y-91079999D01*
X69750000Y-91160000D02*
X69750000Y-91665000D01*
X69640012Y-91050012D02*
X69750000Y-91160000D01*
X69640012Y-90059700D02*
X69640012Y-91050012D01*
X69542346Y-89962034D02*
X69640012Y-90059700D01*
X69542346Y-89467060D02*
X69542346Y-89962034D01*
X107108402Y-85250000D02*
X107580001Y-85721599D01*
X107580001Y-86414965D02*
X101244966Y-92750000D01*
X105800000Y-85250000D02*
X107108402Y-85250000D01*
X101244966Y-92750000D02*
X101000000Y-92750000D01*
X107580001Y-85721599D02*
X107580001Y-86414965D01*
X99919999Y-105528399D02*
X99919999Y-104061597D01*
X100840000Y-106030000D02*
X100421600Y-106030000D01*
X98891598Y-103750000D02*
X97500000Y-103750000D01*
X100421600Y-106030000D02*
X99919999Y-105528399D01*
X101450000Y-105750000D02*
X101120000Y-105750000D01*
X99919999Y-104061597D02*
X99528401Y-103669999D01*
X101120000Y-105750000D02*
X100840000Y-106030000D01*
X99528401Y-103669999D02*
X98971599Y-103669999D01*
X98971599Y-103669999D02*
X98891598Y-103750000D01*
X68500000Y-103112500D02*
X67840000Y-103112500D01*
X67840000Y-103112500D02*
X67750000Y-103022500D01*
X67750000Y-103022500D02*
X67750000Y-103000000D01*
X67750000Y-91000000D02*
X67500000Y-90750000D01*
X67750000Y-91665000D02*
X67750000Y-91000000D01*
X73501600Y-96750000D02*
X73581601Y-96669999D01*
X74830001Y-96669999D02*
X75500000Y-96000000D01*
X72835000Y-96750000D02*
X73501600Y-96750000D01*
X73581601Y-96669999D02*
X74830001Y-96669999D01*
X94450000Y-86325000D02*
X95335000Y-86325000D01*
X95335000Y-86325000D02*
X96750000Y-87740000D01*
X96750000Y-87740000D02*
X96750000Y-88255018D01*
X96750000Y-88255018D02*
X96750000Y-88749992D01*
X108250000Y-96000000D02*
X106750000Y-94500000D01*
X108250000Y-101000000D02*
X108250000Y-96000000D01*
X106750000Y-94500000D02*
X96750000Y-94500000D01*
X77750000Y-99750000D02*
X76887500Y-99750000D01*
X91700000Y-106200000D02*
X91500000Y-106000000D01*
X91500000Y-106000000D02*
X90860000Y-106000000D01*
X91700000Y-106900000D02*
X91700000Y-106200000D01*
X89862500Y-105002500D02*
X89862500Y-105000000D01*
X90860000Y-106000000D02*
X89862500Y-105002500D01*
X97450000Y-110040000D02*
X97450000Y-109790000D01*
X68099999Y-90099999D02*
X67750000Y-89750000D01*
X68250000Y-91665000D02*
X68250000Y-91160000D01*
X68250000Y-91160000D02*
X68099999Y-91009999D01*
X68099999Y-91009999D02*
X68099999Y-90099999D01*
X89250000Y-114000000D02*
X85750000Y-114000000D01*
X92750000Y-110500000D02*
X89250000Y-114000000D01*
X96990000Y-110500000D02*
X92750000Y-110500000D01*
X97450000Y-109100000D02*
X97450000Y-109790000D01*
X97450000Y-110040000D02*
X96990000Y-110500000D01*
X77891598Y-85750000D02*
X71744974Y-85750000D01*
X71744974Y-85750000D02*
X71250000Y-85750000D01*
X80641598Y-88500000D02*
X77891598Y-85750000D01*
X88500000Y-88500000D02*
X80641598Y-88500000D01*
X71250000Y-91665000D02*
X71250000Y-88500000D01*
X112800000Y-105725000D02*
X112800000Y-106158500D01*
X112800000Y-106158500D02*
X113477500Y-106836000D01*
X113477500Y-106836000D02*
X113480000Y-106836000D01*
X113480000Y-106836000D02*
X114137500Y-107493500D01*
X114137500Y-107493500D02*
X114137500Y-107496000D01*
X92295000Y-105000000D02*
X93025001Y-104269999D01*
X93025001Y-104269999D02*
X94909999Y-104269999D01*
X94909999Y-104269999D02*
X95637500Y-104997500D01*
X95637500Y-104997500D02*
X95637500Y-105000000D01*
X93112500Y-83250000D02*
X93112500Y-83252500D01*
X93112500Y-83252500D02*
X94450000Y-84590000D01*
X94450000Y-84590000D02*
X94450000Y-84640000D01*
X94450000Y-84640000D02*
X94450000Y-85025000D01*
X79750000Y-90750000D02*
X81505026Y-90750000D01*
X79500000Y-90750000D02*
X79750000Y-90750000D01*
X80500000Y-90750000D02*
X79750000Y-90750000D01*
X73533177Y-87768423D02*
X73551600Y-87750000D01*
X66830001Y-91079999D02*
X66830001Y-89221608D01*
X66830001Y-89221608D02*
X68301609Y-87750000D01*
X73514755Y-87750000D02*
X73533177Y-87768423D01*
X73551600Y-87750000D02*
X74474153Y-87750000D01*
X66750000Y-91665000D02*
X66750000Y-91160000D01*
X66750000Y-91160000D02*
X66830001Y-91079999D01*
X68301609Y-87750000D02*
X73514755Y-87750000D01*
X74474153Y-87750000D02*
X77474153Y-90750000D01*
X77474153Y-90750000D02*
X79500000Y-90750000D01*
X81505026Y-90750000D02*
X82000000Y-90750000D01*
X84250000Y-90821072D02*
X84178928Y-90750000D01*
X84250000Y-92100000D02*
X84250000Y-90821072D01*
X77000000Y-93069967D02*
X77000000Y-92500000D01*
X73340000Y-93250000D02*
X73520033Y-93069967D01*
X76430033Y-93069967D02*
X77000000Y-93069967D01*
X72835000Y-93250000D02*
X73340000Y-93250000D01*
X73520033Y-93069967D02*
X76430033Y-93069967D01*
X77000000Y-93069967D02*
X78961629Y-93069967D01*
X78961629Y-93069967D02*
X79931596Y-92100000D01*
X79931596Y-92100000D02*
X81965000Y-92100000D01*
X81965000Y-92100000D02*
X82250000Y-92100000D01*
X84500000Y-86500000D02*
X85400001Y-87400001D01*
X85400001Y-87400001D02*
X85750000Y-87750000D01*
X82137500Y-86500000D02*
X84500000Y-86500000D01*
X85750000Y-91000014D02*
X85749993Y-91000007D01*
X85750000Y-92100000D02*
X85750000Y-91000014D01*
X57950000Y-105250000D02*
X58750000Y-105250000D01*
X57950000Y-110500000D02*
X58750000Y-110500000D01*
X57950000Y-108750000D02*
X58750000Y-108750000D01*
X57950000Y-107000000D02*
X58750000Y-107000000D01*
X57950000Y-103500000D02*
X58750000Y-103500000D01*
X100994966Y-92750000D02*
X98494948Y-92750000D01*
X98494948Y-92750000D02*
X97999974Y-92750000D01*
X97500000Y-103750000D02*
X97500000Y-102750000D01*
X70250000Y-103750000D02*
X97500000Y-103750000D01*
X69612500Y-103112500D02*
X70250000Y-103750000D01*
X68500000Y-103112500D02*
X69612500Y-103112500D01*
X96750000Y-94500000D02*
X94000000Y-94500000D01*
X111675000Y-104425000D02*
X108250000Y-101000000D01*
X112800000Y-104425000D02*
X111675000Y-104425000D01*
X98612500Y-108887500D02*
X98400000Y-109100000D01*
X98400000Y-109100000D02*
X97450000Y-109100000D01*
X99500000Y-108887500D02*
X98612500Y-108887500D01*
X112450000Y-87900000D02*
X112450000Y-88105000D01*
X112450000Y-88105000D02*
X114232500Y-89887500D01*
X114232500Y-89887500D02*
X114500000Y-89887500D01*
X108500000Y-82889998D02*
X108500000Y-82112500D01*
X110550000Y-81900000D02*
X110065000Y-81900000D01*
X109852500Y-82112500D02*
X109387500Y-82112500D01*
X110065000Y-81900000D02*
X109852500Y-82112500D01*
X108500000Y-82112500D02*
X109387500Y-82112500D01*
D43*
X114250000Y-83750000D02*
X114500000Y-83500000D01*
X113900000Y-84100000D02*
X114250000Y-83750000D01*
D42*
X114137500Y-86000000D02*
X114137500Y-83862500D01*
X114137500Y-83862500D02*
X114250000Y-83750000D01*
D43*
X114500000Y-83500000D02*
X114500000Y-83000000D01*
X112450000Y-84100000D02*
X113900000Y-84100000D01*
X93755026Y-107250000D02*
X93500000Y-107505026D01*
X94105026Y-106900000D02*
X93755026Y-107250000D01*
D42*
X93862500Y-105000000D02*
X93862500Y-107142526D01*
X93862500Y-107142526D02*
X93755026Y-107250000D01*
D43*
X93500000Y-107505026D02*
X93500000Y-108000000D01*
X95550000Y-106900000D02*
X94105026Y-106900000D01*
D41*
X112362500Y-86000000D02*
X112362500Y-86002500D01*
X114472500Y-88112500D02*
X114500000Y-88112500D01*
X112362500Y-86002500D02*
X114472500Y-88112500D01*
X110637500Y-86000000D02*
X112362500Y-86000000D01*
X110550000Y-84800000D02*
X110637500Y-84887500D01*
X110637500Y-84887500D02*
X110637500Y-86000000D01*
X110550000Y-84100000D02*
X110550000Y-84800000D01*
X114137500Y-107496000D02*
X115862500Y-107496000D01*
X112800000Y-105725000D02*
X110612500Y-105725000D01*
X110612500Y-105725000D02*
X110500000Y-105612500D01*
X92295000Y-105000000D02*
X91637500Y-105000000D01*
X97450000Y-106050000D02*
X97362500Y-105962500D01*
X97362500Y-105962500D02*
X97362500Y-105000000D01*
X97450000Y-106900000D02*
X97450000Y-106050000D01*
X95637500Y-105000000D02*
X97362500Y-105000000D01*
X94450000Y-85025000D02*
X96612500Y-85025000D01*
X96612500Y-85025000D02*
X96750000Y-84887500D01*
X91387500Y-83250000D02*
X93112500Y-83250000D01*
D45*
G36*
X77623000Y-84873000D02*
X67237875Y-84873000D01*
X65897300Y-83532426D01*
X66885000Y-83532426D01*
X66993080Y-83510928D01*
X67009434Y-83500000D01*
X69720074Y-83500000D01*
X69720074Y-84500000D01*
X69741572Y-84608080D01*
X69802795Y-84699705D01*
X69894420Y-84760928D01*
X70002500Y-84782426D01*
X70997500Y-84782426D01*
X71105580Y-84760928D01*
X71197205Y-84699705D01*
X71258428Y-84608080D01*
X71279926Y-84500000D01*
X71279926Y-83500000D01*
X71258428Y-83391920D01*
X71197205Y-83300295D01*
X71105580Y-83239072D01*
X71081608Y-83234304D01*
X71127000Y-83124718D01*
X71127000Y-82875282D01*
X71031545Y-82644833D01*
X70855167Y-82468455D01*
X70624718Y-82373000D01*
X70375282Y-82373000D01*
X70144833Y-82468455D01*
X69968455Y-82644833D01*
X69873000Y-82875282D01*
X69873000Y-83124718D01*
X69918392Y-83234304D01*
X69894420Y-83239072D01*
X69802795Y-83300295D01*
X69741572Y-83391920D01*
X69720074Y-83500000D01*
X67009434Y-83500000D01*
X67084705Y-83449705D01*
X67145928Y-83358080D01*
X67159909Y-83287790D01*
X67375282Y-83377000D01*
X67624718Y-83377000D01*
X67855167Y-83281545D01*
X68031545Y-83105167D01*
X68127000Y-82874718D01*
X68127000Y-82625282D01*
X68031545Y-82394833D01*
X67855167Y-82218455D01*
X67624718Y-82123000D01*
X67375282Y-82123000D01*
X67159909Y-82212210D01*
X67145928Y-82141920D01*
X67084705Y-82050295D01*
X66993080Y-81989072D01*
X66885000Y-81967574D01*
X65890000Y-81967574D01*
X65781920Y-81989072D01*
X65690295Y-82050295D01*
X65629072Y-82141920D01*
X65607574Y-82250000D01*
X65607574Y-83242701D01*
X65392426Y-83027553D01*
X65392426Y-82250000D01*
X65370928Y-82141920D01*
X65309705Y-82050295D01*
X65218080Y-81989072D01*
X65110000Y-81967574D01*
X64969500Y-81967574D01*
X64969500Y-81307426D01*
X65130000Y-81307426D01*
X65238080Y-81285928D01*
X65329705Y-81224705D01*
X65390928Y-81133080D01*
X65412426Y-81025000D01*
X65412426Y-80375000D01*
X65390928Y-80266920D01*
X65362917Y-80225000D01*
X65390928Y-80183080D01*
X65406061Y-80107000D01*
X65555302Y-80107000D01*
X66065886Y-80617585D01*
X66085805Y-80647396D01*
X66130617Y-80677338D01*
X66188869Y-80716261D01*
X66123000Y-80875282D01*
X66123000Y-81124718D01*
X66218455Y-81355167D01*
X66394833Y-81531545D01*
X66625282Y-81627000D01*
X66874718Y-81627000D01*
X67105167Y-81531545D01*
X67281545Y-81355167D01*
X67377000Y-81124718D01*
X67377000Y-80875282D01*
X67323869Y-80747013D01*
X69742140Y-80747013D01*
X70984614Y-81989488D01*
X71004533Y-82019299D01*
X71122622Y-82098203D01*
X71226754Y-82118916D01*
X71226755Y-82118916D01*
X71261916Y-82125910D01*
X71297077Y-82118916D01*
X71309155Y-82118916D01*
X71309155Y-82391916D01*
X71330653Y-82499996D01*
X71391876Y-82591621D01*
X71483501Y-82652844D01*
X71591581Y-82674342D01*
X71706232Y-82674342D01*
X71623000Y-82875282D01*
X71623000Y-83124718D01*
X71670295Y-83238898D01*
X71669420Y-83239072D01*
X71577795Y-83300295D01*
X71516572Y-83391920D01*
X71495074Y-83500000D01*
X71495074Y-84500000D01*
X71516572Y-84608080D01*
X71577795Y-84699705D01*
X71669420Y-84760928D01*
X71777500Y-84782426D01*
X72772500Y-84782426D01*
X72880580Y-84760928D01*
X72972205Y-84699705D01*
X73033428Y-84608080D01*
X73054926Y-84500000D01*
X73054926Y-83500000D01*
X73033428Y-83391920D01*
X72988240Y-83324293D01*
X73039825Y-83289825D01*
X73062251Y-83256262D01*
X73347843Y-82970670D01*
X73381406Y-82948244D01*
X73388798Y-82937182D01*
X73429330Y-82997843D01*
X73429333Y-82997846D01*
X73451757Y-83031406D01*
X73485317Y-83053830D01*
X73662074Y-83230588D01*
X73619420Y-83239072D01*
X73527795Y-83300295D01*
X73466572Y-83391920D01*
X73445074Y-83500000D01*
X73445074Y-84500000D01*
X73466572Y-84608080D01*
X73527795Y-84699705D01*
X73619420Y-84760928D01*
X73727500Y-84782426D01*
X74722500Y-84782426D01*
X74830580Y-84760928D01*
X74922205Y-84699705D01*
X74983428Y-84608080D01*
X75004926Y-84500000D01*
X75004926Y-83500000D01*
X75220074Y-83500000D01*
X75220074Y-84500000D01*
X75241572Y-84608080D01*
X75302795Y-84699705D01*
X75394420Y-84760928D01*
X75502500Y-84782426D01*
X76497500Y-84782426D01*
X76605580Y-84760928D01*
X76697205Y-84699705D01*
X76758428Y-84608080D01*
X76779926Y-84500000D01*
X76779926Y-83500000D01*
X76758428Y-83391920D01*
X76697205Y-83300295D01*
X76605580Y-83239072D01*
X76581608Y-83234304D01*
X76627000Y-83124718D01*
X76627000Y-82875282D01*
X76531545Y-82644833D01*
X76355167Y-82468455D01*
X76124718Y-82373000D01*
X75875282Y-82373000D01*
X75644833Y-82468455D01*
X75468455Y-82644833D01*
X75373000Y-82875282D01*
X75373000Y-83124718D01*
X75418392Y-83234304D01*
X75394420Y-83239072D01*
X75302795Y-83300295D01*
X75241572Y-83391920D01*
X75220074Y-83500000D01*
X75004926Y-83500000D01*
X74983428Y-83391920D01*
X74922205Y-83300295D01*
X74830580Y-83239072D01*
X74829705Y-83238898D01*
X74877000Y-83124718D01*
X74877000Y-82875282D01*
X74781545Y-82644833D01*
X74605167Y-82468455D01*
X74374718Y-82373000D01*
X74224007Y-82373000D01*
X74224007Y-81197919D01*
X74274661Y-81187844D01*
X74366286Y-81126621D01*
X74427509Y-81034996D01*
X74449007Y-80926916D01*
X74449007Y-78572515D01*
X74479908Y-78541614D01*
X74576581Y-78308225D01*
X74576581Y-77837666D01*
X74417831Y-77678916D01*
X73841581Y-77678916D01*
X73841581Y-77698916D01*
X73641581Y-77698916D01*
X73641581Y-77678916D01*
X73594581Y-77678916D01*
X73594581Y-77424916D01*
X73641581Y-77424916D01*
X73641581Y-77404916D01*
X73841581Y-77404916D01*
X73841581Y-77424916D01*
X74417831Y-77424916D01*
X74576581Y-77266166D01*
X74576581Y-76833942D01*
X74643908Y-76766615D01*
X74740581Y-76533226D01*
X74740581Y-76192666D01*
X74581831Y-76033916D01*
X73735081Y-76033916D01*
X73735081Y-76053916D01*
X73481081Y-76053916D01*
X73481081Y-76033916D01*
X73461081Y-76033916D01*
X73461081Y-75779916D01*
X73481081Y-75779916D01*
X73481081Y-74930666D01*
X73735081Y-74930666D01*
X73735081Y-75779916D01*
X74581831Y-75779916D01*
X74740581Y-75621166D01*
X74740581Y-75280606D01*
X74643908Y-75047217D01*
X74465279Y-74868589D01*
X74231890Y-74771916D01*
X73893831Y-74771916D01*
X73735081Y-74930666D01*
X73481081Y-74930666D01*
X73322331Y-74771916D01*
X72984272Y-74771916D01*
X72750883Y-74868589D01*
X72572254Y-75047217D01*
X72511251Y-75194492D01*
X72438661Y-75145988D01*
X72330581Y-75124490D01*
X71335581Y-75124490D01*
X71227501Y-75145988D01*
X71135876Y-75207211D01*
X71074653Y-75298836D01*
X71053155Y-75406916D01*
X71053155Y-76406916D01*
X71074653Y-76514996D01*
X71135876Y-76606621D01*
X71227501Y-76667844D01*
X71335581Y-76689342D01*
X71441067Y-76689342D01*
X71391876Y-76722211D01*
X71330653Y-76813836D01*
X71309155Y-76921916D01*
X71309155Y-77194916D01*
X71233244Y-77194916D01*
X71198083Y-77187922D01*
X71162922Y-77194916D01*
X71058790Y-77215629D01*
X71058789Y-77215630D01*
X71058788Y-77215630D01*
X70970509Y-77274616D01*
X70940701Y-77294533D01*
X70920784Y-77324341D01*
X70522428Y-77722699D01*
X70492618Y-77742617D01*
X70472700Y-77772427D01*
X70413714Y-77860705D01*
X70386006Y-78000000D01*
X70393001Y-78035165D01*
X70393000Y-79102126D01*
X69772126Y-79723001D01*
X69107000Y-79723001D01*
X69107000Y-79167426D01*
X69250000Y-79167426D01*
X69358080Y-79145928D01*
X69449705Y-79084705D01*
X69510928Y-78993080D01*
X69532426Y-78885000D01*
X69532426Y-77890000D01*
X69510928Y-77781920D01*
X69462424Y-77709330D01*
X69609699Y-77648327D01*
X69788327Y-77469698D01*
X69885000Y-77236309D01*
X69885000Y-76898250D01*
X69726250Y-76739500D01*
X68877000Y-76739500D01*
X68877000Y-76759500D01*
X68623000Y-76759500D01*
X68623000Y-76739500D01*
X67773750Y-76739500D01*
X67750000Y-76763250D01*
X67726250Y-76739500D01*
X66877000Y-76739500D01*
X66877000Y-76759500D01*
X66623000Y-76759500D01*
X66623000Y-76739500D01*
X65773750Y-76739500D01*
X65615000Y-76898250D01*
X65615000Y-77236309D01*
X65711673Y-77469698D01*
X65890301Y-77648327D01*
X66037576Y-77709330D01*
X65989072Y-77781920D01*
X65967574Y-77890000D01*
X65967574Y-78885000D01*
X65989072Y-78993080D01*
X66050295Y-79084705D01*
X66141920Y-79145928D01*
X66212210Y-79159909D01*
X66166569Y-79270097D01*
X65468902Y-78572431D01*
X65448981Y-78542617D01*
X65412426Y-78518192D01*
X65412426Y-78475000D01*
X65390928Y-78366920D01*
X65329705Y-78275295D01*
X65238080Y-78214072D01*
X65130000Y-78192574D01*
X64070000Y-78192574D01*
X63961920Y-78214072D01*
X63870295Y-78275295D01*
X63809072Y-78366920D01*
X63787574Y-78475000D01*
X63787574Y-79125000D01*
X63801763Y-79196334D01*
X63624718Y-79123000D01*
X63565000Y-79123000D01*
X63565000Y-79085750D01*
X63406250Y-78927000D01*
X62527000Y-78927000D01*
X62527000Y-78947000D01*
X62273000Y-78947000D01*
X62273000Y-78927000D01*
X62253000Y-78927000D01*
X62253000Y-78673000D01*
X62273000Y-78673000D01*
X62273000Y-77998750D01*
X62527000Y-77998750D01*
X62527000Y-78673000D01*
X63406250Y-78673000D01*
X63565000Y-78514250D01*
X63565000Y-78348690D01*
X63468327Y-78115301D01*
X63289698Y-77936673D01*
X63056309Y-77840000D01*
X62685750Y-77840000D01*
X62527000Y-77998750D01*
X62273000Y-77998750D01*
X62114250Y-77840000D01*
X61743691Y-77840000D01*
X61510302Y-77936673D01*
X61367324Y-78079650D01*
X61367324Y-77985498D01*
X61208576Y-77985498D01*
X61367324Y-77826750D01*
X61367324Y-77488691D01*
X61270651Y-77255302D01*
X61092023Y-77076673D01*
X60858634Y-76980000D01*
X60518074Y-76980000D01*
X60359324Y-77138750D01*
X60359324Y-77985500D01*
X60379324Y-77985500D01*
X60379324Y-78239500D01*
X60359324Y-78239500D01*
X60359324Y-78259500D01*
X60105324Y-78259500D01*
X60105324Y-78239500D01*
X59256074Y-78239500D01*
X59097324Y-78398250D01*
X59097324Y-78736309D01*
X59193997Y-78969698D01*
X59372625Y-79148327D01*
X59519900Y-79209330D01*
X59471396Y-79281920D01*
X59449898Y-79390000D01*
X59449898Y-80385000D01*
X59471396Y-80493080D01*
X59532619Y-80584705D01*
X59624244Y-80645928D01*
X59732324Y-80667426D01*
X59869372Y-80667426D01*
X59868330Y-80672664D01*
X59875324Y-80707825D01*
X59875324Y-80832574D01*
X59732324Y-80832574D01*
X59624244Y-80854072D01*
X59532619Y-80915295D01*
X59471396Y-81006920D01*
X59449898Y-81115000D01*
X59449898Y-82110000D01*
X59471396Y-82218080D01*
X59532619Y-82309705D01*
X59624244Y-82370928D01*
X59732324Y-82392426D01*
X60732324Y-82392426D01*
X60840404Y-82370928D01*
X60932029Y-82309705D01*
X60993252Y-82218080D01*
X61014750Y-82110000D01*
X61014750Y-81115000D01*
X61003213Y-81057000D01*
X61593939Y-81057000D01*
X61609072Y-81133080D01*
X61670295Y-81224705D01*
X61761920Y-81285928D01*
X61870000Y-81307426D01*
X62930000Y-81307426D01*
X63038080Y-81285928D01*
X63129705Y-81224705D01*
X63190928Y-81133080D01*
X63212426Y-81025000D01*
X63212426Y-80375000D01*
X63198237Y-80303666D01*
X63375282Y-80377000D01*
X63624718Y-80377000D01*
X63801763Y-80303666D01*
X63787574Y-80375000D01*
X63787574Y-81025000D01*
X63809072Y-81133080D01*
X63870295Y-81224705D01*
X63961920Y-81285928D01*
X64070000Y-81307426D01*
X64255501Y-81307426D01*
X64255500Y-81967574D01*
X64115000Y-81967574D01*
X64006920Y-81989072D01*
X63915295Y-82050295D01*
X63854072Y-82141920D01*
X63832574Y-82250000D01*
X63832574Y-83250000D01*
X63854072Y-83358080D01*
X63915295Y-83449705D01*
X64006920Y-83510928D01*
X64115000Y-83532426D01*
X64887553Y-83532426D01*
X66228126Y-84873000D01*
X60384375Y-84873000D01*
X60605167Y-84781545D01*
X60781545Y-84605167D01*
X60877000Y-84374718D01*
X60877000Y-84125282D01*
X60875765Y-84122300D01*
X60932029Y-84084705D01*
X60993252Y-83993080D01*
X61014750Y-83885000D01*
X61014750Y-82890000D01*
X60993252Y-82781920D01*
X60932029Y-82690295D01*
X60840404Y-82629072D01*
X60732324Y-82607574D01*
X59732324Y-82607574D01*
X59624244Y-82629072D01*
X59532619Y-82690295D01*
X59471396Y-82781920D01*
X59449898Y-82890000D01*
X59449898Y-83885000D01*
X59471396Y-83993080D01*
X59532619Y-84084705D01*
X59623000Y-84145097D01*
X59623000Y-84374718D01*
X59718455Y-84605167D01*
X59894833Y-84781545D01*
X60115625Y-84873000D01*
X57500000Y-84873000D01*
X57451399Y-84882667D01*
X57410197Y-84910197D01*
X57382667Y-84951399D01*
X57373000Y-85000000D01*
X57373000Y-87709720D01*
X57288327Y-87505302D01*
X57109699Y-87326673D01*
X56876310Y-87230000D01*
X56535750Y-87230000D01*
X56377000Y-87388750D01*
X56377000Y-88235500D01*
X56397000Y-88235500D01*
X56397000Y-88489500D01*
X56377000Y-88489500D01*
X56377000Y-88509500D01*
X56123000Y-88509500D01*
X56123000Y-88489500D01*
X55273750Y-88489500D01*
X55115000Y-88648250D01*
X55115000Y-88986309D01*
X55171619Y-89123000D01*
X51877000Y-89123000D01*
X51877000Y-88290104D01*
X52889501Y-88290104D01*
X52926648Y-88505217D01*
X53354972Y-88648112D01*
X53805375Y-88616217D01*
X54073352Y-88505217D01*
X54110499Y-88290104D01*
X53500000Y-87679605D01*
X52889501Y-88290104D01*
X51877000Y-88290104D01*
X51877000Y-87354972D01*
X52351888Y-87354972D01*
X52383783Y-87805375D01*
X52494783Y-88073352D01*
X52709896Y-88110499D01*
X53320395Y-87500000D01*
X53679605Y-87500000D01*
X54290104Y-88110499D01*
X54505217Y-88073352D01*
X54616864Y-87738691D01*
X55115000Y-87738691D01*
X55115000Y-88076750D01*
X55273750Y-88235500D01*
X56123000Y-88235500D01*
X56123000Y-87388750D01*
X55964250Y-87230000D01*
X55623690Y-87230000D01*
X55390301Y-87326673D01*
X55211673Y-87505302D01*
X55115000Y-87738691D01*
X54616864Y-87738691D01*
X54648112Y-87645028D01*
X54616217Y-87194625D01*
X54505217Y-86926648D01*
X54290104Y-86889501D01*
X53679605Y-87500000D01*
X53320395Y-87500000D01*
X52709896Y-86889501D01*
X52494783Y-86926648D01*
X52351888Y-87354972D01*
X51877000Y-87354972D01*
X51877000Y-86709896D01*
X52889501Y-86709896D01*
X53500000Y-87320395D01*
X54110499Y-86709896D01*
X54073352Y-86494783D01*
X53645028Y-86351888D01*
X53194625Y-86383783D01*
X52926648Y-86494783D01*
X52889501Y-86709896D01*
X51877000Y-86709896D01*
X51877000Y-77794220D01*
X52030438Y-77947658D01*
X53308382Y-78477000D01*
X54691618Y-78477000D01*
X55969562Y-77947658D01*
X56428529Y-77488691D01*
X59097324Y-77488691D01*
X59097324Y-77826750D01*
X59256074Y-77985500D01*
X60105324Y-77985500D01*
X60105324Y-77138750D01*
X59946574Y-76980000D01*
X59606014Y-76980000D01*
X59372625Y-77076673D01*
X59193997Y-77255302D01*
X59097324Y-77488691D01*
X56428529Y-77488691D01*
X56947658Y-76969562D01*
X57353948Y-75988691D01*
X65615000Y-75988691D01*
X65615000Y-76326750D01*
X65773750Y-76485500D01*
X66623000Y-76485500D01*
X66623000Y-75638750D01*
X66877000Y-75638750D01*
X66877000Y-76485500D01*
X67726250Y-76485500D01*
X67750000Y-76461750D01*
X67773750Y-76485500D01*
X68623000Y-76485500D01*
X68623000Y-75638750D01*
X68877000Y-75638750D01*
X68877000Y-76485500D01*
X69726250Y-76485500D01*
X69885000Y-76326750D01*
X69885000Y-75988691D01*
X69788327Y-75755302D01*
X69609699Y-75576673D01*
X69376310Y-75480000D01*
X69035750Y-75480000D01*
X68877000Y-75638750D01*
X68623000Y-75638750D01*
X68464250Y-75480000D01*
X68123690Y-75480000D01*
X67890301Y-75576673D01*
X67750000Y-75716975D01*
X67609699Y-75576673D01*
X67376310Y-75480000D01*
X67035750Y-75480000D01*
X66877000Y-75638750D01*
X66623000Y-75638750D01*
X66464250Y-75480000D01*
X66123690Y-75480000D01*
X65890301Y-75576673D01*
X65711673Y-75755302D01*
X65615000Y-75988691D01*
X57353948Y-75988691D01*
X57477000Y-75691618D01*
X57477000Y-74308382D01*
X56947658Y-73030438D01*
X56794220Y-72877000D01*
X77623000Y-72877000D01*
X77623000Y-84873000D01*
X77623000Y-84873000D01*
G37*
X77623000Y-84873000D02*
X67237875Y-84873000D01*
X65897300Y-83532426D01*
X66885000Y-83532426D01*
X66993080Y-83510928D01*
X67009434Y-83500000D01*
X69720074Y-83500000D01*
X69720074Y-84500000D01*
X69741572Y-84608080D01*
X69802795Y-84699705D01*
X69894420Y-84760928D01*
X70002500Y-84782426D01*
X70997500Y-84782426D01*
X71105580Y-84760928D01*
X71197205Y-84699705D01*
X71258428Y-84608080D01*
X71279926Y-84500000D01*
X71279926Y-83500000D01*
X71258428Y-83391920D01*
X71197205Y-83300295D01*
X71105580Y-83239072D01*
X71081608Y-83234304D01*
X71127000Y-83124718D01*
X71127000Y-82875282D01*
X71031545Y-82644833D01*
X70855167Y-82468455D01*
X70624718Y-82373000D01*
X70375282Y-82373000D01*
X70144833Y-82468455D01*
X69968455Y-82644833D01*
X69873000Y-82875282D01*
X69873000Y-83124718D01*
X69918392Y-83234304D01*
X69894420Y-83239072D01*
X69802795Y-83300295D01*
X69741572Y-83391920D01*
X69720074Y-83500000D01*
X67009434Y-83500000D01*
X67084705Y-83449705D01*
X67145928Y-83358080D01*
X67159909Y-83287790D01*
X67375282Y-83377000D01*
X67624718Y-83377000D01*
X67855167Y-83281545D01*
X68031545Y-83105167D01*
X68127000Y-82874718D01*
X68127000Y-82625282D01*
X68031545Y-82394833D01*
X67855167Y-82218455D01*
X67624718Y-82123000D01*
X67375282Y-82123000D01*
X67159909Y-82212210D01*
X67145928Y-82141920D01*
X67084705Y-82050295D01*
X66993080Y-81989072D01*
X66885000Y-81967574D01*
X65890000Y-81967574D01*
X65781920Y-81989072D01*
X65690295Y-82050295D01*
X65629072Y-82141920D01*
X65607574Y-82250000D01*
X65607574Y-83242701D01*
X65392426Y-83027553D01*
X65392426Y-82250000D01*
X65370928Y-82141920D01*
X65309705Y-82050295D01*
X65218080Y-81989072D01*
X65110000Y-81967574D01*
X64969500Y-81967574D01*
X64969500Y-81307426D01*
X65130000Y-81307426D01*
X65238080Y-81285928D01*
X65329705Y-81224705D01*
X65390928Y-81133080D01*
X65412426Y-81025000D01*
X65412426Y-80375000D01*
X65390928Y-80266920D01*
X65362917Y-80225000D01*
X65390928Y-80183080D01*
X65406061Y-80107000D01*
X65555302Y-80107000D01*
X66065886Y-80617585D01*
X66085805Y-80647396D01*
X66130617Y-80677338D01*
X66188869Y-80716261D01*
X66123000Y-80875282D01*
X66123000Y-81124718D01*
X66218455Y-81355167D01*
X66394833Y-81531545D01*
X66625282Y-81627000D01*
X66874718Y-81627000D01*
X67105167Y-81531545D01*
X67281545Y-81355167D01*
X67377000Y-81124718D01*
X67377000Y-80875282D01*
X67323869Y-80747013D01*
X69742140Y-80747013D01*
X70984614Y-81989488D01*
X71004533Y-82019299D01*
X71122622Y-82098203D01*
X71226754Y-82118916D01*
X71226755Y-82118916D01*
X71261916Y-82125910D01*
X71297077Y-82118916D01*
X71309155Y-82118916D01*
X71309155Y-82391916D01*
X71330653Y-82499996D01*
X71391876Y-82591621D01*
X71483501Y-82652844D01*
X71591581Y-82674342D01*
X71706232Y-82674342D01*
X71623000Y-82875282D01*
X71623000Y-83124718D01*
X71670295Y-83238898D01*
X71669420Y-83239072D01*
X71577795Y-83300295D01*
X71516572Y-83391920D01*
X71495074Y-83500000D01*
X71495074Y-84500000D01*
X71516572Y-84608080D01*
X71577795Y-84699705D01*
X71669420Y-84760928D01*
X71777500Y-84782426D01*
X72772500Y-84782426D01*
X72880580Y-84760928D01*
X72972205Y-84699705D01*
X73033428Y-84608080D01*
X73054926Y-84500000D01*
X73054926Y-83500000D01*
X73033428Y-83391920D01*
X72988240Y-83324293D01*
X73039825Y-83289825D01*
X73062251Y-83256262D01*
X73347843Y-82970670D01*
X73381406Y-82948244D01*
X73388798Y-82937182D01*
X73429330Y-82997843D01*
X73429333Y-82997846D01*
X73451757Y-83031406D01*
X73485317Y-83053830D01*
X73662074Y-83230588D01*
X73619420Y-83239072D01*
X73527795Y-83300295D01*
X73466572Y-83391920D01*
X73445074Y-83500000D01*
X73445074Y-84500000D01*
X73466572Y-84608080D01*
X73527795Y-84699705D01*
X73619420Y-84760928D01*
X73727500Y-84782426D01*
X74722500Y-84782426D01*
X74830580Y-84760928D01*
X74922205Y-84699705D01*
X74983428Y-84608080D01*
X75004926Y-84500000D01*
X75004926Y-83500000D01*
X75220074Y-83500000D01*
X75220074Y-84500000D01*
X75241572Y-84608080D01*
X75302795Y-84699705D01*
X75394420Y-84760928D01*
X75502500Y-84782426D01*
X76497500Y-84782426D01*
X76605580Y-84760928D01*
X76697205Y-84699705D01*
X76758428Y-84608080D01*
X76779926Y-84500000D01*
X76779926Y-83500000D01*
X76758428Y-83391920D01*
X76697205Y-83300295D01*
X76605580Y-83239072D01*
X76581608Y-83234304D01*
X76627000Y-83124718D01*
X76627000Y-82875282D01*
X76531545Y-82644833D01*
X76355167Y-82468455D01*
X76124718Y-82373000D01*
X75875282Y-82373000D01*
X75644833Y-82468455D01*
X75468455Y-82644833D01*
X75373000Y-82875282D01*
X75373000Y-83124718D01*
X75418392Y-83234304D01*
X75394420Y-83239072D01*
X75302795Y-83300295D01*
X75241572Y-83391920D01*
X75220074Y-83500000D01*
X75004926Y-83500000D01*
X74983428Y-83391920D01*
X74922205Y-83300295D01*
X74830580Y-83239072D01*
X74829705Y-83238898D01*
X74877000Y-83124718D01*
X74877000Y-82875282D01*
X74781545Y-82644833D01*
X74605167Y-82468455D01*
X74374718Y-82373000D01*
X74224007Y-82373000D01*
X74224007Y-81197919D01*
X74274661Y-81187844D01*
X74366286Y-81126621D01*
X74427509Y-81034996D01*
X74449007Y-80926916D01*
X74449007Y-78572515D01*
X74479908Y-78541614D01*
X74576581Y-78308225D01*
X74576581Y-77837666D01*
X74417831Y-77678916D01*
X73841581Y-77678916D01*
X73841581Y-77698916D01*
X73641581Y-77698916D01*
X73641581Y-77678916D01*
X73594581Y-77678916D01*
X73594581Y-77424916D01*
X73641581Y-77424916D01*
X73641581Y-77404916D01*
X73841581Y-77404916D01*
X73841581Y-77424916D01*
X74417831Y-77424916D01*
X74576581Y-77266166D01*
X74576581Y-76833942D01*
X74643908Y-76766615D01*
X74740581Y-76533226D01*
X74740581Y-76192666D01*
X74581831Y-76033916D01*
X73735081Y-76033916D01*
X73735081Y-76053916D01*
X73481081Y-76053916D01*
X73481081Y-76033916D01*
X73461081Y-76033916D01*
X73461081Y-75779916D01*
X73481081Y-75779916D01*
X73481081Y-74930666D01*
X73735081Y-74930666D01*
X73735081Y-75779916D01*
X74581831Y-75779916D01*
X74740581Y-75621166D01*
X74740581Y-75280606D01*
X74643908Y-75047217D01*
X74465279Y-74868589D01*
X74231890Y-74771916D01*
X73893831Y-74771916D01*
X73735081Y-74930666D01*
X73481081Y-74930666D01*
X73322331Y-74771916D01*
X72984272Y-74771916D01*
X72750883Y-74868589D01*
X72572254Y-75047217D01*
X72511251Y-75194492D01*
X72438661Y-75145988D01*
X72330581Y-75124490D01*
X71335581Y-75124490D01*
X71227501Y-75145988D01*
X71135876Y-75207211D01*
X71074653Y-75298836D01*
X71053155Y-75406916D01*
X71053155Y-76406916D01*
X71074653Y-76514996D01*
X71135876Y-76606621D01*
X71227501Y-76667844D01*
X71335581Y-76689342D01*
X71441067Y-76689342D01*
X71391876Y-76722211D01*
X71330653Y-76813836D01*
X71309155Y-76921916D01*
X71309155Y-77194916D01*
X71233244Y-77194916D01*
X71198083Y-77187922D01*
X71162922Y-77194916D01*
X71058790Y-77215629D01*
X71058789Y-77215630D01*
X71058788Y-77215630D01*
X70970509Y-77274616D01*
X70940701Y-77294533D01*
X70920784Y-77324341D01*
X70522428Y-77722699D01*
X70492618Y-77742617D01*
X70472700Y-77772427D01*
X70413714Y-77860705D01*
X70386006Y-78000000D01*
X70393001Y-78035165D01*
X70393000Y-79102126D01*
X69772126Y-79723001D01*
X69107000Y-79723001D01*
X69107000Y-79167426D01*
X69250000Y-79167426D01*
X69358080Y-79145928D01*
X69449705Y-79084705D01*
X69510928Y-78993080D01*
X69532426Y-78885000D01*
X69532426Y-77890000D01*
X69510928Y-77781920D01*
X69462424Y-77709330D01*
X69609699Y-77648327D01*
X69788327Y-77469698D01*
X69885000Y-77236309D01*
X69885000Y-76898250D01*
X69726250Y-76739500D01*
X68877000Y-76739500D01*
X68877000Y-76759500D01*
X68623000Y-76759500D01*
X68623000Y-76739500D01*
X67773750Y-76739500D01*
X67750000Y-76763250D01*
X67726250Y-76739500D01*
X66877000Y-76739500D01*
X66877000Y-76759500D01*
X66623000Y-76759500D01*
X66623000Y-76739500D01*
X65773750Y-76739500D01*
X65615000Y-76898250D01*
X65615000Y-77236309D01*
X65711673Y-77469698D01*
X65890301Y-77648327D01*
X66037576Y-77709330D01*
X65989072Y-77781920D01*
X65967574Y-77890000D01*
X65967574Y-78885000D01*
X65989072Y-78993080D01*
X66050295Y-79084705D01*
X66141920Y-79145928D01*
X66212210Y-79159909D01*
X66166569Y-79270097D01*
X65468902Y-78572431D01*
X65448981Y-78542617D01*
X65412426Y-78518192D01*
X65412426Y-78475000D01*
X65390928Y-78366920D01*
X65329705Y-78275295D01*
X65238080Y-78214072D01*
X65130000Y-78192574D01*
X64070000Y-78192574D01*
X63961920Y-78214072D01*
X63870295Y-78275295D01*
X63809072Y-78366920D01*
X63787574Y-78475000D01*
X63787574Y-79125000D01*
X63801763Y-79196334D01*
X63624718Y-79123000D01*
X63565000Y-79123000D01*
X63565000Y-79085750D01*
X63406250Y-78927000D01*
X62527000Y-78927000D01*
X62527000Y-78947000D01*
X62273000Y-78947000D01*
X62273000Y-78927000D01*
X62253000Y-78927000D01*
X62253000Y-78673000D01*
X62273000Y-78673000D01*
X62273000Y-77998750D01*
X62527000Y-77998750D01*
X62527000Y-78673000D01*
X63406250Y-78673000D01*
X63565000Y-78514250D01*
X63565000Y-78348690D01*
X63468327Y-78115301D01*
X63289698Y-77936673D01*
X63056309Y-77840000D01*
X62685750Y-77840000D01*
X62527000Y-77998750D01*
X62273000Y-77998750D01*
X62114250Y-77840000D01*
X61743691Y-77840000D01*
X61510302Y-77936673D01*
X61367324Y-78079650D01*
X61367324Y-77985498D01*
X61208576Y-77985498D01*
X61367324Y-77826750D01*
X61367324Y-77488691D01*
X61270651Y-77255302D01*
X61092023Y-77076673D01*
X60858634Y-76980000D01*
X60518074Y-76980000D01*
X60359324Y-77138750D01*
X60359324Y-77985500D01*
X60379324Y-77985500D01*
X60379324Y-78239500D01*
X60359324Y-78239500D01*
X60359324Y-78259500D01*
X60105324Y-78259500D01*
X60105324Y-78239500D01*
X59256074Y-78239500D01*
X59097324Y-78398250D01*
X59097324Y-78736309D01*
X59193997Y-78969698D01*
X59372625Y-79148327D01*
X59519900Y-79209330D01*
X59471396Y-79281920D01*
X59449898Y-79390000D01*
X59449898Y-80385000D01*
X59471396Y-80493080D01*
X59532619Y-80584705D01*
X59624244Y-80645928D01*
X59732324Y-80667426D01*
X59869372Y-80667426D01*
X59868330Y-80672664D01*
X59875324Y-80707825D01*
X59875324Y-80832574D01*
X59732324Y-80832574D01*
X59624244Y-80854072D01*
X59532619Y-80915295D01*
X59471396Y-81006920D01*
X59449898Y-81115000D01*
X59449898Y-82110000D01*
X59471396Y-82218080D01*
X59532619Y-82309705D01*
X59624244Y-82370928D01*
X59732324Y-82392426D01*
X60732324Y-82392426D01*
X60840404Y-82370928D01*
X60932029Y-82309705D01*
X60993252Y-82218080D01*
X61014750Y-82110000D01*
X61014750Y-81115000D01*
X61003213Y-81057000D01*
X61593939Y-81057000D01*
X61609072Y-81133080D01*
X61670295Y-81224705D01*
X61761920Y-81285928D01*
X61870000Y-81307426D01*
X62930000Y-81307426D01*
X63038080Y-81285928D01*
X63129705Y-81224705D01*
X63190928Y-81133080D01*
X63212426Y-81025000D01*
X63212426Y-80375000D01*
X63198237Y-80303666D01*
X63375282Y-80377000D01*
X63624718Y-80377000D01*
X63801763Y-80303666D01*
X63787574Y-80375000D01*
X63787574Y-81025000D01*
X63809072Y-81133080D01*
X63870295Y-81224705D01*
X63961920Y-81285928D01*
X64070000Y-81307426D01*
X64255501Y-81307426D01*
X64255500Y-81967574D01*
X64115000Y-81967574D01*
X64006920Y-81989072D01*
X63915295Y-82050295D01*
X63854072Y-82141920D01*
X63832574Y-82250000D01*
X63832574Y-83250000D01*
X63854072Y-83358080D01*
X63915295Y-83449705D01*
X64006920Y-83510928D01*
X64115000Y-83532426D01*
X64887553Y-83532426D01*
X66228126Y-84873000D01*
X60384375Y-84873000D01*
X60605167Y-84781545D01*
X60781545Y-84605167D01*
X60877000Y-84374718D01*
X60877000Y-84125282D01*
X60875765Y-84122300D01*
X60932029Y-84084705D01*
X60993252Y-83993080D01*
X61014750Y-83885000D01*
X61014750Y-82890000D01*
X60993252Y-82781920D01*
X60932029Y-82690295D01*
X60840404Y-82629072D01*
X60732324Y-82607574D01*
X59732324Y-82607574D01*
X59624244Y-82629072D01*
X59532619Y-82690295D01*
X59471396Y-82781920D01*
X59449898Y-82890000D01*
X59449898Y-83885000D01*
X59471396Y-83993080D01*
X59532619Y-84084705D01*
X59623000Y-84145097D01*
X59623000Y-84374718D01*
X59718455Y-84605167D01*
X59894833Y-84781545D01*
X60115625Y-84873000D01*
X57500000Y-84873000D01*
X57451399Y-84882667D01*
X57410197Y-84910197D01*
X57382667Y-84951399D01*
X57373000Y-85000000D01*
X57373000Y-87709720D01*
X57288327Y-87505302D01*
X57109699Y-87326673D01*
X56876310Y-87230000D01*
X56535750Y-87230000D01*
X56377000Y-87388750D01*
X56377000Y-88235500D01*
X56397000Y-88235500D01*
X56397000Y-88489500D01*
X56377000Y-88489500D01*
X56377000Y-88509500D01*
X56123000Y-88509500D01*
X56123000Y-88489500D01*
X55273750Y-88489500D01*
X55115000Y-88648250D01*
X55115000Y-88986309D01*
X55171619Y-89123000D01*
X51877000Y-89123000D01*
X51877000Y-88290104D01*
X52889501Y-88290104D01*
X52926648Y-88505217D01*
X53354972Y-88648112D01*
X53805375Y-88616217D01*
X54073352Y-88505217D01*
X54110499Y-88290104D01*
X53500000Y-87679605D01*
X52889501Y-88290104D01*
X51877000Y-88290104D01*
X51877000Y-87354972D01*
X52351888Y-87354972D01*
X52383783Y-87805375D01*
X52494783Y-88073352D01*
X52709896Y-88110499D01*
X53320395Y-87500000D01*
X53679605Y-87500000D01*
X54290104Y-88110499D01*
X54505217Y-88073352D01*
X54616864Y-87738691D01*
X55115000Y-87738691D01*
X55115000Y-88076750D01*
X55273750Y-88235500D01*
X56123000Y-88235500D01*
X56123000Y-87388750D01*
X55964250Y-87230000D01*
X55623690Y-87230000D01*
X55390301Y-87326673D01*
X55211673Y-87505302D01*
X55115000Y-87738691D01*
X54616864Y-87738691D01*
X54648112Y-87645028D01*
X54616217Y-87194625D01*
X54505217Y-86926648D01*
X54290104Y-86889501D01*
X53679605Y-87500000D01*
X53320395Y-87500000D01*
X52709896Y-86889501D01*
X52494783Y-86926648D01*
X52351888Y-87354972D01*
X51877000Y-87354972D01*
X51877000Y-86709896D01*
X52889501Y-86709896D01*
X53500000Y-87320395D01*
X54110499Y-86709896D01*
X54073352Y-86494783D01*
X53645028Y-86351888D01*
X53194625Y-86383783D01*
X52926648Y-86494783D01*
X52889501Y-86709896D01*
X51877000Y-86709896D01*
X51877000Y-77794220D01*
X52030438Y-77947658D01*
X53308382Y-78477000D01*
X54691618Y-78477000D01*
X55969562Y-77947658D01*
X56428529Y-77488691D01*
X59097324Y-77488691D01*
X59097324Y-77826750D01*
X59256074Y-77985500D01*
X60105324Y-77985500D01*
X60105324Y-77138750D01*
X59946574Y-76980000D01*
X59606014Y-76980000D01*
X59372625Y-77076673D01*
X59193997Y-77255302D01*
X59097324Y-77488691D01*
X56428529Y-77488691D01*
X56947658Y-76969562D01*
X57353948Y-75988691D01*
X65615000Y-75988691D01*
X65615000Y-76326750D01*
X65773750Y-76485500D01*
X66623000Y-76485500D01*
X66623000Y-75638750D01*
X66877000Y-75638750D01*
X66877000Y-76485500D01*
X67726250Y-76485500D01*
X67750000Y-76461750D01*
X67773750Y-76485500D01*
X68623000Y-76485500D01*
X68623000Y-75638750D01*
X68877000Y-75638750D01*
X68877000Y-76485500D01*
X69726250Y-76485500D01*
X69885000Y-76326750D01*
X69885000Y-75988691D01*
X69788327Y-75755302D01*
X69609699Y-75576673D01*
X69376310Y-75480000D01*
X69035750Y-75480000D01*
X68877000Y-75638750D01*
X68623000Y-75638750D01*
X68464250Y-75480000D01*
X68123690Y-75480000D01*
X67890301Y-75576673D01*
X67750000Y-75716975D01*
X67609699Y-75576673D01*
X67376310Y-75480000D01*
X67035750Y-75480000D01*
X66877000Y-75638750D01*
X66623000Y-75638750D01*
X66464250Y-75480000D01*
X66123690Y-75480000D01*
X65890301Y-75576673D01*
X65711673Y-75755302D01*
X65615000Y-75988691D01*
X57353948Y-75988691D01*
X57477000Y-75691618D01*
X57477000Y-74308382D01*
X56947658Y-73030438D01*
X56794220Y-72877000D01*
X77623000Y-72877000D01*
X77623000Y-84873000D01*
M02*
