M48
;DRILL file {KiCad 5.0.0-rc1-44a33f2~62~ubuntu18.04.1} date Wed Apr 18 04:45:11 2018
;FORMAT={-:-/ absolute / metric / decimal}
FMAT,2
METRIC,TZ
T1C0.300
T2C1.000
T3C3.200
T4C2.500
%
G90
G05
M71
T1
X55.65Y-103.5
X55.65Y-105.25
X55.65Y-107.
X55.65Y-108.75
X55.65Y-110.5
X56.5Y-96.75
X56.75Y-95.5
X58.Y-95.5
X58.75Y-88.25
X58.75Y-101.212
X58.75Y-103.5
X58.75Y-105.25
X58.75Y-107.
X58.75Y-108.75
X58.75Y-110.5
X60.25Y-84.25
X60.5Y-103.5
X62.25Y-95.75
X63.5Y-79.75
X64.14Y-93.25
X64.14Y-95.25
X64.14Y-97.25
X64.25Y-105.75
X64.5Y-86.75
X64.75Y-100.5
X64.75Y-101.83
X65.Y-91.5
X65.Y-99.5
X65.75Y-100.5
X65.75Y-101.83
X66.25Y-90.64
X66.5Y-105.75
X66.75Y-79.5
X66.75Y-81.
X66.75Y-100.36
X67.5Y-82.75
X67.5Y-90.75
X67.75Y-89.75
X67.75Y-103.
X68.5Y-105.75
X68.5Y-115.
X68.75Y-89.
X68.75Y-90.5
X69.542Y-89.467
X70.Y-88.5
X70.5Y-83.
X70.5Y-111.
X70.53Y-90.5
X71.25Y-85.75
X71.25Y-88.5
X71.796Y-100.36
X72.25Y-83.
X72.25Y-86.5
X72.25Y-90.64
X72.611Y-76.
X73.Y-99.5
X73.75Y-89.75
X73.75Y-91.75
X73.75Y-113.75
X73.86Y-97.25
X74.25Y-83.
X74.25Y-99.75
X74.5Y-96.
X74.835Y-112.895
X75.5Y-96.
X75.5Y-108.
X76.Y-83.
X76.25Y-94.75
X76.25Y-96.75
X77.Y-92.5
X77.5Y-80.25
X77.5Y-81.
X77.5Y-81.75
X77.5Y-95.25
X77.75Y-99.75
X78.Y-87.25
X78.Y-115.
X78.11Y-96.75
X78.33Y-91.491
X79.5Y-86.5
X80.Y-111.
X80.14Y-92.75
X80.14Y-94.75
X82.Y-90.75
X82.94Y-93.44
X82.94Y-95.5
X82.94Y-97.56
X83.25Y-115.
X84.179Y-90.75
X85.Y-93.44
X85.Y-95.5
X85.Y-97.56
X85.75Y-91.
X85.75Y-87.75
X85.75Y-114.
X86.25Y-97.55
X86.5Y-90.25
X86.5Y-100.36
X86.75Y-111.75
X87.05Y-97.55
X87.05Y-96.75
X87.06Y-93.44
X87.06Y-95.5
X87.25Y-90.75
X87.895Y-112.895
X88.Y-100.36
X88.5Y-88.5
X88.75Y-83.25
X89.Y-108.
X89.75Y-100.75
X89.86Y-93.75
X89.86Y-96.75
X89.86Y-95.25
X90.86Y-108.
X91.5Y-99.25
X91.75Y-110.5
X92.Y-88.75
X92.25Y-85.
X92.25Y-86.75
X93.5Y-108.
X94.Y-94.5
X94.5Y-108.
X94.75Y-88.75
X94.75Y-93.
X95.75Y-79.75
X95.75Y-88.75
X95.75Y-93.75
X96.61Y-108.
X96.75Y-83.89
X96.75Y-88.75
X96.75Y-94.5
X97.5Y-102.75
X98.Y-92.75
X98.25Y-85.
X98.25Y-86.
X99.25Y-104.25
X100.25Y-85.
X100.25Y-86.
X100.25Y-107.25
X100.5Y-105.25
X107.Y-86.
X107.Y-105.
X107.Y-106.
X108.5Y-82.89
X108.5Y-84.75
X108.75Y-87.
X108.75Y-93.
X109.Y-105.
X109.Y-106.
X109.75Y-94.
X109.75Y-89.
X110.5Y-106.61
X110.965Y-104.535
X111.39Y-83.
X111.61Y-89.
X113.5Y-83.
X114.5Y-83.
X115.Y-104.
X115.Y-105.75
X118.5Y-107.75
X72.267Y-79.157
X72.267Y-80.157
X73.267Y-79.157
X73.267Y-80.157
X66.46Y-92.96
X66.46Y-94.23
X66.46Y-95.5
X66.46Y-96.77
X66.46Y-98.04
X67.73Y-92.96
X67.73Y-94.23
X67.73Y-95.5
X67.73Y-96.77
X67.73Y-98.04
X69.Y-92.96
X69.Y-94.23
X69.Y-95.5
X69.Y-96.77
X69.Y-98.04
X70.27Y-92.96
X70.27Y-94.23
X70.27Y-95.5
X70.27Y-96.77
X70.27Y-98.04
X71.54Y-92.96
X71.54Y-94.23
X71.54Y-95.5
X71.54Y-96.77
X71.54Y-98.04
T2
X92.57Y-75.19
X92.57Y-77.73
X95.11Y-75.19
X95.11Y-77.73
X97.65Y-75.19
X97.65Y-77.73
X100.19Y-75.19
X100.19Y-77.73
X102.73Y-75.19
X102.73Y-77.73
X105.27Y-75.19
X105.27Y-77.73
X107.81Y-75.19
X107.81Y-77.73
X110.35Y-75.19
X110.35Y-77.73
X112.89Y-75.19
X112.89Y-77.73
X115.43Y-75.19
X115.43Y-77.73
X79.75Y-83.25
X82.29Y-83.25
X92.57Y-113.19
X92.57Y-115.73
X95.11Y-113.19
X95.11Y-115.73
X97.65Y-113.19
X97.65Y-115.73
X100.19Y-113.19
X100.19Y-115.73
X102.73Y-113.19
X102.73Y-115.73
X105.27Y-113.19
X105.27Y-115.73
X107.81Y-113.19
X107.81Y-115.73
X110.35Y-113.19
X110.35Y-115.73
X112.89Y-113.19
X112.89Y-115.73
X115.43Y-113.19
X115.43Y-115.73
T3
X54.Y-116.
X54.Y-75.
X126.Y-116.
X126.Y-75.
T4
X122.5Y-85.
X122.5Y-105.
T0
M30
