G04 #@! TF.GenerationSoftware,KiCad,Pcbnew,5.0.0-rc1-44a33f2~62~ubuntu18.04.1*
G04 #@! TF.CreationDate,2018-04-18T04:45:04+00:00*
G04 #@! TF.ProjectId,glasgow,676C6173676F772E6B696361645F7063,rev?*
G04 #@! TF.SameCoordinates,Original*
G04 #@! TF.FileFunction,Copper,L2,Inr,Plane*
G04 #@! TF.FilePolarity,Positive*
%FSLAX46Y46*%
G04 Gerber Fmt 4.6, Leading zero omitted, Abs format (unit mm)*
G04 Created by KiCad (PCBNEW 5.0.0-rc1-44a33f2~62~ubuntu18.04.1) date Wed Apr 18 04:45:04 2018*
%MOMM*%
%LPD*%
G01*
G04 APERTURE LIST*
%ADD10C,0.600000*%
%ADD11C,0.558800*%
%ADD12R,1.700000X1.700000*%
%ADD13O,1.700000X1.700000*%
%ADD14C,6.400000*%
%ADD15C,0.700000*%
%ADD16C,0.254000*%
G04 APERTURE END LIST*
D10*
X73266581Y-79156916D03*
X73266581Y-80156916D03*
X72266581Y-80156916D03*
X72266581Y-79156916D03*
D11*
X66460000Y-98040000D03*
X67730000Y-98040000D03*
X69000000Y-98040000D03*
X70270000Y-98040000D03*
X71540000Y-98040000D03*
X71540000Y-96770000D03*
X70270000Y-96770000D03*
X69000000Y-96770000D03*
X67730000Y-96770000D03*
X66460000Y-96770000D03*
X66460000Y-92960000D03*
X67730000Y-92960000D03*
X69000000Y-92960000D03*
X70270000Y-92960000D03*
X71540000Y-92960000D03*
X71540000Y-94230000D03*
X70270000Y-94230000D03*
X69000000Y-94230000D03*
X67730000Y-94230000D03*
X66460000Y-94230000D03*
X66460000Y-95500000D03*
X67730000Y-95500000D03*
X71540000Y-95500000D03*
X70270000Y-95500000D03*
X69000000Y-95500000D03*
D12*
X79750000Y-83250000D03*
D13*
X82290000Y-83250000D03*
X115430000Y-75190000D03*
X115430000Y-77730000D03*
X112890000Y-75190000D03*
X112890000Y-77730000D03*
X110350000Y-75190000D03*
X110350000Y-77730000D03*
X107810000Y-75190000D03*
X107810000Y-77730000D03*
X105270000Y-75190000D03*
X105270000Y-77730000D03*
X102730000Y-75190000D03*
X102730000Y-77730000D03*
X100190000Y-75190000D03*
X100190000Y-77730000D03*
X97650000Y-75190000D03*
X97650000Y-77730000D03*
X95110000Y-75190000D03*
X95110000Y-77730000D03*
X92570000Y-75190000D03*
D12*
X92570000Y-77730000D03*
X115430000Y-113190000D03*
D13*
X115430000Y-115730000D03*
X112890000Y-113190000D03*
X112890000Y-115730000D03*
X110350000Y-113190000D03*
X110350000Y-115730000D03*
X107810000Y-113190000D03*
X107810000Y-115730000D03*
X105270000Y-113190000D03*
X105270000Y-115730000D03*
X102730000Y-113190000D03*
X102730000Y-115730000D03*
X100190000Y-113190000D03*
X100190000Y-115730000D03*
X97650000Y-113190000D03*
X97650000Y-115730000D03*
X95110000Y-113190000D03*
X95110000Y-115730000D03*
X92570000Y-113190000D03*
X92570000Y-115730000D03*
D14*
X54000000Y-116000000D03*
X54000000Y-75000000D03*
X126000000Y-75000000D03*
X126000000Y-116000000D03*
D15*
X109749990Y-94000000D03*
X108750000Y-93000000D03*
X72250000Y-90639998D03*
X100250000Y-107250000D03*
X64500000Y-86750000D03*
X74250000Y-83000000D03*
X88750000Y-83250002D03*
X91750000Y-110500000D03*
X89000000Y-108000000D03*
X76000000Y-83000000D03*
X70500000Y-83000000D03*
X75500000Y-107999994D03*
X72250000Y-86500000D03*
X77500000Y-95250000D03*
X76250000Y-94750000D03*
X70530055Y-90500000D03*
X78000000Y-87250000D03*
X72250000Y-83000000D03*
X86750000Y-111750000D03*
X94750000Y-93000000D03*
X92000000Y-88750000D03*
X86500000Y-90250000D03*
X94750000Y-88750000D03*
X74250000Y-99750000D03*
X90860002Y-108000000D03*
X115000000Y-105750000D03*
X107000000Y-105000000D03*
X108500000Y-84750000D03*
X111610002Y-89000000D03*
X100250000Y-86000000D03*
X92250000Y-85000000D03*
X89750000Y-100750000D03*
X60500000Y-103500000D03*
X68500000Y-105750000D03*
X66500000Y-105750000D03*
X64250000Y-105750000D03*
X76250000Y-96750000D03*
X96610002Y-108000000D03*
X99250000Y-104250000D03*
X118500000Y-107750000D03*
X110964870Y-104535130D03*
X115000000Y-104000000D03*
X110500000Y-106610002D03*
X109000000Y-105000000D03*
X109000000Y-106000000D03*
X108750000Y-87000000D03*
X96750000Y-83889998D03*
X111389998Y-83000000D03*
X109750000Y-89000000D03*
X98250000Y-85000000D03*
X98250000Y-86000000D03*
X92250000Y-86750000D03*
X91500000Y-99250000D03*
X55650000Y-110500000D03*
X55650000Y-108750000D03*
X71796041Y-100360012D03*
X79500000Y-86500000D03*
X67500000Y-82750000D03*
X66250000Y-90639998D03*
X64139998Y-93250000D03*
X64139998Y-95250000D03*
X64139998Y-97250000D03*
X66750000Y-100360002D03*
X73860002Y-97250000D03*
X73750000Y-89750000D03*
X80139998Y-92750000D03*
X89860002Y-93750000D03*
X88000000Y-100360002D03*
X86500000Y-100360002D03*
X55650000Y-107000002D03*
X55650000Y-105250002D03*
X55650000Y-103500002D03*
X100500000Y-105249998D03*
X60250000Y-84250000D03*
X87894999Y-112895001D03*
X74834999Y-112895001D03*
X95750000Y-93750000D03*
X87250000Y-90750000D03*
X95750000Y-88750000D03*
X94500000Y-108000000D03*
X77500000Y-81750000D03*
X77500000Y-80250000D03*
X77500000Y-81000000D03*
X113500000Y-83000000D03*
X78330010Y-91490604D03*
X72610579Y-76000000D03*
X63500000Y-79750000D03*
X87050002Y-96750000D03*
X86250000Y-97550002D03*
X73750000Y-91750000D03*
X87050000Y-97550000D03*
X87060000Y-95500000D03*
X65750000Y-100500000D03*
X65750000Y-101830010D03*
X85000000Y-97560000D03*
X82940000Y-97560000D03*
X85000000Y-95500000D03*
X82940000Y-95500000D03*
X87060000Y-93440000D03*
X85000000Y-93440000D03*
X82940000Y-93440000D03*
X56750000Y-95500000D03*
X58000000Y-95500000D03*
X78110002Y-96750000D03*
X107000000Y-106000000D03*
X95750000Y-79750000D03*
X100250000Y-85000000D03*
X89860002Y-96750000D03*
X78000000Y-115000000D03*
X68500000Y-115000000D03*
X73750000Y-113750000D03*
X83250000Y-115000000D03*
X107000000Y-86000000D03*
X80000000Y-111000000D03*
X70500000Y-111000000D03*
X56500000Y-96750000D03*
X58750000Y-88250000D03*
X62250000Y-95750000D03*
X65000000Y-99500000D03*
X65000000Y-91500000D03*
X73000000Y-99500000D03*
X58750000Y-101212500D03*
X64750000Y-100500000D03*
X64750000Y-101830010D03*
X80139998Y-94750000D03*
X89860044Y-95250000D03*
X66750000Y-81000000D03*
X66750000Y-79500000D03*
X74500000Y-96000016D03*
X70000000Y-88500000D03*
X68750000Y-90500000D03*
X68750000Y-89000000D03*
X69542346Y-89467060D03*
X67750000Y-103000000D03*
X67500000Y-90750000D03*
X75500000Y-96000000D03*
X77750000Y-99750000D03*
X67750000Y-89750000D03*
X85750000Y-114000000D03*
X71250000Y-85750000D03*
X71250000Y-88500000D03*
X84178928Y-90750000D03*
X82000000Y-90750000D03*
X77000000Y-92500000D03*
X85750000Y-87750000D03*
X85749993Y-91000007D03*
X58750000Y-105250000D03*
X58750000Y-110500000D03*
X58750000Y-108750000D03*
X58750000Y-107000000D03*
X58750000Y-103500000D03*
X97999974Y-92750000D03*
X97500000Y-102750000D03*
X94000000Y-94500000D03*
X96750000Y-88749992D03*
X96750000Y-94500000D03*
X108500000Y-82889998D03*
X88500000Y-88500000D03*
X114500000Y-83000000D03*
X93500000Y-108000000D03*
D16*
G36*
X123849754Y-71734181D02*
X123805640Y-71763657D01*
X123438695Y-72259090D01*
X126000000Y-74820395D01*
X126014143Y-74806253D01*
X126193748Y-74985858D01*
X126179605Y-75000000D01*
X128740910Y-77561305D01*
X129236343Y-77194360D01*
X129315000Y-77008050D01*
X129315001Y-113970806D01*
X129265819Y-113849754D01*
X129236343Y-113805640D01*
X128740910Y-113438695D01*
X126179605Y-116000000D01*
X126193748Y-116014143D01*
X126014143Y-116193748D01*
X126000000Y-116179605D01*
X123438695Y-118740910D01*
X123805640Y-119236343D01*
X123991950Y-119315000D01*
X56029196Y-119315000D01*
X56150246Y-119265819D01*
X56194360Y-119236343D01*
X56561305Y-118740910D01*
X54000000Y-116179605D01*
X53985858Y-116193748D01*
X53806253Y-116014143D01*
X53820395Y-116000000D01*
X54179605Y-116000000D01*
X56740910Y-118561305D01*
X57236343Y-118194360D01*
X57829736Y-116788829D01*
X57834498Y-116086892D01*
X91128514Y-116086892D01*
X91374817Y-116611358D01*
X91803076Y-117001645D01*
X92213110Y-117171476D01*
X92443000Y-117050155D01*
X92443000Y-115857000D01*
X92697000Y-115857000D01*
X92697000Y-117050155D01*
X92926890Y-117171476D01*
X93336924Y-117001645D01*
X93765183Y-116611358D01*
X93840000Y-116452046D01*
X93914817Y-116611358D01*
X94343076Y-117001645D01*
X94753110Y-117171476D01*
X94983000Y-117050155D01*
X94983000Y-115857000D01*
X95237000Y-115857000D01*
X95237000Y-117050155D01*
X95466890Y-117171476D01*
X95876924Y-117001645D01*
X96305183Y-116611358D01*
X96380000Y-116452046D01*
X96454817Y-116611358D01*
X96883076Y-117001645D01*
X97293110Y-117171476D01*
X97523000Y-117050155D01*
X97523000Y-115857000D01*
X97777000Y-115857000D01*
X97777000Y-117050155D01*
X98006890Y-117171476D01*
X98416924Y-117001645D01*
X98845183Y-116611358D01*
X98920000Y-116452046D01*
X98994817Y-116611358D01*
X99423076Y-117001645D01*
X99833110Y-117171476D01*
X100063000Y-117050155D01*
X100063000Y-115857000D01*
X100317000Y-115857000D01*
X100317000Y-117050155D01*
X100546890Y-117171476D01*
X100956924Y-117001645D01*
X101385183Y-116611358D01*
X101460000Y-116452046D01*
X101534817Y-116611358D01*
X101963076Y-117001645D01*
X102373110Y-117171476D01*
X102603000Y-117050155D01*
X102603000Y-115857000D01*
X102857000Y-115857000D01*
X102857000Y-117050155D01*
X103086890Y-117171476D01*
X103496924Y-117001645D01*
X103925183Y-116611358D01*
X104000000Y-116452046D01*
X104074817Y-116611358D01*
X104503076Y-117001645D01*
X104913110Y-117171476D01*
X105143000Y-117050155D01*
X105143000Y-115857000D01*
X105397000Y-115857000D01*
X105397000Y-117050155D01*
X105626890Y-117171476D01*
X106036924Y-117001645D01*
X106465183Y-116611358D01*
X106540000Y-116452046D01*
X106614817Y-116611358D01*
X107043076Y-117001645D01*
X107453110Y-117171476D01*
X107683000Y-117050155D01*
X107683000Y-115857000D01*
X107937000Y-115857000D01*
X107937000Y-117050155D01*
X108166890Y-117171476D01*
X108576924Y-117001645D01*
X109005183Y-116611358D01*
X109080000Y-116452046D01*
X109154817Y-116611358D01*
X109583076Y-117001645D01*
X109993110Y-117171476D01*
X110223000Y-117050155D01*
X110223000Y-115857000D01*
X110477000Y-115857000D01*
X110477000Y-117050155D01*
X110706890Y-117171476D01*
X111116924Y-117001645D01*
X111545183Y-116611358D01*
X111620000Y-116452046D01*
X111694817Y-116611358D01*
X112123076Y-117001645D01*
X112533110Y-117171476D01*
X112763000Y-117050155D01*
X112763000Y-115857000D01*
X110477000Y-115857000D01*
X110223000Y-115857000D01*
X107937000Y-115857000D01*
X107683000Y-115857000D01*
X105397000Y-115857000D01*
X105143000Y-115857000D01*
X102857000Y-115857000D01*
X102603000Y-115857000D01*
X100317000Y-115857000D01*
X100063000Y-115857000D01*
X97777000Y-115857000D01*
X97523000Y-115857000D01*
X95237000Y-115857000D01*
X94983000Y-115857000D01*
X92697000Y-115857000D01*
X92443000Y-115857000D01*
X91249181Y-115857000D01*
X91128514Y-116086892D01*
X57834498Y-116086892D01*
X57840087Y-115263207D01*
X57653546Y-114804071D01*
X67515000Y-114804071D01*
X67515000Y-115195929D01*
X67664958Y-115557958D01*
X67942042Y-115835042D01*
X68304071Y-115985000D01*
X68695929Y-115985000D01*
X69057958Y-115835042D01*
X69335042Y-115557958D01*
X69485000Y-115195929D01*
X69485000Y-114804071D01*
X77015000Y-114804071D01*
X77015000Y-115195929D01*
X77164958Y-115557958D01*
X77442042Y-115835042D01*
X77804071Y-115985000D01*
X78195929Y-115985000D01*
X78557958Y-115835042D01*
X78835042Y-115557958D01*
X78985000Y-115195929D01*
X78985000Y-114804071D01*
X82265000Y-114804071D01*
X82265000Y-115195929D01*
X82414958Y-115557958D01*
X82692042Y-115835042D01*
X83054071Y-115985000D01*
X83445929Y-115985000D01*
X83807958Y-115835042D01*
X84085042Y-115557958D01*
X84235000Y-115195929D01*
X84235000Y-114804071D01*
X84085042Y-114442042D01*
X83807958Y-114164958D01*
X83445929Y-114015000D01*
X83054071Y-114015000D01*
X82692042Y-114164958D01*
X82414958Y-114442042D01*
X82265000Y-114804071D01*
X78985000Y-114804071D01*
X78835042Y-114442042D01*
X78557958Y-114164958D01*
X78195929Y-114015000D01*
X77804071Y-114015000D01*
X77442042Y-114164958D01*
X77164958Y-114442042D01*
X77015000Y-114804071D01*
X69485000Y-114804071D01*
X69335042Y-114442042D01*
X69057958Y-114164958D01*
X68695929Y-114015000D01*
X68304071Y-114015000D01*
X67942042Y-114164958D01*
X67664958Y-114442042D01*
X67515000Y-114804071D01*
X57653546Y-114804071D01*
X57265819Y-113849754D01*
X57236343Y-113805640D01*
X56896686Y-113554071D01*
X72765000Y-113554071D01*
X72765000Y-113945929D01*
X72914958Y-114307958D01*
X73192042Y-114585042D01*
X73554071Y-114735000D01*
X73945929Y-114735000D01*
X74307958Y-114585042D01*
X74585042Y-114307958D01*
X74735000Y-113945929D01*
X74735000Y-113880001D01*
X75030928Y-113880001D01*
X75214238Y-113804071D01*
X84765000Y-113804071D01*
X84765000Y-114195929D01*
X84914958Y-114557958D01*
X85192042Y-114835042D01*
X85554071Y-114985000D01*
X85945929Y-114985000D01*
X86307958Y-114835042D01*
X86585042Y-114557958D01*
X86735000Y-114195929D01*
X86735000Y-113804071D01*
X86585042Y-113442042D01*
X86307958Y-113164958D01*
X85945929Y-113015000D01*
X85554071Y-113015000D01*
X85192042Y-113164958D01*
X84914958Y-113442042D01*
X84765000Y-113804071D01*
X75214238Y-113804071D01*
X75392957Y-113730043D01*
X75670041Y-113452959D01*
X75819999Y-113090930D01*
X75819999Y-112699072D01*
X75670041Y-112337043D01*
X75392957Y-112059959D01*
X75030928Y-111910001D01*
X74639070Y-111910001D01*
X74277041Y-112059959D01*
X73999957Y-112337043D01*
X73849999Y-112699072D01*
X73849999Y-112765000D01*
X73554071Y-112765000D01*
X73192042Y-112914958D01*
X72914958Y-113192042D01*
X72765000Y-113554071D01*
X56896686Y-113554071D01*
X56740910Y-113438695D01*
X54179605Y-116000000D01*
X53820395Y-116000000D01*
X51259090Y-113438695D01*
X50763657Y-113805640D01*
X50685000Y-113991950D01*
X50685000Y-113259090D01*
X51438695Y-113259090D01*
X54000000Y-115820395D01*
X56561305Y-113259090D01*
X56194360Y-112763657D01*
X54788829Y-112170264D01*
X53263207Y-112159913D01*
X51849754Y-112734181D01*
X51805640Y-112763657D01*
X51438695Y-113259090D01*
X50685000Y-113259090D01*
X50685000Y-111554071D01*
X85765000Y-111554071D01*
X85765000Y-111945929D01*
X85914958Y-112307958D01*
X86192042Y-112585042D01*
X86554071Y-112735000D01*
X86909999Y-112735000D01*
X86909999Y-113090930D01*
X87059957Y-113452959D01*
X87337041Y-113730043D01*
X87699070Y-113880001D01*
X88090928Y-113880001D01*
X88452957Y-113730043D01*
X88730041Y-113452959D01*
X88838962Y-113190000D01*
X91055908Y-113190000D01*
X91171161Y-113769418D01*
X91499375Y-114260625D01*
X91799786Y-114461353D01*
X91374817Y-114848642D01*
X91128514Y-115373108D01*
X91249181Y-115603000D01*
X92443000Y-115603000D01*
X92443000Y-115583000D01*
X92697000Y-115583000D01*
X92697000Y-115603000D01*
X94983000Y-115603000D01*
X94983000Y-115583000D01*
X95237000Y-115583000D01*
X95237000Y-115603000D01*
X97523000Y-115603000D01*
X97523000Y-115583000D01*
X97777000Y-115583000D01*
X97777000Y-115603000D01*
X100063000Y-115603000D01*
X100063000Y-115583000D01*
X100317000Y-115583000D01*
X100317000Y-115603000D01*
X102603000Y-115603000D01*
X102603000Y-115583000D01*
X102857000Y-115583000D01*
X102857000Y-115603000D01*
X105143000Y-115603000D01*
X105143000Y-115583000D01*
X105397000Y-115583000D01*
X105397000Y-115603000D01*
X107683000Y-115603000D01*
X107683000Y-115583000D01*
X107937000Y-115583000D01*
X107937000Y-115603000D01*
X110223000Y-115603000D01*
X110223000Y-115583000D01*
X110477000Y-115583000D01*
X110477000Y-115603000D01*
X112763000Y-115603000D01*
X112763000Y-115583000D01*
X113017000Y-115583000D01*
X113017000Y-115603000D01*
X113037000Y-115603000D01*
X113037000Y-115857000D01*
X113017000Y-115857000D01*
X113017000Y-117050155D01*
X113246890Y-117171476D01*
X113656924Y-117001645D01*
X114085183Y-116611358D01*
X114146157Y-116481522D01*
X114359375Y-116800625D01*
X114850582Y-117128839D01*
X115283744Y-117215000D01*
X115576256Y-117215000D01*
X116009418Y-117128839D01*
X116500625Y-116800625D01*
X116543276Y-116736793D01*
X122159913Y-116736793D01*
X122734181Y-118150246D01*
X122763657Y-118194360D01*
X123259090Y-118561305D01*
X125820395Y-116000000D01*
X123259090Y-113438695D01*
X122763657Y-113805640D01*
X122170264Y-115211171D01*
X122159913Y-116736793D01*
X116543276Y-116736793D01*
X116828839Y-116309418D01*
X116944092Y-115730000D01*
X116828839Y-115150582D01*
X116500625Y-114659375D01*
X116482381Y-114647184D01*
X116527765Y-114638157D01*
X116737809Y-114497809D01*
X116878157Y-114287765D01*
X116927440Y-114040000D01*
X116927440Y-113259090D01*
X123438695Y-113259090D01*
X126000000Y-115820395D01*
X128561305Y-113259090D01*
X128194360Y-112763657D01*
X126788829Y-112170264D01*
X125263207Y-112159913D01*
X123849754Y-112734181D01*
X123805640Y-112763657D01*
X123438695Y-113259090D01*
X116927440Y-113259090D01*
X116927440Y-112340000D01*
X116878157Y-112092235D01*
X116737809Y-111882191D01*
X116527765Y-111741843D01*
X116280000Y-111692560D01*
X114580000Y-111692560D01*
X114332235Y-111741843D01*
X114122191Y-111882191D01*
X113981843Y-112092235D01*
X113972816Y-112137619D01*
X113960625Y-112119375D01*
X113469418Y-111791161D01*
X113036256Y-111705000D01*
X112743744Y-111705000D01*
X112310582Y-111791161D01*
X111819375Y-112119375D01*
X111620000Y-112417761D01*
X111420625Y-112119375D01*
X110929418Y-111791161D01*
X110496256Y-111705000D01*
X110203744Y-111705000D01*
X109770582Y-111791161D01*
X109279375Y-112119375D01*
X109080000Y-112417761D01*
X108880625Y-112119375D01*
X108389418Y-111791161D01*
X107956256Y-111705000D01*
X107663744Y-111705000D01*
X107230582Y-111791161D01*
X106739375Y-112119375D01*
X106540000Y-112417761D01*
X106340625Y-112119375D01*
X105849418Y-111791161D01*
X105416256Y-111705000D01*
X105123744Y-111705000D01*
X104690582Y-111791161D01*
X104199375Y-112119375D01*
X104000000Y-112417761D01*
X103800625Y-112119375D01*
X103309418Y-111791161D01*
X102876256Y-111705000D01*
X102583744Y-111705000D01*
X102150582Y-111791161D01*
X101659375Y-112119375D01*
X101460000Y-112417761D01*
X101260625Y-112119375D01*
X100769418Y-111791161D01*
X100336256Y-111705000D01*
X100043744Y-111705000D01*
X99610582Y-111791161D01*
X99119375Y-112119375D01*
X98920000Y-112417761D01*
X98720625Y-112119375D01*
X98229418Y-111791161D01*
X97796256Y-111705000D01*
X97503744Y-111705000D01*
X97070582Y-111791161D01*
X96579375Y-112119375D01*
X96380000Y-112417761D01*
X96180625Y-112119375D01*
X95689418Y-111791161D01*
X95256256Y-111705000D01*
X94963744Y-111705000D01*
X94530582Y-111791161D01*
X94039375Y-112119375D01*
X93840000Y-112417761D01*
X93640625Y-112119375D01*
X93149418Y-111791161D01*
X92716256Y-111705000D01*
X92423744Y-111705000D01*
X91990582Y-111791161D01*
X91499375Y-112119375D01*
X91171161Y-112610582D01*
X91055908Y-113190000D01*
X88838962Y-113190000D01*
X88879999Y-113090930D01*
X88879999Y-112699072D01*
X88730041Y-112337043D01*
X88452957Y-112059959D01*
X88090928Y-111910001D01*
X87735000Y-111910001D01*
X87735000Y-111554071D01*
X87585042Y-111192042D01*
X87307958Y-110914958D01*
X86945929Y-110765000D01*
X86554071Y-110765000D01*
X86192042Y-110914958D01*
X85914958Y-111192042D01*
X85765000Y-111554071D01*
X50685000Y-111554071D01*
X50685000Y-103304071D01*
X57765000Y-103304071D01*
X57765000Y-103695929D01*
X57914958Y-104057958D01*
X58192042Y-104335042D01*
X58288509Y-104375000D01*
X58192042Y-104414958D01*
X57914958Y-104692042D01*
X57765000Y-105054071D01*
X57765000Y-105445929D01*
X57914958Y-105807958D01*
X58192042Y-106085042D01*
X58288509Y-106125000D01*
X58192042Y-106164958D01*
X57914958Y-106442042D01*
X57765000Y-106804071D01*
X57765000Y-107195929D01*
X57914958Y-107557958D01*
X58192042Y-107835042D01*
X58288509Y-107875000D01*
X58192042Y-107914958D01*
X57914958Y-108192042D01*
X57765000Y-108554071D01*
X57765000Y-108945929D01*
X57914958Y-109307958D01*
X58192042Y-109585042D01*
X58288509Y-109625000D01*
X58192042Y-109664958D01*
X57914958Y-109942042D01*
X57765000Y-110304071D01*
X57765000Y-110695929D01*
X57914958Y-111057958D01*
X58192042Y-111335042D01*
X58554071Y-111485000D01*
X58945929Y-111485000D01*
X59307958Y-111335042D01*
X59585042Y-111057958D01*
X59735000Y-110695929D01*
X59735000Y-110304071D01*
X59585042Y-109942042D01*
X59307958Y-109664958D01*
X59211491Y-109625000D01*
X59307958Y-109585042D01*
X59585042Y-109307958D01*
X59735000Y-108945929D01*
X59735000Y-108554071D01*
X59585042Y-108192042D01*
X59307958Y-107914958D01*
X59211491Y-107875000D01*
X59307958Y-107835042D01*
X59338935Y-107804065D01*
X74515000Y-107804065D01*
X74515000Y-108195923D01*
X74664958Y-108557952D01*
X74942042Y-108835036D01*
X75304071Y-108984994D01*
X75695929Y-108984994D01*
X76057958Y-108835036D01*
X76335042Y-108557952D01*
X76485000Y-108195923D01*
X76485000Y-107804071D01*
X89875002Y-107804071D01*
X89875002Y-108195929D01*
X90024960Y-108557958D01*
X90302044Y-108835042D01*
X90664073Y-108985000D01*
X91055931Y-108985000D01*
X91417960Y-108835042D01*
X91695044Y-108557958D01*
X91845002Y-108195929D01*
X91845002Y-107804071D01*
X92515000Y-107804071D01*
X92515000Y-108195929D01*
X92664958Y-108557958D01*
X92942042Y-108835042D01*
X93304071Y-108985000D01*
X93695929Y-108985000D01*
X94000000Y-108859049D01*
X94304071Y-108985000D01*
X94695929Y-108985000D01*
X95057958Y-108835042D01*
X95335042Y-108557958D01*
X95485000Y-108195929D01*
X95485000Y-107804071D01*
X95335042Y-107442042D01*
X95057958Y-107164958D01*
X94790255Y-107054071D01*
X99265000Y-107054071D01*
X99265000Y-107445929D01*
X99414958Y-107807958D01*
X99692042Y-108085042D01*
X100054071Y-108235000D01*
X100445929Y-108235000D01*
X100807958Y-108085042D01*
X101085042Y-107807958D01*
X101235000Y-107445929D01*
X101235000Y-107054071D01*
X101085042Y-106692042D01*
X100807958Y-106414958D01*
X100445929Y-106265000D01*
X100054071Y-106265000D01*
X99692042Y-106414958D01*
X99414958Y-106692042D01*
X99265000Y-107054071D01*
X94790255Y-107054071D01*
X94695929Y-107015000D01*
X94304071Y-107015000D01*
X94000000Y-107140951D01*
X93695929Y-107015000D01*
X93304071Y-107015000D01*
X92942042Y-107164958D01*
X92664958Y-107442042D01*
X92515000Y-107804071D01*
X91845002Y-107804071D01*
X91695044Y-107442042D01*
X91417960Y-107164958D01*
X91055931Y-107015000D01*
X90664073Y-107015000D01*
X90302044Y-107164958D01*
X90024960Y-107442042D01*
X89875002Y-107804071D01*
X76485000Y-107804071D01*
X76485000Y-107804065D01*
X76335042Y-107442036D01*
X76057958Y-107164952D01*
X75695929Y-107014994D01*
X75304071Y-107014994D01*
X74942042Y-107164952D01*
X74664958Y-107442036D01*
X74515000Y-107804065D01*
X59338935Y-107804065D01*
X59585042Y-107557958D01*
X59735000Y-107195929D01*
X59735000Y-106804071D01*
X59585042Y-106442042D01*
X59307958Y-106164958D01*
X59211491Y-106125000D01*
X59307958Y-106085042D01*
X59585042Y-105807958D01*
X59690205Y-105554071D01*
X63265000Y-105554071D01*
X63265000Y-105945929D01*
X63414958Y-106307958D01*
X63692042Y-106585042D01*
X64054071Y-106735000D01*
X64445929Y-106735000D01*
X64807958Y-106585042D01*
X65085042Y-106307958D01*
X65235000Y-105945929D01*
X65235000Y-105554071D01*
X65515000Y-105554071D01*
X65515000Y-105945929D01*
X65664958Y-106307958D01*
X65942042Y-106585042D01*
X66304071Y-106735000D01*
X66695929Y-106735000D01*
X67057958Y-106585042D01*
X67335042Y-106307958D01*
X67485000Y-105945929D01*
X67485000Y-105554071D01*
X67515000Y-105554071D01*
X67515000Y-105945929D01*
X67664958Y-106307958D01*
X67942042Y-106585042D01*
X68304071Y-106735000D01*
X68695929Y-106735000D01*
X69057958Y-106585042D01*
X69335042Y-106307958D01*
X69485000Y-105945929D01*
X69485000Y-105554071D01*
X69335042Y-105192042D01*
X69057958Y-104914958D01*
X68790255Y-104804071D01*
X106015000Y-104804071D01*
X106015000Y-105195929D01*
X106140951Y-105500000D01*
X106015000Y-105804071D01*
X106015000Y-106195929D01*
X106164958Y-106557958D01*
X106442042Y-106835042D01*
X106804071Y-106985000D01*
X107195929Y-106985000D01*
X107557958Y-106835042D01*
X107835042Y-106557958D01*
X107985000Y-106195929D01*
X107985000Y-105804071D01*
X107881447Y-105554071D01*
X114015000Y-105554071D01*
X114015000Y-105945929D01*
X114164958Y-106307958D01*
X114442042Y-106585042D01*
X114804071Y-106735000D01*
X115195929Y-106735000D01*
X115557958Y-106585042D01*
X115835042Y-106307958D01*
X115985000Y-105945929D01*
X115985000Y-105554071D01*
X115835042Y-105192042D01*
X115557958Y-104914958D01*
X115195929Y-104765000D01*
X114804071Y-104765000D01*
X114442042Y-104914958D01*
X114164958Y-105192042D01*
X114015000Y-105554071D01*
X107881447Y-105554071D01*
X107859049Y-105500000D01*
X107985000Y-105195929D01*
X107985000Y-104804071D01*
X107910847Y-104625050D01*
X120615000Y-104625050D01*
X120615000Y-105374950D01*
X120901974Y-106067767D01*
X121432233Y-106598026D01*
X122125050Y-106885000D01*
X122874950Y-106885000D01*
X123567767Y-106598026D01*
X124098026Y-106067767D01*
X124385000Y-105374950D01*
X124385000Y-104625050D01*
X124098026Y-103932233D01*
X123567767Y-103401974D01*
X122874950Y-103115000D01*
X122125050Y-103115000D01*
X121432233Y-103401974D01*
X120901974Y-103932233D01*
X120615000Y-104625050D01*
X107910847Y-104625050D01*
X107835042Y-104442042D01*
X107557958Y-104164958D01*
X107195929Y-104015000D01*
X106804071Y-104015000D01*
X106442042Y-104164958D01*
X106164958Y-104442042D01*
X106015000Y-104804071D01*
X68790255Y-104804071D01*
X68695929Y-104765000D01*
X68304071Y-104765000D01*
X67942042Y-104914958D01*
X67664958Y-105192042D01*
X67515000Y-105554071D01*
X67485000Y-105554071D01*
X67335042Y-105192042D01*
X67057958Y-104914958D01*
X66695929Y-104765000D01*
X66304071Y-104765000D01*
X65942042Y-104914958D01*
X65664958Y-105192042D01*
X65515000Y-105554071D01*
X65235000Y-105554071D01*
X65085042Y-105192042D01*
X64807958Y-104914958D01*
X64445929Y-104765000D01*
X64054071Y-104765000D01*
X63692042Y-104914958D01*
X63414958Y-105192042D01*
X63265000Y-105554071D01*
X59690205Y-105554071D01*
X59735000Y-105445929D01*
X59735000Y-105054071D01*
X59585042Y-104692042D01*
X59307958Y-104414958D01*
X59211491Y-104375000D01*
X59307958Y-104335042D01*
X59585042Y-104057958D01*
X59625000Y-103961491D01*
X59664958Y-104057958D01*
X59942042Y-104335042D01*
X60304071Y-104485000D01*
X60695929Y-104485000D01*
X61057958Y-104335042D01*
X61335042Y-104057958D01*
X61485000Y-103695929D01*
X61485000Y-103304071D01*
X61335042Y-102942042D01*
X61057958Y-102664958D01*
X60695929Y-102515000D01*
X60304071Y-102515000D01*
X59942042Y-102664958D01*
X59664958Y-102942042D01*
X59625000Y-103038509D01*
X59585042Y-102942042D01*
X59307958Y-102664958D01*
X58945929Y-102515000D01*
X58554071Y-102515000D01*
X58192042Y-102664958D01*
X57914958Y-102942042D01*
X57765000Y-103304071D01*
X50685000Y-103304071D01*
X50685000Y-100304071D01*
X63765000Y-100304071D01*
X63765000Y-100695929D01*
X63914958Y-101057958D01*
X64022005Y-101165005D01*
X63914958Y-101272052D01*
X63765000Y-101634081D01*
X63765000Y-102025939D01*
X63914958Y-102387968D01*
X64192042Y-102665052D01*
X64554071Y-102815010D01*
X64945929Y-102815010D01*
X65250000Y-102689059D01*
X65554071Y-102815010D01*
X65945929Y-102815010D01*
X65972337Y-102804071D01*
X66765000Y-102804071D01*
X66765000Y-103195929D01*
X66914958Y-103557958D01*
X67192042Y-103835042D01*
X67554071Y-103985000D01*
X67945929Y-103985000D01*
X68307958Y-103835042D01*
X68585042Y-103557958D01*
X68735000Y-103195929D01*
X68735000Y-102804071D01*
X68631447Y-102554071D01*
X96515000Y-102554071D01*
X96515000Y-102945929D01*
X96664958Y-103307958D01*
X96942042Y-103585042D01*
X97304071Y-103735000D01*
X97695929Y-103735000D01*
X98057958Y-103585042D01*
X98335042Y-103307958D01*
X98485000Y-102945929D01*
X98485000Y-102554071D01*
X98335042Y-102192042D01*
X98057958Y-101914958D01*
X97695929Y-101765000D01*
X97304071Y-101765000D01*
X96942042Y-101914958D01*
X96664958Y-102192042D01*
X96515000Y-102554071D01*
X68631447Y-102554071D01*
X68585042Y-102442042D01*
X68307958Y-102164958D01*
X67945929Y-102015000D01*
X67554071Y-102015000D01*
X67192042Y-102164958D01*
X66914958Y-102442042D01*
X66765000Y-102804071D01*
X65972337Y-102804071D01*
X66307958Y-102665052D01*
X66585042Y-102387968D01*
X66735000Y-102025939D01*
X66735000Y-101634081D01*
X66615259Y-101345002D01*
X66945929Y-101345002D01*
X67307958Y-101195044D01*
X67585042Y-100917960D01*
X67735000Y-100555931D01*
X67735000Y-100164083D01*
X70811041Y-100164083D01*
X70811041Y-100555941D01*
X70960999Y-100917970D01*
X71238083Y-101195054D01*
X71600112Y-101345012D01*
X71991970Y-101345012D01*
X72353999Y-101195054D01*
X72631083Y-100917970D01*
X72781041Y-100555941D01*
X72781041Y-100164083D01*
X72631083Y-99802054D01*
X72383100Y-99554071D01*
X73265000Y-99554071D01*
X73265000Y-99945929D01*
X73414958Y-100307958D01*
X73692042Y-100585042D01*
X74054071Y-100735000D01*
X74445929Y-100735000D01*
X74807958Y-100585042D01*
X75085042Y-100307958D01*
X75235000Y-99945929D01*
X75235000Y-99554071D01*
X76765000Y-99554071D01*
X76765000Y-99945929D01*
X76914958Y-100307958D01*
X77192042Y-100585042D01*
X77554071Y-100735000D01*
X77945929Y-100735000D01*
X78307958Y-100585042D01*
X78585042Y-100307958D01*
X78644641Y-100164073D01*
X85515000Y-100164073D01*
X85515000Y-100555931D01*
X85664958Y-100917960D01*
X85942042Y-101195044D01*
X86304071Y-101345002D01*
X86695929Y-101345002D01*
X87057958Y-101195044D01*
X87250000Y-101003002D01*
X87442042Y-101195044D01*
X87804071Y-101345002D01*
X88195929Y-101345002D01*
X88557958Y-101195044D01*
X88777323Y-100975679D01*
X88914958Y-101307958D01*
X89192042Y-101585042D01*
X89554071Y-101735000D01*
X89945929Y-101735000D01*
X90307958Y-101585042D01*
X90585042Y-101307958D01*
X90735000Y-100945929D01*
X90735000Y-100554071D01*
X90585042Y-100192042D01*
X90307958Y-99914958D01*
X89945929Y-99765000D01*
X89554071Y-99765000D01*
X89192042Y-99914958D01*
X88972677Y-100134323D01*
X88835042Y-99802044D01*
X88557958Y-99524960D01*
X88195929Y-99375002D01*
X87804071Y-99375002D01*
X87442042Y-99524960D01*
X87250000Y-99717002D01*
X87057958Y-99524960D01*
X86695929Y-99375002D01*
X86304071Y-99375002D01*
X85942042Y-99524960D01*
X85664958Y-99802044D01*
X85515000Y-100164073D01*
X78644641Y-100164073D01*
X78735000Y-99945929D01*
X78735000Y-99554071D01*
X78585042Y-99192042D01*
X78307958Y-98914958D01*
X77945929Y-98765000D01*
X77554071Y-98765000D01*
X77192042Y-98914958D01*
X76914958Y-99192042D01*
X76765000Y-99554071D01*
X75235000Y-99554071D01*
X75085042Y-99192042D01*
X74807958Y-98914958D01*
X74445929Y-98765000D01*
X74054071Y-98765000D01*
X73692042Y-98914958D01*
X73414958Y-99192042D01*
X73265000Y-99554071D01*
X72383100Y-99554071D01*
X72353999Y-99524970D01*
X71991970Y-99375012D01*
X71600112Y-99375012D01*
X71238083Y-99524970D01*
X70960999Y-99802054D01*
X70811041Y-100164083D01*
X67735000Y-100164083D01*
X67735000Y-100164073D01*
X67585042Y-99802044D01*
X67307958Y-99524960D01*
X66945929Y-99375002D01*
X66554071Y-99375002D01*
X66192042Y-99524960D01*
X66127000Y-99590002D01*
X65945929Y-99515000D01*
X65554071Y-99515000D01*
X65250000Y-99640951D01*
X64945929Y-99515000D01*
X64554071Y-99515000D01*
X64192042Y-99664958D01*
X63914958Y-99942042D01*
X63765000Y-100304071D01*
X50685000Y-100304071D01*
X50685000Y-98669373D01*
X66010232Y-98669373D01*
X66019853Y-98861876D01*
X66367875Y-98967751D01*
X66729923Y-98932385D01*
X66900147Y-98861876D01*
X66909768Y-98669373D01*
X67280232Y-98669373D01*
X67289853Y-98861876D01*
X67637875Y-98967751D01*
X67999923Y-98932385D01*
X68170147Y-98861876D01*
X68179768Y-98669373D01*
X68550232Y-98669373D01*
X68559853Y-98861876D01*
X68907875Y-98967751D01*
X69269923Y-98932385D01*
X69440147Y-98861876D01*
X69449768Y-98669373D01*
X69820232Y-98669373D01*
X69829853Y-98861876D01*
X70177875Y-98967751D01*
X70539923Y-98932385D01*
X70710147Y-98861876D01*
X70719768Y-98669373D01*
X71090232Y-98669373D01*
X71099853Y-98861876D01*
X71447875Y-98967751D01*
X71809923Y-98932385D01*
X71980147Y-98861876D01*
X71989768Y-98669373D01*
X71540000Y-98219605D01*
X71090232Y-98669373D01*
X70719768Y-98669373D01*
X70270000Y-98219605D01*
X69820232Y-98669373D01*
X69449768Y-98669373D01*
X69000000Y-98219605D01*
X68550232Y-98669373D01*
X68179768Y-98669373D01*
X67730000Y-98219605D01*
X67280232Y-98669373D01*
X66909768Y-98669373D01*
X66460000Y-98219605D01*
X66010232Y-98669373D01*
X50685000Y-98669373D01*
X50685000Y-97054071D01*
X63154998Y-97054071D01*
X63154998Y-97445929D01*
X63304956Y-97807958D01*
X63582040Y-98085042D01*
X63944069Y-98235000D01*
X64335927Y-98235000D01*
X64697956Y-98085042D01*
X64835123Y-97947875D01*
X65532249Y-97947875D01*
X65567615Y-98309923D01*
X65638124Y-98480147D01*
X65830627Y-98489768D01*
X66280395Y-98040000D01*
X66639605Y-98040000D01*
X66829830Y-98230225D01*
X66837615Y-98309923D01*
X66908124Y-98480147D01*
X67088781Y-98489176D01*
X67089373Y-98489768D01*
X67095000Y-98489487D01*
X67100627Y-98489768D01*
X67101219Y-98489176D01*
X67281876Y-98480147D01*
X67356918Y-98233477D01*
X67550395Y-98040000D01*
X67909605Y-98040000D01*
X68099830Y-98230225D01*
X68107615Y-98309923D01*
X68178124Y-98480147D01*
X68358781Y-98489176D01*
X68359373Y-98489768D01*
X68365000Y-98489487D01*
X68370627Y-98489768D01*
X68371219Y-98489176D01*
X68551876Y-98480147D01*
X68626918Y-98233477D01*
X68820395Y-98040000D01*
X69179605Y-98040000D01*
X69369830Y-98230225D01*
X69377615Y-98309923D01*
X69448124Y-98480147D01*
X69628781Y-98489176D01*
X69629373Y-98489768D01*
X69635000Y-98489487D01*
X69640627Y-98489768D01*
X69641219Y-98489176D01*
X69821876Y-98480147D01*
X69896918Y-98233477D01*
X70090395Y-98040000D01*
X70449605Y-98040000D01*
X70639830Y-98230225D01*
X70647615Y-98309923D01*
X70718124Y-98480147D01*
X70898781Y-98489176D01*
X70899373Y-98489768D01*
X70905000Y-98489487D01*
X70910627Y-98489768D01*
X70911219Y-98489176D01*
X71091876Y-98480147D01*
X71166918Y-98233477D01*
X71360395Y-98040000D01*
X71719605Y-98040000D01*
X72169373Y-98489768D01*
X72361876Y-98480147D01*
X72467751Y-98132125D01*
X72432385Y-97770077D01*
X72361876Y-97599853D01*
X72169373Y-97590232D01*
X71719605Y-98040000D01*
X71360395Y-98040000D01*
X71170170Y-97849775D01*
X71162385Y-97770077D01*
X71091876Y-97599853D01*
X70911219Y-97590824D01*
X70910627Y-97590232D01*
X70905000Y-97590513D01*
X70899373Y-97590232D01*
X70898781Y-97590824D01*
X70718124Y-97599853D01*
X70643082Y-97846523D01*
X70449605Y-98040000D01*
X70090395Y-98040000D01*
X69900170Y-97849775D01*
X69892385Y-97770077D01*
X69821876Y-97599853D01*
X69641219Y-97590824D01*
X69640627Y-97590232D01*
X69635000Y-97590513D01*
X69629373Y-97590232D01*
X69628781Y-97590824D01*
X69448124Y-97599853D01*
X69373082Y-97846523D01*
X69179605Y-98040000D01*
X68820395Y-98040000D01*
X68630170Y-97849775D01*
X68622385Y-97770077D01*
X68551876Y-97599853D01*
X68371219Y-97590824D01*
X68370627Y-97590232D01*
X68365000Y-97590513D01*
X68359373Y-97590232D01*
X68358781Y-97590824D01*
X68178124Y-97599853D01*
X68103082Y-97846523D01*
X67909605Y-98040000D01*
X67550395Y-98040000D01*
X67360170Y-97849775D01*
X67352385Y-97770077D01*
X67281876Y-97599853D01*
X67101219Y-97590824D01*
X67100627Y-97590232D01*
X67095000Y-97590513D01*
X67089373Y-97590232D01*
X67088781Y-97590824D01*
X66908124Y-97599853D01*
X66833082Y-97846523D01*
X66639605Y-98040000D01*
X66280395Y-98040000D01*
X65830627Y-97590232D01*
X65638124Y-97599853D01*
X65532249Y-97947875D01*
X64835123Y-97947875D01*
X64975040Y-97807958D01*
X65124998Y-97445929D01*
X65124998Y-97399373D01*
X66010232Y-97399373D01*
X66010513Y-97405000D01*
X66010232Y-97410627D01*
X66010824Y-97411219D01*
X66019853Y-97591876D01*
X66266523Y-97666918D01*
X66460000Y-97860395D01*
X66650225Y-97670170D01*
X66729923Y-97662385D01*
X66900147Y-97591876D01*
X66909176Y-97411219D01*
X66909768Y-97410627D01*
X66909487Y-97405000D01*
X66909768Y-97399373D01*
X67280232Y-97399373D01*
X67280513Y-97405000D01*
X67280232Y-97410627D01*
X67280824Y-97411219D01*
X67289853Y-97591876D01*
X67536523Y-97666918D01*
X67730000Y-97860395D01*
X67920225Y-97670170D01*
X67999923Y-97662385D01*
X68170147Y-97591876D01*
X68179176Y-97411219D01*
X68179768Y-97410627D01*
X68179487Y-97405000D01*
X68179768Y-97399373D01*
X68550232Y-97399373D01*
X68550513Y-97405000D01*
X68550232Y-97410627D01*
X68550824Y-97411219D01*
X68559853Y-97591876D01*
X68806523Y-97666918D01*
X69000000Y-97860395D01*
X69190225Y-97670170D01*
X69269923Y-97662385D01*
X69440147Y-97591876D01*
X69449176Y-97411219D01*
X69449768Y-97410627D01*
X69449487Y-97405000D01*
X69449768Y-97399373D01*
X69820232Y-97399373D01*
X69820513Y-97405000D01*
X69820232Y-97410627D01*
X69820824Y-97411219D01*
X69829853Y-97591876D01*
X70076523Y-97666918D01*
X70270000Y-97860395D01*
X70460225Y-97670170D01*
X70539923Y-97662385D01*
X70710147Y-97591876D01*
X70719176Y-97411219D01*
X70719768Y-97410627D01*
X70719487Y-97405000D01*
X70719768Y-97399373D01*
X71090232Y-97399373D01*
X71090513Y-97405000D01*
X71090232Y-97410627D01*
X71090824Y-97411219D01*
X71099853Y-97591876D01*
X71346523Y-97666918D01*
X71540000Y-97860395D01*
X71730225Y-97670170D01*
X71809923Y-97662385D01*
X71980147Y-97591876D01*
X71989176Y-97411219D01*
X71989768Y-97410627D01*
X71989487Y-97405000D01*
X71989768Y-97399373D01*
X71989176Y-97398781D01*
X71980147Y-97218124D01*
X71733477Y-97143082D01*
X71540000Y-96949605D01*
X71349775Y-97139830D01*
X71270077Y-97147615D01*
X71099853Y-97218124D01*
X71090824Y-97398781D01*
X71090232Y-97399373D01*
X70719768Y-97399373D01*
X70719176Y-97398781D01*
X70710147Y-97218124D01*
X70463477Y-97143082D01*
X70270000Y-96949605D01*
X70079775Y-97139830D01*
X70000077Y-97147615D01*
X69829853Y-97218124D01*
X69820824Y-97398781D01*
X69820232Y-97399373D01*
X69449768Y-97399373D01*
X69449176Y-97398781D01*
X69440147Y-97218124D01*
X69193477Y-97143082D01*
X69000000Y-96949605D01*
X68809775Y-97139830D01*
X68730077Y-97147615D01*
X68559853Y-97218124D01*
X68550824Y-97398781D01*
X68550232Y-97399373D01*
X68179768Y-97399373D01*
X68179176Y-97398781D01*
X68170147Y-97218124D01*
X67923477Y-97143082D01*
X67730000Y-96949605D01*
X67539775Y-97139830D01*
X67460077Y-97147615D01*
X67289853Y-97218124D01*
X67280824Y-97398781D01*
X67280232Y-97399373D01*
X66909768Y-97399373D01*
X66909176Y-97398781D01*
X66900147Y-97218124D01*
X66653477Y-97143082D01*
X66460000Y-96949605D01*
X66269775Y-97139830D01*
X66190077Y-97147615D01*
X66019853Y-97218124D01*
X66010824Y-97398781D01*
X66010232Y-97399373D01*
X65124998Y-97399373D01*
X65124998Y-97054071D01*
X64975040Y-96692042D01*
X64960873Y-96677875D01*
X65532249Y-96677875D01*
X65567615Y-97039923D01*
X65638124Y-97210147D01*
X65830627Y-97219768D01*
X66280395Y-96770000D01*
X66639605Y-96770000D01*
X66829830Y-96960225D01*
X66837615Y-97039923D01*
X66908124Y-97210147D01*
X67088781Y-97219176D01*
X67089373Y-97219768D01*
X67095000Y-97219487D01*
X67100627Y-97219768D01*
X67101219Y-97219176D01*
X67281876Y-97210147D01*
X67356918Y-96963477D01*
X67550395Y-96770000D01*
X67909605Y-96770000D01*
X68099830Y-96960225D01*
X68107615Y-97039923D01*
X68178124Y-97210147D01*
X68358781Y-97219176D01*
X68359373Y-97219768D01*
X68365000Y-97219487D01*
X68370627Y-97219768D01*
X68371219Y-97219176D01*
X68551876Y-97210147D01*
X68626918Y-96963477D01*
X68820395Y-96770000D01*
X69179605Y-96770000D01*
X69369830Y-96960225D01*
X69377615Y-97039923D01*
X69448124Y-97210147D01*
X69628781Y-97219176D01*
X69629373Y-97219768D01*
X69635000Y-97219487D01*
X69640627Y-97219768D01*
X69641219Y-97219176D01*
X69821876Y-97210147D01*
X69896918Y-96963477D01*
X70090395Y-96770000D01*
X70449605Y-96770000D01*
X70639830Y-96960225D01*
X70647615Y-97039923D01*
X70718124Y-97210147D01*
X70898781Y-97219176D01*
X70899373Y-97219768D01*
X70905000Y-97219487D01*
X70910627Y-97219768D01*
X70911219Y-97219176D01*
X71091876Y-97210147D01*
X71166918Y-96963477D01*
X71360395Y-96770000D01*
X71719605Y-96770000D01*
X72169373Y-97219768D01*
X72361876Y-97210147D01*
X72409357Y-97054071D01*
X72875002Y-97054071D01*
X72875002Y-97445929D01*
X73024960Y-97807958D01*
X73302044Y-98085042D01*
X73664073Y-98235000D01*
X74055931Y-98235000D01*
X74417960Y-98085042D01*
X74695044Y-97807958D01*
X74845002Y-97445929D01*
X74845002Y-97054071D01*
X74798756Y-96942424D01*
X75000019Y-96859057D01*
X75304071Y-96985000D01*
X75695929Y-96985000D01*
X76057958Y-96835042D01*
X76335042Y-96557958D01*
X76485000Y-96195929D01*
X76485000Y-95804071D01*
X76454858Y-95731302D01*
X76607087Y-95668246D01*
X76664958Y-95807958D01*
X76942042Y-96085042D01*
X77264035Y-96218417D01*
X77125002Y-96554071D01*
X77125002Y-96945929D01*
X77274960Y-97307958D01*
X77552044Y-97585042D01*
X77914073Y-97735000D01*
X78305931Y-97735000D01*
X78667960Y-97585042D01*
X78945044Y-97307958D01*
X79095002Y-96945929D01*
X79095002Y-96554071D01*
X78945044Y-96192042D01*
X78667960Y-95914958D01*
X78345967Y-95781583D01*
X78485000Y-95445929D01*
X78485000Y-95054071D01*
X78335042Y-94692042D01*
X78197071Y-94554071D01*
X79154998Y-94554071D01*
X79154998Y-94945929D01*
X79304956Y-95307958D01*
X79582040Y-95585042D01*
X79944069Y-95735000D01*
X80335927Y-95735000D01*
X80697956Y-95585042D01*
X80975040Y-95307958D01*
X81124998Y-94945929D01*
X81124998Y-94554071D01*
X80975040Y-94192042D01*
X80697956Y-93914958D01*
X80335927Y-93765000D01*
X79944069Y-93765000D01*
X79582040Y-93914958D01*
X79304956Y-94192042D01*
X79154998Y-94554071D01*
X78197071Y-94554071D01*
X78057958Y-94414958D01*
X77695929Y-94265000D01*
X77304071Y-94265000D01*
X77142913Y-94331754D01*
X77085042Y-94192042D01*
X76807958Y-93914958D01*
X76445929Y-93765000D01*
X76054071Y-93765000D01*
X75692042Y-93914958D01*
X75414958Y-94192042D01*
X75265000Y-94554071D01*
X75265000Y-94945929D01*
X75295142Y-95018698D01*
X74999981Y-95140959D01*
X74695929Y-95015016D01*
X74304071Y-95015016D01*
X73942042Y-95164974D01*
X73664958Y-95442058D01*
X73515000Y-95804087D01*
X73515000Y-96195945D01*
X73561246Y-96307592D01*
X73302044Y-96414958D01*
X73024960Y-96692042D01*
X72875002Y-97054071D01*
X72409357Y-97054071D01*
X72467751Y-96862125D01*
X72432385Y-96500077D01*
X72361876Y-96329853D01*
X72169373Y-96320232D01*
X71719605Y-96770000D01*
X71360395Y-96770000D01*
X71170170Y-96579775D01*
X71162385Y-96500077D01*
X71091876Y-96329853D01*
X70911219Y-96320824D01*
X70910627Y-96320232D01*
X70905000Y-96320513D01*
X70899373Y-96320232D01*
X70898781Y-96320824D01*
X70718124Y-96329853D01*
X70643082Y-96576523D01*
X70449605Y-96770000D01*
X70090395Y-96770000D01*
X69900170Y-96579775D01*
X69892385Y-96500077D01*
X69821876Y-96329853D01*
X69641219Y-96320824D01*
X69640627Y-96320232D01*
X69635000Y-96320513D01*
X69629373Y-96320232D01*
X69628781Y-96320824D01*
X69448124Y-96329853D01*
X69373082Y-96576523D01*
X69179605Y-96770000D01*
X68820395Y-96770000D01*
X68630170Y-96579775D01*
X68622385Y-96500077D01*
X68551876Y-96329853D01*
X68371219Y-96320824D01*
X68370627Y-96320232D01*
X68365000Y-96320513D01*
X68359373Y-96320232D01*
X68358781Y-96320824D01*
X68178124Y-96329853D01*
X68103082Y-96576523D01*
X67909605Y-96770000D01*
X67550395Y-96770000D01*
X67360170Y-96579775D01*
X67352385Y-96500077D01*
X67281876Y-96329853D01*
X67101219Y-96320824D01*
X67100627Y-96320232D01*
X67095000Y-96320513D01*
X67089373Y-96320232D01*
X67088781Y-96320824D01*
X66908124Y-96329853D01*
X66833082Y-96576523D01*
X66639605Y-96770000D01*
X66280395Y-96770000D01*
X65830627Y-96320232D01*
X65638124Y-96329853D01*
X65532249Y-96677875D01*
X64960873Y-96677875D01*
X64697956Y-96414958D01*
X64335927Y-96265000D01*
X63944069Y-96265000D01*
X63582040Y-96414958D01*
X63304956Y-96692042D01*
X63154998Y-97054071D01*
X50685000Y-97054071D01*
X50685000Y-95304071D01*
X55765000Y-95304071D01*
X55765000Y-95695929D01*
X55914958Y-96057958D01*
X56192042Y-96335042D01*
X56554071Y-96485000D01*
X56945929Y-96485000D01*
X57307958Y-96335042D01*
X57375000Y-96268000D01*
X57442042Y-96335042D01*
X57804071Y-96485000D01*
X58195929Y-96485000D01*
X58557958Y-96335042D01*
X58835042Y-96057958D01*
X58985000Y-95695929D01*
X58985000Y-95304071D01*
X58881447Y-95054071D01*
X63154998Y-95054071D01*
X63154998Y-95445929D01*
X63304956Y-95807958D01*
X63582040Y-96085042D01*
X63944069Y-96235000D01*
X64335927Y-96235000D01*
X64590931Y-96129373D01*
X66010232Y-96129373D01*
X66010513Y-96135000D01*
X66010232Y-96140627D01*
X66010824Y-96141219D01*
X66019853Y-96321876D01*
X66266523Y-96396918D01*
X66460000Y-96590395D01*
X66650225Y-96400170D01*
X66729923Y-96392385D01*
X66900147Y-96321876D01*
X66909176Y-96141219D01*
X66909768Y-96140627D01*
X66909487Y-96135000D01*
X66909768Y-96129373D01*
X67280232Y-96129373D01*
X67280513Y-96135000D01*
X67280232Y-96140627D01*
X67280824Y-96141219D01*
X67289853Y-96321876D01*
X67536523Y-96396918D01*
X67730000Y-96590395D01*
X67920225Y-96400170D01*
X67999923Y-96392385D01*
X68170147Y-96321876D01*
X68179176Y-96141219D01*
X68179768Y-96140627D01*
X68179487Y-96135000D01*
X68179768Y-96129373D01*
X68550232Y-96129373D01*
X68550513Y-96135000D01*
X68550232Y-96140627D01*
X68550824Y-96141219D01*
X68559853Y-96321876D01*
X68806523Y-96396918D01*
X69000000Y-96590395D01*
X69190225Y-96400170D01*
X69269923Y-96392385D01*
X69440147Y-96321876D01*
X69449176Y-96141219D01*
X69449768Y-96140627D01*
X69449487Y-96135000D01*
X69449768Y-96129373D01*
X69820232Y-96129373D01*
X69820513Y-96135000D01*
X69820232Y-96140627D01*
X69820824Y-96141219D01*
X69829853Y-96321876D01*
X70076523Y-96396918D01*
X70270000Y-96590395D01*
X70460225Y-96400170D01*
X70539923Y-96392385D01*
X70710147Y-96321876D01*
X70719176Y-96141219D01*
X70719768Y-96140627D01*
X70719487Y-96135000D01*
X70719768Y-96129373D01*
X71090232Y-96129373D01*
X71090513Y-96135000D01*
X71090232Y-96140627D01*
X71090824Y-96141219D01*
X71099853Y-96321876D01*
X71346523Y-96396918D01*
X71540000Y-96590395D01*
X71730225Y-96400170D01*
X71809923Y-96392385D01*
X71980147Y-96321876D01*
X71989176Y-96141219D01*
X71989768Y-96140627D01*
X71989487Y-96135000D01*
X71989768Y-96129373D01*
X71989176Y-96128781D01*
X71980147Y-95948124D01*
X71733477Y-95873082D01*
X71540000Y-95679605D01*
X71349775Y-95869830D01*
X71270077Y-95877615D01*
X71099853Y-95948124D01*
X71090824Y-96128781D01*
X71090232Y-96129373D01*
X70719768Y-96129373D01*
X70719176Y-96128781D01*
X70710147Y-95948124D01*
X70463477Y-95873082D01*
X70270000Y-95679605D01*
X70079775Y-95869830D01*
X70000077Y-95877615D01*
X69829853Y-95948124D01*
X69820824Y-96128781D01*
X69820232Y-96129373D01*
X69449768Y-96129373D01*
X69449176Y-96128781D01*
X69440147Y-95948124D01*
X69193477Y-95873082D01*
X69000000Y-95679605D01*
X68809775Y-95869830D01*
X68730077Y-95877615D01*
X68559853Y-95948124D01*
X68550824Y-96128781D01*
X68550232Y-96129373D01*
X68179768Y-96129373D01*
X68179176Y-96128781D01*
X68170147Y-95948124D01*
X67923477Y-95873082D01*
X67730000Y-95679605D01*
X67539775Y-95869830D01*
X67460077Y-95877615D01*
X67289853Y-95948124D01*
X67280824Y-96128781D01*
X67280232Y-96129373D01*
X66909768Y-96129373D01*
X66909176Y-96128781D01*
X66900147Y-95948124D01*
X66653477Y-95873082D01*
X66460000Y-95679605D01*
X66269775Y-95869830D01*
X66190077Y-95877615D01*
X66019853Y-95948124D01*
X66010824Y-96128781D01*
X66010232Y-96129373D01*
X64590931Y-96129373D01*
X64697956Y-96085042D01*
X64975040Y-95807958D01*
X65124998Y-95445929D01*
X65124998Y-95407875D01*
X65532249Y-95407875D01*
X65567615Y-95769923D01*
X65638124Y-95940147D01*
X65830627Y-95949768D01*
X66280395Y-95500000D01*
X66639605Y-95500000D01*
X66829830Y-95690225D01*
X66837615Y-95769923D01*
X66908124Y-95940147D01*
X67088781Y-95949176D01*
X67089373Y-95949768D01*
X67095000Y-95949487D01*
X67100627Y-95949768D01*
X67101219Y-95949176D01*
X67281876Y-95940147D01*
X67356918Y-95693477D01*
X67550395Y-95500000D01*
X67909605Y-95500000D01*
X68099830Y-95690225D01*
X68107615Y-95769923D01*
X68178124Y-95940147D01*
X68358781Y-95949176D01*
X68359373Y-95949768D01*
X68365000Y-95949487D01*
X68370627Y-95949768D01*
X68371219Y-95949176D01*
X68551876Y-95940147D01*
X68626918Y-95693477D01*
X68820395Y-95500000D01*
X69179605Y-95500000D01*
X69369830Y-95690225D01*
X69377615Y-95769923D01*
X69448124Y-95940147D01*
X69628781Y-95949176D01*
X69629373Y-95949768D01*
X69635000Y-95949487D01*
X69640627Y-95949768D01*
X69641219Y-95949176D01*
X69821876Y-95940147D01*
X69896918Y-95693477D01*
X70090395Y-95500000D01*
X70449605Y-95500000D01*
X70639830Y-95690225D01*
X70647615Y-95769923D01*
X70718124Y-95940147D01*
X70898781Y-95949176D01*
X70899373Y-95949768D01*
X70905000Y-95949487D01*
X70910627Y-95949768D01*
X70911219Y-95949176D01*
X71091876Y-95940147D01*
X71166918Y-95693477D01*
X71360395Y-95500000D01*
X71719605Y-95500000D01*
X72169373Y-95949768D01*
X72361876Y-95940147D01*
X72467751Y-95592125D01*
X72432385Y-95230077D01*
X72361876Y-95059853D01*
X72169373Y-95050232D01*
X71719605Y-95500000D01*
X71360395Y-95500000D01*
X71170170Y-95309775D01*
X71162385Y-95230077D01*
X71091876Y-95059853D01*
X70911219Y-95050824D01*
X70910627Y-95050232D01*
X70905000Y-95050513D01*
X70899373Y-95050232D01*
X70898781Y-95050824D01*
X70718124Y-95059853D01*
X70643082Y-95306523D01*
X70449605Y-95500000D01*
X70090395Y-95500000D01*
X69900170Y-95309775D01*
X69892385Y-95230077D01*
X69821876Y-95059853D01*
X69641219Y-95050824D01*
X69640627Y-95050232D01*
X69635000Y-95050513D01*
X69629373Y-95050232D01*
X69628781Y-95050824D01*
X69448124Y-95059853D01*
X69373082Y-95306523D01*
X69179605Y-95500000D01*
X68820395Y-95500000D01*
X68630170Y-95309775D01*
X68622385Y-95230077D01*
X68551876Y-95059853D01*
X68371219Y-95050824D01*
X68370627Y-95050232D01*
X68365000Y-95050513D01*
X68359373Y-95050232D01*
X68358781Y-95050824D01*
X68178124Y-95059853D01*
X68103082Y-95306523D01*
X67909605Y-95500000D01*
X67550395Y-95500000D01*
X67360170Y-95309775D01*
X67352385Y-95230077D01*
X67281876Y-95059853D01*
X67101219Y-95050824D01*
X67100627Y-95050232D01*
X67095000Y-95050513D01*
X67089373Y-95050232D01*
X67088781Y-95050824D01*
X66908124Y-95059853D01*
X66833082Y-95306523D01*
X66639605Y-95500000D01*
X66280395Y-95500000D01*
X65830627Y-95050232D01*
X65638124Y-95059853D01*
X65532249Y-95407875D01*
X65124998Y-95407875D01*
X65124998Y-95054071D01*
X65044352Y-94859373D01*
X66010232Y-94859373D01*
X66010513Y-94865000D01*
X66010232Y-94870627D01*
X66010824Y-94871219D01*
X66019853Y-95051876D01*
X66266523Y-95126918D01*
X66460000Y-95320395D01*
X66650225Y-95130170D01*
X66729923Y-95122385D01*
X66900147Y-95051876D01*
X66909176Y-94871219D01*
X66909768Y-94870627D01*
X66909487Y-94865000D01*
X66909768Y-94859373D01*
X67280232Y-94859373D01*
X67280513Y-94865000D01*
X67280232Y-94870627D01*
X67280824Y-94871219D01*
X67289853Y-95051876D01*
X67536523Y-95126918D01*
X67730000Y-95320395D01*
X67920225Y-95130170D01*
X67999923Y-95122385D01*
X68170147Y-95051876D01*
X68179176Y-94871219D01*
X68179768Y-94870627D01*
X68179487Y-94865000D01*
X68179768Y-94859373D01*
X68550232Y-94859373D01*
X68550513Y-94865000D01*
X68550232Y-94870627D01*
X68550824Y-94871219D01*
X68559853Y-95051876D01*
X68806523Y-95126918D01*
X69000000Y-95320395D01*
X69190225Y-95130170D01*
X69269923Y-95122385D01*
X69440147Y-95051876D01*
X69449176Y-94871219D01*
X69449768Y-94870627D01*
X69449487Y-94865000D01*
X69449768Y-94859373D01*
X69820232Y-94859373D01*
X69820513Y-94865000D01*
X69820232Y-94870627D01*
X69820824Y-94871219D01*
X69829853Y-95051876D01*
X70076523Y-95126918D01*
X70270000Y-95320395D01*
X70460225Y-95130170D01*
X70539923Y-95122385D01*
X70710147Y-95051876D01*
X70719176Y-94871219D01*
X70719768Y-94870627D01*
X70719487Y-94865000D01*
X70719768Y-94859373D01*
X71090232Y-94859373D01*
X71090513Y-94865000D01*
X71090232Y-94870627D01*
X71090824Y-94871219D01*
X71099853Y-95051876D01*
X71346523Y-95126918D01*
X71540000Y-95320395D01*
X71730225Y-95130170D01*
X71809923Y-95122385D01*
X71980147Y-95051876D01*
X71989176Y-94871219D01*
X71989768Y-94870627D01*
X71989487Y-94865000D01*
X71989768Y-94859373D01*
X71989176Y-94858781D01*
X71980147Y-94678124D01*
X71733477Y-94603082D01*
X71540000Y-94409605D01*
X71349775Y-94599830D01*
X71270077Y-94607615D01*
X71099853Y-94678124D01*
X71090824Y-94858781D01*
X71090232Y-94859373D01*
X70719768Y-94859373D01*
X70719176Y-94858781D01*
X70710147Y-94678124D01*
X70463477Y-94603082D01*
X70270000Y-94409605D01*
X70079775Y-94599830D01*
X70000077Y-94607615D01*
X69829853Y-94678124D01*
X69820824Y-94858781D01*
X69820232Y-94859373D01*
X69449768Y-94859373D01*
X69449176Y-94858781D01*
X69440147Y-94678124D01*
X69193477Y-94603082D01*
X69000000Y-94409605D01*
X68809775Y-94599830D01*
X68730077Y-94607615D01*
X68559853Y-94678124D01*
X68550824Y-94858781D01*
X68550232Y-94859373D01*
X68179768Y-94859373D01*
X68179176Y-94858781D01*
X68170147Y-94678124D01*
X67923477Y-94603082D01*
X67730000Y-94409605D01*
X67539775Y-94599830D01*
X67460077Y-94607615D01*
X67289853Y-94678124D01*
X67280824Y-94858781D01*
X67280232Y-94859373D01*
X66909768Y-94859373D01*
X66909176Y-94858781D01*
X66900147Y-94678124D01*
X66653477Y-94603082D01*
X66460000Y-94409605D01*
X66269775Y-94599830D01*
X66190077Y-94607615D01*
X66019853Y-94678124D01*
X66010824Y-94858781D01*
X66010232Y-94859373D01*
X65044352Y-94859373D01*
X64975040Y-94692042D01*
X64697956Y-94414958D01*
X64335927Y-94265000D01*
X63944069Y-94265000D01*
X63582040Y-94414958D01*
X63304956Y-94692042D01*
X63154998Y-95054071D01*
X58881447Y-95054071D01*
X58835042Y-94942042D01*
X58557958Y-94664958D01*
X58195929Y-94515000D01*
X57804071Y-94515000D01*
X57442042Y-94664958D01*
X57375000Y-94732000D01*
X57307958Y-94664958D01*
X56945929Y-94515000D01*
X56554071Y-94515000D01*
X56192042Y-94664958D01*
X55914958Y-94942042D01*
X55765000Y-95304071D01*
X50685000Y-95304071D01*
X50685000Y-93054071D01*
X63154998Y-93054071D01*
X63154998Y-93445929D01*
X63304956Y-93807958D01*
X63582040Y-94085042D01*
X63944069Y-94235000D01*
X64335927Y-94235000D01*
X64570406Y-94137875D01*
X65532249Y-94137875D01*
X65567615Y-94499923D01*
X65638124Y-94670147D01*
X65830627Y-94679768D01*
X66280395Y-94230000D01*
X66639605Y-94230000D01*
X66829830Y-94420225D01*
X66837615Y-94499923D01*
X66908124Y-94670147D01*
X67088781Y-94679176D01*
X67089373Y-94679768D01*
X67095000Y-94679487D01*
X67100627Y-94679768D01*
X67101219Y-94679176D01*
X67281876Y-94670147D01*
X67356918Y-94423477D01*
X67550395Y-94230000D01*
X67909605Y-94230000D01*
X68099830Y-94420225D01*
X68107615Y-94499923D01*
X68178124Y-94670147D01*
X68358781Y-94679176D01*
X68359373Y-94679768D01*
X68365000Y-94679487D01*
X68370627Y-94679768D01*
X68371219Y-94679176D01*
X68551876Y-94670147D01*
X68626918Y-94423477D01*
X68820395Y-94230000D01*
X69179605Y-94230000D01*
X69369830Y-94420225D01*
X69377615Y-94499923D01*
X69448124Y-94670147D01*
X69628781Y-94679176D01*
X69629373Y-94679768D01*
X69635000Y-94679487D01*
X69640627Y-94679768D01*
X69641219Y-94679176D01*
X69821876Y-94670147D01*
X69896918Y-94423477D01*
X70090395Y-94230000D01*
X70449605Y-94230000D01*
X70639830Y-94420225D01*
X70647615Y-94499923D01*
X70718124Y-94670147D01*
X70898781Y-94679176D01*
X70899373Y-94679768D01*
X70905000Y-94679487D01*
X70910627Y-94679768D01*
X70911219Y-94679176D01*
X71091876Y-94670147D01*
X71166918Y-94423477D01*
X71360395Y-94230000D01*
X71719605Y-94230000D01*
X72169373Y-94679768D01*
X72361876Y-94670147D01*
X72467751Y-94322125D01*
X72432385Y-93960077D01*
X72361876Y-93789853D01*
X72169373Y-93780232D01*
X71719605Y-94230000D01*
X71360395Y-94230000D01*
X71170170Y-94039775D01*
X71162385Y-93960077D01*
X71091876Y-93789853D01*
X70911219Y-93780824D01*
X70910627Y-93780232D01*
X70905000Y-93780513D01*
X70899373Y-93780232D01*
X70898781Y-93780824D01*
X70718124Y-93789853D01*
X70643082Y-94036523D01*
X70449605Y-94230000D01*
X70090395Y-94230000D01*
X69900170Y-94039775D01*
X69892385Y-93960077D01*
X69821876Y-93789853D01*
X69641219Y-93780824D01*
X69640627Y-93780232D01*
X69635000Y-93780513D01*
X69629373Y-93780232D01*
X69628781Y-93780824D01*
X69448124Y-93789853D01*
X69373082Y-94036523D01*
X69179605Y-94230000D01*
X68820395Y-94230000D01*
X68630170Y-94039775D01*
X68622385Y-93960077D01*
X68551876Y-93789853D01*
X68371219Y-93780824D01*
X68370627Y-93780232D01*
X68365000Y-93780513D01*
X68359373Y-93780232D01*
X68358781Y-93780824D01*
X68178124Y-93789853D01*
X68103082Y-94036523D01*
X67909605Y-94230000D01*
X67550395Y-94230000D01*
X67360170Y-94039775D01*
X67352385Y-93960077D01*
X67281876Y-93789853D01*
X67101219Y-93780824D01*
X67100627Y-93780232D01*
X67095000Y-93780513D01*
X67089373Y-93780232D01*
X67088781Y-93780824D01*
X66908124Y-93789853D01*
X66833082Y-94036523D01*
X66639605Y-94230000D01*
X66280395Y-94230000D01*
X65830627Y-93780232D01*
X65638124Y-93789853D01*
X65532249Y-94137875D01*
X64570406Y-94137875D01*
X64697956Y-94085042D01*
X64975040Y-93807958D01*
X65065581Y-93589373D01*
X66010232Y-93589373D01*
X66010513Y-93595000D01*
X66010232Y-93600627D01*
X66010824Y-93601219D01*
X66019853Y-93781876D01*
X66266523Y-93856918D01*
X66460000Y-94050395D01*
X66650225Y-93860170D01*
X66729923Y-93852385D01*
X66900147Y-93781876D01*
X66909176Y-93601219D01*
X66909768Y-93600627D01*
X66909487Y-93595000D01*
X66909768Y-93589373D01*
X67280232Y-93589373D01*
X67280513Y-93595000D01*
X67280232Y-93600627D01*
X67280824Y-93601219D01*
X67289853Y-93781876D01*
X67536523Y-93856918D01*
X67730000Y-94050395D01*
X67920225Y-93860170D01*
X67999923Y-93852385D01*
X68170147Y-93781876D01*
X68179176Y-93601219D01*
X68179768Y-93600627D01*
X68179487Y-93595000D01*
X68179768Y-93589373D01*
X68550232Y-93589373D01*
X68550513Y-93595000D01*
X68550232Y-93600627D01*
X68550824Y-93601219D01*
X68559853Y-93781876D01*
X68806523Y-93856918D01*
X69000000Y-94050395D01*
X69190225Y-93860170D01*
X69269923Y-93852385D01*
X69440147Y-93781876D01*
X69449176Y-93601219D01*
X69449768Y-93600627D01*
X69449487Y-93595000D01*
X69449768Y-93589373D01*
X69820232Y-93589373D01*
X69820513Y-93595000D01*
X69820232Y-93600627D01*
X69820824Y-93601219D01*
X69829853Y-93781876D01*
X70076523Y-93856918D01*
X70270000Y-94050395D01*
X70460225Y-93860170D01*
X70539923Y-93852385D01*
X70710147Y-93781876D01*
X70719176Y-93601219D01*
X70719768Y-93600627D01*
X70719487Y-93595000D01*
X70719768Y-93589373D01*
X71090232Y-93589373D01*
X71090513Y-93595000D01*
X71090232Y-93600627D01*
X71090824Y-93601219D01*
X71099853Y-93781876D01*
X71346523Y-93856918D01*
X71540000Y-94050395D01*
X71730225Y-93860170D01*
X71809923Y-93852385D01*
X71980147Y-93781876D01*
X71989176Y-93601219D01*
X71989768Y-93600627D01*
X71989487Y-93595000D01*
X71989768Y-93589373D01*
X71989176Y-93588781D01*
X71980147Y-93408124D01*
X71733477Y-93333082D01*
X71540000Y-93139605D01*
X71349775Y-93329830D01*
X71270077Y-93337615D01*
X71099853Y-93408124D01*
X71090824Y-93588781D01*
X71090232Y-93589373D01*
X70719768Y-93589373D01*
X70719176Y-93588781D01*
X70710147Y-93408124D01*
X70463477Y-93333082D01*
X70270000Y-93139605D01*
X70079775Y-93329830D01*
X70000077Y-93337615D01*
X69829853Y-93408124D01*
X69820824Y-93588781D01*
X69820232Y-93589373D01*
X69449768Y-93589373D01*
X69449176Y-93588781D01*
X69440147Y-93408124D01*
X69193477Y-93333082D01*
X69000000Y-93139605D01*
X68809775Y-93329830D01*
X68730077Y-93337615D01*
X68559853Y-93408124D01*
X68550824Y-93588781D01*
X68550232Y-93589373D01*
X68179768Y-93589373D01*
X68179176Y-93588781D01*
X68170147Y-93408124D01*
X67923477Y-93333082D01*
X67730000Y-93139605D01*
X67539775Y-93329830D01*
X67460077Y-93337615D01*
X67289853Y-93408124D01*
X67280824Y-93588781D01*
X67280232Y-93589373D01*
X66909768Y-93589373D01*
X66909176Y-93588781D01*
X66900147Y-93408124D01*
X66653477Y-93333082D01*
X66460000Y-93139605D01*
X66269775Y-93329830D01*
X66190077Y-93337615D01*
X66019853Y-93408124D01*
X66010824Y-93588781D01*
X66010232Y-93589373D01*
X65065581Y-93589373D01*
X65124998Y-93445929D01*
X65124998Y-93054071D01*
X65047873Y-92867875D01*
X65532249Y-92867875D01*
X65567615Y-93229923D01*
X65638124Y-93400147D01*
X65830627Y-93409768D01*
X66280395Y-92960000D01*
X66639605Y-92960000D01*
X66829830Y-93150225D01*
X66837615Y-93229923D01*
X66908124Y-93400147D01*
X67088781Y-93409176D01*
X67089373Y-93409768D01*
X67095000Y-93409487D01*
X67100627Y-93409768D01*
X67101219Y-93409176D01*
X67281876Y-93400147D01*
X67356918Y-93153477D01*
X67550395Y-92960000D01*
X67909605Y-92960000D01*
X68099830Y-93150225D01*
X68107615Y-93229923D01*
X68178124Y-93400147D01*
X68358781Y-93409176D01*
X68359373Y-93409768D01*
X68365000Y-93409487D01*
X68370627Y-93409768D01*
X68371219Y-93409176D01*
X68551876Y-93400147D01*
X68626918Y-93153477D01*
X68820395Y-92960000D01*
X69179605Y-92960000D01*
X69369830Y-93150225D01*
X69377615Y-93229923D01*
X69448124Y-93400147D01*
X69628781Y-93409176D01*
X69629373Y-93409768D01*
X69635000Y-93409487D01*
X69640627Y-93409768D01*
X69641219Y-93409176D01*
X69821876Y-93400147D01*
X69896918Y-93153477D01*
X70090395Y-92960000D01*
X70449605Y-92960000D01*
X70639830Y-93150225D01*
X70647615Y-93229923D01*
X70718124Y-93400147D01*
X70898781Y-93409176D01*
X70899373Y-93409768D01*
X70905000Y-93409487D01*
X70910627Y-93409768D01*
X70911219Y-93409176D01*
X71091876Y-93400147D01*
X71166918Y-93153477D01*
X71360395Y-92960000D01*
X71719605Y-92960000D01*
X72169373Y-93409768D01*
X72361876Y-93400147D01*
X72467751Y-93052125D01*
X72432385Y-92690077D01*
X72361876Y-92519853D01*
X72169373Y-92510232D01*
X71719605Y-92960000D01*
X71360395Y-92960000D01*
X71170170Y-92769775D01*
X71162385Y-92690077D01*
X71091876Y-92519853D01*
X70911219Y-92510824D01*
X70910627Y-92510232D01*
X70905000Y-92510513D01*
X70899373Y-92510232D01*
X70898781Y-92510824D01*
X70718124Y-92519853D01*
X70643082Y-92766523D01*
X70449605Y-92960000D01*
X70090395Y-92960000D01*
X69900170Y-92769775D01*
X69892385Y-92690077D01*
X69821876Y-92519853D01*
X69641219Y-92510824D01*
X69640627Y-92510232D01*
X69635000Y-92510513D01*
X69629373Y-92510232D01*
X69628781Y-92510824D01*
X69448124Y-92519853D01*
X69373082Y-92766523D01*
X69179605Y-92960000D01*
X68820395Y-92960000D01*
X68630170Y-92769775D01*
X68622385Y-92690077D01*
X68551876Y-92519853D01*
X68371219Y-92510824D01*
X68370627Y-92510232D01*
X68365000Y-92510513D01*
X68359373Y-92510232D01*
X68358781Y-92510824D01*
X68178124Y-92519853D01*
X68103082Y-92766523D01*
X67909605Y-92960000D01*
X67550395Y-92960000D01*
X67360170Y-92769775D01*
X67352385Y-92690077D01*
X67281876Y-92519853D01*
X67101219Y-92510824D01*
X67100627Y-92510232D01*
X67095000Y-92510513D01*
X67089373Y-92510232D01*
X67088781Y-92510824D01*
X66908124Y-92519853D01*
X66833082Y-92766523D01*
X66639605Y-92960000D01*
X66280395Y-92960000D01*
X65830627Y-92510232D01*
X65638124Y-92519853D01*
X65532249Y-92867875D01*
X65047873Y-92867875D01*
X64975040Y-92692042D01*
X64697956Y-92414958D01*
X64494364Y-92330627D01*
X66010232Y-92330627D01*
X66460000Y-92780395D01*
X66909768Y-92330627D01*
X67280232Y-92330627D01*
X67730000Y-92780395D01*
X68179768Y-92330627D01*
X68550232Y-92330627D01*
X69000000Y-92780395D01*
X69449768Y-92330627D01*
X69820232Y-92330627D01*
X70270000Y-92780395D01*
X70719768Y-92330627D01*
X71090232Y-92330627D01*
X71540000Y-92780395D01*
X71989768Y-92330627D01*
X71988441Y-92304071D01*
X76015000Y-92304071D01*
X76015000Y-92695929D01*
X76164958Y-93057958D01*
X76442042Y-93335042D01*
X76804071Y-93485000D01*
X77195929Y-93485000D01*
X77557958Y-93335042D01*
X77835042Y-93057958D01*
X77985000Y-92695929D01*
X77985000Y-92554071D01*
X79154998Y-92554071D01*
X79154998Y-92945929D01*
X79304956Y-93307958D01*
X79582040Y-93585042D01*
X79944069Y-93735000D01*
X80335927Y-93735000D01*
X80697956Y-93585042D01*
X80728927Y-93554071D01*
X88875002Y-93554071D01*
X88875002Y-93945929D01*
X89024960Y-94307958D01*
X89217023Y-94500021D01*
X89025002Y-94692042D01*
X88875044Y-95054071D01*
X88875044Y-95445929D01*
X89025002Y-95807958D01*
X89217023Y-95999979D01*
X89024960Y-96192042D01*
X88875002Y-96554071D01*
X88875002Y-96945929D01*
X89024960Y-97307958D01*
X89302044Y-97585042D01*
X89664073Y-97735000D01*
X90055931Y-97735000D01*
X90417960Y-97585042D01*
X90695044Y-97307958D01*
X90845002Y-96945929D01*
X90845002Y-96554071D01*
X90695044Y-96192042D01*
X90503023Y-96000021D01*
X90695086Y-95807958D01*
X90845044Y-95445929D01*
X90845044Y-95054071D01*
X90695086Y-94692042D01*
X90503023Y-94499979D01*
X90695044Y-94307958D01*
X90696654Y-94304071D01*
X93015000Y-94304071D01*
X93015000Y-94695929D01*
X93164958Y-95057958D01*
X93442042Y-95335042D01*
X93804071Y-95485000D01*
X94195929Y-95485000D01*
X94557958Y-95335042D01*
X94835042Y-95057958D01*
X94985000Y-94695929D01*
X94985000Y-94378000D01*
X95192042Y-94585042D01*
X95554071Y-94735000D01*
X95781184Y-94735000D01*
X95914958Y-95057958D01*
X96192042Y-95335042D01*
X96554071Y-95485000D01*
X96945929Y-95485000D01*
X97307958Y-95335042D01*
X97585042Y-95057958D01*
X97735000Y-94695929D01*
X97735000Y-94304071D01*
X97585042Y-93942042D01*
X97307958Y-93664958D01*
X96945929Y-93515000D01*
X96718816Y-93515000D01*
X96585042Y-93192042D01*
X96307958Y-92914958D01*
X95945929Y-92765000D01*
X95718816Y-92765000D01*
X95631447Y-92554071D01*
X97014974Y-92554071D01*
X97014974Y-92945929D01*
X97164932Y-93307958D01*
X97442016Y-93585042D01*
X97804045Y-93735000D01*
X98195903Y-93735000D01*
X98557932Y-93585042D01*
X98835016Y-93307958D01*
X98984974Y-92945929D01*
X98984974Y-92804071D01*
X107765000Y-92804071D01*
X107765000Y-93195929D01*
X107914958Y-93557958D01*
X108192042Y-93835042D01*
X108554071Y-93985000D01*
X108764990Y-93985000D01*
X108764990Y-94195929D01*
X108914948Y-94557958D01*
X109192032Y-94835042D01*
X109554061Y-94985000D01*
X109945919Y-94985000D01*
X110307948Y-94835042D01*
X110585032Y-94557958D01*
X110734990Y-94195929D01*
X110734990Y-93804071D01*
X110585032Y-93442042D01*
X110307948Y-93164958D01*
X109945919Y-93015000D01*
X109735000Y-93015000D01*
X109735000Y-92804071D01*
X109585042Y-92442042D01*
X109307958Y-92164958D01*
X108945929Y-92015000D01*
X108554071Y-92015000D01*
X108192042Y-92164958D01*
X107914958Y-92442042D01*
X107765000Y-92804071D01*
X98984974Y-92804071D01*
X98984974Y-92554071D01*
X98835016Y-92192042D01*
X98557932Y-91914958D01*
X98195903Y-91765000D01*
X97804045Y-91765000D01*
X97442016Y-91914958D01*
X97164932Y-92192042D01*
X97014974Y-92554071D01*
X95631447Y-92554071D01*
X95585042Y-92442042D01*
X95307958Y-92164958D01*
X94945929Y-92015000D01*
X94554071Y-92015000D01*
X94192042Y-92164958D01*
X93914958Y-92442042D01*
X93765000Y-92804071D01*
X93765000Y-93195929D01*
X93897164Y-93515000D01*
X93804071Y-93515000D01*
X93442042Y-93664958D01*
X93164958Y-93942042D01*
X93015000Y-94304071D01*
X90696654Y-94304071D01*
X90845002Y-93945929D01*
X90845002Y-93554071D01*
X90695044Y-93192042D01*
X90417960Y-92914958D01*
X90055931Y-92765000D01*
X89664073Y-92765000D01*
X89302044Y-92914958D01*
X89024960Y-93192042D01*
X88875002Y-93554071D01*
X80728927Y-93554071D01*
X80975040Y-93307958D01*
X81124998Y-92945929D01*
X81124998Y-92554071D01*
X80975040Y-92192042D01*
X80697956Y-91914958D01*
X80335927Y-91765000D01*
X79944069Y-91765000D01*
X79582040Y-91914958D01*
X79304956Y-92192042D01*
X79154998Y-92554071D01*
X77985000Y-92554071D01*
X77985000Y-92413852D01*
X78134081Y-92475604D01*
X78525939Y-92475604D01*
X78887968Y-92325646D01*
X79165052Y-92048562D01*
X79315010Y-91686533D01*
X79315010Y-91294675D01*
X79165052Y-90932646D01*
X78887968Y-90655562D01*
X78642949Y-90554071D01*
X81015000Y-90554071D01*
X81015000Y-90945929D01*
X81164958Y-91307958D01*
X81442042Y-91585042D01*
X81804071Y-91735000D01*
X82195929Y-91735000D01*
X82557958Y-91585042D01*
X82835042Y-91307958D01*
X82985000Y-90945929D01*
X82985000Y-90554071D01*
X83193928Y-90554071D01*
X83193928Y-90945929D01*
X83343886Y-91307958D01*
X83620970Y-91585042D01*
X83982999Y-91735000D01*
X84374857Y-91735000D01*
X84736886Y-91585042D01*
X84870727Y-91451201D01*
X84914951Y-91557965D01*
X85192035Y-91835049D01*
X85554064Y-91985007D01*
X85945922Y-91985007D01*
X86307951Y-91835049D01*
X86585035Y-91557965D01*
X86608446Y-91501446D01*
X86692042Y-91585042D01*
X87054071Y-91735000D01*
X87445929Y-91735000D01*
X87807958Y-91585042D01*
X88085042Y-91307958D01*
X88235000Y-90945929D01*
X88235000Y-90554071D01*
X88085042Y-90192042D01*
X87807958Y-89914958D01*
X87445929Y-89765000D01*
X87365262Y-89765000D01*
X87335042Y-89692042D01*
X87057958Y-89414958D01*
X86695929Y-89265000D01*
X86304071Y-89265000D01*
X85942042Y-89414958D01*
X85664958Y-89692042D01*
X85526442Y-90026449D01*
X85192035Y-90164965D01*
X85058194Y-90298806D01*
X85013970Y-90192042D01*
X84736886Y-89914958D01*
X84374857Y-89765000D01*
X83982999Y-89765000D01*
X83620970Y-89914958D01*
X83343886Y-90192042D01*
X83193928Y-90554071D01*
X82985000Y-90554071D01*
X82835042Y-90192042D01*
X82557958Y-89914958D01*
X82195929Y-89765000D01*
X81804071Y-89765000D01*
X81442042Y-89914958D01*
X81164958Y-90192042D01*
X81015000Y-90554071D01*
X78642949Y-90554071D01*
X78525939Y-90505604D01*
X78134081Y-90505604D01*
X77772052Y-90655562D01*
X77494968Y-90932646D01*
X77345010Y-91294675D01*
X77345010Y-91576752D01*
X77195929Y-91515000D01*
X76804071Y-91515000D01*
X76442042Y-91664958D01*
X76164958Y-91942042D01*
X76015000Y-92304071D01*
X71988441Y-92304071D01*
X71980147Y-92138124D01*
X71632125Y-92032249D01*
X71270077Y-92067615D01*
X71099853Y-92138124D01*
X71090232Y-92330627D01*
X70719768Y-92330627D01*
X70710147Y-92138124D01*
X70362125Y-92032249D01*
X70000077Y-92067615D01*
X69829853Y-92138124D01*
X69820232Y-92330627D01*
X69449768Y-92330627D01*
X69440147Y-92138124D01*
X69092125Y-92032249D01*
X68730077Y-92067615D01*
X68559853Y-92138124D01*
X68550232Y-92330627D01*
X68179768Y-92330627D01*
X68170147Y-92138124D01*
X67822125Y-92032249D01*
X67460077Y-92067615D01*
X67289853Y-92138124D01*
X67280232Y-92330627D01*
X66909768Y-92330627D01*
X66900147Y-92138124D01*
X66552125Y-92032249D01*
X66190077Y-92067615D01*
X66019853Y-92138124D01*
X66010232Y-92330627D01*
X64494364Y-92330627D01*
X64335927Y-92265000D01*
X63944069Y-92265000D01*
X63582040Y-92414958D01*
X63304956Y-92692042D01*
X63154998Y-93054071D01*
X50685000Y-93054071D01*
X50685000Y-90444069D01*
X65265000Y-90444069D01*
X65265000Y-90835927D01*
X65414958Y-91197956D01*
X65692042Y-91475040D01*
X66054071Y-91624998D01*
X66445929Y-91624998D01*
X66807958Y-91475040D01*
X66819999Y-91462999D01*
X66942042Y-91585042D01*
X67304071Y-91735000D01*
X67695929Y-91735000D01*
X68057958Y-91585042D01*
X68274007Y-91368993D01*
X68554071Y-91485000D01*
X68945929Y-91485000D01*
X69307958Y-91335042D01*
X69585042Y-91057958D01*
X69640028Y-90925212D01*
X69695013Y-91057958D01*
X69972097Y-91335042D01*
X70334126Y-91485000D01*
X70725984Y-91485000D01*
X71088013Y-91335042D01*
X71359349Y-91063706D01*
X71414958Y-91197956D01*
X71692042Y-91475040D01*
X72054071Y-91624998D01*
X72445929Y-91624998D01*
X72807958Y-91475040D01*
X73085042Y-91197956D01*
X73235000Y-90835927D01*
X73235000Y-90602836D01*
X73554071Y-90735000D01*
X73945929Y-90735000D01*
X74307958Y-90585042D01*
X74585042Y-90307958D01*
X74735000Y-89945929D01*
X74735000Y-89554071D01*
X74585042Y-89192042D01*
X74307958Y-88914958D01*
X73945929Y-88765000D01*
X73554071Y-88765000D01*
X73192042Y-88914958D01*
X72914958Y-89192042D01*
X72765000Y-89554071D01*
X72765000Y-89787162D01*
X72445929Y-89654998D01*
X72054071Y-89654998D01*
X71692042Y-89804956D01*
X71420706Y-90076292D01*
X71365097Y-89942042D01*
X71088013Y-89664958D01*
X70725984Y-89515000D01*
X70527346Y-89515000D01*
X70527346Y-89347722D01*
X70557958Y-89335042D01*
X70625000Y-89268000D01*
X70692042Y-89335042D01*
X71054071Y-89485000D01*
X71445929Y-89485000D01*
X71807958Y-89335042D01*
X72085042Y-89057958D01*
X72235000Y-88695929D01*
X72235000Y-88304071D01*
X72085042Y-87942042D01*
X71807958Y-87664958D01*
X71445929Y-87515000D01*
X71054071Y-87515000D01*
X70692042Y-87664958D01*
X70625000Y-87732000D01*
X70557958Y-87664958D01*
X70195929Y-87515000D01*
X69804071Y-87515000D01*
X69442042Y-87664958D01*
X69164958Y-87942042D01*
X69107087Y-88081754D01*
X68945929Y-88015000D01*
X68554071Y-88015000D01*
X68192042Y-88164958D01*
X67914958Y-88442042D01*
X67781184Y-88765000D01*
X67554071Y-88765000D01*
X67192042Y-88914958D01*
X66914958Y-89192042D01*
X66765000Y-89554071D01*
X66765000Y-89787162D01*
X66445929Y-89654998D01*
X66054071Y-89654998D01*
X65692042Y-89804956D01*
X65414958Y-90082040D01*
X65265000Y-90444069D01*
X50685000Y-90444069D01*
X50685000Y-86554071D01*
X63515000Y-86554071D01*
X63515000Y-86945929D01*
X63664958Y-87307958D01*
X63942042Y-87585042D01*
X64304071Y-87735000D01*
X64695929Y-87735000D01*
X65057958Y-87585042D01*
X65335042Y-87307958D01*
X65485000Y-86945929D01*
X65485000Y-86554071D01*
X65335042Y-86192042D01*
X65057958Y-85914958D01*
X64695929Y-85765000D01*
X64304071Y-85765000D01*
X63942042Y-85914958D01*
X63664958Y-86192042D01*
X63515000Y-86554071D01*
X50685000Y-86554071D01*
X50685000Y-85554071D01*
X70265000Y-85554071D01*
X70265000Y-85945929D01*
X70414958Y-86307958D01*
X70692042Y-86585042D01*
X71054071Y-86735000D01*
X71281178Y-86735000D01*
X71414952Y-87057958D01*
X71692036Y-87335042D01*
X72054065Y-87485000D01*
X72445923Y-87485000D01*
X72807952Y-87335042D01*
X73085036Y-87057958D01*
X73086646Y-87054071D01*
X77015000Y-87054071D01*
X77015000Y-87445929D01*
X77164958Y-87807958D01*
X77442042Y-88085042D01*
X77804071Y-88235000D01*
X78195929Y-88235000D01*
X78557958Y-88085042D01*
X78835042Y-87807958D01*
X78940205Y-87554071D01*
X84765000Y-87554071D01*
X84765000Y-87945929D01*
X84914958Y-88307958D01*
X85192042Y-88585042D01*
X85554071Y-88735000D01*
X85945929Y-88735000D01*
X86307958Y-88585042D01*
X86585042Y-88307958D01*
X86586652Y-88304071D01*
X87515000Y-88304071D01*
X87515000Y-88695929D01*
X87664958Y-89057958D01*
X87942042Y-89335042D01*
X88304071Y-89485000D01*
X88695929Y-89485000D01*
X89057958Y-89335042D01*
X89335042Y-89057958D01*
X89485000Y-88695929D01*
X89485000Y-88554071D01*
X91015000Y-88554071D01*
X91015000Y-88945929D01*
X91164958Y-89307958D01*
X91442042Y-89585042D01*
X91804071Y-89735000D01*
X92195929Y-89735000D01*
X92557958Y-89585042D01*
X92835042Y-89307958D01*
X92985000Y-88945929D01*
X92985000Y-88554071D01*
X93765000Y-88554071D01*
X93765000Y-88945929D01*
X93914958Y-89307958D01*
X94192042Y-89585042D01*
X94554071Y-89735000D01*
X94945929Y-89735000D01*
X95250000Y-89609049D01*
X95554071Y-89735000D01*
X95945929Y-89735000D01*
X96250010Y-89609045D01*
X96554071Y-89734992D01*
X96945929Y-89734992D01*
X97307958Y-89585034D01*
X97585042Y-89307950D01*
X97735000Y-88945921D01*
X97735000Y-88804071D01*
X110625002Y-88804071D01*
X110625002Y-89195929D01*
X110774960Y-89557958D01*
X111052044Y-89835042D01*
X111414073Y-89985000D01*
X111805931Y-89985000D01*
X112167960Y-89835042D01*
X112445044Y-89557958D01*
X112595002Y-89195929D01*
X112595002Y-88804071D01*
X112445044Y-88442042D01*
X112167960Y-88164958D01*
X111805931Y-88015000D01*
X111414073Y-88015000D01*
X111052044Y-88164958D01*
X110774960Y-88442042D01*
X110625002Y-88804071D01*
X97735000Y-88804071D01*
X97735000Y-88554063D01*
X97585042Y-88192034D01*
X97307958Y-87914950D01*
X96945929Y-87764992D01*
X96554071Y-87764992D01*
X96249990Y-87890947D01*
X95945929Y-87765000D01*
X95554071Y-87765000D01*
X95250000Y-87890951D01*
X94945929Y-87765000D01*
X94554071Y-87765000D01*
X94192042Y-87914958D01*
X93914958Y-88192042D01*
X93765000Y-88554071D01*
X92985000Y-88554071D01*
X92835042Y-88192042D01*
X92557958Y-87914958D01*
X92195929Y-87765000D01*
X91804071Y-87765000D01*
X91442042Y-87914958D01*
X91164958Y-88192042D01*
X91015000Y-88554071D01*
X89485000Y-88554071D01*
X89485000Y-88304071D01*
X89335042Y-87942042D01*
X89057958Y-87664958D01*
X88695929Y-87515000D01*
X88304071Y-87515000D01*
X87942042Y-87664958D01*
X87664958Y-87942042D01*
X87515000Y-88304071D01*
X86586652Y-88304071D01*
X86735000Y-87945929D01*
X86735000Y-87554071D01*
X86585042Y-87192042D01*
X86307958Y-86914958D01*
X85945929Y-86765000D01*
X85554071Y-86765000D01*
X85192042Y-86914958D01*
X84914958Y-87192042D01*
X84765000Y-87554071D01*
X78940205Y-87554071D01*
X78985000Y-87445929D01*
X78985000Y-87352836D01*
X79304071Y-87485000D01*
X79695929Y-87485000D01*
X80057958Y-87335042D01*
X80335042Y-87057958D01*
X80485000Y-86695929D01*
X80485000Y-86304071D01*
X80335042Y-85942042D01*
X80057958Y-85664958D01*
X79695929Y-85515000D01*
X79304071Y-85515000D01*
X78942042Y-85664958D01*
X78664958Y-85942042D01*
X78515000Y-86304071D01*
X78515000Y-86397164D01*
X78195929Y-86265000D01*
X77804071Y-86265000D01*
X77442042Y-86414958D01*
X77164958Y-86692042D01*
X77015000Y-87054071D01*
X73086646Y-87054071D01*
X73234994Y-86695929D01*
X73234994Y-86304071D01*
X73085036Y-85942042D01*
X72807952Y-85664958D01*
X72445923Y-85515000D01*
X72218816Y-85515000D01*
X72085042Y-85192042D01*
X71807958Y-84914958D01*
X71540255Y-84804071D01*
X91265000Y-84804071D01*
X91265000Y-85195929D01*
X91414958Y-85557958D01*
X91692042Y-85835042D01*
X92054071Y-85985000D01*
X92445929Y-85985000D01*
X92807958Y-85835042D01*
X93085042Y-85557958D01*
X93235000Y-85195929D01*
X93235000Y-84804071D01*
X99265000Y-84804071D01*
X99265000Y-85195929D01*
X99390951Y-85500000D01*
X99265000Y-85804071D01*
X99265000Y-86195929D01*
X99414958Y-86557958D01*
X99692042Y-86835042D01*
X100054071Y-86985000D01*
X100445929Y-86985000D01*
X100807958Y-86835042D01*
X101085042Y-86557958D01*
X101235000Y-86195929D01*
X101235000Y-85804071D01*
X101109049Y-85500000D01*
X101235000Y-85195929D01*
X101235000Y-84804071D01*
X101085042Y-84442042D01*
X100807958Y-84164958D01*
X100445929Y-84015000D01*
X100054071Y-84015000D01*
X99692042Y-84164958D01*
X99414958Y-84442042D01*
X99265000Y-84804071D01*
X93235000Y-84804071D01*
X93085042Y-84442042D01*
X92807958Y-84164958D01*
X92445929Y-84015000D01*
X92054071Y-84015000D01*
X91692042Y-84164958D01*
X91414958Y-84442042D01*
X91265000Y-84804071D01*
X71540255Y-84804071D01*
X71445929Y-84765000D01*
X71054071Y-84765000D01*
X70692042Y-84914958D01*
X70414958Y-85192042D01*
X70265000Y-85554071D01*
X50685000Y-85554071D01*
X50685000Y-79304071D01*
X65765000Y-79304071D01*
X65765000Y-79695929D01*
X65914958Y-80057958D01*
X66107000Y-80250000D01*
X65914958Y-80442042D01*
X65765000Y-80804071D01*
X65765000Y-81195929D01*
X65914958Y-81557958D01*
X66192042Y-81835042D01*
X66554071Y-81985000D01*
X66872000Y-81985000D01*
X66664958Y-82192042D01*
X66515000Y-82554071D01*
X66515000Y-82945929D01*
X66664958Y-83307958D01*
X66942042Y-83585042D01*
X67304071Y-83735000D01*
X67695929Y-83735000D01*
X68057958Y-83585042D01*
X68335042Y-83307958D01*
X68485000Y-82945929D01*
X68485000Y-82804071D01*
X71265000Y-82804071D01*
X71265000Y-83195929D01*
X71414958Y-83557958D01*
X71692042Y-83835042D01*
X72054071Y-83985000D01*
X72445929Y-83985000D01*
X72807958Y-83835042D01*
X73085042Y-83557958D01*
X73235000Y-83195929D01*
X73235000Y-82804071D01*
X73265000Y-82804071D01*
X73265000Y-83195929D01*
X73414958Y-83557958D01*
X73692042Y-83835042D01*
X74054071Y-83985000D01*
X74445929Y-83985000D01*
X74807958Y-83835042D01*
X75085042Y-83557958D01*
X75094240Y-83535750D01*
X78265000Y-83535750D01*
X78265000Y-84226309D01*
X78361673Y-84459698D01*
X78540301Y-84638327D01*
X78773690Y-84735000D01*
X79464250Y-84735000D01*
X79623000Y-84576250D01*
X79623000Y-83377000D01*
X78423750Y-83377000D01*
X78265000Y-83535750D01*
X75094240Y-83535750D01*
X75235000Y-83195929D01*
X75235000Y-82804071D01*
X75085042Y-82442042D01*
X74807958Y-82164958D01*
X74445929Y-82015000D01*
X74054071Y-82015000D01*
X73692042Y-82164958D01*
X73414958Y-82442042D01*
X73265000Y-82804071D01*
X73235000Y-82804071D01*
X73085042Y-82442042D01*
X72807958Y-82164958D01*
X72445929Y-82015000D01*
X72054071Y-82015000D01*
X71692042Y-82164958D01*
X71414958Y-82442042D01*
X71265000Y-82804071D01*
X68485000Y-82804071D01*
X68485000Y-82554071D01*
X68335042Y-82192042D01*
X68057958Y-81914958D01*
X67695929Y-81765000D01*
X67378000Y-81765000D01*
X67585042Y-81557958D01*
X67735000Y-81195929D01*
X67735000Y-80804071D01*
X67585042Y-80442042D01*
X67393000Y-80250000D01*
X67585042Y-80057958D01*
X67586652Y-80054071D01*
X76515000Y-80054071D01*
X76515000Y-80445929D01*
X76589174Y-80625000D01*
X76515000Y-80804071D01*
X76515000Y-81195929D01*
X76589174Y-81375000D01*
X76515000Y-81554071D01*
X76515000Y-81945929D01*
X76664958Y-82307958D01*
X76942042Y-82585042D01*
X77304071Y-82735000D01*
X77695929Y-82735000D01*
X78057958Y-82585042D01*
X78265000Y-82378000D01*
X78265000Y-82964250D01*
X78423750Y-83123000D01*
X79623000Y-83123000D01*
X79623000Y-81923750D01*
X79877000Y-81923750D01*
X79877000Y-83123000D01*
X79897000Y-83123000D01*
X79897000Y-83377000D01*
X79877000Y-83377000D01*
X79877000Y-84576250D01*
X80035750Y-84735000D01*
X80726310Y-84735000D01*
X80959699Y-84638327D01*
X81138327Y-84459698D01*
X81204904Y-84298967D01*
X81219375Y-84320625D01*
X81710582Y-84648839D01*
X82143744Y-84735000D01*
X82436256Y-84735000D01*
X82869418Y-84648839D01*
X83360625Y-84320625D01*
X83688839Y-83829418D01*
X83804092Y-83250000D01*
X83693511Y-82694069D01*
X107515000Y-82694069D01*
X107515000Y-83085927D01*
X107664958Y-83447956D01*
X107942042Y-83725040D01*
X108171292Y-83819999D01*
X107942042Y-83914958D01*
X107664958Y-84192042D01*
X107515000Y-84554071D01*
X107515000Y-84945929D01*
X107664958Y-85307958D01*
X107942042Y-85585042D01*
X108304071Y-85735000D01*
X108695929Y-85735000D01*
X109057958Y-85585042D01*
X109335042Y-85307958D01*
X109485000Y-84945929D01*
X109485000Y-84625050D01*
X120615000Y-84625050D01*
X120615000Y-85374950D01*
X120901974Y-86067767D01*
X121432233Y-86598026D01*
X122125050Y-86885000D01*
X122874950Y-86885000D01*
X123567767Y-86598026D01*
X124098026Y-86067767D01*
X124385000Y-85374950D01*
X124385000Y-84625050D01*
X124098026Y-83932233D01*
X123567767Y-83401974D01*
X122874950Y-83115000D01*
X122125050Y-83115000D01*
X121432233Y-83401974D01*
X120901974Y-83932233D01*
X120615000Y-84625050D01*
X109485000Y-84625050D01*
X109485000Y-84554071D01*
X109335042Y-84192042D01*
X109057958Y-83914958D01*
X108828708Y-83819999D01*
X109057958Y-83725040D01*
X109335042Y-83447956D01*
X109485000Y-83085927D01*
X109485000Y-82804071D01*
X112515000Y-82804071D01*
X112515000Y-83195929D01*
X112664958Y-83557958D01*
X112942042Y-83835042D01*
X113304071Y-83985000D01*
X113695929Y-83985000D01*
X114000000Y-83859049D01*
X114304071Y-83985000D01*
X114695929Y-83985000D01*
X115057958Y-83835042D01*
X115335042Y-83557958D01*
X115485000Y-83195929D01*
X115485000Y-82804071D01*
X115335042Y-82442042D01*
X115057958Y-82164958D01*
X114695929Y-82015000D01*
X114304071Y-82015000D01*
X114000000Y-82140951D01*
X113695929Y-82015000D01*
X113304071Y-82015000D01*
X112942042Y-82164958D01*
X112664958Y-82442042D01*
X112515000Y-82804071D01*
X109485000Y-82804071D01*
X109485000Y-82694069D01*
X109335042Y-82332040D01*
X109057958Y-82054956D01*
X108695929Y-81904998D01*
X108304071Y-81904998D01*
X107942042Y-82054956D01*
X107664958Y-82332040D01*
X107515000Y-82694069D01*
X83693511Y-82694069D01*
X83688839Y-82670582D01*
X83360625Y-82179375D01*
X82869418Y-81851161D01*
X82436256Y-81765000D01*
X82143744Y-81765000D01*
X81710582Y-81851161D01*
X81219375Y-82179375D01*
X81204904Y-82201033D01*
X81138327Y-82040302D01*
X80959699Y-81861673D01*
X80726310Y-81765000D01*
X80035750Y-81765000D01*
X79877000Y-81923750D01*
X79623000Y-81923750D01*
X79464250Y-81765000D01*
X78773690Y-81765000D01*
X78540301Y-81861673D01*
X78485000Y-81916974D01*
X78485000Y-81554071D01*
X78410826Y-81375000D01*
X78485000Y-81195929D01*
X78485000Y-80804071D01*
X78410826Y-80625000D01*
X78485000Y-80445929D01*
X78485000Y-80054071D01*
X78335042Y-79692042D01*
X78057958Y-79414958D01*
X77695929Y-79265000D01*
X77304071Y-79265000D01*
X76942042Y-79414958D01*
X76664958Y-79692042D01*
X76515000Y-80054071D01*
X67586652Y-80054071D01*
X67735000Y-79695929D01*
X67735000Y-79304071D01*
X67585042Y-78942042D01*
X67307958Y-78664958D01*
X66945929Y-78515000D01*
X66554071Y-78515000D01*
X66192042Y-78664958D01*
X65914958Y-78942042D01*
X65765000Y-79304071D01*
X50685000Y-79304071D01*
X50685000Y-77740910D01*
X51438695Y-77740910D01*
X51805640Y-78236343D01*
X53211171Y-78829736D01*
X54736793Y-78840087D01*
X56150246Y-78265819D01*
X56194360Y-78236343D01*
X56561305Y-77740910D01*
X54000000Y-75179605D01*
X51438695Y-77740910D01*
X50685000Y-77740910D01*
X50685000Y-77029196D01*
X50734181Y-77150246D01*
X50763657Y-77194360D01*
X51259090Y-77561305D01*
X53820395Y-75000000D01*
X54179605Y-75000000D01*
X56740910Y-77561305D01*
X57236343Y-77194360D01*
X57829736Y-75788829D01*
X57833798Y-75190000D01*
X91055908Y-75190000D01*
X91171161Y-75769418D01*
X91499375Y-76260625D01*
X91517619Y-76272816D01*
X91472235Y-76281843D01*
X91262191Y-76422191D01*
X91121843Y-76632235D01*
X91072560Y-76880000D01*
X91072560Y-78580000D01*
X91121843Y-78827765D01*
X91262191Y-79037809D01*
X91472235Y-79178157D01*
X91720000Y-79227440D01*
X93420000Y-79227440D01*
X93667765Y-79178157D01*
X93877809Y-79037809D01*
X94018157Y-78827765D01*
X94027184Y-78782381D01*
X94039375Y-78800625D01*
X94530582Y-79128839D01*
X94909886Y-79204287D01*
X94765000Y-79554071D01*
X94765000Y-79945929D01*
X94914958Y-80307958D01*
X95192042Y-80585042D01*
X95554071Y-80735000D01*
X95945929Y-80735000D01*
X96307958Y-80585042D01*
X96585042Y-80307958D01*
X96735000Y-79945929D01*
X96735000Y-79554071D01*
X96585042Y-79192042D01*
X96307958Y-78914958D01*
X96123724Y-78838645D01*
X96180625Y-78800625D01*
X96380000Y-78502239D01*
X96579375Y-78800625D01*
X97070582Y-79128839D01*
X97503744Y-79215000D01*
X97796256Y-79215000D01*
X98229418Y-79128839D01*
X98720625Y-78800625D01*
X98920000Y-78502239D01*
X99119375Y-78800625D01*
X99610582Y-79128839D01*
X100043744Y-79215000D01*
X100336256Y-79215000D01*
X100769418Y-79128839D01*
X101260625Y-78800625D01*
X101460000Y-78502239D01*
X101659375Y-78800625D01*
X102150582Y-79128839D01*
X102583744Y-79215000D01*
X102876256Y-79215000D01*
X103309418Y-79128839D01*
X103800625Y-78800625D01*
X104000000Y-78502239D01*
X104199375Y-78800625D01*
X104690582Y-79128839D01*
X105123744Y-79215000D01*
X105416256Y-79215000D01*
X105849418Y-79128839D01*
X106340625Y-78800625D01*
X106540000Y-78502239D01*
X106739375Y-78800625D01*
X107230582Y-79128839D01*
X107663744Y-79215000D01*
X107956256Y-79215000D01*
X108389418Y-79128839D01*
X108880625Y-78800625D01*
X109080000Y-78502239D01*
X109279375Y-78800625D01*
X109770582Y-79128839D01*
X110203744Y-79215000D01*
X110496256Y-79215000D01*
X110929418Y-79128839D01*
X111420625Y-78800625D01*
X111620000Y-78502239D01*
X111819375Y-78800625D01*
X112310582Y-79128839D01*
X112743744Y-79215000D01*
X113036256Y-79215000D01*
X113469418Y-79128839D01*
X113960625Y-78800625D01*
X114160000Y-78502239D01*
X114359375Y-78800625D01*
X114850582Y-79128839D01*
X115283744Y-79215000D01*
X115576256Y-79215000D01*
X116009418Y-79128839D01*
X116500625Y-78800625D01*
X116828839Y-78309418D01*
X116941921Y-77740910D01*
X123438695Y-77740910D01*
X123805640Y-78236343D01*
X125211171Y-78829736D01*
X126736793Y-78840087D01*
X128150246Y-78265819D01*
X128194360Y-78236343D01*
X128561305Y-77740910D01*
X126000000Y-75179605D01*
X123438695Y-77740910D01*
X116941921Y-77740910D01*
X116944092Y-77730000D01*
X116828839Y-77150582D01*
X116500625Y-76659375D01*
X116200214Y-76458647D01*
X116625183Y-76071358D01*
X116782303Y-75736793D01*
X122159913Y-75736793D01*
X122734181Y-77150246D01*
X122763657Y-77194360D01*
X123259090Y-77561305D01*
X125820395Y-75000000D01*
X123259090Y-72438695D01*
X122763657Y-72805640D01*
X122170264Y-74211171D01*
X122159913Y-75736793D01*
X116782303Y-75736793D01*
X116871486Y-75546892D01*
X116750819Y-75317000D01*
X115557000Y-75317000D01*
X115557000Y-75337000D01*
X115303000Y-75337000D01*
X115303000Y-75317000D01*
X113017000Y-75317000D01*
X113017000Y-75337000D01*
X112763000Y-75337000D01*
X112763000Y-75317000D01*
X110477000Y-75317000D01*
X110477000Y-75337000D01*
X110223000Y-75337000D01*
X110223000Y-75317000D01*
X107937000Y-75317000D01*
X107937000Y-75337000D01*
X107683000Y-75337000D01*
X107683000Y-75317000D01*
X105397000Y-75317000D01*
X105397000Y-75337000D01*
X105143000Y-75337000D01*
X105143000Y-75317000D01*
X102857000Y-75317000D01*
X102857000Y-75337000D01*
X102603000Y-75337000D01*
X102603000Y-75317000D01*
X100317000Y-75317000D01*
X100317000Y-75337000D01*
X100063000Y-75337000D01*
X100063000Y-75317000D01*
X97777000Y-75317000D01*
X97777000Y-75337000D01*
X97523000Y-75337000D01*
X97523000Y-75317000D01*
X95237000Y-75317000D01*
X95237000Y-75337000D01*
X94983000Y-75337000D01*
X94983000Y-75317000D01*
X94963000Y-75317000D01*
X94963000Y-75063000D01*
X94983000Y-75063000D01*
X94983000Y-73869845D01*
X95237000Y-73869845D01*
X95237000Y-75063000D01*
X97523000Y-75063000D01*
X97523000Y-73869845D01*
X97777000Y-73869845D01*
X97777000Y-75063000D01*
X100063000Y-75063000D01*
X100063000Y-73869845D01*
X100317000Y-73869845D01*
X100317000Y-75063000D01*
X102603000Y-75063000D01*
X102603000Y-73869845D01*
X102857000Y-73869845D01*
X102857000Y-75063000D01*
X105143000Y-75063000D01*
X105143000Y-73869845D01*
X105397000Y-73869845D01*
X105397000Y-75063000D01*
X107683000Y-75063000D01*
X107683000Y-73869845D01*
X107937000Y-73869845D01*
X107937000Y-75063000D01*
X110223000Y-75063000D01*
X110223000Y-73869845D01*
X110477000Y-73869845D01*
X110477000Y-75063000D01*
X112763000Y-75063000D01*
X112763000Y-73869845D01*
X113017000Y-73869845D01*
X113017000Y-75063000D01*
X115303000Y-75063000D01*
X115303000Y-73869845D01*
X115557000Y-73869845D01*
X115557000Y-75063000D01*
X116750819Y-75063000D01*
X116871486Y-74833108D01*
X116625183Y-74308642D01*
X116196924Y-73918355D01*
X115786890Y-73748524D01*
X115557000Y-73869845D01*
X115303000Y-73869845D01*
X115073110Y-73748524D01*
X114663076Y-73918355D01*
X114234817Y-74308642D01*
X114160000Y-74467954D01*
X114085183Y-74308642D01*
X113656924Y-73918355D01*
X113246890Y-73748524D01*
X113017000Y-73869845D01*
X112763000Y-73869845D01*
X112533110Y-73748524D01*
X112123076Y-73918355D01*
X111694817Y-74308642D01*
X111620000Y-74467954D01*
X111545183Y-74308642D01*
X111116924Y-73918355D01*
X110706890Y-73748524D01*
X110477000Y-73869845D01*
X110223000Y-73869845D01*
X109993110Y-73748524D01*
X109583076Y-73918355D01*
X109154817Y-74308642D01*
X109080000Y-74467954D01*
X109005183Y-74308642D01*
X108576924Y-73918355D01*
X108166890Y-73748524D01*
X107937000Y-73869845D01*
X107683000Y-73869845D01*
X107453110Y-73748524D01*
X107043076Y-73918355D01*
X106614817Y-74308642D01*
X106540000Y-74467954D01*
X106465183Y-74308642D01*
X106036924Y-73918355D01*
X105626890Y-73748524D01*
X105397000Y-73869845D01*
X105143000Y-73869845D01*
X104913110Y-73748524D01*
X104503076Y-73918355D01*
X104074817Y-74308642D01*
X104000000Y-74467954D01*
X103925183Y-74308642D01*
X103496924Y-73918355D01*
X103086890Y-73748524D01*
X102857000Y-73869845D01*
X102603000Y-73869845D01*
X102373110Y-73748524D01*
X101963076Y-73918355D01*
X101534817Y-74308642D01*
X101460000Y-74467954D01*
X101385183Y-74308642D01*
X100956924Y-73918355D01*
X100546890Y-73748524D01*
X100317000Y-73869845D01*
X100063000Y-73869845D01*
X99833110Y-73748524D01*
X99423076Y-73918355D01*
X98994817Y-74308642D01*
X98920000Y-74467954D01*
X98845183Y-74308642D01*
X98416924Y-73918355D01*
X98006890Y-73748524D01*
X97777000Y-73869845D01*
X97523000Y-73869845D01*
X97293110Y-73748524D01*
X96883076Y-73918355D01*
X96454817Y-74308642D01*
X96380000Y-74467954D01*
X96305183Y-74308642D01*
X95876924Y-73918355D01*
X95466890Y-73748524D01*
X95237000Y-73869845D01*
X94983000Y-73869845D01*
X94753110Y-73748524D01*
X94343076Y-73918355D01*
X93914817Y-74308642D01*
X93853843Y-74438478D01*
X93640625Y-74119375D01*
X93149418Y-73791161D01*
X92716256Y-73705000D01*
X92423744Y-73705000D01*
X91990582Y-73791161D01*
X91499375Y-74119375D01*
X91171161Y-74610582D01*
X91055908Y-75190000D01*
X57833798Y-75190000D01*
X57840087Y-74263207D01*
X57265819Y-72849754D01*
X57236343Y-72805640D01*
X56740910Y-72438695D01*
X54179605Y-75000000D01*
X53820395Y-75000000D01*
X53806253Y-74985858D01*
X53985858Y-74806253D01*
X54000000Y-74820395D01*
X56561305Y-72259090D01*
X56194360Y-71763657D01*
X56008050Y-71685000D01*
X123970804Y-71685000D01*
X123849754Y-71734181D01*
X123849754Y-71734181D01*
G37*
X123849754Y-71734181D02*
X123805640Y-71763657D01*
X123438695Y-72259090D01*
X126000000Y-74820395D01*
X126014143Y-74806253D01*
X126193748Y-74985858D01*
X126179605Y-75000000D01*
X128740910Y-77561305D01*
X129236343Y-77194360D01*
X129315000Y-77008050D01*
X129315001Y-113970806D01*
X129265819Y-113849754D01*
X129236343Y-113805640D01*
X128740910Y-113438695D01*
X126179605Y-116000000D01*
X126193748Y-116014143D01*
X126014143Y-116193748D01*
X126000000Y-116179605D01*
X123438695Y-118740910D01*
X123805640Y-119236343D01*
X123991950Y-119315000D01*
X56029196Y-119315000D01*
X56150246Y-119265819D01*
X56194360Y-119236343D01*
X56561305Y-118740910D01*
X54000000Y-116179605D01*
X53985858Y-116193748D01*
X53806253Y-116014143D01*
X53820395Y-116000000D01*
X54179605Y-116000000D01*
X56740910Y-118561305D01*
X57236343Y-118194360D01*
X57829736Y-116788829D01*
X57834498Y-116086892D01*
X91128514Y-116086892D01*
X91374817Y-116611358D01*
X91803076Y-117001645D01*
X92213110Y-117171476D01*
X92443000Y-117050155D01*
X92443000Y-115857000D01*
X92697000Y-115857000D01*
X92697000Y-117050155D01*
X92926890Y-117171476D01*
X93336924Y-117001645D01*
X93765183Y-116611358D01*
X93840000Y-116452046D01*
X93914817Y-116611358D01*
X94343076Y-117001645D01*
X94753110Y-117171476D01*
X94983000Y-117050155D01*
X94983000Y-115857000D01*
X95237000Y-115857000D01*
X95237000Y-117050155D01*
X95466890Y-117171476D01*
X95876924Y-117001645D01*
X96305183Y-116611358D01*
X96380000Y-116452046D01*
X96454817Y-116611358D01*
X96883076Y-117001645D01*
X97293110Y-117171476D01*
X97523000Y-117050155D01*
X97523000Y-115857000D01*
X97777000Y-115857000D01*
X97777000Y-117050155D01*
X98006890Y-117171476D01*
X98416924Y-117001645D01*
X98845183Y-116611358D01*
X98920000Y-116452046D01*
X98994817Y-116611358D01*
X99423076Y-117001645D01*
X99833110Y-117171476D01*
X100063000Y-117050155D01*
X100063000Y-115857000D01*
X100317000Y-115857000D01*
X100317000Y-117050155D01*
X100546890Y-117171476D01*
X100956924Y-117001645D01*
X101385183Y-116611358D01*
X101460000Y-116452046D01*
X101534817Y-116611358D01*
X101963076Y-117001645D01*
X102373110Y-117171476D01*
X102603000Y-117050155D01*
X102603000Y-115857000D01*
X102857000Y-115857000D01*
X102857000Y-117050155D01*
X103086890Y-117171476D01*
X103496924Y-117001645D01*
X103925183Y-116611358D01*
X104000000Y-116452046D01*
X104074817Y-116611358D01*
X104503076Y-117001645D01*
X104913110Y-117171476D01*
X105143000Y-117050155D01*
X105143000Y-115857000D01*
X105397000Y-115857000D01*
X105397000Y-117050155D01*
X105626890Y-117171476D01*
X106036924Y-117001645D01*
X106465183Y-116611358D01*
X106540000Y-116452046D01*
X106614817Y-116611358D01*
X107043076Y-117001645D01*
X107453110Y-117171476D01*
X107683000Y-117050155D01*
X107683000Y-115857000D01*
X107937000Y-115857000D01*
X107937000Y-117050155D01*
X108166890Y-117171476D01*
X108576924Y-117001645D01*
X109005183Y-116611358D01*
X109080000Y-116452046D01*
X109154817Y-116611358D01*
X109583076Y-117001645D01*
X109993110Y-117171476D01*
X110223000Y-117050155D01*
X110223000Y-115857000D01*
X110477000Y-115857000D01*
X110477000Y-117050155D01*
X110706890Y-117171476D01*
X111116924Y-117001645D01*
X111545183Y-116611358D01*
X111620000Y-116452046D01*
X111694817Y-116611358D01*
X112123076Y-117001645D01*
X112533110Y-117171476D01*
X112763000Y-117050155D01*
X112763000Y-115857000D01*
X110477000Y-115857000D01*
X110223000Y-115857000D01*
X107937000Y-115857000D01*
X107683000Y-115857000D01*
X105397000Y-115857000D01*
X105143000Y-115857000D01*
X102857000Y-115857000D01*
X102603000Y-115857000D01*
X100317000Y-115857000D01*
X100063000Y-115857000D01*
X97777000Y-115857000D01*
X97523000Y-115857000D01*
X95237000Y-115857000D01*
X94983000Y-115857000D01*
X92697000Y-115857000D01*
X92443000Y-115857000D01*
X91249181Y-115857000D01*
X91128514Y-116086892D01*
X57834498Y-116086892D01*
X57840087Y-115263207D01*
X57653546Y-114804071D01*
X67515000Y-114804071D01*
X67515000Y-115195929D01*
X67664958Y-115557958D01*
X67942042Y-115835042D01*
X68304071Y-115985000D01*
X68695929Y-115985000D01*
X69057958Y-115835042D01*
X69335042Y-115557958D01*
X69485000Y-115195929D01*
X69485000Y-114804071D01*
X77015000Y-114804071D01*
X77015000Y-115195929D01*
X77164958Y-115557958D01*
X77442042Y-115835042D01*
X77804071Y-115985000D01*
X78195929Y-115985000D01*
X78557958Y-115835042D01*
X78835042Y-115557958D01*
X78985000Y-115195929D01*
X78985000Y-114804071D01*
X82265000Y-114804071D01*
X82265000Y-115195929D01*
X82414958Y-115557958D01*
X82692042Y-115835042D01*
X83054071Y-115985000D01*
X83445929Y-115985000D01*
X83807958Y-115835042D01*
X84085042Y-115557958D01*
X84235000Y-115195929D01*
X84235000Y-114804071D01*
X84085042Y-114442042D01*
X83807958Y-114164958D01*
X83445929Y-114015000D01*
X83054071Y-114015000D01*
X82692042Y-114164958D01*
X82414958Y-114442042D01*
X82265000Y-114804071D01*
X78985000Y-114804071D01*
X78835042Y-114442042D01*
X78557958Y-114164958D01*
X78195929Y-114015000D01*
X77804071Y-114015000D01*
X77442042Y-114164958D01*
X77164958Y-114442042D01*
X77015000Y-114804071D01*
X69485000Y-114804071D01*
X69335042Y-114442042D01*
X69057958Y-114164958D01*
X68695929Y-114015000D01*
X68304071Y-114015000D01*
X67942042Y-114164958D01*
X67664958Y-114442042D01*
X67515000Y-114804071D01*
X57653546Y-114804071D01*
X57265819Y-113849754D01*
X57236343Y-113805640D01*
X56896686Y-113554071D01*
X72765000Y-113554071D01*
X72765000Y-113945929D01*
X72914958Y-114307958D01*
X73192042Y-114585042D01*
X73554071Y-114735000D01*
X73945929Y-114735000D01*
X74307958Y-114585042D01*
X74585042Y-114307958D01*
X74735000Y-113945929D01*
X74735000Y-113880001D01*
X75030928Y-113880001D01*
X75214238Y-113804071D01*
X84765000Y-113804071D01*
X84765000Y-114195929D01*
X84914958Y-114557958D01*
X85192042Y-114835042D01*
X85554071Y-114985000D01*
X85945929Y-114985000D01*
X86307958Y-114835042D01*
X86585042Y-114557958D01*
X86735000Y-114195929D01*
X86735000Y-113804071D01*
X86585042Y-113442042D01*
X86307958Y-113164958D01*
X85945929Y-113015000D01*
X85554071Y-113015000D01*
X85192042Y-113164958D01*
X84914958Y-113442042D01*
X84765000Y-113804071D01*
X75214238Y-113804071D01*
X75392957Y-113730043D01*
X75670041Y-113452959D01*
X75819999Y-113090930D01*
X75819999Y-112699072D01*
X75670041Y-112337043D01*
X75392957Y-112059959D01*
X75030928Y-111910001D01*
X74639070Y-111910001D01*
X74277041Y-112059959D01*
X73999957Y-112337043D01*
X73849999Y-112699072D01*
X73849999Y-112765000D01*
X73554071Y-112765000D01*
X73192042Y-112914958D01*
X72914958Y-113192042D01*
X72765000Y-113554071D01*
X56896686Y-113554071D01*
X56740910Y-113438695D01*
X54179605Y-116000000D01*
X53820395Y-116000000D01*
X51259090Y-113438695D01*
X50763657Y-113805640D01*
X50685000Y-113991950D01*
X50685000Y-113259090D01*
X51438695Y-113259090D01*
X54000000Y-115820395D01*
X56561305Y-113259090D01*
X56194360Y-112763657D01*
X54788829Y-112170264D01*
X53263207Y-112159913D01*
X51849754Y-112734181D01*
X51805640Y-112763657D01*
X51438695Y-113259090D01*
X50685000Y-113259090D01*
X50685000Y-111554071D01*
X85765000Y-111554071D01*
X85765000Y-111945929D01*
X85914958Y-112307958D01*
X86192042Y-112585042D01*
X86554071Y-112735000D01*
X86909999Y-112735000D01*
X86909999Y-113090930D01*
X87059957Y-113452959D01*
X87337041Y-113730043D01*
X87699070Y-113880001D01*
X88090928Y-113880001D01*
X88452957Y-113730043D01*
X88730041Y-113452959D01*
X88838962Y-113190000D01*
X91055908Y-113190000D01*
X91171161Y-113769418D01*
X91499375Y-114260625D01*
X91799786Y-114461353D01*
X91374817Y-114848642D01*
X91128514Y-115373108D01*
X91249181Y-115603000D01*
X92443000Y-115603000D01*
X92443000Y-115583000D01*
X92697000Y-115583000D01*
X92697000Y-115603000D01*
X94983000Y-115603000D01*
X94983000Y-115583000D01*
X95237000Y-115583000D01*
X95237000Y-115603000D01*
X97523000Y-115603000D01*
X97523000Y-115583000D01*
X97777000Y-115583000D01*
X97777000Y-115603000D01*
X100063000Y-115603000D01*
X100063000Y-115583000D01*
X100317000Y-115583000D01*
X100317000Y-115603000D01*
X102603000Y-115603000D01*
X102603000Y-115583000D01*
X102857000Y-115583000D01*
X102857000Y-115603000D01*
X105143000Y-115603000D01*
X105143000Y-115583000D01*
X105397000Y-115583000D01*
X105397000Y-115603000D01*
X107683000Y-115603000D01*
X107683000Y-115583000D01*
X107937000Y-115583000D01*
X107937000Y-115603000D01*
X110223000Y-115603000D01*
X110223000Y-115583000D01*
X110477000Y-115583000D01*
X110477000Y-115603000D01*
X112763000Y-115603000D01*
X112763000Y-115583000D01*
X113017000Y-115583000D01*
X113017000Y-115603000D01*
X113037000Y-115603000D01*
X113037000Y-115857000D01*
X113017000Y-115857000D01*
X113017000Y-117050155D01*
X113246890Y-117171476D01*
X113656924Y-117001645D01*
X114085183Y-116611358D01*
X114146157Y-116481522D01*
X114359375Y-116800625D01*
X114850582Y-117128839D01*
X115283744Y-117215000D01*
X115576256Y-117215000D01*
X116009418Y-117128839D01*
X116500625Y-116800625D01*
X116543276Y-116736793D01*
X122159913Y-116736793D01*
X122734181Y-118150246D01*
X122763657Y-118194360D01*
X123259090Y-118561305D01*
X125820395Y-116000000D01*
X123259090Y-113438695D01*
X122763657Y-113805640D01*
X122170264Y-115211171D01*
X122159913Y-116736793D01*
X116543276Y-116736793D01*
X116828839Y-116309418D01*
X116944092Y-115730000D01*
X116828839Y-115150582D01*
X116500625Y-114659375D01*
X116482381Y-114647184D01*
X116527765Y-114638157D01*
X116737809Y-114497809D01*
X116878157Y-114287765D01*
X116927440Y-114040000D01*
X116927440Y-113259090D01*
X123438695Y-113259090D01*
X126000000Y-115820395D01*
X128561305Y-113259090D01*
X128194360Y-112763657D01*
X126788829Y-112170264D01*
X125263207Y-112159913D01*
X123849754Y-112734181D01*
X123805640Y-112763657D01*
X123438695Y-113259090D01*
X116927440Y-113259090D01*
X116927440Y-112340000D01*
X116878157Y-112092235D01*
X116737809Y-111882191D01*
X116527765Y-111741843D01*
X116280000Y-111692560D01*
X114580000Y-111692560D01*
X114332235Y-111741843D01*
X114122191Y-111882191D01*
X113981843Y-112092235D01*
X113972816Y-112137619D01*
X113960625Y-112119375D01*
X113469418Y-111791161D01*
X113036256Y-111705000D01*
X112743744Y-111705000D01*
X112310582Y-111791161D01*
X111819375Y-112119375D01*
X111620000Y-112417761D01*
X111420625Y-112119375D01*
X110929418Y-111791161D01*
X110496256Y-111705000D01*
X110203744Y-111705000D01*
X109770582Y-111791161D01*
X109279375Y-112119375D01*
X109080000Y-112417761D01*
X108880625Y-112119375D01*
X108389418Y-111791161D01*
X107956256Y-111705000D01*
X107663744Y-111705000D01*
X107230582Y-111791161D01*
X106739375Y-112119375D01*
X106540000Y-112417761D01*
X106340625Y-112119375D01*
X105849418Y-111791161D01*
X105416256Y-111705000D01*
X105123744Y-111705000D01*
X104690582Y-111791161D01*
X104199375Y-112119375D01*
X104000000Y-112417761D01*
X103800625Y-112119375D01*
X103309418Y-111791161D01*
X102876256Y-111705000D01*
X102583744Y-111705000D01*
X102150582Y-111791161D01*
X101659375Y-112119375D01*
X101460000Y-112417761D01*
X101260625Y-112119375D01*
X100769418Y-111791161D01*
X100336256Y-111705000D01*
X100043744Y-111705000D01*
X99610582Y-111791161D01*
X99119375Y-112119375D01*
X98920000Y-112417761D01*
X98720625Y-112119375D01*
X98229418Y-111791161D01*
X97796256Y-111705000D01*
X97503744Y-111705000D01*
X97070582Y-111791161D01*
X96579375Y-112119375D01*
X96380000Y-112417761D01*
X96180625Y-112119375D01*
X95689418Y-111791161D01*
X95256256Y-111705000D01*
X94963744Y-111705000D01*
X94530582Y-111791161D01*
X94039375Y-112119375D01*
X93840000Y-112417761D01*
X93640625Y-112119375D01*
X93149418Y-111791161D01*
X92716256Y-111705000D01*
X92423744Y-111705000D01*
X91990582Y-111791161D01*
X91499375Y-112119375D01*
X91171161Y-112610582D01*
X91055908Y-113190000D01*
X88838962Y-113190000D01*
X88879999Y-113090930D01*
X88879999Y-112699072D01*
X88730041Y-112337043D01*
X88452957Y-112059959D01*
X88090928Y-111910001D01*
X87735000Y-111910001D01*
X87735000Y-111554071D01*
X87585042Y-111192042D01*
X87307958Y-110914958D01*
X86945929Y-110765000D01*
X86554071Y-110765000D01*
X86192042Y-110914958D01*
X85914958Y-111192042D01*
X85765000Y-111554071D01*
X50685000Y-111554071D01*
X50685000Y-103304071D01*
X57765000Y-103304071D01*
X57765000Y-103695929D01*
X57914958Y-104057958D01*
X58192042Y-104335042D01*
X58288509Y-104375000D01*
X58192042Y-104414958D01*
X57914958Y-104692042D01*
X57765000Y-105054071D01*
X57765000Y-105445929D01*
X57914958Y-105807958D01*
X58192042Y-106085042D01*
X58288509Y-106125000D01*
X58192042Y-106164958D01*
X57914958Y-106442042D01*
X57765000Y-106804071D01*
X57765000Y-107195929D01*
X57914958Y-107557958D01*
X58192042Y-107835042D01*
X58288509Y-107875000D01*
X58192042Y-107914958D01*
X57914958Y-108192042D01*
X57765000Y-108554071D01*
X57765000Y-108945929D01*
X57914958Y-109307958D01*
X58192042Y-109585042D01*
X58288509Y-109625000D01*
X58192042Y-109664958D01*
X57914958Y-109942042D01*
X57765000Y-110304071D01*
X57765000Y-110695929D01*
X57914958Y-111057958D01*
X58192042Y-111335042D01*
X58554071Y-111485000D01*
X58945929Y-111485000D01*
X59307958Y-111335042D01*
X59585042Y-111057958D01*
X59735000Y-110695929D01*
X59735000Y-110304071D01*
X59585042Y-109942042D01*
X59307958Y-109664958D01*
X59211491Y-109625000D01*
X59307958Y-109585042D01*
X59585042Y-109307958D01*
X59735000Y-108945929D01*
X59735000Y-108554071D01*
X59585042Y-108192042D01*
X59307958Y-107914958D01*
X59211491Y-107875000D01*
X59307958Y-107835042D01*
X59338935Y-107804065D01*
X74515000Y-107804065D01*
X74515000Y-108195923D01*
X74664958Y-108557952D01*
X74942042Y-108835036D01*
X75304071Y-108984994D01*
X75695929Y-108984994D01*
X76057958Y-108835036D01*
X76335042Y-108557952D01*
X76485000Y-108195923D01*
X76485000Y-107804071D01*
X89875002Y-107804071D01*
X89875002Y-108195929D01*
X90024960Y-108557958D01*
X90302044Y-108835042D01*
X90664073Y-108985000D01*
X91055931Y-108985000D01*
X91417960Y-108835042D01*
X91695044Y-108557958D01*
X91845002Y-108195929D01*
X91845002Y-107804071D01*
X92515000Y-107804071D01*
X92515000Y-108195929D01*
X92664958Y-108557958D01*
X92942042Y-108835042D01*
X93304071Y-108985000D01*
X93695929Y-108985000D01*
X94000000Y-108859049D01*
X94304071Y-108985000D01*
X94695929Y-108985000D01*
X95057958Y-108835042D01*
X95335042Y-108557958D01*
X95485000Y-108195929D01*
X95485000Y-107804071D01*
X95335042Y-107442042D01*
X95057958Y-107164958D01*
X94790255Y-107054071D01*
X99265000Y-107054071D01*
X99265000Y-107445929D01*
X99414958Y-107807958D01*
X99692042Y-108085042D01*
X100054071Y-108235000D01*
X100445929Y-108235000D01*
X100807958Y-108085042D01*
X101085042Y-107807958D01*
X101235000Y-107445929D01*
X101235000Y-107054071D01*
X101085042Y-106692042D01*
X100807958Y-106414958D01*
X100445929Y-106265000D01*
X100054071Y-106265000D01*
X99692042Y-106414958D01*
X99414958Y-106692042D01*
X99265000Y-107054071D01*
X94790255Y-107054071D01*
X94695929Y-107015000D01*
X94304071Y-107015000D01*
X94000000Y-107140951D01*
X93695929Y-107015000D01*
X93304071Y-107015000D01*
X92942042Y-107164958D01*
X92664958Y-107442042D01*
X92515000Y-107804071D01*
X91845002Y-107804071D01*
X91695044Y-107442042D01*
X91417960Y-107164958D01*
X91055931Y-107015000D01*
X90664073Y-107015000D01*
X90302044Y-107164958D01*
X90024960Y-107442042D01*
X89875002Y-107804071D01*
X76485000Y-107804071D01*
X76485000Y-107804065D01*
X76335042Y-107442036D01*
X76057958Y-107164952D01*
X75695929Y-107014994D01*
X75304071Y-107014994D01*
X74942042Y-107164952D01*
X74664958Y-107442036D01*
X74515000Y-107804065D01*
X59338935Y-107804065D01*
X59585042Y-107557958D01*
X59735000Y-107195929D01*
X59735000Y-106804071D01*
X59585042Y-106442042D01*
X59307958Y-106164958D01*
X59211491Y-106125000D01*
X59307958Y-106085042D01*
X59585042Y-105807958D01*
X59690205Y-105554071D01*
X63265000Y-105554071D01*
X63265000Y-105945929D01*
X63414958Y-106307958D01*
X63692042Y-106585042D01*
X64054071Y-106735000D01*
X64445929Y-106735000D01*
X64807958Y-106585042D01*
X65085042Y-106307958D01*
X65235000Y-105945929D01*
X65235000Y-105554071D01*
X65515000Y-105554071D01*
X65515000Y-105945929D01*
X65664958Y-106307958D01*
X65942042Y-106585042D01*
X66304071Y-106735000D01*
X66695929Y-106735000D01*
X67057958Y-106585042D01*
X67335042Y-106307958D01*
X67485000Y-105945929D01*
X67485000Y-105554071D01*
X67515000Y-105554071D01*
X67515000Y-105945929D01*
X67664958Y-106307958D01*
X67942042Y-106585042D01*
X68304071Y-106735000D01*
X68695929Y-106735000D01*
X69057958Y-106585042D01*
X69335042Y-106307958D01*
X69485000Y-105945929D01*
X69485000Y-105554071D01*
X69335042Y-105192042D01*
X69057958Y-104914958D01*
X68790255Y-104804071D01*
X106015000Y-104804071D01*
X106015000Y-105195929D01*
X106140951Y-105500000D01*
X106015000Y-105804071D01*
X106015000Y-106195929D01*
X106164958Y-106557958D01*
X106442042Y-106835042D01*
X106804071Y-106985000D01*
X107195929Y-106985000D01*
X107557958Y-106835042D01*
X107835042Y-106557958D01*
X107985000Y-106195929D01*
X107985000Y-105804071D01*
X107881447Y-105554071D01*
X114015000Y-105554071D01*
X114015000Y-105945929D01*
X114164958Y-106307958D01*
X114442042Y-106585042D01*
X114804071Y-106735000D01*
X115195929Y-106735000D01*
X115557958Y-106585042D01*
X115835042Y-106307958D01*
X115985000Y-105945929D01*
X115985000Y-105554071D01*
X115835042Y-105192042D01*
X115557958Y-104914958D01*
X115195929Y-104765000D01*
X114804071Y-104765000D01*
X114442042Y-104914958D01*
X114164958Y-105192042D01*
X114015000Y-105554071D01*
X107881447Y-105554071D01*
X107859049Y-105500000D01*
X107985000Y-105195929D01*
X107985000Y-104804071D01*
X107910847Y-104625050D01*
X120615000Y-104625050D01*
X120615000Y-105374950D01*
X120901974Y-106067767D01*
X121432233Y-106598026D01*
X122125050Y-106885000D01*
X122874950Y-106885000D01*
X123567767Y-106598026D01*
X124098026Y-106067767D01*
X124385000Y-105374950D01*
X124385000Y-104625050D01*
X124098026Y-103932233D01*
X123567767Y-103401974D01*
X122874950Y-103115000D01*
X122125050Y-103115000D01*
X121432233Y-103401974D01*
X120901974Y-103932233D01*
X120615000Y-104625050D01*
X107910847Y-104625050D01*
X107835042Y-104442042D01*
X107557958Y-104164958D01*
X107195929Y-104015000D01*
X106804071Y-104015000D01*
X106442042Y-104164958D01*
X106164958Y-104442042D01*
X106015000Y-104804071D01*
X68790255Y-104804071D01*
X68695929Y-104765000D01*
X68304071Y-104765000D01*
X67942042Y-104914958D01*
X67664958Y-105192042D01*
X67515000Y-105554071D01*
X67485000Y-105554071D01*
X67335042Y-105192042D01*
X67057958Y-104914958D01*
X66695929Y-104765000D01*
X66304071Y-104765000D01*
X65942042Y-104914958D01*
X65664958Y-105192042D01*
X65515000Y-105554071D01*
X65235000Y-105554071D01*
X65085042Y-105192042D01*
X64807958Y-104914958D01*
X64445929Y-104765000D01*
X64054071Y-104765000D01*
X63692042Y-104914958D01*
X63414958Y-105192042D01*
X63265000Y-105554071D01*
X59690205Y-105554071D01*
X59735000Y-105445929D01*
X59735000Y-105054071D01*
X59585042Y-104692042D01*
X59307958Y-104414958D01*
X59211491Y-104375000D01*
X59307958Y-104335042D01*
X59585042Y-104057958D01*
X59625000Y-103961491D01*
X59664958Y-104057958D01*
X59942042Y-104335042D01*
X60304071Y-104485000D01*
X60695929Y-104485000D01*
X61057958Y-104335042D01*
X61335042Y-104057958D01*
X61485000Y-103695929D01*
X61485000Y-103304071D01*
X61335042Y-102942042D01*
X61057958Y-102664958D01*
X60695929Y-102515000D01*
X60304071Y-102515000D01*
X59942042Y-102664958D01*
X59664958Y-102942042D01*
X59625000Y-103038509D01*
X59585042Y-102942042D01*
X59307958Y-102664958D01*
X58945929Y-102515000D01*
X58554071Y-102515000D01*
X58192042Y-102664958D01*
X57914958Y-102942042D01*
X57765000Y-103304071D01*
X50685000Y-103304071D01*
X50685000Y-100304071D01*
X63765000Y-100304071D01*
X63765000Y-100695929D01*
X63914958Y-101057958D01*
X64022005Y-101165005D01*
X63914958Y-101272052D01*
X63765000Y-101634081D01*
X63765000Y-102025939D01*
X63914958Y-102387968D01*
X64192042Y-102665052D01*
X64554071Y-102815010D01*
X64945929Y-102815010D01*
X65250000Y-102689059D01*
X65554071Y-102815010D01*
X65945929Y-102815010D01*
X65972337Y-102804071D01*
X66765000Y-102804071D01*
X66765000Y-103195929D01*
X66914958Y-103557958D01*
X67192042Y-103835042D01*
X67554071Y-103985000D01*
X67945929Y-103985000D01*
X68307958Y-103835042D01*
X68585042Y-103557958D01*
X68735000Y-103195929D01*
X68735000Y-102804071D01*
X68631447Y-102554071D01*
X96515000Y-102554071D01*
X96515000Y-102945929D01*
X96664958Y-103307958D01*
X96942042Y-103585042D01*
X97304071Y-103735000D01*
X97695929Y-103735000D01*
X98057958Y-103585042D01*
X98335042Y-103307958D01*
X98485000Y-102945929D01*
X98485000Y-102554071D01*
X98335042Y-102192042D01*
X98057958Y-101914958D01*
X97695929Y-101765000D01*
X97304071Y-101765000D01*
X96942042Y-101914958D01*
X96664958Y-102192042D01*
X96515000Y-102554071D01*
X68631447Y-102554071D01*
X68585042Y-102442042D01*
X68307958Y-102164958D01*
X67945929Y-102015000D01*
X67554071Y-102015000D01*
X67192042Y-102164958D01*
X66914958Y-102442042D01*
X66765000Y-102804071D01*
X65972337Y-102804071D01*
X66307958Y-102665052D01*
X66585042Y-102387968D01*
X66735000Y-102025939D01*
X66735000Y-101634081D01*
X66615259Y-101345002D01*
X66945929Y-101345002D01*
X67307958Y-101195044D01*
X67585042Y-100917960D01*
X67735000Y-100555931D01*
X67735000Y-100164083D01*
X70811041Y-100164083D01*
X70811041Y-100555941D01*
X70960999Y-100917970D01*
X71238083Y-101195054D01*
X71600112Y-101345012D01*
X71991970Y-101345012D01*
X72353999Y-101195054D01*
X72631083Y-100917970D01*
X72781041Y-100555941D01*
X72781041Y-100164083D01*
X72631083Y-99802054D01*
X72383100Y-99554071D01*
X73265000Y-99554071D01*
X73265000Y-99945929D01*
X73414958Y-100307958D01*
X73692042Y-100585042D01*
X74054071Y-100735000D01*
X74445929Y-100735000D01*
X74807958Y-100585042D01*
X75085042Y-100307958D01*
X75235000Y-99945929D01*
X75235000Y-99554071D01*
X76765000Y-99554071D01*
X76765000Y-99945929D01*
X76914958Y-100307958D01*
X77192042Y-100585042D01*
X77554071Y-100735000D01*
X77945929Y-100735000D01*
X78307958Y-100585042D01*
X78585042Y-100307958D01*
X78644641Y-100164073D01*
X85515000Y-100164073D01*
X85515000Y-100555931D01*
X85664958Y-100917960D01*
X85942042Y-101195044D01*
X86304071Y-101345002D01*
X86695929Y-101345002D01*
X87057958Y-101195044D01*
X87250000Y-101003002D01*
X87442042Y-101195044D01*
X87804071Y-101345002D01*
X88195929Y-101345002D01*
X88557958Y-101195044D01*
X88777323Y-100975679D01*
X88914958Y-101307958D01*
X89192042Y-101585042D01*
X89554071Y-101735000D01*
X89945929Y-101735000D01*
X90307958Y-101585042D01*
X90585042Y-101307958D01*
X90735000Y-100945929D01*
X90735000Y-100554071D01*
X90585042Y-100192042D01*
X90307958Y-99914958D01*
X89945929Y-99765000D01*
X89554071Y-99765000D01*
X89192042Y-99914958D01*
X88972677Y-100134323D01*
X88835042Y-99802044D01*
X88557958Y-99524960D01*
X88195929Y-99375002D01*
X87804071Y-99375002D01*
X87442042Y-99524960D01*
X87250000Y-99717002D01*
X87057958Y-99524960D01*
X86695929Y-99375002D01*
X86304071Y-99375002D01*
X85942042Y-99524960D01*
X85664958Y-99802044D01*
X85515000Y-100164073D01*
X78644641Y-100164073D01*
X78735000Y-99945929D01*
X78735000Y-99554071D01*
X78585042Y-99192042D01*
X78307958Y-98914958D01*
X77945929Y-98765000D01*
X77554071Y-98765000D01*
X77192042Y-98914958D01*
X76914958Y-99192042D01*
X76765000Y-99554071D01*
X75235000Y-99554071D01*
X75085042Y-99192042D01*
X74807958Y-98914958D01*
X74445929Y-98765000D01*
X74054071Y-98765000D01*
X73692042Y-98914958D01*
X73414958Y-99192042D01*
X73265000Y-99554071D01*
X72383100Y-99554071D01*
X72353999Y-99524970D01*
X71991970Y-99375012D01*
X71600112Y-99375012D01*
X71238083Y-99524970D01*
X70960999Y-99802054D01*
X70811041Y-100164083D01*
X67735000Y-100164083D01*
X67735000Y-100164073D01*
X67585042Y-99802044D01*
X67307958Y-99524960D01*
X66945929Y-99375002D01*
X66554071Y-99375002D01*
X66192042Y-99524960D01*
X66127000Y-99590002D01*
X65945929Y-99515000D01*
X65554071Y-99515000D01*
X65250000Y-99640951D01*
X64945929Y-99515000D01*
X64554071Y-99515000D01*
X64192042Y-99664958D01*
X63914958Y-99942042D01*
X63765000Y-100304071D01*
X50685000Y-100304071D01*
X50685000Y-98669373D01*
X66010232Y-98669373D01*
X66019853Y-98861876D01*
X66367875Y-98967751D01*
X66729923Y-98932385D01*
X66900147Y-98861876D01*
X66909768Y-98669373D01*
X67280232Y-98669373D01*
X67289853Y-98861876D01*
X67637875Y-98967751D01*
X67999923Y-98932385D01*
X68170147Y-98861876D01*
X68179768Y-98669373D01*
X68550232Y-98669373D01*
X68559853Y-98861876D01*
X68907875Y-98967751D01*
X69269923Y-98932385D01*
X69440147Y-98861876D01*
X69449768Y-98669373D01*
X69820232Y-98669373D01*
X69829853Y-98861876D01*
X70177875Y-98967751D01*
X70539923Y-98932385D01*
X70710147Y-98861876D01*
X70719768Y-98669373D01*
X71090232Y-98669373D01*
X71099853Y-98861876D01*
X71447875Y-98967751D01*
X71809923Y-98932385D01*
X71980147Y-98861876D01*
X71989768Y-98669373D01*
X71540000Y-98219605D01*
X71090232Y-98669373D01*
X70719768Y-98669373D01*
X70270000Y-98219605D01*
X69820232Y-98669373D01*
X69449768Y-98669373D01*
X69000000Y-98219605D01*
X68550232Y-98669373D01*
X68179768Y-98669373D01*
X67730000Y-98219605D01*
X67280232Y-98669373D01*
X66909768Y-98669373D01*
X66460000Y-98219605D01*
X66010232Y-98669373D01*
X50685000Y-98669373D01*
X50685000Y-97054071D01*
X63154998Y-97054071D01*
X63154998Y-97445929D01*
X63304956Y-97807958D01*
X63582040Y-98085042D01*
X63944069Y-98235000D01*
X64335927Y-98235000D01*
X64697956Y-98085042D01*
X64835123Y-97947875D01*
X65532249Y-97947875D01*
X65567615Y-98309923D01*
X65638124Y-98480147D01*
X65830627Y-98489768D01*
X66280395Y-98040000D01*
X66639605Y-98040000D01*
X66829830Y-98230225D01*
X66837615Y-98309923D01*
X66908124Y-98480147D01*
X67088781Y-98489176D01*
X67089373Y-98489768D01*
X67095000Y-98489487D01*
X67100627Y-98489768D01*
X67101219Y-98489176D01*
X67281876Y-98480147D01*
X67356918Y-98233477D01*
X67550395Y-98040000D01*
X67909605Y-98040000D01*
X68099830Y-98230225D01*
X68107615Y-98309923D01*
X68178124Y-98480147D01*
X68358781Y-98489176D01*
X68359373Y-98489768D01*
X68365000Y-98489487D01*
X68370627Y-98489768D01*
X68371219Y-98489176D01*
X68551876Y-98480147D01*
X68626918Y-98233477D01*
X68820395Y-98040000D01*
X69179605Y-98040000D01*
X69369830Y-98230225D01*
X69377615Y-98309923D01*
X69448124Y-98480147D01*
X69628781Y-98489176D01*
X69629373Y-98489768D01*
X69635000Y-98489487D01*
X69640627Y-98489768D01*
X69641219Y-98489176D01*
X69821876Y-98480147D01*
X69896918Y-98233477D01*
X70090395Y-98040000D01*
X70449605Y-98040000D01*
X70639830Y-98230225D01*
X70647615Y-98309923D01*
X70718124Y-98480147D01*
X70898781Y-98489176D01*
X70899373Y-98489768D01*
X70905000Y-98489487D01*
X70910627Y-98489768D01*
X70911219Y-98489176D01*
X71091876Y-98480147D01*
X71166918Y-98233477D01*
X71360395Y-98040000D01*
X71719605Y-98040000D01*
X72169373Y-98489768D01*
X72361876Y-98480147D01*
X72467751Y-98132125D01*
X72432385Y-97770077D01*
X72361876Y-97599853D01*
X72169373Y-97590232D01*
X71719605Y-98040000D01*
X71360395Y-98040000D01*
X71170170Y-97849775D01*
X71162385Y-97770077D01*
X71091876Y-97599853D01*
X70911219Y-97590824D01*
X70910627Y-97590232D01*
X70905000Y-97590513D01*
X70899373Y-97590232D01*
X70898781Y-97590824D01*
X70718124Y-97599853D01*
X70643082Y-97846523D01*
X70449605Y-98040000D01*
X70090395Y-98040000D01*
X69900170Y-97849775D01*
X69892385Y-97770077D01*
X69821876Y-97599853D01*
X69641219Y-97590824D01*
X69640627Y-97590232D01*
X69635000Y-97590513D01*
X69629373Y-97590232D01*
X69628781Y-97590824D01*
X69448124Y-97599853D01*
X69373082Y-97846523D01*
X69179605Y-98040000D01*
X68820395Y-98040000D01*
X68630170Y-97849775D01*
X68622385Y-97770077D01*
X68551876Y-97599853D01*
X68371219Y-97590824D01*
X68370627Y-97590232D01*
X68365000Y-97590513D01*
X68359373Y-97590232D01*
X68358781Y-97590824D01*
X68178124Y-97599853D01*
X68103082Y-97846523D01*
X67909605Y-98040000D01*
X67550395Y-98040000D01*
X67360170Y-97849775D01*
X67352385Y-97770077D01*
X67281876Y-97599853D01*
X67101219Y-97590824D01*
X67100627Y-97590232D01*
X67095000Y-97590513D01*
X67089373Y-97590232D01*
X67088781Y-97590824D01*
X66908124Y-97599853D01*
X66833082Y-97846523D01*
X66639605Y-98040000D01*
X66280395Y-98040000D01*
X65830627Y-97590232D01*
X65638124Y-97599853D01*
X65532249Y-97947875D01*
X64835123Y-97947875D01*
X64975040Y-97807958D01*
X65124998Y-97445929D01*
X65124998Y-97399373D01*
X66010232Y-97399373D01*
X66010513Y-97405000D01*
X66010232Y-97410627D01*
X66010824Y-97411219D01*
X66019853Y-97591876D01*
X66266523Y-97666918D01*
X66460000Y-97860395D01*
X66650225Y-97670170D01*
X66729923Y-97662385D01*
X66900147Y-97591876D01*
X66909176Y-97411219D01*
X66909768Y-97410627D01*
X66909487Y-97405000D01*
X66909768Y-97399373D01*
X67280232Y-97399373D01*
X67280513Y-97405000D01*
X67280232Y-97410627D01*
X67280824Y-97411219D01*
X67289853Y-97591876D01*
X67536523Y-97666918D01*
X67730000Y-97860395D01*
X67920225Y-97670170D01*
X67999923Y-97662385D01*
X68170147Y-97591876D01*
X68179176Y-97411219D01*
X68179768Y-97410627D01*
X68179487Y-97405000D01*
X68179768Y-97399373D01*
X68550232Y-97399373D01*
X68550513Y-97405000D01*
X68550232Y-97410627D01*
X68550824Y-97411219D01*
X68559853Y-97591876D01*
X68806523Y-97666918D01*
X69000000Y-97860395D01*
X69190225Y-97670170D01*
X69269923Y-97662385D01*
X69440147Y-97591876D01*
X69449176Y-97411219D01*
X69449768Y-97410627D01*
X69449487Y-97405000D01*
X69449768Y-97399373D01*
X69820232Y-97399373D01*
X69820513Y-97405000D01*
X69820232Y-97410627D01*
X69820824Y-97411219D01*
X69829853Y-97591876D01*
X70076523Y-97666918D01*
X70270000Y-97860395D01*
X70460225Y-97670170D01*
X70539923Y-97662385D01*
X70710147Y-97591876D01*
X70719176Y-97411219D01*
X70719768Y-97410627D01*
X70719487Y-97405000D01*
X70719768Y-97399373D01*
X71090232Y-97399373D01*
X71090513Y-97405000D01*
X71090232Y-97410627D01*
X71090824Y-97411219D01*
X71099853Y-97591876D01*
X71346523Y-97666918D01*
X71540000Y-97860395D01*
X71730225Y-97670170D01*
X71809923Y-97662385D01*
X71980147Y-97591876D01*
X71989176Y-97411219D01*
X71989768Y-97410627D01*
X71989487Y-97405000D01*
X71989768Y-97399373D01*
X71989176Y-97398781D01*
X71980147Y-97218124D01*
X71733477Y-97143082D01*
X71540000Y-96949605D01*
X71349775Y-97139830D01*
X71270077Y-97147615D01*
X71099853Y-97218124D01*
X71090824Y-97398781D01*
X71090232Y-97399373D01*
X70719768Y-97399373D01*
X70719176Y-97398781D01*
X70710147Y-97218124D01*
X70463477Y-97143082D01*
X70270000Y-96949605D01*
X70079775Y-97139830D01*
X70000077Y-97147615D01*
X69829853Y-97218124D01*
X69820824Y-97398781D01*
X69820232Y-97399373D01*
X69449768Y-97399373D01*
X69449176Y-97398781D01*
X69440147Y-97218124D01*
X69193477Y-97143082D01*
X69000000Y-96949605D01*
X68809775Y-97139830D01*
X68730077Y-97147615D01*
X68559853Y-97218124D01*
X68550824Y-97398781D01*
X68550232Y-97399373D01*
X68179768Y-97399373D01*
X68179176Y-97398781D01*
X68170147Y-97218124D01*
X67923477Y-97143082D01*
X67730000Y-96949605D01*
X67539775Y-97139830D01*
X67460077Y-97147615D01*
X67289853Y-97218124D01*
X67280824Y-97398781D01*
X67280232Y-97399373D01*
X66909768Y-97399373D01*
X66909176Y-97398781D01*
X66900147Y-97218124D01*
X66653477Y-97143082D01*
X66460000Y-96949605D01*
X66269775Y-97139830D01*
X66190077Y-97147615D01*
X66019853Y-97218124D01*
X66010824Y-97398781D01*
X66010232Y-97399373D01*
X65124998Y-97399373D01*
X65124998Y-97054071D01*
X64975040Y-96692042D01*
X64960873Y-96677875D01*
X65532249Y-96677875D01*
X65567615Y-97039923D01*
X65638124Y-97210147D01*
X65830627Y-97219768D01*
X66280395Y-96770000D01*
X66639605Y-96770000D01*
X66829830Y-96960225D01*
X66837615Y-97039923D01*
X66908124Y-97210147D01*
X67088781Y-97219176D01*
X67089373Y-97219768D01*
X67095000Y-97219487D01*
X67100627Y-97219768D01*
X67101219Y-97219176D01*
X67281876Y-97210147D01*
X67356918Y-96963477D01*
X67550395Y-96770000D01*
X67909605Y-96770000D01*
X68099830Y-96960225D01*
X68107615Y-97039923D01*
X68178124Y-97210147D01*
X68358781Y-97219176D01*
X68359373Y-97219768D01*
X68365000Y-97219487D01*
X68370627Y-97219768D01*
X68371219Y-97219176D01*
X68551876Y-97210147D01*
X68626918Y-96963477D01*
X68820395Y-96770000D01*
X69179605Y-96770000D01*
X69369830Y-96960225D01*
X69377615Y-97039923D01*
X69448124Y-97210147D01*
X69628781Y-97219176D01*
X69629373Y-97219768D01*
X69635000Y-97219487D01*
X69640627Y-97219768D01*
X69641219Y-97219176D01*
X69821876Y-97210147D01*
X69896918Y-96963477D01*
X70090395Y-96770000D01*
X70449605Y-96770000D01*
X70639830Y-96960225D01*
X70647615Y-97039923D01*
X70718124Y-97210147D01*
X70898781Y-97219176D01*
X70899373Y-97219768D01*
X70905000Y-97219487D01*
X70910627Y-97219768D01*
X70911219Y-97219176D01*
X71091876Y-97210147D01*
X71166918Y-96963477D01*
X71360395Y-96770000D01*
X71719605Y-96770000D01*
X72169373Y-97219768D01*
X72361876Y-97210147D01*
X72409357Y-97054071D01*
X72875002Y-97054071D01*
X72875002Y-97445929D01*
X73024960Y-97807958D01*
X73302044Y-98085042D01*
X73664073Y-98235000D01*
X74055931Y-98235000D01*
X74417960Y-98085042D01*
X74695044Y-97807958D01*
X74845002Y-97445929D01*
X74845002Y-97054071D01*
X74798756Y-96942424D01*
X75000019Y-96859057D01*
X75304071Y-96985000D01*
X75695929Y-96985000D01*
X76057958Y-96835042D01*
X76335042Y-96557958D01*
X76485000Y-96195929D01*
X76485000Y-95804071D01*
X76454858Y-95731302D01*
X76607087Y-95668246D01*
X76664958Y-95807958D01*
X76942042Y-96085042D01*
X77264035Y-96218417D01*
X77125002Y-96554071D01*
X77125002Y-96945929D01*
X77274960Y-97307958D01*
X77552044Y-97585042D01*
X77914073Y-97735000D01*
X78305931Y-97735000D01*
X78667960Y-97585042D01*
X78945044Y-97307958D01*
X79095002Y-96945929D01*
X79095002Y-96554071D01*
X78945044Y-96192042D01*
X78667960Y-95914958D01*
X78345967Y-95781583D01*
X78485000Y-95445929D01*
X78485000Y-95054071D01*
X78335042Y-94692042D01*
X78197071Y-94554071D01*
X79154998Y-94554071D01*
X79154998Y-94945929D01*
X79304956Y-95307958D01*
X79582040Y-95585042D01*
X79944069Y-95735000D01*
X80335927Y-95735000D01*
X80697956Y-95585042D01*
X80975040Y-95307958D01*
X81124998Y-94945929D01*
X81124998Y-94554071D01*
X80975040Y-94192042D01*
X80697956Y-93914958D01*
X80335927Y-93765000D01*
X79944069Y-93765000D01*
X79582040Y-93914958D01*
X79304956Y-94192042D01*
X79154998Y-94554071D01*
X78197071Y-94554071D01*
X78057958Y-94414958D01*
X77695929Y-94265000D01*
X77304071Y-94265000D01*
X77142913Y-94331754D01*
X77085042Y-94192042D01*
X76807958Y-93914958D01*
X76445929Y-93765000D01*
X76054071Y-93765000D01*
X75692042Y-93914958D01*
X75414958Y-94192042D01*
X75265000Y-94554071D01*
X75265000Y-94945929D01*
X75295142Y-95018698D01*
X74999981Y-95140959D01*
X74695929Y-95015016D01*
X74304071Y-95015016D01*
X73942042Y-95164974D01*
X73664958Y-95442058D01*
X73515000Y-95804087D01*
X73515000Y-96195945D01*
X73561246Y-96307592D01*
X73302044Y-96414958D01*
X73024960Y-96692042D01*
X72875002Y-97054071D01*
X72409357Y-97054071D01*
X72467751Y-96862125D01*
X72432385Y-96500077D01*
X72361876Y-96329853D01*
X72169373Y-96320232D01*
X71719605Y-96770000D01*
X71360395Y-96770000D01*
X71170170Y-96579775D01*
X71162385Y-96500077D01*
X71091876Y-96329853D01*
X70911219Y-96320824D01*
X70910627Y-96320232D01*
X70905000Y-96320513D01*
X70899373Y-96320232D01*
X70898781Y-96320824D01*
X70718124Y-96329853D01*
X70643082Y-96576523D01*
X70449605Y-96770000D01*
X70090395Y-96770000D01*
X69900170Y-96579775D01*
X69892385Y-96500077D01*
X69821876Y-96329853D01*
X69641219Y-96320824D01*
X69640627Y-96320232D01*
X69635000Y-96320513D01*
X69629373Y-96320232D01*
X69628781Y-96320824D01*
X69448124Y-96329853D01*
X69373082Y-96576523D01*
X69179605Y-96770000D01*
X68820395Y-96770000D01*
X68630170Y-96579775D01*
X68622385Y-96500077D01*
X68551876Y-96329853D01*
X68371219Y-96320824D01*
X68370627Y-96320232D01*
X68365000Y-96320513D01*
X68359373Y-96320232D01*
X68358781Y-96320824D01*
X68178124Y-96329853D01*
X68103082Y-96576523D01*
X67909605Y-96770000D01*
X67550395Y-96770000D01*
X67360170Y-96579775D01*
X67352385Y-96500077D01*
X67281876Y-96329853D01*
X67101219Y-96320824D01*
X67100627Y-96320232D01*
X67095000Y-96320513D01*
X67089373Y-96320232D01*
X67088781Y-96320824D01*
X66908124Y-96329853D01*
X66833082Y-96576523D01*
X66639605Y-96770000D01*
X66280395Y-96770000D01*
X65830627Y-96320232D01*
X65638124Y-96329853D01*
X65532249Y-96677875D01*
X64960873Y-96677875D01*
X64697956Y-96414958D01*
X64335927Y-96265000D01*
X63944069Y-96265000D01*
X63582040Y-96414958D01*
X63304956Y-96692042D01*
X63154998Y-97054071D01*
X50685000Y-97054071D01*
X50685000Y-95304071D01*
X55765000Y-95304071D01*
X55765000Y-95695929D01*
X55914958Y-96057958D01*
X56192042Y-96335042D01*
X56554071Y-96485000D01*
X56945929Y-96485000D01*
X57307958Y-96335042D01*
X57375000Y-96268000D01*
X57442042Y-96335042D01*
X57804071Y-96485000D01*
X58195929Y-96485000D01*
X58557958Y-96335042D01*
X58835042Y-96057958D01*
X58985000Y-95695929D01*
X58985000Y-95304071D01*
X58881447Y-95054071D01*
X63154998Y-95054071D01*
X63154998Y-95445929D01*
X63304956Y-95807958D01*
X63582040Y-96085042D01*
X63944069Y-96235000D01*
X64335927Y-96235000D01*
X64590931Y-96129373D01*
X66010232Y-96129373D01*
X66010513Y-96135000D01*
X66010232Y-96140627D01*
X66010824Y-96141219D01*
X66019853Y-96321876D01*
X66266523Y-96396918D01*
X66460000Y-96590395D01*
X66650225Y-96400170D01*
X66729923Y-96392385D01*
X66900147Y-96321876D01*
X66909176Y-96141219D01*
X66909768Y-96140627D01*
X66909487Y-96135000D01*
X66909768Y-96129373D01*
X67280232Y-96129373D01*
X67280513Y-96135000D01*
X67280232Y-96140627D01*
X67280824Y-96141219D01*
X67289853Y-96321876D01*
X67536523Y-96396918D01*
X67730000Y-96590395D01*
X67920225Y-96400170D01*
X67999923Y-96392385D01*
X68170147Y-96321876D01*
X68179176Y-96141219D01*
X68179768Y-96140627D01*
X68179487Y-96135000D01*
X68179768Y-96129373D01*
X68550232Y-96129373D01*
X68550513Y-96135000D01*
X68550232Y-96140627D01*
X68550824Y-96141219D01*
X68559853Y-96321876D01*
X68806523Y-96396918D01*
X69000000Y-96590395D01*
X69190225Y-96400170D01*
X69269923Y-96392385D01*
X69440147Y-96321876D01*
X69449176Y-96141219D01*
X69449768Y-96140627D01*
X69449487Y-96135000D01*
X69449768Y-96129373D01*
X69820232Y-96129373D01*
X69820513Y-96135000D01*
X69820232Y-96140627D01*
X69820824Y-96141219D01*
X69829853Y-96321876D01*
X70076523Y-96396918D01*
X70270000Y-96590395D01*
X70460225Y-96400170D01*
X70539923Y-96392385D01*
X70710147Y-96321876D01*
X70719176Y-96141219D01*
X70719768Y-96140627D01*
X70719487Y-96135000D01*
X70719768Y-96129373D01*
X71090232Y-96129373D01*
X71090513Y-96135000D01*
X71090232Y-96140627D01*
X71090824Y-96141219D01*
X71099853Y-96321876D01*
X71346523Y-96396918D01*
X71540000Y-96590395D01*
X71730225Y-96400170D01*
X71809923Y-96392385D01*
X71980147Y-96321876D01*
X71989176Y-96141219D01*
X71989768Y-96140627D01*
X71989487Y-96135000D01*
X71989768Y-96129373D01*
X71989176Y-96128781D01*
X71980147Y-95948124D01*
X71733477Y-95873082D01*
X71540000Y-95679605D01*
X71349775Y-95869830D01*
X71270077Y-95877615D01*
X71099853Y-95948124D01*
X71090824Y-96128781D01*
X71090232Y-96129373D01*
X70719768Y-96129373D01*
X70719176Y-96128781D01*
X70710147Y-95948124D01*
X70463477Y-95873082D01*
X70270000Y-95679605D01*
X70079775Y-95869830D01*
X70000077Y-95877615D01*
X69829853Y-95948124D01*
X69820824Y-96128781D01*
X69820232Y-96129373D01*
X69449768Y-96129373D01*
X69449176Y-96128781D01*
X69440147Y-95948124D01*
X69193477Y-95873082D01*
X69000000Y-95679605D01*
X68809775Y-95869830D01*
X68730077Y-95877615D01*
X68559853Y-95948124D01*
X68550824Y-96128781D01*
X68550232Y-96129373D01*
X68179768Y-96129373D01*
X68179176Y-96128781D01*
X68170147Y-95948124D01*
X67923477Y-95873082D01*
X67730000Y-95679605D01*
X67539775Y-95869830D01*
X67460077Y-95877615D01*
X67289853Y-95948124D01*
X67280824Y-96128781D01*
X67280232Y-96129373D01*
X66909768Y-96129373D01*
X66909176Y-96128781D01*
X66900147Y-95948124D01*
X66653477Y-95873082D01*
X66460000Y-95679605D01*
X66269775Y-95869830D01*
X66190077Y-95877615D01*
X66019853Y-95948124D01*
X66010824Y-96128781D01*
X66010232Y-96129373D01*
X64590931Y-96129373D01*
X64697956Y-96085042D01*
X64975040Y-95807958D01*
X65124998Y-95445929D01*
X65124998Y-95407875D01*
X65532249Y-95407875D01*
X65567615Y-95769923D01*
X65638124Y-95940147D01*
X65830627Y-95949768D01*
X66280395Y-95500000D01*
X66639605Y-95500000D01*
X66829830Y-95690225D01*
X66837615Y-95769923D01*
X66908124Y-95940147D01*
X67088781Y-95949176D01*
X67089373Y-95949768D01*
X67095000Y-95949487D01*
X67100627Y-95949768D01*
X67101219Y-95949176D01*
X67281876Y-95940147D01*
X67356918Y-95693477D01*
X67550395Y-95500000D01*
X67909605Y-95500000D01*
X68099830Y-95690225D01*
X68107615Y-95769923D01*
X68178124Y-95940147D01*
X68358781Y-95949176D01*
X68359373Y-95949768D01*
X68365000Y-95949487D01*
X68370627Y-95949768D01*
X68371219Y-95949176D01*
X68551876Y-95940147D01*
X68626918Y-95693477D01*
X68820395Y-95500000D01*
X69179605Y-95500000D01*
X69369830Y-95690225D01*
X69377615Y-95769923D01*
X69448124Y-95940147D01*
X69628781Y-95949176D01*
X69629373Y-95949768D01*
X69635000Y-95949487D01*
X69640627Y-95949768D01*
X69641219Y-95949176D01*
X69821876Y-95940147D01*
X69896918Y-95693477D01*
X70090395Y-95500000D01*
X70449605Y-95500000D01*
X70639830Y-95690225D01*
X70647615Y-95769923D01*
X70718124Y-95940147D01*
X70898781Y-95949176D01*
X70899373Y-95949768D01*
X70905000Y-95949487D01*
X70910627Y-95949768D01*
X70911219Y-95949176D01*
X71091876Y-95940147D01*
X71166918Y-95693477D01*
X71360395Y-95500000D01*
X71719605Y-95500000D01*
X72169373Y-95949768D01*
X72361876Y-95940147D01*
X72467751Y-95592125D01*
X72432385Y-95230077D01*
X72361876Y-95059853D01*
X72169373Y-95050232D01*
X71719605Y-95500000D01*
X71360395Y-95500000D01*
X71170170Y-95309775D01*
X71162385Y-95230077D01*
X71091876Y-95059853D01*
X70911219Y-95050824D01*
X70910627Y-95050232D01*
X70905000Y-95050513D01*
X70899373Y-95050232D01*
X70898781Y-95050824D01*
X70718124Y-95059853D01*
X70643082Y-95306523D01*
X70449605Y-95500000D01*
X70090395Y-95500000D01*
X69900170Y-95309775D01*
X69892385Y-95230077D01*
X69821876Y-95059853D01*
X69641219Y-95050824D01*
X69640627Y-95050232D01*
X69635000Y-95050513D01*
X69629373Y-95050232D01*
X69628781Y-95050824D01*
X69448124Y-95059853D01*
X69373082Y-95306523D01*
X69179605Y-95500000D01*
X68820395Y-95500000D01*
X68630170Y-95309775D01*
X68622385Y-95230077D01*
X68551876Y-95059853D01*
X68371219Y-95050824D01*
X68370627Y-95050232D01*
X68365000Y-95050513D01*
X68359373Y-95050232D01*
X68358781Y-95050824D01*
X68178124Y-95059853D01*
X68103082Y-95306523D01*
X67909605Y-95500000D01*
X67550395Y-95500000D01*
X67360170Y-95309775D01*
X67352385Y-95230077D01*
X67281876Y-95059853D01*
X67101219Y-95050824D01*
X67100627Y-95050232D01*
X67095000Y-95050513D01*
X67089373Y-95050232D01*
X67088781Y-95050824D01*
X66908124Y-95059853D01*
X66833082Y-95306523D01*
X66639605Y-95500000D01*
X66280395Y-95500000D01*
X65830627Y-95050232D01*
X65638124Y-95059853D01*
X65532249Y-95407875D01*
X65124998Y-95407875D01*
X65124998Y-95054071D01*
X65044352Y-94859373D01*
X66010232Y-94859373D01*
X66010513Y-94865000D01*
X66010232Y-94870627D01*
X66010824Y-94871219D01*
X66019853Y-95051876D01*
X66266523Y-95126918D01*
X66460000Y-95320395D01*
X66650225Y-95130170D01*
X66729923Y-95122385D01*
X66900147Y-95051876D01*
X66909176Y-94871219D01*
X66909768Y-94870627D01*
X66909487Y-94865000D01*
X66909768Y-94859373D01*
X67280232Y-94859373D01*
X67280513Y-94865000D01*
X67280232Y-94870627D01*
X67280824Y-94871219D01*
X67289853Y-95051876D01*
X67536523Y-95126918D01*
X67730000Y-95320395D01*
X67920225Y-95130170D01*
X67999923Y-95122385D01*
X68170147Y-95051876D01*
X68179176Y-94871219D01*
X68179768Y-94870627D01*
X68179487Y-94865000D01*
X68179768Y-94859373D01*
X68550232Y-94859373D01*
X68550513Y-94865000D01*
X68550232Y-94870627D01*
X68550824Y-94871219D01*
X68559853Y-95051876D01*
X68806523Y-95126918D01*
X69000000Y-95320395D01*
X69190225Y-95130170D01*
X69269923Y-95122385D01*
X69440147Y-95051876D01*
X69449176Y-94871219D01*
X69449768Y-94870627D01*
X69449487Y-94865000D01*
X69449768Y-94859373D01*
X69820232Y-94859373D01*
X69820513Y-94865000D01*
X69820232Y-94870627D01*
X69820824Y-94871219D01*
X69829853Y-95051876D01*
X70076523Y-95126918D01*
X70270000Y-95320395D01*
X70460225Y-95130170D01*
X70539923Y-95122385D01*
X70710147Y-95051876D01*
X70719176Y-94871219D01*
X70719768Y-94870627D01*
X70719487Y-94865000D01*
X70719768Y-94859373D01*
X71090232Y-94859373D01*
X71090513Y-94865000D01*
X71090232Y-94870627D01*
X71090824Y-94871219D01*
X71099853Y-95051876D01*
X71346523Y-95126918D01*
X71540000Y-95320395D01*
X71730225Y-95130170D01*
X71809923Y-95122385D01*
X71980147Y-95051876D01*
X71989176Y-94871219D01*
X71989768Y-94870627D01*
X71989487Y-94865000D01*
X71989768Y-94859373D01*
X71989176Y-94858781D01*
X71980147Y-94678124D01*
X71733477Y-94603082D01*
X71540000Y-94409605D01*
X71349775Y-94599830D01*
X71270077Y-94607615D01*
X71099853Y-94678124D01*
X71090824Y-94858781D01*
X71090232Y-94859373D01*
X70719768Y-94859373D01*
X70719176Y-94858781D01*
X70710147Y-94678124D01*
X70463477Y-94603082D01*
X70270000Y-94409605D01*
X70079775Y-94599830D01*
X70000077Y-94607615D01*
X69829853Y-94678124D01*
X69820824Y-94858781D01*
X69820232Y-94859373D01*
X69449768Y-94859373D01*
X69449176Y-94858781D01*
X69440147Y-94678124D01*
X69193477Y-94603082D01*
X69000000Y-94409605D01*
X68809775Y-94599830D01*
X68730077Y-94607615D01*
X68559853Y-94678124D01*
X68550824Y-94858781D01*
X68550232Y-94859373D01*
X68179768Y-94859373D01*
X68179176Y-94858781D01*
X68170147Y-94678124D01*
X67923477Y-94603082D01*
X67730000Y-94409605D01*
X67539775Y-94599830D01*
X67460077Y-94607615D01*
X67289853Y-94678124D01*
X67280824Y-94858781D01*
X67280232Y-94859373D01*
X66909768Y-94859373D01*
X66909176Y-94858781D01*
X66900147Y-94678124D01*
X66653477Y-94603082D01*
X66460000Y-94409605D01*
X66269775Y-94599830D01*
X66190077Y-94607615D01*
X66019853Y-94678124D01*
X66010824Y-94858781D01*
X66010232Y-94859373D01*
X65044352Y-94859373D01*
X64975040Y-94692042D01*
X64697956Y-94414958D01*
X64335927Y-94265000D01*
X63944069Y-94265000D01*
X63582040Y-94414958D01*
X63304956Y-94692042D01*
X63154998Y-95054071D01*
X58881447Y-95054071D01*
X58835042Y-94942042D01*
X58557958Y-94664958D01*
X58195929Y-94515000D01*
X57804071Y-94515000D01*
X57442042Y-94664958D01*
X57375000Y-94732000D01*
X57307958Y-94664958D01*
X56945929Y-94515000D01*
X56554071Y-94515000D01*
X56192042Y-94664958D01*
X55914958Y-94942042D01*
X55765000Y-95304071D01*
X50685000Y-95304071D01*
X50685000Y-93054071D01*
X63154998Y-93054071D01*
X63154998Y-93445929D01*
X63304956Y-93807958D01*
X63582040Y-94085042D01*
X63944069Y-94235000D01*
X64335927Y-94235000D01*
X64570406Y-94137875D01*
X65532249Y-94137875D01*
X65567615Y-94499923D01*
X65638124Y-94670147D01*
X65830627Y-94679768D01*
X66280395Y-94230000D01*
X66639605Y-94230000D01*
X66829830Y-94420225D01*
X66837615Y-94499923D01*
X66908124Y-94670147D01*
X67088781Y-94679176D01*
X67089373Y-94679768D01*
X67095000Y-94679487D01*
X67100627Y-94679768D01*
X67101219Y-94679176D01*
X67281876Y-94670147D01*
X67356918Y-94423477D01*
X67550395Y-94230000D01*
X67909605Y-94230000D01*
X68099830Y-94420225D01*
X68107615Y-94499923D01*
X68178124Y-94670147D01*
X68358781Y-94679176D01*
X68359373Y-94679768D01*
X68365000Y-94679487D01*
X68370627Y-94679768D01*
X68371219Y-94679176D01*
X68551876Y-94670147D01*
X68626918Y-94423477D01*
X68820395Y-94230000D01*
X69179605Y-94230000D01*
X69369830Y-94420225D01*
X69377615Y-94499923D01*
X69448124Y-94670147D01*
X69628781Y-94679176D01*
X69629373Y-94679768D01*
X69635000Y-94679487D01*
X69640627Y-94679768D01*
X69641219Y-94679176D01*
X69821876Y-94670147D01*
X69896918Y-94423477D01*
X70090395Y-94230000D01*
X70449605Y-94230000D01*
X70639830Y-94420225D01*
X70647615Y-94499923D01*
X70718124Y-94670147D01*
X70898781Y-94679176D01*
X70899373Y-94679768D01*
X70905000Y-94679487D01*
X70910627Y-94679768D01*
X70911219Y-94679176D01*
X71091876Y-94670147D01*
X71166918Y-94423477D01*
X71360395Y-94230000D01*
X71719605Y-94230000D01*
X72169373Y-94679768D01*
X72361876Y-94670147D01*
X72467751Y-94322125D01*
X72432385Y-93960077D01*
X72361876Y-93789853D01*
X72169373Y-93780232D01*
X71719605Y-94230000D01*
X71360395Y-94230000D01*
X71170170Y-94039775D01*
X71162385Y-93960077D01*
X71091876Y-93789853D01*
X70911219Y-93780824D01*
X70910627Y-93780232D01*
X70905000Y-93780513D01*
X70899373Y-93780232D01*
X70898781Y-93780824D01*
X70718124Y-93789853D01*
X70643082Y-94036523D01*
X70449605Y-94230000D01*
X70090395Y-94230000D01*
X69900170Y-94039775D01*
X69892385Y-93960077D01*
X69821876Y-93789853D01*
X69641219Y-93780824D01*
X69640627Y-93780232D01*
X69635000Y-93780513D01*
X69629373Y-93780232D01*
X69628781Y-93780824D01*
X69448124Y-93789853D01*
X69373082Y-94036523D01*
X69179605Y-94230000D01*
X68820395Y-94230000D01*
X68630170Y-94039775D01*
X68622385Y-93960077D01*
X68551876Y-93789853D01*
X68371219Y-93780824D01*
X68370627Y-93780232D01*
X68365000Y-93780513D01*
X68359373Y-93780232D01*
X68358781Y-93780824D01*
X68178124Y-93789853D01*
X68103082Y-94036523D01*
X67909605Y-94230000D01*
X67550395Y-94230000D01*
X67360170Y-94039775D01*
X67352385Y-93960077D01*
X67281876Y-93789853D01*
X67101219Y-93780824D01*
X67100627Y-93780232D01*
X67095000Y-93780513D01*
X67089373Y-93780232D01*
X67088781Y-93780824D01*
X66908124Y-93789853D01*
X66833082Y-94036523D01*
X66639605Y-94230000D01*
X66280395Y-94230000D01*
X65830627Y-93780232D01*
X65638124Y-93789853D01*
X65532249Y-94137875D01*
X64570406Y-94137875D01*
X64697956Y-94085042D01*
X64975040Y-93807958D01*
X65065581Y-93589373D01*
X66010232Y-93589373D01*
X66010513Y-93595000D01*
X66010232Y-93600627D01*
X66010824Y-93601219D01*
X66019853Y-93781876D01*
X66266523Y-93856918D01*
X66460000Y-94050395D01*
X66650225Y-93860170D01*
X66729923Y-93852385D01*
X66900147Y-93781876D01*
X66909176Y-93601219D01*
X66909768Y-93600627D01*
X66909487Y-93595000D01*
X66909768Y-93589373D01*
X67280232Y-93589373D01*
X67280513Y-93595000D01*
X67280232Y-93600627D01*
X67280824Y-93601219D01*
X67289853Y-93781876D01*
X67536523Y-93856918D01*
X67730000Y-94050395D01*
X67920225Y-93860170D01*
X67999923Y-93852385D01*
X68170147Y-93781876D01*
X68179176Y-93601219D01*
X68179768Y-93600627D01*
X68179487Y-93595000D01*
X68179768Y-93589373D01*
X68550232Y-93589373D01*
X68550513Y-93595000D01*
X68550232Y-93600627D01*
X68550824Y-93601219D01*
X68559853Y-93781876D01*
X68806523Y-93856918D01*
X69000000Y-94050395D01*
X69190225Y-93860170D01*
X69269923Y-93852385D01*
X69440147Y-93781876D01*
X69449176Y-93601219D01*
X69449768Y-93600627D01*
X69449487Y-93595000D01*
X69449768Y-93589373D01*
X69820232Y-93589373D01*
X69820513Y-93595000D01*
X69820232Y-93600627D01*
X69820824Y-93601219D01*
X69829853Y-93781876D01*
X70076523Y-93856918D01*
X70270000Y-94050395D01*
X70460225Y-93860170D01*
X70539923Y-93852385D01*
X70710147Y-93781876D01*
X70719176Y-93601219D01*
X70719768Y-93600627D01*
X70719487Y-93595000D01*
X70719768Y-93589373D01*
X71090232Y-93589373D01*
X71090513Y-93595000D01*
X71090232Y-93600627D01*
X71090824Y-93601219D01*
X71099853Y-93781876D01*
X71346523Y-93856918D01*
X71540000Y-94050395D01*
X71730225Y-93860170D01*
X71809923Y-93852385D01*
X71980147Y-93781876D01*
X71989176Y-93601219D01*
X71989768Y-93600627D01*
X71989487Y-93595000D01*
X71989768Y-93589373D01*
X71989176Y-93588781D01*
X71980147Y-93408124D01*
X71733477Y-93333082D01*
X71540000Y-93139605D01*
X71349775Y-93329830D01*
X71270077Y-93337615D01*
X71099853Y-93408124D01*
X71090824Y-93588781D01*
X71090232Y-93589373D01*
X70719768Y-93589373D01*
X70719176Y-93588781D01*
X70710147Y-93408124D01*
X70463477Y-93333082D01*
X70270000Y-93139605D01*
X70079775Y-93329830D01*
X70000077Y-93337615D01*
X69829853Y-93408124D01*
X69820824Y-93588781D01*
X69820232Y-93589373D01*
X69449768Y-93589373D01*
X69449176Y-93588781D01*
X69440147Y-93408124D01*
X69193477Y-93333082D01*
X69000000Y-93139605D01*
X68809775Y-93329830D01*
X68730077Y-93337615D01*
X68559853Y-93408124D01*
X68550824Y-93588781D01*
X68550232Y-93589373D01*
X68179768Y-93589373D01*
X68179176Y-93588781D01*
X68170147Y-93408124D01*
X67923477Y-93333082D01*
X67730000Y-93139605D01*
X67539775Y-93329830D01*
X67460077Y-93337615D01*
X67289853Y-93408124D01*
X67280824Y-93588781D01*
X67280232Y-93589373D01*
X66909768Y-93589373D01*
X66909176Y-93588781D01*
X66900147Y-93408124D01*
X66653477Y-93333082D01*
X66460000Y-93139605D01*
X66269775Y-93329830D01*
X66190077Y-93337615D01*
X66019853Y-93408124D01*
X66010824Y-93588781D01*
X66010232Y-93589373D01*
X65065581Y-93589373D01*
X65124998Y-93445929D01*
X65124998Y-93054071D01*
X65047873Y-92867875D01*
X65532249Y-92867875D01*
X65567615Y-93229923D01*
X65638124Y-93400147D01*
X65830627Y-93409768D01*
X66280395Y-92960000D01*
X66639605Y-92960000D01*
X66829830Y-93150225D01*
X66837615Y-93229923D01*
X66908124Y-93400147D01*
X67088781Y-93409176D01*
X67089373Y-93409768D01*
X67095000Y-93409487D01*
X67100627Y-93409768D01*
X67101219Y-93409176D01*
X67281876Y-93400147D01*
X67356918Y-93153477D01*
X67550395Y-92960000D01*
X67909605Y-92960000D01*
X68099830Y-93150225D01*
X68107615Y-93229923D01*
X68178124Y-93400147D01*
X68358781Y-93409176D01*
X68359373Y-93409768D01*
X68365000Y-93409487D01*
X68370627Y-93409768D01*
X68371219Y-93409176D01*
X68551876Y-93400147D01*
X68626918Y-93153477D01*
X68820395Y-92960000D01*
X69179605Y-92960000D01*
X69369830Y-93150225D01*
X69377615Y-93229923D01*
X69448124Y-93400147D01*
X69628781Y-93409176D01*
X69629373Y-93409768D01*
X69635000Y-93409487D01*
X69640627Y-93409768D01*
X69641219Y-93409176D01*
X69821876Y-93400147D01*
X69896918Y-93153477D01*
X70090395Y-92960000D01*
X70449605Y-92960000D01*
X70639830Y-93150225D01*
X70647615Y-93229923D01*
X70718124Y-93400147D01*
X70898781Y-93409176D01*
X70899373Y-93409768D01*
X70905000Y-93409487D01*
X70910627Y-93409768D01*
X70911219Y-93409176D01*
X71091876Y-93400147D01*
X71166918Y-93153477D01*
X71360395Y-92960000D01*
X71719605Y-92960000D01*
X72169373Y-93409768D01*
X72361876Y-93400147D01*
X72467751Y-93052125D01*
X72432385Y-92690077D01*
X72361876Y-92519853D01*
X72169373Y-92510232D01*
X71719605Y-92960000D01*
X71360395Y-92960000D01*
X71170170Y-92769775D01*
X71162385Y-92690077D01*
X71091876Y-92519853D01*
X70911219Y-92510824D01*
X70910627Y-92510232D01*
X70905000Y-92510513D01*
X70899373Y-92510232D01*
X70898781Y-92510824D01*
X70718124Y-92519853D01*
X70643082Y-92766523D01*
X70449605Y-92960000D01*
X70090395Y-92960000D01*
X69900170Y-92769775D01*
X69892385Y-92690077D01*
X69821876Y-92519853D01*
X69641219Y-92510824D01*
X69640627Y-92510232D01*
X69635000Y-92510513D01*
X69629373Y-92510232D01*
X69628781Y-92510824D01*
X69448124Y-92519853D01*
X69373082Y-92766523D01*
X69179605Y-92960000D01*
X68820395Y-92960000D01*
X68630170Y-92769775D01*
X68622385Y-92690077D01*
X68551876Y-92519853D01*
X68371219Y-92510824D01*
X68370627Y-92510232D01*
X68365000Y-92510513D01*
X68359373Y-92510232D01*
X68358781Y-92510824D01*
X68178124Y-92519853D01*
X68103082Y-92766523D01*
X67909605Y-92960000D01*
X67550395Y-92960000D01*
X67360170Y-92769775D01*
X67352385Y-92690077D01*
X67281876Y-92519853D01*
X67101219Y-92510824D01*
X67100627Y-92510232D01*
X67095000Y-92510513D01*
X67089373Y-92510232D01*
X67088781Y-92510824D01*
X66908124Y-92519853D01*
X66833082Y-92766523D01*
X66639605Y-92960000D01*
X66280395Y-92960000D01*
X65830627Y-92510232D01*
X65638124Y-92519853D01*
X65532249Y-92867875D01*
X65047873Y-92867875D01*
X64975040Y-92692042D01*
X64697956Y-92414958D01*
X64494364Y-92330627D01*
X66010232Y-92330627D01*
X66460000Y-92780395D01*
X66909768Y-92330627D01*
X67280232Y-92330627D01*
X67730000Y-92780395D01*
X68179768Y-92330627D01*
X68550232Y-92330627D01*
X69000000Y-92780395D01*
X69449768Y-92330627D01*
X69820232Y-92330627D01*
X70270000Y-92780395D01*
X70719768Y-92330627D01*
X71090232Y-92330627D01*
X71540000Y-92780395D01*
X71989768Y-92330627D01*
X71988441Y-92304071D01*
X76015000Y-92304071D01*
X76015000Y-92695929D01*
X76164958Y-93057958D01*
X76442042Y-93335042D01*
X76804071Y-93485000D01*
X77195929Y-93485000D01*
X77557958Y-93335042D01*
X77835042Y-93057958D01*
X77985000Y-92695929D01*
X77985000Y-92554071D01*
X79154998Y-92554071D01*
X79154998Y-92945929D01*
X79304956Y-93307958D01*
X79582040Y-93585042D01*
X79944069Y-93735000D01*
X80335927Y-93735000D01*
X80697956Y-93585042D01*
X80728927Y-93554071D01*
X88875002Y-93554071D01*
X88875002Y-93945929D01*
X89024960Y-94307958D01*
X89217023Y-94500021D01*
X89025002Y-94692042D01*
X88875044Y-95054071D01*
X88875044Y-95445929D01*
X89025002Y-95807958D01*
X89217023Y-95999979D01*
X89024960Y-96192042D01*
X88875002Y-96554071D01*
X88875002Y-96945929D01*
X89024960Y-97307958D01*
X89302044Y-97585042D01*
X89664073Y-97735000D01*
X90055931Y-97735000D01*
X90417960Y-97585042D01*
X90695044Y-97307958D01*
X90845002Y-96945929D01*
X90845002Y-96554071D01*
X90695044Y-96192042D01*
X90503023Y-96000021D01*
X90695086Y-95807958D01*
X90845044Y-95445929D01*
X90845044Y-95054071D01*
X90695086Y-94692042D01*
X90503023Y-94499979D01*
X90695044Y-94307958D01*
X90696654Y-94304071D01*
X93015000Y-94304071D01*
X93015000Y-94695929D01*
X93164958Y-95057958D01*
X93442042Y-95335042D01*
X93804071Y-95485000D01*
X94195929Y-95485000D01*
X94557958Y-95335042D01*
X94835042Y-95057958D01*
X94985000Y-94695929D01*
X94985000Y-94378000D01*
X95192042Y-94585042D01*
X95554071Y-94735000D01*
X95781184Y-94735000D01*
X95914958Y-95057958D01*
X96192042Y-95335042D01*
X96554071Y-95485000D01*
X96945929Y-95485000D01*
X97307958Y-95335042D01*
X97585042Y-95057958D01*
X97735000Y-94695929D01*
X97735000Y-94304071D01*
X97585042Y-93942042D01*
X97307958Y-93664958D01*
X96945929Y-93515000D01*
X96718816Y-93515000D01*
X96585042Y-93192042D01*
X96307958Y-92914958D01*
X95945929Y-92765000D01*
X95718816Y-92765000D01*
X95631447Y-92554071D01*
X97014974Y-92554071D01*
X97014974Y-92945929D01*
X97164932Y-93307958D01*
X97442016Y-93585042D01*
X97804045Y-93735000D01*
X98195903Y-93735000D01*
X98557932Y-93585042D01*
X98835016Y-93307958D01*
X98984974Y-92945929D01*
X98984974Y-92804071D01*
X107765000Y-92804071D01*
X107765000Y-93195929D01*
X107914958Y-93557958D01*
X108192042Y-93835042D01*
X108554071Y-93985000D01*
X108764990Y-93985000D01*
X108764990Y-94195929D01*
X108914948Y-94557958D01*
X109192032Y-94835042D01*
X109554061Y-94985000D01*
X109945919Y-94985000D01*
X110307948Y-94835042D01*
X110585032Y-94557958D01*
X110734990Y-94195929D01*
X110734990Y-93804071D01*
X110585032Y-93442042D01*
X110307948Y-93164958D01*
X109945919Y-93015000D01*
X109735000Y-93015000D01*
X109735000Y-92804071D01*
X109585042Y-92442042D01*
X109307958Y-92164958D01*
X108945929Y-92015000D01*
X108554071Y-92015000D01*
X108192042Y-92164958D01*
X107914958Y-92442042D01*
X107765000Y-92804071D01*
X98984974Y-92804071D01*
X98984974Y-92554071D01*
X98835016Y-92192042D01*
X98557932Y-91914958D01*
X98195903Y-91765000D01*
X97804045Y-91765000D01*
X97442016Y-91914958D01*
X97164932Y-92192042D01*
X97014974Y-92554071D01*
X95631447Y-92554071D01*
X95585042Y-92442042D01*
X95307958Y-92164958D01*
X94945929Y-92015000D01*
X94554071Y-92015000D01*
X94192042Y-92164958D01*
X93914958Y-92442042D01*
X93765000Y-92804071D01*
X93765000Y-93195929D01*
X93897164Y-93515000D01*
X93804071Y-93515000D01*
X93442042Y-93664958D01*
X93164958Y-93942042D01*
X93015000Y-94304071D01*
X90696654Y-94304071D01*
X90845002Y-93945929D01*
X90845002Y-93554071D01*
X90695044Y-93192042D01*
X90417960Y-92914958D01*
X90055931Y-92765000D01*
X89664073Y-92765000D01*
X89302044Y-92914958D01*
X89024960Y-93192042D01*
X88875002Y-93554071D01*
X80728927Y-93554071D01*
X80975040Y-93307958D01*
X81124998Y-92945929D01*
X81124998Y-92554071D01*
X80975040Y-92192042D01*
X80697956Y-91914958D01*
X80335927Y-91765000D01*
X79944069Y-91765000D01*
X79582040Y-91914958D01*
X79304956Y-92192042D01*
X79154998Y-92554071D01*
X77985000Y-92554071D01*
X77985000Y-92413852D01*
X78134081Y-92475604D01*
X78525939Y-92475604D01*
X78887968Y-92325646D01*
X79165052Y-92048562D01*
X79315010Y-91686533D01*
X79315010Y-91294675D01*
X79165052Y-90932646D01*
X78887968Y-90655562D01*
X78642949Y-90554071D01*
X81015000Y-90554071D01*
X81015000Y-90945929D01*
X81164958Y-91307958D01*
X81442042Y-91585042D01*
X81804071Y-91735000D01*
X82195929Y-91735000D01*
X82557958Y-91585042D01*
X82835042Y-91307958D01*
X82985000Y-90945929D01*
X82985000Y-90554071D01*
X83193928Y-90554071D01*
X83193928Y-90945929D01*
X83343886Y-91307958D01*
X83620970Y-91585042D01*
X83982999Y-91735000D01*
X84374857Y-91735000D01*
X84736886Y-91585042D01*
X84870727Y-91451201D01*
X84914951Y-91557965D01*
X85192035Y-91835049D01*
X85554064Y-91985007D01*
X85945922Y-91985007D01*
X86307951Y-91835049D01*
X86585035Y-91557965D01*
X86608446Y-91501446D01*
X86692042Y-91585042D01*
X87054071Y-91735000D01*
X87445929Y-91735000D01*
X87807958Y-91585042D01*
X88085042Y-91307958D01*
X88235000Y-90945929D01*
X88235000Y-90554071D01*
X88085042Y-90192042D01*
X87807958Y-89914958D01*
X87445929Y-89765000D01*
X87365262Y-89765000D01*
X87335042Y-89692042D01*
X87057958Y-89414958D01*
X86695929Y-89265000D01*
X86304071Y-89265000D01*
X85942042Y-89414958D01*
X85664958Y-89692042D01*
X85526442Y-90026449D01*
X85192035Y-90164965D01*
X85058194Y-90298806D01*
X85013970Y-90192042D01*
X84736886Y-89914958D01*
X84374857Y-89765000D01*
X83982999Y-89765000D01*
X83620970Y-89914958D01*
X83343886Y-90192042D01*
X83193928Y-90554071D01*
X82985000Y-90554071D01*
X82835042Y-90192042D01*
X82557958Y-89914958D01*
X82195929Y-89765000D01*
X81804071Y-89765000D01*
X81442042Y-89914958D01*
X81164958Y-90192042D01*
X81015000Y-90554071D01*
X78642949Y-90554071D01*
X78525939Y-90505604D01*
X78134081Y-90505604D01*
X77772052Y-90655562D01*
X77494968Y-90932646D01*
X77345010Y-91294675D01*
X77345010Y-91576752D01*
X77195929Y-91515000D01*
X76804071Y-91515000D01*
X76442042Y-91664958D01*
X76164958Y-91942042D01*
X76015000Y-92304071D01*
X71988441Y-92304071D01*
X71980147Y-92138124D01*
X71632125Y-92032249D01*
X71270077Y-92067615D01*
X71099853Y-92138124D01*
X71090232Y-92330627D01*
X70719768Y-92330627D01*
X70710147Y-92138124D01*
X70362125Y-92032249D01*
X70000077Y-92067615D01*
X69829853Y-92138124D01*
X69820232Y-92330627D01*
X69449768Y-92330627D01*
X69440147Y-92138124D01*
X69092125Y-92032249D01*
X68730077Y-92067615D01*
X68559853Y-92138124D01*
X68550232Y-92330627D01*
X68179768Y-92330627D01*
X68170147Y-92138124D01*
X67822125Y-92032249D01*
X67460077Y-92067615D01*
X67289853Y-92138124D01*
X67280232Y-92330627D01*
X66909768Y-92330627D01*
X66900147Y-92138124D01*
X66552125Y-92032249D01*
X66190077Y-92067615D01*
X66019853Y-92138124D01*
X66010232Y-92330627D01*
X64494364Y-92330627D01*
X64335927Y-92265000D01*
X63944069Y-92265000D01*
X63582040Y-92414958D01*
X63304956Y-92692042D01*
X63154998Y-93054071D01*
X50685000Y-93054071D01*
X50685000Y-90444069D01*
X65265000Y-90444069D01*
X65265000Y-90835927D01*
X65414958Y-91197956D01*
X65692042Y-91475040D01*
X66054071Y-91624998D01*
X66445929Y-91624998D01*
X66807958Y-91475040D01*
X66819999Y-91462999D01*
X66942042Y-91585042D01*
X67304071Y-91735000D01*
X67695929Y-91735000D01*
X68057958Y-91585042D01*
X68274007Y-91368993D01*
X68554071Y-91485000D01*
X68945929Y-91485000D01*
X69307958Y-91335042D01*
X69585042Y-91057958D01*
X69640028Y-90925212D01*
X69695013Y-91057958D01*
X69972097Y-91335042D01*
X70334126Y-91485000D01*
X70725984Y-91485000D01*
X71088013Y-91335042D01*
X71359349Y-91063706D01*
X71414958Y-91197956D01*
X71692042Y-91475040D01*
X72054071Y-91624998D01*
X72445929Y-91624998D01*
X72807958Y-91475040D01*
X73085042Y-91197956D01*
X73235000Y-90835927D01*
X73235000Y-90602836D01*
X73554071Y-90735000D01*
X73945929Y-90735000D01*
X74307958Y-90585042D01*
X74585042Y-90307958D01*
X74735000Y-89945929D01*
X74735000Y-89554071D01*
X74585042Y-89192042D01*
X74307958Y-88914958D01*
X73945929Y-88765000D01*
X73554071Y-88765000D01*
X73192042Y-88914958D01*
X72914958Y-89192042D01*
X72765000Y-89554071D01*
X72765000Y-89787162D01*
X72445929Y-89654998D01*
X72054071Y-89654998D01*
X71692042Y-89804956D01*
X71420706Y-90076292D01*
X71365097Y-89942042D01*
X71088013Y-89664958D01*
X70725984Y-89515000D01*
X70527346Y-89515000D01*
X70527346Y-89347722D01*
X70557958Y-89335042D01*
X70625000Y-89268000D01*
X70692042Y-89335042D01*
X71054071Y-89485000D01*
X71445929Y-89485000D01*
X71807958Y-89335042D01*
X72085042Y-89057958D01*
X72235000Y-88695929D01*
X72235000Y-88304071D01*
X72085042Y-87942042D01*
X71807958Y-87664958D01*
X71445929Y-87515000D01*
X71054071Y-87515000D01*
X70692042Y-87664958D01*
X70625000Y-87732000D01*
X70557958Y-87664958D01*
X70195929Y-87515000D01*
X69804071Y-87515000D01*
X69442042Y-87664958D01*
X69164958Y-87942042D01*
X69107087Y-88081754D01*
X68945929Y-88015000D01*
X68554071Y-88015000D01*
X68192042Y-88164958D01*
X67914958Y-88442042D01*
X67781184Y-88765000D01*
X67554071Y-88765000D01*
X67192042Y-88914958D01*
X66914958Y-89192042D01*
X66765000Y-89554071D01*
X66765000Y-89787162D01*
X66445929Y-89654998D01*
X66054071Y-89654998D01*
X65692042Y-89804956D01*
X65414958Y-90082040D01*
X65265000Y-90444069D01*
X50685000Y-90444069D01*
X50685000Y-86554071D01*
X63515000Y-86554071D01*
X63515000Y-86945929D01*
X63664958Y-87307958D01*
X63942042Y-87585042D01*
X64304071Y-87735000D01*
X64695929Y-87735000D01*
X65057958Y-87585042D01*
X65335042Y-87307958D01*
X65485000Y-86945929D01*
X65485000Y-86554071D01*
X65335042Y-86192042D01*
X65057958Y-85914958D01*
X64695929Y-85765000D01*
X64304071Y-85765000D01*
X63942042Y-85914958D01*
X63664958Y-86192042D01*
X63515000Y-86554071D01*
X50685000Y-86554071D01*
X50685000Y-85554071D01*
X70265000Y-85554071D01*
X70265000Y-85945929D01*
X70414958Y-86307958D01*
X70692042Y-86585042D01*
X71054071Y-86735000D01*
X71281178Y-86735000D01*
X71414952Y-87057958D01*
X71692036Y-87335042D01*
X72054065Y-87485000D01*
X72445923Y-87485000D01*
X72807952Y-87335042D01*
X73085036Y-87057958D01*
X73086646Y-87054071D01*
X77015000Y-87054071D01*
X77015000Y-87445929D01*
X77164958Y-87807958D01*
X77442042Y-88085042D01*
X77804071Y-88235000D01*
X78195929Y-88235000D01*
X78557958Y-88085042D01*
X78835042Y-87807958D01*
X78940205Y-87554071D01*
X84765000Y-87554071D01*
X84765000Y-87945929D01*
X84914958Y-88307958D01*
X85192042Y-88585042D01*
X85554071Y-88735000D01*
X85945929Y-88735000D01*
X86307958Y-88585042D01*
X86585042Y-88307958D01*
X86586652Y-88304071D01*
X87515000Y-88304071D01*
X87515000Y-88695929D01*
X87664958Y-89057958D01*
X87942042Y-89335042D01*
X88304071Y-89485000D01*
X88695929Y-89485000D01*
X89057958Y-89335042D01*
X89335042Y-89057958D01*
X89485000Y-88695929D01*
X89485000Y-88554071D01*
X91015000Y-88554071D01*
X91015000Y-88945929D01*
X91164958Y-89307958D01*
X91442042Y-89585042D01*
X91804071Y-89735000D01*
X92195929Y-89735000D01*
X92557958Y-89585042D01*
X92835042Y-89307958D01*
X92985000Y-88945929D01*
X92985000Y-88554071D01*
X93765000Y-88554071D01*
X93765000Y-88945929D01*
X93914958Y-89307958D01*
X94192042Y-89585042D01*
X94554071Y-89735000D01*
X94945929Y-89735000D01*
X95250000Y-89609049D01*
X95554071Y-89735000D01*
X95945929Y-89735000D01*
X96250010Y-89609045D01*
X96554071Y-89734992D01*
X96945929Y-89734992D01*
X97307958Y-89585034D01*
X97585042Y-89307950D01*
X97735000Y-88945921D01*
X97735000Y-88804071D01*
X110625002Y-88804071D01*
X110625002Y-89195929D01*
X110774960Y-89557958D01*
X111052044Y-89835042D01*
X111414073Y-89985000D01*
X111805931Y-89985000D01*
X112167960Y-89835042D01*
X112445044Y-89557958D01*
X112595002Y-89195929D01*
X112595002Y-88804071D01*
X112445044Y-88442042D01*
X112167960Y-88164958D01*
X111805931Y-88015000D01*
X111414073Y-88015000D01*
X111052044Y-88164958D01*
X110774960Y-88442042D01*
X110625002Y-88804071D01*
X97735000Y-88804071D01*
X97735000Y-88554063D01*
X97585042Y-88192034D01*
X97307958Y-87914950D01*
X96945929Y-87764992D01*
X96554071Y-87764992D01*
X96249990Y-87890947D01*
X95945929Y-87765000D01*
X95554071Y-87765000D01*
X95250000Y-87890951D01*
X94945929Y-87765000D01*
X94554071Y-87765000D01*
X94192042Y-87914958D01*
X93914958Y-88192042D01*
X93765000Y-88554071D01*
X92985000Y-88554071D01*
X92835042Y-88192042D01*
X92557958Y-87914958D01*
X92195929Y-87765000D01*
X91804071Y-87765000D01*
X91442042Y-87914958D01*
X91164958Y-88192042D01*
X91015000Y-88554071D01*
X89485000Y-88554071D01*
X89485000Y-88304071D01*
X89335042Y-87942042D01*
X89057958Y-87664958D01*
X88695929Y-87515000D01*
X88304071Y-87515000D01*
X87942042Y-87664958D01*
X87664958Y-87942042D01*
X87515000Y-88304071D01*
X86586652Y-88304071D01*
X86735000Y-87945929D01*
X86735000Y-87554071D01*
X86585042Y-87192042D01*
X86307958Y-86914958D01*
X85945929Y-86765000D01*
X85554071Y-86765000D01*
X85192042Y-86914958D01*
X84914958Y-87192042D01*
X84765000Y-87554071D01*
X78940205Y-87554071D01*
X78985000Y-87445929D01*
X78985000Y-87352836D01*
X79304071Y-87485000D01*
X79695929Y-87485000D01*
X80057958Y-87335042D01*
X80335042Y-87057958D01*
X80485000Y-86695929D01*
X80485000Y-86304071D01*
X80335042Y-85942042D01*
X80057958Y-85664958D01*
X79695929Y-85515000D01*
X79304071Y-85515000D01*
X78942042Y-85664958D01*
X78664958Y-85942042D01*
X78515000Y-86304071D01*
X78515000Y-86397164D01*
X78195929Y-86265000D01*
X77804071Y-86265000D01*
X77442042Y-86414958D01*
X77164958Y-86692042D01*
X77015000Y-87054071D01*
X73086646Y-87054071D01*
X73234994Y-86695929D01*
X73234994Y-86304071D01*
X73085036Y-85942042D01*
X72807952Y-85664958D01*
X72445923Y-85515000D01*
X72218816Y-85515000D01*
X72085042Y-85192042D01*
X71807958Y-84914958D01*
X71540255Y-84804071D01*
X91265000Y-84804071D01*
X91265000Y-85195929D01*
X91414958Y-85557958D01*
X91692042Y-85835042D01*
X92054071Y-85985000D01*
X92445929Y-85985000D01*
X92807958Y-85835042D01*
X93085042Y-85557958D01*
X93235000Y-85195929D01*
X93235000Y-84804071D01*
X99265000Y-84804071D01*
X99265000Y-85195929D01*
X99390951Y-85500000D01*
X99265000Y-85804071D01*
X99265000Y-86195929D01*
X99414958Y-86557958D01*
X99692042Y-86835042D01*
X100054071Y-86985000D01*
X100445929Y-86985000D01*
X100807958Y-86835042D01*
X101085042Y-86557958D01*
X101235000Y-86195929D01*
X101235000Y-85804071D01*
X101109049Y-85500000D01*
X101235000Y-85195929D01*
X101235000Y-84804071D01*
X101085042Y-84442042D01*
X100807958Y-84164958D01*
X100445929Y-84015000D01*
X100054071Y-84015000D01*
X99692042Y-84164958D01*
X99414958Y-84442042D01*
X99265000Y-84804071D01*
X93235000Y-84804071D01*
X93085042Y-84442042D01*
X92807958Y-84164958D01*
X92445929Y-84015000D01*
X92054071Y-84015000D01*
X91692042Y-84164958D01*
X91414958Y-84442042D01*
X91265000Y-84804071D01*
X71540255Y-84804071D01*
X71445929Y-84765000D01*
X71054071Y-84765000D01*
X70692042Y-84914958D01*
X70414958Y-85192042D01*
X70265000Y-85554071D01*
X50685000Y-85554071D01*
X50685000Y-79304071D01*
X65765000Y-79304071D01*
X65765000Y-79695929D01*
X65914958Y-80057958D01*
X66107000Y-80250000D01*
X65914958Y-80442042D01*
X65765000Y-80804071D01*
X65765000Y-81195929D01*
X65914958Y-81557958D01*
X66192042Y-81835042D01*
X66554071Y-81985000D01*
X66872000Y-81985000D01*
X66664958Y-82192042D01*
X66515000Y-82554071D01*
X66515000Y-82945929D01*
X66664958Y-83307958D01*
X66942042Y-83585042D01*
X67304071Y-83735000D01*
X67695929Y-83735000D01*
X68057958Y-83585042D01*
X68335042Y-83307958D01*
X68485000Y-82945929D01*
X68485000Y-82804071D01*
X71265000Y-82804071D01*
X71265000Y-83195929D01*
X71414958Y-83557958D01*
X71692042Y-83835042D01*
X72054071Y-83985000D01*
X72445929Y-83985000D01*
X72807958Y-83835042D01*
X73085042Y-83557958D01*
X73235000Y-83195929D01*
X73235000Y-82804071D01*
X73265000Y-82804071D01*
X73265000Y-83195929D01*
X73414958Y-83557958D01*
X73692042Y-83835042D01*
X74054071Y-83985000D01*
X74445929Y-83985000D01*
X74807958Y-83835042D01*
X75085042Y-83557958D01*
X75094240Y-83535750D01*
X78265000Y-83535750D01*
X78265000Y-84226309D01*
X78361673Y-84459698D01*
X78540301Y-84638327D01*
X78773690Y-84735000D01*
X79464250Y-84735000D01*
X79623000Y-84576250D01*
X79623000Y-83377000D01*
X78423750Y-83377000D01*
X78265000Y-83535750D01*
X75094240Y-83535750D01*
X75235000Y-83195929D01*
X75235000Y-82804071D01*
X75085042Y-82442042D01*
X74807958Y-82164958D01*
X74445929Y-82015000D01*
X74054071Y-82015000D01*
X73692042Y-82164958D01*
X73414958Y-82442042D01*
X73265000Y-82804071D01*
X73235000Y-82804071D01*
X73085042Y-82442042D01*
X72807958Y-82164958D01*
X72445929Y-82015000D01*
X72054071Y-82015000D01*
X71692042Y-82164958D01*
X71414958Y-82442042D01*
X71265000Y-82804071D01*
X68485000Y-82804071D01*
X68485000Y-82554071D01*
X68335042Y-82192042D01*
X68057958Y-81914958D01*
X67695929Y-81765000D01*
X67378000Y-81765000D01*
X67585042Y-81557958D01*
X67735000Y-81195929D01*
X67735000Y-80804071D01*
X67585042Y-80442042D01*
X67393000Y-80250000D01*
X67585042Y-80057958D01*
X67586652Y-80054071D01*
X76515000Y-80054071D01*
X76515000Y-80445929D01*
X76589174Y-80625000D01*
X76515000Y-80804071D01*
X76515000Y-81195929D01*
X76589174Y-81375000D01*
X76515000Y-81554071D01*
X76515000Y-81945929D01*
X76664958Y-82307958D01*
X76942042Y-82585042D01*
X77304071Y-82735000D01*
X77695929Y-82735000D01*
X78057958Y-82585042D01*
X78265000Y-82378000D01*
X78265000Y-82964250D01*
X78423750Y-83123000D01*
X79623000Y-83123000D01*
X79623000Y-81923750D01*
X79877000Y-81923750D01*
X79877000Y-83123000D01*
X79897000Y-83123000D01*
X79897000Y-83377000D01*
X79877000Y-83377000D01*
X79877000Y-84576250D01*
X80035750Y-84735000D01*
X80726310Y-84735000D01*
X80959699Y-84638327D01*
X81138327Y-84459698D01*
X81204904Y-84298967D01*
X81219375Y-84320625D01*
X81710582Y-84648839D01*
X82143744Y-84735000D01*
X82436256Y-84735000D01*
X82869418Y-84648839D01*
X83360625Y-84320625D01*
X83688839Y-83829418D01*
X83804092Y-83250000D01*
X83693511Y-82694069D01*
X107515000Y-82694069D01*
X107515000Y-83085927D01*
X107664958Y-83447956D01*
X107942042Y-83725040D01*
X108171292Y-83819999D01*
X107942042Y-83914958D01*
X107664958Y-84192042D01*
X107515000Y-84554071D01*
X107515000Y-84945929D01*
X107664958Y-85307958D01*
X107942042Y-85585042D01*
X108304071Y-85735000D01*
X108695929Y-85735000D01*
X109057958Y-85585042D01*
X109335042Y-85307958D01*
X109485000Y-84945929D01*
X109485000Y-84625050D01*
X120615000Y-84625050D01*
X120615000Y-85374950D01*
X120901974Y-86067767D01*
X121432233Y-86598026D01*
X122125050Y-86885000D01*
X122874950Y-86885000D01*
X123567767Y-86598026D01*
X124098026Y-86067767D01*
X124385000Y-85374950D01*
X124385000Y-84625050D01*
X124098026Y-83932233D01*
X123567767Y-83401974D01*
X122874950Y-83115000D01*
X122125050Y-83115000D01*
X121432233Y-83401974D01*
X120901974Y-83932233D01*
X120615000Y-84625050D01*
X109485000Y-84625050D01*
X109485000Y-84554071D01*
X109335042Y-84192042D01*
X109057958Y-83914958D01*
X108828708Y-83819999D01*
X109057958Y-83725040D01*
X109335042Y-83447956D01*
X109485000Y-83085927D01*
X109485000Y-82804071D01*
X112515000Y-82804071D01*
X112515000Y-83195929D01*
X112664958Y-83557958D01*
X112942042Y-83835042D01*
X113304071Y-83985000D01*
X113695929Y-83985000D01*
X114000000Y-83859049D01*
X114304071Y-83985000D01*
X114695929Y-83985000D01*
X115057958Y-83835042D01*
X115335042Y-83557958D01*
X115485000Y-83195929D01*
X115485000Y-82804071D01*
X115335042Y-82442042D01*
X115057958Y-82164958D01*
X114695929Y-82015000D01*
X114304071Y-82015000D01*
X114000000Y-82140951D01*
X113695929Y-82015000D01*
X113304071Y-82015000D01*
X112942042Y-82164958D01*
X112664958Y-82442042D01*
X112515000Y-82804071D01*
X109485000Y-82804071D01*
X109485000Y-82694069D01*
X109335042Y-82332040D01*
X109057958Y-82054956D01*
X108695929Y-81904998D01*
X108304071Y-81904998D01*
X107942042Y-82054956D01*
X107664958Y-82332040D01*
X107515000Y-82694069D01*
X83693511Y-82694069D01*
X83688839Y-82670582D01*
X83360625Y-82179375D01*
X82869418Y-81851161D01*
X82436256Y-81765000D01*
X82143744Y-81765000D01*
X81710582Y-81851161D01*
X81219375Y-82179375D01*
X81204904Y-82201033D01*
X81138327Y-82040302D01*
X80959699Y-81861673D01*
X80726310Y-81765000D01*
X80035750Y-81765000D01*
X79877000Y-81923750D01*
X79623000Y-81923750D01*
X79464250Y-81765000D01*
X78773690Y-81765000D01*
X78540301Y-81861673D01*
X78485000Y-81916974D01*
X78485000Y-81554071D01*
X78410826Y-81375000D01*
X78485000Y-81195929D01*
X78485000Y-80804071D01*
X78410826Y-80625000D01*
X78485000Y-80445929D01*
X78485000Y-80054071D01*
X78335042Y-79692042D01*
X78057958Y-79414958D01*
X77695929Y-79265000D01*
X77304071Y-79265000D01*
X76942042Y-79414958D01*
X76664958Y-79692042D01*
X76515000Y-80054071D01*
X67586652Y-80054071D01*
X67735000Y-79695929D01*
X67735000Y-79304071D01*
X67585042Y-78942042D01*
X67307958Y-78664958D01*
X66945929Y-78515000D01*
X66554071Y-78515000D01*
X66192042Y-78664958D01*
X65914958Y-78942042D01*
X65765000Y-79304071D01*
X50685000Y-79304071D01*
X50685000Y-77740910D01*
X51438695Y-77740910D01*
X51805640Y-78236343D01*
X53211171Y-78829736D01*
X54736793Y-78840087D01*
X56150246Y-78265819D01*
X56194360Y-78236343D01*
X56561305Y-77740910D01*
X54000000Y-75179605D01*
X51438695Y-77740910D01*
X50685000Y-77740910D01*
X50685000Y-77029196D01*
X50734181Y-77150246D01*
X50763657Y-77194360D01*
X51259090Y-77561305D01*
X53820395Y-75000000D01*
X54179605Y-75000000D01*
X56740910Y-77561305D01*
X57236343Y-77194360D01*
X57829736Y-75788829D01*
X57833798Y-75190000D01*
X91055908Y-75190000D01*
X91171161Y-75769418D01*
X91499375Y-76260625D01*
X91517619Y-76272816D01*
X91472235Y-76281843D01*
X91262191Y-76422191D01*
X91121843Y-76632235D01*
X91072560Y-76880000D01*
X91072560Y-78580000D01*
X91121843Y-78827765D01*
X91262191Y-79037809D01*
X91472235Y-79178157D01*
X91720000Y-79227440D01*
X93420000Y-79227440D01*
X93667765Y-79178157D01*
X93877809Y-79037809D01*
X94018157Y-78827765D01*
X94027184Y-78782381D01*
X94039375Y-78800625D01*
X94530582Y-79128839D01*
X94909886Y-79204287D01*
X94765000Y-79554071D01*
X94765000Y-79945929D01*
X94914958Y-80307958D01*
X95192042Y-80585042D01*
X95554071Y-80735000D01*
X95945929Y-80735000D01*
X96307958Y-80585042D01*
X96585042Y-80307958D01*
X96735000Y-79945929D01*
X96735000Y-79554071D01*
X96585042Y-79192042D01*
X96307958Y-78914958D01*
X96123724Y-78838645D01*
X96180625Y-78800625D01*
X96380000Y-78502239D01*
X96579375Y-78800625D01*
X97070582Y-79128839D01*
X97503744Y-79215000D01*
X97796256Y-79215000D01*
X98229418Y-79128839D01*
X98720625Y-78800625D01*
X98920000Y-78502239D01*
X99119375Y-78800625D01*
X99610582Y-79128839D01*
X100043744Y-79215000D01*
X100336256Y-79215000D01*
X100769418Y-79128839D01*
X101260625Y-78800625D01*
X101460000Y-78502239D01*
X101659375Y-78800625D01*
X102150582Y-79128839D01*
X102583744Y-79215000D01*
X102876256Y-79215000D01*
X103309418Y-79128839D01*
X103800625Y-78800625D01*
X104000000Y-78502239D01*
X104199375Y-78800625D01*
X104690582Y-79128839D01*
X105123744Y-79215000D01*
X105416256Y-79215000D01*
X105849418Y-79128839D01*
X106340625Y-78800625D01*
X106540000Y-78502239D01*
X106739375Y-78800625D01*
X107230582Y-79128839D01*
X107663744Y-79215000D01*
X107956256Y-79215000D01*
X108389418Y-79128839D01*
X108880625Y-78800625D01*
X109080000Y-78502239D01*
X109279375Y-78800625D01*
X109770582Y-79128839D01*
X110203744Y-79215000D01*
X110496256Y-79215000D01*
X110929418Y-79128839D01*
X111420625Y-78800625D01*
X111620000Y-78502239D01*
X111819375Y-78800625D01*
X112310582Y-79128839D01*
X112743744Y-79215000D01*
X113036256Y-79215000D01*
X113469418Y-79128839D01*
X113960625Y-78800625D01*
X114160000Y-78502239D01*
X114359375Y-78800625D01*
X114850582Y-79128839D01*
X115283744Y-79215000D01*
X115576256Y-79215000D01*
X116009418Y-79128839D01*
X116500625Y-78800625D01*
X116828839Y-78309418D01*
X116941921Y-77740910D01*
X123438695Y-77740910D01*
X123805640Y-78236343D01*
X125211171Y-78829736D01*
X126736793Y-78840087D01*
X128150246Y-78265819D01*
X128194360Y-78236343D01*
X128561305Y-77740910D01*
X126000000Y-75179605D01*
X123438695Y-77740910D01*
X116941921Y-77740910D01*
X116944092Y-77730000D01*
X116828839Y-77150582D01*
X116500625Y-76659375D01*
X116200214Y-76458647D01*
X116625183Y-76071358D01*
X116782303Y-75736793D01*
X122159913Y-75736793D01*
X122734181Y-77150246D01*
X122763657Y-77194360D01*
X123259090Y-77561305D01*
X125820395Y-75000000D01*
X123259090Y-72438695D01*
X122763657Y-72805640D01*
X122170264Y-74211171D01*
X122159913Y-75736793D01*
X116782303Y-75736793D01*
X116871486Y-75546892D01*
X116750819Y-75317000D01*
X115557000Y-75317000D01*
X115557000Y-75337000D01*
X115303000Y-75337000D01*
X115303000Y-75317000D01*
X113017000Y-75317000D01*
X113017000Y-75337000D01*
X112763000Y-75337000D01*
X112763000Y-75317000D01*
X110477000Y-75317000D01*
X110477000Y-75337000D01*
X110223000Y-75337000D01*
X110223000Y-75317000D01*
X107937000Y-75317000D01*
X107937000Y-75337000D01*
X107683000Y-75337000D01*
X107683000Y-75317000D01*
X105397000Y-75317000D01*
X105397000Y-75337000D01*
X105143000Y-75337000D01*
X105143000Y-75317000D01*
X102857000Y-75317000D01*
X102857000Y-75337000D01*
X102603000Y-75337000D01*
X102603000Y-75317000D01*
X100317000Y-75317000D01*
X100317000Y-75337000D01*
X100063000Y-75337000D01*
X100063000Y-75317000D01*
X97777000Y-75317000D01*
X97777000Y-75337000D01*
X97523000Y-75337000D01*
X97523000Y-75317000D01*
X95237000Y-75317000D01*
X95237000Y-75337000D01*
X94983000Y-75337000D01*
X94983000Y-75317000D01*
X94963000Y-75317000D01*
X94963000Y-75063000D01*
X94983000Y-75063000D01*
X94983000Y-73869845D01*
X95237000Y-73869845D01*
X95237000Y-75063000D01*
X97523000Y-75063000D01*
X97523000Y-73869845D01*
X97777000Y-73869845D01*
X97777000Y-75063000D01*
X100063000Y-75063000D01*
X100063000Y-73869845D01*
X100317000Y-73869845D01*
X100317000Y-75063000D01*
X102603000Y-75063000D01*
X102603000Y-73869845D01*
X102857000Y-73869845D01*
X102857000Y-75063000D01*
X105143000Y-75063000D01*
X105143000Y-73869845D01*
X105397000Y-73869845D01*
X105397000Y-75063000D01*
X107683000Y-75063000D01*
X107683000Y-73869845D01*
X107937000Y-73869845D01*
X107937000Y-75063000D01*
X110223000Y-75063000D01*
X110223000Y-73869845D01*
X110477000Y-73869845D01*
X110477000Y-75063000D01*
X112763000Y-75063000D01*
X112763000Y-73869845D01*
X113017000Y-73869845D01*
X113017000Y-75063000D01*
X115303000Y-75063000D01*
X115303000Y-73869845D01*
X115557000Y-73869845D01*
X115557000Y-75063000D01*
X116750819Y-75063000D01*
X116871486Y-74833108D01*
X116625183Y-74308642D01*
X116196924Y-73918355D01*
X115786890Y-73748524D01*
X115557000Y-73869845D01*
X115303000Y-73869845D01*
X115073110Y-73748524D01*
X114663076Y-73918355D01*
X114234817Y-74308642D01*
X114160000Y-74467954D01*
X114085183Y-74308642D01*
X113656924Y-73918355D01*
X113246890Y-73748524D01*
X113017000Y-73869845D01*
X112763000Y-73869845D01*
X112533110Y-73748524D01*
X112123076Y-73918355D01*
X111694817Y-74308642D01*
X111620000Y-74467954D01*
X111545183Y-74308642D01*
X111116924Y-73918355D01*
X110706890Y-73748524D01*
X110477000Y-73869845D01*
X110223000Y-73869845D01*
X109993110Y-73748524D01*
X109583076Y-73918355D01*
X109154817Y-74308642D01*
X109080000Y-74467954D01*
X109005183Y-74308642D01*
X108576924Y-73918355D01*
X108166890Y-73748524D01*
X107937000Y-73869845D01*
X107683000Y-73869845D01*
X107453110Y-73748524D01*
X107043076Y-73918355D01*
X106614817Y-74308642D01*
X106540000Y-74467954D01*
X106465183Y-74308642D01*
X106036924Y-73918355D01*
X105626890Y-73748524D01*
X105397000Y-73869845D01*
X105143000Y-73869845D01*
X104913110Y-73748524D01*
X104503076Y-73918355D01*
X104074817Y-74308642D01*
X104000000Y-74467954D01*
X103925183Y-74308642D01*
X103496924Y-73918355D01*
X103086890Y-73748524D01*
X102857000Y-73869845D01*
X102603000Y-73869845D01*
X102373110Y-73748524D01*
X101963076Y-73918355D01*
X101534817Y-74308642D01*
X101460000Y-74467954D01*
X101385183Y-74308642D01*
X100956924Y-73918355D01*
X100546890Y-73748524D01*
X100317000Y-73869845D01*
X100063000Y-73869845D01*
X99833110Y-73748524D01*
X99423076Y-73918355D01*
X98994817Y-74308642D01*
X98920000Y-74467954D01*
X98845183Y-74308642D01*
X98416924Y-73918355D01*
X98006890Y-73748524D01*
X97777000Y-73869845D01*
X97523000Y-73869845D01*
X97293110Y-73748524D01*
X96883076Y-73918355D01*
X96454817Y-74308642D01*
X96380000Y-74467954D01*
X96305183Y-74308642D01*
X95876924Y-73918355D01*
X95466890Y-73748524D01*
X95237000Y-73869845D01*
X94983000Y-73869845D01*
X94753110Y-73748524D01*
X94343076Y-73918355D01*
X93914817Y-74308642D01*
X93853843Y-74438478D01*
X93640625Y-74119375D01*
X93149418Y-73791161D01*
X92716256Y-73705000D01*
X92423744Y-73705000D01*
X91990582Y-73791161D01*
X91499375Y-74119375D01*
X91171161Y-74610582D01*
X91055908Y-75190000D01*
X57833798Y-75190000D01*
X57840087Y-74263207D01*
X57265819Y-72849754D01*
X57236343Y-72805640D01*
X56740910Y-72438695D01*
X54179605Y-75000000D01*
X53820395Y-75000000D01*
X53806253Y-74985858D01*
X53985858Y-74806253D01*
X54000000Y-74820395D01*
X56561305Y-72259090D01*
X56194360Y-71763657D01*
X56008050Y-71685000D01*
X123970804Y-71685000D01*
X123849754Y-71734181D01*
M02*
