G04 #@! TF.GenerationSoftware,KiCad,Pcbnew,5.0.0-rc1-44a33f2~62~ubuntu18.04.1*
G04 #@! TF.CreationDate,2018-04-18T04:45:04+00:00*
G04 #@! TF.ProjectId,glasgow,676C6173676F772E6B696361645F7063,rev?*
G04 #@! TF.SameCoordinates,Original*
G04 #@! TF.FileFunction,Legend,Bot*
G04 #@! TF.FilePolarity,Positive*
%FSLAX46Y46*%
G04 Gerber Fmt 4.6, Leading zero omitted, Abs format (unit mm)*
G04 Created by KiCad (PCBNEW 5.0.0-rc1-44a33f2~62~ubuntu18.04.1) date Wed Apr 18 04:45:04 2018*
%MOMM*%
%LPD*%
G01*
G04 APERTURE LIST*
%ADD10C,0.150000*%
G04 APERTURE END LIST*
D10*
X103142857Y-87107142D02*
X103190476Y-87154761D01*
X103333333Y-87202380D01*
X103428571Y-87202380D01*
X103571428Y-87154761D01*
X103666666Y-87059523D01*
X103714285Y-86964285D01*
X103761904Y-86773809D01*
X103761904Y-86630952D01*
X103714285Y-86440476D01*
X103666666Y-86345238D01*
X103571428Y-86250000D01*
X103428571Y-86202380D01*
X103333333Y-86202380D01*
X103190476Y-86250000D01*
X103142857Y-86297619D01*
X102809523Y-86202380D02*
X102190476Y-86202380D01*
X102523809Y-86583333D01*
X102380952Y-86583333D01*
X102285714Y-86630952D01*
X102238095Y-86678571D01*
X102190476Y-86773809D01*
X102190476Y-87011904D01*
X102238095Y-87107142D01*
X102285714Y-87154761D01*
X102380952Y-87202380D01*
X102666666Y-87202380D01*
X102761904Y-87154761D01*
X102809523Y-87107142D01*
X101571428Y-86202380D02*
X101476190Y-86202380D01*
X101380952Y-86250000D01*
X101333333Y-86297619D01*
X101285714Y-86392857D01*
X101238095Y-86583333D01*
X101238095Y-86821428D01*
X101285714Y-87011904D01*
X101333333Y-87107142D01*
X101380952Y-87154761D01*
X101476190Y-87202380D01*
X101571428Y-87202380D01*
X101666666Y-87154761D01*
X101714285Y-87107142D01*
X101761904Y-87011904D01*
X101809523Y-86821428D01*
X101809523Y-86583333D01*
X101761904Y-86392857D01*
X101714285Y-86297619D01*
X101666666Y-86250000D01*
X101571428Y-86202380D01*
X94202380Y-95357142D02*
X93726190Y-95023809D01*
X94202380Y-94785714D02*
X93202380Y-94785714D01*
X93202380Y-95166666D01*
X93250000Y-95261904D01*
X93297619Y-95309523D01*
X93392857Y-95357142D01*
X93535714Y-95357142D01*
X93630952Y-95309523D01*
X93678571Y-95261904D01*
X93726190Y-95166666D01*
X93726190Y-94785714D01*
X93202380Y-95690476D02*
X93202380Y-96309523D01*
X93583333Y-95976190D01*
X93583333Y-96119047D01*
X93630952Y-96214285D01*
X93678571Y-96261904D01*
X93773809Y-96309523D01*
X94011904Y-96309523D01*
X94107142Y-96261904D01*
X94154761Y-96214285D01*
X94202380Y-96119047D01*
X94202380Y-95833333D01*
X94154761Y-95738095D01*
X94107142Y-95690476D01*
X93202380Y-96928571D02*
X93202380Y-97023809D01*
X93250000Y-97119047D01*
X93297619Y-97166666D01*
X93392857Y-97214285D01*
X93583333Y-97261904D01*
X93821428Y-97261904D01*
X94011904Y-97214285D01*
X94107142Y-97166666D01*
X94154761Y-97119047D01*
X94202380Y-97023809D01*
X94202380Y-96928571D01*
X94154761Y-96833333D01*
X94107142Y-96785714D01*
X94011904Y-96738095D01*
X93821428Y-96690476D01*
X93583333Y-96690476D01*
X93392857Y-96738095D01*
X93297619Y-96785714D01*
X93250000Y-96833333D01*
X93202380Y-96928571D01*
X93607142Y-88857142D02*
X93654761Y-88809523D01*
X93702380Y-88666666D01*
X93702380Y-88571428D01*
X93654761Y-88428571D01*
X93559523Y-88333333D01*
X93464285Y-88285714D01*
X93273809Y-88238095D01*
X93130952Y-88238095D01*
X92940476Y-88285714D01*
X92845238Y-88333333D01*
X92750000Y-88428571D01*
X92702380Y-88571428D01*
X92702380Y-88666666D01*
X92750000Y-88809523D01*
X92797619Y-88857142D01*
X92702380Y-89190476D02*
X92702380Y-89809523D01*
X93083333Y-89476190D01*
X93083333Y-89619047D01*
X93130952Y-89714285D01*
X93178571Y-89761904D01*
X93273809Y-89809523D01*
X93511904Y-89809523D01*
X93607142Y-89761904D01*
X93654761Y-89714285D01*
X93702380Y-89619047D01*
X93702380Y-89333333D01*
X93654761Y-89238095D01*
X93607142Y-89190476D01*
X93035714Y-90666666D02*
X93702380Y-90666666D01*
X92654761Y-90428571D02*
X93369047Y-90190476D01*
X93369047Y-90809523D01*
X91644268Y-88888144D02*
X91691887Y-88840525D01*
X91739506Y-88697668D01*
X91739506Y-88602430D01*
X91691887Y-88459573D01*
X91596649Y-88364335D01*
X91501411Y-88316716D01*
X91310935Y-88269097D01*
X91168078Y-88269097D01*
X90977602Y-88316716D01*
X90882364Y-88364335D01*
X90787126Y-88459573D01*
X90739506Y-88602430D01*
X90739506Y-88697668D01*
X90787126Y-88840525D01*
X90834745Y-88888144D01*
X90739506Y-89221478D02*
X90739506Y-89840525D01*
X91120459Y-89507192D01*
X91120459Y-89650049D01*
X91168078Y-89745287D01*
X91215697Y-89792906D01*
X91310935Y-89840525D01*
X91549030Y-89840525D01*
X91644268Y-89792906D01*
X91691887Y-89745287D01*
X91739506Y-89650049D01*
X91739506Y-89364335D01*
X91691887Y-89269097D01*
X91644268Y-89221478D01*
X90739506Y-90745287D02*
X90739506Y-90269097D01*
X91215697Y-90221478D01*
X91168078Y-90269097D01*
X91120459Y-90364335D01*
X91120459Y-90602430D01*
X91168078Y-90697668D01*
X91215697Y-90745287D01*
X91310935Y-90792906D01*
X91549030Y-90792906D01*
X91644268Y-90745287D01*
X91691887Y-90697668D01*
X91739506Y-90602430D01*
X91739506Y-90364335D01*
X91691887Y-90269097D01*
X91644268Y-90221478D01*
X108892857Y-89357142D02*
X108940476Y-89404761D01*
X109083333Y-89452380D01*
X109178571Y-89452380D01*
X109321428Y-89404761D01*
X109416666Y-89309523D01*
X109464285Y-89214285D01*
X109511904Y-89023809D01*
X109511904Y-88880952D01*
X109464285Y-88690476D01*
X109416666Y-88595238D01*
X109321428Y-88500000D01*
X109178571Y-88452380D01*
X109083333Y-88452380D01*
X108940476Y-88500000D01*
X108892857Y-88547619D01*
X108559523Y-88452380D02*
X107940476Y-88452380D01*
X108273809Y-88833333D01*
X108130952Y-88833333D01*
X108035714Y-88880952D01*
X107988095Y-88928571D01*
X107940476Y-89023809D01*
X107940476Y-89261904D01*
X107988095Y-89357142D01*
X108035714Y-89404761D01*
X108130952Y-89452380D01*
X108416666Y-89452380D01*
X108511904Y-89404761D01*
X108559523Y-89357142D01*
X107083333Y-88452380D02*
X107273809Y-88452380D01*
X107369047Y-88500000D01*
X107416666Y-88547619D01*
X107511904Y-88690476D01*
X107559523Y-88880952D01*
X107559523Y-89261904D01*
X107511904Y-89357142D01*
X107464285Y-89404761D01*
X107369047Y-89452380D01*
X107178571Y-89452380D01*
X107083333Y-89404761D01*
X107035714Y-89357142D01*
X106988095Y-89261904D01*
X106988095Y-89023809D01*
X107035714Y-88928571D01*
X107083333Y-88880952D01*
X107178571Y-88833333D01*
X107369047Y-88833333D01*
X107464285Y-88880952D01*
X107511904Y-88928571D01*
X107559523Y-89023809D01*
X108892857Y-83357142D02*
X108940476Y-83404761D01*
X109083333Y-83452380D01*
X109178571Y-83452380D01*
X109321428Y-83404761D01*
X109416666Y-83309523D01*
X109464285Y-83214285D01*
X109511904Y-83023809D01*
X109511904Y-82880952D01*
X109464285Y-82690476D01*
X109416666Y-82595238D01*
X109321428Y-82500000D01*
X109178571Y-82452380D01*
X109083333Y-82452380D01*
X108940476Y-82500000D01*
X108892857Y-82547619D01*
X108559523Y-82452380D02*
X107940476Y-82452380D01*
X108273809Y-82833333D01*
X108130952Y-82833333D01*
X108035714Y-82880952D01*
X107988095Y-82928571D01*
X107940476Y-83023809D01*
X107940476Y-83261904D01*
X107988095Y-83357142D01*
X108035714Y-83404761D01*
X108130952Y-83452380D01*
X108416666Y-83452380D01*
X108511904Y-83404761D01*
X108559523Y-83357142D01*
X107369047Y-82880952D02*
X107464285Y-82833333D01*
X107511904Y-82785714D01*
X107559523Y-82690476D01*
X107559523Y-82642857D01*
X107511904Y-82547619D01*
X107464285Y-82500000D01*
X107369047Y-82452380D01*
X107178571Y-82452380D01*
X107083333Y-82500000D01*
X107035714Y-82547619D01*
X106988095Y-82642857D01*
X106988095Y-82690476D01*
X107035714Y-82785714D01*
X107083333Y-82833333D01*
X107178571Y-82880952D01*
X107369047Y-82880952D01*
X107464285Y-82928571D01*
X107511904Y-82976190D01*
X107559523Y-83071428D01*
X107559523Y-83261904D01*
X107511904Y-83357142D01*
X107464285Y-83404761D01*
X107369047Y-83452380D01*
X107178571Y-83452380D01*
X107083333Y-83404761D01*
X107035714Y-83357142D01*
X106988095Y-83261904D01*
X106988095Y-83071428D01*
X107035714Y-82976190D01*
X107083333Y-82928571D01*
X107178571Y-82880952D01*
X105392857Y-107107142D02*
X105440476Y-107154761D01*
X105583333Y-107202380D01*
X105678571Y-107202380D01*
X105821428Y-107154761D01*
X105916666Y-107059523D01*
X105964285Y-106964285D01*
X106011904Y-106773809D01*
X106011904Y-106630952D01*
X105964285Y-106440476D01*
X105916666Y-106345238D01*
X105821428Y-106250000D01*
X105678571Y-106202380D01*
X105583333Y-106202380D01*
X105440476Y-106250000D01*
X105392857Y-106297619D01*
X104535714Y-106535714D02*
X104535714Y-107202380D01*
X104773809Y-106154761D02*
X105011904Y-106869047D01*
X104392857Y-106869047D01*
X104107142Y-106202380D02*
X103440476Y-106202380D01*
X103869047Y-107202380D01*
X105392857Y-108857142D02*
X105440476Y-108904761D01*
X105583333Y-108952380D01*
X105678571Y-108952380D01*
X105821428Y-108904761D01*
X105916666Y-108809523D01*
X105964285Y-108714285D01*
X106011904Y-108523809D01*
X106011904Y-108380952D01*
X105964285Y-108190476D01*
X105916666Y-108095238D01*
X105821428Y-108000000D01*
X105678571Y-107952380D01*
X105583333Y-107952380D01*
X105440476Y-108000000D01*
X105392857Y-108047619D01*
X104535714Y-108285714D02*
X104535714Y-108952380D01*
X104773809Y-107904761D02*
X105011904Y-108619047D01*
X104392857Y-108619047D01*
X103583333Y-107952380D02*
X103773809Y-107952380D01*
X103869047Y-108000000D01*
X103916666Y-108047619D01*
X104011904Y-108190476D01*
X104059523Y-108380952D01*
X104059523Y-108761904D01*
X104011904Y-108857142D01*
X103964285Y-108904761D01*
X103869047Y-108952380D01*
X103678571Y-108952380D01*
X103583333Y-108904761D01*
X103535714Y-108857142D01*
X103488095Y-108761904D01*
X103488095Y-108523809D01*
X103535714Y-108428571D01*
X103583333Y-108380952D01*
X103678571Y-108333333D01*
X103869047Y-108333333D01*
X103964285Y-108380952D01*
X104011904Y-108428571D01*
X104059523Y-108523809D01*
X97142857Y-109807142D02*
X97190476Y-109854761D01*
X97333333Y-109902380D01*
X97428571Y-109902380D01*
X97571428Y-109854761D01*
X97666666Y-109759523D01*
X97714285Y-109664285D01*
X97761904Y-109473809D01*
X97761904Y-109330952D01*
X97714285Y-109140476D01*
X97666666Y-109045238D01*
X97571428Y-108950000D01*
X97428571Y-108902380D01*
X97333333Y-108902380D01*
X97190476Y-108950000D01*
X97142857Y-108997619D01*
X96285714Y-109235714D02*
X96285714Y-109902380D01*
X96523809Y-108854761D02*
X96761904Y-109569047D01*
X96142857Y-109569047D01*
X95285714Y-108902380D02*
X95761904Y-108902380D01*
X95809523Y-109378571D01*
X95761904Y-109330952D01*
X95666666Y-109283333D01*
X95428571Y-109283333D01*
X95333333Y-109330952D01*
X95285714Y-109378571D01*
X95238095Y-109473809D01*
X95238095Y-109711904D01*
X95285714Y-109807142D01*
X95333333Y-109854761D01*
X95428571Y-109902380D01*
X95666666Y-109902380D01*
X95761904Y-109854761D01*
X95809523Y-109807142D01*
X91392857Y-106907142D02*
X91440476Y-106954761D01*
X91583333Y-107002380D01*
X91678571Y-107002380D01*
X91821428Y-106954761D01*
X91916666Y-106859523D01*
X91964285Y-106764285D01*
X92011904Y-106573809D01*
X92011904Y-106430952D01*
X91964285Y-106240476D01*
X91916666Y-106145238D01*
X91821428Y-106050000D01*
X91678571Y-106002380D01*
X91583333Y-106002380D01*
X91440476Y-106050000D01*
X91392857Y-106097619D01*
X90535714Y-106335714D02*
X90535714Y-107002380D01*
X90773809Y-105954761D02*
X91011904Y-106669047D01*
X90392857Y-106669047D01*
X90107142Y-106002380D02*
X89488095Y-106002380D01*
X89821428Y-106383333D01*
X89678571Y-106383333D01*
X89583333Y-106430952D01*
X89535714Y-106478571D01*
X89488095Y-106573809D01*
X89488095Y-106811904D01*
X89535714Y-106907142D01*
X89583333Y-106954761D01*
X89678571Y-107002380D01*
X89964285Y-107002380D01*
X90059523Y-106954761D01*
X90107142Y-106907142D01*
X116357142Y-100857142D02*
X116404761Y-100809523D01*
X116452380Y-100666666D01*
X116452380Y-100571428D01*
X116404761Y-100428571D01*
X116309523Y-100333333D01*
X116214285Y-100285714D01*
X116023809Y-100238095D01*
X115880952Y-100238095D01*
X115690476Y-100285714D01*
X115595238Y-100333333D01*
X115500000Y-100428571D01*
X115452380Y-100571428D01*
X115452380Y-100666666D01*
X115500000Y-100809523D01*
X115547619Y-100857142D01*
X115785714Y-101714285D02*
X116452380Y-101714285D01*
X115404761Y-101476190D02*
X116119047Y-101238095D01*
X116119047Y-101857142D01*
X115547619Y-102190476D02*
X115500000Y-102238095D01*
X115452380Y-102333333D01*
X115452380Y-102571428D01*
X115500000Y-102666666D01*
X115547619Y-102714285D01*
X115642857Y-102761904D01*
X115738095Y-102761904D01*
X115880952Y-102714285D01*
X116452380Y-102142857D01*
X116452380Y-102761904D01*
X114357142Y-100857142D02*
X114404761Y-100809523D01*
X114452380Y-100666666D01*
X114452380Y-100571428D01*
X114404761Y-100428571D01*
X114309523Y-100333333D01*
X114214285Y-100285714D01*
X114023809Y-100238095D01*
X113880952Y-100238095D01*
X113690476Y-100285714D01*
X113595238Y-100333333D01*
X113500000Y-100428571D01*
X113452380Y-100571428D01*
X113452380Y-100666666D01*
X113500000Y-100809523D01*
X113547619Y-100857142D01*
X113785714Y-101714285D02*
X114452380Y-101714285D01*
X113404761Y-101476190D02*
X114119047Y-101238095D01*
X114119047Y-101857142D01*
X114452380Y-102761904D02*
X114452380Y-102190476D01*
X114452380Y-102476190D02*
X113452380Y-102476190D01*
X113595238Y-102380952D01*
X113690476Y-102285714D01*
X113738095Y-102190476D01*
X103142857Y-84607142D02*
X103190476Y-84654761D01*
X103333333Y-84702380D01*
X103428571Y-84702380D01*
X103571428Y-84654761D01*
X103666666Y-84559523D01*
X103714285Y-84464285D01*
X103761904Y-84273809D01*
X103761904Y-84130952D01*
X103714285Y-83940476D01*
X103666666Y-83845238D01*
X103571428Y-83750000D01*
X103428571Y-83702380D01*
X103333333Y-83702380D01*
X103190476Y-83750000D01*
X103142857Y-83797619D01*
X102285714Y-84035714D02*
X102285714Y-84702380D01*
X102523809Y-83654761D02*
X102761904Y-84369047D01*
X102142857Y-84369047D01*
X101571428Y-83702380D02*
X101476190Y-83702380D01*
X101380952Y-83750000D01*
X101333333Y-83797619D01*
X101285714Y-83892857D01*
X101238095Y-84083333D01*
X101238095Y-84321428D01*
X101285714Y-84511904D01*
X101333333Y-84607142D01*
X101380952Y-84654761D01*
X101476190Y-84702380D01*
X101571428Y-84702380D01*
X101666666Y-84654761D01*
X101714285Y-84607142D01*
X101761904Y-84511904D01*
X101809523Y-84321428D01*
X101809523Y-84083333D01*
X101761904Y-83892857D01*
X101714285Y-83797619D01*
X101666666Y-83750000D01*
X101571428Y-83702380D01*
X103142857Y-82857142D02*
X103190476Y-82904761D01*
X103333333Y-82952380D01*
X103428571Y-82952380D01*
X103571428Y-82904761D01*
X103666666Y-82809523D01*
X103714285Y-82714285D01*
X103761904Y-82523809D01*
X103761904Y-82380952D01*
X103714285Y-82190476D01*
X103666666Y-82095238D01*
X103571428Y-82000000D01*
X103428571Y-81952380D01*
X103333333Y-81952380D01*
X103190476Y-82000000D01*
X103142857Y-82047619D01*
X102809523Y-81952380D02*
X102190476Y-81952380D01*
X102523809Y-82333333D01*
X102380952Y-82333333D01*
X102285714Y-82380952D01*
X102238095Y-82428571D01*
X102190476Y-82523809D01*
X102190476Y-82761904D01*
X102238095Y-82857142D01*
X102285714Y-82904761D01*
X102380952Y-82952380D01*
X102666666Y-82952380D01*
X102761904Y-82904761D01*
X102809523Y-82857142D01*
X101714285Y-82952380D02*
X101523809Y-82952380D01*
X101428571Y-82904761D01*
X101380952Y-82857142D01*
X101285714Y-82714285D01*
X101238095Y-82523809D01*
X101238095Y-82142857D01*
X101285714Y-82047619D01*
X101333333Y-82000000D01*
X101428571Y-81952380D01*
X101619047Y-81952380D01*
X101714285Y-82000000D01*
X101761904Y-82047619D01*
X101809523Y-82142857D01*
X101809523Y-82380952D01*
X101761904Y-82476190D01*
X101714285Y-82523809D01*
X101619047Y-82571428D01*
X101428571Y-82571428D01*
X101333333Y-82523809D01*
X101285714Y-82476190D01*
X101238095Y-82380952D01*
X94392857Y-98857142D02*
X94440476Y-98904761D01*
X94583333Y-98952380D01*
X94678571Y-98952380D01*
X94821428Y-98904761D01*
X94916666Y-98809523D01*
X94964285Y-98714285D01*
X95011904Y-98523809D01*
X95011904Y-98380952D01*
X94964285Y-98190476D01*
X94916666Y-98095238D01*
X94821428Y-98000000D01*
X94678571Y-97952380D01*
X94583333Y-97952380D01*
X94440476Y-98000000D01*
X94392857Y-98047619D01*
X94059523Y-97952380D02*
X93440476Y-97952380D01*
X93773809Y-98333333D01*
X93630952Y-98333333D01*
X93535714Y-98380952D01*
X93488095Y-98428571D01*
X93440476Y-98523809D01*
X93440476Y-98761904D01*
X93488095Y-98857142D01*
X93535714Y-98904761D01*
X93630952Y-98952380D01*
X93916666Y-98952380D01*
X94011904Y-98904761D01*
X94059523Y-98857142D01*
X93107142Y-97952380D02*
X92488095Y-97952380D01*
X92821428Y-98333333D01*
X92678571Y-98333333D01*
X92583333Y-98380952D01*
X92535714Y-98428571D01*
X92488095Y-98523809D01*
X92488095Y-98761904D01*
X92535714Y-98857142D01*
X92583333Y-98904761D01*
X92678571Y-98952380D01*
X92964285Y-98952380D01*
X93059523Y-98904761D01*
X93107142Y-98857142D01*
X62792857Y-103952380D02*
X63126190Y-103476190D01*
X63364285Y-103952380D02*
X63364285Y-102952380D01*
X62983333Y-102952380D01*
X62888095Y-103000000D01*
X62840476Y-103047619D01*
X62792857Y-103142857D01*
X62792857Y-103285714D01*
X62840476Y-103380952D01*
X62888095Y-103428571D01*
X62983333Y-103476190D01*
X63364285Y-103476190D01*
X61840476Y-103952380D02*
X62411904Y-103952380D01*
X62126190Y-103952380D02*
X62126190Y-102952380D01*
X62221428Y-103095238D01*
X62316666Y-103190476D01*
X62411904Y-103238095D01*
X61459523Y-103047619D02*
X61411904Y-103000000D01*
X61316666Y-102952380D01*
X61078571Y-102952380D01*
X60983333Y-103000000D01*
X60935714Y-103047619D01*
X60888095Y-103142857D01*
X60888095Y-103238095D01*
X60935714Y-103380952D01*
X61507142Y-103952380D01*
X60888095Y-103952380D01*
X62792857Y-107452380D02*
X63126190Y-106976190D01*
X63364285Y-107452380D02*
X63364285Y-106452380D01*
X62983333Y-106452380D01*
X62888095Y-106500000D01*
X62840476Y-106547619D01*
X62792857Y-106642857D01*
X62792857Y-106785714D01*
X62840476Y-106880952D01*
X62888095Y-106928571D01*
X62983333Y-106976190D01*
X63364285Y-106976190D01*
X61840476Y-107452380D02*
X62411904Y-107452380D01*
X62126190Y-107452380D02*
X62126190Y-106452380D01*
X62221428Y-106595238D01*
X62316666Y-106690476D01*
X62411904Y-106738095D01*
X60983333Y-106785714D02*
X60983333Y-107452380D01*
X61221428Y-106404761D02*
X61459523Y-107119047D01*
X60840476Y-107119047D01*
X62792857Y-109202380D02*
X63126190Y-108726190D01*
X63364285Y-109202380D02*
X63364285Y-108202380D01*
X62983333Y-108202380D01*
X62888095Y-108250000D01*
X62840476Y-108297619D01*
X62792857Y-108392857D01*
X62792857Y-108535714D01*
X62840476Y-108630952D01*
X62888095Y-108678571D01*
X62983333Y-108726190D01*
X63364285Y-108726190D01*
X61840476Y-109202380D02*
X62411904Y-109202380D01*
X62126190Y-109202380D02*
X62126190Y-108202380D01*
X62221428Y-108345238D01*
X62316666Y-108440476D01*
X62411904Y-108488095D01*
X60935714Y-108202380D02*
X61411904Y-108202380D01*
X61459523Y-108678571D01*
X61411904Y-108630952D01*
X61316666Y-108583333D01*
X61078571Y-108583333D01*
X60983333Y-108630952D01*
X60935714Y-108678571D01*
X60888095Y-108773809D01*
X60888095Y-109011904D01*
X60935714Y-109107142D01*
X60983333Y-109154761D01*
X61078571Y-109202380D01*
X61316666Y-109202380D01*
X61411904Y-109154761D01*
X61459523Y-109107142D01*
X62792857Y-110952380D02*
X63126190Y-110476190D01*
X63364285Y-110952380D02*
X63364285Y-109952380D01*
X62983333Y-109952380D01*
X62888095Y-110000000D01*
X62840476Y-110047619D01*
X62792857Y-110142857D01*
X62792857Y-110285714D01*
X62840476Y-110380952D01*
X62888095Y-110428571D01*
X62983333Y-110476190D01*
X63364285Y-110476190D01*
X61840476Y-110952380D02*
X62411904Y-110952380D01*
X62126190Y-110952380D02*
X62126190Y-109952380D01*
X62221428Y-110095238D01*
X62316666Y-110190476D01*
X62411904Y-110238095D01*
X60983333Y-109952380D02*
X61173809Y-109952380D01*
X61269047Y-110000000D01*
X61316666Y-110047619D01*
X61411904Y-110190476D01*
X61459523Y-110380952D01*
X61459523Y-110761904D01*
X61411904Y-110857142D01*
X61364285Y-110904761D01*
X61269047Y-110952380D01*
X61078571Y-110952380D01*
X60983333Y-110904761D01*
X60935714Y-110857142D01*
X60888095Y-110761904D01*
X60888095Y-110523809D01*
X60935714Y-110428571D01*
X60983333Y-110380952D01*
X61078571Y-110333333D01*
X61269047Y-110333333D01*
X61364285Y-110380952D01*
X61411904Y-110428571D01*
X61459523Y-110523809D01*
X62792857Y-105702380D02*
X63126190Y-105226190D01*
X63364285Y-105702380D02*
X63364285Y-104702380D01*
X62983333Y-104702380D01*
X62888095Y-104750000D01*
X62840476Y-104797619D01*
X62792857Y-104892857D01*
X62792857Y-105035714D01*
X62840476Y-105130952D01*
X62888095Y-105178571D01*
X62983333Y-105226190D01*
X63364285Y-105226190D01*
X61840476Y-105702380D02*
X62411904Y-105702380D01*
X62126190Y-105702380D02*
X62126190Y-104702380D01*
X62221428Y-104845238D01*
X62316666Y-104940476D01*
X62411904Y-104988095D01*
X61507142Y-104702380D02*
X60888095Y-104702380D01*
X61221428Y-105083333D01*
X61078571Y-105083333D01*
X60983333Y-105130952D01*
X60935714Y-105178571D01*
X60888095Y-105273809D01*
X60888095Y-105511904D01*
X60935714Y-105607142D01*
X60983333Y-105654761D01*
X61078571Y-105702380D01*
X61364285Y-105702380D01*
X61459523Y-105654761D01*
X61507142Y-105607142D01*
X105392857Y-104607142D02*
X105440476Y-104654761D01*
X105583333Y-104702380D01*
X105678571Y-104702380D01*
X105821428Y-104654761D01*
X105916666Y-104559523D01*
X105964285Y-104464285D01*
X106011904Y-104273809D01*
X106011904Y-104130952D01*
X105964285Y-103940476D01*
X105916666Y-103845238D01*
X105821428Y-103750000D01*
X105678571Y-103702380D01*
X105583333Y-103702380D01*
X105440476Y-103750000D01*
X105392857Y-103797619D01*
X105059523Y-103702380D02*
X104440476Y-103702380D01*
X104773809Y-104083333D01*
X104630952Y-104083333D01*
X104535714Y-104130952D01*
X104488095Y-104178571D01*
X104440476Y-104273809D01*
X104440476Y-104511904D01*
X104488095Y-104607142D01*
X104535714Y-104654761D01*
X104630952Y-104702380D01*
X104916666Y-104702380D01*
X105011904Y-104654761D01*
X105059523Y-104607142D01*
X103488095Y-104702380D02*
X104059523Y-104702380D01*
X103773809Y-104702380D02*
X103773809Y-103702380D01*
X103869047Y-103845238D01*
X103964285Y-103940476D01*
X104059523Y-103988095D01*
X105392857Y-102857142D02*
X105440476Y-102904761D01*
X105583333Y-102952380D01*
X105678571Y-102952380D01*
X105821428Y-102904761D01*
X105916666Y-102809523D01*
X105964285Y-102714285D01*
X106011904Y-102523809D01*
X106011904Y-102380952D01*
X105964285Y-102190476D01*
X105916666Y-102095238D01*
X105821428Y-102000000D01*
X105678571Y-101952380D01*
X105583333Y-101952380D01*
X105440476Y-102000000D01*
X105392857Y-102047619D01*
X105059523Y-101952380D02*
X104440476Y-101952380D01*
X104773809Y-102333333D01*
X104630952Y-102333333D01*
X104535714Y-102380952D01*
X104488095Y-102428571D01*
X104440476Y-102523809D01*
X104440476Y-102761904D01*
X104488095Y-102857142D01*
X104535714Y-102904761D01*
X104630952Y-102952380D01*
X104916666Y-102952380D01*
X105011904Y-102904761D01*
X105059523Y-102857142D01*
X104059523Y-102047619D02*
X104011904Y-102000000D01*
X103916666Y-101952380D01*
X103678571Y-101952380D01*
X103583333Y-102000000D01*
X103535714Y-102047619D01*
X103488095Y-102142857D01*
X103488095Y-102238095D01*
X103535714Y-102380952D01*
X104107142Y-102952380D01*
X103488095Y-102952380D01*
X103142857Y-88857142D02*
X103190476Y-88904761D01*
X103333333Y-88952380D01*
X103428571Y-88952380D01*
X103571428Y-88904761D01*
X103666666Y-88809523D01*
X103714285Y-88714285D01*
X103761904Y-88523809D01*
X103761904Y-88380952D01*
X103714285Y-88190476D01*
X103666666Y-88095238D01*
X103571428Y-88000000D01*
X103428571Y-87952380D01*
X103333333Y-87952380D01*
X103190476Y-88000000D01*
X103142857Y-88047619D01*
X102761904Y-88047619D02*
X102714285Y-88000000D01*
X102619047Y-87952380D01*
X102380952Y-87952380D01*
X102285714Y-88000000D01*
X102238095Y-88047619D01*
X102190476Y-88142857D01*
X102190476Y-88238095D01*
X102238095Y-88380952D01*
X102809523Y-88952380D01*
X102190476Y-88952380D01*
X101714285Y-88952380D02*
X101523809Y-88952380D01*
X101428571Y-88904761D01*
X101380952Y-88857142D01*
X101285714Y-88714285D01*
X101238095Y-88523809D01*
X101238095Y-88142857D01*
X101285714Y-88047619D01*
X101333333Y-88000000D01*
X101428571Y-87952380D01*
X101619047Y-87952380D01*
X101714285Y-88000000D01*
X101761904Y-88047619D01*
X101809523Y-88142857D01*
X101809523Y-88380952D01*
X101761904Y-88476190D01*
X101714285Y-88523809D01*
X101619047Y-88571428D01*
X101428571Y-88571428D01*
X101333333Y-88523809D01*
X101285714Y-88476190D01*
X101238095Y-88380952D01*
X77642857Y-93107142D02*
X77690476Y-93154761D01*
X77833333Y-93202380D01*
X77928571Y-93202380D01*
X78071428Y-93154761D01*
X78166666Y-93059523D01*
X78214285Y-92964285D01*
X78261904Y-92773809D01*
X78261904Y-92630952D01*
X78214285Y-92440476D01*
X78166666Y-92345238D01*
X78071428Y-92250000D01*
X77928571Y-92202380D01*
X77833333Y-92202380D01*
X77690476Y-92250000D01*
X77642857Y-92297619D01*
X77261904Y-92297619D02*
X77214285Y-92250000D01*
X77119047Y-92202380D01*
X76880952Y-92202380D01*
X76785714Y-92250000D01*
X76738095Y-92297619D01*
X76690476Y-92392857D01*
X76690476Y-92488095D01*
X76738095Y-92630952D01*
X77309523Y-93202380D01*
X76690476Y-93202380D01*
X76309523Y-92297619D02*
X76261904Y-92250000D01*
X76166666Y-92202380D01*
X75928571Y-92202380D01*
X75833333Y-92250000D01*
X75785714Y-92297619D01*
X75738095Y-92392857D01*
X75738095Y-92488095D01*
X75785714Y-92630952D01*
X76357142Y-93202380D01*
X75738095Y-93202380D01*
X77642857Y-95107142D02*
X77690476Y-95154761D01*
X77833333Y-95202380D01*
X77928571Y-95202380D01*
X78071428Y-95154761D01*
X78166666Y-95059523D01*
X78214285Y-94964285D01*
X78261904Y-94773809D01*
X78261904Y-94630952D01*
X78214285Y-94440476D01*
X78166666Y-94345238D01*
X78071428Y-94250000D01*
X77928571Y-94202380D01*
X77833333Y-94202380D01*
X77690476Y-94250000D01*
X77642857Y-94297619D01*
X77261904Y-94297619D02*
X77214285Y-94250000D01*
X77119047Y-94202380D01*
X76880952Y-94202380D01*
X76785714Y-94250000D01*
X76738095Y-94297619D01*
X76690476Y-94392857D01*
X76690476Y-94488095D01*
X76738095Y-94630952D01*
X77309523Y-95202380D01*
X76690476Y-95202380D01*
X75785714Y-94202380D02*
X76261904Y-94202380D01*
X76309523Y-94678571D01*
X76261904Y-94630952D01*
X76166666Y-94583333D01*
X75928571Y-94583333D01*
X75833333Y-94630952D01*
X75785714Y-94678571D01*
X75738095Y-94773809D01*
X75738095Y-95011904D01*
X75785714Y-95107142D01*
X75833333Y-95154761D01*
X75928571Y-95202380D01*
X76166666Y-95202380D01*
X76261904Y-95154761D01*
X76309523Y-95107142D01*
X87142857Y-95607142D02*
X87190476Y-95654761D01*
X87333333Y-95702380D01*
X87428571Y-95702380D01*
X87571428Y-95654761D01*
X87666666Y-95559523D01*
X87714285Y-95464285D01*
X87761904Y-95273809D01*
X87761904Y-95130952D01*
X87714285Y-94940476D01*
X87666666Y-94845238D01*
X87571428Y-94750000D01*
X87428571Y-94702380D01*
X87333333Y-94702380D01*
X87190476Y-94750000D01*
X87142857Y-94797619D01*
X86761904Y-94797619D02*
X86714285Y-94750000D01*
X86619047Y-94702380D01*
X86380952Y-94702380D01*
X86285714Y-94750000D01*
X86238095Y-94797619D01*
X86190476Y-94892857D01*
X86190476Y-94988095D01*
X86238095Y-95130952D01*
X86809523Y-95702380D01*
X86190476Y-95702380D01*
X85333333Y-95035714D02*
X85333333Y-95702380D01*
X85571428Y-94654761D02*
X85809523Y-95369047D01*
X85190476Y-95369047D01*
X87142857Y-94107142D02*
X87190476Y-94154761D01*
X87333333Y-94202380D01*
X87428571Y-94202380D01*
X87571428Y-94154761D01*
X87666666Y-94059523D01*
X87714285Y-93964285D01*
X87761904Y-93773809D01*
X87761904Y-93630952D01*
X87714285Y-93440476D01*
X87666666Y-93345238D01*
X87571428Y-93250000D01*
X87428571Y-93202380D01*
X87333333Y-93202380D01*
X87190476Y-93250000D01*
X87142857Y-93297619D01*
X86761904Y-93297619D02*
X86714285Y-93250000D01*
X86619047Y-93202380D01*
X86380952Y-93202380D01*
X86285714Y-93250000D01*
X86238095Y-93297619D01*
X86190476Y-93392857D01*
X86190476Y-93488095D01*
X86238095Y-93630952D01*
X86809523Y-94202380D01*
X86190476Y-94202380D01*
X85857142Y-93202380D02*
X85238095Y-93202380D01*
X85571428Y-93583333D01*
X85428571Y-93583333D01*
X85333333Y-93630952D01*
X85285714Y-93678571D01*
X85238095Y-93773809D01*
X85238095Y-94011904D01*
X85285714Y-94107142D01*
X85333333Y-94154761D01*
X85428571Y-94202380D01*
X85714285Y-94202380D01*
X85809523Y-94154761D01*
X85857142Y-94107142D01*
X94392857Y-100357142D02*
X94440476Y-100404761D01*
X94583333Y-100452380D01*
X94678571Y-100452380D01*
X94821428Y-100404761D01*
X94916666Y-100309523D01*
X94964285Y-100214285D01*
X95011904Y-100023809D01*
X95011904Y-99880952D01*
X94964285Y-99690476D01*
X94916666Y-99595238D01*
X94821428Y-99500000D01*
X94678571Y-99452380D01*
X94583333Y-99452380D01*
X94440476Y-99500000D01*
X94392857Y-99547619D01*
X93440476Y-100452380D02*
X94011904Y-100452380D01*
X93726190Y-100452380D02*
X93726190Y-99452380D01*
X93821428Y-99595238D01*
X93916666Y-99690476D01*
X94011904Y-99738095D01*
X92964285Y-100452380D02*
X92773809Y-100452380D01*
X92678571Y-100404761D01*
X92630952Y-100357142D01*
X92535714Y-100214285D01*
X92488095Y-100023809D01*
X92488095Y-99642857D01*
X92535714Y-99547619D01*
X92583333Y-99500000D01*
X92678571Y-99452380D01*
X92869047Y-99452380D01*
X92964285Y-99500000D01*
X93011904Y-99547619D01*
X93059523Y-99642857D01*
X93059523Y-99880952D01*
X93011904Y-99976190D01*
X92964285Y-100023809D01*
X92869047Y-100071428D01*
X92678571Y-100071428D01*
X92583333Y-100023809D01*
X92535714Y-99976190D01*
X92488095Y-99880952D01*
X88357142Y-102857142D02*
X88404761Y-102809523D01*
X88452380Y-102666666D01*
X88452380Y-102571428D01*
X88404761Y-102428571D01*
X88309523Y-102333333D01*
X88214285Y-102285714D01*
X88023809Y-102238095D01*
X87880952Y-102238095D01*
X87690476Y-102285714D01*
X87595238Y-102333333D01*
X87500000Y-102428571D01*
X87452380Y-102571428D01*
X87452380Y-102666666D01*
X87500000Y-102809523D01*
X87547619Y-102857142D01*
X87547619Y-103238095D02*
X87500000Y-103285714D01*
X87452380Y-103380952D01*
X87452380Y-103619047D01*
X87500000Y-103714285D01*
X87547619Y-103761904D01*
X87642857Y-103809523D01*
X87738095Y-103809523D01*
X87880952Y-103761904D01*
X88452380Y-103190476D01*
X88452380Y-103809523D01*
X87452380Y-104428571D02*
X87452380Y-104523809D01*
X87500000Y-104619047D01*
X87547619Y-104666666D01*
X87642857Y-104714285D01*
X87833333Y-104761904D01*
X88071428Y-104761904D01*
X88261904Y-104714285D01*
X88357142Y-104666666D01*
X88404761Y-104619047D01*
X88452380Y-104523809D01*
X88452380Y-104428571D01*
X88404761Y-104333333D01*
X88357142Y-104285714D01*
X88261904Y-104238095D01*
X88071428Y-104190476D01*
X87833333Y-104190476D01*
X87642857Y-104238095D01*
X87547619Y-104285714D01*
X87500000Y-104333333D01*
X87452380Y-104428571D01*
X86857142Y-102857142D02*
X86904761Y-102809523D01*
X86952380Y-102666666D01*
X86952380Y-102571428D01*
X86904761Y-102428571D01*
X86809523Y-102333333D01*
X86714285Y-102285714D01*
X86523809Y-102238095D01*
X86380952Y-102238095D01*
X86190476Y-102285714D01*
X86095238Y-102333333D01*
X86000000Y-102428571D01*
X85952380Y-102571428D01*
X85952380Y-102666666D01*
X86000000Y-102809523D01*
X86047619Y-102857142D01*
X86047619Y-103238095D02*
X86000000Y-103285714D01*
X85952380Y-103380952D01*
X85952380Y-103619047D01*
X86000000Y-103714285D01*
X86047619Y-103761904D01*
X86142857Y-103809523D01*
X86238095Y-103809523D01*
X86380952Y-103761904D01*
X86952380Y-103190476D01*
X86952380Y-103809523D01*
X86952380Y-104761904D02*
X86952380Y-104190476D01*
X86952380Y-104476190D02*
X85952380Y-104476190D01*
X86095238Y-104380952D01*
X86190476Y-104285714D01*
X86238095Y-104190476D01*
X82892857Y-112607142D02*
X82940476Y-112654761D01*
X83083333Y-112702380D01*
X83178571Y-112702380D01*
X83321428Y-112654761D01*
X83416666Y-112559523D01*
X83464285Y-112464285D01*
X83511904Y-112273809D01*
X83511904Y-112130952D01*
X83464285Y-111940476D01*
X83416666Y-111845238D01*
X83321428Y-111750000D01*
X83178571Y-111702380D01*
X83083333Y-111702380D01*
X82940476Y-111750000D01*
X82892857Y-111797619D01*
X81940476Y-112702380D02*
X82511904Y-112702380D01*
X82226190Y-112702380D02*
X82226190Y-111702380D01*
X82321428Y-111845238D01*
X82416666Y-111940476D01*
X82511904Y-111988095D01*
X81083333Y-111702380D02*
X81273809Y-111702380D01*
X81369047Y-111750000D01*
X81416666Y-111797619D01*
X81511904Y-111940476D01*
X81559523Y-112130952D01*
X81559523Y-112511904D01*
X81511904Y-112607142D01*
X81464285Y-112654761D01*
X81369047Y-112702380D01*
X81178571Y-112702380D01*
X81083333Y-112654761D01*
X81035714Y-112607142D01*
X80988095Y-112511904D01*
X80988095Y-112273809D01*
X81035714Y-112178571D01*
X81083333Y-112130952D01*
X81178571Y-112083333D01*
X81369047Y-112083333D01*
X81464285Y-112130952D01*
X81511904Y-112178571D01*
X81559523Y-112273809D01*
X87142857Y-97107142D02*
X87190476Y-97154761D01*
X87333333Y-97202380D01*
X87428571Y-97202380D01*
X87571428Y-97154761D01*
X87666666Y-97059523D01*
X87714285Y-96964285D01*
X87761904Y-96773809D01*
X87761904Y-96630952D01*
X87714285Y-96440476D01*
X87666666Y-96345238D01*
X87571428Y-96250000D01*
X87428571Y-96202380D01*
X87333333Y-96202380D01*
X87190476Y-96250000D01*
X87142857Y-96297619D01*
X86190476Y-97202380D02*
X86761904Y-97202380D01*
X86476190Y-97202380D02*
X86476190Y-96202380D01*
X86571428Y-96345238D01*
X86666666Y-96440476D01*
X86761904Y-96488095D01*
X85619047Y-96630952D02*
X85714285Y-96583333D01*
X85761904Y-96535714D01*
X85809523Y-96440476D01*
X85809523Y-96392857D01*
X85761904Y-96297619D01*
X85714285Y-96250000D01*
X85619047Y-96202380D01*
X85428571Y-96202380D01*
X85333333Y-96250000D01*
X85285714Y-96297619D01*
X85238095Y-96392857D01*
X85238095Y-96440476D01*
X85285714Y-96535714D01*
X85333333Y-96583333D01*
X85428571Y-96630952D01*
X85619047Y-96630952D01*
X85714285Y-96678571D01*
X85761904Y-96726190D01*
X85809523Y-96821428D01*
X85809523Y-97011904D01*
X85761904Y-97107142D01*
X85714285Y-97154761D01*
X85619047Y-97202380D01*
X85428571Y-97202380D01*
X85333333Y-97154761D01*
X85285714Y-97107142D01*
X85238095Y-97011904D01*
X85238095Y-96821428D01*
X85285714Y-96726190D01*
X85333333Y-96678571D01*
X85428571Y-96630952D01*
X82892857Y-114107142D02*
X82940476Y-114154761D01*
X83083333Y-114202380D01*
X83178571Y-114202380D01*
X83321428Y-114154761D01*
X83416666Y-114059523D01*
X83464285Y-113964285D01*
X83511904Y-113773809D01*
X83511904Y-113630952D01*
X83464285Y-113440476D01*
X83416666Y-113345238D01*
X83321428Y-113250000D01*
X83178571Y-113202380D01*
X83083333Y-113202380D01*
X82940476Y-113250000D01*
X82892857Y-113297619D01*
X81940476Y-114202380D02*
X82511904Y-114202380D01*
X82226190Y-114202380D02*
X82226190Y-113202380D01*
X82321428Y-113345238D01*
X82416666Y-113440476D01*
X82511904Y-113488095D01*
X81607142Y-113202380D02*
X80940476Y-113202380D01*
X81369047Y-114202380D01*
X76607142Y-90583333D02*
X76654761Y-90535714D01*
X76702380Y-90392857D01*
X76702380Y-90297619D01*
X76654761Y-90154761D01*
X76559523Y-90059523D01*
X76464285Y-90011904D01*
X76273809Y-89964285D01*
X76130952Y-89964285D01*
X75940476Y-90011904D01*
X75845238Y-90059523D01*
X75750000Y-90154761D01*
X75702380Y-90297619D01*
X75702380Y-90392857D01*
X75750000Y-90535714D01*
X75797619Y-90583333D01*
X76702380Y-91535714D02*
X76702380Y-90964285D01*
X76702380Y-91250000D02*
X75702380Y-91250000D01*
X75845238Y-91154761D01*
X75940476Y-91059523D01*
X75988095Y-90964285D01*
X73392857Y-114107142D02*
X73440476Y-114154761D01*
X73583333Y-114202380D01*
X73678571Y-114202380D01*
X73821428Y-114154761D01*
X73916666Y-114059523D01*
X73964285Y-113964285D01*
X74011904Y-113773809D01*
X74011904Y-113630952D01*
X73964285Y-113440476D01*
X73916666Y-113345238D01*
X73821428Y-113250000D01*
X73678571Y-113202380D01*
X73583333Y-113202380D01*
X73440476Y-113250000D01*
X73392857Y-113297619D01*
X72440476Y-114202380D02*
X73011904Y-114202380D01*
X72726190Y-114202380D02*
X72726190Y-113202380D01*
X72821428Y-113345238D01*
X72916666Y-113440476D01*
X73011904Y-113488095D01*
X71535714Y-113202380D02*
X72011904Y-113202380D01*
X72059523Y-113678571D01*
X72011904Y-113630952D01*
X71916666Y-113583333D01*
X71678571Y-113583333D01*
X71583333Y-113630952D01*
X71535714Y-113678571D01*
X71488095Y-113773809D01*
X71488095Y-114011904D01*
X71535714Y-114107142D01*
X71583333Y-114154761D01*
X71678571Y-114202380D01*
X71916666Y-114202380D01*
X72011904Y-114154761D01*
X72059523Y-114107142D01*
X73392857Y-112607142D02*
X73440476Y-112654761D01*
X73583333Y-112702380D01*
X73678571Y-112702380D01*
X73821428Y-112654761D01*
X73916666Y-112559523D01*
X73964285Y-112464285D01*
X74011904Y-112273809D01*
X74011904Y-112130952D01*
X73964285Y-111940476D01*
X73916666Y-111845238D01*
X73821428Y-111750000D01*
X73678571Y-111702380D01*
X73583333Y-111702380D01*
X73440476Y-111750000D01*
X73392857Y-111797619D01*
X72440476Y-112702380D02*
X73011904Y-112702380D01*
X72726190Y-112702380D02*
X72726190Y-111702380D01*
X72821428Y-111845238D01*
X72916666Y-111940476D01*
X73011904Y-111988095D01*
X71583333Y-112035714D02*
X71583333Y-112702380D01*
X71821428Y-111654761D02*
X72059523Y-112369047D01*
X71440476Y-112369047D01*
X72107142Y-102857142D02*
X72154761Y-102809523D01*
X72202380Y-102666666D01*
X72202380Y-102571428D01*
X72154761Y-102428571D01*
X72059523Y-102333333D01*
X71964285Y-102285714D01*
X71773809Y-102238095D01*
X71630952Y-102238095D01*
X71440476Y-102285714D01*
X71345238Y-102333333D01*
X71250000Y-102428571D01*
X71202380Y-102571428D01*
X71202380Y-102666666D01*
X71250000Y-102809523D01*
X71297619Y-102857142D01*
X72202380Y-103809523D02*
X72202380Y-103238095D01*
X72202380Y-103523809D02*
X71202380Y-103523809D01*
X71345238Y-103428571D01*
X71440476Y-103333333D01*
X71488095Y-103238095D01*
X71202380Y-104428571D02*
X71202380Y-104523809D01*
X71250000Y-104619047D01*
X71297619Y-104666666D01*
X71392857Y-104714285D01*
X71583333Y-104761904D01*
X71821428Y-104761904D01*
X72011904Y-104714285D01*
X72107142Y-104666666D01*
X72154761Y-104619047D01*
X72202380Y-104523809D01*
X72202380Y-104428571D01*
X72154761Y-104333333D01*
X72107142Y-104285714D01*
X72011904Y-104238095D01*
X71821428Y-104190476D01*
X71583333Y-104190476D01*
X71392857Y-104238095D01*
X71297619Y-104285714D01*
X71250000Y-104333333D01*
X71202380Y-104428571D01*
X66607142Y-87833333D02*
X66654761Y-87785714D01*
X66702380Y-87642857D01*
X66702380Y-87547619D01*
X66654761Y-87404761D01*
X66559523Y-87309523D01*
X66464285Y-87261904D01*
X66273809Y-87214285D01*
X66130952Y-87214285D01*
X65940476Y-87261904D01*
X65845238Y-87309523D01*
X65750000Y-87404761D01*
X65702380Y-87547619D01*
X65702380Y-87642857D01*
X65750000Y-87785714D01*
X65797619Y-87833333D01*
X66702380Y-88309523D02*
X66702380Y-88500000D01*
X66654761Y-88595238D01*
X66607142Y-88642857D01*
X66464285Y-88738095D01*
X66273809Y-88785714D01*
X65892857Y-88785714D01*
X65797619Y-88738095D01*
X65750000Y-88690476D01*
X65702380Y-88595238D01*
X65702380Y-88404761D01*
X65750000Y-88309523D01*
X65797619Y-88261904D01*
X65892857Y-88214285D01*
X66130952Y-88214285D01*
X66226190Y-88261904D01*
X66273809Y-88309523D01*
X66321428Y-88404761D01*
X66321428Y-88595238D01*
X66273809Y-88690476D01*
X66226190Y-88738095D01*
X66130952Y-88785714D01*
X72607142Y-87833333D02*
X72654761Y-87785714D01*
X72702380Y-87642857D01*
X72702380Y-87547619D01*
X72654761Y-87404761D01*
X72559523Y-87309523D01*
X72464285Y-87261904D01*
X72273809Y-87214285D01*
X72130952Y-87214285D01*
X71940476Y-87261904D01*
X71845238Y-87309523D01*
X71750000Y-87404761D01*
X71702380Y-87547619D01*
X71702380Y-87642857D01*
X71750000Y-87785714D01*
X71797619Y-87833333D01*
X71702380Y-88166666D02*
X71702380Y-88833333D01*
X72702380Y-88404761D01*
X76666666Y-97607142D02*
X76714285Y-97654761D01*
X76857142Y-97702380D01*
X76952380Y-97702380D01*
X77095238Y-97654761D01*
X77190476Y-97559523D01*
X77238095Y-97464285D01*
X77285714Y-97273809D01*
X77285714Y-97130952D01*
X77238095Y-96940476D01*
X77190476Y-96845238D01*
X77095238Y-96750000D01*
X76952380Y-96702380D01*
X76857142Y-96702380D01*
X76714285Y-96750000D01*
X76666666Y-96797619D01*
X75809523Y-96702380D02*
X76000000Y-96702380D01*
X76095238Y-96750000D01*
X76142857Y-96797619D01*
X76238095Y-96940476D01*
X76285714Y-97130952D01*
X76285714Y-97511904D01*
X76238095Y-97607142D01*
X76190476Y-97654761D01*
X76095238Y-97702380D01*
X75904761Y-97702380D01*
X75809523Y-97654761D01*
X75761904Y-97607142D01*
X75714285Y-97511904D01*
X75714285Y-97273809D01*
X75761904Y-97178571D01*
X75809523Y-97130952D01*
X75904761Y-97083333D01*
X76095238Y-97083333D01*
X76190476Y-97130952D01*
X76238095Y-97178571D01*
X76285714Y-97273809D01*
X61666666Y-93607142D02*
X61714285Y-93654761D01*
X61857142Y-93702380D01*
X61952380Y-93702380D01*
X62095238Y-93654761D01*
X62190476Y-93559523D01*
X62238095Y-93464285D01*
X62285714Y-93273809D01*
X62285714Y-93130952D01*
X62238095Y-92940476D01*
X62190476Y-92845238D01*
X62095238Y-92750000D01*
X61952380Y-92702380D01*
X61857142Y-92702380D01*
X61714285Y-92750000D01*
X61666666Y-92797619D01*
X60761904Y-92702380D02*
X61238095Y-92702380D01*
X61285714Y-93178571D01*
X61238095Y-93130952D01*
X61142857Y-93083333D01*
X60904761Y-93083333D01*
X60809523Y-93130952D01*
X60761904Y-93178571D01*
X60714285Y-93273809D01*
X60714285Y-93511904D01*
X60761904Y-93607142D01*
X60809523Y-93654761D01*
X60904761Y-93702380D01*
X61142857Y-93702380D01*
X61238095Y-93654761D01*
X61285714Y-93607142D01*
X61666666Y-95607142D02*
X61714285Y-95654761D01*
X61857142Y-95702380D01*
X61952380Y-95702380D01*
X62095238Y-95654761D01*
X62190476Y-95559523D01*
X62238095Y-95464285D01*
X62285714Y-95273809D01*
X62285714Y-95130952D01*
X62238095Y-94940476D01*
X62190476Y-94845238D01*
X62095238Y-94750000D01*
X61952380Y-94702380D01*
X61857142Y-94702380D01*
X61714285Y-94750000D01*
X61666666Y-94797619D01*
X60809523Y-95035714D02*
X60809523Y-95702380D01*
X61047619Y-94654761D02*
X61285714Y-95369047D01*
X60666666Y-95369047D01*
X61666666Y-97607142D02*
X61714285Y-97654761D01*
X61857142Y-97702380D01*
X61952380Y-97702380D01*
X62095238Y-97654761D01*
X62190476Y-97559523D01*
X62238095Y-97464285D01*
X62285714Y-97273809D01*
X62285714Y-97130952D01*
X62238095Y-96940476D01*
X62190476Y-96845238D01*
X62095238Y-96750000D01*
X61952380Y-96702380D01*
X61857142Y-96702380D01*
X61714285Y-96750000D01*
X61666666Y-96797619D01*
X61333333Y-96702380D02*
X60714285Y-96702380D01*
X61047619Y-97083333D01*
X60904761Y-97083333D01*
X60809523Y-97130952D01*
X60761904Y-97178571D01*
X60714285Y-97273809D01*
X60714285Y-97511904D01*
X60761904Y-97607142D01*
X60809523Y-97654761D01*
X60904761Y-97702380D01*
X61190476Y-97702380D01*
X61285714Y-97654761D01*
X61333333Y-97607142D01*
X67107142Y-102833333D02*
X67154761Y-102785714D01*
X67202380Y-102642857D01*
X67202380Y-102547619D01*
X67154761Y-102404761D01*
X67059523Y-102309523D01*
X66964285Y-102261904D01*
X66773809Y-102214285D01*
X66630952Y-102214285D01*
X66440476Y-102261904D01*
X66345238Y-102309523D01*
X66250000Y-102404761D01*
X66202380Y-102547619D01*
X66202380Y-102642857D01*
X66250000Y-102785714D01*
X66297619Y-102833333D01*
X66297619Y-103214285D02*
X66250000Y-103261904D01*
X66202380Y-103357142D01*
X66202380Y-103595238D01*
X66250000Y-103690476D01*
X66297619Y-103738095D01*
X66392857Y-103785714D01*
X66488095Y-103785714D01*
X66630952Y-103738095D01*
X67202380Y-103166666D01*
X67202380Y-103785714D01*
M02*
