G04 #@! TF.GenerationSoftware,KiCad,Pcbnew,5.0.0-rc1-44a33f2~62~ubuntu18.04.1*
G04 #@! TF.CreationDate,2018-04-18T04:45:04+00:00*
G04 #@! TF.ProjectId,glasgow,676C6173676F772E6B696361645F7063,rev?*
G04 #@! TF.SameCoordinates,Original*
G04 #@! TF.FileFunction,Copper,L4,Bot,Signal*
G04 #@! TF.FilePolarity,Positive*
%FSLAX46Y46*%
G04 Gerber Fmt 4.6, Leading zero omitted, Abs format (unit mm)*
G04 Created by KiCad (PCBNEW 5.0.0-rc1-44a33f2~62~ubuntu18.04.1) date Wed Apr 18 04:45:04 2018*
%MOMM*%
%LPD*%
G01*
G04 APERTURE LIST*
%ADD10C,0.750000*%
%ADD11R,0.995000X1.000000*%
%ADD12R,1.000000X0.995000*%
%ADD13C,0.600000*%
%ADD14R,2.800000X2.540000*%
%ADD15R,6.100000X6.100000*%
%ADD16C,0.558800*%
%ADD17R,1.700000X1.700000*%
%ADD18O,1.700000X1.700000*%
%ADD19C,6.400000*%
%ADD20C,0.700000*%
%ADD21C,0.160000*%
%ADD22C,0.250000*%
%ADD23C,0.750000*%
%ADD24C,0.254000*%
G04 APERTURE END LIST*
D10*
X119750000Y-75000000D03*
X60250000Y-116000000D03*
D11*
X100137500Y-86750000D03*
X98362500Y-86750000D03*
D12*
X92250000Y-96887500D03*
X92250000Y-95112500D03*
X93250000Y-86887500D03*
X93250000Y-85112500D03*
X91250000Y-85112500D03*
X91250000Y-86887500D03*
D11*
X110612500Y-89000000D03*
X112387500Y-89000000D03*
X112387500Y-83000000D03*
X110612500Y-83000000D03*
X108887500Y-106750000D03*
X107112500Y-106750000D03*
X107112500Y-108500000D03*
X108887500Y-108500000D03*
X95612500Y-108000000D03*
X97387500Y-108000000D03*
X91637500Y-108000000D03*
X89862500Y-108000000D03*
D12*
X116000000Y-105637500D03*
X116000000Y-103862500D03*
X114000000Y-103862500D03*
X114000000Y-105637500D03*
D11*
X100137500Y-84250000D03*
X98362500Y-84250000D03*
X100137500Y-82500000D03*
X98362500Y-82500000D03*
D13*
X73266581Y-79156916D03*
X73266581Y-80156916D03*
X72266581Y-80156916D03*
X72266581Y-79156916D03*
D14*
X72766581Y-79656916D03*
D15*
X69000000Y-95500000D03*
D16*
X66460000Y-98040000D03*
X67730000Y-98040000D03*
X69000000Y-98040000D03*
X70270000Y-98040000D03*
X71540000Y-98040000D03*
X71540000Y-96770000D03*
X70270000Y-96770000D03*
X69000000Y-96770000D03*
X67730000Y-96770000D03*
X66460000Y-96770000D03*
X66460000Y-92960000D03*
X67730000Y-92960000D03*
X69000000Y-92960000D03*
X70270000Y-92960000D03*
X71540000Y-92960000D03*
X71540000Y-94230000D03*
X70270000Y-94230000D03*
X69000000Y-94230000D03*
X67730000Y-94230000D03*
X66460000Y-94230000D03*
X66460000Y-95500000D03*
X67730000Y-95500000D03*
X71540000Y-95500000D03*
X70270000Y-95500000D03*
X69000000Y-95500000D03*
D11*
X89612500Y-98500000D03*
X91387500Y-98500000D03*
X59787500Y-103500000D03*
X58012500Y-103500000D03*
X58012500Y-107000000D03*
X59787500Y-107000000D03*
X59787500Y-108750000D03*
X58012500Y-108750000D03*
X58012500Y-110500000D03*
X59787500Y-110500000D03*
X59787500Y-105250000D03*
X58012500Y-105250000D03*
X108887500Y-104250000D03*
X107112500Y-104250000D03*
X107112500Y-102500000D03*
X108887500Y-102500000D03*
X98362500Y-88500000D03*
X100137500Y-88500000D03*
D17*
X79750000Y-83250000D03*
D18*
X82290000Y-83250000D03*
D11*
X79362500Y-92750000D03*
X81137500Y-92750000D03*
X81137500Y-94750000D03*
X79362500Y-94750000D03*
X90637500Y-95250000D03*
X88862500Y-95250000D03*
X88862500Y-93750000D03*
X90637500Y-93750000D03*
X89612500Y-100000000D03*
X91387500Y-100000000D03*
D12*
X88000000Y-99362500D03*
X88000000Y-101137500D03*
X86500000Y-101137500D03*
X86500000Y-99362500D03*
D18*
X115430000Y-75190000D03*
X115430000Y-77730000D03*
X112890000Y-75190000D03*
X112890000Y-77730000D03*
X110350000Y-75190000D03*
X110350000Y-77730000D03*
X107810000Y-75190000D03*
X107810000Y-77730000D03*
X105270000Y-75190000D03*
X105270000Y-77730000D03*
X102730000Y-75190000D03*
X102730000Y-77730000D03*
X100190000Y-75190000D03*
X100190000Y-77730000D03*
X97650000Y-75190000D03*
X97650000Y-77730000D03*
X95110000Y-75190000D03*
X95110000Y-77730000D03*
X92570000Y-75190000D03*
D17*
X92570000Y-77730000D03*
X115430000Y-113190000D03*
D18*
X115430000Y-115730000D03*
X112890000Y-113190000D03*
X112890000Y-115730000D03*
X110350000Y-113190000D03*
X110350000Y-115730000D03*
X107810000Y-113190000D03*
X107810000Y-115730000D03*
X105270000Y-113190000D03*
X105270000Y-115730000D03*
X102730000Y-113190000D03*
X102730000Y-115730000D03*
X100190000Y-113190000D03*
X100190000Y-115730000D03*
X97650000Y-113190000D03*
X97650000Y-115730000D03*
X95110000Y-113190000D03*
X95110000Y-115730000D03*
X92570000Y-113190000D03*
X92570000Y-115730000D03*
D11*
X79887500Y-112250000D03*
X78112500Y-112250000D03*
X90637500Y-96750000D03*
X88862500Y-96750000D03*
X79887500Y-113750000D03*
X78112500Y-113750000D03*
D12*
X74750000Y-89862500D03*
X74750000Y-91637500D03*
D11*
X70387500Y-113750000D03*
X68612500Y-113750000D03*
X68612500Y-112250000D03*
X70387500Y-112250000D03*
D12*
X71750000Y-101137500D03*
X71750000Y-99362500D03*
X66250000Y-91637500D03*
X66250000Y-89862500D03*
X72250000Y-91637500D03*
X72250000Y-89862500D03*
D11*
X74637500Y-97250000D03*
X72862500Y-97250000D03*
X65137500Y-93250000D03*
X63362500Y-93250000D03*
X63362500Y-95250000D03*
X65137500Y-95250000D03*
X65137500Y-97250000D03*
X63362500Y-97250000D03*
D12*
X66750000Y-101137500D03*
X66750000Y-99362500D03*
D19*
X54000000Y-116000000D03*
X54000000Y-75000000D03*
X126000000Y-75000000D03*
X126000000Y-116000000D03*
D20*
X109749990Y-94000000D03*
X108750000Y-93000000D03*
X72250000Y-90639998D03*
X100250000Y-107250000D03*
X64500000Y-86750000D03*
X74250000Y-83000000D03*
X88750000Y-83250002D03*
X91750000Y-110500000D03*
X89000000Y-108000000D03*
X76000000Y-83000000D03*
X70500000Y-83000000D03*
X75500000Y-107999994D03*
X72250000Y-86500000D03*
X77500000Y-95250000D03*
X76250000Y-94750000D03*
X70530055Y-90500000D03*
X78000000Y-87250000D03*
X72250000Y-83000000D03*
X86750000Y-111750000D03*
X94750000Y-93000000D03*
X92000000Y-88750000D03*
X86500000Y-90250000D03*
X94750000Y-88750000D03*
X74250000Y-99750000D03*
X90860002Y-108000000D03*
X115000000Y-105750000D03*
X107000000Y-105000000D03*
X108500000Y-84750000D03*
X111610002Y-89000000D03*
X100250000Y-86000000D03*
X92250000Y-85000000D03*
X89750000Y-100750000D03*
X60500000Y-103500000D03*
X68500000Y-105750000D03*
X66500000Y-105750000D03*
X64250000Y-105750000D03*
X76250000Y-96750000D03*
X96610002Y-108000000D03*
X99250000Y-104250000D03*
X118500000Y-107750000D03*
X110964870Y-104535130D03*
X115000000Y-104000000D03*
X110500000Y-106610002D03*
X109000000Y-105000000D03*
X109000000Y-106000000D03*
X108750000Y-87000000D03*
X96750000Y-83889998D03*
X111389998Y-83000000D03*
X109750000Y-89000000D03*
X98250000Y-85000000D03*
X98250000Y-86000000D03*
X92250000Y-86750000D03*
X91500000Y-99250000D03*
X55650000Y-110500000D03*
X55650000Y-108750000D03*
X71796041Y-100360012D03*
X79500000Y-86500000D03*
X67500000Y-82750000D03*
X66250000Y-90639998D03*
X64139998Y-93250000D03*
X64139998Y-95250000D03*
X64139998Y-97250000D03*
X66750000Y-100360002D03*
X73860002Y-97250000D03*
X73750000Y-89750000D03*
X80139998Y-92750000D03*
X89860002Y-93750000D03*
X88000000Y-100360002D03*
X86500000Y-100360002D03*
X55650000Y-107000002D03*
X55650000Y-105250002D03*
X55650000Y-103500002D03*
X100500000Y-105249998D03*
X60250000Y-84250000D03*
X87894999Y-112895001D03*
X74834999Y-112895001D03*
X95750000Y-93750000D03*
X87250000Y-90750000D03*
X95750000Y-88750000D03*
X94500000Y-108000000D03*
X77500000Y-81750000D03*
X77500000Y-80250000D03*
X77500000Y-81000000D03*
X113500000Y-83000000D03*
X78330010Y-91490604D03*
X72610579Y-76000000D03*
X63500000Y-79750000D03*
X87050002Y-96750000D03*
X86250000Y-97550002D03*
X73750000Y-91750000D03*
X87050000Y-97550000D03*
X87060000Y-95500000D03*
X65750000Y-100500000D03*
X65750000Y-101830010D03*
X85000000Y-97560000D03*
X82940000Y-97560000D03*
X85000000Y-95500000D03*
X82940000Y-95500000D03*
X87060000Y-93440000D03*
X85000000Y-93440000D03*
X82940000Y-93440000D03*
X56750000Y-95500000D03*
X58000000Y-95500000D03*
X78110002Y-96750000D03*
X107000000Y-106000000D03*
X95750000Y-79750000D03*
X100250000Y-85000000D03*
X89860002Y-96750000D03*
X78000000Y-115000000D03*
X68500000Y-115000000D03*
X73750000Y-113750000D03*
X83250000Y-115000000D03*
X107000000Y-86000000D03*
X80000000Y-111000000D03*
X70500000Y-111000000D03*
X56500000Y-96750000D03*
X58750000Y-88250000D03*
X62250000Y-95750000D03*
X65000000Y-99500000D03*
X65000000Y-91500000D03*
X73000000Y-99500000D03*
X58750000Y-101212500D03*
X64750000Y-100500000D03*
X64750000Y-101830010D03*
X80139998Y-94750000D03*
X89860044Y-95250000D03*
X66750000Y-81000000D03*
X66750000Y-79500000D03*
X74500000Y-96000016D03*
X70000000Y-88500000D03*
X68750000Y-90500000D03*
X68750000Y-89000000D03*
X69542346Y-89467060D03*
X67750000Y-103000000D03*
X67500000Y-90750000D03*
X75500000Y-96000000D03*
X77750000Y-99750000D03*
X67750000Y-89750000D03*
X85750000Y-114000000D03*
X71250000Y-85750000D03*
X71250000Y-88500000D03*
X84178928Y-90750000D03*
X82000000Y-90750000D03*
X77000000Y-92500000D03*
X85750000Y-87750000D03*
X85749993Y-91000007D03*
X58750000Y-105250000D03*
X58750000Y-110500000D03*
X58750000Y-108750000D03*
X58750000Y-107000000D03*
X58750000Y-103500000D03*
X97999974Y-92750000D03*
X97500000Y-102750000D03*
X94000000Y-94500000D03*
X96750000Y-88749992D03*
X96750000Y-94500000D03*
X108500000Y-82889998D03*
X88500000Y-88500000D03*
X114500000Y-83000000D03*
X93500000Y-108000000D03*
D21*
X108750000Y-93000000D02*
X109749990Y-93999990D01*
X109749990Y-93999990D02*
X109749990Y-94000000D01*
X108750000Y-93250000D02*
X108750000Y-93000000D01*
X86750000Y-103250000D02*
X87250000Y-102750000D01*
X86750000Y-111750000D02*
X86750000Y-103250000D01*
X94750000Y-99500000D02*
X94750000Y-93000000D01*
X87250000Y-102750000D02*
X91500000Y-102750000D01*
X91500000Y-102750000D02*
X94750000Y-99500000D01*
D22*
X72250000Y-90639998D02*
X72250000Y-89862500D01*
X72250000Y-91637500D02*
X72250000Y-92250000D01*
X72250000Y-92250000D02*
X71540000Y-92960000D01*
X89862500Y-108000000D02*
X89000000Y-108000000D01*
D21*
X87894999Y-103605001D02*
X88250000Y-103250000D01*
X87894999Y-112895001D02*
X87894999Y-103605001D01*
X91750000Y-103250000D02*
X95750000Y-99250000D01*
X88250000Y-103250000D02*
X91750000Y-103250000D01*
X95750000Y-99250000D02*
X95750000Y-93750000D01*
X74834999Y-112895001D02*
X75500000Y-112230000D01*
X75500000Y-112230000D02*
X75500000Y-108494968D01*
X75500000Y-108494968D02*
X75500000Y-107999994D01*
D23*
X113500000Y-85362500D02*
X113500000Y-93545000D01*
X112387500Y-81500000D02*
X111887500Y-81000000D01*
X112387500Y-83000000D02*
X112387500Y-81500000D01*
X111887500Y-81000000D02*
X77994974Y-81000000D01*
X77994974Y-81000000D02*
X77500000Y-81000000D01*
X100079999Y-106124999D02*
X99955000Y-106000000D01*
X113500000Y-93545000D02*
X100920001Y-106124999D01*
X99955000Y-106000000D02*
X96500000Y-106000000D01*
X100920001Y-106124999D02*
X100079999Y-106124999D01*
X112387500Y-83000000D02*
X112387500Y-84250000D01*
X112387500Y-84250000D02*
X113500000Y-85362500D01*
D21*
X74250000Y-86500000D02*
X72744974Y-86500000D01*
X72744974Y-86500000D02*
X72250000Y-86500000D01*
X78330010Y-90580010D02*
X74250000Y-86500000D01*
X78330010Y-91490604D02*
X78330010Y-90580010D01*
X76250000Y-94750000D02*
X77000000Y-94750000D01*
X77000000Y-94750000D02*
X77500000Y-95250000D01*
X78110002Y-96750000D02*
X78110002Y-92968406D01*
X78110002Y-92968406D02*
X77750000Y-92608404D01*
X76129003Y-89080001D02*
X77750000Y-90700998D01*
X71205202Y-89080001D02*
X76129003Y-89080001D01*
X77750000Y-90700998D02*
X77750000Y-92608404D01*
X70530055Y-89755148D02*
X71205202Y-89080001D01*
X70530055Y-90500000D02*
X70530055Y-89755148D01*
X94750000Y-88750000D02*
X94750000Y-93000000D01*
X87000000Y-89750000D02*
X91000000Y-89750000D01*
X86500000Y-90250000D02*
X87000000Y-89750000D01*
X91000000Y-89750000D02*
X92000000Y-88750000D01*
D22*
X107112500Y-102500000D02*
X107112500Y-104250000D01*
X91637500Y-108000000D02*
X90860002Y-108000000D01*
X115000000Y-105750000D02*
X114112500Y-105750000D01*
X114112500Y-105750000D02*
X114000000Y-105637500D01*
X115000000Y-105750000D02*
X115887500Y-105750000D01*
X115887500Y-105750000D02*
X116000000Y-105637500D01*
X107112500Y-104887500D02*
X107000000Y-105000000D01*
X107112500Y-104250000D02*
X107112500Y-104887500D01*
X111610002Y-89000000D02*
X112387500Y-89000000D01*
X100250000Y-86000000D02*
X100250000Y-86637500D01*
X100250000Y-86637500D02*
X100137500Y-86750000D01*
X100137500Y-88500000D02*
X100137500Y-86750000D01*
X92250000Y-85000000D02*
X91362500Y-85000000D01*
X91362500Y-85000000D02*
X91250000Y-85112500D01*
X92250000Y-85000000D02*
X93137500Y-85000000D01*
X93137500Y-85000000D02*
X93250000Y-85112500D01*
X89612500Y-100612500D02*
X89750000Y-100750000D01*
X89612500Y-100000000D02*
X89612500Y-100612500D01*
X59787500Y-103500000D02*
X60500000Y-103500000D01*
X97387500Y-108000000D02*
X96610002Y-108000000D01*
X116000000Y-103862500D02*
X115137500Y-103862500D01*
X115137500Y-103862500D02*
X115000000Y-104000000D01*
X114862500Y-103862500D02*
X115000000Y-104000000D01*
X114000000Y-103862500D02*
X114862500Y-103862500D01*
X108887500Y-106750000D02*
X108887500Y-108500000D01*
X108887500Y-104887500D02*
X109000000Y-105000000D01*
X108887500Y-104250000D02*
X108887500Y-104887500D01*
X108887500Y-106112500D02*
X109000000Y-106000000D01*
X108887500Y-106750000D02*
X108887500Y-106112500D01*
X108887500Y-102500000D02*
X108887500Y-104250000D01*
X71750000Y-92750000D02*
X71540000Y-92960000D01*
X110612500Y-83000000D02*
X111389998Y-83000000D01*
X110612500Y-89000000D02*
X109750000Y-89000000D01*
X98362500Y-84887500D02*
X98250000Y-85000000D01*
X98362500Y-84250000D02*
X98362500Y-84887500D01*
X98362500Y-86112500D02*
X98250000Y-86000000D01*
X98362500Y-86750000D02*
X98362500Y-86112500D01*
X98362500Y-88500000D02*
X98362500Y-86750000D01*
X98362500Y-82500000D02*
X98362500Y-84250000D01*
X92250000Y-86750000D02*
X91387500Y-86750000D01*
X91387500Y-86750000D02*
X91250000Y-86887500D01*
X92250000Y-86750000D02*
X93112500Y-86750000D01*
X93112500Y-86750000D02*
X93250000Y-86887500D01*
X66250000Y-91637500D02*
X66250000Y-92500000D01*
X65137500Y-93250000D02*
X66000000Y-93250000D01*
X65137500Y-95250000D02*
X66000000Y-95250000D01*
X65137500Y-97250000D02*
X66000000Y-97250000D01*
X66750000Y-99362500D02*
X66750000Y-98500000D01*
X71750000Y-99362500D02*
X71750000Y-98500000D01*
X72862500Y-97250000D02*
X72000000Y-97250000D01*
X91387500Y-100000000D02*
X91387500Y-99362500D01*
X91387500Y-99362500D02*
X91500000Y-99250000D01*
X91387500Y-99137500D02*
X91500000Y-99250000D01*
X91387500Y-98500000D02*
X91387500Y-99137500D01*
X71750000Y-100390000D02*
X71779988Y-100360012D01*
X71750000Y-101137500D02*
X71750000Y-100390000D01*
X71779988Y-100360012D02*
X71796041Y-100360012D01*
X66250000Y-90639998D02*
X66250000Y-89862500D01*
X64139998Y-93250000D02*
X63362500Y-93250000D01*
X64139998Y-95250000D02*
X63362500Y-95250000D01*
X64139998Y-97250000D02*
X63362500Y-97250000D01*
X66750000Y-100360002D02*
X66750000Y-101137500D01*
X73860002Y-97250000D02*
X74637500Y-97250000D01*
X73862500Y-89862500D02*
X73750000Y-89750000D01*
X74750000Y-89862500D02*
X73862500Y-89862500D01*
X80139998Y-92750000D02*
X79362500Y-92750000D01*
X89860002Y-93750000D02*
X90637500Y-93750000D01*
X88000000Y-100360002D02*
X88000000Y-101137500D01*
X86500000Y-100360002D02*
X86500000Y-101137500D01*
X81137500Y-94750000D02*
X82190000Y-94750000D01*
X82190000Y-94750000D02*
X82940000Y-95500000D01*
D21*
X95750000Y-88750000D02*
X95750000Y-93750000D01*
X87750000Y-90250000D02*
X91750000Y-90250000D01*
X95169999Y-88169999D02*
X95400001Y-88400001D01*
X95400001Y-88400001D02*
X95750000Y-88750000D01*
X87250000Y-90750000D02*
X87750000Y-90250000D01*
X91750000Y-90250000D02*
X93830001Y-88169999D01*
X93830001Y-88169999D02*
X95169999Y-88169999D01*
D23*
X95612500Y-108000000D02*
X94500000Y-108000000D01*
X96362500Y-106000000D02*
X95612500Y-106750000D01*
X95612500Y-106750000D02*
X95612500Y-108000000D01*
X77500000Y-81000000D02*
X77500000Y-81750000D01*
X77500000Y-81000000D02*
X77500000Y-80250000D01*
X112387500Y-83000000D02*
X113500000Y-83000000D01*
D22*
X88862500Y-96750000D02*
X87050000Y-96750000D01*
X87050000Y-96750000D02*
X87050002Y-96750000D01*
X86500000Y-99362500D02*
X86500000Y-97800002D01*
X86500000Y-97800002D02*
X86250000Y-97550002D01*
X88000000Y-99112500D02*
X88000000Y-98500000D01*
X87997500Y-99112500D02*
X88000000Y-99112500D01*
X88000000Y-98500000D02*
X87050000Y-97550000D01*
X81137500Y-92750000D02*
X82250000Y-92750000D01*
X82250000Y-92750000D02*
X82940000Y-93440000D01*
X88000000Y-93750000D02*
X87690000Y-93440000D01*
X88862500Y-93750000D02*
X88000000Y-93750000D01*
X87690000Y-93440000D02*
X87060000Y-93440000D01*
X87900000Y-95250000D02*
X87650000Y-95500000D01*
X87650000Y-95500000D02*
X87060000Y-95500000D01*
X88862500Y-95250000D02*
X87900000Y-95250000D01*
X73862500Y-91637500D02*
X73750000Y-91750000D01*
X74750000Y-91637500D02*
X73862500Y-91637500D01*
D21*
X65750000Y-100500000D02*
X65750000Y-101830010D01*
X56750000Y-95500000D02*
X58000000Y-95500000D01*
D22*
X91637500Y-96887500D02*
X91500000Y-96750000D01*
X91500000Y-96750000D02*
X90637500Y-96750000D01*
X92250000Y-96887500D02*
X91637500Y-96887500D01*
X89500000Y-97604976D02*
X89500000Y-98137500D01*
X89500000Y-98137500D02*
X89612500Y-98250000D01*
X89860002Y-96750000D02*
X89860002Y-97244974D01*
X89860002Y-97244974D02*
X89500000Y-97604976D01*
X91637500Y-95112500D02*
X91500000Y-95250000D01*
X91500000Y-95250000D02*
X90637500Y-95250000D01*
X92250000Y-95112500D02*
X91637500Y-95112500D01*
D21*
X97500000Y-89500000D02*
X98000000Y-90000000D01*
X97500000Y-88641590D02*
X97500000Y-89500000D01*
X96718399Y-87859989D02*
X97500000Y-88641590D01*
X98000000Y-90000000D02*
X107000000Y-90000000D01*
X91890011Y-87859989D02*
X96718399Y-87859989D01*
X91250000Y-88500000D02*
X91890011Y-87859989D01*
X88500000Y-88500000D02*
X91250000Y-88500000D01*
X107000000Y-90000000D02*
X107750000Y-89250000D01*
X107750000Y-89250000D02*
X107750000Y-83639998D01*
X107750000Y-83639998D02*
X108500000Y-82889998D01*
D23*
X107250000Y-111000000D02*
X117000000Y-111000000D01*
X94500000Y-111000000D02*
X107250000Y-111000000D01*
D22*
X107250000Y-111000000D02*
X107112500Y-110862500D01*
X107112500Y-110862500D02*
X107112500Y-108500000D01*
X107112500Y-106750000D02*
X107112500Y-108500000D01*
X107112500Y-106112500D02*
X107000000Y-106000000D01*
X107112500Y-106750000D02*
X107112500Y-106112500D01*
D23*
X95750000Y-79750000D02*
X91000000Y-79750000D01*
X113000000Y-79750000D02*
X95750000Y-79750000D01*
D22*
X100137500Y-82500000D02*
X100137500Y-84250000D01*
X100250000Y-85000000D02*
X100250000Y-84362500D01*
X100250000Y-84362500D02*
X100137500Y-84250000D01*
X89860002Y-96750000D02*
X90637500Y-96750000D01*
X78112500Y-113750000D02*
X78112500Y-112250000D01*
X78037500Y-114962500D02*
X78000000Y-115000000D01*
X78037500Y-113750000D02*
X78037500Y-114962500D01*
X68537500Y-114962500D02*
X68500000Y-115000000D01*
X68537500Y-113750000D02*
X68537500Y-114962500D01*
X68537500Y-113750000D02*
X68537500Y-112250000D01*
X79887500Y-113750000D02*
X79887500Y-112250000D01*
X79962500Y-111037500D02*
X80000000Y-111000000D01*
X79962500Y-112250000D02*
X79962500Y-111037500D01*
X70462500Y-111037500D02*
X70500000Y-111000000D01*
X70462500Y-112250000D02*
X70462500Y-111037500D01*
X70462500Y-113750000D02*
X70462500Y-112250000D01*
D21*
X64750000Y-100500000D02*
X64750000Y-101830010D01*
D22*
X80139998Y-94750000D02*
X79362500Y-94750000D01*
X90637500Y-95250000D02*
X89860044Y-95250000D01*
D21*
X66750000Y-79500000D02*
X66750000Y-81000000D01*
X74500000Y-95000000D02*
X74500000Y-95505042D01*
X77000000Y-92500000D02*
X74500000Y-95000000D01*
X74500000Y-95505042D02*
X74500000Y-96000016D01*
X61080001Y-103221599D02*
X61069967Y-103211565D01*
X60119944Y-92187951D02*
X64857950Y-87449945D01*
X61069967Y-97620473D02*
X60119944Y-96670451D01*
X69500000Y-88000000D02*
X70000000Y-88500000D01*
X59787500Y-105250000D02*
X59787500Y-105247500D01*
X59787500Y-105247500D02*
X61080001Y-103954999D01*
X61080001Y-103954999D02*
X61080001Y-103221599D01*
X61069967Y-103211565D02*
X61069967Y-97620473D01*
X60119944Y-96670451D02*
X60119944Y-92187951D01*
X64857950Y-87449945D02*
X68949945Y-87449945D01*
X68949945Y-87449945D02*
X69500000Y-88000000D01*
X61049977Y-92573181D02*
X65243180Y-88379978D01*
X68089985Y-89231583D02*
X68750000Y-89891598D01*
X61049977Y-96285221D02*
X61049977Y-92573181D01*
X68089985Y-88942513D02*
X68089985Y-89231583D01*
X62010034Y-108274966D02*
X62010034Y-97245278D01*
X67527450Y-88379978D02*
X68089985Y-88942513D01*
X59787500Y-110500000D02*
X59787500Y-110497500D01*
X62010034Y-97245278D02*
X61049977Y-96285221D01*
X68750000Y-89891598D02*
X68750000Y-90005026D01*
X59787500Y-110497500D02*
X62010034Y-108274966D01*
X68750000Y-90005026D02*
X68750000Y-90500000D01*
X65243180Y-88379978D02*
X67527450Y-88379978D01*
X61689989Y-106845011D02*
X61689989Y-104221853D01*
X59787500Y-108750000D02*
X59787500Y-108747500D01*
X61700023Y-104211819D02*
X61700023Y-97373688D01*
X60739966Y-96413631D02*
X60739966Y-92444771D01*
X59787500Y-108747500D02*
X61689989Y-106845011D01*
X61689989Y-104221853D02*
X61700023Y-104211819D01*
X67819967Y-88069967D02*
X68400001Y-88650001D01*
X61700023Y-97373688D02*
X60739966Y-96413631D01*
X68400001Y-88650001D02*
X68750000Y-89000000D01*
X65114770Y-88069967D02*
X67819967Y-88069967D01*
X60739966Y-92444771D02*
X65114770Y-88069967D01*
X61379978Y-104093443D02*
X61390012Y-104083409D01*
X61390012Y-104083409D02*
X61390012Y-97502098D01*
X61390012Y-97502098D02*
X60429955Y-96542041D01*
X69542346Y-88972086D02*
X69542346Y-89467060D01*
X68330216Y-87759956D02*
X69542346Y-88972086D01*
X59787500Y-106997500D02*
X61379978Y-105405022D01*
X59787500Y-107000000D02*
X59787500Y-106997500D01*
X61379978Y-105405022D02*
X61379978Y-104093443D01*
X60429955Y-96542041D02*
X60429955Y-92316361D01*
X60429955Y-92316361D02*
X64986360Y-87759956D01*
X64986360Y-87759956D02*
X68330216Y-87759956D01*
X67255026Y-103000000D02*
X67750000Y-103000000D01*
X65500000Y-89000000D02*
X61669999Y-92830001D01*
X61669999Y-92830001D02*
X61669999Y-96028401D01*
X62634999Y-96993401D02*
X62634999Y-102384999D01*
X61669999Y-96028401D02*
X62634999Y-96993401D01*
X67150001Y-89290022D02*
X66859979Y-89000000D01*
X67150001Y-90400001D02*
X67150001Y-89290022D01*
X67500000Y-90750000D02*
X67150001Y-90400001D01*
X63250000Y-103000000D02*
X67255026Y-103000000D01*
X62634999Y-102384999D02*
X63250000Y-103000000D01*
X66859979Y-89000000D02*
X65500000Y-89000000D01*
X77750000Y-99750000D02*
X75500000Y-97500000D01*
X75500000Y-96000000D02*
X75500000Y-97500000D01*
X80250000Y-102250000D02*
X91250000Y-102250000D01*
X77750000Y-99750000D02*
X80250000Y-102250000D01*
X91250000Y-102250000D02*
X94000000Y-99500000D01*
X94000000Y-99500000D02*
X94000000Y-94500000D01*
X61359988Y-96156811D02*
X62320045Y-97116868D01*
X65371590Y-88689989D02*
X61359988Y-92701591D01*
X67184963Y-88689989D02*
X65371590Y-88689989D01*
X67750000Y-89750000D02*
X67750000Y-89255026D01*
X62320045Y-97116868D02*
X62320045Y-106570045D01*
X61359988Y-92701591D02*
X61359988Y-96156811D01*
X67750000Y-89255026D02*
X67184963Y-88689989D01*
X62320045Y-106570045D02*
X63000000Y-107250000D01*
X63000000Y-107250000D02*
X79000000Y-107250000D01*
X79000000Y-107250000D02*
X85400001Y-113650001D01*
X85400001Y-113650001D02*
X85750000Y-114000000D01*
X71250000Y-88500000D02*
X71250000Y-85750000D01*
D23*
X90250000Y-79000000D02*
X90250000Y-76297919D01*
X91000000Y-79750000D02*
X90250000Y-79000000D01*
X114500000Y-83000000D02*
X114500000Y-81250000D01*
X90250000Y-76297919D02*
X91047919Y-75500000D01*
X91047919Y-75500000D02*
X92250000Y-75500000D01*
X114500000Y-81250000D02*
X113000000Y-79750000D01*
D21*
X82000000Y-90750000D02*
X84178928Y-90750000D01*
X82500000Y-90750000D02*
X84178928Y-90750000D01*
X85749993Y-87750007D02*
X85750000Y-87750000D01*
X85749993Y-91000007D02*
X85749993Y-87750007D01*
X58750000Y-105250000D02*
X58012500Y-105250000D01*
X58750000Y-110500000D02*
X58012500Y-110500000D01*
X58750000Y-108750000D02*
X58012500Y-108750000D01*
X58750000Y-107000000D02*
X58012500Y-107000000D01*
X58750000Y-103500000D02*
X58012500Y-103500000D01*
X97999974Y-93244974D02*
X97999974Y-92750000D01*
X97999974Y-102250026D02*
X97999974Y-93244974D01*
X97500000Y-102750000D02*
X97999974Y-102250026D01*
X96750000Y-88749992D02*
X96750000Y-94500000D01*
D23*
X117750000Y-114750000D02*
X117000000Y-115500000D01*
X117750000Y-111750000D02*
X117750000Y-114750000D01*
X117000000Y-111000000D02*
X117750000Y-111750000D01*
X93500000Y-108250000D02*
X93500000Y-110000000D01*
X93500000Y-110000000D02*
X94500000Y-111000000D01*
X117000000Y-115500000D02*
X115430000Y-115500000D01*
D24*
G36*
X76873000Y-80060106D02*
X76848000Y-80185786D01*
X76848000Y-80935786D01*
X76835227Y-81000000D01*
X76848000Y-81064213D01*
X76848000Y-81814214D01*
X76873000Y-81939894D01*
X76873000Y-84623000D01*
X68627000Y-84623000D01*
X68627000Y-82875282D01*
X71623000Y-82875282D01*
X71623000Y-83124718D01*
X71718455Y-83355167D01*
X71894833Y-83531545D01*
X72125282Y-83627000D01*
X72374718Y-83627000D01*
X72605167Y-83531545D01*
X72781545Y-83355167D01*
X72877000Y-83124718D01*
X72877000Y-82875282D01*
X73623000Y-82875282D01*
X73623000Y-83124718D01*
X73718455Y-83355167D01*
X73894833Y-83531545D01*
X74125282Y-83627000D01*
X74374718Y-83627000D01*
X74605167Y-83531545D01*
X74781545Y-83355167D01*
X74877000Y-83124718D01*
X74877000Y-82875282D01*
X74781545Y-82644833D01*
X74605167Y-82468455D01*
X74374718Y-82373000D01*
X74125282Y-82373000D01*
X73894833Y-82468455D01*
X73718455Y-82644833D01*
X73623000Y-82875282D01*
X72877000Y-82875282D01*
X72781545Y-82644833D01*
X72605167Y-82468455D01*
X72374718Y-82373000D01*
X72125282Y-82373000D01*
X71894833Y-82468455D01*
X71718455Y-82644833D01*
X71623000Y-82875282D01*
X68627000Y-82875282D01*
X68627000Y-75127000D01*
X76873000Y-75127000D01*
X76873000Y-80060106D01*
X76873000Y-80060106D01*
G37*
X76873000Y-80060106D02*
X76848000Y-80185786D01*
X76848000Y-80935786D01*
X76835227Y-81000000D01*
X76848000Y-81064213D01*
X76848000Y-81814214D01*
X76873000Y-81939894D01*
X76873000Y-84623000D01*
X68627000Y-84623000D01*
X68627000Y-82875282D01*
X71623000Y-82875282D01*
X71623000Y-83124718D01*
X71718455Y-83355167D01*
X71894833Y-83531545D01*
X72125282Y-83627000D01*
X72374718Y-83627000D01*
X72605167Y-83531545D01*
X72781545Y-83355167D01*
X72877000Y-83124718D01*
X72877000Y-82875282D01*
X73623000Y-82875282D01*
X73623000Y-83124718D01*
X73718455Y-83355167D01*
X73894833Y-83531545D01*
X74125282Y-83627000D01*
X74374718Y-83627000D01*
X74605167Y-83531545D01*
X74781545Y-83355167D01*
X74877000Y-83124718D01*
X74877000Y-82875282D01*
X74781545Y-82644833D01*
X74605167Y-82468455D01*
X74374718Y-82373000D01*
X74125282Y-82373000D01*
X73894833Y-82468455D01*
X73718455Y-82644833D01*
X73623000Y-82875282D01*
X72877000Y-82875282D01*
X72781545Y-82644833D01*
X72605167Y-82468455D01*
X72374718Y-82373000D01*
X72125282Y-82373000D01*
X71894833Y-82468455D01*
X71718455Y-82644833D01*
X71623000Y-82875282D01*
X68627000Y-82875282D01*
X68627000Y-75127000D01*
X76873000Y-75127000D01*
X76873000Y-80060106D01*
M02*
