G04 #@! TF.GenerationSoftware,KiCad,Pcbnew,5.0.0-rc1-44a33f2~62~ubuntu18.04.1*
G04 #@! TF.CreationDate,2018-04-18T04:45:04+00:00*
G04 #@! TF.ProjectId,glasgow,676C6173676F772E6B696361645F7063,rev?*
G04 #@! TF.SameCoordinates,Original*
G04 #@! TF.FileFunction,Soldermask,Bot*
G04 #@! TF.FilePolarity,Negative*
%FSLAX46Y46*%
G04 Gerber Fmt 4.6, Leading zero omitted, Abs format (unit mm)*
G04 Created by KiCad (PCBNEW 5.0.0-rc1-44a33f2~62~ubuntu18.04.1) date Wed Apr 18 04:45:04 2018*
%MOMM*%
%LPD*%
G01*
G04 APERTURE LIST*
%ADD10C,0.100000*%
G04 APERTURE END LIST*
D10*
G36*
X126933402Y-112922974D02*
X126933404Y-112922975D01*
X126933405Y-112922975D01*
X127175783Y-113023371D01*
X127515770Y-113164198D01*
X128039880Y-113514397D01*
X128485603Y-113960120D01*
X128835802Y-114484230D01*
X129077026Y-115066598D01*
X129200000Y-115684825D01*
X129200000Y-116315175D01*
X129077026Y-116933402D01*
X128835802Y-117515770D01*
X128485603Y-118039880D01*
X128039880Y-118485603D01*
X127515770Y-118835802D01*
X127515769Y-118835803D01*
X127515768Y-118835803D01*
X126933405Y-119077025D01*
X126933404Y-119077025D01*
X126933402Y-119077026D01*
X126315175Y-119200000D01*
X125684825Y-119200000D01*
X125066598Y-119077026D01*
X125066596Y-119077025D01*
X125066595Y-119077025D01*
X124484232Y-118835803D01*
X124484231Y-118835803D01*
X124484230Y-118835802D01*
X123960120Y-118485603D01*
X123514397Y-118039880D01*
X123164198Y-117515770D01*
X122922974Y-116933402D01*
X122800000Y-116315175D01*
X122800000Y-115684825D01*
X122922974Y-115066598D01*
X123164198Y-114484230D01*
X123514397Y-113960120D01*
X123960120Y-113514397D01*
X124484230Y-113164198D01*
X124824217Y-113023371D01*
X125066595Y-112922975D01*
X125066596Y-112922975D01*
X125066598Y-112922974D01*
X125684825Y-112800000D01*
X126315175Y-112800000D01*
X126933402Y-112922974D01*
X126933402Y-112922974D01*
G37*
G36*
X54933402Y-112922974D02*
X54933404Y-112922975D01*
X54933405Y-112922975D01*
X55175783Y-113023371D01*
X55515770Y-113164198D01*
X56039880Y-113514397D01*
X56485603Y-113960120D01*
X56835802Y-114484230D01*
X57077026Y-115066598D01*
X57200000Y-115684825D01*
X57200000Y-116315175D01*
X57077026Y-116933402D01*
X56835802Y-117515770D01*
X56485603Y-118039880D01*
X56039880Y-118485603D01*
X55515770Y-118835802D01*
X55515769Y-118835803D01*
X55515768Y-118835803D01*
X54933405Y-119077025D01*
X54933404Y-119077025D01*
X54933402Y-119077026D01*
X54315175Y-119200000D01*
X53684825Y-119200000D01*
X53066598Y-119077026D01*
X53066596Y-119077025D01*
X53066595Y-119077025D01*
X52484232Y-118835803D01*
X52484231Y-118835803D01*
X52484230Y-118835802D01*
X51960120Y-118485603D01*
X51514397Y-118039880D01*
X51164198Y-117515770D01*
X50922974Y-116933402D01*
X50800000Y-116315175D01*
X50800000Y-115684825D01*
X50922974Y-115066598D01*
X51164198Y-114484230D01*
X51514397Y-113960120D01*
X51960120Y-113514397D01*
X52484230Y-113164198D01*
X52824217Y-113023371D01*
X53066595Y-112922975D01*
X53066596Y-112922975D01*
X53066598Y-112922974D01*
X53684825Y-112800000D01*
X54315175Y-112800000D01*
X54933402Y-112922974D01*
X54933402Y-112922974D01*
G37*
G36*
X60468763Y-115278821D02*
X60468764Y-115278821D01*
X60468767Y-115278822D01*
X60605258Y-115335359D01*
X60605260Y-115335360D01*
X60728096Y-115417436D01*
X60832563Y-115521903D01*
X60914641Y-115644742D01*
X60971178Y-115781233D01*
X61000000Y-115926131D01*
X61000000Y-116073869D01*
X60971178Y-116218767D01*
X60931245Y-116315172D01*
X60914640Y-116355260D01*
X60832564Y-116478096D01*
X60728096Y-116582564D01*
X60605260Y-116664640D01*
X60605259Y-116664641D01*
X60605258Y-116664641D01*
X60468767Y-116721178D01*
X60468764Y-116721179D01*
X60468763Y-116721179D01*
X60323871Y-116750000D01*
X60176129Y-116750000D01*
X60031237Y-116721179D01*
X60031236Y-116721179D01*
X60031233Y-116721178D01*
X59894742Y-116664641D01*
X59894741Y-116664641D01*
X59894740Y-116664640D01*
X59771904Y-116582564D01*
X59667436Y-116478096D01*
X59585360Y-116355260D01*
X59568755Y-116315172D01*
X59528822Y-116218767D01*
X59500000Y-116073869D01*
X59500000Y-115926131D01*
X59528822Y-115781233D01*
X59585359Y-115644742D01*
X59667437Y-115521903D01*
X59771904Y-115417436D01*
X59894740Y-115335360D01*
X59894742Y-115335359D01*
X60031233Y-115278822D01*
X60031236Y-115278821D01*
X60031237Y-115278821D01*
X60176129Y-115250000D01*
X60323871Y-115250000D01*
X60468763Y-115278821D01*
X60468763Y-115278821D01*
G37*
G36*
X105436629Y-114892299D02*
X105596855Y-114940903D01*
X105744519Y-115019830D01*
X105873948Y-115126052D01*
X105980170Y-115255481D01*
X106059097Y-115403145D01*
X106107701Y-115563371D01*
X106124113Y-115730000D01*
X106107701Y-115896629D01*
X106059097Y-116056855D01*
X105980170Y-116204519D01*
X105873948Y-116333948D01*
X105744519Y-116440170D01*
X105596855Y-116519097D01*
X105436629Y-116567701D01*
X105311756Y-116580000D01*
X105228244Y-116580000D01*
X105103371Y-116567701D01*
X104943145Y-116519097D01*
X104795481Y-116440170D01*
X104666052Y-116333948D01*
X104559830Y-116204519D01*
X104480903Y-116056855D01*
X104432299Y-115896629D01*
X104415887Y-115730000D01*
X104432299Y-115563371D01*
X104480903Y-115403145D01*
X104559830Y-115255481D01*
X104666052Y-115126052D01*
X104795481Y-115019830D01*
X104943145Y-114940903D01*
X105103371Y-114892299D01*
X105228244Y-114880000D01*
X105311756Y-114880000D01*
X105436629Y-114892299D01*
X105436629Y-114892299D01*
G37*
G36*
X115596629Y-114892299D02*
X115756855Y-114940903D01*
X115904519Y-115019830D01*
X116033948Y-115126052D01*
X116140170Y-115255481D01*
X116219097Y-115403145D01*
X116267701Y-115563371D01*
X116284113Y-115730000D01*
X116267701Y-115896629D01*
X116219097Y-116056855D01*
X116140170Y-116204519D01*
X116033948Y-116333948D01*
X115904519Y-116440170D01*
X115756855Y-116519097D01*
X115596629Y-116567701D01*
X115471756Y-116580000D01*
X115388244Y-116580000D01*
X115263371Y-116567701D01*
X115103145Y-116519097D01*
X114955481Y-116440170D01*
X114826052Y-116333948D01*
X114719830Y-116204519D01*
X114640903Y-116056855D01*
X114592299Y-115896629D01*
X114575887Y-115730000D01*
X114592299Y-115563371D01*
X114640903Y-115403145D01*
X114719830Y-115255481D01*
X114826052Y-115126052D01*
X114955481Y-115019830D01*
X115103145Y-114940903D01*
X115263371Y-114892299D01*
X115388244Y-114880000D01*
X115471756Y-114880000D01*
X115596629Y-114892299D01*
X115596629Y-114892299D01*
G37*
G36*
X107976629Y-114892299D02*
X108136855Y-114940903D01*
X108284519Y-115019830D01*
X108413948Y-115126052D01*
X108520170Y-115255481D01*
X108599097Y-115403145D01*
X108647701Y-115563371D01*
X108664113Y-115730000D01*
X108647701Y-115896629D01*
X108599097Y-116056855D01*
X108520170Y-116204519D01*
X108413948Y-116333948D01*
X108284519Y-116440170D01*
X108136855Y-116519097D01*
X107976629Y-116567701D01*
X107851756Y-116580000D01*
X107768244Y-116580000D01*
X107643371Y-116567701D01*
X107483145Y-116519097D01*
X107335481Y-116440170D01*
X107206052Y-116333948D01*
X107099830Y-116204519D01*
X107020903Y-116056855D01*
X106972299Y-115896629D01*
X106955887Y-115730000D01*
X106972299Y-115563371D01*
X107020903Y-115403145D01*
X107099830Y-115255481D01*
X107206052Y-115126052D01*
X107335481Y-115019830D01*
X107483145Y-114940903D01*
X107643371Y-114892299D01*
X107768244Y-114880000D01*
X107851756Y-114880000D01*
X107976629Y-114892299D01*
X107976629Y-114892299D01*
G37*
G36*
X102896629Y-114892299D02*
X103056855Y-114940903D01*
X103204519Y-115019830D01*
X103333948Y-115126052D01*
X103440170Y-115255481D01*
X103519097Y-115403145D01*
X103567701Y-115563371D01*
X103584113Y-115730000D01*
X103567701Y-115896629D01*
X103519097Y-116056855D01*
X103440170Y-116204519D01*
X103333948Y-116333948D01*
X103204519Y-116440170D01*
X103056855Y-116519097D01*
X102896629Y-116567701D01*
X102771756Y-116580000D01*
X102688244Y-116580000D01*
X102563371Y-116567701D01*
X102403145Y-116519097D01*
X102255481Y-116440170D01*
X102126052Y-116333948D01*
X102019830Y-116204519D01*
X101940903Y-116056855D01*
X101892299Y-115896629D01*
X101875887Y-115730000D01*
X101892299Y-115563371D01*
X101940903Y-115403145D01*
X102019830Y-115255481D01*
X102126052Y-115126052D01*
X102255481Y-115019830D01*
X102403145Y-114940903D01*
X102563371Y-114892299D01*
X102688244Y-114880000D01*
X102771756Y-114880000D01*
X102896629Y-114892299D01*
X102896629Y-114892299D01*
G37*
G36*
X100356629Y-114892299D02*
X100516855Y-114940903D01*
X100664519Y-115019830D01*
X100793948Y-115126052D01*
X100900170Y-115255481D01*
X100979097Y-115403145D01*
X101027701Y-115563371D01*
X101044113Y-115730000D01*
X101027701Y-115896629D01*
X100979097Y-116056855D01*
X100900170Y-116204519D01*
X100793948Y-116333948D01*
X100664519Y-116440170D01*
X100516855Y-116519097D01*
X100356629Y-116567701D01*
X100231756Y-116580000D01*
X100148244Y-116580000D01*
X100023371Y-116567701D01*
X99863145Y-116519097D01*
X99715481Y-116440170D01*
X99586052Y-116333948D01*
X99479830Y-116204519D01*
X99400903Y-116056855D01*
X99352299Y-115896629D01*
X99335887Y-115730000D01*
X99352299Y-115563371D01*
X99400903Y-115403145D01*
X99479830Y-115255481D01*
X99586052Y-115126052D01*
X99715481Y-115019830D01*
X99863145Y-114940903D01*
X100023371Y-114892299D01*
X100148244Y-114880000D01*
X100231756Y-114880000D01*
X100356629Y-114892299D01*
X100356629Y-114892299D01*
G37*
G36*
X95276629Y-114892299D02*
X95436855Y-114940903D01*
X95584519Y-115019830D01*
X95713948Y-115126052D01*
X95820170Y-115255481D01*
X95899097Y-115403145D01*
X95947701Y-115563371D01*
X95964113Y-115730000D01*
X95947701Y-115896629D01*
X95899097Y-116056855D01*
X95820170Y-116204519D01*
X95713948Y-116333948D01*
X95584519Y-116440170D01*
X95436855Y-116519097D01*
X95276629Y-116567701D01*
X95151756Y-116580000D01*
X95068244Y-116580000D01*
X94943371Y-116567701D01*
X94783145Y-116519097D01*
X94635481Y-116440170D01*
X94506052Y-116333948D01*
X94399830Y-116204519D01*
X94320903Y-116056855D01*
X94272299Y-115896629D01*
X94255887Y-115730000D01*
X94272299Y-115563371D01*
X94320903Y-115403145D01*
X94399830Y-115255481D01*
X94506052Y-115126052D01*
X94635481Y-115019830D01*
X94783145Y-114940903D01*
X94943371Y-114892299D01*
X95068244Y-114880000D01*
X95151756Y-114880000D01*
X95276629Y-114892299D01*
X95276629Y-114892299D01*
G37*
G36*
X92736629Y-114892299D02*
X92896855Y-114940903D01*
X93044519Y-115019830D01*
X93173948Y-115126052D01*
X93280170Y-115255481D01*
X93359097Y-115403145D01*
X93407701Y-115563371D01*
X93424113Y-115730000D01*
X93407701Y-115896629D01*
X93359097Y-116056855D01*
X93280170Y-116204519D01*
X93173948Y-116333948D01*
X93044519Y-116440170D01*
X92896855Y-116519097D01*
X92736629Y-116567701D01*
X92611756Y-116580000D01*
X92528244Y-116580000D01*
X92403371Y-116567701D01*
X92243145Y-116519097D01*
X92095481Y-116440170D01*
X91966052Y-116333948D01*
X91859830Y-116204519D01*
X91780903Y-116056855D01*
X91732299Y-115896629D01*
X91715887Y-115730000D01*
X91732299Y-115563371D01*
X91780903Y-115403145D01*
X91859830Y-115255481D01*
X91966052Y-115126052D01*
X92095481Y-115019830D01*
X92243145Y-114940903D01*
X92403371Y-114892299D01*
X92528244Y-114880000D01*
X92611756Y-114880000D01*
X92736629Y-114892299D01*
X92736629Y-114892299D01*
G37*
G36*
X110516629Y-114892299D02*
X110676855Y-114940903D01*
X110824519Y-115019830D01*
X110953948Y-115126052D01*
X111060170Y-115255481D01*
X111139097Y-115403145D01*
X111187701Y-115563371D01*
X111204113Y-115730000D01*
X111187701Y-115896629D01*
X111139097Y-116056855D01*
X111060170Y-116204519D01*
X110953948Y-116333948D01*
X110824519Y-116440170D01*
X110676855Y-116519097D01*
X110516629Y-116567701D01*
X110391756Y-116580000D01*
X110308244Y-116580000D01*
X110183371Y-116567701D01*
X110023145Y-116519097D01*
X109875481Y-116440170D01*
X109746052Y-116333948D01*
X109639830Y-116204519D01*
X109560903Y-116056855D01*
X109512299Y-115896629D01*
X109495887Y-115730000D01*
X109512299Y-115563371D01*
X109560903Y-115403145D01*
X109639830Y-115255481D01*
X109746052Y-115126052D01*
X109875481Y-115019830D01*
X110023145Y-114940903D01*
X110183371Y-114892299D01*
X110308244Y-114880000D01*
X110391756Y-114880000D01*
X110516629Y-114892299D01*
X110516629Y-114892299D01*
G37*
G36*
X113056629Y-114892299D02*
X113216855Y-114940903D01*
X113364519Y-115019830D01*
X113493948Y-115126052D01*
X113600170Y-115255481D01*
X113679097Y-115403145D01*
X113727701Y-115563371D01*
X113744113Y-115730000D01*
X113727701Y-115896629D01*
X113679097Y-116056855D01*
X113600170Y-116204519D01*
X113493948Y-116333948D01*
X113364519Y-116440170D01*
X113216855Y-116519097D01*
X113056629Y-116567701D01*
X112931756Y-116580000D01*
X112848244Y-116580000D01*
X112723371Y-116567701D01*
X112563145Y-116519097D01*
X112415481Y-116440170D01*
X112286052Y-116333948D01*
X112179830Y-116204519D01*
X112100903Y-116056855D01*
X112052299Y-115896629D01*
X112035887Y-115730000D01*
X112052299Y-115563371D01*
X112100903Y-115403145D01*
X112179830Y-115255481D01*
X112286052Y-115126052D01*
X112415481Y-115019830D01*
X112563145Y-114940903D01*
X112723371Y-114892299D01*
X112848244Y-114880000D01*
X112931756Y-114880000D01*
X113056629Y-114892299D01*
X113056629Y-114892299D01*
G37*
G36*
X97816629Y-114892299D02*
X97976855Y-114940903D01*
X98124519Y-115019830D01*
X98253948Y-115126052D01*
X98360170Y-115255481D01*
X98439097Y-115403145D01*
X98487701Y-115563371D01*
X98504113Y-115730000D01*
X98487701Y-115896629D01*
X98439097Y-116056855D01*
X98360170Y-116204519D01*
X98253948Y-116333948D01*
X98124519Y-116440170D01*
X97976855Y-116519097D01*
X97816629Y-116567701D01*
X97691756Y-116580000D01*
X97608244Y-116580000D01*
X97483371Y-116567701D01*
X97323145Y-116519097D01*
X97175481Y-116440170D01*
X97046052Y-116333948D01*
X96939830Y-116204519D01*
X96860903Y-116056855D01*
X96812299Y-115896629D01*
X96795887Y-115730000D01*
X96812299Y-115563371D01*
X96860903Y-115403145D01*
X96939830Y-115255481D01*
X97046052Y-115126052D01*
X97175481Y-115019830D01*
X97323145Y-114940903D01*
X97483371Y-114892299D01*
X97608244Y-114880000D01*
X97691756Y-114880000D01*
X97816629Y-114892299D01*
X97816629Y-114892299D01*
G37*
G36*
X69110000Y-114250000D02*
X68115000Y-114250000D01*
X68115000Y-113250000D01*
X69110000Y-113250000D01*
X69110000Y-114250000D01*
X69110000Y-114250000D01*
G37*
G36*
X70885000Y-114250000D02*
X69890000Y-114250000D01*
X69890000Y-113250000D01*
X70885000Y-113250000D01*
X70885000Y-114250000D01*
X70885000Y-114250000D01*
G37*
G36*
X78610000Y-114250000D02*
X77615000Y-114250000D01*
X77615000Y-113250000D01*
X78610000Y-113250000D01*
X78610000Y-114250000D01*
X78610000Y-114250000D01*
G37*
G36*
X80385000Y-114250000D02*
X79390000Y-114250000D01*
X79390000Y-113250000D01*
X80385000Y-113250000D01*
X80385000Y-114250000D01*
X80385000Y-114250000D01*
G37*
G36*
X102896629Y-112352299D02*
X103056855Y-112400903D01*
X103204519Y-112479830D01*
X103333948Y-112586052D01*
X103440170Y-112715481D01*
X103519097Y-112863145D01*
X103567701Y-113023371D01*
X103584113Y-113190000D01*
X103567701Y-113356629D01*
X103519097Y-113516855D01*
X103440170Y-113664519D01*
X103333948Y-113793948D01*
X103204519Y-113900170D01*
X103056855Y-113979097D01*
X102896629Y-114027701D01*
X102771756Y-114040000D01*
X102688244Y-114040000D01*
X102563371Y-114027701D01*
X102403145Y-113979097D01*
X102255481Y-113900170D01*
X102126052Y-113793948D01*
X102019830Y-113664519D01*
X101940903Y-113516855D01*
X101892299Y-113356629D01*
X101875887Y-113190000D01*
X101892299Y-113023371D01*
X101940903Y-112863145D01*
X102019830Y-112715481D01*
X102126052Y-112586052D01*
X102255481Y-112479830D01*
X102403145Y-112400903D01*
X102563371Y-112352299D01*
X102688244Y-112340000D01*
X102771756Y-112340000D01*
X102896629Y-112352299D01*
X102896629Y-112352299D01*
G37*
G36*
X92736629Y-112352299D02*
X92896855Y-112400903D01*
X93044519Y-112479830D01*
X93173948Y-112586052D01*
X93280170Y-112715481D01*
X93359097Y-112863145D01*
X93407701Y-113023371D01*
X93424113Y-113190000D01*
X93407701Y-113356629D01*
X93359097Y-113516855D01*
X93280170Y-113664519D01*
X93173948Y-113793948D01*
X93044519Y-113900170D01*
X92896855Y-113979097D01*
X92736629Y-114027701D01*
X92611756Y-114040000D01*
X92528244Y-114040000D01*
X92403371Y-114027701D01*
X92243145Y-113979097D01*
X92095481Y-113900170D01*
X91966052Y-113793948D01*
X91859830Y-113664519D01*
X91780903Y-113516855D01*
X91732299Y-113356629D01*
X91715887Y-113190000D01*
X91732299Y-113023371D01*
X91780903Y-112863145D01*
X91859830Y-112715481D01*
X91966052Y-112586052D01*
X92095481Y-112479830D01*
X92243145Y-112400903D01*
X92403371Y-112352299D01*
X92528244Y-112340000D01*
X92611756Y-112340000D01*
X92736629Y-112352299D01*
X92736629Y-112352299D01*
G37*
G36*
X95276629Y-112352299D02*
X95436855Y-112400903D01*
X95584519Y-112479830D01*
X95713948Y-112586052D01*
X95820170Y-112715481D01*
X95899097Y-112863145D01*
X95947701Y-113023371D01*
X95964113Y-113190000D01*
X95947701Y-113356629D01*
X95899097Y-113516855D01*
X95820170Y-113664519D01*
X95713948Y-113793948D01*
X95584519Y-113900170D01*
X95436855Y-113979097D01*
X95276629Y-114027701D01*
X95151756Y-114040000D01*
X95068244Y-114040000D01*
X94943371Y-114027701D01*
X94783145Y-113979097D01*
X94635481Y-113900170D01*
X94506052Y-113793948D01*
X94399830Y-113664519D01*
X94320903Y-113516855D01*
X94272299Y-113356629D01*
X94255887Y-113190000D01*
X94272299Y-113023371D01*
X94320903Y-112863145D01*
X94399830Y-112715481D01*
X94506052Y-112586052D01*
X94635481Y-112479830D01*
X94783145Y-112400903D01*
X94943371Y-112352299D01*
X95068244Y-112340000D01*
X95151756Y-112340000D01*
X95276629Y-112352299D01*
X95276629Y-112352299D01*
G37*
G36*
X97816629Y-112352299D02*
X97976855Y-112400903D01*
X98124519Y-112479830D01*
X98253948Y-112586052D01*
X98360170Y-112715481D01*
X98439097Y-112863145D01*
X98487701Y-113023371D01*
X98504113Y-113190000D01*
X98487701Y-113356629D01*
X98439097Y-113516855D01*
X98360170Y-113664519D01*
X98253948Y-113793948D01*
X98124519Y-113900170D01*
X97976855Y-113979097D01*
X97816629Y-114027701D01*
X97691756Y-114040000D01*
X97608244Y-114040000D01*
X97483371Y-114027701D01*
X97323145Y-113979097D01*
X97175481Y-113900170D01*
X97046052Y-113793948D01*
X96939830Y-113664519D01*
X96860903Y-113516855D01*
X96812299Y-113356629D01*
X96795887Y-113190000D01*
X96812299Y-113023371D01*
X96860903Y-112863145D01*
X96939830Y-112715481D01*
X97046052Y-112586052D01*
X97175481Y-112479830D01*
X97323145Y-112400903D01*
X97483371Y-112352299D01*
X97608244Y-112340000D01*
X97691756Y-112340000D01*
X97816629Y-112352299D01*
X97816629Y-112352299D01*
G37*
G36*
X100356629Y-112352299D02*
X100516855Y-112400903D01*
X100664519Y-112479830D01*
X100793948Y-112586052D01*
X100900170Y-112715481D01*
X100979097Y-112863145D01*
X101027701Y-113023371D01*
X101044113Y-113190000D01*
X101027701Y-113356629D01*
X100979097Y-113516855D01*
X100900170Y-113664519D01*
X100793948Y-113793948D01*
X100664519Y-113900170D01*
X100516855Y-113979097D01*
X100356629Y-114027701D01*
X100231756Y-114040000D01*
X100148244Y-114040000D01*
X100023371Y-114027701D01*
X99863145Y-113979097D01*
X99715481Y-113900170D01*
X99586052Y-113793948D01*
X99479830Y-113664519D01*
X99400903Y-113516855D01*
X99352299Y-113356629D01*
X99335887Y-113190000D01*
X99352299Y-113023371D01*
X99400903Y-112863145D01*
X99479830Y-112715481D01*
X99586052Y-112586052D01*
X99715481Y-112479830D01*
X99863145Y-112400903D01*
X100023371Y-112352299D01*
X100148244Y-112340000D01*
X100231756Y-112340000D01*
X100356629Y-112352299D01*
X100356629Y-112352299D01*
G37*
G36*
X107976629Y-112352299D02*
X108136855Y-112400903D01*
X108284519Y-112479830D01*
X108413948Y-112586052D01*
X108520170Y-112715481D01*
X108599097Y-112863145D01*
X108647701Y-113023371D01*
X108664113Y-113190000D01*
X108647701Y-113356629D01*
X108599097Y-113516855D01*
X108520170Y-113664519D01*
X108413948Y-113793948D01*
X108284519Y-113900170D01*
X108136855Y-113979097D01*
X107976629Y-114027701D01*
X107851756Y-114040000D01*
X107768244Y-114040000D01*
X107643371Y-114027701D01*
X107483145Y-113979097D01*
X107335481Y-113900170D01*
X107206052Y-113793948D01*
X107099830Y-113664519D01*
X107020903Y-113516855D01*
X106972299Y-113356629D01*
X106955887Y-113190000D01*
X106972299Y-113023371D01*
X107020903Y-112863145D01*
X107099830Y-112715481D01*
X107206052Y-112586052D01*
X107335481Y-112479830D01*
X107483145Y-112400903D01*
X107643371Y-112352299D01*
X107768244Y-112340000D01*
X107851756Y-112340000D01*
X107976629Y-112352299D01*
X107976629Y-112352299D01*
G37*
G36*
X110516629Y-112352299D02*
X110676855Y-112400903D01*
X110824519Y-112479830D01*
X110953948Y-112586052D01*
X111060170Y-112715481D01*
X111139097Y-112863145D01*
X111187701Y-113023371D01*
X111204113Y-113190000D01*
X111187701Y-113356629D01*
X111139097Y-113516855D01*
X111060170Y-113664519D01*
X110953948Y-113793948D01*
X110824519Y-113900170D01*
X110676855Y-113979097D01*
X110516629Y-114027701D01*
X110391756Y-114040000D01*
X110308244Y-114040000D01*
X110183371Y-114027701D01*
X110023145Y-113979097D01*
X109875481Y-113900170D01*
X109746052Y-113793948D01*
X109639830Y-113664519D01*
X109560903Y-113516855D01*
X109512299Y-113356629D01*
X109495887Y-113190000D01*
X109512299Y-113023371D01*
X109560903Y-112863145D01*
X109639830Y-112715481D01*
X109746052Y-112586052D01*
X109875481Y-112479830D01*
X110023145Y-112400903D01*
X110183371Y-112352299D01*
X110308244Y-112340000D01*
X110391756Y-112340000D01*
X110516629Y-112352299D01*
X110516629Y-112352299D01*
G37*
G36*
X113056629Y-112352299D02*
X113216855Y-112400903D01*
X113364519Y-112479830D01*
X113493948Y-112586052D01*
X113600170Y-112715481D01*
X113679097Y-112863145D01*
X113727701Y-113023371D01*
X113744113Y-113190000D01*
X113727701Y-113356629D01*
X113679097Y-113516855D01*
X113600170Y-113664519D01*
X113493948Y-113793948D01*
X113364519Y-113900170D01*
X113216855Y-113979097D01*
X113056629Y-114027701D01*
X112931756Y-114040000D01*
X112848244Y-114040000D01*
X112723371Y-114027701D01*
X112563145Y-113979097D01*
X112415481Y-113900170D01*
X112286052Y-113793948D01*
X112179830Y-113664519D01*
X112100903Y-113516855D01*
X112052299Y-113356629D01*
X112035887Y-113190000D01*
X112052299Y-113023371D01*
X112100903Y-112863145D01*
X112179830Y-112715481D01*
X112286052Y-112586052D01*
X112415481Y-112479830D01*
X112563145Y-112400903D01*
X112723371Y-112352299D01*
X112848244Y-112340000D01*
X112931756Y-112340000D01*
X113056629Y-112352299D01*
X113056629Y-112352299D01*
G37*
G36*
X105436629Y-112352299D02*
X105596855Y-112400903D01*
X105744519Y-112479830D01*
X105873948Y-112586052D01*
X105980170Y-112715481D01*
X106059097Y-112863145D01*
X106107701Y-113023371D01*
X106124113Y-113190000D01*
X106107701Y-113356629D01*
X106059097Y-113516855D01*
X105980170Y-113664519D01*
X105873948Y-113793948D01*
X105744519Y-113900170D01*
X105596855Y-113979097D01*
X105436629Y-114027701D01*
X105311756Y-114040000D01*
X105228244Y-114040000D01*
X105103371Y-114027701D01*
X104943145Y-113979097D01*
X104795481Y-113900170D01*
X104666052Y-113793948D01*
X104559830Y-113664519D01*
X104480903Y-113516855D01*
X104432299Y-113356629D01*
X104415887Y-113190000D01*
X104432299Y-113023371D01*
X104480903Y-112863145D01*
X104559830Y-112715481D01*
X104666052Y-112586052D01*
X104795481Y-112479830D01*
X104943145Y-112400903D01*
X105103371Y-112352299D01*
X105228244Y-112340000D01*
X105311756Y-112340000D01*
X105436629Y-112352299D01*
X105436629Y-112352299D01*
G37*
G36*
X116280000Y-114040000D02*
X114580000Y-114040000D01*
X114580000Y-112340000D01*
X116280000Y-112340000D01*
X116280000Y-114040000D01*
X116280000Y-114040000D01*
G37*
G36*
X80385000Y-112750000D02*
X79390000Y-112750000D01*
X79390000Y-111750000D01*
X80385000Y-111750000D01*
X80385000Y-112750000D01*
X80385000Y-112750000D01*
G37*
G36*
X69110000Y-112750000D02*
X68115000Y-112750000D01*
X68115000Y-111750000D01*
X69110000Y-111750000D01*
X69110000Y-112750000D01*
X69110000Y-112750000D01*
G37*
G36*
X70885000Y-112750000D02*
X69890000Y-112750000D01*
X69890000Y-111750000D01*
X70885000Y-111750000D01*
X70885000Y-112750000D01*
X70885000Y-112750000D01*
G37*
G36*
X78610000Y-112750000D02*
X77615000Y-112750000D01*
X77615000Y-111750000D01*
X78610000Y-111750000D01*
X78610000Y-112750000D01*
X78610000Y-112750000D01*
G37*
G36*
X60285000Y-111000000D02*
X59290000Y-111000000D01*
X59290000Y-110000000D01*
X60285000Y-110000000D01*
X60285000Y-111000000D01*
X60285000Y-111000000D01*
G37*
G36*
X58510000Y-111000000D02*
X57515000Y-111000000D01*
X57515000Y-110000000D01*
X58510000Y-110000000D01*
X58510000Y-111000000D01*
X58510000Y-111000000D01*
G37*
G36*
X60285000Y-109250000D02*
X59290000Y-109250000D01*
X59290000Y-108250000D01*
X60285000Y-108250000D01*
X60285000Y-109250000D01*
X60285000Y-109250000D01*
G37*
G36*
X58510000Y-109250000D02*
X57515000Y-109250000D01*
X57515000Y-108250000D01*
X58510000Y-108250000D01*
X58510000Y-109250000D01*
X58510000Y-109250000D01*
G37*
G36*
X107610000Y-109000000D02*
X106615000Y-109000000D01*
X106615000Y-108000000D01*
X107610000Y-108000000D01*
X107610000Y-109000000D01*
X107610000Y-109000000D01*
G37*
G36*
X109385000Y-109000000D02*
X108390000Y-109000000D01*
X108390000Y-108000000D01*
X109385000Y-108000000D01*
X109385000Y-109000000D01*
X109385000Y-109000000D01*
G37*
G36*
X97885000Y-108500000D02*
X96890000Y-108500000D01*
X96890000Y-107500000D01*
X97885000Y-107500000D01*
X97885000Y-108500000D01*
X97885000Y-108500000D01*
G37*
G36*
X96110000Y-108500000D02*
X95115000Y-108500000D01*
X95115000Y-107500000D01*
X96110000Y-107500000D01*
X96110000Y-108500000D01*
X96110000Y-108500000D01*
G37*
G36*
X92135000Y-108500000D02*
X91140000Y-108500000D01*
X91140000Y-107500000D01*
X92135000Y-107500000D01*
X92135000Y-108500000D01*
X92135000Y-108500000D01*
G37*
G36*
X90360000Y-108500000D02*
X89365000Y-108500000D01*
X89365000Y-107500000D01*
X90360000Y-107500000D01*
X90360000Y-108500000D01*
X90360000Y-108500000D01*
G37*
G36*
X58510000Y-107500000D02*
X57515000Y-107500000D01*
X57515000Y-106500000D01*
X58510000Y-106500000D01*
X58510000Y-107500000D01*
X58510000Y-107500000D01*
G37*
G36*
X60285000Y-107500000D02*
X59290000Y-107500000D01*
X59290000Y-106500000D01*
X60285000Y-106500000D01*
X60285000Y-107500000D01*
X60285000Y-107500000D01*
G37*
G36*
X107610000Y-107250000D02*
X106615000Y-107250000D01*
X106615000Y-106250000D01*
X107610000Y-106250000D01*
X107610000Y-107250000D01*
X107610000Y-107250000D01*
G37*
G36*
X109385000Y-107250000D02*
X108390000Y-107250000D01*
X108390000Y-106250000D01*
X109385000Y-106250000D01*
X109385000Y-107250000D01*
X109385000Y-107250000D01*
G37*
G36*
X122864608Y-103798036D02*
X122864610Y-103798037D01*
X122864611Y-103798037D01*
X123092097Y-103892265D01*
X123092099Y-103892266D01*
X123296827Y-104029061D01*
X123470939Y-104203173D01*
X123607734Y-104407901D01*
X123701964Y-104635392D01*
X123750000Y-104876884D01*
X123750000Y-105123116D01*
X123701964Y-105364608D01*
X123607734Y-105592099D01*
X123470939Y-105796827D01*
X123296827Y-105970939D01*
X123092099Y-106107734D01*
X123092098Y-106107735D01*
X123092097Y-106107735D01*
X122864611Y-106201963D01*
X122864610Y-106201963D01*
X122864608Y-106201964D01*
X122623116Y-106250000D01*
X122376884Y-106250000D01*
X122135392Y-106201964D01*
X122135390Y-106201963D01*
X122135389Y-106201963D01*
X121907903Y-106107735D01*
X121907902Y-106107735D01*
X121907901Y-106107734D01*
X121703173Y-105970939D01*
X121529061Y-105796827D01*
X121392266Y-105592099D01*
X121298036Y-105364608D01*
X121250000Y-105123116D01*
X121250000Y-104876884D01*
X121298036Y-104635392D01*
X121392266Y-104407901D01*
X121529061Y-104203173D01*
X121703173Y-104029061D01*
X121907901Y-103892266D01*
X121907903Y-103892265D01*
X122135389Y-103798037D01*
X122135390Y-103798037D01*
X122135392Y-103798036D01*
X122376884Y-103750000D01*
X122623116Y-103750000D01*
X122864608Y-103798036D01*
X122864608Y-103798036D01*
G37*
G36*
X114500000Y-106135000D02*
X113500000Y-106135000D01*
X113500000Y-105140000D01*
X114500000Y-105140000D01*
X114500000Y-106135000D01*
X114500000Y-106135000D01*
G37*
G36*
X116500000Y-106135000D02*
X115500000Y-106135000D01*
X115500000Y-105140000D01*
X116500000Y-105140000D01*
X116500000Y-106135000D01*
X116500000Y-106135000D01*
G37*
G36*
X60285000Y-105750000D02*
X59290000Y-105750000D01*
X59290000Y-104750000D01*
X60285000Y-104750000D01*
X60285000Y-105750000D01*
X60285000Y-105750000D01*
G37*
G36*
X58510000Y-105750000D02*
X57515000Y-105750000D01*
X57515000Y-104750000D01*
X58510000Y-104750000D01*
X58510000Y-105750000D01*
X58510000Y-105750000D01*
G37*
G36*
X109385000Y-104750000D02*
X108390000Y-104750000D01*
X108390000Y-103750000D01*
X109385000Y-103750000D01*
X109385000Y-104750000D01*
X109385000Y-104750000D01*
G37*
G36*
X107610000Y-104750000D02*
X106615000Y-104750000D01*
X106615000Y-103750000D01*
X107610000Y-103750000D01*
X107610000Y-104750000D01*
X107610000Y-104750000D01*
G37*
G36*
X116500000Y-104360000D02*
X115500000Y-104360000D01*
X115500000Y-103365000D01*
X116500000Y-103365000D01*
X116500000Y-104360000D01*
X116500000Y-104360000D01*
G37*
G36*
X114500000Y-104360000D02*
X113500000Y-104360000D01*
X113500000Y-103365000D01*
X114500000Y-103365000D01*
X114500000Y-104360000D01*
X114500000Y-104360000D01*
G37*
G36*
X58510000Y-104000000D02*
X57515000Y-104000000D01*
X57515000Y-103000000D01*
X58510000Y-103000000D01*
X58510000Y-104000000D01*
X58510000Y-104000000D01*
G37*
G36*
X60285000Y-104000000D02*
X59290000Y-104000000D01*
X59290000Y-103000000D01*
X60285000Y-103000000D01*
X60285000Y-104000000D01*
X60285000Y-104000000D01*
G37*
G36*
X107610000Y-103000000D02*
X106615000Y-103000000D01*
X106615000Y-102000000D01*
X107610000Y-102000000D01*
X107610000Y-103000000D01*
X107610000Y-103000000D01*
G37*
G36*
X109385000Y-103000000D02*
X108390000Y-103000000D01*
X108390000Y-102000000D01*
X109385000Y-102000000D01*
X109385000Y-103000000D01*
X109385000Y-103000000D01*
G37*
G36*
X88500000Y-101635000D02*
X87500000Y-101635000D01*
X87500000Y-100640000D01*
X88500000Y-100640000D01*
X88500000Y-101635000D01*
X88500000Y-101635000D01*
G37*
G36*
X87000000Y-101635000D02*
X86000000Y-101635000D01*
X86000000Y-100640000D01*
X87000000Y-100640000D01*
X87000000Y-101635000D01*
X87000000Y-101635000D01*
G37*
G36*
X72250000Y-101635000D02*
X71250000Y-101635000D01*
X71250000Y-100640000D01*
X72250000Y-100640000D01*
X72250000Y-101635000D01*
X72250000Y-101635000D01*
G37*
G36*
X67250000Y-101635000D02*
X66250000Y-101635000D01*
X66250000Y-100640000D01*
X67250000Y-100640000D01*
X67250000Y-101635000D01*
X67250000Y-101635000D01*
G37*
G36*
X91885000Y-100500000D02*
X90890000Y-100500000D01*
X90890000Y-99500000D01*
X91885000Y-99500000D01*
X91885000Y-100500000D01*
X91885000Y-100500000D01*
G37*
G36*
X90110000Y-100500000D02*
X89115000Y-100500000D01*
X89115000Y-99500000D01*
X90110000Y-99500000D01*
X90110000Y-100500000D01*
X90110000Y-100500000D01*
G37*
G36*
X72250000Y-99860000D02*
X71250000Y-99860000D01*
X71250000Y-98865000D01*
X72250000Y-98865000D01*
X72250000Y-99860000D01*
X72250000Y-99860000D01*
G37*
G36*
X87000000Y-99860000D02*
X86000000Y-99860000D01*
X86000000Y-98865000D01*
X87000000Y-98865000D01*
X87000000Y-99860000D01*
X87000000Y-99860000D01*
G37*
G36*
X67250000Y-99860000D02*
X66250000Y-99860000D01*
X66250000Y-98865000D01*
X67250000Y-98865000D01*
X67250000Y-99860000D01*
X67250000Y-99860000D01*
G37*
G36*
X88500000Y-99860000D02*
X87500000Y-99860000D01*
X87500000Y-98865000D01*
X88500000Y-98865000D01*
X88500000Y-99860000D01*
X88500000Y-99860000D01*
G37*
G36*
X90110000Y-99000000D02*
X89115000Y-99000000D01*
X89115000Y-98000000D01*
X90110000Y-98000000D01*
X90110000Y-99000000D01*
X90110000Y-99000000D01*
G37*
G36*
X91885000Y-99000000D02*
X90890000Y-99000000D01*
X90890000Y-98000000D01*
X91885000Y-98000000D01*
X91885000Y-99000000D01*
X91885000Y-99000000D01*
G37*
G36*
X75135000Y-97750000D02*
X74140000Y-97750000D01*
X74140000Y-96750000D01*
X75135000Y-96750000D01*
X75135000Y-97750000D01*
X75135000Y-97750000D01*
G37*
G36*
X73360000Y-97750000D02*
X72365000Y-97750000D01*
X72365000Y-96750000D01*
X73360000Y-96750000D01*
X73360000Y-97750000D01*
X73360000Y-97750000D01*
G37*
G36*
X63860000Y-97750000D02*
X62865000Y-97750000D01*
X62865000Y-96750000D01*
X63860000Y-96750000D01*
X63860000Y-97750000D01*
X63860000Y-97750000D01*
G37*
G36*
X65635000Y-97750000D02*
X64640000Y-97750000D01*
X64640000Y-96750000D01*
X65635000Y-96750000D01*
X65635000Y-97750000D01*
X65635000Y-97750000D01*
G37*
G36*
X92750000Y-97385000D02*
X91750000Y-97385000D01*
X91750000Y-96390000D01*
X92750000Y-96390000D01*
X92750000Y-97385000D01*
X92750000Y-97385000D01*
G37*
G36*
X89360000Y-97250000D02*
X88365000Y-97250000D01*
X88365000Y-96250000D01*
X89360000Y-96250000D01*
X89360000Y-97250000D01*
X89360000Y-97250000D01*
G37*
G36*
X91135000Y-97250000D02*
X90140000Y-97250000D01*
X90140000Y-96250000D01*
X91135000Y-96250000D01*
X91135000Y-97250000D01*
X91135000Y-97250000D01*
G37*
G36*
X65635000Y-95750000D02*
X64640000Y-95750000D01*
X64640000Y-94750000D01*
X65635000Y-94750000D01*
X65635000Y-95750000D01*
X65635000Y-95750000D01*
G37*
G36*
X63860000Y-95750000D02*
X62865000Y-95750000D01*
X62865000Y-94750000D01*
X63860000Y-94750000D01*
X63860000Y-95750000D01*
X63860000Y-95750000D01*
G37*
G36*
X89360000Y-95750000D02*
X88365000Y-95750000D01*
X88365000Y-94750000D01*
X89360000Y-94750000D01*
X89360000Y-95750000D01*
X89360000Y-95750000D01*
G37*
G36*
X91135000Y-95750000D02*
X90140000Y-95750000D01*
X90140000Y-94750000D01*
X91135000Y-94750000D01*
X91135000Y-95750000D01*
X91135000Y-95750000D01*
G37*
G36*
X92750000Y-95610000D02*
X91750000Y-95610000D01*
X91750000Y-94615000D01*
X92750000Y-94615000D01*
X92750000Y-95610000D01*
X92750000Y-95610000D01*
G37*
G36*
X79860000Y-95250000D02*
X78865000Y-95250000D01*
X78865000Y-94250000D01*
X79860000Y-94250000D01*
X79860000Y-95250000D01*
X79860000Y-95250000D01*
G37*
G36*
X81635000Y-95250000D02*
X80640000Y-95250000D01*
X80640000Y-94250000D01*
X81635000Y-94250000D01*
X81635000Y-95250000D01*
X81635000Y-95250000D01*
G37*
G36*
X89360000Y-94250000D02*
X88365000Y-94250000D01*
X88365000Y-93250000D01*
X89360000Y-93250000D01*
X89360000Y-94250000D01*
X89360000Y-94250000D01*
G37*
G36*
X91135000Y-94250000D02*
X90140000Y-94250000D01*
X90140000Y-93250000D01*
X91135000Y-93250000D01*
X91135000Y-94250000D01*
X91135000Y-94250000D01*
G37*
G36*
X63860000Y-93750000D02*
X62865000Y-93750000D01*
X62865000Y-92750000D01*
X63860000Y-92750000D01*
X63860000Y-93750000D01*
X63860000Y-93750000D01*
G37*
G36*
X65635000Y-93750000D02*
X64640000Y-93750000D01*
X64640000Y-92750000D01*
X65635000Y-92750000D01*
X65635000Y-93750000D01*
X65635000Y-93750000D01*
G37*
G36*
X81635000Y-93250000D02*
X80640000Y-93250000D01*
X80640000Y-92250000D01*
X81635000Y-92250000D01*
X81635000Y-93250000D01*
X81635000Y-93250000D01*
G37*
G36*
X79860000Y-93250000D02*
X78865000Y-93250000D01*
X78865000Y-92250000D01*
X79860000Y-92250000D01*
X79860000Y-93250000D01*
X79860000Y-93250000D01*
G37*
G36*
X66750000Y-92135000D02*
X65750000Y-92135000D01*
X65750000Y-91140000D01*
X66750000Y-91140000D01*
X66750000Y-92135000D01*
X66750000Y-92135000D01*
G37*
G36*
X72750000Y-92135000D02*
X71750000Y-92135000D01*
X71750000Y-91140000D01*
X72750000Y-91140000D01*
X72750000Y-92135000D01*
X72750000Y-92135000D01*
G37*
G36*
X75250000Y-92135000D02*
X74250000Y-92135000D01*
X74250000Y-91140000D01*
X75250000Y-91140000D01*
X75250000Y-92135000D01*
X75250000Y-92135000D01*
G37*
G36*
X75250000Y-90360000D02*
X74250000Y-90360000D01*
X74250000Y-89365000D01*
X75250000Y-89365000D01*
X75250000Y-90360000D01*
X75250000Y-90360000D01*
G37*
G36*
X72750000Y-90360000D02*
X71750000Y-90360000D01*
X71750000Y-89365000D01*
X72750000Y-89365000D01*
X72750000Y-90360000D01*
X72750000Y-90360000D01*
G37*
G36*
X66750000Y-90360000D02*
X65750000Y-90360000D01*
X65750000Y-89365000D01*
X66750000Y-89365000D01*
X66750000Y-90360000D01*
X66750000Y-90360000D01*
G37*
G36*
X112885000Y-89500000D02*
X111890000Y-89500000D01*
X111890000Y-88500000D01*
X112885000Y-88500000D01*
X112885000Y-89500000D01*
X112885000Y-89500000D01*
G37*
G36*
X111110000Y-89500000D02*
X110115000Y-89500000D01*
X110115000Y-88500000D01*
X111110000Y-88500000D01*
X111110000Y-89500000D01*
X111110000Y-89500000D01*
G37*
G36*
X100635000Y-89000000D02*
X99640000Y-89000000D01*
X99640000Y-88000000D01*
X100635000Y-88000000D01*
X100635000Y-89000000D01*
X100635000Y-89000000D01*
G37*
G36*
X98860000Y-89000000D02*
X97865000Y-89000000D01*
X97865000Y-88000000D01*
X98860000Y-88000000D01*
X98860000Y-89000000D01*
X98860000Y-89000000D01*
G37*
G36*
X93750000Y-87385000D02*
X92750000Y-87385000D01*
X92750000Y-86390000D01*
X93750000Y-86390000D01*
X93750000Y-87385000D01*
X93750000Y-87385000D01*
G37*
G36*
X91750000Y-87385000D02*
X90750000Y-87385000D01*
X90750000Y-86390000D01*
X91750000Y-86390000D01*
X91750000Y-87385000D01*
X91750000Y-87385000D01*
G37*
G36*
X98860000Y-87250000D02*
X97865000Y-87250000D01*
X97865000Y-86250000D01*
X98860000Y-86250000D01*
X98860000Y-87250000D01*
X98860000Y-87250000D01*
G37*
G36*
X100635000Y-87250000D02*
X99640000Y-87250000D01*
X99640000Y-86250000D01*
X100635000Y-86250000D01*
X100635000Y-87250000D01*
X100635000Y-87250000D01*
G37*
G36*
X122864608Y-83798036D02*
X122864610Y-83798037D01*
X122864611Y-83798037D01*
X123092097Y-83892265D01*
X123092099Y-83892266D01*
X123193721Y-83960168D01*
X123296828Y-84029062D01*
X123470938Y-84203172D01*
X123607735Y-84407903D01*
X123693518Y-84615000D01*
X123701964Y-84635392D01*
X123750000Y-84876884D01*
X123750000Y-85123116D01*
X123701964Y-85364608D01*
X123607734Y-85592099D01*
X123470939Y-85796827D01*
X123296827Y-85970939D01*
X123092099Y-86107734D01*
X123092098Y-86107735D01*
X123092097Y-86107735D01*
X122864611Y-86201963D01*
X122864610Y-86201963D01*
X122864608Y-86201964D01*
X122623116Y-86250000D01*
X122376884Y-86250000D01*
X122135392Y-86201964D01*
X122135390Y-86201963D01*
X122135389Y-86201963D01*
X121907903Y-86107735D01*
X121907902Y-86107735D01*
X121907901Y-86107734D01*
X121703173Y-85970939D01*
X121529061Y-85796827D01*
X121392266Y-85592099D01*
X121298036Y-85364608D01*
X121250000Y-85123116D01*
X121250000Y-84876884D01*
X121298036Y-84635392D01*
X121306483Y-84615000D01*
X121392265Y-84407903D01*
X121529062Y-84203172D01*
X121703172Y-84029062D01*
X121806279Y-83960168D01*
X121907901Y-83892266D01*
X121907903Y-83892265D01*
X122135389Y-83798037D01*
X122135390Y-83798037D01*
X122135392Y-83798036D01*
X122376884Y-83750000D01*
X122623116Y-83750000D01*
X122864608Y-83798036D01*
X122864608Y-83798036D01*
G37*
G36*
X93750000Y-85610000D02*
X92750000Y-85610000D01*
X92750000Y-84615000D01*
X93750000Y-84615000D01*
X93750000Y-85610000D01*
X93750000Y-85610000D01*
G37*
G36*
X91750000Y-85610000D02*
X90750000Y-85610000D01*
X90750000Y-84615000D01*
X91750000Y-84615000D01*
X91750000Y-85610000D01*
X91750000Y-85610000D01*
G37*
G36*
X100635000Y-84750000D02*
X99640000Y-84750000D01*
X99640000Y-83750000D01*
X100635000Y-83750000D01*
X100635000Y-84750000D01*
X100635000Y-84750000D01*
G37*
G36*
X98860000Y-84750000D02*
X97865000Y-84750000D01*
X97865000Y-83750000D01*
X98860000Y-83750000D01*
X98860000Y-84750000D01*
X98860000Y-84750000D01*
G37*
G36*
X80600000Y-84100000D02*
X78900000Y-84100000D01*
X78900000Y-82400000D01*
X80600000Y-82400000D01*
X80600000Y-84100000D01*
X80600000Y-84100000D01*
G37*
G36*
X82456629Y-82412299D02*
X82616855Y-82460903D01*
X82764519Y-82539830D01*
X82893948Y-82646052D01*
X83000170Y-82775481D01*
X83079097Y-82923145D01*
X83127701Y-83083371D01*
X83144113Y-83250000D01*
X83127701Y-83416629D01*
X83079097Y-83576855D01*
X83000170Y-83724519D01*
X82893948Y-83853948D01*
X82764519Y-83960170D01*
X82616855Y-84039097D01*
X82456629Y-84087701D01*
X82331756Y-84100000D01*
X82248244Y-84100000D01*
X82123371Y-84087701D01*
X81963145Y-84039097D01*
X81815481Y-83960170D01*
X81686052Y-83853948D01*
X81579830Y-83724519D01*
X81500903Y-83576855D01*
X81452299Y-83416629D01*
X81435887Y-83250000D01*
X81452299Y-83083371D01*
X81500903Y-82923145D01*
X81579830Y-82775481D01*
X81686052Y-82646052D01*
X81815481Y-82539830D01*
X81963145Y-82460903D01*
X82123371Y-82412299D01*
X82248244Y-82400000D01*
X82331756Y-82400000D01*
X82456629Y-82412299D01*
X82456629Y-82412299D01*
G37*
G36*
X111110000Y-83500000D02*
X110115000Y-83500000D01*
X110115000Y-82500000D01*
X111110000Y-82500000D01*
X111110000Y-83500000D01*
X111110000Y-83500000D01*
G37*
G36*
X112885000Y-83500000D02*
X111890000Y-83500000D01*
X111890000Y-82500000D01*
X112885000Y-82500000D01*
X112885000Y-83500000D01*
X112885000Y-83500000D01*
G37*
G36*
X100635000Y-83000000D02*
X99640000Y-83000000D01*
X99640000Y-82000000D01*
X100635000Y-82000000D01*
X100635000Y-83000000D01*
X100635000Y-83000000D01*
G37*
G36*
X98860000Y-83000000D02*
X97865000Y-83000000D01*
X97865000Y-82000000D01*
X98860000Y-82000000D01*
X98860000Y-83000000D01*
X98860000Y-83000000D01*
G37*
G36*
X100356629Y-76892299D02*
X100516855Y-76940903D01*
X100664519Y-77019830D01*
X100793948Y-77126052D01*
X100900170Y-77255481D01*
X100979097Y-77403145D01*
X101027701Y-77563371D01*
X101044113Y-77730000D01*
X101027701Y-77896629D01*
X100979097Y-78056855D01*
X100900170Y-78204519D01*
X100793948Y-78333948D01*
X100664519Y-78440170D01*
X100516855Y-78519097D01*
X100356629Y-78567701D01*
X100231756Y-78580000D01*
X100148244Y-78580000D01*
X100023371Y-78567701D01*
X99863145Y-78519097D01*
X99715481Y-78440170D01*
X99586052Y-78333948D01*
X99479830Y-78204519D01*
X99400903Y-78056855D01*
X99352299Y-77896629D01*
X99335887Y-77730000D01*
X99352299Y-77563371D01*
X99400903Y-77403145D01*
X99479830Y-77255481D01*
X99586052Y-77126052D01*
X99715481Y-77019830D01*
X99863145Y-76940903D01*
X100023371Y-76892299D01*
X100148244Y-76880000D01*
X100231756Y-76880000D01*
X100356629Y-76892299D01*
X100356629Y-76892299D01*
G37*
G36*
X97816629Y-76892299D02*
X97976855Y-76940903D01*
X98124519Y-77019830D01*
X98253948Y-77126052D01*
X98360170Y-77255481D01*
X98439097Y-77403145D01*
X98487701Y-77563371D01*
X98504113Y-77730000D01*
X98487701Y-77896629D01*
X98439097Y-78056855D01*
X98360170Y-78204519D01*
X98253948Y-78333948D01*
X98124519Y-78440170D01*
X97976855Y-78519097D01*
X97816629Y-78567701D01*
X97691756Y-78580000D01*
X97608244Y-78580000D01*
X97483371Y-78567701D01*
X97323145Y-78519097D01*
X97175481Y-78440170D01*
X97046052Y-78333948D01*
X96939830Y-78204519D01*
X96860903Y-78056855D01*
X96812299Y-77896629D01*
X96795887Y-77730000D01*
X96812299Y-77563371D01*
X96860903Y-77403145D01*
X96939830Y-77255481D01*
X97046052Y-77126052D01*
X97175481Y-77019830D01*
X97323145Y-76940903D01*
X97483371Y-76892299D01*
X97608244Y-76880000D01*
X97691756Y-76880000D01*
X97816629Y-76892299D01*
X97816629Y-76892299D01*
G37*
G36*
X93420000Y-78580000D02*
X91720000Y-78580000D01*
X91720000Y-76880000D01*
X93420000Y-76880000D01*
X93420000Y-78580000D01*
X93420000Y-78580000D01*
G37*
G36*
X115596629Y-76892299D02*
X115756855Y-76940903D01*
X115904519Y-77019830D01*
X116033948Y-77126052D01*
X116140170Y-77255481D01*
X116219097Y-77403145D01*
X116267701Y-77563371D01*
X116284113Y-77730000D01*
X116267701Y-77896629D01*
X116219097Y-78056855D01*
X116140170Y-78204519D01*
X116033948Y-78333948D01*
X115904519Y-78440170D01*
X115756855Y-78519097D01*
X115596629Y-78567701D01*
X115471756Y-78580000D01*
X115388244Y-78580000D01*
X115263371Y-78567701D01*
X115103145Y-78519097D01*
X114955481Y-78440170D01*
X114826052Y-78333948D01*
X114719830Y-78204519D01*
X114640903Y-78056855D01*
X114592299Y-77896629D01*
X114575887Y-77730000D01*
X114592299Y-77563371D01*
X114640903Y-77403145D01*
X114719830Y-77255481D01*
X114826052Y-77126052D01*
X114955481Y-77019830D01*
X115103145Y-76940903D01*
X115263371Y-76892299D01*
X115388244Y-76880000D01*
X115471756Y-76880000D01*
X115596629Y-76892299D01*
X115596629Y-76892299D01*
G37*
G36*
X113056629Y-76892299D02*
X113216855Y-76940903D01*
X113364519Y-77019830D01*
X113493948Y-77126052D01*
X113600170Y-77255481D01*
X113679097Y-77403145D01*
X113727701Y-77563371D01*
X113744113Y-77730000D01*
X113727701Y-77896629D01*
X113679097Y-78056855D01*
X113600170Y-78204519D01*
X113493948Y-78333948D01*
X113364519Y-78440170D01*
X113216855Y-78519097D01*
X113056629Y-78567701D01*
X112931756Y-78580000D01*
X112848244Y-78580000D01*
X112723371Y-78567701D01*
X112563145Y-78519097D01*
X112415481Y-78440170D01*
X112286052Y-78333948D01*
X112179830Y-78204519D01*
X112100903Y-78056855D01*
X112052299Y-77896629D01*
X112035887Y-77730000D01*
X112052299Y-77563371D01*
X112100903Y-77403145D01*
X112179830Y-77255481D01*
X112286052Y-77126052D01*
X112415481Y-77019830D01*
X112563145Y-76940903D01*
X112723371Y-76892299D01*
X112848244Y-76880000D01*
X112931756Y-76880000D01*
X113056629Y-76892299D01*
X113056629Y-76892299D01*
G37*
G36*
X107976629Y-76892299D02*
X108136855Y-76940903D01*
X108284519Y-77019830D01*
X108413948Y-77126052D01*
X108520170Y-77255481D01*
X108599097Y-77403145D01*
X108647701Y-77563371D01*
X108664113Y-77730000D01*
X108647701Y-77896629D01*
X108599097Y-78056855D01*
X108520170Y-78204519D01*
X108413948Y-78333948D01*
X108284519Y-78440170D01*
X108136855Y-78519097D01*
X107976629Y-78567701D01*
X107851756Y-78580000D01*
X107768244Y-78580000D01*
X107643371Y-78567701D01*
X107483145Y-78519097D01*
X107335481Y-78440170D01*
X107206052Y-78333948D01*
X107099830Y-78204519D01*
X107020903Y-78056855D01*
X106972299Y-77896629D01*
X106955887Y-77730000D01*
X106972299Y-77563371D01*
X107020903Y-77403145D01*
X107099830Y-77255481D01*
X107206052Y-77126052D01*
X107335481Y-77019830D01*
X107483145Y-76940903D01*
X107643371Y-76892299D01*
X107768244Y-76880000D01*
X107851756Y-76880000D01*
X107976629Y-76892299D01*
X107976629Y-76892299D01*
G37*
G36*
X95276629Y-76892299D02*
X95436855Y-76940903D01*
X95584519Y-77019830D01*
X95713948Y-77126052D01*
X95820170Y-77255481D01*
X95899097Y-77403145D01*
X95947701Y-77563371D01*
X95964113Y-77730000D01*
X95947701Y-77896629D01*
X95899097Y-78056855D01*
X95820170Y-78204519D01*
X95713948Y-78333948D01*
X95584519Y-78440170D01*
X95436855Y-78519097D01*
X95276629Y-78567701D01*
X95151756Y-78580000D01*
X95068244Y-78580000D01*
X94943371Y-78567701D01*
X94783145Y-78519097D01*
X94635481Y-78440170D01*
X94506052Y-78333948D01*
X94399830Y-78204519D01*
X94320903Y-78056855D01*
X94272299Y-77896629D01*
X94255887Y-77730000D01*
X94272299Y-77563371D01*
X94320903Y-77403145D01*
X94399830Y-77255481D01*
X94506052Y-77126052D01*
X94635481Y-77019830D01*
X94783145Y-76940903D01*
X94943371Y-76892299D01*
X95068244Y-76880000D01*
X95151756Y-76880000D01*
X95276629Y-76892299D01*
X95276629Y-76892299D01*
G37*
G36*
X105436629Y-76892299D02*
X105596855Y-76940903D01*
X105744519Y-77019830D01*
X105873948Y-77126052D01*
X105980170Y-77255481D01*
X106059097Y-77403145D01*
X106107701Y-77563371D01*
X106124113Y-77730000D01*
X106107701Y-77896629D01*
X106059097Y-78056855D01*
X105980170Y-78204519D01*
X105873948Y-78333948D01*
X105744519Y-78440170D01*
X105596855Y-78519097D01*
X105436629Y-78567701D01*
X105311756Y-78580000D01*
X105228244Y-78580000D01*
X105103371Y-78567701D01*
X104943145Y-78519097D01*
X104795481Y-78440170D01*
X104666052Y-78333948D01*
X104559830Y-78204519D01*
X104480903Y-78056855D01*
X104432299Y-77896629D01*
X104415887Y-77730000D01*
X104432299Y-77563371D01*
X104480903Y-77403145D01*
X104559830Y-77255481D01*
X104666052Y-77126052D01*
X104795481Y-77019830D01*
X104943145Y-76940903D01*
X105103371Y-76892299D01*
X105228244Y-76880000D01*
X105311756Y-76880000D01*
X105436629Y-76892299D01*
X105436629Y-76892299D01*
G37*
G36*
X102896629Y-76892299D02*
X103056855Y-76940903D01*
X103204519Y-77019830D01*
X103333948Y-77126052D01*
X103440170Y-77255481D01*
X103519097Y-77403145D01*
X103567701Y-77563371D01*
X103584113Y-77730000D01*
X103567701Y-77896629D01*
X103519097Y-78056855D01*
X103440170Y-78204519D01*
X103333948Y-78333948D01*
X103204519Y-78440170D01*
X103056855Y-78519097D01*
X102896629Y-78567701D01*
X102771756Y-78580000D01*
X102688244Y-78580000D01*
X102563371Y-78567701D01*
X102403145Y-78519097D01*
X102255481Y-78440170D01*
X102126052Y-78333948D01*
X102019830Y-78204519D01*
X101940903Y-78056855D01*
X101892299Y-77896629D01*
X101875887Y-77730000D01*
X101892299Y-77563371D01*
X101940903Y-77403145D01*
X102019830Y-77255481D01*
X102126052Y-77126052D01*
X102255481Y-77019830D01*
X102403145Y-76940903D01*
X102563371Y-76892299D01*
X102688244Y-76880000D01*
X102771756Y-76880000D01*
X102896629Y-76892299D01*
X102896629Y-76892299D01*
G37*
G36*
X110516629Y-76892299D02*
X110676855Y-76940903D01*
X110824519Y-77019830D01*
X110953948Y-77126052D01*
X111060170Y-77255481D01*
X111139097Y-77403145D01*
X111187701Y-77563371D01*
X111204113Y-77730000D01*
X111187701Y-77896629D01*
X111139097Y-78056855D01*
X111060170Y-78204519D01*
X110953948Y-78333948D01*
X110824519Y-78440170D01*
X110676855Y-78519097D01*
X110516629Y-78567701D01*
X110391756Y-78580000D01*
X110308244Y-78580000D01*
X110183371Y-78567701D01*
X110023145Y-78519097D01*
X109875481Y-78440170D01*
X109746052Y-78333948D01*
X109639830Y-78204519D01*
X109560903Y-78056855D01*
X109512299Y-77896629D01*
X109495887Y-77730000D01*
X109512299Y-77563371D01*
X109560903Y-77403145D01*
X109639830Y-77255481D01*
X109746052Y-77126052D01*
X109875481Y-77019830D01*
X110023145Y-76940903D01*
X110183371Y-76892299D01*
X110308244Y-76880000D01*
X110391756Y-76880000D01*
X110516629Y-76892299D01*
X110516629Y-76892299D01*
G37*
G36*
X54933402Y-71922974D02*
X54933404Y-71922975D01*
X54933405Y-71922975D01*
X55515768Y-72164197D01*
X55515770Y-72164198D01*
X56039880Y-72514397D01*
X56485603Y-72960120D01*
X56835802Y-73484230D01*
X57077026Y-74066598D01*
X57200000Y-74684825D01*
X57200000Y-75315175D01*
X57077026Y-75933402D01*
X56835802Y-76515770D01*
X56485603Y-77039880D01*
X56039880Y-77485603D01*
X55515770Y-77835802D01*
X55515769Y-77835803D01*
X55515768Y-77835803D01*
X54933405Y-78077025D01*
X54933404Y-78077025D01*
X54933402Y-78077026D01*
X54315175Y-78200000D01*
X53684825Y-78200000D01*
X53066598Y-78077026D01*
X53066596Y-78077025D01*
X53066595Y-78077025D01*
X52484232Y-77835803D01*
X52484231Y-77835803D01*
X52484230Y-77835802D01*
X51960120Y-77485603D01*
X51514397Y-77039880D01*
X51164198Y-76515770D01*
X50922974Y-75933402D01*
X50800000Y-75315175D01*
X50800000Y-74684825D01*
X50922974Y-74066598D01*
X51164198Y-73484230D01*
X51514397Y-72960120D01*
X51960120Y-72514397D01*
X52484230Y-72164198D01*
X52484232Y-72164197D01*
X53066595Y-71922975D01*
X53066596Y-71922975D01*
X53066598Y-71922974D01*
X53684825Y-71800000D01*
X54315175Y-71800000D01*
X54933402Y-71922974D01*
X54933402Y-71922974D01*
G37*
G36*
X126933402Y-71922974D02*
X126933404Y-71922975D01*
X126933405Y-71922975D01*
X127515768Y-72164197D01*
X127515770Y-72164198D01*
X128039880Y-72514397D01*
X128485603Y-72960120D01*
X128835802Y-73484230D01*
X129077026Y-74066598D01*
X129200000Y-74684825D01*
X129200000Y-75315175D01*
X129077026Y-75933402D01*
X128835802Y-76515770D01*
X128485603Y-77039880D01*
X128039880Y-77485603D01*
X127515770Y-77835802D01*
X127515769Y-77835803D01*
X127515768Y-77835803D01*
X126933405Y-78077025D01*
X126933404Y-78077025D01*
X126933402Y-78077026D01*
X126315175Y-78200000D01*
X125684825Y-78200000D01*
X125066598Y-78077026D01*
X125066596Y-78077025D01*
X125066595Y-78077025D01*
X124484232Y-77835803D01*
X124484231Y-77835803D01*
X124484230Y-77835802D01*
X123960120Y-77485603D01*
X123514397Y-77039880D01*
X123164198Y-76515770D01*
X122922974Y-75933402D01*
X122800000Y-75315175D01*
X122800000Y-74684825D01*
X122922974Y-74066598D01*
X123164198Y-73484230D01*
X123514397Y-72960120D01*
X123960120Y-72514397D01*
X124484230Y-72164198D01*
X124484232Y-72164197D01*
X125066595Y-71922975D01*
X125066596Y-71922975D01*
X125066598Y-71922974D01*
X125684825Y-71800000D01*
X126315175Y-71800000D01*
X126933402Y-71922974D01*
X126933402Y-71922974D01*
G37*
G36*
X95276629Y-74352299D02*
X95436855Y-74400903D01*
X95584519Y-74479830D01*
X95713948Y-74586052D01*
X95820170Y-74715481D01*
X95899097Y-74863145D01*
X95947701Y-75023371D01*
X95964113Y-75190000D01*
X95947701Y-75356629D01*
X95899097Y-75516855D01*
X95820170Y-75664519D01*
X95713948Y-75793948D01*
X95584519Y-75900170D01*
X95436855Y-75979097D01*
X95276629Y-76027701D01*
X95151756Y-76040000D01*
X95068244Y-76040000D01*
X94943371Y-76027701D01*
X94783145Y-75979097D01*
X94635481Y-75900170D01*
X94506052Y-75793948D01*
X94399830Y-75664519D01*
X94320903Y-75516855D01*
X94272299Y-75356629D01*
X94255887Y-75190000D01*
X94272299Y-75023371D01*
X94320903Y-74863145D01*
X94399830Y-74715481D01*
X94506052Y-74586052D01*
X94635481Y-74479830D01*
X94783145Y-74400903D01*
X94943371Y-74352299D01*
X95068244Y-74340000D01*
X95151756Y-74340000D01*
X95276629Y-74352299D01*
X95276629Y-74352299D01*
G37*
G36*
X110516629Y-74352299D02*
X110676855Y-74400903D01*
X110824519Y-74479830D01*
X110953948Y-74586052D01*
X111060170Y-74715481D01*
X111139097Y-74863145D01*
X111187701Y-75023371D01*
X111204113Y-75190000D01*
X111187701Y-75356629D01*
X111139097Y-75516855D01*
X111060170Y-75664519D01*
X110953948Y-75793948D01*
X110824519Y-75900170D01*
X110676855Y-75979097D01*
X110516629Y-76027701D01*
X110391756Y-76040000D01*
X110308244Y-76040000D01*
X110183371Y-76027701D01*
X110023145Y-75979097D01*
X109875481Y-75900170D01*
X109746052Y-75793948D01*
X109639830Y-75664519D01*
X109560903Y-75516855D01*
X109512299Y-75356629D01*
X109495887Y-75190000D01*
X109512299Y-75023371D01*
X109560903Y-74863145D01*
X109639830Y-74715481D01*
X109746052Y-74586052D01*
X109875481Y-74479830D01*
X110023145Y-74400903D01*
X110183371Y-74352299D01*
X110308244Y-74340000D01*
X110391756Y-74340000D01*
X110516629Y-74352299D01*
X110516629Y-74352299D01*
G37*
G36*
X113056629Y-74352299D02*
X113216855Y-74400903D01*
X113364519Y-74479830D01*
X113493948Y-74586052D01*
X113600170Y-74715481D01*
X113679097Y-74863145D01*
X113727701Y-75023371D01*
X113744113Y-75190000D01*
X113727701Y-75356629D01*
X113679097Y-75516855D01*
X113600170Y-75664519D01*
X113493948Y-75793948D01*
X113364519Y-75900170D01*
X113216855Y-75979097D01*
X113056629Y-76027701D01*
X112931756Y-76040000D01*
X112848244Y-76040000D01*
X112723371Y-76027701D01*
X112563145Y-75979097D01*
X112415481Y-75900170D01*
X112286052Y-75793948D01*
X112179830Y-75664519D01*
X112100903Y-75516855D01*
X112052299Y-75356629D01*
X112035887Y-75190000D01*
X112052299Y-75023371D01*
X112100903Y-74863145D01*
X112179830Y-74715481D01*
X112286052Y-74586052D01*
X112415481Y-74479830D01*
X112563145Y-74400903D01*
X112723371Y-74352299D01*
X112848244Y-74340000D01*
X112931756Y-74340000D01*
X113056629Y-74352299D01*
X113056629Y-74352299D01*
G37*
G36*
X105436629Y-74352299D02*
X105596855Y-74400903D01*
X105744519Y-74479830D01*
X105873948Y-74586052D01*
X105980170Y-74715481D01*
X106059097Y-74863145D01*
X106107701Y-75023371D01*
X106124113Y-75190000D01*
X106107701Y-75356629D01*
X106059097Y-75516855D01*
X105980170Y-75664519D01*
X105873948Y-75793948D01*
X105744519Y-75900170D01*
X105596855Y-75979097D01*
X105436629Y-76027701D01*
X105311756Y-76040000D01*
X105228244Y-76040000D01*
X105103371Y-76027701D01*
X104943145Y-75979097D01*
X104795481Y-75900170D01*
X104666052Y-75793948D01*
X104559830Y-75664519D01*
X104480903Y-75516855D01*
X104432299Y-75356629D01*
X104415887Y-75190000D01*
X104432299Y-75023371D01*
X104480903Y-74863145D01*
X104559830Y-74715481D01*
X104666052Y-74586052D01*
X104795481Y-74479830D01*
X104943145Y-74400903D01*
X105103371Y-74352299D01*
X105228244Y-74340000D01*
X105311756Y-74340000D01*
X105436629Y-74352299D01*
X105436629Y-74352299D01*
G37*
G36*
X115596629Y-74352299D02*
X115756855Y-74400903D01*
X115904519Y-74479830D01*
X116033948Y-74586052D01*
X116140170Y-74715481D01*
X116219097Y-74863145D01*
X116267701Y-75023371D01*
X116284113Y-75190000D01*
X116267701Y-75356629D01*
X116219097Y-75516855D01*
X116140170Y-75664519D01*
X116033948Y-75793948D01*
X115904519Y-75900170D01*
X115756855Y-75979097D01*
X115596629Y-76027701D01*
X115471756Y-76040000D01*
X115388244Y-76040000D01*
X115263371Y-76027701D01*
X115103145Y-75979097D01*
X114955481Y-75900170D01*
X114826052Y-75793948D01*
X114719830Y-75664519D01*
X114640903Y-75516855D01*
X114592299Y-75356629D01*
X114575887Y-75190000D01*
X114592299Y-75023371D01*
X114640903Y-74863145D01*
X114719830Y-74715481D01*
X114826052Y-74586052D01*
X114955481Y-74479830D01*
X115103145Y-74400903D01*
X115263371Y-74352299D01*
X115388244Y-74340000D01*
X115471756Y-74340000D01*
X115596629Y-74352299D01*
X115596629Y-74352299D01*
G37*
G36*
X102896629Y-74352299D02*
X103056855Y-74400903D01*
X103204519Y-74479830D01*
X103333948Y-74586052D01*
X103440170Y-74715481D01*
X103519097Y-74863145D01*
X103567701Y-75023371D01*
X103584113Y-75190000D01*
X103567701Y-75356629D01*
X103519097Y-75516855D01*
X103440170Y-75664519D01*
X103333948Y-75793948D01*
X103204519Y-75900170D01*
X103056855Y-75979097D01*
X102896629Y-76027701D01*
X102771756Y-76040000D01*
X102688244Y-76040000D01*
X102563371Y-76027701D01*
X102403145Y-75979097D01*
X102255481Y-75900170D01*
X102126052Y-75793948D01*
X102019830Y-75664519D01*
X101940903Y-75516855D01*
X101892299Y-75356629D01*
X101875887Y-75190000D01*
X101892299Y-75023371D01*
X101940903Y-74863145D01*
X102019830Y-74715481D01*
X102126052Y-74586052D01*
X102255481Y-74479830D01*
X102403145Y-74400903D01*
X102563371Y-74352299D01*
X102688244Y-74340000D01*
X102771756Y-74340000D01*
X102896629Y-74352299D01*
X102896629Y-74352299D01*
G37*
G36*
X100356629Y-74352299D02*
X100516855Y-74400903D01*
X100664519Y-74479830D01*
X100793948Y-74586052D01*
X100900170Y-74715481D01*
X100979097Y-74863145D01*
X101027701Y-75023371D01*
X101044113Y-75190000D01*
X101027701Y-75356629D01*
X100979097Y-75516855D01*
X100900170Y-75664519D01*
X100793948Y-75793948D01*
X100664519Y-75900170D01*
X100516855Y-75979097D01*
X100356629Y-76027701D01*
X100231756Y-76040000D01*
X100148244Y-76040000D01*
X100023371Y-76027701D01*
X99863145Y-75979097D01*
X99715481Y-75900170D01*
X99586052Y-75793948D01*
X99479830Y-75664519D01*
X99400903Y-75516855D01*
X99352299Y-75356629D01*
X99335887Y-75190000D01*
X99352299Y-75023371D01*
X99400903Y-74863145D01*
X99479830Y-74715481D01*
X99586052Y-74586052D01*
X99715481Y-74479830D01*
X99863145Y-74400903D01*
X100023371Y-74352299D01*
X100148244Y-74340000D01*
X100231756Y-74340000D01*
X100356629Y-74352299D01*
X100356629Y-74352299D01*
G37*
G36*
X97816629Y-74352299D02*
X97976855Y-74400903D01*
X98124519Y-74479830D01*
X98253948Y-74586052D01*
X98360170Y-74715481D01*
X98439097Y-74863145D01*
X98487701Y-75023371D01*
X98504113Y-75190000D01*
X98487701Y-75356629D01*
X98439097Y-75516855D01*
X98360170Y-75664519D01*
X98253948Y-75793948D01*
X98124519Y-75900170D01*
X97976855Y-75979097D01*
X97816629Y-76027701D01*
X97691756Y-76040000D01*
X97608244Y-76040000D01*
X97483371Y-76027701D01*
X97323145Y-75979097D01*
X97175481Y-75900170D01*
X97046052Y-75793948D01*
X96939830Y-75664519D01*
X96860903Y-75516855D01*
X96812299Y-75356629D01*
X96795887Y-75190000D01*
X96812299Y-75023371D01*
X96860903Y-74863145D01*
X96939830Y-74715481D01*
X97046052Y-74586052D01*
X97175481Y-74479830D01*
X97323145Y-74400903D01*
X97483371Y-74352299D01*
X97608244Y-74340000D01*
X97691756Y-74340000D01*
X97816629Y-74352299D01*
X97816629Y-74352299D01*
G37*
G36*
X92736629Y-74352299D02*
X92896855Y-74400903D01*
X93044519Y-74479830D01*
X93173948Y-74586052D01*
X93280170Y-74715481D01*
X93359097Y-74863145D01*
X93407701Y-75023371D01*
X93424113Y-75190000D01*
X93407701Y-75356629D01*
X93359097Y-75516855D01*
X93280170Y-75664519D01*
X93173948Y-75793948D01*
X93044519Y-75900170D01*
X92896855Y-75979097D01*
X92736629Y-76027701D01*
X92611756Y-76040000D01*
X92528244Y-76040000D01*
X92403371Y-76027701D01*
X92243145Y-75979097D01*
X92095481Y-75900170D01*
X91966052Y-75793948D01*
X91859830Y-75664519D01*
X91780903Y-75516855D01*
X91732299Y-75356629D01*
X91715887Y-75190000D01*
X91732299Y-75023371D01*
X91780903Y-74863145D01*
X91859830Y-74715481D01*
X91966052Y-74586052D01*
X92095481Y-74479830D01*
X92243145Y-74400903D01*
X92403371Y-74352299D01*
X92528244Y-74340000D01*
X92611756Y-74340000D01*
X92736629Y-74352299D01*
X92736629Y-74352299D01*
G37*
G36*
X107976629Y-74352299D02*
X108136855Y-74400903D01*
X108284519Y-74479830D01*
X108413948Y-74586052D01*
X108520170Y-74715481D01*
X108599097Y-74863145D01*
X108647701Y-75023371D01*
X108664113Y-75190000D01*
X108647701Y-75356629D01*
X108599097Y-75516855D01*
X108520170Y-75664519D01*
X108413948Y-75793948D01*
X108284519Y-75900170D01*
X108136855Y-75979097D01*
X107976629Y-76027701D01*
X107851756Y-76040000D01*
X107768244Y-76040000D01*
X107643371Y-76027701D01*
X107483145Y-75979097D01*
X107335481Y-75900170D01*
X107206052Y-75793948D01*
X107099830Y-75664519D01*
X107020903Y-75516855D01*
X106972299Y-75356629D01*
X106955887Y-75190000D01*
X106972299Y-75023371D01*
X107020903Y-74863145D01*
X107099830Y-74715481D01*
X107206052Y-74586052D01*
X107335481Y-74479830D01*
X107483145Y-74400903D01*
X107643371Y-74352299D01*
X107768244Y-74340000D01*
X107851756Y-74340000D01*
X107976629Y-74352299D01*
X107976629Y-74352299D01*
G37*
G36*
X119968763Y-74278821D02*
X119968764Y-74278821D01*
X119968767Y-74278822D01*
X120105258Y-74335359D01*
X120105260Y-74335360D01*
X120203352Y-74400903D01*
X120228097Y-74417437D01*
X120332563Y-74521903D01*
X120414641Y-74644742D01*
X120471178Y-74781233D01*
X120471179Y-74781236D01*
X120471179Y-74781237D01*
X120487472Y-74863145D01*
X120500000Y-74926131D01*
X120500000Y-75073869D01*
X120471178Y-75218767D01*
X120431245Y-75315172D01*
X120414640Y-75355260D01*
X120332564Y-75478096D01*
X120228096Y-75582564D01*
X120105260Y-75664640D01*
X120105259Y-75664641D01*
X120105258Y-75664641D01*
X119968767Y-75721178D01*
X119968764Y-75721179D01*
X119968763Y-75721179D01*
X119823871Y-75750000D01*
X119676129Y-75750000D01*
X119531237Y-75721179D01*
X119531236Y-75721179D01*
X119531233Y-75721178D01*
X119394742Y-75664641D01*
X119394741Y-75664641D01*
X119394740Y-75664640D01*
X119271904Y-75582564D01*
X119167436Y-75478096D01*
X119085360Y-75355260D01*
X119068755Y-75315172D01*
X119028822Y-75218767D01*
X119000000Y-75073869D01*
X119000000Y-74926131D01*
X119012529Y-74863145D01*
X119028821Y-74781237D01*
X119028821Y-74781236D01*
X119028822Y-74781233D01*
X119085359Y-74644742D01*
X119167437Y-74521903D01*
X119271903Y-74417437D01*
X119296648Y-74400903D01*
X119394740Y-74335360D01*
X119394742Y-74335359D01*
X119531233Y-74278822D01*
X119531236Y-74278821D01*
X119531237Y-74278821D01*
X119676129Y-74250000D01*
X119823871Y-74250000D01*
X119968763Y-74278821D01*
X119968763Y-74278821D01*
G37*
M02*
